<?xml version="1.0" encoding="utf-8"?>
<!-- Generator: Adobe Illustrator 21.0.0, SVG Export Plug-In . SVG Version: 6.00 Build 0)  -->
<svg version="1.1" id="Слой_1" xmlns="http://www.w3.org/2000/svg" xmlns:xlink="http://www.w3.org/1999/xlink" x="0px" y="0px"
	 viewBox="0 0 130.1 154.5" style="enable-background:new 0 0 130.1 154.5;" xml:space="preserve">
<style type="text/css">
	.st0{fill:none;stroke:#0037FF;stroke-linecap:round;stroke-linejoin:round;}
	.st1{opacity:0.5;fill:none;stroke:#0037FF;stroke-linecap:round;stroke-linejoin:round;enable-background:new    ;}
	.st2{opacity:0.4;fill:none;stroke:#0037FF;stroke-linecap:round;stroke-linejoin:round;enable-background:new    ;}
	.st3{opacity:0.6;}
	.st4{fill:url(#SVGID_1_);}
	.st5{fill:url(#SVGID_2_);}
	.st6{fill:#4E11F4;}
	.st7{fill:#FFAF84;}
	.st8{fill:url(#SVGID_3_);}
	.st9{fill:url(#SVGID_4_);}
	.st10{fill:url(#SVGID_5_);}
	.st11{fill:#F70F47;}
	.st12{fill:url(#SVGID_6_);}
	.st13{fill:url(#SVGID_7_);}
</style>
<title>analitik</title>
<g>
	<g id="Слой_2">
		<g id="Objects">
			<polygon class="st0" points="17,28.3 17,123.1 127.4,114.6 127.4,40.4 			"/>
			<polygon class="st1" points="20.9,120.7 129.6,112.8 129.6,46.4 20.9,36.1 			"/>
			<polygon class="st1" points="71.4,111.9 119,108.9 119,48.5 71.4,44.3 			"/>
			<path class="st0" d="M78.7,59.9l41.3,2.2c0.5,0,0.9-0.5,0.9-1.1v-8.2c0-0.6-0.3-1.1-0.9-1.3l-41.3-3.3c-0.6,0-1.1,0.5-1.1,1.1
				c0,0,0,0.1,0,0.1v9.1C77.6,59.2,78.1,59.8,78.7,59.9z"/>
			<path class="st0" d="M78.7,75.3l41.3,0.8c0.6,0,1-0.5,0.9-1.1c0,0,0-0.1,0-0.1v-8.2c0.1-0.6-0.3-1.1-0.9-1.2l-41.3-1.9
				c-0.6,0-1.1,0.6-1.1,1.2c0,0,0,0,0,0.1V74C77.6,74.7,78.1,75.2,78.7,75.3z"/>
			<path class="st0" d="M77.3,77l41.6,0.7c0.6-0.1,1-0.6,0.9-1.2v-8.2c0.1-0.6-0.3-1.1-0.9-1.2l-41.6-1.7c-0.6,0-1.1,0.6-1.1,1.2
				c0,0,0,0,0,0v9.1C76.1,76.3,76.6,76.9,77.3,77z"/>
			<path class="st0" d="M78.7,90.7l41.3-0.7c0.6-0.1,1-0.6,0.9-1.2v-8.2c0.1-0.6-0.3-1.1-0.9-1.2L78.7,79c-0.7,0-1.2,0.6-1.1,1.3
				c0,0,0,0,0,0v9.1C77.6,90,78,90.6,78.7,90.7C78.7,90.7,78.7,90.7,78.7,90.7z"/>
			<polygon class="st2" points="0.5,84.6 58.7,82.3 58.7,7.5 0.5,0.5 			"/>
			<path class="st0" d="M78.7,106l41.3-2c0.6-0.1,1-0.6,0.9-1.2v-8.2c0.1-0.5-0.3-1.1-0.8-1.1c0,0-0.1,0-0.1,0l-41.3,1
				c-0.7,0.1-1.2,0.7-1.1,1.3v9.1C77.6,105.5,78.1,106,78.7,106z"/>
			<path class="st0" d="M33.1,54c-7,2.8-15.5,1.1-21.4-5.3C8.8,45.7,6.9,42,6,37.9l10.1-1.7c0.9,4.8,5,8.4,9.9,8.7
				c1.2,0.1,2.5-0.1,3.6-0.6L33.1,54z"/>
			<path class="st0" d="M40.3,47.1l-0.5,0.4l-6.4-7.6c2-1.9,3-4.5,3-7.3c0-5.6-4.3-10.5-9.6-11c-3.8-0.3-7.4,1.7-9,5.1l-9.2-5.4
				c1-2,2.4-3.8,4-5.3c8-7.4,20.4-6.1,27.8,2.6C47.4,27.1,47.4,39.6,40.3,47.1z"/>
			<path class="st0" d="M16.7,31.4c0,0.8,0.1,1.5,0.3,2.3L6.9,35.3c-1.1-4.7-0.5-9.6,1.7-14l9.2,5.4C17.1,28.2,16.7,29.8,16.7,31.4z
				"/>
			<path class="st0" d="M39.8,47.5c-1.7,1.7-3.7,3-5.9,3.8l-3.5-9.6c1.1-0.4,2.1-1.1,3-1.9L39.8,47.5z"/>
			<g class="st3">
				<polygon class="st0" points="101.2,69.4 117.8,70 117.8,68.8 101.2,68.1 				"/>
				<polygon class="st0" points="101.2,71.6 117.8,72.1 117.8,70.9 101.2,70.4 				"/>
				<polygon class="st0" points="110.6,74.1 117.8,74.3 117.8,73.1 110.6,72.9 				"/>
			</g>
			<polygon class="st1" points="89.3,93.4 94.2,93.5 94.2,87.6 89.3,87.4 			"/>
			<polygon class="st1" points="80.5,79.8 85.7,79.9 85.7,73.9 80.5,73.7 			"/>
			<polygon class="st0" points="30.4,77.9 30.4,115.6 31.3,115.5 31.3,77.9 			"/>
			<polygon class="st0" points="66.4,101.5 66.4,113.3 67.2,113.2 67.2,101.5 			"/>
			<polygon class="st0" points="49.1,88.8 49.1,114.4 49.9,114.3 49.9,88.8 			"/>
			<path class="st0" d="M10.5,107.1C20.9,106.7,20.9,83,30.9,83c9.6,0,9.6,22.8,18.8,22.4c8.9-0.4,8.9-22.3,17.5-22.3"/>
			<polygon class="st0" points="44,56.9 44,55 40.5,54.9 40.5,56.9 			"/>
			<polygon class="st0" points="50.3,57 50.3,55.1 46.8,55 46.8,57 			"/>
			<polygon class="st0" points="56.3,57.1 56.3,55.2 52.9,55.2 52.9,57.1 			"/>
			<polygon class="st1" points="99.9,84.1 116.8,84.1 116.8,82.5 99.9,82.4 			"/>
			<polygon class="st1" points="105.6,87.1 116.8,87 116.8,85.4 105.6,85.4 			"/>
			<polygon class="st1" points="101.4,87.1 104.3,87.1 104.3,85.4 101.4,85.4 			"/>
			<polygon class="st1" points="99.9,55.2 116.8,56.3 116.8,54.7 99.9,53.5 			"/>
			<polygon class="st1" points="106.9,58.6 116.8,59.2 116.8,57.6 106.9,57 			"/>
			<polygon class="st1" points="94.5,57.9 105.6,58.6 105.6,56.9 94.5,56.2 			"/>
			<polygon class="st1" points="110.3,98.4 116.8,98.2 116.8,96.6 110.3,96.8 			"/>
			<polygon class="st1" points="102.2,98.7 109,98.5 109,96.8 102.2,97 			"/>
			<polygon class="st1" points="105.6,101.6 116.8,101.1 116.8,99.5 105.6,99.9 			"/>
			<polygon class="st1" points="92.5,102.1 104.3,101.6 104.3,99.9 92.5,100.4 			"/>
			<path class="st0" d="M54,10.9c-1.1-0.6-2.5-0.4-3.3,0.5c-0.4,0.5-0.7,1-0.8,1.7l1.5,0.5c0.1-0.7,0.8-1.3,1.5-1.2
				c0.2,0,0.4,0.1,0.6,0.2L54,10.9z"/>
			<path class="st0" d="M55,11.7L55,11.7l-1,1.1c0.3,0.4,0.5,0.8,0.5,1.3c0.1,0.8-0.6,1.5-1.4,1.6c-0.1,0-0.1,0-0.2,0
				c-0.6-0.1-1.2-0.5-1.4-1.1l-1.4,0.6c0.1,0.4,0.3,0.7,0.6,1c0.9,1.3,2.8,1.6,4.1,0.6c0.1-0.1,0.2-0.2,0.3-0.3
				C56.3,15.2,56.3,13.1,55,11.7z"/>
			<path class="st0" d="M51.3,13.8c0-0.1,0-0.2,0-0.4L49.8,13c-0.2,0.8-0.1,1.6,0.3,2.3l1.4-0.6C51.4,14.4,51.3,14.1,51.3,13.8z"/>
			<path class="st0" d="M55,11.6c-0.3-0.3-0.6-0.6-1-0.8l-0.6,1.5c0.2,0.1,0.3,0.2,0.5,0.4L55,11.6z"/>
			<path class="st0" d="M50,47c0.4,1.2,1.6,2.1,2.9,2.2c0.6,0,1.2-0.2,1.7-0.5l-0.8-1.5c-0.6,0.4-1.5,0.3-1.9-0.3
				c-0.1-0.2-0.3-0.3-0.3-0.5L50,47z"/>
			<path class="st0" d="M49.7,45.7c0,0,0,0.1,0,0.1h1.6c0-0.5,0.1-0.9,0.5-1.3c0.5-0.6,1.5-0.6,2-0.1c0.1,0.1,0.1,0.1,0.2,0.2
				c0.4,0.5,0.6,1.2,0.4,1.8l1.5,0.6c0.1-0.4,0.2-0.7,0.2-1.1c0.1-1.8-1.3-3.4-3.1-3.6c-1.7,0-3.1,1.4-3.1,3.1
				C49.7,45.5,49.7,45.6,49.7,45.7z"/>
			<path class="st0" d="M54,47c-0.1,0.1-0.2,0.2-0.3,0.2l0.8,1.5c0.6-0.4,1-1,1.2-1.7l-1.5-0.6C54.3,46.6,54.1,46.8,54,47z"/>
			<path class="st0" d="M49.7,45.8c0,0.4,0.1,0.8,0.3,1.2l1.4-0.6c-0.1-0.2-0.1-0.4-0.1-0.6L49.7,45.8z"/>
			<path class="st0" d="M54.1,27.6c1.2-0.5,1.9-1.7,1.9-3c0-0.7-0.2-1.3-0.5-1.9l-1.3,0.8c0.4,0.7,0.3,1.5-0.2,2.1
				c-0.1,0.1-0.3,0.3-0.5,0.3L54.1,27.6z"/>
			<path class="st0" d="M52.9,27.8H53l0-1.7c-0.4,0-0.9-0.2-1.2-0.6c-0.6-0.7-0.6-1.7,0-2.5c0.4-0.4,1.1-0.6,1.6-0.3l0.5-1.6
				c-0.3-0.1-0.7-0.2-1-0.3c-1.7,0-3.1,1.3-3.1,3c0,0.1,0,0.2,0,0.3C49.7,26,51,27.6,52.9,27.8z"/>
			<path class="st0" d="M54,23.2c0.1,0.1,0.2,0.2,0.2,0.3l1.3-0.8c-0.4-0.7-0.9-1.2-1.6-1.5l-0.5,1.6C53.6,22.9,53.8,23,54,23.2z"/>
			<path class="st0" d="M53,27.8c0.4,0,0.8-0.1,1.1-0.2L53.5,26c-0.2,0.1-0.4,0.1-0.6,0.1L53,27.8z"/>
			
				<linearGradient id="SVGID_1_" gradientUnits="userSpaceOnUse" x1="107.3923" y1="126.1822" x2="124.0623" y2="108.6522" gradientTransform="matrix(1 0 0 -1 0 179.89)">
				<stop  offset="0" style="stop-color:#F70F47"/>
				<stop  offset="1" style="stop-color:#FFB41D"/>
			</linearGradient>
			<path class="st4" d="M101.7,61.6c1.8,0.6,3.3,0,7.7-0.9c6.3-1.4,7.7-2.1,11.2-4.3c2.3-1.4-1.6-6.2-5.1-5.1c-3,0.9-12,7.5-13.8,8
				C100.4,59.6,100.2,61.1,101.7,61.6z"/>
			
				<linearGradient id="SVGID_2_" gradientUnits="userSpaceOnUse" x1="117.5023" y1="135.7926" x2="134.1722" y2="118.2526" gradientTransform="matrix(1 0 0 -1 0 179.89)">
				<stop  offset="0" style="stop-color:#F70F47"/>
				<stop  offset="1" style="stop-color:#FFB41D"/>
			</linearGradient>
			<path class="st5" d="M121.1,55.4c0.4-1.4,0.9-4.7,0-12.7c-0.3-2.8-0.8-5.7-1.5-8.4c-0.7-2.6-3.4-3.3-4.6-2.5
				c-1.9,1.3-3.5,4.4-3.2,5.8c1.5,7.9,3.2,13.9,3.2,15.8C115.1,56.3,120.6,57.1,121.1,55.4z"/>
			<path class="st6" d="M117.3,148.4c-0.2,0.7-0.3,1.4-0.3,2.1c-0.1,0.8-0.9,1.1-1.4,1.8s-1.3,1.9,1.8,1.9c3.4,0.1,5.3,0,4.8-1.9
				c-0.4-1-0.6-2.1-0.6-3.2c0.1-0.6,0-1.1-0.4-1.6C120.8,147.2,117.8,146.6,117.3,148.4z"/>
			<path class="st7" d="M76.9,45.1c-1.1-0.6-9.9-4.6-10-2.5C66.8,45,70,47.3,71.1,48c2.1,1.2,4.7,0.7,5.7-0.3
				C77.5,46.9,77.9,45.6,76.9,45.1z"/>
			<path class="st7" d="M76.6,44.5c-0.3-0.5-2.4-3.1-2.9-2.8c-0.8,0.5,0.4,2.3,1.3,3.5c0.4,0.7,1.5,1.2,2,0.8S77.1,45.2,76.6,44.5z"
				/>
			<path class="st6" d="M91.5,149.9c-0.9,1.1-2,1.9-3.3,2.4c-1.8,0.8-5.4,1.1-3.4,1.8c1.9,0.4,3.8,0.5,5.7,0.1
				c1.3-0.2,2.5-0.2,3.8-0.2c1.9,0,1.9-0.1,1.7-2.2C95.6,148.9,92.3,148.3,91.5,149.9z"/>
			<path class="st7" d="M112.9,19.1c-0.4,3.8-0.5,4.7-2.2,6.2s-4.3,1.8-6.1,1.8s-3.2-2.4-3.7-4c-0.7-2.9-0.8-6-0.4-9
				c0.6-2.6,2.9-4.5,5.6-4.7C108.9,9.4,113.8,9.7,112.9,19.1z"/>
			
				<linearGradient id="SVGID_3_" gradientUnits="userSpaceOnUse" x1="-1542.724" y1="3023.3936" x2="-1542.724" y2="2984.8335" gradientTransform="matrix(0.58 0.81 0.81 -0.58 -1448.3409 3037.4063)">
				<stop  offset="0" style="stop-color:#F70F47"/>
				<stop  offset="1" style="stop-color:#FFB41D"/>
			</linearGradient>
			<path class="st8" d="M74.8,47.6c1.2,1.4,2.2,2.3,6.4,3.6c3.9,1.3,7.9,2.1,12,2.5c2.7,0.2,2.3-6.3-1.3-7.3c-3-0.9-14.2-0.2-16-0.8
				C74.8,45.2,73.8,46.4,74.8,47.6z"/>
			
				<linearGradient id="SVGID_4_" gradientUnits="userSpaceOnUse" x1="96.4367" y1="159.65" x2="96.4367" y2="121.09" gradientTransform="matrix(1 0 0 -1 0 179.89)">
				<stop  offset="0" style="stop-color:#F70F47"/>
				<stop  offset="1" style="stop-color:#FFB41D"/>
			</linearGradient>
			<path class="st9" d="M93.5,52c1.1-1,3.3-3.5,6.9-10.7c1.3-2.5,2.4-5.2,3.3-7.9c0.8-2.6-1.1-4.6-2.5-4.5c-2.3,0.1-5.3,1.9-5.8,3.2
				c-3,7.5-4.8,13.4-5.8,15.1C87.9,49.5,92.1,53.1,93.5,52z"/>
			<path class="st7" d="M111,25.8c0.1,1.3,0.2,2.9,0.3,4.2c0,1.9-1.3,3.5-3.2,3.7h-0.2c-1.7,0-3.6-1.5-3.4-3.1
				c0.1-1.1,0.1-2.2,0.1-3.1c0-1.8,1.2-3.4,2.9-4l0,0c1.4-0.5,2.9,0.2,3.4,1.7C110.9,25.3,111,25.6,111,25.8z"/>
			
				<linearGradient id="SVGID_5_" gradientUnits="userSpaceOnUse" x1="105.7793" y1="159.65" x2="105.7793" y2="121.09" gradientTransform="matrix(1 0 0 -1 0 179.89)">
				<stop  offset="0" style="stop-color:#F70F47"/>
				<stop  offset="1" style="stop-color:#FFB41D"/>
			</linearGradient>
			<path class="st10" d="M118.6,42.1c-3.1,10.1-4.1,20.6-3.5,27.6H92.1c0,0,0.1-21.6,1.7-33.4c0.4-2.9,2.2-5.5,4.9-6.8
				c1.9-0.8,4-1.3,6.2-1.4h4.2c1.5,0,3,0.2,4.5,0.6C119.8,30.6,120.4,36.3,118.6,42.1z"/>
			<path class="st11" d="M115,83.8c0,0,2-4.8,0.1-14.1h-23c-0.5,4.7-0.8,9.4-0.8,14.1H115z"/>
			<path class="st11" d="M110.5,114c-1.8-7.5,5.8-8.8,8.3-3.4c3.4,7.7,3.2,32.3,3,37.2c0,0.6,0.1,1.4-0.2,1.6
				c-0.8,0.3-1.6,0.5-2.4,0.4c-0.9,0-1.7,0-1.8-1.1C116.7,141.6,112.3,121.3,110.5,114z"/>
			<path class="st11" d="M103.6,84.8c-0.8-9.3,2.9-16.6,8.7-13.5c2.4,1.3,3.3,3.9,3.7,6.3s2.1,27.8,2.8,32.4
				c1.4,10.3-6.8,7.6-7.6,4.7C108.8,107.5,104,89.9,103.6,84.8z"/>
			<path class="st11" d="M95.9,151.6c0.3-11,5-30.2,2.3-39.2c-1.7-5.7-8.5-5.8-8.2,1.2c0.3,7.5,2.6,22,1.8,36.4
				C91.7,151.4,95.9,152.9,95.9,151.6z"/>
			<path class="st11" d="M97.9,114.3c-0.9,2.9-8.7,6.2-7.9-4.2c0.4-4.6,1.3-30.1,1.5-32.6s0.6-6,1.8-6.5c6.2-2.2,12.1,5.1,10.5,14.3
				C102.8,91.5,99.8,108.4,97.9,114.3z"/>
			<ellipse transform="matrix(0.9257 -0.3782 0.3782 0.9257 0.3538 39.3487)" class="st7" cx="100.4" cy="18.8" rx="1.3" ry="2.6"/>
			<ellipse transform="matrix(0.378 -0.9258 0.9258 0.378 52.7884 116.1024)" class="st7" cx="112.8" cy="18.8" rx="2.6" ry="1.4"/>
			
				<linearGradient id="SVGID_6_" gradientUnits="userSpaceOnUse" x1="95.2921" y1="176.4627" x2="127.7621" y2="151.4527" gradientTransform="matrix(1 0 0 -1 0 179.89)">
				<stop  offset="0" style="stop-color:#0000FF"/>
				<stop  offset="1" style="stop-color:#9E005D"/>
			</linearGradient>
			<path class="st12" d="M111.7,11.5c-1.5,2.2-8.7,2.4-11,1.6s-2.2-5.3,1.2-5.7c1.9,0,0.5,0.4,2.1,1.1
				C104.7,8.9,113.3,9.2,111.7,11.5z"/>
			
				<linearGradient id="SVGID_7_" gradientUnits="userSpaceOnUse" x1="93.4024" y1="174.0131" x2="125.8724" y2="149.0031" gradientTransform="matrix(1 0 0 -1 0 179.89)">
				<stop  offset="0" style="stop-color:#0000FF"/>
				<stop  offset="1" style="stop-color:#9E005D"/>
			</linearGradient>
			<path class="st13" d="M103.7,11.1c-2.2,1.3-2.7,2.5-2.7,5.2s1.2,7.4,6.3,8.4s6.2-4,6.5-7.4s0.1-6-2.4-6.6
				C107.6,9.9,105,10.3,103.7,11.1z"/>
			<g>
				<defs>
					<path id="SVGID_8_" d="M122.2,152.4c-0.4-1-0.6-2.1-0.7-3.2c0.1-0.5,0.2-1,0.1-1.5c0.2-4.9,0.4-29.5-3-37.2l0,0
						c0-0.2,0-0.3-0.1-0.5c-0.6-4.5-2.3-28.8-2.7-32.2c0-2.7-0.2-5.5-0.8-8.2c-0.3-3.5-0.2-7.1,0.2-10.6c1.8-0.7,3.6-1.6,5.2-2.7
						c0.3-0.2,0.6-0.5,0.6-0.9l0,0c0.4-1.4,0.9-4.7,0-12.7c-0.3-2.8-0.8-5.7-1.5-8.4c-0.2-0.8-0.6-1.5-1.2-2
						c-1.1-1.8-2.8-3.1-4.9-3.6c-0.8-0.2-1.6-0.4-2.4-0.5c0-0.8-0.1-1.7-0.2-2.5c0-0.2-0.1-0.4-0.1-0.6c0.8-0.7,1.4-1.6,1.6-2.6
						c0.3-0.6,0.6-1.3,0.8-2c0.4-0.4,0.6-0.8,0.8-1.3c0.5-1.3,0.4-2.5-0.2-2.9c0.2-2.6-0.2-4.6-1.9-5.4c0.1-1.9-7.3-2.2-8-2.5
						c-1.5-0.6-0.2-1.1-2.1-1.1c-3.3,0.3-3.5,4.8-1.2,5.7h0.1c-0.1,0.3-0.2,0.6-0.3,0.9c-0.1,0.9-0.2,1.7-0.2,2.5
						c-0.3-0.2-0.7-0.3-1-0.2c-0.7,0.3-0.8,1.6-0.3,2.9c0.3,0.8,0.8,1.4,1.5,1.8c0.1,0.7,0.2,1.3,0.4,2c0.4,1.6,1.7,3.9,3.6,4
						c0,0.1,0,0.3,0,0.4c0,0.2,0,0.4,0,0.7c-1.7,0.1-3.4,0.4-5,1c-1.9,0.6-3.9,1.8-4.3,2.9l-0.5,1.3c-0.4,0.7-0.6,1.4-0.8,2.1
						c-2.2,5.8-3.7,10.3-4.5,11.7c-0.1,0.2-0.2,0.5-0.3,0.8c-2.3,2.1-7.3,9.8-9.3,11.9h-0.1c-0.3,0-0.6,0-0.9,0
						c-0.6,0-3.9,0.2-3.9,0.8s0.9,0.8,1.9,0.9c-2.7,1.7-6.2,4.3-5,5.1c1.8,1.4,5.6,0.2,6.8-0.4c1.6-0.7,2.7-2.2,3-4
						c1.3-0.3,2.7-0.9,5.4-3c2.3-1.8,4-3.3,5.4-4.6c-0.3,8.2-0.4,15.1-0.4,15.1c-0.5,4.7-0.8,9.4-0.8,14.1l0,0
						c-0.4,8.6-0.9,22.9-1.2,26.2c-0.1,0.7-0.1,1.5,0,2.2c0,0.4,0,0.8,0,1.3c0.3,7.4,2.5,21.7,1.8,36c-0.1,0.1-0.2,0.2-0.3,0.4
						c-0.9,1.1-2,1.9-3.3,2.4c-1.8,0.8-5.4,1.1-3.4,1.8c1.9,0.4,3.8,0.5,5.7,0.1c1.3-0.2,2.5-0.2,3.8-0.2c1.9,0,1.9-0.1,1.7-2.2
						c0-0.1,0-0.1,0-0.2l0,0c0.3-10.8,4.8-29.5,2.4-38.7c1.8-6.6,4.3-20.6,5.4-26.8c0.8,5.5,4.3,18.5,6.5,26c0,0.6,0.1,1.3,0.3,1.9
						c1.8,7.3,6.2,27.6,6.8,34.7l0,0c-0.2,0.8-0.1,1.2-0.2,1.8c-0.1,0.8-0.9,1.1-1.4,1.8s-1.3,1.9,1.8,1.9
						C120.8,154.3,122.8,154.2,122.2,152.4z"/>
				</defs>
				<clipPath id="SVGID_9_">
					<use xlink:href="#SVGID_8_"  style="overflow:visible;"/>
				</clipPath>
			</g>
		</g>
	</g>
</g>
</svg>
