<svg xmlns="http://www.w3.org/2000/svg" xmlns:xlink="http://www.w3.org/1999/xlink" viewBox="0 0 621.79 530.32"><defs><style>.cls-1{fill:none;}.cls-2{opacity:0.2;}.cls-3{clip-path:url(#clip-path);}.cls-4{fill:url(#Gradient_bez_nazwy_15);}.cls-5{fill:url(#Gradient_bez_nazwy_5);}.cls-6{fill:url(#Gradient_bez_nazwy_14);}.cls-7{fill:url(#Gradient_bez_nazwy_14-2);}.cls-8{fill:url(#Gradient_bez_nazwy_14-3);}.cls-9{fill:url(#Gradient_bez_nazwy_14-4);}.cls-10{fill:url(#Gradient_bez_nazwy_14-5);}.cls-11{fill:url(#Gradient_bez_nazwy_14-6);}.cls-12{fill:url(#Gradient_bez_nazwy_14-7);}.cls-13{fill:url(#Gradient_bez_nazwy_14-8);}.cls-14{fill:url(#Gradient_bez_nazwy_14-9);}.cls-15{fill:url(#Gradient_bez_nazwy_14-10);}.cls-16{fill:url(#Gradient_bez_nazwy_14-11);}.cls-17{fill:url(#Gradient_bez_nazwy_14-12);}.cls-18{fill:url(#Gradient_bez_nazwy_14-13);}.cls-19{fill:url(#Gradient_bez_nazwy_14-14);}.cls-20{fill:url(#Gradient_bez_nazwy_14-15);}.cls-21{fill:url(#Gradient_bez_nazwy_14-16);}.cls-22{fill:url(#Gradient_bez_nazwy_5-2);}.cls-23{fill:url(#Gradient_bez_nazwy_5-3);}.cls-24{opacity:0.5;}.cls-25{fill:#f5f5f5;}.cls-26{fill:#7bcaff;}.cls-27{fill:#e0e0e0;}.cls-28{fill:url(#Gradient_bez_nazwy_5-4);}.cls-29{fill:#fafafa;}.cls-30{fill:#ebebeb;}.cls-31{fill:#fff;}.cls-32{fill:#263238;}.cls-33{fill:url(#Gradient_bez_nazwy_2);}.cls-34{fill:#455a64;}.cls-35{fill:url(#Gradient_bez_nazwy_2-2);}.cls-36{fill:#ffbe9d;}.cls-37{fill:#eb996e;}.cls-38{fill:url(#Gradient_bez_nazwy_5-5);}.cls-39{opacity:0.6;}.cls-40{fill:url(#Gradient_bez_nazwy_5-6);}.cls-41{fill:url(#Gradient_bez_nazwy_5-7);}.cls-42{fill:url(#Gradient_bez_nazwy_5-8);}.cls-43{fill:url(#Gradient_bez_nazwy_5-9);}.cls-44{fill:#e8505b;}</style><clipPath id="clip-path" transform="translate(-9.75)"><path class="cls-1" d="M6.17,195.9c-20.47-49,14.17-72.5,42.71-70.28,40.42,3.14,47,24.36,76.38-31.92,21.69-41.53,73.35-55.67,103.82-14C271.67,138,294,69.56,324.18,52.25c62.37-35.76,82.84,11.37,122.57,87C487.54,216.85,477,278.76,430.9,339.89c-34,45.13-74.5,73.92-115.54,52.55-58.94-30.68-26.67-93-78.67-65.14-31.12,16.68-91.35,23.61-103.52-49.52S35.65,266.4,6.17,195.9Z"/></clipPath><linearGradient id="Gradient_bez_nazwy_15" x1="-3310.17" y1="-710.98" x2="-3310.17" y2="-906.38" gradientTransform="translate(-2701.21 1910.72) rotate(135)" gradientUnits="userSpaceOnUse"><stop offset="0" stop-color="#401381"/><stop offset="1" stop-color="#d11137"/></linearGradient><linearGradient id="Gradient_bez_nazwy_5" x1="-3288.38" y1="-787.48" x2="-3288.38" y2="-952.82" gradientTransform="translate(-2701.21 1910.72) rotate(135)" gradientUnits="userSpaceOnUse"><stop offset="0" stop-color="#36078b"/><stop offset="1" stop-color="#16b1ff"/></linearGradient><linearGradient id="Gradient_bez_nazwy_14" x1="-1516.1" y1="239.55" x2="-1504.85" y2="227.5" gradientTransform="matrix(-1, -0.01, -0.01, 1, -1289.32, -35.66)" gradientUnits="userSpaceOnUse"><stop offset="0" stop-color="#f70f47"/><stop offset="1" stop-color="#ffb41d"/></linearGradient><linearGradient id="Gradient_bez_nazwy_14-2" x1="-1063.8" y1="1023.13" x2="-1052.55" y2="1011.08" gradientTransform="matrix(-0.93, -0.37, -0.37, 0.93, -375.48, -1130.32)" xlink:href="#Gradient_bez_nazwy_14"/><linearGradient id="Gradient_bez_nazwy_14-3" x1="-945.59" y1="2138.17" x2="-935.41" y2="2127.26" gradientTransform="matrix(-0.66, -0.75, -0.75, 0.66, 1209.43, -1907.32)" xlink:href="#Gradient_bez_nazwy_14"/><linearGradient id="Gradient_bez_nazwy_14-4" x1="-1324.57" y1="3164.2" x2="-1315.43" y2="3154.4" gradientTransform="matrix(-0.27, -0.96, -0.96, 0.27, 2931.38, -1903.62)" xlink:href="#Gradient_bez_nazwy_14"/><linearGradient id="Gradient_bez_nazwy_14-5" x1="-5107.37" y1="221.77" x2="-5134.65" y2="180.01" gradientTransform="translate(5358.65)" xlink:href="#Gradient_bez_nazwy_14"/><linearGradient id="Gradient_bez_nazwy_14-6" x1="-1633.14" y1="225.12" x2="-1599.63" y2="172.12" gradientTransform="matrix(-1, 0, 0, 1, -1388.47, 0)" xlink:href="#Gradient_bez_nazwy_14"/><linearGradient id="Gradient_bez_nazwy_14-7" x1="-4838.72" y1="-139.42" x2="-4808.01" y2="-172.32" gradientTransform="matrix(0.98, -0.2, 0.2, 0.98, 5004.02, -640.69)" xlink:href="#Gradient_bez_nazwy_14"/><linearGradient id="Gradient_bez_nazwy_14-8" x1="-1609.54" y1="225.97" x2="-1645.71" y2="168.76" gradientTransform="matrix(-1, 0, 0, 1, -1388.47, 0)" xlink:href="#Gradient_bez_nazwy_14"/><linearGradient id="Gradient_bez_nazwy_14-9" x1="-1238.96" y1="736.15" x2="-1182.49" y2="675.64" gradientTransform="matrix(-0.96, -0.27, -0.27, 0.96, -767.13, -869.28)" xlink:href="#Gradient_bez_nazwy_14"/><linearGradient id="Gradient_bez_nazwy_14-10" x1="-1630.2" y1="225.46" x2="-1580.21" y2="134.32" gradientTransform="matrix(-1, 0, 0, 1, -1388.47, 0)" xlink:href="#Gradient_bez_nazwy_14"/><linearGradient id="Gradient_bez_nazwy_14-11" x1="-1687.75" y1="100.4" x2="-1647.01" y2="56.74" gradientTransform="matrix(-1, 0.05, 0.05, 1, -1476.69, 182.26)" xlink:href="#Gradient_bez_nazwy_14"/><linearGradient id="Gradient_bez_nazwy_14-12" x1="-1625.06" y1="223.53" x2="-1570.39" y2="173.6" gradientTransform="matrix(-1, 0, 0, 1, -1388.47, 0)" xlink:href="#Gradient_bez_nazwy_14"/><linearGradient id="Gradient_bez_nazwy_14-13" x1="-1596.33" y1="165.19" x2="-1590.21" y2="154.04" gradientTransform="matrix(-1, 0, 0, 1, -1388.47, 0)" xlink:href="#Gradient_bez_nazwy_14"/><linearGradient id="Gradient_bez_nazwy_14-14" x1="-1594.08" y1="153.79" x2="-1590.22" y2="143.69" gradientTransform="matrix(-1, 0, 0, 1, -1388.47, 0)" xlink:href="#Gradient_bez_nazwy_14"/><linearGradient id="Gradient_bez_nazwy_14-15" x1="-1614.06" y1="158.93" x2="-1614.04" y2="149.37" gradientTransform="matrix(-1, 0, 0, 1, -1388.47, 0)" xlink:href="#Gradient_bez_nazwy_14"/><linearGradient id="Gradient_bez_nazwy_14-16" x1="-1607.58" y1="147.64" x2="-1605.96" y2="140.36" gradientTransform="matrix(-1, 0, 0, 1, -1388.47, 0)" xlink:href="#Gradient_bez_nazwy_14"/><linearGradient id="Gradient_bez_nazwy_5-2" x1="-1616.3" y1="214.54" x2="-1616.3" y2="231.71" gradientTransform="matrix(-1, 0, 0, 1, -1388.47, 0)" xlink:href="#Gradient_bez_nazwy_5"/><linearGradient id="Gradient_bez_nazwy_5-3" x1="-1616.3" y1="218.92" x2="-1616.3" y2="211.44" gradientTransform="matrix(-1, 0, 0, 1, -1388.47, 0)" xlink:href="#Gradient_bez_nazwy_5"/><linearGradient id="Gradient_bez_nazwy_5-4" x1="312.96" y1="161.04" x2="466.88" y2="161.04" gradientTransform="matrix(1, 0, 0, 1, 0, 0)" xlink:href="#Gradient_bez_nazwy_5"/><linearGradient id="Gradient_bez_nazwy_2" x1="377.69" y1="288.08" x2="407.98" y2="288.08" gradientUnits="userSpaceOnUse"><stop offset="0" stop-color="#f70f47"/><stop offset="1" stop-color="#9e005d"/></linearGradient><linearGradient id="Gradient_bez_nazwy_2-2" x1="329.88" y1="235.63" x2="384.02" y2="235.63" xlink:href="#Gradient_bez_nazwy_2"/><linearGradient id="Gradient_bez_nazwy_5-5" x1="181.04" y1="198.46" x2="320.45" y2="198.46" gradientTransform="matrix(1, 0, 0, 1, 0, 0)" xlink:href="#Gradient_bez_nazwy_5"/><linearGradient id="Gradient_bez_nazwy_5-6" x1="186.86" y1="218.98" x2="253.66" y2="218.98" gradientTransform="matrix(1, 0, 0, 1, 0, 0)" xlink:href="#Gradient_bez_nazwy_5"/><linearGradient id="Gradient_bez_nazwy_5-7" x1="213.44" y1="209.3" x2="242.91" y2="209.3" gradientTransform="matrix(1, 0, 0, 1, 0, 0)" xlink:href="#Gradient_bez_nazwy_5"/><linearGradient id="Gradient_bez_nazwy_5-8" x1="186.21" y1="212.76" x2="226.16" y2="212.76" gradientTransform="matrix(1, 0, 0, 1, 0, 0)" xlink:href="#Gradient_bez_nazwy_5"/><linearGradient id="Gradient_bez_nazwy_5-9" x1="229.31" y1="230.07" x2="250.74" y2="230.07" gradientTransform="matrix(1, 0, 0, 1, 0, 0)" xlink:href="#Gradient_bez_nazwy_5"/></defs><title>белые методы</title><g id="Слой_2" data-name="Слой 2"><g id="Designed_by_Freepik" data-name="Designed by Freepik"><g class="cls-2"><g class="cls-3"><path class="cls-4" d="M13.38,269c6.6-16.32,21.94-29.64,40.33-34.63A192.13,192.13,0,0,1,83.64,229c26.2-3.06,37-4.33,45.22-62.83,4.42-31.64,22.92-58.29,48.28-69.53,22.35-9.91,47.22-6.82,70,8.69,18.81,12.8,33.63,17.28,45.29,13.69,16.66-5.13,25.14-26.6,33.33-47.38,5.51-14,11.22-28.43,19.45-38C363.63,12.13,381.52,1.16,399.9.09c34.52-2,68.89,29.81,116.46,73.84q5.48,5.08,11.2,10.35c39.55,36.45,63.73,74.19,73.91,115.39,9.49,38.42,6.82,80.35-8.18,128.19-11.52,36.78-26.19,64.94-43.6,83.71-20.29,21.88-44.39,31.06-71.61,27.29-39-5.39-57.09-27.57-70.33-43.77-7.93-9.7-14.19-17.36-22-17.56-6.81-.17-15,5.33-25.91,17.32-16.91,18.66-48.15,39.13-80.5,35.4-25.53-2.94-47.09-19.93-64.08-50.49-22.2-40-50.93-32.67-84.19-24.24-31.26,7.92-66.68,16.9-98.83-18.42C7.85,310.28,7.64,287.78,11.76,273.64A49,49,0,0,1,13.38,269Z" transform="translate(-9.75)"/><path class="cls-5" d="M38.33,297.7c8.69-15.31,25.65-26.5,44.53-29a192.19,192.19,0,0,1,30.36-1.32c26.38.41,37.29.59,53.1-56.33,8.55-30.78,30.39-54.76,57-62.57,23.46-6.88,47.7-.55,68.26,17.83,17,15.17,31.06,21.55,43.1,19.53,17.19-2.89,28.42-23.06,39.27-42.58,7.31-13.13,14.86-26.7,24.29-35.16C419.33,89.19,438.5,80.67,456.86,82c34.48,2.55,64.37,38.61,105.73,88.52q4.77,5.75,9.74,11.74c34.41,41.34,53.41,81.93,58.08,124.12,4.35,39.33-3.82,80.55-25,126-16.26,34.94-34.51,60.93-54.24,77.25-23,19-48.09,25-74.58,17.63-37.91-10.47-53-34.85-64-52.64-6.58-10.66-11.78-19.07-19.45-20.29-6.73-1.07-15.62,3.3-28,13.75-19.22,16.27-52.88,32.45-84.46,24.5-24.93-6.27-44.06-26-56.88-58.48C207.16,391.6,177.72,395,143.64,399c-32,3.74-68.32,8-95.55-31.27-20.69-29.82-17.93-52.15-12-65.63A49.13,49.13,0,0,1,38.33,297.7Z" transform="translate(-9.75)"/></g></g><path class="cls-6" d="M225.75,215.73c3.16-2-.89-8.18-8.25-8.77a14.75,14.75,0,0,0-.06,6.13C218.05,215.54,221.32,218.55,225.75,215.73Z" transform="translate(-9.75)"/><path class="cls-7" d="M230,216.22c3.68-.72,2.17-7.93-4.47-11.19a14.76,14.76,0,0,0-2.3,5.68C222.9,213.23,224.84,217.23,230,216.22Z" transform="translate(-9.75)"/><path class="cls-8" d="M232.57,216.71c3.27.92,5-5.54.93-10.86a13.34,13.34,0,0,0-4.17,3.66C228,211.41,228,215.43,232.57,216.71Z" transform="translate(-9.75)"/><path class="cls-9" d="M234,215.89c2.28,2,6.2-2.51,5-8.41a12,12,0,0,0-4.81,1.31C232.42,209.83,230.8,213.05,234,215.89Z" transform="translate(-9.75)"/><path class="cls-10" d="M240.58,200.7c12.52-4.91,2.51-29.4-23-36.57,0,0-5,10.88-4.44,21.52C213.61,194.74,223,207.58,240.58,200.7Z" transform="translate(-9.75)"/><path class="cls-11" d="M220.12,167.22a22.71,22.71,0,0,1,5.84,6.15,17.34,17.34,0,0,1,1.14,1.77c.35.61.76,1.18,1,1.82s.61,1.26.92,1.89l.46.94.37,1a53.55,53.55,0,0,1,2.47,8c.26,1.38.56,2.75.85,4.13l.5,4.2c.08.7.22,1.39.26,2.1l.11,2.12c.08,1.42.13,2.83.23,4.25,0,2.85,0,5.7-.08,8.57-.08,1.43-.18,2.86-.24,4.3l-.09,2.16,0,1.08-.1,1.08-.34,4.33-.17,2.17-.11,2.19.21,0,1.51-8.58.18-1.07.12-1.08.24-2.16.48-4.33.11-1.08,0-1.09.08-2.18.17-4.36-.16-4.36-.08-2.18c0-.73-.16-1.44-.24-2.17l-.57-4.33-.94-4.26a48.24,48.24,0,0,0-2.89-8.22l-.44-1-.53-1-1.07-1.91c-.34-.64-.82-1.21-1.22-1.81a16.75,16.75,0,0,0-1.31-1.74A21.27,21.27,0,0,0,220.2,167Z" transform="translate(-9.75)"/><path class="cls-12" d="M232.67,188.69c-9.53-3.74-1.91-22.38,17.52-27.84,0,0,3.81,8.28,3.38,16.39C253.21,184.15,246,193.92,232.67,188.69Z" transform="translate(-9.75)"/><path class="cls-13" d="M248.15,163.08a56.81,56.81,0,0,0-5.15,7.41c-.74,1.31-1.47,2.63-2.14,4l-1,2-.94,2.06a101,101,0,0,0-5.85,17.11c-.34,1.47-.62,3-.94,4.43l-.45,2.22-.34,2.24L230.7,209c-.15,1.5-.26,3-.36,4.5l-.16,2.25c0,.75,0,1.5-.06,2.26l-.08,4.51c0,1.5.15,3,.21,4.5s.19,3,.32,4.48h.16c.05-3,0-6,.15-8.95l.28-4.47c.05-.74.08-1.49.15-2.23l.26-2.22.51-4.44.73-4.41.37-2.2.47-2.19c.32-1.46.62-2.92,1-4.37a124.63,124.63,0,0,1,5.45-17,84.58,84.58,0,0,1,8.23-15.84Z" transform="translate(-9.75)"/><path class="cls-14" d="M227.43,177.8c18-5.52,6.64-40.76-28.21-53.5,0,0-8.14,14.65-8.5,29.57C190.42,166.6,202.21,185.53,227.43,177.8Z" transform="translate(-9.75)"/><path class="cls-15" d="M202.42,128.85q1,1.37,1.89,2.82c.63.93,1.22,1.9,1.8,2.87s1.15,1.94,1.69,2.93,1.11,1.95,1.59,3c1,2,2.09,4,3,6,.46,1,1,2,1.43,3l1.3,3.1,1.29,3.09,1.16,3.14,1.17,3.14c.39,1,.68,2.13,1,3.19s.68,2.12,1,3.19l.52,1.59c.16.53.29,1.08.43,1.62l1.7,6.47c.51,2.17.94,4.36,1.42,6.54.22,1.09.49,2.18.68,3.28s.32,2.21.51,3.31c.35,2.21.76,4.41,1.06,6.63s.45,4.45.71,6.68l.38,3.35.18,3.36.42,6.74c.27,4.51.1,9,.36,13.58l.25,0,.4-6.79.2-3.4c.07-1.13.15-2.26.11-3.4l-.05-6.8,0-3.4-.25-3.39-.5-6.79c-.25-2.25-.61-4.5-.9-6.75l-.47-3.37c-.18-1.12-.44-2.23-.66-3.34-.46-2.22-.88-4.45-1.38-6.67a145,145,0,0,0-9-25.67,102.34,102.34,0,0,0-14.28-23.09Z" transform="translate(-9.75)"/><path class="cls-16" d="M217.19,194.2c11-8-5-29.38-31.74-30,0,0-2.14,11.9,1.09,22.17C189.31,195.18,201.78,205.35,217.19,194.2Z" transform="translate(-9.75)"/><path class="cls-17" d="M188.71,166.6a56,56,0,0,1,7.57,6.12l1.77,1.65,1.69,1.74c1.15,1.13,2.18,2.38,3.22,3.6a109.12,109.12,0,0,1,11,15.81l2.32,4.24a22.65,22.65,0,0,1,1.08,2.16l1,2.19,1,2.18c.17.37.36.72.52,1.09l.45,1.13c.59,1.51,1.21,3,1.85,4.49s1.16,3,1.7,4.56l1.6,4.61c1,3.09,1.85,6.25,2.92,9.36l.18,0c-.73-3.19-1.4-6.4-2.19-9.57l-1.39-4.71c-.47-1.57-.89-3.15-1.5-4.67l-1.71-4.61-.43-1.15c-.15-.38-.33-.75-.5-1.12l-1-2.24-1-2.24a23,23,0,0,0-1.08-2.21l-2.32-4.34A91.52,91.52,0,0,0,204,178.77c-1.12-1.19-2.22-2.41-3.44-3.51l-1.79-1.68L196.88,172a48.71,48.71,0,0,0-8.1-5.55Z" transform="translate(-9.75)"/><path class="cls-18" d="M214,161.12a16.59,16.59,0,0,0-4.22-2.26c-.73-.31-1.49-.51-2.24-.74s-1.53-.36-2.3-.53a24.53,24.53,0,0,0-4.72-.37,13.91,13.91,0,0,0-4.74.88v.17a47.44,47.44,0,0,1,9.16,1,89.19,89.19,0,0,1,9,2.06Z" transform="translate(-9.75)"/><path class="cls-19" d="M211.07,151a12.3,12.3,0,0,0-3.16-2.52,18.08,18.08,0,0,0-1.75-.91c-.6-.26-1.22-.48-1.84-.71a18.29,18.29,0,0,0-3.89-.79,10.53,10.53,0,0,0-4.06.37l0,.17a39.51,39.51,0,0,1,7.45,1.84,74.37,74.37,0,0,1,7.2,2.7Z" transform="translate(-9.75)"/><path class="cls-20" d="M223.71,158.94a13.1,13.1,0,0,0,1.23-2.37c.31-.76.59-1.49.83-2.2.09-.37.24-.7.36-1l.18-.52a4.13,4.13,0,0,0,.19-.5,11.37,11.37,0,0,1,1.13-2.16l-.06-.14a4.75,4.75,0,0,0-2,1.58,8.21,8.21,0,0,0-1.2,2.29,15.57,15.57,0,0,0-.77,5.07Z" transform="translate(-9.75)"/><path class="cls-21" d="M217.78,147.93a9.59,9.59,0,0,0,.5-2c.11-.63.15-1.23.22-1.81s.09-1.15.15-1.7a7.23,7.23,0,0,1,.42-1.82l-.07-.09a3.56,3.56,0,0,0-1.2,1.57,6.52,6.52,0,0,0-.45,1.94,14.2,14.2,0,0,0,.32,3.93Z" transform="translate(-9.75)"/><path class="cls-22" d="M220.1,233.8h15.48a1.52,1.52,0,0,0,1.51-1.34l2.13-17.94a1.52,1.52,0,0,0-1.51-1.7H218a1.52,1.52,0,0,0-1.51,1.7l2.13,17.94A1.52,1.52,0,0,0,220.1,233.8Z" transform="translate(-9.75)"/><path class="cls-23" d="M216,216.38h23.75a1,1,0,0,0,1-.85l.47-3a1,1,0,0,0-1-1.15H215.5a1,1,0,0,0-1,1.15l.47,3A1,1,0,0,0,216,216.38Z" transform="translate(-9.75)"/></g><g id="Objects"><g class="cls-24"><rect class="cls-25" x="130.58" y="132.58" width="45.13" height="61.76" transform="translate(-40.81 36.01) rotate(-12.19)"/></g><g class="cls-24"><rect class="cls-26" x="236.54" y="82.88" width="150.35" height="97.77"/></g><g class="cls-24"><circle class="cls-27" cx="311.71" cy="127.63" r="20.46"/><polygon class="cls-25" points="318.59 127.63 313.25 130.71 307.9 133.8 307.9 127.63 307.9 121.46 313.25 124.55 318.59 127.63"/></g><g class="cls-24"><rect class="cls-27" x="236.54" y="163.09" width="150.35" height="17.56"/></g><polygon class="cls-25" points="251.15 171.87 248.98 173.12 246.81 174.37 246.81 171.87 246.81 169.36 248.98 170.62 251.15 171.87"/><rect class="cls-25" x="263.61" y="171.47" width="110.9" height="0.8"/><circle class="cls-25" cx="264.2" cy="171.87" r="1.65"/><g class="cls-24"><rect class="cls-26" x="312.96" y="153.3" width="153.92" height="138.72" rx="5.49" ry="5.49"/></g><path class="cls-28" d="M319.37,153.3h141.1a6.41,6.41,0,0,1,6.41,6.41v9.08a0,0,0,0,1,0,0H313a0,0,0,0,1,0,0V159.7a6.41,6.41,0,0,1,6.41-6.41Z"/><circle class="cls-29" cx="322.35" cy="161.07" r="1.21"/><circle class="cls-29" cx="329.64" cy="161.07" r="1.21"/><circle class="cls-29" cx="336.92" cy="161.07" r="1.21"/><g class="cls-24"><rect class="cls-29" x="390.25" y="181.27" width="58.12" height="2.1"/></g><g class="cls-24"><rect class="cls-29" x="390.25" y="189.93" width="58.12" height="2.1"/></g><g class="cls-24"><rect class="cls-29" x="390.25" y="198.58" width="58.12" height="2.1"/></g><g class="cls-24"><rect class="cls-29" x="390.25" y="207.24" width="58.12" height="2.1"/></g><g class="cls-24"><rect class="cls-29" x="390.25" y="215.9" width="29.06" height="2.1"/></g><g class="cls-24"><rect class="cls-29" x="338.27" y="232.92" width="58.12" height="2.1" transform="translate(724.91 467.95) rotate(180)"/></g><g class="cls-24"><rect class="cls-29" x="338.27" y="241.58" width="58.12" height="2.1" transform="translate(724.91 485.26) rotate(180)"/></g><g class="cls-24"><rect class="cls-29" x="338.27" y="250.24" width="58.12" height="2.1" transform="translate(724.91 502.58) rotate(180)"/></g><g class="cls-24"><rect class="cls-29" x="338.27" y="258.89" width="58.12" height="2.1" transform="translate(724.91 519.89) rotate(180)"/></g><g class="cls-24"><rect class="cls-29" x="367.33" y="267.55" width="29.06" height="2.1" transform="translate(753.98 537.2) rotate(180)"/></g><g class="cls-24"><rect class="cls-29" x="396.68" y="230.6" width="49.74" height="41.38"/><polygon class="cls-30" points="396.6 259.48 411.3 249.19 421.55 256.28 437.68 242.63 446.42 251.29 446.42 271.98 396.68 271.98 396.6 259.48"/><circle class="cls-30" cx="422.41" cy="242.63" r="4.17"/></g><g class="cls-24"><rect class="cls-29" x="328.52" y="180" width="49.74" height="41.38"/><polygon class="cls-30" points="328.44 208.88 343.13 198.58 353.39 205.68 369.52 192.03 378.26 200.69 378.26 221.38 328.52 221.38 328.44 208.88"/><circle class="cls-30" cx="354.25" cy="192.03" r="4.17"/></g><g class="cls-24"><rect class="cls-31" x="125.01" y="143.48" width="45.13" height="61.76" transform="translate(-43.23 35.08) rotate(-12.19)"/><path class="cls-32" d="M176.15,199.78s0-.1-.07-.29l-.2-.85-.73-3.29L172.42,183l-9.49-43.5.22.14-44.1,9.54h0l.16-.25,13,60.37-.2-.13,32.06-6.83,8.92-1.88,2.35-.49.82-.16-.78.19-2.31.52-8.87,2-32.12,7-.17,0,0-.17L118.8,149l0-.2.2,0h0l44.11-9.51.18,0,0,.18L172.63,183l2.62,12.37.68,3.27.17.84C176.14,199.69,176.15,199.78,176.15,199.78Z" transform="translate(-9.75)"/><ellipse class="cls-32" cx="137.88" cy="157.56" rx="10.97" ry="0.21" transform="translate(-39.91 32.66) rotate(-12.19)"/><ellipse class="cls-32" cx="144.81" cy="161.55" rx="16.9" ry="0.21" transform="translate(-40.59 34.21) rotate(-12.19)"/><ellipse class="cls-32" cx="145.99" cy="167.02" rx="16.9" ry="0.21" transform="translate(-41.72 34.58) rotate(-12.19)"/><ellipse class="cls-32" cx="147.18" cy="172.5" rx="16.9" ry="0.21" transform="translate(-42.85 34.96) rotate(-12.19)"/><ellipse class="cls-32" cx="148.36" cy="177.97" rx="16.9" ry="0.21" transform="translate(-43.98 35.33) rotate(-12.19)"/><ellipse class="cls-32" cx="149.54" cy="183.44" rx="16.9" ry="0.21" transform="translate(-45.11 35.7) rotate(-12.19)"/><ellipse class="cls-32" cx="150.72" cy="188.91" rx="16.9" ry="0.21" transform="translate(-46.24 36.08) rotate(-12.19)"/><ellipse class="cls-32" cx="144.26" cy="196.04" rx="9.08" ry="0.21" transform="translate(-47.89 34.87) rotate(-12.19)"/></g><polygon class="cls-33" points="377.69 273.11 388.98 302.09 393.69 294.49 400.21 303.05 407.99 295.65 400.57 288.51 407.41 283.89 377.69 273.11"/><ellipse class="cls-32" cx="378.97" cy="280.07" rx="5" ry="0.21" transform="translate(-100.82 246.51) rotate(-32.38)"/><path class="cls-32" d="M384.07,271.55a8,8,0,0,1-1.81-.48c-1.1-.35-2.61-.89-4.25-1.55s-3.09-1.32-4.14-1.81a8.33,8.33,0,0,1-1.66-.88,8.54,8.54,0,0,1,1.77.61l4.18,1.69,4.19,1.66A9,9,0,0,1,384.07,271.55Z" transform="translate(-9.75)"/><path class="cls-32" d="M387.47,258.39a6.27,6.27,0,0,1,.41,1.6c.2,1,.42,2.39.62,3.93s.31,2.94.37,4a6.27,6.27,0,0,1,0,1.65,54.39,54.39,0,0,1-.78-5.56A54.38,54.38,0,0,1,387.47,258.39Z" transform="translate(-9.75)"/><path class="cls-32" d="M403.1,264.88c0,.12-2,1-4.4,2.52s-4.22,2.83-4.29,2.72a5.3,5.3,0,0,1,1.12-1c.73-.57,1.75-1.33,3-2.08A15.42,15.42,0,0,1,403.1,264.88Z" transform="translate(-9.75)"/><ellipse class="cls-32" cx="324.2" cy="290.07" rx="0.21" ry="41.13" transform="translate(-114.95 220.35) rotate(-32.6)"/><g class="cls-24"><circle class="cls-31" cx="340.95" cy="335.28" r="23.2"/><path class="cls-32" d="M327.5,335.28s0-.13,0-.38l0-1.11,0-.82c0-.3.08-.62.13-1a16.48,16.48,0,0,1,.45-2.41,22,22,0,0,1,2.53-6.22,23.34,23.34,0,0,1,15.71-11.05,21.71,21.71,0,0,1,3-.35c.5,0,1-.07,1.52-.06l1.55.08a10.17,10.17,0,0,1,1.56.17c.52.08,1.05.14,1.57.25a24.68,24.68,0,0,1,3.12.91,24.32,24.32,0,0,1,3.05,1.34c.49.27,1,.58,1.46.87a12,12,0,0,1,1.41,1,21.4,21.4,0,0,1,5,5,22.64,22.64,0,0,1,3.35,6.45,23.17,23.17,0,0,1,0,14.77,22.65,22.65,0,0,1-3.35,6.45,21.4,21.4,0,0,1-5,5,12,12,0,0,1-1.41,1c-.49.29-1,.6-1.46.87a24.33,24.33,0,0,1-3.05,1.34,24.68,24.68,0,0,1-3.12.91c-.52.11-1.05.17-1.57.25a10.16,10.16,0,0,1-1.56.17l-1.55.08c-.51,0-1,0-1.52-.06a21.73,21.73,0,0,1-3-.35,23.34,23.34,0,0,1-15.71-11.05,22,22,0,0,1-2.53-6.22,16.49,16.49,0,0,1-.45-2.41c0-.35-.1-.68-.13-1l0-.81,0-1.11c0-.25,0-.38,0-.38s0,.13,0,.38l.08,1.1.05.81c0,.3.1.62.15,1a16.89,16.89,0,0,0,.49,2.39,22.14,22.14,0,0,0,2.57,6.14,23.16,23.16,0,0,0,15.57,10.83,21.45,21.45,0,0,0,2.91.34c.5,0,1,.07,1.5.06l1.52-.08a9.91,9.91,0,0,0,1.54-.17c.51-.09,1-.15,1.55-.25a24.37,24.37,0,0,0,3.07-.9,24,24,0,0,0,3-1.32c.49-.26,1-.57,1.43-.86a11.73,11.73,0,0,0,1.39-1,21,21,0,0,0,4.86-4.89,22.28,22.28,0,0,0,3.29-6.34,22.8,22.8,0,0,0,0-14.51,22.27,22.27,0,0,0-3.29-6.34,21,21,0,0,0-4.86-4.88,11.73,11.73,0,0,0-1.39-1c-.48-.29-.95-.59-1.43-.86a24,24,0,0,0-3-1.32,24.36,24.36,0,0,0-3.07-.9c-.52-.11-1-.17-1.55-.25a9.94,9.94,0,0,0-1.54-.17l-1.52-.08c-.5,0-1,0-1.5.06a21.41,21.41,0,0,0-2.91.34,23.16,23.16,0,0,0-15.57,10.83,22.14,22.14,0,0,0-2.58,6.14,16.91,16.91,0,0,0-.49,2.39c-.05.35-.12.67-.15,1l-.05.81-.08,1.1C327.52,335.15,327.5,335.28,327.5,335.28Z" transform="translate(-9.75)"/></g><polygon class="cls-32" points="334.62 326.75 331.44 344.91 340.94 343.6 350.45 344.91 346.63 326.75 334.62 326.75"/><path class="cls-32" d="M354.71,327c-.07,0-.26-.65-.76-1.61a5.06,5.06,0,0,0-1.14-1.47,3.54,3.54,0,0,0-.93-.54,3.74,3.74,0,0,0-1.14-.2,3.94,3.94,0,0,0-2.17.52,3.46,3.46,0,0,0-1.19,1.39c-.48,1-.63,1.65-.71,1.63a4.38,4.38,0,0,1,.44-1.76,3.56,3.56,0,0,1,1.24-1.58,4.14,4.14,0,0,1,2.38-.62A4,4,0,0,1,352,323a3.77,3.77,0,0,1,1,.63,4.91,4.91,0,0,1,1.16,1.63A4.52,4.52,0,0,1,354.71,327Z" transform="translate(-9.75)"/><ellipse class="cls-32" cx="248.36" cy="290.59" rx="0.21" ry="35.68"/><g class="cls-24"><circle class="cls-31" cx="247.89" cy="335.8" r="23.2"/><path class="cls-32" d="M234.44,335.8s0-.13,0-.38l0-1.11,0-.82c0-.3.08-.62.13-1a16.47,16.47,0,0,1,.45-2.41,22,22,0,0,1,2.53-6.22,23.34,23.34,0,0,1,15.71-11.05,21.7,21.7,0,0,1,3-.35c.5,0,1-.07,1.52-.06l1.55.08a10.16,10.16,0,0,1,1.56.17c.52.08,1.05.14,1.57.25a24.68,24.68,0,0,1,3.12.91,24.32,24.32,0,0,1,3.05,1.34c.49.27,1,.58,1.46.87a12,12,0,0,1,1.41,1,21.4,21.4,0,0,1,5,5,22.64,22.64,0,0,1,3.35,6.45,23.17,23.17,0,0,1,0,14.77,22.65,22.65,0,0,1-3.35,6.45,21.41,21.41,0,0,1-5,5,12,12,0,0,1-1.41,1c-.49.29-1,.6-1.46.87a24.33,24.33,0,0,1-3.05,1.34,24.68,24.68,0,0,1-3.12.91c-.52.11-1.05.17-1.57.25a10.16,10.16,0,0,1-1.56.17l-1.55.08c-.51,0-1,0-1.52-.06a21.71,21.71,0,0,1-3-.35,23.34,23.34,0,0,1-15.71-11.05,22,22,0,0,1-2.53-6.22,16.5,16.5,0,0,1-.45-2.41c0-.35-.1-.68-.13-1l0-.81,0-1.11c0-.25,0-.38,0-.38s0,.13,0,.38l.08,1.1.05.81c0,.3.1.62.15,1a16.9,16.9,0,0,0,.49,2.39,22.14,22.14,0,0,0,2.57,6.14,23.16,23.16,0,0,0,15.57,10.83,21.41,21.41,0,0,0,2.91.34c.5,0,1,.07,1.5.06l1.52-.08a9.91,9.91,0,0,0,1.54-.17c.51-.09,1-.15,1.55-.25a24.35,24.35,0,0,0,3.07-.9,24,24,0,0,0,3-1.32c.49-.26,1-.57,1.43-.86a11.74,11.74,0,0,0,1.39-1,21.05,21.05,0,0,0,4.86-4.89,22.28,22.28,0,0,0,3.29-6.34,22.8,22.8,0,0,0,0-14.51,22.27,22.27,0,0,0-3.29-6.34,21,21,0,0,0-4.86-4.88,11.71,11.71,0,0,0-1.39-1c-.48-.29-.95-.59-1.43-.86a24,24,0,0,0-3-1.32,24.36,24.36,0,0,0-3.07-.9c-.51-.11-1-.17-1.55-.25a9.92,9.92,0,0,0-1.54-.17l-1.52-.08c-.5,0-1,0-1.5.06a21.41,21.41,0,0,0-2.91.34A23.16,23.16,0,0,0,237.82,324a22.14,22.14,0,0,0-2.58,6.14,16.89,16.89,0,0,0-.49,2.39c-.05.35-.12.67-.15,1l-.05.81-.08,1.1C234.46,335.67,234.44,335.8,234.44,335.8Z" transform="translate(-9.75)"/></g><polygon class="cls-32" points="247.89 325.41 237.82 334.55 237.82 346.14 245.66 346.14 245.66 339.2 250.65 339.2 250.65 346.14 257.95 346.14 257.95 334.55 247.89 325.41"/><ellipse class="cls-32" cx="190.79" cy="290.36" rx="41.74" ry="0.21" transform="translate(-166.37 294.67) rotate(-57.4)"/><g class="cls-24"><circle class="cls-31" cx="154.79" cy="335.5" r="23.2"/><path class="cls-32" d="M187.74,335.5s0-.13,0-.38l-.08-1.1-.05-.81c0-.3-.1-.62-.15-1a16.9,16.9,0,0,0-.49-2.39,22.14,22.14,0,0,0-2.58-6.14,23.16,23.16,0,0,0-15.57-10.83,21.42,21.42,0,0,0-2.91-.34c-.5,0-1-.07-1.5-.06l-1.52.08a9.93,9.93,0,0,0-1.54.17c-.51.09-1,.15-1.55.25a24.36,24.36,0,0,0-3.07.9,24,24,0,0,0-3,1.32c-.49.26-1,.57-1.43.86a11.73,11.73,0,0,0-1.39,1,21,21,0,0,0-4.86,4.88,22.27,22.27,0,0,0-3.29,6.34,22.8,22.8,0,0,0,0,14.51A22.28,22.28,0,0,0,146,349.1a21.05,21.05,0,0,0,4.86,4.89,11.73,11.73,0,0,0,1.39,1c.48.29.95.59,1.43.86a24,24,0,0,0,3,1.32,24.35,24.35,0,0,0,3.07.9c.52.11,1,.17,1.55.25a9.91,9.91,0,0,0,1.54.17l1.52.08c.5,0,1,0,1.5-.06a21.44,21.44,0,0,0,2.91-.34,23.16,23.16,0,0,0,15.57-10.83,22.14,22.14,0,0,0,2.57-6.14,16.9,16.9,0,0,0,.49-2.39c.05-.35.12-.67.15-1l.05-.81.08-1.1c0-.25,0-.38,0-.38s0,.13,0,.38l0,1.11,0,.81c0,.3-.08.62-.13,1a16.49,16.49,0,0,1-.45,2.41,22,22,0,0,1-2.53,6.22,23.34,23.34,0,0,1-15.71,11.05,21.74,21.74,0,0,1-3,.35c-.5,0-1,.07-1.52.06l-1.55-.08a10.15,10.15,0,0,1-1.56-.17c-.52-.08-1.05-.15-1.57-.25a24.67,24.67,0,0,1-3.12-.91,24.33,24.33,0,0,1-3.05-1.34c-.49-.27-1-.58-1.46-.87a12,12,0,0,1-1.41-1,21.41,21.41,0,0,1-5-5,22.65,22.65,0,0,1-3.35-6.45,23.17,23.17,0,0,1,0-14.77,22.64,22.64,0,0,1,3.35-6.45,21.4,21.4,0,0,1,5-5,12,12,0,0,1,1.41-1c.49-.29,1-.6,1.46-.87a24.3,24.3,0,0,1,3.05-1.34,24.68,24.68,0,0,1,3.12-.91c.52-.11,1.05-.17,1.57-.25a10.16,10.16,0,0,1,1.56-.17l1.55-.08c.51,0,1,0,1.52.06a21.7,21.7,0,0,1,3,.35,23.34,23.34,0,0,1,15.71,11.05,22,22,0,0,1,2.53,6.22,16.47,16.47,0,0,1,.45,2.41c0,.35.1.68.13,1l0,.82,0,1.11C187.75,335.38,187.74,335.5,187.74,335.5Z" transform="translate(-9.75)"/></g><rect class="cls-32" x="145.55" y="323.42" width="18.22" height="24.16"/><ellipse class="cls-34" cx="152.55" cy="327.28" rx="2.99" ry="0.21"/><ellipse class="cls-34" cx="154.83" cy="330.68" rx="5.98" ry="0.21"/><ellipse class="cls-34" cx="154.83" cy="332.75" rx="5.98" ry="0.21"/><ellipse class="cls-34" cx="154.83" cy="334.81" rx="5.98" ry="0.21"/><ellipse class="cls-34" cx="154.83" cy="336.88" rx="5.98" ry="0.21"/><ellipse class="cls-34" cx="154.83" cy="338.94" rx="5.98" ry="0.21"/><ellipse class="cls-34" cx="154.83" cy="341.01" rx="5.98" ry="0.21"/><ellipse class="cls-34" cx="154.83" cy="343.07" rx="5.98" ry="0.21"/><rect class="cls-31" x="130.74" y="215.84" width="243.29" height="39.95" rx="16.78" ry="16.78"/><path class="cls-35" d="M329.88,215.48v40.31h34A20.16,20.16,0,0,0,384,235.63h0a20.16,20.16,0,0,0-20.16-20.16Z" transform="translate(-9.75)"/><path class="cls-31" d="M361.51,234.51a18.07,18.07,0,0,0-.34-2.06,8.48,8.48,0,0,0-3.11-4.59,8.34,8.34,0,0,0-7.89-1.17,8.35,8.35,0,0,0-3.86,2.9,8.28,8.28,0,0,0,0,9.82,8.35,8.35,0,0,0,3.86,2.9,8.34,8.34,0,0,0,7.89-1.17,8.48,8.48,0,0,0,3.11-4.59,18.08,18.08,0,0,0,.34-2.06,6.6,6.6,0,0,1-.19,2.1,8.47,8.47,0,0,1-3.08,4.78A8.56,8.56,0,0,1,354.6,243a8.69,8.69,0,0,1-4.57-.36,8.69,8.69,0,0,1-4.05-3,8.65,8.65,0,0,1,0-10.3,8.69,8.69,0,0,1,4.05-3,8.68,8.68,0,0,1,4.57-.36,8.58,8.58,0,0,1,6.72,6.43A6.6,6.6,0,0,1,361.51,234.51Z" transform="translate(-9.75)"/><ellipse class="cls-31" cx="364.63" cy="242.99" rx="0.21" ry="5.88" transform="translate(-54.97 398) rotate(-54.4)"/><rect class="cls-30" x="153.88" y="232.07" width="148.72" height="8.55"/><path class="cls-32" d="M364.84,255.79l1.38-.09a12.44,12.44,0,0,0,1.68-.21,17.52,17.52,0,0,0,2.28-.52A19.28,19.28,0,0,0,376,252l.79-.59c.26-.22.5-.46.76-.69a15.63,15.63,0,0,0,1.51-1.55c.52-.54.93-1.2,1.41-1.82l.63-1,.32-.53.27-.56a18.31,18.31,0,0,0,1.67-5l.21-1.4.08-1.45c0-1,0-2,0-3A18.81,18.81,0,0,0,365.43,216c-5.43-.05-11.19,0-17.23,0L159.44,216A18.84,18.84,0,0,0,147,220.77a18.53,18.53,0,0,0-6.15,11.59,12.88,12.88,0,0,0-.13,1.66c0,.55,0,1.11,0,1.67a32.3,32.3,0,0,0,.13,3.32,18.13,18.13,0,0,0,1.88,6.27,18.6,18.6,0,0,0,15.47,10.25c1.06.08,2.14.07,3.21.06H201.8l84.86,0,57.21.07,15.55,0,4,0,1.38,0-1.38,0-4,0-15.55,0-57.21.07-84.86,0H161.39c-1.07,0-2.14,0-3.23-.06a19,19,0,0,1-15.81-10.47,18.53,18.53,0,0,1-1.93-6.41,32.73,32.73,0,0,1-.14-3.37c0-.56,0-1.12,0-1.69a13.26,13.26,0,0,1,.14-1.69,19,19,0,0,1,6.28-11.84,19.26,19.26,0,0,1,12.7-4.83l188.76.06c6,0,11.79,0,17.23,0a19,19,0,0,1,18.42,18.63c0,1,0,2,0,3l-.08,1.46-.22,1.41a18.45,18.45,0,0,1-1.7,5.07l-.28.57-.32.53-.63,1c-.49.63-.91,1.29-1.43,1.83a15.73,15.73,0,0,1-1.53,1.55c-.26.23-.51.47-.77.69l-.8.6a19.24,19.24,0,0,1-5.88,2.91,17.28,17.28,0,0,1-2.3.5,12.05,12.05,0,0,1-1.69.19Z" transform="translate(-9.75)"/><path class="cls-36" d="M259.44,231c-.72-.84-.8-1.56.83-1.7,3.59-.32,6.24-1.89,6.65-2.8s-.72-1.79-1.69-1.25a13.46,13.46,0,0,1-3.5,1,8.79,8.79,0,0,1-2.91,0c-.84-.13-1.57-.27-2.23-.41,0,0-3.8-.82-5.44-2.1l-8,8.59,3.77,4.26a5.72,5.72,0,0,0,5,2.37c3.23-.32,7.58-2.64,7.58-2.64.59-.9,5.8,2.31,7.47,3.51s2.92.9,2.85-.26c0-.79-5.09-4.6-6.77-5.75a21.16,21.16,0,0,1-3.61-2.85" transform="translate(-9.75)"/><path class="cls-37" d="M254.71,238.42s-.23.15-.65.14a2.77,2.77,0,0,1-2.44-1.84c-.12-.4-.09-.66,0-.66s.31.95,1.23,1.62A5.45,5.45,0,0,0,254.71,238.42Z" transform="translate(-9.75)"/><path class="cls-37" d="M257.9,237.16s-.23.14-.62.11a2.74,2.74,0,0,1-2.32-1.8c-.12-.38-.1-.63,0-.63s.33.89,1.2,1.54A6.17,6.17,0,0,0,257.9,237.16Z" transform="translate(-9.75)"/><path class="cls-32" d="M266.57,147.81c.34,7.05,8.94,16.72,15.34,18.28,3.36.82,7.23.44,9.9,2.69,4.57,3.88,1.9,11.91,5,17.11,1.9,3.2,5.66,4.76,7.79,7.8,3.54,5,1.16,12.67-3.67,16.43s-11.28,4.47-17.34,4.32c-13.33-.34-27-4.58-36.61-14-4.53-4.44-22.24-18.14-16.06-50.62" transform="translate(-9.75)"/><path class="cls-38" d="M314.68,198.28l-50.68-15a32.15,32.15,0,0,0-7.38-2.22l-17.11.11a16.64,16.64,0,0,0-6.56,1.37l-46.13,15.32a8.81,8.81,0,0,0-5.77,8.57h0c0,4.92,3.54,8.9,7.92,8.9h21.3l-.09.31,74.09.28v0l28.28.06c4.37,0,7.92-4,7.92-9C320.45,202.9,318.09,199.37,314.68,198.28Z" transform="translate(-9.75)"/><path class="cls-32" d="M304.52,203.76a1.92,1.92,0,0,1-.46,0l-1.31-.15c-1.13-.14-2.77-.33-4.8-.52a144.55,144.55,0,0,0-31.77.42c-2,.25-3.66.47-4.78.65l-1.3.18a1.92,1.92,0,0,1-.46,0,1.92,1.92,0,0,1,.44-.12l1.29-.26c1.12-.22,2.75-.49,4.77-.78a127.36,127.36,0,0,1,31.84-.42c2,.23,3.67.46,4.79.65l1.3.22A1.92,1.92,0,0,1,304.52,203.76Z" transform="translate(-9.75)"/><g class="cls-39"><path class="cls-31" d="M292.63,191.44a.89.89,0,0,1-.14.17l-.45.47c-.4.41-1,1-1.79,1.74a28.79,28.79,0,0,1-3.08,2.48,15.25,15.25,0,0,1-4.73,2.26,12.08,12.08,0,0,1-6.33-.13,31.39,31.39,0,0,1-6.67-2.94,40.52,40.52,0,0,0-7.22-3.38,11.14,11.14,0,0,0-8.25.42c-2.67,1.2-4.94,3-7.42,4.36-.61.34-1.26.61-1.89.89a20.1,20.1,0,0,1-1.95.65,18.88,18.88,0,0,1-3.9.67,20.11,20.11,0,0,1-13-3.57,35.37,35.37,0,0,1-3.92-3.48,19.1,19.1,0,0,0-3-2.48,8.4,8.4,0,0,0-3.11-1.16,4.69,4.69,0,0,1,.87.1,7.29,7.29,0,0,1,2.32.92,18.54,18.54,0,0,1,3.11,2.45,36.31,36.31,0,0,0,3.93,3.41,19.93,19.93,0,0,0,12.77,3.42,18.59,18.59,0,0,0,3.82-.67,19.78,19.78,0,0,0,1.9-.64c.61-.28,1.25-.54,1.85-.88,2.44-1.3,4.7-3.14,7.44-4.38a11.53,11.53,0,0,1,8.54-.43,40.39,40.39,0,0,1,7.28,3.44,31.38,31.38,0,0,0,6.58,2.95,11.82,11.82,0,0,0,6.17.17,15.19,15.19,0,0,0,4.68-2.16,30.45,30.45,0,0,0,3.1-2.41c.81-.71,1.42-1.29,1.84-1.68l.47-.44Z" transform="translate(-9.75)"/></g><g class="cls-2"><polygon points="204.12 203.65 236.16 209.69 232.46 215.72 231.48 215.74 204.12 203.65"/></g><g class="cls-39"><path class="cls-31" d="M310.85,197.32a2.17,2.17,0,0,1,0,.49,10.61,10.61,0,0,1-.14,1.4,12.28,12.28,0,0,1-12.49,10.14,20.53,20.53,0,0,1-4.81-.88c-1.6-.45-3.15-1-4.67-1.26a13.53,13.53,0,0,0-4.43-.23,14.13,14.13,0,0,0-6.91,2.83,13.89,13.89,0,0,0-3.43,3.75l-.41.69-.26.53a2.2,2.2,0,0,1-.24.43,2.17,2.17,0,0,1,.17-.46l.23-.55.39-.72a13.34,13.34,0,0,1,3.39-3.9,14.22,14.22,0,0,1,7-3,13.78,13.78,0,0,1,4.55.21c1.55.31,3.11.81,4.7,1.26a20.45,20.45,0,0,0,4.71.87,12.14,12.14,0,0,0,10.3-5.11,12.6,12.6,0,0,0,2-4.66C310.8,198,310.8,197.32,310.85,197.32Z" transform="translate(-9.75)"/></g><path class="cls-40" d="M186.86,214.26s57.91,25.55,57.61,25,9.2-17.34,9.2-17.34l-46.92-23.19Z" transform="translate(-9.75)"/><path class="cls-41" d="M213.44,202a7.71,7.71,0,0,1,1.19.5l3.19,1.5c2.68,1.28,6.38,3.08,10.45,5.09s7.74,3.85,10.4,5.21l3.13,1.62a7.76,7.76,0,0,1,1.12.65,7.7,7.7,0,0,1-1.19-.5l-3.19-1.5c-2.68-1.28-6.38-3.08-10.45-5.1s-7.74-3.85-10.39-5.2l-3.13-1.62A7.75,7.75,0,0,1,213.44,202Z" transform="translate(-9.75)"/><g class="cls-39"><path class="cls-42" d="M226.16,209.77a5,5,0,0,1-.54,1.72,8.11,8.11,0,0,1-3.45,3.45,10.62,10.62,0,0,1-3.22,1.15,12.69,12.69,0,0,1-3.92,0,29.63,29.63,0,0,1-8.45-2.83,44,44,0,0,0-8.21-3.24,14.77,14.77,0,0,0-3.79-.44,11.84,11.84,0,0,0-3.27.55,8.94,8.94,0,0,0-4,2.53,16.61,16.61,0,0,0-1,1.44,5.37,5.37,0,0,1,.93-1.54,8.81,8.81,0,0,1,4.07-2.71,11.91,11.91,0,0,1,3.36-.62,14.87,14.87,0,0,1,3.89.41,42.78,42.78,0,0,1,8.3,3.24,30,30,0,0,0,8.32,2.83,12.52,12.52,0,0,0,3.81,0,10.49,10.49,0,0,0,3.14-1.06,8.19,8.19,0,0,0,3.45-3.27A13.86,13.86,0,0,0,226.16,209.77Z" transform="translate(-9.75)"/></g><g class="cls-39"><path class="cls-43" d="M250.74,227.28c0,.08-1.28-.14-3.35-.17a28.21,28.21,0,0,0-3.62.18,27.65,27.65,0,0,0-8.51,2.41,28.2,28.2,0,0,0-3.18,1.74c-1.74,1.11-2.72,2-2.77,1.9a3.8,3.8,0,0,1,.65-.64,18.7,18.7,0,0,1,2-1.51,24.67,24.67,0,0,1,3.18-1.84,25.75,25.75,0,0,1,8.63-2.44,24.68,24.68,0,0,1,3.67-.1,18.68,18.68,0,0,1,2.46.26A3.8,3.8,0,0,1,250.74,227.28Z" transform="translate(-9.75)"/></g><g class="cls-2"><path d="M257.89,180.9c-1,2.68.48,5.57,1.87,8a21.82,21.82,0,0,0,3.36,4.87,7.36,7.36,0,0,0,5.27,2.37c2.6-.09,4.93-2,7.53-1.86a10,10,0,0,1,4.78,2.14,37.88,37.88,0,0,0,8,4.45,14.42,14.42,0,0,0,9,.57A9,9,0,0,0,304,195.3" transform="translate(-9.75)"/></g><path class="cls-36" d="M258.1,180.16c.13-3.12.3-5.94.3-5.94s7-.88,7.27-8-.41-23.49-.41-23.49l-12.83-6.16-13.8,11.12,2.16,32.66a8.66,8.66,0,0,0,9,8.08h0A8.66,8.66,0,0,0,258.1,180.16Z" transform="translate(-9.75)"/><ellipse class="cls-32" cx="263.18" cy="155.62" rx="0.89" ry="0.91" transform="translate(-12.41 4.58) rotate(-0.99)"/><path class="cls-32" d="M264.92,153.7c-.11.12-.78-.44-1.73-.48s-1.66.45-1.76.32.07-.28.37-.5a2.31,2.31,0,0,1,2.79.13C264.88,153.42,265,153.65,264.92,153.7Z" transform="translate(-9.75)"/><ellipse class="cls-32" cx="252.6" cy="155.62" rx="0.89" ry="0.91" transform="translate(-12.41 4.4) rotate(-0.99)"/><path class="cls-32" d="M254.35,153.89c-.11.12-.78-.44-1.73-.48s-1.66.45-1.76.32.06-.28.37-.5a2.31,2.31,0,0,1,2.79.13C254.31,153.61,254.4,153.83,254.35,153.89Z" transform="translate(-9.75)"/><path class="cls-32" d="M257.93,162.1a5.88,5.88,0,0,1,1.56-.24c.24,0,.48-.06.52-.24a1.43,1.43,0,0,0-.15-.78l-.69-2a36.66,36.66,0,0,1-1.54-5.27,36.44,36.44,0,0,1,1.93,5.13l.66,2a1.62,1.62,0,0,1,.11,1,.61.61,0,0,1-.41.37,1.54,1.54,0,0,1-.42,0A5.83,5.83,0,0,1,257.93,162.1Z" transform="translate(-9.75)"/><path class="cls-31" d="M254.8,163.08c-1-.64,2.69,1.58,4.64,1.55a2.61,2.61,0,0,1-3.15,1A2.07,2.07,0,0,1,254.8,163.08Z" transform="translate(-9.75)"/><path class="cls-37" d="M258.4,174.22a17,17,0,0,1-9.23-3s2.17,5.18,9.11,4.77Z" transform="translate(-9.75)"/><path class="cls-32" d="M231.16,154.71h0c0,6.16-1.64,22.43,9.58,24.69L240.33,157s10.86-5.12,12.7-15.79l.07.06c.7,1.61,1.94,5.07,1.18,7.89l10.17,2.51,1.17,1.07a14,14,0,0,0-3.37-15.14c-7-7.2-13-2-16.71-2.43-2.49-.3-11.13-.24-14.65,14.64Z" transform="translate(-9.75)"/><path class="cls-36" d="M240.61,157.23a2.5,2.5,0,0,0-3,.72,4.09,4.09,0,0,0,4.07,6.71" transform="translate(-9.75)"/><path class="cls-37" d="M240.39,162.53c0,.05-.32.11-.82,0a2.15,2.15,0,0,1-1.49-1.32,1.59,1.59,0,0,1,0-1.16,1.68,1.68,0,0,1,.61-.71c.45-.29.79-.27.79-.22s-.28.15-.61.45a1.39,1.39,0,0,0-.43,1.5,2.12,2.12,0,0,0,1.19,1.18C240.1,162.42,240.4,162.47,240.39,162.53Z" transform="translate(-9.75)"/><path class="cls-44" d="M239.47,163.93a.81.81,0,1,0,.31,0" transform="translate(-9.75)"/><path class="cls-36" d="M260.08,215.92V204.23s-17.36,3.6-17.68,11.55Z" transform="translate(-9.75)"/><path class="cls-32" d="M258.28,178.93a14.55,14.55,0,0,0,14.24,13.38c2.56,0,5.26-.56,7.6.48,2,.91,3.34,2.88,4.95,4.43a14.68,14.68,0,0,0,14.55,3.29c2.1-.71,5.44-2.22,5.83-4.4.3-1.66-1.73-3.32-2.93-4.51a14.81,14.81,0,0,0-4.27-2.67c-12.37-5.81-25.64-10-39.28-10.75" transform="translate(-9.75)"/></g></g></svg>