<?xml version="1.0" encoding="utf-8"?>
<!-- Generator: Adobe Illustrator 21.0.0, SVG Export Plug-In . SVG Version: 6.00 Build 0)  -->
<svg version="1.1" id="Слой_1" xmlns="http://www.w3.org/2000/svg" xmlns:xlink="http://www.w3.org/1999/xlink" x="0px" y="0px"
	 viewBox="0 0 180 181.6" style="enable-background:new 0 0 180 181.6;" xml:space="preserve">
<style type="text/css">
	.st0{fill:none;stroke:#0037FF;stroke-linecap:round;stroke-linejoin:round;}
	.st1{opacity:0.5;fill:none;stroke:#0037FF;stroke-linecap:round;stroke-linejoin:round;enable-background:new    ;}
	.st2{opacity:0.6;}
	.st3{opacity:0.6;fill:none;stroke:#0037FF;stroke-linecap:round;stroke-linejoin:round;enable-background:new    ;}
	.st4{fill:url(#SVGID_1_);}
	.st5{fill:url(#SVGID_2_);}
	.st6{fill:url(#SVGID_3_);}
	.st7{fill:#EA8F68;}
	.st8{fill:url(#SVGID_4_);}
	.st9{fill:url(#SVGID_5_);}
	.st10{fill:url(#SVGID_6_);}
	.st11{fill:url(#SVGID_7_);}
	.st12{fill:url(#SVGID_8_);}
	.st13{fill:#FFAF84;}
	.st14{fill:url(#SVGID_9_);}
	.st15{opacity:0.3;fill:url(#SVGID_10_);enable-background:new    ;}
	.st16{opacity:0.3;fill:url(#SVGID_11_);enable-background:new    ;}
	.st17{fill:url(#SVGID_12_);}
	.st18{fill:url(#SVGID_13_);}
	.st19{opacity:0.3;fill:url(#SVGID_14_);enable-background:new    ;}
	.st20{fill:url(#SVGID_15_);}
</style>
<title>box1</title>
<g>
	<g id="Слой_2">
		<g id="Objects">
			<polygon class="st0" points="172.4,52 172.4,157.5 24.7,157.5 24.7,61.4 			"/>
			<polygon class="st1" points="171.3,155.8 24.7,156.3 24.7,61.4 171.3,51.6 			"/>
			<polygon class="st0" points="172.4,52 24.7,61.4 24.7,47.5 172.4,36.8 			"/>
			<polygon class="st0" points="169.4,49 27.2,58.3 27.2,53.7 169.4,44 			"/>
			<polygon class="st0" points="29.4,52 27.2,52.2 27.2,49.8 29.4,49.7 			"/>
			<polygon class="st0" points="33.2,51.8 31.1,51.9 31.1,49.5 33.2,49.4 			"/>
			<polygon class="st0" points="37.1,51.5 34.9,51.6 34.9,49.3 37.1,49.1 			"/>
			<g class="st2">
				<polygon class="st0" points="112.6,71.3 58.1,74.7 58.1,76.3 112.6,72.9 				"/>
				<polygon class="st0" points="112.6,68.4 58.1,71.7 58.1,73.4 112.6,70 				"/>
				<polygon class="st0" points="82.5,67.2 58.1,68.7 58.1,70.4 82.5,68.8 				"/>
			</g>
			<polygon class="st0" points="46.2,76.8 53.5,76.5 53.5,69.1 46.2,69.4 			"/>
			<polygon class="st3" points="37.9,77.1 45.1,76.8 45.1,69.3 37.9,69.7 			"/>
			
				<ellipse transform="matrix(0.9545 -0.2982 0.2982 0.9545 -27.3266 47.4728)" class="st0" cx="141.9" cy="113.3" rx="12.9" ry="12.9"/>
			<path class="st0" d="M148.3,115.7c-0.4-0.5-0.9-0.9-1.4-1.4c-0.4-0.4-0.4-0.6-0.1-1.1s0.8-1,1.1-1.5c0.4-0.5,0.7-1,0.9-1.5
				c0.1-0.4,0-0.5-0.4-0.6H146c-0.2,0-0.5,0.1-0.5,0.4c-0.1,0.3-0.3,0.7-0.4,1c-0.3,0.7-0.8,1.4-1.3,2c-0.1,0.1-0.3,0.3-0.5,0.2
				s-0.3-0.5-0.3-0.7V110c0-0.4-0.1-0.5-0.5-0.6h-2.3c-0.2,0-0.5,0.1-0.6,0.3c-0.1,0.1-0.1,0.2,0.1,0.2c0.4,0.1,0.6,0.3,0.6,0.7
				c0.1,0.6,0.1,1.2,0,1.8c0,0.2-0.1,0.4-0.1,0.5c0,0.2-0.2,0.3-0.4,0.2c-0.1,0-0.1,0-0.2-0.1c-0.2-0.2-0.4-0.3-0.5-0.6
				c-0.5-0.8-1-1.6-1.4-2.5c-0.1-0.2-0.3-0.4-0.6-0.4c-0.7,0-1.3,0-2,0c-0.4,0-0.5,0.2-0.4,0.6c0.7,1.6,1.6,3.2,2.6,4.6
				c0.5,0.7,1.2,1.4,2,1.8c0.9,0.5,1.9,0.7,2.9,0.6c0.5,0,0.6-0.2,0.6-0.6c0-0.3,0.1-0.7,0.2-0.9c0.1-0.2,0.3-0.3,0.5-0.2
				c0.1,0,0.1,0,0.1,0.1c0.1,0.1,0.3,0.2,0.4,0.3c0.3,0.3,0.5,0.6,0.8,0.9c0.3,0.4,0.8,0.6,1.3,0.5h2c0.3,0,0.5-0.4,0.3-0.8
				C148.6,116.2,148.4,115.9,148.3,115.7z"/>
			
				<ellipse transform="matrix(0.7716 -0.6361 0.6361 0.7716 -60.0346 59.4275)" class="st0" cx="52.7" cy="113.3" rx="12.8" ry="12.8"/>
			<path class="st0" d="M55.4,106.6l-5-0.1c-2.3,0-4.2,1.8-4.2,4.1l0,0l-0.1,5c0,2.3,1.8,4.2,4.1,4.2l0,0l5,0.1
				c2.3,0,4.2-1.8,4.2-4.1l0,0l0.1-5C59.5,108.6,57.7,106.7,55.4,106.6C55.4,106.7,55.4,106.7,55.4,106.6z M58.2,115.8
				c0,1.6-1.4,2.9-3,2.9l0,0l-5-0.1c-1.6,0-2.9-1.4-2.9-3l0,0l0.1-5c0-1.6,1.4-2.9,3-2.9l0,0l5,0.1c1.6,0,2.9,1.4,2.9,3l0,0
				L58.2,115.8z"/>
			<path class="st0" d="M52.8,109.9c-1.8,0-3.3,1.4-3.4,3.3c0,1.8,1.4,3.3,3.3,3.4c1.8,0,3.3-1.4,3.4-3.3
				C56.1,111.5,54.6,110,52.8,109.9L52.8,109.9z M52.7,115.3c-1.1,0-2.1-1-2-2.1c0-1.1,1-2.1,2.1-2c1.1,0,2.1,1,2,2.1l0,0
				C54.8,114.5,53.8,115.4,52.7,115.3L52.7,115.3z"/>
			
				<ellipse transform="matrix(1.535797e-02 -0.9999 0.9999 1.535797e-02 -54.222 164.3245)" class="st0" cx="56.3" cy="109.7" rx="0.4" ry="0.4"/>
			
				<ellipse transform="matrix(0.9545 -0.2982 0.2982 0.9545 -28.6771 38.616)" class="st0" cx="112.2" cy="113.3" rx="12.9" ry="12.9"/>
			<path class="st0" d="M113,111.1v-1.7c0-0.5,0.4-0.9,0.9-0.9h0.9v-2.2H113c-1.4,0-2.6,1.2-2.6,2.6l0,0v2.2h-1.7v2.2h1.7v6.9h2.6
				v-6.9h1.7l0.9-2.2H113z"/>
			
				<ellipse transform="matrix(3.996808e-02 -0.9992 0.9992 3.996808e-02 -33.7941 190.1775)" class="st0" cx="82.1" cy="112.7" rx="12.8" ry="12.8"/>
			<path class="st0" d="M82,116.4c-1.1,0-2.2-0.4-3.1-1c-0.1-0.1-0.2-0.2-0.3-0.3c-0.4-0.3-0.4-0.9-0.1-1.3c0.3-0.3,0.7-0.4,1.1-0.2
				c0.1,0,0.2,0.1,0.3,0.1c1.7,1.1,4,1,5.6-0.2c0.2-0.1,0.3-0.2,0.5-0.3c0.4-0.1,0.8,0,1,0.3c0.3,0.3,0.3,0.8,0,1.1
				c-0.4,0.5-1,0.9-1.6,1.1s-1.2,0.4-1.8,0.5l0.2,0.2l2.6,2.5c0.3,0.2,0.4,0.7,0.2,1c-0.2,0.4-0.5,0.6-0.9,0.6
				c-0.2,0-0.5-0.1-0.6-0.3c-0.7-0.6-1.4-1.2-2-1.9c-0.2-0.2-0.3-0.2-0.4,0c-0.6,0.7-1.3,1.4-1.9,2.1c-0.2,0.3-0.7,0.4-1,0.2
				c-0.4-0.2-0.6-0.5-0.6-0.9c0-0.2,0.1-0.5,0.3-0.6l2.4-2.7L82,116.4z"/>
			<path class="st0" d="M82.6,113.4c-2.1,0.1-3.8-1.6-3.9-3.6s1.6-3.8,3.6-3.9c2.1-0.1,3.8,1.6,3.9,3.6l0,0
				C86.3,111.6,84.7,113.4,82.6,113.4z M84.3,109.6c0-1-0.9-1.8-1.9-1.8s-1.8,0.9-1.8,1.9s0.9,1.8,1.9,1.8l0,0
				C83.6,111.5,84.4,110.6,84.3,109.6L84.3,109.6z"/>
			<path class="st0" d="M58.9,0.5L21.8,3.6c-3,0.3-5.3,3-5,6l0,0l1.5,18.2c0.3,3,3,5.3,6,5l0,0l3.6-0.3c0,0,5.3,5.8,7.2,7.6
				c1.3,1.2,3.4,1.1,4.7-0.2c0.1-0.1,0.1-0.1,0.2-0.2c1.6-2.1,5.9-8.7,5.9-8.7l15.6-1.2c3-0.3,5.3-3,5-6l0,0L64.9,5.6
				C64.6,2.5,62,0.3,58.9,0.5L58.9,0.5z"/>
			<path class="st0" d="M25.9,12.9c-1.3-0.1-2.3-1.1-2.2-2.4c0-1.1,0.9-2,2-2.2l30.1-2.5c1.3-0.2,2.4,0.7,2.6,2s-0.7,2.4-2,2.6
				c-0.1,0-0.1,0-0.2,0l-30.1,2.5H25.9z"/>
			<path class="st0" d="M26.6,20.8c-1.3,0-2.3-1.1-2.3-2.3c0-1.2,0.9-2.1,2.1-2.2l30.1-2.5c1.3-0.2,2.4,0.7,2.6,2
				c0.2,1.3-0.7,2.4-2,2.6c-0.1,0-0.1,0-0.2,0l-30.1,2.5L26.6,20.8z"/>
			<path class="st0" d="M27.2,28.7c-1.3-0.1-2.3-1.1-2.2-2.4c0-1.1,0.9-2,2-2.2L40.6,23c1.3-0.2,2.4,0.7,2.6,2s-0.7,2.4-2,2.6
				c-0.1,0-0.1,0-0.2,0l-13.6,1.1H27.2z"/>
			
				<linearGradient id="SVGID_1_" gradientUnits="userSpaceOnUse" x1="-6239.5278" y1="808.3475" x2="-6238.5278" y2="782.0775" gradientTransform="matrix(-1 0 0 1 -6228.1201 -622)">
				<stop  offset="0" style="stop-color:#36078B"/>
				<stop  offset="1" style="stop-color:#168D68"/>
			</linearGradient>
			<path class="st4" d="M12.5,175.8c0.2,0.7,0.2,1.3,0.3,2c0.1,0.8,0.9,1.1,1.4,1.8s1.3,1.9-1.8,2c-3.3,0.1-5.2-0.1-4.6-1.9
				c0.4-1,0.6-2.1,0.6-3.1c-0.1-0.5,0-1.1,0.4-1.5C9.1,174.6,12,174,12.5,175.8z"/>
			
				<linearGradient id="SVGID_2_" gradientUnits="userSpaceOnUse" x1="-6261.3521" y1="692.5767" x2="-6277.1821" y2="702.0267" gradientTransform="matrix(-1 0 0 1 -6228.1201 -622)">
				<stop  offset="0" style="stop-color:#36078B"/>
				<stop  offset="1" style="stop-color:#168D68"/>
			</linearGradient>
			<path class="st5" d="M41.2,76.1C39,72,36.6,68,33.9,64.2c-2.4-3.6-4.8-3.9-6.9-3.4c-1.7,0.4-2.8,2.4-1.6,4.7
				c1.3,2.5,2.8,4.8,4.4,7c4.6,6.3,7.1,8.3,8.4,9C39.7,82.4,43.1,79.5,41.2,76.1z"/>
			
				<linearGradient id="SVGID_3_" gradientUnits="userSpaceOnUse" x1="-6252.5713" y1="673.4334" x2="-6261.2012" y2="659.9334" gradientTransform="matrix(-1 0 0 1 -6228.1201 -622)">
				<stop  offset="0" style="stop-color:#36078B"/>
				<stop  offset="1" style="stop-color:#16B1FF"/>
			</linearGradient>
			<path class="st6" d="M26.7,51.1c1.3,0.6,1.9,0.6,2.4-1c0.4-1.3,1-5.8-1.1-6.1s-3.6-0.4-3.4,2.4S25.1,50.3,26.7,51.1z"/>
			<path class="st7" d="M18.9,53.5c0,0.2-0.5,4.5-0.6,7.8c0.1,1.7,1.5,3.1,3.2,3.2h0.1c1.6,0,3.5-1.4,3.3-3c-0.2-2-0.2-3.9-0.1-5.9
				L18.9,53.5z"/>
			
				<linearGradient id="SVGID_4_" gradientUnits="userSpaceOnUse" x1="-6264.9897" y1="701.75" x2="-6238.2661" y2="701.75" gradientTransform="matrix(-1 0 0 1 -6228.1201 -622)">
				<stop  offset="0" style="stop-color:#36078B"/>
				<stop  offset="1" style="stop-color:#16B1FF"/>
			</linearGradient>
			<path class="st8" d="M10.9,71.5c3,9.7,4.3,21.5,3.7,28.3h22.3c0,0-0.1-20.9-1.6-32.3c-0.4-2.8-2.1-5.3-4.7-6.5
				c-1.9-0.8-3.9-1.3-5.9-1.3h-4.1c-1.5,0.1-2.9,0.2-4.3,0.5C10.3,61.3,9.2,65.8,10.9,71.5z"/>
			
				<linearGradient id="SVGID_5_" gradientUnits="userSpaceOnUse" x1="-6247.2275" y1="795.6225" x2="-6257.2373" y2="686.5125" gradientTransform="matrix(-1 0 0 1 -6228.1201 -622)">
				<stop  offset="0" style="stop-color:#F70F47"/>
				<stop  offset="1" style="stop-color:#FFB41D"/>
			</linearGradient>
			<path class="st9" d="M14.7,113.4c0,0-1.9-4.7-0.1-13.6h22.3c0.1,4.6-0.2,9.1-0.9,13.6H14.7z"/>
			
				<linearGradient id="SVGID_6_" gradientUnits="userSpaceOnUse" x1="-6239.7554" y1="794.9305" x2="-6249.7656" y2="685.8306" gradientTransform="matrix(-1 0 0 1 -6228.1201 -622)">
				<stop  offset="0" style="stop-color:#F70F47"/>
				<stop  offset="1" style="stop-color:#FFB41D"/>
			</linearGradient>
			<path class="st10" d="M19.1,142.5c1.8-7.3-5.6-8.5-8-3.3c-3.3,7.4-3,32.2-2.9,36.9c0,0.6,0,0.6,0.3,0.5c0.5-0.1,1.1-1.3,2.5-1.3
				c0.8,0,1.5,1,1.5,1C13.3,170,17.4,149.6,19.1,142.5z"/>
			
				<linearGradient id="SVGID_7_" gradientUnits="userSpaceOnUse" x1="-6241.9106" y1="795.1237" x2="-6251.9204" y2="686.0338" gradientTransform="matrix(-1 0 0 1 -6228.1201 -622)">
				<stop  offset="0" style="stop-color:#F70F47"/>
				<stop  offset="1" style="stop-color:#FFB41D"/>
			</linearGradient>
			<path class="st11" d="M25.1,114.4c0.8-9-2.1-16-7.7-13c-2.3,1.3-3.2,3.8-3.5,6.1s-2,26.9-2.7,31.3c-1.4,10,6.5,7.3,7.4,4.5
				C20.7,136.3,24.7,119.3,25.1,114.4z"/>
			
				<linearGradient id="SVGID_8_" gradientUnits="userSpaceOnUse" x1="-6253.4424" y1="796.1902" x2="-6263.4526" y2="687.0802" gradientTransform="matrix(-1 0 0 1 -6228.1201 -622)">
				<stop  offset="0" style="stop-color:#F70F47"/>
				<stop  offset="1" style="stop-color:#FFB41D"/>
			</linearGradient>
			<path class="st12" d="M32.9,142.5c1.4-6.6-5.1-7.6-7.7-2.4c-4,8.1-2.6,27.6-4.1,38.1c1.4-1.6,2.5-1.6,3-1.5
				c0.4,0.1,0.8,0.4,1.1,0.8C27.3,163.6,31.4,149.6,32.9,142.5z"/>
			<path class="st13" d="M34.8,74.1c1.2-0.4,3-1.1,4-1.6s2,1.7,1.8,2.4c-0.4,1-2.7,3.1-3.9,2.4s-2.1,0.3-3-0.6S32.9,74.8,34.8,74.1z
				"/>
			
				<linearGradient id="SVGID_9_" gradientUnits="userSpaceOnUse" x1="-6253.1426" y1="796.1758" x2="-6263.1528" y2="687.0158" gradientTransform="matrix(-1 0 0 1 -6228.1201 -622)">
				<stop  offset="0" style="stop-color:#F70F47"/>
				<stop  offset="1" style="stop-color:#FFB41D"/>
			</linearGradient>
			<path class="st14" d="M25.2,142c0.4,2.9,7.3,7.3,8.2-2.8c0.4-4.4,2.9-28.9,3.2-31.3s0.5-6-0.3-6.6c-5.2-3.6-11.2,2.8-11.1,11.9
				C25.2,119.3,24.4,136,25.2,142z"/>
			
				<linearGradient id="SVGID_10_" gradientUnits="userSpaceOnUse" x1="-6263.229" y1="702.1108" x2="-6244.394" y2="702.1108" gradientTransform="matrix(-1 0 0 1 -6228.1201 -622)">
				<stop  offset="0" style="stop-color:#0000FF"/>
				<stop  offset="1" style="stop-color:#9E005D"/>
			</linearGradient>
			<path class="st15" d="M33.4,74.7c-1.6,0.9-12.3,2.6-14.9,4c-3.1,1.7-2.7,7-0.1,7s5.5-1.3,10.7-4.7c3.6-2.3,5-3,5.8-4.6
				C35.6,75.1,34.4,74.1,33.4,74.7z"/>
			
				<linearGradient id="SVGID_11_" gradientUnits="userSpaceOnUse" x1="-6269.6733" y1="692.6393" x2="-6253.3203" y2="692.6393" gradientTransform="matrix(-1 0 0 1 -6228.1201 -622)">
				<stop  offset="0" style="stop-color:#0000FF"/>
				<stop  offset="1" style="stop-color:#9E005D"/>
			</linearGradient>
			<path class="st16" d="M27.3,60.1c1.1,1.4,11.8,13.8,13.6,16.2c2.2,2.8-1.7,6.6-3.7,5C35,79.5,31.1,72.8,28,68
				c-2.3-3.6-2.7-5.1-2.8-6.9C25.2,59.5,26.6,59.2,27.3,60.1z"/>
			<path class="st13" d="M16.7,50.4c0.4,3.7,0.5,4.5,2.1,6c1.6,1.4,3.6,2.2,5.7,2.2c1.9,0,3.3-2,3.7-3.5c0.7-3.1,0.8-6.3,0.4-9.4
				C28,43,25.8,41.2,23.2,41C20.6,41,15.8,41.3,16.7,50.4z"/>
			
				<linearGradient id="SVGID_12_" gradientUnits="userSpaceOnUse" x1="-6254.8696" y1="807.7667" x2="-6253.8696" y2="781.4866" gradientTransform="matrix(-1 0 0 1 -6228.1201 -622)">
				<stop  offset="0" style="stop-color:#36078B"/>
				<stop  offset="1" style="stop-color:#168D68"/>
			</linearGradient>
			<path class="st17" d="M25.2,177.2c0.8,1,1.9,1.8,3.2,2.3c1.7,0.7,5.3,1.1,3.3,1.7c-1.8,0.4-3.7,0.5-5.5,0.1
				c-1.2-0.2-2.5-0.2-3.7-0.2c-1.8,0-1.8-0.1-1.6-2.1C21.2,176.3,24.4,175.7,25.2,177.2z"/>
			
				<linearGradient id="SVGID_13_" gradientUnits="userSpaceOnUse" x1="-6245.9019" y1="669.1705" x2="-6254.5317" y2="655.6705" gradientTransform="matrix(-1 0 0 1 -6228.1201 -622)">
				<stop  offset="0" style="stop-color:#36078B"/>
				<stop  offset="1" style="stop-color:#16B1FF"/>
			</linearGradient>
			<path class="st18" d="M16.8,49.8c1,1,1.5,1.2,2.5-0.2c0.8-1,2.8-4.9,1-5.8s-3.2-1.5-3.9,1.1S15.6,48.6,16.8,49.8z"/>
			
				<ellipse transform="matrix(0.9257 -0.3783 0.3783 0.9257 -18.0269 10.0638)" class="st13" cx="16.6" cy="50.9" rx="1.3" ry="2.5"/>
			<path class="st13" d="M27.2,62.3c0.5-0.7,4.2-6.8,2.7-7c-1.7-0.3-3.7,1.8-4.3,2.6c-0.9,1.2-1.1,2.8-0.3,4.1
				C25.9,62.6,26.8,63,27.2,62.3z"/>
			
				<linearGradient id="SVGID_14_" gradientUnits="userSpaceOnUse" x1="-6250.1377" y1="695.8802" x2="-6237.998" y2="695.8802" gradientTransform="matrix(-1 0 0 1 -6228.1201 -622)">
				<stop  offset="0" style="stop-color:#0000FF"/>
				<stop  offset="1" style="stop-color:#9E005D"/>
			</linearGradient>
			<path class="st19" d="M21.8,81.2C21,79.4,20,73.5,18.1,66c-0.3-1.3-3-3.4-5.2-3.8c-1.3-0.3-3.5,1.5-3,4c0.5,2.7,1.2,5.4,2.1,8
				c2.5,7.4,4.3,10.7,5.6,11.3S23,83.7,21.8,81.2z"/>
			
				<linearGradient id="SVGID_15_" gradientUnits="userSpaceOnUse" x1="-6248.3477" y1="670.7329" x2="-6256.9775" y2="657.2329" gradientTransform="matrix(-1 0 0 1 -6228.1201 -622)">
				<stop  offset="0" style="stop-color:#36078B"/>
				<stop  offset="1" style="stop-color:#16B1FF"/>
			</linearGradient>
			<path class="st20" d="M17.9,43.5c1.2,0.8,6.7,2.3,8.4,2.7c-0.9-0.5-1.8-1-2.6-1.8c2.1,0.3,4.2,0.3,6.2,0
				c-0.6-0.3-1.1-0.7-1.6-1.2c1,0,2-0.2,2.9-0.5c0,0-6-4.1-11.2-2.6C17.4,41,16.7,42.7,17.9,43.5z"/>
		</g>
	</g>
</g>
</svg>
