<?xml version="1.0" encoding="utf-8"?>
<!-- Generator: Adobe Illustrator 21.0.0, SVG Export Plug-In . SVG Version: 6.00 Build 0)  -->
<svg version="1.1" id="Слой_1" xmlns="http://www.w3.org/2000/svg" xmlns:xlink="http://www.w3.org/1999/xlink" x="0px" y="0px"
	 viewBox="0 0 181.4 180" style="enable-background:new 0 0 181.4 180;" xml:space="preserve">
<style type="text/css">
	.st0{fill:none;stroke:#0037FF;stroke-linecap:round;stroke-linejoin:round;}
	.st1{opacity:0.4;fill:none;stroke:#0037FF;stroke-linecap:round;stroke-linejoin:round;enable-background:new    ;}
	.st2{opacity:0.6;fill:none;stroke:#0037FF;stroke-linecap:round;stroke-linejoin:round;enable-background:new    ;}
	.st3{opacity:0.5;fill:none;stroke:#0037FF;stroke-linecap:round;stroke-linejoin:round;enable-background:new    ;}
	.st4{opacity:0.6;}
	.st5{fill:url(#SVGID_1_);}
	.st6{fill:#FFAF84;}
	.st7{fill:url(#SVGID_2_);}
	.st8{fill:url(#SVGID_3_);}
	.st9{fill:#ED9169;}
	.st10{fill:url(#SVGID_4_);}
	.st11{fill:url(#SVGID_5_);}
	.st12{fill:url(#SVGID_6_);}
	.st13{fill:url(#SVGID_7_);}
	.st14{fill:url(#SVGID_8_);}
	.st15{fill:url(#SVGID_9_);}
	.st16{fill:url(#SVGID_10_);}
	.st17{fill:url(#SVGID_11_);}
	.st18{fill:url(#SVGID_12_);}
	.st19{fill:url(#SVGID_13_);}
</style>
<title>box2</title>
<g>
	<g id="Слой_2">
		<g id="Designed_by_Freepik">
			<polygon class="st0" points="180.9,21 180.9,149.8 0.5,149.8 0.5,32.4 			"/>
			<polygon class="st1" points="47.6,106.1 85.9,105.2 85.9,52.4 47.6,54.3 			"/>
			<polygon class="st2" points="53,87.1 8.3,88.6 8.3,40.8 53,38.2 			"/>
			<path class="st0" d="M44.5,63.2c0,8.4-6.3,15.5-14.1,15.8s-13.9-6.2-13.9-14.5s6.2-15.4,13.9-15.7S44.5,54.7,44.5,63.2z"/>
			<path class="st0" d="M41.1,63.3c0,3.7-1.6,7.1-4.4,9.5c-0.8,0.7-1.6,1.2-2.6,1.6c-0.4,0.2-0.8,0.3-1.3,0.5
				C32.5,75,32.3,75,32,75.1c-0.5,0.1-1.1,0.2-1.7,0.2c-1.1,0-2.1-0.1-3.2-0.4c-4.6-1.5-7.6-5.8-7.4-10.6c0-1.7,0.4-3.4,1.1-5
				c0.8-1.9,2.1-3.5,3.7-4.7c0.4-0.3,0.8-0.5,1.2-0.8c0.9-0.5,1.8-0.9,2.8-1.1c5.1-1.3,10.3,1.6,11.9,6.6
				C40.8,60.5,41.1,61.9,41.1,63.3z"/>
			<path class="st0" d="M30.4,65.1c-0.7,0-1.3-0.6-1.3-1.3l0,0v-7.3c0-0.7,0.6-1.3,1.3-1.3s1.3,0.6,1.3,1.3v7.3
				C31.7,64.6,31.1,65.1,30.4,65.1L30.4,65.1z"/>
			<path class="st0" d="M30.4,65.1c-0.7,0-1.3-0.6-1.3-1.3c0-0.4,0.2-0.8,0.5-1.1l3.5-2.6c0.6-0.4,1.4-0.3,1.8,0.3s0.3,1.4-0.3,1.8
				l-3.5,2.6C30.9,65.1,30.7,65.1,30.4,65.1z"/>
			<polygon class="st0" points="180.9,21 0.5,32.4 0.5,15.5 180.9,2.4 			"/>
			<polygon class="st0" points="177.3,17.3 3.6,28.7 3.6,23.1 177.3,11.2 			"/>
			<polygon class="st0" points="6.2,21 3.6,21.2 3.6,18.3 6.2,18.1 			"/>
			<polygon class="st0" points="11,20.7 8.3,20.8 8.3,17.9 11,17.7 			"/>
			<polygon class="st0" points="15.7,20.3 13,20.5 13,17.6 15.7,17.4 			"/>
			<polygon class="st3" points="80.5,131.5 168.8,130.6 168.8,28.4 80.5,33.7 			"/>
			<path class="st0" d="M92.2,55.7c-0.6,0-1.2-0.2-1.6-0.6c-0.5-0.5-0.8-1.1-0.8-1.8V40c0-1.4,1-2.5,2.4-2.6l78.8-4.5
				c1.4-0.1,2.5,0.9,2.6,2.3c0,0.1,0,0.1,0,0.2v13.9c0,1.4-1.1,2.6-2.6,2.7l-78.8,3.8l0,0V55.7z M171.2,33.9L171.2,33.9l-78.9,4.5
				c-0.7,0.1-1.3,0.7-1.3,1.4v13.4c0,0.4,0.1,0.7,0.4,0.9c0.2,0.2,0.5,0.3,0.8,0.3l78.8-3.8c0.8,0,1.4-0.7,1.4-1.5V35.3
				c0-0.4-0.1-0.7-0.4-1C171.9,34.1,171.6,34,171.2,33.9L171.2,33.9z"/>
			<path class="st0" d="M92.3,78.5c-0.6,0-1.2-0.2-1.6-0.6c-0.5-0.5-0.8-1.1-0.8-1.8V62.7c0-1.4,1-2.5,2.4-2.6l78.8-3.6
				c0.7,0,1.3,0.2,1.8,0.7s0.8,1.1,0.8,1.8v14c0,1.4-1.1,2.6-2.6,2.7L92.3,78.5L92.3,78.5z M171.3,57.6L171.3,57.6l-78.9,3.6
				c-0.7,0.1-1.3,0.7-1.3,1.4V76c0,0.4,0.1,0.7,0.4,0.9c0.2,0.2,0.5,0.3,0.8,0.3l78.8-2.9c0.8,0,1.4-0.7,1.4-1.5V59
				c0-0.4-0.1-0.7-0.4-1C171.9,57.7,171.6,57.6,171.3,57.6L171.3,57.6z"/>
			<path class="st0" d="M92.3,101.2c-0.6,0-1.2-0.2-1.6-0.7c-0.5-0.5-0.8-1.1-0.8-1.8V85.4c0-1.4,1-2.5,2.4-2.6l78.8-2.7
				c0.7,0,1.3,0.2,1.8,0.7s0.8,1.1,0.8,1.8v13.9c0,1.4-1.1,2.6-2.6,2.6L92.3,101.2L92.3,101.2z M171.2,81.3L171.2,81.3L92.4,84
				c-0.7,0.1-1.3,0.7-1.3,1.4v13.4c0,0.4,0.1,0.7,0.4,1c0.2,0.2,0.5,0.3,0.8,0.3l78.8-2c0.8,0,1.4-0.7,1.4-1.5v-14
				c0-0.4-0.1-0.7-0.4-1C171.9,81.4,171.6,81.3,171.2,81.3z"/>
			<path class="st0" d="M92.3,124c-0.6,0-1.2-0.2-1.7-0.7s-0.7-1.1-0.7-1.8v-13.4c0-1.4,1.1-2.5,2.4-2.6l78.8-1.8
				c0.7,0,1.3,0.2,1.8,0.7s0.8,1.1,0.8,1.8v13.9c0,1.4-1.2,2.6-2.6,2.6L92.3,124L92.3,124z M92.3,122.8L92.3,122.8l78.8-1.1
				c0.8,0,1.4-0.7,1.4-1.4v-13.9c0-0.4-0.1-0.7-0.4-1c-0.3-0.2-0.6-0.4-1-0.4l-78.8,1.8c-0.7,0-1.3,0.7-1.3,1.4v13.4
				c0,0.4,0.1,0.7,0.4,1C91.7,122.7,92,122.8,92.3,122.8L92.3,122.8z"/>
			<polygon class="st3" points="130.1,89.9 164.1,88.8 164.1,86.1 130.1,87.2 			"/>
			<polygon class="st3" points="141.1,94.3 164.1,93.7 164.1,91 141.1,91.6 			"/>
			<polygon class="st3" points="132.8,94.6 138.4,94.4 138.4,91.7 132.8,91.9 			"/>
			<polygon class="st3" points="130.1,44.1 164.1,42.2 164.1,39.5 130.1,41.4 			"/>
			<polygon class="st3" points="143.7,48.1 164.1,47.1 164.1,44.4 143.7,45.4 			"/>
			<polygon class="st3" points="120,49.3 141.1,48.3 141.1,45.6 120,46.7 			"/>
			<polygon class="st3" points="150.4,112.7 164.1,112.4 164.1,109.7 150.4,109.9 			"/>
			<polygon class="st3" points="134.3,113 147.9,112.7 147.9,110 134.3,110.3 			"/>
			<polygon class="st3" points="141.1,117.6 164.1,117.3 164.1,114.5 141.1,114.9 			"/>
			<polygon class="st3" points="116.3,118 138.4,117.7 138.4,115 116.3,115.4 			"/>
			<path class="st0" d="M96.3,52.6l79.1-3.1c1.1-0.1,2-1,2-2.1v-14c0-1-0.8-1.9-1.9-1.9h-0.1l-79.1,3.8c-1,0.1-1.9,1-1.9,2v13.5
				C94.4,51.7,95.2,52.5,96.3,52.6L96.3,52.6z"/>
			<g class="st4">
				<polygon class="st0" points="139.1,38.2 173.1,36.7 173.1,34.7 139.1,36.2 				"/>
				<polygon class="st0" points="139.1,41.8 173.1,40.3 173.1,38.3 139.1,39.8 				"/>
				<polygon class="st0" points="157.9,44.6 173.1,43.9 173.1,41.9 157.9,42.6 				"/>
			</g>
			<polygon class="st0" points="110.3,46.6 119.2,46.3 119.2,37.1 110.3,37.5 			"/>
			<polygon class="st2" points="100.2,47.1 108.9,46.7 108.9,37.6 100.2,38 			"/>
			
				<linearGradient id="SVGID_1_" gradientUnits="userSpaceOnUse" x1="62.088" y1="652.5298" x2="52.458" y2="696.8798" gradientTransform="matrix(1 0 0 1 0 -650.56)">
				<stop  offset="0" style="stop-color:#2C27CE"/>
				<stop  offset="1" style="stop-color:#EF1D68"/>
			</linearGradient>
			<path class="st5" d="M50.6,17.3c-4.1,3-6.1,8.1-5.3,13.1c0.7,4.6,0.4,9.4-1,13.9c-1,3.2-4.5,13.7,7.9,13.4S65.4,43,63.9,35.5
				s1.2-12.7-0.7-14.9S57.1,12.6,50.6,17.3z"/>
			<path class="st6" d="M97.5,44.4c2.3-1.8,4.6-3.8,5.1-1.7s0.5,1.9-1.2,3.4S95.5,45.9,97.5,44.4z"/>
			
				<linearGradient id="SVGID_2_" gradientUnits="userSpaceOnUse" x1="69.5077" y1="697.4426" x2="93.7677" y2="699.8226" gradientTransform="matrix(1 0 0 1 0 -650.56)">
				<stop  offset="0" style="stop-color:#36078B"/>
				<stop  offset="1" style="stop-color:#16B1FF"/>
			</linearGradient>
			<path class="st7" d="M97.5,44c-1.6,0.7-12.5,2.9-17,4.3h-0.1c-2.2-0.6-8.3-3.6-16.5-7.2c-2.4-0.8-5-0.6-7.3,0.4
				c-1.5,0.7-2,3.2,0.7,4.6c2.8,1.5,5.8,2.8,8.8,3.8c7.5,2.7,11.4,3.5,13.5,3.7c0.5,0.1,0.9,0.1,1.4,0c4.2-0.8,8.2-2.4,11.9-4.5
				c3.9-2,5.4-1.4,6-2.6C99.5,45.5,98.7,43.5,97.5,44z"/>
			
				<linearGradient id="SVGID_3_" gradientUnits="userSpaceOnUse" x1="46.1727" y1="823.6362" x2="46.7727" y2="805.9161" gradientTransform="matrix(1 0 0 1 0 -650.56)">
				<stop  offset="0" style="stop-color:#2C27CE"/>
				<stop  offset="0.65" style="stop-color:#EF1D68"/>
				<stop  offset="1" style="stop-color:#EFBA92"/>
			</linearGradient>
			<path class="st8" d="M47.6,171.2c0.2,0.7,0.3,1.5,0.3,2.2c0.1,0.9,1,1.2,1.4,2s1.3,2.1-1.9,2.2c-3.4,0.1-5.5-0.2-4.9-2.1
				c0.4-1.1,0.6-2.3,0.7-3.4c-0.1-0.6,0-1.2,0.4-1.7C44,170,47.1,169.3,47.6,171.2z"/>
			<path class="st9" d="M53.9,32.5c0,0.3-0.4,5.7-0.5,9.9c0,2.1,1.4,4,2.9,4h0.1c1.4,0,3.2-1.8,3-3.8c-0.2-3.7-0.1-7.4-0.1-7.4
				L53.9,32.5z"/>
			
				<linearGradient id="SVGID_4_" gradientUnits="userSpaceOnUse" x1="54.5534" y1="692.5115" x2="63.8334" y2="733.8915" gradientTransform="matrix(1 0 0 1 0 -650.56)">
				<stop  offset="0" style="stop-color:#36078B"/>
				<stop  offset="1" style="stop-color:#16B1FF"/>
			</linearGradient>
			<path class="st10" d="M49.7,56.1c1.2,3.7,2.1,7.6,2.6,11.5c0.4,2.9,0.4,5.8,0,8.6c-0.2,1.7-0.6,3.4-1,5.1
				c-0.2,0.6-1.4,5.8-1.5,6.4h23.6C73.2,83,68,68.5,71.5,59.1c2.5-6.5-0.8-6.7-3-12.1c-0.4-1.4-1.1-2.7-1.9-3.9
				c-0.9-1.1-2.2-1.9-3.6-2.2c-0.7-0.2-1.5-0.3-2.2-0.3c-4-0.3-13.4-1.5-14.3,4.2c-0.2,1.5,0,3.1,0.5,4.6c0.5,1.7,1.3,3.2,2,4.8
				C49.2,54.7,49.5,55.4,49.7,56.1z"/>
			
				<linearGradient id="SVGID_5_" gradientUnits="userSpaceOnUse" x1="61.9224" y1="766.0593" x2="63.1924" y2="879.5692" gradientTransform="matrix(1 0 0 1 0 -650.56)">
				<stop  offset="0" style="stop-color:#F70F47"/>
				<stop  offset="1" style="stop-color:#9E005D"/>
			</linearGradient>
			<path class="st11" d="M50,102.6c0,0-2-5.1-0.1-15h23.6c0.5,5,0.8,10,0.9,15H50z"/>
			
				<linearGradient id="SVGID_6_" gradientUnits="userSpaceOnUse" x1="48.6237" y1="766.2098" x2="49.8937" y2="879.7198" gradientTransform="matrix(1 0 0 1 0 -650.56)">
				<stop  offset="0" style="stop-color:#F70F47"/>
				<stop  offset="1" style="stop-color:#9E005D"/>
			</linearGradient>
			<path class="st12" d="M54.6,134.7c1.9-8-6-9.4-8.4-3.6c-3.5,8.2-3.2,34.3-3,39.4c0,0.7,0.4,0.6,0.8,0.4c0.8-0.3,1.6-0.5,2.5-0.5
				c0.6,0.2,1,0.5,1.3,1.1C48.5,164.5,52.8,142.4,54.6,134.7z"/>
			
				<linearGradient id="SVGID_7_" gradientUnits="userSpaceOnUse" x1="53.8589" y1="766.1506" x2="55.1289" y2="879.6606" gradientTransform="matrix(1 0 0 1 0 -650.56)">
				<stop  offset="0" style="stop-color:#F70F47"/>
				<stop  offset="1" style="stop-color:#9E005D"/>
			</linearGradient>
			<path class="st13" d="M61.6,103.7c0.8-9.9-3-17.6-8.9-14.3c-2.5,1.4-3.4,4.1-3.7,6.7s-2.2,29.6-2.8,34.4c-1.4,11,6.9,8,7.8,5
				C56.3,127.8,61.2,109.1,61.6,103.7z"/>
			
				<linearGradient id="SVGID_8_" gradientUnits="userSpaceOnUse" x1="70.7216" y1="765.9603" x2="71.9916" y2="879.4703" gradientTransform="matrix(1 0 0 1 0 -650.56)">
				<stop  offset="0" style="stop-color:#F70F47"/>
				<stop  offset="1" style="stop-color:#9E005D"/>
			</linearGradient>
			<path class="st14" d="M75.6,134.2c0.3-7.4-6.7-7.3-8.4-1.2c-2.8,9.5,2,30,2.3,41.6c1.2-2,2.4-2.5,2.9-2.5c0.5,0.1,1,0.3,1.4,0.8
				C73.6,157.5,75.3,142.1,75.6,134.2z"/>
			
				<linearGradient id="SVGID_9_" gradientUnits="userSpaceOnUse" x1="68.3366" y1="765.9901" x2="69.6066" y2="879.5001" gradientTransform="matrix(1 0 0 1 0 -650.56)">
				<stop  offset="0" style="stop-color:#F70F47"/>
				<stop  offset="1" style="stop-color:#9E005D"/>
			</linearGradient>
			<path class="st15" d="M67.5,135c0.9,3,8.9,6.6,8.1-4.5c-0.4-4.9-1.4-32-1.6-34.6s-0.6-6.4-1.9-6.9c-6.3-2.4-12.4,5.4-10.8,15.2
				C62.5,110.7,65.6,128.7,67.5,135z"/>
			<path class="st6" d="M101.1,42c1-0.9,2.3-1.5,3.6-1.8c1-0.1-1.2,1.1-2,1.8S100.1,42.7,101.1,42z"/>
			<path class="st6" d="M50.8,76.4c2.9-0.6,4.3-1.6,5.7-0.8s-0.6,3.3-1.6,3.7s-4.4,2.2-5.4,1.2c-0.9-1.1-0.7-2.7,0.4-3.6
				C50.1,76.7,50.5,76.5,50.8,76.4z"/>
			
				<linearGradient id="SVGID_10_" gradientUnits="userSpaceOnUse" x1="47.3843" y1="696.9534" x2="42.6243" y2="726.6834" gradientTransform="matrix(1 0 0 1 0 -650.56)">
				<stop  offset="0" style="stop-color:#36078B"/>
				<stop  offset="1" style="stop-color:#16B1FF"/>
			</linearGradient>
			<path class="st16" d="M41.1,63.9c1.6-2.6,5.3-7.3,9.8-13.6c1.2-2.2,1.6-4.8,1.1-7.3c-0.4-1.6-2.8-2.6-4.7-0.3
				c-2,2.5-3.9,5.1-5.5,7.8c-4.9,7.8-6.2,11.6-6.7,13.3c-0.1,0.7,0.2,1.4,0.8,1.8C36,65.9,36,66,36.1,66c2.4,3.5,5.4,6.6,8.9,9.1
				c3.4,2.8,3.4,4.4,4.8,4.5c1.1,0.1,2.7-1.4,1.7-2.3C50.3,76.2,44.3,67.6,41.1,63.9z"/>
			<path class="st6" d="M50.3,29.3c1.2,4.5,1.5,5.5,3.8,7.1c2.2,1.4,4.9,2,7.5,1.6c2.4-0.4,3.7-3.2,3.9-5.2c0.3-4-0.2-8-1.4-11.9
				c-0.8-2.5-4.4-5.1-7.7-4.6C53.1,16.8,47.4,18.3,50.3,29.3z"/>
			
				<linearGradient id="SVGID_11_" gradientUnits="userSpaceOnUse" x1="75.6426" y1="824.6243" x2="76.2326" y2="806.9142" gradientTransform="matrix(1 0 0 1 0 -650.56)">
				<stop  offset="0" style="stop-color:#2C27CE"/>
				<stop  offset="0.65" style="stop-color:#EF1D68"/>
				<stop  offset="1" style="stop-color:#EFBA92"/>
			</linearGradient>
			<path class="st17" d="M74.1,172.8c0.9,1.1,2,2,3.4,2.5c1.8,0.8,5.6,1.2,3.5,1.9c-1.9,0.5-3.9,0.5-5.8,0.1
				c-1.3-0.2-2.6-0.3-3.9-0.2c-1.9,0-1.9-0.1-1.7-2.3C69.8,171.8,73.2,171.1,74.1,172.8z"/>
			
				<linearGradient id="SVGID_12_" gradientUnits="userSpaceOnUse" x1="-207.233" y1="1556.2653" x2="-216.863" y2="1600.6152" gradientTransform="matrix(0.9873 -0.159 0.159 0.9873 13.6948 -1568.0037)">
				<stop  offset="0" style="stop-color:#2C27CE"/>
				<stop  offset="1" style="stop-color:#EF1D68"/>
			</linearGradient>
			<path class="st18" d="M63,18.7c2.3,2.8-9.9,10.5-12.9,10.5s-3.2-5.7-1.4-8.9S57.6,12.1,63,18.7z"/>
			
				<linearGradient id="SVGID_13_" gradientUnits="userSpaceOnUse" x1="-201.5619" y1="1557.4955" x2="-211.1919" y2="1601.8456" gradientTransform="matrix(0.9873 -0.159 0.159 0.9873 13.6948 -1568.0037)">
				<stop  offset="0" style="stop-color:#2C27CE"/>
				<stop  offset="1" style="stop-color:#EF1D68"/>
			</linearGradient>
			<path class="st19" d="M58,18.7c0.9,2.5,5.5,2.4,6.7,4.4c0.7,1.3,0.2-3-1.1-4.7S56.2,13.6,58,18.7z"/>
			<ellipse transform="matrix(0.9257 -0.3782 0.3782 0.9257 -7.2515 21.4498)" class="st6" cx="51" cy="29.2" rx="1.7" ry="3.2"/>
		</g>
	</g>
</g>
</svg>
