<?xml version="1.0" encoding="utf-8"?>
<!-- Generator: Adobe Illustrator 21.0.0, SVG Export Plug-In . SVG Version: 6.00 Build 0)  -->
<svg version="1.1" id="Слой_1" xmlns="http://www.w3.org/2000/svg" xmlns:xlink="http://www.w3.org/1999/xlink" x="0px" y="0px"
	 viewBox="0 0 216.6 214.6" style="enable-background:new 0 0 216.6 214.6;" xml:space="preserve">
<style type="text/css">
	.st0{fill:none;stroke:#0037FF;stroke-linecap:round;stroke-linejoin:round;}
	.st1{opacity:0.3;fill:none;stroke:#0037FF;stroke-linecap:round;stroke-linejoin:round;enable-background:new    ;}
	.st2{opacity:0.1;fill:none;stroke:#0037FF;stroke-linecap:round;stroke-linejoin:round;enable-background:new    ;}
	.st3{fill:#FFAF84;}
	.st4{fill:url(#SVGID_1_);}
	.st5{fill:url(#SVGID_2_);}
	.st6{fill:url(#SVGID_3_);}
	.st7{fill:url(#SVGID_4_);}
	.st8{fill:url(#SVGID_5_);}
	.st9{fill:url(#SVGID_6_);}
	.st10{fill:url(#SVGID_7_);}
	.st11{fill:url(#SVGID_8_);}
	.st12{fill:url(#SVGID_9_);}
	.st13{fill:url(#SVGID_10_);}
	.st14{fill:url(#SVGID_11_);}
	.st15{fill:url(#SVGID_12_);}
</style>
<title>box3</title>
<g>
	<g id="Слой_2">
		<g id="Designed_by_Freepik">
			<path class="st0" d="M211.8,60.2l4.2,29.2c0.3,1.8-1,3.4-2.7,3.7l0,0l-29.2,4.2c-0.3,0.1-0.7,0.1-1,0l0,0
				c-1.4-0.2-2.5-1.3-2.7-2.7l-4.2-29.2c-0.3-1.8,1-3.4,2.7-3.7h0.1l29.2-4.2C209.9,57.2,211.5,58.4,211.8,60.2z"/>
			<path class="st1" d="M194,59.5l-0.4,36.3l-9.5,1.4c-0.3,0.1-0.7,0.1-1,0l0.4-36.2L194,59.5z"/>
			<polygon class="st1" points="201.2,58.4 200.8,94.8 195.7,95.5 196.1,59.2 			"/>
			<path class="st0" d="M204.2,68.7c-2.7-2.3-6.8-1.9-9,0.9c-0.1,0.1-0.1,0.2-0.2,0.2c-2.8-2.1-6.9-1.5-9,1.3
				c-0.1,0.1-0.1,0.2-0.2,0.2c-1.9,2.9-1.2,6.8,1.6,8.8l8.1,6.1c1.1,0.8,2.7,0.6,3.5-0.5l0,0l6.1-8.1
				C207.3,74.8,206.9,70.9,204.2,68.7z"/>
			<path class="st0" d="M91.8,167.6c-0.5,0.7-1.1,1.4-1.8,1.9l-6.6,4.7c-3.4-4.7-6.5-9.7-9.2-14.9c-1.5-2.9-2.8-6-3.7-9.1
				c-0.1-0.2-0.1-0.3-0.1-0.4l15.1-3.6c1.1,3.2,2.5,6.2,4.2,9.1c0.7,1.2,1.4,2.6,2.3,4C93.6,161.9,93.5,165.1,91.8,167.6z"/>
			<path class="st0" d="M91.2,194L78,203.4c-12.5-17.5-19.2-30.9-22.6-39.3c-1.3-3.1-2.5-6.3-3.3-9.6l4.8-1.1l12.2-2.9l1.4-0.3
				l11.8-2.8v-0.1c1,3.1,2.2,6.1,3.6,9.1c1.4,3.1,3.4,6.9,5.9,11.4c1,1.8,2.2,3.8,3.5,5.9C99.6,180.3,97.8,189.3,91.2,194z"/>
			<path class="st0" d="M159.1,160l-46.6-7.2c-5.6-0.9-11.2-0.6-16.7,0.8l-6.2,1.6l-3.8,1l-11.7,3l-1.7,0.4l-12.1,3.1l-5,1.3
				l-3.6,0.9c-11.8,3.1-23.8-4-26.8-15.7c0,0,0,0,0-0.1l-7.4-28.6l-2.2-8.4c-3.1-11.8,4-23.8,15.7-26.8c0,0,0,0,0.1,0l8.6-2.2
				l12.1-3.2l23.3-6c5.4-1.4,10.6-3.9,15-7.4l37.2-28.9c3.3-2.6,8.1-2,10.7,1.4c0.6,0.8,1.1,1.8,1.4,2.8l2.4,9.3l15.2,58.2
				l10.7,41.2c1.1,4.1-1.4,8.2-5.5,9.3C161.2,160.1,160.1,160.2,159.1,160z"/>
			<path class="st0" d="M136.5,48L136.5,48c2.3-0.6,4.7,0.8,5.3,3.1l0,0l23.4,90.2c0.6,2.3-0.8,4.7-3.1,5.3l0,0l0,0
				c-2.3,0.6-4.7-0.8-5.3-3.1l0,0l-23.4-90.2C132.8,51,134.2,48.6,136.5,48L136.5,48z"/>
			<path class="st0" d="M72.5,159.7l-12.1,3.1c-9.8-25.7-16.8-52.4-20.7-79.7l12.1-3.2C55.6,107.3,62.5,134.1,72.5,159.7z"/>
			<path class="st0" d="M125.7,10.9l-2.8,20c-0.2,1.2-1.3,2.1-2.5,1.9l0,0l-20-2.8c-0.2,0-0.4-0.1-0.6-0.2l0,0
				c-0.9-0.4-1.4-1.4-1.2-2.3l2.8-20c0.2-1.2,1.3-2,2.5-1.9l20,2.8C125.1,8.6,125.9,9.7,125.7,10.9z"/>
			<path class="st2" d="M114.1,7.1l-7.2,23.8l-6.5-0.9c-0.2,0-0.4-0.1-0.6-0.2L106.9,6L114.1,7.1z"/>
			<polygon class="st2" points="119.1,7.8 111.9,31.6 108.4,31.1 115.6,7.3 			"/>
			<path class="st0" d="M112.5,11.9c-0.7-0.4-1.5-0.3-2,0.3c-0.9,1.5-1.9,2.8-3.1,4.1l-1.4-0.2c-0.1,0-0.2,0.1-0.2,0.2l0,0l-1,7.2
				c0,0.1,0.1,0.2,0.2,0.2l0,0l1,0.1c0.5,1.2,1.6,2.1,2.9,2.3l0.6,0.1l3.9,0.6l0.9,0.1c0.8,0.1,1.5-0.4,1.7-1.2
				c0.1-0.4,0-0.8-0.3-1.1l0.6,0.1c0.8,0.1,1.5-0.4,1.7-1.2c0.1-0.4-0.1-0.9-0.4-1.2c0.8-0.2,1.3-0.9,1.2-1.7
				c-0.1-0.6-0.6-1.1-1.2-1.2l0,0c0.7-0.5,0.8-1.4,0.3-2c-0.2-0.3-0.6-0.5-1-0.6l-5.5-0.8C112.2,14.6,113.6,12.7,112.5,11.9z"/>
			<path class="st0" d="M94.5,35.7l-64.3-2c-1.6-0.1-2.8,1.2-2.9,2.7l0,0l-0.6,18.8c-0.1,1.6,1.2,2.8,2.7,2.9l0,0l6.3,0.2l3.1,0.1
				c0.5,0.7,1.9,2.6,2.4,3.2c0.5,0.6,1.4,0.6,2,0.1l0,0c0.6-0.6,2.1-2.4,2.6-3.1l15.6,0.5l32.2,1c1.6,0.1,2.8-1.2,2.9-2.7l0,0
				l0.6-18.8C97.2,37.1,96,35.8,94.5,35.7z"/>
			<path class="st0" d="M41.8,46.9c0.7-0.6,1.1-1.4,1.1-2.3v-1.5c0.1-1.7-1.2-3.2-2.9-3.3s-3.2,1.2-3.3,2.9v0.1v1.7
				c0,0.9,0.3,1.7,1,2.3c-2.1,0.6-3.8,2.3-4.4,4.4c-0.2,0.7,0.2,1.4,0.9,1.6c0.1,0,0.2,0,0.3,0l10,0.3c0.7,0,1.4-0.6,1.4-1.3
				c0-0.1,0-0.2,0-0.3C45.4,49.5,43.9,47.7,41.8,46.9z"/>
			<path class="st0" d="M68.6,40.7l-12.8-0.4c-1-0.1-1.9,0.7-2,1.8l0,0l-0.2,6.3c-0.1,1,0.7,1.9,1.8,2l0,0h1.3c0,0,1.6,2.2,2.2,2.9
				c0.4,0.5,1.1,0.5,1.6,0.1c0,0,0,0,0.1-0.1c0.6-0.7,2.3-2.8,2.3-2.8l5.4,0.2c1,0.1,1.9-0.7,2-1.8l0,0l0.2-6.3
				C70.4,41.6,69.6,40.7,68.6,40.7L68.6,40.7z"/>
			<path class="st0" d="M67.3,43.7l-10.4-0.3c-0.3,0-0.6-0.2-0.6-0.6s0.2-0.6,0.6-0.6l0,0l10.4,0.3c0.3,0,0.6,0.2,0.6,0.6
				S67.6,43.7,67.3,43.7L67.3,43.7z"/>
			<path class="st0" d="M67.2,46.4l-10.4-0.3c-0.3,0-0.6-0.3-0.6-0.6s0.3-0.6,0.6-0.6l10.4,0.3c0.3,0,0.6,0.3,0.6,0.6
				C67.7,46.2,67.5,46.4,67.2,46.4z"/>
			<path class="st0" d="M61.4,49l-4.7-0.1c-0.3,0-0.6-0.2-0.6-0.6s0.2-0.6,0.6-0.6l0,0l4.7,0.1c0.3,0,0.6,0.2,0.6,0.6
				S61.7,49,61.4,49L61.4,49z"/>
			<path class="st0" d="M91.4,52.1c0-1.2-0.3-2.5-1-3.5v-1.4c0.1-2.3-1.5-4.2-3.7-4.7v-0.4c0-0.5-0.3-0.8-0.8-0.8s-0.8,0.3-0.8,0.8
				v0.4c-2.2,0.3-3.9,2.2-4,4.5v1.3l0,0c-0.8,1-1.2,2.2-1.2,3.4v0.6c0,0.3,0.2,0.5,0.5,0.6l0,0l2.3,0.1c0,0.2,0,0.4,0.2,0.5
				c1.6,1.3,3.8,1.3,5.5,0.2c0.2-0.1,0.2-0.3,0.2-0.5l2.3,0.1c0.3,0,0.5-0.2,0.6-0.5l0,0L91.4,52.1z"/>
			
				<ellipse transform="matrix(3.071387e-02 -0.9995 0.9995 3.071387e-02 24.4993 129.4691)" class="st0" cx="79" cy="52.1" rx="2.4" ry="2.5"/>
			<path class="st0" d="M212.6,128.6l-17.2-6.3c-1.4-0.5-3,0.2-3.5,1.6l-4.1,11.2c-0.5,1.4,0.2,3,1.6,3.5l0,0l1.7,0.6
				c0,0,1.2,3.7,1.6,4.9c0.3,0.8,1.3,1.2,2.1,0.9c0,0,0.1,0,0.1-0.1c1.1-0.6,4.4-2.7,4.4-2.7l7.2,2.6c1.4,0.5,3-0.2,3.5-1.6
				l4.1-11.2C214.7,130.7,214,129.1,212.6,128.6L212.6,128.6z"/>
			<path class="st0" d="M209,133.3l-14-5.1c-0.5-0.2-0.7-0.7-0.6-1.1c0.2-0.5,0.7-0.7,1.1-0.6c0,0,0,0,0.1,0l13.9,5.1
				c0.5,0.2,0.7,0.7,0.6,1.1C210,133.2,209.5,133.5,209,133.3L209,133.3L209,133.3z"/>
			<path class="st0" d="M207.5,137.2l-13.9-5.1c-0.5-0.2-0.7-0.7-0.5-1.1c0.2-0.4,0.7-0.7,1.1-0.5l13.9,5.1c0.5,0.2,0.7,0.7,0.5,1.1
				C208.5,137.2,208,137.4,207.5,137.2z"/>
			<path class="st0" d="M198.4,138.3l-6.3-2.4c-0.5-0.2-0.7-0.7-0.5-1.1c0.2-0.4,0.7-0.7,1.1-0.5l6.3,2.3c0.5,0.2,0.7,0.7,0.5,1.1
				C199.4,138.2,198.9,138.5,198.4,138.3L198.4,138.3z"/>
			<path class="st0" d="M204.1,21.2l6.9,9.2l-18.8-2.7l9.2-6.9C202.3,20.2,203.5,20.4,204.1,21.2z"/>
			<path class="st0" d="M211,30.4l-1.3,8.8c-0.1,0.5-0.5,0.8-1,0.8l-17-2.4c-0.5-0.1-0.8-0.5-0.8-1l1.3-8.8c0.1-0.5,0.5-0.8,1-0.8
				l17,2.4C210.7,29.5,211.1,30,211,30.4z"/>
			<path class="st0" d="M210.8,29.7l-2.1,1.3l-5.9,3.4c-1.3,0.7-2.8,0.5-3.8-0.5l-4.7-5l-1.7-1.8c0.2-0.1,0.4-0.2,0.6-0.1l17,2.4
				C210.4,29.5,210.6,29.6,210.8,29.7z"/>
			<path class="st0" d="M209.5,25.2l-0.8,5.8l-5.9,3.4c-1.3,0.7-2.8,0.5-3.8-0.5l-4.7-5l0.8-5.8c0.1-0.9,1-1.5,1.9-1.4l11.1,1.6
				C209,23.4,209.6,24.3,209.5,25.2z"/>
			<path class="st0" d="M206.5,26.6l-9-1.3c-0.3-0.1-0.5-0.4-0.4-0.7c0.1-0.2,0.3-0.4,0.5-0.4l9,1.3c0.3,0.1,0.5,0.4,0.4,0.7
				C207,26.4,206.8,26.6,206.5,26.6z"/>
			<path class="st0" d="M206.2,29.1l-9-1.3c-0.3-0.1-0.5-0.4-0.4-0.7c0.1-0.2,0.3-0.4,0.5-0.4l9,1.3c0.3,0.1,0.5,0.4,0.4,0.7
				C206.6,28.9,206.4,29.1,206.2,29.1z"/>
			<path class="st0" d="M200.9,30.9l-4-0.6c-0.3,0-0.5-0.2-0.5-0.5s0.2-0.5,0.5-0.5h0.1l4,0.6c0.3,0.1,0.5,0.4,0.4,0.7
				C201.3,30.8,201.1,30.9,200.9,30.9z"/>
			<path class="st0" d="M33.2,175.5l10,2.2L29,186.8l2.1-10C31.3,175.9,32.2,175.3,33.2,175.5z"/>
			<path class="st0" d="M43.1,177.7l4.3,6.7c0.2,0.4,0.1,0.9-0.2,1.1l0,0l-12.8,8.2c-0.4,0.2-0.9,0.1-1.1-0.2l0,0l-4.3-6.7
				c-0.2-0.4-0.1-0.9,0.2-1.1l0,0l12.8-8.2C42.4,177.3,42.9,177.4,43.1,177.7L43.1,177.7L43.1,177.7z"/>
			<path class="st0" d="M42.6,177.4l-0.7,2.1l-1.9,5.7c-0.4,1.2-1.6,2-2.9,1.8l-6-0.6l-2.2-0.2c0.1-0.2,0.2-0.4,0.3-0.5l12.8-8.2
				C42.2,177.4,42.4,177.3,42.6,177.4z"/>
			<path class="st0" d="M39,175l2.8,4.4l-1.9,5.7c-0.4,1.2-1.6,2-2.9,1.9l-6-0.6l-2.8-4.4c-0.4-0.7-0.2-1.6,0.4-2l8.4-5.4
				C37.7,174.2,38.5,174.4,39,175z"/>
			<path class="st0" d="M37.9,177.7l-6.8,4.3c-0.2,0.1-0.5,0-0.6-0.2s0-0.4,0.1-0.6l6.8-4.4c0.2-0.2,0.5-0.2,0.7,0s0.2,0.5,0,0.7
				C38,177.6,37.9,177.6,37.9,177.7L37.9,177.7z"/>
			<path class="st0" d="M39.1,179.6l-6.8,4.4c-0.2,0.2-0.5,0.2-0.7,0s-0.2-0.5,0-0.7l0.1-0.1l6.8-4.4c0.2-0.1,0.5,0,0.6,0.2
				C39.3,179.3,39.3,179.5,39.1,179.6L39.1,179.6z"/>
			<path class="st0" d="M36.6,183.9l-3.1,2c-0.2,0.1-0.5,0-0.6-0.2s0-0.4,0.1-0.6l3.1-2c0.2-0.2,0.5-0.2,0.7,0s0.2,0.5,0,0.7
				C36.7,183.9,36.6,183.9,36.6,183.9z"/>
			<path class="st0" d="M26.5,147l-3.9,2.6l1.2-5.8c0.2-1.2-0.5-2.3-1.7-2.5l0,0L6.3,138c-1.2-0.2-2.3,0.5-2.5,1.7l0,0l-3.2,15.8
				c-0.2,1.2,0.5,2.3,1.7,2.5l0,0l15.8,3.2c1.2,0.2,2.3-0.5,2.5-1.7l0,0l1.2-5.8l2.5,3.9c0.4,0.6,1.2,0.8,1.8,0.4
				c0.3-0.2,0.5-0.5,0.6-0.8l1.8-9c0.1-0.7-0.4-1.4-1-1.5C27.1,146.8,26.8,146.8,26.5,147z"/>
			<polygon class="st0" points="11.4,144.6 9.5,154 15.1,150.3 			"/>
			
				<rect x="133.6" y="25.8" transform="matrix(0.6112 -0.7915 0.7915 0.6112 31.4144 118.3247)" class="st0" width="5.1" height="2.8"/>
			<path class="st0" d="M124.4,42.1L124.4,42.1c1.1,0.8,2.6,0.6,3.5-0.5c0,0,0-0.1,0.1-0.1l8.9-12.6l-2.9-2.2l-10,11.9
				C123.1,39.6,123.3,41.2,124.4,42.1L124.4,42.1z"/>
			<path class="st1" d="M133,16.5c0.9,6.8,7.2,11.7,14,10.8c2.8-0.4,5.4-1.7,7.4-3.8c0.7-0.7,1.3-1.5,1.8-2.3
				c0.3-0.5,0.6-1.1,0.8-1.6c0.7-1.7,1-3.5,0.9-5.3c0-0.3,0-0.6-0.1-1c-0.9-6.8-7.2-11.7-14-10.8c-0.3,0-0.7,0.1-1,0.2
				c-1.8,0.4-3.5,1.1-4.9,2.2c-0.5,0.4-0.9,0.8-1.4,1.2c-0.7,0.7-1.3,1.5-1.8,2.3C133.2,10.8,132.6,13.7,133,16.5z"/>
			<path class="st2" d="M137.8,4.9l19.1,14.7c0.7-1.7,1-3.5,0.9-5.3l-15-11.6C141,3.1,139.3,3.8,137.8,4.9z"/>
			<path class="st2" d="M134.7,8.4l19.7,15.2c0.7-0.7,1.3-1.5,1.8-2.3L136.5,6.1C135.8,6.8,135.2,7.6,134.7,8.4z"/>
			<path class="st0" d="M147.2,29.2c-7.9,1-15.1-4.5-16.2-12.4c-0.5-3.8,0.5-7.6,2.9-10.7l0,0c4.8-6.3,13.9-7.5,20.2-2.7
				s7.5,13.9,2.7,20.2C154.5,26.7,151,28.7,147.2,29.2L147.2,29.2z M144,4.4c-2.8,0.4-5.3,1.8-7,4l0,0c-3.6,4.6-2.8,11.3,1.9,14.9
				c4.6,3.6,11.3,2.8,14.9-1.9c3.6-4.6,2.8-11.3-1.9-14.9C149.6,4.8,146.8,4.1,144,4.4z"/>
			<path class="st3" d="M134.6,38.6c-0.5-1.3-3.5-10-5.2-8.3c-3.2,3.3-2.3,5.1-1.8,6.5c0.9,2.6,3.4,4.1,5.1,3.9
				C133.8,40.5,135,39.8,134.6,38.6z"/>
			<path class="st3" d="M134.8,37.8c0-0.6,0.3-4.9-0.4-5c-1.1-0.2-1.7,2.5-1.9,4.1c-0.1,0.9,0.8,2.5,1.5,2.5S134.7,38.8,134.8,37.8z
				"/>
			
				<linearGradient id="SVGID_1_" gradientUnits="userSpaceOnUse" x1="82.7177" y1="1016.1342" x2="133.1678" y2="1005.1241" gradientTransform="matrix(1 -6.000000e-02 6.000000e-02 1 26.61 -922.81)">
				<stop  offset="0" style="stop-color:#F70F47"/>
				<stop  offset="1" style="stop-color:#9E005D"/>
			</linearGradient>
			<path class="st4" d="M194.4,94.3c-0.8-7.2-1.3-8.9-3.3-13.1l0,0c0-0.1,0-0.1-0.1-0.2c-0.9-1.4-3.4-4.2-10.9-9.3
				c-2.6-1.8-5.4-3.4-8.3-4.8c-2.7-1.3-5.3,0.5-5.4,2.1c-0.2,2.6,1.3,6.2,2.6,7c7.9,4.4,14.2,7.4,15.9,8.8c0.3,0.2,0.6,0.4,1,0.5
				c0,0.3,0,0.5,0.1,0.8c0.6,3.4,5.5,14.7,5.9,16.7c0.3,1.4,1.9,1.8,2.6,0.2C195.3,101.1,194.9,99.3,194.4,94.3z"/>
			
				<linearGradient id="SVGID_2_" gradientUnits="userSpaceOnUse" x1="26.6366" y1="1103.4385" x2="38.8666" y2="1103.4385" gradientTransform="matrix(1 -6.000000e-02 6.000000e-02 1 26.61 -922.81)">
				<stop  offset="0" style="stop-color:#F70F47"/>
				<stop  offset="1" style="stop-color:#FFB41D"/>
			</linearGradient>
			<path class="st5" d="M123.9,176.1c-0.4,1.5-1.1,2.9-2.2,4c-1.4,1.6-5,3.7-2.6,3.4c2.1-0.4,4.1-1.3,5.9-2.6
				c1.2-0.8,2.5-1.5,3.8-2.1c1.9-0.9,1.9-1,0.6-3C127.7,173.1,124,174.1,123.9,176.1z"/>
			
				<linearGradient id="SVGID_3_" gradientUnits="userSpaceOnUse" x1="77.1466" y1="1135.6813" x2="84.7366" y2="1135.6813" gradientTransform="matrix(1 -6.000000e-02 6.000000e-02 1 26.61 -922.81)">
				<stop  offset="0" style="stop-color:#F70F47"/>
				<stop  offset="1" style="stop-color:#FFB41D"/>
			</linearGradient>
			<path class="st6" d="M171.5,205.4c0.5,1.5,0.6,3,0.4,4.5c-0.3,2.1-2.2,5.9-0.3,4.3c1.5-1.5,2.7-3.4,3.4-5.4
				c0.6-1.3,1.2-2.6,2-3.8c1.1-1.8,1-1.9-1.1-2.9C173,200.9,170.5,203.7,171.5,205.4z"/>
			<path class="st3" d="M170.7,55.6c-0.6,4.3-0.8,5.2-2.8,6.9c-2,1.7-4.9,1.8-6.9,1.7c-2.2-0.1-3.5-2.8-3.9-4.7
				c-0.6-3.3-0.6-6.8,0.1-10.1c0.4-2.4,3.5-5.1,6.5-5S172.3,45.2,170.7,55.6z"/>
			<path class="st3" d="M168.1,63c0,1.5,0.1,3.2,0,4.8c0,2.1-1.7,3.8-3.8,4h-0.2c-1.9-0.1-4-1.9-3.7-3.7c0.2-1.2,0.3-2.4,0.3-3.5
				c0.1-2,1.5-3.8,3.4-4.4l0,0c1.6-0.5,3.3,0.3,3.8,1.9C168.1,62.4,168.1,62.7,168.1,63z"/>
			
				<linearGradient id="SVGID_4_" gradientUnits="userSpaceOnUse" x1="58.9274" y1="1067.0444" x2="85.0574" y2="969.6645" gradientTransform="matrix(1 -6.000000e-02 6.000000e-02 1 26.61 -922.81)">
				<stop  offset="0" style="stop-color:#F70F47"/>
				<stop  offset="1" style="stop-color:#9E005D"/>
			</linearGradient>
			<path class="st7" d="M175.8,81.8c-4,11.2-5.7,22.9-5.4,30.8l-25.9-1.3c0,0,1.4-24.3,3.7-37.5c0.6-3.3,2.8-6,5.9-7.4
				c2.2-0.8,4.6-1.2,7-1.2l4.8,0.2c1.7,0.1,3.4,0.4,5,0.9C177.8,69,178.1,75.4,175.8,81.8z"/>
			
				<linearGradient id="SVGID_5_" gradientUnits="userSpaceOnUse" x1="331.3774" y1="520.632" x2="331.3774" y2="408.882" gradientTransform="matrix(0.9988 4.902409e-02 -4.902409e-02 0.9988 -154.2608 -296.9991)">
				<stop  offset="0" style="stop-color:#000061"/>
				<stop  offset="1" style="stop-color:#0065FF"/>
			</linearGradient>
			<path class="st8" d="M169.5,128.5c0,0,2.5-5.3,0.9-15.9l-25.9-1.3c-0.9,5.2-1.4,10.5-1.7,15.8L169.5,128.5z"/>
			
				<linearGradient id="SVGID_6_" gradientUnits="userSpaceOnUse" x1="-45.419" y1="1889.4478" x2="-45.419" y2="1777.6978" gradientTransform="matrix(0.9839 -0.1786 0.1786 0.9839 -116.1334 -1626.0403)">
				<stop  offset="0" style="stop-color:#000061"/>
				<stop  offset="1" style="stop-color:#0065FF"/>
			</linearGradient>
			<path class="st9" d="M156.7,165.9c-3.6-7.9,4.7-11,8.4-5.4c5.3,7.8,10,35.1,10.8,40.6c0.1,0.7,0.4,1.6,0.1,1.9
				c-0.8,0.5-1.7,0.8-2.6,0.9c-1,0.1-1.9,0.3-2.2-0.8C169.1,195.2,160.1,173.6,156.7,165.9z"/>
			
				<linearGradient id="SVGID_7_" gradientUnits="userSpaceOnUse" x1="415.5531" y1="-619.7229" x2="415.5531" y2="-731.4729" gradientTransform="matrix(0.9729 0.2312 -0.2312 0.9729 -409.2792 744.6347)">
				<stop  offset="0" style="stop-color:#000061"/>
				<stop  offset="1" style="stop-color:#0065FF"/>
			</linearGradient>
			<path class="st10" d="M155.5,128.4c1.5-10.4,7.5-17.4,13-12.5c2.3,2.1,2.6,5.1,2.4,7.9s-4.9,31-5.4,36.2
				c-1.1,11.7-9.4,6.5-9.6,3.1C155.3,154.6,154.7,134.1,155.5,128.4z"/>
			
				<linearGradient id="SVGID_8_" gradientUnits="userSpaceOnUse" x1="121.328" y1="1370.7108" x2="121.328" y2="1260.1309" gradientTransform="matrix(0.9996 -2.722377e-02 2.722377e-02 0.9996 -30.1962 -1156.0287)">
				<stop  offset="0" style="stop-color:#000061"/>
				<stop  offset="1" style="stop-color:#0065FF"/>
			</linearGradient>
			<path class="st11" d="M129.3,175.7c0-12.4,4.4-33.5,1.1-43.5c-2.1-6.4-9.8-6.3-9.2,1.6c0.6,8.4,3.6,24.7,3.2,41
				C124.3,176.3,129.3,177.2,129.3,175.7z"/>
			
				<linearGradient id="SVGID_9_" gradientUnits="userSpaceOnUse" x1="-2814.3584" y1="-6267.5781" x2="-2814.3584" y2="-6357.7783" gradientTransform="matrix(0.4736 0.8807 -0.8807 0.4736 -4116.7168 5612.1001)">
				<stop  offset="0" style="stop-color:#000061"/>
				<stop  offset="1" style="stop-color:#0065FF"/>
			</linearGradient>
			<path class="st12" d="M127,138.2c-3.3,0.6-11.2-7.3-0.5-12c4.8-2.1,21.2-10.3,23.7-11.4s6.3-2.6,7.4-1.6
				c5.5,4.9,1.4,14.7-8.6,18.1C142.4,133.4,133.9,136.9,127,138.2z"/>
			
				<ellipse transform="matrix(0.9432 -0.3322 0.3322 0.9432 -9.2411 55.1255)" class="st3" cx="156.6" cy="54.6" rx="1.5" ry="2.9"/>
			
				<ellipse transform="matrix(0.4231 -0.9061 0.9061 0.4231 48.3299 186.4942)" class="st3" cx="170.6" cy="55.3" rx="2.9" ry="1.5"/>
			
				<linearGradient id="SVGID_10_" gradientUnits="userSpaceOnUse" x1="352.8422" y1="361.4494" x2="329.1922" y2="319.6194" gradientTransform="matrix(0.9988 4.902409e-02 -4.902409e-02 0.9988 -154.2608 -296.9991)">
				<stop  offset="0" style="stop-color:#2C27CE"/>
				<stop  offset="0.65" style="stop-color:#EF1D68"/>
				<stop  offset="1" style="stop-color:#EFBA92"/>
			</linearGradient>
			<path class="st13" d="M169.8,47.1c-1.8,2.4-9.9,2.3-12.5,1.2s-2.2-6.1,1.7-6.3c2.1,0.1,0.6,0.5,2.3,1.3
				C162.1,43.7,171.7,44.5,169.8,47.1z"/>
			
				<linearGradient id="SVGID_11_" gradientUnits="userSpaceOnUse" x1="40.5413" y1="967.4579" x2="88.1713" y2="1011.7579" gradientTransform="matrix(1 -6.000000e-02 6.000000e-02 1 26.61 -922.81)">
				<stop  offset="0" style="stop-color:#F70F47"/>
				<stop  offset="1" style="stop-color:#9E005D"/>
			</linearGradient>
			<path class="st14" d="M156.1,66.3c-6.7-6-12.3-10.2-13.7-12c-0.1-0.1-0.1-0.1-0.2-0.2c0-0.2-0.1-0.4-0.1-0.6
				c-1-3.3-7.6-13.7-8.8-15.4c-0.6-0.7-1.7-0.8-2.3-0.1c-0.3,0.3-0.5,0.6-0.5,1c-0.5,2,0.3,2.2,1.6,7.4c0.9,3.5,2.1,7,3.6,10.3
				c0,0,0,0,0,0.1c0.3,0.9,0.8,1.7,1.3,2.5l0,0c2.2,3.2,4.6,6.2,7.4,8.9c2.2,2.4,4.6,4.5,7.1,6.5c2.4,1.9,5.3,0.6,5.8-0.9
				C158,71.3,157.3,67.4,156.1,66.3z"/>
			<path class="st3" d="M195.7,105c0-1.4-0.8-4.8-2.2-4.4c-2.5,0.9-2.9,2.2-2.9,3.7c-0.1,2.7,1.5,2.7,3.1,3.1
				C194.8,107.7,195.7,106.3,195.7,105z"/>
			
				<linearGradient id="SVGID_12_" gradientUnits="userSpaceOnUse" x1="352.0483" y1="361.9059" x2="328.3983" y2="320.0759" gradientTransform="matrix(0.9988 4.902409e-02 -4.902409e-02 0.9988 -154.2608 -296.9991)">
				<stop  offset="0" style="stop-color:#2C27CE"/>
				<stop  offset="0.65" style="stop-color:#EF1D68"/>
				<stop  offset="1" style="stop-color:#EFBA92"/>
			</linearGradient>
			<path class="st15" d="M160.7,46.2c-2.6,1.4-3.2,2.7-3.3,5.8s1,8.4,6.6,9.8s7.2-4.1,7.8-8s0.4-6.8-2.4-7.6
				C165.2,45,162.3,45.4,160.7,46.2z"/>
		</g>
	</g>
</g>
</svg>
