<?xml version="1.0" encoding="utf-8"?>
<!-- Generator: Adobe Illustrator 21.0.0, SVG Export Plug-In . SVG Version: 6.00 Build 0)  -->
<svg version="1.1" id="Слой_1" xmlns="http://www.w3.org/2000/svg" xmlns:xlink="http://www.w3.org/1999/xlink" x="0px" y="0px"
	 viewBox="0 0 180 180" style="enable-background:new 0 0 180 180;" xml:space="preserve">
<style type="text/css">
	.st0{fill:none;stroke:#0037FF;stroke-linecap:round;stroke-linejoin:round;}
	.st1{fill:url(#SVGID_1_);}
	.st2{fill:url(#SVGID_2_);}
	.st3{fill:url(#SVGID_3_);}
	.st4{fill:#EA8F68;}
	.st5{fill:url(#SVGID_4_);}
	.st6{fill:url(#SVGID_5_);}
	.st7{fill:url(#SVGID_6_);}
	.st8{fill:url(#SVGID_7_);}
	.st9{fill:url(#SVGID_8_);}
	.st10{fill:url(#SVGID_9_);}
	.st11{fill:#FFAF84;}
	.st12{fill:url(#SVGID_10_);}
	.st13{fill:url(#SVGID_11_);}
	.st14{fill:url(#SVGID_12_);}
	.st15{fill:url(#SVGID_13_);}
	.st16{fill:url(#SVGID_14_);}
	.st17{fill:url(#SVGID_15_);}
	.st18{fill:url(#SVGID_16_);}
	.st19{fill:url(#SVGID_17_);}
	.st20{fill:#4E11F4;}
	.st21{fill:url(#SVGID_18_);}
	.st22{fill:url(#SVGID_19_);}
	.st23{fill:url(#SVGID_20_);}
	.st24{fill:#F70F47;}
	.st25{fill:url(#SVGID_21_);}
	.st26{fill:url(#SVGID_22_);}
</style>
<title>box4</title>
<g>
	<g id="Слой_2">
		<g id="Objects">
			<path class="st0" d="M52.2,56.4h31.1c1.1,0,2,0.9,2,2v22.3c0,1.1-0.9,2-2,2H52.2c-1.1,0-2-0.9-2-2V58.4
				C50.2,57.3,51.1,56.4,52.2,56.4z"/>
			<path class="st0" d="M83.3,56.4H52.2c-1.1,0-2,0.9-2,2v5h35v-5C85.2,57.4,84.4,56.5,83.3,56.4z"/>
			<circle class="st0" cx="81.7" cy="59.9" r="0.6"/>
			<circle class="st0" cx="79.3" cy="59.9" r="0.6"/>
			<circle class="st0" cx="76.8" cy="59.9" r="0.6"/>
			<path class="st0" d="M71.7,69.9c0.1,0,0.2-0.1,0.2-0.2s-0.1-0.2-0.2-0.2H53c-0.1,0-0.2,0.1-0.2,0.2s0.1,0.2,0.2,0.2H71.7z"/>
			<path class="st0" d="M71.7,72.2c0.1,0,0.2-0.1,0.2-0.2s-0.1-0.2-0.2-0.2H53c-0.1,0-0.2,0.1-0.2,0.2s0.1,0.2,0.2,0.2H71.7z"/>
			<path class="st0" d="M71.7,74.5c0.1,0,0.2-0.1,0.2-0.2s-0.1-0.2-0.2-0.2H53c-0.1,0-0.2,0.1-0.2,0.2s0.1,0.2,0.2,0.2H71.7z"/>
			<path class="st0" d="M71.7,76.8c0.1,0,0.2-0.1,0.2-0.2s-0.1-0.2-0.2-0.2H59.1c-0.1,0-0.2,0.1-0.2,0.2s0.1,0.2,0.2,0.2H71.7z"/>
			<path class="st0" d="M71.7,67.6c0.1,0,0.2-0.1,0.2-0.2s-0.1-0.2-0.2-0.2H53c-0.1,0-0.2,0.1-0.2,0.2s0.1,0.2,0.2,0.2H71.7z"/>
			<path class="st0" d="M74.3,66H82c0.4,0,0.8,0.3,0.8,0.8v5.7c0,0.4-0.3,0.8-0.8,0.8h-7.8c-0.4,0-0.8-0.3-0.8-0.8v-5.7
				C73.5,66.4,73.9,66,74.3,66z"/>
			<path class="st0" d="M74.2,74.6h8c0.3,0,0.6,0.3,0.6,0.6v2c0,0.3-0.3,0.6-0.6,0.6h-8c-0.3,0-0.6-0.3-0.6-0.6v-2
				C73.5,74.9,73.8,74.6,74.2,74.6z"/>
			
				<linearGradient id="SVGID_1_" gradientUnits="userSpaceOnUse" x1="50.982" y1="734.994" x2="14.092" y2="708.384" gradientTransform="matrix(1 0 0 1 0 -662)">
				<stop  offset="0" style="stop-color:#2C27CE"/>
				<stop  offset="0.65" style="stop-color:#EF1D68"/>
				<stop  offset="1" style="stop-color:#EFBA92"/>
			</linearGradient>
			<path class="st1" d="M28.1,43.5c1.3-1.9-0.2-5.2-4-5.5c-4.3-0.3-11.9,2.1-7.8,12.1c4.3,10.4,2.9,13.1,0.1,14.6
				c0,0,9.8,0.8,9.1-7.8S25,47.9,28.1,43.5z"/>
			
				<linearGradient id="SVGID_2_" gradientUnits="userSpaceOnUse" x1="-3418.5837" y1="4347.9077" x2="-3429.9836" y2="4376.3179" gradientTransform="matrix(0.61 -0.79 0.79 0.61 -1319.5299 -5298.8003)">
				<stop  offset="0" style="stop-color:#F70F47"/>
				<stop  offset="1" style="stop-color:#9E005D"/>
			</linearGradient>
			<path class="st2" d="M47.8,76.1c-1.5-0.3-4.7-1.2-11.5-4.8c-2.4-1.2-4.7-2.6-6.9-4.2c-2-1.4-1.4-3.5,0-3.9c2-0.6,4.2-0.4,6.1,0.5
				c6.4,4,11.1,7.1,12.8,7.9C50.9,72.7,49.5,76.4,47.8,76.1z"/>
			
				<linearGradient id="SVGID_3_" gradientUnits="userSpaceOnUse" x1="-1621.5492" y1="3292.1199" x2="-1634.3192" y2="3323.9399" gradientTransform="matrix(0.85 -0.52 0.52 0.85 -287.59 -3609.9402)">
				<stop  offset="0" style="stop-color:#F70F47"/>
				<stop  offset="1" style="stop-color:#9E005D"/>
			</linearGradient>
			<path class="st3" d="M58.8,63c0.1,1.1-1.2,1.3-3,4.3c-1.6,3-3.7,5.7-6.3,8.1c-1.8,1.8-5-0.1-3.3-2.6c1.4-2.1,9.7-9.7,10.5-11
				C57.4,61,58.8,62.1,58.8,63z"/>
			<path class="st4" d="M26.6,56c0,0.2-0.4,4.8-0.4,8.3c0,1.7,1.2,3.3,2.4,3.4l0,0c1.6-0.2,2.7-1.6,2.5-3.2c-0.2-3,0-6.2,0-6.2
				L26.6,56z"/>
			
				<linearGradient id="SVGID_4_" gradientUnits="userSpaceOnUse" x1="30.5636" y1="731.9068" x2="34.7836" y2="768.0967" gradientTransform="matrix(1 0 0 1 0 -662)">
				<stop  offset="0" style="stop-color:#F70F47"/>
				<stop  offset="1" style="stop-color:#9E005D"/>
			</linearGradient>
			<path class="st5" d="M23.1,75.7c1,3.1,1.7,6.3,2.2,9.6c0.4,2.4,0.4,4.8,0,7.2c-0.2,1.4-0.5,2.9-0.8,4.3c-0.1,0.5-1.2,4.8-1.2,5.3
				H43c-0.2-3.9-4.6-16-1.6-23.8c2.1-5.4-0.7-5.6-2.5-10.1c-0.4-1.2-0.9-2.3-1.6-3.3c-0.8-0.9-1.8-1.6-3-1.8
				c-0.6-0.1-1.2-0.2-1.8-0.3c-3.3-0.3-11.2-1.2-11.9,3.5c-0.2,1.3,0,2.6,0.4,3.8c0.4,1.4,1.1,2.7,1.6,4
				C22.7,74.6,22.9,75.2,23.1,75.7z"/>
			
				<linearGradient id="SVGID_5_" gradientUnits="userSpaceOnUse" x1="37.9627" y1="757.0743" x2="21.2627" y2="805.6644" gradientTransform="matrix(1 0 0 1 0 -662)">
				<stop  offset="0" style="stop-color:#36078B"/>
				<stop  offset="1" style="stop-color:#168D68"/>
			</linearGradient>
			<path class="st6" d="M23.3,114.6c0,0-1.7-4.3-0.1-12.5h19.7c0.5,4.2,0.7,8.3,0.7,12.5H23.3z"/>
			
				<linearGradient id="SVGID_6_" gradientUnits="userSpaceOnUse" x1="234.6008" y1="-101.113" x2="217.5408" y2="-51.4531" gradientTransform="matrix(0.99 0.15 -0.15 0.99 -198.87 163.55)">
				<stop  offset="0" style="stop-color:#36078B"/>
				<stop  offset="1" style="stop-color:#16B1FF"/>
			</linearGradient>
			<path class="st7" d="M26.8,142.2c2.6-6.3-3.7-8.5-6.5-4.1c-3.9,6.3-5.6,29.5-6.2,33.8c-0.1,0.6,0.2,0.5,0.6,0.4
				c1-0.2,0.6-1.1,2-1c0.7,0,1,1.1,1,1.1C19.1,166.7,24.3,148.3,26.8,142.2z"/>
			
				<linearGradient id="SVGID_7_" gradientUnits="userSpaceOnUse" x1="35.2518" y1="756.1472" x2="18.5618" y2="804.7272" gradientTransform="matrix(1 0 0 1 0 -662)">
				<stop  offset="0" style="stop-color:#36078B"/>
				<stop  offset="1" style="stop-color:#16B1FF"/>
			</linearGradient>
			<path class="st8" d="M33,115.5c0.7-8.3-2.5-14.7-7.4-12c-2.1,1.2-2.8,3.4-3.1,5.6s-1.8,24.7-2.4,28.7c-1.1,9.2,5.8,6.7,6.6,4.2
				C28.6,135.6,32.7,120,33,115.5z"/>
			
				<linearGradient id="SVGID_8_" gradientUnits="userSpaceOnUse" x1="59.0348" y1="764.3082" x2="42.3348" y2="812.8983" gradientTransform="matrix(1 0 0 1 0 -662)">
				<stop  offset="0" style="stop-color:#36078B"/>
				<stop  offset="1" style="stop-color:#16B1FF"/>
			</linearGradient>
			<path class="st9" d="M44.7,140.9c0.3-6.2-5.6-6.1-7-1c-2.3,7.9,1.7,25,1.9,34.8c1-1.7,2-2.1,2.4-2.1s0.9,0.3,1.1,0.6
				C43,160.4,44.4,147.5,44.7,140.9z"/>
			
				<linearGradient id="SVGID_9_" gradientUnits="userSpaceOnUse" x1="47.9238" y1="760.4938" x2="31.2238" y2="809.0838" gradientTransform="matrix(1 0 0 1 0 -662)">
				<stop  offset="0" style="stop-color:#36078B"/>
				<stop  offset="1" style="stop-color:#16B1FF"/>
			</linearGradient>
			<path class="st10" d="M37.9,141.6c0.8,2.5,7.4,5.5,6.7-3.8c-0.3-4.1-1.1-26.7-1.3-28.9s-0.5-5.4-1.6-5.8c-5.3-2-10.4,4.5-9,12.7
				C33.7,121.3,36.3,136.3,37.9,141.6z"/>
			<path class="st11" d="M24.2,52.7c0.4,3.9,0.5,4.8,2.2,6.3s3.8,2.3,6,2.3c2,0,3.5-2.1,3.9-3.8c0.7-3.3,0.9-6.7,0.5-10
				c-0.6-2.7-3-4.6-5.7-4.8C28.3,42.9,23.3,43.2,24.2,52.7z"/>
			
				<linearGradient id="SVGID_10_" gradientUnits="userSpaceOnUse" x1="43.1586" y1="855.5832" x2="45.0486" y2="832.3332" gradientTransform="matrix(1 0 0 1 0 -662)">
				<stop  offset="0" style="stop-color:#2C27CE"/>
				<stop  offset="0.65" style="stop-color:#EF1D68"/>
				<stop  offset="1" style="stop-color:#EFBA92"/>
			</linearGradient>
			<path class="st12" d="M43.4,173.2c0.7,0.9,1.7,1.7,2.8,2.1c1.5,0.7,4.7,1,2.9,1.6c-1.6,0.4-3.2,0.4-4.8,0.1
				c-1.1-0.2-2.2-0.2-3.3-0.2c-1.6,0-1.6-0.1-1.4-1.9C39.9,172.3,42.7,171.8,43.4,173.2z"/>
			
				<linearGradient id="SVGID_11_" gradientUnits="userSpaceOnUse" x1="16.4949" y1="859.9045" x2="18.8749" y2="830.5945" gradientTransform="matrix(1 0 0 1 0 -662)">
				<stop  offset="0" style="stop-color:#2C27CE"/>
				<stop  offset="0.65" style="stop-color:#EF1D68"/>
				<stop  offset="1" style="stop-color:#EFBA92"/>
			</linearGradient>
			<path class="st13" d="M17.5,172.1c0.2,0.4,0.5,2.6,2,3.2s4.6,1,2.9,1.6c-1.6,0.4-3.2,0.4-4.8,0.1c-1-0.2-1.2-1.3-2.4-1.3
				c-1.6,0-1.6-0.1-1.4-1.9C14,171.2,16.8,170.7,17.5,172.1z"/>
			
				<linearGradient id="SVGID_12_" gradientUnits="userSpaceOnUse" x1="46.4962" y1="729.9946" x2="25.5662" y2="706.1146" gradientTransform="matrix(1 0 0 1 0 -662)">
				<stop  offset="0" style="stop-color:#2C27CE"/>
				<stop  offset="0.65" style="stop-color:#EF1D68"/>
				<stop  offset="1" style="stop-color:#EFBA92"/>
			</linearGradient>
			<path class="st14" d="M36.1,45.6c1.5,2.6-9.5,7.4-12,7s-2.4-5.6-0.5-8S32.5,39.5,36.1,45.6z"/>
			
				<linearGradient id="SVGID_13_" gradientUnits="userSpaceOnUse" x1="50.8173" y1="726.2148" x2="29.8873" y2="702.3249" gradientTransform="matrix(1 0 0 1 0 -662)">
				<stop  offset="0" style="stop-color:#2C27CE"/>
				<stop  offset="0.65" style="stop-color:#EF1D68"/>
				<stop  offset="1" style="stop-color:#EFBA92"/>
			</linearGradient>
			<path class="st15" d="M32,45c0.4,2.2,4.3,2.7,4.9,4.5c0.4,1.1,0.6-2.4-0.3-4.1S31.2,40.6,32,45z"/>
			<ellipse transform="matrix(0.9258 -0.378 0.378 0.9258 -18.3596 13.0636)" class="st11" cx="24.1" cy="53.3" rx="1.4" ry="2.6"/>
			<path class="st11" d="M27,97.8c1,0.5,2,1.2,2.7,2.1c0.4,0.7-1.2-0.1-2-0.4S26.1,97.4,27,97.8z"/>
			<path class="st11" d="M27.5,99c1.4,2,2.4,2.9,2.5,4s-2,0.4-2.6-0.2s-2.8-2.8-2.7-3.8S26.5,97.5,27.5,99z"/>
			
				<linearGradient id="SVGID_14_" gradientUnits="userSpaceOnUse" x1="-1982.4193" y1="1100.9832" x2="-1994.9794" y2="1132.3032" gradientTransform="matrix(0.8986 -0.4388 0.4388 0.8986 1318.1973 -1797.2505)">
				<stop  offset="0" style="stop-color:#F70F47"/>
				<stop  offset="1" style="stop-color:#9E005D"/>
			</linearGradient>
			<path class="st16" d="M16.3,85.2c-0.1-1.5,0-4.8,2-12.3c0.6-2.6,1.4-5.2,2.4-7.6c0.9-2.3,3-2.1,3.8-1c1.1,1.8,1.4,4,1,6.1
				c-2.3,7.1-4.3,12.4-4.6,14.3C20.4,87.5,16.5,87,16.3,85.2z"/>
			
				<linearGradient id="SVGID_15_" gradientUnits="userSpaceOnUse" x1="1795.6395" y1="-629.2903" x2="1789.2996" y2="-613.5003" gradientTransform="matrix(0.879 0.4769 -0.4769 0.879 -1845.4536 -221.1534)">
				<stop  offset="0" style="stop-color:#F70F47"/>
				<stop  offset="1" style="stop-color:#9E005D"/>
			</linearGradient>
			<path class="st17" d="M25.5,99.4c-1.1-0.3-0.8-1.7-3.1-4.5c-2.4-2.7-4.3-5.7-5.7-9c-1.1-2.3,1.9-4.8,3.7-2.3
				c1.5,2.2,6,12.9,6.9,14.2C27.9,98.7,26.4,99.7,25.5,99.4z"/>
			<path class="st11" d="M60.4,63.6c0.7-0.2,1.3-0.6,1.8-1.1c0.2-0.3-0.5-0.9-1.6-1.1s-3.7-0.1-3.9,0.3s0.2,1,0.9,1.6
				C58.4,63.9,59.5,64,60.4,63.6z"/>
			<path class="st0" d="M82,17h42.4c1.5,0,2.7,1.2,2.7,2.7v30.5c0,1.5-1.2,2.7-2.7,2.7H82c-1.5,0-2.7-1.2-2.7-2.7V19.7
				C79.3,18.2,80.5,17,82,17z"/>
			<path class="st0" d="M124.4,17H82c-1.5,0-2.7,1.2-2.7,2.7l0,0v6.9h47.9v-6.9C127.2,18.2,125.9,17,124.4,17z"/>
			<circle class="st0" cx="122.3" cy="21.8" r="0.8"/>
			<circle class="st0" cx="119" cy="21.8" r="0.8"/>
			<circle class="st0" cx="115.6" cy="21.8" r="0.8"/>
			<path class="st0" d="M108.7,35.4c0.1,0,0.3-0.1,0.3-0.3s-0.1-0.3-0.3-0.3H83c-0.1,0-0.3,0.1-0.3,0.3s0.1,0.3,0.3,0.3H108.7z"/>
			<path class="st0" d="M108.7,38.5c0.1,0,0.3-0.1,0.3-0.3s-0.1-0.3-0.3-0.3H83c-0.1,0-0.3,0.1-0.3,0.3s0.1,0.3,0.3,0.3H108.7z"/>
			<path class="st0" d="M108.7,41.6c0.1,0,0.3-0.1,0.3-0.3s-0.1-0.3-0.3-0.3H83c-0.1,0-0.3,0.1-0.3,0.3s0.1,0.3,0.3,0.3H108.7z"/>
			<path class="st0" d="M108.7,44.8c0.1,0,0.3-0.1,0.3-0.3s-0.1-0.3-0.3-0.3H91.5c-0.1,0-0.3,0.1-0.3,0.3s0.1,0.3,0.3,0.3H108.7z"/>
			<path class="st0" d="M108.7,32.3c0.1,0,0.3-0.1,0.3-0.3c0-0.1-0.1-0.3-0.3-0.3H83c-0.1,0-0.3,0.1-0.3,0.3c0,0.1,0.1,0.3,0.3,0.3
				H108.7z"/>
			<path class="st0" d="M112.2,30.1h10.6c0.6,0,1,0.5,1,1v7.7c0,0.6-0.5,1-1,1h-10.6c-0.6,0-1-0.5-1-1v-7.7
				C111.2,30.6,111.6,30.1,112.2,30.1z"/>
			<path class="st0" d="M112,41.8h10.9c0.5,0,0.9,0.4,0.9,0.9v2.7c0,0.5-0.4,0.9-0.9,0.9H112c-0.5,0-0.9-0.4-0.9-0.9v-2.7
				C111.2,42.2,111.5,41.8,112,41.8z"/>
			<g id="_Группа_">
				<g id="_Группа_2">
					<circle class="st0" cx="114.6" cy="126.5" r="8.2"/>
				</g>
				<g id="_Группа_3">
					<g id="_Группа_4">
						<path class="st0" d="M116.5,130.3c-0.7,0.3-1.4,0.5-2.2,0.4c-2,0.1-3.7-1.5-3.7-3.5c0-0.1,0-0.1,0-0.2
							c-0.1-2.4,1.8-4.5,4.3-4.5c0.1,0,0.1,0,0.2,0c1.9-0.1,3.5,1.3,3.6,3.2c0,0.1,0,0.2,0,0.3c0,1.7-1,2.8-2.3,2.8
							c-0.5,0-1-0.3-1-0.9c0,0,0,0,0-0.1l0,0c-0.3,0.6-0.9,0.9-1.5,0.9c-0.8,0-1.4-0.6-1.3-1.4c0-0.1,0-0.1,0-0.2
							c0-1.5,1.2-2.7,2.7-2.8h0.1c0.5,0,1,0.1,1.4,0.3l-0.4,2.2c-0.1,0.7,0,1,0.3,1c0.5,0,1.2-0.6,1.2-2c0.1-1.4-1-2.7-2.5-2.8
							c-0.1,0-0.2,0-0.4,0c-1.9,0-3.5,1.6-3.4,3.5c0,0.1,0,0.1,0,0.2c-0.1,1.6,1,3,2.6,3.1c0.1,0,0.2,0,0.4,0c0.6,0,1.2-0.1,1.7-0.4
							L116.5,130.3z M115.4,125.3c-0.1,0-0.2,0-0.4,0c-0.8,0.1-1.5,0.8-1.4,1.7c0,0.4,0.2,0.7,0.6,0.7s0.9-0.6,1-1.3L115.4,125.3z"
							/>
					</g>
				</g>
			</g>
			<g id="_Группа_5">
				<g id="_Группа_6">
					
						<ellipse transform="matrix(0.9826 -0.1858 0.1858 0.9826 -10.9217 22.8581)" class="st0" cx="116.5" cy="69.7" rx="10.1" ry="10.1"/>
				</g>
				<g id="_Группа_7">
					<polygon class="st0" points="114.9,74 113.5,66.2 120.5,68.9 					"/>
				</g>
			</g>
			<path class="st0" d="M142.1,2.8h-12.4c-1.4,0-2.5,1.1-2.5,2.5l0,0V14c0,1.4,1.1,2.5,2.5,2.5l0,0h4.3l1.9,2.6l1.8-2.6h4.4
				c1.4,0,2.5-1.1,2.5-2.5V5.3C144.6,4,143.5,2.8,142.1,2.8z"/>
			<path class="st0" d="M131.5,7.9h1.8c0.2,0,0.4,0.2,0.4,0.4v4.2c0,0.2-0.2,0.4-0.4,0.4h-1.8c-0.2,0-0.4-0.2-0.4-0.4V8.3
				C131.1,8.1,131.3,7.9,131.5,7.9z"/>
			<path class="st0" d="M134.6,8.6c0-0.3,0.1-0.5,0.3-0.7c0.4-0.3,1.2-0.7,1.5-2.7c0.2-1.1,1.4-0.3,1.5,0.8c0.1,0.9,0,1.7,0,1.7h1.9
				c0.5,0,0.9,0.4,0.9,0.9l0,0v3.6c0,0.5-0.4,0.9-0.9,0.9l0,0H136c-0.2,0-0.3-0.1-0.5-0.1l-0.6-0.4c-0.2-0.2-0.4-0.4-0.4-0.7
				L134.6,8.6z"/>
			
				<ellipse transform="matrix(6.982627e-02 -0.9976 0.9976 6.982627e-02 -49.2233 152.3268)" class="st0" cx="57.1" cy="102.6" rx="6.4" ry="6.4"/>
			<polygon class="st0" points="56.9,98.1 57.9,100.7 60.7,101.3 58.5,103.1 58.8,105.9 56.5,104.5 53.9,105.6 54.5,102.9 
				52.7,100.8 55.5,100.6 			"/>
			<path class="st0" d="M128,87.2c-1.5-1.2-3.7-1-4.9,0.4l-0.1,0.1c-1.5-1.1-3.7-0.8-4.9,0.7l-0.1,0.1c-1,1.6-0.6,3.7,0.9,4.8
				l4.4,3.3c0.6,0.4,1.4,0.3,1.9-0.3l3.3-4.4C129.6,90.5,129.4,88.4,128,87.2z"/>
			
				<linearGradient id="SVGID_16_" gradientUnits="userSpaceOnUse" x1="152.5977" y1="716.1122" x2="167.9777" y2="732.2922" gradientTransform="matrix(1 0 0 1 0 -662)">
				<stop  offset="0" style="stop-color:#36078B"/>
				<stop  offset="1" style="stop-color:#16B1FF"/>
			</linearGradient>
			<path class="st18" d="M147.3,61.4c1.7,0.5,3,0,7.1-0.8c5.8-1.3,7.1-1.9,10.3-4c2.1-1.3-1.4-5.7-4.7-4.7
				c-2.7,0.8-11.1,6.9-12.8,7.4C146.1,59.5,146,60.9,147.3,61.4z"/>
			
				<linearGradient id="SVGID_17_" gradientUnits="userSpaceOnUse" x1="161.9214" y1="707.2483" x2="177.3014" y2="723.4283" gradientTransform="matrix(1 0 0 1 0 -662)">
				<stop  offset="0" style="stop-color:#36078B"/>
				<stop  offset="1" style="stop-color:#16B1FF"/>
			</linearGradient>
			<path class="st19" d="M165.3,55.7c0.4-1.3,0.9-4.3,0-11.7c-0.3-2.6-0.7-5.2-1.4-7.8c-0.6-2.4-3.1-3-4.2-2.3
				c-1.7,1.2-3.2,4.1-3,5.4c1.4,7.3,2.9,12.8,2.9,14.6C159.7,56.5,164.8,57.2,165.3,55.7z"/>
			<path class="st20" d="M161.8,141.5c-0.1,0.6-0.2,1.3-0.3,1.9c-0.1,0.8-0.9,1.1-1.3,1.7s-1.2,1.7,1.7,1.8c3.1,0.1,4.9,0,4.4-1.7
				c-0.4-1-0.6-2-0.6-3c0.1-0.5,0-1-0.4-1.4C165,140.4,162.2,139.8,161.8,141.5z"/>
			<path class="st11" d="M124.4,46.2c-1-0.5-9.1-4.2-9.2-2.3c-0.1,2.1,2.8,4.3,3.9,4.9c1.6,1,3.7,0.9,5.2-0.3
				C125,47.8,125.4,46.7,124.4,46.2z"/>
			<path class="st11" d="M124.2,45.6c-0.3-0.4-2.2-2.9-2.7-2.5c-0.7,0.5,0.4,2.2,1.2,3.3c0.4,0.6,1.4,1.1,1.8,0.7
				S124.7,46.2,124.2,45.6z"/>
			<path class="st20" d="M137.9,142.9c-0.8,1-1.8,1.7-3,2.2c-1.6,0.7-5,1-3.1,1.6c1.7,0.4,3.5,0.4,5.2,0.1c1.2-0.2,2.3-0.2,3.5-0.2
				c1.7,0,1.8-0.1,1.5-2C141.8,141.9,138.7,141.4,137.9,142.9z"/>
			<path class="st11" d="M157.7,22.2c-0.4,3.5-0.5,4.3-2,5.7s-3.9,1.6-5.6,1.6s-3-2.2-3.4-3.7c-0.6-2.7-0.8-5.5-0.4-8.3
				c0.6-2.4,2.7-4.2,5.2-4.3C154,13.3,158.6,13.6,157.7,22.2z"/>
			
				<linearGradient id="SVGID_18_" gradientUnits="userSpaceOnUse" x1="-792.0315" y1="-4392.7876" x2="-792.0315" y2="-4357.2275" gradientTransform="matrix(0.58 0.81 -0.81 0.58 -2954.1802 3230.2)">
				<stop  offset="0" style="stop-color:#36078B"/>
				<stop  offset="1" style="stop-color:#16B1FF"/>
			</linearGradient>
			<path class="st21" d="M122.5,48.4c1.1,1.3,2,2.1,5.9,3.3c3.6,1.2,7.3,1.9,11.1,2.3c2.5,0.2,2.1-5.8-1.2-6.7
				c-2.7-0.8-13.1-0.2-14.7-0.7C122.5,46.3,121.6,47.3,122.5,48.4z"/>
			
				<linearGradient id="SVGID_19_" gradientUnits="userSpaceOnUse" x1="142.4995" y1="685.24" x2="142.4995" y2="720.81" gradientTransform="matrix(1 0 0 1 0 -662)">
				<stop  offset="0" style="stop-color:#36078B"/>
				<stop  offset="1" style="stop-color:#16B1FF"/>
			</linearGradient>
			<path class="st22" d="M139.8,52.5c1-0.9,3.1-3.2,6.3-9.9c1.2-2.3,2.2-4.8,3-7.3c0.8-2.4-1-4.2-2.3-4.2c-2.1,0.1-4.9,1.7-5.4,2.9
				c-2.7,7-4.4,12.4-5.4,14C134.6,50.2,138.5,53.5,139.8,52.5z"/>
			<path class="st11" d="M155.9,28.4c0.1,1.2,0.2,2.6,0.2,3.9c0,1.7-1.2,3.2-2.9,3.4H153c-1.5,0-3.3-1.4-3.2-2.9
				c0.1-1,0.1-2,0.1-2.9c0-1.7,1.1-3.1,2.6-3.7l0,0c1.3-0.5,2.7,0.2,3.2,1.5C155.8,27.9,155.9,28.1,155.9,28.4z"/>
			
				<linearGradient id="SVGID_20_" gradientUnits="userSpaceOnUse" x1="151.1422" y1="685.24" x2="151.1422" y2="720.81" gradientTransform="matrix(1 0 0 1 0 -662)">
				<stop  offset="0" style="stop-color:#36078B"/>
				<stop  offset="1" style="stop-color:#16B1FF"/>
			</linearGradient>
			<path class="st23" d="M163,43.4c-2.8,9.3-3.8,19-3.2,25.5h-21.3c0,0,0.1-19.9,1.5-30.9c0.4-2.7,2-5.1,4.5-6.3
				c1.8-0.8,3.7-1.2,5.7-1.3h3.9c1.4,0,2.8,0.2,4.1,0.5C164.1,32.8,164.6,38,163,43.4z"/>
			<path class="st24" d="M159.7,81.9c0,0,1.8-4.5,0.1-13h-21.3c-0.5,4.3-0.8,8.7-0.8,13H159.7z"/>
			<path class="st24" d="M155.5,109.7c-1.7-6.9,5.4-8.2,7.6-3.1c3.2,7.1,2.9,29.7,2.7,34.3c0,0.6,0.1,1.3-0.2,1.5
				c-0.7,0.3-1.5,0.4-2.3,0.4s-1.6,0-1.6-1C161.1,135.1,157.1,116.4,155.5,109.7z"/>
			<path class="st24" d="M149.1,82.8c-0.8-8.6,2.7-15.3,8-12.4c2.3,1.2,3.1,3.6,3.4,5.8s2,25.7,2.5,29.9c1.3,9.5-6.2,7-7,4.3
				C153.9,103.8,149.5,87.5,149.1,82.8z"/>
			<path class="st24" d="M142,144.4c0.3-10.1,4.6-27.9,2.1-36.2c-1.6-5.3-7.9-5.4-7.6,1.1c0.3,6.9,2.4,20.3,1.7,33.6
				C138.1,144.2,142,145.6,142,144.4z"/>
			<path class="st24" d="M143.9,110c-0.8,2.6-8,5.7-7.3-3.9c0.3-4.3,1.2-27.8,1.4-30s0.6-5.6,1.7-6c5.7-2.1,11.2,4.7,9.7,13.2
				C148.4,88.9,145.6,104.5,143.9,110z"/>
			
				<ellipse transform="matrix(0.9257 -0.3782 0.3782 0.9257 2.5679 56.8826)" class="st11" cx="146.1" cy="21.9" rx="1.3" ry="2.4"/>
			
				<ellipse transform="matrix(0.378 -0.9258 0.9258 0.378 77.7703 159.5217)" class="st11" cx="157.6" cy="21.9" rx="2.4" ry="1.3"/>
			
				<linearGradient id="SVGID_21_" gradientUnits="userSpaceOnUse" x1="141.4333" y1="669.7488" x2="171.3833" y2="692.8088" gradientTransform="matrix(1 0 0 1 0 -662)">
				<stop  offset="0" style="stop-color:#0000FF"/>
				<stop  offset="1" style="stop-color:#9E005D"/>
			</linearGradient>
			<path class="st25" d="M156.6,15.2c-1.4,2-8,2.2-10.2,1.5c-2.2-0.8-2-4.9,1.1-5.2c1.7,0,0.5,0.4,1.9,1
				C150.1,12.8,158.1,13,156.6,15.2z"/>
			
				<linearGradient id="SVGID_22_" gradientUnits="userSpaceOnUse" x1="139.683" y1="672.0219" x2="169.633" y2="695.0919" gradientTransform="matrix(1 0 0 1 0 -662)">
				<stop  offset="0" style="stop-color:#0000FF"/>
				<stop  offset="1" style="stop-color:#9E005D"/>
			</linearGradient>
			<path class="st26" d="M149.2,14.9c-2,1.2-2.5,2.3-2.5,4.8s1.1,6.8,5.8,7.8s5.7-3.6,6-6.8s0.1-5.6-2.3-6.1
				C152.8,13.7,150.4,14.1,149.2,14.9z"/>
			<path class="st0" d="M50.9,14.1l-21.3-0.5c-1.7,0-3.2,1.3-3.2,3.1L26,30.6c0,1.7,1.3,3.2,3.1,3.2l0,0h2.1c0,0,2.7,3.6,3.6,4.8
				c0.7,0.8,1.9,0.9,2.7,0.2l0.1-0.1c1-1.1,3.9-4.6,3.9-4.6l8.9,0.2c1.7,0,3.2-1.3,3.2-3.1L54,17.4C54,15.6,52.7,14.2,50.9,14.1
				L50.9,14.1z"/>
			<path class="st0" d="M48.7,20.6l-17.3-0.4c-0.6,0-1-0.4-1-1s0.4-1,1-1l17.3,0.4c0.6,0,1,0.4,1,1S49.3,20.6,48.7,20.6z"/>
			<path class="st0" d="M48.6,25.5l-17.3-0.4c-0.6,0-1-0.4-1-1s0.4-1,1-1l17.3,0.4c0.6,0,1,0.4,1,1S49.2,25.5,48.6,25.5z"/>
			<path class="st0" d="M39,30.2L31.2,30c-0.6,0-1-0.4-1-1s0.4-1,1-1l7.8,0.2c0.6,0,1,0.4,1,1S39.6,30.2,39,30.2L39,30.2z"/>
			<ellipse transform="matrix(0.9545 -0.2982 0.2982 0.9545 -1.1562 20.624)" class="st0" cx="67" cy="14.1" rx="10" ry="10"/>
			<path class="st0" d="M72,16c-0.3-0.4-0.7-0.7-1.1-1.1c-0.3-0.3-0.3-0.5-0.1-0.9s0.6-0.8,0.9-1.2s0.5-0.8,0.7-1.2
				c0.1-0.3,0-0.4-0.3-0.5h-1.9c-0.2,0-0.4,0.1-0.4,0.3c-0.1,0.3-0.2,0.5-0.3,0.8c-0.3,0.6-0.6,1.1-1,1.6c-0.1,0.1-0.2,0.2-0.4,0.2
				s-0.3-0.4-0.3-0.5v-2c0-0.3-0.1-0.4-0.4-0.5h-1.8c-0.2,0-0.4,0.1-0.5,0.2c-0.1,0.1-0.1,0.1,0.1,0.2c0.3,0,0.5,0.3,0.5,0.6
				c0.1,0.5,0.1,1,0,1.4c0,0.1,0,0.3-0.1,0.4c0,0.1-0.2,0.2-0.3,0.2c0,0-0.1,0-0.1-0.1c-0.2-0.1-0.3-0.3-0.4-0.4
				c-0.4-0.6-0.7-1.3-1-1.9c-0.1-0.2-0.2-0.3-0.4-0.3h-1.6c-0.3,0-0.4,0.2-0.3,0.4c0.5,1.3,1.2,2.5,2,3.6c0.4,0.6,0.9,1.1,1.5,1.4
				c0.7,0.4,1.5,0.6,2.3,0.5c0.4,0,0.5-0.1,0.5-0.5c0-0.3,0.1-0.5,0.2-0.7c0.1-0.2,0.3-0.3,0.4-0.2c0,0,0.1,0,0.1,0.1
				c0.1,0.1,0.2,0.2,0.3,0.3c0.2,0.2,0.4,0.5,0.6,0.7c0.3,0.3,0.6,0.4,1,0.4H72c0.3,0,0.4-0.3,0.2-0.6C72.2,16.3,72.1,16.2,72,16z"
				/>
			
				<ellipse transform="matrix(0.7716 -0.6361 0.6361 0.7716 -11.8624 46.7696)" class="st0" cx="59.2" cy="39.9" rx="11.7" ry="11.7"/>
			<path class="st0" d="M61.6,33.9L57,33.8c-2.1,0-3.8,1.6-3.8,3.7L53.1,42c0,2.1,1.6,3.8,3.7,3.8l4.6,0.1c2.1,0,3.8-1.6,3.8-3.7
				l0.1-4.5C65.3,35.6,63.7,33.9,61.6,33.9z M64.1,42.3c0,1.5-1.2,2.6-2.7,2.6l0,0l-4.5-0.1c-1.5,0-2.6-1.2-2.6-2.7l0,0l0.1-4.5
				c0-1.5,1.2-2.6,2.7-2.6l0,0l4.5,0.1c1.5,0,2.6,1.2,2.6,2.7l0,0L64.1,42.3z"/>
			<path class="st0" d="M59.3,36.9c-1.7,0-3,1.3-3,3s1.3,3,3,3c1.6,0,3-1.3,3-2.9C62.3,38.3,61,36.9,59.3,36.9L59.3,36.9z
				 M59.2,41.8c-1,0-1.9-0.9-1.9-1.9s0.9-1.9,1.9-1.9s1.9,0.9,1.9,1.9C61.1,41,60.2,41.8,59.2,41.8L59.2,41.8z"/>
			
				<ellipse transform="matrix(1.535797e-02 -0.9999 0.9999 1.535797e-02 24.8832 98.6803)" class="st0" cx="62.5" cy="36.7" rx="0.4" ry="0.4"/>
			
				<ellipse transform="matrix(0.9545 -0.2982 0.2982 0.9545 -31.3298 27.6378)" class="st0" cx="74.9" cy="116.5" rx="9.5" ry="9.5"/>
			<path class="st0" d="M75.5,114.9v-1.3c0-0.4,0.3-0.6,0.6-0.6h0.6v-1.6h-1.3c-1.1,0-1.9,0.9-1.9,1.9v1.6h-1.3v1.6h1.3v5.1h1.9
				v-5.1h1.3l0.6-1.6H75.5z"/>
			
				<ellipse transform="matrix(4.431764e-02 -0.999 0.999 4.431764e-02 3.6284 195.9886)" class="st0" cx="104.3" cy="96.1" rx="10.3" ry="10.3"/>
			<path class="st0" d="M103.9,98.6c-0.9,0-1.8-0.3-2.5-0.8c-0.1-0.1-0.2-0.1-0.3-0.2c-0.3-0.3-0.4-0.7-0.1-1.1
				c0.2-0.3,0.6-0.4,0.9-0.2l0.2,0.1c1.4,0.9,3.2,0.8,4.5-0.2c0.1-0.1,0.3-0.2,0.4-0.3c0.3-0.1,0.6,0,0.8,0.3c0.2,0.3,0.2,0.6,0,0.9
				c-0.4,0.4-0.8,0.7-1.3,0.9c-0.5,0.2-1,0.3-1.5,0.4l0.2,0.2l2.2,2c0.2,0.2,0.3,0.5,0.2,0.8c-0.1,0.3-0.4,0.5-0.8,0.5
				c-0.2,0-0.4-0.1-0.5-0.2c-0.6-0.5-1.1-1-1.6-1.5c-0.2-0.2-0.2-0.1-0.3,0c-0.5,0.6-1,1.1-1.5,1.7c-0.2,0.2-0.5,0.3-0.8,0.2
				c-0.3-0.1-0.5-0.4-0.5-0.7c0-0.2,0.1-0.4,0.2-0.5l2-2.2L103.9,98.6z"/>
			<path class="st0" d="M104.3,96.2c-1.7,0.1-3.1-1.3-3.2-2.9s1.3-3.1,2.9-3.2s3.1,1.3,3.2,2.9l0,0C107.3,94.8,106,96.2,104.3,96.2z
				 M105.7,93.1c0-0.8-0.7-1.5-1.6-1.4s-1.5,0.7-1.4,1.6c0,0.8,0.7,1.5,1.6,1.4C105.1,94.6,105.8,93.9,105.7,93.1L105.7,93.1z"/>
		</g>
	</g>
</g>
</svg>
