<?xml version="1.0" encoding="utf-8"?>
<!-- Generator: Adobe Illustrator 21.0.0, SVG Export Plug-In . SVG Version: 6.00 Build 0)  -->
<svg version="1.1" id="Слой_1" xmlns="http://www.w3.org/2000/svg" xmlns:xlink="http://www.w3.org/1999/xlink" x="0px" y="0px"
	 viewBox="0 0 180 179.7" style="enable-background:new 0 0 180 179.7;" xml:space="preserve">
<style type="text/css">
	.st0{opacity:0.8;}
	.st1{opacity:0.5;fill:none;stroke:#0037FF;stroke-linecap:round;stroke-linejoin:round;enable-background:new    ;}
	.st2{fill:none;stroke:#0037FF;stroke-linecap:round;stroke-linejoin:round;}
	.st3{opacity:0.6;}
	.st4{opacity:0.5;}
	.st5{fill:#4E11F4;}
	.st6{fill:#FFAF84;}
	.st7{fill:url(#SVGID_1_);}
	.st8{fill:url(#SVGID_2_);}
	.st9{fill:url(#SVGID_3_);}
	.st10{fill:url(#SVGID_4_);}
	.st11{fill:url(#SVGID_5_);}
	.st12{fill:url(#SVGID_6_);}
	.st13{fill:url(#SVGID_7_);}
	.st14{fill:url(#SVGID_8_);}
	.st15{fill:url(#SVGID_9_);}
	.st16{fill:url(#SVGID_10_);}
	.st17{fill:url(#SVGID_11_);}
</style>
<title>box5</title>
<g>
	<g id="Слой_2">
		<g id="Objects">
			<g class="st0">
				<polygon class="st1" points="38.9,128.3 164.8,119.1 164.8,42.2 38.9,30.3 				"/>
				<polygon class="st1" points="97.4,118 152.5,114.6 152.5,44.6 97.4,39.8 				"/>
				<path class="st2" d="M105.8,57.9l47.9,2.6c0.6,0,1.1-0.5,1.1-1.3v-9.5c0.1-0.7-0.4-1.3-1.1-1.5l-47.9-3.8
					c-0.7,0-1.3,0.6-1.3,1.3v0.1v10.5C104.5,57.1,105,57.8,105.8,57.9z"/>
				<path class="st2" d="M105.8,75.6l47.9,0.9c0.7-0.1,1.1-0.7,1.1-1.3v-9.5c0.1-0.7-0.4-1.3-1.1-1.4l-47.9-2.2
					c-0.7,0-1.3,0.7-1.3,1.4c0,0,0,0,0,0.1v10.5C104.5,74.9,105.1,75.6,105.8,75.6z"/>
				<path class="st2" d="M104.1,77.6l48.2,0.8c0.7-0.1,1.1-0.7,1.1-1.3v-9.5c0.1-0.7-0.4-1.3-1.1-1.4l-48.2-2
					c-0.7,0-1.3,0.7-1.3,1.4c0,0,0,0,0,0.1v10.5C102.8,76.9,103.4,77.6,104.1,77.6z"/>
				<path class="st2" d="M105.8,93.5l47.9-0.7c0.7-0.1,1.1-0.7,1.1-1.4v-9.5c0.1-0.7-0.4-1.3-1.1-1.4L105.8,80
					c-0.8,0.1-1.3,0.7-1.3,1.5l0,0V92C104.5,92.8,105,93.4,105.8,93.5L105.8,93.5z"/>
				<polygon class="st2" points="15.3,109.6 82.7,106.9 82.7,20.4 15.3,12.2 				"/>
				<path class="st2" d="M105.8,111.3l47.9-2.4c0.7-0.1,1.1-0.7,1.1-1.4V98c0.1-0.7-0.4-1.3-1-1.4l0,0l-47.9,1.1
					c-0.8,0.1-1.3,0.8-1.3,1.5v10.5c-0.1,0.7,0.4,1.4,1.2,1.5C105.7,111.3,105.8,111.3,105.8,111.3z"/>
				<path class="st2" d="M53,74.2c-8,3.2-17.9,1.2-24.8-6.1c-3.3-3.5-5.6-7.8-6.6-12.5l11.7-2c1.1,5.6,5.7,9.7,11.4,10.1
					c1.4,0.1,2.9-0.2,4.2-0.7L53,74.2z"/>
				<path class="st2" d="M61.3,66.2l-0.5,0.5l-7.4-8.8c2.3-2.2,3.5-5.3,3.5-8.4c0-6.5-5-12.2-11.2-12.7c-4.4-0.4-8.5,2-10.4,5.9
					l-10.7-6.3c1.2-2.3,2.7-4.4,4.6-6.1c9.2-8.6,23.6-7,32.1,3C69.6,43,69.6,57.5,61.3,66.2z"/>
				<path class="st2" d="M34,48c0,0.9,0.1,1.8,0.3,2.7l-11.7,1.9c-1.2-5.5-0.5-11.2,2-16.2l10.7,6.2C34.5,44.3,34,46.1,34,48z"/>
				<path class="st2" d="M60.8,66.7c-1.9,1.9-4.3,3.4-6.8,4.5l-4.1-11.1c1.3-0.5,2.5-1.2,3.5-2.2L60.8,66.7z"/>
				<g class="st3">
					<polygon class="st2" points="131.8,68.9 151.1,69.5 151.1,68.1 131.8,67.4 					"/>
					<polygon class="st2" points="131.8,71.5 151.1,72 151.1,70.6 131.8,70 					"/>
					<polygon class="st2" points="142.7,74.3 151.1,74.5 151.1,73.1 142.7,72.9 					"/>
				</g>
				<polygon class="st1" points="118,96.7 123.8,96.8 123.8,89.9 118,89.7 				"/>
				<polygon class="st1" points="107.9,80.9 113.8,81.1 113.8,74.1 107.9,73.9 				"/>
				<polygon class="st2" points="49.9,78.7 49.9,122.3 50.9,122.3 50.9,78.7 				"/>
				<polygon class="st2" points="91.6,106.1 91.6,119.7 92.4,119.6 92.4,106 				"/>
				<polygon class="st2" points="71.5,91.4 71.5,121 72.4,120.9 72.4,91.4 				"/>
				<path class="st2" d="M26.8,112.6c12-0.5,12-27.9,23.6-27.9c11.1,0,11.1,26.4,21.8,25.9c10.3-0.5,10.3-25.8,20.2-25.8"/>
				<polygon class="st2" points="65.7,77.6 65.7,75.3 61.5,75.3 61.5,77.5 				"/>
				<polygon class="st2" points="72.9,77.7 72.9,75.5 68.8,75.4 68.8,77.6 				"/>
				<polygon class="st2" points="79.9,77.8 79.9,75.6 75.9,75.5 75.9,77.7 				"/>
				<polygon class="st1" points="130.4,85.9 149.9,85.9 149.9,84 130.4,84 				"/>
				<polygon class="st1" points="136.9,89.4 149.9,89.3 149.9,87.4 136.9,87.4 				"/>
				<polygon class="st1" points="132,89.4 135.4,89.4 135.4,87.4 132,87.4 				"/>
				<polygon class="st1" points="130.4,52.4 149.9,53.7 149.9,51.9 130.4,50.5 				"/>
				<polygon class="st1" points="138.5,56.4 149.9,57.1 149.9,55.2 138.5,54.5 				"/>
				<polygon class="st1" points="124.1,55.5 136.9,56.3 136.9,54.4 124.1,53.5 				"/>
				<polygon class="st1" points="142.3,102.5 149.9,102.2 149.9,100.3 142.3,100.5 				"/>
				<polygon class="st1" points="133,102.8 140.9,102.5 140.9,100.6 133,100.8 				"/>
				<polygon class="st1" points="136.9,106.1 149.9,105.5 149.9,103.7 136.9,104.2 				"/>
				<polygon class="st1" points="121.8,106.7 135.4,106.2 135.4,104.2 121.8,104.7 				"/>
				<path class="st2" d="M77.2,37c-1.3-0.7-2.9-0.5-3.9,0.5c-0.5,0.5-0.9,1.2-1,1.9l1.8,0.6c0.1-0.9,0.9-1.5,1.8-1.4
					c0.2,0,0.5,0.1,0.7,0.2L77.2,37z"/>
				<path class="st2" d="M78.4,38L78.4,38l-1.3,1.2c0.4,0.4,0.6,0.9,0.6,1.5c0.1,1-0.7,1.8-1.6,1.8c-0.1,0-0.1,0-0.2,0
					c-0.7-0.1-1.3-0.6-1.6-1.2l-1.6,0.8c0.2,0.4,0.4,0.8,0.7,1.1c1.1,1.5,3.2,1.8,4.7,0.7c0.1-0.1,0.3-0.2,0.4-0.3
					C79.8,42,79.8,39.6,78.4,38z"/>
				<path class="st2" d="M74.1,40.4c0-0.1,0-0.3,0-0.4l-1.8-0.6c-0.2,0.9-0.1,1.8,0.3,2.7l1.6-0.8C74.1,41,74,40.7,74.1,40.4z"/>
				<path class="st2" d="M78.3,37.9c-0.3-0.4-0.7-0.7-1.1-0.9l-0.7,1.8c0.2,0.1,0.4,0.3,0.6,0.4L78.3,37.9z"/>
				<path class="st2" d="M72.6,66.1c0.5,1.4,1.8,2.4,3.3,2.5c0.7,0,1.4-0.2,1.9-0.6l-1-1.7c-0.7,0.5-1.7,0.3-2.3-0.3
					c-0.2-0.2-0.3-0.4-0.4-0.6L72.6,66.1z"/>
				<path class="st2" d="M72.3,64.5L72.3,64.5l1.8,0.1c0-0.5,0.2-1.1,0.5-1.5c0.6-0.7,1.7-0.7,2.4-0.1c0.1,0.1,0.1,0.1,0.2,0.2
					c0.5,0.6,0.6,1.4,0.4,2.1l1.7,0.7c0.1-0.4,0.2-0.8,0.2-1.3c0.1-2.1-1.5-3.9-3.6-4.1c-2,0-3.6,1.6-3.6,3.6
					C72.3,64.4,72.3,64.5,72.3,64.5z"/>
				<path class="st2" d="M77.1,66.1c-0.1,0.1-0.2,0.2-0.3,0.3l1,1.7c0.7-0.5,1.2-1.2,1.4-2l-1.7-0.7C77.5,65.7,77.3,65.9,77.1,66.1z
					"/>
				<path class="st2" d="M72.3,64.6c0,0.5,0.1,1,0.3,1.5l1.7-0.7c-0.1-0.2-0.1-0.5-0.2-0.7L72.3,64.6z"/>
				<path class="st2" d="M77.3,56.4c1.4-0.6,2.2-2,2.2-3.5c0-0.8-0.2-1.5-0.6-2.2l-1.5,1c0.5,0.8,0.4,1.8-0.2,2.5
					c-0.2,0.2-0.3,0.3-0.6,0.4L77.3,56.4z"/>
				<path class="st2" d="M75.9,56.6L75.9,56.6v-2c-0.5,0-1-0.3-1.3-0.7c-0.7-0.8-0.7-2,0-2.8c0.5-0.5,1.2-0.6,1.8-0.4l0.5-1.9
					c-0.4-0.2-0.7-0.3-1.1-0.3c-1.9,0-3.6,1.5-3.6,3.4c0,0.1,0,0.2,0,0.3C72.2,54.5,73.7,56.4,75.9,56.6z"/>
				<path class="st2" d="M77.1,51.3c0.1,0.1,0.2,0.2,0.2,0.3l1.5-1c-0.4-0.8-1.1-1.4-1.9-1.7l-0.6,1.8
					C76.7,50.9,76.9,51.1,77.1,51.3z"/>
				<path class="st2" d="M76,56.6c0.4,0,0.9-0.1,1.3-0.3l-0.7-1.9c-0.2,0.1-0.4,0.1-0.7,0.1L76,56.6z"/>
			</g>
			<g class="st4">
				<path class="st2" d="M152.6,38.7c-0.6,0-1.2-0.2-1.7-0.5c-0.3-0.2-0.5-0.4-0.7-0.7s-0.4-0.6-0.6-0.9c-0.7-1.4-0.7-2.9,0-4.3
					c0.2-0.3,0.3-0.6,0.6-0.8c0.2-0.2,0.5-0.4,0.7-0.6c0.5-0.3,1.1-0.5,1.7-0.4c0.6,0.1,1.2,0.3,1.6,0.7c0.2,0.2,0.5,0.4,0.7,0.7
					c0.2,0.3,0.4,0.6,0.5,0.9c0.6,1.3,0.6,2.7,0,4c-0.1,0.3-0.3,0.6-0.5,0.8s-0.4,0.5-0.7,0.6C153.8,38.5,153.2,38.7,152.6,38.7
					 M154,26.1l-2.8-0.4l-0.1,1.4c-0.7,0.1-1.3,0.3-1.8,0.7l-0.9-1l-2.2,2.3l0.8,1.2c-0.4,0.7-0.7,1.4-0.8,2.2h-1.3v3.7l1.3,0.1
					c0.2,0.8,0.4,1.6,0.8,2.3l-0.9,1.1l2.2,2.5l0.9-1c0.6,0.4,1.2,0.7,1.8,0.8l0.1,1.4l2.8-0.2l0.1-1.3c0.6-0.2,1.2-0.5,1.6-0.9
					l0.8,0.8l1.7-2.3l-0.6-1c0.3-0.6,0.5-1.3,0.6-2l0.9-0.1v-3.1l-0.9-0.2c-0.1-0.7-0.3-1.4-0.6-2l0.6-0.9l-1.7-2.4l-0.8,0.8
					c-0.5-0.4-1.1-0.8-1.7-1L154,26.1"/>
				<path class="st2" d="M139.4,29.2c-0.2,0-0.4-0.1-0.5-0.2c-0.2-0.1-0.3-0.3-0.4-0.5c-0.2-0.4-0.2-0.8,0-1.1
					c0-0.1,0.1-0.1,0.2-0.2c0.2-0.2,0.5-0.3,0.8-0.2c0.2,0,0.4,0.1,0.5,0.2c0.2,0.1,0.3,0.3,0.4,0.4c0.2,0.3,0.2,0.8,0,1.1
					c0,0.1-0.1,0.1-0.2,0.2c-0.1,0.1-0.1,0.1-0.2,0.1C139.8,29.1,139.6,29.2,139.4,29.2 M140.3,23.4l-1.8-0.3l-0.1,0.7
					c-0.4,0-0.8,0.2-1.1,0.3l-0.6-0.6l-1.3,1.2l0.5,0.6c-0.2,0.4-0.4,0.7-0.5,1.1h-0.8v2l0.8,0.1c0.1,0.4,0.3,0.9,0.5,1.3l-0.5,0.5
					l1.3,1.4l0.6-0.5c0.4,0.2,0.7,0.4,1.1,0.6l0.1,0.8l1.8,0.1l0.1-0.7c0.4-0.1,0.7-0.2,1.1-0.4l0.5,0.5l1.2-1.2l-0.4-0.6
					c0.2-0.3,0.3-0.7,0.4-1.1h0.6v-1.7l-0.6-0.1c-0.1-0.4-0.2-0.8-0.4-1.2l0.4-0.5l-1.2-1.4l-0.5,0.4c-0.3-0.3-0.7-0.5-1.1-0.6
					L140.3,23.4"/>
			</g>
			<path class="st5" d="M148,165.5c-0.2,0.8-0.3,1.6-0.3,2.4c-0.1,0.9-1.1,1.3-1.6,2.1s-1.5,2.1,2.1,2.2c3.8,0.1,6,0,5.4-2.1
				c-0.5-1.2-0.7-2.4-0.7-3.6c0.1-0.6,0-1.3-0.4-1.8C151.9,164.1,148.6,163.4,148,165.5z"/>
			<path class="st6" d="M102.6,49.4c-1.2-0.6-11.1-5.1-11.2-2.8c-0.1,2.6,3.4,5.2,4.7,6c2.4,1.4,5.2,0.8,6.4-0.4
				C103.3,51.4,103.7,50,102.6,49.4z"/>
			<path class="st6" d="M102.2,48.7c-0.4-0.5-2.7-3.5-3.3-3.1c-0.9,0.6,0.5,2.6,1.4,4c0.5,0.7,1.7,1.4,2.2,0.9
				S102.8,49.5,102.2,48.7z"/>
			<path class="st5" d="M119,167.2c-1,1.2-2.2,2.1-3.7,2.7c-2,0.8-6.1,1.2-3.8,2c2.1,0.5,4.3,0.5,6.4,0.1c1.4-0.2,2.9-0.3,4.3-0.3
				c2.1,0,2.1-0.1,1.8-2.4C123.6,166.1,119.9,165.4,119,167.2z"/>
			<path class="st6" d="M143,20.2c-0.4,4.3-0.6,5.2-2.4,7s-4.8,2-6.8,2c-2.2,0-3.6-2.6-4.1-4.5c-0.8-3.3-0.9-6.7-0.4-10.1
				c0.7-2.9,3.3-5.1,6.3-5.3C138.5,9.4,144.1,9.7,143,20.2z"/>
			
				<linearGradient id="SVGID_1_" gradientUnits="userSpaceOnUse" x1="21.4652" y1="-5623.5952" x2="72.6052" y2="-5672.8452" gradientTransform="matrix(0.58 0.81 -0.81 0.58 -3123.6602 3544.03)">
				<stop  offset="0" style="stop-color:#36078B"/>
				<stop  offset="1" style="stop-color:#16B1FF"/>
			</linearGradient>
			<path class="st7" d="M100.2,52.2c1.3,1.7,2.4,2.6,7.2,4c6.5,1.9,10.2,2.6,13.5,2.8c3,0.2,2.5-7-1.4-8.2c-3.3-1-15.9-0.3-17.9-0.9
				C100.2,49.5,99.1,50.8,100.2,52.2z"/>
			
				<linearGradient id="SVGID_2_" gradientUnits="userSpaceOnUse" x1="95.6973" y1="711.2361" x2="146.8373" y2="661.9861" gradientTransform="matrix(1 0 0 1 0 -640)">
				<stop  offset="0" style="stop-color:#36078B"/>
				<stop  offset="1" style="stop-color:#16B1FF"/>
			</linearGradient>
			<path class="st8" d="M121.2,57.1c1.3-1.1,3.7-3.9,7.7-12c1.5-2.9,2.7-5.8,3.6-8.9c0.9-2.9-1.2-5.2-2.8-5.1
				c-2.6,0.1-6,2.1-6.6,3.6c-3.3,8.4-5.4,15-6.6,16.9C114.9,54.4,119.7,58.4,121.2,57.1z"/>
			<path class="st6" d="M140.9,27.7c0.1,1.5,0.2,3.2,0.3,4.8c0,2.1-1.5,3.9-3.6,4.1h-0.2c-1.9,0-4-1.7-3.9-3.5
				c0.1-1.2,0.1-2.4,0.1-3.5c0-2,1.3-3.8,3.2-4.5l0,0c1.6-0.6,3.3,0.2,3.9,1.8C140.8,27.2,140.8,27.4,140.9,27.7z"/>
			
				<linearGradient id="SVGID_3_" gradientUnits="userSpaceOnUse" x1="134.9987" y1="661.51" x2="134.9987" y2="704.82" gradientTransform="matrix(1 0 0 1 0 -640)">
				<stop  offset="0" style="stop-color:#36078B"/>
				<stop  offset="1" style="stop-color:#16B1FF"/>
			</linearGradient>
			<path class="st9" d="M149.4,46.1c-3.4,11.3-4.6,23.1-3.9,31h-25.9c0,0,0.2-24.3,1.9-37.6c0.5-3.3,2.5-6.1,5.5-7.6
				c2.2-0.9,4.5-1.5,6.9-1.5h4.8c1.7,0,3.4,0.2,5.1,0.6C150.8,33.2,151.4,39.5,149.4,46.1z"/>
			
				<linearGradient id="SVGID_4_" gradientUnits="userSpaceOnUse" x1="95.0108" y1="796.2047" x2="137.2308" y2="716.0146" gradientTransform="matrix(1 0 0 1 0 -640)">
				<stop  offset="0" style="stop-color:#F70F47"/>
				<stop  offset="1" style="stop-color:#FFB41D"/>
			</linearGradient>
			<path class="st10" d="M145.4,92.9c0,0,2.2-5.4,0.1-15.8h-25.9c-0.6,5.3-0.9,10.6-0.9,15.8H145.4z"/>
			
				<linearGradient id="SVGID_5_" gradientUnits="userSpaceOnUse" x1="130.4263" y1="814.847" x2="172.6463" y2="734.657" gradientTransform="matrix(1 0 0 1 0 -640)">
				<stop  offset="0" style="stop-color:#F70F47"/>
				<stop  offset="1" style="stop-color:#FFB41D"/>
			</linearGradient>
			<path class="st11" d="M140.3,126.8c-2.1-8.4,6.5-9.9,9.3-3.8c3.9,8.6,3.5,36.2,3.3,41.7c0,0.7,0.1,1.6-0.3,1.9
				c-0.9,0.4-1.8,0.5-2.7,0.4c-1,0-1.9,0-2-1.2C147.3,157.8,142.3,135,140.3,126.8z"/>
			
				<linearGradient id="SVGID_6_" gradientUnits="userSpaceOnUse" x1="110.515" y1="804.3674" x2="152.745" y2="724.1774" gradientTransform="matrix(1 0 0 1 0 -640)">
				<stop  offset="0" style="stop-color:#F70F47"/>
				<stop  offset="1" style="stop-color:#FFB41D"/>
			</linearGradient>
			<path class="st12" d="M132.6,94.1c-0.9-10.5,3.2-18.6,9.7-15.2c2.7,1.5,3.7,4.4,4.1,7.1s2.4,31.3,3.1,36.4
				c1.6,11.6-7.6,8.5-8.6,5.3C138.4,119.6,133.1,99.8,132.6,94.1z"/>
			
				<linearGradient id="SVGID_7_" gradientUnits="userSpaceOnUse" x1="111.0454" y1="804.6428" x2="153.2654" y2="724.4528" gradientTransform="matrix(1 0 0 1 0 -640)">
				<stop  offset="0" style="stop-color:#F70F47"/>
				<stop  offset="1" style="stop-color:#FFB41D"/>
			</linearGradient>
			<path class="st13" d="M124,169c0.3-12.4,5.6-34,2.5-44c-1.9-6.4-9.6-6.6-9.2,1.3c0.4,8.4,2.9,24.7,2,40.9
				C119.2,168.8,123.9,170.5,124,169z"/>
			
				<linearGradient id="SVGID_8_" gradientUnits="userSpaceOnUse" x1="95.2593" y1="796.3386" x2="137.4893" y2="716.1486" gradientTransform="matrix(1 0 0 1 0 -640)">
				<stop  offset="0" style="stop-color:#F70F47"/>
				<stop  offset="1" style="stop-color:#FFB41D"/>
			</linearGradient>
			<path class="st14" d="M126.2,127.1c-1,3.2-9.8,6.9-8.9-4.8c0.4-5.2,1.5-33.8,1.7-36.6s0.7-6.8,2.1-7.3
				c6.9-2.5,13.6,5.7,11.8,16.1C131.7,101.5,128.3,120.5,126.2,127.1z"/>
			<ellipse transform="matrix(0.9257 -0.3782 0.3782 0.9257 2.0462 50.2339)" class="st6" cx="128.9" cy="19.9" rx="1.5" ry="2.9"/>
			<ellipse transform="matrix(0.378 -0.9258 0.9258 0.378 70.5019 144.7114)" class="st6" cx="142.9" cy="19.9" rx="2.9" ry="1.5"/>
			<path class="st6" d="M134,64.9c-1.1-0.6-10-4.6-10.1-2.5c-0.1,2.3,3.1,4.7,4.3,5.4c2.1,1.2,4.7,0.7,5.7-0.3
				C134.6,66.6,135,65.4,134,64.9z"/>
			<path class="st6" d="M132.6,63.2c-0.5-0.2-3.7-1.5-4-0.9c-0.4,0.9,1.6,1.8,2.9,2.4c0.7,0.3,1.9,0.3,2.1-0.3
				S133.5,63.5,132.6,63.2z"/>
			
				<linearGradient id="SVGID_9_" gradientUnits="userSpaceOnUse" x1="123.2394" y1="642.6307" x2="159.7194" y2="670.7208" gradientTransform="matrix(1 0 0 1 0 -640)">
				<stop  offset="0" style="stop-color:#0000FF"/>
				<stop  offset="1" style="stop-color:#9E005D"/>
			</linearGradient>
			<path class="st15" d="M141.7,11.7c-1.7,2.5-9.7,2.7-12.4,1.8s-2.4-6,1.3-6.4c2.1,0,0.6,0.5,2.3,1.2
				C133.9,8.7,143.5,9.1,141.7,11.7z"/>
			
				<linearGradient id="SVGID_10_" gradientUnits="userSpaceOnUse" x1="108.8796" y1="740.1121" x2="165.2496" y2="675.7521" gradientTransform="matrix(1 0 0 1 0 -640)">
				<stop  offset="0" style="stop-color:#36078B"/>
				<stop  offset="1" style="stop-color:#16B1FF"/>
			</linearGradient>
			<path class="st16" d="M130.4,67.9c2,0.7,3.7,0,8.6-1c7-1.5,8.6-2.3,12.5-4.8c2.6-1.6-1.8-7-5.7-5.8c-3.3,1-13.5,8.4-15.6,9
				C129,65.7,128.8,67.4,130.4,67.9z"/>
			
				<linearGradient id="SVGID_11_" gradientUnits="userSpaceOnUse" x1="105.5117" y1="737.1639" x2="161.8816" y2="672.8039" gradientTransform="matrix(1 0 0 1 0 -640)">
				<stop  offset="0" style="stop-color:#36078B"/>
				<stop  offset="1" style="stop-color:#16B1FF"/>
			</linearGradient>
			<path class="st17" d="M152.3,61c0.5-1.6,1-5.3,0-14.3c-0.3-3.2-0.9-6.4-1.7-9.5c-0.8-3-3.8-3.7-5.1-2.8c-2.1,1.5-3.9,5-3.6,6.5
				c1.7,8.9,3.6,15.6,3.6,17.8C145.5,62,151.7,62.9,152.3,61z"/>
		</g>
	</g>
</g>
</svg>
