<?xml version="1.0" encoding="utf-8"?>
<!-- Generator: Adobe Illustrator 21.0.0, SVG Export Plug-In . SVG Version: 6.00 Build 0)  -->
<svg version="1.1" id="Слой_1" xmlns="http://www.w3.org/2000/svg" xmlns:xlink="http://www.w3.org/1999/xlink" x="0px" y="0px"
	 viewBox="0 0 200.1 180" style="enable-background:new 0 0 200.1 180;" xml:space="preserve">
<style type="text/css">
	.st0{opacity:0.8;}
	.st1{fill:none;stroke:#0037FF;stroke-linecap:round;stroke-linejoin:round;}
	.st2{opacity:0.4;fill:none;stroke:#0037FF;stroke-linecap:round;stroke-linejoin:round;enable-background:new    ;}
	.st3{opacity:0.6;fill:none;stroke:#0037FF;stroke-linecap:round;stroke-linejoin:round;enable-background:new    ;}
	.st4{opacity:0.5;fill:none;stroke:#0037FF;stroke-linecap:round;stroke-linejoin:round;enable-background:new    ;}
	.st5{opacity:0.6;}
	.st6{fill:url(#SVGID_1_);}
	.st7{fill:url(#SVGID_2_);}
	.st8{fill:#4E11F4;}
	.st9{fill:#FFAF84;}
	.st10{fill:url(#SVGID_3_);}
	.st11{fill:url(#SVGID_4_);}
	.st12{fill:url(#SVGID_5_);}
	.st13{fill:url(#SVGID_6_);}
	.st14{fill:url(#SVGID_7_);}
	.st15{fill:url(#SVGID_8_);}
	.st16{fill:url(#SVGID_9_);}
	.st17{fill:url(#SVGID_10_);}
	.st18{fill:url(#SVGID_11_);}
	.st19{fill:url(#SVGID_12_);}
</style>
<title>box6</title>
<g>
	<g id="Слой_2">
		<g id="Designed_by_Freepik">
			<g class="st0">
				<polygon class="st1" points="176.3,39.5 176.3,147.3 25.4,147.3 25.4,49.1 				"/>
				<polygon class="st2" points="32.7,144.4 90.2,143 90.2,63.9 32.7,66.8 				"/>
				<polygon class="st3" points="42.8,65 32.8,65.4 32.8,54.7 42.8,54.1 				"/>
				<path class="st1" d="M40.9,59.7c0,1.8-1.3,3.4-3.2,3.5c-1.7,0-3.1-1.4-3.1-3.1V60c0-1.8,1.3-3.4,3.1-3.5c1.7,0,3.1,1.3,3.2,3
					C40.9,59.6,40.9,59.6,40.9,59.7z"/>
				<path class="st1" d="M40.2,59.7c0,0.8-0.4,1.6-1,2.1c-0.2,0.1-0.4,0.3-0.6,0.4l-0.3,0.1h-0.2c-0.1,0-0.2,0-0.4,0s-0.5,0-0.7-0.1
					c-1-0.3-1.7-1.3-1.7-2.4c0-0.4,0.1-0.8,0.2-1.1c0.2-0.4,0.5-0.8,0.8-1.1l0.3-0.2c0.2-0.1,0.4-0.2,0.6-0.3
					c1.2-0.3,2.4,0.4,2.7,1.6C40.1,59.1,40.2,59.4,40.2,59.7z"/>
				<path class="st1" d="M37.8,60.1c-0.2,0-0.3-0.1-0.3-0.3l0,0v-1.7c0-0.2,0.1-0.3,0.3-0.3s0.3,0.1,0.3,0.3v1.7
					C38.1,60,37.9,60.1,37.8,60.1L37.8,60.1z"/>
				<path class="st1" d="M37.8,60.1c-0.2,0-0.3-0.1-0.3-0.3c0-0.1,0-0.2,0.1-0.2l0.8-0.6c0.1-0.1,0.3-0.1,0.4,0.1
					c0.1,0.1,0.1,0.3-0.1,0.4l0,0L38,60C37.9,60.1,37.8,60.1,37.8,60.1z"/>
				<polygon class="st4" points="175.5,146.9 25.7,147.6 25.7,50.5 175.5,40.5 				"/>
				<path class="st1" d="M63.8,111.2c-6.9,3.3-15.2,1.7-20.5-3.8c-2.6-2.7-4.4-6.1-5.1-9.7l9.2-2.5c0.8,5,5.5,8.3,10.5,7.5
					c0.8-0.1,1.6-0.4,2.4-0.7L63.8,111.2z"/>
				<path class="st1" d="M70.3,106.5l-0.5,0.5l-6.5-7.1c1.9-2,3-4.7,3-7.6c0-5.6-4.3-10-9.6-9.8c-3.8,0.2-7.1,2.6-8.5,6l-8.4-4.1
					c0.9-2,2.1-3.8,3.6-5.5c7.4-8.2,19.5-8.8,26.9-1.2S77.8,98.3,70.3,106.5z"/>
				<path class="st1" d="M47.2,93.1c0,0.7,0.1,1.4,0.2,2.2l-9.2,2.5c-0.9-4.5-0.4-9.1,1.5-13.2l8.4,4.1C47.6,90,47.2,91.5,47.2,93.1
					z"/>
				<path class="st1" d="M69.8,107c-1.7,1.8-3.8,3.2-6,4.3l-3.5-9.3c1.1-0.5,2.1-1.2,3-2.1L69.8,107z"/>
				<polygon class="st1" points="74.2,116.3 74.2,114.3 70.5,114.4 70.5,116.4 				"/>
				<polygon class="st1" points="80.9,116.1 80.9,114.1 77.1,114.2 77.1,116.2 				"/>
				<polygon class="st1" points="87.6,115.8 87.6,113.8 83.8,114 83.8,116 				"/>
				<path class="st1" d="M85,79.1c-1.3-0.5-2.8-0.1-3.7,1c-0.5,0.5-0.8,1.1-0.9,1.8l1.7,0.3c0.2-0.8,0.8-1.4,1.7-1.5
					c0.2,0,0.4,0,0.6,0.1L85,79.1z"/>
				<path class="st1" d="M86.1,79.8L86.1,79.8l-1.2,1.3c0.4,0.3,0.5,0.8,0.5,1.3c0,1-0.7,1.8-1.7,1.9c-0.7,0-1.3-0.3-1.5-0.9
					l-1.5,0.9c0.8,1.6,2.7,2.3,4.3,1.6c0.4-0.2,0.8-0.5,1.1-0.9C87.5,83.5,87.5,81.3,86.1,79.8z"/>
				<path class="st1" d="M82,82.6c0-0.1,0-0.3,0-0.4l-1.7-0.3c-0.2,0.8-0.1,1.6,0.3,2.3l1.5-0.9C82,83.1,82,82.8,82,82.6z"/>
				<path class="st1" d="M86.1,79.8c-0.3-0.3-0.7-0.5-1.1-0.7l-0.6,1.7c0.2,0.1,0.4,0.2,0.5,0.3L86.1,79.8z"/>
				<path class="st1" d="M80.6,105.7c0.5,1.3,1.8,2.1,3.1,2.1c0.7,0,1.3-0.2,1.8-0.6l-0.9-1.5c-0.7,0.5-1.6,0.4-2.1-0.2
					c-0.2-0.2-0.3-0.3-0.4-0.6L80.6,105.7z"/>
				<path class="st1" d="M80.3,104.3L80.3,104.3H82c0-0.5,0.2-1,0.5-1.3c0.6-0.7,1.6-0.8,2.3-0.2l0.1,0.1c0.5,0.5,0.6,1.2,0.4,1.8
					l1.6,0.5c0.1-0.4,0.2-0.8,0.2-1.2c0.1-1.8-1.4-3.4-3.2-3.5c-0.1,0-0.1,0-0.2,0C81.8,100.8,80.3,102.4,80.3,104.3z"/>
				<path class="st1" d="M84.9,105.4c-0.1,0.1-0.2,0.2-0.3,0.3l0.9,1.5c0.7-0.5,1.2-1.1,1.4-1.9l-1.6-0.5
					C85.3,105,85.1,105.2,84.9,105.4z"/>
				<path class="st1" d="M80.3,104.4c0,0.4,0.1,0.9,0.3,1.3l1.6-0.8c-0.1-0.2-0.1-0.4-0.1-0.7L80.3,104.4z"/>
				<path class="st1" d="M85.1,96.6c1.3-0.6,2.1-2,2.1-3.4c0-0.7-0.2-1.3-0.5-1.9l-1.4,1c0.4,0.7,0.3,1.6-0.2,2.3
					c-0.2,0.2-0.3,0.3-0.5,0.4L85.1,96.6z"/>
				<path class="st1" d="M83.7,96.9L83.7,96.9v-1.8c-0.5,0-0.9-0.1-1.3-0.5c-0.7-0.7-0.7-1.8,0-2.5c0.4-0.5,1.1-0.7,1.8-0.5l0.6-1.7
					c-0.4-0.1-0.7-0.2-1.1-0.2c-1.9,0.1-3.4,1.8-3.4,3.7c-0.1,1.8,1.4,3.4,3.2,3.4C83.6,96.9,83.7,96.9,83.7,96.9z"/>
				<path class="st1" d="M84.9,92c0.1,0.1,0.2,0.2,0.2,0.3l1.4-1c-0.4-0.7-1-1.2-1.8-1.4l-0.6,1.7C84.5,91.7,84.7,91.8,84.9,92z"/>
				<path class="st1" d="M83.8,96.9c0.4,0,0.9-0.1,1.2-0.3L84.4,95c-0.2,0.1-0.4,0.2-0.6,0.2V96.9z"/>
				<polygon class="st1" points="176.3,39.5 25.4,49.1 25.4,34.9 176.3,24 				"/>
				<polygon class="st1" points="173.3,36.5 27.9,46 27.9,41.3 173.3,31.4 				"/>
				<polygon class="st1" points="30.1,39.6 27.9,39.7 27.9,37.3 30.1,37.1 				"/>
				<polygon class="st1" points="34.1,39.3 31.9,39.4 31.9,37 34.1,36.8 				"/>
				<polygon class="st1" points="38.1,39 35.9,39.2 35.9,36.7 38.1,36.6 				"/>
				<polygon class="st4" points="92.3,132 166.2,131.3 166.2,45.8 92.3,50.2 				"/>
				<path class="st1" d="M102.1,68.7c-0.5,0-1-0.2-1.3-0.5c-0.4-0.4-0.6-0.9-0.6-1.5V55.4c0-1.1,0.9-2.1,2-2.2l65.9-3.8
					c1.1-0.1,2.1,0.8,2.2,1.9c0,0.1,0,0.1,0,0.2v11.7c0,1.2-0.9,2.2-2.1,2.3L102.1,68.7L102.1,68.7z M168.2,50.4L168.2,50.4l-66,3.8
					c-0.6,0.1-1.1,0.6-1.1,1.2v11.2c0,0.3,0.1,0.6,0.3,0.8c0.2,0.2,0.4,0.3,0.7,0.3l65.9-3.2c0.7,0,1.2-0.6,1.2-1.3V51.5
					c0-0.3-0.1-0.6-0.3-0.8S168.5,50.4,168.2,50.4L168.2,50.4z"/>
				<path class="st1" d="M102.1,87.7c-0.5,0-1-0.2-1.3-0.6c-0.4-0.4-0.6-0.9-0.6-1.5V74.4c0-1.1,0.9-2.1,2-2.2l65.9-3
					c0.6,0,1.1,0.2,1.5,0.6s0.6,0.9,0.6,1.5V83c0,1.2-1,2.2-2.1,2.2L102.1,87.7L102.1,87.7z M168.2,70.2L168.2,70.2l-66,3
					c-0.6,0.1-1.1,0.6-1.1,1.2v11.2c0,0.3,0.1,0.6,0.3,0.8c0.2,0.2,0.4,0.3,0.7,0.3l65.9-2.4c0.7,0,1.2-0.6,1.2-1.3V71.3
					c0-0.3-0.1-0.6-0.3-0.8C168.7,70.3,168.5,70.2,168.2,70.2z"/>
				<path class="st1" d="M102.2,106.7c-0.5,0-1-0.2-1.4-0.6s-0.6-0.9-0.6-1.5V93.4c0-1.1,0.9-2.1,2-2.2l66-2.3
					c0.6,0,1.1,0.2,1.5,0.6s0.6,1,0.6,1.5v11.7c0,1.2-1,2.2-2.1,2.2L102.2,106.7L102.2,106.7z M168.1,90L168.1,90l-65.9,2.3
					c-0.6,0-1.1,0.6-1.1,1.2v11.2c0,0.3,0.1,0.6,0.3,0.8c0.2,0.2,0.4,0.3,0.7,0.3l65.9-1.7c0.7,0,1.2-0.6,1.2-1.2V91.2
					c0-0.3-0.1-0.6-0.3-0.8C168.8,90.1,168.5,90,168.1,90L168.1,90z"/>
				<path class="st1" d="M102.2,125.7c-0.5,0-1-0.2-1.4-0.6s-0.6-0.9-0.6-1.5v-11.2c0-1.1,0.9-2.1,2-2.1l65.9-1.5
					c0.6,0,1.1,0.2,1.5,0.6s0.6,1,0.6,1.5v11.7c0,1.2-1,2.2-2.2,2.2L102.2,125.7L102.2,125.7z M102.2,124.7L102.2,124.7l65.9-0.9
					c0.7,0,1.2-0.6,1.2-1.2V111c0-0.3-0.1-0.6-0.3-0.8c-0.2-0.2-0.5-0.3-0.8-0.3l-65.9,1.5c-0.6,0-1.1,0.5-1.1,1.2v11.2
					c0,0.3,0.1,0.6,0.3,0.8C101.6,124.7,101.9,124.8,102.2,124.7L102.2,124.7z"/>
				<polygon class="st4" points="133.8,97.2 162.3,96.3 162.3,94 133.8,94.9 				"/>
				<polygon class="st4" points="143,100.9 162.3,100.4 162.3,98.1 143,98.7 				"/>
				<polygon class="st4" points="136,101.1 140.8,101 140.8,98.7 136,98.9 				"/>
				<polygon class="st4" points="133.8,58.9 162.3,57.3 162.3,55.1 133.8,56.6 				"/>
				<polygon class="st4" points="145.2,62.3 162.3,61.4 162.3,59.1 145.2,60 				"/>
				<polygon class="st4" points="125.3,63.3 143,62.4 143,60.1 125.3,61 				"/>
				<polygon class="st4" points="150.8,116.3 162.3,116.1 162.3,113.8 150.8,114 				"/>
				<polygon class="st4" points="137.3,116.5 148.6,116.3 148.6,114 137.3,114.3 				"/>
				<polygon class="st4" points="143,120.4 162.3,120.1 162.3,117.8 143,118.2 				"/>
				<polygon class="st4" points="122.2,120.8 140.8,120.5 140.8,118.2 122.2,118.5 				"/>
				<path class="st1" d="M105.5,84.3l66.2-2.6c0.9,0,1.7-0.8,1.7-1.7V68.3c0-0.9-0.7-1.6-1.6-1.6h-0.1l-66.2,3.2
					c-0.9,0.1-1.5,0.8-1.5,1.7v11.2C104,83.6,104.6,84.3,105.5,84.3L105.5,84.3z"/>
				<g class="st5">
					<polygon class="st1" points="141.3,72.3 169.8,71 169.8,69.3 141.3,70.6 					"/>
					<polygon class="st1" points="141.3,75.3 169.8,74 169.8,72.3 141.3,73.6 					"/>
					<polygon class="st1" points="157,77.6 169.8,77.1 169.8,75.4 157,75.9 					"/>
				</g>
				<polygon class="st1" points="117.3,79.3 124.6,79 124.6,71.4 117.3,71.7 				"/>
				<polygon class="st3" points="108.7,79.7 116,79.4 116,71.8 108.7,72.1 				"/>
			</g>
			<path class="st1" d="M20.5,125.6l176.3-79.2c2.4-1.1,3.4-3.8,2.4-6.2l0,0l-13.4-29.8C184.7,8,181.9,7,179.6,8l0,0L3.3,87.2
				c-2.4,1.1-3.4,3.8-2.4,6.2l0,0l13.4,29.8C15.4,125.6,18.2,126.7,20.5,125.6L20.5,125.6z"/>
			
				<rect x="100.6" y="33.2" transform="matrix(0.9121 -0.4099 0.4099 0.9121 -2.1829 61.0527)" class="st1" width="81.4" height="4.8"/>
			
				<rect x="104.1" y="40.9" transform="matrix(0.9121 -0.4099 0.4099 0.9121 -5.0317 63.1558)" class="st1" width="81.4" height="4.8"/>
			
				<rect x="150.9" y="39.4" transform="matrix(0.9121 -0.4099 0.4099 0.9121 -2.2952 72.9312)" class="st1" width="36.1" height="4.8"/>
			<rect x="42" y="73.7" transform="matrix(0.912 -0.4101 0.4101 0.912 -30.0768 29.1847)" class="st1" width="22" height="22"/>
			<rect x="18.6" y="84.2" transform="matrix(0.912 -0.4101 0.4101 0.912 -36.4464 20.512)" class="st1" width="22" height="22"/>
			
				<linearGradient id="SVGID_1_" gradientUnits="userSpaceOnUse" x1="330.7653" y1="-374.1817" x2="353.4153" y2="-333.6517" gradientTransform="matrix(0.99 0.16 -0.16 0.99 -218.28 359.5299)">
				<stop  offset="0" style="stop-color:#36078B"/>
				<stop  offset="1" style="stop-color:#16B1FF"/>
			</linearGradient>
			<path class="st6" d="M165.9,66.9c1.9,1,3.7,0.6,8.8,0.3c7.3-0.4,9-1,13.4-2.9c2.9-1.2-0.7-7.3-4.8-6.7
				c-3.5,0.5-14.9,6.3-17.1,6.6C164.8,64.4,164.3,66.1,165.9,66.9z"/>
			
				<linearGradient id="SVGID_2_" gradientUnits="userSpaceOnUse" x1="342.9421" y1="-380.9863" x2="365.5921" y2="-340.4564" gradientTransform="matrix(0.99 0.16 -0.16 0.99 -218.28 359.5299)">
				<stop  offset="0" style="stop-color:#36078B"/>
				<stop  offset="1" style="stop-color:#16B1FF"/>
			</linearGradient>
			<path class="st7" d="M189,63.4c0.7-1.5,1.9-5.2,2.3-14.4c0.2-3.3,0.1-6.5-0.2-9.8c-0.3-3.1-3.3-4.3-4.7-3.6
				c-2.3,1.2-4.7,4.4-4.7,6c0.3,9.2,1.1,16.2,0.8,18.5C182,63.4,188.1,65.2,189,63.4z"/>
			<path class="st8" d="M182.6,166.4c-0.2,0.8-0.3,1.6-0.3,2.4c-0.2,1-1.1,1.3-1.6,2.1s-1.5,2.1,2.1,2.2c3.9,0.1,6.1,0,5.5-2.1
				c-0.5-1.2-0.7-2.4-0.7-3.7c0.1-0.6,0-1.3-0.4-1.8C186.6,165,183.1,164.3,182.6,166.4z"/>
			<path class="st8" d="M143.3,168.1c-1,1.2-2.3,2.2-3.7,2.7c-2,0.9-6.2,1.3-3.9,2c2.1,0.5,4.3,0.5,6.5,0.1c1.4-0.2,2.9-0.3,4.4-0.3
				c2.2,0,2.2-0.1,1.9-2.5C148,167,144.2,166.3,143.3,168.1z"/>
			<path class="st9" d="M187.1,22.3c-1.1,4.3-1.4,5.2-3.6,6.6s-5.1,1.3-7.2,0.9c-2.2-0.4-3.3-3.2-3.5-5.1c-0.3-3.5,0.1-6.9,1.1-10.2
				c0.7-2.3,4.1-4.8,7.1-4.3S189.8,11.9,187.1,22.3z"/>
			
				<linearGradient id="SVGID_3_" gradientUnits="userSpaceOnUse" x1="-3074.1687" y1="875.8102" x2="-3074.1687" y2="917.0502" gradientTransform="matrix(0.7499 -0.6616 0.6616 0.7499 1879.3964 -2659.3176)">
				<stop  offset="0" style="stop-color:#36078B"/>
				<stop  offset="1" style="stop-color:#16B1FF"/>
			</linearGradient>
			<path class="st10" d="M171.8,60.3c0.5-1.6,1.1-5.4,0-14.6c-0.3-3.3-0.9-6.5-1.7-9.6c-0.8-3-3.9-3.8-5.2-2.8c-2.1,1.5-4,5-3.7,6.6
				c1.7,9,3.6,15.9,3.6,18.1C164.9,61.3,171.2,62.2,171.8,60.3z"/>
			<path class="st9" d="M183.7,29.5c-0.1,1.5-0.3,3.3-0.5,4.8c-0.3,2.1-2.1,3.7-4.2,3.6h-0.2c-1.9-0.3-3.8-2.3-3.3-4.2
				c0.3-1.2,0.5-2.4,0.7-3.5c0.3-2,1.9-3.6,3.9-4l0,0c1.7-0.3,3.3,0.8,3.6,2.5C183.7,29.1,183.7,29.3,183.7,29.5z"/>
			
				<linearGradient id="SVGID_4_" gradientUnits="userSpaceOnUse" x1="337.3701" y1="-396.4702" x2="337.3701" y2="-352.3602" gradientTransform="matrix(0.99 0.16 -0.16 0.99 -218.28 359.5299)">
				<stop  offset="0" style="stop-color:#36078B"/>
				<stop  offset="1" style="stop-color:#16B1FF"/>
			</linearGradient>
			<path class="st11" d="M189.4,49.3c-5.3,10.8-8.3,22.5-8.8,30.6l-26.1-4.1c0,0,4-24.4,7.8-37.5c1-3.2,3.5-5.8,6.7-6.8
				c2.3-0.6,4.8-0.8,7.2-0.5l4.8,0.8c1.7,0.2,3.4,0.7,5,1.4C192.8,36.6,192.4,43.1,189.4,49.3z"/>
			
				<linearGradient id="SVGID_5_" gradientUnits="userSpaceOnUse" x1="330.4192" y1="-356.9309" x2="347.1092" y2="-250.8608" gradientTransform="matrix(0.99 0.16 -0.16 0.99 -218.28 359.5299)">
				<stop  offset="0" style="stop-color:#0000FF"/>
				<stop  offset="1" style="stop-color:#9E005D"/>
			</linearGradient>
			<path class="st12" d="M178,95.9c0,0,3.1-5.1,2.6-15.9l-26.1-4.1c-1.4,5.2-2.6,10.5-3.5,15.8L178,95.9z"/>
			
				<linearGradient id="SVGID_6_" gradientUnits="userSpaceOnUse" x1="-176.5671" y1="1598.1228" x2="-160.5271" y2="1700.0728" gradientTransform="matrix(0.9861 -0.1661 0.1661 0.9861 61.0757 -1538.3018)">
				<stop  offset="0" style="stop-color:#0000FF"/>
				<stop  offset="1" style="stop-color:#9E005D"/>
			</linearGradient>
			<path class="st13" d="M168.6,132.2c-3.5-8.1,4.9-11.1,8.7-5.4c5.3,8,9.7,33.8,10.4,39.3c0.1,0.7,0.4,1.6,0,1.9
				c-0.8,0.5-1.7,0.8-2.7,0.9c-1,0.1-1.9,0.3-2.2-0.9C180.8,160.1,172,140.1,168.6,132.2z"/>
			
				<linearGradient id="SVGID_7_" gradientUnits="userSpaceOnUse" x1="336.9864" y1="-357.9614" x2="353.6764" y2="-251.8915" gradientTransform="matrix(0.99 0.16 -0.16 0.99 -218.28 359.5299)">
				<stop  offset="0" style="stop-color:#0000FF"/>
				<stop  offset="1" style="stop-color:#9E005D"/>
			</linearGradient>
			<path class="st14" d="M164.9,95c0.7-10.7,6.2-18.2,12.2-13.7c2.5,1.9,3.1,5,3,7.8s-2.5,31.8-2.6,37.1c-0.2,11.9-9,7.3-9.5,3.9
				C166.7,121.5,164.4,100.8,164.9,95z"/>
			
				<linearGradient id="SVGID_8_" gradientUnits="userSpaceOnUse" x1="240.4135" y1="155.9324" x2="257.0934" y2="262.0024" gradientTransform="matrix(1 7.000000e-02 -7.000000e-02 1 -88.45 -114.6)">
				<stop  offset="0" style="stop-color:#0000FF"/>
				<stop  offset="1" style="stop-color:#9E005D"/>
			</linearGradient>
			<path class="st15" d="M147.9,169.2c1.3-12.5,8.2-34.1,5.9-44.5c-1.5-6.6-9.2-7.4-9.5,0.6c-0.3,8.6,1.1,25.3-1,41.7
				C143.1,168.7,147.8,170.7,147.9,169.2z"/>
			
				<linearGradient id="SVGID_9_" gradientUnits="userSpaceOnUse" x1="320.1394" y1="-355.3156" x2="336.8194" y2="-249.2355" gradientTransform="matrix(0.99 0.16 -0.16 0.99 -218.28 359.5299)">
				<stop  offset="0" style="stop-color:#0000FF"/>
				<stop  offset="1" style="stop-color:#9E005D"/>
			</linearGradient>
			<path class="st16" d="M153.2,127.2c-1.5,3.1-10.9,5.4-8.2-6.2c1.2-5.2,6.8-33.8,7.5-36.5s1.8-6.7,3.2-7c7.4-1.4,12.8,7.9,9.3,18
				C162.8,102.3,156.4,120.9,153.2,127.2z"/>
			<ellipse transform="matrix(0.9732 -0.2299 0.2299 0.9732 0.1012 40.2755)" class="st9" cx="172.9" cy="19.7" rx="1.6" ry="3"/>
			<ellipse transform="matrix(0.5171 -0.8559 0.8559 0.5171 71.5259 170.5964)" class="st9" cx="187" cy="21.9" rx="2.9" ry="1.5"/>
			
				<linearGradient id="SVGID_10_" gradientUnits="userSpaceOnUse" x1="-3090.0854" y1="883.8002" x2="-3090.0854" y2="907.8102" gradientTransform="matrix(0.7499 -0.6616 0.6616 0.7499 1879.3964 -2659.3176)">
				<stop  offset="0" style="stop-color:#36078B"/>
				<stop  offset="1" style="stop-color:#16B1FF"/>
			</linearGradient>
			<path class="st17" d="M150.8,69.4c2.1,0.4,3.6,0.4,8.2-1.7c6.3-2.8,9.6-4.8,12.3-6.8c2.5-1.9-2.7-7.1-6.5-5.4
				c-3.2,1.5-12.5,10.3-14.4,11.2C149,67.3,149,69,150.8,69.4z"/>
			<path class="st9" d="M150.6,66.4c-1.4,0.3-11.9,4.7-10.4,6.6c1.7,2.1,6,0.4,7.4-0.2c2.7-1.3,4.8-2.4,4.9-4.1
				C152.4,67.4,151.9,66.1,150.6,66.4z"/>
			<path class="st9" d="M150.1,65.3c-0.5-0.4-3.4-2.9-3.9-2.4c-0.8,0.8,1.1,2.5,2.3,3.6c0.7,0.6,2,1,2.4,0.4S150.9,66,150.1,65.3z"
				/>
			
				<linearGradient id="SVGID_11_" gradientUnits="userSpaceOnUse" x1="327.636" y1="-413.0439" x2="345.966" y2="-391.5839" gradientTransform="matrix(0.99 0.16 -0.16 0.99 -218.28 359.5299)">
				<stop  offset="0" style="stop-color:#0000FF"/>
				<stop  offset="1" style="stop-color:#9E005D"/>
			</linearGradient>
			<path class="st18" d="M178,11.7c-2.7,1.1-3.5,2.3-3.9,5.4s0.1,8.6,5.6,10.6s7.7-3.4,8.7-7.2s1.2-6.8-1.6-7.9
				C182.6,11,179.7,11,178,11.7z"/>
			
				<linearGradient id="SVGID_12_" gradientUnits="userSpaceOnUse" x1="329.1393" y1="-414.237" x2="347.4092" y2="-392.857" gradientTransform="matrix(0.99 0.16 -0.16 0.99 -218.28 359.5299)">
				<stop  offset="0" style="stop-color:#0000FF"/>
				<stop  offset="1" style="stop-color:#9E005D"/>
			</linearGradient>
			<path class="st19" d="M188.2,13.3c0.2-2.4-3.4-4.1-3.9-5.2c0,0-0.2,1.6,0.5,2.1c0,0-4.4-1.8-6.1-3.3c0,0,0.7,1.7,1.6,2.1
				c0,0-4.9-1.4-6.4-2.4c0.8,1.2,1.7,2.3,2.8,3.3c0,0-4.1,0.1-6.6-1.1c0,0,2,5.5,5.7,6.1S187.9,17.7,188.2,13.3z"/>
		</g>
	</g>
</g>
</svg>
