<svg xmlns="http://www.w3.org/2000/svg" xmlns:xlink="http://www.w3.org/1999/xlink" viewBox="0 0 185.76 159.01"><defs><style>.cls-1{fill:none;stroke:#0037ff;stroke-miterlimit:10;}.cls-2{fill:#ffaf84;}.cls-3{fill:url(#Gradient_bez_nazwy_10);}.cls-4{fill:url(#Gradient_bez_nazwy_10-2);}.cls-5{fill:#541968;}.cls-6{fill:url(#Gradient_bez_nazwy_10-3);}.cls-7{fill:url(#Gradient_bez_nazwy_5);}.cls-8{fill:url(#Gradient_bez_nazwy_5-2);}.cls-9{fill:url(#Gradient_bez_nazwy_5-3);}.cls-10{fill:url(#Gradient_bez_nazwy_5-4);}.cls-11{fill:url(#Gradient_bez_nazwy_5-5);}.cls-12{fill:url(#Gradient_bez_nazwy_4);}.cls-13{fill:url(#Gradient_bez_nazwy_10-4);}.cls-14{fill:url(#Gradient_bez_nazwy_10-5);}.cls-15{fill:url(#Gradient_bez_nazwy_4-2);}.cls-16{fill:url(#Gradient_bez_nazwy_8);}.cls-17{fill:url(#Gradient_bez_nazwy_5-6);}.cls-18{fill:url(#Gradient_bez_nazwy_4-3);}.cls-19{fill:#ed9169;}.cls-20{fill:url(#Gradient_bez_nazwy_5-7);}.cls-21{fill:url(#Gradient_bez_nazwy_2);}.cls-22{fill:url(#Gradient_bez_nazwy_2-2);}.cls-23{fill:url(#Gradient_bez_nazwy_2-3);}.cls-24{fill:url(#Gradient_bez_nazwy_2-4);}.cls-25{fill:url(#Gradient_bez_nazwy_2-5);}.cls-26{fill:url(#Gradient_bez_nazwy_5-8);}.cls-27{fill:url(#Gradient_bez_nazwy_4-4);}.cls-28{fill:url(#Gradient_bez_nazwy_8-2);}.cls-29{fill:url(#Gradient_bez_nazwy_8-3);}</style><linearGradient id="Gradient_bez_nazwy_10" x1="-7348.4" y1="-379.54" x2="-7348.4" y2="-345.92" gradientTransform="matrix(-0.06, 1.07, -1.01, -0.12, -789.76, 7815.37)" gradientUnits="userSpaceOnUse"><stop offset="0" stop-color="#36078b"/><stop offset="1" stop-color="#168d68"/></linearGradient><linearGradient id="Gradient_bez_nazwy_10-2" x1="-7439.49" y1="-313.38" x2="-7439.49" y2="-267.2" gradientTransform="matrix(-0.09, 1, -1, -0.09, -949.61, 7421.86)" xlink:href="#Gradient_bez_nazwy_10"/><linearGradient id="Gradient_bez_nazwy_10-3" x1="-8021.72" y1="47.07" x2="-8021.72" y2="114.93" gradientTransform="matrix(-1, 0, 0, 1, -8005.63, 0)" xlink:href="#Gradient_bez_nazwy_10"/><linearGradient id="Gradient_bez_nazwy_5" x1="-8023.43" y1="186.81" x2="-8023.43" y2="90.32" gradientTransform="matrix(-1, 0, 0, 1, -8005.63, 0)" gradientUnits="userSpaceOnUse"><stop offset="0" stop-color="#36078b"/><stop offset="1" stop-color="#16b1ff"/></linearGradient><linearGradient id="Gradient_bez_nazwy_5-2" x1="-8011.78" y1="186.81" x2="-8011.78" y2="90.32" xlink:href="#Gradient_bez_nazwy_5"/><linearGradient id="Gradient_bez_nazwy_5-3" x1="-8016.49" y1="186.81" x2="-8016.49" y2="90.32" xlink:href="#Gradient_bez_nazwy_5"/><linearGradient id="Gradient_bez_nazwy_5-4" x1="-7082.99" y1="-563.8" x2="-7082.99" y2="-660.28" gradientTransform="matrix(-0.96, -0.27, -0.27, 0.96, -6949.28, -1218.32)" xlink:href="#Gradient_bez_nazwy_5"/><linearGradient id="Gradient_bez_nazwy_5-5" x1="-8621.69" y1="1185.65" x2="-8621.69" y2="1107.77" gradientTransform="matrix(-0.96, 0.28, 0.31, 1.13, -8601.03, 1257.78)" xlink:href="#Gradient_bez_nazwy_5"/><linearGradient id="Gradient_bez_nazwy_4" x1="-7970.81" y1="-16.34" x2="-7962.77" y2="-21.89" gradientTransform="matrix(-1, 0, 0, 1, -8005.63, 0)" gradientUnits="userSpaceOnUse"><stop offset="0" stop-color="#2c27ce"/><stop offset="0.65" stop-color="#ef1d68"/><stop offset="1" stop-color="#efba92"/></linearGradient><linearGradient id="Gradient_bez_nazwy_10-4" x1="43.77" y1="31.99" x2="54.67" y2="54.69" gradientTransform="matrix(1, 0, 0, 1, 0, 0)" xlink:href="#Gradient_bez_nazwy_10"/><linearGradient id="Gradient_bez_nazwy_10-5" x1="28.58" y1="36.72" x2="44.2" y2="68.44" gradientTransform="matrix(1, 0, 0, 1, 0, 0)" xlink:href="#Gradient_bez_nazwy_10"/><linearGradient id="Gradient_bez_nazwy_4-2" x1="15.13" y1="23" x2="7.68" y2="41.09" gradientTransform="matrix(1, 0, 0, 1, 0, 0)" xlink:href="#Gradient_bez_nazwy_4"/><linearGradient id="Gradient_bez_nazwy_8" x1="-6389.38" y1="4.67" x2="-6397.77" y2="43.34" gradientTransform="matrix(-1, 0, 0, 1, -6227.18, 0)" gradientUnits="userSpaceOnUse"><stop offset="0" stop-color="#2c27ce"/><stop offset="1" stop-color="#ef1d68"/></linearGradient><linearGradient id="Gradient_bez_nazwy_5-6" x1="-6382.95" y1="43.84" x2="-6361.8" y2="45.92" gradientTransform="matrix(-1, 0, 0, 1, -6227.18, 0)" xlink:href="#Gradient_bez_nazwy_5"/><linearGradient id="Gradient_bez_nazwy_4-3" x1="-6403.2" y1="153.86" x2="-6402.68" y2="138.41" gradientTransform="matrix(-1, 0, 0, 1, -6227.18, 0)" xlink:href="#Gradient_bez_nazwy_4"/><linearGradient id="Gradient_bez_nazwy_5-7" x1="-6395.94" y1="39.51" x2="-6387.85" y2="75.59" gradientTransform="matrix(-1, 0, 0, 1, -6227.18, 0)" xlink:href="#Gradient_bez_nazwy_5"/><linearGradient id="Gradient_bez_nazwy_2" x1="-6389.62" y1="103.65" x2="-6388.51" y2="202.63" gradientTransform="matrix(-1, 0, 0, 1, -6227.18, 0)" gradientUnits="userSpaceOnUse"><stop offset="0" stop-color="#f70f47"/><stop offset="1" stop-color="#9e005d"/></linearGradient><linearGradient id="Gradient_bez_nazwy_2-2" x1="-6401.17" y1="103.78" x2="-6400.07" y2="202.76" xlink:href="#Gradient_bez_nazwy_2"/><linearGradient id="Gradient_bez_nazwy_2-3" x1="-6396.54" y1="103.73" x2="-6395.43" y2="202.71" xlink:href="#Gradient_bez_nazwy_2"/><linearGradient id="Gradient_bez_nazwy_2-4" x1="-6381.86" y1="103.56" x2="-6380.76" y2="202.54" xlink:href="#Gradient_bez_nazwy_2"/><linearGradient id="Gradient_bez_nazwy_2-5" x1="-6383.96" y1="103.59" x2="-6382.85" y2="202.57" xlink:href="#Gradient_bez_nazwy_2"/><linearGradient id="Gradient_bez_nazwy_5-8" x1="-6402.21" y1="43.4" x2="-6406.35" y2="69.32" gradientTransform="matrix(-1, 0, 0, 1, -6227.18, 0)" xlink:href="#Gradient_bez_nazwy_5"/><linearGradient id="Gradient_bez_nazwy_4-4" x1="-6377.71" y1="154.71" x2="-6377.19" y2="139.27" gradientTransform="matrix(-1, 0, 0, 1, -6227.18, 0)" xlink:href="#Gradient_bez_nazwy_4"/><linearGradient id="Gradient_bez_nazwy_8-2" x1="-5841.56" y1="-333.32" x2="-5849.96" y2="-294.64" gradientTransform="matrix(-0.99, -0.16, -0.16, 0.99, -5653.34, -596.11)" xlink:href="#Gradient_bez_nazwy_8"/><linearGradient id="Gradient_bez_nazwy_8-3" x1="-5836.62" y1="-332.24" x2="-5845.02" y2="-293.57" gradientTransform="matrix(-0.99, -0.16, -0.16, 0.99, -5653.34, -596.11)" xlink:href="#Gradient_bez_nazwy_8"/></defs><title>branding</title><g id="Слой_2" data-name="Слой 2"><g id="Objects"><polygon class="cls-1" points="90.86 130.11 28.58 105.82 28.58 24.36 90.86 48.66 90.86 130.11"/><polygon class="cls-1" points="90.86 0.54 28.58 24.6 90.86 48.66 153.13 24.6 90.86 0.54"/><polygon class="cls-1" points="90.86 11.18 58.98 23.5 90.86 35.81 90.86 11.18"/><polygon class="cls-1" points="90.86 11.18 122.74 23.5 90.86 35.81 90.86 11.18"/><polygon class="cls-1" points="90.86 130.11 153.13 105.82 153.13 24.36 90.86 48.66 90.86 130.11"/><path class="cls-1" d="M119,74.67a3.11,3.11,0,0,0,.59,1.91l-7.34,2.93V87a3.81,3.81,0,0,0-2.38.23,7.13,7.13,0,0,0-4.31,6c0,2.38,1.93,3.54,4.31,2.59a6.79,6.79,0,0,0,2.38-1.67v9.34l7.07-2.82a3.39,3.39,0,0,1-.32-1.49,7.13,7.13,0,0,1,4.31-6c2.38-1,4.31.21,4.31,2.59a5.34,5.34,0,0,1-.32,1.75l7.07-2.82v-9a4.28,4.28,0,0,0,1.67-.33,7.13,7.13,0,0,0,4.31-6c0-2.38-1.93-3.54-4.31-2.59a6.4,6.4,0,0,0-1.67,1V70.68l-7.34,2.93a5.69,5.69,0,0,0,.59-2.38c0-2.38-1.93-3.54-4.31-2.59A7.13,7.13,0,0,0,119,74.67Z"/><polygon class="cls-1" points="76.22 112.77 40.76 98.94 40.76 57.76 76.22 71.59 76.22 112.77"/><path class="cls-1" d="M60.74,72.42a2.43,2.43,0,0,1,1.15.86,4,4,0,0,1,.54,1l8.18,26.86a2.25,2.25,0,0,1,.15.62.53.53,0,0,1-.24.49.63.63,0,0,1-.58,0l-4.73-1.86a2.31,2.31,0,0,1-1.07-.74,2.26,2.26,0,0,1-.39-.77l-1.05-3.53-10-3.92-1.05,2.7a.81.81,0,0,1-.39.46q-.32.19-1.07-.1L45.46,92.7a1.3,1.3,0,0,1-.58-.47,1.15,1.15,0,0,1-.24-.68,1.27,1.27,0,0,1,.15-.5L53,70.61a1.4,1.4,0,0,1,.54-.61,1.25,1.25,0,0,1,1.15,0Zm-6.08,14,6.08,2.39-3-10.2Z"/><path class="cls-2" d="M18,14c.25-1.17,2.68-10.24,4.3-9,1.79,1.37,1.62,5.18,1.4,6.45-.39,2.33-2.32,3.95-3.75,4C18.93,15.6,17.76,15.15,18,14Z"/><path class="cls-3" d="M21.55,13.82c.75,1.65.07,1.94-.35,6.57-.53,5.79-1.16,9-2.09,11.6-.86,2.45-5.94-.59-5.46-4.1.41-3,4.54-12.73,5.34-14.37A1.43,1.43,0,0,1,21.55,13.82Z"/><path class="cls-4" d="M19.61,29.68c-.27,1.41-1.35,4.46-5.78,10.94a50.32,50.32,0,0,1-5.14,6.54c-1.77,1.95-4.41,1.29-5,0-1-2-1-5.37-.11-6.45,4.89-6.08,9-10.47,9.95-12.15C14.84,26.15,19.92,28,19.61,29.68Z"/><path class="cls-5" d="M4.87,153.3a11.91,11.91,0,0,1,.28,2c.13.82.91,1.12,1.36,1.79S7.8,158.94,4.74,159c-3.27.06-5.2,0-4.65-1.82A9.1,9.1,0,0,0,.72,154a1.92,1.92,0,0,1,.37-1.53C1.46,152.15,4.39,151.52,4.87,153.3Z"/><path class="cls-5" d="M27.07,153.61a7.6,7.6,0,0,0,3.29,2.16c1.73.65,5.34.81,3.37,1.55a12.42,12.42,0,0,1-5.5.34,26.41,26.41,0,0,0-3.73.16c-1.83.08-1.85-.22-1.7-2.22C23,152.84,26.17,152.1,27.07,153.61Z"/><path class="cls-2" d="M9.15,27.59c.37,3.71.48,4.53,2.1,6s4.15,1.74,5.91,1.74,3.15-2.29,3.58-3.86a22.87,22.87,0,0,0,.37-8.74,6,6,0,0,0-5.43-4.56C13.06,18.22,8.25,18.52,9.15,27.59Z"/><path class="cls-2" d="M11,34.12c-.1,1.29-.2,2.77-.24,4.12a3.54,3.54,0,0,0,3.09,3.59h.2c1.6,0,3.49-1.45,3.35-3.05-.09-1-.13-2.09-.13-3a4.17,4.17,0,0,0-2.78-3.91h0A2.62,2.62,0,0,0,11,34.12Z"/><path class="cls-6" d="M3.62,50c3,9.79,4,20,3.37,26.84H29.41s-.13-21-1.63-32.5A8.61,8.61,0,0,0,23,37.72a16.09,16.09,0,0,0-6-1.32H12.93a15.69,15.69,0,0,0-4.37.54C2.44,38.82,1.89,44.31,3.62,50Z"/><path class="cls-7" d="M7.08,90.53S5.15,85.83,7,76.82H29.41s0,6.43,0,13.72Z"/><path class="cls-8" d="M11.51,119.88c1.8-7.3-5.66-8.59-8-3.3C.17,124,.43,147.92.61,152.68c0,.62-.08,1.39.23,1.61a4.79,4.79,0,0,0,2.37.38c.84,0,1.66,0,1.74-1.06C5.52,146.66,9.77,126.95,11.51,119.88Z"/><path class="cls-9" d="M18.21,91.52c.79-9.07-2.8-16.11-8.43-13.12-2.37,1.26-3.23,3.78-3.55,6.15s-2.06,27-2.67,31.5c-1.38,10,6.56,7.34,7.42,4.56C13.15,113.58,17.78,96.46,18.21,91.52Z"/><path class="cls-10" d="M23.13,154.55c2.66-10.35,3.44-29.58,8.35-37.24,3.12-4.87,9.53-3.19,7.38,3.28-2.3,6.91-8.28,19.86-11.42,33.58C27.14,155.51,22.84,155.77,23.13,154.55Z"/><path class="cls-11" d="M31.23,118.5c1.72,2.89,11.46,3.46,7.52-7.73-1.75-5-7.17-22.69-8.1-25.34S28.23,79,26.94,78.8C20.5,78,17.17,87.69,21.5,97.37,24.4,103.84,27.66,112.5,31.23,118.5Z"/><ellipse class="cls-2" cx="21.35" cy="27.31" rx="2.51" ry="1.31" transform="translate(-12 36.74) rotate(-67.77)"/><ellipse class="cls-2" cx="9.26" cy="27.31" rx="1.31" ry="2.51" transform="translate(-9.64 5.53) rotate(-22.23)"/><path class="cls-12" d="M10.29,20.28c1.44,2.16,8.43,2.36,10.7,1.56s2.12-5.2-1.14-5.5c-1.84,0-.51.44-2,1C17.11,17.68,8.75,18,10.29,20.28Z"/><path class="cls-2" d="M54.66,34.57c1.13-.39,10.15-3,9.93-1-.24,2.24-3.59,4.07-4.79,4.54-2.2.87-4.58.06-5.41-1.11C53.8,36.18,53.58,34.95,54.66,34.57Z"/><path class="cls-2" d="M55,34c.39-.39,2.72-2.67,3.18-2.26.7.62-.75,2.19-1.71,3.23-.52.57-1.6,1-2,.5S54.42,34.63,55,34Z"/><path class="cls-13" d="M56.68,37.5c-1,1.5-1.63,1.07-5.8,3.11-5.22,2.55-8.26,3.65-11,4.23-2.54.53-2.57-5.39.67-6.8,2.74-1.19,13.24-2.72,15.05-2.88A1.43,1.43,0,0,1,56.68,37.5Z"/><path class="cls-14" d="M42.39,44.19c-1.31.58-4.43,1.42-12.29,1.45a37.1,37.1,0,0,1-6.84-.32C20.66,45,18.88,42.39,18.91,41c.06-2.28,1.23-4,2.61-3.89,7.79.57,16.38,1.62,18.29,1.42C42.59,38.26,43.95,43.5,42.39,44.19Z"/><path class="cls-15" d="M18.15,19.9c2.15,1.3,2.65,2.44,2.59,5.1s-1.2,7.19-6.09,8.21S8.6,29.36,8.3,26s-.1-5.85,2.37-6.46C14.35,18.66,16.85,19.12,18.15,19.9Z"/><path class="cls-16" d="M172.2,18a11.88,11.88,0,0,1,4.61,11.4,27.12,27.12,0,0,0,.88,12.08c.88,2.74,3.93,11.92-6.88,11.71s-11.48-12.86-10.23-19.34-1-11,.6-13S166.6,13.93,172.2,18Z"/><path class="cls-2" d="M131.39,41.66c-2-1.59-4.05-3.32-4.47-1.52s-.43,1.69,1,3S133.08,43,131.39,41.66Z"/><path class="cls-17" d="M131.32,41.32c1.36.61,10.92,2.54,14.81,3.76l.11,0c1.93-.54,7.25-3.12,14.41-6.3a9.06,9.06,0,0,1,6.39.38c1.28.64,1.7,2.83-.61,4a57.94,57.94,0,0,1-7.69,3.32c-6.51,2.39-10,3.09-11.79,3.26a2.56,2.56,0,0,1-1.22,0,34.13,34.13,0,0,1-10.38-3.94c-3.4-1.78-4.73-1.22-5.27-2.3C129.65,42.61,130.31,40.86,131.32,41.32Z"/><path class="cls-18" d="M174.84,152.24a11.68,11.68,0,0,0-.25,1.94c-.12.78-.84,1.06-1.25,1.7s-1.17,1.84,1.63,1.89c3,.06,4.78-.15,4.27-1.84a8.88,8.88,0,0,1-.57-3,1.89,1.89,0,0,0-.34-1.46C178,151.14,175.29,150.54,174.84,152.24Z"/><path class="cls-19" d="M169.34,31.28c0,.22.38,5,.44,8.63,0,1.79-1.26,3.49-2.55,3.53h-.06c-1.26,0-2.75-1.59-2.64-3.34.2-3.18.05-6.43,0-6.48Z"/><path class="cls-20" d="M173,51.84a62.2,62.2,0,0,0-2.28,10,25.38,25.38,0,0,0,0,7.52c.2,1.5.5,3,.84,4.46.13.56,1.23,5.07,1.28,5.55H152.31c.2-4,4.79-16.7,1.68-24.91-2.15-5.68.71-5.85,2.65-10.59a13.87,13.87,0,0,1,1.64-3.43,5.91,5.91,0,0,1,3.15-1.93,11.67,11.67,0,0,1,1.91-.27c3.48-.28,11.69-1.29,12.46,3.67a8.77,8.77,0,0,1-.41,4c-.46,1.45-1.15,2.81-1.72,4.21C173.44,50.69,173.23,51.26,173,51.84Z"/><path class="cls-21" d="M172.81,92.43s1.78-4.48.08-13.07H152.31a125.88,125.88,0,0,0-.75,13.07Z"/><path class="cls-22" d="M168.75,120.39c-1.65-7,5.2-8.18,7.36-3.15,3.06,7.12,2.81,29.86,2.65,34.4,0,.59-.33.48-.66.36a4.94,4.94,0,0,0-2.18-.41,1.9,1.9,0,0,0-1.15.93C174.13,146.35,170.35,127.12,168.75,120.39Z"/><path class="cls-23" d="M162.6,93.36c-.72-8.64,2.57-15.35,7.74-12.5,2.17,1.2,3,3.6,3.26,5.86s1.89,25.77,2.45,30c1.26,9.58-6,7-6.81,4.34C167.24,114.39,163,98.07,162.6,93.36Z"/><path class="cls-24" d="M150.43,119.94c-.27-6.48,5.81-6.35,7.34-1.07,2.41,8.3-1.75,26.12-2,36.3-1.06-1.76-2.06-2.19-2.53-2.15a1.69,1.69,0,0,0-1.18.66C152.2,140.28,150.72,126.87,150.43,119.94Z"/><path class="cls-25" d="M157.53,120.64c-.81,2.65-7.77,5.71-7-3.93.32-4.27,1.18-27.87,1.35-30.15s.55-5.6,1.65-6c5.5-2.08,10.83,4.71,9.38,13.25C161.9,99.52,159.21,115.15,157.53,120.64Z"/><path class="cls-2" d="M128.24,39.55A7.44,7.44,0,0,0,125.08,38c-.89-.08,1,1,1.74,1.57S129.06,40.18,128.24,39.55Z"/><path class="cls-2" d="M172.06,69.59c-2.51-.51-3.79-1.35-4.94-.72s.54,2.85,1.4,3.21,3.86,1.92,4.75,1.09A2.24,2.24,0,0,0,172.06,69.59Z"/><path class="cls-26" d="M180.5,58.63c-1.43-2.22-4.62-6.41-8.53-11.83a9.06,9.06,0,0,1-.94-6.33c.36-1.39,2.42-2.25,4.05-.22a57.44,57.44,0,0,1,4.83,6.84c4.26,6.81,5.44,10.07,5.81,11.6a1.62,1.62,0,0,1-.69,1.6c0,.08-.09.16-.14.23a34.08,34.08,0,0,1-7.75,7.94c-3,2.41-3,3.85-4.21,3.91-1,.05-2.32-1.25-1.5-2C172.51,69.4,177.74,61.91,180.5,58.63Z"/><path class="cls-2" d="M172.52,28.53c-1,3.95-1.31,4.81-3.32,6.17a9.58,9.58,0,0,1-6.54,1.4c-2.05-.33-3.23-2.74-3.41-4.51a29.53,29.53,0,0,1,1.19-10.34,6.57,6.57,0,0,1,6.67-4C169.93,17.72,175.08,18.89,172.52,28.53Z"/><path class="cls-27" d="M151.79,153.65a7,7,0,0,1-2.92,2.21c-1.56.7-4.86,1-3,1.63a11,11,0,0,0,5.06.07,21.78,21.78,0,0,1,3.41-.21c1.68,0,1.7-.12,1.47-2C155.47,152.73,152.55,152.17,151.79,153.65Z"/><path class="cls-28" d="M161.44,19.25c-2,2.43,8.62,9.18,11.22,9.17s2.81-4.95,1.24-7.72S166.16,13.52,161.44,19.25Z"/><path class="cls-29" d="M165.78,19.26c-.78,2.2-4.84,2.08-5.82,3.85-.61,1.1-.21-2.61,1-4.13S167.34,14.83,165.78,19.26Z"/><ellipse class="cls-2" cx="171.94" cy="28.43" rx="2.75" ry="1.44" transform="translate(80.6 176.85) rotate(-67.78)"/></g></g></svg>