<svg xmlns="http://www.w3.org/2000/svg" xmlns:xlink="http://www.w3.org/1999/xlink" viewBox="0 0 180 185.01"><defs><style>.cls-1{fill:#ed0f0f;opacity:0.1;}.cls-2{fill:none;stroke:#0037ff;stroke-linecap:round;stroke-linejoin:round;}.cls-3{fill:#fff;}.cls-4{fill:#a8a8a8;}.cls-5{fill:#c1c1c1;}.cls-6{fill:url(#Gradient_bez_nazwy_5);}.cls-7{fill:url(#Gradient_bez_nazwy_5-2);}.cls-8{fill:url(#Gradient_bez_nazwy_5-3);}.cls-9{fill:#302720;}</style><linearGradient id="Gradient_bez_nazwy_5" x1="141.52" y1="-24.09" x2="-5.73" y2="180.41" gradientUnits="userSpaceOnUse"><stop offset="0" stop-color="#36078b"/><stop offset="1" stop-color="#16b1ff"/></linearGradient><linearGradient id="Gradient_bez_nazwy_5-2" x1="144.95" y1="-21.62" x2="-2.3" y2="182.88" xlink:href="#Gradient_bez_nazwy_5"/><linearGradient id="Gradient_bez_nazwy_5-3" x1="12.43" y1="86.32" x2="132.39" y2="86.32" xlink:href="#Gradient_bez_nazwy_5"/></defs><title>brand-4</title><g id="Слой_2" data-name="Слой 2"><g id="Objects"><circle class="cls-1" cx="90" cy="92.5" r="90"/><path class="cls-2" d="M146.24,129.95c0,9.22,4.91,19.75,11.44,25.28v7.25l2.86-1.21,2.86,4.52v-7.25c6.52,2,11.44-2.86,11.44-12.08s-4.91-19.75-11.44-25.28V64.3l9.69,5.6V63.44l-3.76-2.17V55.9l3.76,2.17V51.61L163.41,46l-2.86-1.65-2.86-1.65v75.16C151.15,115.87,146.24,120.73,146.24,129.95Zm14.3-3.63c4.92,2.84,8.92,10.47,8.92,17s-4,9.58-8.92,6.74-8.91-10.47-8.91-17S155.62,123.47,160.54,126.32Z"/><polygon class="cls-2" points="169.34 61.27 165.14 63.62 165.14 58.25 169.34 55.9 169.34 61.27"/><polygon class="cls-2" points="163.41 165.79 159.21 168.14 158.12 159.03 163.41 158.54 163.41 165.79"/><polygon class="cls-2" points="165.87 160.23 169.97 157.98 167 156.07 165.87 160.23"/><path class="cls-2" d="M142,132.3c0,9.22,4.91,19.75,11.44,25.28v7.25l2.86-1.21,2.86,4.52v-7.25c6.52,2,11.44-2.86,11.44-12.08s-4.91-19.75-11.44-25.28V66.65l9.69,5.6V65.79l-3.76-2.17V58.25l3.76,2.17V54l-9.69-5.6-2.86-1.65-2.86-1.65v75.16C147,118.22,142,123.08,142,132.3Zm14.3-3.63c4.92,2.84,8.92,10.47,8.92,17s-4,9.58-8.92,6.74-8.91-10.47-8.91-17S151.42,125.82,156.34,128.67Z"/><polygon class="cls-2" points="168.9 72.25 173.1 69.9 173.1 63.44 168.9 65.79 168.9 72.25"/><polygon class="cls-2" points="173.1 51.61 168.9 53.96 168.9 60.42 173.1 58.07 173.1 51.61"/><polygon class="cls-2" points="157.68 42.71 153.48 45.06 168.9 53.96 173.1 51.61 157.68 42.71"/><polygon class="cls-2" points="169.34 61.27 165.14 63.62 168.9 65.79 173.1 63.44 169.34 61.27"/><path class="cls-3" d="M111.46,161s-19.63-10.76-25-14.52c-3.88-2.72-2.67-5-.29-12.78s7.58-21.91,7.58-21.91L89,111s-5.57,17.09-7.56,23.63-2.84,11.16,3.12,14.92c8.1,5.11,26.93,16,26.93,16Z"/><path class="cls-3" d="M93.15,152.84c-4.37-2.68-9.22-4.32-10.71-10.13S84,131.18,86.12,126c2.91-7.16,3.1-14,6.5-21C76.77,106.57,61,118.43,59.83,119.84s-10,34.11-11.17,38.36,0,6.77,7.34,11.16,21.69,11.08,21.69,11.08L110.33,162C105.11,158.89,98.47,156.11,93.15,152.84Z"/><path class="cls-4" d="M77.69,180.44s-20-11.31-25.26-14.6c-4-2.52-2.41-5.32,0-13.06S60,130.87,60,130.87l-4.79-.77s-5.57,17.09-7.56,23.63-3.34,11.62,2.62,15.38c8.1,5.11,27.43,15.9,27.43,15.9Z"/><polygon class="cls-5" points="77.69 180.44 77.69 185.01 111.46 165.56 111.46 160.99 77.69 180.44"/><path class="cls-6" d="M5.16,68v87.5a8.5,8.5,0,0,0,12.74,7.36l103-59.45A8.5,8.5,0,0,0,125.12,96V8.51a8.5,8.5,0,0,0-12.74-7.36L9.41,60.6A8.49,8.49,0,0,0,5.16,68Z"/><polygon class="cls-7" points="9.42 162.83 16.83 167.22 23.49 160.26 10.29 152.19 9.42 162.83"/><path class="cls-8" d="M12.43,72.29v87.5a8.5,8.5,0,0,0,12.74,7.36l103-59.45a8.5,8.5,0,0,0,4.25-7.36V12.84a8.5,8.5,0,0,0-12.74-7.36l-103,59.45A8.5,8.5,0,0,0,12.43,72.29Z"/><polygon class="cls-3" points="23.49 74.18 23.49 156.48 34.57 150.07 34.57 67.77 23.49 74.18"/><polygon class="cls-3" points="122.86 16.75 113.48 22.17 113.48 104.47 122.86 99.05 122.86 16.75"/><polygon class="cls-3" points="34.57 67.77 34.57 150.07 113.48 104.47 113.48 22.17 34.57 67.77"/><path class="cls-3" d="M86.34,127.44l-8.88,5.06c-1.08.61-2,.28-2.07-.74h0a3.66,3.66,0,0,1,1.84-3l8.88-5.06c1.08-.61,2-.28,2.07.74h0A3.66,3.66,0,0,1,86.34,127.44Z"/><polygon class="cls-4" points="118.05 47.11 63.56 78.58 63.56 89.84 118.05 58.37 118.05 47.11"/><path class="cls-9" d="M30,99.92l1.56-.9v7.43l2.71-1.56v1.75L30,109.1Z"/><path class="cls-9" d="M34.74,101.74c0-3,1.28-5.45,3.12-6.52S41,95.15,41,98.13s-1.27,5.53-3.12,6.6S34.74,104.73,34.74,101.74Zm4.65-2.69c0-1.83-.59-2.59-1.53-2s-1.53,2-1.53,3.81.6,2.67,1.53,2.13S39.38,100.89,39.38,99.05Z"/><path class="cls-9" d="M45.32,90.91a1.81,1.81,0,0,1,2.14,0l-.85,1.77a1,1,0,0,0-1.26,0,4.6,4.6,0,0,0-1.81,4c0,1.88.64,2.61,1.94,1.86a2.14,2.14,0,0,0,.73-.7V96.27l-1.14.66V95.24l2.52-1.46V98a7,7,0,0,1-2.31,2.44c-1.86,1.07-3.33.31-3.33-2.78A7.92,7.92,0,0,1,45.32,90.91Z"/><path class="cls-9" d="M49,89l1.56-.9v9.18l-1.56.9Z"/><path class="cls-9" d="M52.13,87.15l1.59-.92,1.79,3.53.69,1.63,0,0c-.07-.93-.2-2.15-.2-3.24V84.89L57.52,84v9.18l-1.59.92-1.79-3.54L53.46,89l0,0c.07,1,.2,2.12.2,3.21v3.25l-1.49.86Z"/><polygon class="cls-4" points="86.14 85.44 86.14 96.7 118.05 78.23 118.05 66.97 86.14 85.44"/><path class="cls-9" d="M30,118.1l2.51-1.45c1.5-.86,2.69-.82,2.69,1.4a5.38,5.38,0,0,1-2.69,4.66l-.95.55v3.11l-1.56.9Zm2.41,3a2.38,2.38,0,0,0,1.26-2.19c0-1-.44-1.05-1.26-.58l-.85.49v2.77Z"/><path class="cls-9" d="M39.09,119.85,37,121.07l-.42,2.42-1.58.91L37.14,114,39,112.91l2.16,7.93-1.64.95Zm-.32-1.44-.17-.75c-.19-.81-.37-1.79-.56-2.63l0,0c-.16,1.06-.35,2.24-.54,3.27l-.17.94Z"/><path class="cls-9" d="M42.33,117.59A1.83,1.83,0,0,0,45,116.13c0-.58-.39-.54-1-.53H43.1c-.72,0-1.39-.37-1.39-1.7a5.17,5.17,0,0,1,2.45-4.14,2,2,0,0,1,2.21-.07l-.78,1.76a1.43,1.43,0,0,0-1.43.09,1.62,1.62,0,0,0-.88,1.34c0,.56.45.5,1.05.47l.88,0c.83,0,1.36.41,1.36,1.71A5.3,5.3,0,0,1,44,119.38a2.43,2.43,0,0,1-2.55.15Z"/><path class="cls-9" d="M48,114.33a1.67,1.67,0,0,0,1.69,0,1.69,1.69,0,0,0,1-1.44c0-.58-.39-.53-1-.53h-.89c-.72,0-1.39-.37-1.39-1.7a5.18,5.18,0,0,1,2.45-4.14,2,2,0,0,1,2.21-.07l-.78,1.76a1.44,1.44,0,0,0-1.43.09,1.63,1.63,0,0,0-.88,1.34c0,.56.45.5,1.05.47l.88,0c.83,0,1.36.41,1.36,1.71a5.29,5.29,0,0,1-2.58,4.33,2.42,2.42,0,0,1-2.55.15Z"/><path class="cls-9" d="M52.7,105l1.59-.92.47,4c.09.9.19,1.82.28,2.73l0,0c.13-1,.26-2.09.4-3.13l.74-4.72,1.32-.76.75,3.86c.14.85.27,1.76.41,2.66l0,0c.09-1,.18-2.06.27-3.06l.47-4.57,1.49-.86-1.22,9.88-1.95,1.12-.68-3.78c-.1-.64-.2-1.33-.27-2l0,0c-.09.72-.17,1.52-.27,2.28l-.65,4.54L54,113.44Z"/><path class="cls-9" d="M61.6,104.4c0-3,1.28-5.45,3.12-6.52s3.12-.07,3.12,2.91-1.26,5.53-3.12,6.6S61.6,107.4,61.6,104.4Zm4.65-2.68c0-1.83-.59-2.59-1.53-2s-1.53,2-1.53,3.81.6,2.66,1.53,2.13S66.25,103.57,66.25,101.72Z"/><path class="cls-9" d="M72.85,102.54,71.53,100l-.84.49v3.31l-1.56.9V95.51l2.48-1.43c1.45-.84,2.66-.86,2.66,1.32A5.13,5.13,0,0,1,73,98.76l1.55,2.78Zm-2.16-3.71.79-.46a2.32,2.32,0,0,0,1.25-2.09c0-.9-.44-1-1.25-.49l-.79.46Z"/><path class="cls-9" d="M75.62,91.77l1.94-1.12C79.66,89.43,81,90,81,93.2s-1.35,5.41-3.36,6.57l-2,1.17Zm1.86,6.43c1.16-.67,2-1.88,2-4.08s-.79-2.41-2-1.75l-.3.17v5.83Z"/></g></g></svg>