<svg xmlns="http://www.w3.org/2000/svg" xmlns:xlink="http://www.w3.org/1999/xlink" viewBox="0 0 187.48 185.01"><defs><style>.cls-1{fill:#ed0f0f;opacity:0.1;}.cls-2{fill:#fff;}.cls-3{fill:#a8a8a8;}.cls-4{fill:#c1c1c1;}.cls-5{fill:url(#Gradient_bez_nazwy_5);}.cls-6{fill:url(#Gradient_bez_nazwy_5-2);}.cls-7{fill:url(#Gradient_bez_nazwy_5-3);}.cls-8,.cls-9{fill:none;stroke:#0037ff;stroke-linecap:round;stroke-linejoin:round;}.cls-9{opacity:0.5;}.cls-10{fill:url(#Gradient_bez_nazwy_5-4);}.cls-11{fill:url(#Gradient_bez_nazwy_5-5);}.cls-12{fill:url(#Gradient_bez_nazwy_5-6);}.cls-13{fill:url(#Gradient_bez_nazwy_5-7);}.cls-14{fill:url(#Gradient_bez_nazwy_5-8);}.cls-15{fill:url(#Gradient_bez_nazwy_5-9);}.cls-16{fill:url(#Gradient_bez_nazwy_5-10);}.cls-17{fill:url(#Gradient_bez_nazwy_5-11);}.cls-18{fill:url(#Gradient_bez_nazwy_5-12);}</style><linearGradient id="Gradient_bez_nazwy_5" x1="136.36" y1="-24.09" x2="-10.89" y2="180.41" gradientUnits="userSpaceOnUse"><stop offset="0" stop-color="#36078b"/><stop offset="1" stop-color="#16b1ff"/></linearGradient><linearGradient id="Gradient_bez_nazwy_5-2" x1="139.79" y1="-21.62" x2="-7.46" y2="182.88" xlink:href="#Gradient_bez_nazwy_5"/><linearGradient id="Gradient_bez_nazwy_5-3" x1="7.27" y1="86.32" x2="127.24" y2="86.32" xlink:href="#Gradient_bez_nazwy_5"/><linearGradient id="Gradient_bez_nazwy_5-4" x1="-51.72" y1="213.36" x2="141.3" y2="-16.29" xlink:href="#Gradient_bez_nazwy_5"/><linearGradient id="Gradient_bez_nazwy_5-5" x1="-38.57" y1="224.41" x2="154.46" y2="-5.24" xlink:href="#Gradient_bez_nazwy_5"/><linearGradient id="Gradient_bez_nazwy_5-6" x1="-50.88" y1="214.07" x2="142.15" y2="-15.58" xlink:href="#Gradient_bez_nazwy_5"/><linearGradient id="Gradient_bez_nazwy_5-7" x1="-38.5" y1="224.47" x2="154.52" y2="-5.18" xlink:href="#Gradient_bez_nazwy_5"/><linearGradient id="Gradient_bez_nazwy_5-8" x1="-42.1" y1="221.45" x2="150.93" y2="-8.2" xlink:href="#Gradient_bez_nazwy_5"/><linearGradient id="Gradient_bez_nazwy_5-9" x1="-28.95" y1="232.5" x2="164.08" y2="2.85" xlink:href="#Gradient_bez_nazwy_5"/><linearGradient id="Gradient_bez_nazwy_5-10" x1="-32.14" y1="229.82" x2="160.89" y2="0.16" xlink:href="#Gradient_bez_nazwy_5"/><linearGradient id="Gradient_bez_nazwy_5-11" x1="-41.25" y1="222.16" x2="151.78" y2="-7.49" xlink:href="#Gradient_bez_nazwy_5"/><linearGradient id="Gradient_bez_nazwy_5-12" x1="-28.88" y1="232.56" x2="164.15" y2="2.91" xlink:href="#Gradient_bez_nazwy_5"/></defs><title>brand-5</title><g id="Слой_2" data-name="Слой 2"><g id="Designed_by_Freepik" data-name="Designed by Freepik"><circle class="cls-1" cx="93.49" cy="92.5" r="90"/></g><g id="Objects"><path class="cls-2" d="M106.3,161s-19.63-10.76-25-14.52c-3.88-2.72-2.67-5-.29-12.78s7.58-21.91,7.58-21.91L83.8,111s-5.57,17.09-7.56,23.63-2.84,11.16,3.12,14.92c8.1,5.11,26.93,16,26.93,16Z"/><path class="cls-2" d="M88,152.84c-4.37-2.68-9.22-4.32-10.71-10.13S78.85,131.18,81,126c2.91-7.16,3.1-14,6.5-21-15.85,1.58-31.67,13.44-32.79,14.86s-10,34.11-11.17,38.36,0,6.77,7.34,11.16,21.69,11.08,21.69,11.08L105.17,162C100,158.89,93.31,156.11,88,152.84Z"/><path class="cls-3" d="M72.54,180.44s-20-11.31-25.26-14.6c-4-2.52-2.41-5.32,0-13.06s7.58-21.91,7.58-21.91L50,130.1s-5.57,17.09-7.56,23.63-3.34,11.62,2.62,15.38c8.1,5.11,27.43,15.9,27.43,15.9Z"/><polygon class="cls-4" points="72.54 180.44 72.54 185.01 106.3 165.56 106.3 160.99 72.54 180.44"/><path class="cls-5" d="M0,68v87.5a8.5,8.5,0,0,0,12.74,7.36l103-59.45A8.5,8.5,0,0,0,120,96V8.51a8.5,8.5,0,0,0-12.74-7.36L4.25,60.6A8.49,8.49,0,0,0,0,68Z"/><polygon class="cls-6" points="4.26 162.83 11.67 167.22 18.33 160.26 5.14 152.19 4.26 162.83"/><path class="cls-7" d="M7.27,72.29v87.5A8.5,8.5,0,0,0,20,167.15l103-59.45a8.5,8.5,0,0,0,4.25-7.36V12.84a8.5,8.5,0,0,0-12.74-7.36l-103,59.45A8.5,8.5,0,0,0,7.27,72.29Z"/><polygon class="cls-2" points="18.33 74.18 18.33 156.48 29.42 150.07 29.42 67.77 18.33 74.18"/><polygon class="cls-2" points="117.7 16.75 108.32 22.17 108.32 104.47 117.7 99.05 117.7 16.75"/><polygon class="cls-2" points="29.42 67.77 29.42 150.07 108.32 104.47 108.32 22.17 29.42 67.77"/><path class="cls-2" d="M81.18,127.44,72.3,132.5c-1.08.61-2,.28-2.07-.74h0a3.66,3.66,0,0,1,1.84-3L81,123.72c1.08-.61,2-.28,2.07.74h0A3.66,3.66,0,0,1,81.18,127.44Z"/><path class="cls-8" d="M181,53.5,165,35.69l-23.5,13.57L118,62.82l-16,36.31s-1.15,38.59,23.44,55.46a43.11,43.11,0,0,0,16.09,6.67C182.59,105.51,181,53.5,181,53.5Z"/><polygon class="cls-8" points="133.35 159.67 124.59 154.04 133.85 149.01 133.35 159.67"/><path class="cls-8" d="M187,57.3,171,39.49l-23.5,13.57-23.5,13.57-16,36.31s-1.6,53.87,39.53,62.13C188.58,109.31,187,57.3,187,57.3Z"/><path class="cls-8" d="M127.68,68.75a3.86,3.86,0,0,1-1.61,3.08c-.89.51-1.61,0-1.61-1.22a3.86,3.86,0,0,1,1.61-3.08C127,67,127.68,67.56,127.68,68.75Z"/><path class="cls-8" d="M127.64,69.29a2.89,2.89,0,0,1-1.21,2.31c-.67.38-1.21,0-1.21-.91a2.89,2.89,0,0,1,1.21-2.31C127.1,68,127.64,68.4,127.64,69.29Z"/><path class="cls-8" d="M114.55,119a3.86,3.86,0,0,1-1.61,3.08c-.89.51-1.61,0-1.61-1.22a3.86,3.86,0,0,1,1.61-3.08C113.83,117.23,114.55,117.78,114.55,119Z"/><path class="cls-8" d="M114.51,119.51a2.89,2.89,0,0,1-1.21,2.31c-.67.38-1.21,0-1.21-.91a2.89,2.89,0,0,1,1.21-2.31C114,118.21,114.51,118.62,114.51,119.51Z"/><path class="cls-8" d="M184,78.74a3.86,3.86,0,0,1-1.61,3.08c-.89.51-1.61,0-1.61-1.22a3.86,3.86,0,0,1,1.61-3.08C183.3,77,184,77.56,184,78.74Z"/><path class="cls-8" d="M184,79.29a2.89,2.89,0,0,1-1.21,2.31c-.67.38-1.21,0-1.21-.91a2.89,2.89,0,0,1,1.21-2.31C183.44,78,184,78.4,184,79.29Z"/><path class="cls-8" d="M179,100.28a3.86,3.86,0,0,1-1.61,3.08c-.89.51-1.61,0-1.61-1.22a3.86,3.86,0,0,1,1.61-3.08C178.31,98.55,179,99.1,179,100.28Z"/><path class="cls-8" d="M179,100.83a2.89,2.89,0,0,1-1.21,2.31c-.67.38-1.21,0-1.21-.91a2.89,2.89,0,0,1,1.21-2.31C178.45,99.53,179,99.94,179,100.83Z"/><path class="cls-8" d="M119.57,134.87A3.86,3.86,0,0,1,118,138c-.89.51-1.61,0-1.61-1.22a3.86,3.86,0,0,1,1.61-3.08C118.85,133.14,119.57,133.69,119.57,134.87Z"/><path class="cls-8" d="M119.53,135.42a2.89,2.89,0,0,1-1.21,2.31c-.67.38-1.21,0-1.21-.91a2.89,2.89,0,0,1,1.21-2.31C119,134.12,119.53,134.53,119.53,135.42Z"/><path class="cls-8" d="M129.66,149.42a3.86,3.86,0,0,1-1.61,3.08c-.89.51-1.61,0-1.61-1.22A3.86,3.86,0,0,1,128,148.2C128.94,147.69,129.66,148.23,129.66,149.42Z"/><path class="cls-8" d="M129.62,150a2.89,2.89,0,0,1-1.21,2.31c-.67.38-1.21,0-1.21-.91a2.89,2.89,0,0,1,1.21-2.31C129.08,148.67,129.62,149.07,129.62,150Z"/><path class="cls-8" d="M168.63,127a3.86,3.86,0,0,1-1.61,3.08c-.89.51-1.61,0-1.61-1.22A3.86,3.86,0,0,1,167,125.8C167.91,125.29,168.63,125.83,168.63,127Z"/><path class="cls-8" d="M168.59,127.56a2.89,2.89,0,0,1-1.21,2.31c-.67.38-1.21,0-1.21-.91a2.89,2.89,0,0,1,1.21-2.31C168,126.26,168.59,126.67,168.59,127.56Z"/><path class="cls-8" d="M149.06,159.25a3.86,3.86,0,0,1-1.61,3.08c-.89.51-1.61,0-1.61-1.22a3.85,3.85,0,0,1,1.61-3.08C148.34,157.52,149.06,158.07,149.06,159.25Z"/><path class="cls-8" d="M149,159.8a2.89,2.89,0,0,1-1.21,2.31c-.67.38-1.21,0-1.21-.91a2.89,2.89,0,0,1,1.21-2.31C148.48,158.5,149,158.91,149,159.8Z"/><path class="cls-8" d="M179,51.44a3.85,3.85,0,0,1-1.61,3.08c-.89.51-1.61,0-1.61-1.22a3.86,3.86,0,0,1,1.61-3.08C178.31,49.71,179,50.25,179,51.44Z"/><path class="cls-8" d="M179,52a2.89,2.89,0,0,1-1.21,2.31c-.67.38-1.21,0-1.21-.91a2.89,2.89,0,0,1,1.21-2.31C178.45,50.69,179,51.1,179,52Z"/><path class="cls-8" d="M185.63,61.62A3.86,3.86,0,0,1,184,64.7c-.89.51-1.61,0-1.61-1.22A3.85,3.85,0,0,1,184,60.41C184.91,59.89,185.63,60.44,185.63,61.62Z"/><path class="cls-8" d="M185.59,62.17a2.89,2.89,0,0,1-1.21,2.31c-.67.38-1.21,0-1.21-.91a2.89,2.89,0,0,1,1.21-2.31C185.05,60.87,185.59,61.28,185.59,62.17Z"/><path class="cls-8" d="M119.57,85.69A3.86,3.86,0,0,1,118,88.77c-.89.51-1.61,0-1.61-1.22A3.86,3.86,0,0,1,118,84.47C118.85,84,119.57,84.5,119.57,85.69Z"/><path class="cls-8" d="M119.53,86.24a2.89,2.89,0,0,1-1.21,2.31c-.67.38-1.21,0-1.21-.91a2.89,2.89,0,0,1,1.21-2.31C119,84.94,119.53,85.35,119.53,86.24Z"/><path class="cls-8" d="M112.61,104.35a3.86,3.86,0,0,1-1.61,3.08c-.89.51-1.61,0-1.61-1.22a3.86,3.86,0,0,1,1.61-3.08C111.89,102.62,112.61,103.17,112.61,104.35Z"/><path class="cls-8" d="M112.57,104.9a2.89,2.89,0,0,1-1.21,2.31c-.67.38-1.21,0-1.21-.91a2.89,2.89,0,0,1,1.21-2.31C112,103.6,112.57,104,112.57,104.9Z"/><path class="cls-8" d="M142.69,60.38a3.86,3.86,0,0,1-1.61,3.08c-.89.51-1.61,0-1.61-1.22a3.86,3.86,0,0,1,1.61-3.08C142,58.65,142.69,59.2,142.69,60.38Z"/><path class="cls-8" d="M142.65,60.93a2.89,2.89,0,0,1-1.21,2.31c-.67.38-1.21,0-1.21-.91A2.89,2.89,0,0,1,141.44,60C142.11,59.63,142.65,60,142.65,60.93Z"/><path class="cls-8" d="M171,44.11a3.86,3.86,0,0,1-1.61,3.08c-.89.51-1.61,0-1.61-1.22a3.86,3.86,0,0,1,1.61-3.08C170.23,42.38,171,42.92,171,44.11Z"/><path class="cls-8" d="M170.91,44.65A2.89,2.89,0,0,1,169.71,47c-.67.38-1.21,0-1.21-.91a2.89,2.89,0,0,1,1.21-2.31C170.37,43.35,170.91,43.76,170.91,44.65Z"/><path class="cls-8" d="M158.54,51.12a3.86,3.86,0,0,1-1.61,3.08c-.89.51-1.61,0-1.61-1.22a3.85,3.85,0,0,1,1.61-3.08C157.82,49.39,158.54,49.94,158.54,51.12Z"/><path class="cls-8" d="M158.5,51.67A2.89,2.89,0,0,1,157.3,54c-.67.38-1.21,0-1.21-.91a2.89,2.89,0,0,1,1.21-2.31C158,50.37,158.5,50.78,158.5,51.67Z"/><path class="cls-8" d="M180.82,62.32l-1.09-1.18c.06,1.49.28,10.06-2.35,23.38-.17.87-.36,1.77-.56,2.67-.45,2.1-1,4.3-1.58,6.59s-1.32,4.8-2.11,7.34c-1.11,3.56-2.41,7.3-3.92,11.2A194.87,194.87,0,0,1,156,139.7c-2.86,4.92-6.05,10-9.63,15.11a44.27,44.27,0,0,1-6-2.17A40.1,40.1,0,0,1,125.23,141a40.26,40.26,0,0,0,16.23,13.07,44.25,44.25,0,0,0,6,2.17c3.58-5.14,6.78-10.19,9.63-15.11a194.91,194.91,0,0,0,13.22-27.37c1.51-3.9,2.81-7.64,3.92-11.2q1.19-3.81,2.11-7.34c.6-2.29,1.13-4.5,1.58-6.59.2-.91.39-1.81.56-2.67C181.38,71.27,180.82,62.32,180.82,62.32Z"/><polygon class="cls-8" points="170.95 39.49 164.96 35.69 117.96 62.82 123.95 66.63 170.95 39.49"/><polygon class="cls-8" points="101.93 99.14 107.92 102.94 123.95 66.63 117.96 62.82 101.93 99.14"/><path class="cls-8" d="M173.09,101.21l-47-27.15L118,92.19l-3.88,8.66s0,.83,0,2.27l47,27.16a192,192,0,0,0,8.11-18C170.7,108.46,172,104.75,173.09,101.21Z"/><path class="cls-8" d="M116.42,121.79c.08.32.18.65.27,1L153.42,144c.88-1.43,1.74-2.86,2.56-4.27,1.86-3.2,3.53-6.33,5.11-9.41l-47-27.16A78.51,78.51,0,0,0,116.42,121.79Z"/><path class="cls-8" d="M130.4,70.89l-3.93,2.27-.4.9,47,27.15,0-.09q1.19-3.81,2.11-7.34c.6-2.29,1.13-4.5,1.58-6.59.2-.91.39-1.81.56-2.67l0-.24L142.32,64Z"/><path class="cls-8" d="M179.73,61.15l-11.3-12.2-4.57,2.64-3.35,1.94-4,2.32-6.71,3.87-2.32,1.34-5.13,3,35.1,20.27C180,71.1,179.79,62.62,179.73,61.15Z"/><path class="cls-8" d="M125.23,141a40.1,40.1,0,0,0,15.13,11.64,44.27,44.27,0,0,0,6,2.17c2.55-3.66,4.9-7.28,7.08-10.83l-36.73-21.21A54.63,54.63,0,0,0,125.23,141Z"/><path class="cls-9" d="M125.23,141a40.1,40.1,0,0,0,15.13,11.64,44.27,44.27,0,0,0,6,2.17c2.55-3.66,4.9-7.28,7.08-10.83l-36.73-21.21A54.63,54.63,0,0,0,125.23,141Z"/><polygon class="cls-10" points="84.7 65.61 29.49 97.52 29.49 102.17 84.7 70.26 84.7 65.61"/><polygon class="cls-11" points="93.26 60.67 93.26 65.31 108.25 56.65 108.25 52 93.26 60.67"/><polygon class="cls-12" points="57.83 91.08 29.49 107.46 29.49 112.11 57.83 95.73 57.83 91.08"/><polygon class="cls-13" points="61.24 89.08 61.24 93.73 108.25 66.59 108.25 61.94 61.24 89.08"/><polygon class="cls-14" points="84.7 85.15 29.49 117.06 29.49 121.71 84.7 89.8 84.7 85.15"/><polygon class="cls-15" points="93.26 80.2 93.26 84.85 108.25 76.19 108.25 71.54 93.26 80.2"/><polygon class="cls-16" points="84.7 105.37 29.49 137.28 29.49 141.93 84.7 110.02 84.7 105.37"/><polygon class="cls-17" points="57.83 110.62 29.49 127 29.49 131.65 57.83 115.27 57.83 110.62"/><polygon class="cls-18" points="61.24 108.62 61.24 113.27 108.25 86.13 108.25 81.48 61.24 108.62"/><path class="cls-8" d="M163.46,110.87l-8.32,4.65-1.56-8.75L140.31,114l-4.46,12.4L127.68,131l20-54.85,7.59-3.58ZM150.08,85.63l-6.84,19.73,9.35-4.94Z"/><path d="M29.46,80.65l1.15,3.54,1-4.82,1.64-1L34.37,82l1.15-4.87,1.74-1-2,7.35-1.75,1-1.1-3.53-1.07,4.79-1.76,1-2-5Z"/><path d="M39.22,75l1.15,3.57,1-4.84,1.64-1,1.08,3.59,1.15-4.89,1.74-1-2,7.37-1.75,1-1.1-3.55-1.07,4.81-1.76,1-2-5.07Z"/><path d="M49,69.3l1.15,3.59,1-4.86,1.64-1,1.08,3.61,1.15-4.9,1.74-1-2,7.4-1.75,1L52,69.62l-1.07,4.82-1.76,1-2-5.11Z"/><path d="M58.84,69.89,56.95,71v-1.9L58.84,68Z"/><path d="M63.86,62.54c-.1-.6-.49-.58-1.18-.19s-1,.78-1,1.17.53.29,1.51-.07,2.41-.86,2.41.57-1.07,2.75-2.83,3.76c-1.55.89-2.88,1-2.9-.56l1.62-.93c.06.72.54.74,1.32.29A1.93,1.93,0,0,0,64,65.16c0-.54-.5-.35-1.39,0-1.1.38-2.54,1-2.54-.46,0-1.23,1-2.49,2.71-3.49,1.42-.82,2.64-1,2.69.47Z"/><path d="M68.41,57.16l-1.7,1V56.68l1.7-1Zm0,7.24-1.7,1v-6.3l1.7-1Z"/><path d="M73.16,56.53l-1.26.72v3c0,.61,0,.89.74.47.18-.1.31-.18.52-.32V61.7c-.47.3-.65.42-1,.64-1.46.84-1.92.71-1.92-.83V58.23l-1,.59V57.65l1-.59V55.14l1.69-1v1.91l1.26-.72Z"/><path d="M76.89,59.73c-1.91,1.09-3.17.49-3.17-1.5a6.38,6.38,0,0,1,3.11-5.17c1.87-1.07,3.06-.36,3.06,1.87v.17l-4.44,2.54c0,1.08.54,1.37,1.45.85a2.67,2.67,0,0,0,1.26-1.64l1.63-.93A6.16,6.16,0,0,1,76.89,59.73Zm-.06-5.4a2.9,2.9,0,0,0-1.38,2.21L78.16,55C78.09,54.25,77.68,53.83,76.83,54.32Z"/><path d="M82.83,56.15l-1.89,1.08V55.31l1.89-1.08Z"/><path d="M87.14,53.85c-1.91,1.09-3.15.49-3.15-1.49a6.25,6.25,0,0,1,3.18-5.23c1.65-.95,2.76-.65,2.9.75l-1.67,1c-.12-.63-.56-.78-1.22-.4a3.24,3.24,0,0,0-1.48,2.91c0,1.27.53,1.7,1.44,1.18a2.68,2.68,0,0,0,1.32-2l1.64-.94A5.82,5.82,0,0,1,87.14,53.85Z"/><path d="M97.3,44.72a6.19,6.19,0,0,1-3.19,5.21c-1.93,1.1-3.2.48-3.2-1.56a6.27,6.27,0,0,1,3.23-5.22C96,42.05,97.3,42.68,97.3,44.72Zm-4.69,2.67c0,1.31.55,1.75,1.5,1.21a3.24,3.24,0,0,0,1.49-2.93c0-1.28-.56-1.71-1.51-1.17A3.23,3.23,0,0,0,92.61,47.39Z"/><path d="M106.23,42.85V39c0-.71-.11-1.26-1-.76a2.39,2.39,0,0,0-1.19,2.22v3.6l-1.7,1v-3.9c0-.68-.13-1.18-.93-.72a2.54,2.54,0,0,0-1.24,2.38v3.47l-1.7,1v-6.4l1.62-.92v.88a4.83,4.83,0,0,1,2-2.18c.82-.46,1.44-.47,1.75.06a5.06,5.06,0,0,1,2-2.21c1.39-.79,2.11-.29,2.11,1.08v4.32Z"/></g></g></svg>