<svg xmlns="http://www.w3.org/2000/svg" xmlns:xlink="http://www.w3.org/1999/xlink" viewBox="0 0 213.83 185.01"><defs><style>.cls-1{fill:#ed0f0f;opacity:0.1;}.cls-2{fill:none;stroke:#0037ff;stroke-linecap:round;stroke-linejoin:round;}.cls-3{fill:url(#Gradient_bez_nazwy_15);}.cls-4{fill:url(#Gradient_bez_nazwy_15-2);}.cls-5{fill:#fff;}.cls-6{fill:#a8a8a8;}.cls-7{fill:#c1c1c1;}.cls-8{fill:url(#Gradient_bez_nazwy_5);}.cls-9{fill:url(#Gradient_bez_nazwy_5-2);}.cls-10{fill:url(#Gradient_bez_nazwy_5-3);}.cls-11{fill:url(#Gradient_bez_nazwy_5-4);}</style><linearGradient id="Gradient_bez_nazwy_15" x1="160.88" y1="89.15" x2="213.13" y2="34.65" gradientUnits="userSpaceOnUse"><stop offset="0" stop-color="#401381"/><stop offset="1" stop-color="#d11137"/></linearGradient><linearGradient id="Gradient_bez_nazwy_15-2" x1="139.12" y1="68.29" x2="191.37" y2="13.79" xlink:href="#Gradient_bez_nazwy_15"/><linearGradient id="Gradient_bez_nazwy_5" x1="181.17" y1="-24.09" x2="33.92" y2="180.41" gradientUnits="userSpaceOnUse"><stop offset="0" stop-color="#36078b"/><stop offset="1" stop-color="#16b1ff"/></linearGradient><linearGradient id="Gradient_bez_nazwy_5-2" x1="184.6" y1="-21.62" x2="37.35" y2="182.88" xlink:href="#Gradient_bez_nazwy_5"/><linearGradient id="Gradient_bez_nazwy_5-3" x1="182.84" y1="-22.89" x2="35.59" y2="181.61" xlink:href="#Gradient_bez_nazwy_5"/><linearGradient id="Gradient_bez_nazwy_5-4" x1="52.08" y1="86.32" x2="172.04" y2="86.32" xlink:href="#Gradient_bez_nazwy_5"/></defs><title>brand-2</title><g id="Слой_2" data-name="Слой 2"><g id="Designed_by_Freepik" data-name="Designed by Freepik"><circle class="cls-1" cx="106.92" cy="92.5" r="90"/></g><g id="Objects"><polygon class="cls-2" points="208.67 53.94 186.12 49.7 186.12 56.43 144.76 80.31 144.76 101.35 186.12 77.47 186.12 84.21 208.67 53.94"/><polygon class="cls-2" points="190.79 80.28 186.12 77.54 186.12 84.27 190.79 87.02 190.79 80.28"/><polygon class="cls-2" points="213.33 56.68 190.79 52.44 190.79 59.18 149.43 83.05 149.43 104.1 190.79 80.22 190.79 86.95 213.33 56.68"/><polygon class="cls-3" points="172.4 70.41 167.74 67.67 167.74 88.71 172.4 91.46 172.4 70.41"/><polygon class="cls-2" points="144.76 80.31 149.43 83.05 190.79 59.18 186.12 56.43 144.76 80.31"/><polygon class="cls-2" points="190.79 52.44 186.12 49.7 186.12 56.43 190.79 59.18 190.79 52.44"/><polygon class="cls-2" points="213.33 56.68 208.67 53.94 186.12 49.7 190.79 52.44 213.33 56.68"/><polygon class="cls-2" points="208.67 10.37 186.12 6.13 186.12 12.87 144.76 36.74 144.76 57.79 186.12 33.91 186.12 40.64 208.67 10.37"/><polygon class="cls-2" points="190.79 36.72 186.12 33.97 186.12 40.7 190.79 43.45 190.79 36.72"/><polygon class="cls-2" points="213.33 13.12 190.79 8.88 190.79 15.61 149.43 39.49 149.43 60.53 190.79 36.66 190.79 43.39 213.33 13.12"/><polygon class="cls-4" points="172.4 26.85 167.74 24.1 167.74 45.15 172.4 47.89 172.4 26.85"/><polygon class="cls-2" points="144.76 36.74 149.43 39.49 190.79 15.61 186.12 12.87 144.76 36.74"/><polygon class="cls-2" points="190.79 8.88 186.12 6.13 186.12 12.87 190.79 15.61 190.79 8.88"/><polygon class="cls-2" points="213.33 13.12 208.67 10.37 186.12 6.13 190.79 8.88 213.33 13.12"/><path class="cls-5" d="M151.1,161s-19.63-10.76-25-14.52c-3.88-2.72-2.67-5-.29-12.78s7.58-21.91,7.58-21.91l-4.79-.77S123,128.1,121,134.64s-2.84,11.16,3.12,14.92c8.1,5.11,26.93,16,26.93,16Z"/><path class="cls-5" d="M132.8,152.84c-4.37-2.68-9.22-4.32-10.71-10.13s1.56-11.54,3.68-16.75c2.91-7.16,3.1-14,6.5-21-15.85,1.58-31.67,13.44-32.79,14.86s-10,34.11-11.17,38.36,0,6.77,7.34,11.16,21.69,11.08,21.69,11.08L150,162C144.76,158.89,138.12,156.11,132.8,152.84Z"/><path class="cls-6" d="M117.34,180.44s-20-11.31-25.26-14.6c-4-2.52-2.41-5.32,0-13.06s7.58-21.91,7.58-21.91l-4.79-.77s-5.57,17.09-7.56,23.63-3.34,11.62,2.62,15.38c8.1,5.11,27.43,15.9,27.43,15.9Z"/><polygon class="cls-7" points="117.34 180.44 117.34 185.01 151.1 165.56 151.1 160.99 117.34 180.44"/><path class="cls-8" d="M44.8,68v87.5a8.5,8.5,0,0,0,12.74,7.36l103-59.45A8.5,8.5,0,0,0,164.77,96V8.51A8.5,8.5,0,0,0,152,1.15L49.05,60.6A8.49,8.49,0,0,0,44.8,68Z"/><polygon class="cls-9" points="49.07 162.83 56.47 167.22 63.13 160.26 49.94 152.19 49.07 162.83"/><polygon class="cls-10" points="160.31 1.04 167.74 5.46 157.91 5.63 160.31 1.04"/><path class="cls-11" d="M52.08,72.29v87.5a8.5,8.5,0,0,0,12.74,7.36l103-59.45a8.5,8.5,0,0,0,4.25-7.36V12.84A8.5,8.5,0,0,0,159.3,5.49l-103,59.45A8.5,8.5,0,0,0,52.08,72.29Z"/><polygon class="cls-5" points="63.13 74.18 63.13 156.48 74.22 150.07 74.22 67.77 63.13 74.18"/><polygon class="cls-5" points="162.5 16.75 153.13 22.17 153.13 104.47 162.5 99.05 162.5 16.75"/><polygon class="cls-5" points="74.22 67.77 74.22 150.07 153.13 104.47 153.13 22.17 74.22 67.77"/><path class="cls-5" d="M126,127.44l-8.88,5.06c-1.08.61-2,.28-2.07-.74h0a3.66,3.66,0,0,1,1.84-3l8.88-5.06c1.08-.61,2-.28,2.07.74h0A3.66,3.66,0,0,1,126,127.44Z"/><path class="cls-2" d="M155.14,52l-14.35,4.48-1.19-14L129.43,55.83l-7.76-5.71L115,64.47l-12.3-2.62L97.27,74.09,86.56,72.26l2.92,14.41L74.88,100.1l11.58,4.83-6.68,18.59,12.86-8.92,8,10.53,7.14-15.91,9,5.41,6.72-14.53,13.7,2.42,1-14,14.46-4.88-6.93-12.9Z"/><path class="cls-2" d="M97.17,98.57l-3,1.76-.61,3.5-2.28,1.32,3.12-15L97,88.55,100.16,100l-2.38,1.37Zm-.46-2.07-.24-1.08c-.28-1.16-.53-2.57-.81-3.8l-.06,0c-.23,1.53-.5,3.23-.78,4.71l-.24,1.36Z"/><path class="cls-2" d="M102.53,87.9l-2.74,1.58V87l7.7-4.45V85l-2.73,1.57V97.33l-2.24,1.29Z"/><path class="cls-2" d="M111,83l-2.74,1.58V82.09l7.7-4.45v2.52l-2.73,1.57V92.46L111,93.75Z"/><path class="cls-2" d="M121.53,84.5l-3,1.76-.61,3.5-2.29,1.32,3.12-15,2.68-1.55,3.12,11.43-2.37,1.37Zm-.46-2.07-.24-1.08c-.27-1.16-.53-2.57-.81-3.8l-.06,0c-.23,1.53-.5,3.23-.78,4.71l-.24,1.36Z"/><path class="cls-2" d="M129.66,69.48a2.51,2.51,0,0,1,2.94,0l-1.23,2.56a1.42,1.42,0,0,0-1.67,0c-1.39.8-2.47,3-2.47,5.69s1,3.75,2.41,2.92a5,5,0,0,0,1.89-2.27l1.23,1.1a8.31,8.31,0,0,1-3.15,3.77c-2.57,1.49-4.67.36-4.67-4.08S127.1,71,129.66,69.48Z"/><path class="cls-2" d="M134.22,67.09l2.25-1.3v5.42l0,0,3-7.14,2.45-1.41-3,7,3.56,5.9L140,77l-2.41-4.19-1.16,2.7V79l-2.25,1.3Z"/><polygon class="cls-2" points="44.4 141.53 21.86 137.29 21.86 144.03 0.5 156.34 0.5 177.39 21.86 165.07 21.86 171.8 44.4 141.53"/><polygon class="cls-2" points="26.52 167.88 21.86 165.13 21.86 171.87 26.52 174.61 26.52 167.88"/><polygon class="cls-2" points="49.07 144.28 26.52 140.04 26.52 146.77 5.17 159.09 5.17 180.13 26.52 167.82 26.52 174.55 49.07 144.28"/><polygon class="cls-2" points="5.17 159.09 0.5 156.34 0.5 177.39 5.17 180.13 5.17 159.09"/><polygon class="cls-2" points="0.5 156.34 5.17 159.09 26.52 146.77 21.86 144.03 0.5 156.34"/><polygon class="cls-2" points="26.52 140.04 21.86 137.29 21.86 144.03 26.52 146.77 26.52 140.04"/><polygon class="cls-2" points="49.07 144.28 44.4 141.53 21.86 137.29 26.52 140.04 49.07 144.28"/><polygon class="cls-2" points="44.4 97.97 21.86 93.73 21.86 100.46 0.5 112.78 0.5 133.82 21.86 121.51 21.86 128.24 44.4 97.97"/><polygon class="cls-2" points="26.52 124.31 21.86 121.57 21.86 128.3 26.52 131.05 26.52 124.31"/><polygon class="cls-2" points="49.07 100.71 26.52 96.47 26.52 103.21 5.17 115.53 5.17 136.57 26.52 124.25 26.52 130.99 49.07 100.71"/><polygon class="cls-2" points="5.17 115.53 0.5 112.78 0.5 133.82 5.17 136.57 5.17 115.53"/><polygon class="cls-2" points="0.5 112.78 5.17 115.53 26.52 103.21 21.86 100.46 0.5 112.78"/><polygon class="cls-2" points="26.52 96.47 21.86 93.73 21.86 100.46 26.52 103.21 26.52 96.47"/><polygon class="cls-2" points="49.07 100.71 44.4 97.97 21.86 93.73 26.52 96.47 49.07 100.71"/></g></g></svg>