<svg xmlns="http://www.w3.org/2000/svg" xmlns:xlink="http://www.w3.org/1999/xlink" viewBox="0 0 180 185.01"><defs><style>.cls-1{fill:#ed0f0f;opacity:0.1;}.cls-2{fill:#fff;}.cls-3{fill:#a8a8a8;}.cls-4{fill:#c1c1c1;}.cls-5{fill:url(#Gradient_bez_nazwy_5);}.cls-6{fill:url(#Gradient_bez_nazwy_5-2);}.cls-7{fill:url(#Gradient_bez_nazwy_5-3);}.cls-8{fill:none;stroke:#0037ff;stroke-linecap:round;stroke-linejoin:round;}</style><linearGradient id="Gradient_bez_nazwy_5" x1="137.22" y1="-24.09" x2="-10.03" y2="180.41" gradientUnits="userSpaceOnUse"><stop offset="0" stop-color="#36078b"/><stop offset="1" stop-color="#16b1ff"/></linearGradient><linearGradient id="Gradient_bez_nazwy_5-2" x1="140.66" y1="-21.62" x2="-6.59" y2="182.88" xlink:href="#Gradient_bez_nazwy_5"/><linearGradient id="Gradient_bez_nazwy_5-3" x1="8.14" y1="86.32" x2="128.1" y2="86.32" xlink:href="#Gradient_bez_nazwy_5"/></defs><title>brand-6</title><g id="Слой_2" data-name="Слой 2"><g id="Designed_by_Freepik" data-name="Designed by Freepik"><circle class="cls-1" cx="90" cy="92.5" r="90"/></g><g id="Objects"><path class="cls-2" d="M107.16,161s-19.63-10.76-25-14.52c-3.88-2.72-2.67-5-.29-12.78s7.58-21.91,7.58-21.91L84.67,111s-5.57,17.09-7.56,23.63-2.84,11.16,3.12,14.92c8.1,5.11,26.93,16,26.93,16Z"/><path class="cls-2" d="M88.86,152.84c-4.37-2.68-9.22-4.32-10.71-10.13s1.56-11.54,3.68-16.75c2.91-7.16,3.1-14,6.5-21-15.85,1.58-31.67,13.44-32.79,14.86s-10,34.11-11.17,38.36,0,6.77,7.34,11.16S73.4,180.44,73.4,180.44L106,162C100.82,158.89,94.18,156.11,88.86,152.84Z"/><path class="cls-3" d="M73.4,180.44s-20-11.31-25.26-14.6c-4-2.52-2.41-5.32,0-13.06s7.58-21.91,7.58-21.91l-4.79-.77s-5.57,17.09-7.56,23.63S40,165.35,46,169.1C54.07,174.21,73.4,185,73.4,185Z"/><polygon class="cls-4" points="73.4 180.44 73.4 185.01 107.16 165.56 107.16 160.99 73.4 180.44"/><path class="cls-5" d="M.86,68v87.5a8.5,8.5,0,0,0,12.74,7.36l103-59.45A8.5,8.5,0,0,0,120.82,96V8.51a8.5,8.5,0,0,0-12.74-7.36L5.11,60.6A8.49,8.49,0,0,0,.86,68Z"/><polygon class="cls-6" points="5.13 162.83 12.53 167.22 19.19 160.26 6 152.19 5.13 162.83"/><path class="cls-7" d="M8.14,72.29v87.5a8.5,8.5,0,0,0,12.74,7.36l103-59.45a8.5,8.5,0,0,0,4.25-7.36V12.84a8.5,8.5,0,0,0-12.74-7.36l-103,59.45A8.5,8.5,0,0,0,8.14,72.29Z"/><polygon class="cls-2" points="19.19 74.18 19.19 156.48 30.28 150.07 30.28 67.77 19.19 74.18"/><polygon class="cls-2" points="118.56 16.75 109.18 22.17 109.18 104.47 118.56 99.05 118.56 16.75"/><polygon class="cls-2" points="30.28 67.77 30.28 150.07 109.18 104.47 109.18 22.17 30.28 67.77"/><path class="cls-2" d="M82,127.44l-8.88,5.06c-1.08.61-2,.28-2.07-.74h0a3.66,3.66,0,0,1,1.84-3l8.88-5.06c1.08-.61,2-.28,2.07.74h0A3.66,3.66,0,0,1,82,127.44Z"/><path class="cls-8" d="M140.47,156.38c14.75-8.51,26.74-31.44,26.74-51.1V79.58c0-5.49-3.35-8-7.47-5.64L121.19,96.19c-4.12,2.38-7.47,8.78-7.47,14.27v25.7C113.73,155.82,125.72,164.89,140.47,156.38Z"/><polygon class="cls-8" points="135.51 164.94 123.39 158 120.98 148.73 136.75 160.3 135.51 164.94"/><polygon class="cls-8" points="176.1 80.17 164.09 73.3 158.63 78.08 162.56 89.26 176.1 80.17"/><path class="cls-8" d="M152.39,163.21c14.75-8.51,26.74-31.44,26.74-51.1V86.41c0-5.49-3.35-8-7.47-5.64L133.12,103c-4.12,2.38-7.47,8.78-7.47,14.27V143C125.65,162.66,137.65,171.73,152.39,163.21Z"/><path class="cls-8" d="M152.39,159.16c.62-.36,1.23-.77,1.84-1.19,12.26-8.34,21.86-27.72,21.86-44.11V88.16c0-2.49-1.19-4-3-3.85a3.67,3.67,0,0,0-1.47.5l-38.56,22.26c-2.44,1.41-4.43,5.21-4.43,8.46v25.7a32.41,32.41,0,0,0,1.42,9.89,20.08,20.08,0,0,0,2.25,4.84,15.29,15.29,0,0,0,1.5,2,12.87,12.87,0,0,0,2.9,2.37,12.4,12.4,0,0,0,8.34,1.53A20.66,20.66,0,0,0,152.39,159.16Z"/><path class="cls-8" d="M133.11,108.72l10.66-6.16,4-2.29L150,99l4-2.29,9.77-5.64,8-4.6a2.65,2.65,0,0,1,1.06-.35c1.24-.13,2.14.91,2.14,2.77v25.7c0,15.76-9.13,33.93-20.73,41.82-.58.39-1.16.79-1.75,1.13h0a19.56,19.56,0,0,1-6.92,2.53,11.79,11.79,0,0,1-7.91-1.46,12.06,12.06,0,0,1-2.75-2.25,14.51,14.51,0,0,1-1.42-1.86,19,19,0,0,1-2.13-4.59,30.66,30.66,0,0,1-1.35-9.37v-25.7A7.66,7.66,0,0,1,133.11,108.72Z"/><path class="cls-8" d="M139.71,143c0,9.29,5.65,13.56,12.62,9.54s12.62-14.82,12.62-24.11-5.65-13.56-12.62-9.54S139.71,133.74,139.71,143Z"/><path class="cls-8" d="M147.86,133.57c0,3.68,2.24,5.37,5,3.77s5-5.86,5-9.54-2.24-5.37-5-3.77S147.86,129.89,147.86,133.57Z"/><path class="cls-8" d="M167.51,96c0,1.59,1,2.32,2.16,1.63a5.18,5.18,0,0,0,2.16-4.13c0-1.59-1-2.32-2.16-1.63A5.18,5.18,0,0,0,167.51,96Z"/><path class="cls-8" d="M133.35,115.52c0,1.59,1,2.32,2.16,1.63a5.18,5.18,0,0,0,2.16-4.13c0-1.59-1-2.32-2.16-1.63A5.18,5.18,0,0,0,133.35,115.52Z"/><polygon class="cls-8" points="151.23 131.89 152.78 131 154.32 130.11 155.49 144.94 152.78 146.5 150.06 148.07 151.23 131.89"/><polygon class="cls-8" points="162.46 40.62 158.62 38.21 158.15 40.62 162.46 40.62"/><path class="cls-8" d="M159.83,80.75V56.15c0-10.14-6.19-14.81-13.79-10.42s-13.79,16.21-13.79,26.35v24.6l-5,2.25,0-24C127.23,61.14,135.67,45,146,39s18.81.39,18.81,14.22V78.73Z"/><path class="cls-8" d="M159.85,80.73c0-1,1.38-1.86,3.22-2.07V82.8C161.23,82.58,159.85,81.74,159.85,80.73Z"/><path class="cls-8" d="M127.27,98.92c0-1,1.37-1.85,3.21-2.07V101C128.64,100.78,127.27,99.94,127.27,98.92Z"/><path class="cls-8" d="M135.51,98.92s0,0,0,.07v-.14S135.51,98.9,135.51,98.92Z"/><path class="cls-8" d="M131.39,96.8a7.81,7.81,0,0,0-.91.06V77c0-13.83,8.44-29.95,18.81-35.94s18.81.39,18.81,14.22V80.73c0-1.17-1.84-2.12-4.12-2.12a7.82,7.82,0,0,0-.9.05V58.14c0-10.14-6.19-14.81-13.79-10.42S135.5,63.92,135.5,74.06V98.85C135.42,97.71,133.62,96.8,131.39,96.8Z"/><path class="cls-8" d="M168.09,80.73c0,1.17-1.84,2.12-4.12,2.12a7.86,7.86,0,0,1-.9-.05V78.66a7.82,7.82,0,0,1,.9-.05C166.25,78.6,168.09,79.55,168.09,80.73Z"/><path class="cls-8" d="M131.39,96.8c2.23,0,4,.91,4.11,2.05V99c-.07,1.14-1.88,2.05-4.11,2.05a7.81,7.81,0,0,1-.91-.06V96.86A7.81,7.81,0,0,1,131.39,96.8Z"/><polygon class="cls-8" points="61.42 115.99 57.93 118 57.94 113.35 61.42 111.35 61.42 115.99"/><polygon class="cls-8" points="68.05 112.18 64.56 114.18 64.57 109.54 68.05 107.53 68.05 112.18"/><polygon class="cls-8" points="74.67 108.36 71.19 110.37 71.2 105.72 74.68 103.72 74.67 108.36"/><polygon class="cls-8" points="64.77 120.95 61.29 122.96 61.3 118.32 64.78 116.31 64.77 120.95"/><polygon class="cls-8" points="71.4 117.14 67.92 119.14 67.92 114.5 71.41 112.5 71.4 117.14"/><polygon class="cls-8" points="78.03 113.33 74.55 115.33 74.55 110.69 78.04 108.68 78.03 113.33"/><polygon class="cls-8" points="81.3 104.55 77.82 106.55 77.83 101.91 81.31 99.91 81.3 104.55"/><path class="cls-8" d="M87.15,66.83c0-7.69-1.75-13.61-17.41-4.6-16.09,9.26-17.44,17-17.45,24.66,0,8.1-1,13,0,21.54.61,5.62,3,7.49,5.69,6.13l11.74-6.75,11.73-6.75c2.71-1.77,5.08-6.36,5.71-12.69C88.07,78.74,87.14,74.93,87.15,66.83ZM61.32,99c-2.44,1.4-4.59,2.87-4.58-3.47,0-3.58.67-6.66,4.72-9,3.47-2,3.88.11,3.88,4.82S63.76,97.65,61.32,99Zm8.36,3.89c-.77.44-2.93,1.6-2.92-.05s1-7.34,2.93-8.45,2.92,3.43,2.92,5.08S70.45,102.49,69.68,102.93Zm8.55-13.62c-2.44,1.4-4,1.68-4-3S74.65,79,78.12,77c4.05-2.33,4.71,0,4.71,3.57C82.82,86.9,80.66,87.91,78.23,89.32Z"/><path class="cls-8" d="M61.29,122.38c0,2,.89,3.08,2,2.46L76,117.49c1.09-.63,2-2.76,2-4.74Z"/><path class="cls-8" d="M109.84,35.57c-1.26-1.67-3.46.61-4.19,1.23.39-1.07,2.29-3.75.59-6-.9-1.19-3.55-.59-6,3.1a13.57,13.57,0,0,0-2.07,9.64L89.25,57v9.08l12.13-18.3c1.45.31,4.17.22,6.67-3.56S110.74,36.76,109.84,35.57Z"/><path class="cls-8" d="M108,82.28c-2.5-.9-5.22,2.14-6.67,4.12L89.22,82v9.08l8.89,3.21c-.32,2.39-.44,6.37,2.06,7.27s5.09-1.57,6-3.8c1.7-4.2-.19-4.69-.58-5.32a5.38,5.38,0,0,0,4.19-3.6C110.67,86.65,110.43,83.16,108,82.28Z"/><path class="cls-8" d="M50.26,79.45l-8.89-3.21c.32-2.39.44-6.37-2.06-7.27s-5.09,1.57-6,3.8c-1.7,4.2.19,4.69.58,5.32a5.38,5.38,0,0,0-4.19,3.6c-.9,2.23-.66,5.72,1.78,6.6s5.22-2.14,6.67-4.12l12.1,4.36Z"/><path class="cls-8" d="M50.22,104.48,38.1,122.78c-1.45-.31-4.17-.22-6.67,3.56s-2.7,7.47-1.8,8.66c1.26,1.67,3.46-.61,4.19-1.23-.39,1.07-2.29,3.75-.59,6,.9,1.19,3.55.59,6-3.1A13.57,13.57,0,0,0,41.29,127l8.93-13.47Z"/></g></g></svg>