<svg xmlns="http://www.w3.org/2000/svg" xmlns:xlink="http://www.w3.org/1999/xlink" viewBox="0 0 180 185.01"><defs><style>.cls-1{fill:#ed0f0f;opacity:0.1;}.cls-2{fill:#fff;}.cls-3{fill:#a8a8a8;}.cls-4{fill:#c1c1c1;}.cls-5{fill:url(#Gradient_bez_nazwy_5);}.cls-6{fill:url(#Gradient_bez_nazwy_5-2);}.cls-7{fill:url(#Gradient_bez_nazwy_5-3);}.cls-8{fill:url(#Gradient_bez_nazwy_15);}.cls-9{fill:url(#Gradient_bez_nazwy_5-4);}.cls-10{fill:url(#Gradient_bez_nazwy_5-5);}.cls-11{fill:url(#Gradient_bez_nazwy_5-6);}.cls-12{fill:url(#Gradient_bez_nazwy_5-7);}.cls-13{fill:url(#Gradient_bez_nazwy_5-8);}.cls-14{fill:none;stroke:#0037ff;stroke-linecap:round;stroke-linejoin:round;}</style><linearGradient id="Gradient_bez_nazwy_5" x1="144.79" y1="-24.09" x2="-2.46" y2="180.41" gradientUnits="userSpaceOnUse"><stop offset="0" stop-color="#36078b"/><stop offset="1" stop-color="#16b1ff"/></linearGradient><linearGradient id="Gradient_bez_nazwy_5-2" x1="148.22" y1="-21.62" x2="0.97" y2="182.88" xlink:href="#Gradient_bez_nazwy_5"/><linearGradient id="Gradient_bez_nazwy_5-3" x1="15.7" y1="86.32" x2="135.67" y2="86.32" xlink:href="#Gradient_bez_nazwy_5"/><linearGradient id="Gradient_bez_nazwy_15" x1="26.76" y1="53.17" x2="126.13" y2="53.17" gradientUnits="userSpaceOnUse"><stop offset="0" stop-color="#401381"/><stop offset="1" stop-color="#d11137"/></linearGradient><linearGradient id="Gradient_bez_nazwy_5-4" x1="-43.42" y1="205.59" x2="149.61" y2="-24.06" xlink:href="#Gradient_bez_nazwy_5"/><linearGradient id="Gradient_bez_nazwy_5-5" x1="-30.27" y1="216.65" x2="162.76" y2="-13" xlink:href="#Gradient_bez_nazwy_5"/><linearGradient id="Gradient_bez_nazwy_5-6" x1="-42.57" y1="206.31" x2="150.45" y2="-23.35" xlink:href="#Gradient_bez_nazwy_5"/><linearGradient id="Gradient_bez_nazwy_5-7" x1="-32.95" y1="214.39" x2="160.08" y2="-15.26" xlink:href="#Gradient_bez_nazwy_5"/><linearGradient id="Gradient_bez_nazwy_5-8" x1="-32.95" y1="227.92" x2="160.08" y2="-1.73" xlink:href="#Gradient_bez_nazwy_5"/></defs><title>brand-3</title><g id="Слой_2" data-name="Слой 2"><g id="Designed_by_Freepik" data-name="Designed by Freepik"><circle class="cls-1" cx="90" cy="92.5" r="90"/></g><g id="Objects"><path class="cls-2" d="M114.73,161s-19.63-10.76-25-14.52c-3.88-2.72-2.67-5-.29-12.78S97,111.78,97,111.78L92.23,111s-5.57,17.09-7.56,23.63-2.84,11.16,3.12,14.92c8.1,5.11,26.93,16,26.93,16Z"/><path class="cls-2" d="M96.42,152.84c-4.37-2.68-9.22-4.32-10.71-10.13S87.27,131.18,89.4,126c2.91-7.16,3.1-14,6.5-21C80,106.57,64.22,118.43,63.11,119.84s-10,34.11-11.17,38.36,0,6.77,7.34,11.16S81,180.44,81,180.44L113.6,162C108.38,158.89,101.74,156.11,96.42,152.84Z"/><path class="cls-3" d="M81,180.44s-20-11.31-25.26-14.6c-4-2.52-2.41-5.32,0-13.06s7.58-21.91,7.58-21.91l-4.79-.77s-5.57,17.09-7.56,23.63-3.34,11.62,2.62,15.38C61.64,174.21,81,185,81,185Z"/><polygon class="cls-4" points="80.97 180.44 80.97 185.01 114.73 165.56 114.73 160.99 80.97 180.44"/><path class="cls-5" d="M8.43,68v87.5a8.5,8.5,0,0,0,12.74,7.36l103-59.45A8.5,8.5,0,0,0,128.39,96V8.51a8.5,8.5,0,0,0-12.74-7.36L12.68,60.6A8.49,8.49,0,0,0,8.43,68Z"/><polygon class="cls-6" points="12.69 162.83 20.1 167.22 26.76 160.26 13.57 152.19 12.69 162.83"/><path class="cls-7" d="M15.7,72.29v87.5a8.5,8.5,0,0,0,12.74,7.36l103-59.45a8.5,8.5,0,0,0,4.25-7.36V12.84a8.5,8.5,0,0,0-12.74-7.36L20,64.94A8.5,8.5,0,0,0,15.7,72.29Z"/><polygon class="cls-2" points="26.76 74.18 26.76 156.48 37.85 150.07 37.85 67.77 26.76 74.18"/><polygon class="cls-2" points="126.13 16.75 116.75 22.17 116.75 104.47 126.13 99.05 126.13 16.75"/><polygon class="cls-2" points="37.85 67.77 37.85 150.07 116.75 104.47 116.75 22.17 37.85 67.77"/><path class="cls-2" d="M89.61,127.44l-8.88,5.06c-1.08.61-2,.28-2.07-.74h0a3.66,3.66,0,0,1,1.84-3l8.88-5.06c1.08-.61,2-.28,2.07.74h0A3.66,3.66,0,0,1,89.61,127.44Z"/><polygon class="cls-8" points="26.76 74.17 26.76 89.59 126.13 32.17 126.13 16.75 26.76 74.17"/><polygon class="cls-9" points="93 57.85 37.79 89.76 37.79 94.41 93 62.5 93 57.85"/><polygon class="cls-10" points="101.56 52.9 101.56 57.55 116.55 48.89 116.55 44.24 101.56 52.9"/><polygon class="cls-11" points="66.14 83.32 37.79 99.7 37.79 104.35 66.14 87.97 66.14 83.32"/><polygon class="cls-12" points="66.14 102.86 37.79 119.24 37.79 123.89 66.14 107.5 66.14 102.86"/><polygon class="cls-13" points="66.14 116.38 37.79 132.76 37.79 137.41 66.14 121.03 66.14 116.38"/><path class="cls-2" d="M35.93,72.38l1.53-.88v9l-1.53.88Z"/><path class="cls-2" d="M39,70.59l1.56-.9,1.76,3.45.67,1.6,0,0c-.07-.91-.2-2.11-.2-3.17V68.38l1.45-.84v9l-1.56.9L41,74l-.66-1.58,0,0c.07,1,.2,2.08.2,3.14v3.18L39,79.58Z"/><path class="cls-2" d="M47.22,67.57l-1.86,1.07V66.94l5.23-3v1.71L48.74,66.7V74l-1.52.88Z"/><path class="cls-2" d="M51.63,63.31l4.23-2.44v1.71l-2.7,1.56v1.81l2.29-1.32v1.69l-2.29,1.32v2.07L56,68.09V69.8l-4.33,2.5Z"/><path class="cls-2" d="M60.93,66.94l-1.29-2.49-.83.48v3.24L57.28,69v-9l2.43-1.4c1.42-.82,2.6-.84,2.6,1.3a5,5,0,0,1-1.2,3.28L62.63,66Zm-2.12-3.63.77-.45a2.28,2.28,0,0,0,1.23-2c0-.88-.43-.94-1.23-.48l-.77.45Z"/><path class="cls-2" d="M63.64,56.38l1.56-.9L67,58.94l.67,1.6,0,0c-.07-.91-.2-2.11-.2-3.17V54.17l1.45-.83v9l-1.56.9L65.6,59.76l-.66-1.58,0,0c.07,1,.2,2.08.2,3.14v3.18l-1.46.84Z"/><path class="cls-2" d="M70.5,52.42,74.73,50v1.71L72,53.25v1.81l2.29-1.32v1.69L72,56.75v2.07l2.8-1.62v1.71l-4.33,2.5Z"/><path class="cls-2" d="M77.47,50.11l-1.86,1.07V49.47l5.23-3v1.71L79,49.23v7.28l-1.52.88Z"/><path class="cls-2" d="M84,44.61l1.61-.93,1.13,3.39.4,1.34,0,0,.4-1.8,1.1-4.67L90.33,41v9l-1.43.82v-3.3c0-.88.12-2.26.2-3.17l0,0-.55,2.4-1,4.09-.61.35-1-2.89-.54-1.77,0,0c.07.83.2,2.06.2,2.95v3.3L84,53.6Z"/><path class="cls-2" d="M91.58,44.7c0-2.94,1.25-5.34,3.06-6.38s3.06-.07,3.06,2.85-1.24,5.42-3.06,6.47S91.58,47.64,91.58,44.7Zm4.56-2.63c0-1.79-.58-2.53-1.5-2s-1.5,1.94-1.5,3.73.59,2.61,1.5,2.09S96.14,43.88,96.14,42.07Z"/><path class="cls-2" d="M99,36l1.56-.9,1.75,3.45.67,1.6,0,0c-.07-.91-.2-2.11-.2-3.17V33.78l1.45-.84v9l-1.56.9-1.76-3.47-.66-1.58,0,0c.07,1,.2,2.08.2,3.14v3.18L99,45Z"/><path class="cls-2" d="M105.82,32,110,29.59V31.3l-2.7,1.56v1.81l2.29-1.32V35l-2.29,1.32v2.07l2.8-1.62v1.71L105.82,41Z"/><path class="cls-2" d="M112.63,33.89l-2-4.62,1.62-.94.61,1.71c.18.58.35,1.09.55,1.67l0,0c.18-.8.38-1.53.57-2.31l.6-2.41,1.59-.92-2,7v3.2l-1.52.88Z"/><polygon class="cls-14" points="77.28 119.49 166.83 171.19 166.83 118.5 77.28 66.8 77.28 119.49"/><path class="cls-14" d="M80.24,110.05V79.65c2.45.26,4.4-1.16,5.32-3.85l73,42.14a22.8,22.8,0,0,0,5.32,10v30.4c-2.45-.26-4.4,1.16-5.32,3.85l-73-42.14A22.8,22.8,0,0,0,80.24,110.05Z"/><path class="cls-14" d="M109.88,109.18c0,9,5.45,19.37,12.17,23.25s12.17-.24,12.17-9.2-5.45-19.37-12.17-23.25S109.88,100.22,109.88,109.18Z"/><path class="cls-14" d="M142.54,130.82c0,4.34,2.64,9.37,5.89,11.25s5.89-.12,5.89-4.45-2.64-9.37-5.89-11.25S142.54,126.49,142.54,130.82Z"/><path class="cls-14" d="M144.44,132c0,2.9,1.76,6.26,3.93,7.52s3.93-.08,3.93-3-1.76-6.26-3.93-7.52S144.44,129.05,144.44,132Z"/><path class="cls-14" d="M90,100.47c0,4.34,2.64,9.37,5.89,11.25s5.89-.12,5.89-4.45S99.11,97.89,95.85,96,90,96.13,90,100.47Z"/><path class="cls-14" d="M91.92,101.6c0,2.9,1.76,6.26,3.93,7.52s3.93-.08,3.93-3S98,99.88,95.85,98.62,91.92,98.7,91.92,101.6Z"/><polygon class="cls-14" points="166.83 171.19 171.57 168.34 171.57 115.9 166.83 118.5 166.83 171.19"/><polygon class="cls-14" points="171.57 115.9 166.83 118.5 77.28 66.8 81.95 64.12 171.57 115.9"/><polygon class="cls-14" points="159.53 124.8 159.53 127.61 137.34 114.73 137.34 111.97 159.53 124.8"/><polygon class="cls-14" points="108.49 95.33 108.49 98.15 86.3 85.27 86.3 82.51 108.49 95.33"/><polygon class="cls-14" points="157.84 156.06 157.84 158.88 88.23 118.97 88.23 116.21 157.84 156.06"/><path class="cls-14" d="M124.12,113.53a5.22,5.22,0,0,0-1.84-2.36c-.81-.47-1.25-.23-1.25.94,0,2.47,4.45,4.83,4.45,9.79,0,2.49-.89,3.9-2.63,3.47v2.7l-1.63-.94v-2.6a11.21,11.21,0,0,1-3-3.69l1.08-1.95a7.68,7.68,0,0,0,2.41,2.9c.94.55,1.37.19,1.37-1,0-2.67-4.45-5.19-4.45-9.86,0-2.54,1-3.74,2.56-3.32v-2.67l1.63.94v2.62a9.45,9.45,0,0,1,2.51,3.58Z"/></g></g></svg>