<svg xmlns="http://www.w3.org/2000/svg" xmlns:xlink="http://www.w3.org/1999/xlink" viewBox="0 0 180 185.01"><defs><style>.cls-1{fill:#ed0f0f;opacity:0.1;}.cls-2{fill:#fff;}.cls-3{fill:#a8a8a8;}.cls-4{fill:#c1c1c1;}.cls-5{fill:url(#Gradient_bez_nazwy_5);}.cls-6{fill:url(#Gradient_bez_nazwy_5-2);}.cls-7{fill:url(#Gradient_bez_nazwy_5-3);}.cls-8{fill:url(#Gradient_bez_nazwy_5-4);}.cls-9{fill:none;stroke:#0037ff;stroke-linecap:round;stroke-linejoin:round;}</style><linearGradient id="Gradient_bez_nazwy_5" x1="162.74" y1="-24.09" x2="15.49" y2="180.41" gradientUnits="userSpaceOnUse"><stop offset="0" stop-color="#36078b"/><stop offset="1" stop-color="#16b1ff"/></linearGradient><linearGradient id="Gradient_bez_nazwy_5-2" x1="166.18" y1="-21.62" x2="18.93" y2="182.88" xlink:href="#Gradient_bez_nazwy_5"/><linearGradient id="Gradient_bez_nazwy_5-3" x1="164.42" y1="-22.89" x2="17.17" y2="181.61" xlink:href="#Gradient_bez_nazwy_5"/><linearGradient id="Gradient_bez_nazwy_5-4" x1="33.66" y1="86.32" x2="153.62" y2="86.32" xlink:href="#Gradient_bez_nazwy_5"/></defs><title>brand-1</title><g id="Слой_2" data-name="Слой 2"><g id="Designed_by_Freepik" data-name="Designed by Freepik"><circle class="cls-1" cx="90" cy="92.5" r="90"/></g><g id="Objects"><path class="cls-2" d="M132.68,161s-19.63-10.76-25-14.52c-3.88-2.72-2.67-5-.29-12.78S115,111.78,115,111.78l-4.79-.77s-5.57,17.09-7.56,23.63-2.84,11.16,3.12,14.92c8.1,5.11,26.93,16,26.93,16Z"/><path class="cls-2" d="M114.38,152.84c-4.37-2.68-9.22-4.32-10.71-10.13s1.56-11.54,3.68-16.75c2.91-7.16,3.1-14,6.5-21C98,106.57,82.18,118.43,81.06,119.84s-10,34.11-11.17,38.36,0,6.77,7.34,11.16,21.69,11.08,21.69,11.08L131.56,162C126.34,158.89,119.69,156.11,114.38,152.84Z"/><path class="cls-3" d="M98.92,180.44s-20-11.31-25.26-14.6c-4-2.52-2.41-5.32,0-13.06s7.58-21.91,7.58-21.91l-4.79-.77s-5.57,17.09-7.56,23.63-3.34,11.62,2.62,15.38c8.1,5.11,27.43,15.9,27.43,15.9Z"/><polygon class="cls-4" points="98.92 180.44 98.92 185.01 132.68 165.56 132.68 160.99 98.92 180.44"/><path class="cls-5" d="M26.38,68v87.5a8.5,8.5,0,0,0,12.74,7.36l103-59.45A8.5,8.5,0,0,0,146.34,96V8.51A8.5,8.5,0,0,0,133.6,1.15L30.63,60.6A8.49,8.49,0,0,0,26.38,68Z"/><polygon class="cls-6" points="30.64 162.83 38.05 167.22 44.71 160.26 31.52 152.19 30.64 162.83"/><polygon class="cls-7" points="141.89 1.04 149.32 5.46 139.49 5.63 141.89 1.04"/><path class="cls-8" d="M33.66,72.29v87.5a8.5,8.5,0,0,0,12.74,7.36l103-59.45a8.5,8.5,0,0,0,4.25-7.36V12.84a8.5,8.5,0,0,0-12.74-7.36L37.9,64.94A8.5,8.5,0,0,0,33.66,72.29Z"/><polygon class="cls-2" points="44.71 74.18 44.71 156.48 55.8 150.07 55.8 67.77 44.71 74.18"/><polygon class="cls-2" points="144.08 16.75 134.7 22.17 134.7 104.47 144.08 99.05 144.08 16.75"/><polygon class="cls-2" points="55.8 67.77 55.8 150.07 134.7 104.47 134.7 22.17 55.8 67.77"/><path class="cls-2" d="M107.57,127.44l-8.88,5.06c-1.08.61-2,.28-2.07-.74h0a3.66,3.66,0,0,1,1.84-3l8.88-5.06c1.08-.61,2-.28,2.07.74h0A3.66,3.66,0,0,1,107.57,127.44Z"/><path class="cls-9" d="M80,117.22l5.75-3.32v2.33l-3.67,2.12v2.46l3.12-1.8v2.31l-3.12,1.8v2.81l3.81-2.2V126L80,129.44Z"/><path class="cls-9" d="M92.67,122.15l-1.76-3.39-1.12.65v4.41L87.72,125V112.78l3.3-1.91c1.94-1.12,3.54-1.14,3.54,1.76a6.83,6.83,0,0,1-1.63,4.47l2.07,3.7Zm-2.88-4.94,1.05-.61a3.1,3.1,0,0,0,1.67-2.78c0-1.2-.59-1.27-1.67-.65l-1.05.61Z"/><path class="cls-9" d="M101.32,117.16l-1.76-3.39-1.12.65v4.41L96.36,120V107.79l3.3-1.91c1.94-1.12,3.54-1.14,3.54,1.76a6.83,6.83,0,0,1-1.63,4.47l2.07,3.7Zm-2.88-4.94,1.05-.61a3.1,3.1,0,0,0,1.67-2.78c0-1.2-.59-1.27-1.67-.65l-1.05.61Z"/><path class="cls-9" d="M104.58,109.11c0-4,1.7-7.26,4.16-8.68s4.16-.09,4.16,3.88-1.69,7.37-4.16,8.8S104.58,113.1,104.58,109.11Zm6.2-3.58c0-2.44-.79-3.45-2-2.72s-2,2.64-2,5.08.8,3.55,2,2.84S110.77,108,110.77,105.53Z"/><path class="cls-9" d="M119.58,106.62l-1.76-3.39-1.12.65v4.41l-2.08,1.2V97.25l3.3-1.91c1.94-1.12,3.54-1.14,3.54,1.76a6.83,6.83,0,0,1-1.63,4.47l2.07,3.7Zm-2.88-4.94,1.05-.61a3.1,3.1,0,0,0,1.67-2.78c0-1.2-.59-1.27-1.67-.65l-1.05.61Z"/><path class="cls-9" d="M95.93,30.77l-26.65,77.1c-1.18,3.42.3,6,2.67,4.61L98.59,97.09l26.65-15.38c2.37-1.37,3.85-5.63,2.67-7.69L101.26,27.69C100.07,25.63,97.11,27.35,95.93,30.77Z"/><polygon class="cls-9" points="100.52 26.96 104.43 29.27 101.23 31.75 100.52 26.96"/><path class="cls-9" d="M99.79,33l-26.65,77.1c-1.18,3.42.3,6,2.67,4.61l26.65-15.38L129.11,84c2.37-1.37,3.85-5.63,2.67-7.69L105.12,30C103.94,27.91,101,29.62,99.79,33Z"/><path class="cls-9" d="M81.26,106.76a1.83,1.83,0,0,1-1.19-.43c-1-.8-1.19-2.52-.55-4.37l21.07-61c.68-2,2.12-3.43,3.49-3.56a1.92,1.92,0,0,1,1.89,1L127,75.09c1.11,1.93-.16,5.7-2.34,7L82.56,106.38A2.61,2.61,0,0,1,81.26,106.76Zm23-68h-.08c-.74.07-1.84,1.1-2.4,2.7l-21.07,61c-.5,1.44-.3,2.58.15,3,.24.2.59.17,1-.08l42.14-24.33c1.57-.91,2.64-3.87,1.87-5.2L104.85,39.11A.63.63,0,0,0,104.29,38.73Z"/><path class="cls-9" d="M103.31,78.77c2.14-1.23,3.73.08,3.73,3s-1.59,6.06-3.73,7.29-3.73-.08-3.73-3S101.17,80,103.31,78.77Zm-2.89-18.66-.21-7.3,6.2-3.58-.21,7.55-.88,17.59-4,2.32Z"/></g></g></svg>