<svg xmlns="http://www.w3.org/2000/svg" xmlns:xlink="http://www.w3.org/1999/xlink" viewBox="0 0 450.01 348.06"><defs><style>.cls-1{fill:none;}.cls-2{isolation:isolate;}.cls-3,.cls-4,.cls-56{opacity:0.2;}.cls-3{fill:url(#Gradient_bez_nazwy_15);}.cls-4{fill:url(#Gradient_bez_nazwy_5);}.cls-5{fill:url(#Gradient_bez_nazwy_5-2);}.cls-6{fill:url(#Gradient_bez_nazwy_4);}.cls-7{fill:url(#Gradient_bez_nazwy_4-2);}.cls-8{fill:url(#Gradient_bez_nazwy_4-3);}.cls-9{fill:url(#Gradient_bez_nazwy_4-4);}.cls-10{fill:url(#Gradient_bez_nazwy_4-5);}.cls-11{fill:url(#Gradient_bez_nazwy_4-6);}.cls-12{fill:url(#Gradient_bez_nazwy_4-7);}.cls-13{fill:url(#Gradient_bez_nazwy_4-8);}.cls-14{fill:url(#Gradient_bez_nazwy_5-3);}.cls-15{fill:url(#Gradient_bez_nazwy_5-4);}.cls-16{fill:url(#Gradient_bez_nazwy_5-5);}.cls-17{fill:url(#Gradient_bez_nazwy_5-6);}.cls-18{fill:url(#Gradient_bez_nazwy_14);}.cls-19{fill:url(#Gradient_bez_nazwy_9);}.cls-20{fill:url(#Gradient_bez_nazwy_5-7);}.cls-21{fill:url(#Gradient_bez_nazwy_9-2);}.cls-22{fill:url(#Gradient_bez_nazwy_5-8);}.cls-23{fill:url(#Gradient_bez_nazwy_9-3);}.cls-24{fill:url(#Безымянный_градиент_7);}.cls-25{fill:url(#Gradient_bez_nazwy_9-4);}.cls-26{fill:url(#Gradient_bez_nazwy_5-9);}.cls-27{fill:url(#Gradient_bez_nazwy_5-10);}.cls-28{fill:url(#Gradient_bez_nazwy_5-11);}.cls-29{fill:url(#Gradient_bez_nazwy_5-12);}.cls-30{fill:url(#Gradient_bez_nazwy_8);}.cls-31{fill:url(#Gradient_bez_nazwy_8-2);}.cls-32{fill:#0056c5;}.cls-33{fill:#0036ac;}.cls-34{fill:url(#Gradient_bez_nazwy_2);}.cls-35{fill:url(#Gradient_bez_nazwy_2-2);}.cls-36{fill:url(#Gradient_bez_nazwy_5-13);}.cls-37{fill:#e6eff1;}.cls-38{fill:#0c375a;}.cls-39{fill:url(#Безымянный_градиент_7-2);}.cls-40{fill:#fff;opacity:0.5;}.cls-41{fill:url(#Gradient_bez_nazwy_5-14);}.cls-42{fill:url(#Gradient_bez_nazwy_5-15);}.cls-43{fill:url(#Gradient_bez_nazwy_4-9);}.cls-44{fill:#ed9169;}.cls-45{fill:url(#Gradient_bez_nazwy_5-16);}.cls-46{fill:url(#Gradient_bez_nazwy_7);}.cls-47{fill:url(#Gradient_bez_nazwy_7-2);}.cls-48{fill:url(#Gradient_bez_nazwy_7-3);}.cls-49{fill:url(#Gradient_bez_nazwy_7-4);}.cls-50{fill:url(#Gradient_bez_nazwy_7-5);}.cls-51{fill:url(#Gradient_bez_nazwy_5-17);}.cls-52{fill:#ffaf84;}.cls-53{fill:url(#Gradient_bez_nazwy_4-10);}.cls-54{fill:url(#Gradient_bez_nazwy_4-11);}.cls-55{clip-path:url(#clip-path);}.cls-56{mix-blend-mode:multiply;fill:url(#Gradient_bez_nazwy_3);}</style><linearGradient id="Gradient_bez_nazwy_15" x1="-536.06" y1="-28.57" x2="-536.06" y2="-140.57" gradientTransform="matrix(-0.58, 0.81, -0.81, -0.58, -224.55, 497.69)" gradientUnits="userSpaceOnUse"><stop offset="0" stop-color="#401381"/><stop offset="1" stop-color="#d11137"/></linearGradient><linearGradient id="Gradient_bez_nazwy_5" x1="-552.32" y1="-16.93" x2="-552.32" y2="-128.93" gradientTransform="matrix(-0.58, 0.81, -0.81, -0.58, -224.55, 497.69)" gradientUnits="userSpaceOnUse"><stop offset="0" stop-color="#36078b"/><stop offset="1" stop-color="#16b1ff"/></linearGradient><linearGradient id="Gradient_bez_nazwy_5-2" x1="-3708.05" y1="562.17" x2="-3647.9" y2="605.16" gradientTransform="translate(3909.47 378.61) rotate(12.76)" xlink:href="#Gradient_bez_nazwy_5"/><linearGradient id="Gradient_bez_nazwy_4" x1="527.24" y1="807.31" x2="477.46" y2="675.73" gradientTransform="translate(-597.07 -229.53) rotate(-25.94)" gradientUnits="userSpaceOnUse"><stop offset="0" stop-color="#2c27ce"/><stop offset="0.65" stop-color="#ef1d68"/><stop offset="1" stop-color="#efba92"/></linearGradient><linearGradient id="Gradient_bez_nazwy_4-2" x1="-3587.21" y1="804.2" x2="-3545.73" y2="728.58" gradientTransform="matrix(-0.9, 0.44, 0.44, 0.9, -3345.46, 1106.89)" xlink:href="#Gradient_bez_nazwy_4"/><linearGradient id="Gradient_bez_nazwy_4-3" x1="-3557.51" y1="763.21" x2="-3551.12" y2="751.56" gradientTransform="matrix(-0.9, 0.44, 0.44, 0.9, -3345.46, 1106.89)" xlink:href="#Gradient_bez_nazwy_4"/><linearGradient id="Gradient_bez_nazwy_4-4" x1="-3553.07" y1="745.72" x2="-3549.04" y2="735.18" gradientTransform="matrix(-0.9, 0.44, 0.44, 0.9, -3345.46, 1106.89)" xlink:href="#Gradient_bez_nazwy_4"/><linearGradient id="Gradient_bez_nazwy_4-5" x1="-3575.9" y1="756.78" x2="-3575.87" y2="746.94" gradientTransform="matrix(-0.9, 0.44, 0.44, 0.9, -3345.46, 1106.89)" xlink:href="#Gradient_bez_nazwy_4"/><linearGradient id="Gradient_bez_nazwy_4-6" x1="-3562.46" y1="783.23" x2="-3553.99" y2="767.79" gradientTransform="matrix(-0.9, 0.44, 0.44, 0.9, -3345.46, 1106.89)" xlink:href="#Gradient_bez_nazwy_4"/><linearGradient id="Gradient_bez_nazwy_4-7" x1="-3586.26" y1="775.11" x2="-3586.22" y2="759.56" gradientTransform="matrix(-0.9, 0.44, 0.44, 0.9, -3345.46, 1106.89)" xlink:href="#Gradient_bez_nazwy_4"/><linearGradient id="Gradient_bez_nazwy_4-8" x1="-3567.27" y1="740.06" x2="-3565.59" y2="732.55" gradientTransform="matrix(-0.9, 0.44, 0.44, 0.9, -3345.46, 1106.89)" xlink:href="#Gradient_bez_nazwy_4"/><linearGradient id="Gradient_bez_nazwy_5-3" x1="-51.18" y1="-147.35" x2="-27.38" y2="-172.85" gradientTransform="matrix(0.87, 0.49, -0.49, 0.87, 278.41, 342.78)" xlink:href="#Gradient_bez_nazwy_5"/><linearGradient id="Gradient_bez_nazwy_5-4" x1="325.71" y1="476.77" x2="349.5" y2="451.27" gradientTransform="translate(41.8 -332.12) rotate(7.96)" xlink:href="#Gradient_bez_nazwy_5"/><linearGradient id="Gradient_bez_nazwy_5-5" x1="442.34" y1="1373.78" x2="463.88" y2="1350.7" gradientTransform="matrix(0.95, -0.32, 0.32, 0.95, -565.89, -977.19)" xlink:href="#Gradient_bez_nazwy_5"/><linearGradient id="Gradient_bez_nazwy_5-6" x1="159.11" y1="2208.37" x2="178.46" y2="2187.64" gradientTransform="translate(-1374.84 -1279.85) rotate(-44.68)" xlink:href="#Gradient_bez_nazwy_5"/><linearGradient id="Gradient_bez_nazwy_14" x1="158.49" y1="120.02" x2="243.86" y2="28.53" gradientTransform="translate(186.65 -14.97) rotate(18.37)" gradientUnits="userSpaceOnUse"><stop offset="0" stop-color="#f70f47"/><stop offset="1" stop-color="#ffb41d"/></linearGradient><linearGradient id="Gradient_bez_nazwy_9" x1="-188.21" y1="-148.58" x2="-117.3" y2="-260.74" gradientTransform="matrix(0.87, 0.5, -0.5, 0.87, 349.42, 407.71)" gradientUnits="userSpaceOnUse"><stop offset="0.48" stop-color="#36078b"/><stop offset="1" stop-color="#16b1ff"/></linearGradient><linearGradient id="Gradient_bez_nazwy_5-7" x1="-2658.64" y1="-480.32" x2="-2593.66" y2="-549.96" gradientTransform="matrix(-0.75, -0.66, -0.66, 0.75, -1995.71, -1269.51)" xlink:href="#Gradient_bez_nazwy_5"/><linearGradient id="Gradient_bez_nazwy_9-2" x1="-138.24" y1="-146.79" x2="-214.78" y2="-267.85" xlink:href="#Gradient_bez_nazwy_9"/><linearGradient id="Gradient_bez_nazwy_5-8" x1="182.71" y1="198.19" x2="302.2" y2="70.13" gradientTransform="translate(220.85 -114.65) rotate(14)" xlink:href="#Gradient_bez_nazwy_5"/><linearGradient id="Gradient_bez_nazwy_9-3" x1="-182.01" y1="-147.87" x2="-76.23" y2="-340.73" xlink:href="#Gradient_bez_nazwy_9"/><linearGradient id="Безымянный_градиент_7" x1="-195.43" y1="-287.85" x2="-109.22" y2="-380.24" gradientTransform="translate(355.83 510.79) rotate(32.85)" gradientUnits="userSpaceOnUse"><stop offset="0" stop-color="#dd001e"/><stop offset="0.42" stop-color="#ab0639"/><stop offset="1" stop-color="#221783"/></linearGradient><linearGradient id="Gradient_bez_nazwy_9-4" x1="-171.1" y1="-151.95" x2="-55.41" y2="-257.6" xlink:href="#Gradient_bez_nazwy_9"/><linearGradient id="Gradient_bez_nazwy_5-9" x1="-110.3" y1="-275.41" x2="-97.37" y2="-298.99" gradientTransform="matrix(0.87, 0.5, -0.5, 0.87, 349.42, 407.71)" xlink:href="#Gradient_bez_nazwy_5"/><linearGradient id="Gradient_bez_nazwy_5-10" x1="-105.55" y1="-299.53" x2="-97.38" y2="-320.89" gradientTransform="matrix(0.87, 0.5, -0.5, 0.87, 349.42, 407.71)" xlink:href="#Gradient_bez_nazwy_5"/><linearGradient id="Gradient_bez_nazwy_5-11" x1="-147.83" y1="-288.64" x2="-147.77" y2="-308.87" gradientTransform="matrix(0.87, 0.5, -0.5, 0.87, 349.42, 407.71)" xlink:href="#Gradient_bez_nazwy_5"/><linearGradient id="Gradient_bez_nazwy_5-12" x1="-134.12" y1="-312.55" x2="-130.68" y2="-327.94" gradientTransform="matrix(0.87, 0.5, -0.5, 0.87, 349.42, 407.71)" xlink:href="#Gradient_bez_nazwy_5"/><linearGradient id="Gradient_bez_nazwy_8" x1="-152.58" y1="-170.97" x2="-152.58" y2="-134.63" gradientTransform="matrix(0.87, 0.5, -0.5, 0.87, 349.42, 407.71)" gradientUnits="userSpaceOnUse"><stop offset="0" stop-color="#2c27ce"/><stop offset="1" stop-color="#ef1d68"/></linearGradient><linearGradient id="Gradient_bez_nazwy_8-2" x1="-152.58" y1="-161.7" x2="-152.58" y2="-177.52" xlink:href="#Gradient_bez_nazwy_8"/><linearGradient id="Gradient_bez_nazwy_2" x1="257.17" y1="60.62" x2="300.46" y2="60.62" gradientUnits="userSpaceOnUse"><stop offset="0" stop-color="#f70f47"/><stop offset="1" stop-color="#9e005d"/></linearGradient><linearGradient id="Gradient_bez_nazwy_2-2" x1="172.63" y1="106.28" x2="202.07" y2="106.28" gradientTransform="translate(130.03 -101.35) rotate(45)" xlink:href="#Gradient_bez_nazwy_2"/><linearGradient id="Gradient_bez_nazwy_5-13" x1="173.76" y1="186.19" x2="383.87" y2="186.19" gradientTransform="matrix(1, 0, 0, 1, 0, 0)" xlink:href="#Gradient_bez_nazwy_5"/><linearGradient id="Безымянный_градиент_7-2" x1="231.56" y1="162.42" x2="386.23" y2="234.42" gradientTransform="matrix(1, 0, 0, 1, 0, 0)" xlink:href="#Безымянный_градиент_7"/><linearGradient id="Gradient_bez_nazwy_5-14" x1="427.18" y1="231.8" x2="430.82" y2="183.53" gradientTransform="matrix(-1, 0.04, 0.04, 1, 599.72, 54.94)" xlink:href="#Gradient_bez_nazwy_5"/><linearGradient id="Gradient_bez_nazwy_5-15" x1="498.06" y1="237.15" x2="501.71" y2="188.88" gradientTransform="matrix(-1, 0.04, 0.04, 1, 599.72, 54.94)" xlink:href="#Gradient_bez_nazwy_5"/><linearGradient id="Gradient_bez_nazwy_4-9" x1="405.05" y1="11.15" x2="450.57" y2="-39.79" gradientTransform="matrix(-1, 0.04, 0.04, 1, 599.72, 54.94)" xlink:href="#Gradient_bez_nazwy_4"/><linearGradient id="Gradient_bez_nazwy_5-16" x1="-3540.67" y1="86.41" x2="-3425.4" y2="-1.72" gradientTransform="matrix(1, -0.04, 0.04, 1, 3654.21, -59.98)" xlink:href="#Gradient_bez_nazwy_5"/><linearGradient id="Gradient_bez_nazwy_7" x1="417.93" y1="224.5" x2="439.06" y2="134.01" gradientTransform="matrix(-1, 0.04, 0.04, 1, 599.72, 54.94)" gradientUnits="userSpaceOnUse"><stop offset="0" stop-color="#ff664f"/><stop offset="1" stop-color="#9e005d"/></linearGradient><linearGradient id="Gradient_bez_nazwy_7-2" x1="465.39" y1="260.68" x2="492.84" y2="143.13" xlink:href="#Gradient_bez_nazwy_7"/><linearGradient id="Gradient_bez_nazwy_7-3" x1="437.36" y1="229.04" x2="458.49" y2="138.55" xlink:href="#Gradient_bez_nazwy_7"/><linearGradient id="Gradient_bez_nazwy_7-4" x1="417.25" y1="240.99" x2="442.66" y2="132.18" xlink:href="#Gradient_bez_nazwy_7"/><linearGradient id="Gradient_bez_nazwy_7-5" x1="409.78" y1="222.6" x2="430.92" y2="132.11" xlink:href="#Gradient_bez_nazwy_7"/><linearGradient id="Gradient_bez_nazwy_5-17" x1="406.11" y1="70.07" x2="476.73" y2="-5.61" gradientTransform="matrix(-1, 0.04, 0.04, 1, 597.68, 55.02)" xlink:href="#Gradient_bez_nazwy_5"/><linearGradient id="Gradient_bez_nazwy_4-10" x1="411.59" y1="16.99" x2="457.11" y2="-33.94" gradientTransform="matrix(-1, 0.04, 0.04, 1, 599.72, 54.94)" xlink:href="#Gradient_bez_nazwy_4"/><linearGradient id="Gradient_bez_nazwy_4-11" x1="401.03" y1="7.55" x2="446.55" y2="-43.38" gradientTransform="matrix(-1, 0.04, 0.04, 1, 599.72, 54.94)" xlink:href="#Gradient_bez_nazwy_4"/><clipPath id="clip-path"><path class="cls-1" d="M99.46,287.55a5,5,0,0,1,.77-2.39c-.1-.21,0-.49.34-.89,5.62-5.86,19.08-46.28,32.27-56.89,0-.41,0-.82.09-1.26.8-8.12,2.68-40.64,3.16-46.24a66.66,66.66,0,0,1,.9-14.76c3.29-12.29,4.49-42.22,2.24-61.06-.07-.56-.12-1.13-.16-1.69-.32-4.2,0-8.89,2.52-12.44a9.93,9.93,0,0,1,1.52-1.66,6.45,6.45,0,0,1,.51-.42c2.92-2.3,6.92-3,10.64-2.95.38,0,.75,0,1.13.06,1-2.43,2.16-5,3.19-7.24a9.31,9.31,0,0,1-.93-5.27c-1.08-.55-2-2.23-2.36-4.33-.4-2.71.42-5.08,1.84-5.29a1.42,1.42,0,0,1,.59,0c-.08-1.83.82-3.83,2.52-6.93,1.22-2.22,2.42-3,3.67-2.87-1.45-4.89,14.37-1.61,15.94-1.84,3.14-.46.79-1.93,4.31-1.06,5.5,1.9,4.61,9,.93,10.71,1.16,2.6-.9,5.86-2.47,7.83a50.13,50.13,0,0,1-4.35,12.43c-1.56,2.81-5.2,6-8.85,5.11-.24-.06-.49-.14-.73-.22-.15.41-.29.83-.44,1.26a25.14,25.14,0,0,1,6.89,3,17,17,0,0,1,7.3,10.11,42.69,42.69,0,0,1,.56,12.94l-.32,3.67q.17,2.79.35,5.57a173.58,173.58,0,0,0,16.92,8.27,1.93,1.93,0,0,1,1.66-.17c1.62.51,7.7,2.07,9.3,4l.15.07c.9.42,6.23,2.92,5.77,3.77-.7,1.28-4.28-.22-6.66-1.2l0,0a7.26,7.26,0,0,1-7.17,1.92,8.91,8.91,0,0,1-3.15-1.36c-3,.67-6.48-.76-13.57-2.65l-2.24-.6a10.75,10.75,0,0,0,1,3.64,8.68,8.68,0,0,0,1.14,1.51c3.62,4.22,6,9.09,8.37,14,1.83,3.75,3.36,8.55,6.11,11.75a2.56,2.56,0,0,1,.5.93c2,.46,4.31,1,5.73,1.18,2,.3,1.42,4.79.29,5.52-1.68,1.08-7.4,2-8.64-.22s-3.63-1.71-4.08-4a3.59,3.59,0,0,1,0-1.51c-1.79-1.05-3.78-2.84-6.84-6.39-2.74-3.18-5.32-6.47-7.9-9.77-.66,7.34-1.09,12.18-1.09,12.18s1.68,10.34,2.35,22.7c1.11,11.88,2.93,31.77,3.64,37.86a27.68,27.68,0,0,1,.19,2.94c0,.07,0,.14,0,.21.58,11.27-1.11,36.56-6.28,62.53a4.14,4.14,0,0,1,.41,1.44,16.52,16.52,0,0,0,5.47,3.39c3.19,1.24,9.88,1.62,6.23,2.95s-8,.77-10.2.52a46.14,46.14,0,0,0-6.9-.14c-3.4.11-3.43-.09-3.12-3.81,0-.17,0-.32.08-.48l0,0c.88-13.91-5.79-45.86-2.39-64.07-3.53-10.14-7.07-25.16-9.38-35.81-1.23,9.86-7.21,27.59-10.48,39.79a7.23,7.23,0,0,1-3.52,3.83,24.12,24.12,0,0,1-2.32,2.78c-9.39,9.63-24.31,37.55-33.78,48.4a8,8,0,0,0,3.74,3.92c3.19,1.23,8.87,2.67,5.21,4s-8,.77-10.2.52-2.72-3-5-4.14C98.69,291.08,99.14,291.26,99.46,287.55Z"/></clipPath><linearGradient id="Gradient_bez_nazwy_3" x1="874.8" y1="-126.48" x2="1098.77" y2="11.13" gradientTransform="matrix(-0.65, -0.7, 0.36, -0.62, 755.1, 830.59)" gradientUnits="userSpaceOnUse"><stop offset="0" stop-color="blue"/><stop offset="1" stop-color="#9e005d"/></linearGradient></defs><title>быстрый результат</title><g class="cls-2"><g id="Слой_2" data-name="Слой 2"><g id="Designed_by_Freepik" data-name="Designed by Freepik"><path class="cls-3" d="M10.27,214.07c-25.76-41.07,2-67.46,28-69.72,36.9-3.2,46,14.94,64.08-40.17C115.7,63.5,160.16,43,193.85,76.1c47.09,46.2,57-18.85,81.62-39C326.35-4.4,351.84,35,398.93,97.24,447.28,161.12,447,218.5,414.59,280.47c-23.94,45.76-56.12,77.75-96.3,64.61-57.7-18.86-37.92-79.86-80.63-47C212.1,317.78,158.84,333,137,268.92S47.36,273.22,10.27,214.07Z"/><path class="cls-4" d="M10.27,194.07c-25.76-41.07,2-67.46,28-69.72,36.9-3.2,46,14.94,64.08-40.17C115.7,43.5,160.16,23,193.85,56.1c47.09,46.2,57-18.85,81.62-39C326.35-24.4,351.84,15,398.93,77.24,447.28,141.12,447,198.5,414.59,260.47c-23.94,45.76-56.12,77.75-96.3,64.61-57.7-18.86-37.92-79.86-80.63-47C212.1,297.78,158.84,313,137,248.92S47.36,253.22,10.27,194.07Z"/><path class="cls-5" d="M200.14,159.18c-2.75-3.2-4.29-8-6.11-11.75-2.42-5-4.75-9.82-8.37-14a8.68,8.68,0,0,1-1.14-1.51c-1-1.9-1.06-4.89-1.28-7-.25-2.35-.39-4.71-.55-7.07-.44-6.8-.81-13.6-1.34-20.39-.2-2.56-4.65-7.31-8.65-6.27-4.44,1.16-5.75,3.12-5.66,8a93.05,93.05,0,0,0,1.37,15.37C170,125,172.3,136.18,179,144.75c2.64,3.37,5.27,6.74,8.08,10,5.23,6.06,7.34,7,10.63,7.87C200.4,163.31,201.6,160.88,200.14,159.18Z"/><path class="cls-6" d="M159.82,193.57c-9.64,2.72-9,10.51-5.33,14.41,5.23,5.52,9.14,4,4.3,14.85-3.57,8,.44,17.17,10.19,16.76,13.63-.58,6.16,10.64,7.16,17.06,2.08,13.25,11.45,10.75,27.29,7.73,16.27-3.1,24.16-11.85,27.74-25.69,2.65-10.22,2.12-19.47-5.87-23-11.48-5-16.87,6.95-18.89-3.88-1.21-6.48-7.29-16.06-19.52-9.32S173.7,189.65,159.82,193.57Z"/><path class="cls-7" d="M227.61,266.22l-1.78-3-3.56-6.05c-1.26-2-2.62-3.89-3.92-5.83l-2-2.91c-.68-1-1.43-1.86-2.14-2.79-1.45-1.85-2.86-3.72-4.34-5.54a150.16,150.16,0,0,0-20.1-19.71,106.85,106.85,0,0,0-23.9-14.94l-.09.24q1.56.83,3.05,1.76c1,.58,2,1.21,3,1.84s2,1.27,2.91,1.95,1.93,1.3,2.85,2c1.87,1.39,3.77,2.73,5.55,4.23.9.74,1.81,1.45,2.72,2.16l2.62,2.28,2.62,2.28,2.52,2.38,2.53,2.38c.84.79,1.6,1.66,2.41,2.49s1.61,1.66,2.41,2.49l1.21,1.24c.39.42.76.87,1.14,1.3l4.55,5.22c1.47,1.78,2.88,3.61,4.32,5.41.71.91,1.45,1.8,2.13,2.73s1.31,1.9,2,2.83c1.33,1.89,2.72,3.74,4,5.66s2.46,3.92,3.71,5.86l1.88,2.93"/><path class="cls-8" d="M191.31,230.32a17.5,17.5,0,0,0-5-.19c-.82,0-1.62.2-2.44.32s-1.59.35-2.39.54a25.74,25.74,0,0,0-4.59,1.79,14.46,14.46,0,0,0-4,2.95l.08.15a49.86,49.86,0,0,1,9-3.24,93.91,93.91,0,0,1,9.37-2.15Z"/><path class="cls-9" d="M179.68,218a13,13,0,0,0-4.11-.91,19.14,19.14,0,0,0-2.06,0c-.68,0-1.36.11-2,.17a19.23,19.23,0,0,0-4,1,11,11,0,0,0-3.63,2.17l.06.16a41.65,41.65,0,0,1,7.82-1.65,78.53,78.53,0,0,1,8-.74Z"/><path class="cls-10" d="M199.46,223.91a13.3,13.3,0,0,0,.07-2.74c-.06-.84-.13-1.64-.22-2.41-.09-.38-.09-.76-.14-1.13l-.07-.56a4.25,4.25,0,0,0,0-.55,11.64,11.64,0,0,1,.07-2.51l-.12-.1a4.86,4.86,0,0,0-1.19,2.37,8.33,8.33,0,0,0-.08,2.66,15.92,15.92,0,0,0,1.59,5Z"/><path class="cls-11" d="M205.77,244a23.19,23.19,0,0,0-6.61-.26c-1.09.06-2.15.26-3.23.42s-2.11.47-3.17.72a34.06,34.06,0,0,0-6.09,2.37,19.17,19.17,0,0,0-5.36,3.91l.11.2a66.13,66.13,0,0,1,12-4.3,124.51,124.51,0,0,1,12.42-2.85Z"/><path class="cls-12" d="M215.51,236.49a23.6,23.6,0,0,0-.24-6.9,28.83,28.83,0,0,1-.11-6.8q.1-.89.26-1.78c.06-.31,0-.84-.26-.44a4,4,0,0,0-.36.82c-.2.49-.42,1-.58,1.49a28.06,28.06,0,0,0-.86,3.31,16.65,16.65,0,0,0,2,10.38Z"/><path class="cls-13" d="M185,212.67a9.83,9.83,0,0,0-.44-2.07c-.19-.63-.42-1.21-.63-1.77s-.44-1.1-.64-1.64a7.38,7.38,0,0,1-.43-1.87l-.11-.06a3.63,3.63,0,0,0-.41,2,6.68,6.68,0,0,0,.46,2,14.55,14.55,0,0,0,2.1,3.49Z"/><path class="cls-14" d="M304.93,187.83c-3.68-7,10.25-14.07,24.39-7.4,0,0-2,6.78-6.34,11.31C319.25,195.6,310.08,197.67,304.93,187.83Z"/><path class="cls-15" d="M296.62,184.26c-6-5.2,4.39-16.84,20-15.81,0,0,.64,7-1.76,12.84C312.79,186.25,305,191.53,296.62,184.26Z"/><path class="cls-16" d="M291.38,182.45c-7-1.77-3.28-15.41,9.76-20.91,0,0,3.37,5.43,3.79,11.11C305.27,177.5,301.13,184.93,291.38,182.45Z"/><path class="cls-17" d="M289.64,179.44c-6.32,1.31-8.72-11.15-.35-20.72a25.4,25.4,0,0,1,7.43,7.48C298.91,170,298.49,177.6,289.64,179.44Z"/><path class="cls-18" d="M293.57,144.61C275.77,122.39,320,88,374.35,101.79c0,0-2.3,25.23-14.55,44.18C349.34,162.13,318.49,175.73,293.57,144.61Z"/><path class="cls-19" d="M366.42,104.77a50.91,50.91,0,0,0-17.21,5.1,64.09,64.09,0,0,0-7.79,4.3c-1.23.83-2.5,1.59-3.69,2.47l-1.81,1.28-1.75,1.37a110.62,110.62,0,0,0-13,12.12c-1,1.13-2,2.15-3,3.31l-2.89,3.4c-1.82,2.36-3.71,4.67-5.4,7.14A244.48,244.48,0,0,0,291,176c-2.82,5.37-5.57,10.81-8.22,16.32-1.34,2.75-2.75,5.48-4,8.27l-1.92,4.19L274.8,209l-.42-.14a315.34,315.34,0,0,1,13.5-34.28c1.24-2.81,2.72-5.51,4.06-8.28s2.93-5.4,4.39-8.11a181.9,181.9,0,0,1,10-15.5c1.76-2.53,3.75-4.88,5.66-7.29s4-4.66,6.19-6.85a100.19,100.19,0,0,1,14-12.06,72.38,72.38,0,0,1,16.22-8.77,45.67,45.67,0,0,1,18.09-3.35Z"/><path class="cls-20" d="M320.75,130.92c21.44,3.19,27.1-39-2.77-69.55,0,0-15.72,11.18-23.49,26.5C287.86,100.93,290.73,126.44,320.75,130.92Z"/><path class="cls-21" d="M319.35,67.61c2.13,12.56,2,25.45.69,38.13l-.48,4.77-.73,4.73L318.1,120c-.25,1.58-.61,3.13-.9,4.7s-.65,3.13-1,4.69-.67,3.12-1.1,4.66l-2.43,9.27c-.93,3.05-2,6.07-3,9.11-.5,1.51-1,3-1.51,4.54l-1.73,4.46-3.57,8.88c-1.31,2.91-2.68,5.79-4.05,8.66l-2.05,4.31c-.72,1.42-1.5,2.81-2.27,4.2l-4.66,8.32c-.77,1.39-1.64,2.72-2.52,4l-2.62,4-2.62,4-2.7,3.91-.29-.17,4.63-8.26,2.32-4.13c.79-1.37,1.55-2.75,2.22-4.18l4.19-8.49c.69-1.42,1.41-2.82,2.08-4.25l1.87-4.35,3.74-8.69,3.32-8.86,1.65-4.43,1.45-4.5c.94-3,1.94-6,2.84-9a264.1,264.1,0,0,0,8-37C319.09,92.9,320,80.22,319,67.65Z"/><path class="cls-22" d="M341.84,116.48C314.63,87.37,372.65,34.69,450,48.08c0,0-.51,35.46-15.59,63.21C421.56,135,380,157.25,341.84,116.48Z"/><path class="cls-23" d="M439.35,53a205.07,205.07,0,0,0-25,13.9C406.3,72,398.54,77.44,391,83.16s-14.83,11.75-21.77,18.16S355.4,114.19,349,121.09,336.17,135,330.21,142.37c-1.55,1.79-3,3.67-4.46,5.52s-3,3.7-4.38,5.6l-4.24,5.71c-1.46,1.87-2.83,3.81-4.2,5.74l-4.13,5.81c-1.32,2-2.62,4-4,5.92-2.75,3.89-5.22,8-7.82,12-1.35,2-2.59,4-3.84,6l-3.77,6.11c-1.26,2-2.39,4.15-3.61,6.21l-3.73,6.18-.48-.22a381.47,381.47,0,0,1,27.89-50.32,332.44,332.44,0,0,1,35.64-45.18,299.51,299.51,0,0,1,43.47-37.7A257.25,257.25,0,0,1,413,64.48c4.21-2.31,8.48-4.51,12.84-6.52a133.36,133.36,0,0,1,13.35-5.44Z"/><path class="cls-24" d="M343.33,157.35c-11.79-26.23,40.11-48.66,89.81-21.48,0,0-8.62,24.09-25.38,39.53C393.46,188.56,359.85,194.07,343.33,157.35Z"/><path class="cls-25" d="M424.7,136.76A118.51,118.51,0,0,0,404.36,140l-5,1.19-4.92,1.45c-1.62.53-3.29.88-4.89,1.49l-4.83,1.68c-3.24,1-6.35,2.46-9.52,3.69-1.57.66-3.18,1.2-4.71,2l-4.61,2.2c-1.53.74-3.08,1.43-4.63,2.15s-3,1.6-4.51,2.39l-4.49,2.43c-1.49.82-3,1.57-4.44,2.52l-8.72,5.33c-.72.45-1.46.87-2.17,1.35l-2.09,1.48c-1.39,1-2.78,2-4.19,2.94l-4.22,2.9c-.7.49-1.42,1-2.1,1.46l-2,1.59c-2.67,2.14-5.38,4.22-8.1,6.31s-5.27,4.38-7.89,6.6l-7.85,6.71c-5.15,4.58-10,9.51-15.24,14.09l-.29-.25c4.71-5.08,9.32-10.26,14.11-15.26l7.52-7.17c2.52-2.38,5-4.85,7.69-7l8-6.65,2-1.66c.68-.54,1.4-1,2.1-1.54l4.21-3,4.21-3,2.11-1.52c.71-.49,1.46-.93,2.19-1.39l8.83-5.51A193.77,193.77,0,0,1,383.83,143c3.32-1,6.62-2.08,10-2.8l5.06-1.2L404,138a103,103,0,0,1,20.71-1.65Z"/><path class="cls-26" d="M384.17,100.08a35.11,35.11,0,0,1,10.13.3c1.66.2,3.26.64,4.89,1s3.18,1,4.77,1.45,3.11,1.2,4.62,1.92a47.82,47.82,0,0,1,4.43,2.39,29.4,29.4,0,0,1,7.77,6.62l-.18.3a100.42,100.42,0,0,0-17.81-7.91,188.71,188.71,0,0,0-18.68-5.72Z"/><path class="cls-27" d="M400.1,84.59a26,26,0,0,1,8.45-1.28,39.07,39.07,0,0,1,8.3.82,37.22,37.22,0,0,1,8,2.65,22.29,22.29,0,0,1,7.06,5l-.14.32c-2.52-1-5.1-1.83-7.7-2.6s-5.25-1.34-7.91-1.89-5.32-1.06-8-1.49-5.37-.81-8.06-1.14Z"/><path class="cls-28" d="M368.56,85.8a29.7,29.7,0,0,1,.24-5.64c.23-1.72.52-3.35.81-4.9s.64-3.05.83-4.55a22.51,22.51,0,0,0,.23-5.15l.25-.2a10,10,0,0,1,2.08,5,17.32,17.32,0,0,1-.22,5.47,29.67,29.67,0,0,1-1.56,5.22A31.43,31.43,0,0,1,368.84,86Z"/><path class="cls-29" d="M391,71.85a20.39,20.39,0,0,1,1.19-4.18c.49-1.25,1-2.44,1.52-3.55s1.08-2.19,1.53-3.27a15.36,15.36,0,0,0,1.14-3.78l.22-.1a7.17,7.17,0,0,1,.56,4.15,13.76,13.76,0,0,1-1.23,4A27.88,27.88,0,0,1,391.22,72Z"/><path class="cls-30" d="M296.24,226.95l-28.4-16.33a3.21,3.21,0,0,1-1.35-4l15-35.17a3.21,3.21,0,0,1,4.56-1.52l36.23,20.83a3.21,3.21,0,0,1,1,4.7l-22.84,30.67A3.21,3.21,0,0,1,296.24,226.95Z"/><path class="cls-31" d="M322.19,199.35l-43.57-25a2.12,2.12,0,0,1-.92-2.6l2.36-6.09a2.12,2.12,0,0,1,3-1.07l45.28,26a2.12,2.12,0,0,1,.6,3.16l-4.07,5.1A2.12,2.12,0,0,1,322.19,199.35Z"/><path class="cls-32" d="M238,273.37l-11.83,11.55-11.29,11a10.22,10.22,0,0,1-14.45-14.45l8.8-8.8,9.13-9.13Z"/><path class="cls-32" d="M350,298.94a10.21,10.21,0,0,1-7.23-3l-11.29-11-11.83-11.55,19.64-9.82,9.13,9.13,8.8,8.8A10.22,10.22,0,0,1,350,298.94Z"/><path class="cls-33" d="M218.33,263.56,238,273.37l-11.83,11.55a105.09,105.09,0,0,1-16.94-12.23Z"/><path class="cls-33" d="M348.43,272.69a105.09,105.09,0,0,1-16.94,12.23l-11.83-11.55,19.64-9.82Z"/><rect class="cls-33" x="267.44" y="63.83" width="22.76" height="25.04"/><rect class="cls-34" x="257.17" y="53.03" width="43.29" height="15.17" rx="6.19" ry="6.19"/><rect class="cls-33" x="187.14" y="105.15" width="18.5" height="20.35" transform="translate(-24.03 172.65) rotate(-45)"/><rect class="cls-35" x="169.76" y="100.12" width="35.19" height="12.33" rx="5.03" ry="5.03" transform="translate(-20.28 163.61) rotate(-45)"/><circle class="cls-36" cx="278.82" cy="186.19" r="105.06"/><path class="cls-37" d="M365.8,185.67a86.91,86.91,0,0,1-87,87,87.69,87.69,0,0,1-13.41-1A86,86,0,0,1,245,265.83q-1.84-.78-3.63-1.64a86.68,86.68,0,0,1-24-17q-1.71-1.71-3.32-3.5A87,87,0,0,1,336.82,120.84q1.79,1.61,3.5,3.32a86.67,86.67,0,0,1,17,24q.86,1.79,1.64,3.63a86,86,0,0,1,5.81,20.45A87.67,87.67,0,0,1,365.8,185.67Z"/><rect class="cls-38" x="277.35" y="114.75" width="2.93" height="16.32" rx="1.46" ry="1.46"/><rect class="cls-38" x="277.35" y="240.28" width="2.93" height="16.32" rx="1.46" ry="1.46"/><rect class="cls-38" x="207.89" y="184.21" width="16.32" height="2.93" rx="1.46" ry="1.46"/><rect class="cls-38" x="333.42" y="184.21" width="16.32" height="2.93" rx="1.46" ry="1.46"/><rect class="cls-38" x="315.04" y="139.83" width="16.32" height="2.93" transform="translate(-5.26 269.89) rotate(-44.99)"/><path class="cls-38" d="M228.66,235.83h0a1.46,1.46,0,0,1,0-2.07l9.47-9.47a1.46,1.46,0,0,1,2.07,0h0a1.46,1.46,0,0,1,0,2.07l-9.47,9.47A1.46,1.46,0,0,1,228.66,235.83Z"/><path class="cls-38" d="M240.2,147.06h0a1.46,1.46,0,0,1-2.07,0l-9.47-9.47a1.46,1.46,0,0,1,0-2.07h0a1.46,1.46,0,0,1,2.07,0L240.2,145A1.46,1.46,0,0,1,240.2,147.06Z"/><path class="cls-38" d="M329,235.83h0a1.46,1.46,0,0,1-2.07,0l-9.47-9.47a1.46,1.46,0,0,1,0-2.07h0a1.46,1.46,0,0,1,2.07,0l9.47,9.47A1.46,1.46,0,0,1,329,235.83Z"/><path class="cls-39" d="M303.85,196.51l-26.5-10.43.92-2.34,26.5,10.43a1.26,1.26,0,0,1,.71,1.63h0A1.26,1.26,0,0,1,303.85,196.51Z"/><path class="cls-38" d="M280.07,186.93H235.69a1.26,1.26,0,0,1-1.26-1.26h0a1.26,1.26,0,0,1,1.26-1.26h41.87V150.25a1.26,1.26,0,0,1,1.26-1.26h0a1.26,1.26,0,0,1,1.26,1.26Z"/><path class="cls-40" d="M336.82,120.84,214,243.68a86.76,86.76,0,0,1-20.42-40.57L296.25,100.42a86.76,86.76,0,0,1,40.57,20.42Z"/><path class="cls-40" d="M364.78,172.27l-99.37,99.37A86,86,0,0,1,245,265.83q-1.84-.78-3.63-1.64l116-116q.86,1.79,1.64,3.63A86,86,0,0,1,364.78,172.27Z"/></g><g id="Objects"><path class="cls-41" d="M178.28,290.54c.51.87,2.85,2.84,6,4.07s9.88,1.62,6.23,2.95-8,.77-10.2.52a46.14,46.14,0,0,0-6.9-.14c-3.4.11-3.43-.09-3.12-3.81C170.78,289,176.64,287.72,178.28,290.54Z"/><path class="cls-42" d="M107.07,285.51c.51.87,2,5.79,5.18,7s8.87,2.67,5.21,4-8,.77-10.2.52-2.72-3-5-4.14c-3.55-1.83-3.1-1.65-2.78-5.36C99.9,282.44,105.43,282.69,107.07,285.51Z"/><path class="cls-43" d="M176,71.33c2.27,1.83,3.38,2.11,5.09-.85.08-.14,9.18-8.88.84-12.26-3.83-1.55-6.91-2.43-7.76,3S173.28,69.15,176,71.33Z"/><path class="cls-44" d="M161.33,72c-.2.36-4,8.1-6.45,14.22-1.19,3,.77,7,3.77,8.19l.13.05c3,1.1,7.46-.29,8.3-3.36a85.32,85.32,0,0,1,4-11Z"/><path class="cls-45" d="M139.22,104.07c2.25,18.84,1,48.77-2.24,61.06l41.54-1.57S181,136.69,183,113.37a42.69,42.69,0,0,0-.56-12.94,17,17,0,0,0-7.3-10.11c-3.19-2.1-7-3.12-10.68-4a48,48,0,0,0-10.2-1.44c-4.67,0-9.82,1-12.66,5-2.51,3.55-2.84,8.23-2.52,12.44C139.1,102.94,139.16,103.5,139.22,104.07Z"/><path class="cls-46" d="M138.12,190.53S134.2,182,137,165.13l41.54-1.57A235.74,235.74,0,0,1,181,188.91Z"/><path class="cls-47" d="M142.29,240.21c9.73-10,4.14-18.61-5.93-14.94-14.24,5.19-29.67,52.62-35.79,59-.8.84-.21,1.14.42,1.46,1.86.94,3.06-.54,5.31.21.92.31,2.2,2.68,2.2,2.68C118,277.77,132.9,249.85,142.29,240.21Z"/><path class="cls-48" d="M158.81,191.58c.82-16.86-6.33-29.65-16.54-23.71-4.3,2.5-5.73,7.23-6.15,11.65s-2.37,38.3-3.19,46.6c-1.84,18.72,13.8,12.7,15.2,7.48C151.65,220.42,158.36,200.76,158.81,191.58Z"/><path class="cls-49" d="M184.73,227.26c-.65-12.61-7.38-15.36-13.47-6.54-9.59,13.88.16,56.33-.89,73,3.09-2.6,6.87-2.53,7.75-2.18,1.44.58.32-1.73.32-1.73C183.61,263.82,185.3,238.53,184.73,227.26Z"/><path class="cls-50" d="M168.32,230.6c1.83,5.09,18.38,12.19,16.2-6.49-1-8.29-4-42.16-4.49-46.57s-1.51-10.85-3.76-11.57c-11.25-3.62-21.51,10-18,26.49C160.68,203.49,164.53,220.05,168.32,230.6Z"/><path class="cls-51" d="M164.71,126.53a68.44,68.44,0,0,1-8.67-8.59c-2.07-2.45-4-5-6-7.55a93.3,93.3,0,0,1-8.38-13c-2.35-4.28,0-9.35,3.58-10.44,4-1.19,6.42,1.1,10.75,5.28,9.71,9.38,14.42,22.62,16.95,26.5a7.34,7.34,0,0,1,2,.22c5.38,1.42,13.93,7.66,26.65,12.56,2.09.81,1.54,5.15-1.06,6.1-3.2,1.16-6.64-.35-14.38-2.42A95.32,95.32,0,0,1,172,130.7a30.6,30.6,0,0,1-6.87-3.83Z"/><path class="cls-52" d="M158.32,66.75c-1,7.29-1.21,8.92,1.19,12.6a17.28,17.28,0,0,0,9.89,6.92c3.65.89,7.29-2.3,8.85-5.11a53.34,53.34,0,0,0,5.28-18c.45-4.08-3.26-10.07-8.29-11.3S160.84,48.93,158.32,66.75Z"/><path class="cls-53" d="M158.6,65.65c1.46,2.4,2.37,3,4.88.89,1.95-1.65,7.72-8.16,4.76-10.81s-5.46-4.45-8,.22S156.88,62.8,158.6,65.65Z"/><ellipse class="cls-52" cx="157.85" cy="67.74" rx="2.6" ry="4.96" transform="translate(-8.26 24.02) rotate(-8.48)"/><path class="cls-54" d="M163.94,53.26c1.76,4.82,15.07,8.48,19.81,8s6.51-9,.4-11.1c-3.52-.87-1.18.6-4.31,1.06C178.25,51.48,162.06,48.12,163.94,53.26Z"/><path class="cls-52" d="M201.59,130.71c2.11.67,11.85,3.11,9.28,5.89-2.84,3.07-5.63,3.28-7.94,2.66-4.23-1.14-4.52-2.55-4.45-5.21C198.53,132.15,199.58,130.07,201.59,130.71Z"/><path class="cls-52" d="M211,134.79c.9.42,6.23,2.92,5.77,3.77-.7,1.28-4.28-.22-6.66-1.2-1.29-.53-2.62-2-2-2.75S209.6,134.12,211,134.79Z"/><g class="cls-55"><path class="cls-56" d="M55.33,47c18.23-9.53,57.32-7.1,69.45,11.26C137.16,77,129,94.67,146.48,117.65c16,20.94,6.9,47.94,10.56,68.34,4,22.4,39.51,10.38,53.84,37.44,22,41.58-22,71.53-49.23,90.72C133.73,333.86,90.91,352,59.58,324.34c-23.13-20.41-17.82-103.1-13.7-125C51.79,168,82,188,64,158.31,53.22,140.54,43.09,107,72.53,103S29.07,60.76,55.33,47Z"/></g></g></g></g></svg>