<?xml version="1.0" encoding="utf-8"?>
<!-- Generator: Adobe Illustrator 21.0.0, SVG Export Plug-In . SVG Version: 6.00 Build 0)  -->
<svg version="1.1" id="Слой_1" xmlns="http://www.w3.org/2000/svg" xmlns:xlink="http://www.w3.org/1999/xlink" x="0px" y="0px"
	 viewBox="0 0 326.7 255.7" style="enable-background:new 0 0 326.7 255.7;" xml:space="preserve">
<style type="text/css">
	.st0{opacity:0.15;fill:url(#SVGID_1_);enable-background:new    ;}
	.st1{opacity:0.15;fill:url(#SVGID_2_);enable-background:new    ;}
	.st2{opacity:0.15;fill:url(#SVGID_3_);enable-background:new    ;}
	.st3{opacity:0.2;}
	.st4{fill:#6ECBF5;}
	.st5{fill:none;stroke:#0037FF;stroke-linecap:round;stroke-linejoin:round;}
	.st6{opacity:0.7;fill:none;stroke:#0037FF;stroke-linecap:round;stroke-linejoin:round;enable-background:new    ;}
	.st7{opacity:0.3;fill:none;stroke:#0037FF;stroke-linecap:round;stroke-linejoin:round;enable-background:new    ;}
	.st8{opacity:0.6;fill:none;stroke:#0037FF;stroke-linecap:round;stroke-linejoin:round;enable-background:new    ;}
	.st9{fill:url(#SVGID_4_);}
	.st10{fill:#FFAF84;}
	.st11{fill:url(#SVGID_5_);}
	.st12{fill:url(#SVGID_6_);}
	.st13{fill:#ED9169;}
	.st14{fill:url(#SVGID_7_);}
	.st15{fill:url(#SVGID_8_);}
	.st16{fill:url(#SVGID_9_);}
	.st17{fill:url(#SVGID_10_);}
	.st18{fill:url(#SVGID_11_);}
	.st19{fill:url(#SVGID_12_);}
	.st20{fill:url(#SVGID_13_);}
	.st21{fill:url(#SVGID_14_);}
	.st22{fill:url(#SVGID_15_);}
	.st23{fill:url(#SVGID_16_);}
	.st24{fill:url(#SVGID_19_);}
	.st25{fill:url(#SVGID_20_);}
	.st26{fill:#4E11F4;}
	.st27{fill:url(#SVGID_21_);}
	.st28{fill:url(#SVGID_22_);}
	.st29{fill:url(#SVGID_23_);}
	.st30{fill:#F70F47;}
	.st31{fill:url(#SVGID_24_);}
	.st32{fill:url(#SVGID_25_);}
</style>
<title>context-slide6</title>
<g>
	<g id="Слой_2">
		<g id="Background">
			
				<linearGradient id="SVGID_1_" gradientUnits="userSpaceOnUse" x1="103.283" y1="130.8472" x2="326.653" y2="130.8472" gradientTransform="matrix(1 0 0 -1 0 262.2297)">
				<stop  offset="0" style="stop-color:#36078B"/>
				<stop  offset="1" style="stop-color:#16B1FF"/>
			</linearGradient>
			<path class="st0" d="M215,19.7c-5.7,0-11.4,0.4-17,1.3C257,59.7,273.4,139,234.7,198c-11.5,17.5-27.1,31.9-45.5,42
				c60,14.3,120.2-22.8,134.5-82.8c14.3-60-22.8-120.2-82.8-134.5C232.4,20.7,223.7,19.7,215,19.7z"/>
			
				<linearGradient id="SVGID_2_" gradientUnits="userSpaceOnUse" x1="0" y1="134.3824" x2="255.7" y2="134.3824" gradientTransform="matrix(1 0 0 -1 0 262.2297)">
				<stop  offset="0" style="stop-color:#401381"/>
				<stop  offset="1" style="stop-color:#D11137"/>
			</linearGradient>
			<path class="st1" d="M103.3,131.4c0-55.1,40.2-102,94.7-110.4C138.9-17.8,59.7-1.3,21,57.7S-1.3,196,57.7,234.7
				c39.5,25.9,90,27.9,131.4,5.3C138.8,228.1,103.3,183.1,103.3,131.4z"/>
			
				<linearGradient id="SVGID_3_" gradientUnits="userSpaceOnUse" x1="103.2829" y1="131.7299" x2="326.6529" y2="131.7299" gradientTransform="matrix(1 0 0 -1 0 262.2297)">
				<stop  offset="0" style="stop-color:#36078B"/>
				<stop  offset="1" style="stop-color:#16B1FF"/>
			</linearGradient>
			<path class="st2" d="M255.7,127.8C255.7,84.8,234,44.6,198,21c-61,9.4-102.8,66.5-93.4,127.4c6.9,44.9,40.4,81.1,84.5,91.6
				C230.2,217.6,255.7,174.6,255.7,127.8z"/>
		</g>
		<g id="Objects">
			<g class="st3">
				<path class="st4" d="M122.8,110c0.8-0.6,1.5-1.2,2.2-2c3-3.7,1.9-8.3-3.7-9.4c-1.1-0.2-4.7-0.5-5.2,0.8c0.6-1.7,0-3.6-1.5-4.6
					c-1.5-1.1-3.9-1-5.7-0.2c0.1-3-2.2-5.8-5.5-6.9c-3.3-1-6.9-0.2-9.5,2.1c-2.3,2.3-2.6,5.9-0.9,8.6c-2-1.8-4.7-2.7-7.4-2.4
					c-2.7,0.3-5.3,2-6.1,4.2c-0.8,2.1,0.3,3.8,1.3,5.6c-0.8,0.2-1.5,0.6-2.1,1.2c-1.4,1.4-0.7,3.8,1,4.9c1.9,1.1,4,1.6,6.2,1.5
					c7.2-0.1,14.4,1,21.7,0.7C112.6,113.7,118.7,112.9,122.8,110z"/>
				<path class="st4" d="M103,110.8c5.4-2.7,10.1-6.8,13.5-11.9c-0.2,0.1-0.3,0.3-0.4,0.5c0.6-1.7,0-3.6-1.5-4.6
					c-1.5-1.1-3.9-1-5.7-0.2c0.1-3-2.2-5.8-5.5-6.9c-3.3-1-6.9-0.2-9.5,2.1c-2.3,2.3-2.6,5.9-0.9,8.6c-2-1.8-4.7-2.7-7.4-2.4
					c-2.7,0.3-5.3,2-6.1,4.2c-0.8,2.1,0.3,3.8,1.3,5.6c-0.8,0.2-1.5,0.6-2.1,1.2c-0.6,0.7-0.9,1.6-0.7,2.5
					C85.5,114.1,95,114.7,103,110.8z"/>
			</g>
			<circle class="st5" cx="180.9" cy="120.4" r="80.2"/>
			<path class="st6" d="M193.2,175.3c-21.8-6.6-40.7-18.9-54.9-38.8c-14.6-21-19.6-44.7-17.3-69.3c-29.4,33.1-26.5,83.7,6.6,113.2
				c31.1,27.7,78.3,26.9,108.5-1.8C221.8,180.6,207.1,179.5,193.2,175.3z"/>
			<path class="st7" d="M180.9,40.2c-5.6,0-11.2,0.6-16.7,1.7c5.4-0.5,10.8,0.9,15.3,4c-2,9.9-10.9,17.4-21.8,18.4c-1.5,0-2,3-2,4.5
				c-0.5,5.5-3.5,18.9,6,14.9c0.5-0.5,2-1,2.5-2c2-4,2.5-8.9,7-9.9c3-1,5.5,1.5,6.4,4c3,7.4-3,12.4-9.9,14.4c-2,0.5-2.5,4-3.5,6.4
				c-1,2-3.5,6-6.4,3c-2-1.5,0-6-2-5c-4,2-0.5,8.4-5,10.9c-2.7,1.4-7.1,3-8.8,5.6l0.3,0.3c1.4,1.2,3,2.1,4.8,2.7
				c0.4-0.4,0.8-0.7,1.2-1.2c-0.4,0.4-0.8,0.8-1.2,1.2c1,0.4,2.1,0.6,3.2,0.8c17.4,0.5,39.7-9.9,51.6,7.9c5,7.9,5,17.4,7,26.8
				c3.4,17.6,23.6,15.9,39,14.8c24.4-37,14.2-86.7-22.8-111C212,44.8,196.6,40.2,180.9,40.2z"/>
			<path class="st5" d="M138.9,100.1c-3.5-10.9-7.9-21.3-5-33.3l3-7.4c3.6-5.7,8.6-10.4,14.5-13.6c-6.3,2.5-12.2,5.8-17.6,9.8
				c-4.8,16.1-4.6,33.4,2.7,49C137.8,103.2,139.5,101.9,138.9,100.1z"/>
			<path class="st5" d="M142,111.2c1.6-2.7,6-4.3,8.8-5.6c4.5-2.5,1-8.9,5-10.9c2-1,0,3.5,2,5c3,3,5.5-1,6.4-3c1-2.5,1.5-6,3.5-6.4
				c7-2,12.9-7,9.9-14.4c-1-2.5-3.5-5-6.4-4c-4.5,1-5,6-7,9.9c-0.5,1-2,1.5-2.5,2c-9.4,4-6.4-9.4-6-14.9c0-1.5,0.5-4.5,2-4.5
				c10.9-1,19.9-8.4,21.8-18.4c-4.5-3.1-9.9-4.5-15.3-4c-4.4,0.9-8.7,2.2-12.9,3.9c-5.9,3.2-10.9,7.8-14.5,13.6l-3,7.4
				c-3,11.9,1.5,22.3,5,33.3c0.6,1.8-1.1,3.1-2.4,4.5c0.1,0.3,0.3,0.6,0.4,0.9C138.3,107.9,140.1,109.4,142,111.2z"/>
			<path class="st8" d="M208.9,149.7c-2-9.4-2-18.9-7-26.8c-11.9-17.9-34.3-7.4-51.6-7.9c-2.9-0.4-5.7-1.6-7.9-3.5c-2-2-4-3.5-5.5-6
				c-7.7-15.9-8-33.6-3.2-50c-4.6,3.4-8.9,7.3-12.7,11.7c-2.2,24.6,2.7,48.3,17.3,69.3c14.2,19.9,33.1,32.2,54.9,38.8
				c13.9,4.2,28.5,5.3,42.9,3.2c4.4-4.2,8.3-8.9,11.7-13.9C232.5,165.6,212.3,167.4,208.9,149.7z"/>
			<path class="st5" d="M171.5,53.4c-1.8,2.4-3.8,5-6.7,5.9c-2.7,0.9-5.8,0.1-8.4,1.1s-4.5,4-5,6.9c-0.4,3-0.2,6,0.4,8.9
				c0.4,2.4,1.2,5.4,3.6,5.9c2.7,0.7,4.9-2.3,5.7-5s1.3-5.9,3.6-7.4c2-1.3,4.8-0.7,6.7,0.8c1.8,1.6,3,3.7,3.6,6.1
				c0.7,2.4,0.9,5.4-1,7c-2.1,1.8-5.7,0.9-7.8,2.8c-1.6,1.5-1.5,4.1-2.2,6.2s-3.7,3.9-5,2c0.9-1.8,0.1-4.1-1.8-4.9
				c-1.8-0.9-4.1-0.1-4.9,1.8c-0.1,0.1-0.1,0.2-0.2,0.4c-0.7,2.1,0.6,4.6,0,6.7c-1.4,4.7-9.6,3.2-12.1,7.4c-0.8,1.3-0.2,3.2-0.5,4.7
				c-0.3,1.7-1,3.4-2.1,4.8c-0.4,0.6-0.9,1-1.5,1.3c-0.6,0.3-1.4,0-1.7-0.6c-0.5-1,0.8-2,1-3.2c0-1.1-0.7-2-1.8-2.2
				c-1-0.1-2.1,0-3.1,0.5c-5.2,2.3-8.8,7.9-9.7,13.4c-0.5,2.9,0.3,8.5,4.5,8.1c1.2-0.1,2.2-0.8,2.6-1.9c0.3-0.9,0-1.9,0.2-2.8
				c0.5-1.5,2.2-2.3,3.7-1.8c0,0,0,0,0.1,0c2.2,0.9,2.7,4.2,2.5,6.2c-0.2,2.3-0.6,4.7,0,7c0.6,2,1.7,3.8,3,5.4
				c2.5,3.4,4.6,7.7,9.5,7.7c4.2,0.4,9.1-1.1,12.1,1.9c4.6,4.5-1.2,13.7,3.3,18.3c2.6,2.6,7.6,2.5,8.9,5.9c0.9,2.4-0.9,5-2.9,6.6
				s-4.5,2.7-6.1,4.7s-1.4,5.7,0.9,6.6c-6.5,0.8-13.1-1.3-18.8-4.6s-10.6-7.7-15.5-12.1c-3.4-3.1-7.1-7.2-5.9-11.6
				c0.7-2.6,3-4.3,4.6-6.4c3.8-4.7,4.7-11.1,2.4-16.7c-1.1-3.3-3.8-5.8-7.1-6.8c-2.1-0.6-4.4-0.5-6.4-1.4c-4.9-2.2-4.3-7.7-6.6-11.8
				c-0.7-1.2-2.8-2.1-3.2-0.3c-0.3,1,1,3.3,1.7,4.1s1.6,1.7,1.3,2.6c-0.3,0.8-1.3,1.1-2.2,1.2c-1.4,0.2-3.7-5.6-4-6.6
				c-0.9-2.8-0.6-5.2-0.4-8c0.2-2.2-1.8-3.6-2.2-5.9c-0.3-2.6-0.1-5.3,0.7-7.8c4.8-18,14.1-35.1,28.2-47.2
				c8.6-7.5,18.9-12.7,30.1-15.2c4.1-0.9,12.8-3.2,16.8-1.3C181.6,43.1,173.4,50.8,171.5,53.4z"/>
			<path class="st5" d="M162.9,189.2c1.5-1.6,3.6-2.6,5.4-4c2-1.6,3.8-4.2,2.9-6.6c-1.3-3.4-6.3-3.3-8.9-5.9
				c-4.5-4.6,1.3-13.8-3.3-18.3c-3-2.9-8-1.4-12.1-1.9c-4.9,0-7-4.3-9.5-7.7c-1.3-1.6-2.4-3.5-3-5.4c-0.6-2.3-0.2-4.6,0-7
				c0.2-2.1-0.3-5.4-2.5-6.2c-1.5-0.6-3.1,0.2-3.7,1.7c0,0,0,0,0,0.1c-0.2,0.9,0,1.9-0.2,2.8c0,0.1-0.1,0.1-0.1,0.2
				c0.6,3.1,1.3,6.2,2,9.2C134.7,160.6,146.9,176.9,162.9,189.2z"/>
			<path class="st5" d="M162.9,189.2c-16-12.3-28.2-28.6-33.1-49c-0.8-3-1.4-6.1-2-9.2c-0.5,1-1.4,1.6-2.5,1.7
				c-4.1,0.3-5-5.2-4.5-8.1c0.6-3.6,2.2-6.9,4.6-9.6c-2-19.8-0.6-40.5,5.6-58.7l-1.1,1c-14.1,12.1-23.4,29.2-28.2,47.2
				c-0.8,2.5-1,5.2-0.7,7.8c0.4,2.3,2.4,3.7,2.2,5.9c-0.3,2.8-0.5,5.2,0.4,8c0.3,1,2.6,6.8,4,6.6c0.9-0.1,1.9-0.4,2.2-1.2
				c0.3-1-0.6-1.9-1.3-2.6s-1.9-3-1.7-4.1c0.4-1.8,2.5-0.9,3.2,0.3c2.3,4,1.7,9.5,6.6,11.8c2,0.9,4.3,0.8,6.4,1.4
				c3.3,1,6,3.5,7.1,6.8c2.3,5.6,1.4,12-2.4,16.7c-1.7,2.1-3.9,3.9-4.6,6.4c-1.3,4.4,2.5,8.5,5.9,11.6c4.9,4.4,9.8,8.8,15.5,12.1
				s12.3,5.4,18.8,4.6c-2.4-0.9-2.5-4.5-0.9-6.6C162.4,189.8,162.7,189.5,162.9,189.2z"/>
			<path class="st5" d="M125.4,115c1.4-1.6,3.2-2.9,5.1-3.8c0.9-0.5,2-0.7,3.1-0.5c1.1,0.2,1.8,1.1,1.8,2.2c-0.2,1.1-1.5,2.2-1,3.2
				c0.4,0.6,1.1,0.8,1.7,0.6c0.6-0.3,1.1-0.7,1.5-1.3c1.1-1.4,1.8-3,2.1-4.8c0.3-1.5-0.3-3.4,0.5-4.7c2.5-4.3,10.7-2.7,12.1-7.4
				c0.6-2.2-0.7-4.6,0-6.7c0.7-1.9,2.8-3,4.7-2.3c1.9,0.7,3,2.8,2.3,4.7c0,0.1-0.1,0.3-0.2,0.4c1.3,1.8,4.3,0.1,5-2s0.6-4.7,2.2-6.2
				c2.1-1.9,5.6-1,7.8-2.8c1.9-1.6,1.7-4.6,1-7c-0.6-2.3-1.8-4.5-3.6-6.1c-1.9-1.5-4.6-2-6.7-0.8c-2.4,1.5-2.8,4.7-3.6,7.4
				s-3,5.7-5.7,5c-2.4-0.6-3.2-3.5-3.6-5.9c-0.7-2.9-0.8-5.9-0.4-8.9c0.5-2.9,2.3-5.8,5-6.9s5.7-0.3,8.4-1.1
				c2.9-0.9,4.9-3.5,6.7-5.9c1.9-2.6,10-10.3,5.2-12.6c-4-1.9-12.7,0.4-16.8,1.3c-10.6,2.4-20.5,7.3-28.9,14.2
				C124.8,74.5,123.4,95.2,125.4,115z"/>
			<path class="st5" d="M260.9,119.7c-5.7,4.5-13.6,5.1-19.9,1.4c-1.8-1.1-3.9-2.5-5.6-1.5c-0.7,0.5-1.3,1.2-1.7,2l-9.6,16.6
				c-1.1,1.7-1.9,3.5-2.3,5.5c-0.4,2,0.5,4,2.1,5.2c-1.6,1.4-0.3,4.1,1.6,5s4.1,0.7,6.1,1.3s3.9,2.8,2.9,4.7c-0.8,1.5-3,1.8-3.8,3.4
				c-0.3,0.8-0.4,1.6-0.3,2.4l1.2,17.4C249.9,168.4,260.9,143,260.9,119.7z"/>
			<path class="st5" d="M240.9,121.1c-1.8-1.1-3.9-2.5-5.6-1.5c-0.7,0.5-1.3,1.2-1.7,2l-6.6,11.4c1.4,2.1,3.1,3.9,5.2,5.3
				c7.6,4.7,13.3-0.9,20.8-0.9c1.9,0.9,1.9,3.8,3.8,4.7c0.3,0.1,0.6,0.1,0.9,0.2c2.1-7.4,3.2-15,3.2-22.7
				C255.1,124.2,247.2,124.8,240.9,121.1z"/>
			<path class="st5" d="M252.9,137.4c-7.6,0-13.3,5.7-20.8,0.9c-2-1.4-3.8-3.2-5.2-5.3l-3,5.1c-1.1,1.7-1.9,3.5-2.3,5.5
				c-0.4,2,0.5,4,2.1,5.2c-1.6,1.4-0.3,4.1,1.6,5s4.1,0.7,6.1,1.3s3.9,2.8,2.9,4.7c-0.8,1.5-3,1.8-3.8,3.4c-0.3,0.8-0.4,1.6-0.3,2.4
				l1.2,17.4c12.4-9.9,21.5-24.7,26-40.6c-0.3-0.1-0.6-0.1-0.9-0.2C254.8,141.2,254.8,138.4,252.9,137.4z"/>
			<path class="st5" d="M92.5,190.8l0.7,0.2L92.5,190.8z"/>
			<path class="st5" d="M259.8,111.9l-1,1.1c-0.3-0.3-0.7-0.6-1-0.9l-1.2-1.4c-1.1-0.2-1.5,2.1-2.5,1.6c-0.6-0.3-0.3-1.3,0.1-1.9
				c2-3.4,2-7.7-0.1-11.1c-0.4-0.7-0.9-1.2-1.6-1.5c-0.7-0.3-1.5-0.3-1.6,0.5c-0.1,2.8,0.8,5.5,2.5,7.7l-1.5,1l-0.3-0.7
				c-0.7,0-1.3,0.4-1.5,1l-4.4,0.2c2-1.3,2.5-4.1,1.8-6.4c-0.5-1.7-1.7-3.2-3.4-3.9c-1.7-0.6-3.3-0.8-4.2,0.8l-0.9,0.3
				c0.2,1.6-0.4,3.3-1.6,4.4c-1.2,1.2-2.7,1.9-4.4,2c-1,0.1-2,0-2.9-0.5c-0.9-0.5-1.6-1.3-1.7-2.3c-0.2-2,1.7-3.6,1.9-5.5
				c0.2-1.8,1.4-3.3,3.1-3.9c1.8-0.8,3.8-0.6,5.4,0.5l0.7-3c1.2,0.7,2.8-0.5,3.1-1.9c0.1-1.4-0.2-2.8-0.9-4c0.9-0.8,2.2-0.7,3,0.1
				c0.7,0.8,1.3,1.8,1.5,2.9c0.3,1.1,0.8,2,1.7,2.8c0.8,0.6,1.5,0.2,2.2-0.4c0.6-0.7,0.9-1.7,0.9-2.6c0-3.8-3-7.2-6.5-8.6
				c-1.1-0.3-2.1-0.7-3-1.3c-1.6-1.3-2-3.6-2.2-5.7c0.8-1.3,1.2-2.4,2-3.7C252.3,80.2,259,95.1,259.8,111.9z"/>
			<path class="st5" d="M208.4,136.1l1,7c0.2,1.1,0.4,2.4,1.4,3.1c1.2,0.6,2.7,0.4,3.5-0.6c0.8-1,1.4-2.2,1.7-3.5
				c0.6-1.6,1-3.3,1.1-5c0.1-1.7-0.7-3.4-2-4.6c-1.8-1.4-4.5-1.1-5.9,0.8c-1,1.3-1.1,3-0.4,4.4"/>
			<ellipse class="st5" cx="140.5" cy="82.2" rx="7.7" ry="4.2"/>
			<ellipse class="st5" cx="140.5" cy="82.2" rx="4.9" ry="2.6"/>
			<ellipse class="st5" cx="155.5" cy="54.7" rx="7.7" ry="4.2"/>
			<ellipse class="st5" cx="155.5" cy="54.7" rx="4.9" ry="2.6"/>
			<ellipse class="st5" cx="122.8" cy="104.1" rx="7.7" ry="4.2"/>
			<ellipse class="st5" cx="122.8" cy="104.1" rx="4.9" ry="2.6"/>
			<ellipse class="st5" cx="140.5" cy="158.6" rx="7.7" ry="4.2"/>
			<ellipse class="st5" cx="140.5" cy="158.6" rx="4.9" ry="2.6"/>
			<ellipse class="st5" cx="153.1" cy="176.4" rx="7.7" ry="4.2"/>
			<ellipse class="st5" cx="153.1" cy="176.4" rx="4.9" ry="2.6"/>
			<ellipse class="st5" cx="231.5" cy="146.6" rx="7.7" ry="4.2"/>
			<ellipse class="st5" cx="231.5" cy="146.6" rx="4.9" ry="2.6"/>
			<ellipse class="st5" cx="236.2" cy="94.3" rx="7.7" ry="4.2"/>
			<ellipse class="st5" cx="236.2" cy="94.3" rx="4.9" ry="2.6"/>
			<ellipse class="st5" cx="247.9" cy="130.8" rx="7.7" ry="4.2"/>
			<ellipse class="st5" cx="247.9" cy="130.8" rx="4.9" ry="2.6"/>
			<ellipse class="st5" cx="247.8" cy="144.8" rx="7.7" ry="4.2"/>
			<ellipse class="st5" cx="247.8" cy="144.8" rx="4.9" ry="2.6"/>
			<ellipse class="st5" cx="132.9" cy="67.4" rx="7.7" ry="4.2"/>
			<ellipse class="st5" cx="132.9" cy="67.4" rx="4.9" ry="2.6"/>
			<g class="st3">
				<path class="st4" d="M123.4,79.5c0.2-0.1,0.4-0.3,0.6-0.5c0.6-0.5,0.6-1.4,0-2c-0.3-0.3-0.6-0.4-1-0.4c-0.3-0.1-1.2-0.1-1.4,0.2
					c0.2-0.4,0-0.9-0.4-1.2c-0.4-0.3-1-0.3-1.5-0.1c0-0.8-0.6-1.6-1.4-1.8c-0.9-0.3-1.8-0.1-2.4,0.5c-0.6,0.6-0.7,1.5-0.2,2.2
					c-0.5-0.5-1.2-0.7-1.9-0.6c-0.7,0.1-1.3,0.5-1.6,1.1c-0.1,0.5,0,1,0.3,1.4c-0.2,0.1-0.4,0.2-0.5,0.3c-0.3,0.4-0.2,0.9,0.2,1.2
					c0,0,0.1,0,0.1,0.1c0.5,0.3,1,0.4,1.6,0.4c1.9,0,3.7,0.3,5.6,0.2C120.8,80.5,122.2,80.2,123.4,79.5z"/>
				<path class="st4" d="M118.3,79.7c1.4-0.7,2.6-1.8,3.5-3.1c0,0-0.1,0.1-0.1,0.1c0.2-0.4,0-0.9-0.4-1.2c-0.4-0.3-1-0.3-1.5-0.1
					c0-0.8-0.6-1.6-1.4-1.8c-0.9-0.3-1.8-0.1-2.4,0.5c-0.6,0.6-0.7,1.5-0.2,2.2c-0.5-0.5-1.2-0.7-1.9-0.6c-0.7,0.1-1.3,0.5-1.6,1.1
					c-0.1,0.5,0,1,0.3,1.4c-0.2,0.1-0.4,0.2-0.5,0.3c-0.2,0.2-0.2,0.4-0.2,0.7C113.8,80.6,116.2,80.7,118.3,79.7z"/>
			</g>
			
				<linearGradient id="SVGID_4_" gradientUnits="userSpaceOnUse" x1="-1564.6083" y1="214.8801" x2="-1573.3082" y2="174.8001" gradientTransform="matrix(1 0 0 -1 1667.13 262.2297)">
				<stop  offset="0" style="stop-color:#2C27CE"/>
				<stop  offset="1" style="stop-color:#EF1D68"/>
			</linearGradient>
			<path class="st9" d="M92.2,61.2c-3.7,2.7-5.5,7.3-4.8,11.8c0.6,4.2,0.3,8.5-0.9,12.5c-0.9,2.8-4.1,12.4,7.1,12.1
				s11.9-13.3,10.6-20s1.1-11.5-0.6-13.5S98,57,92.2,61.2z"/>
			<path class="st10" d="M134.5,85.7c2.1-1.7,4.2-3.4,4.6-1.6s0.4,1.8-1,3.1S132.7,87.1,134.5,85.7z"/>
			
				<linearGradient id="SVGID_5_" gradientUnits="userSpaceOnUse" x1="-1557.9376" y1="174.2637" x2="-1536.0176" y2="172.1137" gradientTransform="matrix(1 0 0 -1 1667.13 262.2297)">
				<stop  offset="0" style="stop-color:#36078B"/>
				<stop  offset="1" style="stop-color:#16B1FF"/>
			</linearGradient>
			<path class="st11" d="M134.6,85.3c-1.4,0.6-11.3,2.6-15.4,3.9h-0.1c-2-0.6-7.5-3.2-14.9-6.5c-2.2-0.7-4.5-0.5-6.6,0.4
				c-1.3,0.7-1.8,2.9,0.6,4.2c2.6,1.3,5.3,2.5,8,3.4c6.7,2.5,10.3,3.2,12.2,3.4c0.4,0.1,0.9,0.1,1.3,0c3.8-0.8,7.4-2.1,10.8-4.1
				c3.5-1.8,4.9-1.3,5.5-2.4C136.3,86.7,135.6,84.9,134.6,85.3z"/>
			
				<linearGradient id="SVGID_6_" gradientUnits="userSpaceOnUse" x1="-1578.9517" y1="60.2407" x2="-1578.4216" y2="76.2507" gradientTransform="matrix(1 0 0 -1 1667.13 262.2297)">
				<stop  offset="0" style="stop-color:#2C27CE"/>
				<stop  offset="0.65" style="stop-color:#EF1D68"/>
				<stop  offset="1" style="stop-color:#EFBA92"/>
			</linearGradient>
			<path class="st12" d="M89.4,200.3c0.1,0.7,0.2,1.3,0.3,2c0.1,0.8,0.9,1.1,1.3,1.8s1.2,1.9-1.7,2c-3.1,0.1-5-0.1-4.4-1.9
				c0.4-1,0.6-2,0.6-3.1c-0.1-0.5,0-1.1,0.3-1.5C86.2,199.2,89,198.5,89.4,200.3z"/>
			<path class="st13" d="M95.1,74.9c0,0.2-0.4,5.2-0.5,8.9c0,1.9,1.3,3.6,2.6,3.7h0.1c1.3,0,2.8-1.7,2.7-3.5c-0.2-3.3-0.1-6.7,0-6.7
				L95.1,74.9z"/>
			
				<linearGradient id="SVGID_7_" gradientUnits="userSpaceOnUse" x1="-1571.3865" y1="178.7645" x2="-1563.0065" y2="141.3745" gradientTransform="matrix(1 0 0 -1 1667.13 262.2297)">
				<stop  offset="0" style="stop-color:#36078B"/>
				<stop  offset="1" style="stop-color:#16B1FF"/>
			</linearGradient>
			<path class="st14" d="M91.3,96.2c1.1,3.4,1.9,6.8,2.4,10.3c0.4,2.6,0.4,5.2,0,7.8c-0.2,1.6-0.5,3.1-0.9,4.6
				c-0.1,0.6-1.3,5.3-1.3,5.8h21.3c-0.2-4.2-5-17.3-1.7-25.8c2.2-5.9-0.7-6.1-2.7-11c-0.4-1.3-1-2.5-1.7-3.6c-0.8-1-2-1.7-3.3-2
				c-0.7-0.1-1.3-0.2-2-0.3c-3.6-0.3-12.1-1.3-12.9,3.8c-0.2,1.4,0,2.8,0.4,4.2c0.5,1.5,1.2,2.9,1.8,4.4
				C90.9,95,91.1,95.6,91.3,96.2z"/>
			
				<linearGradient id="SVGID_8_" gradientUnits="userSpaceOnUse" x1="-1564.8337" y1="112.2801" x2="-1563.6837" y2="9.6901" gradientTransform="matrix(1 0 0 -1 1667.13 262.2297)">
				<stop  offset="0" style="stop-color:#F70F47"/>
				<stop  offset="1" style="stop-color:#9E005D"/>
			</linearGradient>
			<path class="st15" d="M91.6,138.3c0,0-1.8-4.6-0.1-13.6h21.3c0.5,4.5,0.8,9,0.8,13.6H91.6z"/>
			
				<linearGradient id="SVGID_9_" gradientUnits="userSpaceOnUse" x1="-1576.8397" y1="112.1498" x2="-1575.6897" y2="9.5498" gradientTransform="matrix(1 0 0 -1 1667.13 262.2297)">
				<stop  offset="0" style="stop-color:#F70F47"/>
				<stop  offset="1" style="stop-color:#9E005D"/>
			</linearGradient>
			<path class="st16" d="M95.7,167.3c1.7-7.2-5.4-8.5-7.6-3.3c-3.2,7.4-2.9,31-2.8,35.7c0,0.6,0.3,0.5,0.7,0.4
				c0.7-0.3,1.5-0.5,2.3-0.4c0.5,0.2,0.9,0.5,1.2,1C90.2,194.2,94.1,174.3,95.7,167.3z"/>
			
				<linearGradient id="SVGID_10_" gradientUnits="userSpaceOnUse" x1="-1572.0247" y1="112.1999" x2="-1570.8846" y2="9.6099" gradientTransform="matrix(1 0 0 -1 1667.13 262.2297)">
				<stop  offset="0" style="stop-color:#F70F47"/>
				<stop  offset="1" style="stop-color:#9E005D"/>
			</linearGradient>
			<path class="st17" d="M102.1,139.3c0.8-9-2.7-15.9-8-13c-2.3,1.2-3.1,3.7-3.4,6.1s-2,26.7-2.5,31.1c-1.3,9.9,6.2,7.3,7.1,4.5
				C97.3,161.1,101.7,144.2,102.1,139.3z"/>
			
				<linearGradient id="SVGID_11_" gradientUnits="userSpaceOnUse" x1="-1556.8236" y1="112.3698" x2="-1555.6836" y2="9.7798" gradientTransform="matrix(1 0 0 -1 1667.13 262.2297)">
				<stop  offset="0" style="stop-color:#F70F47"/>
				<stop  offset="1" style="stop-color:#9E005D"/>
			</linearGradient>
			<path class="st18" d="M114.7,166.8c0.3-6.7-6-6.6-7.6-1.1c-2.5,8.6,1.8,27.1,2.1,37.6c1.1-1.8,2.1-2.3,2.6-2.2
				c0.5,0,0.9,0.3,1.2,0.7C112.9,187.9,114.4,174,114.7,166.8z"/>
			
				<linearGradient id="SVGID_12_" gradientUnits="userSpaceOnUse" x1="-1558.9951" y1="112.3498" x2="-1557.8551" y2="9.7498" gradientTransform="matrix(1 0 0 -1 1667.13 262.2297)">
				<stop  offset="0" style="stop-color:#F70F47"/>
				<stop  offset="1" style="stop-color:#9E005D"/>
			</linearGradient>
			<path class="st19" d="M107.4,167.6c0.8,2.7,8.1,5.9,7.3-4.1c-0.3-4.4-1.2-28.9-1.4-31.3s-0.6-5.8-1.7-6.2
				c-5.7-2.1-11.2,4.9-9.7,13.7C102.8,145.7,105.6,161.9,107.4,167.6z"/>
			<path class="st10" d="M137.7,83.5c0.9-0.8,2.1-1.3,3.3-1.6c0.9-0.1-1.1,1-1.8,1.6S136.9,84.2,137.7,83.5z"/>
			<path class="st10" d="M92.3,114.6c2.6-0.5,3.9-1.4,5.1-0.7s-0.6,3-1.4,3.3s-4,2-4.9,1.1c-0.8-1-0.7-2.5,0.3-3.3
				C91.6,114.9,92,114.7,92.3,114.6z"/>
			
				<linearGradient id="SVGID_13_" gradientUnits="userSpaceOnUse" x1="-1577.8617" y1="174.7226" x2="-1582.1517" y2="147.8626" gradientTransform="matrix(1 0 0 -1 1667.13 262.2297)">
				<stop  offset="0" style="stop-color:#36078B"/>
				<stop  offset="1" style="stop-color:#16B1FF"/>
			</linearGradient>
			<path class="st20" d="M83.6,103.3c1.5-2.3,4.8-6.6,8.8-12.3c1.1-2,1.5-4.3,1-6.6c-0.4-1.4-2.5-2.3-4.2-0.2
				c-1.8,2.2-3.5,4.6-5,7.1c-4.4,7.1-5.6,10.4-6,12c-0.1,0.6,0.2,1.3,0.7,1.7c0,0.1,0.1,0.2,0.2,0.2c2.2,3.2,4.9,5.9,8,8.2
				c3.1,2.5,3.1,4,4.4,4.1c1,0.1,2.4-1.3,1.6-2.1C91.8,114.4,86.4,106.7,83.6,103.3z"/>
			<path class="st10" d="M91.8,72.1c1.1,4.1,1.4,5,3.4,6.4c2,1.3,4.4,1.8,6.8,1.4c2.1-0.3,3.3-2.8,3.5-4.7c0.2-3.6-0.2-7.2-1.2-10.7
				c-1.2-2.7-4-4.4-6.9-4.1C94.5,60.9,89.2,62.1,91.8,72.1z"/>
			
				<linearGradient id="SVGID_14_" gradientUnits="userSpaceOnUse" x1="-1552.5431" y1="59.3507" x2="-1552.0032" y2="75.3607" gradientTransform="matrix(1 0 0 -1 1667.13 262.2297)">
				<stop  offset="0" style="stop-color:#2C27CE"/>
				<stop  offset="0.65" style="stop-color:#EF1D68"/>
				<stop  offset="1" style="stop-color:#EFBA92"/>
			</linearGradient>
			<path class="st21" d="M113.3,201.8c0.8,1,1.8,1.8,3,2.3c1.6,0.7,5,1.1,3.1,1.7c-1.7,0.4-3.5,0.5-5.2,0.1
				c-1.2-0.2-2.3-0.2-3.5-0.2c-1.8,0-1.8-0.1-1.5-2.1C109.5,200.8,112.6,200.2,113.3,201.8z"/>
			
				<linearGradient id="SVGID_15_" gradientUnits="userSpaceOnUse" x1="-1191.6656" y1="-154.9159" x2="-1200.3756" y2="-195.0059" gradientTransform="matrix(0.9873 -0.159 -0.159 -0.9873 1249.3486 -295.6763)">
				<stop  offset="0" style="stop-color:#2C27CE"/>
				<stop  offset="1" style="stop-color:#EF1D68"/>
			</linearGradient>
			<path class="st22" d="M103.3,62.5c2.1,2.5-8.9,9.5-11.6,9.5s-2.9-5.1-1.3-8S98.4,56.5,103.3,62.5z"/>
			
				<linearGradient id="SVGID_16_" gradientUnits="userSpaceOnUse" x1="-1186.5569" y1="-156.0335" x2="-1195.2668" y2="-196.1135" gradientTransform="matrix(0.9873 -0.159 -0.159 -0.9873 1249.3486 -295.6763)">
				<stop  offset="0" style="stop-color:#2C27CE"/>
				<stop  offset="1" style="stop-color:#EF1D68"/>
			</linearGradient>
			<path class="st23" d="M98.8,62.5c0.8,2.3,5,2.2,6,4c0.6,1.1,0.2-2.7-1-4.3S97.2,57.9,98.8,62.5z"/>
			<ellipse transform="matrix(0.9257 -0.3782 0.3782 0.9257 -20.3586 40.2973)" class="st10" cx="92.4" cy="72" rx="1.5" ry="2.8"/>
			<g>
				<defs>
					<path id="SVGID_17_" d="M141,81.9c-1.2,0.3-2.2,0.8-3.1,1.5c-1,0.5-2,1.1-2.9,1.9c-0.2,0-0.3,0-0.4,0.1
						c-1.4,0.6-11.3,2.6-15.4,3.9h-0.1c-2-0.5-7.3-3.1-14.4-6.3c0-1.5-0.1-3-0.3-4.5c0.7-0.9,1.1-2.1,1.2-3.2c0.2-2.9,0-5.9-0.7-8.8
						c0.6,1,0.2-2.8-1.1-4.3c-1-1.1-2.4-1.9-3.9-2.2c-0.9-0.3-1.8-0.5-2.8-0.4c-1.8-0.1-3.6,0.4-5,1.6c-3.7,2.7-5.5,7.3-4.8,11.8
						c0.6,4.2,0.3,8.5-0.9,12.5c-0.4,1.2-0.7,2.4-0.9,3.6c-0.4,0.6-0.9,1.3-1.4,2.1c-4.4,7.1-5.6,10.4-6,12
						c-0.1,0.6,0.2,1.3,0.7,1.7c0,0.1,0.1,0.2,0.2,0.2c2.2,3.2,4.9,5.9,8,8.2c1.3,1.1,2.5,2.4,3.5,3.7c0,0.4,0.2,0.9,0.5,1.2
						c0.4,0.3,1.1,0.3,1.8,0.1c0,0.2-0.1,0.4-0.1,0.6c-0.1,0.6-1.3,5.3-1.3,5.8c-0.5,2.6-0.8,5.2-0.8,7.9c-0.4,3.3-2,26.6-2.5,30.9
						c0,0.2,0,0.3,0,0.5l0,0c-3.2,7.4-2.9,31-2.8,35.7c0,0.3,0.1,0.4,0.2,0.4c-0.1,0.3-0.1,0.6-0.1,0.9c0,1.1-0.2,2.1-0.6,3.1
						c-0.5,1.8,1.3,2,4.4,1.9c2.9-0.1,2.2-1.2,1.7-2s-1.2-1-1.3-1.8c-0.1-0.6,0-1-0.2-1.7l0,0c0.7-6.4,4.6-26.3,6.2-33.3
						c0.1-0.6,0.2-1.2,0.2-1.8c2.1-7.3,5.2-19.6,6-25c1,6,3.4,19.5,5,25.8c-2.2,8.8,1.9,26.8,2.2,37.1l0,0c0,0.1,0,0.1-0.1,0.2
						c-0.2,2-0.2,2.1,1.5,2.1c1.2,0,2.4,0,3.5,0.2c1.7,0.4,3.5,0.4,5.2-0.1c1.9-0.6-1.5-1-3.1-1.7c-1.2-0.5-2.2-1.3-3-2.3
						c-0.1-0.1-0.2-0.2-0.3-0.3c-0.1-13.8,1.4-27.5,1.7-34.6c0-0.4,0-0.8,0-1.3c0-0.7,0-1.4,0-2.1c-0.2-3.2-0.8-17-1.1-25.2
						c0-4.5-0.3-9-0.8-13.6c-0.2-4.2-5-17.3-1.7-25.8c1.3-3.5,0.8-5-0.3-6.7c2.5,0.9,5,1.5,7.6,1.8c0.4,0.1,0.9,0.1,1.3,0
						c3.8-0.8,7.4-2.1,10.8-4.1c3.4-1.8,4.8-1.3,5.4-2.3c0.8,0.2,1.6,0,2.3-0.5c1.5-1.4,1.5-1.2,1-3.1c0-0.1-0.1-0.3-0.2-0.4
						c0.1-0.1,0.2-0.1,0.3-0.2C139.9,82.9,141.9,81.8,141,81.9z M83.6,103.3c0.9-1.5,2.6-3.7,4.7-6.6c1.1,0.6,2.2,0.9,3.4,1
						c0.8,3,1.5,6,1.9,9c0.4,2.6,0.4,5.2,0,7.7c-0.4,0.1-0.8,0.2-1.3,0.3h-0.1C90.4,112.4,86,106.2,83.6,103.3z"/>
				</defs>
				<clipPath id="SVGID_18_">
					<use xlink:href="#SVGID_17_"  style="overflow:visible;"/>
				</clipPath>
			</g>
			
				<linearGradient id="SVGID_19_" gradientUnits="userSpaceOnUse" x1="274.0126" y1="158.7595" x2="291.1726" y2="140.6995" gradientTransform="matrix(1 0 0 -1 0 262.2297)">
				<stop  offset="0" style="stop-color:#F70F47"/>
				<stop  offset="1" style="stop-color:#FFB41D"/>
			</linearGradient>
			<path class="st24" d="M268.1,111.6c1.9,0.6,3.4,0,7.9-0.9c6.4-1.4,7.9-2.2,11.5-4.4c2.4-1.5-1.6-6.4-5.2-5.3
				c-3,0.9-12.4,7.7-14.3,8.3C266.8,109.5,266.6,111.1,268.1,111.6z"/>
			
				<linearGradient id="SVGID_20_" gradientUnits="userSpaceOnUse" x1="284.4032" y1="168.6511" x2="301.5732" y2="150.5911" gradientTransform="matrix(1 0 0 -1 0 262.2297)">
				<stop  offset="0" style="stop-color:#F70F47"/>
				<stop  offset="1" style="stop-color:#FFB41D"/>
			</linearGradient>
			<path class="st25" d="M288.2,105.2c0.5-1.4,1-4.8,0-13.1c-0.3-2.9-0.8-5.8-1.6-8.7c-0.7-2.7-3.5-3.4-4.7-2.5
				c-1.9,1.4-3.6,4.5-3.3,6c1.6,8.1,3.3,14.3,3.3,16.3C282,106.2,287.6,107,288.2,105.2z"/>
			<path class="st26" d="M284.2,201c-0.2,0.7-0.3,1.4-0.3,2.1c-0.1,0.9-1,1.2-1.5,1.9s-1.4,1.9,1.9,2c3.5,0.1,5.5,0,4.9-1.9
				c-0.4-1.1-0.6-2.2-0.7-3.3c0.1-0.6,0-1.2-0.4-1.6C287.9,199.8,284.7,199.1,284.2,201z"/>
			<path class="st10" d="M242.6,94.6c-1.1-0.6-10.2-4.7-10.3-2.5c-0.1,2.4,3.1,4.8,4.3,5.5c2.2,1.2,4.8,0.8,5.8-0.3
				C243.2,96.4,243.7,95.2,242.6,94.6z"/>
			<path class="st10" d="M242.3,93.9c-0.4-0.5-2.4-3.2-3-2.8c-0.8,0.5,0.5,2.4,1.3,3.7c0.5,0.7,1.5,1.3,2,0.8S242.8,94.7,242.3,93.9
				z"/>
			<path class="st26" d="M257.6,202.6c-0.9,1.1-2.1,2-3.4,2.5c-1.8,0.8-5.6,1.1-3.5,1.8c1.9,0.5,3.9,0.5,5.8,0.1
				c1.3-0.2,2.6-0.3,3.9-0.2c1.9,0,2-0.1,1.7-2.2C261.9,201.5,258.6,200.9,257.6,202.6z"/>
			<path class="st10" d="M279.7,67.8c-0.4,3.9-0.5,4.8-2.2,6.4s-4.4,1.8-6.3,1.8s-3.3-2.4-3.8-4.1c-0.7-3-0.9-6.2-0.4-9.3
				c0.7-2.7,3-4.7,5.8-4.8C275.6,57.9,280.7,58.2,279.7,67.8z"/>
			
				<linearGradient id="SVGID_21_" gradientUnits="userSpaceOnUse" x1="-3387.1448" y1="2271.8638" x2="-3387.1448" y2="2232.1638" gradientTransform="matrix(0.58 0.81 0.81 -0.58 399.638 4142.6284)">
				<stop  offset="0" style="stop-color:#F70F47"/>
				<stop  offset="1" style="stop-color:#FFB41D"/>
			</linearGradient>
			<path class="st27" d="M240.4,97.2c1.2,1.5,2.2,2.4,6.6,3.7c4,1.3,8.2,2.2,12.4,2.6c2.8,0.2,2.3-6.5-1.3-7.5
				c-3-0.9-14.6-0.2-16.4-0.8C240.4,94.7,239.4,95.9,240.4,97.2z"/>
			
				<linearGradient id="SVGID_22_" gradientUnits="userSpaceOnUse" x1="262.7313" y1="193.2199" x2="262.7313" y2="153.5199" gradientTransform="matrix(1 0 0 -1 0 262.2297)">
				<stop  offset="0" style="stop-color:#F70F47"/>
				<stop  offset="1" style="stop-color:#FFB41D"/>
			</linearGradient>
			<path class="st28" d="M259.7,101.7c1.2-1,3.4-3.6,7.1-11c1.3-2.6,2.5-5.3,3.4-8.2c0.9-2.7-1.1-4.7-2.6-4.7
				c-2.4,0.1-5.5,1.9-6,3.3c-3,7.7-4.9,13.8-6,15.5C253.9,99.2,258.3,102.8,259.7,101.7z"/>
			<path class="st10" d="M277.7,74.7c0.1,1.4,0.2,2.9,0.3,4.4c0,1.9-1.4,3.6-3.3,3.8h-0.2c-1.7,0-3.7-1.5-3.5-3.2
				c0.1-1.1,0.1-2.2,0.1-3.2c0-1.9,1.2-3.5,2.9-4.2l0,0c1.4-0.5,3,0.2,3.5,1.7C277.6,74.2,277.7,74.5,277.7,74.7z"/>
			
				<linearGradient id="SVGID_23_" gradientUnits="userSpaceOnUse" x1="272.3544" y1="193.2199" x2="272.3544" y2="153.5199" gradientTransform="matrix(1 0 0 -1 0 262.2297)">
				<stop  offset="0" style="stop-color:#F70F47"/>
				<stop  offset="1" style="stop-color:#FFB41D"/>
			</linearGradient>
			<path class="st29" d="M285.6,91.5c-3.1,10.4-4.2,21.2-3.6,28.4h-23.8c0,0,0.1-22.3,1.7-34.4c0.4-3,2.3-5.6,5-7
				c2-0.9,4.1-1.3,6.3-1.4h4.4c1.6,0,3.1,0.2,4.6,0.6C286.8,79.7,287.4,85.5,285.6,91.5z"/>
			<path class="st30" d="M281.9,134.5c0,0,2-5,0.1-14.5h-23.8c-0.6,4.8-0.8,9.7-0.9,14.5H281.9z"/>
			<path class="st30" d="M277.2,165.6c-1.9-7.7,6-9.1,8.5-3.5c3.5,7.9,3.3,33.2,3.1,38.3c0,0.7,0.1,1.5-0.3,1.7
				c-0.8,0.3-1.7,0.5-2.5,0.4c-0.9,0-1.8,0-1.8-1.1C283.6,193.9,279.1,173.1,277.2,165.6z"/>
			<path class="st30" d="M270.1,135.5c-0.8-9.6,3-17.1,8.9-13.9c2.5,1.3,3.4,4,3.8,6.5s2.2,28.6,2.8,33.4c1.5,10.6-7,7.8-7.9,4.8
				C275.5,158.9,270.6,140.8,270.1,135.5z"/>
			<path class="st30" d="M262.2,204.2c0.3-11.3,5.1-31.1,2.3-40.4c-1.8-5.9-8.8-6-8.5,1.2c0.3,7.7,2.6,22.6,1.9,37.5
				C257.9,204.1,262.2,205.6,262.2,204.2z"/>
			<path class="st30" d="M264.3,165.8c-0.9,2.9-9,6.4-8.1-4.4c0.4-4.8,1.4-31,1.6-33.5s0.6-6.2,1.9-6.7c6.3-2.3,12.5,5.2,10.8,14.7
				C269.3,142.4,266.2,159.7,264.3,165.8z"/>
			<ellipse transform="matrix(0.9257 -0.3782 0.3782 0.9257 -5.7206 105.9)" class="st10" cx="266.8" cy="67.5" rx="1.4" ry="2.7"/>
			
				<ellipse transform="matrix(0.378 -0.9258 0.9258 0.378 111.4226 300.8069)" class="st10" cx="279.6" cy="67.5" rx="2.7" ry="1.4"/>
			
				<linearGradient id="SVGID_24_" gradientUnits="userSpaceOnUse" x1="261.5518" y1="210.5284" x2="294.9818" y2="184.7784" gradientTransform="matrix(1 0 0 -1 0 262.2297)">
				<stop  offset="0" style="stop-color:#0000FF"/>
				<stop  offset="1" style="stop-color:#9E005D"/>
			</linearGradient>
			<path class="st31" d="M278.5,60c-1.5,2.3-8.9,2.5-11.3,1.7s-2.3-5.5,1.2-5.8c1.9,0,0.5,0.5,2.1,1.1
				C271.3,57.3,280.1,57.6,278.5,60z"/>
			
				<linearGradient id="SVGID_25_" gradientUnits="userSpaceOnUse" x1="259.5841" y1="207.9753" x2="293.0241" y2="182.2353" gradientTransform="matrix(1 0 0 -1 0 262.2297)">
				<stop  offset="0" style="stop-color:#0000FF"/>
				<stop  offset="1" style="stop-color:#9E005D"/>
			</linearGradient>
			<path class="st32" d="M270.2,59.6c-2.3,1.4-2.8,2.6-2.7,5.4s1.3,7.6,6.5,8.7s6.4-4.1,6.7-7.6s0.1-6.2-2.5-6.8
				C274.2,58.3,271.6,58.8,270.2,59.6z"/>
			<g>
				<defs>
					<path id="SVGID_26_" d="M289.3,205.1c-0.4-1-0.6-2.1-0.7-3.3c0.1-0.5,0.2-1,0.1-1.5c0.2-5,0.5-30.3-3.1-38.3l0,0
						c0-0.2,0-0.4-0.1-0.5c-0.6-4.6-2.4-29.7-2.8-33.2c0-2.8-0.2-5.7-0.8-8.4c-0.3-3.7-0.2-7.3,0.2-11c1.9-0.7,3.7-1.6,5.3-2.8
						c0.3-0.2,0.6-0.5,0.7-0.9l0,0c0.5-1.4,1-4.8,0-13.1c-0.3-2.9-0.8-5.8-1.6-8.7c-0.2-0.8-0.6-1.5-1.3-2c-1.1-1.9-2.9-3.2-5-3.7
						c-0.8-0.2-1.6-0.4-2.5-0.5c0-0.9-0.1-1.7-0.2-2.5c0-0.2-0.1-0.4-0.1-0.6c0.8-0.7,1.4-1.6,1.6-2.7c0.3-0.6,0.6-1.3,0.8-2
						c0.4-0.4,0.6-0.8,0.8-1.3c0.5-1.3,0.4-2.6-0.2-2.9c0.1-2.7-0.2-4.8-2-5.6c0.1-1.9-7.5-2.2-8.2-2.5c-1.6-0.6-0.2-1.1-2.1-1.1
						c-3.5,0.3-3.6,5-1.2,5.8h0.1c-0.1,0.3-0.2,0.7-0.3,1c-0.1,0.9-0.2,1.8-0.2,2.6c-0.3-0.2-0.6-0.3-1-0.2c-0.7,0.3-0.8,1.6-0.3,3
						c0.3,0.8,0.8,1.4,1.5,1.9c0.1,0.7,0.2,1.4,0.4,2.1c0.5,1.6,1.7,4,3.7,4.1c0,0.1,0,0.3,0,0.4c0,0.2,0,0.4,0,0.7
						c-1.8,0.1-3.5,0.4-5.1,1c-2,0.6-4,1.9-4.4,3l-0.5,1.3c-0.4,0.7-0.7,1.4-0.8,2.2c-2.3,6-3.8,10.6-4.7,12.1
						c-0.1,0.2-0.2,0.5-0.3,0.8c-2.4,2.1-7.6,10.1-9.5,12.3h-0.1c-0.3,0-0.6,0-0.9,0c-0.6,0-4,0.2-4,0.8s0.9,0.9,2,1
						c-2.8,1.8-6.3,4.4-5.2,5.3c1.9,1.4,5.7,0.2,7-0.4c1.7-0.8,2.8-2.3,3.1-4.2c1.4-0.3,2.8-0.9,5.5-3.1c2.4-1.8,4.2-3.4,5.6-4.7
						c-0.3,8.4-0.4,15.6-0.4,15.6c-0.6,4.8-0.8,9.7-0.9,14.5l0,0c-0.4,8.8-1,23.6-1.3,27c-0.1,0.8-0.1,1.5,0,2.3c0,0.4,0,0.9,0,1.3
						c0.3,7.6,2.6,22.4,1.9,37.1c-0.1,0.1-0.2,0.2-0.3,0.4c-0.9,1.1-2.1,2-3.4,2.5c-1.8,0.8-5.6,1.1-3.5,1.8
						c1.9,0.5,3.9,0.5,5.8,0.1c1.3-0.2,2.6-0.3,3.9-0.2c1.9,0,2-0.1,1.7-2.2c0-0.1,0-0.1,0-0.2l0,0c0.3-11.1,4.9-30.4,2.5-39.8
						c1.9-6.7,4.5-21.2,5.6-27.6c0.9,5.7,4.4,19,6.7,26.8c0,0.7,0.1,1.3,0.3,2c1.8,7.5,6.4,28.4,7,35.7l0,0
						c-0.2,0.8-0.1,1.2-0.2,1.8c-0.1,0.9-1,1.2-1.5,1.9s-1.4,1.9,1.9,2C287.8,207.1,289.9,207,289.3,205.1z"/>
				</defs>
				<clipPath id="SVGID_27_">
					<use xlink:href="#SVGID_26_"  style="overflow:visible;"/>
				</clipPath>
			</g>
		</g>
	</g>
</g>
</svg>
