<?xml version="1.0" encoding="utf-8"?>
<!-- Generator: Adobe Illustrator 21.0.0, SVG Export Plug-In . SVG Version: 6.00 Build 0)  -->
<svg version="1.1" id="Слой_1" xmlns="http://www.w3.org/2000/svg" xmlns:xlink="http://www.w3.org/1999/xlink" x="0px" y="0px"
	 viewBox="0 0 326.7 266.3" style="enable-background:new 0 0 326.7 266.3;" xml:space="preserve">
<style type="text/css">
	.st0{opacity:0.15;fill:url(#SVGID_1_);enable-background:new    ;}
	.st1{opacity:0.15;fill:url(#SVGID_2_);enable-background:new    ;}
	.st2{opacity:0.15;fill:url(#SVGID_3_);enable-background:new    ;}
	.st3{fill:none;stroke:#0037FF;stroke-linecap:round;stroke-linejoin:round;}
	.st4{opacity:0.4;fill:none;stroke:#0037FF;stroke-linecap:round;stroke-linejoin:round;enable-background:new    ;}
	.st5{opacity:0.6;fill:none;stroke:#0037FF;stroke-linecap:round;stroke-linejoin:round;enable-background:new    ;}
	.st6{opacity:0.5;fill:none;stroke:#0037FF;stroke-linecap:round;stroke-linejoin:round;enable-background:new    ;}
	.st7{opacity:0.6;}
	.st8{fill:url(#SVGID_4_);}
	.st9{fill:#FFAF84;}
	.st10{fill:url(#SVGID_5_);}
	.st11{fill:url(#SVGID_6_);}
	.st12{fill:#ED9169;}
	.st13{fill:url(#SVGID_7_);}
	.st14{fill:url(#SVGID_8_);}
	.st15{fill:url(#SVGID_9_);}
	.st16{fill:url(#SVGID_10_);}
	.st17{fill:url(#SVGID_11_);}
	.st18{fill:url(#SVGID_12_);}
	.st19{fill:url(#SVGID_13_);}
	.st20{fill:url(#SVGID_14_);}
	.st21{fill:url(#SVGID_15_);}
	.st22{fill:url(#SVGID_16_);}
</style>
<title>context-slide3</title>
<g>
	<g id="Слой_2">
		<g id="Background">
			
				<linearGradient id="SVGID_1_" gradientUnits="userSpaceOnUse" x1="103.32" y1="149.8573" x2="326.69" y2="149.8573" gradientTransform="matrix(1 0 0 -1 0 291.89)">
				<stop  offset="0" style="stop-color:#36078B"/>
				<stop  offset="1" style="stop-color:#16B1FF"/>
			</linearGradient>
			<path class="st0" d="M215,30.3c-5.7,0-11.4,0.4-17,1.3c59,38.8,75.5,118.1,36.7,177.1c-11.5,17.5-27.1,31.9-45.5,42
				c60,14.3,120.2-22.8,134.5-82.8c14.3-60-22.8-120.2-82.8-134.5C232.4,31.3,223.7,30.3,215,30.3z"/>
			
				<linearGradient id="SVGID_2_" gradientUnits="userSpaceOnUse" x1="2.703544e-02" y1="153.3925" x2="255.727" y2="153.3925" gradientTransform="matrix(1 0 0 -1 0 291.89)">
				<stop  offset="0" style="stop-color:#401381"/>
				<stop  offset="1" style="stop-color:#D11137"/>
			</linearGradient>
			<path class="st1" d="M103.3,142c0-55.1,40.2-102,94.7-110.4C139-7.1,59.7,9.3,21,68.4s-22.3,138.3,36.8,177
				c39.5,25.9,90,27.9,131.4,5.3C138.8,238.7,103.3,193.7,103.3,142z"/>
			
				<linearGradient id="SVGID_3_" gradientUnits="userSpaceOnUse" x1="103.3099" y1="150.74" x2="326.6799" y2="150.74" gradientTransform="matrix(1 0 0 -1 0 291.89)">
				<stop  offset="0" style="stop-color:#36078B"/>
				<stop  offset="1" style="stop-color:#16B1FF"/>
			</linearGradient>
			<path class="st2" d="M255.7,138.5c0-43.1-21.7-83.3-57.7-106.9C137,41,95.2,98.1,104.6,159c6.9,44.9,40.4,81.1,84.5,91.6
				C230.2,228.3,255.7,185.2,255.7,138.5z"/>
		</g>
		<g id="Designed_by_Freepik">
			<polygon class="st3" points="282.6,74.7 282.6,216.3 84.4,216.3 84.4,87.3 			"/>
			<polygon class="st4" points="136.1,168.2 178.3,167.2 178.3,109.3 136.1,111.4 			"/>
			<polygon class="st5" points="142.1,147.4 93,149 93,96.6 142.1,93.7 			"/>
			<path class="st3" d="M132.8,121.1c0,9.3-7,17-15.5,17.3s-15.3-6.8-15.3-15.9s6.8-16.9,15.3-17.3S132.8,111.9,132.8,121.1z"/>
			<path class="st3" d="M129,121.3c0,4-1.7,7.8-4.8,10.4c-0.9,0.7-1.8,1.3-2.8,1.8c-0.4,0.2-0.9,0.4-1.4,0.5
				c-0.3,0.1-0.6,0.2-0.9,0.2c-0.6,0.1-1.2,0.2-1.8,0.2c-1.2,0-2.3-0.1-3.5-0.4c-5-1.6-8.3-6.4-8.2-11.7c0-1.9,0.4-3.8,1.2-5.5
				c0.9-2,2.2-3.8,4-5.2c0.4-0.3,0.8-0.6,1.3-0.9c0.9-0.6,1.9-1,3-1.3c5.6-1.4,11.3,1.7,13.1,7.2C128.7,118.2,129,119.7,129,121.3z"
				/>
			<path class="st3" d="M117.3,123.3c-0.8,0-1.4-0.6-1.4-1.4l0,0v-8.1c0-0.8,0.6-1.4,1.4-1.4s1.4,0.6,1.4,1.4v8.1
				C118.7,122.6,118,123.3,117.3,123.3L117.3,123.3z"/>
			<path class="st3" d="M117.3,123.3c-0.8,0-1.4-0.6-1.4-1.4c0-0.5,0.2-0.9,0.6-1.2l3.9-2.8c0.6-0.5,1.5-0.3,2,0.3s0.3,1.5-0.3,2
				l0,0l-3.9,2.8C117.9,123.2,117.6,123.3,117.3,123.3z"/>
			<polygon class="st3" points="282.6,74.7 84.4,87.3 84.4,68.7 282.6,54.3 			"/>
			<polygon class="st3" points="278.5,70.7 87.8,83.2 87.8,77 278.5,64 			"/>
			<polygon class="st3" points="90.7,74.8 87.8,75 87.8,71.8 90.7,71.6 			"/>
			<polygon class="st3" points="95.9,74.4 93,74.6 93,71.4 95.9,71.2 			"/>
			<polygon class="st3" points="101.2,74 98.2,74.2 98.2,71 101.2,70.8 			"/>
			<polygon class="st6" points="172.3,196.1 269.3,195.2 269.3,82.9 172.3,88.8 			"/>
			<path class="st3" d="M185.2,113c-0.7,0-1.3-0.2-1.8-0.7c-0.5-0.5-0.8-1.2-0.8-2V95.6c0-1.5,1.1-2.7,2.6-2.9l86.5-5
				c1.5-0.1,2.8,1,2.9,2.5c0,0.1,0,0.1,0,0.2v15.3c0,1.6-1.2,2.9-2.8,3l-86.5,4.2H185.2z M271.9,89L271.9,89l-86.6,5
				c-0.8,0.1-1.4,0.8-1.4,1.6v14.7c0,0.4,0.2,0.7,0.4,1c0.2,0.2,0.6,0.4,0.9,0.3l86.5-4.2c0.9-0.1,1.6-0.8,1.6-1.7V90.5
				c0-0.4-0.2-0.8-0.4-1.1C272.7,89.2,272.3,89,271.9,89z"/>
			<path class="st3" d="M185.2,137.9c-0.7,0-1.3-0.3-1.8-0.7c-0.5-0.5-0.8-1.2-0.8-2v-14.7c0-1.5,1.1-2.7,2.6-2.8l86.5-4
				c0.7,0,1.5,0.2,2,0.8c0.5,0.5,0.9,1.2,0.9,2v15.4c0,1.6-1.3,2.8-2.8,2.9L185.2,137.9L185.2,137.9z M271.9,115L271.9,115l-86.6,4
				c-0.8,0.1-1.4,0.8-1.4,1.6v14.7c0,0.4,0.2,0.7,0.4,1c0.2,0.2,0.6,0.4,0.9,0.4l86.5-3.2c0.9,0,1.6-0.8,1.6-1.6v-15.3
				c0-0.4-0.2-0.8-0.4-1.1C272.7,115.2,272.3,115,271.9,115z"/>
			<path class="st3" d="M185.2,162.9c-0.7,0-1.3-0.3-1.8-0.7c-0.5-0.5-0.8-1.2-0.8-2v-14.7c0-1.5,1.2-2.7,2.6-2.8l86.5-3
				c0.7,0,1.5,0.3,2,0.8c0.5,0.5,0.8,1.2,0.8,2v15.3c0,1.6-1.3,2.9-2.8,2.9L185.2,162.9L185.2,162.9z M271.9,141L271.9,141l-86.6,3
				c-0.8,0.1-1.4,0.7-1.4,1.5v14.7c0,0.4,0.2,0.7,0.4,1c0.3,0.2,0.6,0.4,0.9,0.4l86.5-2.2c0.9,0,1.6-0.7,1.6-1.6v-15.3
				c0-0.4-0.2-0.8-0.5-1.1C272.6,141.2,272.3,141,271.9,141z"/>
			<path class="st3" d="M185.3,187.9c-0.7,0-1.3-0.3-1.8-0.8c-0.5-0.5-0.8-1.2-0.8-2v-14.7c0-1.5,1.2-2.7,2.7-2.8l86.5-1.9
				c0.7,0,1.5,0.3,2,0.8c0.5,0.5,0.8,1.2,0.8,2v15.3c0,1.6-1.3,2.8-2.8,2.9L185.3,187.9L185.3,187.9z M185.3,186.6L185.3,186.6
				l86.5-1.2c0.9,0,1.6-0.7,1.5-1.6v-15.3c0-0.4-0.2-0.8-0.5-1.1c-0.3-0.3-0.7-0.4-1.1-0.4l-86.5,1.9c-0.8,0-1.4,0.7-1.4,1.5v14.7
				c0,0.4,0.1,0.8,0.4,1.1C184.6,186.5,184.9,186.6,185.3,186.6L185.3,186.6z"/>
			<polygon class="st6" points="226.7,150.4 264.1,149.3 264.1,146.3 226.7,147.5 			"/>
			<polygon class="st6" points="238.8,155.3 264.1,154.6 264.1,151.6 238.8,152.4 			"/>
			<polygon class="st6" points="229.7,155.6 235.9,155.4 235.9,152.4 229.7,152.6 			"/>
			<polygon class="st6" points="226.7,100.1 264.1,98.1 264.1,95.1 226.7,97.2 			"/>
			<polygon class="st6" points="241.7,104.6 264.1,103.4 264.1,100.4 241.7,101.6 			"/>
			<polygon class="st6" points="215.6,105.9 238.8,104.7 238.8,101.8 215.6,103 			"/>
			<polygon class="st6" points="249.1,175.5 264.1,175.2 264.1,172.2 249.1,172.5 			"/>
			<polygon class="st6" points="231.4,175.8 246.3,175.5 246.3,172.5 231.4,172.8 			"/>
			<polygon class="st6" points="238.8,180.9 264.1,180.5 264.1,177.5 238.8,178 			"/>
			<polygon class="st6" points="211.6,181.4 235.9,181 235.9,178 211.6,178.4 			"/>
			<path class="st3" d="M189.6,109.4l86.9-3.4c1.2-0.1,2.2-1.1,2.2-2.3V88.4c0-1.1-0.9-2.1-2.1-2.1c0,0-0.1,0-0.1,0l-86.9,4.1
				c-1.1,0.1-2,1.1-2,2.2v14.7C187.6,108.5,188.5,109.4,189.6,109.4C189.6,109.4,189.6,109.4,189.6,109.4z"/>
			<g class="st7">
				<polygon class="st3" points="236.6,93.7 274,92 274,89.8 236.6,91.5 				"/>
				<polygon class="st3" points="236.6,97.6 274,96 274,93.8 236.6,95.4 				"/>
				<polygon class="st3" points="257.3,100.7 274,100 274,97.7 257.3,98.4 				"/>
			</g>
			<polygon class="st3" points="205,102.9 214.7,102.5 214.7,92.5 205,92.9 			"/>
			<polygon class="st5" points="193.9,103.4 203.5,103 203.5,93 193.9,93.5 			"/>
			
				<linearGradient id="SVGID_4_" gradientUnits="userSpaceOnUse" x1="156.6005" y1="232.9321" x2="147.6205" y2="191.6021" gradientTransform="matrix(1 0 0 -1 0 291.89)">
				<stop  offset="0" style="stop-color:#2C27CE"/>
				<stop  offset="1" style="stop-color:#EF1D68"/>
			</linearGradient>
			<path class="st8" d="M145.9,73.2c-3.8,2.8-5.7,7.5-4.9,12.2c0.6,4.3,0.3,8.7-1,12.9c-0.9,2.9-4.2,12.7,7.4,12.5
				s12.3-13.7,10.9-20.7s1.1-11.8-0.6-13.9S151.9,68.9,145.9,73.2z"/>
			<path class="st9" d="M189.5,98.5c2.2-1.7,4.3-3.6,4.8-1.6s0.5,1.8-1.1,3.2S187.7,99.9,189.5,98.5z"/>
			
				<linearGradient id="SVGID_5_" gradientUnits="userSpaceOnUse" x1="163.4796" y1="191.0559" x2="186.0796" y2="188.8359" gradientTransform="matrix(1 0 0 -1 0 291.89)">
				<stop  offset="0" style="stop-color:#36078B"/>
				<stop  offset="1" style="stop-color:#16B1FF"/>
			</linearGradient>
			<path class="st10" d="M189.6,98.1c-1.5,0.7-11.7,2.7-15.8,4h-0.1c-2.1-0.6-7.8-3.3-15.4-6.7c-2.2-0.7-4.7-0.6-6.8,0.4
				c-1.4,0.7-1.8,3,0.7,4.3c2.7,1.4,5.4,2.6,8.2,3.6c7,2.6,10.6,3.3,12.6,3.5c0.4,0.1,0.9,0.1,1.3,0c3.9-0.8,7.6-2.2,11.1-4.2
				c3.6-1.9,5.1-1.3,5.6-2.4C191.4,99.5,190.7,97.6,189.6,98.1z"/>
			
				<linearGradient id="SVGID_6_" gradientUnits="userSpaceOnUse" x1="141.8239" y1="73.4705" x2="142.3739" y2="89.9805" gradientTransform="matrix(1 0 0 -1 0 291.89)">
				<stop  offset="0" style="stop-color:#2C27CE"/>
				<stop  offset="0.65" style="stop-color:#EF1D68"/>
				<stop  offset="1" style="stop-color:#EFBA92"/>
			</linearGradient>
			<path class="st11" d="M143.1,216.7c0.1,0.7,0.2,1.4,0.3,2.1c0.1,0.8,0.9,1.1,1.3,1.8s1.3,2-1.7,2c-3.2,0.1-5.1-0.2-4.6-2
				c0.4-1,0.6-2.1,0.6-3.2c-0.1-0.5,0-1.1,0.4-1.6C139.7,215.5,142.6,214.9,143.1,216.7z"/>
			<path class="st12" d="M149,87.4c0,0.2-0.4,5.3-0.5,9.2c0,1.9,1.4,3.7,2.7,3.8h0.1c1.4,0,2.9-1.7,2.8-3.6c-0.2-3.4-0.1-6.9,0-6.9
				L149,87.4z"/>
			
				<linearGradient id="SVGID_7_" gradientUnits="userSpaceOnUse" x1="149.5995" y1="195.6921" x2="158.2395" y2="157.1321" gradientTransform="matrix(1 0 0 -1 0 291.89)">
				<stop  offset="0" style="stop-color:#36078B"/>
				<stop  offset="1" style="stop-color:#16B1FF"/>
			</linearGradient>
			<path class="st13" d="M145,109.4c1.1,3.5,1.9,7.1,2.4,10.7c0.4,2.7,0.4,5.3,0,8c-0.2,1.6-0.5,3.2-0.9,4.8
				c-0.1,0.6-1.3,5.4-1.4,5.9h22c-0.2-4.3-5.1-17.8-1.8-26.6c2.3-6.1-0.8-6.3-2.8-11.3c-0.4-1.3-1-2.5-1.8-3.7
				c-0.9-1-2.1-1.8-3.4-2.1c-0.7-0.2-1.3-0.2-2-0.3c-3.7-0.3-12.5-1.4-13.3,3.9c-0.2,1.4,0,2.9,0.4,4.3c0.5,1.6,1.2,3,1.8,4.5
				C144.6,108.1,144.8,108.8,145,109.4z"/>
			
				<linearGradient id="SVGID_8_" gradientUnits="userSpaceOnUse" x1="156.3494" y1="127.13" x2="157.5294" y2="21.35" gradientTransform="matrix(1 0 0 -1 0 291.89)">
				<stop  offset="0" style="stop-color:#F70F47"/>
				<stop  offset="1" style="stop-color:#9E005D"/>
			</linearGradient>
			<path class="st14" d="M145.3,152.8c0,0-1.9-4.8-0.1-14h22c0.5,4.6,0.8,9.3,0.8,14H145.3z"/>
			
				<linearGradient id="SVGID_9_" gradientUnits="userSpaceOnUse" x1="144.0016" y1="127" x2="145.1815" y2="21.21" gradientTransform="matrix(1 0 0 -1 0 291.89)">
				<stop  offset="0" style="stop-color:#F70F47"/>
				<stop  offset="1" style="stop-color:#9E005D"/>
			</linearGradient>
			<path class="st15" d="M149.6,182.6c1.8-7.4-5.6-8.7-7.9-3.4c-3.3,7.6-3,31.9-2.8,36.8c0,0.6,0.4,0.5,0.7,0.4
				c0.7-0.3,1.5-0.5,2.3-0.4c0.5,0.1,1,0.5,1.2,1C143.9,210.4,147.9,189.8,149.6,182.6z"/>
			
				<linearGradient id="SVGID_10_" gradientUnits="userSpaceOnUse" x1="148.9506" y1="127.05" x2="150.1306" y2="21.26" gradientTransform="matrix(1 0 0 -1 0 291.89)">
				<stop  offset="0" style="stop-color:#F70F47"/>
				<stop  offset="1" style="stop-color:#9E005D"/>
			</linearGradient>
			<path class="st16" d="M156.2,153.8c0.8-9.2-2.8-16.4-8.3-13.4c-2.3,1.3-3.2,3.9-3.5,6.3s-2,27.5-2.6,32.1
				c-1.4,10.2,6.4,7.5,7.3,4.6C151.2,176.2,155.8,158.8,156.2,153.8z"/>
			
				<linearGradient id="SVGID_11_" gradientUnits="userSpaceOnUse" x1="164.6329" y1="127.2299" x2="165.8129" y2="21.4399" gradientTransform="matrix(1 0 0 -1 0 291.89)">
				<stop  offset="0" style="stop-color:#F70F47"/>
				<stop  offset="1" style="stop-color:#9E005D"/>
			</linearGradient>
			<path class="st17" d="M169.2,182.2c0.3-6.9-6.2-6.8-7.9-1.1c-2.6,8.9,1.9,27.9,2.1,38.8c1.1-1.9,2.2-2.3,2.7-2.3
				c0.5,0.1,1,0.3,1.3,0.7C167.3,203.9,168.9,189.6,169.2,182.2z"/>
			
				<linearGradient id="SVGID_12_" gradientUnits="userSpaceOnUse" x1="162.4056" y1="127.2001" x2="163.5856" y2="21.41" gradientTransform="matrix(1 0 0 -1 0 291.89)">
				<stop  offset="0" style="stop-color:#F70F47"/>
				<stop  offset="1" style="stop-color:#9E005D"/>
			</linearGradient>
			<path class="st18" d="M161.6,182.9c0.9,2.8,8.3,6.1,7.5-4.2c-0.3-4.6-1.3-29.8-1.4-32.2s-0.6-6-1.8-6.4c-5.9-2.2-11.6,5-10,14.2
				C156.9,160.3,159.8,177,161.6,182.9z"/>
			<path class="st9" d="M192.9,96.2c1-0.8,2.1-1.4,3.4-1.7c1-0.1-1.1,1-1.9,1.7S192,96.9,192.9,96.2z"/>
			<path class="st9" d="M146.1,128.4c2.7-0.5,4.1-1.4,5.3-0.8s-0.6,3-1.5,3.4s-4.1,2-5.1,1.2c-0.8-1-0.7-2.5,0.4-3.4
				C145.4,128.6,145.7,128.4,146.1,128.4z"/>
			
				<linearGradient id="SVGID_13_" gradientUnits="userSpaceOnUse" x1="142.8389" y1="191.5382" x2="138.4089" y2="163.8382" gradientTransform="matrix(1 0 0 -1 0 291.89)">
				<stop  offset="0" style="stop-color:#36078B"/>
				<stop  offset="1" style="stop-color:#16B1FF"/>
			</linearGradient>
			<path class="st19" d="M137,116.6c1.5-2.4,4.9-6.8,9.1-12.7c1.1-2.1,1.5-4.5,1-6.8c-0.4-1.5-2.6-2.4-4.3-0.2
				c-1.9,2.3-3.6,4.8-5.2,7.3c-4.6,7.3-5.8,10.8-6.2,12.4c-0.1,0.7,0.2,1.3,0.7,1.7c0.1,0.1,0.1,0.2,0.1,0.3
				c2.3,3.3,5.1,6.1,8.3,8.5c3.2,2.6,3.2,4.1,4.5,4.2c1,0.1,2.5-1.3,1.6-2.1C145.6,128.1,140,120.1,137,116.6z"/>
			<path class="st9" d="M145.6,84.5c1.1,4.2,1.4,5.2,3.6,6.6c2.1,1.3,4.6,1.9,7,1.5c2.2-0.3,3.4-2.9,3.6-4.8
				c0.2-3.7-0.2-7.5-1.3-11.1c-0.7-2.3-4.1-4.7-7.1-4.3S142.8,74.2,145.6,84.5z"/>
			
				<linearGradient id="SVGID_14_" gradientUnits="userSpaceOnUse" x1="169.0844" y1="72.5595" x2="169.6444" y2="89.0695" gradientTransform="matrix(1 0 0 -1 0 291.89)">
				<stop  offset="0" style="stop-color:#2C27CE"/>
				<stop  offset="0.65" style="stop-color:#EF1D68"/>
				<stop  offset="1" style="stop-color:#EFBA92"/>
			</linearGradient>
			<path class="st20" d="M167.7,218.2c0.8,1,1.9,1.9,3.1,2.4c1.7,0.7,5.2,1.1,3.2,1.8c-1.8,0.4-3.6,0.5-5.4,0.1
				c-1.2-0.2-2.4-0.2-3.6-0.2c-1.8,0-1.8-0.1-1.6-2.1C163.8,217.2,166.9,216.6,167.7,218.2z"/>
			
				<linearGradient id="SVGID_15_" gradientUnits="userSpaceOnUse" x1="524.0059" y1="-231.5706" x2="515.0259" y2="-272.9105" gradientTransform="matrix(0.9873 -0.159 -0.159 -0.9873 -402.7585 -86.7921)">
				<stop  offset="0" style="stop-color:#2C27CE"/>
				<stop  offset="1" style="stop-color:#EF1D68"/>
			</linearGradient>
			<path class="st21" d="M157.4,74.5c2.1,2.6-9.2,9.8-12,9.8s-3-5.3-1.3-8.3S152.4,68.4,157.4,74.5z"/>
			
				<linearGradient id="SVGID_16_" gradientUnits="userSpaceOnUse" x1="529.2923" y1="-232.7219" x2="520.3123" y2="-274.0519" gradientTransform="matrix(0.9873 -0.159 -0.159 -0.9873 -402.7585 -86.7921)">
				<stop  offset="0" style="stop-color:#2C27CE"/>
				<stop  offset="1" style="stop-color:#EF1D68"/>
			</linearGradient>
			<path class="st22" d="M152.8,74.6c0.8,2.3,5.2,2.2,6.2,4.1c0.6,1.2,0.2-2.8-1.1-4.4S151.1,69.8,152.8,74.6z"/>
			<ellipse transform="matrix(0.9257 -0.3782 0.3782 0.9257 -21.0252 61.8626)" class="st9" cx="147" cy="84.5" rx="1.5" ry="3"/>
			<g>
				<defs>
					<path id="SVGID_17_" d="M196.3,94.6c-1.2,0.3-2.3,0.8-3.3,1.6c-1.1,0.5-2.1,1.1-3,1.9c-0.2,0-0.3,0-0.5,0.1
						c-1.5,0.7-11.7,2.7-15.8,4h-0.1c-2-0.6-7.5-3.2-14.9-6.5c0-1.5-0.1-3.1-0.3-4.6c0.7-1,1.2-2.1,1.3-3.3c0.2-3-0.1-6.1-0.8-9
						c0.6,1,0.2-2.9-1.1-4.5c-1.1-1.1-2.5-1.9-4-2.3c-0.9-0.3-1.9-0.5-2.9-0.4c-1.9-0.1-3.7,0.4-5.2,1.6c-3.7,2.8-5.6,7.5-4.8,12.1
						c0.6,4.3,0.3,8.7-1,12.9c-0.4,1.2-0.8,2.5-1,3.8c-0.4,0.7-0.9,1.4-1.4,2.2c-4.6,7.3-5.8,10.8-6.2,12.4
						c-0.1,0.7,0.2,1.3,0.7,1.7c0.1,0.1,0.1,0.2,0.1,0.3c2.3,3.3,5.1,6.1,8.3,8.5c1.3,1.1,2.6,2.4,3.6,3.8c0,0.5,0.2,0.9,0.5,1.2
						c0.4,0.4,1.1,0.3,1.9,0.1c0,0.2-0.1,0.4-0.1,0.6c-0.1,0.6-1.3,5.4-1.4,5.9c-0.5,2.7-0.8,5.4-0.8,8.1c-0.4,3.4-2,27.4-2.6,31.9
						c0,0.2,0,0.3,0,0.5l0,0c-3.3,7.6-3,31.9-2.8,36.8c0,0.3,0.1,0.4,0.2,0.4c-0.1,0.3-0.1,0.6-0.1,0.9c0,1.1-0.2,2.2-0.6,3.2
						c-0.5,1.8,1.4,2,4.6,2c3-0.1,2.2-1.3,1.7-2s-1.2-1-1.3-1.8c-0.1-0.6,0-1-0.2-1.8l0,0c0.7-6.6,4.7-27.2,6.4-34.4
						c0.1-0.6,0.2-1.3,0.3-1.9c2.1-7.5,5.4-20.3,6.2-25.7c1,6.1,3.5,20.1,5.2,26.6c-2.3,9.1,2,27.6,2.3,38.3l0,0
						c0,0.1-0.1,0.1-0.1,0.2c-0.2,2-0.2,2.1,1.6,2.1c1.2,0,2.4,0.1,3.6,0.2c1.8,0.4,3.6,0.4,5.4-0.1c2-0.6-1.6-1-3.2-1.8
						c-1.2-0.5-2.3-1.3-3.1-2.4c-0.1-0.1-0.2-0.2-0.3-0.3c-0.1-14.2,1.4-28.4,1.7-35.7c0-0.4,0-0.9,0-1.3c0-0.7,0-1.4,0-2.1
						c-0.3-3.3-0.8-17.5-1.1-26c0-4.7-0.3-9.4-0.8-14c-0.2-4.3-5.1-17.8-1.8-26.6c1.4-3.7,0.8-5.2-0.3-6.9c2.5,0.9,5.2,1.5,7.8,1.8
						c0.4,0.1,0.9,0.1,1.3,0c3.9-0.8,7.6-2.2,11.1-4.2c3.5-1.8,4.9-1.4,5.6-2.3c0.8,0.2,1.7,0,2.4-0.5c1.5-1.4,1.6-1.2,1.1-3.2
						c0-0.2-0.1-0.3-0.2-0.4c0.1-0.1,0.2-0.1,0.3-0.2C195.2,95.6,197.2,94.5,196.3,94.6z M137,116.6c1-1.5,2.7-3.8,4.9-6.8
						c1.1,0.6,2.3,0.9,3.5,1c0.9,3,1.5,6.1,2,9.3c0.4,2.7,0.4,5.3,0,8c-0.4,0.1-0.9,0.2-1.4,0.3H146
						C144.1,126,139.6,119.7,137,116.6z"/>
				</defs>
				<clipPath id="SVGID_18_">
					<use xlink:href="#SVGID_17_"  style="overflow:visible;"/>
				</clipPath>
			</g>
		</g>
	</g>
</g>
</svg>
