<?xml version="1.0" encoding="utf-8"?>
<!-- Generator: Adobe Illustrator 21.0.0, SVG Export Plug-In . SVG Version: 6.00 Build 0)  -->
<svg version="1.1" id="Слой_1" xmlns="http://www.w3.org/2000/svg" xmlns:xlink="http://www.w3.org/1999/xlink" x="0px" y="0px"
	 viewBox="0 0 330.2 255.7" style="enable-background:new 0 0 330.2 255.7;" xml:space="preserve">
<style type="text/css">
	.st0{opacity:0.15;fill:url(#SVGID_1_);enable-background:new    ;}
	.st1{opacity:0.15;fill:url(#SVGID_2_);enable-background:new    ;}
	.st2{opacity:0.15;fill:url(#SVGID_3_);enable-background:new    ;}
	.st3{fill:none;stroke:#0037FF;stroke-linecap:round;stroke-linejoin:round;}
	.st4{opacity:0.2;fill:none;stroke:#0037FF;stroke-linecap:round;stroke-linejoin:round;enable-background:new    ;}
	.st5{opacity:0.3;fill:none;stroke:#0037FF;stroke-linecap:round;stroke-linejoin:round;enable-background:new    ;}
	.st6{opacity:0.1;fill:none;stroke:#0037FF;stroke-linecap:round;stroke-linejoin:round;enable-background:new    ;}
	.st7{fill:#FFAF84;}
	.st8{fill:url(#SVGID_4_);}
	.st9{fill:url(#SVGID_5_);}
	.st10{fill:url(#SVGID_6_);}
	.st11{fill:url(#SVGID_7_);}
	.st12{fill:url(#SVGID_8_);}
	.st13{fill:url(#SVGID_9_);}
	.st14{fill:url(#SVGID_10_);}
	.st15{fill:url(#SVGID_11_);}
	.st16{fill:url(#SVGID_12_);}
	.st17{fill:url(#SVGID_13_);}
	.st18{fill:url(#SVGID_14_);}
	.st19{fill:url(#SVGID_15_);}
</style>
<title>context-slide1</title>
<g>
	<g id="Слой_2">
		<g id="Background">
			
				<linearGradient id="SVGID_1_" gradientUnits="userSpaceOnUse" x1="103.32" y1="134.4975" x2="326.69" y2="134.4975" gradientTransform="matrix(1 0 0 -1 0 265.89)">
				<stop  offset="0" style="stop-color:#36078B"/>
				<stop  offset="1" style="stop-color:#16B1FF"/>
			</linearGradient>
			<path class="st0" d="M215,19.7c-5.7,0-11.4,0.5-17,1.3c59,38.8,75.4,118.1,36.6,177.1c-11.5,17.5-27.1,31.8-45.4,41.9
				c60,14.4,120.3-22.6,134.7-82.6c14.4-60-22.6-120.3-82.6-134.7C232.7,20.7,223.9,19.7,215,19.7z"/>
			
				<linearGradient id="SVGID_2_" gradientUnits="userSpaceOnUse" x1="-3.483742e-02" y1="138.0432" x2="255.6652" y2="138.0432" gradientTransform="matrix(1 0 0 -1 0 265.89)">
				<stop  offset="0" style="stop-color:#401381"/>
				<stop  offset="1" style="stop-color:#D11137"/>
			</linearGradient>
			<path class="st1" d="M103.3,131.4c0-55.1,40.2-102,94.7-110.4C139-17.8,59.7-1.3,21,57.7s-22.3,138.3,36.7,177
				c39.5,25.9,90.1,28,131.6,5.3C138.9,228,103.3,183.1,103.3,131.4z"/>
			
				<linearGradient id="SVGID_3_" gradientUnits="userSpaceOnUse" x1="103.32" y1="135.39" x2="326.69" y2="135.39" gradientTransform="matrix(1 0 0 -1 0 265.89)">
				<stop  offset="0" style="stop-color:#36078B"/>
				<stop  offset="1" style="stop-color:#16B1FF"/>
			</linearGradient>
			<path class="st2" d="M255.7,127.8C255.7,84.8,234,44.6,198,21c-61,9.5-102.7,66.7-93.1,127.6c7,44.7,40.3,80.8,84.3,91.4
				C230.2,217.6,255.7,174.6,255.7,127.8z"/>
		</g>
		<g id="Designed_by_Freepik">
			<path class="st3" d="M149.8,193.6l-7.2,7l-6.8,6.7c-2.4,2.4-6.3,2.4-8.8,0c-2.4-2.4-2.4-6.3,0-8.8l5.3-5.3l5.5-5.5L149.8,193.6z"
				/>
			<path class="st3" d="M217.6,209c-1.6,0-3.2-0.6-4.4-1.8l-6.8-6.7l-7.2-7l11.9-5.9l5.5,5.5l5.3,5.3c2.4,2.4,2.4,6.3,0,8.8
				C220.8,208.3,219.3,209,217.6,209z"/>
			<path class="st3" d="M137.9,187.6l11.9,5.9l-7.2,7c-3.7-2.1-7.1-4.6-10.3-7.4L137.9,187.6z"/>
			<path class="st3" d="M216.6,193.1c-3.2,2.8-6.6,5.3-10.3,7.4l-7.2-7l11.9-5.9L216.6,193.1z"/>
			<circle class="st3" cx="175.5" cy="147.5" r="59.4"/>
			<circle class="st3" cx="175.5" cy="147.5" r="49.7"/>
			<circle class="st3" cx="175.5" cy="147.5" r="40.6"/>
			<circle class="st3" cx="175.5" cy="147.5" r="27.8"/>
			<circle class="st3" cx="175.5" cy="147.5" r="18.2"/>
			<circle class="st3" cx="175.5" cy="147.5" r="8.8"/>
			<circle class="st3" cx="175.5" cy="147.5" r="4.8"/>
			<path class="st4" d="M233,149.9h-58.1c-1.3,0-2.4-1.1-2.4-2.4s1.1-2.4,2.4-2.4l0,0H233c1.3,0,2.4,1.1,2.4,2.4
				S234.3,149.9,233,149.9L233,149.9z"/>
			<path class="st3" d="M242.7,80.1l-34.3,34.3l16.5-0.1l34-34L242.7,80.1z"/>
			<path class="st3" d="M242.7,80.1l-34.3,34.3l0.1-16.4l34-34L242.7,80.1z"/>
			<path class="st3" d="M175.5,149.8c-1.3,0-2.4-1.1-2.4-2.4c0-0.6,0.3-1.3,0.7-1.7L240.4,79c0.9-0.9,2.5-0.9,3.4,0
				c0.9,0.9,0.9,2.5,0,3.4l-66.6,66.6C176.8,149.5,176.1,149.8,175.5,149.8z"/>
			
				<rect x="239.5" y="53.6" transform="matrix(0.6099 -0.7925 0.7925 0.6099 50.8414 213.047)" class="st3" width="4.6" height="2.5"/>
			<path class="st3" d="M231.2,68.7L231.2,68.7c1,0.8,2.4,0.6,3.1-0.4c0,0,0-0.1,0.1-0.1l8-11.4l-2.6-2l-8.9,10.6
				C230,66.4,230.2,67.8,231.2,68.7C231.1,68.6,231.2,68.7,231.2,68.7z"/>
			<path class="st5" d="M238.9,45.6c0.8,6.2,6.5,10.6,12.7,9.7c2.6-0.3,4.9-1.5,6.7-3.4c0.6-0.6,1.1-1.3,1.6-2.1
				c0.3-0.5,0.5-1,0.7-1.5c0.6-1.5,0.9-3.2,0.8-4.8c0-0.3,0-0.6-0.1-0.9c-0.8-6.2-6.5-10.6-12.7-9.8c-0.3,0-0.6,0.1-0.9,0.2
				c-1.6,0.3-3.1,1-4.4,2c-0.4,0.3-0.8,0.7-1.2,1.1c-0.6,0.6-1.2,1.3-1.6,2.1C239.1,40.4,238.6,43,238.9,45.6z"/>
			<path class="st6" d="M243.3,35.1l17.3,13.3c0.6-1.5,0.9-3.2,0.8-4.8L247.8,33C246.1,33.3,244.6,34.1,243.3,35.1z"/>
			<path class="st6" d="M240.5,38.2l17.8,13.7c0.6-0.6,1.1-1.3,1.6-2.1l-17.8-13.7C241.5,36.8,240.9,37.4,240.5,38.2z"/>
			<path class="st3" d="M251.8,57c-7.1,1-13.7-4-14.6-11.1c-0.5-3.5,0.5-7,2.6-9.7l0,0c4.4-5.7,12.6-6.7,18.2-2.3
				c5.7,4.4,6.7,12.6,2.3,18.2C258.2,54.8,255.2,56.5,251.8,57z M248.9,34.6c-2.5,0.3-4.8,1.6-6.4,3.7l0,0
				c-3.2,4.2-2.4,10.2,1.7,13.4c4.2,3.2,10.2,2.4,13.4-1.7c3.2-4.2,2.4-10.2-1.7-13.4C253.9,35,251.4,34.3,248.9,34.6z"/>
			<path class="st7" d="M240.3,65.5c-0.5-1.2-3.2-9-4.7-7.5c-2.9,2.9-2.1,4.6-1.7,5.9c0.8,2.3,3.1,3.7,4.6,3.5
				C239.6,67.3,240.8,66.6,240.3,65.5z"/>
			<path class="st7" d="M240.5,64.8c0-0.6,0.2-4.5-0.4-4.5c-1-0.1-1.6,2.3-1.8,3.7c-0.1,0.8,0.7,2.2,1.4,2.2S240.4,65.7,240.5,64.8z
				"/>
			
				<linearGradient id="SVGID_4_" gradientUnits="userSpaceOnUse" x1="408.5131" y1="37.6281" x2="454.1231" y2="47.5881" gradientTransform="matrix(1 -6.000000e-02 -6.000000e-02 -1 -133.2266 172.55)">
				<stop  offset="0" style="stop-color:#F70F47"/>
				<stop  offset="1" style="stop-color:#9E005D"/>
			</linearGradient>
			<path class="st8" d="M294.4,115.9c-0.7-6.5-1.1-8-3-11.8l0,0c0-0.1,0-0.1-0.1-0.2c-0.8-1.3-3-3.8-9.9-8.4
				c-2.4-1.7-4.9-3.1-7.5-4.4c-2.5-1.2-4.8,0.5-4.9,1.9c-0.2,2.3,1.1,5.6,2.4,6.3c7.1,4,12.8,6.7,14.4,8c0.3,0.2,0.6,0.4,0.9,0.4
				c0,0.2,0,0.5,0.1,0.7c0.6,3.1,5,13.3,5.3,15.1c0.2,1.3,1.7,1.6,2.4,0.2C295.3,122,294.9,120.4,294.4,115.9z"/>
			
				<linearGradient id="SVGID_5_" gradientUnits="userSpaceOnUse" x1="357.5985" y1="-41.3803" x2="368.6537" y2="-41.3803" gradientTransform="matrix(1 -6.000000e-02 -6.000000e-02 -1 -133.2266 172.55)">
				<stop  offset="0" style="stop-color:#F70F47"/>
				<stop  offset="1" style="stop-color:#FFB41D"/>
			</linearGradient>
			<path class="st9" d="M230.7,189.8c-0.3,1.4-1,2.6-2,3.6c-1.3,1.4-4.5,3.4-2.4,3.1c1.9-0.4,3.7-1.2,5.3-2.4
				c1.1-0.7,2.2-1.3,3.4-1.9c1.7-0.8,1.7-0.9,0.6-2.7C234.1,187.1,230.8,188,230.7,189.8z"/>
			
				<linearGradient id="SVGID_6_" gradientUnits="userSpaceOnUse" x1="403.2685" y1="-70.546" x2="410.1185" y2="-70.546" gradientTransform="matrix(1 -6.000000e-02 -6.000000e-02 -1 -133.2266 172.55)">
				<stop  offset="0" style="stop-color:#F70F47"/>
				<stop  offset="1" style="stop-color:#FFB41D"/>
			</linearGradient>
			<path class="st10" d="M273.7,216.3c0.5,1.3,0.6,2.7,0.3,4.1c-0.3,1.9-2,5.3-0.3,3.9c1.4-1.4,2.4-3,3.1-4.9
				c0.5-1.2,1.1-2.3,1.8-3.4c1-1.6,0.9-1.7-1-2.6C275.1,212.2,272.8,214.7,273.7,216.3z"/>
			<path class="st7" d="M273,80.9c-0.6,3.9-0.7,4.7-2.5,6.2s-4.4,1.6-6.3,1.5s-3.2-2.6-3.5-4.2c-0.6-3-0.5-6.1,0.1-9.2
				c0.8-2.6,3.2-4.4,5.9-4.5C269.4,70.9,274.4,71.4,273,80.9z"/>
			<path class="st7" d="M270.7,87.6c0,1.3,0.1,2.9,0,4.3c-0.1,1.9-1.5,3.5-3.4,3.6h-0.2c-1.7-0.1-3.6-1.7-3.3-3.4
				c0.1-1.1,0.2-2.2,0.3-3.2c0.1-1.8,1.3-3.4,3.1-3.9l0,0c1.4-0.5,3,0.3,3.4,1.8C270.7,87.1,270.7,87.3,270.7,87.6z"/>
			
				<linearGradient id="SVGID_7_" gradientUnits="userSpaceOnUse" x1="386.9152" y1="-7.4186" x2="410.5352" y2="80.6214" gradientTransform="matrix(1 -6.000000e-02 -6.000000e-02 -1 -133.2266 172.55)">
				<stop  offset="0" style="stop-color:#F70F47"/>
				<stop  offset="1" style="stop-color:#9E005D"/>
			</linearGradient>
			<path class="st11" d="M277.6,104.6c-3.6,10.1-5.2,20.7-4.9,27.9l-23.4-1.1c0,0,1.2-22,3.4-33.9c0.5-3,2.5-5.5,5.3-6.7
				c2-0.8,4.2-1.1,6.3-1.1l4.3,0.2c1.5,0.1,3.1,0.3,4.5,0.8C279.5,93,279.8,98.7,277.6,104.6z"/>
			
				<linearGradient id="SVGID_8_" gradientUnits="userSpaceOnUse" x1="255.9335" y1="113.7375" x2="255.9335" y2="214.7775" gradientTransform="matrix(0.9988 4.902409e-02 4.902409e-02 -0.9988 -5.8427 347.9651)">
				<stop  offset="0" style="stop-color:#000061"/>
				<stop  offset="1" style="stop-color:#0065FF"/>
			</linearGradient>
			<path class="st12" d="M271.9,146.8c0,0,2.3-4.8,0.8-14.3l-23.4-1.1c-0.8,4.7-1.3,9.5-1.6,14.3L271.9,146.8z"/>
			
				<linearGradient id="SVGID_9_" gradientUnits="userSpaceOnUse" x1="794.0782" y1="-376.3771" x2="794.0782" y2="-275.3471" gradientTransform="matrix(0.9839 -0.1786 -0.1786 -0.9839 -570.1514 20.1721)">
				<stop  offset="0" style="stop-color:#000061"/>
				<stop  offset="1" style="stop-color:#0065FF"/>
			</linearGradient>
			<path class="st13" d="M260.3,180.6c-3.2-7.2,4.2-9.9,7.6-4.9c4.8,7.1,9,31.7,9.7,36.7c0.1,0.6,0.4,1.4,0.1,1.7
				c-0.7,0.5-1.5,0.8-2.4,0.8c-0.9,0.1-1.7,0.3-2-0.8C271.5,207.1,263.5,187.6,260.3,180.6z"/>
			
				<linearGradient id="SVGID_10_" gradientUnits="userSpaceOnUse" x1="-237.4398" y1="409.7591" x2="-237.4398" y2="510.7891" gradientTransform="matrix(0.9729 0.2312 0.2312 -0.9729 379.9217 699.1514)">
				<stop  offset="0" style="stop-color:#000061"/>
				<stop  offset="1" style="stop-color:#0065FF"/>
			</linearGradient>
			<path class="st14" d="M259.3,146.7c1.4-9.4,6.7-15.7,11.7-11.3c2.1,1.9,2.4,4.6,2.1,7.1s-4.5,28-4.9,32.7
				c-1,10.6-8.5,5.9-8.7,2.8C259.1,170.4,258.5,151.9,259.3,146.7z"/>
			
				<linearGradient id="SVGID_11_" gradientUnits="userSpaceOnUse" x1="331.6514" y1="-422.6268" x2="331.6514" y2="-322.6668" gradientTransform="matrix(0.9996 -2.722377e-02 -2.722377e-02 -0.9996 -108.2499 -192.2088)">
				<stop  offset="0" style="stop-color:#000061"/>
				<stop  offset="1" style="stop-color:#0065FF"/>
			</linearGradient>
			<path class="st15" d="M235.6,189.5c0-11.2,4-30.3,1-39.3c-1.9-5.8-8.8-5.7-8.3,1.4c0.5,7.6,3.2,22.3,2.9,37
				C231,190,235.6,190.8,235.6,189.5z"/>
			
				<linearGradient id="SVGID_12_" gradientUnits="userSpaceOnUse" x1="-3852.5037" y1="1521.5311" x2="-3852.5037" y2="1603.0911" gradientTransform="matrix(0.4736 0.8807 0.8807 -0.4736 667.0738 4293.3931)">
				<stop  offset="0" style="stop-color:#000061"/>
				<stop  offset="1" style="stop-color:#0065FF"/>
			</linearGradient>
			<path class="st16" d="M233.5,155.5c-3,0.6-10.2-6.6-0.4-10.8c4.3-1.9,19.1-9.3,21.4-10.3c2.3-1,5.7-2.4,6.7-1.5
				c5,4.4,1.3,13.3-7.8,16.3C247.4,151.2,239.7,154.4,233.5,155.5z"/>
			
				<ellipse transform="matrix(0.9432 -0.3322 0.3322 0.9432 -11.7753 90.9899)" class="st7" cx="260.3" cy="79.9" rx="1.4" ry="2.6"/>
			
				<ellipse transform="matrix(0.4231 -0.9061 0.9061 0.4231 84.4379 293.805)" class="st7" cx="272.9" cy="80.6" rx="2.6" ry="1.4"/>
			
				<linearGradient id="SVGID_13_" gradientUnits="userSpaceOnUse" x1="275.3761" y1="257.6495" x2="253.9961" y2="295.4695" gradientTransform="matrix(0.9988 4.902409e-02 4.902409e-02 -0.9988 -5.8427 347.9651)">
				<stop  offset="0" style="stop-color:#2C27CE"/>
				<stop  offset="0.65" style="stop-color:#EF1D68"/>
				<stop  offset="1" style="stop-color:#EFBA92"/>
			</linearGradient>
			<path class="st17" d="M272.2,73.2c-1.6,2.2-8.9,2-11.3,1.1s-2-5.6,1.5-5.7c1.9,0.1,0.5,0.5,2,1.2
				C265.2,70.1,273.9,70.8,272.2,73.2z"/>
			
				<linearGradient id="SVGID_14_" gradientUnits="userSpaceOnUse" x1="369.5424" y1="81.9786" x2="412.6124" y2="41.9286" gradientTransform="matrix(1 -6.000000e-02 -6.000000e-02 -1 -133.2266 172.55)">
				<stop  offset="0" style="stop-color:#F70F47"/>
				<stop  offset="1" style="stop-color:#9E005D"/>
			</linearGradient>
			<path class="st18" d="M259.9,90.6c-6.1-5.4-11.1-9.3-12.4-10.8c0-0.1-0.1-0.1-0.1-0.2c0-0.2-0.1-0.4-0.1-0.6
				c-0.9-3-6.9-12.4-8-13.9c-0.5-0.6-1.5-0.7-2.1-0.1c-0.3,0.2-0.4,0.5-0.5,0.9c-0.5,1.8,0.3,2,1.5,6.7c0.8,3.2,1.9,6.3,3.2,9.3
				c0,0,0,0,0,0.1c0.3,0.8,0.7,1.6,1.2,2.3l0,0c2,2.9,4.2,5.6,6.7,8c2,2.1,4.1,4.1,6.4,5.9c2.2,1.7,4.8,0.6,5.2-0.8
				C261.5,95,260.9,91.6,259.9,90.6z"/>
			<path class="st7" d="M295.6,125.5c0-1.3-0.7-4.4-2-4c-2.2,0.8-2.6,2-2.6,3.3c-0.1,2.5,1.4,2.4,2.8,2.8
				C294.8,128,295.6,126.7,295.6,125.5z"/>
			
				<linearGradient id="SVGID_15_" gradientUnits="userSpaceOnUse" x1="274.6313" y1="257.2255" x2="253.2414" y2="295.0455" gradientTransform="matrix(0.9988 4.902409e-02 4.902409e-02 -0.9988 -5.8427 347.9651)">
				<stop  offset="0" style="stop-color:#2C27CE"/>
				<stop  offset="0.65" style="stop-color:#EF1D68"/>
				<stop  offset="1" style="stop-color:#EFBA92"/>
			</linearGradient>
			<path class="st19" d="M264,72.4c-2.3,1.3-2.9,2.4-3,5.2s0.9,7.6,6,8.9s6.5-3.7,7-7.2s0.4-6.1-2.1-6.9
				C268,71.3,265.4,71.6,264,72.4z"/>
			<g>
				<defs>
					<path id="SVGID_16_" d="M294.9,122.4c0.2-1.4-0.1-3.1-0.4-6.6c-0.7-6.5-1.1-8-3-11.8l0,0c0-0.1,0-0.1-0.1-0.2
						c-0.8-1.3-3-3.8-9.9-8.4c-1.9-1.3-3.9-2.5-6-3.6c-0.7-0.5-1.5-0.9-2.4-1.2c-0.8-0.3-1.6-0.5-2.4-0.6c0-0.9,0-1.7,0-2.5
						c0-0.2,0-0.4-0.1-0.6c0.8-0.6,1.4-1.5,1.7-2.6c0.4-0.6,0.7-1.3,0.9-2c0.4-0.4,0.7-0.8,0.9-1.3c0.6-1.3,0.5-2.5-0.1-2.9
						c0.3-2.7,0-4.7-1.7-5.6c0.1-1.9-7.3-2.6-8-2.9c-1.5-0.7-0.1-1.1-2-1.2c-3.4,0.2-3.8,4.8-1.5,5.7h0.1c-0.1,0.3-0.2,0.6-0.3,0.9
						c-0.2,0.9-0.3,1.7-0.3,2.5c-0.3-0.3-0.6-0.4-1-0.3c-0.7,0.3-0.9,1.6-0.4,2.9c0.2,0.8,0.7,1.5,1.4,1.9c0.1,0.7,0.2,1.4,0.3,2.1
						c0.4,1.6,1.5,4,3.4,4.2c0,0.1,0,0.3-0.1,0.4s0,0.4,0,0.7c-1.5,0-3.1,0.2-4.6,0.6c-5.9-5.3-10.8-8.9-12-10.5
						c0-0.1-0.1-0.1-0.1-0.2c0-0.2-0.1-0.4-0.1-0.6c-0.8-2.5-4.9-9.3-7-12.5c0.2-0.3,0.3-0.6,0.2-0.9c0.1-0.3,0.1-0.6,0.1-0.9
						c0-0.6,0.2-4.5-0.4-4.5c-0.1,0-0.1,0-0.2,0l2.4-3.5l-0.3-0.2l1.1-1.4c6.1,3.8,14.1,2,17.9-4.1s2-14.1-4.1-17.9
						c-6.1-3.8-14.1-2-17.9,4.1c-3.3,5.3-2.4,12.1,2.1,16.4l-1.2,1.5l-0.3-0.2l-2.9,3.5c-0.4-0.5-0.9-0.7-1.2-0.3
						c-1.8,1.8-2.2,3.2-2.1,4.2l-2.7,3.3c-0.8,1-0.6,2.4,0.3,3.2c1,0.8,2.4,0.6,3.2-0.3c0,0,0.1-0.1,0.1-0.1l1.4-1.9
						c0.2,0.2,0.5,0.4,0.8,0.5c0,1.2,0.6,2,1.6,5.8c0.8,3.2,1.9,6.3,3.2,9.3c0,0,0,0,0,0.1c0.3,0.8,0.7,1.6,1.2,2.3l0,0
						c2,2.9,4.2,5.6,6.7,8c1.6,1.7,2.9,2.9,3.9,3.8c-0.2,0.5-0.3,0.9-0.4,1.4c-2.2,11.9-3.4,33.9-3.4,33.9s-0.4,2.4-0.8,5.9
						c-5.4,2.6-12.6,6.2-15.4,7.4c-1.2,0.5-2.3,1.2-3.3,2.1c-0.3,0.3-0.6,0.6-0.8,0.9c-0.7,0.9-1,2.1-0.8,3.2c0,0.2,0,0.4,0,0.6
						c0.5,7.6,3.2,22.3,2.9,37c0,0.1,0,0.2,0.1,0.3c-0.2,0.3-0.4,0.6-0.4,0.9c-0.3,1.4-1,2.6-2,3.6c-1.3,1.4-4.5,3.4-2.4,3.1
						c1.9-0.4,3.7-1.2,5.3-2.4c1.1-0.7,2.2-1.3,3.4-1.9c1.7-0.8,1.7-0.9,0.6-2.7l-0.1-0.1l0,0c0-9.6,2.9-25,1.8-34.9
						c5.3-1.5,11.2-3.8,16-5.4c2-0.6,3.9-1.7,5.5-3h0.4c0,0.2-0.1,0.4-0.1,0.5c-0.8,5.1-0.2,23.7,0.3,31.4c0,0.2,0.1,0.4,0.1,0.6
						c0.1,0.6,0.3,1.3,0.6,1.9c3.1,7,11.2,26.5,13.1,33.5c0,0.2,0.1,0.4,0.3,0.6c-0.3,0.5-0.3,1.1,0,1.6c0.5,1.3,0.6,2.7,0.3,4.1
						c-0.3,1.9-2,5.3-0.3,3.9c1.4-1.4,2.4-3,3.1-4.9c0.6-1.2,1.2-2.3,1.9-3.4c1-1.6,0.9-1.7-0.8-2.5c0-0.3-0.1-0.7-0.2-1.1
						c-0.7-4.9-4.8-28.9-9.5-36.4c0-0.3,0.1-0.5,0.1-0.8c0.5-4.7,4.7-30.2,4.9-32.7c0.1-0.8,0.1-1.6,0-2.3c0.1-2.6,0-5.2-0.5-7.7
						c-0.3-7.2,1.3-17.8,4.9-27.9c0.2-0.5,0.4-1.1,0.5-1.6c2.7,1.3,5.2,2.7,7.7,4.3c0.3,0.2,0.6,0.4,0.9,0.4c0,0.2,0,0.5,0.1,0.7
						c0.5,2.7,4,11,5.1,14.1c-0.6,0.6-0.9,1.5-0.8,2.3c-0.1,2.5,1.4,2.4,2.8,2.8c1,0.3,1.8-1,1.8-2.2
						C295.5,124.5,295.3,123.4,294.9,122.4z"/>
				</defs>
				<clipPath id="SVGID_17_">
					<use xlink:href="#SVGID_16_"  style="overflow:visible;"/>
				</clipPath>
			</g>
		</g>
	</g>
</g>
</svg>
