<svg xmlns="http://www.w3.org/2000/svg" xmlns:xlink="http://www.w3.org/1999/xlink" viewBox="0 0 326.69 255.7"><defs><style>.cls-1,.cls-7{fill:none;}.cls-2{isolation:isolate;}.cls-3,.cls-4,.cls-5{opacity:0.15;}.cls-3{fill:url(#Gradient_bez_nazwy_5);}.cls-4{fill:url(#Gradient_bez_nazwy_15);}.cls-5{fill:url(#Gradient_bez_nazwy_5-2);}.cls-6{fill:url(#Gradient_bez_nazwy_5-3);}.cls-7{stroke:#0037ff;stroke-linecap:round;stroke-linejoin:round;}.cls-8{fill:url(#Gradient_bez_nazwy_5-4);}.cls-9{fill:url(#Gradient_bez_nazwy_5-5);}.cls-10{fill:url(#Gradient_bez_nazwy_4);}.cls-11{fill:#ed9169;}.cls-12{fill:url(#Gradient_bez_nazwy_5-6);}.cls-13{fill:url(#Gradient_bez_nazwy_7);}.cls-14{fill:url(#Gradient_bez_nazwy_7-2);}.cls-15{fill:url(#Gradient_bez_nazwy_7-3);}.cls-16{fill:url(#Gradient_bez_nazwy_7-4);}.cls-17{fill:url(#Gradient_bez_nazwy_7-5);}.cls-18{fill:url(#Gradient_bez_nazwy_5-7);}.cls-19{fill:#ffaf84;}.cls-20{fill:url(#Gradient_bez_nazwy_4-2);}.cls-21{fill:url(#Gradient_bez_nazwy_4-3);}.cls-22{clip-path:url(#clip-path);}.cls-23{opacity:0.2;mix-blend-mode:multiply;fill:url(#Gradient_bez_nazwy_3);}</style><linearGradient id="Gradient_bez_nazwy_5" x1="103.32" y1="131.36" x2="326.69" y2="131.36" gradientUnits="userSpaceOnUse"><stop offset="0" stop-color="#36078b"/><stop offset="1" stop-color="#16b1ff"/></linearGradient><linearGradient id="Gradient_bez_nazwy_15" y1="127.85" x2="255.7" y2="127.85" gradientUnits="userSpaceOnUse"><stop offset="0" stop-color="#401381"/><stop offset="1" stop-color="#d11137"/></linearGradient><linearGradient id="Gradient_bez_nazwy_5-2" x1="103.32" y1="130.5" x2="326.69" y2="130.5" xlink:href="#Gradient_bez_nazwy_5"/><linearGradient id="Gradient_bez_nazwy_5-3" x1="-4115.66" y1="470.57" x2="-4079.23" y2="496.61" gradientTransform="translate(4271.66 529.62) rotate(12.76)" xlink:href="#Gradient_bez_nazwy_5"/><linearGradient id="Gradient_bez_nazwy_5-4" x1="-608.91" y1="146" x2="-606.7" y2="116.76" gradientTransform="matrix(-1, 0.04, 0.04, 1, -452.54, 74.81)" xlink:href="#Gradient_bez_nazwy_5"/><linearGradient id="Gradient_bez_nazwy_5-5" x1="-565.97" y1="149.24" x2="-563.76" y2="120" gradientTransform="matrix(-1, 0.04, 0.04, 1, -452.54, 74.81)" xlink:href="#Gradient_bez_nazwy_5"/><linearGradient id="Gradient_bez_nazwy_4" x1="-622.31" y1="12.34" x2="-594.74" y2="-18.52" gradientTransform="matrix(-1, 0.04, 0.04, 1, -452.54, 74.81)" gradientUnits="userSpaceOnUse"><stop offset="0" stop-color="#2c27ce"/><stop offset="0.65" stop-color="#ef1d68"/><stop offset="1" stop-color="#efba92"/></linearGradient><linearGradient id="Gradient_bez_nazwy_5-6" x1="-3470.67" y1="57.69" x2="-3400.84" y2="4.3" gradientTransform="matrix(1, -0.04, 0.04, 1, 3589.77, -77.48)" xlink:href="#Gradient_bez_nazwy_5"/><linearGradient id="Gradient_bez_nazwy_7" x1="-614.51" y1="141.58" x2="-601.71" y2="86.77" gradientTransform="matrix(-1, 0.04, 0.04, 1, -452.54, 74.81)" gradientUnits="userSpaceOnUse"><stop offset="0" stop-color="#ff664f"/><stop offset="1" stop-color="#9e005d"/></linearGradient><linearGradient id="Gradient_bez_nazwy_7-2" x1="-585.76" y1="163.49" x2="-569.13" y2="92.29" xlink:href="#Gradient_bez_nazwy_7"/><linearGradient id="Gradient_bez_nazwy_7-3" x1="-602.74" y1="144.33" x2="-589.94" y2="89.52" xlink:href="#Gradient_bez_nazwy_7"/><linearGradient id="Gradient_bez_nazwy_7-4" x1="-614.92" y1="151.57" x2="-599.53" y2="85.66" xlink:href="#Gradient_bez_nazwy_7"/><linearGradient id="Gradient_bez_nazwy_7-5" x1="-619.44" y1="140.43" x2="-606.64" y2="85.61" xlink:href="#Gradient_bez_nazwy_7"/><linearGradient id="Gradient_bez_nazwy_5-7" x1="-622.47" y1="48.03" x2="-579.69" y2="2.19" gradientTransform="matrix(-1, 0.04, 0.04, 1, -454.58, 74.89)" xlink:href="#Gradient_bez_nazwy_5"/><linearGradient id="Gradient_bez_nazwy_4-2" x1="-618.35" y1="15.88" x2="-590.78" y2="-14.97" xlink:href="#Gradient_bez_nazwy_4"/><linearGradient id="Gradient_bez_nazwy_4-3" x1="-624.74" y1="10.16" x2="-597.17" y2="-20.69" xlink:href="#Gradient_bez_nazwy_4"/><clipPath id="clip-path"><path class="cls-1" d="M111.7,188.5a3,3,0,0,1,.47-1.45c-.06-.13,0-.3.2-.54,3.4-3.55,11.56-28,19.55-34.46,0-.25,0-.5.06-.76.49-4.92,1.62-24.62,1.91-28a40.38,40.38,0,0,1,.55-8.94c2-7.45,2.72-25.58,1.36-37,0-.34-.07-.68-.1-1-.19-2.55,0-5.38,1.53-7.54a6,6,0,0,1,.92-1l.31-.25a10.29,10.29,0,0,1,6.44-1.79l.68,0c.61-1.47,1.31-3,1.93-4.38a5.64,5.64,0,0,1-.56-3.19,3.55,3.55,0,0,1-1.43-2.62c-.24-1.64.25-3.07,1.11-3.2a.86.86,0,0,1,.36,0c0-1.11.5-2.32,1.53-4.2.74-1.35,1.47-1.8,2.22-1.74-.88-3,8.7-1,9.65-1.11,1.9-.28.48-1.17,2.61-.64,3.33,1.15,2.8,5.44.56,6.49.7,1.58-.54,3.55-1.5,4.74a30.36,30.36,0,0,1-2.64,7.53c-.94,1.7-3.15,3.63-5.36,3.09l-.44-.13-.26.76A15.23,15.23,0,0,1,157.54,69,10.32,10.32,0,0,1,162,75.15,25.86,25.86,0,0,1,162.3,83l-.19,2.22q.1,1.69.21,3.38a105.15,105.15,0,0,0,10.25,5,1.17,1.17,0,0,1,1-.1c1,.31,4.66,1.25,5.64,2.43l.09,0c.55.25,3.77,1.77,3.5,2.28-.42.78-2.59-.13-4-.73h0a4.4,4.4,0,0,1-4.35,1.16,5.4,5.4,0,0,1-1.91-.82c-1.81.41-3.92-.46-8.22-1.61l-1.35-.36a6.51,6.51,0,0,0,.58,2.21,5.26,5.26,0,0,0,.69.92,38.29,38.29,0,0,1,5.07,8.51c1.11,2.27,2,5.18,3.7,7.12a1.55,1.55,0,0,1,.3.57c1.23.28,2.61.58,3.47.72,1.19.18.86,2.9.18,3.34-1,.66-4.48,1.22-5.24-.13s-2.2-1-2.47-2.4a2.17,2.17,0,0,1,0-.92,17.84,17.84,0,0,1-4.15-3.87c-1.66-1.92-3.22-3.92-4.79-5.92-.4,4.45-.66,7.38-.66,7.38s1,6.26,1.42,13.75c.67,7.2,1.77,19.24,2.21,22.93a16.77,16.77,0,0,1,.11,1.78s0,.08,0,.13c.35,6.83-.67,22.15-3.81,37.88a2.51,2.51,0,0,1,.25.87,10,10,0,0,0,3.32,2.05c1.93.75,6,1,3.77,1.79a13.93,13.93,0,0,1-6.18.31,28,28,0,0,0-4.18-.09c-2.06.07-2.08-.06-1.89-2.3,0-.1,0-.19,0-.29l0,0c.53-8.43-3.51-27.78-1.45-38.81a212.38,212.38,0,0,1-5.68-21.69c-.74,6-4.37,16.71-6.35,24.11a4.38,4.38,0,0,1-2.13,2.32,14.61,14.61,0,0,1-1.4,1.68c-5.69,5.84-14.73,22.75-20.46,29.32a4.86,4.86,0,0,0,2.26,2.37c1.93.75,5.37,1.62,3.16,2.42a13.94,13.94,0,0,1-6.18.31c-1.33-.15-1.65-1.79-3-2.51C111.23,190.64,111.51,190.75,111.7,188.5Z"/></clipPath><linearGradient id="Gradient_bez_nazwy_3" x1="911.91" y1="3870.73" x2="1047.59" y2="3954.09" gradientTransform="matrix(-0.65, -0.7, 0.36, -0.62, -675.53, 3225.99)" gradientUnits="userSpaceOnUse"><stop offset="0" stop-color="blue"/><stop offset="1" stop-color="#9e005d"/></linearGradient></defs><title>context-slide2</title><g class="cls-2"><g id="Слой_2" data-name="Слой 2"><g id="Background"><path class="cls-3" d="M215,19.68A112.55,112.55,0,0,0,198,21,127.88,127.88,0,0,1,189.19,240,111.7,111.7,0,1,0,215,19.68Z"/><path class="cls-4" d="M103.32,131.36A111.71,111.71,0,0,1,198,21,127.84,127.84,0,1,0,189.19,240,111.73,111.73,0,0,1,103.32,131.36Z"/><path class="cls-5" d="M255.7,127.85A127.73,127.73,0,0,0,198,21,111.71,111.71,0,0,0,189.19,240,127.82,127.82,0,0,0,255.7,127.85Z"/></g><g id="Designed_by_Freepik" data-name="Designed by Freepik"><path class="cls-6" d="M172.69,110.74c-1.67-1.94-2.6-4.84-3.7-7.12a38.27,38.27,0,0,0-5.07-8.51,5.26,5.26,0,0,1-.69-.92,12.69,12.69,0,0,1-.78-4.26c-.15-1.42-.24-2.85-.33-4.28-.27-4.12-.49-8.24-.81-12.35-.12-1.55-2.82-4.43-5.24-3.8-2.69.7-3.48,1.89-3.43,4.85a56.37,56.37,0,0,0,.83,9.31c1,6.37,2.36,13.14,6.43,18.33,1.6,2,3.19,4.08,4.89,6.05,3.17,3.67,4.45,4.24,6.44,4.77C172.85,113.24,173.58,111.77,172.69,110.74Z"/></g><g id="Objects"><path class="cls-7" d="M195.61,179.91l-7.17,7-6.84,6.68a6.19,6.19,0,0,1-8.76-8.76l5.33-5.33,5.53-5.53Z"/><path class="cls-7" d="M263.47,195.4a6.19,6.19,0,0,1-4.38-1.81l-6.84-6.68-7.17-7L257,174l5.53,5.53,5.33,5.33A6.19,6.19,0,0,1,263.47,195.4Z"/><path class="cls-7" d="M183.71,174l11.9,5.95-7.17,7a63.66,63.66,0,0,1-10.26-7.41Z"/><path class="cls-7" d="M262.52,179.5a63.66,63.66,0,0,1-10.26,7.41l-7.17-7L257,174Z"/><rect class="cls-7" x="213.45" y="52.98" width="13.79" height="15.17"/><rect class="cls-7" x="207.24" y="46.44" width="26.22" height="9.19" rx="4.6" ry="4.6"/><rect class="cls-7" x="164.82" y="78.01" width="11.21" height="12.33" transform="translate(-9.61 145.16) rotate(-45)"/><rect class="cls-7" x="154.28" y="74.96" width="21.32" height="7.47" rx="3.74" ry="3.74" transform="translate(-7.34 139.68) rotate(-45)"/><circle class="cls-7" cx="220.35" cy="127.1" r="63.64"/><path class="cls-7" d="M273,126.79a52.65,52.65,0,0,1-52.69,52.69,53.12,53.12,0,0,1-8.12-.62,52.09,52.09,0,0,1-12.39-3.52q-1.12-.47-2.2-1A52.51,52.51,0,0,1,183.09,164q-1-1-2-2.12a52.69,52.69,0,0,1,74.41-74.41q1.08,1,2.12,2a52.5,52.5,0,0,1,10.3,14.55q.52,1.09,1,2.2a52.1,52.1,0,0,1,3.52,12.39A53.11,53.11,0,0,1,273,126.79Z"/><rect class="cls-7" x="219.46" y="83.82" width="1.77" height="9.89" rx="0.89" ry="0.89"/><rect class="cls-7" x="219.46" y="159.87" width="1.77" height="9.89" rx="0.89" ry="0.89"/><rect class="cls-7" x="177.38" y="125.9" width="9.89" height="1.77" rx="0.89" ry="0.89"/><rect class="cls-7" x="253.43" y="125.9" width="9.89" height="1.77" rx="0.89" ry="0.89"/><rect class="cls-7" x="242.29" y="99.01" width="9.89" height="1.77" transform="translate(1.76 204.06) rotate(-44.99)"/><path class="cls-7" d="M190,157.17h0a.89.89,0,0,1,0-1.25l5.74-5.74a.89.89,0,0,1,1.25,0h0a.89.89,0,0,1,0,1.25l-5.74,5.74A.89.89,0,0,1,190,157.17Z"/><path class="cls-7" d="M197,103.4h0a.89.89,0,0,1-1.25,0L190,97.66a.89.89,0,0,1,0-1.25h0a.89.89,0,0,1,1.25,0l5.74,5.74A.89.89,0,0,1,197,103.4Z"/><path class="cls-7" d="M250.73,157.17h0a.89.89,0,0,1-1.25,0l-5.74-5.74a.89.89,0,0,1,0-1.25h0a.89.89,0,0,1,1.25,0l5.74,5.74A.89.89,0,0,1,250.73,157.17Z"/><path class="cls-7" d="M235.51,133.35,219.46,127l.56-1.42,16.05,6.32a.76.76,0,0,1,.43,1h0A.76.76,0,0,1,235.51,133.35Z"/><path class="cls-7" d="M221.11,127.55H194.22a.76.76,0,0,1-.76-.76h0a.76.76,0,0,1,.76-.76h25.36v-20.7a.76.76,0,0,1,.76-.76h0a.76.76,0,0,1,.76.76Z"/><path class="cls-8" d="M159.45,190.31a8.54,8.54,0,0,0,3.66,2.47c1.93.75,6,1,3.77,1.79a13.93,13.93,0,0,1-6.18.31,28,28,0,0,0-4.18-.09c-2.06.07-2.08-.06-1.89-2.3C154.9,189.39,158.45,188.6,159.45,190.31Z"/><path class="cls-9" d="M116.31,187.26c.31.53,1.2,3.51,3.14,4.25s5.37,1.62,3.16,2.42a13.94,13.94,0,0,1-6.18.31c-1.33-.15-1.65-1.79-3-2.51-2.15-1.11-1.88-1-1.68-3.25A2.47,2.47,0,0,1,116.31,187.26Z"/><path class="cls-10" d="M158.05,57.52c1.38,1.11,2.05,1.28,3.08-.51,0-.09,5.56-5.38.51-7.42-2.32-.94-4.19-1.47-4.7,1.85S156.42,56.2,158.05,57.52Z"/><path class="cls-11" d="M149.18,57.91c-.12.22-2.43,4.9-3.91,8.61a4.12,4.12,0,0,0,2.29,5l.08,0c1.8.67,4.52-.18,5-2a51.68,51.68,0,0,1,2.4-6.67Z"/><path class="cls-12" d="M135.79,77.35c1.36,11.41.64,29.54-1.36,37l25.17-1s1.47-16.27,2.7-30.4a25.86,25.86,0,0,0-.34-7.84A10.32,10.32,0,0,0,157.54,69a19.42,19.42,0,0,0-6.47-2.4,29.07,29.07,0,0,0-6.18-.87c-2.83,0-5.95.61-7.67,3-1.52,2.15-1.72,5-1.53,7.54C135.71,76.67,135.75,77,135.79,77.35Z"/><path class="cls-13" d="M135.12,129.73s-2.37-5.2-.69-15.39l25.17-1a142.8,142.8,0,0,1,1.5,15.36Z"/><path class="cls-14" d="M137.64,159.83c5.89-6,2.51-11.27-3.59-9-8.63,3.15-18,31.87-21.68,35.74-.49.51-.13.69.26.88,1.13.57,1.85-.33,3.22.13.56.19,1.34,1.62,1.34,1.62C122.91,182.58,132,165.66,137.64,159.83Z"/><path class="cls-15" d="M147.65,130.36c.5-10.21-3.83-18-10-14.36-2.6,1.51-3.47,4.38-3.73,7.06s-1.44,23.2-1.93,28.23c-1.12,11.34,8.36,7.69,9.2,4.53C143.32,147.84,147.38,135.93,147.65,130.36Z"/><path class="cls-16" d="M163.35,152c-.39-7.64-4.47-9.3-8.16-4-5.81,8.41.1,34.12-.54,44.2a5.68,5.68,0,0,1,4.7-1.32c.87.35.19-1,.19-1C162.68,174.12,163.7,158.81,163.35,152Z"/><path class="cls-17" d="M153.41,154c1.11,3.08,11.13,7.38,9.81-3.93-.59-5-2.41-25.54-2.72-28.21s-.92-6.57-2.28-7c-6.81-2.19-13,6.05-10.88,16C148.78,137.58,151.12,147.61,153.41,154Z"/><path class="cls-18" d="M151.23,91A41.46,41.46,0,0,1,146,85.76c-1.26-1.48-2.45-3-3.61-4.58a56.52,56.52,0,0,1-5.07-7.85c-1.42-2.59,0-5.66,2.17-6.32,2.4-.72,3.89.67,6.51,3.2,5.88,5.68,8.73,13.7,10.27,16.05a4.44,4.44,0,0,1,1.23.13c3.26.86,8.44,4.64,16.14,7.61,1.27.49.93,3.12-.64,3.69-1.94.7-4-.21-8.71-1.47a57.74,57.74,0,0,1-8.62-2.74,18.54,18.54,0,0,1-4.16-2.32Z"/><path class="cls-19" d="M147.36,54.75c-.62,4.42-.73,5.4.72,7.63a10.47,10.47,0,0,0,6,4.19c2.21.54,4.42-1.39,5.36-3.09a32.31,32.31,0,0,0,3.2-10.92c.27-2.47-2-6.1-5-6.84S148.88,44,147.36,54.75Z"/><path class="cls-20" d="M147.53,54.08c.88,1.45,1.44,1.83,3,.54,1.18-1,4.68-4.94,2.88-6.55s-3.31-2.7-4.85.13S146.48,52.36,147.53,54.08Z"/><ellipse class="cls-19" cx="147.07" cy="55.35" rx="1.57" ry="3" transform="translate(-6.55 22.29) rotate(-8.48)"/><path class="cls-21" d="M150.76,46.57c1.07,2.92,9.13,5.14,12,4.86s3.94-5.44.24-6.72c-2.13-.53-.71.36-2.61.64C159.43,45.5,149.62,43.46,150.76,46.57Z"/><path class="cls-19" d="M173.57,93.49c1.28.4,7.18,1.88,5.62,3.57a4.54,4.54,0,0,1-4.81,1.61c-2.56-.69-2.74-1.55-2.7-3.16C171.72,94.37,172.35,93.11,173.57,93.49Z"/><path class="cls-19" d="M179.29,96c.55.25,3.77,1.77,3.5,2.28-.42.78-2.59-.13-4-.73-.78-.32-1.59-1.18-1.22-1.66S178.42,95.56,179.29,96Z"/><g class="cls-22"><path class="cls-23" d="M85,42.81C96,37,119.69,38.51,127,49.63c7.5,11.35,2.54,22,13.14,36,9.66,12.69,4.18,29,6.4,41.4,2.43,13.57,23.93,6.29,32.62,22.68,13.34,25.19-13.35,43.33-29.82,55-16.91,11.94-42.85,22.91-61.83,6.17-14-12.36-10.79-62.45-8.3-75.7,3.58-19,21.87-6.88,11-24.87-6.52-10.76-12.66-31,5.18-33.52S69.06,51.12,85,42.81Z"/></g></g></g></g></svg>