<svg xmlns="http://www.w3.org/2000/svg" xmlns:xlink="http://www.w3.org/1999/xlink" viewBox="0 0 326.69 255.7"><defs><style>.cls-1,.cls-10,.cls-11,.cls-6,.cls-7,.cls-8,.cls-9{fill:none;}.cls-2{isolation:isolate;}.cls-3,.cls-4,.cls-5{opacity:0.15;}.cls-3{fill:url(#Gradient_bez_nazwy_5);}.cls-4{fill:url(#Gradient_bez_nazwy_15);}.cls-5{fill:url(#Gradient_bez_nazwy_5-2);}.cls-10,.cls-11,.cls-6,.cls-7,.cls-8,.cls-9{stroke:#0037ff;}.cls-11,.cls-6,.cls-7{stroke-linecap:round;}.cls-6,.cls-7{stroke-linejoin:round;}.cls-7{opacity:0.5;}.cls-10,.cls-29,.cls-42,.cls-44,.cls-7,.cls-9{mix-blend-mode:multiply;}.cls-10,.cls-11,.cls-8,.cls-9{stroke-miterlimit:10;}.cls-10{opacity:0.57;}.cls-11{stroke-width:3.75px;}.cls-12{fill:url(#Gradient_bez_nazwy_4);}.cls-13{fill:url(#Gradient_bez_nazwy_2);}.cls-14{fill:url(#Gradient_bez_nazwy_2-2);}.cls-15{fill:#ea8f68;}.cls-16{fill:url(#Gradient_bez_nazwy_2-3);}.cls-17{fill:url(#Gradient_bez_nazwy_10);}.cls-18{fill:url(#Gradient_bez_nazwy_5-3);}.cls-19{fill:url(#Gradient_bez_nazwy_5-4);}.cls-20{fill:url(#Gradient_bez_nazwy_5-5);}.cls-21{fill:url(#Gradient_bez_nazwy_5-6);}.cls-22{fill:#ffaf84;}.cls-23{fill:url(#Gradient_bez_nazwy_4-2);}.cls-24{fill:url(#Gradient_bez_nazwy_4-3);}.cls-25{fill:url(#Gradient_bez_nazwy_4-4);}.cls-26{fill:url(#Gradient_bez_nazwy_4-5);}.cls-27{fill:url(#Gradient_bez_nazwy_2-4);}.cls-28{fill:url(#Gradient_bez_nazwy_2-5);}.cls-29,.cls-42,.cls-44{opacity:0.3;}.cls-29{fill:url(#Gradient_bez_nazwy_3);}.cls-30{fill:url(#Gradient_bez_nazwy_5-7);}.cls-31{fill:url(#Gradient_bez_nazwy_5-8);}.cls-32{fill:#f70f47;}.cls-33{fill:#ed9169;}.cls-34{fill:url(#Gradient_bez_nazwy_5-9);}.cls-35{fill:url(#Gradient_bez_nazwy_2-6);}.cls-36{fill:url(#Gradient_bez_nazwy_2-7);}.cls-37{fill:url(#Gradient_bez_nazwy_2-8);}.cls-38{fill:url(#Gradient_bez_nazwy_2-9);}.cls-39{fill:url(#Gradient_bez_nazwy_2-10);}.cls-40{fill:url(#Gradient_bez_nazwy_5-10);}.cls-41{fill:url(#Gradient_bez_nazwy_5-11);}.cls-42{fill:url(#Gradient_bez_nazwy_3-2);}.cls-43{clip-path:url(#clip-path);}.cls-44{fill:url(#Gradient_bez_nazwy_3-3);}</style><linearGradient id="Gradient_bez_nazwy_5" x1="103.32" y1="131.36" x2="326.69" y2="131.36" gradientUnits="userSpaceOnUse"><stop offset="0" stop-color="#36078b"/><stop offset="1" stop-color="#16b1ff"/></linearGradient><linearGradient id="Gradient_bez_nazwy_15" y1="127.85" x2="255.7" y2="127.85" gradientUnits="userSpaceOnUse"><stop offset="0" stop-color="#401381"/><stop offset="1" stop-color="#d11137"/></linearGradient><linearGradient id="Gradient_bez_nazwy_5-2" x1="103.32" y1="130.5" x2="326.69" y2="130.5" xlink:href="#Gradient_bez_nazwy_5"/><linearGradient id="Gradient_bez_nazwy_4" x1="1137.28" y1="105.32" x2="1097.3" y2="76.49" gradientTransform="matrix(-1, 0, 0, 1, 1383.04, 0)" gradientUnits="userSpaceOnUse"><stop offset="0" stop-color="#2c27ce"/><stop offset="0.65" stop-color="#ef1d68"/><stop offset="1" stop-color="#efba92"/></linearGradient><linearGradient id="Gradient_bez_nazwy_2" x1="1772.61" y1="4257.94" x2="1760.26" y2="4288.73" gradientTransform="matrix(-0.61, -0.79, -0.79, 0.61, 4716.23, -1117.65)" gradientUnits="userSpaceOnUse"><stop offset="0" stop-color="#f70f47"/><stop offset="1" stop-color="#9e005d"/></linearGradient><linearGradient id="Gradient_bez_nazwy_2-2" x1="-3842.6" y1="3574.65" x2="-3856.43" y2="3609.14" gradientTransform="matrix(0.7, 0.72, 0.72, -0.7, 352.52, 5387.55)" xlink:href="#Gradient_bez_nazwy_2"/><linearGradient id="Gradient_bez_nazwy_2-3" x1="1115.1" y1="101.9" x2="1119.67" y2="141.12" gradientTransform="matrix(-1, 0, 0, 1, 1383.04, 0)" xlink:href="#Gradient_bez_nazwy_2"/><linearGradient id="Gradient_bez_nazwy_10" x1="1123.22" y1="129.15" x2="1105.13" y2="181.81" gradientTransform="matrix(-1, 0, 0, 1, 1383.04, 0)" gradientUnits="userSpaceOnUse"><stop offset="0" stop-color="#36078b"/><stop offset="1" stop-color="#168d68"/></linearGradient><linearGradient id="Gradient_bez_nazwy_5-3" x1="653.53" y1="-447.05" x2="635.04" y2="-393.23" gradientTransform="matrix(-0.99, 0.15, 0.15, 0.99, 963.01, 474.47)" xlink:href="#Gradient_bez_nazwy_5"/><linearGradient id="Gradient_bez_nazwy_5-4" x1="1120.31" y1="128.15" x2="1102.22" y2="180.81" gradientTransform="matrix(-1, 0, 0, 1, 1383.04, 0)" xlink:href="#Gradient_bez_nazwy_5"/><linearGradient id="Gradient_bez_nazwy_5-5" x1="1146.07" y1="137" x2="1127.99" y2="189.66" gradientTransform="matrix(-1, 0, 0, 1, 1383.04, 0)" xlink:href="#Gradient_bez_nazwy_5"/><linearGradient id="Gradient_bez_nazwy_5-6" x1="1134.11" y1="132.9" x2="1116.02" y2="185.55" gradientTransform="matrix(-1, 0, 0, 1, 1383.04, 0)" xlink:href="#Gradient_bez_nazwy_5"/><linearGradient id="Gradient_bez_nazwy_4-2" x1="1128.82" y1="235.91" x2="1130.87" y2="210.72" xlink:href="#Gradient_bez_nazwy_4"/><linearGradient id="Gradient_bez_nazwy_4-3" x1="1099.92" y1="240.59" x2="1102.5" y2="208.83" xlink:href="#Gradient_bez_nazwy_4"/><linearGradient id="Gradient_bez_nazwy_4-4" x1="1132.48" y1="99.82" x2="1109.79" y2="73.94" xlink:href="#Gradient_bez_nazwy_4"/><linearGradient id="Gradient_bez_nazwy_4-5" x1="1137.15" y1="95.73" x2="1114.46" y2="69.85" xlink:href="#Gradient_bez_nazwy_4"/><linearGradient id="Gradient_bez_nazwy_2-4" x1="1375.62" y1="-799.4" x2="1360.76" y2="-762.36" gradientTransform="matrix(-0.71, 0.18, 0.26, 0.97, 1463.73, 612.73)" xlink:href="#Gradient_bez_nazwy_2"/><linearGradient id="Gradient_bez_nazwy_2-5" x1="-1137.19" y1="-1678.26" x2="-1148.01" y2="-1651.28" gradientTransform="matrix(0.67, -0.74, 0.74, 0.67, 2291.94, 358.74)" xlink:href="#Gradient_bez_nazwy_2"/><linearGradient id="Gradient_bez_nazwy_3" x1="111.88" y1="214.43" x2="119.37" y2="214.43" gradientUnits="userSpaceOnUse"><stop offset="0" stop-color="blue"/><stop offset="1" stop-color="#9e005d"/></linearGradient><linearGradient id="Gradient_bez_nazwy_5-7" x1="168.85" y1="86.49" x2="142.26" y2="93.81" xlink:href="#Gradient_bez_nazwy_5"/><linearGradient id="Gradient_bez_nazwy_5-8" x1="168.86" y1="86.53" x2="142.28" y2="93.86" xlink:href="#Gradient_bez_nazwy_5"/><linearGradient id="Gradient_bez_nazwy_5-9" x1="128.08" y1="95.02" x2="132.69" y2="134.63" xlink:href="#Gradient_bez_nazwy_5"/><linearGradient id="Gradient_bez_nazwy_2-6" x1="118.51" y1="137.34" x2="144.27" y2="137.34" gradientTransform="matrix(1, 0, 0, 1, 0, 0)" xlink:href="#Gradient_bez_nazwy_2"/><linearGradient id="Gradient_bez_nazwy_2-7" x1="112.43" y1="190.72" x2="124.5" y2="190.72" gradientTransform="matrix(1, 0, 0, 1, 0, 0)" xlink:href="#Gradient_bez_nazwy_2"/><linearGradient id="Gradient_bez_nazwy_2-8" x1="115.52" y1="155.31" x2="131.51" y2="155.31" gradientTransform="matrix(1, 0, 0, 1, 0, 0)" xlink:href="#Gradient_bez_nazwy_2"/><linearGradient id="Gradient_bez_nazwy_2-9" x1="136.15" y1="192.66" x2="145.6" y2="192.66" gradientTransform="matrix(1, 0, 0, 1, 0, 0)" xlink:href="#Gradient_bez_nazwy_2"/><linearGradient id="Gradient_bez_nazwy_2-10" x1="130.8" y1="155.16" x2="145.59" y2="155.16" gradientTransform="matrix(1, 0, 0, 1, 0, 0)" xlink:href="#Gradient_bez_nazwy_2"/><linearGradient id="Gradient_bez_nazwy_5-10" x1="111.17" y1="96.99" x2="115.79" y2="136.6" xlink:href="#Gradient_bez_nazwy_5"/><linearGradient id="Gradient_bez_nazwy_5-11" x1="114.12" y1="96.65" x2="118.73" y2="136.26" xlink:href="#Gradient_bez_nazwy_5"/><linearGradient id="Gradient_bez_nazwy_3-2" x1="139.22" y1="215.45" x2="151.57" y2="215.45" xlink:href="#Gradient_bez_nazwy_3"/><clipPath id="clip-path"><path class="cls-1" d="M167.48,71.55c-1-1.05-3.19,2.9-4.59,5.91-.24-1.06-.6-2-1.23-1.86s-.32,3.58-.27,4.17a4.29,4.29,0,0,0,.16.9s0,.08,0,.11c-2,2.34-9.5,8.85-11.08,11.45-2.84-.81-7.95-2.71-14.33-4.66a2.69,2.69,0,0,0-1-.05,19.69,19.69,0,0,0-4.71-.84c0-.41,0-.81,0-1.19,1.83-.25,3.18-2.21,3.61-3.78a24,24,0,0,0,.65-4.58,4.58,4.58,0,0,0,.3-.78c.33-1.14.84-4.62-.22-6a3.19,3.19,0,0,0-1.61-5.71c-2,0-.54.47-2.14,1.11-.8.32-9.55.63-8.16,3-.67.11-1.21.66-1.56,2-.49,1.85-.71,3-.43,4a.77.77,0,0,0-.32.05c-.72.29-.85,1.65-.29,3a3.18,3.18,0,0,0,1.8,2,5.14,5.14,0,0,0,1.7,3.22c-.1,1.15-.19,2.51-.26,3.84-.84.11-1.68.26-2.46.41a11.15,11.15,0,0,0-2,.58,3.82,3.82,0,0,0-1.47.76,6.2,6.2,0,0,0-2.24,2.55c-.9,1.13-2.05,2.71-3.61,5.12-4.57,7.07-5.64,10.36-5.88,11.88a.9.9,0,0,0,0,.35,1.53,1.53,0,0,0,.13.58c1.75,3.94,2.54,5.38,7.14,10.2a42.59,42.59,0,0,0,4.43,4.42,1.4,1.4,0,0,0,1.14,1.48,1.34,1.34,0,0,0,.83,0,47.63,47.63,0,0,1-.13,4.79,38.49,38.49,0,0,0-.84,8.52c-.4,3.52-2.2,28.87-2.84,33.54,0,.19,0,.36-.06.54h0c-3.57,8-3.28,33.59-3.09,38.69,0,.27.08.4.17.47a3.5,3.5,0,0,0-.06,1,9.7,9.7,0,0,1-.67,3.37c-.59,1.91,1.48,2.14,5,2.07,3.27-.06,2.43-1.34,1.9-2.13s-1.32-1-1.46-1.91c-.1-.63,0-1-.22-1.85h0c.75-7,5.16-28.58,7-36.15a9.43,9.43,0,0,0,.27-2c2.31-7.88,5.88-21.32,6.75-27.09,1.14,6.48,3.78,21.08,5.65,27.9-2.48,9.55,2.2,29.06,2.49,40.29h0c0,.07,0,.13,0,.21-.26,2.14-.25,2.25,1.72,2.27a26.72,26.72,0,0,1,4,.23,13.29,13.29,0,0,0,5.9-.08c2.14-.69-1.71-1.06-3.53-1.84a8.15,8.15,0,0,1-3.4-2.48,1.57,1.57,0,0,0-.3-.38c-.15-14.94,1.55-29.81,1.89-37.53a9.71,9.71,0,0,0,0-1.3,17.3,17.3,0,0,0,0-2.32c-.27-3.49-.88-18.41-1.26-27.32h0a136.56,136.56,0,0,0-.88-14.7s-.12-19.25-1.41-31.89c6.84,1.42,10,1.32,11.42,1.06a1.4,1.4,0,0,0,1.29-.45A55.55,55.55,0,0,0,162,88.24c1.77-3.06,2.25-4.56,2.31-6A5.5,5.5,0,0,0,168,78.61C168.44,77.29,169.18,73.27,167.48,71.55Zm-54.11,36.1c.75-1,1.84-2.38,3.16-4a105.9,105.9,0,0,1,2.7,16.29C117.49,116.13,114.9,109.59,113.36,107.66Z"/></clipPath><linearGradient id="Gradient_bez_nazwy_3-3" x1="-2717.08" y1="8554.71" x2="-2582.62" y2="8637.32" gradientTransform="matrix(-0.4, -0.87, 0.54, -0.47, -5580.44, 1907.34)" xlink:href="#Gradient_bez_nazwy_3"/></defs><title>context-slide4</title><g class="cls-2"><g id="Слой_2" data-name="Слой 2"><g id="Background"><path class="cls-3" d="M215,19.68A112.55,112.55,0,0,0,198,21,127.88,127.88,0,0,1,189.19,240,111.7,111.7,0,1,0,215,19.68Z"/><path class="cls-4" d="M103.32,131.36A111.71,111.71,0,0,1,198,21,127.84,127.84,0,1,0,189.19,240,111.73,111.73,0,0,1,103.32,131.36Z"/><path class="cls-5" d="M255.7,127.85A127.73,127.73,0,0,0,198,21,111.71,111.71,0,0,0,189.19,240,127.82,127.82,0,0,0,255.7,127.85Z"/></g><g id="Objects"><path class="cls-6" d="M123.33,212.29s-2.75,2-8.26,2-8.26-2-8.26-2v-54a20.14,20.14,0,0,0,8.26,1.45c5.82,0,8.26-1.45,8.26-1.45Z"/><path class="cls-6" d="M106.81,158.27s2.16,1.23,7.84,1.44,8.69-1.44,8.69-1.44-1.12-1.65-8.26-1.65S106.81,158.27,106.81,158.27Z"/><path class="cls-6" d="M106.81,162.75s2.36,1.1,8.26,1.1"/><path class="cls-6" d="M106.81,176.05a25.36,25.36,0,0,0,8.26,1.1"/><path class="cls-6" d="M106.81,178.24a25.36,25.36,0,0,0,8.26,1.1"/><path class="cls-6" d="M123.33,200s-1.79,1.1-8.26,1.1"/><path class="cls-6" d="M123.33,197.8s-1.79,1.1-8.26,1.1"/><path class="cls-6" d="M123.33,183.52s-1.79,1.1-8.26,1.1"/><path class="cls-6" d="M123.33,173.23s-1.79,1.1-8.26,1.1"/><path class="cls-6" d="M106.81,187.54a25.36,25.36,0,0,0,8.26,1.1"/><path class="cls-6" d="M106.81,170.55a26,26,0,0,0,8.81,1.31,18.85,18.85,0,0,0,7.71-1.31"/><path class="cls-6" d="M106.81,167.76a26,26,0,0,0,8.81,1.31,18.85,18.85,0,0,0,7.71-1.31"/><path class="cls-6" d="M106.81,195.36a26,26,0,0,0,8.81,1.31,18.85,18.85,0,0,0,7.71-1.31"/><path class="cls-6" d="M106.81,206.06a26,26,0,0,0,8.81,1.31,18.85,18.85,0,0,0,7.71-1.31"/><path class="cls-7" d="M115.07,214.31c5.51,0,8.26-2,8.26-2v-54s-2.44,1.45-8.26,1.45Z"/><path class="cls-6" d="M138.6,214.52s-2.75,2-8.26,2-8.26-2-8.26-2V178.44a20.14,20.14,0,0,0,8.26,1.45c5.82,0,8.26-1.45,8.26-1.45Z"/><path class="cls-6" d="M122.07,178.44s2.16,1.23,7.84,1.44,8.69-1.44,8.69-1.44-1.12-1.65-8.26-1.65S122.07,178.44,122.07,178.44Z"/><path class="cls-6" d="M122.07,182.93s2.36,1.1,8.26,1.1"/><path class="cls-6" d="M122.07,196.23a25.36,25.36,0,0,0,8.26,1.1"/><path class="cls-6" d="M122.07,198.42a25.36,25.36,0,0,0,8.26,1.1"/><path class="cls-6" d="M138.6,203.69s-1.79,1.1-8.26,1.1"/><path class="cls-6" d="M138.6,193.4s-1.79,1.1-8.26,1.1"/><path class="cls-6" d="M122.07,207.71a25.36,25.36,0,0,0,8.26,1.1"/><path class="cls-6" d="M122.07,190.72a26,26,0,0,0,8.81,1.31,18.85,18.85,0,0,0,7.71-1.31"/><path class="cls-6" d="M122.07,187.93a26,26,0,0,0,8.81,1.31,18.85,18.85,0,0,0,7.71-1.31"/><path class="cls-7" d="M130.34,216.54c5.51,0,8.26-2,8.26-2V178.44s-2.44,1.45-8.26,1.45Z"/><path class="cls-6" d="M108,214.93s-2.75,2-8.26,2-8.26-2-8.26-2V178.86a20.14,20.14,0,0,0,8.26,1.45c5.82,0,8.26-1.45,8.26-1.45Z"/><path class="cls-6" d="M91.44,178.86s2.16,1.23,7.84,1.44,8.69-1.44,8.69-1.44-1.12-1.65-8.26-1.65S91.44,178.86,91.44,178.86Z"/><path class="cls-6" d="M91.44,183.34s2.36,1.1,8.26,1.1"/><path class="cls-6" d="M91.44,196.64a25.36,25.36,0,0,0,8.26,1.1"/><path class="cls-6" d="M91.44,198.83a25.36,25.36,0,0,0,8.26,1.1"/><path class="cls-6" d="M108,204.1s-1.79,1.1-8.26,1.1"/><path class="cls-6" d="M108,193.81s-1.79,1.1-8.26,1.1"/><path class="cls-6" d="M91.44,208.12a25.36,25.36,0,0,0,8.26,1.1"/><path class="cls-6" d="M91.44,191.13a26,26,0,0,0,8.81,1.31,18.85,18.85,0,0,0,7.71-1.31"/><path class="cls-6" d="M91.44,188.34a26,26,0,0,0,8.81,1.31,18.85,18.85,0,0,0,7.71-1.31"/><path class="cls-7" d="M99.7,216.95c5.51,0,8.26-2,8.26-2V178.86s-2.44,1.45-8.26,1.45Z"/><polygon class="cls-6" points="185.25 48.27 175.37 37.44 164.55 48.27 170.96 48.27 170.96 62.31 178.84 62.31 178.84 48.27 185.25 48.27"/><polygon class="cls-6" points="308.69 133.51 298.81 122.69 287.98 133.51 294.4 133.51 294.4 147.55 302.28 147.55 302.28 133.51 308.69 133.51"/><path class="cls-6" d="M290.6,213.24s-2.9,2.13-8.71,2.13-8.71-2.13-8.71-2.13V156.29a21.23,21.23,0,0,0,8.71,1.52c6.13,0,8.71-1.52,8.71-1.52Z"/><path class="cls-6" d="M273.18,156.29s2.27,1.3,8.26,1.52,9.16-1.52,9.16-1.52-1.18-1.74-8.71-1.74S273.18,156.29,273.18,156.29Z"/><path class="cls-6" d="M273.18,161s2.49,1.16,8.71,1.16"/><path class="cls-6" d="M273.18,175a26.73,26.73,0,0,0,8.71,1.16"/><path class="cls-6" d="M273.18,177.35a26.73,26.73,0,0,0,8.71,1.16"/><path class="cls-6" d="M290.6,200.32s-1.88,1.16-8.71,1.16"/><path class="cls-6" d="M290.6,198s-1.88,1.16-8.71,1.16"/><path class="cls-6" d="M290.6,182.91s-1.88,1.16-8.71,1.16"/><path class="cls-6" d="M290.6,172.06s-1.88,1.16-8.71,1.16"/><path class="cls-6" d="M273.18,187.14a26.73,26.73,0,0,0,8.71,1.16"/><path class="cls-6" d="M273.18,169.24a27.38,27.38,0,0,0,9.29,1.38c5.34,0,8.13-1.38,8.13-1.38"/><path class="cls-6" d="M273.18,166.3a27.38,27.38,0,0,0,9.29,1.38c5.34,0,8.13-1.38,8.13-1.38"/><path class="cls-6" d="M273.18,195.39a27.38,27.38,0,0,0,9.29,1.38c5.34,0,8.13-1.38,8.13-1.38"/><path class="cls-6" d="M273.18,206.67a27.38,27.38,0,0,0,9.29,1.38c5.34,0,8.13-1.38,8.13-1.38"/><path class="cls-7" d="M281.89,215.37c5.81,0,8.71-2.13,8.71-2.13V156.29s-2.58,1.52-8.71,1.52Z"/><path class="cls-6" d="M306.69,215.59s-2.9,2.13-8.71,2.13-8.71-2.13-8.71-2.13v-38a21.23,21.23,0,0,0,8.71,1.52c6.13,0,8.71-1.52,8.71-1.52Z"/><path class="cls-6" d="M289.27,177.56s2.27,1.3,8.26,1.52,9.16-1.52,9.16-1.52-1.18-1.74-8.71-1.74S289.27,177.56,289.27,177.56Z"/><path class="cls-6" d="M289.27,182.28s2.49,1.16,8.71,1.16"/><path class="cls-6" d="M289.27,196.31a26.73,26.73,0,0,0,8.71,1.16"/><path class="cls-6" d="M289.27,198.61a26.73,26.73,0,0,0,8.71,1.16"/><path class="cls-6" d="M306.69,204.17s-1.88,1.16-8.71,1.16"/><path class="cls-6" d="M306.69,193.33s-1.88,1.16-8.71,1.16"/><path class="cls-6" d="M289.27,208.41a26.73,26.73,0,0,0,8.71,1.16"/><path class="cls-6" d="M289.27,190.5a27.38,27.38,0,0,0,9.29,1.38c5.34,0,8.13-1.38,8.13-1.38"/><path class="cls-6" d="M289.27,187.56a27.38,27.38,0,0,0,9.29,1.38c5.34,0,8.13-1.38,8.13-1.38"/><path class="cls-7" d="M298,217.72c5.81,0,8.71-2.13,8.71-2.13v-38s-2.58,1.52-8.71,1.52Z"/><path class="cls-6" d="M274.4,216s-2.9,2.13-8.71,2.13S257,216,257,216V178a21.23,21.23,0,0,0,8.71,1.52c6.13,0,8.71-1.52,8.71-1.52Z"/><path class="cls-6" d="M257,178s2.27,1.3,8.26,1.52S274.4,178,274.4,178s-1.18-1.74-8.71-1.74S257,178,257,178Z"/><path class="cls-6" d="M257,182.72s2.49,1.16,8.71,1.16"/><path class="cls-6" d="M257,196.74a26.73,26.73,0,0,0,8.71,1.16"/><path class="cls-6" d="M257,199a26.73,26.73,0,0,0,8.71,1.16"/><path class="cls-6" d="M274.4,204.61s-1.88,1.16-8.71,1.16"/><path class="cls-6" d="M274.4,193.76s-1.88,1.16-8.71,1.16"/><path class="cls-6" d="M257,208.84a26.73,26.73,0,0,0,8.71,1.16"/><path class="cls-6" d="M257,190.93a27.38,27.38,0,0,0,9.29,1.38c5.34,0,8.13-1.38,8.13-1.38"/><path class="cls-6" d="M257,188a27.38,27.38,0,0,0,9.29,1.38c5.34,0,8.13-1.38,8.13-1.38"/><path class="cls-7" d="M265.69,218.15c5.81,0,8.71-2.13,8.71-2.13V178s-2.58,1.52-8.71,1.52Z"/><path class="cls-8" d="M151.53,152.06l.22-10.86a4.49,4.49,0,0,1,6.52-3.92l8.31,4.2S162.85,151.52,151.53,152.06Z"/><path class="cls-9" d="M175.89,194.67,173.4,201a5.32,5.32,0,0,1-9-1.06l-3-13.92S170.94,186.07,175.89,194.67Z"/><path class="cls-8" d="M151.57,170.82"/><path class="cls-8" d="M162,188.84a38.68,38.68,0,0,1-3.15-3.46"/><path class="cls-8" d="M194,199.63a38.75,38.75,0,0,1-19.07-2.44"/><path class="cls-8" d="M230.4,187.71q-1.41.62-2.88,1.13L208,195.67"/><path class="cls-8" d="M230.4,187.71"/><path class="cls-8" d="M159.05,137.52a38.73,38.73,0,0,1,17.25-12.06l25.35-8.86c25.24-8.82,51.73,9.68,51.73,36.13h0a38,38,0,0,1-9.49,25.11"/><path class="cls-8" d="M159.05,137.52"/><path class="cls-8" d="M151.57,170.82a38.28,38.28,0,0,1-1.12-9.24h0a37.86,37.86,0,0,1,1.31-9.87"/><path class="cls-10" d="M162,188.84a38.68,38.68,0,0,1-3.15-3.46"/><path class="cls-10" d="M193.65,199.67a38.75,38.75,0,0,1-18.75-2.47"/><path class="cls-10" d="M193.82,199.65l-.16,0"/><path class="cls-10" d="M230.23,187.79q-1.32.58-2.7,1.06l-19.25,6.73"/><path class="cls-10" d="M230.23,187.79"/><path class="cls-10" d="M252,142.39c-.69-3.32,1.41,6.73,1.41,10.34h0a38,38,0,0,1-9.22,24.8"/><path class="cls-11" d="M242.54,126.61s-.72-7.28,4.71-8.83c3.81-1.09,5.34,1.1,5,3.82-.72,5-13.84,1.79-8.95-8.2"/><path class="cls-9" d="M193.14,198.55l4,6.57a5.32,5.32,0,0,0,9-1.06l3-11.67S198.1,189.94,193.14,198.55Z"/><path class="cls-9" d="M228.44,185l4,6.28a5.32,5.32,0,0,0,9-1.06l2.73-12.77S233.36,177.69,228.44,185Z"/><circle class="cls-8" cx="178.15" cy="168.37" r="2.25"/><circle class="cls-8" cx="153.78" cy="166.12" r="2.25"/><path class="cls-8" d="M187.11,146.67l9.1-5.93a4.49,4.49,0,0,1,6.91,3.18l1.2,9.23S193.93,155.72,187.11,146.67Z"/><path class="cls-8" d="M152.6,170.75"/><path class="cls-8" d="M152.6,170.75c.13,0,4.28-2,4.28-2s7.52-.6,10.33,3.32c2.53,3.54,2.41,7.74,0,9.45a34.91,34.91,0,0,1-5.54,3.07"/><ellipse class="cls-8" cx="157.04" cy="177.72" rx="7.18" ry="8.92" transform="translate(-69.09 249.2) rotate(-66.08)"/><ellipse class="cls-8" cx="159.49" cy="178.19" rx="0.67" ry="4.68"/><ellipse class="cls-8" cx="152.38" cy="176.72" rx="0.67" ry="4.68"/><path class="cls-8" d="M183.81,124.18l17.8-5.85a1.68,1.68,0,0,1,.62-.07l4.7.26a.21.21,0,0,1,.06.41l-18.13,6.17a1.29,1.29,0,0,1-.54,0l-4.47-.55A.21.21,0,0,1,183.81,124.18Z"/><path class="cls-6" d="M192.65,114.35a10.36,10.36,0,0,1-1.48.11,11.26,11.26,0,0,1,0-22.5,10.33,10.33,0,0,1,2,.19"/><ellipse class="cls-6" cx="193.57" cy="103.21" rx="10.74" ry="11.25"/><path class="cls-6" d="M236.05,66.53a7.36,7.36,0,0,1-.61.86A8,8,0,0,1,223.1,57.23a7.34,7.34,0,0,1,1-1"/><ellipse class="cls-6" cx="230.36" cy="60.99" rx="7.63" ry="7.99" transform="translate(36.84 200.04) rotate(-50.53)"/><path class="cls-6" d="M156.38,51.68a4.85,4.85,0,0,1,.36.59,5.27,5.27,0,0,1-9.38,4.8,4.84,4.84,0,0,1-.34-.87"/><ellipse class="cls-6" cx="151.54" cy="53.68" rx="5.27" ry="5.03" transform="translate(-7.81 75) rotate(-27.13)"/><path class="cls-6" d="M204.18,67.46a7.62,7.62,0,0,1,.57.93A8.29,8.29,0,0,1,190,75.94a7.6,7.6,0,0,1-.54-1.37"/><ellipse class="cls-6" cx="196.57" cy="70.6" rx="8.28" ry="7.9" transform="translate(-10.57 97.39) rotate(-27.13)"/><path class="cls-12" d="M270.53,73.31c-1.43-2,.21-5.59,4.29-5.93,4.66-.38,12.92,2.3,8.48,13.15-4.61,11.29-3.17,14.18-.06,15.87,0,0-10.66.85-9.85-8.46S273.86,78,270.53,73.31Z"/><path class="cls-13" d="M248.52,103.72c1.91-.83,7-4.24,13.91-8.53a9.39,9.39,0,0,1,6.62-.53c1.41.47,2.16,2.66-.06,4.21a60,60,0,0,1-7.43,4.51c-7.35,3.92-10.81,4.93-12.41,5.19C247.26,108.9,245.73,104.93,248.52,103.72Z"/><path class="cls-14" d="M255.25,121.35c-.57-1.58-7.17-11.75-8.12-14.34-1.12-3.07,2.74-4.12,4.12-1.81a34,34,0,0,1,4.4,10.17c1.09,3.67,2.41,4.23,2,5.37C257.35,121.65,255.63,122.4,255.25,121.35Z"/><path class="cls-15" d="M272.12,86.85c0,.23.39,5.17.46,9,0,1.86-1.31,3.62-2.64,3.66h-.06c-1.31,0-2.85-1.65-2.74-3.47.21-3.3.05-6.67,0-6.72Z"/><path class="cls-16" d="M276,108.17a64.47,64.47,0,0,0-2.37,10.36,26.26,26.26,0,0,0,0,7.8c.21,1.56.52,3.1.87,4.63.13.58,1.27,5.26,1.33,5.76H254.46c.2-4.18,5-17.33,1.74-25.84-2.23-5.89.73-6.08,2.75-11a14.42,14.42,0,0,1,1.71-3.56,6.14,6.14,0,0,1,3.27-2,12.17,12.17,0,0,1,2-.28c3.61-.29,12.12-1.34,12.92,3.8a9.11,9.11,0,0,1-.42,4.16c-.48,1.5-1.19,2.91-1.79,4.37Q276.26,107.27,276,108.17Z"/><path class="cls-17" d="M275.73,150.28s1.85-4.65.09-13.56H254.46a130.66,130.66,0,0,0-.78,13.56Z"/><path class="cls-18" d="M271.93,180.24c-2.8-6.86,4-9.22,7-4.4,4.27,6.8,6.13,32,6.69,36.65.07.61-.26.55-.62.48-1.05-.21-.61-1.19-2.11-1.1-.8,0-1,1.14-1,1.14C280.24,206.77,274.65,186.89,271.93,180.24Z"/><path class="cls-19" d="M265.13,151.26c-.75-9,2.67-15.93,8-13,2.25,1.25,3.08,3.74,3.38,6.08s2,26.74,2.54,31.14c1.31,9.93-6.25,7.26-7.07,4.5C269.94,173.07,265.53,156.14,265.13,151.26Z"/><path class="cls-20" d="M252.5,178.83c-.28-6.73,6-6.58,7.62-1.11,2.5,8.61-1.82,27.1-2.09,37.67-1.1-1.82-2.14-2.27-2.63-2.23a1.75,1.75,0,0,0-1.23.69C254.34,199.93,252.8,186,252.5,178.83Z"/><path class="cls-21" d="M259.87,179.56c-.84,2.75-8.06,5.92-7.31-4.07.34-4.44,1.23-28.92,1.4-31.28s.57-5.81,1.71-6.24c5.7-2.15,11.24,4.89,9.74,13.75C264.4,157.64,261.61,173.86,259.87,179.56Z"/><path class="cls-22" d="M274.69,83.27c-.42,4.21-.54,5.15-2.38,6.87a9.94,9.94,0,0,1-6.47,2.52c-2.16,0-3.76-2.28-4.24-4.06a30.64,30.64,0,0,1-.49-10.79,6.81,6.81,0,0,1,6.17-5.18C270.25,72.63,275.72,73,274.69,83.27Z"/><path class="cls-23" d="M253.91,213.81a7.28,7.28,0,0,1-3,2.29c-1.62.72-5,1.06-3.14,1.7a11.38,11.38,0,0,0,5.25.07,22.76,22.76,0,0,1,3.54-.21c1.75,0,1.76-.12,1.53-2.09C257.74,212.85,254.7,212.27,253.91,213.81Z"/><path class="cls-24" d="M281.94,212.61c-.24.47-.5,2.77-2.12,3.49s-5,1.06-3.14,1.7a11.38,11.38,0,0,0,5.25.07c1.12-.18,1.3-1.4,2.63-1.41,1.75,0,1.76-.12,1.53-2.09C285.76,211.65,282.72,211.07,281.94,212.61Z"/><path class="cls-25" d="M261.81,75.6c-1.65,2.82,10.34,8,13,7.54s2.64-6.1.58-8.69S265.7,69,261.81,75.6Z"/><path class="cls-26" d="M266.26,74.89c-.43,2.38-4.61,2.93-5.32,4.91-.44,1.22-.65-2.64.33-4.4S267.13,70.1,266.26,74.89Z"/><ellipse class="cls-22" cx="274.82" cy="83.89" rx="2.85" ry="1.49" transform="matrix(0.38, -0.93, 0.93, 0.38, 93.26, 306.59)"/><path class="cls-27" d="M286.67,114.6c-1.22-1.69-5.64-5.94-11.31-11.77a9.4,9.4,0,0,1-1.93-6.36c.16-1.48,2.14-2.68,4.12-.84a59.84,59.84,0,0,1,6,6.29c5.4,6.34,7.12,9.51,7.73,11C292,114.72,288.44,117.07,286.67,114.6Z"/><path class="cls-28" d="M300.56,100.48c.15,1.24-1.32,1.52-3.24,5a35.42,35.42,0,0,1-6.72,9.35c-1.91,2-5.6.12-3.79-2.75,1.54-2.43,10.49-11.29,11.42-12.77C298.86,98.33,300.44,99.48,300.56,100.48Z"/><path class="cls-22" d="M255.5,119.73a9.2,9.2,0,0,0-2.2,1.92c-.38.49-.37,1.27.32,1.38a4.57,4.57,0,0,0,3.12-1,3.18,3.18,0,0,0,.59-2.27C257.23,119,256.51,119.07,255.5,119.73Z"/><path class="cls-22" d="M300.86,96.93a9.2,9.2,0,0,0-2.2,1.92c-.38.49-.37,1.27.32,1.38a4.57,4.57,0,0,0,3.12-1,3.18,3.18,0,0,0,.59-2.27C302.58,96.22,301.86,96.27,300.86,96.93Z"/><path class="cls-29" d="M117.1,212a12.69,12.69,0,0,1,.3,2.18c.14.88,1,1.19,1.46,1.91s1.37,2.07-1.9,2.13c-3.5.07-5.58-.17-5-2.07a9.7,9.7,0,0,0,.67-3.37,2.06,2.06,0,0,1,.4-1.64C113.44,210.72,116.58,210.05,117.1,212Z"/><path class="cls-30" d="M164.25,80.94c.15,2,0,3.29-2.28,7.3a55.55,55.55,0,0,1-7.29,10.48c-1.91,2.07-6.2-3.12-4.28-6.41,1.62-2.77,10.54-10.34,11.52-12C162.57,79.15,164.13,79.35,164.25,80.94Z"/><path class="cls-31" d="M153.53,99.15c-1.51.3-5,.44-13.18-1.39a53.81,53.81,0,0,1-8.56-2.5c-2.65-1-3-3.87-2-5,1.59-1.78,5-3.12,6.37-2.69,8,2.44,14,4.8,16,5.05C155.14,93,155.32,98.79,153.53,99.15Z"/><path class="cls-32" d="M132.42,77.47c1.43.67,2.06.68,2.57-1.1.4-1.38,1.08-6.24-1.14-6.57s-4-.39-3.7,2.61S130.72,76.67,132.42,77.47Z"/><path class="cls-33" d="M124,80.07c0,.22-.52,4.87-.6,8.45A3.69,3.69,0,0,0,126.91,92H127c1.72,0,3.74-1.55,3.59-3.27a46.2,46.2,0,0,1-.06-6.34Z"/><path class="cls-34" d="M115.37,99.46c3.19,10.49,4.62,23.21,4,30.54h24s-.14-22.5-1.75-34.83a9.22,9.22,0,0,0-5.07-7.07,17.25,17.25,0,0,0-6.4-1.42h-4.44a26.85,26.85,0,0,0-4.69.58C114.68,88.47,113.52,93.38,115.37,99.46Z"/><path class="cls-35" d="M119.47,144.69s-2.08-5-.1-14.7h24a136.56,136.56,0,0,1,.88,14.7Z"/><path class="cls-36" d="M124.21,176.14c1.92-7.82-6.07-9.2-8.59-3.54-3.57,8-3.28,33.59-3.09,38.69,0,.67.39.54.77.41a6,6,0,0,1,2.54-.46,2.19,2.19,0,0,1,1.34,1.05C117.93,205.34,122.34,183.72,124.21,176.14Z"/><path class="cls-37" d="M131.39,145.75c.84-9.72-3-17.26-9-14.05-2.54,1.35-3.47,4.05-3.81,6.59s-2.21,29-2.86,33.76c-1.48,10.77,7,7.87,8,4.88C126,169.4,130.93,151,131.39,145.75Z"/><path class="cls-38" d="M145.59,175.64c.32-7.29-6.78-7.14-8.57-1.2-2.81,9.34,2,29.38,2.35,40.83,1.24-2,2.41-2.46,3-2.42a2,2,0,0,1,1.38.75C143.52,198.51,145.25,183.43,145.59,175.64Z"/><path class="cls-39" d="M137.31,176.42c.94,3,9.07,6.42,8.22-4.41-.38-4.81-1.38-31.35-1.57-33.91s-.64-6.3-1.92-6.77c-6.42-2.33-12.64,5.3-11,14.91C132.21,152.67,135.35,170.25,137.31,176.42Z"/><path class="cls-40" d="M119.17,124.52c-1.89-.54-2.88-1.89-6.07-5.24-4.6-4.82-5.39-6.26-7.14-10.2-1.14-2.58,4.95-4.44,7.36-1.5,2,2.49,6,13.47,7.29,15C121.43,123.57,120.71,125,119.17,124.52Z"/><path class="cls-41" d="M105.82,108.15c.25-1.52,1.31-4.82,5.88-11.88A53.81,53.81,0,0,1,117,89.12c1.84-2.14,4.69-1.5,5.38-.19,1.12,2.11,1.2,5.73.31,6.91-5.06,6.66-9.37,11.47-10.31,13.3C111,111.8,105.53,110,105.82,108.15Z"/><path class="cls-22" d="M121.68,76.7c.4,4,.51,4.86,2.25,6.48a9.37,9.37,0,0,0,6.1,2.37c2,0,3.54-2.15,4-3.83a28.93,28.93,0,0,0,.46-10.18,6.42,6.42,0,0,0-5.82-4.88C125.87,66.66,120.71,67,121.68,76.7Z"/><path class="cls-22" d="M118.45,122c.92-1,2.36-2.58,3.07-3.48s2.82.65,2.86,1.42c.07,1.15-1.09,4.29-2.57,4.29s-1.89,1.34-3.15.93S116.95,123.67,118.45,122Z"/><path class="cls-42" d="M144,213.55a8.15,8.15,0,0,0,3.4,2.48c1.82.78,5.67,1.15,3.53,1.84a13.29,13.29,0,0,1-5.9.08,26.72,26.72,0,0,0-4-.23c-2,0-2-.13-1.72-2.27C139.7,212.51,143.12,211.89,144,213.55Z"/><path class="cls-32" d="M121.69,76.09c1.08,1.08,1.64,1.28,2.69-.16.81-1.12,3-5.29,1.12-6.31S122,68,121.3,70.77,120.42,74.81,121.69,76.09Z"/><ellipse class="cls-22" cx="121.56" cy="77.28" rx="1.41" ry="2.69" transform="translate(-20.2 51.71) rotate(-22.22)"/><path class="cls-32" d="M122.91,68.87c1.55,2.31,9,2.53,11.47,1.68s2.27-5.57-1.22-5.9c-2,0-.54.47-2.14,1.11C130.21,66.09,121.26,66.4,122.91,68.87Z"/><path class="cls-22" d="M161.59,80.48c.44-1.2,4.34-10.48,5.88-8.93,1.7,1.71,1,5.73.54,7.05-.76,2.41-3,3.85-4.58,3.75C162.36,82.28,161.18,81.63,161.59,80.48Z"/><path class="cls-22" d="M161.39,79.78c-.06-.59-.38-4.06.27-4.17,1-.16,1.31,2.1,1.53,3.6.12.81-.26,2-.93,2S161.48,80.72,161.39,79.78Z"/><g class="cls-43"><path class="cls-44" d="M90.43,56.54c12.53-2.1,30.34,6.28,33.95,19.39,3.68,13.38-6.38,19.78,1.87,38.31,6.52,14.65-1,30.72-2.73,43.41-1.94,13.93,5,20.66,2.73,33.08-5.29,28.58-5,37-24.6,43.06C81.48,240,77.33,211.87,64.23,189.63c-9.67-16.42-15.17-33.4-8.56-45.45,9.5-17.31,23.38.25,18.51-20.64C71.27,111,71.74,89.43,89.81,92.69S72.38,59.56,90.43,56.54Z"/></g></g></g></g></svg>