<?xml version="1.0" encoding="utf-8"?>
<!-- Generator: Adobe Illustrator 21.0.0, SVG Export Plug-In . SVG Version: 6.00 Build 0)  -->
<svg version="1.1" id="Слой_1" xmlns="http://www.w3.org/2000/svg" xmlns:xlink="http://www.w3.org/1999/xlink" x="0px" y="0px"
	 viewBox="0 0 327.1 255.7" style="enable-background:new 0 0 327.1 255.7;" xml:space="preserve">
<style type="text/css">
	.st0{opacity:0.15;fill:url(#SVGID_1_);enable-background:new    ;}
	.st1{opacity:0.15;fill:url(#SVGID_2_);enable-background:new    ;}
	.st2{opacity:0.15;fill:url(#SVGID_3_);enable-background:new    ;}
	.st3{fill:none;stroke:#0037FF;stroke-linecap:round;stroke-linejoin:round;}
	.st4{opacity:0.5;fill:none;stroke:#0037FF;stroke-linecap:round;stroke-linejoin:round;enable-background:new    ;}
	.st5{opacity:0.4;fill:none;stroke:#0037FF;stroke-linecap:round;stroke-linejoin:round;enable-background:new    ;}
	.st6{opacity:0.6;}
	.st7{fill:url(#SVGID_4_);}
	.st8{fill:url(#SVGID_5_);}
	.st9{fill:#4E11F4;}
	.st10{fill:#FFAF84;}
	.st11{fill:url(#SVGID_6_);}
	.st12{fill:url(#SVGID_7_);}
	.st13{fill:url(#SVGID_8_);}
	.st14{fill:#F70F47;}
	.st15{fill:url(#SVGID_9_);}
	.st16{fill:url(#SVGID_10_);}
</style>
<title>context-slide4_1</title>
<g>
	<g id="Слой_2">
		<g id="Background">
			
				<linearGradient id="SVGID_1_" gradientUnits="userSpaceOnUse" x1="103.32" y1="124.4975" x2="326.69" y2="124.4975" gradientTransform="matrix(1 0 0 -1 0 255.89)">
				<stop  offset="0" style="stop-color:#36078B"/>
				<stop  offset="1" style="stop-color:#16B1FF"/>
			</linearGradient>
			<path class="st0" d="M215,19.7c-5.7,0-11.4,0.5-17,1.3c59,38.8,75.4,118.1,36.6,177.1c-11.5,17.5-27.1,31.8-45.4,41.9
				c60,14.4,120.3-22.6,134.7-82.6c14.4-60-22.6-120.3-82.6-134.7C232.7,20.7,223.9,19.7,215,19.7z"/>
			
				<linearGradient id="SVGID_2_" gradientUnits="userSpaceOnUse" x1="-3.483742e-02" y1="128.0432" x2="255.6652" y2="128.0432" gradientTransform="matrix(1 0 0 -1 0 255.89)">
				<stop  offset="0" style="stop-color:#401381"/>
				<stop  offset="1" style="stop-color:#D11137"/>
			</linearGradient>
			<path class="st1" d="M103.3,131.4c0-55.1,40.2-102,94.7-110.4C139-17.8,59.7-1.3,21,57.7s-22.3,138.3,36.7,177
				c39.5,25.9,90.1,28,131.6,5.3C138.9,228,103.3,183.1,103.3,131.4z"/>
			
				<linearGradient id="SVGID_3_" gradientUnits="userSpaceOnUse" x1="103.32" y1="125.39" x2="326.69" y2="125.39" gradientTransform="matrix(1 0 0 -1 0 255.89)">
				<stop  offset="0" style="stop-color:#36078B"/>
				<stop  offset="1" style="stop-color:#16B1FF"/>
			</linearGradient>
			<path class="st2" d="M255.7,127.8C255.7,84.8,234,44.6,198,21c-61,9.5-102.7,66.7-93.1,127.6c7,44.7,40.3,80.8,84.3,91.4
				C230.2,217.6,255.7,174.6,255.7,127.8z"/>
		</g>
		<g id="Objects">
			<polygon class="st3" points="137.9,66 137.9,196.8 290.3,185 290.3,82.6 			"/>
			<polygon class="st4" points="143.3,193.4 293.3,182.5 293.3,90.8 143.3,76.6 			"/>
			<polygon class="st4" points="213,181.2 278.6,177.2 278.6,93.7 213,88 			"/>
			<path class="st3" d="M223.1,109.5l57,3.1c0.7,0,1.3-0.7,1.3-1.6V99.7c0.1-0.8-0.4-1.5-1.2-1.7l-57-4.6c-0.8,0-1.5,0.7-1.5,1.5
				c0,0.1,0,0.1,0,0.2v12.5C221.5,108.6,222.2,109.4,223.1,109.5z"/>
			<path class="st3" d="M223.1,130.7l57,1.1c0.8-0.1,1.4-0.8,1.3-1.6c0,0,0,0,0,0v-11.3c0.1-0.8-0.5-1.5-1.3-1.7l-57-2.6
				c-0.9,0-1.6,0.8-1.5,1.7c0,0,0,0,0,0.1v12.5C221.5,129.8,222.2,130.7,223.1,130.7z"/>
			<path class="st3" d="M221,133.1l57.4,0.9c0.8-0.1,1.3-0.8,1.3-1.6V121c0.1-0.8-0.5-1.5-1.3-1.7L221,117c-0.9,0-1.6,0.8-1.5,1.7
				c0,0,0,0,0,0.1v12.6C219.4,132.2,220.1,133,221,133.1z"/>
			<path class="st3" d="M223.1,152l57-0.9c0.8-0.1,1.3-0.9,1.3-1.6v-11.4c0.1-0.8-0.5-1.5-1.3-1.6l-57-0.6c-0.9,0.1-1.6,0.9-1.5,1.8
				v12.5C221.4,151.1,222.1,151.9,223.1,152C223,152,223,152,223.1,152z"/>
			<polygon class="st5" points="115.1,138.5 195.5,135.3 195.5,32.2 115.1,22.5 			"/>
			<path class="st3" d="M223.1,173.2l57-2.8c0.8-0.2,1.3-0.9,1.3-1.7v-11.3c0.1-0.8-0.5-1.5-1.3-1.6c0,0,0,0,0,0l-57,1.3
				c-0.9,0.1-1.6,0.9-1.5,1.8v12.5C221.5,172.3,222.1,173.1,223.1,173.2C223,173.2,223,173.2,223.1,173.2z"/>
			<path class="st3" d="M160.1,96.3c-9.6,3.8-21.3,1.5-29.6-7.3c-3.9-4.2-6.6-9.3-7.8-14.9l14-2.3c1.4,6.6,7,11.8,13.5,12.1
				c1.7,0.1,3.4-0.2,5-0.8L160.1,96.3z"/>
			<path class="st3" d="M170,86.8c-0.2,0.2-0.4,0.4-0.6,0.6l-8.9-10.5c2.7-2.6,4.2-6.2,4.2-10c0-7.7-5.9-14.5-13.3-15.1
				c-5.2-0.5-10.1,2.3-12.4,7l-12.8-7.4c1.4-2.7,3.2-5.2,5.5-7.3c11-10.2,28.1-8.4,38.3,3.6C179.9,59.2,179.9,76.5,170,86.8z"/>
			<path class="st3" d="M137.5,65.1c0,1.1,0.1,2.1,0.3,3.1l-14,2.3c-1.4-6.5-0.6-13.3,2.3-19.2l12.8,7.5
				C138,60.7,137.5,62.9,137.5,65.1z"/>
			<path class="st3" d="M169.4,87.4c-2.3,2.3-5.1,4.1-8.1,5.3l-4.9-13.2c1.5-0.6,3-1.5,4.2-2.6L169.4,87.4z"/>
			<g class="st6">
				<polygon class="st3" points="254,122.6 277,123.4 277,121.7 254,120.9 				"/>
				<polygon class="st3" points="254,125.7 277,126.4 277,124.7 254,124 				"/>
				<polygon class="st3" points="267,129.1 277,129.3 277,127.7 267,127.4 				"/>
			</g>
			<polygon class="st4" points="237.6,155.8 244.4,155.9 244.4,147.7 237.6,147.5 			"/>
			<polygon class="st4" points="225.6,137 232.6,137.1 232.6,128.8 225.6,128.6 			"/>
			<polygon class="st3" points="156.4,134.4 156.4,186.3 157.6,186.3 157.6,134.4 			"/>
			<polygon class="st3" points="206.1,134.5 206.1,182.5 207.1,182.3 207.1,134.4 			"/>
			<polygon class="st3" points="182.2,134.6 182.2,184.7 183.3,184.6 183.3,134.6 			"/>
			<polygon class="st3" points="175.2,111.3 175.2,108.6 170.3,108.5 170.3,111.2 			"/>
			<polygon class="st3" points="183.8,111.4 183.8,108.7 179,108.6 179,111.3 			"/>
			<polygon class="st3" points="192.2,111.5 192.2,108.9 187.5,108.8 187.5,111.4 			"/>
			<polygon class="st4" points="252.3,142.9 275.6,142.9 275.6,140.7 252.3,140.6 			"/>
			<polygon class="st4" points="260.2,147 275.6,146.9 275.6,144.7 260.2,144.7 			"/>
			<polygon class="st4" points="254.3,147.1 258.3,147.1 258.3,144.7 254.3,144.8 			"/>
			<polygon class="st4" points="252.3,103 275.6,104.6 275.6,102.4 252.3,100.7 			"/>
			<polygon class="st4" points="262,107.8 275.6,108.6 275.6,106.4 262,105.5 			"/>
			<polygon class="st4" points="244.9,106.7 260.2,107.7 260.2,105.4 244.9,104.4 			"/>
			<polygon class="st4" points="266.6,162.7 275.6,162.3 275.6,160.1 266.6,160.4 			"/>
			<polygon class="st4" points="255.4,163 264.9,162.7 264.9,160.4 255.4,160.7 			"/>
			<polygon class="st4" points="260.2,167 275.6,166.3 275.6,164.1 260.2,164.7 			"/>
			<polygon class="st4" points="242.1,167.7 258.3,167.1 258.3,164.7 242.1,165.4 			"/>
			<path class="st3" d="M188.9,41.1c-1.5-0.9-3.4-0.6-4.6,0.7c-0.6,0.6-1,1.4-1.2,2.3l2.1,0.7c0.2-1,1.1-1.8,2.1-1.7
				c0.3,0,0.5,0.1,0.8,0.2L188.9,41.1z"/>
			<path class="st3" d="M190.4,42.3l-0.1-0.1l-1.4,1.6c0.4,0.5,0.7,1.1,0.7,1.8c0.1,1.1-0.8,2.1-1.9,2.2c-0.1,0-0.2,0-0.2,0
				c-0.9-0.1-1.6-0.7-1.9-1.5l-1.9,0.9c0.2,0.5,0.5,0.9,0.8,1.3c1.3,1.8,3.8,2.1,5.6,0.8c0.1-0.1,0.3-0.2,0.4-0.3
				C192,47,192,44.2,190.4,42.3z"/>
			<path class="st3" d="M185.2,45.2c0-0.2,0-0.3,0-0.5l-2.1-0.7c-0.2,1.1-0.1,2.2,0.4,3.2l1.9-0.9C185.3,45.9,185.2,45.6,185.2,45.2
				z"/>
			<path class="st3" d="M190.3,42.1c-0.4-0.4-0.8-0.8-1.3-1.1l-0.8,2.1c0.3,0.1,0.5,0.3,0.7,0.5L190.3,42.1z"/>
			<path class="st3" d="M183.4,97.6c0.6,1.7,2.2,2.9,3.9,3c0.8,0,1.6-0.2,2.3-0.7l-1.1-2c-0.9,0.6-2,0.4-2.7-0.4
				c-0.2-0.2-0.4-0.5-0.5-0.8L183.4,97.6z"/>
			<path class="st3" d="M183.1,95.7c0,0.1,0,0.1,0,0.2h2.1c0-0.6,0.2-1.3,0.6-1.7c0.8-0.8,2-0.8,2.8-0.1c0.1,0.1,0.1,0.1,0.2,0.2
				c0.6,0.7,0.8,1.6,0.5,2.5l2,0.8c0.1-0.5,0.2-1,0.2-1.5c0.1-2.5-1.8-4.6-4.2-4.9c-2.4,0-4.3,2-4.3,4.4
				C183.1,95.5,183.1,95.6,183.1,95.7z"/>
			<path class="st3" d="M188.9,97.6c-0.1,0.1-0.2,0.2-0.4,0.3l1.1,2c0.8-0.6,1.4-1.4,1.7-2.4l-2-0.8C189.3,97,189.1,97.3,188.9,97.6
				z"/>
			<path class="st3" d="M183.1,95.8c0,0.6,0.1,1.2,0.4,1.7l2-0.9c-0.1-0.3-0.2-0.6-0.2-0.9L183.1,95.8z"/>
			<path class="st3" d="M189.1,64.2c1.6-0.8,2.6-2.4,2.6-4.2c0-0.9-0.2-1.8-0.7-2.6l-1.8,1.2c0.5,0.9,0.4,2.1-0.3,3
				c-0.2,0.2-0.4,0.4-0.7,0.5L189.1,64.2z"/>
			<path class="st3" d="M187.4,64.5h0.1l-0.1-2.4c-0.6,0-1.2-0.3-1.6-0.8c-0.8-1-0.8-2.4,0-3.4c0.6-0.6,1.5-0.8,2.2-0.4l0.7-2.2
				c-0.4-0.2-0.9-0.3-1.4-0.3c-2.3-0.1-4.3,1.8-4.3,4.1c0,0.1,0,0.3,0,0.4C183,62,184.9,64.2,187.4,64.5z"/>
			<path class="st3" d="M188.9,58.1c0.1,0.1,0.2,0.3,0.3,0.4l1.8-1.2c-0.5-0.9-1.3-1.6-2.2-2.1l-0.7,2.2
				C188.4,57.7,188.7,57.9,188.9,58.1z"/>
			<path class="st3" d="M187.5,64.5c0.5,0,1.1-0.1,1.5-0.3l-0.8-2.2c-0.2,0.1-0.5,0.2-0.8,0.2L187.5,64.5z"/>
			<path class="st3" d="M146.9,185.5c9.8-13.2,17.7-16,21.9-14.3c2.8,1.1,5.3,2,8.6,1.1c3.7-1,3.3-4.2,8.6-8.4
				c3.3-2.6,4.7-2.2,7.6-5.5c1.6-1.6,2.8-3.5,3.8-5.6c1.9-3.9,1.5-6.1,3.2-7.4s2.9,0,4.6-1.3s2.3-4,2.5-6.1"/>
			
				<linearGradient id="SVGID_4_" gradientUnits="userSpaceOnUse" x1="273.8057" y1="145.8055" x2="291.5557" y2="127.1355" gradientTransform="matrix(1 0 0 -1 0 255.89)">
				<stop  offset="0" style="stop-color:#F70F47"/>
				<stop  offset="1" style="stop-color:#FFB41D"/>
			</linearGradient>
			<path class="st7" d="M267.7,118.5c1.9,0.6,3.5,0,8.1-1c6.6-1.5,8.1-2.2,11.9-4.6c2.4-1.5-1.7-6.6-5.4-5.5
				c-3.1,0.9-12.8,8-14.7,8.5C266.3,116.4,266.2,118,267.7,118.5z"/>
			
				<linearGradient id="SVGID_5_" gradientUnits="userSpaceOnUse" x1="284.5739" y1="156.0437" x2="302.3239" y2="137.3737" gradientTransform="matrix(1 0 0 -1 0 255.89)">
				<stop  offset="0" style="stop-color:#F70F47"/>
				<stop  offset="1" style="stop-color:#FFB41D"/>
			</linearGradient>
			<path class="st8" d="M288.4,111.9c0.5-1.5,1-5,0-13.6c-0.3-3-0.8-6.1-1.6-9c-0.7-2.8-3.6-3.5-4.8-2.6c-2,1.4-3.7,4.7-3.4,6.2
				c1.6,8.4,3.4,14.8,3.4,16.9C282,112.9,287.9,113.7,288.4,111.9z"/>
			<path class="st9" d="M284.4,210.9c-0.2,0.7-0.3,1.5-0.3,2.2c-0.1,0.9-1,1.2-1.5,2s-1.4,2,1.9,2.1c3.6,0.1,5.7,0,5.1-2
				c-0.4-1.1-0.7-2.3-0.7-3.4c0.1-0.6,0-1.2-0.4-1.7C288.1,209.6,284.9,209,284.4,210.9z"/>
			<path class="st10" d="M241.3,100.9c-1.2-0.6-10.5-4.8-10.6-2.6c-0.1,2.5,3.3,5,4.5,5.7c2.3,1.3,5,0.8,6-0.4
				C242,102.8,242.4,101.5,241.3,100.9z"/>
			<path class="st10" d="M241,100.2c-0.4-0.5-2.5-3.3-3.1-2.9c-0.9,0.6,0.5,2.5,1.4,3.8c0.5,0.7,1.6,1.3,2.1,0.9
				S241.6,101,241,100.2z"/>
			<path class="st9" d="M256.9,212.5c-0.9,1.1-2.1,2-3.5,2.5c-1.9,0.8-5.8,1.2-3.6,1.9c2,0.5,4,0.5,6,0.1c1.3-0.2,2.7-0.3,4.1-0.2
				c2,0,2-0.1,1.8-2.3C261.3,211.5,257.8,210.8,256.9,212.5z"/>
			<path class="st10" d="M279.7,73.2c-0.4,4.1-0.5,5-2.3,6.6s-4.5,1.9-6.5,1.9c-2.1,0-3.5-2.5-3.9-4.2c-0.8-3.1-0.9-6.4-0.4-9.6
				c0.7-2.8,3.1-4.8,6-5C275.4,62.9,280.7,63.3,279.7,73.2z"/>
			
				<linearGradient id="SVGID_6_" gradientUnits="userSpaceOnUse" x1="-3224.7249" y1="1937.37" x2="-3224.7249" y2="1896.3199" gradientTransform="matrix(0.58 0.81 0.81 -0.58 577.3392 3822.1062)">
				<stop  offset="0" style="stop-color:#F70F47"/>
				<stop  offset="1" style="stop-color:#FFB41D"/>
			</linearGradient>
			<path class="st11" d="M239.1,103.5c1.3,1.6,2.3,2.5,6.8,3.8c4.1,1.4,8.4,2.3,12.8,2.7c2.9,0.2,2.4-6.7-1.3-7.8
				c-3.2-0.9-15.1-0.3-17-0.8C239.1,101,238.1,102.3,239.1,103.5z"/>
			
				<linearGradient id="SVGID_7_" gradientUnits="userSpaceOnUse" x1="262.1466" y1="181.43" x2="262.1466" y2="140.38" gradientTransform="matrix(1 0 0 -1 0 255.89)">
				<stop  offset="0" style="stop-color:#F70F47"/>
				<stop  offset="1" style="stop-color:#FFB41D"/>
			</linearGradient>
			<path class="st12" d="M259,108.2c1.2-1,3.5-3.7,7.3-11.4c1.4-2.7,2.5-5.5,3.5-8.4c0.9-2.7-1.2-4.9-2.7-4.8
				c-2.4,0.1-5.6,2-6.2,3.4c-3.2,7.9-5.1,14.3-6.2,16C253,105.6,257.6,109.4,259,108.2z"/>
			<path class="st10" d="M277.6,80.4c0.1,1.4,0.2,3,0.3,4.5c0,2-1.4,3.7-3.4,3.9h-0.2c-1.8,0-3.8-1.6-3.7-3.3
				c0.1-1.1,0.1-2.3,0.1-3.3c0-1.9,1.2-3.6,3-4.3l0,0c1.5-0.6,3.1,0.2,3.7,1.7C277.5,79.8,277.6,80.1,277.6,80.4z"/>
			
				<linearGradient id="SVGID_8_" gradientUnits="userSpaceOnUse" x1="272.087" y1="181.43" x2="272.087" y2="140.38" gradientTransform="matrix(1 0 0 -1 0 255.89)">
				<stop  offset="0" style="stop-color:#F70F47"/>
				<stop  offset="1" style="stop-color:#FFB41D"/>
			</linearGradient>
			<path class="st13" d="M285.8,97.7c-3.3,10.7-4.3,21.9-3.7,29.4h-24.6c0,0,0.1-23,1.8-35.6c0.4-3.1,2.4-5.8,5.2-7.2
				c2.1-0.9,4.3-1.4,6.5-1.4h4.5c1.6,0,3.2,0.2,4.8,0.6C287,85.5,287.6,91.5,285.8,97.7z"/>
			<path class="st14" d="M282,142.1c0,0,2.1-5.1,0.1-15h-24.6c-0.6,5-0.9,10-0.9,15H282z"/>
			<path class="st14" d="M277.1,174.3c-2-8,6.2-9.4,8.8-3.6c3.6,8.2,3.4,34.3,3.2,39.6c0,0.7,0.1,1.5-0.3,1.8
				c-0.8,0.4-1.7,0.5-2.6,0.4c-0.9,0-1.8,0-1.9-1.2C283.7,203.6,279,182,277.1,174.3z"/>
			<path class="st14" d="M269.8,143.2c-0.9-9.9,3.1-17.6,9.2-14.4c2.6,1.4,3.5,4.1,3.9,6.7s2.3,29.6,2.9,34.5c1.5,11-7.2,8-8.1,5
				C275.3,167.4,270.2,148.6,269.8,143.2z"/>
			<path class="st14" d="M261.6,214.3c0.3-11.7,5.3-32.2,2.4-41.7c-1.8-6.1-9.1-6.2-8.8,1.2c0.3,8,2.7,23.4,1.9,38.8
				C257.1,214.1,261.5,215.6,261.6,214.3z"/>
			<path class="st14" d="M263.7,174.6c-1,3-9.3,6.6-8.4-4.5c0.4-4.9,1.4-32,1.6-34.7s0.6-6.4,2-6.9c6.6-2.4,12.9,5.4,11.2,15.2
				C268.9,150.3,265.7,168.3,263.7,174.6z"/>
			
				<ellipse transform="matrix(0.9257 -0.3782 0.3782 0.9257 -7.6314 106.6183)" class="st10" cx="267.6" cy="72.7" rx="1.4" ry="2.8"/>
			
				<ellipse transform="matrix(0.378 -0.9258 0.9258 0.378 106.3979 304.1449)" class="st10" cx="279.5" cy="72.9" rx="2.8" ry="1.4"/>
			
				<linearGradient id="SVGID_9_" gradientUnits="userSpaceOnUse" x1="260.9211" y1="199.3214" x2="295.4911" y2="172.7014" gradientTransform="matrix(1 0 0 -1 0 255.89)">
				<stop  offset="0" style="stop-color:#0000FF"/>
				<stop  offset="1" style="stop-color:#9E005D"/>
			</linearGradient>
			<path class="st15" d="M278.4,65.2c-1.6,2.4-9.2,2.6-11.7,1.7s-2.3-5.7,1.3-6c2,0,0.5,0.5,2.2,1.1C271,62.4,280.1,62.7,278.4,65.2
				z"/>
			
				<linearGradient id="SVGID_10_" gradientUnits="userSpaceOnUse" x1="258.9034" y1="196.7014" x2="293.4634" y2="170.0814" gradientTransform="matrix(1 0 0 -1 0 255.89)">
				<stop  offset="0" style="stop-color:#0000FF"/>
				<stop  offset="1" style="stop-color:#9E005D"/>
			</linearGradient>
			<path class="st16" d="M269.8,64.8c-2.4,1.4-2.9,2.7-2.8,5.6s1.3,7.9,6.7,9s6.6-4.2,7-7.9s0.1-6.4-2.6-7.1
				C274,63.4,271.3,63.9,269.8,64.8z"/>
			<g>
				<defs>
					<path id="SVGID_11_" d="M289.6,215.1c-0.4-1.1-0.6-2.2-0.7-3.4c0.1-0.5,0.2-1,0.1-1.6c0.2-5.2,0.5-31.4-3.2-39.6l0,0
						c0-0.2,0-0.4-0.1-0.6c-0.6-4.8-2.5-30.7-2.9-34.3c0-2.9-0.3-5.8-0.9-8.7c-0.3-3.8-0.2-7.6,0.2-11.3c1.9-0.7,3.8-1.7,5.5-2.9
						c0.4-0.2,0.6-0.6,0.7-1l0,0c0.5-1.5,1-5,0-13.6c-0.3-3-0.8-6.1-1.6-9c-0.2-0.8-0.7-1.5-1.3-2.1c-1.2-1.9-3-3.3-5.2-3.9
						c-0.8-0.2-1.7-0.4-2.5-0.5c0-0.9-0.1-1.8-0.2-2.6c0-0.2-0.1-0.4-0.1-0.6c0.9-0.7,1.4-1.7,1.7-2.8c0.4-0.7,0.7-1.4,0.9-2.1
						c0.4-0.4,0.7-0.9,0.9-1.4c0.5-1.3,0.5-2.7-0.2-3c0.2-2.8-0.2-4.9-2.1-5.8c0.1-2-7.7-2.3-8.5-2.6c-1.6-0.7-0.2-1.1-2.2-1.1
						c-3.6,0.3-3.7,5.2-1.3,6h0.1c-0.1,0.3-0.2,0.7-0.3,1c-0.1,0.9-0.2,1.8-0.2,2.7c-0.3-0.3-0.7-0.3-1.1-0.2
						c-0.7,0.3-0.9,1.7-0.3,3.1c0.3,0.8,0.8,1.5,1.6,1.9c0.1,0.7,0.2,1.4,0.4,2.1c0.5,1.7,1.8,4.1,3.8,4.2c0,0.1,0,0.3,0,0.4
						c0,0.2,0,0.5,0,0.7c-1.8,0.1-3.6,0.4-5.3,1c-2,0.6-4.1,2-4.5,3.1l-0.5,1.3c-0.4,0.7-0.7,1.5-0.9,2.3c-2.4,6.2-3.9,11-4.8,12.5
						c-0.1,0.2-0.2,0.5-0.3,0.8c-2.5,2.2-7.8,10.4-9.9,12.7h-0.1c-0.3,0-0.6,0-0.9,0c-0.6,0-4.2,0.2-4.2,0.9s0.9,0.9,2.1,1
						c-2.9,1.8-6.6,4.6-5.3,5.5c2,1.5,5.9,0.2,7.2-0.4c1.7-0.8,2.9-2.4,3.2-4.3c1.4-0.3,2.9-1,5.7-3.2c2.4-1.9,4.3-3.5,5.8-4.9
						c-0.3,8.7-0.4,16.1-0.4,16.1c-0.6,5-0.9,10-0.9,15l0,0c-0.4,9.1-1,24.4-1.3,27.9c-0.1,0.8-0.1,1.6,0,2.4c0,0.4,0,0.9,0,1.3
						c0.3,7.9,2.7,23.1,1.9,38.4c-0.1,0.1-0.2,0.3-0.3,0.4c-0.9,1.1-2.1,2-3.5,2.5c-1.9,0.8-5.8,1.2-3.6,1.9c2,0.5,4,0.5,6,0.1
						c1.3-0.2,2.7-0.3,4.1-0.2c2,0,2-0.1,1.8-2.3c0-0.1,0-0.1,0-0.2l0,0c0.3-11.5,5.1-31.4,2.5-41.2c1.9-7,4.6-21.9,5.8-28.5
						c0.9,5.9,4.5,19.6,6.9,27.7c0,0.7,0.1,1.3,0.3,2c1.9,7.7,6.6,29.3,7.2,37l0,0c-0.2,0.9-0.1,1.2-0.2,1.9c-0.1,0.9-1,1.2-1.5,2
						s-1.4,2,1.9,2.1C288.1,217.2,290.2,217.1,289.6,215.1z"/>
				</defs>
				<clipPath id="SVGID_12_">
					<use xlink:href="#SVGID_11_"  style="overflow:visible;"/>
				</clipPath>
			</g>
		</g>
	</g>
</g>
</svg>
