<svg xmlns="http://www.w3.org/2000/svg" xmlns:xlink="http://www.w3.org/1999/xlink" viewBox="0 0 202.73 183.19"><defs><style>.cls-1,.cls-22,.cls-23,.cls-24,.cls-25,.cls-26,.cls-27{fill:none;}.cls-2{isolation:isolate;}.cls-3{fill:url(#Gradient_bez_nazwy_5);}.cls-4{fill:url(#Gradient_bez_nazwy_2);}.cls-5{fill:url(#Gradient_bez_nazwy_2-2);}.cls-6{fill:#e89672;}.cls-7{fill:url(#Gradient_bez_nazwy_2-3);}.cls-8{fill:#ffaf84;}.cls-9{fill:url(#Gradient_bez_nazwy_2-4);}.cls-10{fill:url(#Gradient_bez_nazwy_2-5);}.cls-11{fill:url(#Gradient_bez_nazwy_14);}.cls-12{fill:url(#Gradient_bez_nazwy_14-2);}.cls-13{fill:url(#Gradient_bez_nazwy_5-2);}.cls-14{fill:url(#Gradient_bez_nazwy_5-3);}.cls-15{fill:url(#Gradient_bez_nazwy_16);}.cls-16{fill:url(#Gradient_bez_nazwy_16-2);}.cls-17{fill:url(#Gradient_bez_nazwy_16-3);}.cls-18{fill:url(#Gradient_bez_nazwy_16-4);}.cls-19{fill:url(#Gradient_bez_nazwy_16-5);}.cls-20{clip-path:url(#clip-path);}.cls-21,.cls-24,.cls-26{opacity:0.3;}.cls-21{mix-blend-mode:multiply;fill:url(#Gradient_bez_nazwy_3);}.cls-22,.cls-23,.cls-24,.cls-25,.cls-26,.cls-27{stroke:#0037ff;}.cls-22,.cls-26,.cls-27{stroke-linecap:round;stroke-linejoin:round;}.cls-23,.cls-24,.cls-25{stroke-miterlimit:10;}.cls-24,.cls-25,.cls-27{mix-blend-mode:screen;}.cls-25,.cls-27{opacity:0.1;}.cls-28{fill:url(#Gradient_bez_nazwy_2-6);}.cls-29{fill:url(#Gradient_bez_nazwy_14-3);}.cls-30{fill:url(#Gradient_bez_nazwy_14-4);}.cls-31{fill:url(#Gradient_bez_nazwy_2-7);}.cls-32{fill:url(#Gradient_bez_nazwy_16-6);}.cls-33{fill:url(#Gradient_bez_nazwy_16-7);}.cls-34{fill:url(#Gradient_bez_nazwy_16-8);}.cls-35{fill:url(#Gradient_bez_nazwy_16-9);}.cls-36{fill:url(#Gradient_bez_nazwy_16-10);}.cls-37{fill:url(#Gradient_bez_nazwy_4);}.cls-38{fill:url(#Gradient_bez_nazwy_2-8);}.cls-39{fill:url(#Gradient_bez_nazwy_4-2);}</style><linearGradient id="Gradient_bez_nazwy_5" x1="-11.52" y1="81.31" x2="49.61" y2="32.77" gradientUnits="userSpaceOnUse"><stop offset="0" stop-color="#36078b"/><stop offset="1" stop-color="#16b1ff"/></linearGradient><linearGradient id="Gradient_bez_nazwy_2" x1="-4992.83" y1="-1048.68" x2="-4980.02" y2="-1059.31" gradientTransform="matrix(-0.9, -0.43, -0.43, 0.9, -4879.76, -1100.07)" gradientUnits="userSpaceOnUse"><stop offset="0" stop-color="#f70f47"/><stop offset="1" stop-color="#9e005d"/></linearGradient><linearGradient id="Gradient_bez_nazwy_2-2" x1="-6748.93" y1="295.27" x2="-6736.12" y2="284.63" gradientTransform="matrix(-1, 0.03, 0.03, 1, -6689.3, 1.33)" xlink:href="#Gradient_bez_nazwy_2"/><linearGradient id="Gradient_bez_nazwy_2-3" x1="51.08" y1="37.95" x2="54.73" y2="58.18" gradientTransform="matrix(1, 0, 0, 1, 0, 0)" xlink:href="#Gradient_bez_nazwy_2"/><linearGradient id="Gradient_bez_nazwy_2-4" x1="605.26" y1="730.53" x2="598.16" y2="748.25" gradientTransform="translate(-673.69 -571.17) rotate(-10.87)" xlink:href="#Gradient_bez_nazwy_2"/><linearGradient id="Gradient_bez_nazwy_2-5" x1="537.76" y1="5790.63" x2="532.79" y2="5803.04" gradientTransform="translate(-5715.53 -745.68) rotate(-76.91)" xlink:href="#Gradient_bez_nazwy_2"/><linearGradient id="Gradient_bez_nazwy_14" x1="-7179.2" y1="770.99" x2="-7178.08" y2="757.22" gradientTransform="matrix(-0.98, 0.19, 0.19, 0.98, -7163.86, 675.84)" gradientUnits="userSpaceOnUse"><stop offset="0" stop-color="#f70f47"/><stop offset="1" stop-color="#ffb41d"/></linearGradient><linearGradient id="Gradient_bez_nazwy_14-2" x1="-6760.7" y1="349.81" x2="-6759.59" y2="336.05" gradientTransform="matrix(-1, 0.06, 0.06, 1, -6737.31, 152.46)" xlink:href="#Gradient_bez_nazwy_14"/><linearGradient id="Gradient_bez_nazwy_5-2" x1="-7773.15" y1="1700.56" x2="-7712.03" y2="1652.02" gradientTransform="matrix(-0.92, 0.4, 0.4, 0.92, -7634.18, 1574.68)" xlink:href="#Gradient_bez_nazwy_5"/><linearGradient id="Gradient_bez_nazwy_5-3" x1="-7772.02" y1="1701.98" x2="-7710.9" y2="1653.44" gradientTransform="matrix(-0.92, 0.4, 0.4, 0.92, -7634.18, 1574.68)" xlink:href="#Gradient_bez_nazwy_5"/><linearGradient id="Gradient_bez_nazwy_16" x1="-2980.29" y1="-1407.82" x2="-3019.31" y2="-1411.72" gradientTransform="matrix(0.74, 0.67, -0.67, 0.74, 1298.39, 3115.82)" gradientUnits="userSpaceOnUse"><stop offset="0" stop-color="#000061"/><stop offset="1" stop-color="#0065ff"/></linearGradient><linearGradient id="Gradient_bez_nazwy_16-2" x1="594.7" y1="756.85" x2="580.04" y2="759.71" gradientTransform="translate(-673.69 -571.17) rotate(-10.87)" xlink:href="#Gradient_bez_nazwy_16"/><linearGradient id="Gradient_bez_nazwy_16-3" x1="593.27" y1="749.5" x2="578.6" y2="752.36" gradientTransform="translate(-673.69 -571.17) rotate(-10.87)" xlink:href="#Gradient_bez_nazwy_16"/><linearGradient id="Gradient_bez_nazwy_16-4" x1="573.49" y1="775.78" x2="605.4" y2="725.3" gradientTransform="translate(-673.69 -571.17) rotate(-10.87)" xlink:href="#Gradient_bez_nazwy_16"/><linearGradient id="Gradient_bez_nazwy_16-5" x1="579.04" y1="779.29" x2="610.94" y2="728.81" gradientTransform="translate(-673.69 -571.17) rotate(-10.87)" xlink:href="#Gradient_bez_nazwy_16"/><clipPath id="clip-path"><path class="cls-1" d="M59.32,54.92c-.08-.26-1.17-2.66-1.31-3-.35-.78-.67-1.58-.94-2.39-.15-.45-.28-.91-.4-1.38a20.29,20.29,0,0,0,2.62-1.95,1.46,1.46,0,0,0,.39-.52.72.72,0,0,0,.13-.37c0-.06,0-.14,0-.21v0a27,27,0,0,0-1.33-7,32.7,32.7,0,0,0-1.54-4.49,1.7,1.7,0,0,0-.74-.88,3,3,0,0,0-1.5-.54c.5-3.91-.08-7.28-3.09-9.82-1.8-1.52-6.74-3.24-8.52,3.71S29.8,36.79,32.64,44.33a7.92,7.92,0,0,0,4.07,4.29l-.22.12a4.93,4.93,0,0,0-.78,0c-.78.11-1.15.64-1,.84l.07.1a4,4,0,0,0-.83-.14,1.55,1.55,0,0,0-.83.09,1.47,1.47,0,0,0-.88.78A3.89,3.89,0,0,0,31.67,52c-.5,3.9-.47,7.66-1.85,15.14l0,0a.73.73,0,0,0-.05.09,4,4,0,0,1-1.39,1.54c-.79.55-2.6,1.09-1.51,1.23a6.23,6.23,0,0,0,2.82-.5A12.43,12.43,0,0,1,31.6,69c.71-.14.88-.21.78-.68h0c.88-4.43,2.85-8.88,3.41-12.94,3.3,2.27,7.78,5.12,9.8,6.34a12.14,12.14,0,0,0,1.21.64c-2.77,2.27-5.73,4.82-7.37,6.16a1.76,1.76,0,0,0-.52.9,5.08,5.08,0,0,0-.38.83c-1.3,3.7-5.71,13.81-7.3,17h0a.74.74,0,0,0-.1.13,4,4,0,0,1-1.58,1.35c-.86.45-2.72.74-1.66,1a6.23,6.23,0,0,0,2.86-.13,12.49,12.49,0,0,1,1.92-.23c1-.06,1-.12.76-1.19l0-.05,0,0C34.94,86,42,75.74,42.94,71.26l.25-.13c2.1-1.22,14-7.21,15.15-7.86a6.1,6.1,0,0,0,1.54-1.22C60.74,61.3,61.5,59.45,59.32,54.92ZM57,44.7l-.78.6c0-1,0-2,0-3C56.6,43.34,56.88,44.14,57,44.7Zm2.18,10.25-1.08.21Zm-1.88.36-.39.08Zm-3.93.75.85-.16Zm-17-5.7.23-.1c.48.08.84-.38,2.06-.9a12.39,12.39,0,0,0,9-1.07,59.25,59.25,0,0,1,.12,7.37C43.84,53.83,38.16,51.21,36.45,50.36Z"/></clipPath><linearGradient id="Gradient_bez_nazwy_3" x1="1901.26" y1="2572.8" x2="2025.68" y2="2649.24" gradientTransform="matrix(0.49, -0.68, -0.48, -0.42, 365.19, 2495.08)" gradientUnits="userSpaceOnUse"><stop offset="0" stop-color="blue"/><stop offset="1" stop-color="#9e005d"/></linearGradient><linearGradient id="Gradient_bez_nazwy_2-6" x1="337.85" y1="308.04" x2="367.36" y2="301.6" gradientTransform="matrix(1, -0.06, 0.06, 1, -194.07, -178.66)" xlink:href="#Gradient_bez_nazwy_2"/><linearGradient id="Gradient_bez_nazwy_14-3" x1="304.96" y1="359.17" x2="312.12" y2="359.17" gradientTransform="matrix(1, -0.06, 0.06, 1, -194.07, -178.66)" xlink:href="#Gradient_bez_nazwy_14"/><linearGradient id="Gradient_bez_nazwy_14-4" x1="334.51" y1="378" x2="338.95" y2="378" gradientTransform="matrix(1, -0.06, 0.06, 1, -194.07, -178.66)" xlink:href="#Gradient_bez_nazwy_14"/><linearGradient id="Gradient_bez_nazwy_2-7" x1="324.61" y1="337.65" x2="339.89" y2="280.69" gradientTransform="matrix(1, -0.06, 0.06, 1, -194.07, -178.66)" xlink:href="#Gradient_bez_nazwy_2"/><linearGradient id="Gradient_bez_nazwy_16-6" x1="111.34" y1="35.03" x2="111.34" y2="-30.34" gradientTransform="translate(40.88 157.15) rotate(2.81)" xlink:href="#Gradient_bez_nazwy_16"/><linearGradient id="Gradient_bez_nazwy_16-7" x1="796.71" y1="853.48" x2="796.71" y2="788.11" gradientTransform="translate(-771.14 -498.68) rotate(-10.29)" xlink:href="#Gradient_bez_nazwy_16"/><linearGradient id="Gradient_bez_nazwy_16-8" x1="-555" y1="-496.44" x2="-555" y2="-561.81" gradientTransform="translate(567.95 808.1) rotate(13.37)" xlink:href="#Gradient_bez_nazwy_16"/><linearGradient id="Gradient_bez_nazwy_16-9" x1="254.21" y1="686.98" x2="254.21" y2="622.3" gradientTransform="translate(-135.83 -498.8) rotate(-1.56)" xlink:href="#Gradient_bez_nazwy_16"/><linearGradient id="Gradient_bez_nazwy_16-10" x1="-5341.51" y1="-2142.36" x2="-5341.51" y2="-2195.13" gradientTransform="translate(746.55 5873.35) rotate(61.73)" xlink:href="#Gradient_bez_nazwy_16"/><linearGradient id="Gradient_bez_nazwy_4" x1="123.92" y1="-58.08" x2="110.09" y2="-82.55" gradientTransform="translate(40.88 157.15) rotate(2.81)" gradientUnits="userSpaceOnUse"><stop offset="0" stop-color="#2c27ce"/><stop offset="0.65" stop-color="#ef1d68"/><stop offset="1" stop-color="#efba92"/></linearGradient><linearGradient id="Gradient_bez_nazwy_2-8" x1="313.27" y1="279.01" x2="341.13" y2="304.93" gradientTransform="matrix(1, -0.06, 0.06, 1, -194.07, -178.66)" xlink:href="#Gradient_bez_nazwy_2"/><linearGradient id="Gradient_bez_nazwy_4-2" x1="123.45" y1="-57.82" x2="109.62" y2="-82.29" xlink:href="#Gradient_bez_nazwy_4"/></defs><title>context</title><g class="cls-2"><g id="Слой_2" data-name="Слой 2"><g id="Designed_by_Freepik" data-name="Designed by Freepik"><path class="cls-3" d="M51.61,22.4c-1.8-1.52-6.74-3.24-8.52,3.71S29.8,36.79,32.64,44.33s16.74,7.32,19.29-1.22S57.16,27.09,51.61,22.4Z"/><path class="cls-4" d="M45.62,46.24c.56-.69,1.62-2.35,3.22-6.61a32.92,32.92,0,0,0,1.42-4.53c.35-1.43-.75-2.06-1.49-1.75A5.13,5.13,0,0,0,46.24,36c-1.29,4.25-2.15,7.49-2.64,8.52C42.89,46,45,47.06,45.62,46.24Z"/><path class="cls-5" d="M36.58,50.24c.65.21,1-.55,3-1.2a19.34,19.34,0,0,0,5.73-2.6c1.29-.81.66-3-1.07-2.32-1.46.57-7.17,4.42-8.06,4.76C35.61,49.1,36.05,50.07,36.58,50.24Z"/><path class="cls-6" d="M52.2,28.54c0,.12.74,2.73,1.17,4.76a1.92,1.92,0,0,1-1,2.24h0A1.8,1.8,0,0,1,50.47,34c-.23-1.79-.66-3.58-.67-3.61Z"/><path class="cls-7" d="M56.46,39.59a35.3,35.3,0,0,0-.2,5.8,14.39,14.39,0,0,0,.82,4.18c.27.81.6,1.61.94,2.4.13.3,1.22,2.69,1.31,3l-11.46,2.2c-.32-2.27.88-9.81-1.73-14-1.81-2.93-.23-3.34.34-6.18A7.91,7.91,0,0,1,47,34.82a3.35,3.35,0,0,1,1.55-1.41,6.59,6.59,0,0,1,1-.35c1.91-.53,6.37-2,7.33.71a5,5,0,0,1,.2,2.27c-.1.85-.34,1.69-.51,2.53Q56.53,39.07,56.46,39.59Z"/><path class="cls-8" d="M50,51c-.58,1.32-1.1,1.93-1,2.62s1.19,0,1.46-.42,1.33-1.9,1.14-2.48S50.42,50,50,51Z"/><path class="cls-9" d="M59.81,45.36c0-.89-.09-2.85-1.33-7.23a32.66,32.66,0,0,0-1.54-4.49c-.57-1.36-1.82-1.22-2.24-.52a5.13,5.13,0,0,0-.49,3.6c1.49,4.19,2.71,7.3,2.93,8.42C57.46,46.76,59.76,46.41,59.81,45.36Z"/><path class="cls-10" d="M51.1,51.38c.53.12.91-.83,2.87-1.77a19.34,19.34,0,0,0,5.32-3.36c1.17-1,.25-3.05-1.38-2.15a90.09,90.09,0,0,0-7.31,6C50.17,50.5,50.56,51.25,51.1,51.38Z"/><path class="cls-8" d="M52.22,26.08c.7,2.21.84,2.7.29,4a5.43,5.43,0,0,1-2.7,2.66c-1.08.47-2.38-.33-3-1.12a16.74,16.74,0,0,1-2.58-5.31,3.72,3.72,0,0,1,2-3.93C47.7,21.7,50.51,20.69,52.22,26.08Z"/><path class="cls-8" d="M37.65,48.89a8.6,8.6,0,0,0-1.93-.16c-.78.11-1.15.64-1,.84s.81.94,1.32.91a1.73,1.73,0,0,0,1.14-.57C37.38,49.6,38.28,49.06,37.65,48.89Z"/><path class="cls-11" d="M29.8,67.2a4,4,0,0,1-1.39,1.54c-.79.55-2.6,1.09-1.51,1.23a6.23,6.23,0,0,0,2.82-.5A12.43,12.43,0,0,1,31.6,69c.94-.19.93-.25.6-1.28C31.75,66.29,30.06,66.3,29.8,67.2Z"/><path class="cls-12" d="M31.15,87.33a4,4,0,0,1-1.58,1.35c-.86.45-2.72.74-1.66,1a6.23,6.23,0,0,0,2.86-.13,12.49,12.49,0,0,1,1.92-.23c1-.06,1-.12.76-1.19C33.21,86.69,31.53,86.47,31.15,87.33Z"/><path class="cls-13" d="M44.1,25c-.22,1.77,6.92,1.77,8.16,1s-.16-3.22-1.75-4.07S44.62,20.84,44.1,25Z"/><path class="cls-14" d="M46.18,23.7c.3,1.29-1.68,2.47-1.61,3.61,0,.71-.9-1.19-.78-2.28S45.58,21.11,46.18,23.7Z"/><path class="cls-15" d="M31.67,52c.47-3.65,3.86-3,4.2.11.55,4.87-2.38,10.56-3.5,16.22-.42-1.08-.69-1.37-1.18-1.52a1.6,1.6,0,0,0-1.37.33C31.2,59.65,31.17,55.89,31.67,52Z"/><path class="cls-16" d="M58.86,62.55s3.9-.47.46-7.63l-11.46,2.2s-2.18,4.52,3,7Z"/><path class="cls-17" d="M32.69,53.11c-1.21-1-1.31-5.31,3.58-2.84,2.17,1.1,14.34,6.66,15.5,7.24a2.81,2.81,0,0,1,1.63,2.32c0,3.33-3.48,4.5-7.81,1.89C42.78,60,35.2,55.18,32.69,53.11Z"/><path class="cls-18" d="M38.53,70.25c1.34-3.82,5-2.31,4.47.75-.72,4.33-8,14.94-9.5,17.06-.19.28-.31.13-.43,0-.36-.47-.69-.83-.91-.86a3.68,3.68,0,0,0-.93,0C32.81,84.06,37.22,73.95,38.53,70.25Z"/><path class="cls-19" d="M52.55,58.06c4.36-2.27,8.51-1.11,8.15,2.22a4.17,4.17,0,0,1-2.35,3c-1.12.65-13.06,6.64-15.15,7.86-4.73,2.76-5-1.62-3.76-2.61C42.49,66,50.17,59.3,52.55,58.06Z"/><ellipse class="cls-8" cx="52.71" cy="26.8" rx="1.56" ry="0.82" transform="translate(16.06 73.2) rotate(-78.64)"/><g class="cls-20"><path class="cls-21" d="M81.55,28.39C72.63,23,57.48,29.57,53,38.72,48.51,48.06,56.76,53.19,47.71,66c-7.16,10.09-2.1,22-1.77,31.13.37,10-14.27,17.55-13.44,26.54,1.92,20.69-14.83,28.3,1.91,33.72,17.19,5.56,18.14-3.55,37.49-2.38,16.81,1,22.38-33.54,22.43-46.89.06-14.13-9.58-17.16-3.28-31.8,3.77-8.76,6.56-13.72-3.09-24.06C83,46.92,98.61,38.6,81.55,28.39Z"/></g><path class="cls-22" d="M47.64,53.66h-.2l-3.54-8.3a.55.55,0,0,0-.25-1.06L31.29,45a.55.55,0,0,0-.48.77l4,9.35a.55.55,0,0,0,.54.33l12.37-.69a.55.55,0,0,0-.06-1.1Z"/><path class="cls-22" d="M55.78,54.32l-8.07.45a.55.55,0,0,1-.54-.34l-4-9.35a.55.55,0,1,1,1-.43l3.83,9,7.68-.43a.55.55,0,1,1,.06,1.1Z"/><polygon class="cls-22" points="35.54 50.27 40.82 49.97 40.59 49.61 35.31 49.9 35.54 50.27"/><polygon class="cls-22" points="37.66 50.83 41.22 50.63 40.99 50.26 37.44 50.46 37.66 50.83"/><path class="cls-23" d="M175.42,44.14l3.48,24.27a2.69,2.69,0,0,1-2.28,3l-24.27,3.48a2.56,2.56,0,0,1-.8,0h0a2.69,2.69,0,0,1-2.23-2.27l-3.48-24.27a2.69,2.69,0,0,1,2.28-3l24.27-3.48A2.69,2.69,0,0,1,175.42,44.14Z"/><path class="cls-24" d="M160.57,43.56l-.3,30.25-7.92,1.14a2.56,2.56,0,0,1-.8,0l.3-30.12Z"/><polygon class="cls-24" points="166.57 42.7 166.27 72.94 162.04 73.55 162.34 43.31 166.57 42.7"/><path class="cls-23" d="M169.13,51.23a5.34,5.34,0,0,0-7.67.91,5.34,5.34,0,0,0-7.62,1.28,5.43,5.43,0,0,0,1.34,7.35l6.75,5.05a2.09,2.09,0,0,0,2.93-.42l5.05-6.75A5.43,5.43,0,0,0,169.13,51.23Z"/><path class="cls-23" d="M64.73,141.43A6.17,6.17,0,0,1,63.19,143l-5.51,3.94a94.37,94.37,0,0,1-7.61-12.44,42.27,42.27,0,0,1-3.08-7.6c0-.14-.06-.23-.08-.3l12.57-3a40.56,40.56,0,0,0,3.45,7.57c.56,1,1.2,2.12,2,3.32A6.36,6.36,0,0,1,64.73,141.43Z"/><path class="cls-23" d="M64.28,163.33l-11,7.87c-10.39-14.55-15.94-25.72-18.79-32.67a57.13,57.13,0,0,1-2.76-8l4-.94,10.14-2.42,1.16-.28,9.84-2.35,0-.12a56.54,56.54,0,0,0,3,7.55c1.19,2.56,2.8,5.72,4.94,9.46q1.31,2.29,2.91,4.87A12.66,12.66,0,0,1,64.28,163.33Z"/><path class="cls-23" d="M120.75,135.06,82,129.1a34.26,34.26,0,0,0-13.88.7l-5.16,1.34-3.14.82-9.72,2.52-1.38.36-10.1,2.62-4.12,1.07-3,.78A18.34,18.34,0,0,1,9.09,126.17L2.9,102.36l-1.82-7A18.34,18.34,0,0,1,14.24,73l7.14-1.85,10.1-2.62,19.41-5a34.48,34.48,0,0,0,12.47-6.13l31-24.07a6.35,6.35,0,0,1,10,3.42l2,7.7L119,92.94l8.89,34.26A6.35,6.35,0,0,1,120.75,135.06Z"/><path class="cls-23" d="M102,41.84h0a3.63,3.63,0,0,1,4.43,2.6l19.47,75.05a3.63,3.63,0,0,1-2.6,4.43h0a3.63,3.63,0,0,1-4.43-2.6L99.35,46.26A3.63,3.63,0,0,1,102,41.84Z"/><path class="cls-23" d="M48.68,134.84l-10.1,2.62a306.33,306.33,0,0,1-17.2-66.29l10.1-2.62A295.62,295.62,0,0,0,48.68,134.84Z"/><path class="cls-23" d="M136.81,37l-2.35,16.61a1.84,1.84,0,0,1-2.08,1.56l-16.6-2.35a1.75,1.75,0,0,1-.53-.16h0a1.84,1.84,0,0,1-1-1.92l2.35-16.61a1.84,1.84,0,0,1,2.08-1.56l16.6,2.35A1.84,1.84,0,0,1,136.81,37Z"/><path class="cls-25" d="M127.18,33.79l-6,19.81-5.42-.77a1.75,1.75,0,0,1-.53-.16l6-19.72Z"/><polygon class="cls-25" points="131.28 34.37 125.3 54.17 122.4 53.76 128.38 33.96 131.28 34.37"/><path class="cls-23" d="M125.81,37.84a1.23,1.23,0,0,0-1.7.28,19.68,19.68,0,0,1-2.57,3.4l-1.13-.16a.17.17,0,0,0-.2.15l-.85,6a.17.17,0,0,0,.15.2l.85.12a3,3,0,0,0,2.4,1.92l.5.07,3.27.46.73.1a1.22,1.22,0,0,0,1.13-2l.53.07a1.22,1.22,0,0,0,1.06-2,1.22,1.22,0,0,0-.07-2.4h0a1.21,1.21,0,0,0-.54-2.19l-4.6-.65C125.56,40.09,126.77,38.5,125.81,37.84Z"/><path class="cls-23" d="M56.54.54,16.49,8.69a1.78,1.78,0,0,0-1.39,2.1l2.38,11.72a1.78,1.78,0,0,0,2.1,1.39l3.95-.8,1.92-.39c.43.37,1.53,1.31,2,1.64a.88.88,0,0,0,1.27-.26c.28-.48.93-1.78,1.18-2.29l9.74-2,20-4.07A1.78,1.78,0,0,0,61,13.65L58.65,1.93A1.78,1.78,0,0,0,56.54.54Z"/><path class="cls-23" d="M25.6,15.13A2,2,0,0,0,26,13.56l-.19-1A2,2,0,0,0,23.48,11a2,2,0,0,0-1.6,2.34l.21,1a2,2,0,0,0,.93,1.3A4.16,4.16,0,0,0,20.95,19a.85.85,0,0,0,1,.86l6.26-1.27a.85.85,0,0,0,.61-1.19A4.16,4.16,0,0,0,25.6,15.13Z"/><path class="cls-23" d="M41.23,7.36,33.25,9a1.21,1.21,0,0,0-.94,1.42l.8,3.92a1.21,1.21,0,0,0,1.42.94l.78-.16s1.3,1.13,1.76,1.47a.72.72,0,0,0,1-.21c.29-.5,1-2,1-2l3.35-.68a1.21,1.21,0,0,0,.94-1.42l-.8-3.92A1.21,1.21,0,0,0,41.23,7.36Z"/><path class="cls-23" d="M40.87,9.43l-6.47,1.32a.36.36,0,1,1-.14-.7l6.47-1.32a.36.36,0,1,1,.14.7Z"/><path class="cls-23" d="M41.21,11.13l-6.47,1.32a.36.36,0,0,1-.14-.7l6.47-1.32a.36.36,0,0,1,.14.7Z"/><path class="cls-23" d="M38,13.55l-2.92.59a.36.36,0,1,1-.14-.7l2.92-.59a.36.36,0,1,1,.14.7Z"/><path class="cls-23" d="M57,11.07a3.65,3.65,0,0,0-1.14-2l-.17-.84a3,3,0,0,0-3-2.36l-.05-.25a.52.52,0,1,0-1,.21l.05.25a3,3,0,0,0-1.81,3.33l.17.84h0a3.67,3.67,0,0,0-.27,2.28l.07.37a.34.34,0,0,0,.41.27l1.43-.29a.29.29,0,0,0,.17.27,3,3,0,0,0,3.43-.7.29.29,0,0,0,.05-.32l1.43-.29a.34.34,0,0,0,.27-.41Z"/><circle class="cls-23" cx="49.38" cy="12.93" r="1.56" transform="translate(-1.59 10.11) rotate(-11.51)"/><path class="cls-23" d="M200.75,41.67l-14.31-5.26a2.26,2.26,0,0,0-2.9,1.34l-3.42,9.32a2.26,2.26,0,0,0,1.34,2.9l1.4.51s1,3.08,1.37,4.08a1.35,1.35,0,0,0,1.86.68c.95-.5,3.68-2.22,3.68-2.22l6,2.21a2.26,2.26,0,0,0,2.9-1.34l3.42-9.32A2.26,2.26,0,0,0,200.75,41.67Z"/><path class="cls-23" d="M197.77,45.58l-11.6-4.26a.73.73,0,1,1,.5-1.37l11.6,4.26a.73.73,0,1,1-.5,1.37Z"/><path class="cls-23" d="M196.57,48.85,185,44.59a.73.73,0,0,1,.5-1.37l11.6,4.26a.73.73,0,0,1-.5,1.37Z"/><path class="cls-23" d="M189,49.78l-5.23-1.92a.73.73,0,0,1,.5-1.37l5.23,1.92a.73.73,0,0,1-.5,1.37Z"/><path class="cls-23" d="M158.22,19.59l5.71,7.65L148.31,25l7.62-5.75A1.63,1.63,0,0,1,158.22,19.59Z"/><path class="cls-23" d="M163.92,27.25l-1,7.34a.74.74,0,0,1-.84.63l-14.14-2a.74.74,0,0,1-.63-.84l1-7.34a.74.74,0,0,1,.84-.63l14.14,2a.74.74,0,0,1,.63.84Z"/><path class="cls-23" d="M163.76,26.67l-1.77,1-4.88,2.86a2.59,2.59,0,0,1-3.19-.46L150,26l-1.41-1.49a.75.75,0,0,1,.52-.12l14.14,2A.75.75,0,0,1,163.76,26.67Z"/><path class="cls-23" d="M162.68,22.86,162,27.71l-4.88,2.86a2.59,2.59,0,0,1-3.19-.46L150,26l.69-4.85A1.38,1.38,0,0,1,152.29,20l9.22,1.32A1.38,1.38,0,0,1,162.68,22.86Z"/><path class="cls-23" d="M160.23,24l-7.47-1.07a.45.45,0,0,1,.13-.88l7.47,1.07a.45.45,0,0,1-.13.88Z"/><path class="cls-23" d="M159.93,26.12l-7.47-1.07a.45.45,0,0,1,.13-.88l7.47,1.07a.45.45,0,0,1-.13.88Z"/><path class="cls-23" d="M155.53,27.64l-3.37-.48a.45.45,0,1,1,.13-.88l3.37.48a.45.45,0,0,1-.13.88Z"/><path class="cls-23" d="M15.94,148l8.28,1.83-11.78,7.57,1.78-8.29A1.44,1.44,0,0,1,15.94,148Z"/><path class="cls-23" d="M24.23,149.81l3.56,5.54a.66.66,0,0,1-.2.91l-10.67,6.85a.66.66,0,0,1-.91-.2l-3.56-5.54a.66.66,0,0,1,.2-.91l10.67-6.85a.66.66,0,0,1,.91.2Z"/><path class="cls-23" d="M23.78,149.52l-.58,1.73L21.58,156a2.3,2.3,0,0,1-2.41,1.55l-5-.51-1.81-.19a.67.67,0,0,1,.28-.38l10.67-6.85A.67.67,0,0,1,23.78,149.52Z"/><path class="cls-23" d="M20.84,147.58l2.35,3.66L21.58,156a2.3,2.3,0,0,1-2.41,1.55l-5-.51-2.35-3.66a1.23,1.23,0,0,1,.37-1.69l7-4.47A1.23,1.23,0,0,1,20.84,147.58Z"/><path class="cls-23" d="M19.87,149.78l-5.64,3.62a.4.4,0,0,1-.43-.67l5.64-3.62a.4.4,0,1,1,.43.67Z"/><path class="cls-23" d="M20.89,151.37,15.25,155a.4.4,0,1,1-.43-.67l5.64-3.62a.4.4,0,1,1,.43.67Z"/><path class="cls-23" d="M18.81,155l-2.54,1.63a.4.4,0,0,1-.43-.67l2.54-1.63a.4.4,0,1,1,.43.67Z"/><path class="cls-23" d="M97.58,146.83,94.36,149l1-4.79a1.79,1.79,0,0,0-1.39-2.11l-13.17-2.69a1.79,1.79,0,0,0-2.11,1.39L76,153.93A1.79,1.79,0,0,0,77.36,156l13.17,2.69a1.79,1.79,0,0,0,2.11-1.39l1-4.79,2.12,3.22a1.07,1.07,0,0,0,1.94-.37l1.53-7.46A1.07,1.07,0,0,0,97.58,146.83Z"/><polygon class="cls-23" points="85.03 144.87 83.44 152.65 88.12 149.56 85.03 144.87"/><rect class="cls-22" x="140.1" y="72.54" width="2.99" height="1.64" transform="translate(-2.89 140.84) rotate(-52.42)"/><path class="cls-22" d="M134.73,82.28h0A1.45,1.45,0,0,0,136.8,82L142,74.61l-1.69-1.3L134.5,80.2A1.45,1.45,0,0,0,134.73,82.28Z"/><path class="cls-26" d="M139.72,67.32a7.31,7.31,0,0,0,12.53,4.11,7.16,7.16,0,0,0,1-1.36,7.48,7.48,0,0,0,.46-.94,7.27,7.27,0,0,0,.53-3.13c0-.19,0-.38-.05-.57a7.32,7.32,0,0,0-8.2-6.31l-.57.1a7.24,7.24,0,0,0-2.88,1.31,7.36,7.36,0,0,0-.79.69,7.11,7.11,0,0,0-1,1.34A7.29,7.29,0,0,0,139.72,67.32Z"/><path class="cls-27" d="M142.57,60.53l11.17,8.6a7.27,7.27,0,0,0,.53-3.13l-8.82-6.78A7.24,7.24,0,0,0,142.57,60.53Z"/><path class="cls-27" d="M140.73,62.56l11.52,8.87a7.16,7.16,0,0,0,1-1.36l-11.5-8.85A7.11,7.11,0,0,0,140.73,62.56Z"/><path class="cls-22" d="M148.06,74.73a8.43,8.43,0,0,1-7.77-13.5h0a8.43,8.43,0,1,1,7.77,13.5Zm-1.89-14.5a6.15,6.15,0,0,0-4.11,2.36h0a6.19,6.19,0,1,0,4.11-2.36Z"/><path class="cls-8" d="M140.65,80.22c-.3-.75-2-5.84-3-4.86-1.9,1.9-1.36,3-1.07,3.79a3.27,3.27,0,0,0,3,2.29C140.2,81.37,140.93,80.93,140.65,80.22Z"/><path class="cls-8" d="M140.77,79.77c0-.37.15-2.88-.27-2.94-.63-.09-1,1.46-1.13,2.41-.06.52.45,1.45.87,1.45S140.72,80.36,140.77,79.77Z"/><path class="cls-28" d="M175.64,112.84c-.44-4.19-.73-5.19-1.92-7.65v0a.53.53,0,0,0,0-.1c-.52-.82-2-2.47-6.38-5.43a34,34,0,0,0-4.88-2.83A2.16,2.16,0,0,0,159.23,98c-.12,1.51.73,3.63,1.55,4.09,4.6,2.6,8.3,4.32,9.31,5.15a1.4,1.4,0,0,0,.56.28,2.94,2.94,0,0,0,0,.45c.37,2,3.24,8.57,3.45,9.79.14.81,1.11,1,1.53.11C176.19,116.77,175.94,115.74,175.64,112.84Z"/><path class="cls-29" d="M134.44,160.67a5.16,5.16,0,0,1-1.28,2.34c-.83.94-2.94,2.18-1.53,2a8.39,8.39,0,0,0,3.4-1.54,16.78,16.78,0,0,1,2.22-1.2c1.12-.54,1.1-.61.37-1.76C136.63,158.92,134.51,159.48,134.44,160.67Z"/><path class="cls-30" d="M162.25,177.81a5.16,5.16,0,0,1,.21,2.66c-.18,1.24-1.27,3.43-.18,2.51a8.41,8.41,0,0,0,2-3.15,16.75,16.75,0,0,1,1.2-2.22c.65-1.06.59-1.11-.65-1.68C163.12,175.15,161.65,176.78,162.25,177.81Z"/><path class="cls-8" d="M161.79,90.17c-.37,2.5-.47,3-1.62,4a5.91,5.91,0,0,1-4.06,1c-1.29-.06-2.06-1.66-2.29-2.73a15.48,15.48,0,0,1,0-5.93,4.06,4.06,0,0,1,3.83-2.9C159.46,83.71,162.71,84.07,161.79,90.17Z"/><path class="cls-8" d="M160.3,94.53c0,.87,0,1.88,0,2.79a2.4,2.4,0,0,1-2.21,2.33H158c-1.08-.05-2.31-1.1-2.16-2.18.1-.7.16-1.41.19-2a2.83,2.83,0,0,1,2-2.55h0A1.78,1.78,0,0,1,160.3,94.53Z"/><path class="cls-31" d="M164.79,105.51a52.13,52.13,0,0,0-3.17,18l-15.17-.75s.79-14.2,2.19-21.94a5.83,5.83,0,0,1,3.42-4.3,10.9,10.9,0,0,1,4.09-.7l2.8.14a10.64,10.64,0,0,1,2.94.51C166,98,166.15,101.73,164.79,105.51Z"/><path class="cls-32" d="M161.1,132.83s1.47-3.12.52-9.28l-15.17-.75a86.36,86.36,0,0,0-1,9.25Z"/><path class="cls-33" d="M153.59,154.72c-2.08-4.65,2.73-6.41,4.94-3.17,3.12,4.57,5.84,20.52,6.29,23.72.06.42.22.92,0,1.1a3.26,3.26,0,0,1-1.53.54c-.56.08-1.11.18-1.29-.49C160.83,171.85,155.61,159.22,153.59,154.72Z"/><path class="cls-34" d="M152.9,132.78c.9-6.1,4.37-10.18,7.61-7.32a5.19,5.19,0,0,1,1.38,4.61c-.16,1.61-2.88,18.15-3.17,21.18-.67,6.84-5.47,3.81-5.61,1.84C152.78,148.11,152.41,136.1,152.9,132.78Z"/><path class="cls-35" d="M137.59,160.45c0-7.24,2.56-19.59.62-25.45-1.23-3.72-5.72-3.7-5.39.91.35,4.92,2.09,14.42,1.85,24C134.64,160.81,137.58,161.3,137.59,160.45Z"/><path class="cls-36" d="M136.23,138.48c-1.94.37-6.57-4.24-.28-7,2.79-1.23,12.38-6,13.86-6.69s3.7-1.53,4.34-1c3.22,2.87.83,8.62-5,10.56C145.22,135.67,140.26,137.72,136.23,138.48Z"/><ellipse class="cls-8" cx="153.55" cy="89.58" rx="0.89" ry="1.7" transform="translate(-21.04 56.08) rotate(-19.4)"/><ellipse class="cls-8" cx="161.73" cy="89.98" rx="1.7" ry="0.89" transform="translate(11.78 198.47) rotate(-64.97)"/><path class="cls-37" d="M161.27,85.19c-1,1.41-5.78,1.32-7.3.7s-1.26-3.59,1-3.69c1.24.06.33.31,1.31.77C156.74,83.21,162.39,83.68,161.27,85.19Z"/><path class="cls-38" d="M153.28,96.46c-3.94-3.52-7.19-6-8-7l-.1-.1a2.48,2.48,0,0,0-.08-.36c-.6-1.93-4.45-8-5.16-9a1,1,0,0,0-1.68.48c-.32,1.19.17,1.31,1,4.35a33.21,33.21,0,0,0,2.09,6s0,0,0,0a7.93,7.93,0,0,0,.77,1.48h0a35.24,35.24,0,0,0,4.31,5.19,34.14,34.14,0,0,0,4.16,3.8,2.16,2.16,0,0,0,3.36-.53C154.36,99.34,154,97.09,153.28,96.46Z"/><path class="cls-8" d="M176.4,119.06c0-.81-.48-2.84-1.28-2.56a2.07,2.07,0,0,0-1.69,2.15c0,1.6.89,1.58,1.82,1.83C175.91,120.67,176.41,119.83,176.4,119.06Z"/><path class="cls-39" d="M156,84.68c-1.5.81-1.87,1.56-1.92,3.36s.57,4.91,3.85,5.76,4.22-2.4,4.53-4.66.27-4-1.39-4.45C158.58,84,156.87,84.19,156,84.68Z"/></g></g></g></svg>