<svg xmlns="http://www.w3.org/2000/svg" xmlns:xlink="http://www.w3.org/1999/xlink" viewBox="0 0 601.84 547.72"><defs><style>.cls-1{fill:none;}.cls-2{isolation:isolate;}.cls-3{fill:#fff3f4;}.cls-4{fill:#ffe9eb;}.cls-5{fill:url(#Gradient_bez_nazwy_12);}.cls-6{clip-path:url(#clip-path);}.cls-18,.cls-48,.cls-7{opacity:0.3;}.cls-13,.cls-7{mix-blend-mode:color-dodge;}.cls-8{fill:#72d7e4;}.cls-9{fill:url(#Безымянный_градиент_7);}.cls-10{clip-path:url(#clip-path-2);}.cls-11{fill:#14365b;}.cls-12{fill:url(#Gradient_bez_nazwy_13);}.cls-13,.cls-15,.cls-18{fill:#9fc6ff;}.cls-13,.cls-16{opacity:0.4;}.cls-14{fill:url(#Gradient_bez_nazwy_8);}.cls-16,.cls-17{fill:#0053cc;}.cls-16,.cls-48{mix-blend-mode:multiply;}.cls-19{fill:#fff;}.cls-20{fill:#d8d8d8;}.cls-21{fill:url(#Gradient_bez_nazwy_4);}.cls-22{fill:url(#Gradient_bez_nazwy_2);}.cls-23{fill:url(#Gradient_bez_nazwy_2-2);}.cls-24{fill:#ea8f68;}.cls-25{fill:url(#Gradient_bez_nazwy_2-3);}.cls-26{fill:url(#Gradient_bez_nazwy_10);}.cls-27{fill:url(#Gradient_bez_nazwy_5);}.cls-28{fill:url(#Gradient_bez_nazwy_5-2);}.cls-29{fill:url(#Gradient_bez_nazwy_5-3);}.cls-30{fill:url(#Gradient_bez_nazwy_5-4);}.cls-31{fill:#ffaf84;}.cls-32{fill:url(#Gradient_bez_nazwy_4-2);}.cls-33{fill:url(#Gradient_bez_nazwy_4-3);}.cls-34{fill:url(#Gradient_bez_nazwy_4-4);}.cls-35{fill:url(#Gradient_bez_nazwy_4-5);}.cls-36{fill:url(#Gradient_bez_nazwy_2-4);}.cls-37{fill:url(#Gradient_bez_nazwy_2-5);}.cls-38{fill:url(#Gradient_bez_nazwy_5-5);}.cls-39{fill:url(#Gradient_bez_nazwy_5-6);}.cls-40{fill:#4e11f4;}.cls-41{fill:url(#Gradient_bez_nazwy_5-7);}.cls-42{fill:url(#Gradient_bez_nazwy_5-8);}.cls-43{fill:url(#Gradient_bez_nazwy_5-9);}.cls-44{fill:#f70f47;}.cls-45{fill:url(#Gradient_bez_nazwy_3);}.cls-46{fill:url(#Gradient_bez_nazwy_3-2);}.cls-47{clip-path:url(#clip-path-3);}.cls-48{fill:url(#Gradient_bez_nazwy_3-3);}</style><linearGradient id="Gradient_bez_nazwy_12" x1="-611.44" y1="-1582.76" x2="-505" y2="-1482.74" gradientTransform="matrix(0.83, 0.56, -0.56, 0.83, -73.92, 1664.04)" gradientUnits="userSpaceOnUse"><stop offset="0" stop-color="#f13b79"/><stop offset="1" stop-color="#221783"/></linearGradient><clipPath id="clip-path"><path class="cls-1" d="M316,200.66c-25.72-47.21,2-159.64,43.09-122,38.1,34.85-56.45,90.78-7.3,133.47Z"/></clipPath><linearGradient id="Безымянный_градиент_7" x1="-509.54" y1="-1378.24" x2="-385.08" y2="-1109.37" gradientTransform="translate(-5.04 1496.18) rotate(36.43)" gradientUnits="userSpaceOnUse"><stop offset="0" stop-color="#dd001e"/><stop offset="0.42" stop-color="#ab0639"/><stop offset="1" stop-color="#221783"/></linearGradient><clipPath id="clip-path-2"><path class="cls-1" d="M313.88,262.57C297.84,170.42,406.17.6,453,85.52c43.34,78.68-143.66,118.1-86.48,215.87Z"/></clipPath><linearGradient id="Gradient_bez_nazwy_13" x1="222.4" y1="293.03" x2="438.65" y2="293.03" gradientUnits="userSpaceOnUse"><stop offset="0.35" stop-color="#36078b"/><stop offset="1" stop-color="#16b1ff"/></linearGradient><linearGradient id="Gradient_bez_nazwy_8" x1="256.97" y1="293.03" x2="404.09" y2="293.03" gradientTransform="translate(37.49 623.56) rotate(-90)" gradientUnits="userSpaceOnUse"><stop offset="0" stop-color="#2c27ce"/><stop offset="1" stop-color="#ef1d68"/></linearGradient><linearGradient id="Gradient_bez_nazwy_4" x1="249.71" y1="179.56" x2="156.72" y2="112.51" gradientUnits="userSpaceOnUse"><stop offset="0" stop-color="#2c27ce"/><stop offset="0.65" stop-color="#ef1d68"/><stop offset="1" stop-color="#efba92"/></linearGradient><linearGradient id="Gradient_bez_nazwy_2" x1="-939.8" y1="3229.57" x2="-968.53" y2="3301.19" gradientTransform="matrix(0.61, -0.79, 0.79, 0.61, -1771.82, -2576.88)" gradientUnits="userSpaceOnUse"><stop offset="0" stop-color="#f70f47"/><stop offset="1" stop-color="#9e005d"/></linearGradient><linearGradient id="Gradient_bez_nazwy_2-2" x1="-85.64" y1="2116.93" x2="-117.81" y2="2197.13" gradientTransform="matrix(0.85, -0.52, 0.52, 0.85, -789.58, -1751.39)" xlink:href="#Gradient_bez_nazwy_2"/><linearGradient id="Gradient_bez_nazwy_2-3" x1="198.12" y1="171.6" x2="208.74" y2="262.81" gradientTransform="matrix(1, 0, 0, 1, 0, 0)" xlink:href="#Gradient_bez_nazwy_2"/><linearGradient id="Gradient_bez_nazwy_10" x1="217" y1="234.98" x2="174.93" y2="357.44" gradientUnits="userSpaceOnUse"><stop offset="0" stop-color="#36078b"/><stop offset="1" stop-color="#168d68"/></linearGradient><linearGradient id="Gradient_bez_nazwy_5" x1="140.37" y1="-336.18" x2="97.37" y2="-211.01" gradientTransform="matrix(0.99, 0.15, -0.15, 0.99, 53.14, 555.87)" gradientUnits="userSpaceOnUse"><stop offset="0" stop-color="#36078b"/><stop offset="1" stop-color="#16b1ff"/></linearGradient><linearGradient id="Gradient_bez_nazwy_5-2" x1="210.23" y1="232.66" x2="168.16" y2="355.11" gradientTransform="matrix(1, 0, 0, 1, 0, 0)" xlink:href="#Gradient_bez_nazwy_5"/><linearGradient id="Gradient_bez_nazwy_5-3" x1="270.16" y1="253.24" x2="228.09" y2="375.7" gradientTransform="matrix(1, 0, 0, 1, 0, 0)" xlink:href="#Gradient_bez_nazwy_5"/><linearGradient id="Gradient_bez_nazwy_5-4" x1="242.33" y1="243.69" x2="200.26" y2="366.14" gradientTransform="matrix(1, 0, 0, 1, 0, 0)" xlink:href="#Gradient_bez_nazwy_5"/><linearGradient id="Gradient_bez_nazwy_4-2" x1="230.04" y1="483.28" x2="234.79" y2="424.68" xlink:href="#Gradient_bez_nazwy_4"/><linearGradient id="Gradient_bez_nazwy_4-3" x1="162.81" y1="494.16" x2="168.81" y2="420.3" xlink:href="#Gradient_bez_nazwy_4"/><linearGradient id="Gradient_bez_nazwy_4-4" x1="238.53" y1="166.77" x2="185.78" y2="106.57" xlink:href="#Gradient_bez_nazwy_4"/><linearGradient id="Gradient_bez_nazwy_4-5" x1="249.39" y1="157.26" x2="196.64" y2="97.06" xlink:href="#Gradient_bez_nazwy_4"/><linearGradient id="Gradient_bez_nazwy_2-4" x1="1224.35" y1="-762.25" x2="1189.79" y2="-676.1" gradientTransform="matrix(0.71, 0.18, -0.26, 0.97, -888.11, 661.88)" xlink:href="#Gradient_bez_nazwy_2"/><linearGradient id="Gradient_bez_nazwy_2-5" x1="-698.29" y1="-1936.06" x2="-723.46" y2="-1873.31" gradientTransform="matrix(0.81, 0.58, -0.58, 0.81, -346.03, 2160.6)" xlink:href="#Gradient_bez_nazwy_2"/><linearGradient id="Gradient_bez_nazwy_5-5" x1="485.39" y1="201.32" x2="524.14" y2="242.09" gradientTransform="matrix(1, 0, 0, 1, 0, 0)" xlink:href="#Gradient_bez_nazwy_5"/><linearGradient id="Gradient_bez_nazwy_5-6" x1="508.91" y1="178.97" x2="547.66" y2="219.74" gradientTransform="matrix(1, 0, 0, 1, 0, 0)" xlink:href="#Gradient_bez_nazwy_5"/><linearGradient id="Gradient_bez_nazwy_5-7" x1="-1467.86" y1="-2842.3" x2="-1467.86" y2="-2752.66" gradientTransform="matrix(0.58, 0.81, -0.81, 0.58, -956.77, 2992.38)" xlink:href="#Gradient_bez_nazwy_5"/><linearGradient id="Gradient_bez_nazwy_5-8" x1="459.92" y1="123.53" x2="459.92" y2="213.17" gradientTransform="matrix(1, 0, 0, 1, 0, 0)" xlink:href="#Gradient_bez_nazwy_5"/><linearGradient id="Gradient_bez_nazwy_5-9" x1="481.65" y1="123.53" x2="481.65" y2="213.17" gradientTransform="matrix(1, 0, 0, 1, 0, 0)" xlink:href="#Gradient_bez_nazwy_5"/><linearGradient id="Gradient_bez_nazwy_3" x1="457.26" y1="84.46" x2="532.74" y2="142.58" gradientUnits="userSpaceOnUse"><stop offset="0" stop-color="blue"/><stop offset="1" stop-color="#9e005d"/></linearGradient><linearGradient id="Gradient_bez_nazwy_3-2" x1="452.87" y1="90.16" x2="528.35" y2="148.29" xlink:href="#Gradient_bez_nazwy_3"/><clipPath id="clip-path-3"><path class="cls-1" d="M519.91,430.73c-1.27-4.08-1.55-6-1.5-7.34a11.14,11.14,0,0,0,.27-3.41c.42-11.4,1.06-68.5-6.9-86.36l0,0c0-.4-.08-.79-.13-1.2-1.43-10.42-5.44-67-6.33-74.85a86,86,0,0,0-1.88-19,143.22,143.22,0,0,1,.35-24.74,58.53,58.53,0,0,0,12-6.27,3.23,3.23,0,0,0,1.49-2.11s0-.06.05-.1c1-3.28,2.15-10.93,0-29.59a120.21,120.21,0,0,0-3.54-19.58A8.66,8.66,0,0,0,511,151.6c-2.14-3.76-5.77-6.73-11.34-8.44a29.62,29.62,0,0,0-5.57-1.05c-.11-2-.24-3.9-.38-5.7a6.41,6.41,0,0,0-.27-1.38,11.22,11.22,0,0,0,3.69-6.09,21.07,21.07,0,0,0,1.86-4.61,10,10,0,0,0,1.9-3c1.2-2.94,1-5.82-.46-6.63.35-6.17-.4-10.8-4.49-12.59.18-4.4-16.89-5-18.55-5.72-3.56-1.44-.38-2.5-4.77-2.49-7.8.72-8.17,11.26-2.72,13.16l.33.09a8.65,8.65,0,0,0-.6,2.15c-.27,2.05-.41,4-.49,5.8a2.51,2.51,0,0,0-2.35-.52c-1.61.66-1.89,3.68-.64,6.75a7.94,7.94,0,0,0,3.44,4.21,39.17,39.17,0,0,0,.93,4.68c1,3.68,3.91,9,8.29,9.19a9.57,9.57,0,0,0-.08,1c0,.48,0,1,0,1.52a42.59,42.59,0,0,0-11.64,2.25c-4.47,1.32-9,4.27-9.93,6.68-.39,1-.77,2-1.14,2.91a19.94,19.94,0,0,0-1.88,4.9c-5.14,13.58-8.48,23.91-10.52,27.21a4.92,4.92,0,0,0-.64,1.77c-5.43,4.78-17.09,22.76-21.55,27.7l-.25.09a9.58,9.58,0,0,0-2-.09c-1.32.05-9.1.4-9.14,1.87s2.07,2,4.48,2.15c-6.24,4-14.31,10-11.66,12,4.31,3.24,13,.36,15.76-1a12.26,12.26,0,0,0,6.93-9.38c3.11-.57,6.27-2.09,12.5-6.95,5.33-4.16,9.38-7.58,12.65-10.61-.74,19-.84,35.14-.84,35.14a304.79,304.79,0,0,0-2,32.81h0c-.86,19.89-2.2,53.19-2.81,61a38.26,38.26,0,0,0-.08,5.18,21.66,21.66,0,0,0-.06,2.91c.75,17.23,5.88,50.45,4.25,83.74a3.51,3.51,0,0,0-.7.89c-.61,1.15-3.54,3.8-7.6,5.55s-12.66,2.57-7.88,4.1,10.35.61,13.17.17a59.63,59.63,0,0,1,8.89-.52c4.39,0,4.42-.29,3.83-5.06,0-.14-.05-.26-.08-.4v0c.66-25.08,11.1-68.62,5.56-89.93,4.19-15.22,10.07-47.82,12.62-62.28,1.94,12.88,9.91,42.88,15.07,60.46a21.12,21.12,0,0,0,.59,4.43c4.16,16.91,14.33,64.06,15.69,80.69h0c-.42,1.87-.25,2.71-.48,4.12-.32,2-2.19,2.67-3.27,4.27-1.19,1.77-3.06,4.34,4.24,4.48C516.6,435.24,521.24,435,519.91,430.73Z"/></clipPath><linearGradient id="Gradient_bez_nazwy_3-3" x1="-6334.61" y1="6195.99" x2="-6022.76" y2="6387.59" gradientTransform="matrix(-0.4, -0.87, 0.54, -0.47, -5324.08, -2135.13)" xlink:href="#Gradient_bez_nazwy_3"/></defs><title>defence</title><g class="cls-2"><g id="Слой_2" data-name="Слой 2"><g id="Режим_изоляции" data-name="Режим изоляции"><path class="cls-3" d="M39.77,96.65C45.48,84.79,67.5,39.1,119.3,15.73c11-5,62.82-28.33,106.31-6.7,57.54,28.62,39,105.44,92.56,144,46,33.19,96.35-27.7,151.68,2.67,28.89,15.86,51.86,50,52.5,80.53,2,95.21-211.52,254.48-368,176.57C40.42,356.13-6.25,192.17,39.77,96.65Z"/><path class="cls-4" d="M1.81,276.26c2-13,9.68-63.14,52.38-100.64,9.08-8,51.79-45.47,99.7-37.51,63.4,10.53,68.18,89.4,130.65,110.65,53.72,18.28,84-54.68,145.83-41.82,32.26,6.71,64.23,32.66,73.77,61.65C533.9,359.06,376.32,573.83,203.88,545.1,78.35,524.2-14.25,381.07,1.81,276.26Z"/><path class="cls-5" d="M316,200.66c-25.72-47.21,2-159.64,43.09-122,38.1,34.85-56.45,90.78-7.3,133.47Z"/><g class="cls-6"><g class="cls-7"><path class="cls-8" d="M346.36,237.93c-.28-.55-28.06-55.18-18.67-102.92,9.44-48,28.38-59.5,70-68.39l.46,2.17c-42.55,9.08-59.27,20.52-68.34,66.65-9.24,47,18.19,100.94,18.47,101.48Z"/><path class="cls-8" d="M337.1,106.15c-16.22-16.86-13.9-30.27-13.79-30.83l2.18.41c0,.13-2.15,12.92,13.21,28.89Z"/><path class="cls-8" d="M328.09,138.53l.55-2.15c13.1,3.33,30-4.88,30.13-5l1,2C359,133.76,342,142.06,328.09,138.53Z"/><path class="cls-8" d="M326.35,163c-32.91-22.35-27.64-41.55-27.4-42.36l2.12.63c-.05.18-4.92,18.55,26.52,39.9Z"/></g></g><path class="cls-9" d="M313.88,262.57C297.84,170.42,406.17.6,453,85.52c43.34,78.68-143.66,118.1-86.48,215.87Z"/><g class="cls-10"><g class="cls-7"><path class="cls-8" d="M343.08,340.92c-.16-1.06-15.45-106.59,26.65-180,42.35-73.87,80-82.21,153.58-73.62l-.45,3.83c-75.18-8.77-109.11.75-149.79,71.71-41.44,72.28-26.34,176.49-26.18,177.53Z"/><path class="cls-8" d="M401.33,118.59c-17.32-36.84-6-57.64-5.53-58.5L399.16,62c-.11.2-10.74,20.09,5.66,55Z"/><path class="cls-8" d="M368.43,166.92l2.1-3.23c19.73,12.8,52.1,8.67,52.43,8.63l.51,3.82C422.08,176.32,389.34,180.49,368.43,166.92Z"/><path class="cls-8" d="M351.93,206.24c-41.77-55.18-22.37-83.89-21.52-85.09l3.15,2.22c-.19.27-18.46,27.82,21.44,80.54Z"/></g></g><rect class="cls-11" x="210" y="156.17" width="216.25" height="273.73" rx="12" ry="12"/><rect class="cls-12" x="222.4" y="156.17" width="216.25" height="273.73" rx="12" ry="12"/><path class="cls-13" d="M401,398.32H260.07a6.1,6.1,0,0,1-6.09-6.09V193.83a6.1,6.1,0,0,1,6.09-6.09H401a6.1,6.1,0,0,1,6.09,6.09v198.4A6.1,6.1,0,0,1,401,398.32ZM260.07,188.41a5.44,5.44,0,0,0-5.43,5.43v198.4a5.43,5.43,0,0,0,5.43,5.43H401a5.44,5.44,0,0,0,5.43-5.43V193.83a5.44,5.44,0,0,0-5.43-5.43Z"/><rect class="cls-14" x="228.23" y="219.47" width="204.6" height="147.12" rx="2.33" ry="2.33" transform="translate(623.56 -37.49) rotate(90)"/><rect class="cls-11" x="241.24" y="429.9" width="19.94" height="4.87" rx="0.59" ry="0.59"/><rect class="cls-11" x="399.87" y="429.9" width="19.94" height="4.87" rx="0.59" ry="0.59"/><rect class="cls-15" x="249.88" y="216.78" width="8.86" height="30.92" rx="1.07" ry="1.07"/><rect class="cls-15" x="249.88" y="338.36" width="8.86" height="30.92" rx="1.07" ry="1.07"/><circle class="cls-16" cx="330.53" cy="296.91" r="45.33"/><circle class="cls-15" cx="330.53" cy="293.03" r="45.33"/><circle class="cls-15" cx="330.53" cy="218.51" r="11.08"/><path class="cls-17" d="M330.53,227.26a8.75,8.75,0,1,1,8.75-8.75A8.76,8.76,0,0,1,330.53,227.26Zm0-16.84a8.09,8.09,0,1,0,8.09,8.09A8.1,8.1,0,0,0,330.53,210.43Z"/><path class="cls-17" d="M330.53,327.45A34.42,34.42,0,1,1,364.94,293,34.46,34.46,0,0,1,330.53,327.45Zm0-66.18A31.76,31.76,0,1,0,362.29,293,31.79,31.79,0,0,0,330.53,261.27Z"/><circle class="cls-17" cx="330.53" cy="293.03" r="14.4"/><rect class="cls-17" x="297.47" y="291.7" width="66.12" height="2.66" transform="translate(-110.4 319.55) rotate(-45)"/><rect class="cls-17" x="329.2" y="259.97" width="2.66" height="66.12" transform="translate(-110.4 319.55) rotate(-45)"/><path class="cls-17" d="M291.7,74.38c1.8,22.58,27.89,52,36.26,60.84a3.51,3.51,0,0,0,5.13,0c8.37-8.89,34.46-38.26,36.26-60.84a3.58,3.58,0,0,0-1.85-3.46l-35.3-19.05a3.53,3.53,0,0,0-3.36,0l-35.3,19.05A3.58,3.58,0,0,0,291.7,74.38Z"/><path class="cls-18" d="M327.9,126.65c-10.69-12-26-32.08-29.73-48.09a3.55,3.55,0,0,1,1.69-3.88l28.9-16.61a3.53,3.53,0,0,1,3.52,0l28.9,16.62a3.55,3.55,0,0,1,1.69,3.87c-3.67,16-19,36.07-29.72,48.09A3.52,3.52,0,0,1,327.9,126.65Z"/><path class="cls-19" d="M326.59,102.38a2,2,0,0,1-1.41-.58L315.33,92a2,2,0,1,1,2.82-2.82l8.44,8.44,19.88-19.88a2,2,0,0,1,2.82,2.82L328,101.8A2,2,0,0,1,326.59,102.38Z"/><ellipse class="cls-20" cx="207.02" cy="441.96" rx="58.63" ry="4.46"/><path class="cls-21" d="M192.08,105.1c3.34-4.7-.48-13-10-13.79-10.83-.89-30,5.36-19.73,30.58,10.73,26.25,7.38,33,.15,36.91,0,0,24.79,2,22.9-19.67S184.34,116,192.08,105.1Z"/><path class="cls-22" d="M241.8,187.13c-3.72-.63-11.77-3-28.87-12.08a139.44,139.44,0,0,1-17.27-10.5c-5.15-3.6-3.4-8.69-.13-9.79,5.27-1.78,12.56-.54,15.41,1.23,16.07,10,27.92,17.92,32.36,19.84C249.76,178.64,246.21,187.87,241.8,187.13Z"/><path class="cls-23" d="M269.63,154.14c.24,2.78-3.07,3.28-7.65,10.92-6.59,11-9,13.62-15.78,20.36-4.45,4.4-12.54-.2-8.24-6.47,3.63-5.3,24.39-24.39,26.59-27.61C266,149.2,269.44,151.88,269.63,154.14Z"/><path class="cls-24" d="M188.39,136.59c-.06.54-.91,12-1.06,20.82-.07,4.32,3,8.41,6.15,8.52h.14c3,0,6.64-3.83,6.37-8.07-.49-7.67-.12-15.51-.11-15.64Z"/><path class="cls-25" d="M179.48,186.18c2.68,7.8,4.15,16,5.5,24.1a61.08,61.08,0,0,1-.07,18.15c-.49,3.62-1.2,7.21-2,10.77-.31,1.35-3,12.23-3.09,13.39h49.67c-.47-9.73-11.56-40.3-4.06-60.1,5.19-13.71-1.71-14.13-6.39-25.54-1.15-2.8-2.07-5.87-4-8.28a14.27,14.27,0,0,0-7.6-4.66,28.3,28.3,0,0,0-4.62-.65c-8.41-.68-28.2-3.11-30.06,8.85a21.18,21.18,0,0,0,1,9.67c1.11,3.49,2.77,6.77,4.16,10.16Q178.76,184.09,179.48,186.18Z"/><path class="cls-26" d="M180,284.13s-4.29-10.82-.2-31.54h49.67a303.89,303.89,0,0,1,1.81,31.54Z"/><path class="cls-27" d="M188.83,353.8c6.52-16-9.34-21.43-16.37-10.24-9.94,15.82-14.25,74.34-15.55,85.23-.17,1.43.61,1.28,1.45,1.11,2.45-.48,1.42-2.77,4.92-2.55,1.85.11,2.38,2.65,2.38,2.65C169.5,415.5,182.51,369.27,188.83,353.8Z"/><path class="cls-28" d="M204.65,286.39c1.74-20.85-6.21-37-18.67-30.16-5.24,2.9-7.16,8.69-7.87,14.15s-4.56,62.18-5.92,72.43c-3.05,23.1,14.53,16.88,16.44,10.47C193.45,337.13,203.7,297.75,204.65,286.39Z"/><path class="cls-29" d="M234,350.51c.65-15.65-14-15.31-17.71-2.58-5.8,20,4.23,63,4.85,87.6,2.56-4.24,5-5.27,6.11-5.19a4.08,4.08,0,0,1,2.85,1.6C229.74,399.59,233.31,367.24,234,350.51Z"/><path class="cls-30" d="M216.88,352.21c2,6.39,18.75,13.78,17-9.47-.78-10.32-2.85-67.26-3.25-72.75s-1.32-13.51-4-14.51c-13.27-5-26.13,11.37-22.64,32C206.35,301.23,212.84,339,216.88,352.21Z"/><path class="cls-31" d="M182.41,128.27c1,9.8,1.27,12,5.55,16a23.11,23.11,0,0,0,15,5.85c5,0,8.74-5.3,9.87-9.45s2.55-14.37,1.14-25.1c-.71-5.44-7.43-12-14.35-12S180,104.33,182.41,128.27Z"/><path class="cls-32" d="M230.73,431.86c.57,1.1,3.28,3.65,7,5.33s11.73,2.47,7.3,3.94-9.59.58-12.2.16a52.93,52.93,0,0,0-8.23-.5c-4.06,0-4.09-.28-3.55-4.86C221.84,429.64,228.9,428.3,230.73,431.86Z"/><path class="cls-33" d="M165.56,429.07c.57,1.1,1.16,6.45,4.92,8.12s11.73,2.47,7.3,3.94-9.59.58-12.2.16-3-3.27-6.11-3.29c-4.06,0-4.1-.28-3.55-4.86C156.67,426.84,163.73,425.51,165.56,429.07Z"/><path class="cls-34" d="M212.36,110.44C216.2,117,188.31,129,182.11,128s-6.14-14.19-1.35-20.2S203.31,95,212.36,110.44Z"/><path class="cls-35" d="M202,108.79c1,5.55,10.73,6.82,12.38,11.41,1,2.85,1.5-6.15-.77-10.22S200,97.64,202,108.79Z"/><ellipse class="cls-31" cx="182.11" cy="129.71" rx="3.47" ry="6.63" transform="translate(-35.52 78.48) rotate(-22.21)"/><path class="cls-31" d="M183.53,217.81c3-.1,6.54.26,8.4,1.36s-2.77,1.24-5,1.48S181,217.89,183.53,217.81Z"/><path class="cls-31" d="M186.16,219.68c5.44,2.81,8.8,3.42,10.42,5.91s-3.92,3.24-6,2.55-9.51-2.72-10.41-5.13S182.14,217.6,186.16,219.68Z"/><path class="cls-36" d="M143.83,197.27c1.41-3.5,5.4-10.87,18-25.62A139.17,139.17,0,0,1,175.75,157c4.61-4.26,9.21-1.47,9.59,2,.61,5.53-2.16,12.38-4.49,14.79-13.18,13.56-23.47,23.44-26.3,27.37C150.42,206.87,142.16,201.42,143.83,197.27Z"/><path class="cls-37" d="M182,223.16c-2.82.66-3.84-2.66-12.4-6.2-12.32-5.1-15.38-7.15-23.34-13.13-5.2-3.9-1.7-12.92,5.4-9.46,6,2.93,28.8,21.36,32.45,23.13C186.55,218.69,184.31,222.63,182,223.16Z"/><path class="cls-31" d="M273.23,150.15c1.46.47,3.55,1.27,4.36,2.53.46.72-1,2.14-3.69,2.67-2.38.46-8.56.58-9.26-.52-.59-.93.33-2.54,2-3.87A7.16,7.16,0,0,1,273.23,150.15Z"/><ellipse class="cls-20" cx="476.58" cy="434.25" rx="53.08" ry="4.04"/><path class="cls-38" d="M472.08,219.62c4.17,1.36,7.69.09,17.77-2.12,14.53-3.18,17.78-4.87,25.94-10,5.33-3.34-3.62-14.38-11.75-11.95-6.87,2.06-28,17.41-32.17,18.64C469.1,215,468.69,218.52,472.08,219.62Z"/><path class="cls-39" d="M517.33,205.32c1-3.28,2.15-10.93,0-29.59a120.21,120.21,0,0,0-3.54-19.58c-1.56-6.1-7.88-7.66-10.57-5.73-4.33,3.11-8.09,10.26-7.47,13.51,3.52,18.34,7.35,32.22,7.42,36.81C503.31,207.44,516.13,209.2,517.33,205.32Z"/><path class="cls-40" d="M508.48,421.47a28.2,28.2,0,0,0-.66,4.86c-.32,2-2.19,2.67-3.27,4.27-1.19,1.77-3.06,4.34,4.24,4.48,7.81.15,12.44-.09,11.12-4.35s-1.58-6.13-1.49-7.52,0-2.83-.88-3.67S509.63,417.22,508.48,421.47Z"/><path class="cls-31" d="M414.44,181.31c-2.54-1.31-23-10.59-23.17-5.71-.2,5.39,7.12,10.84,9.8,12.38,4.9,2.81,10.82,1.7,13.18-.79C415.92,185.41,416.85,182.55,414.44,181.31Z"/><path class="cls-31" d="M413.71,179.85c-.79-1-5.53-7.24-6.76-6.43-1.86,1.23,1,5.44,2.95,8.23,1,1.51,3.44,2.86,4.57,1.87S415,181.53,413.71,179.85Z"/><path class="cls-40" d="M448.43,425c-.61,1.15-3.54,3.8-7.6,5.55s-12.66,2.57-7.88,4.1,10.35.61,13.17.17a59.63,59.63,0,0,1,8.89-.52c4.39,0,4.42-.29,3.83-5.06C458,422.71,450.4,421.32,448.43,425Z"/><path class="cls-31" d="M498.24,120.79c-.89,8.87-1.15,10.84-5,14.47s-9.93,4.16-14.14,4.16c-4.54,0-7.54-5.48-8.56-9.23s-2.16-11.19-.88-20.9c.65-4.92,6.72-10.9,13-10.9S500.41,99.11,498.24,120.79Z"/><path class="cls-41" d="M409.58,187c2.77,3.41,5,5.38,14.91,8.31,13.38,4,21.1,5.32,27.9,5.76,6.27.41,5.24-14.59-2.91-17-6.89-2-32.95-.54-37.14-1.78C409.56,181.56,407.33,184.26,409.58,187Z"/><path class="cls-42" d="M453,197.3c2.62-2.22,7.69-8.06,15.94-24.93A120.43,120.43,0,0,0,476.52,154c2-6-2.52-10.7-5.83-10.51-5.32.3-12.34,4.3-13.56,7.37-6.89,17.35-11.14,31.12-13.55,35C440.07,191.54,449.92,199.93,453,197.3Z"/><path class="cls-31" d="M493.72,136.42c.24,3.08.47,6.62.57,9.85a8.47,8.47,0,0,1-7.39,8.6l-.48,0c-3.83,0-8.34-3.47-8-7.31.22-2.49.3-5,.32-7.21a10,10,0,0,1,6.65-9.36h0A6.27,6.27,0,0,1,493.72,136.42Z"/><path class="cls-43" d="M511.48,174.35c-7.12,23.41-9.46,47.83-8.06,64.18H449.79s.31-50.23,3.9-77.73c.84-6.4,4.52-12.16,11.32-15.77,4-2.14,11.33-3.17,14.29-3.17h9.91a37.53,37.53,0,0,1,10.46,1.3C514.3,147.65,515.61,160.78,511.48,174.35Z"/><path class="cls-44" d="M503.19,271.34s4.63-11.25.22-32.81H449.79a304.79,304.79,0,0,0-2,32.81Z"/><path class="cls-44" d="M492.61,341.52c-4.29-17.46,13.54-20.53,19.17-7.9,8,17.86,7.33,75,6.9,86.36-.06,1.49.2,3.33-.55,3.85-1.41,1-4.42,1-5.67.91-2-.06-4-.06-4.16-2.53C506.93,405.59,496.77,358.43,492.61,341.52Z"/><path class="cls-44" d="M476.58,273.69c-1.89-21.69,6.71-38.53,20.16-31.37,5.66,3,7.73,9,8.5,14.72s4.93,64.69,6.39,75.35c3.29,24-15.69,17.56-17.75,10.9C488.68,326.47,477.6,285.51,476.58,273.69Z"/><path class="cls-44" d="M458.76,428.84c.67-25.55,11.51-70.29,5.24-91.13-4-13.24-19.83-13.59-19.12,2.69.75,17.4,6,51.1,4.21,84.72C448.91,428.42,458.64,431.83,458.76,428.84Z"/><path class="cls-44" d="M463.37,342.16c-2.1,6.65-20.24,14.34-18.35-9.85.84-10.73,3.08-70,3.51-75.68s1.42-14.06,4.29-15.1c14.32-5.21,28.21,11.83,24.44,33.27C474.75,289.13,467.74,328.38,463.37,342.16Z"/><ellipse class="cls-31" cx="469.06" cy="120.12" rx="3.14" ry="6" transform="translate(-10.59 186.33) rotate(-22.22)"/><ellipse class="cls-31" cx="497.99" cy="120.12" rx="6" ry="3.15" transform="matrix(0.38, -0.93, 0.93, 0.38, 198.51, 535.73)"/><path class="cls-45" d="M495.51,103.31c-3.46,5.16-20.15,5.64-25.6,3.74s-5.07-12.44,2.72-13.16c4.39,0,1.21,1,4.77,2.49C479.2,97.1,499.2,97.8,495.51,103.31Z"/><path class="cls-46" d="M476.72,102.41c-5.14,3.1-6.34,5.83-6.19,12.19s2.86,17.21,14.57,19.63S499.57,125,500.27,117s.25-14-5.67-15.44C485.82,99.44,479.84,100.53,476.72,102.41Z"/><g class="cls-47"><path class="cls-48" d="M501.68,83c24.19-14.81,68.88,7.67,76.92,36.92,8.21,29.86-14.23,44.15,4.17,85.5,14.56,32.71-2.16,68.57-6.1,96.88-4.32,31.08,11.23,46.11,6.09,73.83-11.81,63.79,46.3,101.75,2.45,115.28-45,13.88-44.32-14.57-93.26-14.73-42.53-.15-44.8-108.39-40.42-149.79,4.64-43.83,29.86-51.34,19-98-6.5-27.9-11.82-43.83,15.9-74C500.62,139.42,455.4,111.3,501.68,83Z"/></g></g></g></g></svg>