<?xml version="1.0" encoding="utf-8"?>
<!-- Generator: Adobe Illustrator 21.0.0, SVG Export Plug-In . SVG Version: 6.00 Build 0)  -->
<svg version="1.1" id="Слой_1" xmlns="http://www.w3.org/2000/svg" xmlns:xlink="http://www.w3.org/1999/xlink" x="0px" y="0px"
	 viewBox="0 0 139.3 161.6" style="enable-background:new 0 0 139.3 161.6;" xml:space="preserve">
<style type="text/css">
	.st0{fill:none;stroke:#0037FF;stroke-linecap:round;stroke-linejoin:round;}
	.st1{opacity:0.5;fill:none;stroke:#0037FF;stroke-linecap:round;stroke-linejoin:round;enable-background:new    ;}
	.st2{opacity:0.6;}
	.st3{fill:url(#SVGID_1_);}
	.st4{fill:#FFAF84;}
	.st5{fill:url(#SVGID_2_);}
	.st6{fill:url(#SVGID_3_);}
	.st7{fill:#ED9169;}
	.st8{fill:url(#SVGID_4_);}
	.st9{fill:url(#SVGID_5_);}
	.st10{fill:url(#SVGID_6_);}
	.st11{fill:url(#SVGID_7_);}
	.st12{fill:url(#SVGID_8_);}
	.st13{fill:url(#SVGID_9_);}
	.st14{fill:url(#SVGID_10_);}
	.st15{fill:url(#SVGID_11_);}
	.st16{fill:url(#SVGID_12_);}
	.st17{fill:url(#SVGID_13_);}
</style>
<title>dizainer</title>
<g>
	<g id="Слой_2">
		<g id="Designed_by_Freepik">
			<polygon class="st0" points="138.5,19.5 138.5,118.1 0.5,118.1 0.5,28.3 			"/>
			<polygon class="st1" points="117.5,59.3 134.6,59 134.6,42.9 117.5,43.5 			"/>
			<polygon class="st1" points="118.2,79.5 135.3,79.2 135.3,63 118.2,63.6 			"/>
			<polygon class="st1" points="118.6,101.2 135.7,100.9 135.7,84.8 118.6,85.3 			"/>
			<polygon class="st1" points="138,116.4 1,116.9 1,28.2 138,19 			"/>
			<g class="st2">
				<polygon class="st0" points="106.5,32.7 132.6,31.6 132.6,30 106.5,31.2 				"/>
				<polygon class="st0" points="106.5,35.5 132.6,34.3 132.6,32.8 106.5,33.9 				"/>
				<polygon class="st0" points="120.9,37.6 132.6,37.1 132.6,35.6 120.9,36.1 				"/>
			</g>
			<path class="st0" d="M9.9,110.3c0.3-1,17.1-27.3,17.1-27.3l19.6,13.1l27.3-29L90,85.2l16.6,18.9c0,0,0.1,5.9-6,6.2
				C89.3,110.8,9.9,110.3,9.9,110.3z"/>
			<circle class="st0" cx="50.2" cy="60.1" r="7.8"/>
			
				<linearGradient id="SVGID_1_" gradientUnits="userSpaceOnUse" x1="6063.4707" y1="172.3366" x2="6053.8706" y2="128.1466" gradientTransform="matrix(-1 0 0 -1 6157.2202 158.868)">
				<stop  offset="0" style="stop-color:#2C27CE"/>
				<stop  offset="1" style="stop-color:#EF1D68"/>
			</linearGradient>
			<path class="st3" d="M105.2,1.8c4,3,6.1,8,5.3,13c-0.7,4.6-0.4,9.3,1,13.8c1,3.1,4.5,13.6-7.9,13.4S90.5,27.3,91.9,19.9
				S90.8,7.3,92.6,5.1S98.8-2.9,105.2,1.8z"/>
			<path class="st4" d="M59.9,48.2c-2.3-0.1-4.7-0.2-5.2,0.7c-0.1,0.3-0.1,0.7,0,0.9c0.9,2,0.8,1.8,3,2.1S62.4,48.3,59.9,48.2z"/>
			
				<linearGradient id="SVGID_2_" gradientUnits="userSpaceOnUse" x1="7884.1924" y1="1747.1609" x2="7908.3721" y2="1744.7909" gradientTransform="matrix(-0.86 0.51 -0.51 -0.86 7750.9834 -2477.885)">
				<stop  offset="0" style="stop-color:#36078B"/>
				<stop  offset="1" style="stop-color:#16B1FF"/>
			</linearGradient>
			<path class="st5" d="M59.7,48.1c1.7-0.2,12.2-3.8,16.8-4.9l0.1-0.1c1.6-1.7,5.3-7.3,10.6-14.6c1.7-1.9,4-3.1,6.5-3.3
				c1.6-0.1,3.3,1.8,1.7,4.3c-1.7,2.7-3.6,5.3-5.7,7.7c-5,6.1-8,8.8-9.7,10c-0.3,0.3-0.7,0.6-1.2,0.7c-4,1.4-8.2,2.1-12.5,2.1
				c-4.4,0.2-5.4,1.5-6.5,0.8C58.8,50.3,58.4,48.2,59.7,48.1z"/>
			
				<linearGradient id="SVGID_3_" gradientUnits="userSpaceOnUse" x1="6047.646" y1="1.8498" x2="6048.2358" y2="19.4998" gradientTransform="matrix(-1 0 0 -1 6157.2202 158.868)">
				<stop  offset="0" style="stop-color:#2C27CE"/>
				<stop  offset="0.65" style="stop-color:#EF1D68"/>
				<stop  offset="1" style="stop-color:#EFBA92"/>
			</linearGradient>
			<path class="st6" d="M108.2,155.2c-0.2,0.7-0.3,1.5-0.3,2.2c-0.1,0.9-1,1.2-1.4,1.9s-1.3,2.1,1.9,2.2c3.4,0.1,5.5-0.2,4.9-2.1
				c-0.4-1.1-0.6-2.3-0.7-3.4c0.1-0.6,0-1.2-0.4-1.7C111.8,153.9,108.7,153.2,108.2,155.2z"/>
			<path class="st7" d="M101.9,16.9c0,0.3,0.4,5.7,0.5,9.9c0,2-1.4,4-2.9,4h-0.1c-1.4,0-3.1-1.8-3-3.8c0.2-3.6,0.1-7.3,0.1-7.4
				L101.9,16.9z"/>
			
				<linearGradient id="SVGID_4_" gradientUnits="userSpaceOnUse" x1="6055.9648" y1="132.5201" x2="6065.2051" y2="91.2901" gradientTransform="matrix(-1 0 0 -1 6157.2202 158.868)">
				<stop  offset="0" style="stop-color:#36078B"/>
				<stop  offset="1" style="stop-color:#16B1FF"/>
			</linearGradient>
			<path class="st8" d="M106.1,40.4c-1.2,3.7-2.1,7.5-2.6,11.4c-0.4,2.8-0.4,5.7,0,8.6c0.2,1.7,0.6,3.4,1,5.1
				c0.2,0.6,1.4,5.8,1.5,6.3H82.5c0.2-4.6,5.5-19.1,1.9-28.5c-2.5-6.5,0.8-6.7,3-12.1c0.4-1.4,1.1-2.7,1.9-3.9
				c0.9-1.1,2.2-1.9,3.6-2.2c0.7-0.2,1.5-0.3,2.2-0.3c4-0.3,13.3-1.5,14.2,4.2c0.2,1.5,0,3.1-0.5,4.6c-0.5,1.7-1.3,3.2-2,4.8
				C106.6,39.1,106.4,39.8,106.1,40.4z"/>
			
				<linearGradient id="SVGID_5_" gradientUnits="userSpaceOnUse" x1="6063.1987" y1="59.2192" x2="6064.4688" y2="-53.8908" gradientTransform="matrix(-1 0 0 -1 6157.2202 158.868)">
				<stop  offset="0" style="stop-color:#F70F47"/>
				<stop  offset="1" style="stop-color:#9E005D"/>
			</linearGradient>
			<path class="st9" d="M105.9,86.8c0,0,2-5.1,0.1-14.9H82.5c-0.5,5-0.8,9.9-0.9,14.9L105.9,86.8z"/>
			
				<linearGradient id="SVGID_6_" gradientUnits="userSpaceOnUse" x1="6049.9868" y1="59.0791" x2="6051.2471" y2="-54.0409" gradientTransform="matrix(-1 0 0 -1 6157.2202 158.868)">
				<stop  offset="0" style="stop-color:#F70F47"/>
				<stop  offset="1" style="stop-color:#9E005D"/>
			</linearGradient>
			<path class="st10" d="M101.3,118.8c-1.9-7.9,5.9-9.4,8.4-3.6c3.5,8.1,3.2,34.1,3,39.3c0,0.7-0.4,0.6-0.8,0.4
				c-0.8-0.3-1.6-0.5-2.5-0.5c-0.6,0.2-1,0.6-1.3,1.1C107.4,148.4,103.1,126.5,101.3,118.8z"/>
			
				<linearGradient id="SVGID_7_" gradientUnits="userSpaceOnUse" x1="6055.2744" y1="59.129" x2="6056.5342" y2="-53.9809" gradientTransform="matrix(-1 0 0 -1 6157.2202 158.868)">
				<stop  offset="0" style="stop-color:#F70F47"/>
				<stop  offset="1" style="stop-color:#9E005D"/>
			</linearGradient>
			<path class="st11" d="M94.2,87.9c-0.8-9.9,2.9-17.5,8.8-14.3c2.5,1.4,3.4,4.1,3.7,6.7s2.2,29.4,2.8,34.3c1.4,10.9-6.9,8-7.8,5
				C99.5,111.9,94.7,93.3,94.2,87.9z"/>
			
				<linearGradient id="SVGID_8_" gradientUnits="userSpaceOnUse" x1="6072.0479" y1="59.3191" x2="6073.3179" y2="-53.7909" gradientTransform="matrix(-1 0 0 -1 6157.2202 158.868)">
				<stop  offset="0" style="stop-color:#F70F47"/>
				<stop  offset="1" style="stop-color:#9E005D"/>
			</linearGradient>
			<path class="st12" d="M80.3,118.3c-0.3-7.4,6.6-7.3,8.4-1.2c2.8,9.5-2,29.9-2.3,41.5c-1.2-2-2.3-2.5-2.9-2.4
				c-0.5,0.1-1,0.3-1.3,0.8C82.3,141.5,80.6,126.2,80.3,118.3z"/>
			
				<linearGradient id="SVGID_9_" gradientUnits="userSpaceOnUse" x1="6069.6138" y1="59.2886" x2="6070.874" y2="-53.8214" gradientTransform="matrix(-1 0 0 -1 6157.2202 158.868)">
				<stop  offset="0" style="stop-color:#F70F47"/>
				<stop  offset="1" style="stop-color:#9E005D"/>
			</linearGradient>
			<path class="st13" d="M88.4,119.1c-0.9,3-8.9,6.5-8-4.5c0.4-4.9,1.3-31.9,1.5-34.4s0.6-6.4,1.9-6.9c6.3-2.4,12.4,5.4,10.7,15.1
				C93.4,94.9,90.3,112.8,88.4,119.1z"/>
			<path class="st4" d="M105,60.7c-2.9-0.6-4.3-1.5-5.6-0.8s0.6,3.3,1.6,3.7s4.4,2.2,5.4,1.2c0.9-1.1,0.7-2.7-0.4-3.6
				C105.7,61,105.4,60.8,105,60.7z"/>
			
				<linearGradient id="SVGID_10_" gradientUnits="userSpaceOnUse" x1="6048.7964" y1="128.0796" x2="6044.0566" y2="98.4596" gradientTransform="matrix(-1 0 0 -1 6157.2202 158.868)">
				<stop  offset="0" style="stop-color:#36078B"/>
				<stop  offset="1" style="stop-color:#16B1FF"/>
			</linearGradient>
			<path class="st14" d="M114.7,48.2c-1.6-2.5-5.3-7.3-9.7-13.5c-1.2-2.2-1.6-4.8-1.1-7.2c0.4-1.6,2.8-2.6,4.6-0.3
				c2,2.5,3.9,5.1,5.5,7.8c4.9,7.8,6.2,11.5,6.6,13.3c0.1,0.7-0.2,1.4-0.8,1.8c-0.1,0.1-0.1,0.2-0.2,0.3c-2.4,3.5-5.4,6.6-8.8,9.1
				c-3.4,2.8-3.4,4.4-4.8,4.5c-1.1,0.1-2.7-1.4-1.7-2.3C105.5,60.5,111.5,51.9,114.7,48.2z"/>
			<path class="st4" d="M105.6,13.8c-1.2,4.5-1.5,5.5-3.8,7.1c-2.2,1.4-4.9,2-7.5,1.6c-2.3-0.4-3.7-3.1-3.9-5.2
				c-0.3-4,0.2-8,1.4-11.8c0.7-2.5,4.4-5.1,7.6-4.6S108.5,2.8,105.6,13.8z"/>
			
				<linearGradient id="SVGID_11_" gradientUnits="userSpaceOnUse" x1="6076.7881" y1="0.8691" x2="6077.3779" y2="18.5191" gradientTransform="matrix(-1 0 0 -1 6157.2202 158.868)">
				<stop  offset="0" style="stop-color:#2C27CE"/>
				<stop  offset="0.65" style="stop-color:#EF1D68"/>
				<stop  offset="1" style="stop-color:#EFBA92"/>
			</linearGradient>
			<path class="st15" d="M81.9,156.8c-0.9,1.1-2,2-3.3,2.5c-1.8,0.8-5.6,1.2-3.5,1.9c1.9,0.5,3.9,0.5,5.8,0.1
				c1.3-0.2,2.6-0.3,3.9-0.2c1.9,0,1.9-0.1,1.7-2.3C86.1,155.7,82.7,155.1,81.9,156.8z"/>
			
				<linearGradient id="SVGID_12_" gradientUnits="userSpaceOnUse" x1="5726.6265" y1="-1015.1672" x2="5717.0269" y2="-1059.3572" gradientTransform="matrix(-0.99 -0.16 0.16 -0.99 5930.9497 -105.7558)">
				<stop  offset="0" style="stop-color:#2C27CE"/>
				<stop  offset="1" style="stop-color:#EF1D68"/>
			</linearGradient>
			<path class="st16" d="M92.9,3.2c-2.3,2.8,9.8,10.5,12.8,10.5s3.2-5.7,1.4-8.8S98.3-3.4,92.9,3.2z"/>
			
				<linearGradient id="SVGID_13_" gradientUnits="userSpaceOnUse" x1="5732.2539" y1="-1016.3982" x2="5722.6641" y2="-1060.5883" gradientTransform="matrix(-0.99 -0.16 0.16 -0.99 5930.9497 -105.7558)">
				<stop  offset="0" style="stop-color:#2C27CE"/>
				<stop  offset="1" style="stop-color:#EF1D68"/>
			</linearGradient>
			<path class="st17" d="M97.8,3.2c-0.9,2.5-5.5,2.4-6.7,4.4c-0.7,1.3-0.2-3,1.1-4.7S99.6-1.9,97.8,3.2z"/>
			
				<ellipse transform="matrix(0.3782 -0.9257 0.9257 0.3782 52.5506 105.6103)" class="st4" cx="104.9" cy="13.7" rx="3.1" ry="1.6"/>
			<g>
				<defs>
					<path id="SVGID_14_" d="M53.3,26.4c0.1,0.1,0.2,0.2,0.3,0.2c-0.1,0.1-0.2,0.3-0.2,0.5C53,29.2,53,29,54.6,30.5
						c0.7,0.5,1.7,0.7,2.5,0.5c0.7,1,2.2,0.6,5.9,2.5c3.7,2.1,7.7,3.7,11.9,4.5c0.5,0.1,0.9,0.1,1.4,0c2.8-0.4,5.6-1.1,8.4-2
						c-1.2,1.8-1.8,3.5-0.3,7.4c3.6,9.4-1.7,23.8-1.9,28.5c-0.5,5-0.8,9.9-0.9,14.9c-0.4,9.1-1,24.2-1.2,27.8c0,0.8,0,1.5,0,2.3
						c0,0.5,0,0.9,0,1.4c0.3,7.9,2,23,1.8,38.2c-0.1,0.1-0.2,0.2-0.3,0.4c-0.9,1.1-2,2-3.3,2.5c-1.8,0.8-5.6,1.2-3.5,1.9
						c1.9,0.5,3.9,0.5,5.8,0.1c1.3-0.2,2.6-0.3,3.9-0.2c1.9,0,1.9-0.1,1.7-2.3c0-0.1,0-0.2-0.1-0.3v0.1c0.3-11.4,4.8-31.2,2.4-40.9
						c1.8-6.9,4.4-21.8,5.5-28.4c0.8,5.9,4.3,19.5,6.6,27.5c0,0.7,0.1,1.3,0.3,2c1.8,7.7,6.1,29.7,6.9,36.7l0,0
						c-0.2,0.9-0.1,1.3-0.2,1.9c-0.1,0.9-1,1.2-1.4,1.9s-1.3,2.1,1.9,2.2c3.4,0.1,5.5-0.2,4.9-2.1c-0.4-1.1-0.6-2.3-0.7-3.4
						c0-0.3,0-0.7-0.1-1c0.1-0.1,0.2-0.2,0.2-0.5c0.2-5.2,0.5-31.2-3-39.3l0,0c0-0.2,0-0.3,0-0.5c-0.6-4.7-2.4-30.5-2.8-34.1
						c0-2.9-0.2-5.8-0.8-8.6c-0.1-0.6-1.3-5.7-1.5-6.3c0-0.2-0.1-0.4-0.1-0.6c0.8,0.2,1.6,0.3,2-0.1c0.3-0.4,0.5-0.8,0.5-1.3
						c1.2-1.5,2.5-2.8,3.9-4.1c3.4-2.5,6.4-5.6,8.8-9.1c0.1-0.1,0.1-0.2,0.2-0.3c0.6-0.4,0.9-1.1,0.8-1.8c-0.4-1.7-1.8-5.5-6.6-13.3
						c-0.6-0.9-1-1.7-1.5-2.3c-0.2-1.4-0.6-2.7-1-4c-1.4-4.5-1.7-9.2-1-13.8c0.8-5-1.2-10-5.3-13c-1.5-1.3-3.5-1.9-5.5-1.8
						c-1-0.1-2.1,0-3.1,0.4c-1.6,0.4-3.1,1.2-4.3,2.4c-1.3,1.7-1.8,5.8-1.2,4.8c-0.7,3.2-1,6.4-0.8,9.6c0.2,1.3,0.6,2.5,1.4,3.5
						c-0.2,1.6-0.4,3.3-0.4,4.9c-7.9,3.5-13.7,6.3-15.9,6.9h-0.1C71,31.3,60,29.1,58.5,28.4c-0.2-0.1-0.3-0.1-0.5-0.1
						c-0.9-0.8-2-1.5-3.2-2.1c-1-0.8-2.2-1.4-3.5-1.7C50.3,24.5,52.5,25.7,53.3,26.4z M105.1,60.7L105.1,60.7
						c-0.6-0.1-1.1-0.2-1.5-0.4c-0.4-2.8-0.4-5.7,0-8.5c0.5-3.3,1.2-6.6,2.2-9.9c1.3-0.1,2.6-0.5,3.8-1.1c2.3,3.2,4.2,5.7,5.2,7.3
						C112,51.4,107.2,58.2,105.1,60.7L105.1,60.7z"/>
				</defs>
				<clipPath id="SVGID_15_">
					<use xlink:href="#SVGID_14_"  style="overflow:visible;"/>
				</clipPath>
			</g>
			<path class="st0" d="M54.4,35.6c-0.8,0.5-1.8,0.4-2.4-0.2c-0.5-0.3-0.7-0.9-0.6-1.5c0.4-1.5,1.2-3.2,0.6-4.1s-0.6-0.8-0.6-0.9
				s2.7,1.1,3.3,2.3C55.8,33.9,55.2,35.1,54.4,35.6z"/>
			<path class="st0" d="M55.1,32.6c-0.1-0.4-0.2-0.8-0.4-1.1c-0.5-1.2-3.3-2.4-3.3-2.3c0,0,0,0,0,0.1l0,0c0.1,0.1,0.2,0.3,0.5,0.8
				c0.5,0.8-0.2,2.4-0.5,3.9c0.2,0.1,0.4,0.1,0.5,0c0.3-0.2,0.5-0.8,0.9-0.8c0.6,0,0.5,1.1,1.1,1.3c0.3,0.1,0.6-0.3,0.7-0.6
				c0-0.4,0.2-0.7,0.3-1L55.1,32.6z"/>
			<path class="st0" d="M60.7,61.8c0.1,0.2-0.1,0.4-0.3,0.5c-0.2,0-0.4-0.1-0.5-0.2c-2.5-6-8.4-21.2-8.6-23.3
				c-0.1-0.9,0.2-1.8,0.7-2.5l1.2-0.2c0.7,0.6,1.2,1.3,1.4,2.2C54.9,39.3,59.3,55.7,60.7,61.8z"/>
			<path class="st4" d="M58.7,48c-1.3-0.2-2.7-0.2-4,0.2c-0.9,0.4,1.6,0.4,2.6,0.6S59.9,48.1,58.7,48z"/>
			<path class="st4" d="M55.1,48.8c0,0,0.4-0.2,0.7,0.4c0.1,0.2,0.2,0.4,0.3,0.7l0.2,1v0.4L56,51.5l-0.3,0.1l-1-2.7L55.1,48.8z"/>
		</g>
	</g>
</g>
</svg>
