<svg xmlns="http://www.w3.org/2000/svg" xmlns:xlink="http://www.w3.org/1999/xlink" viewBox="0 0 180 181.07"><defs><style>.cls-1{fill:#ed0f0f;opacity:0.1;}.cls-2{fill:none;stroke:#0037ff;stroke-linecap:round;stroke-linejoin:round;}.cls-3{fill:url(#Безымянный_градиент_28);}.cls-4{fill:#ffaf84;}.cls-5{fill:url(#Безымянный_градиент_2);}.cls-6{fill:url(#Безымянный_градиент_22);}.cls-7{fill:#ed9169;}.cls-8{fill:url(#Безымянный_градиент_2-2);}.cls-9{fill:url(#Безымянный_градиент_29);}.cls-10{fill:url(#Безымянный_градиент_29-2);}.cls-11{fill:url(#Безымянный_градиент_29-3);}.cls-12{fill:url(#Безымянный_градиент_29-4);}.cls-13{fill:url(#Безымянный_градиент_29-5);}.cls-14{fill:url(#Безымянный_градиент_2-3);}.cls-15{fill:url(#Безымянный_градиент_22-2);}.cls-16{fill:url(#Безымянный_градиент_28-2);}.cls-17{fill:url(#Безымянный_градиент_28-3);}.cls-18{fill:#0037ff;}</style><linearGradient id="Безымянный_градиент_28" x1="28.36" y1="6682.27" x2="19.53" y2="6641.62" gradientTransform="matrix(1, 0, 0, -1, 0, 6695.65)" gradientUnits="userSpaceOnUse"><stop offset="0" stop-color="#2c27ce"/><stop offset="1" stop-color="#ef1d68"/></linearGradient><linearGradient id="Безымянный_градиент_2" x1="35.11" y1="6641.09" x2="57.35" y2="6638.92" gradientTransform="matrix(1, 0, 0, -1, 0, 6695.65)" gradientUnits="userSpaceOnUse"><stop offset="0" stop-color="#36078b"/><stop offset="1" stop-color="#16b1ff"/></linearGradient><linearGradient id="Безымянный_градиент_22" x1="13.82" y1="6525.44" x2="14.36" y2="6541.68" gradientTransform="matrix(1, 0, 0, -1, 0, 6695.65)" gradientUnits="userSpaceOnUse"><stop offset="0" stop-color="#2c27ce"/><stop offset="0.65" stop-color="#ef1d68"/><stop offset="1" stop-color="#efba92"/></linearGradient><linearGradient id="Безымянный_градиент_2-2" x1="21.49" y1="6645.66" x2="29.99" y2="6607.73" xlink:href="#Безымянный_градиент_2"/><linearGradient id="Безымянный_градиент_29" x1="28.1" y1="6578.22" x2="29.26" y2="6474.17" gradientTransform="matrix(1, 0, 0, -1, 0, 6695.65)" gradientUnits="userSpaceOnUse"><stop offset="0" stop-color="#f70f47"/><stop offset="1" stop-color="#9e005d"/></linearGradient><linearGradient id="Безымянный_градиент_29-2" x1="15.95" y1="6578.08" x2="17.12" y2="6474.03" xlink:href="#Безымянный_градиент_29"/><linearGradient id="Безымянный_градиент_29-3" x1="20.82" y1="6578.14" x2="21.98" y2="6474.09" xlink:href="#Безымянный_градиент_29"/><linearGradient id="Безымянный_градиент_29-4" x1="36.26" y1="6578.31" x2="37.43" y2="6474.26" xlink:href="#Безымянный_градиент_29"/><linearGradient id="Безымянный_градиент_29-5" x1="34.04" y1="6578.29" x2="35.21" y2="6474.24" xlink:href="#Безымянный_градиент_29"/><linearGradient id="Безымянный_градиент_2-3" x1="14.87" y1="6641.56" x2="10.51" y2="6614.31" xlink:href="#Безымянный_градиент_2"/><linearGradient id="Безымянный_градиент_22-2" x1="40.61" y1="6524.54" x2="41.15" y2="6540.78" xlink:href="#Безымянный_градиент_22"/><linearGradient id="Безымянный_градиент_28-2" x1="170.62" y1="5288.42" x2="161.79" y2="5247.77" gradientTransform="matrix(0.99, -0.16, -0.16, -0.99, 695.76, 5261.14)" xlink:href="#Безымянный_градиент_28"/><linearGradient id="Безымянный_градиент_28-3" x1="175.82" y1="5287.3" x2="166.98" y2="5246.64" gradientTransform="matrix(0.99, -0.16, -0.16, -0.99, 695.76, 5261.14)" xlink:href="#Безымянный_градиент_28"/></defs><title>dogovor1</title><g id="Слой_2" data-name="Слой 2"><g id="Designed_by_Freepik" data-name="Designed by Freepik"><circle class="cls-1" cx="90" cy="91.07" r="90"/></g><g id="Objects"><g id="Слой_2-2" data-name="Слой 2"><g id="Designed_by_Freepik-2" data-name="Designed by Freepik"><rect class="cls-2" x="43.71" y="21.61" width="113.23" height="149.81" rx="12.69" ry="12.69"/><path class="cls-2" d="M175.06.5c-24.69,1.59-25.16,29.67-25.16,29.67V163.9H50.75V30.17S50.64,2.19,76,.5Z"/><rect class="cls-2" x="63.77" y="35.43" width="68.1" height="6.01"/><rect class="cls-2" x="63.77" y="49.32" width="58.15" height="4.26"/><rect class="cls-2" x="63.77" y="60.56" width="29.23" height="6.32"/><rect class="cls-2" x="101.64" y="60.56" width="30.23" height="6.32"/><rect class="cls-2" x="63.77" y="72.73" width="46.57" height="4.51"/><rect class="cls-2" x="63.77" y="84" width="52.47" height="2.51"/><path class="cls-2" d="M93.2,120.5H63.57V106.37H93.2Zm-29.2-.4H92.84V106.73H64Z"/><rect class="cls-2" x="63.77" y="140.33" width="29.88" height="2.51"/><path class="cls-3" d="M17.83,27.42a12.45,12.45,0,0,0-4.85,12,28.51,28.51,0,0,1-.93,12.7C11.13,55,7.9,64.64,19.29,64.43S31.35,50.91,30.08,44.1s1.08-11.62-.63-13.68S23.72,23.12,17.83,27.42Z"/><path class="cls-4" d="M60.74,52.26c2.13-1.66,4.26-3.49,4.7-1.59s.46,1.78-1.06,3.16S59,53.67,60.74,52.26Z"/><path class="cls-5" d="M60.81,51.91c-1.44.65-11.48,2.67-15.57,4l-.11,0c-2-.56-7.62-3.28-15.15-6.64a9.53,9.53,0,0,0-6.72.4c-1.34.67-1.79,3,.65,4.22A60.91,60.91,0,0,0,32,57.29c6.84,2.49,10.47,3.25,12.39,3.43a2.69,2.69,0,0,0,1.29,0,35.66,35.66,0,0,0,10.91-4.15c3.57-1.87,5-1.29,5.54-2.42C62.57,53.27,61.88,51.42,60.81,51.91Z"/><path class="cls-6" d="M15.05,168.5a12.28,12.28,0,0,1,.27,2c.13.83.88,1.12,1.32,1.79s1.24,1.93-1.71,2c-3.15.07-5-.16-4.49-1.93a9.33,9.33,0,0,0,.61-3.15,2,2,0,0,1,.36-1.54C11.76,167.35,14.59,166.72,15.05,168.5Z"/><path class="cls-7" d="M20.84,41.35c0,.23-.4,5.23-.46,9.07,0,1.88,1.32,3.67,2.67,3.71h.06c1.33,0,2.89-1.66,2.77-3.51-.22-3.32,0-6.76,0-6.81Z"/><path class="cls-8" d="M17,63a65.39,65.39,0,0,1,2.4,10.5,26.68,26.68,0,0,1,0,7.9c-.22,1.58-.52,3.14-.88,4.69-.13.59-1.29,5.33-1.34,5.81H38.78c-.21-4.24-5-17.56-1.77-26.19,2.27-6-.74-6.15-2.78-11.13A14.59,14.59,0,0,0,32.5,51a6.22,6.22,0,0,0-3.32-2,12.27,12.27,0,0,0-2-.28c-3.66-.29-12.29-1.35-13.09,3.85a9.22,9.22,0,0,0,.43,4.21c.48,1.52,1.2,2.95,1.81,4.43C16.53,61.75,16.76,62.36,17,63Z"/><path class="cls-9" d="M17.19,105.65s-1.87-4.72-.09-13.74H38.74a132.33,132.33,0,0,1,.79,13.74Z"/><path class="cls-10" d="M21.46,135c1.74-7.31-5.46-8.6-7.73-3.32-3.21,7.47-3,31.39-2.79,36.16,0,.62.35.51.7.38a5.2,5.2,0,0,1,2.28-.43,2,2,0,0,1,1.2,1C15.82,162.32,19.79,142.1,21.46,135Z"/><path class="cls-11" d="M27.93,106.62c.76-9.08-2.71-16.14-8.14-13.13-2.28,1.26-3.12,3.79-3.43,6.17s-2,27.09-2.58,31.55c-1.33,10.06,6.33,7.36,7.16,4.57C23,128.72,27.51,111.57,27.93,106.62Z"/><path class="cls-12" d="M40.72,134.55c.28-6.82-6.11-6.64-7.71-1.12-2.49,8.73,1.84,27.46,2.12,38.19,1.11-1.85,2.17-2.3,2.67-2.26a1.77,1.77,0,0,1,1.25.7C38.86,155.93,40.42,141.84,40.72,134.55Z"/><path class="cls-13" d="M33.25,135.29c.83,2.78,8.17,6,7.41-4.15-.34-4.49-1.25-29.3-1.42-31.69s-.57-5.89-1.73-6.33c-5.81-2.18-11.38,5-9.86,13.93C28.67,113.09,31.49,129.52,33.25,135.29Z"/><path class="cls-4" d="M61.53,55.2a7.5,7.5,0,0,1,3.18-1.59c.9-.08-1.05,1-1.76,1.59S60.7,55.85,61.53,55.2Z"/><path class="cls-4" d="M18,81.63c2.64-.53,4-1.42,5.19-.76s-.56,3-1.47,3.37-4.06,2-5,1.14A2.36,2.36,0,0,1,18,81.63Z"/><path class="cls-14" d="M9.11,70.1c1.5-2.33,4.86-6.73,9-12.45a9.52,9.52,0,0,0,1-6.64c-.38-1.45-2.54-2.37-4.26-.23A60.38,60.38,0,0,0,9.73,58C5.26,65.14,4,68.57,3.62,70.16a1.7,1.7,0,0,0,.72,1.66c0,.08.09.17.15.25a35.84,35.84,0,0,0,8.14,8.35c3.14,2.49,3.15,4,4.42,4.15,1,.06,2.44-1.32,1.58-2.1C17.48,81.43,12,73.56,9.11,70.1Z"/><path class="cls-4" d="M17.48,38.46c1.1,4.15,1.38,5.06,3.5,6.49a10.07,10.07,0,0,0,6.87,1.47c2.16-.35,3.39-2.88,3.59-4.75a31,31,0,0,0-1.25-10.88,6.82,6.82,0,0,0-7-4.15C20.19,27.16,14.81,28.33,17.48,38.46Z"/><path class="cls-15" d="M39.29,170a7.39,7.39,0,0,0,3.06,2.32c1.66.73,5.11,1.07,3.18,1.72a11.57,11.57,0,0,1-5.31.07,22.9,22.9,0,0,0-3.59-.22c-1.77,0-1.78-.12-1.54-2.12C35.42,169,38.49,168.44,39.29,170Z"/><path class="cls-16" d="M29.15,28.71c2.1,2.55-9.06,9.66-11.8,9.64S14.41,33.14,16,30.23,24.19,22.69,29.15,28.71Z"/><path class="cls-17" d="M24.58,28.72c.83,2.32,5.08,2.19,6.12,4.05.64,1.15.22-2.75-1-4.34S22.94,24.06,24.58,28.72Z"/><ellipse class="cls-4" cx="18.11" cy="38.37" rx="1.51" ry="2.89" transform="translate(-13.16 9.7) rotate(-22.22)"/><path class="cls-2" d="M106.75,94.37a1.59,1.59,0,0,1,1.43-1.7"/><path class="cls-2" d="M111.14,94.37a1.59,1.59,0,0,1,1.46-1.71h0"/><path class="cls-2" d="M115.54,94.37a1.59,1.59,0,0,1,1.43-1.7"/><path class="cls-2" d="M119.92,94.37a1.59,1.59,0,0,1,1.43-1.7"/><path class="cls-2" d="M124.31,94.37a1.59,1.59,0,0,1,1.43-1.7"/><path class="cls-2" d="M128.7,94.37a1.59,1.59,0,0,1,1.43-1.71"/><path class="cls-2" d="M133.1,94.37a1.59,1.59,0,0,1,1.43-1.7"/><path class="cls-2" d="M141.92,94.37a1.59,1.59,0,0,1,1.43-1.7"/><path class="cls-2" d="M146.31,94.37a1.59,1.59,0,0,1,1.43-1.71"/><path class="cls-2" d="M150.7,94.37a1.59,1.59,0,0,1,1.46-1.71h0"/><path class="cls-2" d="M155.09,94.37a1.59,1.59,0,0,1,1.43-1.7"/><path class="cls-2" d="M159.48,94.37a1.59,1.59,0,0,1,1.43-1.7"/><path class="cls-2" d="M163.88,94.37a1.59,1.59,0,0,1,1.43-1.7"/><path class="cls-2" d="M168.27,94.37a1.59,1.59,0,0,1,1.43-1.7"/><path class="cls-2" d="M137.49,94.37a1.59,1.59,0,0,1,1.43-1.7"/><rect class="cls-2" x="100.32" y="93.86" width="74.3" height="60.07" rx="2.79" ry="2.79"/><path class="cls-18" d="M112.29,124.57h-1.14v-.25h1.56l-1.1,2.24h-.31Z"/><path class="cls-18" d="M120.87,125.5a.56.56,0,0,1-.07.27.62.62,0,0,1-.17.21.78.78,0,0,1-.24.13,2,2,0,0,1-.61,0,.76.76,0,0,1-.24-.14.64.64,0,0,1-.16-.21.58.58,0,0,1-.06-.26.48.48,0,0,1,0-.19.63.63,0,0,1,.09-.16.66.66,0,0,1,.13-.12l.15-.08-.13-.08-.11-.1a.5.5,0,0,1-.08-.12.4.4,0,0,1,0-.15.48.48,0,0,1,.07-.24.61.61,0,0,1,.16-.18.73.73,0,0,1,.23-.11.87.87,0,0,1,.24,0,.88.88,0,0,1,.25,0,.74.74,0,0,1,.23.11.59.59,0,0,1,.17.18.47.47,0,0,1,.07.24.4.4,0,0,1-.1.27.65.65,0,0,1-.24.18l.16.08a.62.62,0,0,1,.13.12.56.56,0,0,1,.09.16A.52.52,0,0,1,120.87,125.5Zm-.27,0a.36.36,0,0,0,0-.18.44.44,0,0,0-.11-.13.5.5,0,0,0-.16-.08H120a.49.49,0,0,0-.16.08.42.42,0,0,0-.11.13.38.38,0,0,0,0,.18.34.34,0,0,0,0,.18.4.4,0,0,0,.11.13.53.53,0,0,0,.16.08h.18a.56.56,0,0,0,.34-.11.44.44,0,0,0,.11-.13.34.34,0,0,0,0-.17Zm-.94-.94a.28.28,0,0,0,0,.15.35.35,0,0,0,.1.1l.13.07h.3l.14-.07a.35.35,0,0,0,.1-.11.29.29,0,0,0,0-.29.35.35,0,0,0-.09-.1.44.44,0,0,0-.14-.07h-.32a.39.39,0,0,0-.13.07.37.37,0,0,0-.09.11.29.29,0,0,0,0,.08Z"/><path class="cls-18" d="M127.47,125.12a.73.73,0,0,1,.06-.3.75.75,0,0,1,.17-.24.79.79,0,0,1,.25-.16.81.81,0,0,1,.31-.06.8.8,0,0,1,.32.07.71.71,0,0,1,.25.19.88.88,0,0,1,.16.3,1.27,1.27,0,0,1,.06.4,2.49,2.49,0,0,1-.06.57,1.27,1.27,0,0,1-.17.4.69.69,0,0,1-.6.33.76.76,0,0,1-.39-.1.72.72,0,0,1-.27-.29l.17-.17a.55.55,0,0,0,.5.32.47.47,0,0,0,.4-.23,1.17,1.17,0,0,0,.16-.64.55.55,0,0,1-.22.25.63.63,0,0,1-.35.09.77.77,0,0,1-.3-.06.74.74,0,0,1-.24-.18.73.73,0,0,1-.22-.53Zm.78-.53a.49.49,0,0,0-.21,0,.53.53,0,0,0-.17.11.56.56,0,0,0-.11.17.52.52,0,0,0,0,.4.54.54,0,0,0,.11.17.56.56,0,0,0,.17.11.51.51,0,0,0,.4,0,.57.57,0,0,0,.17-.11.52.52,0,0,0,.11-.17.48.48,0,0,0,0-.21.5.5,0,0,0,0-.2.53.53,0,0,0-.28-.28.5.5,0,0,0-.19,0Z"/><path class="cls-18" d="M136.16,125.88v.24H135v-.24h.44v-1.21l-.08.08-.13.08-.15.06H135v-.21a.37.37,0,0,0,.15,0l.16-.09.13-.1.07-.07h.28v1.53Z"/><path class="cls-18" d="M138,125.22a1.18,1.18,0,0,1-.06.38.94.94,0,0,1-.17.3.75.75,0,0,1-.25.2.72.72,0,0,1-.31.07.73.73,0,0,1-.31-.07.74.74,0,0,1-.24-.2.94.94,0,0,1-.16-.3,1.24,1.24,0,0,1,0-.75.94.94,0,0,1,.16-.3.76.76,0,0,1,.24-.2.7.7,0,0,1,.31-.08.69.69,0,0,1,.31.08.76.76,0,0,1,.25.2.94.94,0,0,1,.17.3A1.18,1.18,0,0,1,138,125.22Zm-.27,0a1,1,0,0,0,0-.28.7.7,0,0,0-.1-.22.5.5,0,0,0-.16-.14.43.43,0,0,0-.21,0,.44.44,0,0,0-.21,0,.47.47,0,0,0-.16.14.7.7,0,0,0-.1.22,1.06,1.06,0,0,0,0,.57.67.67,0,0,0,.1.22.46.46,0,0,0,.16.14.44.44,0,0,0,.21,0,.43.43,0,0,0,.21,0,.5.5,0,0,0,.16-.14.67.67,0,0,0,.1-.22,1,1,0,0,0,0-.28Z"/><path class="cls-18" d="M144.58,125.88v.24h-1.12v-.24h.44v-1.21l-.08.08-.13.08-.15.06h-.14v-.21a.37.37,0,0,0,.15,0l.16-.09.13-.1.07-.07h.28v1.53Z"/><path class="cls-18" d="M146,125.88v.24h-1.12v-.24h.44v-1.21l-.08.08-.13.08-.15.06h-.14v-.21a.37.37,0,0,0,.15,0l.16-.09.13-.1.07-.07h.28v1.53Z"/><path class="cls-18" d="M152.63,125.88v.24h-1.12v-.24H152v-1.21l-.08.08-.13.08-.15.06h-.14v-.21a.37.37,0,0,0,.15,0l.16-.09.13-.1.07-.07h.28v1.53Z"/><path class="cls-18" d="M152.84,126.12a1.34,1.34,0,0,1,0-.24.7.7,0,0,1,.08-.21.78.78,0,0,1,.15-.19,1.4,1.4,0,0,1,.25-.18l.19-.09.18-.1a.63.63,0,0,0,.13-.11.22.22,0,0,0,0-.15.25.25,0,0,0,0-.1.28.28,0,0,0-.08-.09l-.11-.07h-.33l-.13.07-.1.08-.08.08-.18-.2.08-.08.15-.09.21-.08a.94.94,0,0,1,.26,0,.81.81,0,0,1,.25,0,.58.58,0,0,1,.2.1.49.49,0,0,1,.12.16.45.45,0,0,1,0,.2.41.41,0,0,1-.06.21.68.68,0,0,1-.13.16l-.16.11-.16.08-.15.08-.16.11a.78.78,0,0,0-.13.13.38.38,0,0,0-.08.16h1.06v.24Z"/><path class="cls-18" d="M160.82,125.88v.24h-1.11v-.24h.44v-1.21l-.08.08-.13.08-.15.06h-.14v-.21a.37.37,0,0,0,.15,0l.16-.09.13-.1.07-.07h.28v1.53Z"/><path class="cls-18" d="M162,125.39a.49.49,0,0,1,.31.19.57.57,0,0,1,.11.37.62.62,0,0,1-.06.26.57.57,0,0,1-.15.2.7.7,0,0,1-.24.13,1.8,1.8,0,0,1-.72-.08.67.67,0,0,1-.28-.25l.19-.18a.54.54,0,0,0,.19.2.61.61,0,0,0,.32.08.53.53,0,0,0,.34-.09.35.35,0,0,0,.12-.29.4.4,0,0,0-.13-.31.57.57,0,0,0-.39-.11h0v-.24h.08a.5.5,0,0,0,.34-.1.35.35,0,0,0,.12-.27.28.28,0,0,0-.11-.24.49.49,0,0,0-.29-.08.59.59,0,0,0-.3.08.51.51,0,0,0-.2.21l-.17-.17a.52.52,0,0,1,.11-.14.76.76,0,0,1,.16-.11l.2-.08h.23a.86.86,0,0,1,.27,0,.65.65,0,0,1,.21.11.49.49,0,0,1,.14.17.54.54,0,0,1,0,.23.58.58,0,0,1,0,.18.51.51,0,0,1-.08.15.44.44,0,0,1-.12.11A.45.45,0,0,1,162,125.39Z"/><path class="cls-18" d="M111.67,132.49v.24h-1.12v-.24H111v-1.22l-.08.08-.13.08-.15.06h-.14v-.21a.37.37,0,0,0,.15,0l.16-.09.13-.1L111,131h.28v1.53Z"/><path class="cls-18" d="M112.81,133.15v-.53h-1v-.24l1.08-1.4h.19v1.39h.27v.24h-.27v.54Zm-.72-.77h.74v-.94Z"/><path class="cls-18" d="M119.86,132.49v.24h-1.12v-.24h.47v-1.22l-.08.08-.13.08-.15.06h-.14v-.21a.37.37,0,0,0,.15,0l.16-.09.13-.1.07-.07h.28v1.53Z"/><path class="cls-18" d="M120.81,131.76a.78.78,0,0,1,.28,0,.67.67,0,0,1,.23.14.66.66,0,0,1,.15.23.72.72,0,0,1,.06.28.73.73,0,0,1-.06.3.69.69,0,0,1-.17.24.74.74,0,0,1-.24.15.88.88,0,0,1-.3.06.82.82,0,0,1-.42-.11.73.73,0,0,1-.28-.3l.17-.15a.68.68,0,0,0,.24.23.59.59,0,0,0,.31.08.54.54,0,0,0,.2,0,.49.49,0,0,0,.16-.1.45.45,0,0,0,.1-.15.52.52,0,0,0,0-.2.48.48,0,0,0,0-.19.44.44,0,0,0-.1-.15.45.45,0,0,0-.15-.09.5.5,0,0,0-.19,0,.55.55,0,0,0-.25.06.5.5,0,0,0-.19.17h-.24v-.67l.12-.6h1.07v.24h-.87l-.13.71a.5.5,0,0,1,.17-.11A.62.62,0,0,1,120.81,131.76Z"/><path class="cls-18" d="M128,132.49v.24h-1.12v-.24h.44v-1.22l-.08.08-.13.08-.15.06h-.14v-.21a.37.37,0,0,0,.15,0l.16-.09.13-.1.07-.07h.28v1.53Z"/><path class="cls-18" d="M129.78,132a.73.73,0,0,1-.06.29.74.74,0,0,1-.17.24.78.78,0,0,1-.25.16.82.82,0,0,1-.31.06.8.8,0,0,1-.32-.07.73.73,0,0,1-.25-.19.88.88,0,0,1-.16-.3,1.27,1.27,0,0,1-.06-.4,2.44,2.44,0,0,1,.06-.57,1.25,1.25,0,0,1,.17-.4.73.73,0,0,1,.26-.24.72.72,0,0,1,.34-.08.75.75,0,0,1,.4.1.72.72,0,0,1,.27.29l-.17.16a.53.53,0,0,0-.5-.32.46.46,0,0,0-.23.06.53.53,0,0,0-.18.17.89.89,0,0,0-.11.27,1.6,1.6,0,0,0,0,.37.55.55,0,0,1,.22-.25.64.64,0,0,1,.35-.09.79.79,0,0,1,.3.06.76.76,0,0,1,.24.16.73.73,0,0,1,.16.24A.72.72,0,0,1,129.78,132Zm-.79.53a.49.49,0,0,0,.2,0,.53.53,0,0,0,.17-.11.55.55,0,0,0,.11-.17.5.5,0,0,0,0-.21.51.51,0,0,0,0-.2.53.53,0,0,0-.11-.17.57.57,0,0,0-.17-.11.52.52,0,0,0-.4,0,.57.57,0,0,0-.17.11.52.52,0,0,0-.11.17.49.49,0,0,0,0,.2.49.49,0,0,0,0,.21.54.54,0,0,0,.28.28.49.49,0,0,0,.22,0Z"/><path class="cls-18" d="M136.26,132.49v.24h-1.12v-.24h.44v-1.22l-.08.08-.13.08-.15.06h-.14v-.21a.37.37,0,0,0,.15,0l.16-.09.13-.1.07-.07h.28v1.53Z"/><path class="cls-18" d="M137.55,131.18h-1.14v-.25H138l-1.1,2.22h-.31Z"/><path class="cls-18" d="M144.35,132.49v.24h-1.12v-.24h.47v-1.22l-.08.08-.13.08-.15.06h-.14v-.21a.37.37,0,0,0,.15,0l.16-.09.13-.1.07-.07H144v1.53Z"/><path class="cls-18" d="M146.13,132.12a.56.56,0,0,1-.07.27.62.62,0,0,1-.17.21.78.78,0,0,1-.24.13,2,2,0,0,1-.61,0,.76.76,0,0,1-.24-.14.64.64,0,0,1-.16-.21.58.58,0,0,1-.06-.26.48.48,0,0,1,0-.19.63.63,0,0,1,.09-.16.66.66,0,0,1,.13-.12l.15-.08-.13-.08-.11-.1-.07-.08a.4.4,0,0,1,0-.15.48.48,0,0,1,.07-.24.61.61,0,0,1,.16-.18.73.73,0,0,1,.23-.11.87.87,0,0,1,.24,0,.89.89,0,0,1,.25,0,.74.74,0,0,1,.23.11.59.59,0,0,1,.17.18.47.47,0,0,1,.07.24.4.4,0,0,1-.1.27.65.65,0,0,1-.24.18l.16.08a.62.62,0,0,1,.13.12.56.56,0,0,1,.09.16A.52.52,0,0,1,146.13,132.12Zm-.27,0a.36.36,0,0,0,0-.18.44.44,0,0,0-.11-.13.5.5,0,0,0-.16-.08h-.36a.49.49,0,0,0-.16.08.42.42,0,0,0-.11.13.38.38,0,0,0,0,.18.34.34,0,0,0,0,.18.41.41,0,0,0,.11.13.53.53,0,0,0,.16.08h.18a.56.56,0,0,0,.34-.11.44.44,0,0,0,.11-.13.34.34,0,0,0,0-.18Zm-.94-.94a.28.28,0,0,0,0,.15.35.35,0,0,0,.1.1l.13.07h.3l.14-.07a.35.35,0,0,0,.1-.11.29.29,0,0,0,0-.29.35.35,0,0,0-.09-.1.44.44,0,0,0-.14-.07h-.32a.39.39,0,0,0-.13.07.37.37,0,0,0-.09.11.29.29,0,0,0,0,.08Z"/><path class="cls-18" d="M152.55,132.49v.24h-1.12v-.24h.44v-1.22l-.08.08-.13.08-.15.06h-.14v-.21a.37.37,0,0,0,.15,0l.16-.09.13-.1.07-.07h.28v1.53Z"/><path class="cls-18" d="M152.74,131.73a.73.73,0,0,1,.06-.3.75.75,0,0,1,.17-.24.79.79,0,0,1,.25-.16.81.81,0,0,1,.31-.06.8.8,0,0,1,.32.07.71.71,0,0,1,.25.19.88.88,0,0,1,.16.3,1.27,1.27,0,0,1,.06.4,2.49,2.49,0,0,1-.06.57,1.27,1.27,0,0,1-.17.4.69.69,0,0,1-.6.33.76.76,0,0,1-.38-.08.72.72,0,0,1-.27-.29l.17-.17a.55.55,0,0,0,.5.32.47.47,0,0,0,.4-.23,1.17,1.17,0,0,0,.16-.64.55.55,0,0,1-.22.25.63.63,0,0,1-.35.09.77.77,0,0,1-.3-.06.74.74,0,0,1-.24-.16.73.73,0,0,1-.22-.53Zm.78-.53a.49.49,0,0,0-.21,0,.53.53,0,0,0-.17.11.56.56,0,0,0-.11.17.52.52,0,0,0,0,.4.54.54,0,0,0,.11.17.56.56,0,0,0,.17.11.51.51,0,0,0,.4,0,.57.57,0,0,0,.17-.11.52.52,0,0,0,.11-.17.48.48,0,0,0,0-.21.5.5,0,0,0,0-.2.53.53,0,0,0-.28-.28.5.5,0,0,0-.2,0Z"/><path class="cls-18" d="M159.38,132.74a1.34,1.34,0,0,1,0-.24.7.7,0,0,1,.08-.21.78.78,0,0,1,.15-.19,1.4,1.4,0,0,1,.25-.18l.19-.09.18-.1a.63.63,0,0,0,.13-.11.22.22,0,0,0,0-.15.25.25,0,0,0,0-.1.28.28,0,0,0-.08-.09l-.11-.07h-.33l-.18.06-.1.08-.08.08-.18-.2.08-.08.15-.09.21-.08a.94.94,0,0,1,.26,0,.81.81,0,0,1,.25,0,.58.58,0,0,1,.2.1.49.49,0,0,1,.12.16.45.45,0,0,1,0,.2.41.41,0,0,1-.06.21.68.68,0,0,1-.13.16l-.16.11-.16.08-.15.08-.16.11a.78.78,0,0,0-.13.13.38.38,0,0,0-.08.16h1.06v.24Z"/><path class="cls-18" d="M162.64,131.83a1.18,1.18,0,0,1-.06.38.94.94,0,0,1-.17.3.75.75,0,0,1-.25.2.72.72,0,0,1-.31.07.73.73,0,0,1-.31-.07.74.74,0,0,1-.24-.2.94.94,0,0,1-.16-.3,1.24,1.24,0,0,1,0-.75.94.94,0,0,1,.16-.3.76.76,0,0,1,.24-.2.7.7,0,0,1,.31-.08.69.69,0,0,1,.31.08.76.76,0,0,1,.25.2.94.94,0,0,1,.17.3A1.18,1.18,0,0,1,162.64,131.83Zm-.27,0a1,1,0,0,0,0-.28.7.7,0,0,0-.1-.22.5.5,0,0,0-.16-.14.43.43,0,0,0-.21,0,.44.44,0,0,0-.21,0,.47.47,0,0,0-.16.14.7.7,0,0,0-.1.22,1.06,1.06,0,0,0,0,.57.67.67,0,0,0,.1.22.46.46,0,0,0,.16.14.44.44,0,0,0,.21,0,.43.43,0,0,0,.21,0,.5.5,0,0,0,.16-.14.67.67,0,0,0,.1-.22A1,1,0,0,0,162.37,131.83Z"/><path class="cls-18" d="M110.5,139.36a1.34,1.34,0,0,1,0-.24.7.7,0,0,1,.08-.21.78.78,0,0,1,.15-.19,1.4,1.4,0,0,1,.25-.18l.19-.09.18-.1a.63.63,0,0,0,.13-.11.22.22,0,0,0,0-.15.25.25,0,0,0,0-.1.28.28,0,0,0-.08-.09l-.11-.07H111l-.13.07-.1.08-.08.08-.18-.2.08-.08.15-.09.21-.08a.94.94,0,0,1,.26,0,.81.81,0,0,1,.25,0,.58.58,0,0,1,.2.1.49.49,0,0,1,.12.16.45.45,0,0,1,0,.2.41.41,0,0,1-.06.21.68.68,0,0,1-.13.16l-.16.11-.16.08-.15.08-.16.11a.78.78,0,0,0-.13.13.38.38,0,0,0-.08.16h1.06v.24Z"/><path class="cls-18" d="M113.35,139.11v.24h-1.11v-.24h.44v-1.25l-.08.08-.13.08-.15.06h-.14v-.21a.37.37,0,0,0,.15,0l.16-.09.13-.1.07-.07H113v1.53Z"/><path class="cls-18" d="M118.56,139.36a1.34,1.34,0,0,1,0-.24.7.7,0,0,1,.08-.21.78.78,0,0,1,.15-.19,1.4,1.4,0,0,1,.25-.18l.19-.09.18-.1a.63.63,0,0,0,.13-.11.22.22,0,0,0,0-.15.25.25,0,0,0,0-.1.28.28,0,0,0-.08-.09l-.11-.07h-.33l-.13.07-.1.08-.08.08-.18-.2.08-.08.15-.09.21-.08a.94.94,0,0,1,.26,0,.81.81,0,0,1,.25,0,.58.58,0,0,1,.2.1.49.49,0,0,1,.12.16.45.45,0,0,1,0,.2.41.41,0,0,1-.06.21.68.68,0,0,1-.13.16l-.16.11-.16.08-.15.08-.16.11a.78.78,0,0,0-.13.13.38.38,0,0,0-.08.16h1.06v.24Z"/><path class="cls-18" d="M120.22,139.36a1.34,1.34,0,0,1,0-.24.7.7,0,0,1,.08-.21.78.78,0,0,1,.15-.19,1.4,1.4,0,0,1,.25-.18l.19-.09.18-.1a.63.63,0,0,0,.13-.11.22.22,0,0,0,0-.15.25.25,0,0,0,0-.1.28.28,0,0,0-.08-.09l-.08,0h-.33l-.13.07-.1.08-.08.08-.18-.2.08-.08.15-.09.21-.08a.94.94,0,0,1,.26,0,.81.81,0,0,1,.25,0,.58.58,0,0,1,.2.1.49.49,0,0,1,.12.16.45.45,0,0,1,0,.2.41.41,0,0,1-.06.21.68.68,0,0,1-.13.16l-.16.11-.16.08-.15.08-.16.11a.78.78,0,0,0-.13.13.38.38,0,0,0-.08.16h1.06v.24Z"/><path class="cls-18" d="M126.74,139.36a1.34,1.34,0,0,1,0-.24.7.7,0,0,1,.08-.21.78.78,0,0,1,.15-.19,1.4,1.4,0,0,1,.25-.18l.19-.09.18-.1a.63.63,0,0,0,.13-.11.22.22,0,0,0,0-.15.25.25,0,0,0,0-.1.28.28,0,0,0-.08-.09l-.11-.07h-.33l-.13.07-.1.08-.08.08-.2-.19.08-.08.15-.09.21-.08a.94.94,0,0,1,.26,0,.81.81,0,0,1,.25,0,.58.58,0,0,1,.2.1.49.49,0,0,1,.12.16.45.45,0,0,1,0,.2.41.41,0,0,1-.06.21.68.68,0,0,1-.13.16l-.16.11-.16.08-.15.08-.16.11a.78.78,0,0,0-.13.13.38.38,0,0,0-.08.16h1.06v.24Z"/><path class="cls-18" d="M129.38,138.62a.49.49,0,0,1,.31.19.57.57,0,0,1,.11.37.62.62,0,0,1-.06.26.57.57,0,0,1-.15.2.7.7,0,0,1-.24.13,5.65,5.65,0,0,1-.73,0,.67.67,0,0,1-.28-.25l.19-.18a.54.54,0,0,0,.19.2.61.61,0,0,0,.32.08.53.53,0,0,0,.34-.09.35.35,0,0,0,.12-.29.4.4,0,0,0-.13-.31.57.57,0,0,0-.39-.11h-.08v-.24H129a.5.5,0,0,0,.34-.1.35.35,0,0,0,.12-.27.28.28,0,0,0-.11-.24.49.49,0,0,0-.29-.08.59.59,0,0,0-.3.08.51.51,0,0,0-.2.21l-.17-.17a.52.52,0,0,1,.11-.14.76.76,0,0,1,.16-.11l.2-.08h.23a.86.86,0,0,1,.27,0,.65.65,0,0,1,.21.11.49.49,0,0,1,.14.17.54.54,0,0,1,0,.23.58.58,0,0,1,0,.18.51.51,0,0,1-.08.15.44.44,0,0,1-.12.11A.45.45,0,0,1,129.38,138.62Z"/><path class="cls-18" d="M134.9,139.36a1.34,1.34,0,0,1,0-.24.7.7,0,0,1,.08-.21.78.78,0,0,1,.15-.19,1.4,1.4,0,0,1,.25-.18l.19-.09.18-.1a.63.63,0,0,0,.13-.11.22.22,0,0,0,0-.15.25.25,0,0,0,0-.1.28.28,0,0,0-.08-.09l-.11-.07h-.33l-.13.07-.1.08-.08.08-.18-.2.08-.08.15-.09.21-.08a.94.94,0,0,1,.26,0,.81.81,0,0,1,.25,0,.58.58,0,0,1,.2.1.49.49,0,0,1,.12.16.45.45,0,0,1,0,.2.41.41,0,0,1-.06.21.68.68,0,0,1-.13.16l-.16.11-.16.08-.15.08-.16.11a.78.78,0,0,0-.13.13.38.38,0,0,0-.08.16h1.06v.24Z"/><path class="cls-18" d="M137.5,139.74v-.53h-1V139l1.08-1.4h.19V139H138v.24h-.27v.54Zm-.72-.77h.74V138Z"/><path class="cls-18" d="M143.1,139.36a1.34,1.34,0,0,1,0-.24.7.7,0,0,1,.08-.21.78.78,0,0,1,.15-.19,1.4,1.4,0,0,1,.25-.18l.19-.09.18-.1a.63.63,0,0,0,.13-.11.22.22,0,0,0,0-.15.25.25,0,0,0,0-.1.28.28,0,0,0-.08-.09l-.11-.07h-.33l-.13.07-.1.08-.08.08-.18-.2.08-.08.15-.09.21-.08a.94.94,0,0,1,.26,0,.81.81,0,0,1,.25,0,.58.58,0,0,1,.2.1.49.49,0,0,1,.12.16.45.45,0,0,1,0,.2.41.41,0,0,1-.06.21.68.68,0,0,1-.13.16l-.16.11-.16.08-.15.08-.16.11a.78.78,0,0,0-.13.13.38.38,0,0,0-.08.16h1.06v.24Z"/><path class="cls-18" d="M145.5,138.39a.78.78,0,0,1,.28,0,.67.67,0,0,1,.23.14.66.66,0,0,1,.15.23.72.72,0,0,1,.06.28.73.73,0,0,1-.06.3.69.69,0,0,1-.17.24.74.74,0,0,1-.24.15.88.88,0,0,1-.3.06.82.82,0,0,1-.42-.11.73.73,0,0,1-.28-.3l.17-.15a.68.68,0,0,0,.24.23.59.59,0,0,0,.31.08.54.54,0,0,0,.2,0,.49.49,0,0,0,.16-.1.45.45,0,0,0,.1-.15.52.52,0,0,0,0-.2.48.48,0,0,0,0-.19.44.44,0,0,0-.1-.15.45.45,0,0,0-.15-.09.5.5,0,0,0-.19,0,.55.55,0,0,0-.25.06.5.5,0,0,0-.19.17h-.24v-.67l.12-.6H146v.22h-.87l-.13.71a.5.5,0,0,1,.17-.11A.62.62,0,0,1,145.5,138.39Z"/><path class="cls-18" d="M151.23,139.36a1.34,1.34,0,0,1,0-.24.7.7,0,0,1,.08-.21.78.78,0,0,1,.15-.19,1.4,1.4,0,0,1,.25-.18l.19-.09.18-.1a.63.63,0,0,0,.13-.11.22.22,0,0,0,0-.15.25.25,0,0,0,0-.1.28.28,0,0,0-.08-.09l-.11-.07h-.33l-.13.07-.1.08-.08.08-.2-.19.08-.08.15-.09.21-.08a.94.94,0,0,1,.26,0,.81.81,0,0,1,.25,0,.58.58,0,0,1,.2.1.49.49,0,0,1,.12.16.45.45,0,0,1,0,.2.41.41,0,0,1-.06.21.68.68,0,0,1-.13.16l-.16.11-.16.08-.15.08-.16.11a.78.78,0,0,0-.13.13.38.38,0,0,0-.08.16h1.06v.24Z"/><path class="cls-18" d="M154.48,138.63a.73.73,0,0,1-.06.29.74.74,0,0,1-.17.24.78.78,0,0,1-.25.16.82.82,0,0,1-.31.06.8.8,0,0,1-.32-.07.73.73,0,0,1-.25-.19.88.88,0,0,1-.16-.3,1.27,1.27,0,0,1-.06-.4,2.44,2.44,0,0,1,.06-.57,1.25,1.25,0,0,1,.17-.4.73.73,0,0,1,.26-.24.72.72,0,0,1,.34-.08.75.75,0,0,1,.4.1.72.72,0,0,1,.27.29l-.17.16a.53.53,0,0,0-.5-.32.46.46,0,0,0-.23.06.53.53,0,0,0-.18.17.89.89,0,0,0-.11.27,1.6,1.6,0,0,0,0,.37.55.55,0,0,1,.22-.25.64.64,0,0,1,.35-.09.79.79,0,0,1,.3.06.76.76,0,0,1,.24.16.73.73,0,0,1,.16.24A.72.72,0,0,1,154.48,138.63Zm-.79.53a.49.49,0,0,0,.2,0,.53.53,0,0,0,.17-.11.55.55,0,0,0,.11-.17.5.5,0,0,0,0-.21.51.51,0,0,0,0-.2.53.53,0,0,0-.11-.17.57.57,0,0,0-.17-.11.52.52,0,0,0-.4,0,.57.57,0,0,0-.17.11.52.52,0,0,0-.11.17.49.49,0,0,0,0,.2.49.49,0,0,0,0,.21.54.54,0,0,0,.28.28.49.49,0,0,0,.21,0Z"/><path class="cls-18" d="M159.5,139.36a1.34,1.34,0,0,1,0-.24.7.7,0,0,1,.08-.21.78.78,0,0,1,.15-.19,1.4,1.4,0,0,1,.25-.18l.19-.09.18-.1a.63.63,0,0,0,.13-.11.22.22,0,0,0,0-.15.25.25,0,0,0,0-.1.28.28,0,0,0-.08-.09l-.11-.07H160l-.13.07-.1.08-.08.08-.18-.2.08-.08.15-.09.21-.08a.94.94,0,0,1,.26,0,.81.81,0,0,1,.25,0,.58.58,0,0,1,.2.1.49.49,0,0,1,.12.16.45.45,0,0,1,0,.2.41.41,0,0,1-.06.21.68.68,0,0,1-.13.16l-.16.11-.16.08-.15.08-.16.11a.78.78,0,0,0-.13.13.38.38,0,0,0-.08.16h1.06v.24Z"/><path class="cls-18" d="M162.25,137.8h-1.14v-.25h1.56l-1.08,2.19h-.31Z"/><path class="cls-18" d="M110.27,146a1.34,1.34,0,0,1,0-.24.7.7,0,0,1,.08-.21.78.78,0,0,1,.15-.19,1.4,1.4,0,0,1,.25-.18l.19-.09.18-.1a.63.63,0,0,0,.13-.11.22.22,0,0,0,0-.15.25.25,0,0,0,0-.1.28.28,0,0,0-.08-.09l-.11-.07h-.33l-.13.07-.1.08-.08.08-.18-.2.08-.08.15-.09.21-.08a.94.94,0,0,1,.26,0,.81.81,0,0,1,.25,0,.58.58,0,0,1,.2.1.49.49,0,0,1,.12.16.45.45,0,0,1,0,.2.41.41,0,0,1-.06.21.68.68,0,0,1-.13.16l-.16.11-.16.08-.15.08-.16.11a.78.78,0,0,0-.13.13.38.38,0,0,0-.08.16h1.13V146Z"/><path class="cls-18" d="M113.5,145.39a.56.56,0,0,1-.07.27.62.62,0,0,1-.17.21.78.78,0,0,1-.24.13,2,2,0,0,1-.61,0,.76.76,0,0,1-.24-.14.64.64,0,0,1-.16-.21.58.58,0,0,1-.06-.26.48.48,0,0,1,0-.19A.63.63,0,0,1,112,145a.66.66,0,0,1,.13-.12l.15-.08-.13-.08-.11-.1a.5.5,0,0,1-.08-.12.4.4,0,0,1,0-.15.48.48,0,0,1,.07-.24.61.61,0,0,1,.16-.18.73.73,0,0,1,.23-.11.87.87,0,0,1,.24,0,.88.88,0,0,1,.25,0,.74.74,0,0,1,.23.11.59.59,0,0,1,.17.18.47.47,0,0,1,.07.24.4.4,0,0,1-.1.27.65.65,0,0,1-.24.18l.16.08a.62.62,0,0,1,.13.12.56.56,0,0,1,.09.16A.52.52,0,0,1,113.5,145.39Zm-.27,0a.36.36,0,0,0,0-.18.44.44,0,0,0-.11-.13A.5.5,0,0,0,113,145h-.36a.49.49,0,0,0-.16.08.42.42,0,0,0-.11.13.38.38,0,0,0,0,.18.34.34,0,0,0,0,.18.4.4,0,0,0,.11.13.53.53,0,0,0,.16.08h.18a.56.56,0,0,0,.34-.11.44.44,0,0,0,.11-.13.33.33,0,0,0,0-.22Zm-.94-.94a.28.28,0,0,0,0,.15.35.35,0,0,0,.1.1l.13.07h.3l.14-.07a.35.35,0,0,0,.1-.11.29.29,0,0,0,0-.29.35.35,0,0,0-.09-.1.44.44,0,0,0-.14-.07h-.32a.39.39,0,0,0-.13.07.37.37,0,0,0-.09.11l0,0Z"/><path class="cls-18" d="M118.47,146a1.34,1.34,0,0,1,0-.24.7.7,0,0,1,.08-.21.78.78,0,0,1,.15-.19,1.4,1.4,0,0,1,.25-.18l.19-.09.18-.1a.63.63,0,0,0,.13-.11.22.22,0,0,0,0-.15.25.25,0,0,0,0-.1.28.28,0,0,0-.08-.09l-.11-.07H119l-.13.07-.1.08-.08.08-.18-.2.08-.08.15-.09.21-.08a.94.94,0,0,1,.26,0,.81.81,0,0,1,.25,0,.58.58,0,0,1,.2.1.49.49,0,0,1,.12.16.45.45,0,0,1,0,.2.41.41,0,0,1-.06.21.68.68,0,0,1-.13.16l-.16.11-.16.08-.15.08-.16.11a.78.78,0,0,0-.13.13.38.38,0,0,0-.08.16h1.06V146Z"/><path class="cls-18" d="M120.15,145a.73.73,0,0,1,.06-.3.75.75,0,0,1,.17-.24.79.79,0,0,1,.25-.16.81.81,0,0,1,.31-.06.8.8,0,0,1,.32.07.71.71,0,0,1,.25.19.88.88,0,0,1,.16.3,1.27,1.27,0,0,1,.06.4,2.49,2.49,0,0,1-.06.57,1.27,1.27,0,0,1-.17.4.69.69,0,0,1-.6.33.76.76,0,0,1-.39-.1.72.72,0,0,1-.27-.29l.17-.17a.55.55,0,0,0,.5.32.47.47,0,0,0,.4-.23,1.17,1.17,0,0,0,.16-.64.55.55,0,0,1-.22.25.63.63,0,0,1-.35.09.77.77,0,0,1-.3-.06.74.74,0,0,1-.24-.16.73.73,0,0,1-.22-.53Zm.78-.53a.49.49,0,0,0-.21,0,.53.53,0,0,0-.17.11.56.56,0,0,0-.11.17.52.52,0,0,0,0,.4.54.54,0,0,0,.11.17.56.56,0,0,0,.17.11.51.51,0,0,0,.4,0,.57.57,0,0,0,.17-.11.52.52,0,0,0,.11-.17.48.48,0,0,0,0-.21.5.5,0,0,0,0-.2.53.53,0,0,0-.28-.28.5.5,0,0,0-.23,0Z"/><path class="cls-18" d="M127.59,145.24a.49.49,0,0,1,.31.19.57.57,0,0,1,.11.37.62.62,0,0,1-.06.26.57.57,0,0,1-.15.2.7.7,0,0,1-.24.13,1.8,1.8,0,0,1-.72-.08.67.67,0,0,1-.28-.25l.19-.18a.54.54,0,0,0,.19.2.61.61,0,0,0,.32.08.53.53,0,0,0,.34-.09.35.35,0,0,0,.12-.29.4.4,0,0,0-.13-.31.57.57,0,0,0-.39-.11h-.08v-.24h.08a.5.5,0,0,0,.34-.1.35.35,0,0,0,.12-.27.28.28,0,0,0-.11-.24.49.49,0,0,0-.29-.08.59.59,0,0,0-.3.08.51.51,0,0,0-.2.21l-.17-.17a.52.52,0,0,1,.11-.14.76.76,0,0,1,.16-.11l.2-.08h.23a.86.86,0,0,1,.27,0,.65.65,0,0,1,.21.11.49.49,0,0,1,.14.17.54.54,0,0,1,0,.23.58.58,0,0,1,0,.18.51.51,0,0,1-.08.15.44.44,0,0,1-.12.11A.45.45,0,0,1,127.59,145.24Z"/><path class="cls-18" d="M129.9,145.06a1.18,1.18,0,0,1-.06.38.94.94,0,0,1-.17.3.75.75,0,0,1-.25.2.72.72,0,0,1-.31.07.73.73,0,0,1-.31-.07.74.74,0,0,1-.24-.2.94.94,0,0,1-.16-.3,1.24,1.24,0,0,1,0-.75.94.94,0,0,1,.16-.3.76.76,0,0,1,.24-.2.7.7,0,0,1,.31-.08.69.69,0,0,1,.31.08.76.76,0,0,1,.25.2.94.94,0,0,1,.17.3A1.18,1.18,0,0,1,129.9,145.06Zm-.27,0a1,1,0,0,0,0-.28.7.7,0,0,0-.1-.22.5.5,0,0,0-.16-.14.43.43,0,0,0-.21,0,.44.44,0,0,0-.21,0,.47.47,0,0,0-.16.14.7.7,0,0,0-.1.22,1.06,1.06,0,0,0,0,.57.67.67,0,0,0,.1.22.46.46,0,0,0,.16.14.44.44,0,0,0,.21,0,.43.43,0,0,0,.21,0,.5.5,0,0,0,.16-.14.67.67,0,0,0,.1-.22A1,1,0,0,0,129.63,145.06Z"/><path class="cls-18" d="M136,145.24a.49.49,0,0,1,.31.19.57.57,0,0,1,.11.37.62.62,0,0,1-.06.26.57.57,0,0,1-.15.2.7.7,0,0,1-.24.13,1.8,1.8,0,0,1-.72-.08.67.67,0,0,1-.28-.25l.19-.18a.54.54,0,0,0,.19.2.61.61,0,0,0,.32.08.53.53,0,0,0,.34-.09.35.35,0,0,0,.12-.29.4.4,0,0,0-.13-.31.57.57,0,0,0-.39-.11h-.08v-.24h.08a.5.5,0,0,0,.34-.1.35.35,0,0,0,.12-.27.28.28,0,0,0-.11-.24.49.49,0,0,0-.29-.08.59.59,0,0,0-.3.08.51.51,0,0,0-.2.21l-.17-.17a.52.52,0,0,1,.11-.14.76.76,0,0,1,.16-.11l.2-.08h.23a.86.86,0,0,1,.27,0,.65.65,0,0,1,.21.11.49.49,0,0,1,.14.17.54.54,0,0,1,0,.23.58.58,0,0,1,0,.18.51.51,0,0,1-.08.15.44.44,0,0,1-.12.11A.45.45,0,0,1,136,145.24Z"/><path class="cls-18" d="M137.92,145.72V146H136.8v-.24h.44v-1.21l-.08.08-.13.08-.15.06h-.14v-.26a.37.37,0,0,0,.15,0l.16-.09.13-.1.07-.07h.28v1.53Z"/><path class="cls-18" d="M121.37,119.25v.24h-1.12v-.24h.44V118l-.08.08-.13.08-.15.06h-.14V118a.37.37,0,0,0,.15,0l.16-.09.13-.1.07-.07H121v1.53Z"/><path class="cls-18" d="M128.23,119.49a1.34,1.34,0,0,1,0-.24.7.7,0,0,1,.08-.21.78.78,0,0,1,.15-.19,1.4,1.4,0,0,1,.25-.18l.19-.09.18-.1a.63.63,0,0,0,.13-.11.22.22,0,0,0,0-.15.25.25,0,0,0,0-.1.28.28,0,0,0-.08-.09l-.11-.07h-.33l-.13.07-.1.08-.08.08-.18-.2.08-.08.15-.09.21-.08a.94.94,0,0,1,.26,0,.81.81,0,0,1,.25,0,.58.58,0,0,1,.2.1.49.49,0,0,1,.12.16.45.45,0,0,1,0,.2.41.41,0,0,1-.06.21.68.68,0,0,1-.13.16l-.16.11-.16.08-.15.08-.16.11a.78.78,0,0,0-.13.13.38.38,0,0,0-.08.16h1.06v.24Z"/><path class="cls-18" d="M137.39,118.76a.49.49,0,0,1,.31.19.57.57,0,0,1,.11.37.62.62,0,0,1-.06.26.57.57,0,0,1-.15.2.7.7,0,0,1-.24.13,1.8,1.8,0,0,1-.72-.08.67.67,0,0,1-.28-.25l.19-.18a.54.54,0,0,0,.19.2.61.61,0,0,0,.32.08.53.53,0,0,0,.34-.09.35.35,0,0,0,.12-.29.4.4,0,0,0-.13-.31.57.57,0,0,0-.39-.11h-.08v-.24H137a.5.5,0,0,0,.34-.1.35.35,0,0,0,.12-.27.28.28,0,0,0-.11-.24.49.49,0,0,0-.29-.08.59.59,0,0,0-.3.08.51.51,0,0,0-.2.21l-.17-.17a.52.52,0,0,1,.11-.14.76.76,0,0,1,.16-.11l.2-.08h.23a.86.86,0,0,1,.27,0,.65.65,0,0,1,.21.11.49.49,0,0,1,.14.17.54.54,0,0,1,0,.23.58.58,0,0,1,0,.18.51.51,0,0,1-.08.15.44.44,0,0,1-.12.11A.45.45,0,0,1,137.39,118.76Z"/><path class="cls-18" d="M145.51,119.89v-.53h-1v-.24l1.08-1.4h.19v1.39h.27v.24h-.27v.53Zm-.72-.77h.78v-.94Z"/><path class="cls-18" d="M153.52,118.52a.78.78,0,0,1,.28,0,.67.67,0,0,1,.23.14.66.66,0,0,1,.15.23.72.72,0,0,1,.06.28.73.73,0,0,1-.06.3.69.69,0,0,1-.17.24.74.74,0,0,1-.24.15.88.88,0,0,1-.3.06.82.82,0,0,1-.42-.11.73.73,0,0,1-.28-.3l.17-.15a.68.68,0,0,0,.24.23.59.59,0,0,0,.31.08.54.54,0,0,0,.2,0,.49.49,0,0,0,.16-.1.45.45,0,0,0,.1-.15.52.52,0,0,0,0-.2.48.48,0,0,0,0-.19.44.44,0,0,0-.1-.15.45.45,0,0,0-.15-.09.5.5,0,0,0-.19,0,.55.55,0,0,0-.25.06.5.5,0,0,0-.19.17h-.24v-.67l.12-.6H154V118h-.87l-.13.71a.5.5,0,0,1,.17-.11A.62.62,0,0,1,153.52,118.52Z"/><path class="cls-18" d="M162.53,118.77a.73.73,0,0,1-.06.29.74.74,0,0,1-.17.24.78.78,0,0,1-.25.16.82.82,0,0,1-.31.06.8.8,0,0,1-.32-.07.73.73,0,0,1-.25-.19.88.88,0,0,1-.16-.3,1.27,1.27,0,0,1-.06-.4A2.44,2.44,0,0,1,161,118a1.25,1.25,0,0,1,.17-.4.73.73,0,0,1,.26-.24.72.72,0,0,1,.34-.08.75.75,0,0,1,.4.1.72.72,0,0,1,.27.29l-.17.16a.53.53,0,0,0-.5-.32.46.46,0,0,0-.23.06.53.53,0,0,0-.18.17.89.89,0,0,0-.11.27,1.6,1.6,0,0,0,0,.37.55.55,0,0,1,.22-.25.64.64,0,0,1,.35-.09.79.79,0,0,1,.3.06.76.76,0,0,1,.24.16.73.73,0,0,1,.16.24A.72.72,0,0,1,162.53,118.77Zm-.79.53a.49.49,0,0,0,.2,0,.53.53,0,0,0,.17-.11.55.55,0,0,0,.11-.17.5.5,0,0,0,0-.21.51.51,0,0,0,0-.2.53.53,0,0,0-.11-.17.57.57,0,0,0-.17-.11.52.52,0,0,0-.4,0,.57.57,0,0,0-.17.11.52.52,0,0,0-.11.17.49.49,0,0,0,0,.2.49.49,0,0,0,0,.21.54.54,0,0,0,.28.28h.21Z"/><path class="cls-18" d="M111.89,110.3l-.08-.06-.13-.07-.17-.06h-.19a.42.42,0,0,0-.25.07.21.21,0,0,0-.08.18.18.18,0,0,0,0,.11.26.26,0,0,0,.09.08l.15.06.21.06.28.09a.77.77,0,0,1,.22.12.5.5,0,0,1,.13.17.57.57,0,0,1,0,.24.62.62,0,0,1-.07.29.56.56,0,0,1-.17.2.77.77,0,0,1-.25.11,1.27,1.27,0,0,1-.3,0,1.6,1.6,0,0,1-.47-.08,1.46,1.46,0,0,1-.42-.21l.18-.36.09.07.17.08.22.08a.94.94,0,0,0,.24,0q.34,0,.34-.22a.18.18,0,0,0,0-.11.33.33,0,0,0-.11-.08l-.17-.07-.23-.07-.26-.09a.7.7,0,0,1-.19-.11.42.42,0,0,1-.11-.16.54.54,0,0,1,0-.21.66.66,0,0,1,.06-.29.57.57,0,0,1,.17-.21.76.76,0,0,1,.24-.13,1,1,0,0,1,.3,0,1.19,1.19,0,0,1,.41.07,1.56,1.56,0,0,1,.33.17Z"/><path class="cls-18" d="M161.9,110.3l-.08-.06-.13-.07-.17-.06h-.19a.42.42,0,0,0-.25.07.21.21,0,0,0-.08.18.18.18,0,0,0,0,.11.26.26,0,0,0,.09.08l.15.06.21.06.28.09a.77.77,0,0,1,.22.12.5.5,0,0,1,.13.17.56.56,0,0,1,0,.24.62.62,0,0,1-.07.29.56.56,0,0,1-.17.2.77.77,0,0,1-.25.11,1.27,1.27,0,0,1-.3,0,1.6,1.6,0,0,1-.47-.08,1.46,1.46,0,0,1-.42-.21l.18-.36.09.07.17.08.22.08a.94.94,0,0,0,.24,0q.34,0,.34-.22a.18.18,0,0,0,0-.11.33.33,0,0,0-.11-.08l-.17-.07-.23-.07-.26-.09a.7.7,0,0,1-.19-.11.42.42,0,0,1-.11-.16.54.54,0,0,1,0-.21.66.66,0,0,1,.06-.29.57.57,0,0,1,.17-.21.76.76,0,0,1,.24-.13,1,1,0,0,1,.3,0,1.19,1.19,0,0,1,.41.07,1.56,1.56,0,0,1,.33.17Z"/><path class="cls-18" d="M120.65,111.87v-1.41l-.55,1.05h-.23l-.55-1.05v1.41h-.41v-2.13h.44L120,111l.64-1.21h.46v2.13Z"/><path class="cls-18" d="M129.14,110.1h-.68v1.77h-.41V110.1h-.68v-.37h1.78Z"/><path class="cls-18" d="M135.78,109.75h.39l.24.71.24-.71H137l-.37.94.27.68.6-1.66H138l-.87,2.13h-.35l-.37-.94-.37.94h-.35l-.87-2.13h.4l.6,1.66.26-.68Z"/><path class="cls-18" d="M146,110.1h-.68v1.77h-.41V110.1h-.68v-.37H146Z"/><path class="cls-18" d="M152.67,111.87v-2.13h1.38v.37h-.94v.55H154V111h-.85v.89Z"/><path class="cls-18" d="M111,102.16v2.3h-.7v-3.58h.54l1.88,2.35v-2.35h.7v3.58h-.57Z"/><path class="cls-18" d="M115.28,104.51a1.45,1.45,0,0,1-.58-.11,1.31,1.31,0,0,1-.43-.3,1.33,1.33,0,0,1-.27-.43,1.47,1.47,0,0,1,0-1,1.34,1.34,0,0,1,.27-.43,1.31,1.31,0,0,1,.43-.3,1.45,1.45,0,0,1,.58-.11,1.43,1.43,0,0,1,.57.11,1.31,1.31,0,0,1,.43.3,1.34,1.34,0,0,1,.27.43,1.47,1.47,0,0,1,0,1,1.35,1.35,0,0,1-.27.43,1.28,1.28,0,0,1-.43.3A1.45,1.45,0,0,1,115.28,104.51Zm-.69-1.37a.94.94,0,0,0,.06.32.79.79,0,0,0,.15.25.66.66,0,0,0,.22.16.67.67,0,0,0,.55,0,.66.66,0,0,0,.22-.16.78.78,0,0,0,.15-.25.94.94,0,0,0,0-.64.78.78,0,0,0-.15-.25.66.66,0,0,0-.22-.16.65.65,0,0,0-.27-.06.62.62,0,0,0-.27.06.69.69,0,0,0-.22.17.78.78,0,0,0-.15.25A.94.94,0,0,0,114.59,103.14Z"/><path class="cls-18" d="M117.73,104.46l-.94-2.65h.7l.67,2.09.68-2.09h.64l-.94,2.65Z"/><path class="cls-18" d="M120.92,104.51a1.47,1.47,0,0,1-.57-.11,1.3,1.3,0,0,1-.72-.73,1.39,1.39,0,0,1-.09-.52,1.48,1.48,0,0,1,.09-.54,1.3,1.3,0,0,1,.27-.44,1.33,1.33,0,0,1,.44-.3,1.46,1.46,0,0,1,.58-.11,1.43,1.43,0,0,1,.57.11,1.34,1.34,0,0,1,.43.3,1.28,1.28,0,0,1,.27.43,1.45,1.45,0,0,1,.09.52v.12a.56.56,0,0,1,0,.1h-2a.76.76,0,0,0,.08.27.68.68,0,0,0,.38.34.71.71,0,0,0,.25,0,.78.78,0,0,0,.38-.09.52.52,0,0,0,.24-.26l.58.16a1.19,1.19,0,0,1-.47.5A1.45,1.45,0,0,1,120.92,104.51Zm.69-1.59a.71.71,0,0,0-.22-.48.69.69,0,0,0-.94,0,.71.71,0,0,0-.15.21.73.73,0,0,0-.07.26Z"/><path class="cls-18" d="M126.83,104.46h-.68V103a.78.78,0,0,0-.11-.46.35.35,0,0,0-.3-.15.57.57,0,0,0-.38.15.85.85,0,0,0-.25.4v1.54h-.68V103a.78.78,0,0,0-.11-.46.35.35,0,0,0-.3-.15.57.57,0,0,0-.38.15.83.83,0,0,0-.25.4v1.54h-.68v-2.65h.61v.49a1,1,0,0,1,.4-.4,1.2,1.2,0,0,1,.58-.14.74.74,0,0,1,.52.16.73.73,0,0,1,.24.4,1.14,1.14,0,0,1,.4-.41,1.1,1.1,0,0,1,.57-.14.79.79,0,0,1,.4.09.66.66,0,0,1,.24.24,1,1,0,0,1,.12.33,2.16,2.16,0,0,1,0,.38Z"/><path class="cls-18" d="M128.92,104.51a1.06,1.06,0,0,1-.54-.13A1,1,0,0,1,128,104v.46h-.59v-3.68h.68v1.51a1,1,0,0,1,.37-.38,1,1,0,0,1,.54-.13,1,1,0,0,1,.47.11,1.19,1.19,0,0,1,.37.3,1.36,1.36,0,0,1,.24.44,1.68,1.68,0,0,1,.08.53,1.49,1.49,0,0,1-.09.54,1.35,1.35,0,0,1-.26.43,1.22,1.22,0,0,1-.4.29A1.14,1.14,0,0,1,128.92,104.51Zm-.19-.57a.7.7,0,0,0,.3-.07.72.72,0,0,0,.24-.17.78.78,0,0,0,.15-.24.87.87,0,0,0,.06-.3.94.94,0,0,0,0-.31.8.8,0,0,0-.14-.25.72.72,0,0,0-.22-.18.59.59,0,0,0-.27-.07.62.62,0,0,0-.4.15,1,1,0,0,0-.27.37v.63a.58.58,0,0,0,.1.18.76.76,0,0,0,.15.14.73.73,0,0,0,.19.09l.18,0Z"/><path class="cls-18" d="M131.85,104.51a1.47,1.47,0,0,1-.57-.11,1.3,1.3,0,0,1-.72-.73,1.39,1.39,0,0,1-.09-.52,1.48,1.48,0,0,1,.09-.54,1.3,1.3,0,0,1,.27-.44,1.33,1.33,0,0,1,.44-.3,1.46,1.46,0,0,1,.58-.11,1.43,1.43,0,0,1,.57.11,1.34,1.34,0,0,1,.43.3,1.28,1.28,0,0,1,.27.43,1.45,1.45,0,0,1,.09.52v.12a.56.56,0,0,1,0,.1h-2.06a.76.76,0,0,0,.08.27.68.68,0,0,0,.38.34.71.71,0,0,0,.25,0,.78.78,0,0,0,.38-.09.52.52,0,0,0,.24-.26l.58.16a1.19,1.19,0,0,1-.47.5A1.45,1.45,0,0,1,131.85,104.51Zm.69-1.59a.71.71,0,0,0-.22-.48.69.69,0,0,0-.94,0,.71.71,0,0,0-.15.21.73.73,0,0,0-.07.26Z"/><path class="cls-18" d="M135.22,102.41a1.33,1.33,0,0,0-.55.12.7.7,0,0,0-.35.34v1.6h-.68v-2.65h.63v.57a1.17,1.17,0,0,1,.17-.24,1.26,1.26,0,0,1,.21-.19.94.94,0,0,1,.23-.12.61.61,0,0,1,.22,0h.12Z"/><path class="cls-2" d="M108.18,92.65a1.73,1.73,0,0,1,0,3.42"/><path class="cls-2" d="M112.62,92.65a1.73,1.73,0,0,1,0,3.42"/><path class="cls-2" d="M117,92.65a1.73,1.73,0,0,1,0,3.42"/><path class="cls-2" d="M121.36,92.65a1.73,1.73,0,0,1,0,3.42"/><path class="cls-2" d="M125.75,92.65a1.73,1.73,0,0,1,0,3.42"/><path class="cls-2" d="M130.13,92.65a1.73,1.73,0,0,1,0,3.42"/><path class="cls-2" d="M134.52,92.65a1.73,1.73,0,0,1,0,3.42"/><path class="cls-2" d="M143.35,92.65a1.73,1.73,0,0,1,0,3.42"/><path class="cls-2" d="M147.74,92.65a1.73,1.73,0,0,1,0,3.42"/><path class="cls-2" d="M152.17,92.65a1.73,1.73,0,0,1,0,3.42"/><path class="cls-2" d="M156.52,92.65a1.73,1.73,0,0,1,0,3.42"/><path class="cls-2" d="M160.91,92.65a1.73,1.73,0,0,1,0,3.42"/><path class="cls-2" d="M165.3,92.65a1.73,1.73,0,0,1,0,3.42"/><path class="cls-2" d="M169.7,92.65a1.73,1.73,0,0,1,0,3.42"/><path class="cls-2" d="M138.92,92.65a1.73,1.73,0,0,1,0,3.42"/><circle class="cls-2" cx="108.08" cy="96.27" r="0.88"/><circle class="cls-2" cx="112.57" cy="96.27" r="0.88"/><circle class="cls-2" cx="117.06" cy="96.27" r="0.88"/><circle class="cls-2" cx="121.55" cy="96.27" r="0.88"/><circle class="cls-2" cx="126.05" cy="96.27" r="0.88"/><circle class="cls-2" cx="130.55" cy="96.27" r="0.88"/><circle class="cls-2" cx="135.04" cy="96.27" r="0.88"/><circle class="cls-2" cx="138.93" cy="96.27" r="0.88"/><circle class="cls-2" cx="143.48" cy="96.27" r="0.88"/><circle class="cls-2" cx="147.94" cy="96.27" r="0.88"/><circle class="cls-2" cx="152.26" cy="96.27" r="0.88"/><circle class="cls-2" cx="156.68" cy="96.27" r="0.88"/><circle class="cls-2" cx="160.7" cy="96.27" r="0.88"/><circle class="cls-2" cx="165.35" cy="96.27" r="0.88"/><circle class="cls-2" cx="169.66" cy="96.27" r="0.88"/></g></g></g></g></svg>