<svg xmlns="http://www.w3.org/2000/svg" xmlns:xlink="http://www.w3.org/1999/xlink" viewBox="0 0 187.58 180"><defs><style>.cls-1{fill:#ed0f0f;opacity:0.1;}.cls-2,.cls-3,.cls-4,.cls-5,.cls-6{fill:none;stroke:#0037ff;stroke-linecap:round;stroke-linejoin:round;}.cls-2{opacity:0.3;}.cls-2,.cls-4,.cls-5,.cls-6{isolation:isolate;}.cls-4{opacity:0.4;}.cls-5,.cls-7{opacity:0.6;}.cls-6{opacity:0.5;}.cls-8{fill:url(#Безымянный_градиент_2);}.cls-9{fill:url(#Безымянный_градиент_2-2);}.cls-10{fill:#4e11f4;}.cls-11{fill:#ffaf84;}.cls-12{fill:url(#Безымянный_градиент_2-3);}.cls-13{fill:url(#Безымянный_градиент_2-4);}.cls-14{fill:url(#Безымянный_градиент_11);}.cls-15{fill:url(#Безымянный_градиент_11-2);}.cls-16{fill:url(#Безымянный_градиент_11-3);}.cls-17{fill:url(#Безымянный_градиент_11-4);}.cls-18{fill:url(#Безымянный_градиент_11-5);}.cls-19{fill:url(#Безымянный_градиент_2-5);}.cls-20{fill:url(#Безымянный_градиент_11-6);}.cls-21{fill:url(#Безымянный_градиент_11-7);}.cls-22{fill:url(#Безымянный_градиент_14);}.cls-23{fill:url(#Безымянный_градиент_14-2);}.cls-24{fill:#541968;}.cls-25{fill:url(#Безымянный_градиент_14-3);}.cls-26{fill:url(#Безымянный_градиент_2-6);}.cls-27{fill:url(#Безымянный_градиент_2-7);}.cls-28{fill:url(#Безымянный_градиент_2-8);}.cls-29{fill:url(#Безымянный_градиент_2-9);}.cls-30{fill:url(#Безымянный_градиент_2-10);}.cls-31{fill:url(#Безымянный_градиент_22);}.cls-32{fill:url(#Безымянный_градиент_14-4);}.cls-33{fill:url(#Безымянный_градиент_14-5);}.cls-34{fill:url(#Безымянный_градиент_22-2);}</style><linearGradient id="Безымянный_градиент_2" x1="-347.78" y1="8259.01" x2="-328.46" y2="8224.42" gradientTransform="matrix(0.99, 0.16, 0.16, -0.99, -814.07, 8294.4)" gradientUnits="userSpaceOnUse"><stop offset="0" stop-color="#36078b"/><stop offset="1" stop-color="#16b1ff"/></linearGradient><linearGradient id="Безымянный_градиент_2-2" x1="-337.39" y1="8264.82" x2="-318.07" y2="8230.23" xlink:href="#Безымянный_градиент_2"/><linearGradient id="Безымянный_градиент_2-3" x1="-351.51" y1="8278.25" x2="-351.51" y2="8240.61" xlink:href="#Безымянный_градиент_2"/><linearGradient id="Безымянный_градиент_2-4" x1="-342.3" y1="8278.25" x2="-342.3" y2="8240.61" xlink:href="#Безымянный_градиент_2"/><linearGradient id="Безымянный_градиент_11" x1="-348.18" y1="8244.43" x2="-333.95" y2="8153.93" gradientTransform="matrix(0.99, 0.16, 0.16, -0.99, -814.07, 8294.4)" gradientUnits="userSpaceOnUse"><stop offset="0" stop-color="blue"/><stop offset="1" stop-color="#9e005d"/></linearGradient><linearGradient id="Безымянный_градиент_11-2" x1="383.44" y1="4820.76" x2="397.12" y2="4733.77" gradientTransform="matrix(0.99, -0.17, -0.17, -0.99, 571.27, 4900.62)" xlink:href="#Безымянный_градиент_11"/><linearGradient id="Безымянный_градиент_11-3" x1="-342.67" y1="8245.3" x2="-328.43" y2="8154.78" xlink:href="#Безымянный_градиент_11"/><linearGradient id="Безымянный_градиент_11-4" x1="-50.61" y1="7357.37" x2="-36.37" y2="7266.85" gradientTransform="matrix(1, 0.07, 0.07, -1, -325.38, 7436.08)" xlink:href="#Безымянный_градиент_11"/><linearGradient id="Безымянный_градиент_11-5" x1="-357.02" y1="8243.04" x2="-342.78" y2="8152.52" xlink:href="#Безымянный_градиент_11"/><linearGradient id="Безымянный_градиент_2-5" x1="-6219.31" y1="14404.55" x2="-6219.31" y2="14366.91" gradientTransform="matrix(0.57, 0.82, 0.82, -0.57, -8116.55, 13370.67)" xlink:href="#Безымянный_градиент_2"/><linearGradient id="Безымянный_градиент_11-6" x1="-350.37" y1="8292.13" x2="-334.73" y2="8273.82" xlink:href="#Безымянный_градиент_11"/><linearGradient id="Безымянный_градиент_11-7" x1="-349.04" y1="8293.18" x2="-333.46" y2="8274.94" xlink:href="#Безымянный_градиент_11"/><linearGradient id="Безымянный_градиент_14" x1="-13616.58" y1="14609.21" x2="-13616.58" y2="14574.54" gradientTransform="matrix(-0.06, 1.07, 1.01, 0.12, -15546.71, 12851.52)" gradientUnits="userSpaceOnUse"><stop offset="0" stop-color="#36078b"/><stop offset="1" stop-color="#168d68"/></linearGradient><linearGradient id="Безымянный_градиент_14-2" x1="-13518.9" y1="14639.25" x2="-13518.9" y2="14591.62" gradientTransform="matrix(-0.09, 1, 1, 0.09, -15807.24, 12254.41)" xlink:href="#Безымянный_градиент_14"/><linearGradient id="Безымянный_градиент_14-3" x1="-21136" y1="6629.41" x2="-21136" y2="6559.42" gradientTransform="translate(-21119.4 6688.53) rotate(180)" xlink:href="#Безымянный_градиент_14"/><linearGradient id="Безымянный_градиент_2-6" x1="-21137.77" y1="6485.3" x2="-21137.77" y2="6584.79" gradientTransform="translate(-21119.4 6688.53) rotate(180)" xlink:href="#Безымянный_градиент_2"/><linearGradient id="Безымянный_градиент_2-7" x1="-21125.76" y1="6485.3" x2="-21125.76" y2="6584.79" gradientTransform="translate(-21119.4 6688.53) rotate(180)" xlink:href="#Безымянный_градиент_2"/><linearGradient id="Безымянный_градиент_2-8" x1="-21130.64" y1="6485.3" x2="-21130.64" y2="6584.79" gradientTransform="translate(-21119.4 6688.53) rotate(180)" xlink:href="#Безымянный_градиент_2"/><linearGradient id="Безымянный_градиент_2-9" x1="-19655.67" y1="10103.68" x2="-19655.67" y2="10203.18" gradientTransform="matrix(-0.92, -0.38, 0.38, -0.92, -21902.15, 1995.65)" xlink:href="#Безымянный_градиент_2"/><linearGradient id="Безымянный_градиент_2-10" x1="-13932.32" y1="-5366.59" x2="-13932.32" y2="-5286.28" gradientTransform="matrix(-0.04, 1, -1, -0.04, -5786.47, 13819.02)" xlink:href="#Безымянный_градиент_2"/><linearGradient id="Безымянный_градиент_22" x1="-21083.49" y1="6694.79" x2="-21075.21" y2="6700.51" gradientTransform="translate(-21119.4 6688.53) rotate(180)" gradientUnits="userSpaceOnUse"><stop offset="0" stop-color="#2c27ce"/><stop offset="0.65" stop-color="#ef1d68"/><stop offset="1" stop-color="#efba92"/></linearGradient><linearGradient id="Безымянный_градиент_14-4" x1="45.14" y1="6644.96" x2="56.39" y2="6621.55" gradientTransform="matrix(1, 0, 0, -1, 0, 6688.53)" xlink:href="#Безымянный_градиент_14"/><linearGradient id="Безымянный_градиент_14-5" x1="29.5" y1="6640.09" x2="45.61" y2="6607.38" gradientTransform="matrix(1, 0, 0, -1, 0, 6688.53)" xlink:href="#Безымянный_градиент_14"/><linearGradient id="Безымянный_градиент_22-2" x1="15.63" y1="6654.22" x2="7.95" y2="6635.57" gradientTransform="matrix(1, 0, 0, -1, 0, 6688.53)" xlink:href="#Безымянный_градиент_22"/></defs><title>dorabotaem1</title><g id="Слой_2" data-name="Слой 2"><g id="Designed_by_Freepik" data-name="Designed by Freepik"><circle class="cls-1" cx="93.54" cy="90" r="90"/></g><g id="Objects"><g id="Слой_2-2" data-name="Слой 2"><g id="Designed_by_Freepik-2" data-name="Designed by Freepik"><polygon class="cls-2" points="187.08 23.5 187.08 139.56 33.69 138.21 33.69 33.8 187.08 23.5"/><polygon class="cls-3" points="175.66 30.14 175.66 135.29 28.46 135.29 28.46 39.47 175.66 30.14"/><polygon class="cls-4" points="66.84 99.58 98.17 98.86 98.17 55.81 66.84 57.38 66.84 99.58"/><polygon class="cls-5" points="71.32 84.14 34.8 85.34 34.8 46.37 71.32 44.22 71.32 84.14"/><path class="cls-3" d="M64.4,64.6c0,6.88-5.18,12.65-11.54,12.89S41.5,72.43,41.5,65.65,46.56,53.1,52.86,52.77,64.4,57.73,64.4,64.6Z"/><path class="cls-3" d="M61.57,64.74A10.08,10.08,0,0,1,58,72.47a9,9,0,0,1-2.11,1.34,8.62,8.62,0,0,1-1,.38l-.65.16a7.86,7.86,0,0,1-1.34.17,8,8,0,0,1-2.57-.32,8.82,8.82,0,0,1-6.06-8.62,10.2,10.2,0,0,1,.86-4.1,9.76,9.76,0,0,1,3-3.85A9.11,9.11,0,0,1,49,57a8.55,8.55,0,0,1,2.25-.94A8.11,8.11,0,0,1,61,61.4,9.62,9.62,0,0,1,61.57,64.74Z"/><path class="cls-3" d="M52.84,66.2a1.06,1.06,0,0,1-1.06-1.06h0v-6a1.07,1.07,0,1,1,2.13,0v6.06A1.06,1.06,0,0,1,52.84,66.2Z"/><path class="cls-3" d="M52.84,66.2a1.06,1.06,0,0,1-.63-1.92l2.89-2.09a1.06,1.06,0,1,1,1.23,1.72L53.44,66A1.06,1.06,0,0,1,52.84,66.2Z"/><polygon class="cls-6" points="171.14 128.57 25.06 129.16 25.06 34.52 171.14 24.75 171.14 128.57"/><path class="cls-3" d="M83.82,81.53a9.73,9.73,0,0,1-11.14-2,10.6,10.6,0,0,1-2.76-5.29l5-1.37a4.93,4.93,0,0,0,7,3.69Z"/><path class="cls-3" d="M87.33,79l-.26.26-3.55-3.88a5.91,5.91,0,0,0,1.65-4.11,5.11,5.11,0,0,0-4.91-5.3H80a5.45,5.45,0,0,0-4.65,3.28L70.7,67a11.56,11.56,0,0,1,2-3,10,10,0,0,1,14.05-1.24q.32.27.61.56A11.48,11.48,0,0,1,87.33,79Z"/><path class="cls-3" d="M74.78,71.66a5.79,5.79,0,0,0,.12,1.23l-5,1.37a11.72,11.72,0,0,1,.82-7.2l4.59,2.22A5.9,5.9,0,0,0,74.78,71.66Z"/><path class="cls-3" d="M87.08,79.22a10.74,10.74,0,0,1-3.26,2.31l-1.92-5a5.43,5.43,0,0,0,1.64-1.16Z"/><polygon class="cls-3" points="89.47 84.28 89.47 83.21 87.42 83.27 87.42 84.35 89.47 84.28"/><polygon class="cls-3" points="93.1 84.17 93.1 83.08 91.05 83.16 91.05 84.23 93.1 84.17"/><polygon class="cls-3" points="96.75 84.04 96.75 82.96 94.69 83.03 94.69 84.12 96.75 84.04"/><path class="cls-3" d="M95.33,64a1.83,1.83,0,0,0-2,.52,2.07,2.07,0,0,0-.5,1l.9.17a1,1,0,0,1,.91-.81.86.86,0,0,1,.34,0Z"/><path class="cls-3" d="M96,64.45h0l-.63.74a1,1,0,0,1,.3.7,1,1,0,0,1-.94,1,.87.87,0,0,1-.84-.5l-.82.47a1.79,1.79,0,0,0,3,.39A2,2,0,0,0,96,64.45Z"/><path class="cls-3" d="M93.7,65.93a1.08,1.08,0,0,1,0-.21l-.9-.17A2,2,0,0,0,93,66.78l.82-.47A1,1,0,0,1,93.7,65.93Z"/><path class="cls-3" d="M95.91,64.42a1.72,1.72,0,0,0-.58-.36L95,65a.86.86,0,0,1,.3.18Z"/><path class="cls-3" d="M92.93,78.54a1.77,1.77,0,0,0,1.7,1.12,1.83,1.83,0,0,0,1-.34l-.5-.8A.89.89,0,0,1,94,78.43a.94.94,0,0,1-.2-.3Z"/><path class="cls-3" d="M92.78,77.78v.06l.92-.06A1,1,0,0,1,94,77a.9.9,0,0,1,1.27,0l0,0a1,1,0,0,1,.22,1l.87.28a2,2,0,0,0,.1-.63,1.82,1.82,0,0,0-1.76-1.88h-.1A2,2,0,0,0,92.78,77.78Z"/><path class="cls-3" d="M95.29,78.38l-.16.14.5.8a2,2,0,0,0,.75-1L95.52,78A1,1,0,0,1,95.29,78.38Z"/><path class="cls-3" d="M92.78,77.84a2,2,0,0,0,.15.7l.85-.42a1,1,0,0,1-.07-.36Z"/><path class="cls-3" d="M95.37,73.56a2.06,2.06,0,0,0,1.12-1.83,1.93,1.93,0,0,0-.3-1l-.78.55a1,1,0,0,1-.12,1.23,1,1,0,0,1-.3.22Z"/><path class="cls-3" d="M94.64,73.81h.06v-1a.87.87,0,0,1-.75-.26,1,1,0,0,1,0-1.38.92.92,0,0,1,1-.27l.3-.94a1.71,1.71,0,0,0-.6-.07,2,2,0,0,0-1.86,2,1.82,1.82,0,0,0,1.78,1.86Z"/><path class="cls-3" d="M95.29,71.08l.12.16.78-.55a1.76,1.76,0,0,0-1-.75l-.3.94A.87.87,0,0,1,95.29,71.08Z"/><path class="cls-3" d="M94.7,73.75a1.81,1.81,0,0,0,.68-.18L95,72.69a.91.91,0,0,1-.33.1Z"/><polygon class="cls-3" points="175.66 30.14 28.46 39.47 28.46 25.65 175.66 14.97 175.66 30.14"/><polygon class="cls-3" points="172.68 27.16 30.94 36.41 30.94 31.85 172.68 22.16 172.68 27.16"/><polygon class="cls-3" points="33.11 30.16 30.94 30.31 30.94 27.93 33.11 27.78 33.11 30.16"/><polygon class="cls-3" points="36.98 29.89 34.8 30.04 34.8 27.66 36.98 27.5 36.98 29.89"/><polygon class="cls-3" points="40.87 29.62 38.68 29.77 38.68 27.39 40.87 27.23 40.87 29.62"/><polygon class="cls-6" points="93.72 120.33 165.8 119.64 165.8 36.23 93.72 40.56 93.72 120.33"/><path class="cls-3" d="M103.31,58.54A1.87,1.87,0,0,1,102,58a2,2,0,0,1-.68-1.45V45.64a2.14,2.14,0,0,1,2-2.14l64.3-3.69a2,2,0,0,1,2.18,1.81q0,.09,0,.18V53.17a2.23,2.23,0,0,1-2.09,2.2l-64.29,3.16Zm64.52-17.78h-.06l-64.3,3.69a1.16,1.16,0,0,0-1,1.23V56.57a1,1,0,0,0,.32.76.94.94,0,0,0,.68.26l64.3-3.13A1.23,1.23,0,0,0,169,53.24V41.8a1.06,1.06,0,0,0-.33-.78A1,1,0,0,0,167.83,40.76Z"/><path class="cls-3" d="M103.32,77.1a1.88,1.88,0,0,1-1.32-.53,2,2,0,0,1-.66-1.53V64.18a2.12,2.12,0,0,1,2-2.12l64.3-3a2,2,0,0,1,1.5.55,2,2,0,0,1,.63,1.49V72.58a2.19,2.19,0,0,1-2.09,2.18l-64.3,2.38Zm64.42-17h0l-64.3,3a1.15,1.15,0,0,0-1,1.16V75a1.06,1.06,0,0,0,.32.78,1,1,0,0,0,.69.26l64.25-2.27a1.23,1.23,0,0,0,1.17-1.23V61.15a1.08,1.08,0,0,0-.33-.79,1.06,1.06,0,0,0-.74-.3Z"/><path class="cls-3" d="M103.35,95.65a1.9,1.9,0,0,1-1.33-.54,2,2,0,0,1-.62-1.47V82.73a2.09,2.09,0,0,1,2-2.11l64.3-2.19a2.11,2.11,0,0,1,1.5.58,2.06,2.06,0,0,1,.63,1.49V91.87A2.17,2.17,0,0,1,167.71,94l-64.3,1.63Zm64.4-16.27h0l-64.3,2.19a1.12,1.12,0,0,0-1,1.15V93.64a1.07,1.07,0,0,0,.32.78,1,1,0,0,0,.69.27l64.3-1.63a1.23,1.23,0,0,0,1.16-1.23V80.48a1.1,1.1,0,0,0-.33-.8,1.08,1.08,0,0,0-.81-.3Z"/><path class="cls-3" d="M103.36,114.21a1.92,1.92,0,0,1-1.35-.55,2,2,0,0,1-.6-1.48V101.26a2.07,2.07,0,0,1,2-2.08l64.3-1.44a2.14,2.14,0,0,1,1.5.59,2.07,2.07,0,0,1,.63,1.49v11.38a2.14,2.14,0,0,1-2.11,2.14l-64.3.87Zm0-1h0l64.3-.87a1.23,1.23,0,0,0,1.16-1.23V99.82a1.12,1.12,0,0,0-.33-.8,1.23,1.23,0,0,0-.8-.32l-64.3,1.44a1.1,1.1,0,0,0-1,1.12v10.92a1.1,1.1,0,0,0,.32.79.89.89,0,0,0,.7.25Z"/><polygon class="cls-6" points="134.18 86.37 161.98 85.53 161.98 83.29 134.18 84.18 134.18 86.37"/><polygon class="cls-6" points="143.16 90.02 161.98 89.49 161.98 87.26 143.16 87.81 143.16 90.02"/><polygon class="cls-6" points="136.38 90.2 141 90.08 141 87.87 136.38 88.01 136.38 90.2"/><polygon class="cls-6" points="134.18 48.99 161.98 47.5 161.98 45.28 134.18 46.8 134.18 48.99"/><polygon class="cls-6" points="145.32 52.31 161.98 51.46 161.98 49.23 145.32 50.11 145.32 52.31"/><polygon class="cls-6" points="125.93 53.3 143.16 52.42 143.16 50.22 125.93 51.13 125.93 53.3"/><polygon class="cls-6" points="150.76 104.98 161.98 104.77 161.98 102.54 150.76 102.77 150.76 104.98"/><polygon class="cls-6" points="137.66 105.22 148.7 105.01 148.7 102.81 137.66 103.03 137.66 105.22"/><polygon class="cls-6" points="143.16 109.04 161.98 108.73 161.98 106.5 143.16 106.83 143.16 109.04"/><polygon class="cls-6" points="122.92 109.36 141 109.08 141 106.87 122.92 107.19 122.92 109.36"/><path class="cls-3" d="M106.62,73.81l64.57-2.46a1.72,1.72,0,0,0,1.64-1.7V58.19a1.55,1.55,0,0,0-1.49-1.61h-.15l-64.57,3.07a1.64,1.64,0,0,0-1.51,1.65V72.23a1.48,1.48,0,0,0,1.38,1.57Z"/><g class="cls-7"><polygon class="cls-3" points="141.53 62.1 169.31 60.84 169.31 59.18 141.53 60.46 141.53 62.1"/><polygon class="cls-3" points="141.53 65.01 169.31 63.8 169.31 62.14 141.53 63.37 141.53 65.01"/><polygon class="cls-3" points="156.87 67.27 169.31 66.75 169.31 65.09 156.87 65.62 156.87 67.27"/></g><polygon class="cls-3" points="118.07 68.97 125.28 68.68 125.28 61.21 118.07 61.53 118.07 68.97"/><polygon class="cls-5" points="109.76 69.32 116.89 69.02 116.89 61.6 109.76 61.92 109.76 69.32"/><path class="cls-3" d="M20.87,36.49,162.71,75.17a3.58,3.58,0,0,0,4.4-2.46l6.54-24a3.57,3.57,0,0,0-2.46-4.4L29.29,5.6a3.57,3.57,0,0,0-4.4,2.46l-6.54,24A3.58,3.58,0,0,0,20.87,36.49Z"/><g class="cls-7"><rect class="cls-3" x="133.55" y="11.03" width="3.63" height="61.96" transform="translate(59.23 161.56) rotate(-74.75)"/><rect class="cls-3" x="131.85" y="17.26" width="3.63" height="61.96" transform="translate(51.96 164.51) rotate(-74.75)"/><rect class="cls-3" x="145.84" y="46.29" width="3.61" height="27.32" transform="translate(51.18 186.79) rotate(-74.85)"/></g><rect class="cls-5" x="51.35" y="19.81" width="16.75" height="16.75" transform="translate(16.83 78.39) rotate(-74.75)"/><rect class="cls-5" x="32.54" y="14.68" width="16.75" height="16.75" transform="translate(7.91 56.47) rotate(-74.75)"/><path class="cls-8" d="M160.22,83.1c1.64.84,3.18.54,7.51.28,6.23-.37,7.7-.86,11.41-2.46,2.46-1-.57-6.16-4.1-5.73-3,.41-12.74,5.39-14.57,5.64A1.15,1.15,0,0,0,160.22,83.1Z"/><path class="cls-9" d="M179.92,80.12c.64-1.29,1.6-4.4,1.95-12.31a50.49,50.49,0,0,0-.18-8.35c-.25-2.64-2.77-3.69-4-3.07-2,1-4,3.69-4,5.12.27,7.83.95,13.84.68,15.75C174,80.08,179.17,81.64,179.92,80.12Z"/><path class="cls-10" d="M174.46,168a12,12,0,0,0-.28,2c-.14.82-.91,1.12-1.37,1.8s-1.23,1.82,1.79,1.88c3.29.06,5.22,0,4.67-1.82a9.1,9.1,0,0,1-.63-3.16,1.93,1.93,0,0,0-.37-1.54C177.88,166.85,174.94,166.16,174.46,168Z"/><path class="cls-10" d="M140.94,169.5a7.66,7.66,0,0,1-3.19,2.33c-1.7.74-5.32,1.07-3.31,1.72a12.46,12.46,0,0,0,5.53.07,24.77,24.77,0,0,1,3.69-.22c1.85,0,1.86-.12,1.61-2.13C145,168.52,141.76,167.93,140.94,169.5Z"/><path class="cls-11" d="M178.31,45c-.95,3.62-1.23,4.42-3,5.68s-4.4,1.08-6.16.8-2.77-2.77-3-4.38a23,23,0,0,1,1-8.73,6,6,0,0,1,6.16-3.69C175.88,35.13,180.61,36.18,178.31,45Z"/><path class="cls-12" d="M154.56,73.81c1.23-.75,3.69-2.84,8.24-9.3a50.31,50.31,0,0,0,4.33-7.14c1.23-2.35-.34-4.61-1.74-4.74-2.23-.22-5.39,1-6.16,2.18-4,6.75-6.65,12.18-7.91,13.64C149.56,70.6,153.06,74.71,154.56,73.81Z"/><path class="cls-11" d="M175.42,51.23c-.1,1.23-.23,2.77-.41,4.12a3.56,3.56,0,0,1-3.62,3.08h-.21c-1.59-.25-3.24-2-2.84-3.56.26-1,.46-2.06.6-3a4.19,4.19,0,0,1,3.36-3.45h0a2.64,2.64,0,0,1,3.12,2.77Z"/><path class="cls-13" d="M180.3,68.11a77.34,77.34,0,0,0-7.55,26.1l-22.16-3.5s3.4-20.81,6.69-32a8.62,8.62,0,0,1,5.63-5.82,16.19,16.19,0,0,1,6.16-.38l4.11.64a15.79,15.79,0,0,1,4.26,1.23C183.22,57.22,182.9,62.73,180.3,68.11Z"/><path class="cls-14" d="M170.55,107.81s2.66-4.37,2.23-13.54l-22.19-3.55a128.06,128.06,0,0,0-2.94,13.48Z"/><path class="cls-15" d="M162.59,138.84c-3-6.93,4.17-9.44,7.39-4.61,4.54,6.85,8.26,28.81,8.88,33.55.07.63.32,1.37,0,1.63a4.81,4.81,0,0,1-2.29.78c-.84.11-1.65.26-1.9-.75C173,162.64,165.48,145.55,162.59,138.84Z"/><path class="cls-16" d="M159.35,107.06c.63-9.12,5.29-15.55,10.4-11.7,2.15,1.63,2.62,4.26,2.56,6.66s-2.17,27.15-2.27,31.67c-.2,10.18-7.66,6.27-8.08,3.36C160.94,129.74,159,112,159.35,107.06Z"/><path class="cls-17" d="M144.92,170.42c1.07-10.68,7-29.07,5-38-1.23-5.66-7.88-6.3-8.09.53-.22,7.31.92,21.59-.87,35.61C140.82,169.94,144.78,171.66,144.92,170.42Z"/><path class="cls-18" d="M149.36,134.59c-1.31,2.62-9.33,4.63-7-5.28,1-4.4,5.84-28.83,6.39-31.16s1.5-5.74,2.76-6c6.28-1.23,10.93,6.75,8,15.39C157.59,113.34,152.12,129.22,149.36,134.59Z"/><ellipse class="cls-11" cx="166.24" cy="42.86" rx="1.32" ry="2.52" transform="translate(-5.4 39.36) rotate(-13.29)"/><ellipse class="cls-11" cx="178.25" cy="44.73" rx="2.52" ry="1.32" transform="translate(47.78 174.16) rotate(-58.86)"/><path class="cls-19" d="M136,67.77c1.15,1.45,2.07,2.29,6.16,3.58a52,52,0,0,0,11.67,2.6c2.64.21,2.29-6.1-1.11-7.14-2.88-.89-13.83-.43-15.59-1C136,65.46,135.07,66.58,136,67.77Z"/><path class="cls-11" d="M137.53,65.76c-1.06-.55-10.29-3.69-10.37-1.67-.09,2.27,3.63,3.69,4.93,4,2.46.69,4.42,1.17,5.41.12C138.14,67.48,138.54,66.29,137.53,65.76Z"/><path class="cls-11" d="M137,65.19c-.42-.36-2.93-2.46-3.36-2-.65.68.92,2.13,2,3.1.57.53,1.67.86,2,.36S137.64,65.82,137,65.19Z"/><path class="cls-20" d="M170.58,36c-2.34.95-3,2-3.36,4.65s.06,7.33,4.77,9.09,6.6-2.87,7.39-6.16,1-5.79-1.34-6.77C174.54,35.37,172,35.43,170.58,36Z"/><path class="cls-21" d="M179.31,37.38c.17-2.07-2.92-3.51-3.29-4.47,0,0-.18,1.4.39,1.82a26.23,26.23,0,0,1-5.23-2.78s.62,1.45,1.35,1.82a32.52,32.52,0,0,1-5.5-2,16.57,16.57,0,0,0,2.35,2.82,16.12,16.12,0,0,1-5.59-.92s1.66,4.68,4.93,5.25S179,41.16,179.31,37.38Z"/><path class="cls-11" d="M18.57,25.06c.26-1.23,2.76-10.56,4.43-9.28s1.66,5.34,1.44,6.65a4.93,4.93,0,0,1-3.87,4.17C19.53,26.68,18.32,26.21,18.57,25.06Z"/><path class="cls-22" d="M22.23,24.84c.78,1.7.07,2-.36,6.77a48.08,48.08,0,0,1-2.15,12c-.89,2.46-6.16-.62-5.64-4.22.42-3.05,4.68-13.13,5.5-14.78a1.48,1.48,0,0,1,2.65.26Z"/><path class="cls-23" d="M20.23,41.19c-.27,1.45-1.39,4.59-6,11.28A51.89,51.89,0,0,1,9,59.22c-1.82,2-4.54,1.33-5.18,0-1-2.06-1-5.54-.12-6.65,5-6.23,9.3-10.77,10.23-12.49C15.32,37.55,20.55,39.47,20.23,41.19Z"/><path class="cls-24" d="M5,168.62a12.31,12.31,0,0,1,.28,2.09c.14.85.94,1.15,1.4,1.85S8,174.44,4.89,174.5c-3.37.06-5.37,0-4.79-1.87a9.38,9.38,0,0,0,.64-3.24,2,2,0,0,1,.38-1.58C1.52,167.49,4.54,166.84,5,168.62Z"/><path class="cls-24" d="M38.82,131.25a7.84,7.84,0,0,0,3.39,2.23c1.79.66,5.5.84,3.48,1.6a12.81,12.81,0,0,1-5.66.34,27.22,27.22,0,0,0-3.84.16c-1.88.07-1.91-.22-1.75-2.29C34.65,130.45,37.9,129.69,38.82,131.25Z"/><path class="cls-11" d="M9.45,39c.38,3.83.49,4.67,2.17,6.24s4.29,1.8,6.1,1.8,3.25-2.36,3.69-4a23.58,23.58,0,0,0,.38-9,6.16,6.16,0,0,0-5.6-4.7C13.48,29.37,8.52,29.69,9.45,39Z"/><path class="cls-11" d="M11.45,45.77c-.1,1.33-.2,2.86-.25,4.25a3.69,3.69,0,0,0,3.19,3.69h.21c1.65,0,3.6-1.49,3.45-3.15-.1-1.07-.14-2.15-.14-3.12a4.3,4.3,0,0,0-2.87-4h0a2.7,2.7,0,0,0-3.6,2.36Z"/><path class="cls-25" d="M3.74,62.13A79.37,79.37,0,0,1,7.22,89.82H30.34s-.14-21.67-1.65-33.53a8.88,8.88,0,0,0-4.93-6.8,16.6,16.6,0,0,0-6.16-1.37H13.35a16.18,16.18,0,0,0-4.51.57C2.53,50.61,2,56.28,3.74,62.13Z"/><path class="cls-26" d="M7.31,103.94s-2-4.85-.1-14.12H30.34V104Z"/><path class="cls-27" d="M11.88,134.15c1.85-7.52-5.84-8.85-8.26-3.41C.19,138.43.46,163.06.64,168c0,.64-.09,1.44.23,1.66a4.93,4.93,0,0,0,2.46.39c.86,0,1.71,0,1.8-1.08C5.7,161.83,10.09,141.53,11.88,134.15Z"/><path class="cls-28" d="M18.84,105c.81-9.35-2.89-16.61-8.69-13.54-2.46,1.29-3.34,3.9-3.69,6.34s-2.13,27.89-2.76,32.48c-1.42,10.37,6.76,7.57,7.65,4.69C13.57,127.72,18.35,110,18.84,105Z"/><path class="cls-29" d="M34.61,131.38c3.94-10.29,7-29.91,12.9-37.17,3.77-4.62,10.13-2.15,7.18,4.21-3.16,6.81-10.8,19.38-15.61,33.07C38.6,132.83,34.17,132.58,34.61,131.38Z"/><path class="cls-30" d="M52.6,100.69c2.89-.8,6.16-10.22-4.33-9.76-4.63.2-20.93.1-23.4.2s-6.08.39-6.58,1.61c-2.46,6.1,4.67,12.31,14,11.08C38.46,102.91,46.61,102.37,52.6,100.69Z"/><ellipse class="cls-11" cx="22.03" cy="38.75" rx="2.59" ry="1.35" transform="translate(-22.17 44.48) rotate(-67.77)"/><ellipse class="cls-11" cx="9.56" cy="38.73" rx="1.35" ry="2.59" transform="translate(-13.94 6.49) rotate(-22.23)"/><path class="cls-31" d="M10.63,31.5c1.49,2.23,8.69,2.46,11.08,1.61s2.19-5.37-1.23-5.68c-1.9,0-.52.44-2.06,1.07C17.61,28.82,9,29.13,10.63,31.5Z"/><path class="cls-11" d="M56.37,46.24c1.16-.41,10.47-3.12,10.24-1-.25,2.31-3.69,4.2-4.93,4.68a4.93,4.93,0,0,1-5.58-1.15C55.48,48,55.26,46.62,56.37,46.24Z"/><path class="cls-11" d="M56.78,45.66c.41-.39,2.81-2.75,3.28-2.33.71.64-.78,2.25-1.76,3.34-.53.58-1.65,1-2.07.52S56.12,46.3,56.78,45.66Z"/><path class="cls-32" d="M58.46,49.26c-1.06,1.54-1.67,1.11-6,3.2a48,48,0,0,1-11.35,4.36c-2.62.54-2.65-5.57.69-7,2.83-1.23,13.66-2.81,15.51-3a1.48,1.48,0,0,1,1.13,2.41Z"/><path class="cls-33" d="M43.73,56.15c-1.35.6-4.57,1.47-12.67,1.49A38.26,38.26,0,0,1,24,57.31a5.39,5.39,0,0,1-4.48-4.43c.06-2.35,1.23-4.11,2.68-4,8,.59,16.89,1.66,18.85,1.47C43.93,50,45.33,55.44,43.73,56.15Z"/><path class="cls-34" d="M18.73,31.11c2.22,1.34,2.73,2.46,2.67,5.26s-1.23,7.39-6.28,8.46-6.24-4-6.54-7.39-.11-6,2.46-6.66C14.8,29.83,17.39,30.3,18.73,31.11Z"/></g></g></g></g></svg>