<?xml version="1.0" encoding="utf-8"?>
<!-- Generator: Adobe Illustrator 21.0.0, SVG Export Plug-In . SVG Version: 6.00 Build 0)  -->
<svg version="1.1" id="Слой_1" xmlns="http://www.w3.org/2000/svg" xmlns:xlink="http://www.w3.org/1999/xlink" x="0px" y="0px"
	 viewBox="0 0 167.5 158.2" style="enable-background:new 0 0 167.5 158.2;" xml:space="preserve">
<style type="text/css">
	.st0{fill:url(#SVGID_1_);}
	.st1{fill:url(#SVGID_2_);}
	.st2{fill:url(#SVGID_3_);}
	.st3{fill:url(#SVGID_4_);}
	.st4{fill:url(#SVGID_5_);}
	.st5{fill:url(#SVGID_6_);}
	.st6{fill:url(#SVGID_7_);}
	.st7{fill:url(#SVGID_8_);}
	.st8{fill:url(#SVGID_9_);}
	.st9{fill:#FFAF84;}
	.st10{fill:url(#SVGID_10_);}
	.st11{fill:url(#SVGID_11_);}
	.st12{fill:url(#SVGID_12_);}
	.st13{fill:url(#SVGID_13_);}
	.st14{fill:url(#SVGID_14_);}
	.st15{fill:url(#SVGID_15_);}
	.st16{fill:url(#SVGID_16_);}
	.st17{fill:url(#SVGID_17_);}
	.st18{fill:url(#SVGID_18_);}
	.st19{fill:#ED9169;}
	.st20{fill:url(#SVGID_19_);}
	.st21{fill:url(#SVGID_20_);}
	.st22{fill:url(#SVGID_21_);}
	.st23{fill:url(#SVGID_22_);}
	.st24{fill:url(#SVGID_23_);}
	.st25{fill:url(#SVGID_24_);}
	.st26{fill:url(#SVGID_25_);}
	.st27{fill:url(#SVGID_26_);}
	.st28{fill:url(#SVGID_27_);}
	.st29{fill:#F70F47;}
	.st30{fill:url(#SVGID_30_);}
	.st31{fill:url(#SVGID_31_);}
	.st32{fill:url(#SVGID_32_);}
	.st33{fill:#FFB41D;}
	.st34{fill:url(#SVGID_33_);}
	.st35{fill:url(#SVGID_34_);}
</style>
<title>fokusgruppa</title>
<g>
	<g id="Слой_2">
		<g id="Designed_by_Freepik">
			
				<linearGradient id="SVGID_1_" gradientUnits="userSpaceOnUse" x1="-582.7289" y1="137.0744" x2="-622.9189" y2="166.0644" gradientTransform="matrix(-1 0 0 -1 -473.0898 181.89)">
				<stop  offset="0" style="stop-color:#2C27CE"/>
				<stop  offset="0.65" style="stop-color:#EF1D68"/>
				<stop  offset="1" style="stop-color:#EFBA92"/>
			</linearGradient>
			<path class="st0" d="M134.5,12.6c-1.4-2,0.2-5.6,4.3-6c4.7-0.4,13,2.3,8.5,13.2c-4.6,11.4-3.2,14.3-0.1,16c0,0-10.7,0.9-9.9-8.5
				S137.9,17.3,134.5,12.6z"/>
			
				<linearGradient id="SVGID_2_" gradientUnits="userSpaceOnUse" x1="-972.2493" y1="-280.7997" x2="-984.6693" y2="-311.7597" gradientTransform="matrix(-0.61 -0.79 0.79 -0.61 -241.3806 -910.9054)">
				<stop  offset="0" style="stop-color:#F70F47"/>
				<stop  offset="1" style="stop-color:#9E005D"/>
			</linearGradient>
			<path class="st1" d="M112.4,43.2c1.9-0.8,7-4.3,14-8.6c2.1-1,4.4-1.2,6.7-0.5c1.4,0.5,2.2,2.7-0.1,4.2c-2.4,1.7-4.9,3.2-7.5,4.5
				c-7.4,4-10.9,5-12.5,5.2C111.1,48.4,109.6,44.4,112.4,43.2z"/>
			
				<linearGradient id="SVGID_3_" gradientUnits="userSpaceOnUse" x1="2109.9751" y1="-757.8694" x2="2096.0652" y2="-792.5393" gradientTransform="matrix(0.7 0.72 -0.72 0.7 -1917.1786 -911.8002)">
				<stop  offset="0" style="stop-color:#F70F47"/>
				<stop  offset="1" style="stop-color:#9E005D"/>
			</linearGradient>
			<path class="st2" d="M119.2,60.9c-0.6-1.6-7.2-11.8-8.2-14.4c-1.1-3.1,2.8-4.1,4.1-1.8c2,3.1,3.5,6.6,4.5,10.2
				c1.1,3.7,2.4,4.3,2,5.4C121.3,61.2,119.6,62,119.2,60.9z"/>
			
				<linearGradient id="SVGID_4_" gradientUnits="userSpaceOnUse" x1="-605.0167" y1="140.521" x2="-600.4267" y2="101.101" gradientTransform="matrix(-1 0 0 -1 -473.0898 181.89)">
				<stop  offset="0" style="stop-color:#F70F47"/>
				<stop  offset="1" style="stop-color:#9E005D"/>
			</linearGradient>
			<path class="st3" d="M140,47.7c-1.1,3.4-1.9,6.9-2.4,10.4c-0.4,2.6-0.4,5.2,0,7.8c0.2,1.6,0.5,3.1,0.9,4.7
				c0.1,0.6,1.3,5.3,1.3,5.8h-21.5c0.2-4.2,5-17.4,1.8-26c-2.3-5.9,0.7-6.1,2.8-11c0.4-1.3,1-2.5,1.7-3.6c0.9-1,2-1.7,3.3-2
				c0.7-0.1,1.3-0.2,2-0.3c3.6-0.3,12.2-1.3,13,3.8c0.2,1.4,0,2.8-0.4,4.2c-0.5,1.5-1.2,2.9-1.8,4.4C140.4,46.5,140.2,47.1,140,47.7
				z"/>
			
				<linearGradient id="SVGID_5_" gradientUnits="userSpaceOnUse" x1="-596.8805" y1="113.1388" x2="-615.0705" y2="60.1988" gradientTransform="matrix(-1 0 0 -1 -473.0898 181.89)">
				<stop  offset="0" style="stop-color:#36078B"/>
				<stop  offset="1" style="stop-color:#168D68"/>
			</linearGradient>
			<path class="st4" d="M139.8,90c0,0,1.9-4.7,0.1-13.6h-21.5c-0.5,4.5-0.7,9.1-0.8,13.6H139.8z"/>
			
				<linearGradient id="SVGID_6_" gradientUnits="userSpaceOnUse" x1="-579.5622" y1="216.353" x2="-598.1522" y2="162.2529" gradientTransform="matrix(-0.99 0.15 -0.15 -0.99 -428.3327 375.1058)">
				<stop  offset="0" style="stop-color:#36078B"/>
				<stop  offset="1" style="stop-color:#16B1FF"/>
			</linearGradient>
			<path class="st5" d="M136,120.1c-2.8-6.9,4-9.3,7.1-4.4c4.3,6.8,6.2,32.1,6.7,36.8c0.1,0.6-0.3,0.6-0.6,0.5
				c-1.1-0.2-0.6-1.2-2.1-1.1c-0.8,0-1,1.1-1,1.1C144.3,146.8,138.6,126.8,136,120.1z"/>
			
				<linearGradient id="SVGID_7_" gradientUnits="userSpaceOnUse" x1="-599.7706" y1="114.1251" x2="-617.9606" y2="61.1951" gradientTransform="matrix(-1 0 0 -1 -473.0898 181.89)">
				<stop  offset="0" style="stop-color:#36078B"/>
				<stop  offset="1" style="stop-color:#16B1FF"/>
			</linearGradient>
			<path class="st6" d="M129.1,91c-0.8-9,2.7-16,8.1-13c2.3,1.3,3.1,3.8,3.4,6.1s2,26.9,2.6,31.3c1.3,10-6.3,7.3-7.1,4.5
				C134,112.9,129.5,95.9,129.1,91z"/>
			
				<linearGradient id="SVGID_8_" gradientUnits="userSpaceOnUse" x1="-573.8975" y1="105.2343" x2="-592.0775" y2="52.3043" gradientTransform="matrix(-1 0 0 -1 -473.0898 181.89)">
				<stop  offset="0" style="stop-color:#36078B"/>
				<stop  offset="1" style="stop-color:#16B1FF"/>
			</linearGradient>
			<path class="st7" d="M116.4,118.7c-0.3-6.8,6.1-6.6,7.7-1.1c2.5,8.7-1.8,27.3-2.1,37.9c-1.1-1.8-2.1-2.3-2.6-2.2
				c-0.5,0-0.9,0.3-1.2,0.7C118.3,139.9,116.7,125.9,116.4,118.7z"/>
			
				<linearGradient id="SVGID_9_" gradientUnits="userSpaceOnUse" x1="-585.9161" y1="109.3604" x2="-604.0961" y2="56.4304" gradientTransform="matrix(-1 0 0 -1 -473.0898 181.89)">
				<stop  offset="0" style="stop-color:#36078B"/>
				<stop  offset="1" style="stop-color:#16B1FF"/>
			</linearGradient>
			<path class="st8" d="M123.8,119.4c-0.8,2.8-8.1,6-7.4-4.1c0.3-4.5,1.2-29.1,1.4-31.4s0.6-5.8,1.7-6.3c5.7-2.2,11.3,4.9,9.8,13.8
				C128.4,97.4,125.6,113.7,123.8,119.4z"/>
			<path class="st9" d="M138.7,22.6c-0.4,4.2-0.6,5.2-2.4,6.9c-1.8,1.6-4.1,2.5-6.5,2.5c-2.2,0-3.8-2.3-4.3-4.1
				c-0.8-3.6-1-7.2-0.5-10.9c0.7-2.9,3.2-5,6.2-5.2C134.3,11.9,139.8,12.3,138.7,22.6z"/>
			
				<linearGradient id="SVGID_10_" gradientUnits="userSpaceOnUse" x1="-591.2727" y1="5.7939" x2="-589.2127" y2="31.1239" gradientTransform="matrix(-1 0 0 -1 -473.0898 181.89)">
				<stop  offset="0" style="stop-color:#2C27CE"/>
				<stop  offset="0.65" style="stop-color:#EF1D68"/>
				<stop  offset="1" style="stop-color:#EFBA92"/>
			</linearGradient>
			<path class="st10" d="M117.8,153.9c-0.8,1-1.8,1.8-3,2.3c-1.6,0.7-5.1,1.1-3.2,1.7c1.7,0.4,3.5,0.5,5.3,0.1
				c1.2-0.2,2.4-0.2,3.6-0.2c1.8,0,1.8-0.1,1.5-2.1C121.6,152.9,118.6,152.3,117.8,153.9z"/>
			
				<linearGradient id="SVGID_11_" gradientUnits="userSpaceOnUse" x1="-620.2797" y1="1.0896" x2="-617.6896" y2="33.0196" gradientTransform="matrix(-1 0 0 -1 -473.0898 181.89)">
				<stop  offset="0" style="stop-color:#2C27CE"/>
				<stop  offset="0.65" style="stop-color:#EF1D68"/>
				<stop  offset="1" style="stop-color:#EFBA92"/>
			</linearGradient>
			<path class="st11" d="M146,152.7c-0.3,0.5-0.5,2.8-2.1,3.5s-5.1,1.1-3.2,1.7c1.7,0.4,3.5,0.5,5.3,0.1c1.1-0.2,1.3-1.4,2.6-1.4
				c1.8,0,1.8-0.1,1.5-2.1C149.9,151.7,146.8,151.1,146,152.7z"/>
			
				<linearGradient id="SVGID_12_" gradientUnits="userSpaceOnUse" x1="-587.5616" y1="142.6042" x2="-610.3616" y2="168.6342" gradientTransform="matrix(-1 0 0 -1 -473.0898 181.89)">
				<stop  offset="0" style="stop-color:#2C27CE"/>
				<stop  offset="0.65" style="stop-color:#EF1D68"/>
				<stop  offset="1" style="stop-color:#EFBA92"/>
			</linearGradient>
			<path class="st12" d="M125.8,14.9c-1.7,2.8,10.4,8,13.1,7.6s2.7-6.1,0.6-8.7S129.7,8.2,125.8,14.9z"/>
			<ellipse transform="matrix(0.378 -0.9258 0.9258 0.378 64.8385 143.0085)" class="st9" cx="138.8" cy="23.3" rx="2.9" ry="1.5"/>
			<path class="st9" d="M162.5,39c0-1.2,0.4-2.5,1-3.5c0.6-0.8,0.4,1.3,0.4,2.2S162.4,40.1,162.5,39z"/>
			<path class="st9" d="M163.4,38c1.5-2.2,1.9-3.6,3-4.2s1.2,1.8,0.8,2.7s-1.6,4-2.7,4.2S162.3,39.6,163.4,38z"/>
			
				<linearGradient id="SVGID_13_" gradientUnits="userSpaceOnUse" x1="-342.0334" y1="315.048" x2="-356.9734" y2="277.808" gradientTransform="matrix(-0.71 0.18 -0.26 -0.97 -23.1126 398.639)">
				<stop  offset="0" style="stop-color:#F70F47"/>
				<stop  offset="1" style="stop-color:#9E005D"/>
			</linearGradient>
			<path class="st13" d="M150.8,54.1c-1.2-1.7-5.7-6-11.4-11.8c-1.4-1.8-2.1-4.1-1.9-6.4c0.2-1.5,2.1-2.7,4.1-0.8
				c2.2,2,4.2,4.1,6,6.3c5.4,6.4,7.2,9.6,7.8,11.1C156.1,54.3,152.6,56.6,150.8,54.1z"/>
			
				<linearGradient id="SVGID_14_" gradientUnits="userSpaceOnUse" x1="473.5822" y1="431.8427" x2="462.7022" y2="404.7127" gradientTransform="matrix(0.67 -0.74 -0.74 -0.67 151.5482 669.4063)">
				<stop  offset="0" style="stop-color:#F70F47"/>
				<stop  offset="1" style="stop-color:#9E005D"/>
			</linearGradient>
			<path class="st14" d="M164.7,39.9c0.1,1.2-1.3,1.5-3.3,5c-1.7,3.5-4,6.7-6.8,9.4c-1.9,2-5.6,0.1-3.8-2.8
				c1.6-2.4,10.6-11.4,11.5-12.8C163,37.8,164.6,38.9,164.7,39.9z"/>
			<path class="st9" d="M119.4,59.3c-0.8,0.5-1.6,1.2-2.2,1.9c-0.4,0.5-0.4,1.3,0.3,1.4c1.1,0.1,2.2-0.3,3.1-1
				c0.5-0.7,0.7-1.5,0.6-2.3C121.2,58.6,120.4,58.6,119.4,59.3z"/>
		</g>
		<g id="Objects">
			<path class="st9" d="M58.6,80c1.3,0.3,3.5,0.8,4.6,1s0.8,2.8,0.2,3.2c-1,0.6-4.3,1.2-5.1-0.1s-2.1-1-2.4-2.3S56.4,79.5,58.6,80z"
				/>
			
				<linearGradient id="SVGID_15_" gradientUnits="userSpaceOnUse" x1="-621.7225" y1="38.8051" x2="-619.5825" y2="67.1251" gradientTransform="matrix(-1 4.000000e-02 -4.000000e-02 -1 -571.7742 223.6246)">
				<stop  offset="0" style="stop-color:#36078B"/>
				<stop  offset="1" style="stop-color:#16B1FF"/>
			</linearGradient>
			<path class="st15" d="M46.5,153.1c1,1.1,2.2,1.9,3.6,2.4c1.9,0.7,5.8,0.9,3.7,1.7c-2,0.5-4,0.7-6,0.3c-1.3-0.1-2.7-0.2-4-0.1
				c-2,0.1-2-0.1-1.8-2.2C42,152.2,45.5,151.4,46.5,153.1z"/>
			
				<linearGradient id="SVGID_16_" gradientUnits="userSpaceOnUse" x1="-580.0778" y1="35.6619" x2="-577.9478" y2="63.9819" gradientTransform="matrix(-1 4.000000e-02 -4.000000e-02 -1 -571.7742 223.6246)">
				<stop  offset="0" style="stop-color:#36078B"/>
				<stop  offset="1" style="stop-color:#16B1FF"/>
			</linearGradient>
			<path class="st16" d="M4.6,150.2c0.3,0.5,1.2,3.4,3,4.1s5.2,1.6,3.1,2.4c-2,0.5-4,0.7-6,0.3c-1.3-0.1-1.6-1.7-2.9-2.4
				c-2.1-1.1-1.8-1-1.6-3.1c0-1.3,1-2.4,2.3-2.5C3.4,148.9,4.2,149.4,4.6,150.2z"/>
			
				<linearGradient id="SVGID_17_" gradientUnits="userSpaceOnUse" x1="-1691.9192" y1="26.1629" x2="-1656.6193" y2="0.9429" gradientTransform="matrix(0.9753 0.2209 0.2209 -0.9753 1685.5109 448.9484)">
				<stop  offset="0" style="stop-color:#36078B"/>
				<stop  offset="1" style="stop-color:#16B1FF"/>
			</linearGradient>
			<path class="st17" d="M59.5,79.8c-1.6-1.9-2.5-4.7-3.6-6.9C54.7,70,53,67.2,51,64.7c-0.3-0.3-0.5-0.6-0.7-0.9
				c-0.5-1.3-0.7-2.7-0.7-4.1c-0.2-1.4-0.2-2.8-0.3-4.2c-0.3-4-0.5-8-0.8-12c-0.1-1.5-2.7-4.3-5.1-3.7c-2.6,0.7-3.4,1.8-3.3,4.7
				c0,3,0.3,6,0.8,9c1,6.2,2.3,12.7,6.2,17.8c1.6,2,3.1,4,4.7,5.9c3.1,3.6,4.3,4.1,6.2,4.6C59.6,82.2,60.4,80.8,59.5,79.8z"/>
			
				<linearGradient id="SVGID_18_" gradientUnits="userSpaceOnUse" x1="-634.8459" y1="168.0279" x2="-608.136" y2="197.9079" gradientTransform="matrix(-1 4.000000e-02 -4.000000e-02 -1 -571.7742 223.6246)">
				<stop  offset="0" style="stop-color:#2C27CE"/>
				<stop  offset="0.65" style="stop-color:#EF1D68"/>
				<stop  offset="1" style="stop-color:#EFBA92"/>
			</linearGradient>
			<path class="st18" d="M45.1,24.5c1.3,1.1,2,1.2,3-0.5c0-0.1,5.4-5.2,0.5-7.2c-2.3-0.9-4.1-1.4-4.6,1.8S43.5,23.2,45.1,24.5z"/>
			<path class="st19" d="M36.5,24.9c-0.1,0.2-2.3,4.8-3.8,8.3c-0.6,1.9,0.4,4,2.2,4.8H35c1.7,0.7,4.4-0.2,4.9-2
				c0.6-2.2,1.4-4.4,2.3-6.5L36.5,24.9z"/>
			
				<linearGradient id="SVGID_19_" gradientUnits="userSpaceOnUse" x1="-1777.1454" y1="126.1223" x2="-1709.5054" y2="177.8323" gradientTransform="matrix(1 -4.000000e-02 -4.000000e-02 -1 1791.5356 133.8354)">
				<stop  offset="0" style="stop-color:#36078B"/>
				<stop  offset="1" style="stop-color:#16B1FF"/>
			</linearGradient>
			<path class="st20" d="M23.5,43.7c1.3,11,0.6,28.6-1.3,35.8l24.4-0.9c0,0,1.4-15.8,2.6-29.5c0.3-2.5,0.2-5.1-0.3-7.6
				c-0.6-2.4-2.2-4.6-4.3-5.9c-1.9-1.1-4.1-1.9-6.3-2.3c-2-0.5-4-0.8-6-0.8c-2.7,0-5.8,0.6-7.4,3c-1.5,2.1-1.7,4.8-1.5,7.3
				C23.5,43,23.5,43.4,23.5,43.7z"/>
			
				<linearGradient id="SVGID_20_" gradientUnits="userSpaceOnUse" x1="-627.2637" y1="43.0409" x2="-614.8638" y2="96.1309" gradientTransform="matrix(-1 4.000000e-02 -4.000000e-02 -1 -571.7742 223.6246)">
				<stop  offset="0" style="stop-color:#FF664F"/>
				<stop  offset="1" style="stop-color:#9E005D"/>
			</linearGradient>
			<path class="st21" d="M22.9,94.4c0,0-2.3-5-0.7-14.9l24.4-0.9c0.8,4.9,1.2,9.9,1.4,14.9L22.9,94.4z"/>
			
				<linearGradient id="SVGID_21_" gradientUnits="userSpaceOnUse" x1="-599.3343" y1="21.8024" x2="-583.2343" y2="90.7724" gradientTransform="matrix(-1 4.000000e-02 -4.000000e-02 -1 -571.7742 223.6246)">
				<stop  offset="0" style="stop-color:#FF664F"/>
				<stop  offset="1" style="stop-color:#9E005D"/>
			</linearGradient>
			<path class="st22" d="M25.3,123.6c5.7-5.9,2.4-10.9-3.5-8.8c-8.4,3-17.4,30.9-21,34.6c-0.5,0.5-0.1,0.7,0.2,0.9
				c1.1,0.6,1.8-0.3,3.1,0.1c0.5,0.2,1.3,1.6,1.3,1.6C11.1,145.6,19.8,129.2,25.3,123.6z"/>
			
				<linearGradient id="SVGID_22_" gradientUnits="userSpaceOnUse" x1="-615.838" y1="40.3749" x2="-603.438" y2="93.4649" gradientTransform="matrix(-1 4.000000e-02 -4.000000e-02 -1 -571.7742 223.6246)">
				<stop  offset="0" style="stop-color:#FF664F"/>
				<stop  offset="1" style="stop-color:#9E005D"/>
			</linearGradient>
			<path class="st23" d="M35,95c0.5-9.9-3.7-17.4-9.7-13.9c-2.5,1.5-3.4,4.2-3.6,6.8s-1.4,22.5-1.9,27.3c-1.1,11,8.1,7.4,8.9,4.4
				C30.8,112,34.8,100.4,35,95z"/>
			
				<linearGradient id="SVGID_23_" gradientUnits="userSpaceOnUse" x1="-627.5406" y1="33.3421" x2="-612.6306" y2="97.1822" gradientTransform="matrix(-1 4.000000e-02 -4.000000e-02 -1 -571.7742 223.6246)">
				<stop  offset="0" style="stop-color:#FF664F"/>
				<stop  offset="1" style="stop-color:#9E005D"/>
			</linearGradient>
			<path class="st24" d="M50.2,116c-0.4-7.4-4.3-9-7.9-3.8c-5.6,8.2,0.1,33.1-0.5,42.8c1.2-1.1,2.9-1.6,4.6-1.3c0.8,0.3,0.2-1,0.2-1
				C49.6,137.4,50.6,122.6,50.2,116z"/>
			
				<linearGradient id="SVGID_24_" gradientUnits="userSpaceOnUse" x1="-632.0196" y1="44.1553" x2="-619.6196" y2="97.2453" gradientTransform="matrix(-1 4.000000e-02 -4.000000e-02 -1 -571.7742 223.6246)">
				<stop  offset="0" style="stop-color:#FF664F"/>
				<stop  offset="1" style="stop-color:#9E005D"/>
			</linearGradient>
			<path class="st25" d="M40.6,117.9c1.1,3,10.8,7.2,9.5-3.8c-0.6-4.9-2.3-24.7-2.6-27.3s-0.9-6.4-2.2-6.8
				c-6.6-2.1-12.6,5.9-10.5,15.6C36.1,102,38.4,111.7,40.6,117.9z"/>
			
				<linearGradient id="SVGID_25_" gradientUnits="userSpaceOnUse" x1="-1409.2744" y1="1056.0955" x2="-1367.8445" y2="1100.4954" gradientTransform="matrix(-0.38 -0.92 0.92 -0.38 -1495.2623 -821.2875)">
				<stop  offset="0" style="stop-color:#36078B"/>
				<stop  offset="1" style="stop-color:#16B1FF"/>
			</linearGradient>
			<path class="st26" d="M14,53.5c0.8-2.3,1.8-4.4,3-6.5c0.9-1.6,1.9-3.2,2.9-4.8c1.6-2.6,3.4-5,5.4-7.3c1.5-1.8,4.2-2.1,6-0.6
				c0.2,0.1,0.3,0.3,0.4,0.4c1.5,1.9,0.7,3.8-0.7,7c-3.2,7.3-9.5,12.5-11.2,14.7c0.2,0.4,0.2,0.8,0.3,1.2c0.3,3.3-1.4,9.2-1.5,17.2
				c0,1.3-2.5,1.9-3.6,0.7c-1.3-1.5-1.2-3.7-1.6-8.4c-0.4-2.9-0.5-5.8-0.4-8.8c0-1.5,0.3-3.1,0.7-4.6L14,53.5z"/>
			<path class="st9" d="M34.7,21.8c-0.6,4.3-0.7,5.2,0.7,7.4c1.4,2,3.4,3.4,5.8,4.1c2.1,0.5,4.3-1.4,5.2-3c1.7-3.3,2.7-6.9,3.1-10.6
				c0.3-2.4-1.9-5.9-4.9-6.6S36.2,11.3,34.7,21.8z"/>
			
				<linearGradient id="SVGID_26_" gradientUnits="userSpaceOnUse" x1="-631.016" y1="164.6068" x2="-604.306" y2="194.4868" gradientTransform="matrix(-1 4.000000e-02 -4.000000e-02 -1 -571.7742 223.6246)">
				<stop  offset="0" style="stop-color:#2C27CE"/>
				<stop  offset="0.65" style="stop-color:#EF1D68"/>
				<stop  offset="1" style="stop-color:#EFBA92"/>
			</linearGradient>
			<path class="st27" d="M34.9,21.2c0.8,1.4,1.4,1.8,2.9,0.5c1.1-1,4.5-4.8,2.8-6.3s-3.2-2.6-4.7,0.1S33.9,19.5,34.9,21.2z"/>
			<ellipse transform="matrix(0.9887 -0.1498 0.1498 0.9887 -2.9402 5.4317)" class="st9" cx="34.6" cy="22.2" rx="1.5" ry="2.9"/>
			
				<linearGradient id="SVGID_27_" gradientUnits="userSpaceOnUse" x1="-637.2073" y1="170.1292" x2="-610.4974" y2="200.0192" gradientTransform="matrix(-1 4.000000e-02 -4.000000e-02 -1 -571.7742 223.6246)">
				<stop  offset="0" style="stop-color:#2C27CE"/>
				<stop  offset="0.65" style="stop-color:#EF1D68"/>
				<stop  offset="1" style="stop-color:#EFBA92"/>
			</linearGradient>
			<path class="st28" d="M38,13.9c1,2.8,8.8,5,11.6,4.7s3.8-5.3,0.2-6.5c-2.1-0.5-0.7,0.4-2.5,0.6C46.4,12.8,36.9,10.9,38,13.9z"/>
			<path class="st9" d="M19.2,74.6c0.1,1.3,0.7,7.2-1.3,6.3c-1.7-0.5-2.9-2-3.1-3.8c-0.2-2.6,0.5-3,2-3.5
				C17.8,73.3,19.1,73.4,19.2,74.6z"/>
			<g>
				<defs>
					<path id="SVGID_28_" d="M0.2,151.3c0-0.5,0.2-0.9,0.4-1.4c-0.1-0.1,0-0.3,0.2-0.5c3.3-3.4,11.2-27.2,18.9-33.4
						c0-0.2,0-0.5,0-0.7c0.5-4.8,1.6-23.8,1.8-27.1c-0.1-2.9,0-5.8,0.5-8.7c1.9-7.2,2.6-24.8,1.3-35.8c0-0.3-0.1-0.7-0.1-1
						c-0.2-2.5,0-5.2,1.5-7.3c0.3-0.4,0.6-0.7,0.9-1l0.3-0.2c1.8-1.3,4-1.9,6.2-1.7H33c0.6-1.4,1.3-2.9,1.9-4.3
						c-0.5-1-0.7-2-0.5-3.1c-0.8-0.6-1.3-1.5-1.4-2.5c-0.2-1.6,0.3-3,1.1-3.1c0.1,0,0.2,0,0.3,0c0-1.1,0.5-2.3,1.5-4.1
						c0.7-1.3,1.4-1.7,2.2-1.7c-0.8-2.9,8.4-0.9,9.3-1.1c1.8-0.3,0.5-1.1,2.5-0.6c1.8,0.6,2.7,2.6,2.1,4.4c-0.3,0.8-0.8,1.4-1.5,1.8
						c0.7,1.5-0.5,3.4-1.4,4.6c-0.5,2.5-1.4,5-2.6,7.3c-0.9,1.6-3.1,3.5-5.2,3l-0.4-0.1l-0.3,0.7c1.4,0.4,2.8,1,4,1.8
						c2.1,1.4,3.7,3.5,4.3,5.9c0.5,2.5,0.6,5.1,0.3,7.6l-0.2,2.2l0.2,3.3c3.2,1.8,6.5,3.4,9.9,4.8c0.3-0.2,0.7-0.2,1-0.1
						c0.9,0.3,4.5,1.2,5.5,2.4h0.1c0.5,0.3,3.7,1.7,3.4,2.2c-0.4,0.8-2.5-0.1-3.9-0.7l0,0c-1.1,1.1-2.7,1.6-4.2,1.1
						c-0.7-0.1-1.3-0.4-1.8-0.8c-1.8,0.4-3.8-0.4-8-1.6l-1.3-0.3c0.1,0.7,0.2,1.5,0.6,2.1c0.2,0.3,0.4,0.6,0.7,0.9
						c2,2.5,3.6,5.3,4.9,8.2c1.1,2.2,2,5,3.6,6.9c0.1,0.2,0.2,0.3,0.3,0.6c1.2,0.3,2.5,0.6,3.4,0.7c1.2,0.2,0.8,2.8,0.2,3.2
						c-1,0.6-4.3,1.2-5.1-0.1s-2.1-1-2.4-2.3c-0.1-0.3-0.1-0.6,0-0.9c-1.5-1-2.9-2.3-4-3.8c-1.6-1.9-3.1-3.8-4.6-5.7
						c-0.3,4.4-0.5,7.2-0.5,7.2s1,6.1,1.4,13.3c0.7,7,1.7,18.6,2.1,22.2c0.1,0.6,0.1,1.2,0.1,1.7c0,0,0,0.1,0,0.1
						c0.3,6.6-0.7,21.5-3.7,36.7c0.1,0.3,0.2,0.5,0.2,0.8c0.9,0.9,2,1.6,3.2,2c1.9,0.7,5.8,0.9,3.7,1.7c-2,0.5-4,0.7-6,0.3
						c-1.3-0.1-2.7-0.2-4-0.1c-2,0.1-2-0.1-1.8-2.2c0-0.1,0-0.2,0-0.3l0,0c0.5-8.2-3.4-26.9-1.4-37.6c-2.2-6.9-4-13.9-5.5-21
						c-0.7,5.8-4.2,16.2-6.2,23.3c-0.4,1-1.1,1.8-2.1,2.3c-0.4,0.6-0.9,1.1-1.4,1.6c-5.5,5.6-14.3,22-19.8,28.4
						c0.4,1,1.2,1.8,2.2,2.3c1.9,0.7,5.2,1.6,3.1,2.4c-2,0.5-4,0.7-6,0.3c-1.3-0.1-1.6-1.7-2.9-2.4C-0.2,153.4,0,153.5,0.2,151.3z"
						/>
				</defs>
				<clipPath id="SVGID_29_">
					<use xlink:href="#SVGID_28_"  style="overflow:visible;"/>
				</clipPath>
			</g>
			<path class="st29" d="M69,151.9c0.2,0.7,0.3,1.4,0.3,2.1c0.1,0.9,1,1.2,1.4,1.9s1.3,2-1.8,2.1c-3.4,0.1-5.4-0.2-4.9-2
				c0.4-1,0.6-2.2,0.7-3.3c-0.1-0.6,0-1.1,0.4-1.6C65.4,150.7,68.5,150,69,151.9z"/>
			
				<linearGradient id="SVGID_30_" gradientUnits="userSpaceOnUse" x1="119.4924" y1="152.3796" x2="93.5624" y2="145.2296" gradientTransform="matrix(1 0 0 -1 0 181.89)">
				<stop  offset="0" style="stop-color:#F70F47"/>
				<stop  offset="1" style="stop-color:#9E005D"/>
			</linearGradient>
			<path class="st30" d="M115,24.1c0.1,1.9,0,3.2-2.2,7.1c-2,3.7-4.4,7.1-7.1,10.2c-1.9,2-6.1-3-4.2-6.3
				c1.6-2.7,10.3-10.1,11.2-11.7C113.4,22.4,114.9,22.6,115,24.1z"/>
			
				<linearGradient id="SVGID_31_" gradientUnits="userSpaceOnUse" x1="119.507" y1="152.3132" x2="93.577" y2="145.1732" gradientTransform="matrix(1 0 0 -1 0 181.89)">
				<stop  offset="0" style="stop-color:#F70F47"/>
				<stop  offset="1" style="stop-color:#9E005D"/>
			</linearGradient>
			<path class="st31" d="M104.6,41.9c-1.5,0.3-4.9,0.4-12.9-1.4c-2.8-0.6-5.6-1.4-8.3-2.4c-2.6-1-3-3.8-2-4.9c1.6-1.7,4.8-3,6.2-2.6
				c7.8,2.4,13.7,4.7,15.7,4.9C106.1,35.9,106.3,41.5,104.6,41.9z"/>
			<path class="st29" d="M84,20.7c1.4,0.7,2,0.7,2.5-1.1c0.4-1.4,1.1-6.1-1.1-6.4s-3.9-0.4-3.6,2.5S82.3,19.9,84,20.7z"/>
			<path class="st19" d="M75.8,23.3c0,0.2-0.5,4.8-0.6,8.2c0.1,1.8,1.6,3.3,3.4,3.4h0.1c1.7,0,3.7-1.5,3.5-3.2
				c-0.2-2.1-0.2-4.1-0.1-6.2L75.8,23.3z"/>
			
				<linearGradient id="SVGID_32_" gradientUnits="userSpaceOnUse" x1="79.7146" y1="144.0388" x2="84.2146" y2="105.4088" gradientTransform="matrix(1 0 0 -1 0 181.89)">
				<stop  offset="0" style="stop-color:#F70F47"/>
				<stop  offset="1" style="stop-color:#9E005D"/>
			</linearGradient>
			<path class="st32" d="M67.3,42.2c3.1,10.2,4.5,22.6,3.9,29.8h23.4c0,0-0.1-22-1.7-34c-0.4-3-2.3-5.6-4.9-6.9
				c-2-0.9-4.1-1.3-6.3-1.4h-4.3c-1.5,0.1-3.1,0.2-4.6,0.6C66.6,31.4,65.5,36.2,67.3,42.2z"/>
			<path class="st33" d="M71.3,86.3c0,0-2-4.9-0.1-14.3h23.4c0.5,4.8,0.8,9.5,0.9,14.3H71.3z"/>
			<path class="st33" d="M76,117c1.9-7.6-5.9-9-8.4-3.4c-3.5,7.8-3.2,32.8-3,37.7c0,0.6,0.4,0.5,0.8,0.4c0.8-0.3,1.6-0.5,2.5-0.4
				c0.5,0.1,1,0.5,1.3,1C69.8,145.4,74.1,124.4,76,117z"/>
			<path class="st33" d="M83,87.3c0.8-9.5-2.9-16.8-8.8-13.7c-2.5,1.3-3.4,4-3.7,6.4s-2.2,28.3-2.8,32.9c-1.4,10.5,6.9,7.7,7.8,4.8
				C77.6,110.4,82.5,92.5,83,87.3z"/>
			<path class="st33" d="M96.8,116.5c0.3-7.1-6.6-7-8.4-1.2c-2.7,9.1,2,28.7,2.3,39.8c1.2-1.9,2.3-2.4,2.9-2.4c0.5,0,1,0.3,1.3,0.7
				C94.8,138.8,96.5,124.1,96.8,116.5z"/>
			<path class="st33" d="M88.7,117.2c0.9,2.9,8.9,6.3,8-4.3c-0.4-4.7-1.4-30.6-1.5-33.1s-0.6-6.1-1.9-6.6C87.1,71,81,78.4,82.6,87.8
				C83.8,94.1,86.8,111.2,88.7,117.2z"/>
			
				<linearGradient id="SVGID_33_" gradientUnits="userSpaceOnUse" x1="63.2149" y1="142.1176" x2="67.7149" y2="103.4876" gradientTransform="matrix(1 0 0 -1 0 181.89)">
				<stop  offset="0" style="stop-color:#F70F47"/>
				<stop  offset="1" style="stop-color:#9E005D"/>
			</linearGradient>
			<path class="st34" d="M71,66.6c-1.8-0.5-2.8-1.8-5.9-5.1c-4.5-4.7-5.3-6.1-7-10c-1.1-2.5,4.8-4.3,7.2-1.5
				c2,2.4,5.9,13.1,7.1,14.6C73.2,65.7,72.5,67,71,66.6z"/>
			
				<linearGradient id="SVGID_34_" gradientUnits="userSpaceOnUse" x1="66.119" y1="142.4505" x2="70.609" y2="103.8204" gradientTransform="matrix(1 0 0 -1 0 181.89)">
				<stop  offset="0" style="stop-color:#F70F47"/>
				<stop  offset="1" style="stop-color:#9E005D"/>
			</linearGradient>
			<path class="st35" d="M58,50.7c0.2-1.5,1.3-4.7,5.7-11.6c1.5-2.5,3.3-4.8,5.2-7c1.8-2.1,4.6-1.5,5.3-0.2c1.1,2.1,1.2,5.6,0.3,6.7
				c-4.9,6.5-9.1,11.2-10.1,13C63.1,54.2,57.7,52.4,58,50.7z"/>
			<path class="st9" d="M73.5,20c0.4,3.9,0.5,4.7,2.2,6.3c1.7,1.5,3.8,2.3,6,2.3c2,0,3.5-2.1,3.9-3.7c0.7-3.3,0.9-6.6,0.4-9.9
				c-0.7-2.7-3-4.6-5.7-4.8C77.6,10.2,72.5,10.5,73.5,20z"/>
			<path class="st9" d="M70.3,64.2c0.9-1,2.3-2.5,3-3.4s2.8,0.6,2.8,1.4c0.1,1.1-1.1,4.2-2.5,4.2s-1.8,1.3-3.1,0.9
				S68.9,65.8,70.3,64.2z"/>
			<path class="st29" d="M95.3,153.5c0.9,1.1,2,1.9,3.3,2.4c1.8,0.8,5.5,1.1,3.4,1.8c-1.9,0.5-3.9,0.5-5.8,0.1
				c-1.3-0.2-2.6-0.2-3.9-0.2c-1.9,0-1.9-0.1-1.7-2.2C91.1,152.4,94.4,151.8,95.3,153.5z"/>
			<path class="st29" d="M73.5,19.4c1,1,1.6,1.3,2.6-0.1c0.8-1.1,2.9-5.2,1.1-6.1s-3.4-1.6-4.1,1.1S72.3,18.1,73.5,19.4z"/>
			<ellipse transform="matrix(0.9257 -0.3782 0.3782 0.9257 -2.3215 29.2755)" class="st9" cx="73.4" cy="20.5" rx="1.4" ry="2.6"/>
			<path class="st29" d="M74.6,12.3c1.5,2.3,8.8,2.5,11.2,1.6s2.2-5.4-1.2-5.8c-1.9,0-0.5,0.5-2.1,1.1C81.8,9.6,73.1,9.9,74.6,12.3z
				"/>
			<path class="st9" d="M112.4,23.7c0.4-1.2,4.2-10.2,5.7-8.7c1.7,1.7,0.9,5.6,0.5,6.9c-0.7,2.4-3,3.8-4.5,3.7
				C113.2,25.4,112,24.8,112.4,23.7z"/>
			<path class="st9" d="M112.2,23c-0.1-0.6-0.4-4,0.3-4.1c1-0.2,1.3,2,1.5,3.5c0.1,0.8-0.3,1.9-0.9,2S112.3,23.9,112.2,23z"/>
			<g>
				<defs>
					<path id="SVGID_35_" d="M118.2,15c-1-1-3.1,2.8-4.5,5.8c-0.2-1-0.6-1.9-1.2-1.8s-0.3,3.5-0.3,4.1c0,0.3,0.1,0.6,0.2,0.9
						c0,0,0,0.1,0,0.1c-1.9,2.3-9.3,8.6-10.8,11.2c-2.8-0.8-7.8-2.6-14-4.5c-0.3-0.1-0.6-0.1-0.9,0c-1.5-0.5-3-0.7-4.6-0.8
						c0-0.4,0-0.8,0-1.2c1.8-0.3,3.1-2.2,3.5-3.7c0.4-1.5,0.6-3,0.6-4.5c0.1-0.2,0.2-0.5,0.3-0.8c0.3-1.1,0.8-4.5-0.2-5.9
						c1.4-1,1.8-2.9,0.8-4.3c-0.6-0.8-1.4-1.3-2.4-1.3c-1.9,0-0.5,0.5-2.1,1.1c-0.8,0.3-9.3,0.6-8,2.9c-0.7,0.1-1.2,0.6-1.5,1.9
						c-0.5,1.8-0.7,2.9-0.4,3.9c-0.1,0-0.2,0-0.3,0c-0.7,0.3-0.8,1.6-0.3,3c0.3,0.9,1,1.6,1.8,1.9c0.2,1.2,0.7,2.3,1.7,3.1
						c-0.1,1.1-0.2,2.5-0.3,3.8c-0.8,0.1-1.6,0.3-2.4,0.4c-0.7,0.1-1.4,0.3-2,0.6c-0.5,0.1-1,0.4-1.4,0.7c-0.9,0.6-1.7,1.5-2.2,2.5
						c-0.9,1.1-2,2.6-3.5,5C59.3,46,58.2,49.2,58,50.7c0,0.1,0,0.2,0,0.3c0,0.2,0,0.4,0.1,0.6c1.7,3.8,2.5,5.3,7,10
						c1.3,1.5,2.8,3,4.3,4.3c-0.1,0.7,0.4,1.3,1.1,1.4c0.3,0.1,0.5,0.1,0.8,0c0,1.6,0,3.1-0.1,4.7c-0.6,2.7-0.9,5.5-0.8,8.3
						c-0.4,3.4-2.1,28.2-2.8,32.7c0,0.2,0,0.3-0.1,0.5l0,0c-3.5,7.8-3.2,32.8-3,37.7c0,0.3,0.1,0.4,0.2,0.5c-0.1,0.3-0.1,0.7-0.1,1
						c0,1.1-0.2,2.2-0.7,3.3c-0.6,1.9,1.4,2.1,4.9,2c3.2-0.1,2.4-1.3,1.8-2.1s-1.3-1-1.4-1.9c-0.1-0.6,0-1-0.2-1.8l0,0
						c0.7-6.8,5-27.9,6.9-35.3c0.2-0.6,0.2-1.3,0.3-1.9c2.3-7.7,5.7-20.8,6.6-26.4c1.1,6.3,3.7,20.6,5.5,27.2
						c-2.4,9.3,2.1,28.3,2.4,39.3l0,0c0,0.1,0,0.1,0,0.2c-0.3,2.1-0.2,2.2,1.7,2.2c1.3,0,2.6,0.1,3.9,0.2c1.9,0.4,3.9,0.4,5.8-0.1
						c2.1-0.7-1.7-1-3.4-1.8c-1.3-0.5-2.4-1.3-3.3-2.4c-0.1-0.1-0.2-0.3-0.3-0.4c-0.1-14.6,1.5-29.1,1.8-36.6c0-0.4,0-0.8,0-1.3
						c0.1-0.8,0.1-1.5,0-2.3c-0.3-3.4-0.9-18-1.2-26.7l0,0c-0.1-4.8-0.4-9.6-1-14.4c0,0-0.1-18.8-1.4-31.1c6.7,1.4,9.7,1.3,11.1,1
						c0.5,0.1,0.9-0.1,1.3-0.4c2.8-3.1,5.1-6.6,7.1-10.2c1.7-3,2.2-4.5,2.3-5.8c1.7-0.5,3.1-1.8,3.6-3.6
						C119.1,20.5,119.8,16.6,118.2,15z M65.4,50.2c0.7-1,1.8-2.3,3.1-3.9c1.3,5.2,2.2,10.5,2.6,15.9C69.4,58.4,66.9,52.1,65.4,50.2z
						"/>
				</defs>
				<clipPath id="SVGID_36_">
					<use xlink:href="#SVGID_35_"  style="overflow:visible;"/>
				</clipPath>
			</g>
		</g>
	</g>
</g>
</svg>
