<svg xmlns="http://www.w3.org/2000/svg" xmlns:xlink="http://www.w3.org/1999/xlink" viewBox="0 0 337.01 290.26"><defs><style>.cls-1{fill:none;}.cls-2,.cls-35{fill:url(#Gradient_bez_nazwy_8);}.cls-3{isolation:isolate;}.cls-4{fill:#4e11f4;}.cls-5{fill:#ffaf84;}.cls-6{fill:url(#Gradient_bez_nazwy_5);}.cls-7{fill:url(#Gradient_bez_nazwy_5-2);}.cls-8{fill:url(#Gradient_bez_nazwy_5-3);}.cls-9{fill:url(#Gradient_bez_nazwy_14);}.cls-10{fill:url(#Gradient_bez_nazwy_14-2);}.cls-11{fill:url(#Gradient_bez_nazwy_14-3);}.cls-12{fill:url(#Gradient_bez_nazwy_14-4);}.cls-13{fill:url(#Gradient_bez_nazwy_14-5);}.cls-14{fill:url(#Gradient_bez_nazwy_3);}.cls-15{fill:url(#Gradient_bez_nazwy_5-4);}.cls-16{fill:url(#Gradient_bez_nazwy_5-5);}.cls-17{clip-path:url(#clip-path);}.cls-18{opacity:0.3;mix-blend-mode:multiply;fill:url(#Gradient_bez_nazwy_3-2);}.cls-19{fill:url(#Gradient_bez_nazwy_4);}.cls-20{fill:url(#Gradient_bez_nazwy_2);}.cls-21{fill:url(#Gradient_bez_nazwy_2-2);}.cls-22{fill:#ea8f68;}.cls-23{fill:url(#Gradient_bez_nazwy_2-3);}.cls-24{fill:url(#Gradient_bez_nazwy_10);}.cls-25{fill:url(#Gradient_bez_nazwy_5-6);}.cls-26{fill:url(#Gradient_bez_nazwy_5-7);}.cls-27{fill:url(#Gradient_bez_nazwy_5-8);}.cls-28{fill:url(#Gradient_bez_nazwy_5-9);}.cls-29{fill:url(#Gradient_bez_nazwy_4-2);}.cls-30{fill:url(#Gradient_bez_nazwy_4-3);}.cls-31{fill:url(#Gradient_bez_nazwy_4-4);}.cls-32{fill:url(#Gradient_bez_nazwy_4-5);}.cls-33{fill:url(#Gradient_bez_nazwy_2-4);}.cls-34{fill:url(#Gradient_bez_nazwy_2-5);}.cls-35,.cls-44,.cls-45,.cls-51{fill-rule:evenodd;}.cls-36{clip-path:url(#clip-path-2);}.cls-37{fill:url(#Gradient_bez_nazwy_8-4);}.cls-38{fill:url(#Gradient_bez_nazwy_8-5);}.cls-39{fill:url(#Gradient_bez_nazwy_8-6);}.cls-40{fill:url(#Gradient_bez_nazwy_8-7);}.cls-41{fill:url(#Gradient_bez_nazwy_8-8);}.cls-42{fill:url(#Gradient_bez_nazwy_8-9);}.cls-43{fill:url(#Gradient_bez_nazwy_5-10);}.cls-44{fill:url(#Gradient_bez_nazwy_5-11);}.cls-45{fill:url(#Gradient_bez_nazwy_5-12);}.cls-46{fill:#ecf0f8;}.cls-47{fill:url(#Gradient_bez_nazwy_5-13);}.cls-48{fill:url(#Gradient_bez_nazwy_5-14);}.cls-49{fill:#0038bb;}.cls-50{fill:url(#Gradient_bez_nazwy_5-15);}.cls-51{fill:url(#Gradient_bez_nazwy_5-16);}</style><linearGradient id="Gradient_bez_nazwy_8" x1="102.92" y1="34.87" x2="129.79" y2="34.87" gradientUnits="userSpaceOnUse"><stop offset="0" stop-color="#2c27ce"/><stop offset="1" stop-color="#ef1d68"/></linearGradient><linearGradient id="Gradient_bez_nazwy_5" x1="1361.5" y1="-1091.99" x2="1425.17" y2="-1153.31" gradientTransform="translate(-31.43 124.71) rotate(-57.71)" gradientUnits="userSpaceOnUse"><stop offset="0" stop-color="#36078b"/><stop offset="1" stop-color="#16b1ff"/></linearGradient><linearGradient id="Gradient_bez_nazwy_5-2" x1="96.78" y1="96.46" x2="134.55" y2="60.08" xlink:href="#Gradient_bez_nazwy_5"/><linearGradient id="Gradient_bez_nazwy_5-3" x1="-1336.89" y1="44.51" x2="-1336.89" y2="103.78" gradientTransform="matrix(-1, 0, 0, 1, -1257.42, 0)" xlink:href="#Gradient_bez_nazwy_5"/><linearGradient id="Gradient_bez_nazwy_14" x1="-1391.62" y1="228.85" x2="-1333.83" y2="119.11" gradientTransform="matrix(-1, 0, 0, 1, -1257.42, 0)" gradientUnits="userSpaceOnUse"><stop offset="0" stop-color="#f70f47"/><stop offset="1" stop-color="#ffb41d"/></linearGradient><linearGradient id="Gradient_bez_nazwy_14-2" x1="-1343.13" y1="254.38" x2="-1285.35" y2="144.64" xlink:href="#Gradient_bez_nazwy_14"/><linearGradient id="Gradient_bez_nazwy_14-3" x1="-1370.43" y1="240.01" x2="-1312.65" y2="130.27" xlink:href="#Gradient_bez_nazwy_14"/><linearGradient id="Gradient_bez_nazwy_14-4" x1="-1369.72" y1="240.38" x2="-1311.94" y2="130.64" xlink:href="#Gradient_bez_nazwy_14"/><linearGradient id="Gradient_bez_nazwy_14-5" x1="-1391.25" y1="229.04" x2="-1333.47" y2="119.31" xlink:href="#Gradient_bez_nazwy_14"/><linearGradient id="Gradient_bez_nazwy_3" x1="-1353.02" y1="18.67" x2="-1303.11" y2="57.11" gradientTransform="matrix(-1, 0, 0, 1, -1257.42, 0)" gradientUnits="userSpaceOnUse"><stop offset="0" stop-color="blue"/><stop offset="1" stop-color="#9e005d"/></linearGradient><linearGradient id="Gradient_bez_nazwy_5-4" x1="79.04" y1="157.64" x2="121.65" y2="108.98" gradientTransform="translate(-32.32 165.26) rotate(-89.59)" xlink:href="#Gradient_bez_nazwy_5"/><linearGradient id="Gradient_bez_nazwy_5-5" x1="25.46" y1="186.74" x2="115.03" y2="84.48" gradientTransform="translate(-32.32 165.26) rotate(-89.59)" xlink:href="#Gradient_bez_nazwy_5"/><clipPath id="clip-path"><path class="cls-1" d="M54.17,247.65a15.07,15.07,0,0,0,1-4.85,7.37,7.37,0,0,1-.18-2.26c-.28-7.54-.7-45.29,4.57-57.11v0c0-.26.05-.52.09-.79.94-6.89,3.6-44.3,4.19-49.5a56.86,56.86,0,0,1,1.24-12.57,94.7,94.7,0,0,0-.23-16.36,38.7,38.7,0,0,1-8-4.14,2.14,2.14,0,0,1-1-1.4s0,0,0-.07c-.67-2.17-1.42-7.23,0-19.56a79.49,79.49,0,0,1,2.34-12.95,5.73,5.73,0,0,1,1.86-3,12.3,12.3,0,0,1,7.5-5.58,19.59,19.59,0,0,1,3.68-.7c.07-1.29.16-2.58.25-3.77a4.24,4.24,0,0,1,.18-.91,7.42,7.42,0,0,1-2.44-4A13.93,13.93,0,0,1,68,45a6.59,6.59,0,0,1-1.26-2c-.79-1.95-.64-3.85.31-4.38-.23-4.08.27-7.14,3-8.32C69.9,27.43,81.18,27,82.28,26.55c2.35-1,.25-1.65,3.15-1.65,5.15.48,5.41,7.45,1.8,8.7l-.22.06a5.72,5.72,0,0,1,.4,1.42c.18,1.36.27,2.62.33,3.83a1.66,1.66,0,0,1,1.55-.35c1.06.43,1.25,2.43.42,4.46a5.25,5.25,0,0,1-2.28,2.78,25.9,25.9,0,0,1-.61,3.09c-.66,2.43-2.59,5.93-5.48,6.08a6.33,6.33,0,0,1,.05.65c0,.32,0,.67,0,1a28.16,28.16,0,0,1,7.69,1.49c3,.87,5.93,2.82,6.56,4.41l.76,1.92a13.18,13.18,0,0,1,1.24,3.24c3.4,9,5.61,15.81,7,18a3.25,3.25,0,0,1,.42,1.17c3.59,3.16,11.3,15.05,14.25,18.32l.16.06a6.33,6.33,0,0,1,1.34-.06c.87,0,6,.27,6,1.24s-1.37,1.29-3,1.42c4.12,2.66,9.47,6.59,7.71,7.91-2.85,2.14-8.58.24-10.42-.64a8.1,8.1,0,0,1-4.58-6.2c-2.05-.38-4.15-1.38-8.27-4.59-3.53-2.75-6.2-5-8.36-7,.49,12.56.56,23.23.56,23.23a201.54,201.54,0,0,1,1.29,21.69h0c.57,13.15,1.46,35.17,1.86,40.32a25.3,25.3,0,0,1,.05,3.42,14.32,14.32,0,0,1,0,1.93c-.49,11.39-3.89,33.36-2.81,55.37a2.32,2.32,0,0,1,.46.59,12,12,0,0,0,5,3.67c2.68,1.16,8.37,1.7,5.21,2.71s-6.84.4-8.71.11a39.43,39.43,0,0,0-5.88-.34c-2.9,0-2.92-.19-2.53-3.34,0-.09,0-.18.05-.26v0c-.44-16.58-7.34-45.38-3.68-59.47-2.77-10.06-6.66-31.62-8.34-41.18-1.29,8.52-6.55,28.35-10,40a14,14,0,0,1-.39,2.93C69.47,199.84,62.75,231,61.85,242h0c.28,1.23.17,1.79.32,2.72.21,1.29,1.45,1.76,2.16,2.82s2,2.87-2.81,3C56.36,250.63,53.3,250.46,54.17,247.65Z"/></clipPath><linearGradient id="Gradient_bez_nazwy_3-2" x1="-7251" y1="9733.32" x2="-7044.79" y2="9860.01" gradientTransform="matrix(0.4, -0.87, -0.54, -0.47, 8164.95, -1440.77)" xlink:href="#Gradient_bez_nazwy_3"/><linearGradient id="Gradient_bez_nazwy_4" x1="-4751.12" y1="93.63" x2="-4809.43" y2="51.58" gradientTransform="matrix(-1, 0, 0, 1, -4515.76, 0)" gradientUnits="userSpaceOnUse"><stop offset="0" stop-color="#2c27ce"/><stop offset="0.65" stop-color="#ef1d68"/><stop offset="1" stop-color="#efba92"/></linearGradient><linearGradient id="Gradient_bez_nazwy_2" x1="-3390.36" y1="1713.57" x2="-3408.37" y2="1758.47" gradientTransform="matrix(-0.86, -0.51, -0.51, 0.86, -1787.6, -3128.88)" gradientUnits="userSpaceOnUse"><stop offset="0" stop-color="#f70f47"/><stop offset="1" stop-color="#9e005d"/></linearGradient><linearGradient id="Gradient_bez_nazwy_2-2" x1="-4359.8" y1="4780.71" x2="-4379.97" y2="4831" gradientTransform="matrix(0.91, 0.41, 0.41, -0.91, 2251.46, 6308.12)" xlink:href="#Gradient_bez_nazwy_2"/><linearGradient id="Gradient_bez_nazwy_2-3" x1="-4783.47" y1="88.64" x2="-4776.81" y2="145.83" gradientTransform="matrix(-1, 0, 0, 1, -4515.76, 0)" xlink:href="#Gradient_bez_nazwy_2"/><linearGradient id="Gradient_bez_nazwy_10" x1="-4771.63" y1="128.38" x2="-4798.01" y2="205.17" gradientTransform="matrix(-1, 0, 0, 1, -4515.76, 0)" gradientUnits="userSpaceOnUse"><stop offset="0" stop-color="#36078b"/><stop offset="1" stop-color="#168d68"/></linearGradient><linearGradient id="Gradient_bez_nazwy_5-6" x1="-5152.29" y1="48.13" x2="-5179.26" y2="126.61" gradientTransform="matrix(-0.3, 0.95, 0.95, 0.3, -1399.15, 5103.12)" xlink:href="#Gradient_bez_nazwy_5"/><linearGradient id="Gradient_bez_nazwy_5-7" x1="-4775.87" y1="126.72" x2="-4802.25" y2="203.5" gradientTransform="matrix(-1, 0, 0, 1, -4515.76, 0)" xlink:href="#Gradient_bez_nazwy_5"/><linearGradient id="Gradient_bez_nazwy_5-8" x1="-4738.3" y1="139.83" x2="-4764.68" y2="216.61" gradientTransform="matrix(-1, 0, 0, 1, -4515.76, 0)" xlink:href="#Gradient_bez_nazwy_5"/><linearGradient id="Gradient_bez_nazwy_5-9" x1="-4755.75" y1="133.84" x2="-4782.13" y2="210.62" gradientTransform="matrix(-1, 0, 0, 1, -4515.76, 0)" xlink:href="#Gradient_bez_nazwy_5"/><linearGradient id="Gradient_bez_nazwy_4-2" x1="-4763.46" y1="284.07" x2="-4760.47" y2="247.33" xlink:href="#Gradient_bez_nazwy_4"/><linearGradient id="Gradient_bez_nazwy_4-3" x1="-4867.12" y1="317.88" x2="-4863.36" y2="271.57" gradientTransform="matrix(-0.45, 0.89, 0.89, 0.45, -2110.85, 4432.78)" xlink:href="#Gradient_bez_nazwy_4"/><linearGradient id="Gradient_bez_nazwy_4-4" x1="-4758.13" y1="85.61" x2="-4791.21" y2="47.86" xlink:href="#Gradient_bez_nazwy_4"/><linearGradient id="Gradient_bez_nazwy_4-5" x1="-4751.32" y1="79.65" x2="-4784.4" y2="41.9" xlink:href="#Gradient_bez_nazwy_4"/><linearGradient id="Gradient_bez_nazwy_2-4" x1="-5320.96" y1="-103.08" x2="-5342.63" y2="-49.06" gradientTransform="matrix(0.46, 0.57, 0.77, -0.64, 2829.29, 3066.73)" xlink:href="#Gradient_bez_nazwy_2"/><linearGradient id="Gradient_bez_nazwy_2-5" x1="-2451.64" y1="346.58" x2="-2467.42" y2="385.93" gradientTransform="translate(-1238.03 -1921.17) rotate(-119.03)" xlink:href="#Gradient_bez_nazwy_2"/><clipPath id="clip-path-2"><path class="cls-2" d="M105.22,24.94h1.55V23.48H110v1.45h2.56a2.33,2.33,0,0,1,2.3,2.35v4h12v0a.6.6,0,0,1,.59-.6h1.66a.6.6,0,0,1,.59.6v9.22a.6.6,0,0,1-.59.6h-1.66a.6.6,0,0,1-.59-.6v-.06h-12V43.9a2.33,2.33,0,0,1-2.3,2.35h-7.4a2.33,2.33,0,0,1-2.3-2.35V27.29A2.33,2.33,0,0,1,105.22,24.94Z"/></clipPath><linearGradient id="Gradient_bez_nazwy_8-4" x1="126.95" y1="32.21" x2="131.31" y2="32.21" xlink:href="#Gradient_bez_nazwy_8"/><linearGradient id="Gradient_bez_nazwy_8-5" x1="126.95" y1="34.75" x2="131.31" y2="34.75" xlink:href="#Gradient_bez_nazwy_8"/><linearGradient id="Gradient_bez_nazwy_8-6" x1="126.95" y1="37.15" x2="131.31" y2="37.15" xlink:href="#Gradient_bez_nazwy_8"/><linearGradient id="Gradient_bez_nazwy_8-7" x1="126.95" y1="39.67" x2="131.31" y2="39.67" xlink:href="#Gradient_bez_nazwy_8"/><linearGradient id="Gradient_bez_nazwy_8-8" x1="114.99" y1="35.67" x2="116.25" y2="35.67" xlink:href="#Gradient_bez_nazwy_8"/><linearGradient id="Gradient_bez_nazwy_8-9" x1="121.39" y1="35.67" x2="122.65" y2="35.67" xlink:href="#Gradient_bez_nazwy_8"/><linearGradient id="Gradient_bez_nazwy_5-10" x1="131.5" y1="116.21" x2="216.28" y2="116.21" gradientTransform="matrix(1, 0, 0, 1, 0, 0)" xlink:href="#Gradient_bez_nazwy_5"/><linearGradient id="Gradient_bez_nazwy_5-11" x1="171.8" y1="24.25" x2="191.87" y2="24.25" gradientTransform="matrix(1, 0, 0, 1, 0, 0)" xlink:href="#Gradient_bez_nazwy_5"/><linearGradient id="Gradient_bez_nazwy_5-12" x1="186.43" y1="23.55" x2="231.36" y2="23.55" gradientTransform="matrix(1, 0, 0, 1, 0, 0)" xlink:href="#Gradient_bez_nazwy_5"/><linearGradient id="Gradient_bez_nazwy_5-13" x1="73.56" y1="172.94" x2="158.33" y2="172.94" gradientTransform="matrix(1, 0, 0, 1, 0, 0)" xlink:href="#Gradient_bez_nazwy_5"/><linearGradient id="Gradient_bez_nazwy_5-14" x1="138.59" y1="80.12" x2="187.3" y2="80.12" gradientTransform="matrix(1, 0, 0, 1, 0, 0)" xlink:href="#Gradient_bez_nazwy_5"/><linearGradient id="Gradient_bez_nazwy_5-15" x1="116.35" y1="73.93" x2="153.15" y2="73.93" gradientTransform="matrix(1, 0, 0, 1, 0, 0)" xlink:href="#Gradient_bez_nazwy_5"/><linearGradient id="Gradient_bez_nazwy_5-16" x1="113.85" y1="80.98" x2="133.92" y2="80.98" gradientTransform="matrix(1, 0, 0, 1, 0, 0)" xlink:href="#Gradient_bez_nazwy_5"/></defs><title>foto</title><g class="cls-3"><g id="Слой_2" data-name="Слой 2"><g id="Objects"><path class="cls-4" d="M61.73,241.52a18.65,18.65,0,0,1,.44,3.22c.21,1.29,1.45,1.76,2.16,2.82s2,2.87-2.81,3c-5.17.1-8.23-.06-7.35-2.88s1-4.06,1-5a3,3,0,0,1,.58-2.42C56.33,239.7,61,238.71,61.73,241.52Z"/><path class="cls-5" d="M118.53,44.69c.16-1.88,2.2-16.59,5-15,3.08,1.79,3.55,7.81,3.45,9.85-.16,3.73-2.87,6.65-5.1,7.09C120.3,47,118.38,46.48,118.53,44.69Z"/><path class="cls-5" d="M118,43.77c-.3-.81-2.09-5.65-1.21-6.05,1.34-.61,2.67,2.5,3.56,4.56.48,1.11.38,2.94-.57,3.22S118.46,45.07,118,43.77Z"/><path class="cls-4" d="M101.44,243.87a12,12,0,0,0,5,3.67c2.68,1.16,8.37,1.7,5.21,2.71s-6.84.4-8.71.11a39.43,39.43,0,0,0-5.88-.34c-2.9,0-2.92-.19-2.53-3.34C95.1,242.34,100.13,241.42,101.44,243.87Z"/><path class="cls-5" d="M68.5,42.7c.59,5.87.76,7.17,3.32,9.57S78.39,55,81.17,55c3,0,5-3.62,5.66-6.11a36.16,36.16,0,0,0,.58-13.82C87,31.84,83,27.89,78.83,27.89S67.07,28.37,68.5,42.7Z"/><path class="cls-6" d="M119.87,43.89c-.79,2.78-10.81,16.83-12.13,21.39-1.56,5.39,6.46,11.27,8.45,7.62,2.15-4,4.12-8.75,6.63-17.63,1.86-6.57,1.55-8.52.62-11.27C122.69,41.77,120.4,42.05,119.87,43.89Z"/><path class="cls-7" d="M110.77,62.59c-3,0-12.23-2.52-24.36-4.8-2.15-.4-6.86,2.1-8.91,5-1.27,1.78-.22,6,3.82,7a79.63,79.63,0,0,0,13,2.28c12.34,1.35,17.4.58,19.57-.1C116.4,71.1,115.2,62.63,110.77,62.59Z"/><path class="cls-5" d="M71.49,53c-.16,2-.31,4.37-.38,6.51A5.6,5.6,0,0,0,76,65.23h.32c2.53,0,5.52-2.29,5.29-4.83-.15-1.65-.2-3.31-.21-4.77A6.59,6.59,0,0,0,77,49.45h0A4.14,4.14,0,0,0,71.49,53Z"/><path class="cls-8" d="M59.75,78.11c4.71,15.48,6.25,31.63,5.33,42.44h35.46s-.21-33.21-2.58-51.4a13.61,13.61,0,0,0-7.48-10.43C87.81,57.31,83,56.63,81,56.63H74.47a24.82,24.82,0,0,0-6.92.86C57.88,60.46,57,69.14,59.75,78.11Z"/><path class="cls-9" d="M65.23,142.25s-3.06-7.44-.15-21.69h35.46a201.54,201.54,0,0,1,1.29,21.69Z"/><path class="cls-10" d="M72.23,188.66c2.84-11.54-9-13.58-12.67-5.22C54.29,195.24,54.71,233,55,240.54c0,1-.13,2.2.37,2.54.94.64,2.92.63,3.75.6,1.32,0,2.62,0,2.75-1.67C62.75,231,69.47,199.84,72.23,188.66Z"/><path class="cls-11" d="M82.83,143.81c1.25-14.34-4.43-25.48-13.33-20.74-3.74,2-5.11,6-5.62,9.73s-3.26,42.77-4.22,49.82c-2.18,15.89,10.38,11.61,11.74,7.21C74.83,178.71,82.15,151.62,82.83,143.81Z"/><path class="cls-12" d="M94.6,246.4c-.45-16.9-7.61-46.48-3.47-60.26,2.63-8.76,13.11-9,12.64,1.78-.5,11.5-4,33.79-2.78,56C101.12,246.12,94.68,248.37,94.6,246.4Z"/><path class="cls-13" d="M91.56,189.08c1.39,4.39,13.39,9.48,12.13-6.51-.56-7.1-2-46.27-2.32-50s-.94-9.29-2.83-10c-9.47-3.44-18.66,7.82-16.16,22C84,154,88.67,180,91.56,189.08Z"/><ellipse class="cls-5" cx="87.8" cy="42.25" rx="3.97" ry="2.08" transform="translate(15.48 107.55) rotate(-67.78)"/><ellipse class="cls-5" cx="68.67" cy="42.25" rx="2.08" ry="3.97" transform="translate(-10.88 29.1) rotate(-22.21)"/><path class="cls-14" d="M70.31,31.14c2.29,3.41,13.33,3.73,16.93,2.47s3.35-8.23-1.8-8.7c-2.9,0-.8.69-3.15,1.65C81.09,27,67.87,27.5,70.31,31.14Z"/><path class="cls-15" d="M100.83,48.19C100,51,89.74,64.84,88.35,69.38,86.7,74.75,94,80.71,96.19,77.21c3.42-5.37,4.55-7.51,6.72-17.1,1.51-6.66,2.37-9,1.48-11.74C103.68,46.11,101.38,46.36,100.83,48.19Z"/><path class="cls-16" d="M91.76,68.86c-3-.07-12.2-2.66-24.3-5.08-2.15-.43-6.89,2-9,4.88-1.29,1.77-.29,6,3.74,7A79.49,79.49,0,0,0,75.16,78.1c12.33,1.49,17.39.78,19.57.12C97.3,77.44,96.19,69,91.76,68.86Z"/><g class="cls-17"><path class="cls-18" d="M66.23,17.69c-16-9.8-45.55,5.07-50.87,24.41-5.43,19.75,9.41,29.19-2.76,56.53C3,120.26,14,144,16.64,162.69c2.86,20.55-7.42,30.49-4,48.82C20.42,253.7-18,278.8,11,287.74c29.77,9.18,29.3-9.63,61.67-9.74,28.12-.1,29.62-71.67,26.73-99C96.32,150,79.65,145,86.83,114.18c4.3-18.45,7.82-29-10.51-48.93C66.93,55,96.83,36.42,66.23,17.69Z"/></g><path class="cls-19" d="M271.5,46.94c-2.09-2.95.3-8.16,6.25-8.65,6.79-.56,18.84,3.36,12.37,19.18-6.73,16.46-4.63,20.68-.09,23.14,0,0-15.54,1.25-14.36-12.33S276.36,53.79,271.5,46.94Z"/><path class="cls-20" d="M238.25,102c2.15-2.14,7.23-9.5,14.31-19,1.25-1.69,5.22-4.08,8.7-4.26,2.16-.11,4.35,2.46,2.18,5.74a87.43,87.43,0,0,1-7.66,10.1c-7.87,9.26-12,12.47-14.06,13.69C239.32,109.67,235.12,105.1,238.25,102Z"/><path class="cls-21" d="M256.83,122.29c-1.62-1.84-16-12.1-18.69-15.11-3.16-3.57,1.51-7.06,4.62-4.67,4.76,3.66,6.45,5.11,11.4,11.44,3.44,4.4,5.54,4.45,5.61,6.2C259.83,121.57,257.9,123.5,256.83,122.29Z"/><path class="cls-22" d="M273.82,66.68c0,.34.57,7.53.67,13.06,0,2.71-1.91,5.28-3.86,5.34h-.08c-1.91,0-4.16-2.4-4-5.06.31-4.81.08-9.73.07-9.8Z"/><path class="cls-23" d="M279.4,97.78A94,94,0,0,0,276,112.9a38.3,38.3,0,0,0,0,11.38c.31,2.27.75,4.52,1.27,6.75.2.85,1.86,7.67,1.93,8.4H248.06c.3-6.1,7.25-25.27,2.54-37.68-3.26-8.6,1.07-8.86,4-16a21,21,0,0,1,2.49-5.19,9,9,0,0,1,4.77-2.92,17.75,17.75,0,0,1,2.9-.41c5.27-.43,17.68-2,18.85,5.55a13.28,13.28,0,0,1-.62,6.06c-.7,2.19-1.74,4.25-2.61,6.37Q279.85,96.47,279.4,97.78Z"/><path class="cls-24" d="M279.07,159.2s2.69-6.78.13-19.77H248.06a190.55,190.55,0,0,0-1.13,19.77Z"/><path class="cls-25" d="M281.55,206.46c-10.78-.81-9.42-11.24-1.17-12.05,11.66-1.15,45.71,12.79,52.18,15.11.85.3.55.7.22,1.12-1,1.24-1.95,0-2.81,2-.46,1.07.82,2.08.82,2.08C321.58,212.86,292,207.24,281.55,206.46Z"/><path class="cls-26" d="M263.62,160.42c-1.09-13.07,3.9-23.22,11.71-18.91,3.29,1.82,4.49,5.45,4.93,8.87s2.86,39,3.71,45.42c1.91,14.49-9.11,10.58-10.31,6.57C270.64,192.23,264.21,167.54,263.62,160.42Z"/><path class="cls-27" d="M245.21,200.82c-.41-9.81,8.8-9.6,11.11-1.62,3.64,12.56-2.65,39.53-3,54.93-1.6-2.66-3.12-3.31-3.83-3.25a2.56,2.56,0,0,0-1.79,1C247.89,231.6,245.65,211.31,245.21,200.82Z"/><path class="cls-28" d="M255.95,201.89c-1.22,4-11.76,8.64-10.66-5.94.49-6.47,1.79-42.18,2-45.62s.82-8.47,2.49-9.1c8.32-3.14,16.39,7.13,14.2,20.05C262.55,169.92,258.48,193.58,255.95,201.89Z"/><path class="cls-5" d="M277.56,61.47c-.61,6.15-.79,7.51-3.48,10a14.49,14.49,0,0,1-9.44,3.67c-3.14,0-5.48-3.32-6.19-5.92a44.68,44.68,0,0,1-.71-15.74c.45-3.41,4.66-7.55,9-7.55S279.06,46.46,277.56,61.47Z"/><path class="cls-29" d="M247.26,251.83a10.62,10.62,0,0,1-4.41,3.34c-2.36,1.05-7.35,1.55-4.58,2.47s6,.37,7.65.1a33.19,33.19,0,0,1,5.16-.31c2.55,0,2.57-.17,2.22-3C252.84,250.43,248.41,249.6,247.26,251.83Z"/><path class="cls-30" d="M329.61,214.61c.46.63,3.28,2.47,3.16,5.05s-1.93,7.26.14,5.2,3-5.2,3.54-6.78-1-2.62-.11-4.35c1.13-2.28,1-2.37-1.72-3.36C330.88,209,328.14,212.58,329.61,214.61Z"/><path class="cls-31" d="M258.78,50.29c-2.4,4.11,15.08,11.65,19,11s3.85-8.9.85-12.67S264.46,40.59,258.78,50.29Z"/><path class="cls-32" d="M265.27,49.25c-.63,3.48-6.73,4.27-7.76,7.15-.64,1.79-.94-3.85.48-6.41S266.54,42.26,265.27,49.25Z"/><ellipse class="cls-5" cx="277.75" cy="62.37" rx="4.16" ry="2.18" transform="translate(115 295.93) rotate(-67.79)"/><path class="cls-5" d="M280.49,39.56a11.27,11.27,0,0,1-4.39-3c-.76-1.12,1.91,0,3.23.51S281.93,40.18,280.49,39.56Z"/><path class="cls-5" d="M279.51,37.79c-2.32-3.06-4.06-4.31-4.31-6.16s3.09-.78,4.06.16,4.65,4.1,4.51,5.71S281.23,40,279.51,37.79Z"/><path class="cls-33" d="M298.08,61.76c-1.49,2.64-4.42,11.09-8.68,22.16-.76,2-3.93,5.33-7.24,6.44-2.05.68-4.85-1.2-3.64-4.95a87.27,87.27,0,0,1,4.67-11.78c5.1-11,8.25-15.24,9.87-17C295,54.63,300.26,57.9,298.08,61.76Z"/><path class="cls-34" d="M282.79,36.93c1.78.38,1.46,2.54,5.35,6.85,5.6,6.21,6.78,8.19,9.68,13.72,1.89,3.61-2.52,7.78-5.6,3.9-2.61-3.28-10.55-19.86-12.14-21.84C279,38.25,281.35,36.62,282.79,36.93Z"/><path class="cls-35" d="M105.22,24.94h1.55V23.48H110v1.45h2.56a2.33,2.33,0,0,1,2.3,2.35v4h12v0a.6.6,0,0,1,.59-.6h1.66a.6.6,0,0,1,.59.6v9.22a.6.6,0,0,1-.59.6h-1.66a.6.6,0,0,1-.59-.6v-.06h-12V43.9a2.33,2.33,0,0,1-2.3,2.35h-7.4a2.33,2.33,0,0,1-2.3-2.35V27.29A2.33,2.33,0,0,1,105.22,24.94Z"/><path class="cls-2" d="M105.22,24.94h1.55V23.48H110v1.45h2.56a2.33,2.33,0,0,1,2.3,2.35v4h12v0a.6.6,0,0,1,.59-.6h1.66a.6.6,0,0,1,.59.6v9.22a.6.6,0,0,1-.59.6h-1.66a.6.6,0,0,1-.59-.6v-.06h-12V43.9a2.33,2.33,0,0,1-2.3,2.35h-7.4a2.33,2.33,0,0,1-2.3-2.35V27.29A2.33,2.33,0,0,1,105.22,24.94Z"/><g class="cls-36"><rect class="cls-37" x="126.95" y="31.68" width="4.36" height="1.06"/><rect class="cls-38" x="126.95" y="34.22" width="4.36" height="1.06"/><rect class="cls-39" x="126.95" y="36.62" width="4.36" height="1.06"/><rect class="cls-40" x="126.95" y="39.14" width="4.36" height="1.06"/><rect class="cls-41" x="114.99" y="30.46" width="1.26" height="10.41"/><rect class="cls-42" x="121.39" y="30.46" width="1.26" height="10.41"/></g><path class="cls-43" d="M171.36,154.33v-.06h.5v-121h4.06v121h.5v.06l39.86,43.89v1h-3.44L211,196.06l-34.69-36-.44,31.56v7.53h-4v-7.53l-.45-31.56-34.69,36-1.83,3.14H131.5v-1Z"/><path class="cls-44" d="M175.83,35.26l-4-2,15.45-19a2.83,2.83,0,0,1,3.14-.78,2.11,2.11,0,0,1,1.47,1.8Z"/><path class="cls-45" d="M186.43,47.1s2-32,1.92-33.37S231.36,0,231.36,0Z"/><path class="cls-46" d="M250.51,20,247.92,4.2,231.51,0,209,9.45,190.82,28.07l-5.24,19.1,10.11,10.64L216.42,55,238.07,40.1Z"/><path class="cls-47" d="M113.42,211.05V211h.5V90H118V211h.5v.06l39.86,43.89v1h-3.44l-1.83-3.14-34.69-36-.44,31.56v7.53h-4v-7.53l-.45-31.56-34.69,36L77,255.92H73.56v-1Z"/><path class="cls-48" d="M152.72,53.79H187.3l-13,52.67H139.75c-5.93-36.4,12.82-52.54,13-52.66Z"/><path class="cls-49" d="M187.31,53.79s-18.91,16.13-13,52.67Z"/><path class="cls-50" d="M152.72,70.38l-30.7-5a11.12,11.12,0,0,0-5.66,10l29.3,7.1s9.62-5.91,7.06-12.1"/><path class="cls-51" d="M117.88,92l-4-2,15.45-19a2.83,2.83,0,0,1,3.14-.78,2.11,2.11,0,0,1,1.47,1.8Z"/><path class="cls-5" d="M101.1,46.26c1-1.35,9.65-11.56,11-9,1.48,2.85-1.06,7.64-2.11,9.15-1.92,2.76-5.38,3.68-7.28,2.94C101.35,48.84,100.12,47.55,101.1,46.26Z"/><path class="cls-5" d="M101.59,43.49c0-.78.2-5.41,1.07-5.44,1.33,0,1.36,3,1.4,5,0,1.09-.69,2.57-1.58,2.48S101.55,44.74,101.59,43.49Z"/><path class="cls-5" d="M116.91,41.3c-.25-.74-1.7-5.15-.89-5.48,1.23-.5,2.32,2.33,3.05,4.21.4,1,.25,2.65-.61,2.87S117.31,42.49,116.91,41.3Z"/></g></g></g></svg>