<?xml version="1.0" encoding="utf-8"?>
<!-- Generator: Adobe Illustrator 21.0.0, SVG Export Plug-In . SVG Version: 6.00 Build 0)  -->
<svg version="1.1" id="Слой_1" xmlns="http://www.w3.org/2000/svg" xmlns:xlink="http://www.w3.org/1999/xlink" x="0px" y="0px"
	 viewBox="0 0 209.4 180" style="enable-background:new 0 0 209.4 180;" xml:space="preserve">
<style type="text/css">
	.st0{fill:none;stroke:#0037FF;stroke-linecap:round;stroke-linejoin:round;}
	.st1{fill:url(#SVGID_1_);}
	.st2{fill:#FFAF84;}
	.st3{fill:url(#SVGID_2_);}
	.st4{fill:url(#SVGID_3_);}
	.st5{fill:#ED9169;}
	.st6{fill:url(#SVGID_4_);}
	.st7{fill:url(#SVGID_5_);}
	.st8{fill:url(#SVGID_6_);}
	.st9{fill:url(#SVGID_7_);}
	.st10{fill:url(#SVGID_8_);}
	.st11{fill:url(#SVGID_9_);}
	.st12{fill:url(#SVGID_10_);}
	.st13{fill:url(#SVGID_11_);}
	.st14{fill:url(#SVGID_12_);}
	.st15{fill:url(#SVGID_13_);}
	.st16{opacity:0.3;fill:url(#SVGID_14_);enable-background:new    ;}
	.st17{fill:url(#SVGID_15_);}
	.st18{fill:url(#SVGID_16_);}
	.st19{fill:#F70F47;}
	.st20{fill:url(#SVGID_17_);}
	.st21{fill:url(#SVGID_18_);}
	.st22{fill:url(#SVGID_19_);}
	.st23{fill:url(#SVGID_20_);}
	.st24{fill:url(#SVGID_21_);}
	.st25{fill:url(#SVGID_22_);}
	.st26{fill:url(#SVGID_23_);}
	.st27{fill:url(#SVGID_24_);}
	.st28{opacity:0.3;fill:url(#SVGID_25_);enable-background:new    ;}
</style>
<title>fs-blok4</title>
<g>
	<g id="Слой_2">
		<g id="Objects">
			<path class="st0" d="M144.4,170.5H62.7c-7.4,0-13.5-6-13.5-13.5V40.3c0-7.4,6-13.5,13.5-13.5h81.7c7.4,0,13.5,6,13.5,13.5v116.8
				C157.9,164.5,151.8,170.5,144.4,170.5z"/>
			<path class="st0" d="M175.2,6.6c-23.7,1.5-24.1,28.5-24.1,28.5v128.2H56V35.1c0,0-0.1-26.8,24.3-28.5L175.2,6.6z"/>
			<rect x="68.5" y="40.1" class="st0" width="65.3" height="5.8"/>
			<rect x="68.5" y="53.4" class="st0" width="55.8" height="4.1"/>
			<rect x="68.5" y="64.2" class="st0" width="28" height="6.1"/>
			<rect x="104.8" y="64.2" class="st0" width="29" height="6.1"/>
			<rect x="68.5" y="75.9" class="st0" width="44.7" height="4.3"/>
			<rect x="68.5" y="86.7" class="st0" width="50.3" height="2.4"/>
			<rect x="68.5" y="97.5" class="st0" width="60.5" height="2.4"/>
			<path class="st0" d="M96.8,121.7H68.3v-13.6h28.4L96.8,121.7L96.8,121.7z M68.8,121.3h27.6v-12.8H68.7L68.8,121.3z"/>
			<rect x="103.6" y="108.3" class="st0" width="25.4" height="3.1"/>
			<rect x="103.6" y="114.9" class="st0" width="18" height="3.1"/>
			<rect x="68.5" y="129.9" class="st0" width="49.9" height="2.4"/>
			<rect x="68.5" y="140.7" class="st0" width="28.7" height="2.4"/>
			
				<linearGradient id="SVGID_1_" gradientUnits="userSpaceOnUse" x1="26.9488" y1="657.9954" x2="17.3388" y2="702.2254" gradientTransform="matrix(1 0 0 1 0 -659.78)">
				<stop  offset="0" style="stop-color:#2C27CE"/>
				<stop  offset="1" style="stop-color:#EF1D68"/>
			</linearGradient>
			<path class="st1" d="M15.5,13.5c-4,3-6.1,8-5.3,13c0.7,4.6,0.4,9.3-1,13.8c-1,3.1-4.5,13.6,7.9,13.4S30.2,39,28.8,31.6
				S30,19,28.1,16.7S21.9,8.8,15.5,13.5z"/>
			<path class="st2" d="M62.2,40.5c2.3-1.8,4.6-3.8,5.1-1.7s0.5,1.9-1.2,3.4S60.2,42.1,62.2,40.5z"/>
			
				<linearGradient id="SVGID_2_" gradientUnits="userSpaceOnUse" x1="34.2773" y1="702.7673" x2="58.4673" y2="705.1373" gradientTransform="matrix(1 0 0 1 0 -659.78)">
				<stop  offset="0" style="stop-color:#36078B"/>
				<stop  offset="1" style="stop-color:#16B1FF"/>
			</linearGradient>
			<path class="st3" d="M62.2,40.1c-1.6,0.7-12.5,2.9-16.9,4.3h-0.1c-2.2-0.6-8.3-3.6-16.5-7.2c-2.4-0.8-5-0.6-7.3,0.4
				c-1.5,0.7-1.9,3.2,0.7,4.6c2.8,1.5,5.8,2.7,8.8,3.8c7.4,2.7,11.4,3.5,13.5,3.7c0.5,0.1,0.9,0.1,1.4,0c4.2-0.8,8.2-2.4,11.9-4.5
				c3.9-2,5.4-1.4,6-2.6C64.1,41.6,63.4,39.6,62.2,40.1z"/>
			
				<linearGradient id="SVGID_3_" gradientUnits="userSpaceOnUse" x1="11.0681" y1="828.6285" x2="11.6581" y2="810.9585" gradientTransform="matrix(1 0 0 1 0 -659.78)">
				<stop  offset="0" style="stop-color:#2C27CE"/>
				<stop  offset="0.65" style="stop-color:#EF1D68"/>
				<stop  offset="1" style="stop-color:#EFBA92"/>
			</linearGradient>
			<path class="st4" d="M12.5,167c0.2,0.7,0.3,1.5,0.3,2.2c0.1,0.9,1,1.2,1.4,1.9s1.3,2.1-1.9,2.2c-3.4,0.1-5.5-0.2-4.9-2.1
				c0.4-1.1,0.6-2.3,0.7-3.4c-0.1-0.6,0-1.2,0.4-1.7C8.9,165.7,11.9,165.1,12.5,167z"/>
			<path class="st5" d="M18.8,28.7c0,0.3-0.4,5.7-0.5,9.9c0,2,1.4,4,2.9,4h0.1c1.4,0,3.2-1.8,3-3.8c-0.2-3.6-0.1-7.3-0.1-7.4
				L18.8,28.7z"/>
			
				<linearGradient id="SVGID_4_" gradientUnits="userSpaceOnUse" x1="19.3937" y1="697.8445" x2="28.6437" y2="739.1146" gradientTransform="matrix(1 0 0 1 0 -659.78)">
				<stop  offset="0" style="stop-color:#36078B"/>
				<stop  offset="1" style="stop-color:#16B1FF"/>
			</linearGradient>
			<path class="st6" d="M14.5,52.1c1.2,3.7,2.1,7.6,2.6,11.4c0.4,2.9,0.4,5.7,0,8.6c-0.2,1.7-0.6,3.4-1,5.1
				c-0.2,0.6-1.4,5.8-1.5,6.4h23.5C38,79,32.7,64.5,36.3,55.1c2.5-6.5-0.8-6.7-3-12.1c-0.4-1.4-1.1-2.7-1.9-3.9
				c-0.9-1.1-2.2-1.9-3.6-2.2c-0.7-0.2-1.5-0.3-2.2-0.3c-4-0.3-13.4-1.5-14.3,4.2c-0.2,1.5,0,3.1,0.5,4.6c0.5,1.7,1.3,3.2,2,4.8
				C14.1,50.8,14.3,51.5,14.5,52.1z"/>
			
				<linearGradient id="SVGID_5_" gradientUnits="userSpaceOnUse" x1="26.6704" y1="771.1997" x2="27.9304" y2="884.4097" gradientTransform="matrix(1 0 0 1 0 -659.78)">
				<stop  offset="0" style="stop-color:#F70F47"/>
				<stop  offset="1" style="stop-color:#9E005D"/>
			</linearGradient>
			<path class="st7" d="M14.8,98.6c0,0-2-5.1-0.1-14.9h23.5c0.5,5,0.8,10,0.9,14.9H14.8z"/>
			
				<linearGradient id="SVGID_6_" gradientUnits="userSpaceOnUse" x1="13.4251" y1="771.35" x2="14.6952" y2="884.5599" gradientTransform="matrix(1 0 0 1 0 -659.78)">
				<stop  offset="0" style="stop-color:#F70F47"/>
				<stop  offset="1" style="stop-color:#9E005D"/>
			</linearGradient>
			<path class="st8" d="M19.4,130.6c1.9-8-5.9-9.4-8.4-3.6c-3.5,8.1-3.2,34.2-3,39.3c0,0.7,0.4,0.6,0.8,0.4c0.8-0.3,1.6-0.5,2.5-0.5
				c0.6,0.2,1,0.6,1.3,1.1C13.3,160.3,17.6,138.3,19.4,130.6z"/>
			
				<linearGradient id="SVGID_7_" gradientUnits="userSpaceOnUse" x1="18.81" y1="771.289" x2="20.07" y2="884.499" gradientTransform="matrix(1 0 0 1 0 -659.78)">
				<stop  offset="0" style="stop-color:#F70F47"/>
				<stop  offset="1" style="stop-color:#9E005D"/>
			</linearGradient>
			<path class="st9" d="M26.5,99.7c0.8-9.9-2.9-17.6-8.8-14.3c-2.5,1.4-3.4,4.1-3.7,6.7s-2.2,29.5-2.8,34.3c-1.4,11,6.9,8,7.8,5
				C21.1,123.7,26,105,26.5,99.7z"/>
			
				<linearGradient id="SVGID_8_" gradientUnits="userSpaceOnUse" x1="35.5233" y1="771.0999" x2="36.7833" y2="884.3099" gradientTransform="matrix(1 0 0 1 0 -659.78)">
				<stop  offset="0" style="stop-color:#F70F47"/>
				<stop  offset="1" style="stop-color:#9E005D"/>
			</linearGradient>
			<path class="st10" d="M40.4,130.1c0.3-7.4-6.6-7.3-8.4-1.2c-2.8,9.5,2,29.9,2.3,41.5c1.2-2,2.4-2.5,2.9-2.5
				c0.5,0.1,1,0.3,1.4,0.8C38.4,153.3,40,138,40.4,130.1z"/>
			
				<linearGradient id="SVGID_9_" gradientUnits="userSpaceOnUse" x1="33.2221" y1="771.1287" x2="34.4921" y2="884.3387" gradientTransform="matrix(1 0 0 1 0 -659.78)">
				<stop  offset="0" style="stop-color:#F70F47"/>
				<stop  offset="1" style="stop-color:#9E005D"/>
			</linearGradient>
			<path class="st11" d="M32.3,130.9c0.9,3,8.9,6.5,8.1-4.5c-0.4-4.9-1.4-31.9-1.5-34.5S38.3,85.5,37,85
				c-6.3-2.4-12.4,5.4-10.7,15.2C27.3,106.7,30.3,124.6,32.3,130.9z"/>
			<path class="st2" d="M65.8,38.1c1-0.9,2.3-1.5,3.6-1.8c1-0.1-1.2,1.1-2,1.8S64.8,38.8,65.8,38.1z"/>
			<path class="st2" d="M15.6,72.5c2.9-0.6,4.3-1.5,5.7-0.8s-0.6,3.3-1.6,3.7s-4.4,2.2-5.4,1.2c-0.9-1.1-0.7-2.7,0.4-3.6
				C14.9,72.7,15.3,72.6,15.6,72.5z"/>
			
				<linearGradient id="SVGID_10_" gradientUnits="userSpaceOnUse" x1="12.284" y1="702.2964" x2="7.544" y2="731.9363" gradientTransform="matrix(1 0 0 1 0 -659.78)">
				<stop  offset="0" style="stop-color:#36078B"/>
				<stop  offset="1" style="stop-color:#16B1FF"/>
			</linearGradient>
			<path class="st12" d="M6,59.9c1.6-2.5,5.3-7.3,9.8-13.5c1.2-2.2,1.6-4.8,1.1-7.2c-0.4-1.6-2.8-2.6-4.6-0.3
				c-2,2.5-3.9,5.1-5.5,7.8C1.8,54.5,0.4,58.3,0,60c-0.1,0.7,0.2,1.4,0.8,1.8C0.9,61.9,0.9,62,1,62.1c2.4,3.5,5.4,6.6,8.9,9.1
				c3.4,2.8,3.4,4.4,4.8,4.5c1.1,0.1,2.7-1.4,1.7-2.3C15.1,72.3,9.1,63.7,6,59.9z"/>
			<path class="st2" d="M15.1,25.5c1.2,4.5,1.5,5.5,3.8,7.1c2.2,1.4,4.9,2,7.5,1.6c2.4-0.4,3.7-3.1,3.9-5.2c0.3-4-0.2-8-1.4-11.8
				c-0.7-2.5-4.4-5.1-7.6-4.6S12.2,14.5,15.1,25.5z"/>
			
				<linearGradient id="SVGID_11_" gradientUnits="userSpaceOnUse" x1="40.2439" y1="829.6093" x2="40.8339" y2="811.9393" gradientTransform="matrix(1 0 0 1 0 -659.78)">
				<stop  offset="0" style="stop-color:#2C27CE"/>
				<stop  offset="0.65" style="stop-color:#EF1D68"/>
				<stop  offset="1" style="stop-color:#EFBA92"/>
			</linearGradient>
			<path class="st13" d="M38.8,168.6c0.9,1.1,2,2,3.3,2.5c1.8,0.8,5.6,1.2,3.5,1.9c-1.9,0.5-3.9,0.5-5.8,0.1
				c-1.3-0.2-2.6-0.3-3.9-0.2c-1.9,0-1.9-0.1-1.7-2.3C34.6,167.6,38,166.9,38.8,168.6z"/>
			
				<linearGradient id="SVGID_12_" gradientUnits="userSpaceOnUse" x1="102.1415" y1="1719.381" x2="92.5315" y2="1763.611" gradientTransform="matrix(0.9873 -0.159 0.159 0.9873 -352.8235 -1683.592)">
				<stop  offset="0" style="stop-color:#2C27CE"/>
				<stop  offset="1" style="stop-color:#EF1D68"/>
			</linearGradient>
			<path class="st14" d="M27.8,14.9c2.3,2.8-9.9,10.5-12.8,10.5s-3.2-5.7-1.4-8.8S22.4,8.3,27.8,14.9z"/>
			
				<linearGradient id="SVGID_13_" gradientUnits="userSpaceOnUse" x1="107.7457" y1="1720.601" x2="98.1457" y2="1764.8309" gradientTransform="matrix(0.9873 -0.159 0.159 0.9873 -352.8235 -1683.592)">
				<stop  offset="0" style="stop-color:#2C27CE"/>
				<stop  offset="1" style="stop-color:#EF1D68"/>
			</linearGradient>
			<path class="st15" d="M22.8,14.9c0.9,2.5,5.5,2.4,6.7,4.4c0.7,1.3,0.2-3-1.1-4.7S21,9.8,22.8,14.9z"/>
			<ellipse transform="matrix(0.9257 -0.3782 0.3782 0.9257 -8.4282 7.8629)" class="st2" cx="15.8" cy="25.4" rx="1.7" ry="3.1"/>
			
				<linearGradient id="SVGID_14_" gradientUnits="userSpaceOnUse" x1="-4562.2402" y1="828.3126" x2="-4554.3403" y2="828.3126" gradientTransform="matrix(-1 0 0 1 -4359.272 -659.78)">
				<stop  offset="0" style="stop-color:#0000FF"/>
				<stop  offset="1" style="stop-color:#9E005D"/>
			</linearGradient>
			<path class="st16" d="M197.5,165.9c-0.2,0.8-0.3,1.5-0.3,2.3c-0.1,0.9-1,1.3-1.5,2s-1.5,2.2,2,2.3c3.7,0.1,5.9-0.2,5.3-2.2
				c-0.4-1.1-0.7-2.3-0.7-3.6c0.1-0.6,0-1.2-0.4-1.7C201.3,164.6,198,163.9,197.5,165.9z"/>
			
				<linearGradient id="SVGID_15_" gradientUnits="userSpaceOnUse" x1="-4502.1177" y1="693.3251" x2="-4530.1675" y2="701.0451" gradientTransform="matrix(-1 0 0 1 -4359.272 -659.78)">
				<stop  offset="0" style="stop-color:#F70F47"/>
				<stop  offset="1" style="stop-color:#FFB41D"/>
			</linearGradient>
			<path class="st17" d="M150.2,27c1,1.8,10.4,9.8,12.2,12.7c2,3.5-2.5,8.9-4.5,6.8c-2.2-2.4-4.4-5.3-7.7-11.1
				c-2.4-4.2-2.6-5.6-2.4-7.7C147.8,26,149.5,25.8,150.2,27z"/>
			
				<linearGradient id="SVGID_16_" gradientUnits="userSpaceOnUse" x1="-4502.1079" y1="693.3636" x2="-4530.1577" y2="701.0936" gradientTransform="matrix(-1 0 0 1 -4359.272 -659.78)">
				<stop  offset="0" style="stop-color:#F70F47"/>
				<stop  offset="1" style="stop-color:#FFB41D"/>
			</linearGradient>
			<path class="st18" d="M160.5,40c2.1-0.3,8.5-2.8,16.9-5.3c1.5-0.5,5,1,6.7,2.8c1,1.2,0.6,4.2-2.2,5.3c-2.9,1.1-5.9,2-9,2.6
				c-8.7,1.9-12.3,1.8-13.9,1.5C157.1,46.5,157.3,40.4,160.5,40z"/>
			<path class="st19" d="M181.3,24c-1.5,0.7-2.2,0.7-2.7-1.2c-0.4-1.5-1.1-6.6,1.2-6.9c2.3-0.3,4.2-0.4,3.9,2.8S183.1,23.2,181.3,24
				z"/>
			<path class="st5" d="M190.1,26.8c0,0.2,0.5,5.1,0.6,8.9c-0.1,2-1.7,3.5-3.6,3.7H187c-1.8,0-3.9-1.6-3.8-3.4
				c0.2-2.2,0.2-4.5,0.1-6.7L190.1,26.8z"/>
			
				<linearGradient id="SVGID_17_" gradientUnits="userSpaceOnUse" x1="-4545.1968" y1="702.3371" x2="-4540.3271" y2="744.1371" gradientTransform="matrix(-1 0 0 1 -4359.272 -659.78)">
				<stop  offset="0" style="stop-color:#F70F47"/>
				<stop  offset="1" style="stop-color:#FFB41D"/>
			</linearGradient>
			<path class="st20" d="M199.3,47.2c-3.4,11.1-4.9,24.5-4.2,32.2h-25.3c0,0,0.1-23.8,1.9-36.8c0.4-3.2,2.4-6,5.4-7.5
				c2.1-0.9,4.4-1.4,6.8-1.5h4.7c1.7,0.1,3.3,0.3,5,0.6C200,35.6,201.2,40.8,199.3,47.2z"/>
			
				<linearGradient id="SVGID_18_" gradientUnits="userSpaceOnUse" x1="-4608.6372" y1="837.2166" x2="-4512.3774" y2="708.3466" gradientTransform="matrix(-1 0 0 1 -4359.272 -659.78)">
				<stop  offset="0" style="stop-color:#36078B"/>
				<stop  offset="1" style="stop-color:#16B1FF"/>
			</linearGradient>
			<path class="st21" d="M195,95c0,0,2.2-5.3,0.1-15.5h-25.3c-0.6,5.1-0.9,10.3-0.9,15.5H195z"/>
			
				<linearGradient id="SVGID_19_" gradientUnits="userSpaceOnUse" x1="-4591.334" y1="850.1366" x2="-4495.084" y2="721.2666" gradientTransform="matrix(-1 0 0 1 -4359.272 -659.78)">
				<stop  offset="0" style="stop-color:#36078B"/>
				<stop  offset="1" style="stop-color:#16B1FF"/>
			</linearGradient>
			<path class="st22" d="M190,128.1c-2-8.3,6.4-9.7,9.1-3.7c3.8,8.4,3.5,35.4,3.3,40.8c0,0.7-0.4,0.6-0.8,0.4
				c-0.8-0.4-1.8-0.5-2.7-0.5c-0.6,0.2-1.1,0.6-1.4,1.1C196.6,159,191.9,136.1,190,128.1z"/>
			
				<linearGradient id="SVGID_20_" gradientUnits="userSpaceOnUse" x1="-4606.1587" y1="839.0705" x2="-4509.8984" y2="710.2005" gradientTransform="matrix(-1 0 0 1 -4359.272 -659.78)">
				<stop  offset="0" style="stop-color:#36078B"/>
				<stop  offset="1" style="stop-color:#16B1FF"/>
			</linearGradient>
			<path class="st23" d="M182.4,96.1c-0.9-10.3,3.2-18.2,9.5-14.8c2.7,1.4,3.7,4.3,4,7s2.3,30.6,3,35.6c1.6,11.4-7.4,8.3-8.4,5.1
				C188.1,121,182.9,101.7,182.4,96.1z"/>
			
				<linearGradient id="SVGID_21_" gradientUnits="userSpaceOnUse" x1="-4574.3423" y1="862.8329" x2="-4478.082" y2="733.963" gradientTransform="matrix(-1 0 0 1 -4359.272 -659.78)">
				<stop  offset="0" style="stop-color:#36078B"/>
				<stop  offset="1" style="stop-color:#16B1FF"/>
			</linearGradient>
			<path class="st24" d="M167.4,127.6c-0.3-7.7,7.2-7.5,9-1.3c3,9.9-2.2,31-2.5,43.1c-1.3-2.1-2.5-2.6-3.1-2.6
				c-0.6,0.1-1.1,0.3-1.5,0.8C169.6,151.8,167.8,135.9,167.4,127.6z"/>
			
				<linearGradient id="SVGID_22_" gradientUnits="userSpaceOnUse" x1="-4594.2031" y1="847.9944" x2="-4497.9531" y2="719.1245" gradientTransform="matrix(-1 0 0 1 -4359.272 -659.78)">
				<stop  offset="0" style="stop-color:#36078B"/>
				<stop  offset="1" style="stop-color:#16B1FF"/>
			</linearGradient>
			<path class="st25" d="M176.1,128.4c-1,3.1-9.6,6.8-8.7-4.7c0.4-5.1,1.5-33.1,1.7-35.8s0.7-6.6,2-7.1c6.8-2.5,13.3,5.6,11.6,15.7
				C181.5,103.4,178.2,121.9,176.1,128.4z"/>
			
				<linearGradient id="SVGID_23_" gradientUnits="userSpaceOnUse" x1="-4563.0361" y1="704.4169" x2="-4558.1763" y2="746.2169" gradientTransform="matrix(-1 0 0 1 -4359.272 -659.78)">
				<stop  offset="0" style="stop-color:#F70F47"/>
				<stop  offset="1" style="stop-color:#FFB41D"/>
			</linearGradient>
			<path class="st26" d="M193.8,71.6c1.3-1.6,5.5-13.2,7.7-15.8c2.5-3.1,9-1.1,7.8,1.6c-1.9,4.2-2.7,5.7-7.5,10.8
				c-3.4,3.5-4.4,5-6.4,5.5C193.7,74.1,192.9,72.7,193.8,71.6z"/>
			
				<linearGradient id="SVGID_24_" gradientUnits="userSpaceOnUse" x1="-4559.8057" y1="704.043" x2="-4554.9453" y2="745.843" gradientTransform="matrix(-1 0 0 1 -4359.272 -659.78)">
				<stop  offset="0" style="stop-color:#F70F47"/>
				<stop  offset="1" style="stop-color:#FFB41D"/>
			</linearGradient>
			<path class="st27" d="M202.4,57.4c-1-1.9-5.5-7-10.9-14c-1-1.2-0.9-5.1,0.3-7.3c0.7-1.4,3.7-2.1,5.7,0.2c2.1,2.4,4,4.9,5.6,7.6
				c4.8,7.5,6,10.9,6.2,12.5C209.7,58.3,203.9,60.3,202.4,57.4z"/>
			<path class="st2" d="M192.6,23.2c-0.4,4.2-0.5,5.1-2.4,6.8c-1.8,1.6-4.1,2.5-6.4,2.5c-2.1,0-3.7-2.3-4.2-4
				c-0.8-3.5-1-7.2-0.5-10.7c0.7-2.9,3.2-5,6.1-5.2C188.2,12.6,193.6,13,192.6,23.2z"/>
			<path class="st2" d="M196,71c-1-1.1-2.5-2.7-3.2-3.7s-3,0.7-3,1.5c-0.1,1.2,1.1,4.5,2.7,4.5s2,1.4,3.3,1S197.6,72.8,196,71z"/>
			
				<linearGradient id="SVGID_25_" gradientUnits="userSpaceOnUse" x1="-4533.3828" y1="829.358" x2="-4520.3589" y2="829.358" gradientTransform="matrix(-1 0 0 1 -4359.272 -659.78)">
				<stop  offset="0" style="stop-color:#0000FF"/>
				<stop  offset="1" style="stop-color:#9E005D"/>
			</linearGradient>
			<path class="st28" d="M169.1,167.6c-0.9,1.2-2.2,2.1-3.6,2.6c-1.9,0.8-6,1.2-3.7,1.9c2,0.5,4.2,0.5,6.2,0.1
				c1.4-0.2,2.8-0.3,4.2-0.2c2.1,0,2.1-0.1,1.8-2.4C173.6,166.5,170,165.9,169.1,167.6z"/>
			<path class="st19" d="M192.6,22.6c-1.1,1.1-1.7,1.3-2.8-0.2c-0.9-1.2-3.2-5.6-1.2-6.7s3.6-1.7,4.4,1.2S194,21.2,192.6,22.6z"/>
			
				<ellipse transform="matrix(0.3782 -0.9257 0.9257 0.3782 97.7203 193.234)" class="st2" cx="192.7" cy="23.9" rx="2.8" ry="1.5"/>
			<path class="st19" d="M191.3,14.9c-1.6,2.4-9.5,2.7-12.1,1.8c-2.6-0.9-2.4-5.9,1.3-6.2c2.1,0,0.6,0.5,2.3,1.2
				C183.6,12,193.1,12.3,191.3,14.9z"/>
			<path class="st2" d="M150.5,27.2c-0.5-1.3-4.6-11.1-6.2-9.4c-1.8,1.8-1,6-0.6,7.4c0.8,2.6,3.2,4.1,4.8,4
				C149.7,29.1,150.9,28.4,150.5,27.2z"/>
			<path class="st2" d="M150.8,26.5c0.1-0.6,0.4-4.3-0.3-4.4c-1-0.2-1.4,2.2-1.6,3.8c-0.1,0.9,0.3,2.1,1,2.1S150.6,27.5,150.8,26.5z
				"/>
			
				<rect x="135.4" y="24.5" transform="matrix(0.6222 -0.7828 0.7828 0.6222 33.5227 121.9155)" class="st0" width="15.4" height="3.4"/>
			<path class="st0" d="M146.9,25.8l-2.5-2c-0.2-0.2-0.2-0.5-0.1-0.7l0,0l7-8.9c0.7-0.9,2-1.1,2.9-0.3l0,0c0.9,0.7,1.1,2,0.3,2.9
				l-7,8.9C147.4,25.9,147.1,26,146.9,25.8L146.9,25.8z"/>
			<polygon class="st0" points="139.1,36.8 134.9,39.2 134.1,38.5 135.5,33.9 138.2,32.5 139.8,33.9 			"/>
			<path class="st0" d="M139.6,34.8l-2.3-1.8c-0.3-0.3-0.4-0.7-0.1-1.1l0,0l0,0c0.3-0.3,0.7-0.4,1.1-0.1l0,0l2.3,1.8
				c0.3,0.3,0.4,0.7,0.1,1.1l0,0l0,0C140.4,35,139.9,35,139.6,34.8L139.6,34.8z"/>
			
				<ellipse transform="matrix(0.6205 -0.7842 0.7842 0.6205 23.8628 120.9335)" class="st0" cx="136.9" cy="35.8" rx="0.5" ry="0.6"/>
			<path class="st0" d="M137,36l-2.4,3l-0.3-0.2l2.4-3c0.1-0.1,0.2-0.1,0.3,0l0,0l0.1,0.1C137.1,35.9,137,36,137,36z"/>
			<path class="st0" d="M147,26.2l-3-2.4c-0.2-0.2-0.2-0.4-0.1-0.7l0,0c0.2-0.2,0.4-0.2,0.6-0.1l3,2.4c0.2,0.2,0.2,0.4,0.1,0.7l0,0
				C147.5,26.3,147.2,26.3,147,26.2z"/>
			<path class="st2" d="M150.8,25.4c0-0.6,0-4.3-0.7-4.3c-1.1-0.1-1.1,2.3-1.2,3.9c0,0.9,0.5,2.1,1.2,2S150.8,26.4,150.8,25.4z"/>
		</g>
	</g>
</g>
</svg>
