<?xml version="1.0" encoding="utf-8"?>
<!-- Generator: Adobe Illustrator 21.0.0, SVG Export Plug-In . SVG Version: 6.00 Build 0)  -->
<svg version="1.1" id="Слой_1" xmlns="http://www.w3.org/2000/svg" xmlns:xlink="http://www.w3.org/1999/xlink" x="0px" y="0px"
	 viewBox="0 0 218 179.9" style="enable-background:new 0 0 218 179.9;" xml:space="preserve">
<style type="text/css">
	.st0{fill:none;stroke:#0037FF;stroke-linecap:round;stroke-linejoin:round;}
	.st1{fill:url(#SVGID_1_);}
	.st2{fill:url(#SVGID_2_);}
	.st3{fill:#EA8F68;}
	.st4{fill:url(#SVGID_3_);}
	.st5{fill:url(#SVGID_4_);}
	.st6{fill:url(#SVGID_5_);}
	.st7{fill:url(#SVGID_6_);}
	.st8{fill:url(#SVGID_7_);}
	.st9{fill:url(#SVGID_8_);}
	.st10{fill:#FFAF84;}
	.st11{fill:url(#SVGID_9_);}
	.st12{fill:url(#SVGID_10_);}
	.st13{fill:url(#SVGID_11_);}
	.st14{fill:url(#SVGID_12_);}
	.st15{fill:url(#SVGID_13_);}
	.st16{fill:url(#SVGID_14_);}
	.st17{fill:url(#SVGID_15_);}
	.st18{fill:#541968;}
	.st19{fill:url(#SVGID_16_);}
	.st20{fill:url(#SVGID_17_);}
	.st21{fill:url(#SVGID_18_);}
	.st22{fill:url(#SVGID_19_);}
	.st23{fill:url(#SVGID_20_);}
	.st24{fill:url(#SVGID_21_);}
	.st25{fill:url(#SVGID_22_);}
	.st26{fill:url(#SVGID_23_);}
	.st27{fill:url(#SVGID_24_);}
	.st28{fill:url(#SVGID_25_);}
	.st29{fill:url(#SVGID_26_);}
</style>
<title>fs-blok1</title>
<g>
	<g id="Слой_2">
		<g id="Objects">
			<path class="st0" d="M125.7,29.1v15.6c0,1.2-1,2.2-2.2,2.2c-0.6,0-1.1-0.2-1.5-0.6c-5.3-4.6-13.4-4-18,1.3s-4,13.4,1.3,18
				c4.8,4.1,11.9,4.1,16.7-0.1c0.9-0.8,2.3-0.7,3.1,0.2c0.4,0.4,0.6,0.9,0.6,1.5v14.4h15.1c1.2,0,2.2-1,2.2-2.3
				c0-0.5-0.2-1.1-0.6-1.4c-4.7-5.3-4.1-13.4,1.2-18c5.3-4.7,13.4-4.1,18,1.2c4.2,4.8,4.2,12,0,16.9c-0.8,0.9-0.7,2.3,0.2,3.1
				c0.4,0.4,0.9,0.5,1.5,0.5h15V29.1H125.7z"/>
			<path class="st0" d="M40,81.7h15.6c1.2,0,2.2,1,2.2,2.2c0,0.6-0.2,1.1-0.6,1.5c-4.6,5.3-4,13.4,1.3,18s13.4,4,18-1.3
				c4.2-4.8,4.1-12-0.1-16.7c-0.8-0.9-0.7-2.3,0.2-3.1c0.4-0.4,0.9-0.6,1.5-0.6h14.4V66.6c0-1.2-1-2.2-2.2-2.2
				c-0.6,0-1.1,0.2-1.5,0.6c-5.3,4.7-13.4,4.1-18-1.2s-4.1-13.4,1.2-18c4.8-4.2,12-4.2,16.9,0c0.9,0.8,2.3,0.7,3.1-0.2
				c0.4-0.4,0.5-0.9,0.5-1.5v-15H40V81.7z"/>
			<path class="st0" d="M92.5,164.8v-15.6c0-1.2,1-2.2,2.2-2.2c0.6,0,1.1,0.2,1.5,0.6c5.3,4.6,13.4,4,18-1.3s4-13.4-1.3-18
				c-4.8-4.2-12-4.1-16.7,0.1c-0.9,0.8-2.3,0.7-3.1-0.2c-0.4-0.4-0.6-0.9-0.6-1.5v-14.4h-15c-1.2,0-2.2,1-2.2,2.2
				c0,0.6,0.2,1.1,0.6,1.5c4.7,5.3,4.1,13.4-1.2,18c-5.3,4.7-13.4,4.1-18-1.2c-4.2-4.8-4.2-12,0-16.9c0.8-0.9,0.7-2.3-0.2-3.1
				c-0.4-0.4-0.9-0.5-1.5-0.5H40v52.6L92.5,164.8z"/>
			<path class="st0" d="M178.3,112.2h-15.6c-1.2,0-2.2-1-2.2-2.3c0-0.5,0.2-1.1,0.6-1.5c4.6-5.3,4-13.4-1.3-18s-13.4-4-18,1.3
				c-4.2,4.8-4.1,12,0.1,16.7c0.8,0.9,0.7,2.3-0.2,3.1c-0.4,0.4-0.9,0.6-1.5,0.6h-14.4v15.1c0,1.2,1,2.2,2.2,2.2
				c0.6,0,1.1-0.2,1.5-0.6c5.3-4.7,13.4-4.1,18,1.2c4.7,5.3,4.1,13.4-1.2,18c-4.8,4.2-12,4.2-16.9,0c-0.9-0.8-2.3-0.7-3.1,0.2
				c-0.4,0.4-0.5,0.9-0.5,1.5v15.1h52.6L178.3,112.2z"/>
			
				<linearGradient id="SVGID_1_" gradientUnits="userSpaceOnUse" x1="-6722.5044" y1="-278.1532" x2="-6735.6143" y2="-245.4832" gradientTransform="matrix(-0.61 -0.79 -0.79 0.61 -4128.0854 -5097.4341)">
				<stop  offset="0" style="stop-color:#F70F47"/>
				<stop  offset="1" style="stop-color:#9E005D"/>
			</linearGradient>
			<path class="st1" d="M199.8,42c-2.3-0.7-4.8-0.5-7,0.6c-7,4.3-12.2,7.8-14.5,8.9v5.3c0.1,0,0.2,0,0.4,0c1.7-0.3,5.4-1.3,13.2-5.5
				c2.7-1.4,5.4-3,7.9-4.8C202.1,44.8,201.3,42.5,199.8,42z"/>
			
				<linearGradient id="SVGID_2_" gradientUnits="userSpaceOnUse" x1="-8322.3555" y1="641.2885" x2="-8364.7754" y2="610.6884" gradientTransform="matrix(-1 0 0 1 -8147.293 -588)">
				<stop  offset="0" style="stop-color:#2C27CE"/>
				<stop  offset="0.65" style="stop-color:#EF1D68"/>
				<stop  offset="1" style="stop-color:#EFBA92"/>
			</linearGradient>
			<path class="st2" d="M201.4,19.3c-1.5-2.1,0.2-5.9,4.5-6.3c4.9-0.4,13.7,2.4,9,14c-4.9,12-3.4,15-0.1,16.8c0,0-11.3,0.9-10.5-9
				S204.9,24.3,201.4,19.3z"/>
			<path class="st3" d="M203.1,33.7c0,0.3,0.4,5.5,0.5,9.5c0,2-1.4,3.8-2.8,3.9h-0.1c-1.4,0-3-1.8-2.9-3.7c0.2-3.5,0.1-7.1,0-7.1
				L203.1,33.7z"/>
			
				<linearGradient id="SVGID_3_" gradientUnits="userSpaceOnUse" x1="-8345.8857" y1="637.6588" x2="-8341.0361" y2="679.2588" gradientTransform="matrix(-1 0 0 1 -8147.293 -588)">
				<stop  offset="0" style="stop-color:#F70F47"/>
				<stop  offset="1" style="stop-color:#9E005D"/>
			</linearGradient>
			<path class="st4" d="M207.1,56.3c-1.1,3.6-2,7.3-2.5,11c-0.4,2.7-0.4,5.5,0,8.3c0.2,1.7,0.5,3.3,0.9,4.9c0.1,0.6,1.4,5.6,1.4,6.1
				h-22.6c0.2-4.4,5.3-18.4,1.9-27.4c-2.4-6.3,0.8-6.5,2.9-11.7c0.4-1.3,1-2.6,1.8-3.8c0.9-1.1,2.1-1.8,3.5-2.1
				c0.7-0.2,1.4-0.3,2.1-0.3c3.8-0.3,12.9-1.4,13.7,4c0.2,1.5,0,3-0.5,4.4c-0.5,1.6-1.3,3.1-1.9,4.6C207.6,55,207.3,55.7,207.1,56.3
				z"/>
			
				<linearGradient id="SVGID_4_" gradientUnits="userSpaceOnUse" x1="-8337.3496" y1="666.5449" x2="-8356.5498" y2="722.4048" gradientTransform="matrix(-1 0 0 1 -8147.293 -588)">
				<stop  offset="0" style="stop-color:#36078B"/>
				<stop  offset="1" style="stop-color:#168D68"/>
			</linearGradient>
			<path class="st5" d="M206.9,101c0,0,2-4.9,0.1-14.4h-22.6c-0.5,4.8-0.8,9.6-0.8,14.4H206.9z"/>
			
				<linearGradient id="SVGID_5_" gradientUnits="userSpaceOnUse" x1="-8507.875" y1="942.0605" x2="-8527.4941" y2="999.1605" gradientTransform="matrix(-0.99 0.15 0.15 0.99 -8368.8135 459.6074)">
				<stop  offset="0" style="stop-color:#36078B"/>
				<stop  offset="1" style="stop-color:#16B1FF"/>
			</linearGradient>
			<path class="st6" d="M202.8,132.8c-3-7.3,4.3-9.8,7.5-4.7c4.5,7.2,6.5,33.9,7.1,38.9c0.1,0.6-0.3,0.6-0.7,0.5
				c-1.1-0.2-0.6-1.3-2.2-1.2c-0.9,0.1-1.1,1.2-1.1,1.2C211.7,160.9,205.7,139.8,202.8,132.8z"/>
			
				<linearGradient id="SVGID_6_" gradientUnits="userSpaceOnUse" x1="-8340.3594" y1="665.5124" x2="-8359.5498" y2="721.3724" gradientTransform="matrix(-1 0 0 1 -8147.293 -588)">
				<stop  offset="0" style="stop-color:#36078B"/>
				<stop  offset="1" style="stop-color:#16B1FF"/>
			</linearGradient>
			<path class="st7" d="M195.6,102c-0.8-9.5,2.8-16.9,8.5-13.8c2.4,1.3,3.3,4,3.6,6.5s2.1,28.4,2.7,33c1.4,10.5-6.6,7.7-7.5,4.8
				C200.7,125.2,196.1,107.2,195.6,102z"/>
			
				<linearGradient id="SVGID_7_" gradientUnits="userSpaceOnUse" x1="-8313.0176" y1="674.903" x2="-8332.2178" y2="730.763" gradientTransform="matrix(-1 0 0 1 -8147.293 -588)">
				<stop  offset="0" style="stop-color:#36078B"/>
				<stop  offset="1" style="stop-color:#16B1FF"/>
			</linearGradient>
			<path class="st8" d="M182.2,131.3c-0.3-7.1,6.4-7,8.1-1.2c2.6,9.1-1.9,28.8-2.2,40c-1.2-1.9-2.3-2.4-2.8-2.4
				c-0.5,0.1-1,0.3-1.3,0.7C184.2,153.7,182.5,138.9,182.2,131.3z"/>
			
				<linearGradient id="SVGID_8_" gradientUnits="userSpaceOnUse" x1="-8325.751" y1="670.5314" x2="-8344.9414" y2="726.3914" gradientTransform="matrix(-1 0 0 1 -8147.293 -588)">
				<stop  offset="0" style="stop-color:#36078B"/>
				<stop  offset="1" style="stop-color:#16B1FF"/>
			</linearGradient>
			<path class="st9" d="M190.1,132c-0.9,2.9-8.5,6.3-7.8-4.3c0.4-4.7,1.3-30.7,1.5-33.2s0.6-6.2,1.8-6.6c6-2.3,11.9,5.2,10.3,14.6
				C194.8,108.8,191.9,126,190.1,132z"/>
			<path class="st10" d="M205.8,29.9c-0.5,4.5-0.6,5.5-2.5,7.3c-1.9,1.7-4.3,2.6-6.9,2.7c-2.3,0-4-2.4-4.5-4.3
				c-0.9-3.8-1-7.6-0.5-11.5c0.3-2.5,3.4-5.5,6.5-5.5S206.9,19,205.8,29.9z"/>
			
				<linearGradient id="SVGID_9_" gradientUnits="userSpaceOnUse" x1="-8331.374" y1="779.837" x2="-8329.2041" y2="753.1071" gradientTransform="matrix(-1 0 0 1 -8147.293 -588)">
				<stop  offset="0" style="stop-color:#2C27CE"/>
				<stop  offset="0.65" style="stop-color:#EF1D68"/>
				<stop  offset="1" style="stop-color:#EFBA92"/>
			</linearGradient>
			<path class="st11" d="M183.7,168.4c-0.8,1.1-1.9,1.9-3.2,2.4c-1.7,0.8-5.4,1.1-3.3,1.8c1.8,0.5,3.7,0.5,5.6,0.1
				c1.2-0.2,2.5-0.3,3.8-0.2c1.9,0,1.9-0.1,1.6-2.2C187.8,167.4,184.6,166.8,183.7,168.4z"/>
			
				<linearGradient id="SVGID_10_" gradientUnits="userSpaceOnUse" x1="-8362.1318" y1="784.7898" x2="-8359.3926" y2="751.0998" gradientTransform="matrix(-1 0 0 1 -8147.293 -588)">
				<stop  offset="0" style="stop-color:#2C27CE"/>
				<stop  offset="0.65" style="stop-color:#EF1D68"/>
				<stop  offset="1" style="stop-color:#EFBA92"/>
			</linearGradient>
			<path class="st12" d="M213.5,167.1c-0.3,0.5-0.5,2.9-2.2,3.7s-5.4,1.1-3.3,1.8c1.8,0.5,3.7,0.5,5.6,0.1c1.2-0.2,1.4-1.5,2.8-1.5
				c1.9,0,1.9-0.1,1.6-2.2C217.5,166.1,214.3,165.5,213.5,167.1z"/>
			
				<linearGradient id="SVGID_11_" gradientUnits="userSpaceOnUse" x1="-8327.4219" y1="635.4191" x2="-8351.4912" y2="607.9591" gradientTransform="matrix(-1 0 0 1 -8147.293 -588)">
				<stop  offset="0" style="stop-color:#2C27CE"/>
				<stop  offset="0.65" style="stop-color:#EF1D68"/>
				<stop  offset="1" style="stop-color:#EFBA92"/>
			</linearGradient>
			<path class="st13" d="M192.1,21.7c-1.8,3,11,8.5,13.8,8s2.8-6.5,0.6-9.2S196.2,14.7,192.1,21.7z"/>
			
				<linearGradient id="SVGID_12_" gradientUnits="userSpaceOnUse" x1="-8322.5049" y1="631.1092" x2="-8346.5654" y2="603.6492" gradientTransform="matrix(-1 0 0 1 -8147.293 -588)">
				<stop  offset="0" style="stop-color:#2C27CE"/>
				<stop  offset="0.65" style="stop-color:#EF1D68"/>
				<stop  offset="1" style="stop-color:#EFBA92"/>
			</linearGradient>
			<path class="st14" d="M196.8,21c-0.5,2.5-4.9,3.1-5.6,5.2c-0.5,1.3-0.7-2.8,0.4-4.7S197.7,15.9,196.8,21z"/>
			<ellipse transform="matrix(0.378 -0.9258 0.9258 0.378 99.8088 209.5585)" class="st10" cx="205.9" cy="30.5" rx="3" ry="1.6"/>
			<path class="st10" d="M180,70.6c-1.2-0.4-2.6-0.5-3.9-0.3c-0.9,0.3,1.1,0.8,2.1,1.2S181.1,70.9,180,70.6z"/>
			<path class="st10" d="M178.6,71.2c-2.7,0.7-4.3,0.6-5.3,1.5s1.4,1.8,2.4,1.8s4.5-0.2,5.2-1.2S180.6,70.7,178.6,71.2z"/>
			
				<linearGradient id="SVGID_13_" gradientUnits="userSpaceOnUse" x1="-7095.1182" y1="-4991.6328" x2="-7109.5581" y2="-4955.623" gradientTransform="matrix(-0.38 -0.93 -0.93 0.38 -7103.5747 -4676.8521)">
				<stop  offset="0" style="stop-color:#F70F47"/>
				<stop  offset="1" style="stop-color:#9E005D"/>
			</linearGradient>
			<path class="st15" d="M195.3,64.1c1.2-1.9,3.6-7.9,7.1-15.8c1.2-2.1,3.2-3.7,5.5-4.4c1.5-0.4,3.5,1,2.5,3.7
				c-1.1,2.9-2.3,5.7-3.8,8.4c-4.1,7.8-6.5,10.8-7.8,12C197.3,69.4,193.6,66.9,195.3,64.1z"/>
			
				<linearGradient id="SVGID_14_" gradientUnits="userSpaceOnUse" x1="-8983.2627" y1="198.2533" x2="-8990.543" y2="216.4033" gradientTransform="matrix(-0.97 -0.23 -0.23 0.97 -8483.875 -2223.7207)">
				<stop  offset="0" style="stop-color:#F70F47"/>
				<stop  offset="1" style="stop-color:#9E005D"/>
			</linearGradient>
			<path class="st16" d="M179.7,70.4c1.8-0.4,13.9-6.2,16.9-6.8c3.5-0.8,4.1,3.6,1.4,4.8c-3.7,1.8-7.7,2.9-11.8,3.3
				c-4.2,0.7-5,2-6.2,1.4C179.1,72.7,178.5,70.7,179.7,70.4z"/>
			
				<linearGradient id="SVGID_15_" gradientUnits="userSpaceOnUse" x1="210.8531" y1="-3164.2361" x2="210.8531" y2="-3097.2461" gradientTransform="matrix(0.64 0.77 -0.77 0.64 -2551.1399 1905.2557)">
				<stop  offset="0" style="stop-color:#36078B"/>
				<stop  offset="1" style="stop-color:#168D68"/>
			</linearGradient>
			<path class="st17" d="M28.5,47.2c-1.3,0.8-4.6,2-12.9,2.8c-3,0.3-5.9,0.4-8.9,0.3c-2.8-0.1-4.1-2.7-3.5-4.1
				c1-2.2,3.7-4.5,5.2-4.5c8.3-0.2,14.8,0.2,16.8-0.2C28.1,40.9,30.1,46.3,28.5,47.2z"/>
			<path class="st18" d="M5.2,165.7c0.2,0.7,0.3,1.4,0.3,2.2c0.1,0.9,1,1.2,1.5,1.9s1.4,1.9-1.9,2c-3.5,0.1-5.6,0-5-1.9
				c0.4-1.1,0.6-2.2,0.7-3.4c-0.1-0.6,0-1.2,0.4-1.6C1.6,164.5,4.7,163.8,5.2,165.7z"/>
			<path class="st18" d="M29,166.1c1,1.1,2.2,1.9,3.5,2.3c1.8,0.7,5.7,0.9,3.6,1.7c-1.9,0.6-3.9,0.7-5.9,0.4c-1.3,0-2.7,0-4,0.2
				c-2,0.1-2-0.2-1.8-2.4C24.6,165.2,28,164.5,29,166.1z"/>
			<path class="st10" d="M9.8,31.3c0.4,4,0.5,4.9,2.3,6.5s4.4,1.9,6.3,1.9c2,0,3.4-2.5,3.8-4.1c0.7-3.1,0.9-6.2,0.4-9.4
				c-0.7-2.7-3-4.7-5.8-4.9C14,21.2,8.8,21.6,9.8,31.3z"/>
			<path class="st10" d="M11.8,38.2c-0.1,1.4-0.2,3-0.3,4.4c0,1.9,1.4,3.6,3.3,3.8H15c1.7,0,3.7-1.5,3.6-3.3
				c-0.1-1.1-0.1-2.2-0.1-3.2c0-1.9-1.2-3.6-3-4.2l0,0C14,35.2,12.4,36,12,37.5C11.9,37.8,11.9,38,11.8,38.2z"/>
			
				<linearGradient id="SVGID_16_" gradientUnits="userSpaceOnUse" x1="-13203.1406" y1="640.1" x2="-13203.1406" y2="712.7" gradientTransform="matrix(-1 0 0 1 -13185.8926 -588)">
				<stop  offset="0" style="stop-color:#36078B"/>
				<stop  offset="1" style="stop-color:#168D68"/>
			</linearGradient>
			<path class="st19" d="M3.9,55.2c3.2,10.5,4.2,21.4,3.6,28.7h24c0,0-0.1-22.5-1.8-34.8c-0.4-3-2.3-5.7-5.1-7
				c-2-0.9-4.2-1.4-6.4-1.4h-4.5c-1.6,0-3.2,0.2-4.7,0.6C2.6,43.3,2.1,49.1,3.9,55.2z"/>
			
				<linearGradient id="SVGID_17_" gradientUnits="userSpaceOnUse" x1="-13204.9609" y1="789.59" x2="-13204.9609" y2="686.37" gradientTransform="matrix(-1 0 0 1 -13185.8926 -588)">
				<stop  offset="0" style="stop-color:#36078B"/>
				<stop  offset="1" style="stop-color:#16B1FF"/>
			</linearGradient>
			<path class="st20" d="M7.6,98.6c0,0-2.1-5-0.1-14.7h24c0,0,0,6.9,0,14.7H7.6z"/>
			
				<linearGradient id="SVGID_18_" gradientUnits="userSpaceOnUse" x1="-13192.4336" y1="789.59" x2="-13192.4336" y2="686.37" gradientTransform="matrix(-1 0 0 1 -13185.8926 -588)">
				<stop  offset="0" style="stop-color:#36078B"/>
				<stop  offset="1" style="stop-color:#16B1FF"/>
			</linearGradient>
			<path class="st21" d="M12.3,130c1.9-7.8-6.1-9.2-8.6-3.5c-3.6,8-3.3,33.5-3.1,38.6c0,0.7-0.1,1.5,0.3,1.7
				c0.8,0.4,1.7,0.5,2.5,0.4c0.9,0,1.8,0,1.9-1.1C5.9,158.6,10.5,137.5,12.3,130z"/>
			
				<linearGradient id="SVGID_19_" gradientUnits="userSpaceOnUse" x1="-13197.5068" y1="789.59" x2="-13197.5068" y2="686.37" gradientTransform="matrix(-1 0 0 1 -13185.8926 -588)">
				<stop  offset="0" style="stop-color:#36078B"/>
				<stop  offset="1" style="stop-color:#16B1FF"/>
			</linearGradient>
			<path class="st22" d="M19.5,99.6c0.8-9.7-3-17.2-9-14C8,87,7,89.6,6.7,92.2s-2.2,28.9-2.9,33.7c-1.5,10.8,7,7.9,7.9,4.9
				C14.1,123.3,19.1,104.9,19.5,99.6z"/>
			
				<linearGradient id="SVGID_20_" gradientUnits="userSpaceOnUse" x1="-12749.8164" y1="-746.0104" x2="-12749.8164" y2="-849.2304" gradientTransform="matrix(-0.96 -0.27 -0.27 0.96 -12411.9268 -2569.2175)">
				<stop  offset="0" style="stop-color:#36078B"/>
				<stop  offset="1" style="stop-color:#16B1FF"/>
			</linearGradient>
			<path class="st23" d="M24.8,167.1c2.8-11.1,3.7-31.6,8.9-39.8c3.3-5.2,10.2-3.4,7.9,3.5c-2.5,7.4-8.8,21.2-12.2,35.9
				C29.1,168.1,24.5,168.4,24.8,167.1z"/>
			
				<linearGradient id="SVGID_21_" gradientUnits="userSpaceOnUse" x1="-13186.9385" y1="2047.3826" x2="-13186.9385" y2="1964.0626" gradientTransform="matrix(-0.96 0.28 0.31 1.13 -13239.2051 1575.3464)">
				<stop  offset="0" style="stop-color:#36078B"/>
				<stop  offset="1" style="stop-color:#16B1FF"/>
			</linearGradient>
			<path class="st24" d="M33.4,128.5c1.8,3.1,12.3,3.7,8-8.3c-1.9-5.3-7.7-24.3-8.7-27.1c-1-2.8-2.6-6.9-4-7.1
				c-6.9-0.8-10.4,9.5-5.8,19.9C26.1,112.8,29.6,122.1,33.4,128.5z"/>
			
				<ellipse transform="matrix(0.3783 -0.9257 0.9257 0.3783 -14.3924 40.4434)" class="st10" cx="22.9" cy="30.9" rx="2.7" ry="1.4"/>
			<ellipse transform="matrix(0.9257 -0.3783 0.3783 0.9257 -10.9924 6.0559)" class="st10" cx="9.9" cy="31" rx="1.4" ry="2.7"/>
			
				<linearGradient id="SVGID_22_" gradientUnits="userSpaceOnUse" x1="-13148.6475" y1="572.2834" x2="-13140.0469" y2="566.3434" gradientTransform="matrix(-1 0 0 1 -13185.8926 -588)">
				<stop  offset="0" style="stop-color:#2C27CE"/>
				<stop  offset="0.65" style="stop-color:#EF1D68"/>
				<stop  offset="1" style="stop-color:#EFBA92"/>
			</linearGradient>
			<path class="st25" d="M11,23.4c1.6,2.3,9,2.5,11.4,1.7s2.3-5.6-1.2-5.9c-2,0-0.5,0.5-2.1,1.1C18.3,20.7,9.4,21,11,23.4z"/>
			<path class="st10" d="M58.5,38.7c1.2-0.4,10.9-3.2,10.6-1.1c-0.3,2.4-3.8,4.3-5.1,4.9c-2.4,0.9-4.9,0.1-5.8-1.2
				C57.6,40.5,57.3,39.1,58.5,38.7z"/>
			<path class="st10" d="M58.9,38.1c0.4-0.4,2.9-2.8,3.4-2.4c0.8,0.7-0.8,2.3-1.8,3.5c-0.6,0.6-1.7,1-2.1,0.5S58.2,38.8,58.9,38.1z"
				/>
			
				<linearGradient id="SVGID_23_" gradientUnits="userSpaceOnUse" x1="46.8607" y1="623.9618" x2="58.5207" y2="648.2418" gradientTransform="matrix(1 0 0 1 0 -588)">
				<stop  offset="0" style="stop-color:#36078B"/>
				<stop  offset="1" style="stop-color:#168D68"/>
			</linearGradient>
			<path class="st26" d="M60.7,41.9c-1.1,1.6-1.7,1.1-6.2,3.3c-5.6,2.7-8.8,3.9-11.8,4.5c-2.7,0.6-2.8-5.8,0.7-7.3
				c2.9-1.3,14.2-2.9,16.1-3.1c0.8,0,1.5,0.7,1.5,1.5C61,41.2,60.9,41.6,60.7,41.9z"/>
			
				<linearGradient id="SVGID_24_" gradientUnits="userSpaceOnUse" x1="217.5557" y1="-3200.4861" x2="217.5557" y2="-3103.5161" gradientTransform="matrix(0.64 0.77 -0.77 0.64 -2551.1399 1905.2557)">
				<stop  offset="0" style="stop-color:#36078B"/>
				<stop  offset="1" style="stop-color:#168D68"/>
			</linearGradient>
			<path class="st27" d="M25.8,41.1c-3.2,2-2.2,8.3,0.4,7.3c2.8-1,5.8-2.7,11-6.2c1.2-0.8,2.1-1.4,2.8-1.8V36
				C36.4,37,28.1,39.6,25.8,41.1z"/>
			
				<linearGradient id="SVGID_25_" gradientUnits="userSpaceOnUse" x1="30.6319" y1="629.0112" x2="47.3419" y2="662.9412" gradientTransform="matrix(1 0 0 1 0 -588)">
				<stop  offset="0" style="stop-color:#36078B"/>
				<stop  offset="1" style="stop-color:#168D68"/>
			</linearGradient>
			<path class="st28" d="M45.4,49c-1.4,0.6-4.7,1.5-13.1,1.5c-2.4,0.1-4.9,0-7.3-0.3c-2.8-0.4-4.7-3.1-4.7-4.6
				c0.1-2.4,1.3-4.3,2.8-4.2c8.3,0.6,17.5,1.7,19.6,1.5C45.6,42.7,47,48.3,45.4,49z"/>
			
				<linearGradient id="SVGID_26_" gradientUnits="userSpaceOnUse" x1="16.217" y1="614.3556" x2="8.247" y2="633.7056" gradientTransform="matrix(1 0 0 1 0 -588)">
				<stop  offset="0" style="stop-color:#2C27CE"/>
				<stop  offset="0.65" style="stop-color:#EF1D68"/>
				<stop  offset="1" style="stop-color:#EFBA92"/>
			</linearGradient>
			<path class="st29" d="M19.4,23c2.3,1.4,2.8,2.6,2.8,5.5s-1.3,7.7-6.5,8.8s-6.5-4.1-6.8-7.7s-0.1-6.3,2.5-6.9
				C15.4,21.7,18.1,22.2,19.4,23z"/>
		</g>
	</g>
</g>
</svg>
