<?xml version="1.0" encoding="utf-8"?>
<!-- Generator: Adobe Illustrator 21.0.0, SVG Export Plug-In . SVG Version: 6.00 Build 0)  -->
<svg version="1.1" id="Слой_1" xmlns="http://www.w3.org/2000/svg" xmlns:xlink="http://www.w3.org/1999/xlink" x="0px" y="0px"
	 viewBox="0 0 209.5 180" style="enable-background:new 0 0 209.5 180;" xml:space="preserve">
<style type="text/css">
	.st0{fill:none;stroke:#0037FF;stroke-linecap:round;stroke-linejoin:round;}
	.st1{opacity:0.5;fill:none;stroke:#0037FF;stroke-linecap:round;stroke-linejoin:round;enable-background:new    ;}
	.st2{opacity:0.6;}
	.st3{fill:url(#SVGID_1_);}
	.st4{fill:url(#SVGID_2_);}
	.st5{fill:#4E11F4;}
	.st6{fill:#FFAF84;}
	.st7{fill:url(#SVGID_3_);}
	.st8{fill:url(#SVGID_4_);}
	.st9{fill:url(#SVGID_5_);}
	.st10{fill:url(#SVGID_6_);}
	.st11{fill:url(#SVGID_7_);}
	.st12{fill:url(#SVGID_8_);}
	.st13{fill:url(#SVGID_9_);}
	.st14{fill:url(#SVGID_10_);}
	.st15{fill:url(#SVGID_11_);}
	.st16{fill:url(#SVGID_12_);}
	.st17{fill:url(#SVGID_13_);}
	.st18{fill:url(#SVGID_14_);}
	.st19{fill:url(#SVGID_15_);}
	.st20{fill:#ED9169;}
	.st21{fill:url(#SVGID_16_);}
	.st22{fill:url(#SVGID_17_);}
	.st23{fill:url(#SVGID_18_);}
	.st24{fill:url(#SVGID_19_);}
	.st25{fill:url(#SVGID_20_);}
	.st26{fill:url(#SVGID_21_);}
	.st27{fill:url(#SVGID_22_);}
	.st28{fill:url(#SVGID_23_);}
	.st29{fill:url(#SVGID_24_);}
	.st30{fill:url(#SVGID_25_);}
</style>
<title>fs-blok5</title>
<g>
	<g id="Слой_2">
		<g id="Designed_by_Freepik">
			<polygon class="st0" points="190.6,8.5 190.6,121.5 32.5,121.5 32.5,18.6 			"/>
			<polygon class="st1" points="190.1,120.3 33.2,121 33.2,19.3 190.1,8.8 			"/>
			<g class="st2">
				<polygon class="st0" points="154,23.7 183.8,22.3 183.8,20.5 154,21.9 				"/>
				<polygon class="st0" points="154,26.8 183.8,25.5 183.8,23.7 154,25 				"/>
				<polygon class="st0" points="170.5,29.2 183.8,28.7 183.8,26.9 170.5,27.5 				"/>
			</g>
			<polygon class="st1" points="40.5,27.1 60.2,25.4 60.2,44.3 40.5,45.2 			"/>
			<polygon class="st1" points="110.8,24.3 130.4,22.5 130.4,42.7 110.8,43.7 			"/>
			<polygon class="st1" points="87.9,24.7 107.6,23 107.6,42.7 87.9,43.7 			"/>
			<polygon class="st1" points="177.8,19.8 177.8,40.9 158.2,42 158.2,21.7 			"/>
			<polygon class="st1" points="134.5,23 154.1,21.2 154.1,41.8 134.5,42.8 			"/>
			<polygon class="st1" points="65,26.7 84.6,25 84.6,44.3 65,45.3 			"/>
			<polygon class="st1" points="40.5,49.5 60.2,48.1 60.2,66.9 40.5,67.6 			"/>
			<polygon class="st1" points="110.8,47.6 130.4,46.1 130.4,66.3 110.8,67.1 			"/>
			<polygon class="st1" points="88.7,48.6 108.4,47.1 108.4,66.9 88.7,67.6 			"/>
			<polygon class="st1" points="177.8,44.1 177.8,65.2 158.2,66 158.2,45.7 			"/>
			<polygon class="st1" points="134.5,46.7 154.1,45.1 154.1,65.8 134.5,66.6 			"/>
			<polygon class="st1" points="65,49.4 84.6,48 84.6,67.3 65,68 			"/>
			<polygon class="st1" points="40.5,71.4 60.2,70.3 60.2,89.1 40.5,89.5 			"/>
			<polygon class="st1" points="110.8,70.5 130.4,69.3 130.4,89.4 110.8,89.9 			"/>
			<polygon class="st1" points="88.7,71.1 108.4,69.9 108.4,89.7 88.7,90.1 			"/>
			<polygon class="st1" points="177.8,67.9 177.8,89 158.2,89.5 158.2,69.2 			"/>
			<polygon class="st1" points="134.5,69.9 154.1,68.6 154.1,89.2 134.5,89.7 			"/>
			<polygon class="st1" points="64.2,70.9 83.9,69.7 83.9,89 64.2,89.4 			"/>
			<polygon class="st1" points="40.5,93.8 60.2,92.9 60.2,111.8 40.5,111.9 			"/>
			<polygon class="st1" points="110.8,93.9 130.4,92.9 130.4,113.1 110.8,113.3 			"/>
			<polygon class="st1" points="88.7,94.2 108.4,93.3 108.4,113 88.7,113.2 			"/>
			<polygon class="st1" points="177.8,92.2 177.8,113.3 158.2,113.6 158.2,93.3 			"/>
			<polygon class="st0" points="134.5,93.6 154.1,92.6 154.1,113.2 134.5,113.4 			"/>
			<polygon class="st1" points="64.2,93.6 83.9,92.7 83.9,112 64.2,112.1 			"/>
			
				<linearGradient id="SVGID_1_" gradientUnits="userSpaceOnUse" x1="192.2562" y1="586.4978" x2="211.5062" y2="606.7578" gradientTransform="matrix(1 0 0 1 0 -528)">
				<stop  offset="0" style="stop-color:#36078B"/>
				<stop  offset="1" style="stop-color:#16B1FF"/>
			</linearGradient>
			<path class="st3" d="M185.6,67.6c2.1,0.7,3.8,0,8.8-1.1c7.2-1.6,8.8-2.4,12.9-5c2.6-1.7-1.8-7.2-5.8-5.9c-3.4,1-13.9,8.6-16,9.3
				C184.2,65.3,184,67.1,185.6,67.6z"/>
			
				<linearGradient id="SVGID_2_" gradientUnits="userSpaceOnUse" x1="203.8813" y1="575.4502" x2="223.1413" y2="595.7001" gradientTransform="matrix(1 0 0 1 0 -528)">
				<stop  offset="0" style="stop-color:#36078B"/>
				<stop  offset="1" style="stop-color:#16B1FF"/>
			</linearGradient>
			<path class="st4" d="M208.1,60.5c0.5-1.6,1.1-5.4,0-14.7c-0.3-3.3-0.9-6.5-1.8-9.7c-0.8-3-3.9-3.8-5.3-2.8
				c-2.1,1.6-4,5.1-3.7,6.7c1.8,9.1,3.6,16,3.7,18.3C201.2,61.5,207.5,62.4,208.1,60.5z"/>
			<path class="st5" d="M203.7,167.9c-0.2,0.8-0.3,1.6-0.3,2.4c-0.2,1-1.1,1.3-1.6,2.1s-1.5,2.1,2.1,2.2c3.9,0.1,6.2,0,5.5-2.2
				c-0.5-1.2-0.7-2.5-0.7-3.7c0.1-0.6,0-1.3-0.4-1.8C207.8,166.5,204.3,165.8,203.7,167.9z"/>
			<path class="st6" d="M157,48.6c-1.3-0.7-11.4-5.3-11.5-2.8c-0.1,2.7,3.5,5.4,4.9,6.2c2.4,1.4,5.4,0.8,6.6-0.4
				C157.7,50.6,158.2,49.2,157,48.6z"/>
			<path class="st6" d="M156.6,47.8c-0.4-0.5-2.8-3.6-3.4-3.2c-0.9,0.6,0.5,2.7,1.5,4.1c0.5,0.8,1.7,1.4,2.3,0.9
				S157.3,48.7,156.6,47.8z"/>
			<path class="st5" d="M173.9,169.6c-1,1.2-2.3,2.2-3.8,2.8c-2,0.9-6.3,1.3-3.9,2c2.1,0.5,4.4,0.5,6.5,0.1c1.5-0.2,2.9-0.3,4.4-0.3
				c2.2,0,2.2-0.1,1.9-2.5C178.7,168.5,174.9,167.8,173.9,169.6z"/>
			<path class="st6" d="M198.6,18.5c-0.4,4.4-0.6,5.4-2.5,7.2s-4.9,2-7,2c-2.3,0-3.8-2.7-4.3-4.6c-0.8-3.4-1-6.9-0.4-10.4
				c0.3-2.4,3.3-5.4,6.5-5.4S199.7,7.7,198.6,18.5z"/>
			
				<linearGradient id="SVGID_3_" gradientUnits="userSpaceOnUse" x1="-3570.7246" y1="-4603.4434" x2="-3570.7246" y2="-4558.9033" gradientTransform="matrix(0.58 0.81 -0.81 0.58 -1472.2799 5601.8696)">
				<stop  offset="0" style="stop-color:#36078B"/>
				<stop  offset="1" style="stop-color:#16B1FF"/>
			</linearGradient>
			<path class="st7" d="M154.6,51.4c1.4,1.7,2.5,2.7,7.4,4.1c6.6,2,10.5,2.6,13.9,2.9c3.1,0.2,2.6-7.3-1.5-8.4
				c-3.4-1-16.4-0.3-18.5-0.9C154.6,48.7,153.5,50,154.6,51.4z"/>
			
				<linearGradient id="SVGID_4_" gradientUnits="userSpaceOnUse" x1="179.6562" y1="547.85" x2="179.6562" y2="592.39" gradientTransform="matrix(1 0 0 1 0 -528)">
				<stop  offset="0" style="stop-color:#36078B"/>
				<stop  offset="1" style="stop-color:#16B1FF"/>
			</linearGradient>
			<path class="st8" d="M176.2,56.5c1.3-1.1,3.8-4,7.9-12.4c1.5-2.9,2.8-6,3.8-9.2c1-3-1.3-5.3-2.9-5.2c-2.6,0.2-6.1,2.1-6.7,3.7
				c-3.4,8.6-5.5,15.5-6.7,17.4C169.7,53.6,174.6,57.8,176.2,56.5z"/>
			<path class="st6" d="M196.4,26.3c0.1,1.5,0.2,3.3,0.3,4.9c0,2.2-1.5,4-3.7,4.3h-0.2c-1.9,0-4.1-1.7-4-3.6
				c0.1-1.2,0.1-2.5,0.2-3.6c0-2.1,1.3-3.9,3.3-4.7l0,0c1.6-0.6,3.4,0.2,4,1.9C196.3,25.7,196.4,26,196.4,26.3z"/>
			
				<linearGradient id="SVGID_5_" gradientUnits="userSpaceOnUse" x1="190.4163" y1="547.85" x2="190.4163" y2="592.39" gradientTransform="matrix(1 0 0 1 0 -528)">
				<stop  offset="0" style="stop-color:#36078B"/>
				<stop  offset="1" style="stop-color:#16B1FF"/>
			</linearGradient>
			<path class="st9" d="M205.2,45.1c-3.5,11.6-4.7,23.8-4,31.9h-26.6c0,0,0.2-25,1.9-38.6c0.4-3.4,2.5-6.3,5.6-7.8
				c2.2-1,4.7-1.5,7.1-1.6h4.9c1.8,0,3.5,0.2,5.2,0.7C206.6,31.8,207.3,38.4,205.2,45.1z"/>
			
				<linearGradient id="SVGID_6_" gradientUnits="userSpaceOnUse" x1="136.9931" y1="708.6702" x2="209.6631" y2="572.1802" gradientTransform="matrix(1 0 0 1 0 -528)">
				<stop  offset="0" style="stop-color:#F70F47"/>
				<stop  offset="1" style="stop-color:#FFB41D"/>
			</linearGradient>
			<path class="st10" d="M201.1,93.3c0,0,2.3-5.6,0.1-16.3h-26.6c-0.6,5.4-1,10.9-1,16.3H201.1z"/>
			
				<linearGradient id="SVGID_7_" gradientUnits="userSpaceOnUse" x1="173.463" y1="728.0882" x2="246.133" y2="591.5982" gradientTransform="matrix(1 0 0 1 0 -528)">
				<stop  offset="0" style="stop-color:#F70F47"/>
				<stop  offset="1" style="stop-color:#FFB41D"/>
			</linearGradient>
			<path class="st11" d="M195.8,128.2c-2.1-8.7,6.7-10.2,9.5-3.9c4,8.9,3.6,37.3,3.4,42.9c0,0.7,0.1,1.6-0.3,1.9
				c-0.9,0.4-1.9,0.5-2.8,0.4c-1,0-2,0-2.1-1.3C203,160,197.9,136.6,195.8,128.2z"/>
			
				<linearGradient id="SVGID_8_" gradientUnits="userSpaceOnUse" x1="152.9155" y1="717.1462" x2="225.5955" y2="580.6662" gradientTransform="matrix(1 0 0 1 0 -528)">
				<stop  offset="0" style="stop-color:#F70F47"/>
				<stop  offset="1" style="stop-color:#FFB41D"/>
			</linearGradient>
			<path class="st12" d="M187.9,94.5c-0.9-10.8,3.3-19.1,10-15.6c2.8,1.5,3.8,4.5,4.2,7.3s2.5,32.1,3.2,37.4
				c1.6,11.9-7.8,8.7-8.8,5.4C193.9,120.7,188.4,100.3,187.9,94.5z"/>
			
				<linearGradient id="SVGID_9_" gradientUnits="userSpaceOnUse" x1="153.6151" y1="717.52" x2="226.2851" y2="581.03" gradientTransform="matrix(1 0 0 1 0 -528)">
				<stop  offset="0" style="stop-color:#F70F47"/>
				<stop  offset="1" style="stop-color:#FFB41D"/>
			</linearGradient>
			<path class="st13" d="M179,171.6c0.3-12.7,5.7-34.9,2.6-45.3c-2-6.6-9.9-6.8-9.5,1.3c0.4,8.6,3,25.4,2.1,42.1
				C174.1,171.3,179,173,179,171.6z"/>
			
				<linearGradient id="SVGID_10_" gradientUnits="userSpaceOnUse" x1="137.3601" y1="708.8638" x2="210.0301" y2="572.374" gradientTransform="matrix(1 0 0 1 0 -528)">
				<stop  offset="0" style="stop-color:#F70F47"/>
				<stop  offset="1" style="stop-color:#FFB41D"/>
			</linearGradient>
			<path class="st14" d="M181.3,128.5c-1,3.3-10.1,7.1-9.1-4.9c0.4-5.3,1.5-34.8,1.8-37.6s0.7-7,2.1-7.5c7.1-2.6,14,5.9,12.1,16.5
				C187,102.1,183.5,121.6,181.3,128.5z"/>
			<ellipse transform="matrix(0.9257 -0.3782 0.3782 0.9257 6.79 70.9823)" class="st6" cx="184.1" cy="18.2" rx="1.6" ry="3"/>
			<ellipse transform="matrix(0.378 -0.9258 0.9258 0.378 106.6714 195.0028)" class="st6" cx="198.5" cy="18.1" rx="3" ry="1.6"/>
			
				<linearGradient id="SVGID_11_" gradientUnits="userSpaceOnUse" x1="178.2714" y1="528.4435" x2="215.7714" y2="557.3235" gradientTransform="matrix(1 0 0 1 0 -528)">
				<stop  offset="0" style="stop-color:#0000FF"/>
				<stop  offset="1" style="stop-color:#9E005D"/>
			</linearGradient>
			<path class="st15" d="M197.3,9.8c-1.7,2.6-10,2.8-12.7,1.9s-2.5-6.2,1.4-6.5c2.2,0,0.6,0.5,2.4,1.2
				C189.2,6.7,199.1,7.1,197.3,9.8z"/>
			
				<linearGradient id="SVGID_12_" gradientUnits="userSpaceOnUse" x1="176.0012" y1="531.3904" x2="213.5012" y2="560.2704" gradientTransform="matrix(1 0 0 1 0 -528)">
				<stop  offset="0" style="stop-color:#0000FF"/>
				<stop  offset="1" style="stop-color:#9E005D"/>
			</linearGradient>
			<path class="st16" d="M187.9,9.4c-2.5,1.5-3.1,2.9-3.1,6.1s1.4,8.6,7.2,9.8s7.2-4.6,7.5-8.6s0.1-7-2.8-7.7
				C192.5,7.9,189.5,8.4,187.9,9.4z"/>
			
				<linearGradient id="SVGID_13_" gradientUnits="userSpaceOnUse" x1="27.1165" y1="525.2284" x2="17.4465" y2="569.7484" gradientTransform="matrix(1 0 0 1 0 -528)">
				<stop  offset="0" style="stop-color:#2C27CE"/>
				<stop  offset="1" style="stop-color:#EF1D68"/>
			</linearGradient>
			<path class="st17" d="M15.6,12.6c-4.1,3-6.1,8.1-5.3,13.1c0.7,4.7,0.4,9.4-1,13.9c-1,3.2-4.5,13.7,7.9,13.5S30.4,38.3,29,30.8
				s1.2-12.7-0.7-15S22.1,7.9,15.6,12.6z"/>
			<path class="st6" d="M62.6,39.8c2.6-1.8,5.1-3.8,5.7-1.8s0.6,2-1.3,3.5S60.5,41.4,62.6,39.8z"/>
			
				<linearGradient id="SVGID_14_" gradientUnits="userSpaceOnUse" x1="34.5298" y1="570.2708" x2="58.8798" y2="572.6608" gradientTransform="matrix(1 0 0 1 0 -528)">
				<stop  offset="0" style="stop-color:#36078B"/>
				<stop  offset="1" style="stop-color:#16B1FF"/>
			</linearGradient>
			<path class="st18" d="M62.7,39.4c-1.6,0.7-12.6,2.9-17,4.3h-0.1c-2.2-0.6-8.4-3.6-16.6-7.3c-2.4-0.8-5-0.6-7.4,0.4
				c-1.5,0.7-2,3.3,0.7,4.6c2.9,1.5,5.8,2.8,8.8,3.8c7.5,2.8,11.5,3.6,13.6,3.8c0.5,0.1,0.9,0.1,1.4,0c4.2-0.8,8.2-2.4,11.9-4.5
				c3.9-2,5.4-1.4,6.1-2.6C64.6,40.9,63.8,38.9,62.7,39.4z"/>
			
				<linearGradient id="SVGID_15_" gradientUnits="userSpaceOnUse" x1="11.1719" y1="696.9886" x2="11.7719" y2="679.2086" gradientTransform="matrix(1 0 0 1 0 -528)">
				<stop  offset="0" style="stop-color:#2C27CE"/>
				<stop  offset="0.65" style="stop-color:#EF1D68"/>
				<stop  offset="1" style="stop-color:#EFBA92"/>
			</linearGradient>
			<path class="st19" d="M12.6,167.1c0.2,0.7,0.3,1.5,0.3,2.2c0.1,0.9,1,1.2,1.4,2s1.3,2.1-1.9,2.2c-3.4,0.1-5.5-0.2-4.9-2.1
				c0.4-1.1,0.6-2.3,0.7-3.4c-0.1-0.6,0-1.2,0.4-1.7C9,165.9,12.1,165.2,12.6,167.1z"/>
			<path class="st20" d="M18.9,27.9c0,0.3-0.4,5.7-0.5,9.9c0,2.1,1.4,4,2.9,4.1h0.1c1.4,0,3.2-1.8,3-3.8c-0.2-3.7-0.1-7.4-0.1-7.5
				L18.9,27.9z"/>
			
				<linearGradient id="SVGID_16_" gradientUnits="userSpaceOnUse" x1="19.5351" y1="565.3564" x2="28.8451" y2="606.8865" gradientTransform="matrix(1 0 0 1 0 -528)">
				<stop  offset="0" style="stop-color:#36078B"/>
				<stop  offset="1" style="stop-color:#16B1FF"/>
			</linearGradient>
			<path class="st21" d="M14.6,51.5c1.2,3.8,2.1,7.6,2.6,11.5c0.4,2.9,0.4,5.8,0,8.7c-0.2,1.7-0.6,3.4-1,5.1
				c-0.2,0.6-1.4,5.8-1.5,6.4h23.7C38.3,78.6,33,64,36.6,54.6c2.5-6.5-0.8-6.7-3-12.2c-0.4-1.4-1.1-2.7-1.9-3.9
				c-0.9-1.1-2.2-1.9-3.6-2.2c-0.7-0.2-1.5-0.3-2.2-0.3c-4-0.3-13.4-1.5-14.3,4.2c-0.2,1.6,0,3.1,0.5,4.6c0.5,1.7,1.3,3.2,2,4.8
				C14.2,50.2,14.4,50.9,14.6,51.5z"/>
			
				<linearGradient id="SVGID_17_" gradientUnits="userSpaceOnUse" x1="26.8719" y1="639.1898" x2="28.1419" y2="753.1397" gradientTransform="matrix(1 0 0 1 0 -528)">
				<stop  offset="0" style="stop-color:#F70F47"/>
				<stop  offset="1" style="stop-color:#9E005D"/>
			</linearGradient>
			<path class="st22" d="M14.9,98.3c0,0-2-5.2-0.1-15h23.7c0.5,5,0.8,10,0.9,15H14.9z"/>
			
				<linearGradient id="SVGID_18_" gradientUnits="userSpaceOnUse" x1="13.5409" y1="639.3401" x2="14.811" y2="753.2901" gradientTransform="matrix(1 0 0 1 0 -528)">
				<stop  offset="0" style="stop-color:#F70F47"/>
				<stop  offset="1" style="stop-color:#9E005D"/>
			</linearGradient>
			<path class="st23" d="M19.6,130.5c1.9-8-6-9.4-8.5-3.6c-3.5,8.2-3.2,34.4-3.1,39.6c0,0.7,0.4,0.6,0.8,0.4
				c0.8-0.3,1.6-0.5,2.5-0.5c0.6,0.2,1,0.6,1.3,1.1C13.4,160.3,17.7,138.2,19.6,130.5z"/>
			
				<linearGradient id="SVGID_19_" gradientUnits="userSpaceOnUse" x1="18.9577" y1="639.2791" x2="20.2277" y2="753.2291" gradientTransform="matrix(1 0 0 1 0 -528)">
				<stop  offset="0" style="stop-color:#F70F47"/>
				<stop  offset="1" style="stop-color:#9E005D"/>
			</linearGradient>
			<path class="st24" d="M26.7,99.4c0.8-9.9-3-17.7-8.9-14.4c-2.5,1.4-3.4,4.1-3.7,6.8s-2.2,29.7-2.8,34.6c-1.4,11,6.9,8.1,7.8,5
				C21.3,123.6,26.2,104.7,26.7,99.4z"/>
			
				<linearGradient id="SVGID_20_" gradientUnits="userSpaceOnUse" x1="35.8221" y1="639.0895" x2="37.0921" y2="753.0395" gradientTransform="matrix(1 0 0 1 0 -528)">
				<stop  offset="0" style="stop-color:#F70F47"/>
				<stop  offset="1" style="stop-color:#9E005D"/>
			</linearGradient>
			<path class="st25" d="M40.7,129.9c0.3-7.5-6.7-7.3-8.4-1.2c-2.8,9.6,2,30.1,2.3,41.8c1.2-2,2.4-2.5,2.9-2.5
				c0.5,0.1,1,0.3,1.4,0.8C38.6,153.4,40.3,137.9,40.7,129.9z"/>
			
				<linearGradient id="SVGID_21_" gradientUnits="userSpaceOnUse" x1="33.3241" y1="639.1204" x2="34.5941" y2="753.0704" gradientTransform="matrix(1 0 0 1 0 -528)">
				<stop  offset="0" style="stop-color:#F70F47"/>
				<stop  offset="1" style="stop-color:#9E005D"/>
			</linearGradient>
			<path class="st26" d="M32.5,130.7c0.9,3,8.9,6.6,8.1-4.5c-0.4-4.9-1.4-32.1-1.6-34.7s-0.6-6.4-1.9-6.9
				c-6.3-2.4-12.5,5.4-10.8,15.3C27.5,106.4,30.6,124.4,32.5,130.7z"/>
			<path class="st6" d="M67,37.1c1-0.7,2.2-1.1,3.5-1.2c0.9,0.1-1.3,0.9-2.1,1.5S66,37.7,67,37.1z"/>
			<path class="st6" d="M15.8,72c2.9-0.6,4.4-1.6,5.7-0.8s-0.6,3.3-1.6,3.7s-4.4,2.2-5.5,1.3c-0.9-1.1-0.7-2.7,0.4-3.6
				C15.1,72.2,15.4,72.1,15.8,72z"/>
			
				<linearGradient id="SVGID_22_" gradientUnits="userSpaceOnUse" x1="12.3072" y1="569.8125" x2="7.5272" y2="599.6525" gradientTransform="matrix(1 0 0 1 0 -528)">
				<stop  offset="0" style="stop-color:#36078B"/>
				<stop  offset="1" style="stop-color:#16B1FF"/>
			</linearGradient>
			<path class="st27" d="M6,59.4c1.6-2.6,5.3-7.4,9.8-13.6c1.2-2.2,1.6-4.8,1.1-7.3c-0.4-1.6-2.8-2.6-4.7-0.3
				c-2,2.5-3.9,5.1-5.6,7.9C1.8,53.9,0.5,57.7,0,59.4c-0.1,0.7,0.2,1.4,0.8,1.8c0.1,0.1,0.1,0.2,0.2,0.3c2.5,3.5,5.5,6.6,8.9,9.1
				c3.4,2.8,3.5,4.4,4.8,4.5c1.1,0.1,2.7-1.4,1.7-2.3C15.3,71.7,9.2,63.1,6,59.4z"/>
			<path class="st6" d="M15.2,24.7c1.2,4.5,1.5,5.5,3.8,7.1c2.2,1.4,4.9,2,7.5,1.6c2.4-0.4,3.7-3.2,3.9-5.2c0.3-4-0.2-8.1-1.4-11.9
				c-0.8-2.5-4.4-5.1-7.7-4.6S12.3,13.6,15.2,24.7z"/>
			
				<linearGradient id="SVGID_23_" gradientUnits="userSpaceOnUse" x1="40.623" y1="697.9824" x2="41.2229" y2="680.1923" gradientTransform="matrix(1 0 0 1 0 -528)">
				<stop  offset="0" style="stop-color:#2C27CE"/>
				<stop  offset="0.65" style="stop-color:#EF1D68"/>
				<stop  offset="1" style="stop-color:#EFBA92"/>
			</linearGradient>
			<path class="st28" d="M39.1,168.7c0.9,1.1,2,2,3.4,2.5c1.8,0.8,5.6,1.2,3.5,1.9c-1.9,0.5-3.9,0.5-5.8,0.1
				c-1.3-0.2-2.6-0.3-3.9-0.2c-1.9,0-2-0.1-1.7-2.3C34.9,167.7,38.2,167.1,39.1,168.7z"/>
			
				<linearGradient id="SVGID_24_" gradientUnits="userSpaceOnUse" x1="111.0002" y1="1626.7637" x2="101.3302" y2="1671.2837" gradientTransform="matrix(0.9873 -0.159 0.159 0.9873 -346.701 -1591.7255)">
				<stop  offset="0" style="stop-color:#2C27CE"/>
				<stop  offset="1" style="stop-color:#EF1D68"/>
			</linearGradient>
			<path class="st29" d="M28,14c2.3,2.8-9.9,10.6-12.9,10.6s-3.2-5.7-1.4-8.9S22.6,7.4,28,14z"/>
			
				<linearGradient id="SVGID_25_" gradientUnits="userSpaceOnUse" x1="116.6691" y1="1627.9891" x2="106.999" y2="1672.509" gradientTransform="matrix(0.9873 -0.159 0.159 0.9873 -346.701 -1591.7255)">
				<stop  offset="0" style="stop-color:#2C27CE"/>
				<stop  offset="1" style="stop-color:#EF1D68"/>
			</linearGradient>
			<path class="st30" d="M23,14c0.9,2.5,5.6,2.4,6.7,4.4c0.7,1.3,0.2-3-1.1-4.8S21.2,8.9,23,14z"/>
			<ellipse transform="matrix(0.9257 -0.3782 0.3782 0.9257 -8.1218 7.8425)" class="st6" cx="15.9" cy="24.6" rx="1.7" ry="3.2"/>
		</g>
	</g>
</g>
</svg>
