<?xml version="1.0" encoding="utf-8"?>
<!-- Generator: Adobe Illustrator 21.0.0, SVG Export Plug-In . SVG Version: 6.00 Build 0)  -->
<svg version="1.1" id="Слой_1" xmlns="http://www.w3.org/2000/svg" xmlns:xlink="http://www.w3.org/1999/xlink" x="0px" y="0px"
	 viewBox="0 0 197.9 182.1" style="enable-background:new 0 0 197.9 182.1;" xml:space="preserve">
<style type="text/css">
	.st0{fill:none;stroke:#0037FF;stroke-linecap:round;stroke-linejoin:round;}
	.st1{opacity:0.5;fill:none;stroke:#0037FF;stroke-linecap:round;stroke-linejoin:round;enable-background:new    ;}
	.st2{opacity:0.3;fill:url(#SVGID_1_);enable-background:new    ;}
	.st3{fill:url(#SVGID_2_);}
	.st4{fill:url(#SVGID_3_);}
	.st5{fill:#F70F47;}
	.st6{fill:#ED9169;}
	.st7{fill:url(#SVGID_4_);}
	.st8{fill:url(#SVGID_5_);}
	.st9{fill:url(#SVGID_6_);}
	.st10{fill:url(#SVGID_7_);}
	.st11{fill:url(#SVGID_8_);}
	.st12{fill:url(#SVGID_9_);}
	.st13{fill:url(#SVGID_10_);}
	.st14{fill:url(#SVGID_11_);}
	.st15{fill:#FFAF84;}
	.st16{opacity:0.3;fill:url(#SVGID_12_);enable-background:new    ;}
	.st17{fill:#4E11F4;}
	.st18{fill:url(#SVGID_13_);}
	.st19{fill:url(#SVGID_14_);}
	.st20{fill:url(#SVGID_15_);}
	.st21{fill:url(#SVGID_16_);}
	.st22{fill:url(#SVGID_17_);}
	.st23{fill:url(#SVGID_18_);}
	.st24{fill:url(#SVGID_19_);}
	.st25{fill:url(#SVGID_20_);}
	.st26{fill:url(#SVGID_21_);}
	.st27{fill:url(#SVGID_22_);}
	.st28{fill:url(#SVGID_23_);}
</style>
<title>fs-blok6</title>
<g>
	<g id="Слой_2">
		<g id="Objects">
			<rect x="69" y="141.3" class="st0" width="58.8" height="35.3"/>
			<path class="st0" d="M99.1,1.1c-1.4-1.5-3.8-1.5-5.2-0.1c0,0,0,0-0.1,0.1c-0.3,0.6-0.3,1.3,0,1.8l2.6-0.4L99,2.9
				C99.4,2.4,99.4,1.7,99.1,1.1z"/>
			<path class="st0" d="M120.3,12.7c-3.5-4.6-13.2-10.3-23.2-10.1C87.2,2.5,77.5,8.1,74,12.7s-3.5,23.6-3.5,23.6
				c8,4.7,26.7,4.4,26.7,4.4s18.7,0.3,26.7-4.4C123.9,36.3,123.8,17.4,120.3,12.7z"/>
			<path class="st0" d="M72.3,36.6H72c0.1-0.7,1.6-17.9,3.7-21.7c2.6-4.6,6.8-8.1,11.8-9.8c2.9-1.1,5.9-2,8.9-2.6l0.1,0.3
				c-3,0.6-6,1.5-8.8,2.6c-4.9,1.8-9,5.2-11.6,9.7C73.9,18.7,72.3,36.4,72.3,36.6z"/>
			<path class="st0" d="M120.8,36.6h0.3c-0.1-0.7-1.6-17.9-3.7-21.7c-2.6-4.6-6.8-8.1-11.8-9.8c-2.9-1.1-5.9-2-8.9-2.6l-0.1,0.3
				c3,0.6,6,1.5,8.8,2.6c4.9,1.8,9,5.2,11.6,9.7C119.2,18.7,120.8,36.4,120.8,36.6z"/>
			<path class="st0" d="M121.9,16.4L121.9,16.4c0,0-5.2,13.7-24.2,12.7s-25.4-12-25.4-12l0,0c-1.8,7.2-1.8,19.2-1.8,19.2
				c8,4.7,26.7,4.4,26.7,4.4s18.7,0.3,26.7-4.4C123.9,36.3,123.8,23.6,121.9,16.4z"/>
			<path class="st0" d="M123.9,37.9c-2.6,0.3-5.3,0.1-7.8-0.6c-6.2-1.6-12.5-2.4-18.9-2.5c-6.4,0.1-12.7,0.9-18.9,2.5
				c-2.6,0.7-5.2,0.9-7.8,0.6c0,0-2.3,9.5-1.5,13.1s6.2,3.7,10.5,2.1c4.7-1.7,17.7-2.2,17.7-2.2s12.7,0.3,17.7,2.2
				c4.3,1.7,9.6,1.6,10.5-2.1S123.9,37.9,123.9,37.9z"/>
			<path class="st0" d="M123.9,36.3c-2.6,0.3-5.3,0.1-7.8-0.6c-6.2-1.6-12.5-2.4-18.9-2.5c-6.4,0.1-12.7,0.9-18.9,2.5
				c-2.6,0.7-5.2,0.9-7.8,0.6c0,0-2.3,9.5-1.5,13.1s6.2,3.7,10.5,2.1c4.7-1.7,17.7-2.2,17.7-2.2s12.7,0.3,17.7,2.2
				c4.3,1.7,9.6,1.5,10.5-2.1S123.9,36.3,123.9,36.3z"/>
			<path class="st0" d="M113.7,63.1"/>
			<path class="st0" d="M126,87.8c-3-6.5-10-5.9-11.4-5.5c-0.5,0.2-1.1,0.1-1.6-0.2l0.1-4c0-1.8-1.9-2.1-1.9-2.1
				c-8-1.1-31.7-0.7-34.2-0.4S74.9,77,74.9,77s0.4,35.7,0.4,38.7s8.6,4.7,17.8,5s16.4-2.1,17.8-2.8c0.8-0.4,1.3-1.2,1.3-2.1l0.1-5.1
				c0.3-0.1,0.6-0.1,0.9,0c1.6,0.5,6.1,2.6,10.8-1.9C128.7,104.3,129.1,94.3,126,87.8z M119,108.1c-3.6,0.5-5.1-1.9-5.3-3
				c-0.1-0.7-0.4-1.4-0.8-2c-0.3-2.6,0.4-13.5,0.4-13.5c0.6-3.5,2.4-5.3,5.7-4.8s6.3,4.4,6.7,10.9S122.7,107.6,119,108.1L119,108.1z
				"/>
			<path class="st1" d="M119.1,84.8c2.4,0.3,4.6,2.5,5.8,6.1l0,0c-2.3-8.3-8.5-6.9-10-5.9s-1.5,4.6-1.5,4.6
				C114,86.1,115.8,84.3,119.1,84.8z"/>
			<path class="st1" d="M125.7,94.9c0,0.3,0,0.5,0.1,0.8c0.4,6.5-3,11.9-6.7,12.5s-5.1-1.9-5.3-3c-0.1-0.7-0.4-1.3-0.7-1.9
				c0.9,5.7,3.6,6.8,6.9,5.1C124.4,106,126.4,101.2,125.7,94.9z"/>
			<path class="st0" d="M113,103l0.1,0.2c-0.1-0.4-0.1-0.7-0.1-1.1C113,102.4,113,102.8,113,103z"/>
			<path class="st0" d="M92.3,75.8L91.4,120c0,0-5.8-0.5-8.2-0.9l-0.6-43.3H92.3z"/>
			<path class="st0" d="M120.1,110.1c0,0,8.8-2.9,6.8-16.6C126.9,93.5,128.4,105,120.1,110.1z"/>
			
				<linearGradient id="SVGID_1_" gradientUnits="userSpaceOnUse" x1="-6058.8896" y1="823.67" x2="-6050.0098" y2="823.67" gradientTransform="matrix(-1 0 0 1 -5868.3726 -646)">
				<stop  offset="0" style="stop-color:#0000FF"/>
				<stop  offset="1" style="stop-color:#9E005D"/>
			</linearGradient>
			<path class="st2" d="M184.3,174.7c-0.2,0.8-0.3,1.7-0.4,2.6c-0.2,1-1.2,1.4-1.7,2.3s-1.6,2.4,2.3,2.5c4.1,0.1,6.6-0.2,5.9-2.5
				c-0.5-1.3-0.8-2.6-0.8-4c0.1-0.7,0-1.4-0.5-1.9C188.7,173.3,184.9,172.5,184.3,174.7z"/>
			
				<linearGradient id="SVGID_2_" gradientUnits="userSpaceOnUse" x1="-5991.3145" y1="671.8701" x2="-6022.8442" y2="680.5601" gradientTransform="matrix(-1 0 0 1 -5868.3726 -646)">
				<stop  offset="0" style="stop-color:#F70F47"/>
				<stop  offset="1" style="stop-color:#FFB41D"/>
			</linearGradient>
			<path class="st3" d="M131.2,18.5c1.2,2,11.7,11,13.7,14.3c2.3,3.9-2.8,10-5.1,7.6c-2.5-2.7-4.9-6-8.6-12.4
				c-2.8-4.8-2.9-6.3-2.7-8.7C128.5,17.4,130.4,17.2,131.2,18.5z"/>
			
				<linearGradient id="SVGID_3_" gradientUnits="userSpaceOnUse" x1="-5991.2783" y1="671.9887" x2="-6022.8184" y2="680.6787" gradientTransform="matrix(-1 0 0 1 -5868.3726 -646)">
				<stop  offset="0" style="stop-color:#F70F47"/>
				<stop  offset="1" style="stop-color:#FFB41D"/>
			</linearGradient>
			<path class="st4" d="M142.7,33.2c2.4-0.3,9.5-3.1,19-6c1.7-0.5,5.7,1.1,7.6,3.2c1.2,1.3,0.7,4.7-2.4,5.9c-3.3,1.3-6.7,2.3-10.1,3
				c-9.7,2.2-13.9,2-15.6,1.7C139,40.5,139.2,33.6,142.7,33.2z"/>
			<path class="st5" d="M166.2,15.2c-1.7,0.8-2.4,0.8-3.1-1.3c-0.5-1.6-1.3-7.4,1.4-7.8s4.7-0.5,4.4,3.1S168.2,14.3,166.2,15.2z"/>
			<path class="st6" d="M176.1,18.3c0,0.3,0.6,5.8,0.7,10c-0.1,2.2-1.9,4-4.1,4.1h-0.1c-2,0-4.4-1.8-4.3-3.9c0.2-2.5,0.2-5,0.1-7.5
				L176.1,18.3z"/>
			
				<linearGradient id="SVGID_4_" gradientUnits="userSpaceOnUse" x1="-6039.7285" y1="682.0372" x2="-6034.2583" y2="729.0172" gradientTransform="matrix(-1 0 0 1 -5868.3726 -646)">
				<stop  offset="0" style="stop-color:#F70F47"/>
				<stop  offset="1" style="stop-color:#FFB41D"/>
			</linearGradient>
			<path class="st7" d="M186.4,41.3c-3.8,12.4-5.5,27.5-4.7,36.2h-28.5c0,0,0.2-26.7,2.1-41.3c0.5-3.6,2.7-6.8,6-8.4
				c2.4-1,5-1.6,7.6-1.7h5.3c1.9,0.1,3.7,0.3,5.6,0.7C187.2,28.3,188.6,34.1,186.4,41.3z"/>
			
				<linearGradient id="SVGID_5_" gradientUnits="userSpaceOnUse" x1="-6111.0156" y1="833.673" x2="-6002.8154" y2="688.813" gradientTransform="matrix(-1 0 0 1 -5868.3726 -646)">
				<stop  offset="0" style="stop-color:#36078B"/>
				<stop  offset="1" style="stop-color:#16B1FF"/>
			</linearGradient>
			<path class="st8" d="M181.5,94.9c0,0,2.5-6,0.1-17.4h-28.5c-0.6,5.8-1,11.6-1,17.4H181.5z"/>
			
				<linearGradient id="SVGID_6_" gradientUnits="userSpaceOnUse" x1="-6091.4941" y1="848.2543" x2="-5983.2939" y2="703.3943" gradientTransform="matrix(-1 0 0 1 -5868.3726 -646)">
				<stop  offset="0" style="stop-color:#36078B"/>
				<stop  offset="1" style="stop-color:#16B1FF"/>
			</linearGradient>
			<path class="st9" d="M175.9,132.3c-2.3-9.3,7.2-10.9,10.2-4.2c4.2,9.5,3.9,39.8,3.7,45.9c0,0.8-0.5,0.6-0.9,0.5
				c-0.9-0.4-2-0.6-3-0.6c-0.7,0.2-1.3,0.6-1.6,1.3C183.3,166.9,178.1,141.2,175.9,132.3z"/>
			
				<linearGradient id="SVGID_7_" gradientUnits="userSpaceOnUse" x1="-6108.3369" y1="835.6723" x2="-6000.127" y2="690.8123" gradientTransform="matrix(-1 0 0 1 -5868.3726 -646)">
				<stop  offset="0" style="stop-color:#36078B"/>
				<stop  offset="1" style="stop-color:#16B1FF"/>
			</linearGradient>
			<path class="st10" d="M167.4,96.2c-1-11.5,3.6-20.5,10.7-16.7c3,1.6,4.1,4.8,4.5,7.8s2.6,34.4,3.4,40c1.8,12.8-8.3,9.3-9.4,5.8
				C173.8,124.3,167.9,102.5,167.4,96.2z"/>
			
				<linearGradient id="SVGID_8_" gradientUnits="userSpaceOnUse" x1="-6072.5352" y1="862.4212" x2="-5964.3252" y2="717.5612" gradientTransform="matrix(-1 0 0 1 -5868.3726 -646)">
				<stop  offset="0" style="stop-color:#36078B"/>
				<stop  offset="1" style="stop-color:#16B1FF"/>
			</linearGradient>
			<path class="st11" d="M150.5,131.6c-0.4-8.6,8-8.5,10.2-1.4c3.3,11.1-2.4,34.9-2.8,48.4c-1.5-2.4-2.9-2.9-3.5-2.9
				c-0.6,0.1-1.2,0.4-1.6,0.9C153,158.8,150.9,140.9,150.5,131.6z"/>
			
				<linearGradient id="SVGID_9_" gradientUnits="userSpaceOnUse" x1="-6094.8208" y1="845.7765" x2="-5986.6108" y2="700.9065" gradientTransform="matrix(-1 0 0 1 -5868.3726 -646)">
				<stop  offset="0" style="stop-color:#36078B"/>
				<stop  offset="1" style="stop-color:#16B1FF"/>
			</linearGradient>
			<path class="st12" d="M160.4,132.6c-1.1,3.5-10.8,7.6-9.8-5.2c0.4-5.7,1.6-37.2,1.9-40.2s0.8-7.5,2.3-8c7.6-2.8,15,6.3,13,17.7
				C166.4,104.4,162.7,125.3,160.4,132.6z"/>
			
				<linearGradient id="SVGID_10_" gradientUnits="userSpaceOnUse" x1="-6059.7139" y1="684.3697" x2="-6054.2437" y2="731.3497" gradientTransform="matrix(-1 0 0 1 -5868.3726 -646)">
				<stop  offset="0" style="stop-color:#F70F47"/>
				<stop  offset="1" style="stop-color:#FFB41D"/>
			</linearGradient>
			<path class="st13" d="M180.2,68.7c1.5-1.8,6.2-14.8,8.6-17.8c2.9-3.5,10.1-1.3,8.7,1.8c-2.1,4.7-3,6.4-8.5,12.1
				c-3.8,4-5,5.6-7.2,6.2C180,71.5,179.2,69.9,180.2,68.7z"/>
			
				<linearGradient id="SVGID_11_" gradientUnits="userSpaceOnUse" x1="-6056.2754" y1="683.9657" x2="-6050.8057" y2="730.9457" gradientTransform="matrix(-1 0 0 1 -5868.3726 -646)">
				<stop  offset="0" style="stop-color:#F70F47"/>
				<stop  offset="1" style="stop-color:#FFB41D"/>
			</linearGradient>
			<path class="st14" d="M189.9,52.8c-1.1-2.2-6.2-7.9-12.2-15.8c-1.1-1.4-1-5.7,0.4-8.2c0.8-1.5,4.2-2.3,6.4,0.2
				c2.3,2.7,4.4,5.5,6.3,8.5c5.4,8.4,6.7,12.3,7,14.1C198.1,53.7,191.5,55.9,189.9,52.8z"/>
			<path class="st15" d="M178.9,14.3c-0.5,4.7-0.6,5.8-2.7,7.7c-2,1.8-4.6,2.8-7.2,2.8c-2.4,0-4.2-2.5-4.8-4.5
				c-0.9-4-1.1-8.1-0.6-12.1c0.3-2.6,3.6-5.8,6.9-5.8S180,2.8,178.9,14.3z"/>
			<path class="st15" d="M182.7,68.1c-1.1-1.2-2.8-3.1-3.6-4.1s-3.3,0.8-3.4,1.7c-0.1,1.4,1.3,5.1,3,5.1s2.2,1.6,3.7,1.1
				S184.5,70,182.7,68.1z"/>
			
				<linearGradient id="SVGID_12_" gradientUnits="userSpaceOnUse" x1="-6026.4536" y1="824.8511" x2="-6011.8213" y2="824.8511" gradientTransform="matrix(-1 0 0 1 -5868.3726 -646)">
				<stop  offset="0" style="stop-color:#0000FF"/>
				<stop  offset="1" style="stop-color:#9E005D"/>
			</linearGradient>
			<path class="st16" d="M152.4,176.6c-1.1,1.3-2.4,2.3-4,2.9c-2.2,0.9-6.7,1.4-4.2,2.2s5.5,0.3,7,0.1c1.6-0.2,3.1-0.3,4.7-0.3
				c2.3,0,2.4-0.1,2-2.7C157.5,175.4,153.4,174.7,152.4,176.6z"/>
			<path class="st5" d="M178.9,13.6c-1.3,1.3-1.9,1.5-3.2-0.2c-1-1.3-3.6-6.3-1.3-7.5s4.1-1.9,5,1.4S180.4,12,178.9,13.6z"/>
			<ellipse transform="matrix(0.3782 -0.9257 0.9257 0.3782 97.4112 175.0719)" class="st15" cx="179" cy="15" rx="3.2" ry="1.7"/>
			<path class="st5" d="M177.4,5c-1.8,2.7-10.7,3-13.6,2s-2.7-6.6,1.4-7c2.3,0,0.6,0.6,2.5,1.3C168.8,1.7,179.4,2.1,177.4,5z"/>
			<path class="st15" d="M131.5,18.8c-0.5-1.4-5.1-12.4-7-10.6c-2,2-1.1,6.8-0.6,8.4c0.9,2.9,3.6,4.6,5.4,4.5
				C130.6,20.9,132,20.1,131.5,18.8z"/>
			<path class="st15" d="M131.8,18c0.1-0.7,0.4-4.8-0.3-5c-1.2-0.2-1.6,2.5-1.8,4.3c-0.1,1,0.3,2.4,1.1,2.4S131.7,19.1,131.8,18z"/>
			<path class="st17" d="M5.9,168.3c0.2,0.8,0.3,1.6,0.3,2.5c0.2,1,1.1,1.4,1.7,2.2s1.6,2.2-2.2,2.3c-4,0.1-6.3,0-5.7-2.2
				c0.5-1.2,0.7-2.5,0.8-3.8c-0.1-0.7,0-1.3,0.5-1.9C1.8,166.9,5.3,166.2,5.9,168.3z"/>
			<path class="st15" d="M53.8,46.2c1.3-0.7,11.7-5.4,11.8-2.9c0.1,2.7-3.6,5.5-5,6.3c-2.5,1.4-5.5,0.9-6.7-0.4
				C53,48.3,52.5,46.8,53.8,46.2z"/>
			<path class="st15" d="M54.1,45.4c0.4-0.5,2.8-3.7,3.4-3.3c0.9,0.6-0.5,2.8-1.5,4.2c-0.5,0.8-1.8,1.5-2.3,1S53.4,46.3,54.1,45.4z"
				/>
			<path class="st17" d="M36.4,170.1c1,1.3,2.4,2.3,3.9,2.9c2.1,0.9,6.4,1.3,4,2.1c-2.2,0.5-4.5,0.6-6.7,0.1c-1.5-0.2-3-0.3-4.5-0.3
				c-2.2,0-2.3-0.1-1.9-2.6C31.6,169,35.4,168.3,36.4,170.1z"/>
			<path class="st15" d="M11.1,15.4c0.5,4.5,0.6,5.5,2.6,7.4s5,2.1,7.2,2.1c2.3,0,3.8-2.8,4.4-4.7c0.8-3.5,1-7.1,0.4-10.6
				C25.4,7,22.3,4,19.1,4S10,4.4,11.1,15.4z"/>
			
				<linearGradient id="SVGID_13_" gradientUnits="userSpaceOnUse" x1="-5345.7148" y1="-2160.1277" x2="-5291.8848" y2="-2211.9578" gradientTransform="matrix(-0.58 0.81 0.81 0.58 -2730.4089 5896.6406)">
				<stop  offset="0" style="stop-color:#36078B"/>
				<stop  offset="1" style="stop-color:#16B1FF"/>
			</linearGradient>
			<path class="st18" d="M54.8,46.7c-2.1,0.6-15.4-0.1-18.9,0.9c-4.2,1.2-4.7,8.8-1.5,8.6c3.5-0.2,7.4-0.9,14.2-2.9
				c5-1.5,6.2-2.5,7.6-4.2C57.4,47.7,56.2,46.3,54.8,46.7z"/>
			
				<linearGradient id="SVGID_14_" gradientUnits="userSpaceOnUse" x1="-4477.0928" y1="715.2053" x2="-4423.2627" y2="663.3653" gradientTransform="matrix(-1 0 0 1 -4416.1929 -646)">
				<stop  offset="0" style="stop-color:#36078B"/>
				<stop  offset="1" style="stop-color:#16B1FF"/>
			</linearGradient>
			<path class="st19" d="M38.9,48.5c-1.2-2-3.4-9-6.9-17.8c-0.6-1.6-4.2-3.6-6.9-3.8c-1.7-0.1-4,2.3-3,5.3c1,3.2,2.3,6.4,3.8,9.4
				c4.2,8.6,6.8,11.5,8.1,12.7C35.7,55.7,40.7,51.4,38.9,48.5z"/>
			<path class="st15" d="M13.4,23.3c-0.1,1.6-0.2,3.4-0.3,5c0,2.2,1.6,4.1,3.8,4.4h0.3c2,0,4.2-1.8,4.1-3.7
				c-0.1-1.3-0.2-2.5-0.2-3.7c0-2.1-1.4-4-3.4-4.8l0,0c-1.7-0.6-3.5,0.3-4.1,1.9C13.5,22.8,13.5,23.1,13.4,23.3z"/>
			
				<linearGradient id="SVGID_15_" gradientUnits="userSpaceOnUse" x1="-4435.7266" y1="662.8" x2="-4435.7266" y2="708.39" gradientTransform="matrix(-1 0 0 1 -4416.1929 -646)">
				<stop  offset="0" style="stop-color:#36078B"/>
				<stop  offset="1" style="stop-color:#16B1FF"/>
			</linearGradient>
			<path class="st20" d="M4.4,42.6c3.7,12,4.9,24.4,4.1,32.7h27.2c0,0-0.2-25.5-2-39.5c-0.5-3.5-2.6-6.5-5.8-8
				c-2.3-1-4.8-1.5-7.3-1.6h-5c-1.8,0-3.6,0.2-5.3,0.7C3,29.1,2.3,35.7,4.4,42.6z"/>
			
				<linearGradient id="SVGID_16_" gradientUnits="userSpaceOnUse" x1="-4477.8491" y1="804.5939" x2="-4433.4092" y2="720.1838" gradientTransform="matrix(-1 0 0 1 -4416.1929 -646)">
				<stop  offset="0" style="stop-color:#F70F47"/>
				<stop  offset="1" style="stop-color:#FFB41D"/>
			</linearGradient>
			<path class="st21" d="M8.6,92c0,0-2.4-5.7-0.1-16.7h27.3c0.6,5.5,1,11.1,1,16.7H8.6z"/>
			
				<linearGradient id="SVGID_17_" gradientUnits="userSpaceOnUse" x1="-4440.5439" y1="824.2418" x2="-4396.0942" y2="739.8318" gradientTransform="matrix(-1 0 0 1 -4416.1929 -646)">
				<stop  offset="0" style="stop-color:#F70F47"/>
				<stop  offset="1" style="stop-color:#FFB41D"/>
			</linearGradient>
			<path class="st22" d="M14,127.7c2.2-8.9-6.9-10.4-9.8-4c-4,9.1-3.7,38.1-3.5,43.9c0,0.8-0.1,1.7,0.3,2c0.9,0.4,1.9,0.6,2.9,0.5
				c1,0,2,0,2.1-1.3C6.7,160.3,11.9,136.3,14,127.7z"/>
			
				<linearGradient id="SVGID_18_" gradientUnits="userSpaceOnUse" x1="-4461.5723" y1="813.1616" x2="-4417.1323" y2="728.7516" gradientTransform="matrix(-1 0 0 1 -4416.1929 -646)">
				<stop  offset="0" style="stop-color:#F70F47"/>
				<stop  offset="1" style="stop-color:#FFB41D"/>
			</linearGradient>
			<path class="st23" d="M22.2,93.2c1-11-3.4-19.6-10.2-16c-3,1.5-4,4.6-4.4,7.5S5.1,117.6,4.3,123c-1.7,12.2,8,8.9,9,5.5
				C16,120,21.6,99.2,22.2,93.2z"/>
			
				<linearGradient id="SVGID_19_" gradientUnits="userSpaceOnUse" x1="-4460.9927" y1="813.4725" x2="-4416.543" y2="729.0624" gradientTransform="matrix(-1 0 0 1 -4416.1929 -646)">
				<stop  offset="0" style="stop-color:#F70F47"/>
				<stop  offset="1" style="stop-color:#FFB41D"/>
			</linearGradient>
			<path class="st24" d="M31.2,172.1c-0.3-13-5.8-35.8-2.7-46.4c2-6.7,10.1-6.9,9.7,1.4c-0.4,8.9-3,26-2.1,43.1
				C36.2,171.9,31.3,173.6,31.2,172.1z"/>
			
				<linearGradient id="SVGID_20_" gradientUnits="userSpaceOnUse" x1="-4477.5879" y1="804.7339" x2="-4433.1479" y2="720.3239" gradientTransform="matrix(-1 0 0 1 -4416.1929 -646)">
				<stop  offset="0" style="stop-color:#F70F47"/>
				<stop  offset="1" style="stop-color:#FFB41D"/>
			</linearGradient>
			<path class="st25" d="M28.9,128c1.1,3.4,10.3,7.3,9.3-5c-0.4-5.5-1.6-35.6-1.8-38.5s-0.7-7.2-2.2-7.7c-7.3-2.7-14.4,6-12.4,16.9
				C23.1,101,26.7,121,28.9,128z"/>
			<ellipse transform="matrix(0.3782 -0.9257 0.9257 0.3782 2.2453 33.4425)" class="st15" cx="26" cy="15" rx="3.1" ry="1.6"/>
			<ellipse transform="matrix(0.9258 -0.378 0.378 0.9258 -4.8629 5.3948)" class="st15" cx="11.3" cy="15.1" rx="1.6" ry="3"/>
			<path class="st15" d="M20.7,62.4c1.2-0.6,10.5-4.8,10.6-2.6c0.1,2.5-3.3,5-4.5,5.7c-2.2,1.3-5,0.8-6-0.4
				C20,64.3,19.6,63,20.7,62.4z"/>
			<path class="st15" d="M22.1,60.7c0.6-0.2,3.9-1.5,4.2-0.9c0.4,0.9-1.7,1.9-3.1,2.5c-0.8,0.3-2,0.3-2.2-0.3S21.2,61.1,22.1,60.7z"
				/>
			
				<linearGradient id="SVGID_21_" gradientUnits="userSpaceOnUse" x1="-4448.165" y1="642.9048" x2="-4409.7646" y2="672.4749" gradientTransform="matrix(-1 0 0 1 -4416.1929 -646)">
				<stop  offset="0" style="stop-color:#0000FF"/>
				<stop  offset="1" style="stop-color:#9E005D"/>
			</linearGradient>
			<path class="st26" d="M12.5,6.5c1.8,2.6,10.2,2.9,13,1.9s2.6-6.3-1.4-6.7c-2.2,0-0.6,0.5-2.4,1.3C20.8,3.4,10.7,3.7,12.5,6.5z"/>
			
				<linearGradient id="SVGID_22_" gradientUnits="userSpaceOnUse" x1="-4463.249" y1="745.5654" x2="-4403.9189" y2="677.8254" gradientTransform="matrix(-1 0 0 1 -4416.1929 -646)">
				<stop  offset="0" style="stop-color:#36078B"/>
				<stop  offset="1" style="stop-color:#16B1FF"/>
			</linearGradient>
			<path class="st27" d="M24.5,62.9c-2.1-0.6-12.9-8.4-16.4-9.5c-4.1-1.2-8.7,4.4-6,6.1C6.4,62.1,8,63,15.4,64.6
				c5.1,1.1,6.9,1.8,9,1.1C26.2,65.1,26,63.3,24.5,62.9z"/>
			
				<linearGradient id="SVGID_23_" gradientUnits="userSpaceOnUse" x1="-4466.7866" y1="742.4759" x2="-4407.4565" y2="674.7359" gradientTransform="matrix(-1 0 0 1 -4416.1929 -646)">
				<stop  offset="0" style="stop-color:#36078B"/>
				<stop  offset="1" style="stop-color:#16B1FF"/>
			</linearGradient>
			<path class="st28" d="M8.6,56.1c0-2.3,2-9.4,3.8-18.7c0.3-1.7-1.6-5.3-3.8-6.9c-1.4-1-4.6-0.2-5.4,2.9c-0.9,3.3-1.5,6.6-1.8,10
				c-1.1,9.5-0.5,13.4,0,15.1C2,60.4,8.6,59.5,8.6,56.1z"/>
			<rect x="76.2" y="146.9" class="st0" width="38.1" height="2.8"/>
			<rect x="76.2" y="154.3" class="st0" width="19.2" height="4.1"/>
			<rect x="101.1" y="154.3" class="st0" width="19.8" height="4.1"/>
			<rect x="76.2" y="162.3" class="st0" width="30.5" height="3"/>
			<rect x="76.2" y="169.7" class="st0" width="34.4" height="1.6"/>
		</g>
	</g>
</g>
</svg>
