<?xml version="1.0" encoding="utf-8"?>
<!-- Generator: Adobe Illustrator 21.0.0, SVG Export Plug-In . SVG Version: 6.00 Build 0)  -->
<svg version="1.1" id="Слой_1" xmlns="http://www.w3.org/2000/svg" xmlns:xlink="http://www.w3.org/1999/xlink" x="0px" y="0px"
	 viewBox="0 0 180 195.9" style="enable-background:new 0 0 180 195.9;" xml:space="preserve">
<style type="text/css">
	.st0{fill:none;stroke:#0037FF;stroke-linecap:round;stroke-linejoin:round;}
	.st1{opacity:0.4;fill:none;stroke:#0037FF;stroke-linecap:round;stroke-linejoin:round;enable-background:new    ;}
	.st2{opacity:0.5;fill:none;stroke:#0037FF;stroke-linecap:round;stroke-linejoin:round;enable-background:new    ;}
	.st3{opacity:0.6;}
	.st4{fill:url(#SVGID_1_);}
	.st5{fill:url(#SVGID_2_);}
	.st6{fill:#4E11F4;}
	.st7{fill:#FFAF84;}
	.st8{fill:url(#SVGID_3_);}
	.st9{fill:url(#SVGID_4_);}
	.st10{fill:url(#SVGID_5_);}
	.st11{fill:url(#SVGID_6_);}
	.st12{fill:url(#SVGID_7_);}
	.st13{fill:url(#SVGID_8_);}
	.st14{fill:url(#SVGID_9_);}
	.st15{fill:url(#SVGID_10_);}
	.st16{fill:url(#SVGID_11_);}
	.st17{fill:url(#SVGID_12_);}
	.st18{fill:#FFFFFF;}
	.st19{fill:#5353C6;}
	.st20{fill:url(#SVGID_13_);}
	.st21{fill:url(#SVGID_14_);}
	.st22{fill:url(#SVGID_15_);}
	.st23{fill:#ED9169;}
	.st24{fill:url(#SVGID_16_);}
	.st25{fill:url(#SVGID_17_);}
	.st26{fill:url(#SVGID_18_);}
	.st27{fill:url(#SVGID_19_);}
	.st28{fill:url(#SVGID_20_);}
	.st29{fill:url(#SVGID_21_);}
	.st30{fill:url(#SVGID_22_);}
	.st31{fill:url(#SVGID_23_);}
	.st32{fill:url(#SVGID_24_);}
	.st33{fill:url(#SVGID_25_);}
</style>
<title>fs-blok3</title>
<g>
	<g id="Слой_2">
		<g id="Objects">
			<polygon class="st0" points="155.9,26.4 155.9,133.1 6.6,133.1 6.6,35.9 			"/>
			<polygon class="st1" points="14.4,47.2 46.2,46.7 46.2,16.8 14.4,17.9 			"/>
			<polygon class="st2" points="53.1,47.7 71.6,47.4 71.6,29.9 53.1,30.6 			"/>
			<polygon class="st2" points="65.3,35.8 83.9,35.5 83.9,18 65.3,18.7 			"/>
			<polygon class="st2" points="133.2,69.4 151.8,69.1 151.8,51.7 133.2,52.3 			"/>
			<polygon class="st2" points="133.9,91.3 152.5,91 152.5,73.5 133.9,74.1 			"/>
			<polygon class="st2" points="134.4,114.7 152.9,114.5 152.9,97 134.4,97.6 			"/>
			<polygon class="st2" points="155.4,131.2 7.2,131.8 7.2,35.8 155.4,25.9 			"/>
			<g class="st3">
				<polygon class="st0" points="121.3,40.7 149.5,39.4 149.5,37.7 121.3,39 				"/>
				<polygon class="st0" points="121.3,43.7 149.5,42.4 149.5,40.7 121.3,42 				"/>
				<polygon class="st0" points="136.9,46 149.5,45.4 149.5,43.7 136.9,44.3 				"/>
			</g>
			<path class="st2" d="M62.5,69.7c0,0-12-16.9,6.5-12.6s28.5,0.5,32.3-4.1s7.5-15.8,12.8-8.9s7.4,16.7,8.2,23.2s-9.5,12.3-6.8,26.5
				s9.9,23.3,3.3,25.3s-9.6,9.8-14.6-0.8s-8.5-8.7-13.6-7.3s-13-9.6-15.3-6.1s-11.8,3.7-10.7-4.7c0.7-6.4,2.1-12.8,4.2-18.9
				C70.6,75.1,62.5,69.7,62.5,69.7z"/>
			
				<linearGradient id="SVGID_1_" gradientUnits="userSpaceOnUse" x1="157.129" y1="691.042" x2="175.319" y2="710.172" gradientTransform="matrix(1 0 0 1 0 -607.28)">
				<stop  offset="0" style="stop-color:#36078B"/>
				<stop  offset="1" style="stop-color:#16B1FF"/>
			</linearGradient>
			<path class="st4" d="M150.9,92.4c2,0.6,3.6,0,8.3-1c6.8-1.5,8.3-2.3,12.2-4.7c2.5-1.6-1.7-6.8-5.5-5.6c-3.2,1-13.1,8.2-15.1,8.8
				C149.5,90.2,149.3,91.8,150.9,92.4z"/>
			
				<linearGradient id="SVGID_2_" gradientUnits="userSpaceOnUse" x1="168.1602" y1="680.5502" x2="186.3503" y2="699.6902" gradientTransform="matrix(1 0 0 1 0 -607.28)">
				<stop  offset="0" style="stop-color:#36078B"/>
				<stop  offset="1" style="stop-color:#16B1FF"/>
			</linearGradient>
			<path class="st5" d="M172.1,85.6c0.5-1.5,1-5.1,0-13.9c-0.3-3.1-0.9-6.2-1.7-9.2c-0.7-2.9-3.7-3.6-5-2.7c-2,1.5-3.8,4.8-3.5,6.3
				c1.6,8.6,3.5,15.1,3.5,17.3C165.5,86.6,171.5,87.5,172.1,85.6z"/>
			<path class="st6" d="M168,187.1c-0.2,0.7-0.3,1.5-0.4,2.3c-0.1,0.9-1,1.3-1.5,2s-1.4,2,2,2.1c3.7,0.1,5.8,0,5.2-2
				c-0.4-1.1-0.7-2.3-0.7-3.5c0.1-0.6,0-1.2-0.4-1.7C171.8,185.8,168.5,185.1,168,187.1z"/>
			<path class="st7" d="M123.8,74.4c-1.2-0.6-10.8-5-10.9-2.7c-0.1,2.5,3.3,5.1,4.6,5.8c2.3,1.3,5.1,0.8,6.2-0.4
				C124.5,76.3,125,75,123.8,74.4z"/>
			<path class="st7" d="M123.5,73.7c-0.4-0.5-2.6-3.4-3.2-3c-0.9,0.6,0.5,2.6,1.4,3.9c0.5,0.7,1.6,1.3,2.1,0.9
				S124.1,74.5,123.5,73.7z"/>
			<path class="st6" d="M139.8,188.8c-0.9,1.2-2.2,2.1-3.6,2.6c-1.9,0.8-5.9,1.2-3.7,1.9c2,0.5,4.1,0.5,6.2,0.1
				c1.4-0.2,2.8-0.3,4.2-0.2c2.1,0,2.1-0.1,1.8-2.4C144.3,187.7,140.7,187,139.8,188.8z"/>
			<path class="st7" d="M163.1,46c-0.4,4.2-0.5,5.1-2.4,6.8s-4.7,2-6.6,2c-2.1,0-3.5-2.6-4-4.3c-0.8-3.2-0.9-6.5-0.4-9.8
				c0.7-2.9,3.2-4.9,6.1-5.1C158.8,35.5,164.2,35.8,163.1,46z"/>
			
				<linearGradient id="SVGID_3_" gradientUnits="userSpaceOnUse" x1="-3958.7244" y1="-4812.2505" x2="-3958.7244" y2="-4770.1904" gradientTransform="matrix(0.58 0.81 -0.81 0.58 -1452.3496 6064.4326)">
				<stop  offset="0" style="stop-color:#36078B"/>
				<stop  offset="1" style="stop-color:#16B1FF"/>
			</linearGradient>
			<path class="st8" d="M121.5,77.1c1.3,1.6,2.4,2.5,7,3.9c6.3,1.9,9.9,2.5,13.1,2.7c2.9,0.2,2.5-6.8-1.4-8
				c-3.2-0.9-15.5-0.3-17.4-0.8C121.5,74.5,120.5,75.8,121.5,77.1z"/>
			
				<linearGradient id="SVGID_4_" gradientUnits="userSpaceOnUse" x1="145.1099" y1="654.55" x2="145.1099" y2="696.61" gradientTransform="matrix(1 0 0 1 0 -607.28)">
				<stop  offset="0" style="stop-color:#36078B"/>
				<stop  offset="1" style="stop-color:#16B1FF"/>
			</linearGradient>
			<path class="st9" d="M141.9,81.9c1.2-1,3.6-3.8,7.5-11.7c1.4-2.8,2.6-5.7,3.5-8.6c0.9-2.8-1.2-5-2.7-4.9c-2.5,0.1-5.8,2-6.4,3.5
				c-3.2,8.1-5.2,14.6-6.4,16.4C135.9,79.2,140.5,83.1,141.9,81.9z"/>
			<path class="st7" d="M161,53.4c0.1,1.4,0.2,3.1,0.3,4.6c0,2-1.5,3.7-3.5,4h-0.2c-1.8,0-3.9-1.6-3.8-3.4c0.1-1.2,0.1-2.3,0.1-3.4
				c0-2,1.3-3.7,3.1-4.4l0,0c1.5-0.5,3.2,0.3,3.8,1.8C161,52.8,161,53.1,161,53.4z"/>
			
				<linearGradient id="SVGID_5_" gradientUnits="userSpaceOnUse" x1="155.3665" y1="654.55" x2="155.3665" y2="696.61" gradientTransform="matrix(1 0 0 1 0 -607.28)">
				<stop  offset="0" style="stop-color:#36078B"/>
				<stop  offset="1" style="stop-color:#16B1FF"/>
			</linearGradient>
			<path class="st10" d="M169.4,71.1c-3.3,11-4.4,22.5-3.8,30.1h-25.2c0,0,0.1-23.6,1.8-36.5c0.4-3.2,2.4-6,5.4-7.4
				c2.1-0.9,4.4-1.4,6.7-1.5h4.6c1.7,0,3.3,0.2,4.9,0.6C170.7,58.6,171.3,64.7,169.4,71.1z"/>
			
				<linearGradient id="SVGID_6_" gradientUnits="userSpaceOnUse" x1="104.8949" y1="806.4373" x2="173.5349" y2="677.5173" gradientTransform="matrix(1 0 0 1 0 -607.28)">
				<stop  offset="0" style="stop-color:#F70F47"/>
				<stop  offset="1" style="stop-color:#FFB41D"/>
			</linearGradient>
			<path class="st11" d="M165.5,116.6c0,0,2.2-5.3,0.1-15.4h-25.2c-0.6,5.1-0.9,10.3-0.9,15.4H165.5z"/>
			
				<linearGradient id="SVGID_7_" gradientUnits="userSpaceOnUse" x1="139.3994" y1="824.8044" x2="208.0394" y2="695.8844" gradientTransform="matrix(1 0 0 1 0 -607.28)">
				<stop  offset="0" style="stop-color:#F70F47"/>
				<stop  offset="1" style="stop-color:#FFB41D"/>
			</linearGradient>
			<path class="st12" d="M160.5,149.6c-2-8.2,6.4-9.6,9-3.7c3.7,8.4,3.4,35.2,3.2,40.5c0,0.7,0.1,1.6-0.3,1.8
				c-0.8,0.4-1.8,0.5-2.7,0.4c-0.9,0-1.9,0-2-1.2C167.2,179.6,162.5,157.5,160.5,149.6z"/>
			
				<linearGradient id="SVGID_8_" gradientUnits="userSpaceOnUse" x1="119.9651" y1="814.458" x2="188.6151" y2="685.538" gradientTransform="matrix(1 0 0 1 0 -607.28)">
				<stop  offset="0" style="stop-color:#F70F47"/>
				<stop  offset="1" style="stop-color:#FFB41D"/>
			</linearGradient>
			<path class="st13" d="M153,117.7c-0.9-10.2,3.1-18.1,9.5-14.7c2.7,1.4,3.6,4.2,4,6.9s2.3,30.4,3,35.4c1.5,11.3-7.4,8.2-8.3,5.1
				C158.7,142.5,153.5,123.3,153,117.7z"/>
			
				<linearGradient id="SVGID_9_" gradientUnits="userSpaceOnUse" x1="120.6124" y1="814.7952" x2="189.2523" y2="685.8853" gradientTransform="matrix(1 0 0 1 0 -607.28)">
				<stop  offset="0" style="stop-color:#F70F47"/>
				<stop  offset="1" style="stop-color:#FFB41D"/>
			</linearGradient>
			<path class="st14" d="M144.6,190.5c0.3-12,5.4-33,2.5-42.8c-1.9-6.2-9.3-6.4-9,1.3c0.4,8.2,2.8,24,2,39.8
				C140,190.4,144.6,191.9,144.6,190.5z"/>
			
				<linearGradient id="SVGID_10_" gradientUnits="userSpaceOnUse" x1="105.2608" y1="806.631" x2="173.9008" y2="677.711" gradientTransform="matrix(1 0 0 1 0 -607.28)">
				<stop  offset="0" style="stop-color:#F70F47"/>
				<stop  offset="1" style="stop-color:#FFB41D"/>
			</linearGradient>
			<path class="st15" d="M146.8,149.9c-1,3.1-9.5,6.7-8.6-4.6c0.4-5,1.4-32.8,1.6-35.5s0.7-6.6,2-7.1c6.7-2.4,13.2,5.6,11.5,15.6
				C152.1,125,148.8,143.4,146.8,149.9z"/>
			
				<ellipse transform="matrix(0.9257 -0.3782 0.3782 0.9257 -6.1685 59.9359)" class="st7" cx="149.5" cy="45.7" rx="1.5" ry="2.8"/>
			<ellipse transform="matrix(0.378 -0.9258 0.9258 0.378 59.1123 179.2545)" class="st7" cx="163" cy="45.6" rx="2.8" ry="1.5"/>
			
				<linearGradient id="SVGID_11_" gradientUnits="userSpaceOnUse" x1="143.9047" y1="636.2168" x2="179.3347" y2="663.4968" gradientTransform="matrix(1 0 0 1 0 -607.28)">
				<stop  offset="0" style="stop-color:#0000FF"/>
				<stop  offset="1" style="stop-color:#9E005D"/>
			</linearGradient>
			<path class="st16" d="M161.9,37.8c-1.6,2.4-9.5,2.7-12,1.8s-2.4-5.8,1.3-6.2c2.1,0,0.6,0.5,2.2,1.2
				C154.2,34.9,163.6,35.2,161.9,37.8z"/>
			
				<linearGradient id="SVGID_12_" gradientUnits="userSpaceOnUse" x1="141.8545" y1="638.8841" x2="177.2845" y2="666.1541" gradientTransform="matrix(1 0 0 1 0 -607.28)">
				<stop  offset="0" style="stop-color:#0000FF"/>
				<stop  offset="1" style="stop-color:#9E005D"/>
			</linearGradient>
			<path class="st17" d="M153.1,37.4c-2.4,1.5-3,2.7-2.9,5.7s1.3,8.1,6.8,9.2s6.8-4.3,7.1-8.1s0.1-6.6-2.7-7.3
				C157.3,36,154.5,36.5,153.1,37.4z"/>
			<path class="st18" d="M69.2,57.4c-0.8,0.2-1.7-0.2-2.1-1c-0.3-0.5-0.3-1.1,0.1-1.5c0.9-1.1,2.2-2.4,2-3.3s-0.2-0.9-0.2-1
				s2,2,2,3.3C71,56.4,70.1,57.2,69.2,57.4z"/>
			<path class="st19" d="M70.9,55c0.1-0.4,0.1-0.8,0.1-1.2c0-1.3-2-3.3-2-3.3s0,0,0,0.1l0,0c0,0.1,0.1,0.3,0.2,0.9
				c0.2,0.9-1,2.1-1.9,3.2c0.1,0.1,0.3,0.2,0.5,0.2c0.4-0.1,0.7-0.5,1.1-0.3s0,1.2,0.4,1.5c0.3,0.2,0.7,0,0.9-0.3S70.5,55.1,70.9,55
				L70.9,55z"/>
			
				<linearGradient id="SVGID_13_" gradientUnits="userSpaceOnUse" x1="28.3946" y1="636.6375" x2="19.2546" y2="678.6875" gradientTransform="matrix(1 0 0 1 0 -607.28)">
				<stop  offset="0" style="stop-color:#2C27CE"/>
				<stop  offset="1" style="stop-color:#EF1D68"/>
			</linearGradient>
			<path class="st20" d="M17.5,43.9c-3.8,2.9-5.8,7.7-5,12.4c0.7,4.4,0.3,8.9-1,13.1c-1,3-4.3,13,7.5,12.7s12.5-14,11.1-21
				s1.1-12-0.7-14.2S23.6,39.4,17.5,43.9z"/>
			<path class="st7" d="M61.9,69.6c2.4-1.7,4.9-3.6,5.4-1.7s0.5,1.8-1.2,3.3S59.9,71,61.9,69.6z"/>
			
				<linearGradient id="SVGID_14_" gradientUnits="userSpaceOnUse" x1="35.3472" y1="679.2582" x2="58.3472" y2="681.5182" gradientTransform="matrix(1 0 0 1 0 -607.28)">
				<stop  offset="0" style="stop-color:#36078B"/>
				<stop  offset="1" style="stop-color:#16B1FF"/>
			</linearGradient>
			<path class="st21" d="M61.9,69.2C60.4,69.9,50,72,45.8,73.3h-0.1c-2.1-0.6-7.9-3.4-15.7-6.8c-2.3-0.7-4.8-0.6-7,0.4
				c-1.4,0.7-1.8,3.1,0.7,4.4c2.7,1.4,5.5,2.6,8.4,3.6c7.1,2.6,10.8,3.4,12.8,3.5c0.4,0.1,0.9,0.1,1.3,0c4-0.8,7.8-2.2,11.3-4.3
				c3.7-1.9,5.1-1.3,5.7-2.5C63.8,70.6,63,68.7,61.9,69.2z"/>
			
				<linearGradient id="SVGID_15_" gradientUnits="userSpaceOnUse" x1="13.3869" y1="798.8719" x2="13.9469" y2="782.0719" gradientTransform="matrix(1 0 0 1 0 -607.28)">
				<stop  offset="0" style="stop-color:#2C27CE"/>
				<stop  offset="0.65" style="stop-color:#EF1D68"/>
				<stop  offset="1" style="stop-color:#EFBA92"/>
			</linearGradient>
			<path class="st22" d="M14.6,189.8c0.2,0.7,0.2,1.4,0.3,2.1c0.1,0.9,0.9,1.2,1.4,1.9c0.5,0.7,1.3,2-1.8,2.1
				c-3.3,0.1-5.2-0.2-4.6-2c0.4-1,0.6-2.1,0.6-3.3c-0.1-0.6,0-1.1,0.4-1.6C11.2,188.6,14.1,188,14.6,189.8z"/>
			<path class="st23" d="M20.6,58.3c0,0.2-0.4,5.4-0.5,9.4c0,1.9,1.4,3.8,2.8,3.8H23c1.4,0,3-1.7,2.9-3.6c-0.2-3.5-0.1-7,0-7
				L20.6,58.3z"/>
			
				<linearGradient id="SVGID_16_" gradientUnits="userSpaceOnUse" x1="21.2577" y1="674.5116" x2="30.0477" y2="713.7516" gradientTransform="matrix(1 0 0 1 0 -607.28)">
				<stop  offset="0" style="stop-color:#36078B"/>
				<stop  offset="1" style="stop-color:#16B1FF"/>
			</linearGradient>
			<path class="st24" d="M16.6,80.6c1.1,3.5,2,7.2,2.5,10.9c0.4,2.7,0.4,5.5,0,8.2c-0.2,1.6-0.5,3.3-0.9,4.9c-0.1,0.6-1.3,5.5-1.4,6
				h22.3c-0.2-4.4-5.2-18.2-1.8-27.1c2.3-6.2-0.8-6.4-2.9-11.5c-0.4-1.3-1-2.5-1.8-3.7c-0.9-1-2.1-1.8-3.4-2.1
				c-0.7-0.2-1.4-0.3-2.1-0.3c-3.8-0.3-12.7-1.4-13.6,4c-0.2,1.5,0,3,0.4,4.4c0.5,1.6,1.3,3.1,1.9,4.6C16.1,79.4,16.4,80,16.6,80.6z
				"/>
			
				<linearGradient id="SVGID_17_" gradientUnits="userSpaceOnUse" x1="28.0878" y1="744.27" x2="29.2878" y2="851.9" gradientTransform="matrix(1 0 0 1 0 -607.28)">
				<stop  offset="0" style="stop-color:#F70F47"/>
				<stop  offset="1" style="stop-color:#9E005D"/>
			</linearGradient>
			<path class="st25" d="M16.8,124.8c0,0-1.9-4.9-0.1-14.2h22.4c0.5,4.7,0.8,9.5,0.8,14.2H16.8z"/>
			
				<linearGradient id="SVGID_18_" gradientUnits="userSpaceOnUse" x1="15.4895" y1="744.4105" x2="16.6895" y2="852.0505" gradientTransform="matrix(1 0 0 1 0 -607.28)">
				<stop  offset="0" style="stop-color:#F70F47"/>
				<stop  offset="1" style="stop-color:#9E005D"/>
			</linearGradient>
			<path class="st26" d="M21.2,155.2c1.8-7.6-5.7-8.9-8-3.4c-3.3,7.7-3.1,32.5-2.9,37.4c0,0.6,0.4,0.5,0.7,0.4
				c0.7-0.3,1.6-0.5,2.4-0.4c0.5,0.2,1,0.5,1.3,1C15.4,183.4,19.5,162.5,21.2,155.2z"/>
			
				<linearGradient id="SVGID_19_" gradientUnits="userSpaceOnUse" x1="20.5097" y1="744.3506" x2="21.7197" y2="851.9906" gradientTransform="matrix(1 0 0 1 0 -607.28)">
				<stop  offset="0" style="stop-color:#F70F47"/>
				<stop  offset="1" style="stop-color:#9E005D"/>
			</linearGradient>
			<path class="st27" d="M27.9,125.8c0.8-9.4-2.8-16.7-8.4-13.6c-2.4,1.3-3.2,3.9-3.6,6.4s-2.1,28-2.7,32.6
				c-1.4,10.4,6.6,7.6,7.4,4.7C22.9,148.7,27.5,130.9,27.9,125.8z"/>
			
				<linearGradient id="SVGID_20_" gradientUnits="userSpaceOnUse" x1="36.5687" y1="744.1795" x2="37.7787" y2="851.8095" gradientTransform="matrix(1 0 0 1 0 -607.28)">
				<stop  offset="0" style="stop-color:#F70F47"/>
				<stop  offset="1" style="stop-color:#9E005D"/>
			</linearGradient>
			<path class="st28" d="M41.2,154.7c0.3-7.1-6.3-6.9-8-1.2c-2.6,9,1.9,28.4,2.2,39.5c1.1-1.9,2.2-2.4,2.8-2.3
				c0.5,0.1,1,0.3,1.3,0.7C39.2,176.8,40.8,162.2,41.2,154.7z"/>
			
				<linearGradient id="SVGID_21_" gradientUnits="userSpaceOnUse" x1="34.2279" y1="744.2002" x2="35.4279" y2="851.8403" gradientTransform="matrix(1 0 0 1 0 -607.28)">
				<stop  offset="0" style="stop-color:#F70F47"/>
				<stop  offset="1" style="stop-color:#9E005D"/>
			</linearGradient>
			<path class="st29" d="M33.4,155.5c0.9,2.9,8.4,6.2,7.7-4.3c-0.4-4.6-1.3-30.3-1.5-32.8s-0.6-6.1-1.8-6.5
				c-6-2.3-11.8,5.1-10.2,14.4C28.7,132.5,31.6,149.5,33.4,155.5z"/>
			<path class="st7" d="M63.7,68c0-1.2,0.2-2.3,0.8-3.4c0.5-0.6,0.1,1.5,0.1,2.5S63.7,69,63.7,68z"/>
			<path class="st7" d="M17.6,100c2.7-0.6,4.1-1.5,5.4-0.8s-0.6,3.1-1.5,3.5s-4.2,2.1-5.2,1.2c-0.8-1.1-0.7-2.6,0.4-3.4
				C16.9,100.2,17.3,100,17.6,100z"/>
			
				<linearGradient id="SVGID_22_" gradientUnits="userSpaceOnUse" x1="14.4581" y1="678.7593" x2="9.9481" y2="706.9493" gradientTransform="matrix(1 0 0 1 0 -607.28)">
				<stop  offset="0" style="stop-color:#36078B"/>
				<stop  offset="1" style="stop-color:#16B1FF"/>
			</linearGradient>
			<path class="st30" d="M8.5,88c1.6-2.4,5-7,9.3-12.9c1.2-2.1,1.5-4.5,1-6.9c-0.4-1.5-2.6-2.4-4.4-0.2c-1.9,2.3-3.7,4.8-5.3,7.4
				c-4.6,7.4-5.9,11-6.3,12.6c-0.1,0.7,0.2,1.4,0.8,1.7c0.1,0.1,0.1,0.2,0.2,0.3c2.3,3.3,5.2,6.2,8.4,8.6c3.3,2.6,3.3,4.2,4.6,4.3
				c1.1,0.1,2.5-1.4,1.6-2.2C17.1,99.7,11.5,91.6,8.5,88z"/>
			<path class="st7" d="M17.1,55.3c1.1,4.3,1.4,5.2,3.6,6.7c2.1,1.3,4.6,1.9,7.1,1.5c2.2-0.4,3.5-3,3.7-4.9
				c0.2-3.8-0.2-7.6-1.3-11.3C29.6,45,26.1,42.5,23,43S14.4,44.8,17.1,55.3z"/>
			
				<linearGradient id="SVGID_23_" gradientUnits="userSpaceOnUse" x1="41.1075" y1="799.8022" x2="41.6675" y2="783.0023" gradientTransform="matrix(1 0 0 1 0 -607.28)">
				<stop  offset="0" style="stop-color:#2C27CE"/>
				<stop  offset="0.65" style="stop-color:#EF1D68"/>
				<stop  offset="1" style="stop-color:#EFBA92"/>
			</linearGradient>
			<path class="st31" d="M39.7,191.4c0.8,1.1,1.9,1.9,3.2,2.4c1.7,0.8,5.3,1.1,3.3,1.8c-1.8,0.4-3.7,0.5-5.5,0.1
				c-1.2-0.2-2.5-0.2-3.7-0.2c-1.8,0-1.9-0.1-1.6-2.2C35.7,190.4,38.8,189.8,39.7,191.4z"/>
			
				<linearGradient id="SVGID_24_" gradientUnits="userSpaceOnUse" x1="134.4879" y1="1823.043" x2="125.3479" y2="1865.0929" gradientTransform="matrix(0.9873 -0.159 0.159 0.9873 -399.5536 -1749.6224)">
				<stop  offset="0" style="stop-color:#2C27CE"/>
				<stop  offset="1" style="stop-color:#EF1D68"/>
			</linearGradient>
			<path class="st32" d="M29.2,45.2c2.2,2.6-9.4,10-12.2,10s-3.1-5.4-1.3-8.4S24,39,29.2,45.2z"/>
			
				<linearGradient id="SVGID_25_" gradientUnits="userSpaceOnUse" x1="139.8656" y1="1824.2145" x2="130.7356" y2="1866.2646" gradientTransform="matrix(0.9873 -0.159 0.159 0.9873 -399.5536 -1749.6224)">
				<stop  offset="0" style="stop-color:#2C27CE"/>
				<stop  offset="1" style="stop-color:#EF1D68"/>
			</linearGradient>
			<path class="st33" d="M24.5,45.2c0.8,2.4,5.3,2.3,6.3,4.2c0.7,1.2,0.2-2.8-1.1-4.5S22.8,40.4,24.5,45.2z"/>
			<ellipse transform="matrix(0.9257 -0.3782 0.3782 0.9257 -19.5482 10.8299)" class="st7" cx="17.8" cy="55.2" rx="1.6" ry="3"/>
			<path class="st19" d="M64.9,82.5c0,0.2-0.2,0.4-0.4,0.3c-0.2,0-0.4-0.2-0.3-0.4c0.1-6.1,0.6-21.6,1.2-23.5
				c0.3-0.8,0.8-1.5,1.6-1.9l1.1,0.3c0.4,0.8,0.5,1.6,0.4,2.4C68.3,60.7,66,76.7,64.9,82.5z"/>
			<path class="st7" d="M67.4,66.9c0,0.1,0.2,2.1,0.2,2.1s0.2,0.7-0.3,1.1s-0.9,1.1-1.1,1c-0.4-0.7-0.6-1.4-0.7-2.2
				c0,0-0.2-1.4,0.1-1.7S67.3,66.5,67.4,66.9z"/>
			<path class="st0" d="M168.6,15.5h5.5c0.4-0.1,0.5-0.5,0.5-1.1c0-0.3,0-0.7,0.1-1c0.4-1.2,0.9-2.3,1.6-3.3l0,0l0.3-0.4
				c1.7-2.9,0.7-6.5-2.2-8.2s-6.5-0.7-8.2,2.2c-1.1,1.9-1.1,4.2,0,6l0.3,0.4l0,0c0.7,1,1.2,2.1,1.6,3.3c0.1,0.3,0.1,0.7,0.1,1
				C168,15,168,15.4,168.6,15.5L168.6,15.5z"/>
			<path class="st0" d="M170.5,15.6c0,0.1-0.1,0.1-0.1,0.1l-0.1-0.1v-4c0,0,0-0.1,0-0.2l-0.3-0.1c-0.3-0.1-0.5-0.2-0.8-0.4
				c-0.2-0.1-0.3-0.3-0.3-0.5c0-0.1,0-0.1,0-0.2c0-0.2,0.2-0.3,0.3-0.3s0.2,0,0.4,0c0.1,0,0.3,0.1,0.4,0.2c0.3,0.3,0.4,0.7,0.5,1.1
				c0.5,0.1,1.1,0.1,1.6,0c0-0.4,0.2-0.8,0.5-1.1c0.1-0.1,0.2-0.2,0.4-0.2c0.1,0,0.2,0,0.4,0c0.2,0.1,0.3,0.2,0.4,0.4
				c0,0.1,0,0.1,0,0.2c0,0.2-0.1,0.4-0.3,0.5c-0.2,0.2-0.5,0.3-0.8,0.4l-0.3,0.1c0,0,0,0.1,0,0.2v4c0,0.1-0.1,0.1-0.1,0.1l-0.1-0.1
				v-4v-0.1c-0.5,0.1-1.1,0.1-1.6,0v0.1L170.5,15.6L170.5,15.6z M172.7,10.4c-0.2,0.2-0.3,0.5-0.4,0.8h0.1c0.2-0.1,0.5-0.2,0.7-0.3
				c0.1-0.1,0.2-0.2,0.2-0.3v-0.1c0-0.1-0.1-0.1-0.2-0.2c-0.1,0-0.1,0-0.2,0C172.9,10.3,172.8,10.3,172.7,10.4L172.7,10.4z
				 M170.2,11.2c0-0.3-0.2-0.6-0.4-0.8c-0.1-0.1-0.2-0.1-0.3-0.2c-0.1,0-0.1,0-0.2,0c-0.1,0-0.1,0.1-0.2,0.2v0.1
				c0,0.1,0.1,0.3,0.2,0.3c0.2,0.2,0.4,0.3,0.7,0.3L170.2,11.2z"/>
			<path class="st0" d="M172.5,18.7c-0.1,0.7-0.8,1.2-1.5,1c-0.5-0.1-0.9-0.5-1-1c0-0.6,0.7-0.6,0.7-0.6L172.5,18.7z"/>
			<path class="st0" d="M168.6,15.5h5.3c0.4,0,0.6,0.3,0.6,0.7c0,0.3-0.2,0.5-0.5,0.6c0.2,0.3,0.2,0.7-0.1,0.9
				c-0.1,0.1-0.3,0.1-0.4,0.1h-0.1c0.2,0.3,0.1,0.7-0.2,0.9c-0.1,0.1-0.2,0.1-0.3,0.1h-3.4c-0.4,0-0.6-0.3-0.6-0.7
				c0-0.1,0-0.2,0.1-0.3h0c-0.4,0-0.7-0.3-0.7-0.6c0-0.2,0.1-0.3,0.1-0.4c-0.4-0.1-0.6-0.4-0.5-0.8C168,15.7,168.3,15.5,168.6,15.5z
				"/>
		</g>
	</g>
</g>
</svg>
