<?xml version="1.0" encoding="utf-8"?>
<!-- Generator: Adobe Illustrator 21.0.0, SVG Export Plug-In . SVG Version: 6.00 Build 0)  -->
<svg version="1.1" id="Слой_1" xmlns="http://www.w3.org/2000/svg" xmlns:xlink="http://www.w3.org/1999/xlink" x="0px" y="0px"
	 viewBox="0 0 271.7 189.1" style="enable-background:new 0 0 271.7 189.1;" xml:space="preserve">
<style type="text/css">
	.st0{opacity:0.1;fill:none;stroke:#0037FF;stroke-linecap:round;stroke-linejoin:round;enable-background:new    ;}
	.st1{fill:none;stroke:#0037FF;stroke-linecap:round;stroke-linejoin:round;}
	.st2{opacity:0.2;}
	.st3{opacity:0.2;fill:none;stroke:#0037FF;stroke-linecap:round;stroke-linejoin:round;enable-background:new    ;}
	.st4{fill:url(#SVGID_1_);}
	.st5{fill:url(#SVGID_2_);}
	.st6{fill:url(#SVGID_3_);}
	.st7{fill:#EA8F68;}
	.st8{fill:url(#SVGID_4_);}
	.st9{fill:url(#SVGID_5_);}
	.st10{fill:url(#SVGID_6_);}
	.st11{fill:url(#SVGID_7_);}
	.st12{fill:url(#SVGID_8_);}
	.st13{fill:url(#SVGID_9_);}
	.st14{fill:url(#SVGID_10_);}
	.st15{fill:url(#SVGID_11_);}
	.st16{fill:#FFAF84;}
	.st17{fill:url(#SVGID_12_);}
	.st18{fill:url(#SVGID_13_);}
	.st19{fill:url(#SVGID_14_);}
	.st20{fill:url(#SVGID_15_);}
	.st21{fill:url(#SVGID_16_);}
	.st22{fill:url(#SVGID_17_);}
	.st23{fill:url(#SVGID_18_);}
	.st24{fill:url(#SVGID_19_);}
	.st25{fill:url(#SVGID_20_);}
	.st26{fill:url(#SVGID_21_);}
	.st27{fill:url(#SVGID_22_);}
	.st28{fill:url(#SVGID_23_);}
	.st29{fill:url(#SVGID_24_);}
	.st30{opacity:0.3;fill:url(#SVGID_25_);enable-background:new    ;}
	.st31{opacity:0.3;fill:url(#SVGID_26_);enable-background:new    ;}
	.st32{fill:url(#SVGID_27_);}
	.st33{fill:url(#SVGID_28_);}
	.st34{opacity:0.3;fill:url(#SVGID_29_);enable-background:new    ;}
	.st35{fill:url(#SVGID_30_);}
</style>
<title>fs-blok2</title>
<g>
	<g id="Слой_2">
		<g id="Objects">
			<ellipse class="st0" cx="95" cy="178.2" rx="46.4" ry="10.4"/>
			<path class="st1" d="M138.6,100.6c10.7-10.8,16.7-25.3,16.7-40.5C155.2,27,127.2,0.5,93.4,0.5c-33.1,0-57.1,24.7-60.9,51.2
				c-2.3,17.5,3.3,35,15.2,48c10.4,11.3,16.2,26.1,16.2,41.4v1.4h59.5v-1.4C123.4,125.3,128.6,110.8,138.6,100.6z"/>
			<path class="st1" d="M63.3,132.5c0,0,11.5,3.7,30.3,3.7s30.3-3.7,30.3-3.7s-1.8,36.2-1.9,38.9c-0.1,3.4-17.1,7.6-26.5,7.6
				c-13.9,0-30.3-4-30.8-7.1S63.3,132.5,63.3,132.5z"/>
			<path class="st1" d="M107.2,125.3L107.2,125.3c-0.8,0-1.3-0.6-1.3-1.3l0,0l1.8-29.9c0-0.1,0-0.2,0.1-0.3c0.6-1.7,3-9.2,6-17.4
				h-0.4c-5.7,0-10.8-2-13.1-5c-1.6-2.2-2.7-4.6-3.3-7.2c-0.8-2.8-1.2-3.8-2.6-4H93c-1.4,0.2-1.8,1.1-2.6,4
				c-0.6,2.6-1.7,5.1-3.3,7.2c-2.3,3-7.5,5-13.1,5h-0.4c3,8.2,5.4,15.7,6,17.4c0,0.1,0.1,0.2,0.1,0.3l1.8,29.9
				c0,0.7-0.5,1.3-1.2,1.3s-1.3-0.5-1.3-1.2l0,0l-1.8-29.8c-1.8-5.4-4-12-6.3-18.2C65.2,75.4,60,72.5,56.5,68
				c-5.6-7.2-4.6-13.5-1.3-16.4c2.2-2.1,5.6-2,7.7,0.2c0,0,0,0,0,0.1c2.2,2.3,6.2,12.2,9.7,21.9c0.5,0,0.9,0,1.3,0
				c4.8,0,9.4-1.7,11.1-4c1.4-1.9,2.3-4.1,2.9-6.4c0.8-2.7,1.6-5.5,4.9-5.8h1.6c3.3,0.3,4.1,3.1,4.9,5.8c0.5,2.3,1.5,4.5,2.9,6.4
				c1.8,2.3,6.4,4,11.1,4c0.4,0,0.9,0,1.3,0c3.5-9.7,7.5-19.6,9.8-21.9c2-2.2,5.5-2.3,7.7-0.3c0,0,0,0,0.1,0
				c3.3,2.9,4.3,9.3-1.3,16.4c-3.5,4.5-8.7,7.4-14.4,8.1c-2.3,6.2-4.5,12.8-6.3,18.2l-1.8,29.8C108.5,124.8,107.9,125.3,107.2,125.3
				L107.2,125.3z M128.4,52.7c-0.8,0-1.6,0.4-2.1,1c-1.7,1.8-5.2,10.2-8.7,19.8c4.5-0.8,8.6-3.3,11.4-6.9c4.6-5.9,4-10.9,1.6-13
				C130,53,129.2,52.7,128.4,52.7L128.4,52.7z M58.9,52.7c-0.8,0-1.6,0.3-2.2,0.9c-2.5,2.1-3,7.1,1.6,13c2.8,3.6,6.9,6.1,11.4,6.9
				c-3.6-9.6-7-18-8.7-19.8C60.5,53,59.7,52.7,58.9,52.7L58.9,52.7z"/>
			<g class="st2">
				<path class="st1" d="M66.8,138.5c2.1,0.7,4.3,1.3,6.5,1.7s4.4,0.8,6.7,1c4.5,0.5,9,0.7,13.4,0.7c4.5,0,9-0.2,13.4-0.7
					c2.2-0.2,4.5-0.6,6.7-1s4.4-1,6.5-1.7c-1,0.5-2.1,0.9-3.1,1.3c-1.1,0.4-2.2,0.7-3.3,1c-2.2,0.6-4.4,1-6.7,1.4
					c-4.5,0.7-9,1-13.6,1c-4.5,0-9.1-0.3-13.6-1C75.3,141.6,71,140.4,66.8,138.5z"/>
				<path class="st1" d="M66.8,145.9c2.1,0.7,4.3,1.3,6.5,1.7s4.4,0.8,6.7,1c4.5,0.5,9,0.7,13.4,0.7c4.5,0,9-0.2,13.4-0.7
					c2.2-0.2,4.5-0.6,6.7-1s4.4-1,6.5-1.7c-1,0.5-2.1,0.9-3.1,1.3c-1.1,0.4-2.2,0.7-3.3,1c-2.2,0.6-4.4,1-6.7,1.4
					c-4.5,0.7-9,1-13.6,1c-4.5,0-9.1-0.3-13.6-1C75.4,148.9,71,147.7,66.8,145.9z"/>
				<path class="st1" d="M66.8,153.2c2.1,0.7,4.3,1.3,6.5,1.7s4.4,0.8,6.7,1c4.5,0.5,9,0.7,13.4,0.7c4.5,0,9-0.2,13.4-0.7
					c2.2-0.2,4.5-0.6,6.7-1s4.4-1,6.5-1.7c-1,0.5-2.1,0.9-3.1,1.3c-1.1,0.4-2.2,0.7-3.3,1c-2.2,0.6-4.4,1-6.7,1.4
					c-9,1.3-18.2,1.3-27.2,0C75.3,156.3,71,155.1,66.8,153.2z"/>
				<path class="st1" d="M66.8,160.6c2.1,0.7,4.3,1.3,6.5,1.7s4.4,0.8,6.7,1c4.5,0.5,9,0.7,13.4,0.7c4.5,0,9-0.2,13.4-0.7
					c2.2-0.2,4.5-0.6,6.7-1s4.4-1,6.5-1.7c-1,0.5-2.1,0.9-3.1,1.3c-1.1,0.4-2.2,0.7-3.3,1c-2.2,0.6-4.4,1-6.7,1.4
					c-9,1.3-18.2,1.3-27.2,0C75.4,163.6,71,162.4,66.8,160.6z"/>
				<path class="st1" d="M66.8,167.9c2.1,0.7,4.3,1.3,6.5,1.7s4.4,0.8,6.7,1c4.5,0.5,9,0.7,13.4,0.7c4.5,0,9-0.2,13.4-0.7
					c2.2-0.2,4.5-0.6,6.7-1s4.4-1,6.5-1.7c-1,0.5-2.1,0.9-3.1,1.3c-1.1,0.4-2.2,0.7-3.3,1c-2.2,0.6-4.4,1-6.7,1.4
					c-9,1.3-18.2,1.3-27.2,0C75.4,171,71,169.8,66.8,167.9z"/>
			</g>
			<ellipse class="st3" cx="112.5" cy="61" rx="34.1" ry="35.3"/>
			<path class="st1" d="M131.8,11.5c-0.8-0.4-1.8,0-2.2,0.8l-4.1,8.8h-35l4.1-8.9c0.5-0.8,0.2-1.8-0.6-2.3c-0.8-0.5-1.8-0.2-2.3,0.6
				c-0.1,0.1-0.1,0.2-0.1,0.3l-46.1,99.8c-0.3,0.3-0.5,0.7-0.5,1.1l-29,62.5c-0.5,0.8-0.2,1.8,0.6,2.3c0.8,0.5,1.8,0.2,2.3-0.6
				c0.1-0.1,0.1-0.2,0.1-0.3l4.1-8.8h35l-4.4,9.5c-0.5,0.8-0.2,1.8,0.6,2.3s1.8,0.2,2.3-0.6c0.1-0.1,0.1-0.2,0.1-0.3l75.8-164
				C133,12.9,132.6,11.9,131.8,11.5z M124,24.4l-6.7,14.5h-35L89,24.4H124z M109.1,56.7h-35l6.7-14.5h35L109.1,56.7z M100.8,74.5
				h-35L72.5,60h35L100.8,74.5z M92.6,92.3h-35l6.7-14.5h35L92.6,92.3z M84.3,110.1h-35L56,95.6h35L84.3,110.1z M76.1,127.9h-35
				l6.7-14.5h35L76.1,127.9z M67.9,145.7h-35l6.7-14.5h35L67.9,145.7z M24.6,163.5l6.7-14.5h35l-6.7,14.5H24.6z"/>
			
				<linearGradient id="SVGID_1_" gradientUnits="userSpaceOnUse" x1="-4617.3701" y1="2591.2917" x2="-4659.8301" y2="2560.6719" gradientTransform="matrix(-0.73 0.68 0.68 0.73 -4939.6494 1318.8837)">
				<stop  offset="0" style="stop-color:#2C27CE"/>
				<stop  offset="0.65" style="stop-color:#EF1D68"/>
				<stop  offset="1" style="stop-color:#EFBA92"/>
			</linearGradient>
			<path class="st4" d="M187.5,36.3c-2.6-0.5-3.9-4.5-0.9-7.7c3.4-3.7,11.7-7.5,16.1,4.1c4.5,12.1,7.8,13.3,11.4,12.4
				c0,0-7.7,8.3-13.8,0.5S193.4,37.5,187.5,36.3z"/>
			
				<linearGradient id="SVGID_2_" gradientUnits="userSpaceOnUse" x1="-4614.6187" y1="2568.3425" x2="-4619.2383" y2="2579.8823" gradientTransform="matrix(-0.73 0.68 0.68 0.73 -4939.6494 1318.8837)">
				<stop  offset="0" style="stop-color:#F70F47"/>
				<stop  offset="1" style="stop-color:#9E005D"/>
			</linearGradient>
			<path class="st5" d="M192.2,75.8c0.9-2,2.4-8.4,4.7-16.7c0.9-2.2,2.6-4.1,4.8-5.2c1.4-0.6,3.6,0.5,3,3.3c-0.6,3-1.5,6-2.5,8.9
				c-2.9,8.4-4.9,11.6-5.9,13C195,80.8,190.9,78.8,192.2,75.8z"/>
			
				<linearGradient id="SVGID_3_" gradientUnits="userSpaceOnUse" x1="-4585.1733" y1="2532.1152" x2="-4605.0034" y2="2581.5454" gradientTransform="matrix(-0.73 0.68 0.68 0.73 -4939.6494 1318.8837)">
				<stop  offset="0" style="stop-color:#F70F47"/>
				<stop  offset="1" style="stop-color:#9E005D"/>
			</linearGradient>
			<path class="st6" d="M177.5,74.2c1.7,0.4,14.6,0.4,17.5,1c3.4,0.8,2.1,4.8-0.8,4.7c-4,0-7.9-0.7-11.6-2c-3.9-1.1-5.2-0.3-6-1.3
				C176,75.9,176.3,74,177.5,74.2z"/>
			<path class="st7" d="M198.5,45.7c0.2,0.2,4,3.7,6.8,6.7c1.4,1.4,1.6,3.8,0.6,4.8l0,0c-1,1-3.4,0.8-4.6-0.7
				c-2.2-2.7-4.8-5.2-4.8-5.3L198.5,45.7z"/>
			
				<linearGradient id="SVGID_4_" gradientUnits="userSpaceOnUse" x1="-6171.1641" y1="3467.918" x2="-6190.374" y2="3523.8381" gradientTransform="matrix(-0.95 0.31 0.2 0.6 -6344.2495 -90.6886)">
				<stop  offset="0" style="stop-color:#36078B"/>
				<stop  offset="1" style="stop-color:#168D68"/>
			</linearGradient>
			<path class="st8" d="M241.3,95.2c0,0-0.4-8.2-4-13.3L217,93.5c0.4,3,1.1,6.1,2,9L241.3,95.2z"/>
			
				<linearGradient id="SVGID_5_" gradientUnits="userSpaceOnUse" x1="-3263.248" y1="2317.052" x2="-3282.8882" y2="2374.2122" gradientTransform="matrix(-0.6703 0.7454 0.7454 0.6703 -3721.7161 995.515)">
				<stop  offset="0" style="stop-color:#36078B"/>
				<stop  offset="1" style="stop-color:#16B1FF"/>
			</linearGradient>
			<path class="st9" d="M236.8,135.9c-6.9-3.8-2.9-10.3,2.8-8.3c8.1,2.7,26.5,22.2,30.1,25.7c0.5,0.5,0.2,0.6-0.2,0.8
				c-1,0.5-1.3-0.6-2.5,0.5c-0.6,0.6-0.1,1.6-0.1,1.6C261.5,152.1,243.5,139.5,236.8,135.9z"/>
			
				<linearGradient id="SVGID_6_" gradientUnits="userSpaceOnUse" x1="-6320.519" y1="1673.4124" x2="-6339.7383" y2="1729.3325" gradientTransform="matrix(-0.9951 -9.191722e-02 -9.191722e-02 0.9951 -5909.4307 -2178.9646)">
				<stop  offset="0" style="stop-color:#36078B"/>
				<stop  offset="1" style="stop-color:#16B1FF"/>
			</linearGradient>
			<path class="st10" d="M228.6,100.3c0.1-9.6,4.4-16.6,9.8-12.9c2.3,1.5,2.9,4.3,3,6.7c0.1,2.5-0.6,28.5-0.4,33.2
				c0.4,10.6-7.3,7.1-7.9,4.1C231.5,123.9,228.5,105.5,228.6,100.3z"/>
			
				<linearGradient id="SVGID_7_" gradientUnits="userSpaceOnUse" x1="-6324.625" y1="1551.3124" x2="-6343.835" y2="1607.2324" gradientTransform="matrix(-0.97 0.25 0.25 0.97 -6332.3833 189.3904)">
				<stop  offset="0" style="stop-color:#36078B"/>
				<stop  offset="1" style="stop-color:#16B1FF"/>
			</linearGradient>
			<path class="st11" d="M205,133.2c-2.1-6.8,4.4-8.4,7.5-3.2c4.9,8.2,5.4,28.3,8,39.3c-1.6-1.6-2.8-1.8-3.3-1.6s-0.9,0.5-1.1,1
				C212.6,154.4,207.3,140.5,205,133.2z"/>
			
				<linearGradient id="SVGID_8_" gradientUnits="userSpaceOnUse" x1="-7429.9761" y1="-664.4034" x2="-7449.186" y2="-608.4834" gradientTransform="matrix(-0.94 -0.35 -0.35 0.94 -6999.2627 -1870.7188)">
				<stop  offset="0" style="stop-color:#36078B"/>
				<stop  offset="1" style="stop-color:#16B1FF"/>
			</linearGradient>
			<path class="st12" d="M211.7,132.9c-1.9,2.4-10.2,2.9-5.8-6.7c2-4.3,11.9-28.4,12.9-30.7s2.7-5.6,4-5.6c6.5,0,9.4,9,4.6,17.3
				C224.2,112.7,215.5,127.9,211.7,132.9z"/>
			
				<linearGradient id="SVGID_9_" gradientUnits="userSpaceOnUse" x1="-4636.0396" y1="2572.884" x2="-4631.3193" y2="2613.374" gradientTransform="matrix(-0.73 0.68 0.68 0.73 -4939.6494 1318.8837)">
				<stop  offset="0" style="stop-color:#F70F47"/>
				<stop  offset="1" style="stop-color:#9E005D"/>
			</linearGradient>
			<path class="st13" d="M216.8,59.5c1.6,3.4,3.5,6.7,5.6,9.8c1.6,2.3,3.5,4.3,5.6,6.1c1.3,1.1,2.6,2,4,3c0.5,0.4,4.8,3.2,5.2,3.5
				c0,0-17.9,14.5-18.8,15.3c-2.9-3.4-6.5-17-15.1-21.3c-6-3-3.8-5.3-5.8-10.5c-0.6-1.3-1-2.6-1.2-4c-0.1-1.4,0.3-2.8,1.1-3.9
				c0.4-0.6,0.9-1.1,1.4-1.7c2.6-2.8,8.5-9.8,12.8-6.4c1.2,1,2.1,2.2,2.7,3.6c0.7,1.5,1.2,3.1,1.8,4.7
				C216.3,58.3,216.6,58.9,216.8,59.5z"/>
			
				<linearGradient id="SVGID_10_" gradientUnits="userSpaceOnUse" x1="-6337.542" y1="1656.9041" x2="-6335.3716" y2="1630.1541" gradientTransform="matrix(-0.97 0.25 0.25 0.97 -6332.3833 189.3904)">
				<stop  offset="0" style="stop-color:#2C27CE"/>
				<stop  offset="0.65" style="stop-color:#EF1D68"/>
				<stop  offset="1" style="stop-color:#EFBA92"/>
			</linearGradient>
			<path class="st14" d="M215.9,168.7c-0.5,1.3-1.4,2.4-2.5,3.2c-1.5,1.2-4.9,2.4-2.8,2.6c1.9,0,3.7-0.5,5.4-1.3
				c1.2-0.5,2.4-0.9,3.6-1.2c1.8-0.5,1.8-0.6,1-2.6C219.5,166.7,216.3,166.9,215.9,168.7z"/>
			
				<linearGradient id="SVGID_11_" gradientUnits="userSpaceOnUse" x1="-3555.8672" y1="2970.4729" x2="-3553.1272" y2="2936.7527" gradientTransform="matrix(-0.7947 0.6045 0.6045 0.7947 -4329.9609 -25.9063)">
				<stop  offset="0" style="stop-color:#2C27CE"/>
				<stop  offset="0.65" style="stop-color:#EF1D68"/>
				<stop  offset="1" style="stop-color:#EFBA92"/>
			</linearGradient>
			<path class="st15" d="M266,155.1c0.1,0.6,1.4,2.7,0.5,4.3s-3.6,4.1-1.5,3.5c1.7-0.7,3.3-1.9,4.5-3.3c0.8-0.9,0.2-2,1.3-2.9
				c1.5-1.1,1.4-1.2-0.1-2.8C268.6,151.9,265.6,153.3,266,155.1z"/>
			<path class="st16" d="M197.9,41c2.7,3.6,3.3,4.4,3.1,7.1c-0.2,2.5-1.4,4.9-3.2,6.6c-1.7,1.6-4.6,0.9-6.2-0.1
				c-3.2-2.2-6-4.9-8.2-8c-1.4-2-1.2-6.3,1.1-8.5S191.3,32.3,197.9,41z"/>
			
				<linearGradient id="SVGID_12_" gradientUnits="userSpaceOnUse" x1="-4623.75" y1="2580.9697" x2="-4647.8398" y2="2553.4797" gradientTransform="matrix(-0.73 0.68 0.68 0.73 -4939.6494 1318.8837)">
				<stop  offset="0" style="stop-color:#2C27CE"/>
				<stop  offset="0.65" style="stop-color:#EF1D68"/>
				<stop  offset="1" style="stop-color:#EFBA92"/>
			</linearGradient>
			<path class="st17" d="M182.3,44.3c0.8,3.4,13.8-1.2,15.6-3.5s-2.3-6.7-5.8-7.2S180.6,36.4,182.3,44.3z"/>
			
				<linearGradient id="SVGID_13_" gradientUnits="userSpaceOnUse" x1="-4618.8003" y1="2576.6294" x2="-4642.8901" y2="2549.1394" gradientTransform="matrix(-0.73 0.68 0.68 0.73 -4939.6494 1318.8837)">
				<stop  offset="0" style="stop-color:#2C27CE"/>
				<stop  offset="0.65" style="stop-color:#EF1D68"/>
				<stop  offset="1" style="stop-color:#EFBA92"/>
			</linearGradient>
			<path class="st18" d="M185.3,40.6c1.4,2.2-1.5,5.6-0.6,7.7c0.5,1.3-2.4-1.6-2.9-3.7S182.5,36.2,185.3,40.6z"/>
			<ellipse transform="matrix(0.9363 -0.3512 0.3512 0.9363 -1.9067 72.3139)" class="st16" cx="198.4" cy="41.4" rx="1.6" ry="3"/>
			<path class="st16" d="M243.3,61.9c0.3,1.3,1,2.4,1.9,3.4c0.8,0.6,0.1-1.4-0.1-2.4S243,60.8,243.3,61.9z"/>
			<path class="st16" d="M244.6,62.8c2,1.9,2.8,3.3,4.1,3.6s0.8-2.2,0.2-3s-2.6-3.7-3.8-3.7S243.1,61.3,244.6,62.8z"/>
			
				<linearGradient id="SVGID_14_" gradientUnits="userSpaceOnUse" x1="-3457.5112" y1="2764.8396" x2="-3471.9714" y2="2800.8796" gradientTransform="matrix(-0.58 0.82 0.82 0.58 -4053.9775 1282.2791)">
				<stop  offset="0" style="stop-color:#F70F47"/>
				<stop  offset="1" style="stop-color:#9E005D"/>
			</linearGradient>
			<path class="st19" d="M229.6,52.5c-2.2,0-8.6,1.3-17.1,2.6c-2.4,0.1-4.8-0.7-6.7-2.2c-1.2-1-1-3.5,1.8-4.1c3-0.7,6.1-1.1,9.1-1.3
				c8.8-0.8,12.6-0.3,14.3,0C233,48,232.9,52.5,229.6,52.5z"/>
			
				<linearGradient id="SVGID_15_" gradientUnits="userSpaceOnUse" x1="-634.5737" y1="1526.4478" x2="-641.8635" y2="1544.6178" gradientTransform="matrix(0.33 0.94 0.94 -0.33 -1006.5268 1170.7109)">
				<stop  offset="0" style="stop-color:#F70F47"/>
				<stop  offset="1" style="stop-color:#9E005D"/>
			</linearGradient>
			<path class="st20" d="M243.3,62.2c-1.3-1.3-12.7-8.4-14.9-10.5c-2.6-2.5,0.8-5.4,3.3-3.8c3.5,2.2,6.6,4.9,9.2,8.1
				c2.8,3.2,4.4,3.1,4.5,4.4C245.5,61.5,244.2,63.1,243.3,62.2z"/>
			<path class="st16" d="M175.8,78.5c-0.7,0.4-1.6,0.6-2.4,0.5c-0.4-0.1-0.3-1.1,0.6-2.2s3-3,3.6-2.8s0.7,1,0.4,2.1
				C177.7,77.2,176.9,78.1,175.8,78.5z"/>
			<path class="st1" d="M173,72.8c-2.4-1.6-5.1-1.1-6.8,1.4c-1,1.4-1.2,3.1-0.6,4.7l-1.6-1c-0.7-0.5-1.8-0.5-2.2,0l-8.1,11.6
				c-0.4,0.6,0,1.6,0.7,2.1l3.7,2.7l-10.3,3.1c-0.6-0.9-1.2-1.3-1.6-1.2c-0.7,0.3-0.7,1.8-0.1,3.4s1.7,2.8,2.3,2.5
				c0.5-0.2,0.7-1.1,0.4-2.3l15.8-0.7l4.1,3.1c0.6,0.4,1.4,0.3,1.8-0.2c0,0,0,0,0-0.1l8.8-12.7c0.4-0.6,0.3-1.4-0.3-1.8
				c0,0,0,0-0.1,0l-2.3-1.4c-0.4-1.7-0.6-3.5-0.6-5.3C176.1,77.7,176.1,74.9,173,72.8z M175.2,85l-7-4.5c-1-1.2-2.1-3.4-0.7-5.5
				c1.2-1.8,3-2.2,4.7-1c2.5,1.7,2.5,4,2.6,6.8C174.8,82.3,174.9,83.6,175.2,85z"/>
			<path class="st16" d="M176.6,78.8c-0.4,0.2-0.8,0.3-1.2,0.2c-0.2-0.1-0.1-0.6,0.3-1.1s1.5-1.5,1.8-1.4s0.3,0.5,0.2,1
				C177.6,78.1,177.2,78.6,176.6,78.8z"/>
			<path class="st1" d="M138.8,168.5c-2.2-1.4,0.6-5.8,5.8-6.2c0.3,1.4,0.3,2.9,0,4.3C144.2,168.4,141.9,170.5,138.8,168.5z"/>
			<path class="st1" d="M135.8,168.9c-2.6-0.5-1.5-5.6,3.1-7.9c0.8,1.2,1.4,2.6,1.6,4C140.8,166.8,139.4,169.6,135.8,168.9z"/>
			<path class="st1" d="M133.9,169.2c-2.3,0.6-3.5-3.9-0.6-7.7c1.1,0.6,2.2,1.5,2.9,2.6C137.1,165.5,137.2,168.3,133.9,169.2z"/>
			<path class="st1" d="M132.9,168.6c-1.6,1.4-4.4-1.8-3.6-5.9c1.2,0.1,2.3,0.4,3.4,0.9C134,164.4,135.2,166.6,132.9,168.6z"/>
			<path class="st1" d="M128.3,157.9c-8.9-3.5-1.8-20.8,16.3-25.8c0,0,3.5,7.7,3.1,15.2C147.3,153.7,140.7,162.8,128.3,157.9z"/>
			<path class="st1" d="M142.7,134.3c-1.6,1.2-3,2.7-4.1,4.4c-0.3,0.4-0.6,0.8-0.8,1.3c-0.2,0.4-0.5,0.8-0.7,1.3s-0.4,0.9-0.6,1.3
				l-0.3,0.7l-0.3,0.7c-0.7,1.8-1.3,3.7-1.8,5.7c-0.2,1-0.4,1.9-0.6,2.9l-0.4,3c-0.1,0.5-0.2,1-0.2,1.5l-0.1,1.5c-0.1,1-0.1,2-0.2,3
				c0,2,0,4,0.1,6.1c0.1,1,0.1,2,0.2,3l0.1,1.5v0.8l0.1,0.8l0.2,3.1l0.1,1.5l0.1,1.6h-0.1l-1.1-6l-0.1-0.8l-0.1-0.8l-0.2-1.5
				l-0.3-3.1l-0.1-0.8v-1l-0.1-1.5l-0.1-3.1l0.1-3.1l0.1-1.5c0-0.5,0.1-1,0.2-1.5l0.4-3.1l0.7-3c0.5-2,1.2-3.9,2-5.8l0.3-0.7
				l0.4-0.7l0.8-1.4c0.2-0.4,0.6-0.9,0.9-1.3c0.3-0.4,0.6-0.8,0.9-1.2c1.3-1.6,2.9-3,4.7-4L142.7,134.3z"/>
			<path class="st1" d="M133.9,149.4c6.7-2.6,1.4-15.8-12.4-19.7c0,0-2.7,5.9-2.4,11.6C119.3,146.2,124.4,153.1,133.9,149.4z"/>
			<path class="st1" d="M122.9,131.3c1.3,1.6,2.6,3.4,3.6,5.2c0.5,0.9,1,1.9,1.5,2.8l0.7,1.4l0.7,1.4c1.7,3.9,3.1,7.9,4.1,12.1
				c0.2,1,0.4,2.1,0.7,3.1l0.3,1.6l0.2,1.6l0.4,3.2c0.1,1.1,0.2,2.1,0.3,3.2l0.1,1.6c0,0.5,0,1.1,0,1.6l0.1,3.2
				c0,1.1-0.1,2.1-0.1,3.2s-0.1,2.1-0.2,3.2h-0.1c0-2.1,0-4.2-0.1-6.3l-0.2-3.1c0-0.5-0.1-1.1-0.1-1.6l-0.2-1.6l-0.4-3.1l-0.5-3.1
				l-0.3-1.6l-0.3-1.5c-0.2-1-0.4-2.1-0.7-3.1c-1-4.1-2.3-8.1-3.9-12c-1.5-3.9-3.5-7.7-5.8-11.2L122.9,131.3z"/>
			<path class="st1" d="M137.6,141.7c-12.7-3.9-4.7-28.8,19.9-37.8c0,0,5.8,10.3,6,20.9C163.7,133.8,155.4,147.2,137.6,141.7z"/>
			<path class="st1" d="M155.2,107.2c-0.5,0.7-0.9,1.3-1.3,2c-0.4,0.7-0.9,1.3-1.3,2s-0.8,1.4-1.2,2.1s-0.8,1.4-1.1,2.1
				c-0.7,1.4-1.5,2.8-2.1,4.3c-0.3,0.7-0.7,1.4-1,2.1l-0.9,2.2l-0.9,2.2l-0.8,2.2l-0.8,2.2c-0.3,0.7-0.5,1.5-0.7,2.3
				s-0.5,1.5-0.7,2.3l-0.4,1.1c-0.1,0.4-0.2,0.8-0.3,1.1l-1.2,4.6c-0.4,1.5-0.7,3.1-1,4.6c-0.2,0.8-0.4,1.5-0.5,2.3
				s-0.2,1.6-0.4,2.3c-0.2,1.6-0.5,3.1-0.8,4.7s-0.3,3.1-0.5,4.7L137,163l-0.1,2.4l-0.3,4.8c-0.2,3.2-0.1,6.4-0.3,9.6h-0.2l-0.3-4.8
				l-0.1-2.4c0-0.8-0.1-1.6-0.1-2.4v-4.8V163l0.2-2.4l0.4-4.8c0.2-1.6,0.4-3.2,0.6-4.8l0.3-2.4c0.1-0.8,0.3-1.6,0.5-2.4
				c0.3-1.6,0.6-3.1,1-4.7c1.5-6.2,3.7-12.3,6.3-18.1c2.6-5.9,6-11.3,10.1-16.3L155.2,107.2z"/>
			<path class="st1" d="M144.8,153.3c-7.8-5.6,3.5-20.8,22.4-21.2c0,0,1.5,8.4-0.8,15.7C164.5,154,155.7,161.2,144.8,153.3z"/>
			<path class="st1" d="M164.9,133.8c-1.9,1.3-3.7,2.7-5.4,4.3l-1.3,1.2l-1.2,1.2c-0.8,0.8-1.5,1.7-2.3,2.5
				c-2.9,3.5-5.5,7.2-7.8,11.2l-1.6,3c-0.3,0.5-0.5,1-0.8,1.5l-0.7,1.6l-0.7,1.5c-0.1,0.3-0.3,0.5-0.4,0.8l-0.3,0.8
				c-0.4,1.1-0.9,2.1-1.3,3.2s-0.8,2.1-1.2,3.2l-1.1,3.3c-0.7,2.2-1.3,4.4-2.1,6.6h-0.1c0.5-2.3,1-4.5,1.5-6.8l1-3.3
				c0.3-1.1,0.6-2.2,1.1-3.3l1.2-3.3l0.3-0.8c0.1-0.3,0.2-0.5,0.4-0.8l0.7-1.6l0.7-1.6c0.2-0.5,0.5-1.1,0.8-1.6l1.6-3.1
				c2.3-4,5-7.8,8.2-11.2c0.8-0.8,1.6-1.7,2.4-2.5l1.3-1.2l1.3-1.1C160.9,136.2,162.8,134.9,164.9,133.8L164.9,133.8z"/>
			<path class="st1" d="M147.1,130c0.9-0.7,1.9-1.2,3-1.6c0.5-0.2,1.1-0.4,1.6-0.5s1.1-0.3,1.6-0.4c1.1-0.2,2.2-0.3,3.3-0.3
				s2.3,0.2,3.4,0.6v0.1c-2.2,0-4.3,0.2-6.5,0.7C151.4,129,149.3,129.5,147.1,130L147.1,130z"/>
			<path class="st1" d="M149.1,122.8c0.6-0.7,1.4-1.3,2.2-1.8c0.4-0.2,0.8-0.4,1.2-0.6s0.9-0.3,1.3-0.5c0.9-0.3,1.8-0.5,2.8-0.6
				s1.9,0,2.9,0.3v0.1c-1.8,0.3-3.6,0.7-5.3,1.3C152.5,121.5,150.8,122.2,149.1,122.8L149.1,122.8z"/>
			<path class="st1" d="M140.2,128.4c-0.3-0.5-0.6-1.1-0.9-1.7c-0.2-0.5-0.4-1.1-0.6-1.6c-0.1-0.3-0.2-0.5-0.3-0.7l-0.1-0.4
				c-0.1-0.1-0.1-0.2-0.1-0.3c-0.2-0.5-0.5-1-0.8-1.5v-0.1c0.6,0.2,1.1,0.6,1.4,1.1c0.4,0.5,0.7,1,0.9,1.6
				C140.1,126,140.3,127.2,140.2,128.4L140.2,128.4z"/>
			<path class="st1" d="M144.4,120.6c-0.2-0.5-0.3-0.9-0.4-1.4c-0.1-0.4-0.1-0.9-0.1-1.3s-0.1-0.8-0.1-1.2c0-0.4-0.1-0.9-0.3-1.3
				v-0.1c0.4,0.3,0.7,0.7,0.9,1.1s0.3,0.9,0.3,1.4C144.7,118.8,144.6,119.7,144.4,120.6L144.4,120.6z"/>
			<path class="st1" d="M142.7,181.3h-10.9c-0.5,0-1-0.4-1.1-0.9l-1.5-12.7c-0.1-0.6,0.3-1.1,0.9-1.2h0.1h13.9
				c0.6,0,1.1,0.5,1.1,1.1v0.1l-1.5,12.7C143.7,180.9,143.3,181.3,142.7,181.3z"/>
			<path class="st1" d="M145.7,169h-16.8c-0.3,0-0.6-0.3-0.7-0.6l-0.3-2.1c-0.1-0.4,0.2-0.7,0.6-0.8h0.1H146c0.4,0,0.7,0.3,0.7,0.7
				v0.1l-0.3,2.1C146.3,168.7,146,169,145.7,169z"/>
			
				<linearGradient id="SVGID_16_" gradientUnits="userSpaceOnUse" x1="-9240.707" y1="804.5997" x2="-9239.5371" y2="773.9297" gradientTransform="matrix(-1 0 0 1 -9236.3828 -620)">
				<stop  offset="0" style="stop-color:#36078B"/>
				<stop  offset="1" style="stop-color:#168D68"/>
			</linearGradient>
			<path class="st21" d="M5.7,172.2c0.2,0.8,0.3,1.6,0.3,2.4c0.2,0.9,1.1,1.3,1.6,2.1s1.5,2.2-2.1,2.3c-3.8,0.1-6-0.2-5.4-2.2
				c0.5-1.2,0.7-2.4,0.7-3.6c-0.1-0.6,0-1.3,0.4-1.8C1.7,170.9,5.1,170.2,5.7,172.2z"/>
			
				<linearGradient id="SVGID_17_" gradientUnits="userSpaceOnUse" x1="-9266.2744" y1="669.4288" x2="-9284.7539" y2="680.4588" gradientTransform="matrix(-1 0 0 1 -9236.3828 -620)">
				<stop  offset="0" style="stop-color:#36078B"/>
				<stop  offset="1" style="stop-color:#168D68"/>
			</linearGradient>
			<path class="st22" d="M39.2,55.9c-2.6-4.8-5.4-9.4-8.5-13.9c-2.8-4.2-5.6-4.6-8.1-4c-2,0.5-3.3,2.8-1.9,5.5
				c1.5,2.9,3.2,5.6,5.2,8.2c5.4,7.3,8.3,9.7,9.8,10.5C37.4,63.2,41.3,59.9,39.2,55.9z"/>
			
				<linearGradient id="SVGID_18_" gradientUnits="userSpaceOnUse" x1="-9255.9854" y1="647.0825" x2="-9266.0654" y2="631.3224" gradientTransform="matrix(-1 0 0 1 -9236.3828 -620)">
				<stop  offset="0" style="stop-color:#36078B"/>
				<stop  offset="1" style="stop-color:#16B1FF"/>
			</linearGradient>
			<path class="st23" d="M22.2,26.7c1.6,0.7,2.2,0.7,2.8-1.2c0.4-1.5,1.2-6.8-1.2-7.1s-4.3-0.4-4,2.8S20.4,25.8,22.2,26.7z"/>
			<path class="st7" d="M13.2,29.5c0,0.2-0.6,5.3-0.7,9.1c0.1,2,1.8,3.6,3.8,3.7l0,0c1.9,0,4-1.7,3.9-3.5c-0.2-2.3-0.2-4.6,0-6.8
				L13.2,29.5z"/>
			
				<linearGradient id="SVGID_19_" gradientUnits="userSpaceOnUse" x1="-9270.4824" y1="680.15" x2="-9239.3105" y2="680.15" gradientTransform="matrix(-1 0 0 1 -9236.3828 -620)">
				<stop  offset="0" style="stop-color:#36078B"/>
				<stop  offset="1" style="stop-color:#16B1FF"/>
			</linearGradient>
			<path class="st24" d="M3.8,50.5c3.4,11.3,5,25.1,4.3,33.1h26c0,0-0.2-24.4-1.9-37.7c-0.4-3.3-2.5-6.2-5.5-7.7
				c-2.2-1-4.5-1.5-6.9-1.5H15c-1.7,0.1-3.4,0.3-5.1,0.6C3,38.6,1.8,43.9,3.8,50.5z"/>
			
				<linearGradient id="SVGID_20_" gradientUnits="userSpaceOnUse" x1="-9249.7334" y1="789.7302" x2="-9261.4238" y2="662.3602" gradientTransform="matrix(-1 0 0 1 -9236.3828 -620)">
				<stop  offset="0" style="stop-color:#F70F47"/>
				<stop  offset="1" style="stop-color:#FFB41D"/>
			</linearGradient>
			<path class="st25" d="M8.2,99.4c0,0-2.2-5.4-0.1-15.9h26c0.1,5.3-0.2,10.6-1,15.9H8.2z"/>
			
				<linearGradient id="SVGID_21_" gradientUnits="userSpaceOnUse" x1="-9240.9893" y1="788.9352" x2="-9252.6787" y2="661.5552" gradientTransform="matrix(-1 0 0 1 -9236.3828 -620)">
				<stop  offset="0" style="stop-color:#F70F47"/>
				<stop  offset="1" style="stop-color:#FFB41D"/>
			</linearGradient>
			<path class="st26" d="M13.3,133.5c2.1-8.5-6.6-10-9.3-3.8c-3.9,8.7-3.5,37.5-3.3,43.1c0,0.7,0,0.7,0.4,0.6
				c0.6-0.2,1.2-1.5,2.9-1.5c1,0,1.8,1.2,1.8,1.2C6.6,165.5,11.3,141.7,13.3,133.5z"/>
			
				<linearGradient id="SVGID_22_" gradientUnits="userSpaceOnUse" x1="-9243.5068" y1="789.1595" x2="-9255.1963" y2="661.7996" gradientTransform="matrix(-1 0 0 1 -9236.3828 -620)">
				<stop  offset="0" style="stop-color:#F70F47"/>
				<stop  offset="1" style="stop-color:#FFB41D"/>
			</linearGradient>
			<path class="st27" d="M20.4,100.6c0.9-10.6-2.5-18.7-9.1-15.2c-2.8,1.5-3.7,4.4-4.1,7.1S4.8,123.9,4.1,129
				c-1.6,11.7,7.6,8.5,8.6,5.3C15.3,126.2,19.9,106.3,20.4,100.6z"/>
			
				<linearGradient id="SVGID_23_" gradientUnits="userSpaceOnUse" x1="-9257.0615" y1="790.4037" x2="-9268.752" y2="663.0337" gradientTransform="matrix(-1 0 0 1 -9236.3828 -620)">
				<stop  offset="0" style="stop-color:#F70F47"/>
				<stop  offset="1" style="stop-color:#FFB41D"/>
			</linearGradient>
			<path class="st28" d="M29.5,133.4c1.6-7.7-6-8.8-8.9-2.8c-4.7,9.5-3.1,32.2-4.8,44.4c1.7-1.9,2.9-1.9,3.5-1.7
				c0.5,0.1,1,0.4,1.2,0.9C23,158.1,27.7,141.7,29.5,133.4z"/>
			<path class="st16" d="M31.7,53.6c1.4-0.5,3.6-1.3,4.7-1.8s2.4,2,2,2.8c-0.5,1.1-3.2,3.6-4.6,2.8s-2.5,0.3-3.5-0.7
				S29.5,54.4,31.7,53.6z"/>
			
				<linearGradient id="SVGID_24_" gradientUnits="userSpaceOnUse" x1="-9256.6582" y1="790.3851" x2="-9268.3486" y2="662.9551" gradientTransform="matrix(-1 0 0 1 -9236.3828 -620)">
				<stop  offset="0" style="stop-color:#F70F47"/>
				<stop  offset="1" style="stop-color:#FFB41D"/>
			</linearGradient>
			<path class="st29" d="M20.5,132.8c0.5,3.4,8.5,8.5,9.6-3.2c0.5-5.2,3.4-33.8,3.7-36.5s0.6-7-0.4-7.7c-6.1-4.2-13.1,3.3-12.9,13.8
				C20.5,106.3,19.5,125.9,20.5,132.8z"/>
			
				<linearGradient id="SVGID_25_" gradientUnits="userSpaceOnUse" x1="-9268.4561" y1="680.5168" x2="-9246.4463" y2="680.5168" gradientTransform="matrix(-1 0 0 1 -9236.3828 -620)">
				<stop  offset="0" style="stop-color:#0000FF"/>
				<stop  offset="1" style="stop-color:#9E005D"/>
			</linearGradient>
			<path class="st30" d="M30,54.2c-1.9,1-14.3,3-17.4,4.7c-3.6,2-3.2,8.2-0.1,8.1s6.4-1.6,12.5-5.5c4.2-2.7,5.9-3.5,6.8-5.4
				C32.6,54.7,31.3,53.6,30,54.2z"/>
			
				<linearGradient id="SVGID_26_" gradientUnits="userSpaceOnUse" x1="-9275.9795" y1="669.5474" x2="-9256.9082" y2="669.5474" gradientTransform="matrix(-1 0 0 1 -9236.3828 -620)">
				<stop  offset="0" style="stop-color:#0000FF"/>
				<stop  offset="1" style="stop-color:#9E005D"/>
			</linearGradient>
			<path class="st31" d="M22.9,37.3c1.3,1.7,13.8,16.1,15.9,18.9c2.5,3.3-2,7.7-4.3,5.8c-2.5-2.2-7.1-10-10.7-15.7
				c-2.7-4.2-3.2-5.9-3.3-8.1C20.4,36.6,22.1,36.1,22.9,37.3z"/>
			<path class="st16" d="M10.6,25.8c0.4,4.3,0.6,5.3,2.4,7c1.8,1.6,4.2,2.5,6.6,2.6c2.2,0,3.8-2.3,4.3-4.1c0.8-3.6,1-7.3,0.5-11
				c-0.3-2.4-3.3-5.3-6.3-5.3S9.6,15.3,10.6,25.8z"/>
			
				<linearGradient id="SVGID_27_" gradientUnits="userSpaceOnUse" x1="-9258.6113" y1="803.9189" x2="-9257.4512" y2="773.2489" gradientTransform="matrix(-1 0 0 1 -9236.3828 -620)">
				<stop  offset="0" style="stop-color:#36078B"/>
				<stop  offset="1" style="stop-color:#168D68"/>
			</linearGradient>
			<path class="st32" d="M20.5,174c1,1.2,2.2,2.1,3.7,2.7c2,0.9,6.1,1.2,3.8,2c-2.1,0.5-4.3,0.5-6.4,0.1c-1.4-0.2-2.9-0.3-4.3-0.3
				c-2.1,0-2.1-0.1-1.9-2.4C15.8,172.8,19.5,172.2,20.5,174z"/>
			
				<linearGradient id="SVGID_28_" gradientUnits="userSpaceOnUse" x1="-9248.1641" y1="642.0789" x2="-9258.2441" y2="626.3189" gradientTransform="matrix(-1 0 0 1 -9236.3828 -620)">
				<stop  offset="0" style="stop-color:#36078B"/>
				<stop  offset="1" style="stop-color:#16B1FF"/>
			</linearGradient>
			<path class="st33" d="M10.6,25.2c1.2,1.2,1.8,1.4,2.9-0.2c0.9-1.2,3.3-5.7,1.2-6.8s-3.7-1.8-4.5,1.2S9.2,23.8,10.6,25.2z"/>
			<ellipse transform="matrix(0.9257 -0.3783 0.3783 0.9257 -9.2416 5.9459)" class="st16" cx="10.5" cy="26.5" rx="1.5" ry="2.9"/>
			<path class="st16" d="M22.9,39.8c0.6-0.9,4.9-7.9,3.2-8.2c-2-0.3-4.3,2.1-5,3c-1.1,1.4-1.2,3.3-0.3,4.8
				C21.3,40.2,22.3,40.6,22.9,39.8z"/>
			
				<linearGradient id="SVGID_29_" gradientUnits="userSpaceOnUse" x1="-9253.1504" y1="673.3394" x2="-9238.9795" y2="673.3394" gradientTransform="matrix(-1 0 0 1 -9236.3828 -620)">
				<stop  offset="0" style="stop-color:#0000FF"/>
				<stop  offset="1" style="stop-color:#9E005D"/>
			</linearGradient>
			<path class="st34" d="M16.5,61.8c-0.9-2-2.1-8.9-4.3-17.7c-0.4-1.5-3.5-3.9-6.1-4.4c-1.6-0.3-4,1.7-3.5,4.7
				c0.6,3.2,1.4,6.3,2.5,9.3c2.9,8.6,5,12.5,6.5,13.2S17.9,64.8,16.5,61.8z"/>
			
				<linearGradient id="SVGID_30_" gradientUnits="userSpaceOnUse" x1="-9251.1328" y1="643.9767" x2="-9261.2119" y2="628.2167" gradientTransform="matrix(-1 0 0 1 -9236.3828 -620)">
				<stop  offset="0" style="stop-color:#36078B"/>
				<stop  offset="1" style="stop-color:#16B1FF"/>
			</linearGradient>
			<path class="st35" d="M12,17.9c1.4,1,7.9,2.7,9.8,3.2c0,0-2.6-1.4-3-2c2.4,0.3,4.9,0.3,7.3,0c-0.7-0.4-1.3-0.9-1.9-1.4
				c1.2,0,2.3-0.2,3.4-0.7c0,0-7-4.8-13.1-3C11.3,14.9,10.6,16.9,12,17.9z"/>
		</g>
	</g>
</g>
</svg>
