<svg xmlns="http://www.w3.org/2000/svg" viewBox="0 0 243.17 243.17"><defs><style>.cls-1{fill:#ed0f0f;opacity:0.1;}.cls-2{fill:none;stroke:#0037ff;stroke-linecap:round;stroke-linejoin:round;}</style></defs><title>hot</title><g id="Слой_2" data-name="Слой 2"><g id="Designed_by_Freepik" data-name="Designed by Freepik"><circle class="cls-1" cx="121.58" cy="121.58" r="121.58"/><path class="cls-2" d="M139.86,89.43s2.32-6.45,6.77-6.19S159,89.43,159,89.43s-4-8.65-1.41-11.86S183,71.14,183,71.14,160.59,69.66,161.44,64s20-24.22,20-24.22-23,12.85-28.63,10.13-8.76-23.73-8.76-23.73-1.28,23.23-6,26.2-24.8-9.89-24.8-9.89,15.94,15.57,15.65,22-18.87,9.89-18.87,9.89,19.36-2.72,22.07,0-4.67,12.85-4.67,12.85,7.68-5.68,10.33-5.68S139.86,89.43,139.86,89.43Z"/><path class="cls-2" d="M129.58,71.3s6.18-.43,6.73-4.57-6.73-13.15-6.73-13.15,10,6.43,12.86,6.15,3.43-13.86,3.43-13.86,2.43,9.58,5,11S168,49.71,168,49.71,156.3,60.29,156.87,64.15s10,7.15,10,7.15-10,.86-11.72,4.72.43,8.43.43,8.43-2.29-5.57-7.43-6.72S141,81.87,141,81.87s2.14-4.43-.71-6-6,1.72-6,1.72S139.15,71.72,129.58,71.3Z"/><path class="cls-2" d="M138,61.29s3.46,2.86,6,2.86,3.56-6.36,3.56-6.36-.43,4.78,1.21,5.36S155.73,61,155.73,61s-4.11,4.46-4,6,5.7,3.14,5.7,3.14-5.11,1.29-5.7,2,1,6,1,6-2.83-5.64-5-5.72-3.7,3-3.7,3,0-3.72-1.3-4.29-4.72,1-4.72,1,3-2.5,3.29-4.18S138,61.29,138,61.29Z"/><path class="cls-2" d="M147.31,105.29a44.51,44.51,0,0,1-6.29,9.18,2.28,2.28,0,0,1-3.29-3.17c.53-.56,10.27-11,10.27-25.9a35.64,35.64,0,0,0-2.88-13.9,2.29,2.29,0,0,1,4.21-1.78c.19.47.38.93.55,1.38h0C155.24,85.13,151.46,97.41,147.31,105.29Z"/><path class="cls-2" d="M153.19,119.08c-2.8,7.77-26.91-7.49-29.88-9.4l-.3-.19a7.27,7.27,0,0,1-.17-1.73h0c0-2.16,1-5.69,6.84-6.51,5.42-.74,12.17,1.73,17.09,5.42S154.65,115,153.19,119.08Z"/><path class="cls-2" d="M153.19,119.08c-2.8,7.77-26.91-7.49-29.88-9.4l-.47-1.92h0s9.14-3.21,22.09,6.12c0,0,6.15,1.21,1.84-7.2C151.57,110.25,154.65,115,153.19,119.08Z"/><circle class="cls-2" cx="115.04" cy="162.11" r="54.9"/><path class="cls-2" d="M67.76,183.57s32.91,24.68,63.08,2.35c36.09-26.72,18-65.43,18-65.43,18.41,10.58,30.49,56.81,1.08,81.49C114,232.15,74.81,203.55,67.76,183.57Z"/><path class="cls-2" d="M67.76,181.33s-11.44-29.4,10.35-55c17.44-20.47,44.73-18.59,64.54-8.4,0,0-35.44,3.37-42.88,30.9,0,0-3.81-22.58,20.15-34.87,0,0-4.88-1.05-7.72,0C112.21,114,70.81,129.57,67.76,181.33Z"/><path class="cls-2" d="M66.61,169.71s-5.15-42.88,33.35-56.6c0,0,16.2-6.44,37.73,3.69,0,0-16.48-7.59-34.51-3.39C103.18,113.41,71.38,131,66.61,169.71Z"/><path class="cls-2" d="M165.52,150.46S172.76,192,140,206.86s-55.64-4.94-55.64-4.94,20.14,15.8,52.75,4.94c0,0-3.78,1.52-3.21-1.72s11.43-11.05,15.05-11.81,1.72,4,1.72,4S169.71,178.09,165.52,150.46Z"/><path class="cls-2" d="M125.27,106s-.34-3.91,5.95-4.19,12.2,2.86,14.86,5.91c0,0-7.81-4.76-12.29-4.67,0,0,2.19.74-1,1.71s-4.57-.37-4-1C128.74,103.68,126,103.9,125.27,106Z"/><path class="cls-2" d="M147.31,105.29a14.28,14.28,0,0,1-1.23-2.09c8.71-19.72-.3-30,1.14-32.09a1.43,1.43,0,0,1,2.65,0h0C155.24,85.13,151.46,97.41,147.31,105.29Z"/></g></g></svg>