<svg xmlns="http://www.w3.org/2000/svg" xmlns:xlink="http://www.w3.org/1999/xlink" viewBox="0 0 180 180"><defs><style>.cls-1{isolation:isolate;}.cls-2{fill:#ed0f0f;opacity:0.1;}.cls-3{fill:none;stroke:#0037ff;stroke-linecap:round;stroke-linejoin:round;}.cls-4{opacity:0.59;}.cls-20,.cls-4,.cls-5,.cls-6{mix-blend-mode:multiply;}.cls-5{opacity:0.74;}.cls-20,.cls-6{opacity:0.3;}.cls-6{fill:url(#Gradient_bez_nazwy_3);}.cls-7{fill:url(#Gradient_bez_nazwy_5);}.cls-8{fill:url(#Gradient_bez_nazwy_5-2);}.cls-9{fill:#f70f47;}.cls-10{fill:#ed9169;}.cls-11{fill:url(#Gradient_bez_nazwy_5-3);}.cls-12{fill:url(#Gradient_bez_nazwy_2);}.cls-13{fill:url(#Gradient_bez_nazwy_2-2);}.cls-14{fill:url(#Gradient_bez_nazwy_2-3);}.cls-15{fill:url(#Gradient_bez_nazwy_2-4);}.cls-16{fill:url(#Gradient_bez_nazwy_2-5);}.cls-17{fill:url(#Gradient_bez_nazwy_5-4);}.cls-18{fill:url(#Gradient_bez_nazwy_5-5);}.cls-19{fill:#ffaf84;}.cls-20{fill:url(#Gradient_bez_nazwy_3-2);}.cls-21{fill:url(#Gradient_bez_nazwy_4);}.cls-22{fill:url(#Gradient_bez_nazwy_2-6);}.cls-23{fill:url(#Gradient_bez_nazwy_2-7);}.cls-24{fill:#ea8f68;}.cls-25{fill:url(#Gradient_bez_nazwy_2-8);}.cls-26{fill:url(#Gradient_bez_nazwy_10);}.cls-27{fill:url(#Gradient_bez_nazwy_5-6);}.cls-28{fill:url(#Gradient_bez_nazwy_5-7);}.cls-29{fill:url(#Gradient_bez_nazwy_5-8);}.cls-30{fill:url(#Gradient_bez_nazwy_5-9);}.cls-31{fill:url(#Gradient_bez_nazwy_4-2);}.cls-32{fill:url(#Gradient_bez_nazwy_4-3);}.cls-33{fill:url(#Gradient_bez_nazwy_4-4);}.cls-34{fill:url(#Gradient_bez_nazwy_4-5);}.cls-35{fill:url(#Gradient_bez_nazwy_2-9);}.cls-36{fill:url(#Gradient_bez_nazwy_2-10);}</style><linearGradient id="Gradient_bez_nazwy_3" x1="9.28" y1="166.21" x2="17.1" y2="166.21" gradientUnits="userSpaceOnUse"><stop offset="0" stop-color="blue"/><stop offset="1" stop-color="#9e005d"/></linearGradient><linearGradient id="Gradient_bez_nazwy_5" x1="68.78" y1="32.6" x2="41.02" y2="40.25" gradientUnits="userSpaceOnUse"><stop offset="0" stop-color="#36078b"/><stop offset="1" stop-color="#16b1ff"/></linearGradient><linearGradient id="Gradient_bez_nazwy_5-2" x1="68.79" y1="32.65" x2="41.03" y2="40.3" xlink:href="#Gradient_bez_nazwy_5"/><linearGradient id="Gradient_bez_nazwy_5-3" x1="26.21" y1="41.52" x2="31.02" y2="82.88" xlink:href="#Gradient_bez_nazwy_5"/><linearGradient id="Gradient_bez_nazwy_2" x1="16.22" y1="85.71" x2="43.11" y2="85.71" gradientUnits="userSpaceOnUse"><stop offset="0" stop-color="#f70f47"/><stop offset="1" stop-color="#9e005d"/></linearGradient><linearGradient id="Gradient_bez_nazwy_2-2" x1="9.86" y1="141.45" x2="22.47" y2="141.45" xlink:href="#Gradient_bez_nazwy_2"/><linearGradient id="Gradient_bez_nazwy_2-3" x1="13.09" y1="104.47" x2="29.78" y2="104.47" xlink:href="#Gradient_bez_nazwy_2"/><linearGradient id="Gradient_bez_nazwy_2-4" x1="34.63" y1="143.48" x2="44.5" y2="143.48" xlink:href="#Gradient_bez_nazwy_2"/><linearGradient id="Gradient_bez_nazwy_2-5" x1="29.05" y1="104.31" x2="44.49" y2="104.31" xlink:href="#Gradient_bez_nazwy_2"/><linearGradient id="Gradient_bez_nazwy_5-4" x1="8.55" y1="43.57" x2="13.37" y2="84.93" xlink:href="#Gradient_bez_nazwy_5"/><linearGradient id="Gradient_bez_nazwy_5-5" x1="11.63" y1="43.22" x2="16.44" y2="84.58" xlink:href="#Gradient_bez_nazwy_5"/><linearGradient id="Gradient_bez_nazwy_3-2" x1="37.84" y1="167.27" x2="50.73" y2="167.27" xlink:href="#Gradient_bez_nazwy_3"/><linearGradient id="Gradient_bez_nazwy_4" x1="4219.28" y1="50.93" x2="4177.53" y2="20.82" gradientTransform="matrix(-1, 0, 0, 1, 4336.23, 0)" gradientUnits="userSpaceOnUse"><stop offset="0" stop-color="#2c27ce"/><stop offset="0.65" stop-color="#ef1d68"/><stop offset="1" stop-color="#efba92"/></linearGradient><linearGradient id="Gradient_bez_nazwy_2-6" x1="2786.06" y1="4762.25" x2="2773.16" y2="4794.4" gradientTransform="matrix(-0.61, -0.79, -0.79, 0.61, 5607.78, -680.78)" xlink:href="#Gradient_bez_nazwy_2"/><linearGradient id="Gradient_bez_nazwy_2-7" x1="-2170.11" y1="-738.69" x2="-2184.55" y2="-702.68" gradientTransform="matrix(0.7, 0.72, 0.72, -0.7, 2152.83, 1129.93)" xlink:href="#Gradient_bez_nazwy_2"/><linearGradient id="Gradient_bez_nazwy_2-8" x1="4196.11" y1="47.35" x2="4200.88" y2="88.3" gradientTransform="matrix(-1, 0, 0, 1, 4336.23, 0)" xlink:href="#Gradient_bez_nazwy_2"/><linearGradient id="Gradient_bez_nazwy_10" x1="4204.59" y1="75.81" x2="4185.7" y2="130.79" gradientTransform="matrix(-1, 0, 0, 1, 4336.23, 0)" gradientUnits="userSpaceOnUse"><stop offset="0" stop-color="#36078b"/><stop offset="1" stop-color="#168d68"/></linearGradient><linearGradient id="Gradient_bez_nazwy_5-6" x1="3998.9" y1="-769.8" x2="3979.59" y2="-713.61" gradientTransform="matrix(-0.99, 0.15, 0.15, 0.99, 4189.34, 224.01)" xlink:href="#Gradient_bez_nazwy_5"/><linearGradient id="Gradient_bez_nazwy_5-7" x1="4201.55" y1="74.76" x2="4182.66" y2="129.74" gradientTransform="matrix(-1, 0, 0, 1, 4336.23, 0)" xlink:href="#Gradient_bez_nazwy_5"/><linearGradient id="Gradient_bez_nazwy_5-8" x1="4228.46" y1="84.01" x2="4209.57" y2="138.99" gradientTransform="matrix(-1, 0, 0, 1, 4336.23, 0)" xlink:href="#Gradient_bez_nazwy_5"/><linearGradient id="Gradient_bez_nazwy_5-9" x1="4215.96" y1="79.72" x2="4197.08" y2="134.69" gradientTransform="matrix(-1, 0, 0, 1, 4336.23, 0)" xlink:href="#Gradient_bez_nazwy_5"/><linearGradient id="Gradient_bez_nazwy_4-2" x1="4210.44" y1="187.29" x2="4212.58" y2="160.98" xlink:href="#Gradient_bez_nazwy_4"/><linearGradient id="Gradient_bez_nazwy_4-3" x1="4180.26" y1="192.17" x2="4182.95" y2="159.01" xlink:href="#Gradient_bez_nazwy_4"/><linearGradient id="Gradient_bez_nazwy_4-4" x1="4214.26" y1="45.18" x2="4190.57" y2="18.15" xlink:href="#Gradient_bez_nazwy_4"/><linearGradient id="Gradient_bez_nazwy_4-5" x1="4219.13" y1="40.91" x2="4195.45" y2="13.88" xlink:href="#Gradient_bez_nazwy_4"/><linearGradient id="Gradient_bez_nazwy_2-9" x1="5601.66" y1="-1309.67" x2="5586.14" y2="-1270.99" gradientTransform="matrix(-0.71, 0.18, 0.26, 0.97, 4484.71, 277.43)" xlink:href="#Gradient_bez_nazwy_2"/><linearGradient id="Gradient_bez_nazwy_2-10" x1="-2093.61" y1="-3537.25" x2="-2104.91" y2="-3509.08" gradientTransform="matrix(0.67, -0.74, 0.74, 0.67, 4187.67, 831.24)" xlink:href="#Gradient_bez_nazwy_2"/></defs><title>kontent-box4</title><g class="cls-1"><g id="Слой_2" data-name="Слой 2"><g id="Designed_by_Freepik" data-name="Designed by Freepik"><circle class="cls-2" cx="90" cy="90" r="90"/></g><g id="Objects"><g class="cls-1"><path class="cls-3" d="M69.88,50c0-.16.09-.32.14-.48s.09-.39.14-.58.08-.31.11-.47.08-.4.12-.6.06-.3.09-.46.06-.42.09-.63,0-.29.06-.43,0-.42.06-.63,0-.28,0-.43,0-.46,0-.69,0-.25,0-.37q0-.53,0-1.06A15.43,15.43,0,0,0,65.89,31.8l-7-6.25a15.43,15.43,0,0,1,4.88,11.33q0,.53,0,1.06c0,.12,0,.25,0,.37s0,.46,0,.68,0,.29,0,.43,0,.42-.06.63,0,.29-.06.44-.06.42-.09.62-.06.3-.09.46-.07.4-.12.6-.08.32-.11.47-.09.39-.14.58-.09.32-.14.49-.1.37-.16.56-.11.33-.16.49-.12.37-.18.55c-.14.39-.29.79-.45,1.18l-.15.34c-.12.28-.24.56-.37.83l-.21.45-.26.53-.25.48-.29.53-.29.5-.24.41-.32.52-.26.4-.22.33c-.32.48-.65,1-1,1.41l-.07.09c-.32.42-.66.84-1,1.25l-.2.23q-.53.61-1.08,1.19l-.23.23c-.38.39-.77.77-1.16,1.14l0,0c-.43.39-.86.77-1.31,1.13l-.31.25-.36.28-.51.38-.38.27-.48.34-.49.33-.47.3-.5.31-.43.26-.79.44-.36.19c-.38.2-.76.39-1.15.56h0c-.46.21-.92.4-1.38.58l-.35.13c-.47.18-.94.34-1.42.49s-.76.22-1.14.32l-.36.08-.77.17-.41.08-.71.11-.41.06-.73.07-.36,0-1,0h-.11c-.35,0-.7,0-1,0l-.31,0-.67-.05-.73-.09-.41-.06-.86-.17-.26-.05-.26-.07-.7-.2-.35-.12-.59-.21-.29-.12-.58-.25-.3-.14-.62-.32-.18-.1q-.39-.22-.76-.47l-.16-.11L28,61.64l-.2-.15c-.23-.18-.46-.37-.68-.56l7,6.25.52.45.15.12.2.15.58.42.16.11.06,0c.23.15.46.29.7.43l.18.1.42.23.2.1.3.14.58.25.29.12.13.05L39,70l.35.12.7.2.26.07h0l.23,0,.85.17.41.06.73.09.15,0,.52,0,.31,0c.34,0,.69,0,1,0h.11l1,0,.36,0,.73-.07.41-.06.71-.11.41-.08.77-.17.36-.08c.38-.1.76-.2,1.14-.31s1-.31,1.42-.49l.35-.13c.47-.18.93-.37,1.38-.58h0c.39-.18.77-.37,1.15-.56l.36-.19.79-.44.2-.11.24-.15L57,67l.47-.31.48-.33.25-.17.24-.17.38-.27.51-.38.36-.28.16-.13.14-.12c.45-.37.88-.74,1.31-1.13h0l0,0c.4-.37.78-.75,1.16-1.14l.14-.14.09-.1q.56-.58,1.08-1.19l.08-.09.12-.15c.34-.41.68-.82,1-1.25l.05-.07v0c.35-.46.68-.93,1-1.41l.11-.15.12-.18.25-.4.33-.53.24-.41.15-.26.13-.25.29-.52.25-.48.26-.53.13-.27.08-.19c.13-.28.25-.55.37-.83l.15-.34c.16-.39.31-.78.45-1.18v0c.06-.18.12-.35.18-.53s.11-.32.16-.49S69.83,50.14,69.88,50Z"/><path class="cls-3" d="M52.12,17.27l.26-.05c.46-.09.92-.18,1.38-.26h0c.45-.07.9-.13,1.34-.18l.24,0,1.3-.11h.25c.44,0,.88,0,1.31,0h.06c.42,0,.84,0,1.26,0h.22l1.23.08.33,0,.53.06.37,0,.52.08.36.06.53.1.33.06.58.13.25.06c.43.1.85.22,1.26.35l.18.06q.6.19,1.19.41l.21.08c.35.13.69.27,1,.42l.13.06.92.44.19.09.89.48.18.11.73.45.19.12.8.55.16.12.64.49.21.17c.24.2.48.4.72.61h0l-7-6.25c-.23-.21-.48-.41-.72-.61l-.09-.07-.12-.09-.64-.49-.16-.12-.8-.55-.06,0L64.77,14,64,13.54l-.18-.11L63,12.94l-.07,0-.12-.06-.92-.44-.13-.06c-.34-.15-.68-.29-1-.42l-.11,0-.11,0q-.58-.22-1.18-.4l-.19-.06c-.41-.13-.83-.24-1.26-.35h0L57.6,11,57,10.86l-.33-.06-.53-.1-.36-.06-.52-.08-.37,0-.53-.06-.22,0h-.11l-1.23-.08h-.22c-.42,0-.83,0-1.26,0h-.06c-.43,0-.87,0-1.31,0h-.25l-1.3.11-.24,0c-.44.05-.89.11-1.34.18h0c-.46.07-.92.16-1.38.25l-.26.05-1.35.32-.26.07c-.47.12-.95.25-1.42.4s-1,.32-1.48.49l-.43.16-1.08.41-.43.17c-.48.2-1,.4-1.42.62h0c-.59.27-1.18.56-1.76.86l-.55.3-1.22.68-.3.17L33,15.9l-.76.47-.72.47-.75.5-.38.26-.37.27-.58.42-.78.59-.56.44-.25.2-.57.48-.43.36-1,.92-.19.17,0,0q-.58.54-1.15,1.1l-.34.34-.58.58-.23.25-.39.42-.73.8-.37.42-.2.22-.56.68-.28.34q-.49.61-1,1.23l0,0-.21.29c-.26.34-.51.69-.75,1l-.33.48-.41.59-.17.27-.39.61-.5.81-.37.63-.24.4-.2.38-.44.81-.39.74-.41.82-.2.41-.13.29c-.2.42-.38.85-.56,1.28l-.22.53c-.24.6-.48,1.2-.69,1.81v0c-.1.27-.18.54-.27.81s-.17.5-.25.74-.17.58-.25.87-.14.49-.21.74-.14.58-.21.87-.12.5-.18.75-.11.58-.17.87-.1.5-.14.75-.09.61-.13.92-.07.47-.1.71-.07.67-.1,1,0,.42-.06.63c0,.37,0,.74-.05,1.11,0,.17,0,.34,0,.52q0,.81,0,1.62c.21,7.38,3,13.38,7.51,17.42l7,6.25c-4.5-4-7.3-10-7.51-17.42q0-.81,0-1.62c0-.18,0-.36,0-.54,0-.36,0-.72.05-1.09s0-.45.06-.67.05-.64.09-1,.07-.48.1-.73.08-.6.13-.9.1-.5.14-.75.11-.59.17-.88.12-.5.18-.75.13-.58.21-.87.14-.5.21-.74.16-.58.25-.86.16-.49.24-.74.18-.57.28-.85c.21-.61.45-1.21.69-1.81L21.1,44c.18-.43.37-.85.56-1.28L22,42l.41-.82.39-.74.44-.81.44-.77.37-.63.5-.81.39-.61.58-.87.33-.47c.25-.35.5-.69.75-1l.21-.29q.49-.64,1-1.27l.28-.34.76-.9.37-.42.73-.8.39-.42.8-.82.34-.34q.58-.57,1.17-1.12l.18-.16,1-.92.43-.36.83-.68.56-.44.78-.59.58-.42.74-.52.75-.5.72-.47.76-.47.67-.4,1.22-.68.55-.3c.58-.3,1.17-.59,1.77-.87h0c.47-.21.94-.42,1.42-.61l.43-.17,1.08-.41.44-.16c.49-.17,1-.34,1.48-.49s1-.28,1.42-.4l.26-.07Z"/><path class="cls-3" d="M49.09,18.05c17.62-5.39,32.36,4.33,32.86,21.66s-13.42,35.81-31,41.2S18.54,76.58,18,59.25,31.46,23.44,49.09,18.05Zm1.5,51.87C62,66.42,71.1,54.4,70.77,43.13S60.86,25.54,49.4,29,28.89,44.57,29.21,55.84s9.92,17.59,21.37,14.09"/></g><g class="cls-1"><polygon class="cls-3" points="126.68 89.31 121.7 95.05 66.75 120.41 71.73 114.67 126.68 89.31"/><polygon class="cls-3" points="71.73 114.67 66.75 120.41 61.84 114.73 66.81 108.99 71.73 114.67"/><polygon class="cls-3" points="121.76 83.63 126.68 89.31 71.73 114.67 66.81 108.99 121.76 83.63"/></g><g class="cls-4"><polygon class="cls-3" points="71.73 114.67 66.75 120.41 61.84 114.73 66.81 108.99 71.73 114.67"/></g><g class="cls-1"><polygon class="cls-3" points="98.45 62.61 108.55 56.75 135.98 82.08 125.88 87.95 98.45 62.61"/><polygon class="cls-3" points="106.79 35.83 116.89 29.96 108.55 56.75 98.45 62.61 106.79 35.83"/><polygon class="cls-3" points="145.54 60.71 155.64 54.84 142.02 98.58 131.92 104.44 145.54 60.71"/><polygon class="cls-3" points="100.76 19.34 110.85 13.47 155.64 54.84 145.54 60.71 100.76 19.34"/><path class="cls-3" d="M100.76,19.34l44.79,41.37-13.62,43.74L87.13,63.07Zm25.13,68.61,8.34-26.78L106.79,35.83,98.45,62.61l27.43,25.33"/></g><g class="cls-1"><path class="cls-3" d="M50.76,83.69c0-.12,0-.24,0-.36s0-.06,0-.09,0,0,0-.06a6.39,6.39,0,0,0,0-.72s0,0,0,0,0,0,0-.07a6,6,0,0,0-.09-.62h0v0c0-.18-.08-.35-.13-.52l0-.07,0-.06c-.06-.17-.12-.34-.19-.5h0q-.08-.18-.17-.36l-4.58-8.61q.09.18.18.36c.07.16.13.33.19.5l0,.13c.05.17.1.34.13.52v0a6,6,0,0,1,.09.62v.12a6.4,6.4,0,0,1,0,.72s0,.1,0,.15,0,.24,0,.36,0,.11,0,.16-.05.34-.09.51h0c0,.2-.1.41-.16.62l0,.15c-.07.21-.14.41-.23.62h0c-.09.21-.19.42-.29.63l-.08.16c-.11.21-.23.42-.36.63s-.36.54-.56.8l-.26.33-.17.2-.38.42-.12.13-.11.11q-.28.28-.58.55l-.26.22-.41.33-.29.22-.37.26-.32.22-.35.22-.35.2L40,83l-.36.18-.37.18-.36.16-.42.17-.35.13-.5.16-.31.1c-.29.08-.59.16-.88.22l-.7.12-.21,0-.41,0c-.33,0-.66.05-1,.06a9.59,9.59,0,0,1-2.53-.31,6.33,6.33,0,0,1-4.13-3.06l4.58,8.61a6.33,6.33,0,0,0,4.13,3.06,9.59,9.59,0,0,0,2.53.31c.33,0,.66,0,1-.06h.12l.29,0,.21,0,.69-.12h0c.3-.06.59-.14.88-.22l.08,0,.23-.08.5-.16.13,0,.22-.09.42-.17.15-.06.21-.1.38-.18.16-.07.2-.11.36-.19.16-.08.19-.12.35-.22.15-.1.17-.12.37-.26.16-.11.14-.11.41-.33.17-.14.09-.08q.3-.26.57-.54l.09-.09,0,0,.12-.13.38-.42.17-.2.2-.24.06-.09c.2-.26.39-.53.56-.8s.25-.42.36-.63l.08-.16c.11-.21.2-.42.29-.63h0c.09-.21.16-.42.23-.62l0-.15c.06-.21.12-.41.16-.62h0c0-.17.07-.34.09-.52S50.76,83.75,50.76,83.69Z"/><path class="cls-3" d="M38.91,68.19a9.61,9.61,0,0,1,2.54.31c4.62,1.22,6.17,5.73,3.46,10.08a13.33,13.33,0,0,1-10.73,6,9.59,9.59,0,0,1-2.53-.31C27,83,25.47,78.51,28.18,74.16A13.31,13.31,0,0,1,38.91,68.19Z"/></g><g class="cls-1"><path class="cls-3" d="M71.77,149.89c0-.18,0-.36.07-.54s0-.2.06-.3.06-.32.1-.48.07-.23.11-.34.08-.29.13-.43c.1-.29.22-.58.35-.86l.17-.34.21-.4.24-.41.17-.27c.12-.19.25-.37.38-.55l.06-.09c.16-.21.32-.41.49-.6l.15-.17.38-.4.2-.2.37-.34.22-.19.38-.3.26-.2.35-.23L77,142l.27-.15.6-.31.41-.19.21-.09c.23-.09.47-.18.71-.25a8.54,8.54,0,0,1,.84-.21l.26,0,.55-.07.29,0h.79a6.36,6.36,0,0,1,.65.07h.07c.18,0,.36.08.53.13l.3.09.44.17.19.09a5.23,5.23,0,0,1,.57.33l.07.05a5.1,5.1,0,0,1,.52.4L62.41,121.51l-.19-.16-.33-.24-.07-.05,0,0a5.22,5.22,0,0,0-.48-.28l-.07,0-.19-.09-.28-.13-.15,0-.3-.09-.21-.07-.32-.06H59.7l-.49-.07h-1l-.3,0-.55.07-.26,0a8.55,8.55,0,0,0-.84.21c-.24.07-.47.16-.71.25l-.2.09-.26.11L55,121l-.59.31-.18.1-.09.06-.37.24-.26.17-.08.06-.26.2-.27.2-.12.1-.22.19-.2.17-.18.17-.2.2-.12.12-.26.29-.15.17,0,.05q-.23.26-.43.54h0l-.06.09c-.12.16-.23.32-.34.48l0,.07-.17.27-.19.31,0,.09-.21.4-.14.27,0,.07c-.13.28-.25.57-.35.86h0c0,.14-.09.28-.13.42s-.08.23-.11.34-.07.3-.1.46-.05.21-.07.32,0,.33-.06.49,0,.19,0,.29a7.78,7.78,0,0,0,0,.78,5.71,5.71,0,0,0,1.8,4.19l22.87,20.53a5.71,5.71,0,0,1-1.8-4.19,7.8,7.8,0,0,1,0-.78C71.74,150.05,71.76,150,71.77,149.89Z"/><path class="cls-3" d="M79.18,141c4.24-1.3,7.78,1,7.9,5.2s-3.22,8.6-7.46,9.9-7.78-1-7.9-5.2S74.94,142.31,79.18,141Z"/></g><g class="cls-1"><polygon class="cls-3" points="93.03 104.22 80.24 104.33 72.5 68.63 85.29 68.52 93.03 104.22"/><polygon class="cls-3" points="43.49 99.44 30.7 99.54 77.86 47 90.65 46.9 43.49 99.44"/><polygon class="cls-3" points="106.58 120.43 93.79 120.54 30.7 99.54 43.49 99.44 106.58 120.43"/><path class="cls-3" d="M90.65,46.9l15.92,73.54-63.08-21ZM62.4,94,93,104.22l-7.73-35.7L62.4,94"/></g><g class="cls-5"><polygon class="cls-3" points="106.58 120.43 93.79 120.54 30.7 99.54 43.49 99.44 106.58 120.43"/></g><path class="cls-6" d="M14.74,163.63A13.25,13.25,0,0,1,15,165.9c.15.92,1,1.25,1.53,2s1.43,2.16-2,2.22c-3.66.07-5.82-.17-5.2-2.16a10.13,10.13,0,0,0,.7-3.52,2.15,2.15,0,0,1,.41-1.72C10.92,162.33,14.2,161.63,14.74,163.63Z"/><path class="cls-7" d="M64,26.81c.16,2,0,3.44-2.38,7.62A58,58,0,0,1,54,45.37c-2,2.16-6.48-3.26-4.47-6.69,1.7-2.9,11-10.8,12-12.57C62.22,24.95,63.84,25.15,64,26.81Z"/><path class="cls-8" d="M52.78,45.82c-1.58.31-5.19.46-13.77-1.45a56.19,56.19,0,0,1-8.93-2.62c-2.76-1-3.17-4-2.14-5.2,1.66-1.86,5.17-3.26,6.65-2.8C43,36.3,49.22,38.77,51.35,39,54.46,39.41,54.65,45.46,52.78,45.82Z"/><path class="cls-9" d="M30.73,23.19c1.5.7,2.15.71,2.69-1.15.42-1.44,1.13-6.52-1.19-6.86s-4.13-.41-3.86,2.72S29,22.35,30.73,23.19Z"/><path class="cls-10" d="M22,25.91c0,.23-.54,5.09-.63,8.82A3.85,3.85,0,0,0,25,38.34h.08c1.79,0,3.9-1.62,3.74-3.42a48.25,48.25,0,0,1-.06-6.62Z"/><path class="cls-11" d="M12.93,46.15c3.33,11,4.82,24.24,4.17,31.89H42.19S42,54.54,40.37,41.67a9.63,9.63,0,0,0-5.29-7.38,18,18,0,0,0-6.69-1.48H23.75a28,28,0,0,0-4.89.61C12.21,34.67,11,39.8,12.93,46.15Z"/><path class="cls-12" d="M17.21,93.39S15,88.12,17.11,78H42.19a142.59,142.59,0,0,1,.91,15.35Z"/><path class="cls-13" d="M22.16,126.22c2-8.17-6.33-9.6-9-3.7-3.72,8.36-3.43,35.07-3.23,40.4,0,.7.4.57.81.43a6.23,6.23,0,0,1,2.65-.48,2.29,2.29,0,0,1,1.4,1.1C15.61,156.71,20.22,134.13,22.16,126.22Z"/><path class="cls-14" d="M29.66,94.49c.88-10.15-3.14-18-9.43-14.68-2.65,1.41-3.62,4.23-4,6.89s-2.31,30.26-3,35.25c-1.54,11.25,7.34,8.22,8.3,5.1C24,119.18,29.18,100,29.66,94.49Z"/><path class="cls-15" d="M44.49,125.7c.33-7.62-7.08-7.45-8.95-1.26-2.93,9.75,2.14,30.68,2.45,42.63,1.29-2.06,2.51-2.57,3.09-2.52a2.07,2.07,0,0,1,1.44.78C42.33,149.58,44.14,133.84,44.49,125.7Z"/><path class="cls-16" d="M35.84,126.52c1,3.11,9.47,6.71,8.59-4.61-.39-5-1.44-32.74-1.64-35.41s-.66-6.58-2-7.06C34.08,77,27.58,85,29.34,95,30.52,101.71,33.8,120.07,35.84,126.52Z"/><path class="cls-17" d="M16.9,72.32c-2-.56-3-2-6.34-5.47-4.81-5-5.62-6.54-7.45-10.65-1.19-2.69,5.16-4.63,7.68-1.56,2.13,2.6,6.31,14.07,7.61,15.64C19.26,71.33,18.51,72.78,16.9,72.32Z"/><path class="cls-18" d="M3,55.23c.26-1.59,1.37-5,6.14-12.41a56.19,56.19,0,0,1,5.55-7.47c1.92-2.23,4.9-1.57,5.62-.2,1.17,2.21,1.26,6,.32,7.21-5.29,7-9.78,12-10.76,13.88C8.39,59,2.65,57.11,3,55.23Z"/><path class="cls-19" d="M19.53,22.39c.41,4.15.54,5.07,2.35,6.77a9.79,9.79,0,0,0,6.37,2.48c2.12,0,3.7-2.24,4.18-4A30.21,30.21,0,0,0,32.91,17a6.71,6.71,0,0,0-6.08-5.1C23.9,11.9,18.51,12.24,19.53,22.39Z"/><path class="cls-19" d="M16.15,69.71c1-1.05,2.47-2.69,3.21-3.63s2.94.67,3,1.48c.07,1.2-1.14,4.48-2.68,4.48s-2,1.4-3.29,1S14.58,71.43,16.15,69.71Z"/><path class="cls-20" d="M42.83,165.29a8.51,8.51,0,0,0,3.55,2.59c1.9.82,5.92,1.2,3.69,1.92a13.88,13.88,0,0,1-6.16.08,27.9,27.9,0,0,0-4.16-.24c-2.05,0-2.07-.13-1.79-2.37C38.34,164.2,41.91,163.55,42.83,165.29Z"/><path class="cls-9" d="M19.53,21.74c1.12,1.12,1.71,1.34,2.8-.16.85-1.17,3.15-5.52,1.17-6.59s-3.6-1.72-4.38,1.2S18.2,20.41,19.53,21.74Z"/><ellipse class="cls-19" cx="19.4" cy="22.99" rx="1.47" ry="2.81" transform="translate(-7.26 9.04) rotate(-22.22)"/><path class="cls-9" d="M20.8,14.21c1.62,2.41,9.43,2.64,12,1.75s2.37-5.82-1.27-6.16c-2.05,0-.57.49-2.23,1.16C28.43,11.31,19.08,11.63,20.8,14.21Z"/><path class="cls-19" d="M61.2,26.33c.46-1.26,4.53-10.94,6.14-9.32,1.78,1.79,1,6,.57,7.37-.79,2.52-3.18,4-4.78,3.91C62,28.21,60.77,27.53,61.2,26.33Z"/><path class="cls-19" d="M61,25.6c-.06-.61-.4-4.24.28-4.36,1-.17,1.37,2.2,1.6,3.76.13.85-.27,2.08-1,2.09S61.08,26.58,61,25.6Z"/><path class="cls-21" d="M142.82,17.49c-1.5-2.11.22-5.84,4.48-6.19,4.86-.4,13.49,2.4,8.86,13.73-4.82,11.79-3.31,14.8-.07,16.57,0,0-11.13.89-10.28-8.83S146.3,22.4,142.82,17.49Z"/><path class="cls-22" d="M119.84,49.25c2-.86,7.31-4.43,14.53-8.91a9.81,9.81,0,0,1,6.92-.55c1.47.5,2.25,2.78-.06,4.4a62.61,62.61,0,0,1-7.76,4.71c-7.68,4.1-11.29,5.14-13,5.42C118.52,54.66,116.93,50.51,119.84,49.25Z"/><path class="cls-23" d="M126.87,67.66c-.6-1.65-7.49-12.27-8.48-15-1.17-3.21,2.86-4.3,4.3-1.89a35.54,35.54,0,0,1,4.59,10.62c1.14,3.83,2.52,4.42,2.11,5.6C129.06,68,127.27,68.75,126.87,67.66Z"/><path class="cls-24" d="M144.49,31.63c0,.24.41,5.39.48,9.35,0,1.94-1.37,3.78-2.76,3.82h-.06c-1.37,0-3-1.72-2.86-3.62.22-3.44.06-7,0-7Z"/><path class="cls-25" d="M148.49,53.9A67.32,67.32,0,0,0,146,64.72a27.42,27.42,0,0,0,0,8.15c.22,1.63.54,3.24.91,4.84.14.61,1.33,5.49,1.39,6H126c.21-4.37,5.19-18.1,1.82-27-2.33-6.16.77-6.34,2.87-11.47a15.06,15.06,0,0,1,1.78-3.72,6.41,6.41,0,0,1,3.41-2.09,12.71,12.71,0,0,1,2.07-.29c3.77-.3,12.66-1.4,13.5,4a9.51,9.51,0,0,1-.44,4.34c-.5,1.57-1.24,3-1.87,4.56Q148.81,53,148.49,53.9Z"/><path class="cls-26" d="M148.25,97.87s1.93-4.86.09-14.16H126a136.44,136.44,0,0,0-.81,14.16Z"/><path class="cls-27" d="M144.29,129.16c-2.93-7.17,4.2-9.62,7.35-4.6,4.46,7.1,6.4,33.38,7,38.27.08.64-.27.57-.65.5-1.1-.21-.64-1.24-2.21-1.15-.83.05-1.07,1.19-1.07,1.19C153,156.85,147.12,136.1,144.29,129.16Z"/><path class="cls-28" d="M137.18,98.89c-.78-9.36,2.79-16.63,8.38-13.54,2.35,1.3,3.22,3.9,3.53,6.35s2,27.92,2.66,32.52c1.37,10.37-6.53,7.58-7.38,4.7C142.21,121.67,137.61,104,137.18,98.89Z"/><path class="cls-29" d="M124,127.68c-.29-7,6.3-6.87,8-1.16,2.61,9-1.9,28.3-2.18,39.33-1.15-1.9-2.23-2.37-2.74-2.33a1.83,1.83,0,0,0-1.28.72C125.92,149.72,124.31,135.19,124,127.68Z"/><path class="cls-30" d="M131.69,128.44c-.88,2.87-8.42,6.19-7.63-4.25.35-4.63,1.28-30.2,1.46-32.66s.59-6.07,1.78-6.52c6-2.25,11.73,5.1,10.17,14.36C136.42,105.55,133.51,122.49,131.69,128.44Z"/><path class="cls-19" d="M147.17,27.9c-.44,4.4-.57,5.37-2.49,7.18a10.37,10.37,0,0,1-6.76,2.63c-2.25,0-3.92-2.38-4.43-4.24A32,32,0,0,1,133,22.19c.32-2.44,3.33-5.4,6.44-5.4S148.24,17.15,147.17,27.9Z"/><path class="cls-31" d="M125.47,164.2a7.61,7.61,0,0,1-3.16,2.39c-1.69.75-5.26,1.11-3.28,1.77a11.89,11.89,0,0,0,5.48.07,23.77,23.77,0,0,1,3.7-.22c1.82,0,1.84-.12,1.59-2.18C129.47,163.2,126.3,162.6,125.47,164.2Z"/><path class="cls-32" d="M154.74,163c-.26.5-.52,2.89-2.21,3.65s-5.26,1.11-3.28,1.77a11.89,11.89,0,0,0,5.48.07c1.17-.19,1.36-1.47,2.74-1.48,1.82,0,1.84-.12,1.59-2.18C158.73,162,155.56,161.35,154.74,163Z"/><path class="cls-33" d="M133.72,19.89c-1.72,2.94,10.8,8.34,13.58,7.87s2.76-6.37.61-9.07S137.78,12.95,133.72,19.89Z"/><path class="cls-34" d="M138.36,19.15c-.45,2.49-4.82,3.06-5.56,5.12-.46,1.28-.68-2.76.35-4.59S139.27,14.14,138.36,19.15Z"/><ellipse class="cls-19" cx="147.3" cy="28.54" rx="2.98" ry="1.56" transform="translate(65.19 154.12) rotate(-67.79)"/><path class="cls-19" d="M171.86,44.93a8.07,8.07,0,0,1,1-3.68c.58-.77.42,1.3.41,2.31S171.78,46,171.86,44.93Z"/><path class="cls-19" d="M172.83,43.85c1.52-2.29,2-3.76,3.15-4.36s1.25,1.91.84,2.79-1.69,4.11-2.8,4.39S171.7,45.54,172.83,43.85Z"/><path class="cls-35" d="M159.68,60.61c-1.27-1.76-5.89-6.2-11.81-12.29a9.81,9.81,0,0,1-2-6.64c.17-1.54,2.24-2.79,4.31-.88a62.49,62.49,0,0,1,6.26,6.57c5.64,6.62,7.44,9.93,8.07,11.5C165.24,60.74,161.53,63.19,159.68,60.61Z"/><path class="cls-36" d="M174.18,45.87c.16,1.29-1.38,1.58-3.38,5.23a37,37,0,0,1-7,9.77c-2,2.13-5.85.12-4-2.88,1.61-2.53,11-11.79,11.93-13.34C172.4,43.63,174.05,44.82,174.18,45.87Z"/><path class="cls-19" d="M127.13,66a9.61,9.61,0,0,0-2.29,2c-.39.51-.39,1.32.34,1.45a4.77,4.77,0,0,0,3.25-1.08,3.32,3.32,0,0,0,.62-2.37C128.93,65.23,128.18,65.28,127.13,66Z"/></g></g></g></svg>