<?xml version="1.0" encoding="utf-8"?>
<!-- Generator: Adobe Illustrator 21.0.0, SVG Export Plug-In . SVG Version: 6.00 Build 0)  -->
<svg version="1.1" id="Слой_1" xmlns="http://www.w3.org/2000/svg" xmlns:xlink="http://www.w3.org/1999/xlink" x="0px" y="0px"
	 viewBox="0 0 159.8 173.4" style="enable-background:new 0 0 159.8 173.4;" xml:space="preserve">
<style type="text/css">
	.st0{fill:none;stroke:#0037FF;stroke-linecap:round;stroke-linejoin:round;}
	.st1{opacity:0.5;fill:none;stroke:#0037FF;stroke-linecap:round;stroke-linejoin:round;enable-background:new    ;}
	.st2{opacity:0.6;}
	.st3{opacity:0.6;fill:none;stroke:#0037FF;stroke-linecap:round;stroke-linejoin:round;enable-background:new    ;}
	.st4{fill:#FFAF84;}
	.st5{fill:url(#SVGID_1_);}
	.st6{fill:url(#SVGID_2_);}
	.st7{fill:url(#SVGID_3_);}
	.st8{fill:url(#SVGID_4_);}
	.st9{fill:#ED9169;}
	.st10{fill:url(#SVGID_5_);}
	.st11{fill:url(#SVGID_6_);}
	.st12{fill:url(#SVGID_7_);}
	.st13{fill:url(#SVGID_8_);}
	.st14{fill:url(#SVGID_9_);}
	.st15{fill:url(#SVGID_10_);}
	.st16{fill:url(#SVGID_11_);}
	.st17{fill:url(#SVGID_12_);}
	.st18{fill:url(#SVGID_13_);}
</style>
<title>kontentshik</title>
<g>
	<g id="Слой_2">
		<g id="Objects">
			<polygon class="st0" points="159.3,17.7 159.3,110.3 29.6,110.3 29.6,25.9 			"/>
			<polygon class="st1" points="158.3,108.7 29.7,109.2 29.7,25.9 158.3,17.3 			"/>
			<polygon class="st0" points="159.3,17.7 29.6,25.9 29.6,13.7 159.3,4.3 			"/>
			<polygon class="st0" points="156.6,15 31.8,23.2 31.8,19.2 156.6,10.6 			"/>
			<polygon class="st0" points="33.7,17.7 31.8,17.8 31.8,15.7 33.7,15.6 			"/>
			<polygon class="st0" points="37.1,17.4 35.2,17.6 35.2,15.5 37.1,15.3 			"/>
			<polygon class="st0" points="40.6,17.2 38.6,17.3 38.6,15.2 40.6,15.1 			"/>
			<polygon class="st1" points="35.2,100.4 155.2,95.4 155.2,22 35.2,30.1 			"/>
			<path class="st0" d="M40.9,46.4c-0.4,0-0.8-0.2-1.1-0.5c-0.4-0.3-0.6-0.8-0.6-1.3V35c0-1,0.7-1.8,1.7-1.9l108.4-7
				c1-0.1,1.8,0.7,1.9,1.7c0,0,0,0.1,0,0.1v10c0,1-0.8,1.9-1.8,1.9L40.9,46.4L40.9,46.4z M149.5,27L149.5,27L41,34
				c-0.5,0-0.9,0.5-0.9,1v9.6c0,0.3,0.1,0.5,0.3,0.7c0.2,0.2,0.4,0.2,0.6,0.2L149.4,39c0.6-0.1,1-0.5,1-1.1V28
				c0-0.3-0.1-0.5-0.3-0.7C150,27.1,149.8,27,149.5,27z"/>
			<path class="st0" d="M41,62.7c-0.4,0-0.9-0.2-1.2-0.5c-0.4-0.3-0.6-0.8-0.6-1.3v-9.6c0-1,0.7-1.8,1.7-1.9l108.5-6.3
				c0.5,0,1,0.1,1.3,0.5c0.4,0.3,0.6,0.8,0.6,1.3v10c0,1-0.8,1.9-1.8,1.9L41,62.7L41,62.7z M149.5,44L149.5,44L41,50.3
				c-0.5,0-0.9,0.5-0.9,1v9.6c0,0.3,0.1,0.5,0.3,0.7c0.2,0.2,0.4,0.2,0.6,0.2L149.4,56c0.6,0,1-0.5,1-1.1V45c0-0.3-0.1-0.5-0.3-0.7
				C150,44.1,149.8,44,149.5,44z"/>
			<path class="st0" d="M41,79.1c-0.4,0-0.9-0.2-1.2-0.5c-0.4-0.3-0.6-0.8-0.6-1.3v-9.6c0-1,0.8-1.8,1.7-1.8l108.5-5.6
				c0.5,0,1,0.2,1.3,0.5c0.4,0.3,0.6,0.8,0.6,1.3v10c0,1-0.8,1.9-1.9,1.9L41,79.1L41,79.1z M149.5,61.1L149.5,61.1L41,66.7
				c-0.5,0-0.9,0.5-0.9,1v9.6c0,0.3,0.1,0.5,0.3,0.7c0.2,0.2,0.4,0.2,0.6,0.2l108.4-5.1c0.6,0,1-0.5,1-1.1V62c0-0.3-0.1-0.5-0.3-0.7
				C150,61.2,149.8,61,149.5,61.1L149.5,61.1z"/>
			<path class="st0" d="M41,95.4c-0.4,0-0.9-0.2-1.2-0.5c-0.4-0.3-0.6-0.8-0.6-1.3V84c0-1,0.8-1.8,1.7-1.8l108.5-5
				c0.5,0,1,0.2,1.3,0.5c0.4,0.3,0.6,0.8,0.6,1.3v10c0,1-0.8,1.9-1.9,1.9L41,95.4L41,95.4z M41,94.5L41,94.5l108.4-4.5
				c0.6,0,1-0.4,1-1v-10c0-0.3-0.1-0.5-0.3-0.7c-0.2-0.2-0.4-0.3-0.7-0.3L41,83.1c-0.5,0-0.9,0.5-0.9,1v9.5c0,0.3,0.1,0.5,0.3,0.7
				C40.5,94.5,40.8,94.6,41,94.5L41,94.5z"/>
			<polygon class="st1" points="122.7,67.2 147.2,66.4 147.2,64.5 122.7,65.2 			"/>
			<polygon class="st1" points="130.6,70.4 147.2,69.9 147.2,68 130.6,68.4 			"/>
			<polygon class="st1" points="124.7,70.5 128.7,70.4 128.7,68.5 124.7,68.6 			"/>
			<polygon class="st1" points="122.7,34.3 147.2,32.9 147.2,31 122.7,32.3 			"/>
			<polygon class="st1" points="132.5,37.2 147.2,36.4 147.2,34.5 132.5,35.2 			"/>
			<polygon class="st1" points="115.5,38.1 130.6,37.3 130.6,35.3 115.5,36.1 			"/>
			<polygon class="st1" points="137.3,83.6 147.2,83.4 147.2,81.4 137.3,81.6 			"/>
			<polygon class="st1" points="125.8,83.8 135.5,83.6 135.5,81.6 125.8,81.8 			"/>
			<polygon class="st1" points="130.6,87.1 147.2,86.9 147.2,84.9 130.6,85.2 			"/>
			<polygon class="st1" points="112.8,87.4 128.7,87.2 128.7,85.2 112.8,85.5 			"/>
			<path class="st0" d="M38.5,42.9l108.4-6.8c0.8,0,1.4-0.7,1.4-1.5v-10c0-0.8-0.6-1.4-1.3-1.4c0,0-0.1,0-0.1,0L38.5,30.5
				c-0.8,0.1-1.3,0.7-1.3,1.5v9.6C37.1,42.3,37.7,42.9,38.5,42.9C38.4,42.9,38.5,42.9,38.5,42.9z"/>
			<g class="st2">
				<polygon class="st0" points="106.8,34.6 59,37.5 59,39 106.8,36 				"/>
				<polygon class="st0" points="106.8,32 59,34.9 59,36.4 106.8,33.5 				"/>
				<polygon class="st0" points="80.4,30.9 59,32.3 59,33.8 80.4,32.4 				"/>
			</g>
			<polygon class="st0" points="48.5,39.5 54.9,39.2 54.9,32.6 48.5,32.9 			"/>
			<polygon class="st3" points="41.2,39.7 47.5,39.4 47.5,32.9 41.2,33.2 			"/>
			<path class="st4" d="M69.6,81.1c1.6,0.4,4.1,1,5.5,1.2s1,3.3,0.2,3.8c-1.2,0.8-5.2,1.4-6-0.2s-2.5-1.2-2.8-2.8
				S66.9,80.4,69.6,81.1z"/>
			
				<linearGradient id="SVGID_1_" gradientUnits="userSpaceOnUse" x1="-5619.7437" y1="-51.5414" x2="-5617.2036" y2="-17.8614" gradientTransform="matrix(-1 4.000000e-02 -4.000000e-02 -1 -5565.5615 339.0399)">
				<stop  offset="0" style="stop-color:#36078B"/>
				<stop  offset="1" style="stop-color:#16B1FF"/>
			</linearGradient>
			<path class="st5" d="M55.1,167.9c1.1,1.3,2.6,2.3,4.2,2.8c2.2,0.9,6.9,1.1,4.3,2.1c-2.6,0.9-5.6,0.5-7.1,0.4
				c-1.6-0.2-3.2-0.2-4.8-0.1c-2.4,0.1-2.4-0.1-2.2-2.7C49.9,166.9,54,166,55.1,167.9z"/>
			
				<linearGradient id="SVGID_2_" gradientUnits="userSpaceOnUse" x1="-5570.3296" y1="-55.2672" x2="-5567.7896" y2="-21.5872" gradientTransform="matrix(-1 4.000000e-02 -4.000000e-02 -1 -5565.5615 339.0399)">
				<stop  offset="0" style="stop-color:#36078B"/>
				<stop  offset="1" style="stop-color:#16B1FF"/>
			</linearGradient>
			<path class="st6" d="M5.5,164.4c0.3,0.6,1.4,4,3.6,4.9s6.2,1.9,3.6,2.8s-5.6,0.5-7.1,0.4s-1.9-2.1-3.5-2.9
				c-2.5-1.3-2.2-1.1-1.9-3.7c0-1.6,1.3-2.8,2.9-2.8C4,163,4.9,163.6,5.5,164.4z"/>
			
				<linearGradient id="SVGID_3_" gradientUnits="userSpaceOnUse" x1="-1845.3605" y1="592.0927" x2="-1803.3905" y2="562.1027" gradientTransform="matrix(0.9753 0.2209 0.2209 -0.9753 1717.8702 1030.1248)">
				<stop  offset="0" style="stop-color:#36078B"/>
				<stop  offset="1" style="stop-color:#16B1FF"/>
			</linearGradient>
			<path class="st7" d="M70.7,80.7c-1.9-2.2-3-5.6-4.3-8.2c-1.7-3.5-3.3-6.9-5.8-9.8c-0.3-0.3-0.6-0.7-0.8-1.1
				c-0.7-1.3-0.7-3.4-0.9-4.9s-0.3-3.3-0.4-4.9c-0.3-4.7-0.6-9.5-0.9-14.2c-0.1-1.8-3.3-5.1-6-4.4c-3.1,0.8-4,2.2-4,5.6
				c0,3.6,0.4,7.2,1,10.7c1.1,7.3,2.7,15.1,7.4,21.1c1.8,2.3,3.7,4.7,5.6,7c3.6,4.2,5.1,4.9,7.4,5.5C70.9,83.6,71.7,81.9,70.7,80.7z
				"/>
			
				<linearGradient id="SVGID_4_" gradientUnits="userSpaceOnUse" x1="-5632.6572" y1="95.7261" x2="-5600.8975" y2="131.2762" gradientTransform="matrix(-1 4.000000e-02 -4.000000e-02 -1 -5565.5615 339.0399)">
				<stop  offset="0" style="stop-color:#2C27CE"/>
				<stop  offset="0.65" style="stop-color:#EF1D68"/>
				<stop  offset="1" style="stop-color:#EFBA92"/>
			</linearGradient>
			<path class="st8" d="M53.5,15c1.6,1.3,2.4,1.5,3.6-0.6c0.1-0.1,6.4-6.2,0.6-8.6C55,4.7,52.9,4.1,52.3,8S51.7,13.5,53.5,15z"/>
			<path class="st9" d="M43.3,15.4c-0.1,0.3-2.8,5.6-4.5,9.9c-0.7,2.3,0.4,4.8,2.6,5.7h0.1c2.1,0.8,5.2-0.2,5.8-2.3
				c0.7-2.6,1.7-5.2,2.8-7.7L43.3,15.4z"/>
			
				<linearGradient id="SVGID_5_" gradientUnits="userSpaceOnUse" x1="-2165.4946" y1="52.7544" x2="-2085.0544" y2="114.2544" gradientTransform="matrix(1 -4.000000e-02 -4.000000e-02 -1 2178.624 45.6981)">
				<stop  offset="0" style="stop-color:#36078B"/>
				<stop  offset="1" style="stop-color:#16B1FF"/>
			</linearGradient>
			<path class="st10" d="M27.9,37.8c1.6,13.1,0.7,34-1.6,42.6l29-1.1c0,0,1.7-18.7,3.1-35c0.3-3,0.2-6-0.4-9
				c-0.7-2.9-2.6-5.5-5.1-7.1c-2.3-1.4-4.8-2.3-7.4-2.8c-2.3-0.6-4.7-0.9-7.1-1c-3.3,0-6.9,0.7-8.8,3.5c-1.8,2.5-2,5.8-1.8,8.7
				C27.8,37,27.8,37.4,27.9,37.8z"/>
			
				<linearGradient id="SVGID_6_" gradientUnits="userSpaceOnUse" x1="-5624.9619" y1="-47.5976" x2="-5610.2217" y2="15.5524" gradientTransform="matrix(-1 4.000000e-02 -4.000000e-02 -1 -5565.5615 339.0399)">
				<stop  offset="0" style="stop-color:#FF664F"/>
				<stop  offset="1" style="stop-color:#9E005D"/>
			</linearGradient>
			<path class="st11" d="M27.1,98.2c0,0-2.7-6-0.8-17.7l29-1.1c0.9,5.9,1.5,11.8,1.7,17.7L27.1,98.2z"/>
			
				<linearGradient id="SVGID_7_" gradientUnits="userSpaceOnUse" x1="-5591.7632" y1="-72.8564" x2="-5572.6133" y2="9.1636" gradientTransform="matrix(-1 4.000000e-02 -4.000000e-02 -1 -5565.5615 339.0399)">
				<stop  offset="0" style="stop-color:#FF664F"/>
				<stop  offset="1" style="stop-color:#9E005D"/>
			</linearGradient>
			<path class="st12" d="M30,132.8c6.8-7,2.9-13-4.1-10.4c-9.9,3.6-20.7,36.7-25,41.2c-0.6,0.6-0.2,0.8,0.3,1
				c1.3,0.6,2.1-0.4,3.7,0.1c0.6,0.2,1.5,1.9,1.5,1.9C13.1,159,23.5,139.5,30,132.8z"/>
			
				<linearGradient id="SVGID_8_" gradientUnits="userSpaceOnUse" x1="-5611.3882" y1="-50.7741" x2="-5596.6382" y2="12.3759" gradientTransform="matrix(-1 4.000000e-02 -4.000000e-02 -1 -5565.5615 339.0399)">
				<stop  offset="0" style="stop-color:#FF664F"/>
				<stop  offset="1" style="stop-color:#9E005D"/>
			</linearGradient>
			<path class="st13" d="M41.6,98.9c0.6-11.8-4.4-20.7-11.5-16.6c-3,1.7-4,5-4.3,8.1s-1.7,26.7-2.2,32.5c-1.3,13.1,9.6,8.9,10.6,5.2
				C36.6,119,41.2,105.3,41.6,98.9z"/>
			
				<linearGradient id="SVGID_9_" gradientUnits="userSpaceOnUse" x1="-5625.3154" y1="-59.1279" x2="-5607.5854" y2="16.7921" gradientTransform="matrix(-1 4.000000e-02 -4.000000e-02 -1 -5565.5615 339.0399)">
				<stop  offset="0" style="stop-color:#FF664F"/>
				<stop  offset="1" style="stop-color:#9E005D"/>
			</linearGradient>
			<path class="st14" d="M59.6,123.8c-0.4-8.8-5.2-10.7-9.4-4.6c-6.7,9.7,0.1,39.3-0.6,50.9c1.5-1.3,3.5-1.9,5.4-1.5
				c1,0.4,0.2-1.2,0.2-1.2C58.9,149.3,60.1,131.6,59.6,123.8z"/>
			
				<linearGradient id="SVGID_10_" gradientUnits="userSpaceOnUse" x1="-5630.6377" y1="-46.2722" x2="-5615.8877" y2="16.8678" gradientTransform="matrix(-1 4.000000e-02 -4.000000e-02 -1 -5565.5615 339.0399)">
				<stop  offset="0" style="stop-color:#FF664F"/>
				<stop  offset="1" style="stop-color:#9E005D"/>
			</linearGradient>
			<path class="st15" d="M48.2,126.1c1.3,3.6,12.8,8.5,11.3-4.5c-0.7-5.8-2.8-29.4-3.1-32.5s-1.1-7.6-2.6-8.1
				c-7.8-2.5-15,7-12.5,18.5C42.9,107.2,45.6,118.7,48.2,126.1z"/>
			
				<linearGradient id="SVGID_11_" gradientUnits="userSpaceOnUse" x1="-5632.9609" y1="66.8317" x2="-5592.2407" y2="110.4717" gradientTransform="matrix(-1 4.000000e-02 -4.000000e-02 -1 -5567.6118 339.1199)">
				<stop  offset="0" style="stop-color:#36078B"/>
				<stop  offset="1" style="stop-color:#16B1FF"/>
			</linearGradient>
			<path class="st16" d="M45.7,53.5c-2.2-1.8-4.2-3.8-6.1-6c-1.4-1.7-2.8-3.5-4.2-5.3c-2.2-2.8-4.2-5.8-5.9-9c-1.6-3,0-6.5,2.5-7.3
				c2.8-0.8,4.5,0.8,7.5,3.7c6.8,6.6,10.1,15.8,11.8,18.5c0.5,0,0-0.1,0.5,0c3.8,1,17.5-9.4,24-10.8c1.5-0.3,3.7,3.2,1.9,3.9
				c-2.2,0.8-8.6,6.5-13.4,9.6c-4,2.6-10.5,7.1-13.7,5.7c-1.7-0.7-3.3-1.6-4.8-2.7L45.7,53.5z"/>
			<path class="st4" d="M41.2,11.8c-0.7,5.1-0.8,6.2,0.8,8.8c1.6,2.4,4.1,4.1,6.9,4.8c2.5,0.6,5.1-1.6,6.2-3.6c2-4,3.2-8.2,3.7-12.6
				c0.3-2.9-2.3-7-5.8-7.9S43-0.7,41.2,11.8z"/>
			
				<linearGradient id="SVGID_12_" gradientUnits="userSpaceOnUse" x1="-5628.1064" y1="91.671" x2="-5596.3467" y2="127.211" gradientTransform="matrix(-1 4.000000e-02 -4.000000e-02 -1 -5565.5615 339.0399)">
				<stop  offset="0" style="stop-color:#2C27CE"/>
				<stop  offset="0.65" style="stop-color:#EF1D68"/>
				<stop  offset="1" style="stop-color:#EFBA92"/>
			</linearGradient>
			<path class="st17" d="M41.4,11c1,1.7,1.7,2.1,3.4,0.6c1.4-1.1,5.4-5.7,3.3-7.5S44.3,1,42.6,4.2S40.2,9,41.4,11z"/>
			<ellipse transform="matrix(0.9891 -0.1475 0.1475 0.9891 -1.3923 6.1673)" class="st4" cx="40.9" cy="12.5" rx="1.8" ry="3.5"/>
			
				<linearGradient id="SVGID_13_" gradientUnits="userSpaceOnUse" x1="-5635.4717" y1="98.2465" x2="-5603.7114" y2="133.7865" gradientTransform="matrix(-1 4.000000e-02 -4.000000e-02 -1 -5565.5615 339.0399)">
				<stop  offset="0" style="stop-color:#2C27CE"/>
				<stop  offset="0.65" style="stop-color:#EF1D68"/>
				<stop  offset="1" style="stop-color:#EFBA92"/>
			</linearGradient>
			<path class="st18" d="M45.1,2.4C46.4,5.7,55.7,8.3,59,8s4.6-6.3,0.3-7.8c-2.5-0.6-0.8,0.4-3,0.7C55.1,1.1,43.8-1.2,45.1,2.4z"/>
			<path class="st4" d="M74.5,37.6c1.2-1,6.2-5.9,6.9-3.4c0.8,2.8-0.1,4.5-1.3,5.7c-2.2,2.1-3.2,1.8-4.7,0.7
				C74.2,39.9,73.4,38.6,74.5,37.6z"/>
			<path class="st4" d="M80.4,33.5c0.6-0.4,4-2.6,4.3-2.1c0.5,0.9-1.7,2.5-3.2,3.5c-0.8,0.6-2.1,0.8-2.4,0.2S79.5,34.1,80.4,33.5z"
				/>
			<g>
				<defs>
					<path id="SVGID_14_" d="M0.1,165.9c0-0.6,0.2-1.2,0.5-1.7c-0.1-0.1,0-0.3,0.2-0.6c3.9-4.1,13.3-32.3,22.5-39.7
						c0-0.3,0-0.6,0.1-0.9c0.6-5.7,1.9-28.4,2.2-32.3c-0.2-3.4,0-6.9,0.6-10.3c2.3-8.6,3.1-29.5,1.6-42.6c0-0.4-0.1-0.8-0.1-1.2
						c-0.2-2.9,0-6.2,1.8-8.7c0.3-0.4,0.7-0.8,1.1-1.2c0.1-0.1,0.2-0.2,0.3-0.3c2.2-1.5,4.8-2.2,7.4-2.1c0.3,0,0.5,0,0.8,0
						c0.7-1.7,1.5-3.5,2.2-5.1c-0.6-1.1-0.8-2.4-0.7-3.7c-1-0.7-1.6-1.8-1.7-3c-0.3-1.9,0.3-3.5,1.3-3.7c0.1,0,0.3,0,0.4,0
						c-0.1-1.3,0.6-2.7,1.8-4.8c0.9-1.5,1.7-2,2.6-2c-1-3.4,10-1.1,11.1-1.3c2.2-0.3,0.6-1.3,3-0.7c3.8,1.3,3.2,6.3,0.7,7.5
						c0.8,1.8-0.6,4.1-1.7,5.5c-0.6,3-1.6,5.9-3,8.7c-1.1,2-3.6,4.2-6.2,3.6l-0.5-0.2l-0.3,0.9c1.7,0.5,3.3,1.2,4.8,2.1
						c2.5,1.6,4.3,4.1,5.1,7.1c0.6,3,0.7,6,0.4,9l-0.2,2.6c0.1,1.3,0.2,2.6,0.2,3.9c3.8,2.1,7.7,4.1,11.8,5.8
						c0.3-0.2,0.8-0.3,1.2-0.1c1.1,0.4,5.4,1.4,6.5,2.8H78c0.6,0.3,4.3,2,4,2.6c-0.5,0.9-3-0.2-4.7-0.8l0,0c-1.3,1.3-3.2,1.8-5,1.3
						c-0.8-0.2-1.5-0.5-2.2-0.9c-2.1,0.5-4.5-0.5-9.5-1.8l-1.6-0.4c0.1,0.9,0.3,1.7,0.7,2.5c0.2,0.4,0.5,0.7,0.8,1.1
						c2.5,2.9,4.2,6.3,5.8,9.8c1.3,2.6,2.3,6,4.3,8.2c0.2,0.2,0.3,0.4,0.3,0.7c1.4,0.3,3,0.7,4,0.8c1.4,0.2,1,3.3,0.2,3.8
						c-1.2,0.8-5.2,1.4-6-0.2s-2.5-1.2-2.8-2.8c-0.1-0.3-0.1-0.7,0-1.1c-1.8-1.2-3.4-2.7-4.8-4.5c-1.9-2.2-3.7-4.5-5.5-6.8
						c-0.5,5.1-0.8,8.5-0.8,8.5s1.2,7.2,1.6,15.8c0.8,8.3,2,22.2,2.5,26.4c0.1,0.7,0.1,1.4,0.1,2.1c0,0.1,0,0.1,0,0.1
						c0.4,7.9-0.8,25.5-4.4,43.6c0.2,0.3,0.3,0.7,0.3,1c1.1,1,2.4,1.8,3.8,2.4c2.2,0.9,6.9,1.1,4.3,2.1c-2.6,0.9-5.6,0.5-7.1,0.4
						c-1.6-0.2-3.2-0.2-4.8-0.1c-2.4,0.1-2.4-0.1-2.2-2.7c0-0.1,0-0.2,0.1-0.3l0,0c0.6-9.7-4-32-1.7-44.7c-2.6-8.2-4.8-16.6-6.5-25
						c-0.9,6.9-5,19.3-7.3,27.8c-0.5,1.2-1.3,2.1-2.5,2.7c-0.5,0.7-1,1.3-1.6,1.9c-6.5,6.7-17,26.2-23.6,33.8
						c0.5,1.2,1.5,2.1,2.6,2.7c2.2,0.9,6.2,1.9,3.6,2.8s-5.6,0.5-7.1,0.4s-1.9-2.1-3.5-2.9C-0.4,168.3-0.1,168.4,0.1,165.9z"/>
				</defs>
				<clipPath id="SVGID_15_">
					<use xlink:href="#SVGID_14_"  style="overflow:visible;"/>
				</clipPath>
			</g>
		</g>
	</g>
</g>
</svg>
