<svg xmlns="http://www.w3.org/2000/svg" xmlns:xlink="http://www.w3.org/1999/xlink" viewBox="0 0 180 180"><defs><style>.cls-1{isolation:isolate;}.cls-2{fill:#ed0f0f;opacity:0.1;}.cls-3,.cls-32{fill:none;stroke:#0037ff;}.cls-3{stroke-linecap:round;stroke-linejoin:round;}.cls-4{fill:url(#Gradient_bez_nazwy_8);}.cls-5{fill:#ffaf84;}.cls-6{fill:url(#Gradient_bez_nazwy_5);}.cls-7{fill:url(#Gradient_bez_nazwy_4);}.cls-8{fill:#ed9169;}.cls-9{fill:url(#Gradient_bez_nazwy_5-2);}.cls-10{fill:url(#Gradient_bez_nazwy_2);}.cls-11{fill:url(#Gradient_bez_nazwy_2-2);}.cls-12{fill:url(#Gradient_bez_nazwy_2-3);}.cls-13{fill:url(#Gradient_bez_nazwy_2-4);}.cls-14{fill:url(#Gradient_bez_nazwy_2-5);}.cls-15{fill:url(#Gradient_bez_nazwy_5-3);}.cls-16{fill:url(#Gradient_bez_nazwy_4-2);}.cls-17{fill:url(#Gradient_bez_nazwy_8-2);}.cls-18{fill:url(#Gradient_bez_nazwy_8-3);}.cls-19,.cls-31{opacity:0.3;mix-blend-mode:multiply;}.cls-19{fill:url(#Gradient_bez_nazwy_3);}.cls-20{fill:url(#Gradient_bez_nazwy_14);}.cls-21{fill:url(#Gradient_bez_nazwy_14-2);}.cls-22{fill:#f70f47;}.cls-23{fill:url(#Gradient_bez_nazwy_14-3);}.cls-24{fill:url(#Gradient_bez_nazwy_5-4);}.cls-25{fill:url(#Gradient_bez_nazwy_5-5);}.cls-26{fill:url(#Gradient_bez_nazwy_5-6);}.cls-27{fill:url(#Gradient_bez_nazwy_5-7);}.cls-28{fill:url(#Gradient_bez_nazwy_5-8);}.cls-29{fill:url(#Gradient_bez_nazwy_14-4);}.cls-30{fill:url(#Gradient_bez_nazwy_14-5);}.cls-31{fill:url(#Gradient_bez_nazwy_3-2);}.cls-32{stroke-miterlimit:10;}</style><linearGradient id="Gradient_bez_nazwy_8" x1="40.58" y1="-3.08" x2="31.05" y2="40.84" gradientUnits="userSpaceOnUse"><stop offset="0" stop-color="#2c27ce"/><stop offset="1" stop-color="#ef1d68"/></linearGradient><linearGradient id="Gradient_bez_nazwy_5" x1="1334.31" y1="1729.31" x2="1358.33" y2="1731.67" gradientTransform="translate(-224.1 -2120.58) rotate(30.47)" gradientUnits="userSpaceOnUse"><stop offset="0" stop-color="#36078b"/><stop offset="1" stop-color="#16b1ff"/></linearGradient><linearGradient id="Gradient_bez_nazwy_4" x1="24.89" y1="166.36" x2="25.48" y2="148.81" gradientUnits="userSpaceOnUse"><stop offset="0" stop-color="#2c27ce"/><stop offset="0.65" stop-color="#ef1d68"/><stop offset="1" stop-color="#efba92"/></linearGradient><linearGradient id="Gradient_bez_nazwy_5-2" x1="33.13" y1="36.49" x2="42.31" y2="77.47" gradientTransform="matrix(1, 0, 0, 1, 0, 0)" xlink:href="#Gradient_bez_nazwy_5"/><linearGradient id="Gradient_bez_nazwy_2" x1="40.31" y1="109.34" x2="41.56" y2="221.74" gradientUnits="userSpaceOnUse"><stop offset="0" stop-color="#f70f47"/><stop offset="1" stop-color="#9e005d"/></linearGradient><linearGradient id="Gradient_bez_nazwy_2-2" x1="27.18" y1="109.48" x2="28.44" y2="221.89" xlink:href="#Gradient_bez_nazwy_2"/><linearGradient id="Gradient_bez_nazwy_2-3" x1="32.45" y1="109.42" x2="33.7" y2="221.83" xlink:href="#Gradient_bez_nazwy_2"/><linearGradient id="Gradient_bez_nazwy_2-4" x1="49.11" y1="109.24" x2="50.37" y2="221.65" xlink:href="#Gradient_bez_nazwy_2"/><linearGradient id="Gradient_bez_nazwy_2-5" x1="46.74" y1="109.27" x2="47.99" y2="221.67" xlink:href="#Gradient_bez_nazwy_2"/><linearGradient id="Gradient_bez_nazwy_5-3" x1="26.01" y1="40.91" x2="21.3" y2="70.35" gradientTransform="matrix(1, 0, 0, 1, 0, 0)" xlink:href="#Gradient_bez_nazwy_5"/><linearGradient id="Gradient_bez_nazwy_4-2" x1="53.83" y1="167.33" x2="54.42" y2="149.79" xlink:href="#Gradient_bez_nazwy_4"/><linearGradient id="Gradient_bez_nazwy_8-2" x1="207.64" y1="305.81" x2="198.1" y2="349.72" gradientTransform="translate(-218.6 -272.49) rotate(-9.15)" xlink:href="#Gradient_bez_nazwy_8"/><linearGradient id="Gradient_bez_nazwy_8-3" x1="213.25" y1="307.02" x2="203.72" y2="350.94" gradientTransform="translate(-218.6 -272.49) rotate(-9.15)" xlink:href="#Gradient_bez_nazwy_8"/><linearGradient id="Gradient_bez_nazwy_3" x1="4999.96" y1="166.07" x2="5007.8" y2="166.07" gradientTransform="matrix(-1, 0, 0, 1, 5159.77, 0)" gradientUnits="userSpaceOnUse"><stop offset="0" stop-color="blue"/><stop offset="1" stop-color="#9e005d"/></linearGradient><linearGradient id="Gradient_bez_nazwy_14" x1="5059.65" y1="32.01" x2="5031.8" y2="39.69" gradientTransform="matrix(-1, 0, 0, 1, 5159.77, 0)" gradientUnits="userSpaceOnUse"><stop offset="0" stop-color="#f70f47"/><stop offset="1" stop-color="#ffb41d"/></linearGradient><linearGradient id="Gradient_bez_nazwy_14-2" x1="5059.66" y1="32.06" x2="5031.81" y2="39.73" xlink:href="#Gradient_bez_nazwy_14"/><linearGradient id="Gradient_bez_nazwy_14-3" x1="5016.94" y1="40.96" x2="5021.77" y2="82.46" xlink:href="#Gradient_bez_nazwy_14"/><linearGradient id="Gradient_bez_nazwy_5-4" x1="4953.92" y1="174.91" x2="5049.5" y2="46.95" gradientTransform="matrix(-1, 0, 0, 1, 5159.77, 0)" xlink:href="#Gradient_bez_nazwy_5"/><linearGradient id="Gradient_bez_nazwy_5-5" x1="4971.16" y1="187.78" x2="5066.74" y2="59.83" gradientTransform="matrix(-1, 0, 0, 1, 5159.77, 0)" xlink:href="#Gradient_bez_nazwy_5"/><linearGradient id="Gradient_bez_nazwy_5-6" x1="4956.32" y1="176.7" x2="5051.9" y2="48.75" gradientTransform="matrix(-1, 0, 0, 1, 5159.77, 0)" xlink:href="#Gradient_bez_nazwy_5"/><linearGradient id="Gradient_bez_nazwy_5-7" x1="4987.94" y1="200.32" x2="5083.51" y2="72.36" gradientTransform="matrix(-1, 0, 0, 1, 5159.77, 0)" xlink:href="#Gradient_bez_nazwy_5"/><linearGradient id="Gradient_bez_nazwy_5-8" x1="4968.22" y1="185.59" x2="5063.8" y2="57.63" gradientTransform="matrix(-1, 0, 0, 1, 5159.77, 0)" xlink:href="#Gradient_bez_nazwy_5"/><linearGradient id="Gradient_bez_nazwy_14-4" x1="4999.22" y1="43.02" x2="5004.05" y2="84.52" xlink:href="#Gradient_bez_nazwy_14"/><linearGradient id="Gradient_bez_nazwy_14-5" x1="5002.31" y1="42.66" x2="5007.14" y2="84.16" xlink:href="#Gradient_bez_nazwy_14"/><linearGradient id="Gradient_bez_nazwy_3-2" x1="5028.61" y1="167.14" x2="5041.54" y2="167.14" xlink:href="#Gradient_bez_nazwy_3"/></defs><title>kontent-box3</title><g class="cls-1"><g id="Слой_2" data-name="Слой 2"><g id="Designed_by_Freepik" data-name="Designed by Freepik"><circle class="cls-2" cx="90" cy="90" r="90"/></g><g id="Objects"><rect class="cls-3" x="22.85" y="37.4" width="127.12" height="86.17" rx="13.47" ry="13.47" transform="translate(172.82 160.98) rotate(180)"/><rect class="cls-3" x="28.24" y="42.2" width="116.35" height="76.57" rx="13.47" ry="13.47" transform="translate(172.82 160.98) rotate(180)"/><path class="cls-3" d="M36.21,118.78c.35-1.12,19.19-30.59,19.19-30.59l22,14.67,30.59-32.57L126,90.61l18.58,21.18s.09,6.67-6.75,7C125.25,119.34,36.21,118.78,36.21,118.78Z"/><circle class="cls-3" cx="81.4" cy="62.4" r="8.78"/><path class="cls-4" d="M29.22,12.1a13.49,13.49,0,0,0-5.24,13,30.8,30.8,0,0,1-1,13.72c-1,3.12-4.46,13.54,7.81,13.3s13-14.6,11.62-22,1.17-12.54-.68-14.78S35.58,7.45,29.22,12.1Z"/><path class="cls-5" d="M74.21,58.25c2.92-.1,5.94-.31,5.11,1.61s-.74,1.84-2.95,2.07S71.76,58.33,74.21,58.25Z"/><path class="cls-6" d="M74.46,58.11c-1.69-.18-12.15-3.8-16.66-4.85l-.08-.1c-1.58-1.64-5.3-7.23-10.48-14.46a10.29,10.29,0,0,0-6.48-3.31c-1.62-.11-3.3,1.79-1.71,4.28a65.8,65.8,0,0,0,5.61,7.68c5,6.09,8,8.75,9.66,10a2.9,2.9,0,0,0,1.19.72,38.75,38.75,0,0,0,12.42,2.12c4.35.22,5.33,1.53,6.48.79C75.35,60.35,75.72,58.25,74.46,58.11Z"/><path class="cls-7" d="M26.22,164.51a13.26,13.26,0,0,1,.29,2.2c.14.89,1,1.21,1.42,1.93s1.33,2.08-1.85,2.15c-3.41.07-5.43-.17-4.85-2.09a10.08,10.08,0,0,0,.65-3.4,2.14,2.14,0,0,1,.39-1.66C22.66,163.27,25.72,162.59,26.22,164.51Z"/><path class="cls-8" d="M32.47,27.15c0,.25-.43,5.65-.5,9.8,0,2,1.43,4,2.89,4h.06c1.43,0,3.12-1.8,3-3.8-.23-3.61-.06-7.3-.05-7.36Z"/><path class="cls-9" d="M28.28,50.49a70.64,70.64,0,0,1,2.59,11.34,28.83,28.83,0,0,1,0,8.54c-.23,1.7-.57,3.39-1,5.07-.15.63-1.39,5.75-1.45,6.3H51.8c-.22-4.58-5.44-19-1.91-28.29,2.45-6.45-.8-6.65-3-12A15.76,15.76,0,0,0,45,37.55a6.72,6.72,0,0,0-3.58-2.19A13.26,13.26,0,0,0,39.27,35c-4-.32-13.27-1.46-14.15,4.16a10,10,0,0,0,.46,4.55c.52,1.64,1.3,3.19,2,4.78C27.81,49.19,28.05,49.84,28.28,50.49Z"/><path class="cls-10" d="M28.52,96.59s-2-5.09-.1-14.84H51.8a143,143,0,0,1,.85,14.84Z"/><path class="cls-11" d="M33.14,128.34c1.87-7.9-5.9-9.29-8.35-3.57-3.47,8.08-3.2,33.91-3,39.07,0,.68.38.55.75.41a5.61,5.61,0,0,1,2.47-.46,2.16,2.16,0,0,1,1.3,1.06C27,157.82,31.32,136,33.14,128.34Z"/><path class="cls-12" d="M40.13,97.66c.82-9.81-2.92-17.43-8.79-14.19-2.47,1.36-3.37,4.09-3.7,6.66s-2.15,29.26-2.79,34.09c-1.43,10.87,6.84,7.94,7.74,4.93C34.85,121.53,39.68,103,40.13,97.66Z"/><path class="cls-13" d="M53.94,127.83c.31-7.36-6.6-7.21-8.34-1.21-2.73,9.43,2,29.67,2.29,41.23,1.2-2,2.34-2.48,2.88-2.44a1.91,1.91,0,0,1,1.34.75C51.93,150.93,53.61,135.71,53.94,127.83Z"/><path class="cls-14" d="M45.88,128.63c.92,3,8.83,6.49,8-4.46-.37-4.85-1.34-31.66-1.53-34.24s-.62-6.36-1.87-6.83c-6.24-2.36-12.3,5.35-10.66,15.05C40.92,104.64,44,122.4,45.88,128.63Z"/><path class="cls-5" d="M78.51,58.44a8.45,8.45,0,0,1,3.94.69c.87.53-1.6.17-2.65.27S77.33,58.46,78.51,58.44Z"/><path class="cls-5" d="M29.38,70.66c2.85-.57,4.3-1.53,5.61-.81s-.61,3.23-1.59,3.64S29,75.67,28,74.72A2.54,2.54,0,0,1,29.38,70.66Z"/><path class="cls-15" d="M19.79,58.21c1.62-2.52,5.25-7.27,9.68-13.44a10.29,10.29,0,0,0,1.07-7.19c-.41-1.57-2.75-2.55-4.6-.25a65.23,65.23,0,0,0-5.48,7.77c-4.83,7.74-6.18,11.44-6.6,13.17a1.84,1.84,0,0,0,.78,1.81c.05.09.1.18.16.27a38.7,38.7,0,0,0,8.8,9C27,72.1,27,73.74,28.39,73.82c1.11.06,2.64-1.42,1.7-2.27C28.87,70.44,22.92,61.94,19.79,58.21Z"/><path class="cls-5" d="M28.86,24c1.19,4.48,1.48,5.47,3.78,7a10.88,10.88,0,0,0,7.43,1.59c2.33-.38,3.66-3.12,3.88-5.13a33.54,33.54,0,0,0-1.35-11.75c-.74-2.47-4.35-5-7.57-4.52S26,13.07,28.86,24Z"/><path class="cls-16" d="M52.4,166.12a8,8,0,0,0,3.31,2.51c1.77.79,5.52,1.16,3.43,1.86a12.49,12.49,0,0,1-5.74.08,24.74,24.74,0,0,0-3.87-.23c-1.91,0-1.93-.13-1.67-2.29C48.22,165.07,51.54,164.44,52.4,166.12Z"/><path class="cls-17" d="M41.44,13.49c2.27,2.76-9.79,10.43-12.74,10.41s-3.19-5.62-1.41-8.77S36.08,7,41.44,13.49Z"/><path class="cls-18" d="M36.51,13.5c.88,2.5,5.49,2.37,6.61,4.37.69,1.25.24-3-1.12-4.69S34.74,8.47,36.51,13.5Z"/><ellipse class="cls-5" cx="29.52" cy="23.92" rx="1.63" ry="3.12" transform="translate(-6.85 12.94) rotate(-22.22)"/><path class="cls-19" d="M154.34,163.48a13.29,13.29,0,0,0-.31,2.28c-.15.92-1,1.25-1.53,2s-1.44,2.16,2,2.23c3.67.07,5.84-.17,5.22-2.17a10.16,10.16,0,0,1-.7-3.53,2.16,2.16,0,0,0-.42-1.72C158.18,162.18,154.88,161.48,154.34,163.48Z"/><path class="cls-20" d="M107.38,25.5c1,1.77,10.37,9.7,12.07,12.61,2,3.44-2.48,8.88-4.49,6.71-2.17-2.34-4.36-5.31-7.64-11-2.42-4.2-2.55-5.59-2.39-7.65C105.07,24.53,106.7,24.33,107.38,25.5Z"/><path class="cls-21" d="M117.6,38.46c2.14-.26,8.43-2.74,16.81-5.29,1.49-.45,5,.95,6.68,2.81,1,1.16.62,4.18-2.15,5.22a56.38,56.38,0,0,1-9,2.62c-8.6,1.92-12.23,1.77-13.81,1.46C114.29,44.91,114.48,38.84,117.6,38.46Z"/><path class="cls-22" d="M138.29,22.56c-1.5.7-2.15.71-2.69-1.16-.42-1.45-1.13-6.54,1.19-6.88s4.14-.41,3.87,2.73S140.08,21.73,138.29,22.56Z"/><path class="cls-8" d="M147.07,25.29c0,.23.54,5.11.63,8.85a3.86,3.86,0,0,1-3.63,3.62H144c-1.8,0-3.92-1.63-3.76-3.43a48.41,48.41,0,0,0,.06-6.65Z"/><path class="cls-23" d="M156.15,45.6c-3.34,11-4.84,24.32-4.19,32H126.79s.15-23.58,1.83-36.49a9.66,9.66,0,0,1,5.31-7.4,18.07,18.07,0,0,1,6.71-1.49h4.65a28.13,28.13,0,0,1,4.91.61C156.88,34.09,158.09,39.23,156.15,45.6Z"/><path class="cls-24" d="M151.86,93s2.18-5.28.1-15.4H126.79a143.08,143.08,0,0,0-.92,15.4Z"/><path class="cls-25" d="M146.89,125.95c-2-8.19,6.35-9.64,9-3.71,3.74,8.39,3.44,35.19,3.24,40.54,0,.7-.41.57-.81.43a6.25,6.25,0,0,0-2.66-.48,2.29,2.29,0,0,0-1.4,1.1C153.47,156.54,148.85,133.88,146.89,125.95Z"/><path class="cls-26" d="M139.37,94.1c-.88-10.18,3.15-18.09,9.46-14.73,2.66,1.41,3.63,4.24,4,6.91s2.31,30.37,3,35.37c1.55,11.28-7.37,8.24-8.33,5.12C145,118.88,139.85,99.65,139.37,94.1Z"/><path class="cls-27" d="M124.49,125.42c-.33-7.64,7.11-7.48,9-1.26,2.94,9.78-2.14,30.78-2.46,42.78-1.3-2.07-2.52-2.57-3.1-2.53a2.07,2.07,0,0,0-1.44.78C126.65,149.39,124.84,133.59,124.49,125.42Z"/><path class="cls-28" d="M133.17,126.24c-1,3.12-9.5,6.73-8.61-4.62.39-5,1.45-32.85,1.65-35.53s.67-6.6,2-7.09c6.72-2.44,13.24,5.55,11.48,15.62C138.51,101.35,135.22,119.78,133.17,126.24Z"/><path class="cls-29" d="M150.67,69.82c1.31-1.58,5.5-13.09,7.63-15.7C160.83,51,167.21,53,166,55.69c-1.84,4.13-2.66,5.64-7.48,10.69-3.35,3.51-4.38,4.92-6.36,5.49C150.56,72.32,149.81,70.87,150.67,69.82Z"/><path class="cls-30" d="M159.27,55.73c-1-1.92-5.49-7-10.8-13.93-.94-1.24-.85-5,.32-7.24.73-1.37,3.71-2,5.64.2a56.38,56.38,0,0,1,5.57,7.5c4.79,7.4,5.91,10.86,6.16,12.45C166.47,56.6,160.71,58.53,159.27,55.73Z"/><path class="cls-5" d="M149.54,21.76c-.42,4.17-.54,5.09-2.36,6.79a9.82,9.82,0,0,1-6.4,2.49c-2.13,0-3.71-2.25-4.19-4a30.31,30.31,0,0,1-.48-10.67,6.73,6.73,0,0,1,6.1-5.12C145.15,11.24,150.56,11.58,149.54,21.76Z"/><path class="cls-5" d="M152.92,69.24c-1-1.06-2.47-2.7-3.22-3.64s-3,.68-3,1.49c-.07,1.21,1.14,4.5,2.69,4.49s2,1.41,3.3,1S154.5,71,152.92,69.24Z"/><path class="cls-31" d="M126.15,165.15a8.53,8.53,0,0,1-3.57,2.6c-1.9.82-5.94,1.2-3.7,1.93a13.92,13.92,0,0,0,6.18.08,28,28,0,0,1,4.17-.24c2.06,0,2.08-.13,1.8-2.37C130.66,164.06,127.08,163.4,126.15,165.15Z"/><path class="cls-22" d="M149.53,21.11c-1.13,1.13-1.72,1.35-2.81-.16-.85-1.17-3.16-5.54-1.17-6.61s3.61-1.72,4.4,1.2S150.87,19.78,149.53,21.11Z"/><ellipse class="cls-5" cx="149.66" cy="22.37" rx="2.82" ry="1.48" transform="translate(72.36 152.46) rotate(-67.78)"/><path class="cls-22" d="M148.26,13.55c-1.62,2.42-9.46,2.65-12,1.76s-2.38-5.84,1.28-6.18c2.06,0,.57.49,2.24,1.17C140.6,10.64,150,11,148.26,13.55Z"/><path class="cls-5" d="M107.72,25.72c-.46-1.26-4.55-11-6.16-9.36-1.79,1.79-1,6-.57,7.39.8,2.53,3.19,4,4.8,3.93C106.92,27.61,108.16,26.92,107.72,25.72Z"/><path class="cls-5" d="M107.94,25c.06-.61.4-4.26-.28-4.37-1-.17-1.38,2.2-1.61,3.78-.13.85.27,2.08,1,2.1S107.84,26,107.94,25Z"/><rect class="cls-32" x="99.67" y="17.56" width="3.41" height="15.37" transform="translate(37.54 -57.45) rotate(38.35)"/><path class="cls-32" d="M104.11,24.34l-2.48-2a.48.48,0,0,1-.08-.68l7-8.84a2.06,2.06,0,0,1,2.9-.34h0a2.06,2.06,0,0,1,.34,2.9l-7,8.84A.48.48,0,0,1,104.11,24.34Z"/><polygon class="cls-32" points="96.41 35.23 92.27 37.62 91.42 36.96 92.8 32.38 95.45 31 97.14 32.33 96.41 35.23"/><path class="cls-32" d="M96.87,33.23l-2.25-1.78a.75.75,0,0,1-.12-1h0a.75.75,0,0,1,1-.12l2.25,1.78a.75.75,0,0,1,.12,1h0A.75.75,0,0,1,96.87,33.23Z"/><ellipse class="cls-32" cx="94.22" cy="34.29" rx="0.54" ry="0.55" transform="translate(8.87 86.9) rotate(-51.65)"/><path class="cls-32" d="M94.34,34.44,92,37.4l-.29-.23,2.35-3a.18.18,0,0,1,.25,0,.19.19,0,0,1,.07.12A.18.18,0,0,1,94.34,34.44Z"/><path class="cls-32" d="M104.25,24.68l-3-2.36a.46.46,0,0,1-.08-.65h0a.46.46,0,0,1,.65-.08l3,2.36a.46.46,0,0,1,.08.65h0A.46.46,0,0,1,104.25,24.68Z"/><path class="cls-5" d="M108,22.86c0-.62,0-4.28-.73-4.32-1-.06-1.14,2.33-1.21,3.92,0,.86.49,2,1.19,2S108,23.85,108,22.86Z"/></g></g></g></svg>