<svg xmlns="http://www.w3.org/2000/svg" xmlns:xlink="http://www.w3.org/1999/xlink" viewBox="0 0 180 180"><defs><style>.cls-1{isolation:isolate;}.cls-2{fill:#ed0f0f;opacity:0.1;}.cls-3{fill:none;stroke:#0037ff;stroke-linecap:round;stroke-linejoin:round;}.cls-4,.cls-5,.cls-6{opacity:0.5;}.cls-4{fill:url(#Gradient_bez_nazwy_13);}.cls-5{fill:url(#Gradient_bez_nazwy_13-2);}.cls-6{fill:url(#Gradient_bez_nazwy_13-3);}.cls-7{fill:url(#Gradient_bez_nazwy_4);}.cls-8{fill:url(#Gradient_bez_nazwy_2);}.cls-9{fill:url(#Gradient_bez_nazwy_2-2);}.cls-10{fill:#ea8f68;}.cls-11{fill:url(#Gradient_bez_nazwy_2-3);}.cls-12{fill:url(#Gradient_bez_nazwy_10);}.cls-13{fill:url(#Gradient_bez_nazwy_5);}.cls-14{fill:url(#Gradient_bez_nazwy_5-2);}.cls-15{fill:url(#Gradient_bez_nazwy_5-3);}.cls-16{fill:url(#Gradient_bez_nazwy_5-4);}.cls-17{fill:#ffaf84;}.cls-18{fill:url(#Gradient_bez_nazwy_4-2);}.cls-19{fill:url(#Gradient_bez_nazwy_4-3);}.cls-20{fill:url(#Gradient_bez_nazwy_4-4);}.cls-21{fill:url(#Gradient_bez_nazwy_4-5);}.cls-22{fill:url(#Gradient_bez_nazwy_2-4);}.cls-23{fill:url(#Gradient_bez_nazwy_2-5);}.cls-24,.cls-37{opacity:0.3;mix-blend-mode:multiply;}.cls-24{fill:url(#Gradient_bez_nazwy_3);}.cls-25{fill:url(#Gradient_bez_nazwy_14);}.cls-26{fill:url(#Gradient_bez_nazwy_14-2);}.cls-27{fill:#f70f47;}.cls-28{fill:#ed9169;}.cls-29{fill:url(#Gradient_bez_nazwy_14-3);}.cls-30{fill:url(#Gradient_bez_nazwy_5-5);}.cls-31{fill:url(#Gradient_bez_nazwy_5-6);}.cls-32{fill:url(#Gradient_bez_nazwy_5-7);}.cls-33{fill:url(#Gradient_bez_nazwy_5-8);}.cls-34{fill:url(#Gradient_bez_nazwy_5-9);}.cls-35{fill:url(#Gradient_bez_nazwy_14-4);}.cls-36{fill:url(#Gradient_bez_nazwy_14-5);}.cls-37{fill:url(#Gradient_bez_nazwy_3-2);}</style><linearGradient id="Gradient_bez_nazwy_13" x1="26.57" y1="164.03" x2="116.68" y2="45.64" gradientUnits="userSpaceOnUse"><stop offset="0.35" stop-color="#36078b"/><stop offset="1" stop-color="#16b1ff"/></linearGradient><linearGradient id="Gradient_bez_nazwy_13-2" x1="39.34" y1="173.74" x2="129.45" y2="55.35" xlink:href="#Gradient_bez_nazwy_13"/><linearGradient id="Gradient_bez_nazwy_13-3" x1="39.92" y1="174.18" x2="130.02" y2="55.79" xlink:href="#Gradient_bez_nazwy_13"/><linearGradient id="Gradient_bez_nazwy_4" x1="8256.24" y1="48.67" x2="8213.41" y2="17.78" gradientTransform="translate(-8198.67)" gradientUnits="userSpaceOnUse"><stop offset="0" stop-color="#2c27ce"/><stop offset="0.65" stop-color="#ef1d68"/><stop offset="1" stop-color="#efba92"/></linearGradient><linearGradient id="Gradient_bez_nazwy_2" x1="5439.36" y1="8044.75" x2="5426.13" y2="8077.74" gradientTransform="translate(-9653.63 -597.73) rotate(-52.21)" gradientUnits="userSpaceOnUse"><stop offset="0" stop-color="#f70f47"/><stop offset="1" stop-color="#9e005d"/></linearGradient><linearGradient id="Gradient_bez_nazwy_2-2" x1="7462.18" y1="5182.47" x2="7447.36" y2="5219.41" gradientTransform="matrix(0.85, -0.52, 0.52, 0.85, -9016.11, -517.65)" xlink:href="#Gradient_bez_nazwy_2"/><linearGradient id="Gradient_bez_nazwy_2-3" x1="8232.48" y1="45" x2="8237.37" y2="87.02" gradientTransform="translate(-8198.67)" xlink:href="#Gradient_bez_nazwy_2"/><linearGradient id="Gradient_bez_nazwy_10" x1="8241.17" y1="74.2" x2="8221.8" y2="130.6" gradientTransform="translate(-8198.67)" gradientUnits="userSpaceOnUse"><stop offset="0" stop-color="#36078b"/><stop offset="1" stop-color="#168d68"/></linearGradient><linearGradient id="Gradient_bez_nazwy_5" x1="7951.94" y1="-1392.54" x2="7932.13" y2="-1334.88" gradientTransform="translate(-8016.59 227.83) rotate(8.88)" gradientUnits="userSpaceOnUse"><stop offset="0" stop-color="#36078b"/><stop offset="1" stop-color="#16b1ff"/></linearGradient><linearGradient id="Gradient_bez_nazwy_5-2" x1="8238.06" y1="73.12" x2="8218.68" y2="129.53" gradientTransform="translate(-8198.67)" xlink:href="#Gradient_bez_nazwy_5"/><linearGradient id="Gradient_bez_nazwy_5-3" x1="8265.66" y1="82.61" x2="8246.28" y2="139.01" gradientTransform="translate(-8198.67)" xlink:href="#Gradient_bez_nazwy_5"/><linearGradient id="Gradient_bez_nazwy_5-4" x1="8252.84" y1="78.21" x2="8233.46" y2="134.61" gradientTransform="translate(-8198.67)" xlink:href="#Gradient_bez_nazwy_5"/><linearGradient id="Gradient_bez_nazwy_4-2" x1="8247.18" y1="188.57" x2="8249.37" y2="161.58" xlink:href="#Gradient_bez_nazwy_4"/><linearGradient id="Gradient_bez_nazwy_4-3" x1="8216.21" y1="193.58" x2="8218.97" y2="159.56" xlink:href="#Gradient_bez_nazwy_4"/><linearGradient id="Gradient_bez_nazwy_4-4" x1="8251.09" y1="42.78" x2="8226.79" y2="15.05" xlink:href="#Gradient_bez_nazwy_4"/><linearGradient id="Gradient_bez_nazwy_4-5" x1="8256.09" y1="38.39" x2="8231.79" y2="10.66" xlink:href="#Gradient_bez_nazwy_4"/><linearGradient id="Gradient_bez_nazwy_2-4" x1="7046.61" y1="2521.4" x2="7032.03" y2="2557.76" gradientTransform="translate(-7416.82 862.15) rotate(-26.03)" xlink:href="#Gradient_bez_nazwy_2"/><linearGradient id="Gradient_bez_nazwy_2-5" x1="8139.6" y1="-2948.89" x2="8132.25" y2="-2930.57" gradientTransform="translate(-8524.03 -1230.64) rotate(28.48)" xlink:href="#Gradient_bez_nazwy_2"/><linearGradient id="Gradient_bez_nazwy_3" x1="5969.1" y1="167.99" x2="5977" y2="167.99" gradientTransform="matrix(-1, 0, 0, 1, 6128.45, 0)" gradientUnits="userSpaceOnUse"><stop offset="0" stop-color="blue"/><stop offset="1" stop-color="#9e005d"/></linearGradient><linearGradient id="Gradient_bez_nazwy_14" x1="6029.17" y1="33.1" x2="6001.14" y2="40.82" gradientTransform="matrix(-1, 0, 0, 1, 6128.45, 0)" gradientUnits="userSpaceOnUse"><stop offset="0" stop-color="#f70f47"/><stop offset="1" stop-color="#ffb41d"/></linearGradient><linearGradient id="Gradient_bez_nazwy_14-2" x1="6029.18" y1="33.15" x2="6001.15" y2="40.87" xlink:href="#Gradient_bez_nazwy_14"/><linearGradient id="Gradient_bez_nazwy_14-3" x1="5986.19" y1="42.1" x2="5991.05" y2="83.86" xlink:href="#Gradient_bez_nazwy_14"/><linearGradient id="Gradient_bez_nazwy_5-5" x1="5922.78" y1="176.88" x2="6018.95" y2="48.13" gradientTransform="matrix(-1, 0, 0, 1, 6128.45, 0)" xlink:href="#Gradient_bez_nazwy_5"/><linearGradient id="Gradient_bez_nazwy_5-6" x1="5940.12" y1="189.84" x2="6036.3" y2="61.09" gradientTransform="matrix(-1, 0, 0, 1, 6128.45, 0)" xlink:href="#Gradient_bez_nazwy_5"/><linearGradient id="Gradient_bez_nazwy_5-7" x1="5925.2" y1="178.69" x2="6021.37" y2="49.94" gradientTransform="matrix(-1, 0, 0, 1, 6128.45, 0)" xlink:href="#Gradient_bez_nazwy_5"/><linearGradient id="Gradient_bez_nazwy_5-8" x1="5957.01" y1="202.45" x2="6053.18" y2="73.7" gradientTransform="matrix(-1, 0, 0, 1, 6128.45, 0)" xlink:href="#Gradient_bez_nazwy_5"/><linearGradient id="Gradient_bez_nazwy_5-9" x1="5937.17" y1="187.63" x2="6033.34" y2="58.88" gradientTransform="matrix(-1, 0, 0, 1, 6128.45, 0)" xlink:href="#Gradient_bez_nazwy_5"/><linearGradient id="Gradient_bez_nazwy_14-4" x1="5968.36" y1="44.17" x2="5973.22" y2="85.93" xlink:href="#Gradient_bez_nazwy_14"/><linearGradient id="Gradient_bez_nazwy_14-5" x1="5971.47" y1="43.81" x2="5976.33" y2="85.57" xlink:href="#Gradient_bez_nazwy_14"/><linearGradient id="Gradient_bez_nazwy_3-2" x1="5997.93" y1="169.07" x2="6010.95" y2="169.07" xlink:href="#Gradient_bez_nazwy_3"/></defs><title>kontent-box1</title><g class="cls-1"><g id="Слой_2" data-name="Слой 2"><g id="Designed_by_Freepik" data-name="Designed by Freepik"><circle class="cls-2" cx="90" cy="90" r="90"/></g><g id="Objects"><rect class="cls-3" x="48.55" y="44.35" width="74.46" height="98.52" rx="13.47" ry="13.47" transform="translate(171.57 187.21) rotate(180)"/><path class="cls-3" d="M134.93,30.46C118.69,31.51,118.38,50,118.38,50v87.92H53.18V50s-.07-18.4,16.63-19.51Z"/><rect class="cls-3" x="61.74" y="53.43" width="44.78" height="3.95"/><rect class="cls-3" x="61.74" y="62.57" width="38.24" height="2.8"/><rect class="cls-3" x="61.74" y="69.96" width="19.22" height="4.16"/><rect class="cls-4" x="86.65" y="69.96" width="19.88" height="4.16"/><rect class="cls-3" x="61.74" y="77.96" width="30.62" height="2.96"/><rect class="cls-3" x="61.74" y="85.37" width="34.5" height="1.65"/><rect class="cls-3" x="61.74" y="92.78" width="41.49" height="1.65"/><path class="cls-3" d="M81.1,109.38H61.61v-9.32H81.1Zm-19.22-.26h19v-8.79h-19Z"/><rect class="cls-5" x="85.78" y="100.19" width="17.45" height="2.14"/><rect class="cls-6" x="85.78" y="104.72" width="12.37" height="2.14"/><rect class="cls-3" x="61.74" y="115.01" width="34.19" height="1.65"/><rect class="cls-3" x="61.74" y="122.42" width="19.65" height="1.65"/><path class="cls-7" d="M31,14.37c1.54-2.17-.22-6-4.59-6.35-5-.41-13.84,2.47-9.09,14.09,4.94,12.09,3.4,15.19.07,17,0,0,11.42.92,10.55-9.06S27.45,19.4,31,14.37Z"/><path class="cls-8" d="M53.92,52.15c-1.71-.29-5.42-1.36-13.3-5.56a64.23,64.23,0,0,1-8-4.84c-2.37-1.66-1.57-4-.06-4.51a10.06,10.06,0,0,1,7.1.57c7.4,4.6,12.86,8.25,14.91,9.14C57.59,48.24,56,52.5,53.92,52.15Z"/><path class="cls-9" d="M66.74,37c.11,1.28-1.42,1.51-3.52,5a36.47,36.47,0,0,1-7.27,9.38c-2,2-5.77-.09-3.79-3,1.67-2.44,11.23-11.23,12.25-12.72C65.07,34.68,66.65,35.92,66.74,37Z"/><path class="cls-10" d="M29.32,28.87c0,.25-.42,5.53-.49,9.59,0,2,1.4,3.88,2.83,3.92h.06c1.4,0,3.06-1.76,2.93-3.72-.23-3.53-.06-7.15-.05-7.2Z"/><path class="cls-11" d="M25.21,51.72a69.07,69.07,0,0,1,2.54,11.1,28.13,28.13,0,0,1,0,8.36c-.23,1.67-.55,3.32-.93,5-.14.62-1.36,5.63-1.42,6.17H48.24c-.22-4.48-5.32-18.57-1.87-27.68,2.39-6.32-.79-6.51-2.94-11.77A15.45,15.45,0,0,0,41.6,39a6.57,6.57,0,0,0-3.5-2.15A13,13,0,0,0,36,36.6c-3.87-.31-13-1.43-13.85,4.08a9.76,9.76,0,0,0,.45,4.45c.51,1.61,1.28,3.12,1.92,4.68Q24.88,50.75,25.21,51.72Z"/><path class="cls-12" d="M25.46,96.83s-2-5-.09-14.53H48.24a140,140,0,0,1,.83,14.53Z"/><path class="cls-13" d="M29.52,128.93c3-7.35-4.3-9.87-7.54-4.72-4.58,7.29-6.56,34.24-7.16,39.26-.08.66.28.59.67.51,1.13-.22.65-1.28,2.27-1.18.85.05,1.1,1.22,1.1,1.22C20.62,157.35,26.61,136.05,29.52,128.93Z"/><path class="cls-14" d="M36.81,97.88c.8-9.6-2.86-17.06-8.6-13.89-2.42,1.33-3.3,4-3.63,6.52s-2.1,28.64-2.73,33.36c-1.41,10.64,6.69,7.77,7.57,4.82C31.65,121.25,36.37,103.11,36.81,97.88Z"/><path class="cls-15" d="M50.33,127.41c.3-7.21-6.46-7.05-8.16-1.19-2.67,9.23,1.95,29,2.24,40.35,1.18-2,2.29-2.43,2.82-2.39a1.88,1.88,0,0,1,1.31.74C48.37,150,50,135.12,50.33,127.41Z"/><path class="cls-16" d="M42.45,128.19c.9,2.94,8.64,6.35,7.83-4.36-.36-4.75-1.31-31-1.5-33.51s-.61-6.22-1.83-6.68c-6.11-2.31-12,5.24-10.43,14.73C37.59,104.71,40.58,122.09,42.45,128.19Z"/><path class="cls-17" d="M26.57,25c.45,4.51.58,5.51,2.55,7.36a10.64,10.64,0,0,0,6.93,2.7c2.31,0,4-2.44,4.55-4.35a32.82,32.82,0,0,0,.52-11.56c-.33-2.51-3.42-5.55-6.61-5.55S25.46,14,26.57,25Z"/><path class="cls-18" d="M48.82,164.89a7.8,7.8,0,0,0,3.24,2.46c1.73.77,5.4,1.14,3.36,1.82a12.19,12.19,0,0,1-5.62.08A24.38,24.38,0,0,0,46,169c-1.87,0-1.89-.13-1.63-2.24C44.73,163.86,48,163.24,48.82,164.89Z"/><path class="cls-19" d="M18.8,163.6c.26.51.54,3,2.27,3.74s5.4,1.14,3.36,1.82a12.19,12.19,0,0,1-5.62.08c-1.2-.19-1.4-1.5-2.82-1.51-1.87,0-1.89-.13-1.63-2.24C14.71,162.57,18,162,18.8,163.6Z"/><path class="cls-20" d="M40.36,16.83c1.77,3-11.08,8.55-13.94,8.08s-2.83-6.54-.62-9.3S36.19,9.7,40.36,16.83Z"/><path class="cls-21" d="M35.6,16.07c.46,2.55,4.94,3.14,5.7,5.25.47,1.31.69-2.83-.36-4.71S34.67,10.93,35.6,16.07Z"/><ellipse class="cls-17" cx="26.43" cy="25.7" rx="1.6" ry="3.05" transform="translate(-7.76 11.9) rotate(-22.21)"/><path class="cls-17" d="M29.78,77.42a8.28,8.28,0,0,1,3.1,2.39c.51.85-1.4-.11-2.35-.5S28.75,76.91,29.78,77.42Z"/><path class="cls-17" d="M30.43,78.76c1.59,2.33,2.81,3.32,2.92,4.68s-2.3.45-3-.28S27.12,80,27.29,78.8,29.26,77,30.43,78.76Z"/><path class="cls-22" d="M17.41,62.8c-.13-1.73,0-5.59,2.26-14.24a64.11,64.11,0,0,1,2.82-8.87c1-2.7,3.52-2.47,4.37-1.13a10.07,10.07,0,0,1,1.13,7C25.27,53.87,23,60,22.63,62.24,22.08,65.44,17.56,64.86,17.41,62.8Z"/><path class="cls-23" d="M28,79.26c-1.29-.35-1-1.92-3.66-5.23a37.94,37.94,0,0,1-6.57-10.44C16.52,60.86,19.91,58,22,60.94c1.79,2.51,7,15,8.06,16.5C30.81,78.44,29,79.55,28,79.26Z"/><path class="cls-17" d="M68.58,37.69a4.13,4.13,0,0,0,2.1-1.28c.21-.36-.54-1-1.89-1.23-1.19-.19-4.25-.15-4.57.39s.22,1.22,1.09,1.84A3.65,3.65,0,0,0,68.58,37.69Z"/><path class="cls-24" d="M153.85,165.38a13.38,13.38,0,0,0-.31,2.3c-.15.92-1,1.26-1.54,2s-1.45,2.18,2,2.24c3.69.07,5.88-.17,5.25-2.19a10.23,10.23,0,0,1-.71-3.55,2.17,2.17,0,0,0-.42-1.73C157.7,164.08,154.39,163.37,153.85,165.38Z"/><path class="cls-25" d="M106.59,26.55c1,1.79,10.43,9.76,12.15,12.69,2,3.46-2.5,8.94-4.52,6.76-2.18-2.36-4.39-5.34-7.68-11-2.44-4.22-2.56-5.63-2.4-7.7C104.26,25.57,105.9,25.37,106.59,26.55Z"/><path class="cls-26" d="M116.88,39.58c2.15-.26,8.48-2.76,16.92-5.33,1.49-.46,5,1,6.72,2.83,1,1.16.63,4.21-2.16,5.25a56.73,56.73,0,0,1-9,2.64c-8.66,1.93-12.31,1.78-13.9,1.47C113.55,46.07,113.74,40,116.88,39.58Z"/><path class="cls-27" d="M137.7,23.59c-1.51.71-2.17.71-2.71-1.16-.42-1.46-1.14-6.58,1.2-6.92s4.17-.41,3.9,2.75S139.49,22.75,137.7,23.59Z"/><path class="cls-28" d="M146.52,26.34c0,.23.54,5.14.63,8.91a3.89,3.89,0,0,1-3.65,3.64h-.08c-1.81,0-3.94-1.64-3.78-3.45a48.71,48.71,0,0,0,.06-6.69Z"/><path class="cls-29" d="M155.67,46.77c-3.36,11.06-4.87,24.47-4.21,32.2H126.12s.15-23.72,1.84-36.72a9.72,9.72,0,0,1,5.35-7.45,18.18,18.18,0,0,1,6.75-1.5h4.68a28.3,28.3,0,0,1,4.94.62C156.4,35.19,157.62,40.36,155.67,46.77Z"/><path class="cls-30" d="M151.35,94.47s2.19-5.32.1-15.5H126.12a144,144,0,0,0-.92,15.5Z"/><path class="cls-31" d="M146.35,127.62c-2-8.25,6.39-9.7,9.05-3.73,3.76,8.44,3.46,35.41,3.26,40.79,0,.71-.41.57-.82.43a6.29,6.29,0,0,0-2.68-.48,2.31,2.31,0,0,0-1.41,1.11C153,158.4,148.32,135.61,146.35,127.62Z"/><path class="cls-32" d="M138.78,95.58c-.89-10.25,3.17-18.2,9.52-14.82,2.68,1.42,3.65,4.27,4,7s2.33,30.56,3,35.59c1.56,11.35-7.41,8.29-8.38,5.15C144.49,120.51,139.26,101.16,138.78,95.58Z"/><path class="cls-33" d="M123.81,127.09c-.33-7.69,7.15-7.52,9-1.27,3,9.84-2.16,31-2.48,43-1.3-2.08-2.54-2.59-3.12-2.55a2.09,2.09,0,0,0-1.45.79C126,151.21,124.16,135.31,123.81,127.09Z"/><path class="cls-34" d="M132.54,127.92c-1,3.14-9.56,6.77-8.67-4.65.4-5.07,1.45-33.05,1.66-35.75s.67-6.64,2-7.13c6.76-2.46,13.33,5.59,11.55,15.72C137.91,102.87,134.6,121.41,132.54,127.92Z"/><path class="cls-35" d="M150.15,71.14c1.31-1.59,5.53-13.17,7.68-15.8,2.54-3.1,9-1.14,7.76,1.58-1.85,4.16-2.67,5.67-7.53,10.76-3.37,3.53-4.41,5-6.4,5.52C150,73.66,149.28,72.19,150.15,71.14Z"/><path class="cls-36" d="M158.8,57c-1-1.93-5.53-7-10.87-14-.95-1.24-.85-5.06.32-7.28.73-1.38,3.73-2,5.67.21a56.73,56.73,0,0,1,5.61,7.54c4.82,7.45,5.94,10.92,6.2,12.53C166,57.84,160.25,59.78,158.8,57Z"/><path class="cls-17" d="M149,22.78c-.42,4.19-.54,5.12-2.37,6.84a9.88,9.88,0,0,1-6.44,2.5c-2.15,0-3.74-2.27-4.22-4a30.5,30.5,0,0,1-.49-10.73,6.77,6.77,0,0,1,6.14-5.15C144.6,12.2,150,12.54,149,22.78Z"/><path class="cls-17" d="M152.42,70.56c-1-1.06-2.49-2.72-3.24-3.67s-3,.68-3,1.5c-.07,1.21,1.15,4.53,2.71,4.52s2,1.42,3.32,1S154,72.3,152.42,70.56Z"/><path class="cls-37" d="M125.48,167.06a8.59,8.59,0,0,1-3.59,2.62c-1.92.83-6,1.21-3.72,1.94a14,14,0,0,0,6.22.08,28.17,28.17,0,0,1,4.2-.24c2.07,0,2.09-.14,1.81-2.39C130,166,126.41,165.31,125.48,167.06Z"/><path class="cls-27" d="M149,22.13c-1.13,1.13-1.73,1.35-2.83-.17-.86-1.18-3.18-5.58-1.18-6.65s3.64-1.73,4.42,1.21S150.35,20.79,149,22.13Z"/><ellipse class="cls-17" cx="149.14" cy="23.4" rx="2.84" ry="1.49" transform="translate(71.08 152.61) rotate(-67.78)"/><path class="cls-27" d="M147.72,14.52c-1.63,2.44-9.52,2.66-12.09,1.77s-2.4-5.88,1.29-6.22c2.07,0,.57.49,2.25,1.18C140,11.59,149.46,11.92,147.72,14.52Z"/><path class="cls-17" d="M106.94,26.77c-.46-1.27-4.58-11-6.2-9.41-1.8,1.81-1,6-.57,7.44.8,2.55,3.21,4.06,4.83,4C106.13,28.67,107.37,28,106.94,26.77Z"/><path class="cls-17" d="M107.15,26c.06-.62.4-4.29-.28-4.4-1-.17-1.38,2.22-1.62,3.8-.13.86.28,2.1,1,2.11S107.05,27,107.15,26Z"/><rect class="cls-3" x="97.83" y="18.55" width="3.43" height="15.47" transform="translate(37.79 -56.09) rotate(38.35)"/><path class="cls-3" d="M102.3,25.38l-2.5-2a.48.48,0,0,1-.08-.68l7-8.89a2.07,2.07,0,0,1,2.91-.34h0A2.07,2.07,0,0,1,110,16.4l-7,8.89A.48.48,0,0,1,102.3,25.38Z"/><polygon class="cls-3" points="94.55 36.34 90.38 38.74 89.53 38.08 90.92 33.47 93.59 32.08 95.28 33.42 94.55 36.34"/><path class="cls-3" d="M95,34.33l-2.26-1.79a.75.75,0,0,1-.12-1.05h0a.75.75,0,0,1,1.05-.12l2.26,1.79a.75.75,0,0,1,.12,1.05h0A.75.75,0,0,1,95,34.33Z"/><ellipse class="cls-3" cx="92.35" cy="35.39" rx="0.54" ry="0.55" transform="translate(7.29 85.85) rotate(-51.65)"/><path class="cls-3" d="M92.46,35.54l-2.36,3-.29-.23,2.36-3a.18.18,0,0,1,.26,0,.19.19,0,0,1,.07.12A.18.18,0,0,1,92.46,35.54Z"/><path class="cls-3" d="M102.44,25.72l-3-2.38a.46.46,0,0,1-.08-.65h0a.46.46,0,0,1,.65-.08L103,25a.46.46,0,0,1,.08.65h0A.46.46,0,0,1,102.44,25.72Z"/></g></g></g></svg>