<svg xmlns="http://www.w3.org/2000/svg" xmlns:xlink="http://www.w3.org/1999/xlink" viewBox="0 0 180 180"><defs><style>.cls-1{fill:#ed0f0f;opacity:0.1;}.cls-2{fill:url(#Gradient_bez_nazwy_4);}.cls-3{fill:url(#Gradient_bez_nazwy_2);}.cls-4{fill:url(#Gradient_bez_nazwy_2-2);}.cls-5{fill:#ea8f68;}.cls-6{fill:url(#Gradient_bez_nazwy_2-3);}.cls-7{fill:url(#Gradient_bez_nazwy_10);}.cls-8{fill:url(#Gradient_bez_nazwy_5);}.cls-9{fill:url(#Gradient_bez_nazwy_5-2);}.cls-10{fill:url(#Gradient_bez_nazwy_5-3);}.cls-11{fill:url(#Gradient_bez_nazwy_5-4);}.cls-12{fill:#ffaf84;}.cls-13{fill:url(#Gradient_bez_nazwy_4-2);}.cls-14{fill:url(#Gradient_bez_nazwy_4-3);}.cls-15{fill:url(#Gradient_bez_nazwy_4-4);}.cls-16{fill:url(#Gradient_bez_nazwy_4-5);}.cls-17{fill:url(#Gradient_bez_nazwy_2-4);}.cls-18{fill:url(#Gradient_bez_nazwy_2-5);}.cls-19{fill:#4e11f4;}.cls-20{fill:url(#Gradient_bez_nazwy_5-5);}.cls-21{fill:url(#Gradient_bez_nazwy_5-6);}.cls-22{fill:url(#Gradient_bez_nazwy_5-7);}.cls-23{fill:url(#Gradient_bez_nazwy_14);}.cls-24{fill:url(#Gradient_bez_nazwy_14-2);}.cls-25{fill:url(#Gradient_bez_nazwy_14-3);}.cls-26{fill:url(#Gradient_bez_nazwy_14-4);}.cls-27{fill:url(#Gradient_bez_nazwy_14-5);}.cls-28{fill:url(#Gradient_bez_nazwy_3);}.cls-29{fill:url(#Gradient_bez_nazwy_5-8);}.cls-30{fill:url(#Gradient_bez_nazwy_5-9);}.cls-31{fill:none;stroke:#0037ff;stroke-miterlimit:10;}.cls-31,.cls-32{fill-rule:evenodd;}.cls-32{fill:#0037ff;}</style><linearGradient id="Gradient_bez_nazwy_4" x1="6877.52" y1="54.14" x2="6835.67" y2="23.97" gradientTransform="matrix(-1, 0, 0, 1, 6993.74, 0)" gradientUnits="userSpaceOnUse"><stop offset="0" stop-color="#2c27ce"/><stop offset="0.65" stop-color="#ef1d68"/><stop offset="1" stop-color="#efba92"/></linearGradient><linearGradient id="Gradient_bez_nazwy_2" x1="4487.92" y1="7158.63" x2="4475" y2="7190.86" gradientTransform="matrix(-0.61, -0.79, -0.79, 0.61, 8543.69, -800.87)" gradientUnits="userSpaceOnUse"><stop offset="0" stop-color="#f70f47"/><stop offset="1" stop-color="#9e005d"/></linearGradient><linearGradient id="Gradient_bez_nazwy_2-2" x1="6242.82" y1="4600.99" x2="6228.34" y2="4637.08" gradientTransform="matrix(-0.85, -0.52, -0.52, 0.85, 7846.15, -651.22)" xlink:href="#Gradient_bez_nazwy_2"/><linearGradient id="Gradient_bez_nazwy_2-3" x1="6854.3" y1="50.56" x2="6859.08" y2="91.6" gradientTransform="matrix(-1, 0, 0, 1, 6993.74, 0)" xlink:href="#Gradient_bez_nazwy_2"/><linearGradient id="Gradient_bez_nazwy_10" x1="6862.8" y1="79.08" x2="6843.87" y2="134.19" gradientTransform="matrix(-1, 0, 0, 1, 6993.74, 0)" gradientUnits="userSpaceOnUse"><stop offset="0" stop-color="#36078b"/><stop offset="1" stop-color="#168d68"/></linearGradient><linearGradient id="Gradient_bez_nazwy_5" x1="6588.17" y1="-1214.46" x2="6568.82" y2="-1158.13" gradientTransform="matrix(-0.99, 0.15, 0.15, 0.99, 6815.43, 267.09)" gradientUnits="userSpaceOnUse"><stop offset="0" stop-color="#36078b"/><stop offset="1" stop-color="#16b1ff"/></linearGradient><linearGradient id="Gradient_bez_nazwy_5-2" x1="6859.75" y1="78.03" x2="6840.82" y2="133.14" gradientTransform="matrix(-1, 0, 0, 1, 6993.74, 0)" xlink:href="#Gradient_bez_nazwy_5"/><linearGradient id="Gradient_bez_nazwy_5-3" x1="6886.72" y1="87.3" x2="6867.79" y2="142.4" gradientTransform="matrix(-1, 0, 0, 1, 6993.74, 0)" xlink:href="#Gradient_bez_nazwy_5"/><linearGradient id="Gradient_bez_nazwy_5-4" x1="6874.2" y1="83" x2="6855.26" y2="138.1" gradientTransform="matrix(-1, 0, 0, 1, 6993.74, 0)" xlink:href="#Gradient_bez_nazwy_5"/><linearGradient id="Gradient_bez_nazwy_4-2" x1="6868.66" y1="190.81" x2="6870.8" y2="164.44" xlink:href="#Gradient_bez_nazwy_4"/><linearGradient id="Gradient_bez_nazwy_4-3" x1="6838.41" y1="195.71" x2="6841.11" y2="162.47" xlink:href="#Gradient_bez_nazwy_4"/><linearGradient id="Gradient_bez_nazwy_4-4" x1="6872.49" y1="48.39" x2="6848.75" y2="21.29" xlink:href="#Gradient_bez_nazwy_4"/><linearGradient id="Gradient_bez_nazwy_4-5" x1="6877.37" y1="44.11" x2="6853.63" y2="17.01" xlink:href="#Gradient_bez_nazwy_4"/><linearGradient id="Gradient_bez_nazwy_2-4" x1="5778.05" y1="2033.29" x2="5763.8" y2="2068.81" gradientTransform="matrix(-0.9, -0.44, -0.44, 0.9, 6235.68, 749.89)" xlink:href="#Gradient_bez_nazwy_2"/><linearGradient id="Gradient_bez_nazwy_2-5" x1="6902.06" y1="-2409.09" x2="6894.87" y2="-2391.18" gradientTransform="matrix(-0.88, 0.48, 0.48, 0.88, 7352.14, -1109.7)" xlink:href="#Gradient_bez_nazwy_2"/><linearGradient id="Gradient_bez_nazwy_5-5" x1="3460.29" y1="-7253.96" x2="3509.22" y2="-7301.08" gradientTransform="matrix(-0.58, 0.81, 0.81, 0.58, 6686.95, 1705.48)" xlink:href="#Gradient_bez_nazwy_5"/><linearGradient id="Gradient_bez_nazwy_5-6" x1="6994.24" y1="73.2" x2="7043.16" y2="26.08" gradientTransform="matrix(-1, 0, 0, 1, 7071.09, 0)" xlink:href="#Gradient_bez_nazwy_5"/><linearGradient id="Gradient_bez_nazwy_5-7" x1="7031.83" y1="25.59" x2="7031.83" y2="67.03" gradientTransform="matrix(-1, 0, 0, 1, 7071.09, 0)" xlink:href="#Gradient_bez_nazwy_5"/><linearGradient id="Gradient_bez_nazwy_14" x1="6993.57" y1="154.47" x2="7033.97" y2="77.75" gradientTransform="matrix(-1, 0, 0, 1, 7071.09, 0)" gradientUnits="userSpaceOnUse"><stop offset="0" stop-color="#f70f47"/><stop offset="1" stop-color="#ffb41d"/></linearGradient><linearGradient id="Gradient_bez_nazwy_14-2" x1="7027.47" y1="172.32" x2="7067.87" y2="95.6" xlink:href="#Gradient_bez_nazwy_14"/><linearGradient id="Gradient_bez_nazwy_14-3" x1="7008.39" y1="162.28" x2="7048.79" y2="85.55" xlink:href="#Gradient_bez_nazwy_14"/><linearGradient id="Gradient_bez_nazwy_14-4" x1="7008.88" y1="162.54" x2="7049.28" y2="85.81" xlink:href="#Gradient_bez_nazwy_14"/><linearGradient id="Gradient_bez_nazwy_14-5" x1="6993.83" y1="154.61" x2="7034.23" y2="77.88" xlink:href="#Gradient_bez_nazwy_14"/><linearGradient id="Gradient_bez_nazwy_3" x1="7020.56" y1="7.52" x2="7055.46" y2="34.4" gradientTransform="matrix(-1, 0, 0, 1, 7071.09, 0)" gradientUnits="userSpaceOnUse"><stop offset="0" stop-color="blue"/><stop offset="1" stop-color="#9e005d"/></linearGradient><linearGradient id="Gradient_bez_nazwy_5-8" x1="7006.84" y1="100.81" x2="7060.77" y2="39.24" gradientTransform="matrix(-1, 0, 0, 1, 7071.09, 0)" xlink:href="#Gradient_bez_nazwy_5"/><linearGradient id="Gradient_bez_nazwy_5-9" x1="7003.61" y1="97.99" x2="7057.54" y2="36.41" gradientTransform="matrix(-1, 0, 0, 1, 7071.09, 0)" xlink:href="#Gradient_bez_nazwy_5"/></defs><title>kontent-box2</title><g id="Слой_2" data-name="Слой 2"><g id="Designed_by_Freepik" data-name="Designed by Freepik"><circle class="cls-1" cx="90" cy="90" r="90"/></g><g id="Objects"><path class="cls-2" d="M142.15,20.63c-1.5-2.12.22-5.85,4.49-6.21,4.87-.4,13.52,2.41,8.88,13.76C150.69,40,152.2,43,155.45,44.8c0,0-11.15.89-10.31-8.85S145.64,25.55,142.15,20.63Z"/><path class="cls-3" d="M119.11,52.46c2-.87,7.33-4.44,14.56-8.93a9.83,9.83,0,0,1,6.93-.55c1.47.5,2.26,2.79-.06,4.41a62.75,62.75,0,0,1-7.77,4.72c-7.7,4.11-11.32,5.15-13,5.44C117.8,57.88,116.2,53.73,119.11,52.46Z"/><path class="cls-4" d="M109.54,41.44c1,1.45,10.33,10,12,12.43,1.94,2.82-1.71,4.89-3.71,2.91a35.62,35.62,0,0,1-7.1-9.16c-2.06-3.44-3.55-3.66-3.44-4.91C107.34,41.68,108.88,40.48,109.54,41.44Z"/><path class="cls-5" d="M143.82,34.8c0,.24.41,5.41.48,9.37,0,1.94-1.37,3.79-2.77,3.83h-.06c-1.37,0-3-1.72-2.87-3.63.22-3.45.06-7,0-7Z"/><path class="cls-6" d="M147.83,57.12A67.47,67.47,0,0,0,145.35,68a27.48,27.48,0,0,0,0,8.17c.22,1.63.54,3.25.91,4.85.14.61,1.33,5.5,1.39,6H125.33c.21-4.38,5.2-18.14,1.83-27-2.34-6.17.77-6.36,2.87-11.49a15.09,15.09,0,0,1,1.79-3.72,6.42,6.42,0,0,1,3.42-2.1,12.74,12.74,0,0,1,2.08-.29c3.78-.31,12.69-1.4,13.53,4a9.53,9.53,0,0,1-.44,4.35c-.5,1.57-1.25,3-1.87,4.57Q148.15,56.18,147.83,57.12Z"/><path class="cls-7" d="M147.59,101.2s1.93-4.87.09-14.19H125.33a136.75,136.75,0,0,0-.81,14.19Z"/><path class="cls-8" d="M143.62,132.55c-2.93-7.18,4.2-9.64,7.37-4.61,4.47,7.12,6.41,33.45,7,38.35.08.64-.27.57-.65.5-1.1-.21-.64-1.25-2.21-1.15-.83.05-1.07,1.19-1.07,1.19C152.32,160.31,146.46,139.51,143.62,132.55Z"/><path class="cls-9" d="M136.5,102.22c-.78-9.38,2.8-16.67,8.4-13.57,2.36,1.3,3.22,3.91,3.54,6.37s2.05,28,2.66,32.59c1.37,10.4-6.54,7.59-7.4,4.71C141.54,125,136.92,107.33,136.5,102.22Z"/><path class="cls-10" d="M123.28,131.07c-.29-7,6.31-6.89,8-1.16,2.61,9-1.9,28.37-2.18,39.42-1.15-1.91-2.24-2.37-2.75-2.33a1.84,1.84,0,0,0-1.28.72C125.21,153.16,123.6,138.6,123.28,131.07Z"/><path class="cls-11" d="M131,131.83c-.88,2.87-8.44,6.2-7.65-4.26.35-4.64,1.28-30.27,1.46-32.74s.59-6.08,1.79-6.53c6-2.25,11.76,5.12,10.19,14.39C135.73,108.89,132.81,125.87,131,131.83Z"/><path class="cls-12" d="M146.51,31.06c-.44,4.41-.57,5.39-2.5,7.19a10.4,10.4,0,0,1-6.77,2.63c-2.26,0-3.93-2.38-4.44-4.25a32.07,32.07,0,0,1-.51-11.29c.32-2.45,3.34-5.42,6.46-5.42S147.58,20.29,146.51,31.06Z"/><path class="cls-13" d="M124.76,167.68a7.62,7.62,0,0,1-3.17,2.4c-1.69.76-5.28,1.11-3.28,1.77a11.91,11.91,0,0,0,5.49.07,23.82,23.82,0,0,1,3.7-.22c1.83,0,1.84-.12,1.6-2.19C128.76,166.67,125.59,166.07,124.76,167.68Z"/><path class="cls-14" d="M154.09,166.42c-.26.5-.52,2.9-2.21,3.66s-5.28,1.11-3.28,1.77a11.91,11.91,0,0,0,5.49.07c1.18-.19,1.36-1.47,2.75-1.48,1.83,0,1.84-.12,1.6-2.19C158.09,165.42,154.91,164.82,154.09,166.42Z"/><path class="cls-15" d="M133,23c-1.73,2.95,10.82,8.36,13.61,7.89s2.76-6.38.61-9.09S137.1,16.08,133,23Z"/><path class="cls-16" d="M137.68,22.29c-.45,2.5-4.83,3.07-5.57,5.13-.46,1.28-.68-2.77.35-4.6S138.59,17.28,137.68,22.29Z"/><ellipse class="cls-12" cx="146.64" cy="31.71" rx="2.98" ry="1.56" transform="translate(61.85 155.47) rotate(-67.79)"/><path class="cls-12" d="M143.36,82.23a8.09,8.09,0,0,0-3,2.34c-.5.83,1.36-.1,2.3-.49S144.37,81.73,143.36,82.23Z"/><path class="cls-12" d="M142.73,83.54c-1.55,2.28-2.75,3.24-2.85,4.57s2.25.44,2.91-.27,3.18-3.12,3-4.26S143.87,81.85,142.73,83.54Z"/><path class="cls-17" d="M150.35,67.4c-.37-2.15-2.58-8.17-5.23-16.26a9.84,9.84,0,0,1,1.1-6.87c.83-1.31,3.24-1.53,4.27,1.1A62.63,62.63,0,0,1,153.24,54c2.17,8.45,2.33,12.22,2.21,13.91C155.3,70,150.89,70.53,150.35,67.4Z"/><path class="cls-18" d="M143.07,82.25c1.07-1.48,6.13-13.67,7.87-16.11,2.06-2.9,5.38-.08,4.16,2.58a37.07,37.07,0,0,1-6.42,10.2c-2.62,3.24-2.31,4.77-3.57,5.11C144.09,84.31,142.36,83.23,143.07,82.25Z"/><path class="cls-12" d="M105.46,43.42a4,4,0,0,1-2-1.25c-.21-.35.52-1,1.85-1.2,1.16-.18,4.15-.15,4.46.38s-.22,1.19-1.07,1.79A3.56,3.56,0,0,1,105.46,43.42Z"/><path class="cls-19" d="M26.85,163.34a13,13,0,0,1,.31,2.25c.15.9,1,1.23,1.51,2s1.42,2-2,2.07c-3.61.07-5.75,0-5.14-2a10,10,0,0,0,.69-3.48,2.12,2.12,0,0,1,.41-1.69C23.07,162.06,26.32,161.37,26.85,163.34Z"/><path class="cls-12" d="M70.33,52.3C71.5,51.69,81,47.4,81,49.66c.09,2.49-3.29,5-4.53,5.72-2.27,1.3-5,.79-6.09-.37C69.64,54.2,69.21,52.88,70.33,52.3Z"/><path class="cls-12" d="M70.66,51.63c.37-.48,2.56-3.35,3.13-3,.86.57-.48,2.51-1.36,3.81-.48.7-1.59,1.32-2.11.87S70.08,52.4,70.66,51.63Z"/><path class="cls-19" d="M54.61,165a8.41,8.41,0,0,0,3.51,2.56c1.88.81,5.85,1.19,3.64,1.9a13.71,13.71,0,0,1-6.09.08,27.57,27.57,0,0,0-4.11-.24c-2,0-2-.13-1.77-2.34C50.18,163.91,53.7,163.26,54.61,165Z"/><path class="cls-12" d="M31.58,24.32c.41,4.1.53,5,2.32,6.69s4.59,1.92,6.54,1.92c2.1,0,3.49-2.53,4-4.27A25.28,25.28,0,0,0,44.81,19a6.63,6.63,0,0,0-6-5C35.9,14,30.58,14.3,31.58,24.32Z"/><path class="cls-20" d="M71.3,52.79c-1.94.57-14-.1-17.17.82-3.77,1.09-4.25,8-1.35,7.84a57.37,57.37,0,0,0,12.9-2.66c4.58-1.35,5.61-2.27,6.89-3.84C73.61,53.67,72.58,52.42,71.3,52.79Z"/><path class="cls-21" d="M56.85,54.4c-1.11-1.81-3.07-8.17-6.26-16.19-.56-1.42-3.81-3.27-6.27-3.41-1.53-.09-3.6,2.09-2.69,4.86a55.68,55.68,0,0,0,3.49,8.51c3.81,7.8,6.16,10.5,7.37,11.53C53.92,60.91,58.48,57,56.85,54.4Z"/><path class="cls-12" d="M33.67,31.55c-.11,1.42-.22,3.06-.26,4.55a3.92,3.92,0,0,0,3.42,4H37c1.77,0,3.86-1.6,3.7-3.38-.1-1.15-.14-2.32-.15-3.34A4.61,4.61,0,0,0,37.53,29h0A2.9,2.9,0,0,0,33.67,31.55Z"/><path class="cls-22" d="M25.46,49.08c3.29,10.82,4.37,22.11,3.73,29.67H54s-.14-23.22-1.81-35.94a9.52,9.52,0,0,0-5.23-7.29,17.79,17.79,0,0,0-6.61-1.46H35.76a17.35,17.35,0,0,0-4.84.6C24.16,36.74,23.55,42.81,25.46,49.08Z"/><path class="cls-23" d="M29.29,93.92s-2.14-5.2-.1-15.17H54a140.91,140.91,0,0,1,.9,15.17Z"/><path class="cls-24" d="M34.19,126.37c2-8.07-6.26-9.49-8.86-3.65-3.68,8.26-3.39,34.66-3.19,39.93,0,.69-.09,1.54.26,1.78a5.31,5.31,0,0,0,2.62.42c.92,0,1.83,0,1.92-1.17C27.56,156,32.26,134.19,34.19,126.37Z"/><path class="cls-25" d="M41.6,95c.87-10-3.1-17.81-9.32-14.5-2.62,1.39-3.58,4.18-3.93,6.8s-2.28,29.91-3,34.84c-1.52,11.11,7.25,8.12,8.21,5C36,119.41,41.12,100.48,41.6,95Z"/><path class="cls-26" d="M49.83,166.74c-.31-11.81-5.32-32.5-2.42-42.13,1.84-6.12,9.17-6.28,8.84,1.24-.35,8-2.77,23.63-1.94,39.17C54.39,166.55,49.89,168.12,49.83,166.74Z"/><path class="cls-27" d="M47.7,126.67c1,3.07,9.36,6.63,8.48-4.55-.39-5-1.42-32.35-1.62-35s-.66-6.5-2-7c-6.62-2.41-13,5.47-11.3,15.38C42.44,102.15,45.68,120.3,47.7,126.67Z"/><ellipse class="cls-12" cx="45.07" cy="24.01" rx="2.78" ry="1.45" transform="translate(5.8 56.65) rotate(-67.78)"/><ellipse class="cls-12" cx="31.7" cy="24.01" rx="1.45" ry="2.78" transform="translate(-6.72 13.77) rotate(-22.21)"/><path class="cls-12" d="M40.28,67.07c1.06-.54,9.56-4.4,9.63-2.38.08,2.24-3,4.51-4.08,5.15-2,1.17-4.5.71-5.48-.33C39.66,68.77,39.28,67.58,40.28,67.07Z"/><path class="cls-12" d="M41.53,65.49c.51-.2,3.53-1.38,3.79-.83.4.84-1.54,1.71-2.82,2.3-.69.32-1.84.28-2-.32S40.72,65.81,41.53,65.49Z"/><path class="cls-28" d="M32.85,16.24c1.6,2.38,9.32,2.61,11.84,1.73s2.34-5.75-1.26-6.09c-2,0-.56.48-2.2,1.15C40.38,13.37,31.14,13.69,32.85,16.24Z"/><path class="cls-29" d="M43.77,67.52c-1.94-.57-11.7-7.67-14.87-8.62-3.76-1.13-7.9,4-5.43,5.52,3.77,2.36,5.27,3.14,12,4.61,4.66,1,6.29,1.61,8.22,1C45.24,69.5,45.06,67.9,43.77,67.52Z"/><path class="cls-30" d="M29.28,61.28c0-2.12,1.8-8.54,3.43-17,.29-1.5-1.45-4.81-3.45-6.25-1.24-.89-4.16-.17-4.88,2.65a55.58,55.58,0,0,0-1.63,9.05c-1,8.63-.46,12.16,0,13.68C23.31,65.2,29.24,64.38,29.28,61.28Z"/><path class="cls-31" d="M128.17,15.64c.42,1.63.88,3.25,1.25,4.9.3,1.33.48,2.68.71,4a16.67,16.67,0,0,1,.32,1.84,3,3,0,0,1-1.75,2.73,39.78,39.78,0,0,1-4.64,2.45c-.84.37-1.72.67-2.57,1l-2.41.94a.28.28,0,0,0-.22.3c0,1.06-.07,2.12-.11,3.18a22.09,22.09,0,0,1-.22,3.33.67.67,0,0,1-.46.58.76.76,0,0,1-.7-.16,18.92,18.92,0,0,1-3.16-3.18c-.5-.58-1-1.16-1.48-1.76-.08-.1-.11-.08-.22,0l-2.66,1c-.82.31-1.64.61-2.48.85-1.15.33-2.31.64-3.48.9a5.26,5.26,0,0,1-3.15-.24,6.33,6.33,0,0,1-3.51-3.62c-.57-1.3-1.19-2.57-1.78-3.85a5.13,5.13,0,0,1-.32-.86A35.42,35.42,0,0,0,93.8,26.3a30.51,30.51,0,0,1-.89-3A7.23,7.23,0,0,1,92.77,20a4.39,4.39,0,0,1,1.51-2.45,14.83,14.83,0,0,1,4.06-2.46c.86-.36,1.76-.66,2.66-1s2-.74,3-1.08c.48-.16,1-.29,1.46-.47,1.51-.56,3.09-.91,4.6-1.45a11.8,11.8,0,0,1,1.34-.4c1.3-.29,2.57-.71,3.84-1.1s2.36-.68,3.55-1a13.17,13.17,0,0,1,4.13-.2,6.16,6.16,0,0,1,1,.07,4.07,4.07,0,0,1,2.64,2.09,7.62,7.62,0,0,1,.8,2c.23,1,.51,2,.77,3Z"/><path class="cls-32" d="M105,28.52c.07.19.14.39.21.57a1.71,1.71,0,0,0,.17.38,1.61,1.61,0,0,1,.21.84c0,.12-.25.38-.38.42a4.43,4.43,0,0,0-.22-.52,10,10,0,0,1-.79-1.64c-.18-.5-.4-1-.61-1.48a7.43,7.43,0,0,1-.49-1.65.61.61,0,0,1,.47-.66.18.18,0,0,1,.13.08,1,1,0,0,1,.08.21,5.18,5.18,0,0,1,.47-.57,1.52,1.52,0,0,1,1.6-.4,1.86,1.86,0,0,1,1.23,1.2c.07.2.16.4.23.6a1.6,1.6,0,0,1,.06.35,3.42,3.42,0,0,1,0,.43,1.73,1.73,0,0,1-.05.31,3,3,0,0,1-.1.39,2.8,2.8,0,0,1-.18.37,1.37,1.37,0,0,1-.2.33,1.56,1.56,0,0,1-.4.29,1.19,1.19,0,0,1-.37.08l-.55.06Zm1.55-2.83h0c0-.1-.09-.2-.14-.3a2,2,0,0,0-.55-.74.87.87,0,0,0-.93-.1,1.59,1.59,0,0,0-.66.76c-.05.13-.07.27-.13.4a.41.41,0,0,0,0,.36,2.78,2.78,0,0,1,.34,1,.48.48,0,0,0,.06.14,4.67,4.67,0,0,1,.22.55c0,.16.09.28.29.27a1.14,1.14,0,0,1,.22,0,1.13,1.13,0,0,0,.37,0,1.28,1.28,0,0,0,1.13-1.4A7,7,0,0,0,106.59,25.68Z"/><path class="cls-32" d="M115.55,22.81l.3,0a.83.83,0,0,1,.65.41,1.3,1.3,0,0,1,.24.76,1.07,1.07,0,0,1-.36.74c-.2.18-.41.36-.62.52a2.52,2.52,0,0,1-1.21.45,1.22,1.22,0,0,0-.29.06.79.79,0,0,1-.71-.12.19.19,0,0,1,0-.18c.09-.1,0-.18,0-.27-.16-.39-.33-.77-.47-1.16s-.36-1-.52-1.58a4.18,4.18,0,0,1-.13-.61.51.51,0,0,1,.25-.5,3,3,0,0,1,.6-.34c.28-.11.58-.19.88-.28a1.41,1.41,0,0,1,1.11.08,1,1,0,0,1,.57.71c0,.14.06.28.08.41a.63.63,0,0,1-.12.48A3.07,3.07,0,0,0,115.55,22.81Zm-1.45,2.52a1.37,1.37,0,0,0,.32,0,3.51,3.51,0,0,0,1.41-.9,1.12,1.12,0,0,0,.23-.55.64.64,0,0,0-.53-.62,2,2,0,0,0-.92.23l-.37.13c-.15.05-.3.09-.44.15s-.19.11-.12.31l.27.79.08.26Zm-.87-3.93c-.28.1-.31.16-.26.39s.07.15.09.23c.12.38.24.77.35,1.16,0,.12.09.13.18.1l.39-.12a1.27,1.27,0,0,0,.7-.38,2.79,2.79,0,0,0,.41-.63.78.78,0,0,0-.2-.84.45.45,0,0,0-.52-.17,2.33,2.33,0,0,1-.35.09Z"/><path class="cls-32" d="M110.62,23.18a2,2,0,0,0-.1.37,4.93,4.93,0,0,1-.15.81c-.06.27-.13.54-.17.82s0,.27,0,.41a5.92,5.92,0,0,1-.13.88,2.26,2.26,0,0,1-.32.66c0,.07-.22.07-.34.06a.6.6,0,0,1-.47-.34,11.08,11.08,0,0,1-.76-2c-.17-.46-.3-.94-.45-1.41a3.43,3.43,0,0,0-.17-.37A.37.37,0,0,1,108,23c.35.11.44.41.54.71s.25.82.39,1.22c.06.17.15.33.21.5s.08.38.14.57a2.61,2.61,0,0,0,.14.32h.06c0-.2,0-.39.07-.59s.06-.39.09-.58c.07-.39.15-.77.23-1.16l.23-1.2a1.52,1.52,0,0,0,0-.28c0-.23.17-.33.32-.44l.08,0c.19-.12.27-.09.4.09a6.5,6.5,0,0,1,.77,1.77l.36,1c.11.33.22.67.32,1a.32.32,0,0,1-.21.44.26.26,0,0,1-.27-.1,3,3,0,0,1-.54-1.17l-.57-1.65-.12-.32Z"/><path class="cls-32" d="M117.25,22.21a1.87,1.87,0,0,1-.07-1.24,3.45,3.45,0,0,1,.08-.51.59.59,0,0,1,.13-.26q.29-.3.61-.58a1.85,1.85,0,0,1,.85-.43,2.82,2.82,0,0,1,.56,0,1.16,1.16,0,0,1,.27,0,1.73,1.73,0,0,1,.25.12,2,2,0,0,1,.86.89,1.82,1.82,0,0,1,.12.2c.13.32-.15.42-.33.53a5.91,5.91,0,0,1-.92.47c-.28.12-.58.18-.87.28l-.66.24a.15.15,0,0,0-.1.21,1.62,1.62,0,0,0,1.49,1.2.9.9,0,0,0,.67-.21,1.43,1.43,0,0,0,.23-.37c.1-.22.19-.44.29-.67a.26.26,0,0,0,0-.09.33.33,0,0,1,.3-.29c.17,0,.26.1.22.28a5.46,5.46,0,0,1-.22.7,2.64,2.64,0,0,1-.3.57,1,1,0,0,1-.34.25,2.16,2.16,0,0,1-2,0,2.21,2.21,0,0,1-1-.84A2.54,2.54,0,0,1,117.25,22.21Zm.59-.59a2.29,2.29,0,0,1,.33-.21l1.86-.75c.17-.07.21-.12.1-.27a2.13,2.13,0,0,0-.39-.43,1,1,0,0,0-.92-.27,2.55,2.55,0,0,1-.34.11.67.67,0,0,0-.54.52s0,.09,0,.13a1.55,1.55,0,0,0-.06.73A2.14,2.14,0,0,1,117.84,21.61Z"/><path class="cls-32" d="M100.06,30.56c-.16-.32-.32-.61-.47-.91a4.37,4.37,0,0,1-.39-1.06,10.26,10.26,0,0,0-.31-1c-.07-.21-.14-.43-.21-.64a.48.48,0,0,1,.16-.46,3.36,3.36,0,0,1,.26-.23,1.14,1.14,0,0,1,.29-.14c.27-.09.56-.16.83-.27a4.19,4.19,0,0,1,1-.24l.43-.06c.11,0,.17,0,.2.13.09.29.17.58.26.88.12.45.24.9.37,1.34a7.31,7.31,0,0,0,.26.76c.1.23.22.45.33.68l.06.12c.08.2,0,.3-.2.31a.44.44,0,0,1-.42-.19,2.14,2.14,0,0,1-.14-.22,23.43,23.43,0,0,1-1.09-2.47,3.42,3.42,0,0,0-.33-.63.2.2,0,0,0-.17-.08l-1.31.37a.16.16,0,0,0-.13.25c0,.11.11.21.14.31s.06.29.1.43.08.21.12.32.07.3.12.45c.11.32.23.63.35.94a5.67,5.67,0,0,1,.28.7.55.55,0,0,1-.13.37A1.62,1.62,0,0,1,100.06,30.56Z"/><path class="cls-32" d="M121,18.56a11.9,11.9,0,0,1,3.78-1.34l0,.06a1.42,1.42,0,0,1-.17.23,2,2,0,0,1-1,.55l-.12,0c-.13,0-.17.08-.13.21.13.4.26.8.38,1.21s.18.67.3,1,.28.71.42,1.06a3.31,3.31,0,0,1,.12.32c0,.09,0,.13-.11.13h-.18c-.29,0-.37,0-.51-.29a14.91,14.91,0,0,1-.85-2c-.14-.39-.26-.78-.38-1.17,0-.08-.05-.11-.14-.08A2.52,2.52,0,0,1,121,18.56Z"/><path class="cls-31" d="M84.66,15.85c.21,1.64.45,3.28.61,4.93.13,1.33.14,2.67.21,4a17.29,17.29,0,0,1,.09,1.83A2.84,2.84,0,0,1,83.66,29a34.79,34.79,0,0,1-4.53,1.77c-.81.25-1.65.43-2.47.64l-2.31.59a.27.27,0,0,0-.24.26c-.14,1-.3,2.05-.45,3.08a22.7,22.7,0,0,1-.57,3.21.62.62,0,0,1-.49.5.69.69,0,0,1-.63-.25,18.94,18.94,0,0,1-2.55-3.52c-.39-.63-.79-1.27-1.16-1.91-.07-.11-.09-.09-.2-.06L65.5,34c-.78.2-1.57.37-2.37.5-1.09.17-2.19.32-3.29.41A4.67,4.67,0,0,1,57,34.28a6.34,6.34,0,0,1-2.82-4c-.38-1.34-.81-2.66-1.21-4a5.35,5.35,0,0,1-.2-.88,37,37,0,0,0-.8-3.76c-.23-1-.35-2-.49-3a7.51,7.51,0,0,1,.25-3.24,4.18,4.18,0,0,1,1.65-2.18,13.07,13.07,0,0,1,4-1.85c.83-.23,1.69-.41,2.54-.58s1.93-.46,2.9-.65c.46-.09.93-.15,1.39-.26,1.45-.35,2.93-.48,4.38-.79a10.23,10.23,0,0,1,1.27-.21c1.23-.11,2.43-.35,3.64-.56s2.24-.35,3.36-.46a11.51,11.51,0,0,1,3.81.36,5.42,5.42,0,0,1,.95.2,4,4,0,0,1,2.19,2.39,8,8,0,0,1,.51,2c.1,1,.25,2,.37,3Z"/><path class="cls-32" d="M56.43,17.46a.66.66,0,0,1,.65.34.63.63,0,0,1,.07.19c.27.95.54,1.89.82,2.84a9.05,9.05,0,0,0,.67,1.72.86.86,0,0,0,.16-.15,3.45,3.45,0,0,1,1-1.05,1.56,1.56,0,0,1,1.23-.28,1.29,1.29,0,0,1,.84.65,10.47,10.47,0,0,1,1,2.37l.56,1.73a.35.35,0,0,1,0,.08c0,.15.08.36,0,.45s-.35.06-.48,0a1.43,1.43,0,0,1-.47-.48A11.36,11.36,0,0,1,62,24.49a12.3,12.3,0,0,0-1.08-2.39,2.06,2.06,0,0,0-.16-.23c-.2-.25-.28-.27-.53-.06a1.74,1.74,0,0,0-.46.5,3.22,3.22,0,0,0-.53,1.17c-.33.35-.09.7,0,1.05.18.69.36,1.38.53,2.07a2.26,2.26,0,0,1,.05.6c0,.25-.12.31-.35.21a.88.88,0,0,1-.43-.46,12.87,12.87,0,0,1-.72-2.15c-.35-1.2-.72-2.4-1.19-3.57a9.33,9.33,0,0,1-.65-3C56.47,18,56.45,17.75,56.43,17.46Z"/><path class="cls-32" d="M75.63,20.71a4.14,4.14,0,0,1-.11-1.8,1.23,1.23,0,0,1,.13-.42c.19-.36.38-.71.59-1.06a1.5,1.5,0,0,1,.7-.7.39.39,0,0,0,.13-.09,1.5,1.5,0,0,1,1.37-.4,2.84,2.84,0,0,1,1.27.36,3.34,3.34,0,0,1,.55.46,2.67,2.67,0,0,1,.85,1.25,5.38,5.38,0,0,1,.14,2.16,3.81,3.81,0,0,1-.42,1.34,2.86,2.86,0,0,1-2.38,1.32,2.16,2.16,0,0,1-1.57-.39,3.55,3.55,0,0,1-1.16-1.63A4,4,0,0,1,75.63,20.71Zm3.28,1.77a1.65,1.65,0,0,0,1.11-1,5.23,5.23,0,0,0,.29-1.87A2.27,2.27,0,0,0,79.7,18a2.73,2.73,0,0,0-.63-.55,4.48,4.48,0,0,0-.91-.33,1.39,1.39,0,0,0-1.43.59,4.13,4.13,0,0,0-.44,1.79A3.94,3.94,0,0,0,77,21.77,1.65,1.65,0,0,0,78.91,22.48Z"/><path class="cls-32" d="M65.35,23a2,2,0,0,0,1.17,1.76,2.19,2.19,0,0,0,1.72-.2.68.68,0,0,0,.27-.29,6.72,6.72,0,0,0,.36-.94c.06-.21.12-.35.36-.35a.43.43,0,0,1,.43.41,1.48,1.48,0,0,1-.32,1.1,2.4,2.4,0,0,1-1.91.9,2.72,2.72,0,0,1-1.27-.16A2.94,2.94,0,0,1,64.84,24a6.41,6.41,0,0,1-.54-1.16,1.52,1.52,0,0,1,0-.63c.06-.54.13-1.07.19-1.6a.31.31,0,0,1,.07-.18,9.19,9.19,0,0,1,.73-.64,2.45,2.45,0,0,1,2.19-.36,2.86,2.86,0,0,1,1.23.81,2.48,2.48,0,0,1,.61,1c.1.3.08.41-.2.57a3.73,3.73,0,0,1-.74.32c-.83.25-1.66.47-2.49.7Zm3-1.41a.55.55,0,0,0-.17-.63,2.22,2.22,0,0,0-1.1-.7,3.94,3.94,0,0,0-.88,0,.74.74,0,0,0-.69.58c-.09.32-.15.65-.21,1s0,.41-.06.62l3-.82Z"/><path class="cls-32" d="M69.58,16a1,1,0,0,1,.82,0,.51.51,0,0,1,.26.33c.21,1.13.56,2.22.88,3.31.26.9.51,1.82.76,2.72.12.44.23.88.35,1.33a.78.78,0,0,1,0,.16c0,.15,0,.3-.13.39a.45.45,0,0,1-.52-.09,2.54,2.54,0,0,1-.41-.64c-.2-.54-.36-1.1-.52-1.66-.34-1.21-.66-2.42-1-3.63-.11-.43-.2-.87-.3-1.3S69.66,16.29,69.58,16Z"/><path class="cls-32" d="M74,18.46c.25,1,.49,2,.75,2.93.11.42.27.82.4,1.23a5.18,5.18,0,0,1,.18.82c0,.29-.08.37-.35.3a.75.75,0,0,1-.57-.52c-.19-.56-.37-1.13-.54-1.69-.41-1.38-.7-2.8-1-4.21-.13-.59-.28-1.18-.43-1.77-.06-.25,0-.33.25-.29s.36.06.43.29c.3,1,.61,1.92.92,2.88Z"/></g></g></svg>