<svg xmlns="http://www.w3.org/2000/svg" xmlns:xlink="http://www.w3.org/1999/xlink" viewBox="0 0 189.19 180"><defs><style>.cls-1,.cls-3{fill:none;stroke:#0037ff;stroke-linecap:round;stroke-linejoin:round;}.cls-2{fill:#ed0f0f;opacity:0.1;}.cls-3{fill-rule:evenodd;}.cls-4{fill:#4e11f4;}.cls-5{fill:#ffaf84;}.cls-6{fill:url(#Gradient_bez_nazwy_5);}.cls-7{fill:url(#Gradient_bez_nazwy_5-2);}.cls-8{fill:url(#Gradient_bez_nazwy_5-3);}.cls-9{fill:url(#Gradient_bez_nazwy_14);}.cls-10{fill:url(#Gradient_bez_nazwy_14-2);}.cls-11{fill:url(#Gradient_bez_nazwy_14-3);}.cls-12{fill:url(#Gradient_bez_nazwy_14-4);}.cls-13{fill:url(#Gradient_bez_nazwy_14-5);}.cls-14{fill:url(#Gradient_bez_nazwy_3);}.cls-15{fill:url(#Gradient_bez_nazwy_5-4);}.cls-16{fill:url(#Gradient_bez_nazwy_5-5);}.cls-17{fill:url(#Gradient_bez_nazwy_4);}.cls-18{fill:url(#Gradient_bez_nazwy_2);}.cls-19{fill:url(#Gradient_bez_nazwy_2-2);}.cls-20{fill:#ea8f68;}.cls-21{fill:url(#Gradient_bez_nazwy_2-3);}.cls-22{fill:url(#Gradient_bez_nazwy_10);}.cls-23{fill:url(#Gradient_bez_nazwy_5-6);}.cls-24{fill:url(#Gradient_bez_nazwy_5-7);}.cls-25{fill:url(#Gradient_bez_nazwy_5-8);}.cls-26{fill:url(#Gradient_bez_nazwy_5-9);}.cls-27{fill:url(#Gradient_bez_nazwy_4-2);}.cls-28{fill:url(#Gradient_bez_nazwy_4-3);}.cls-29{fill:url(#Gradient_bez_nazwy_4-4);}.cls-30{fill:url(#Gradient_bez_nazwy_4-5);}.cls-31{fill:url(#Gradient_bez_nazwy_2-4);}.cls-32{fill:url(#Gradient_bez_nazwy_2-5);}.cls-33{clip-path:url(#clip-path);}</style><linearGradient id="Gradient_bez_nazwy_5" x1="1666.93" y1="-4774.84" x2="1711.75" y2="-4818" gradientTransform="translate(2947.83 2817.98) rotate(-57.71)" gradientUnits="userSpaceOnUse"><stop offset="0" stop-color="#36078b"/><stop offset="1" stop-color="#16b1ff"/></linearGradient><linearGradient id="Gradient_bez_nazwy_5-2" x1="776.73" y1="-3938.32" x2="803.32" y2="-3963.92" xlink:href="#Gradient_bez_nazwy_5"/><linearGradient id="Gradient_bez_nazwy_5-3" x1="6592.18" y1="22.21" x2="6592.18" y2="63.93" gradientTransform="matrix(-1, 0, 0, 1, 6610.09, 0)" xlink:href="#Gradient_bez_nazwy_5"/><linearGradient id="Gradient_bez_nazwy_14" x1="6553.66" y1="151.96" x2="6594.33" y2="74.72" gradientTransform="matrix(-1, 0, 0, 1, 6610.09, 0)" gradientUnits="userSpaceOnUse"><stop offset="0" stop-color="#f70f47"/><stop offset="1" stop-color="#ffb41d"/></linearGradient><linearGradient id="Gradient_bez_nazwy_14-2" x1="6587.78" y1="169.93" x2="6628.45" y2="92.69" xlink:href="#Gradient_bez_nazwy_14"/><linearGradient id="Gradient_bez_nazwy_14-3" x1="6568.57" y1="159.81" x2="6609.24" y2="82.57" xlink:href="#Gradient_bez_nazwy_14"/><linearGradient id="Gradient_bez_nazwy_14-4" x1="6569.07" y1="160.07" x2="6609.74" y2="82.84" xlink:href="#Gradient_bez_nazwy_14"/><linearGradient id="Gradient_bez_nazwy_14-5" x1="6553.91" y1="152.09" x2="6594.58" y2="74.86" xlink:href="#Gradient_bez_nazwy_14"/><linearGradient id="Gradient_bez_nazwy_3" x1="6580.82" y1="4.02" x2="6615.96" y2="31.08" gradientTransform="matrix(-1, 0, 0, 1, 6610.09, 0)" gradientUnits="userSpaceOnUse"><stop offset="0" stop-color="blue"/><stop offset="1" stop-color="#9e005d"/></linearGradient><linearGradient id="Gradient_bez_nazwy_5-4" x1="2662.4" y1="-5198.96" x2="2692.4" y2="-5233.22" gradientTransform="translate(5230.55 2751.51) rotate(-89.59)" xlink:href="#Gradient_bez_nazwy_5"/><linearGradient id="Gradient_bez_nazwy_5-5" x1="2624.69" y1="-5178.48" x2="2687.73" y2="-5250.46" gradientTransform="translate(5230.55 2751.51) rotate(-89.59)" xlink:href="#Gradient_bez_nazwy_5"/><linearGradient id="Gradient_bez_nazwy_4" x1="3234.11" y1="56.78" x2="3193.07" y2="27.19" gradientTransform="matrix(-1, 0, 0, 1, 3351.75, 0)" gradientUnits="userSpaceOnUse"><stop offset="0" stop-color="#2c27ce"/><stop offset="0.65" stop-color="#ef1d68"/><stop offset="1" stop-color="#efba92"/></linearGradient><linearGradient id="Gradient_bez_nazwy_2" x1="3355.74" y1="3566.98" x2="3343.06" y2="3598.59" gradientTransform="matrix(-0.86, -0.51, -0.51, 0.86, 4836.59, -1311.46)" gradientUnits="userSpaceOnUse"><stop offset="0" stop-color="#f70f47"/><stop offset="1" stop-color="#9e005d"/></linearGradient><linearGradient id="Gradient_bez_nazwy_2-2" x1="-3585.34" y1="568.17" x2="-3599.54" y2="603.57" gradientTransform="matrix(0.91, 0.41, 0.41, -0.91, 3158.99, 2094.86)" xlink:href="#Gradient_bez_nazwy_2"/><linearGradient id="Gradient_bez_nazwy_2-3" x1="3211.34" y1="53.27" x2="3216.03" y2="93.52" gradientTransform="matrix(-1, 0, 0, 1, 3351.75, 0)" xlink:href="#Gradient_bez_nazwy_2"/><linearGradient id="Gradient_bez_nazwy_10" x1="3219.67" y1="81.24" x2="3201.11" y2="135.29" gradientTransform="matrix(-1, 0, 0, 1, 3351.75, 0)" gradientUnits="userSpaceOnUse"><stop offset="0" stop-color="#36078b"/><stop offset="1" stop-color="#168d68"/></linearGradient><linearGradient id="Gradient_bez_nazwy_5-6" x1="1230.82" y1="-4772.91" x2="1211.84" y2="-4717.66" gradientTransform="matrix(-0.3, 0.95, 0.95, 0.3, 5018.01, 407.29)" xlink:href="#Gradient_bez_nazwy_5"/><linearGradient id="Gradient_bez_nazwy_5-7" x1="3216.69" y1="80.07" x2="3198.12" y2="134.12" gradientTransform="matrix(-1, 0, 0, 1, 3351.75, 0)" xlink:href="#Gradient_bez_nazwy_5"/><linearGradient id="Gradient_bez_nazwy_5-8" x1="3243.13" y1="89.3" x2="3224.57" y2="143.35" gradientTransform="matrix(-1, 0, 0, 1, 3351.75, 0)" xlink:href="#Gradient_bez_nazwy_5"/><linearGradient id="Gradient_bez_nazwy_5-9" x1="3230.85" y1="85.08" x2="3212.29" y2="139.13" gradientTransform="matrix(-1, 0, 0, 1, 3351.75, 0)" xlink:href="#Gradient_bez_nazwy_5"/><linearGradient id="Gradient_bez_nazwy_4-2" x1="3225.43" y1="190.83" x2="3227.53" y2="164.96" xlink:href="#Gradient_bez_nazwy_4"/><linearGradient id="Gradient_bez_nazwy_4-3" x1="2052.44" y1="-4113.72" x2="2055.09" y2="-4146.32" gradientTransform="matrix(-0.45, 0.89, 0.89, 0.45, 4807.42, 176.02)" xlink:href="#Gradient_bez_nazwy_4"/><linearGradient id="Gradient_bez_nazwy_4-4" x1="3229.18" y1="51.14" x2="3205.89" y2="24.57" xlink:href="#Gradient_bez_nazwy_4"/><linearGradient id="Gradient_bez_nazwy_4-5" x1="3233.97" y1="46.94" x2="3210.69" y2="20.37" xlink:href="#Gradient_bez_nazwy_4"/><linearGradient id="Gradient_bez_nazwy_2-4" x1="-3544.88" y1="-5446.72" x2="-3560.13" y2="-5408.7" gradientTransform="matrix(0.46, 0.57, 0.77, -0.64, 5976.23, -1407.58)" xlink:href="#Gradient_bez_nazwy_2"/><linearGradient id="Gradient_bez_nazwy_2-5" x1="2286.66" y1="-5204.21" x2="2275.55" y2="-5176.51" gradientTransform="translate(5791.31 -497.33) rotate(-119.03)" xlink:href="#Gradient_bez_nazwy_2"/><clipPath id="clip-path"><path class="cls-1" d="M36,8.43h1.09v-1h2.31v1h1.8a1.64,1.64,0,0,1,1.62,1.65v2.8h8.46v0a.42.42,0,0,1,.42-.42h1.17a.42.42,0,0,1,.42.42v6.49a.42.42,0,0,1-.42.42H51.74a.42.42,0,0,1-.42-.42v0H42.86v2.48a1.64,1.64,0,0,1-1.62,1.65H36a1.64,1.64,0,0,1-1.62-1.65V10.08A1.64,1.64,0,0,1,36,8.43Z"/></clipPath></defs><title>kontent-box6</title><g id="Слой_2" data-name="Слой 2"><g id="Designed_by_Freepik" data-name="Designed by Freepik"><circle class="cls-2" cx="94.59" cy="90" r="90"/></g><g id="Objects"><path class="cls-1" d="M92.05,118.56v0h.35V33.33h2.86v85.19h.35v0l28.06,30.89v.69h-2.42L120,147.93,95.54,122.62l-.31,22.22v5.3h-2.8v-5.3l-.31-22.22L67.71,147.93l-1.29,2.21H64v-.69Z"/><path class="cls-3" d="M95.19,34.75l-2.83-1.43,10.88-13.39a2,2,0,0,1,2.21-.55,1.48,1.48,0,0,1,1,1.27Z"/><path class="cls-3" d="M102.66,43.08s1.44-22.51,1.35-23.49,30.28-9.66,30.28-9.66Z"/><path class="cls-1" d="M147.76,24l-1.82-11.14L134.39,10l-15.87,6.63L105.75,29.69l-3.69,13.44,7.12,7.49,14.59-2L139,38.16Z"/><path class="cls-1" d="M41.8,130v0h.35V44.74H45v85.19h.35v0l28.06,30.89v.69H71l-1.29-2.21L45.29,134,45,156.25v5.3h-2.8v-5.3L41.87,134,17.46,159.34l-1.29,2.21H13.75v-.69Z"/><path class="cls-1" d="M69.47,19.28H93.81L84.68,56.35H60.34c-4.17-25.62,9-37,9.13-37.07Z"/><path class="cls-1" d="M93.81,19.28S80.5,30.63,84.69,56.35Z"/><path class="cls-1" d="M69.47,31,47.86,27.44a7.82,7.82,0,0,0-4,7l20.62,5s6.77-4.16,5-8.51"/><path class="cls-3" d="M44.95,46.16l-2.83-1.43L53,31.34a2,2,0,0,1,2.21-.55,1.48,1.48,0,0,1,1,1.27Z"/><path class="cls-4" d="M5.42,160.88a13.12,13.12,0,0,1,.31,2.26c.15.91,1,1.24,1.52,2s1.42,2-2,2.08c-3.64.07-5.79,0-5.17-2a10.1,10.1,0,0,0,.7-3.5A2.13,2.13,0,0,1,1.21,160C1.62,159.6,4.89,158.9,5.42,160.88Z"/><path class="cls-5" d="M45.4,22.34C45.52,21,47,10.66,48.92,11.8c2.17,1.26,2.5,5.5,2.43,6.93-.12,2.63-2,4.68-3.59,5C46.65,23.94,45.29,23.6,45.4,22.34Z"/><path class="cls-5" d="M45,21.69c-.21-.57-1.47-4-.85-4.26.95-.43,1.88,1.76,2.51,3.21.34.78.27,2.07-.4,2.26S45.36,22.6,45,21.69Z"/><path class="cls-4" d="M33.37,162.53a8.47,8.47,0,0,0,3.54,2.58c1.89.81,5.89,1.19,3.67,1.91a13.8,13.8,0,0,1-6.13.08,27.75,27.75,0,0,0-4.14-.24c-2,0-2.06-.13-1.78-2.35C28.91,161.45,32.45,160.81,33.37,162.53Z"/><path class="cls-5" d="M10.19,20.93c.41,4.13.53,5,2.34,6.74s4.62,1.94,6.58,1.94c2.11,0,3.51-2.55,4-4.3a25.45,25.45,0,0,0,.41-9.73,6.67,6.67,0,0,0-6-5.07C14.54,10.51,9.18,10.84,10.19,20.93Z"/><path class="cls-6" d="M46.35,21.77c-.56,2-7.61,11.85-8.54,15.05-1.1,3.8,4.55,7.93,5.95,5.36a57.76,57.76,0,0,0,4.67-12.41c1.31-4.62,1.09-6,.44-7.93C48.33,20.28,46.72,20.48,46.35,21.77Z"/><path class="cls-7" d="M39.94,34.93c-2.14,0-8.61-1.78-17.15-3.38-1.51-.28-4.83,1.48-6.27,3.5-.89,1.25-.16,4.19,2.69,4.91a56.05,56.05,0,0,0,9.12,1.61c8.69.95,12.25.41,13.77-.07C43.91,40.93,43.06,35,39.94,34.93Z"/><path class="cls-5" d="M12.29,28.21c-.11,1.43-.22,3.08-.27,4.58a3.94,3.94,0,0,0,3.44,4h.23c1.78,0,3.88-1.61,3.73-3.4-.1-1.16-.14-2.33-.15-3.36a4.64,4.64,0,0,0-3.09-4.36h0A2.92,2.92,0,0,0,12.29,28.21Z"/><path class="cls-8" d="M4,45.86c3.31,10.9,4.4,22.26,3.75,29.87h25s-.15-23.38-1.82-36.18a9.58,9.58,0,0,0-5.27-7.34A17.91,17.91,0,0,0,19,30.74H14.39a17.47,17.47,0,0,0-4.87.61C2.71,33.43,2.11,39.55,4,45.86Z"/><path class="cls-9" d="M7.88,91s-2.16-5.24-.1-15.27h25A141.86,141.86,0,0,1,33.65,91Z"/><path class="cls-10" d="M12.81,123.67c2-8.12-6.3-9.56-8.92-3.68C.19,128.31.48,154.88.68,160.19c0,.7-.09,1.55.26,1.79a5.34,5.34,0,0,0,2.64.42c.93,0,1.84,0,1.94-1.18C6.14,153.49,10.87,131.54,12.81,123.67Z"/><path class="cls-11" d="M20.27,92.1c.88-10.09-3.12-17.93-9.38-14.6-2.64,1.4-3.6,4.21-4,6.85s-2.29,30.11-3,35.07c-1.53,11.19,7.3,8.17,8.26,5.07C14.64,116.66,19.79,97.6,20.27,92.1Z"/><path class="cls-12" d="M28.56,164.31c-.31-11.89-5.36-32.71-2.44-42.41,1.85-6.16,9.23-6.33,8.9,1.25-.35,8.1-2.79,23.78-2,39.43C33.15,164.11,28.62,165.7,28.56,164.31Z"/><path class="cls-13" d="M26.42,124c1,3.09,9.42,6.67,8.54-4.58-.39-5-1.43-32.57-1.63-35.22s-.66-6.54-2-7C24.66,74.7,18.2,82.63,20,92.61,21.12,99.29,24.39,117.55,26.42,124Z"/><ellipse class="cls-5" cx="23.77" cy="20.62" rx="2.79" ry="1.46" transform="translate(-4.31 34.83) rotate(-67.78)"/><ellipse class="cls-5" cx="10.31" cy="20.62" rx="1.46" ry="2.79" transform="translate(-7.03 5.43) rotate(-22.21)"/><path class="cls-14" d="M11.46,12.8c1.61,2.4,9.38,2.63,11.92,1.74s2.36-5.79-1.27-6.13c-2,0-.56.49-2.22,1.16C19.05,9.91,9.74,10.23,11.46,12.8Z"/><path class="cls-15" d="M32.94,24.8c-.59,1.95-7.8,11.72-8.78,14.91-1.16,3.78,4,8,5.52,5.51,2.41-3.78,3.2-5.29,4.73-12,1.06-4.69,1.67-6.32,1-8.27C35,23.34,33.33,23.51,32.94,24.8Z"/><path class="cls-16" d="M26.56,39.34c-2.14,0-8.59-1.87-17.11-3.57-1.51-.3-4.85,1.43-6.31,3.43-.91,1.24-.2,4.19,2.63,4.94a56,56,0,0,0,9.1,1.71c8.68,1,12.24.55,13.77.08C30.46,45.38,29.68,39.41,26.56,39.34Z"/><path class="cls-17" d="M143.07,23.92c-1.47-2.08.21-5.74,4.4-6.09,4.78-.39,13.26,2.36,8.71,13.5-4.74,11.59-3.26,14.55-.07,16.29,0,0-10.94.88-10.11-8.68S146.49,28.74,143.07,23.92Z"/><path class="cls-18" d="M119.67,62.65c1.51-1.51,5.09-6.69,10.07-13.39a9.64,9.64,0,0,1,6.13-3c1.52-.08,3.06,1.73,1.53,4A61.54,61.54,0,0,1,132,57.42c-5.54,6.52-8.47,8.78-9.9,9.64C120.42,68.07,117.47,64.86,119.67,62.65Z"/><path class="cls-19" d="M132.75,77c-1.14-1.29-11.28-8.52-13.16-10.64-2.23-2.51,1.06-5,3.25-3.28a34.94,34.94,0,0,1,8,8.05c2.42,3.09,3.9,3.13,3.95,4.36C134.86,76.45,133.5,77.81,132.75,77Z"/><path class="cls-20" d="M144.7,37.81c0,.24.4,5.3.47,9.19,0,1.9-1.34,3.71-2.71,3.76h-.06c-1.35,0-2.93-1.69-2.81-3.56.22-3.38.05-6.85,0-6.9Z"/><path class="cls-21" d="M148.64,59.7a66.18,66.18,0,0,0-2.43,10.64,27,27,0,0,0,0,8c.22,1.6.53,3.18.89,4.75.14.6,1.31,5.4,1.36,5.91H126.57c.21-4.3,5.1-17.79,1.79-26.53-2.29-6.05.75-6.24,2.82-11.27a14.8,14.8,0,0,1,1.75-3.65,6.3,6.3,0,0,1,3.35-2.06,12.49,12.49,0,0,1,2-.29c3.71-.3,12.44-1.37,13.27,3.9a9.35,9.35,0,0,1-.43,4.27c-.49,1.54-1.22,3-1.84,4.48Q149,58.78,148.64,59.7Z"/><path class="cls-22" d="M148.41,102.93s1.89-4.78.09-13.92H126.57a134.12,134.12,0,0,0-.8,13.92Z"/><path class="cls-23" d="M150.15,136.2c-7.59-.57-6.63-7.91-.82-8.48,8.21-.81,32.17,9,36.73,10.63.6.21.38.49.15.79-.67.87-1.37,0-2,1.44-.32.75.58,1.46.58,1.46C178.32,140.71,157.5,136.75,150.15,136.2Z"/><path class="cls-24" d="M137.53,103.79c-.77-9.2,2.74-16.35,8.24-13.31,2.31,1.28,3.16,3.84,3.47,6.25s2,27.44,2.61,32c1.35,10.2-6.41,7.45-7.26,4.62C142.47,126.18,137.94,108.8,137.53,103.79Z"/><path class="cls-25" d="M124.57,132.23c-.29-6.91,6.19-6.76,7.82-1.14,2.56,8.84-1.87,27.82-2.14,38.66-1.13-1.87-2.2-2.33-2.7-2.29a1.8,1.8,0,0,0-1.26.71C126.45,153.89,124.88,139.61,124.57,132.23Z"/><path class="cls-26" d="M132.13,133c-.86,2.82-8.28,6.08-7.5-4.18.34-4.55,1.26-29.69,1.44-32.11s.58-6,1.75-6.4c5.86-2.21,11.53,5,10,14.11C136.78,110.48,133.91,127.13,132.13,133Z"/><path class="cls-5" d="M147.34,34.15c-.43,4.33-.56,5.28-2.45,7.05a10.2,10.2,0,0,1-6.64,2.58c-2.21,0-3.86-2.34-4.36-4.17a31.45,31.45,0,0,1-.5-11.08c.31-2.4,3.28-5.31,6.33-5.31S148.4,23.58,147.34,34.15Z"/><path class="cls-27" d="M126,168.14a7.48,7.48,0,0,1-3.11,2.35c-1.66.74-5.18,1.09-3.22,1.74a11.68,11.68,0,0,0,5.38.07,23.36,23.36,0,0,1,3.63-.22c1.79,0,1.81-.12,1.57-2.15C129.94,167.15,126.83,166.56,126,168.14Z"/><path class="cls-28" d="M184,141.94c.32.44,2.31,1.74,2.22,3.55s-1.36,5.11.1,3.66a11.68,11.68,0,0,0,2.49-4.77c.36-1.11-.68-1.84-.08-3.06.8-1.61.71-1.67-1.21-2.37C184.87,138,182.94,140.51,184,141.94Z"/><path class="cls-29" d="M134.12,26.28c-1.69,2.89,10.62,8.2,13.35,7.74s2.71-6.26.6-8.91S138.12,19.45,134.12,26.28Z"/><path class="cls-30" d="M138.69,25.55c-.44,2.45-4.73,3-5.47,5-.45,1.26-.66-2.71.34-4.51S139.58,20.63,138.69,25.55Z"/><ellipse class="cls-5" cx="147.47" cy="34.78" rx="2.93" ry="1.53" transform="translate(59.52 158.16) rotate(-67.79)"/><path class="cls-5" d="M149.4,18.72a7.93,7.93,0,0,1-3.09-2.13c-.53-.79,1.34,0,2.28.36S150.41,19.16,149.4,18.72Z"/><path class="cls-5" d="M148.71,17.48c-1.64-2.15-2.86-3-3-4.33s2.18-.55,2.86.11,3.27,2.89,3.18,4S149.92,19.07,148.71,17.48Z"/><path class="cls-31" d="M161.79,34.35c-1.05,1.86-3.11,7.81-6.11,15.6a9.65,9.65,0,0,1-5.1,4.53c-1.45.48-3.41-.85-2.56-3.48a61.42,61.42,0,0,1,3.29-8.29c3.59-7.76,5.8-10.73,6.95-11.94C159.61,29.33,163.32,31.63,161.79,34.35Z"/><path class="cls-32" d="M151,16.87c1.25.27,1,1.79,3.76,4.82a36.35,36.35,0,0,1,6.81,9.66c1.33,2.54-1.77,5.47-3.94,2.75-1.84-2.31-7.43-14-8.55-15.37C148.37,17.8,150,16.65,151,16.87Z"/><path class="cls-3" d="M36,8.43h1.09v-1h2.31v1h1.8a1.64,1.64,0,0,1,1.62,1.65v2.8h8.46v0a.42.42,0,0,1,.42-.42h1.17a.42.42,0,0,1,.42.42v6.49a.42.42,0,0,1-.42.42H51.74a.42.42,0,0,1-.42-.42v0H42.86v2.48a1.64,1.64,0,0,1-1.62,1.65H36a1.64,1.64,0,0,1-1.62-1.65V10.08A1.64,1.64,0,0,1,36,8.43Z"/><g class="cls-33"><rect class="cls-1" x="51.33" y="13.18" width="3.07" height="0.75"/><rect class="cls-1" x="51.33" y="14.96" width="3.07" height="0.75"/><rect class="cls-1" x="51.33" y="16.65" width="3.07" height="0.75"/><rect class="cls-1" x="51.33" y="18.43" width="3.07" height="0.75"/><rect class="cls-1" x="42.91" y="12.32" width="0.89" height="7.33"/><rect class="cls-1" x="47.42" y="12.32" width="0.89" height="7.33"/></g><path class="cls-1" d="M36,8.43h1.09v-1h2.31v1h1.8a1.64,1.64,0,0,1,1.62,1.65v2.8h8.46v0a.42.42,0,0,1,.42-.42h1.17a.42.42,0,0,1,.42.42v6.49a.42.42,0,0,1-.42.42H51.74a.42.42,0,0,1-.42-.42v0H42.86v2.48a1.64,1.64,0,0,1-1.62,1.65H36a1.64,1.64,0,0,1-1.62-1.65V10.08A1.64,1.64,0,0,1,36,8.43Z"/><path class="cls-5" d="M33.14,23.44c.72-1,6.79-8.13,7.74-6.32,1,2-.74,5.38-1.48,6.44C38,25.5,35.6,26.15,34.26,25.63,33.31,25.26,32.45,24.35,33.14,23.44Z"/><path class="cls-5" d="M33.48,21.49c0-.55.14-3.81.76-3.83.93,0,1,2.11,1,3.53,0,.77-.49,1.81-1.11,1.74S33.45,22.37,33.48,21.49Z"/><path class="cls-5" d="M44.26,20c-.17-.52-1.19-3.62-.63-3.86.86-.35,1.63,1.64,2.15,3,.28.72.17,1.87-.43,2S44.54,20.79,44.26,20Z"/></g></g></svg>