<svg xmlns="http://www.w3.org/2000/svg" xmlns:xlink="http://www.w3.org/1999/xlink" viewBox="0 0 180 180"><defs><style>.cls-1{isolation:isolate;}.cls-2{fill:#ed0f0f;opacity:0.1;}.cls-10,.cls-24,.cls-3,.cls-4,.cls-5,.cls-6,.cls-7,.cls-8{fill:none;stroke:#0037ff;stroke-width:0.92px;}.cls-24,.cls-3{stroke-miterlimit:10;}.cls-10,.cls-4,.cls-5,.cls-6,.cls-7,.cls-8{stroke-linecap:round;stroke-linejoin:round;}.cls-4{opacity:0.3;}.cls-5,.cls-9{opacity:0.4;}.cls-6{opacity:0.6;}.cls-8{opacity:0.7;}.cls-9{fill:url(#Gradient_bez_nazwy_5);}.cls-10{opacity:0.9;}.cls-11{fill:#231a66;}.cls-12{fill:url(#Gradient_bez_nazwy_7);}.cls-13{fill:url(#Gradient_bez_nazwy_7-2);}.cls-14{fill:url(#Gradient_bez_nazwy_5-2);}.cls-15{fill:url(#Gradient_bez_nazwy_5-3);}.cls-16{fill:#ffaf84;}.cls-17{fill:url(#Gradient_bez_nazwy_5-4);}.cls-18{fill:url(#Gradient_bez_nazwy_7-3);}.cls-19{fill:url(#Gradient_bez_nazwy_7-4);}.cls-20{fill:url(#Gradient_bez_nazwy_7-5);}.cls-21{fill:url(#Gradient_bez_nazwy_7-6);}.cls-22{fill:url(#Gradient_bez_nazwy_5-5);}.cls-23{fill:url(#Gradient_bez_nazwy_7-7);}.cls-24{mix-blend-mode:multiply;}</style><linearGradient id="Gradient_bez_nazwy_5" x1="102.73" y1="76.41" x2="102.73" y2="72.78" gradientUnits="userSpaceOnUse"><stop offset="0" stop-color="#36078b"/><stop offset="1" stop-color="#16b1ff"/></linearGradient><linearGradient id="Gradient_bez_nazwy_7" x1="93.36" y1="102.99" x2="95.88" y2="160.12" gradientUnits="userSpaceOnUse"><stop offset="0" stop-color="#ff664f"/><stop offset="1" stop-color="#9e005d"/></linearGradient><linearGradient id="Gradient_bez_nazwy_7-2" x1="79.05" y1="92.86" x2="82.01" y2="131.49" xlink:href="#Gradient_bez_nazwy_7"/><linearGradient id="Gradient_bez_nazwy_5-2" x1="185.31" y1="340.56" x2="194.31" y2="298.08" gradientTransform="translate(-187.14 -237.02) rotate(-9)" xlink:href="#Gradient_bez_nazwy_5"/><linearGradient id="Gradient_bez_nazwy_5-3" x1="-864.61" y1="-709.01" x2="-845.96" y2="-797.05" gradientTransform="matrix(0.79, 0.62, -0.62, 0.79, 279.79, 1163.44)" xlink:href="#Gradient_bez_nazwy_5"/><linearGradient id="Gradient_bez_nazwy_5-4" x1="-3203.7" y1="79.67" x2="-3185.94" y2="-4.2" gradientTransform="matrix(-1, 0, 0, 1, -3135.26, 0)" xlink:href="#Gradient_bez_nazwy_5"/><linearGradient id="Gradient_bez_nazwy_7-3" x1="74.88" y1="139.64" x2="81.39" y2="174.57" xlink:href="#Gradient_bez_nazwy_7"/><linearGradient id="Gradient_bez_nazwy_7-4" x1="108.02" y1="133.46" x2="114.53" y2="168.39" xlink:href="#Gradient_bez_nazwy_7"/><linearGradient id="Gradient_bez_nazwy_7-5" x1="100.8" y1="134.81" x2="107.31" y2="169.74" xlink:href="#Gradient_bez_nazwy_7"/><linearGradient id="Gradient_bez_nazwy_7-6" x1="-3203.4" y1="24.32" x2="-3215.43" y2="59.25" gradientTransform="matrix(-1, 0, 0, 1, -3135.26, 0)" xlink:href="#Gradient_bez_nazwy_7"/><linearGradient id="Gradient_bez_nazwy_5-5" x1="321.42" y1="858.93" x2="358.32" y2="830.12" gradientTransform="translate(-575.96 -560.28) rotate(-25.73)" xlink:href="#Gradient_bez_nazwy_5"/><linearGradient id="Gradient_bez_nazwy_7-7" x1="-3198.12" y1="26.13" x2="-3210.16" y2="61.06" gradientTransform="matrix(-1, 0, 0, 1, -3135.26, 0)" xlink:href="#Gradient_bez_nazwy_7"/></defs><title>kontent-box5</title><g class="cls-1"><g id="Слой_2" data-name="Слой 2"><g id="Designed_by_Freepik" data-name="Designed by Freepik"><circle class="cls-2" cx="90" cy="90" r="90"/><path class="cls-3" d="M25.64,87.52H154.36A3.52,3.52,0,0,0,157.88,84h0a3.52,3.52,0,0,0-3.52-3.52H25.64A3.52,3.52,0,0,0,22.12,84h0A3.52,3.52,0,0,0,25.64,87.52Z"/><rect class="cls-3" x="145.81" y="87.51" width="7.05" height="81.94"/><rect class="cls-3" x="124.26" y="87.52" width="7.04" height="81.93"/><rect class="cls-3" x="27.15" y="87.52" width="7.04" height="81.93"/><rect class="cls-3" x="48.7" y="87.51" width="7.03" height="81.94"/><polygon class="cls-4" points="151.13 59.52 86.07 59.52 90.85 17.17 155.91 17.17 151.13 59.52"/><polygon class="cls-5" points="92.47 20.21 91.78 26.32 87 68.67 152.06 68.67 156.84 26.32 157.53 20.21 92.47 20.21"/><polygon class="cls-6" points="151.13 67.74 86.07 67.74 90.85 25.39 155.91 25.39 151.13 67.74"/><polygon class="cls-7" points="149.58 65.33 88.17 65.33 90.48 44.82 151.9 44.82 149.58 65.33"/><polygon class="cls-7" points="107.42 62.93 89.89 62.93 91.77 46.28 109.3 46.28 107.42 62.93"/><polygon class="cls-8" points="112.81 56.51 98.7 56.51 100.22 43.11 114.32 43.11 112.81 56.51"/><polygon class="cls-7" points="104.31 42.05 90.8 42.05 91.3 37.58 104.82 37.58 104.31 42.05"/><polygon class="cls-7" points="99.46 38.96 92.94 38.96 93.01 38.34 99.53 38.34 99.46 38.96"/><polygon class="cls-7" points="149.73 52.98 132.21 52.98 133.27 43.56 150.8 43.56 149.73 52.98"/><polygon class="cls-7" points="149.49 55.11 131.97 55.11 132.04 54.44 149.57 54.44 149.49 55.11"/><polygon class="cls-7" points="149.34 56.51 131.81 56.51 131.88 55.83 149.41 55.83 149.34 56.51"/><polygon class="cls-7" points="120.28 40.48 106.76 40.48 107.27 36.01 120.78 36.01 120.28 40.48"/><polygon class="cls-7" points="155.99 42.05 126.51 42.05 127.01 37.58 156.5 37.58 155.99 42.05"/><polygon class="cls-7" points="139.2 38.96 127.95 38.96 128.02 38.34 139.27 38.34 139.2 38.96"/><polygon class="cls-7" points="139.07 40.13 127.82 40.13 127.89 39.51 139.14 39.51 139.07 40.13"/><polygon class="cls-7" points="148.91 34.84 87.5 34.84 88.19 28.67 149.61 28.67 148.91 34.84"/><polygon class="cls-7" points="148.06 33.99 143.59 33.99 144.1 29.52 148.56 29.52 148.06 33.99"/><polygon class="cls-7" points="141.66 33.99 137.19 33.99 137.69 29.52 142.16 29.52 141.66 33.99"/><polygon class="cls-7" points="135.26 33.99 130.79 33.99 131.29 29.52 135.76 29.52 135.26 33.99"/><polygon class="cls-7" points="104.46 30.6 89.77 30.6 89.87 29.74 104.56 29.74 104.46 30.6"/><polygon class="cls-7" points="104.29 32.13 89.6 32.13 89.7 31.27 104.39 31.27 104.29 32.13"/><polygon class="cls-7" points="95.94 33.66 89.43 33.66 89.53 32.8 96.04 32.8 95.94 33.66"/><polygon class="cls-7" points="129.11 59.11 111.58 59.11 112.65 49.7 130.17 49.7 129.11 59.11"/><polygon class="cls-7" points="128.87 61.25 111.34 61.25 111.42 60.57 128.95 60.57 128.87 61.25"/><polygon class="cls-7" points="128.71 62.64 111.19 62.64 111.26 61.97 128.79 61.97 128.71 62.64"/><polygon class="cls-8" points="128.58 54.13 121.86 54.13 122.52 48.27 129.24 48.27 128.58 54.13"/><polygon class="cls-7" points="155.91 25.39 90.85 25.39 91.54 19.28 156.6 19.28 155.91 25.39"/><polygon class="cls-7" points="154.85 24.11 92.2 24.11 92.43 22.09 155.08 22.09 154.85 24.11"/><polygon class="cls-7" points="93.55 21.41 92.5 21.41 92.62 20.37 93.67 20.37 93.55 21.41"/><polygon class="cls-7" points="95.42 21.41 94.37 21.41 94.48 20.37 95.53 20.37 95.42 21.41"/><polygon class="cls-7" points="97.28 21.41 96.23 21.41 96.35 20.37 97.39 20.37 97.28 21.41"/><path class="cls-3" d="M106,75.25H99.47a10.57,10.57,0,0,0-8.74,4.63l-.41.6h24.81l-.41-.6A10.57,10.57,0,0,0,106,75.25Z"/><ellipse class="cls-9" cx="102.73" cy="76.07" rx="4.02" ry="0.38"/><path class="cls-7" d="M119.58,11.84a8.24,8.24,0,0,0-12,3.68l7.57,3.26Z"/><path class="cls-7" d="M122.94,16.13l-7.8,2.65-8.23-.27c0,.09,0,.18,0,.27a8.24,8.24,0,1,0,16.48,0A8.16,8.16,0,0,0,122.94,16.13Z"/><path class="cls-10" d="M122.94,16.13a8.21,8.21,0,0,0-3.36-4.29l-4.45,6.94Z"/><path class="cls-7" d="M107.56,15.52a8,8,0,0,0-.66,3l8.23.27Z"/><path class="cls-11" d="M87.77,161.45c.42.71.47,1.82,3.09,2.81S99,165.49,96,166.61a14.44,14.44,0,0,1-7.11.75,30.74,30.74,0,0,0-5,.18c-2.78.12-2.81,0-2.58-3.08C81.62,160.28,86.4,159.16,87.77,161.45Z"/><path class="cls-12" d="M81.62,161.36c4.53-15.56,6.63-44.66,14.44-56,5-7.23,14.6-4.37,11,5.32C103.27,121,93.6,140.34,88.18,161,87.65,163,81.11,163.19,81.62,161.36Z"/><path class="cls-13" d="M104.31,114.24c4.15-1.53,7.74-15.71-7.52-13.79-6.77.85-30.7,2.65-34.31,3.1s-8.86,1.31-9.43,3.16c-2.88,9.22,8.32,17.52,21.79,14.5C83.83,119.19,95.71,117.41,104.31,114.24Z"/><path class="cls-14" d="M63.55,79C61.34,80.66,59,80.63,52.47,81.4c-9.36,1.12-11.66.79-17.61-.57-3.89-.89-.83-9.37,4.55-9.6C44,71,59.79,75.82,62.56,75.69,64.39,75.6,65.35,77.6,63.55,79Z"/><path class="cls-15" d="M33.54,76.46c.41-2.14,2-6.76,8.77-16.58A76.26,76.26,0,0,1,50.11,50c2.69-3,6.69-1.95,7.62-.07,1.5,3,1.48,8.15.17,9.78C50.48,68.9,44.21,75.54,42.81,78.09,40.76,81.82,33.06,79,33.54,76.46Z"/><path class="cls-11" d="M99.46,162.78a11.53,11.53,0,0,0,5,3.28c2.62,1,8.09,1.23,5.12,2.35s-6.53.7-8.33.51a37.69,37.69,0,0,0-5.64-.05c-2.78.12-2.81,0-2.58-3.08C93.31,161.61,98.09,160.5,99.46,162.78Z"/><path class="cls-16" d="M55.94,33c.56,5.62.73,6.87,3.18,9.17s6.3,2.64,9,2.64c2.88,0,4.78-3.47,5.43-5.85a34.68,34.68,0,0,0,.56-13.25c-.41-3.12-4.26-6.91-8.24-6.91S54.57,19.24,55.94,33Z"/><path class="cls-16" d="M58.8,42.89c-.15,2-.3,4.19-.36,6.24a5.37,5.37,0,0,0,4.69,5.45h.31c2.43,0,5.29-2.2,5.07-4.63-.14-1.58-.19-3.18-.2-4.57a6.32,6.32,0,0,0-4.21-5.93h0A4,4,0,0,0,58.8,42.89Z"/><path class="cls-17" d="M47.55,66.93c4.52,14.84,6,23.71,5.11,34.08h34s-.2-25.23-2.48-42.66a13.05,13.05,0,0,0-7.18-10,24.41,24.41,0,0,0-9.06-2H61.66a23.8,23.8,0,0,0-6.63.83C45.76,50,44.93,58.33,47.55,66.93Z"/><path class="cls-18" d="M52.8,121.81s-2.94-7.13-.14-20.8h34a193.14,193.14,0,0,1,1.24,20.8Z"/><path class="cls-19" d="M93.26,163c5.79-15.14,10.26-44,19-54.67,5.54-6.8,14.91-3.17,10.56,6.2-4.65,10-15.87,28.49-23,48.62C99.13,165.11,92.6,164.75,93.26,163Z"/><path class="cls-20" d="M119.72,117.86c4.26-1.19,9-15-6.37-14.36-6.82.29-30.81.14-34.44.28s-8.94.58-9.66,2.38c-3.62,9,6.86,18.14,20.53,16.23C98.91,121.12,110.89,120.32,119.72,117.86Z"/><ellipse class="cls-16" cx="74.44" cy="32.55" rx="3.81" ry="1.99" transform="translate(16.15 89.15) rotate(-67.78)"/><ellipse class="cls-16" cx="56.1" cy="32.55" rx="1.99" ry="3.81" transform="translate(-8.15 23.64) rotate(-22.23)"/><path class="cls-21" d="M57.67,21.9c2.19,3.27,12.78,3.58,16.23,2.37s3.21-7.89-1.73-8.34c-2.78,0-.77.66-3,1.58C68,18,55.33,18.41,57.67,21.9Z"/><path class="cls-16" d="M118.93,55.78c1.41-.88,13.53-8.57,13.39-5.56-.16,3.33-4.32,6.92-5.82,7.94-2.75,1.88-5.71,2.48-6.84,1C118.86,58.12,117.59,56.62,118.93,55.78Z"/><path class="cls-22" d="M121.33,55.14c-2.57.56-18,5.21-22.84,7.64C95.7,61.25,89.66,55,79.85,49.12c-3.64-2.19-7-1.44-9.92.19-1.84,1-2.66,5.06.42,7.61A76.21,76.21,0,0,0,80.6,64.26c10.12,6.28,14.81,7.7,17,8a1.22,1.22,0,0,0,.26,0h.09l.22,0a2.49,2.49,0,0,0,.41-.08,86.53,86.53,0,0,0,16.71-7.88c6.21-3.66,6.88-3.33,8.14-5.77A2.17,2.17,0,0,0,121.33,55.14Z"/><path class="cls-23" d="M69.58,21.33c3.26,2,4,3.69,3.93,7.72S71.69,40,64.27,41.5s-9.17-5.83-9.62-10.91-.16-8.88,3.6-9.79C63.82,19.45,67.61,20.14,69.58,21.33Z"/><path class="cls-3" d="M96.59,165.22a2.46,2.46,0,0,1-2.41-2h-42a2.46,2.46,0,0,1-4.87-.49,4.44,4.44,0,0,1,4.43-4.43H94.62a4.44,4.44,0,0,1,4.43,4.43A2.46,2.46,0,0,1,96.59,165.22Z"/><path class="cls-3" d="M109.07,121.78h-13c-6.86,0-11.21-3.62-12.26-10.19-1.28-8.05-3.66-34.39-3.68-34.65a3.07,3.07,0,0,0-3.77-2.72H37.3a3.91,3.91,0,0,0-3.15,4.05c.1,1.09,2.42,26.82,3.74,35.09,1.53,9.6,8.4,15.33,18.39,15.33h52.06a3.93,3.93,0,0,0,3.82-3.45A3,3,0,0,0,109.07,121.78Z"/><path class="cls-3" d="M77.58,134.63H68.73a1.4,1.4,0,0,1-1.4-1.4v-4.55H79v4.55A1.4,1.4,0,0,1,77.58,134.63Z"/><rect class="cls-3" x="69.25" y="134.63" width="7.82" height="23.16"/><path class="cls-3" d="M78.41,160.79H67.9V155a1.38,1.38,0,0,1,1.38-1.38H77A1.38,1.38,0,0,1,78.41,155Z"/><path class="cls-3" d="M83.66,165.22a2.46,2.46,0,0,1-2.41-2H65.07a2.46,2.46,0,0,1-4.87-.49,4.43,4.43,0,0,1,4.43-4.43H81.69a4.43,4.43,0,0,1,4.43,4.43A2.46,2.46,0,0,1,83.66,165.22Z"/><circle class="cls-3" cx="63.47" cy="166.11" r="3.35"/><circle class="cls-3" cx="61.84" cy="166.11" r="3.35"/><circle class="cls-3" cx="84.48" cy="166.11" r="3.35"/><circle class="cls-3" cx="82.84" cy="166.11" r="3.35"/><circle class="cls-3" cx="50.54" cy="166.11" r="3.35"/><circle class="cls-3" cx="48.91" cy="166.11" r="3.35"/><circle class="cls-3" cx="97.41" cy="166.11" r="3.35"/><circle class="cls-3" cx="95.77" cy="166.11" r="3.35"/><polygon class="cls-24" points="77.07 137.4 69.25 135.22 69.25 134.63 77.07 134.63 77.07 137.4"/><polygon class="cls-3" points="78.98 131.45 67.33 129.27 67.33 128.68 78.98 128.68 78.98 131.45"/><path class="cls-3" d="M108.34,128.68h-13c-10,0-16.86-5.73-18.39-15.33-1.32-8.27-3.64-34-3.74-35.09a3.91,3.91,0,0,1,3.15-4.05,3.07,3.07,0,0,1,3.77,2.72c0,.27,2.4,26.6,3.68,34.65,1,6.57,5.4,10.19,12.26,10.19h13a3,3,0,0,1,3.09,3.45A3.93,3.93,0,0,1,108.34,128.68Z"/><line class="cls-7" x1="52.8" y1="121.81" x2="96.1" y2="121.78"/></g></g></g></svg>