<?xml version="1.0" encoding="utf-8"?>
<!-- Generator: Adobe Illustrator 21.0.0, SVG Export Plug-In . SVG Version: 6.00 Build 0)  -->
<svg version="1.1" id="Слой_1" xmlns="http://www.w3.org/2000/svg" xmlns:xlink="http://www.w3.org/1999/xlink" x="0px" y="0px"
	 viewBox="0 0 130.9 162" style="enable-background:new 0 0 130.9 162;" xml:space="preserve">
<style type="text/css">
	.st0{fill:none;stroke:#0037FF;stroke-linecap:round;stroke-linejoin:round;}
	.st1{opacity:0.5;fill:none;stroke:#0037FF;stroke-linecap:round;stroke-linejoin:round;enable-background:new    ;}
	.st2{opacity:0.6;}
	.st3{opacity:0.6;fill:none;stroke:#0037FF;stroke-linecap:round;stroke-linejoin:round;enable-background:new    ;}
	.st4{opacity:0.3;fill:url(#SVGID_1_);enable-background:new    ;}
	.st5{fill:url(#SVGID_2_);}
	.st6{fill:url(#SVGID_3_);}
	.st7{fill:#F70F47;}
	.st8{fill:#ED9169;}
	.st9{fill:url(#SVGID_4_);}
	.st10{fill:url(#SVGID_5_);}
	.st11{fill:url(#SVGID_6_);}
	.st12{fill:url(#SVGID_7_);}
	.st13{fill:url(#SVGID_8_);}
	.st14{fill:url(#SVGID_9_);}
	.st15{fill:url(#SVGID_10_);}
	.st16{fill:url(#SVGID_11_);}
	.st17{fill:#FFAF84;}
	.st18{opacity:0.3;fill:url(#SVGID_12_);enable-background:new    ;}
</style>
<title>kopiraiter</title>
<g>
	<g id="Слой_2">
		<g id="Objects">
			<polygon class="st0" points="130.1,38.8 130.1,131.4 0.5,131.4 0.5,47 			"/>
			<polygon class="st1" points="129.2,129.8 0.5,130.4 0.5,47 129.2,38.4 			"/>
			<polygon class="st0" points="130.1,38.8 0.5,47 0.5,34.8 130.1,25.4 			"/>
			<polygon class="st0" points="127.5,36.2 2.7,44.3 2.7,40.3 127.5,31.8 			"/>
			<polygon class="st0" points="4.6,38.8 2.7,38.9 2.7,36.8 4.6,36.7 			"/>
			<polygon class="st0" points="8,38.6 6.1,38.7 6.1,36.6 8,36.5 			"/>
			<polygon class="st0" points="11.4,38.3 9.5,38.5 9.5,36.4 11.4,36.2 			"/>
			<polygon class="st1" points="6.1,121.5 126.1,116.6 126.1,43.1 6.1,51.3 			"/>
			<path class="st0" d="M11.8,67.5c-0.4,0-0.8-0.2-1.1-0.5c-0.4-0.3-0.5-0.8-0.5-1.3v-9.6c0-1,0.7-1.8,1.7-1.9l108.4-7
				c1-0.1,1.8,0.7,1.9,1.7c0,0.1,0,0.2,0,0.2v10c0,1-0.8,1.9-1.8,1.9L11.8,67.5L11.8,67.5z M120.4,48.1L120.4,48.1l-108.5,7
				c-0.5,0.1-0.9,0.5-0.9,1v9.6c0,0.3,0.1,0.5,0.3,0.7c0.2,0.2,0.4,0.2,0.6,0.2l108.4-6.4c0.6-0.1,1-0.5,1-1.1v-10
				c0-0.3-0.1-0.5-0.3-0.7C120.9,48.3,120.6,48.1,120.4,48.1z"/>
			<path class="st0" d="M11.8,83.8c-0.4,0-0.8-0.2-1.2-0.5c-0.3-0.3-0.5-0.8-0.5-1.3v-9.6c0-1,0.7-1.8,1.7-1.9l108.4-6.3
				c0.5,0,1,0.1,1.3,0.5c0.4,0.3,0.6,0.8,0.6,1.3v10c0,1-0.8,1.9-1.8,1.9L11.8,83.8L11.8,83.8z M120.4,65.1L120.4,65.1L11.9,71.4
				c-0.5,0-0.9,0.5-0.9,1v9.7c0,0.3,0.1,0.5,0.3,0.7c0.2,0.2,0.4,0.2,0.6,0.2l108.4-5.8c0.6,0,1-0.5,1-1.1v-10
				c0-0.3-0.1-0.5-0.3-0.7C120.8,65.2,120.6,65.1,120.4,65.1z"/>
			<path class="st0" d="M11.8,100.2c-0.4,0-0.9-0.2-1.2-0.5c-0.3-0.3-0.5-0.8-0.5-1.3v-9.6c0-1,0.8-1.8,1.7-1.9l108.4-5.6
				c0.5,0,1,0.2,1.3,0.5c0.4,0.3,0.6,0.8,0.6,1.3v10c0,1-0.8,1.9-1.8,1.9L11.8,100.2L11.8,100.2z M120.4,82.1L120.4,82.1L11.9,87.8
				c-0.5,0-0.9,0.5-0.9,1v9.6c0,0.3,0.1,0.5,0.3,0.7c0.2,0.2,0.4,0.2,0.6,0.2l108.4-5.1c0.6,0,1-0.5,1-1.1v-10
				c0-0.3-0.1-0.5-0.3-0.7C120.9,82.2,120.6,82.1,120.4,82.1z"/>
			<path class="st0" d="M11.9,116.5c-0.4,0-0.9-0.2-1.2-0.5c-0.3-0.3-0.5-0.8-0.5-1.3v-9.6c0-1,0.8-1.8,1.7-1.8l108.4-5
				c0.5,0,1,0.2,1.3,0.5c0.4,0.3,0.6,0.8,0.6,1.3v10c0,1-0.8,1.9-1.8,1.9L11.9,116.5L11.9,116.5z M11.9,115.7L11.9,115.7l108.4-4.5
				c0.6,0,1-0.4,1-1v-10.1c0-0.3-0.1-0.5-0.3-0.7c-0.2-0.2-0.4-0.3-0.7-0.3l-108.4,5c-0.5,0-0.9,0.5-0.9,1v9.6
				c0,0.3,0.1,0.5,0.3,0.7C11.4,115.6,11.6,115.7,11.9,115.7L11.9,115.7z"/>
			<polygon class="st1" points="93.6,88.3 118.1,87.6 118.1,85.6 93.6,86.4 			"/>
			<polygon class="st1" points="101.5,91.5 118.1,91.1 118.1,89.1 101.5,89.6 			"/>
			<polygon class="st1" points="95.5,91.7 99.6,91.6 99.6,89.6 95.5,89.8 			"/>
			<polygon class="st1" points="93.6,55.4 118.1,54.1 118.1,52.1 93.6,53.5 			"/>
			<polygon class="st1" points="103.4,58.3 118.1,57.6 118.1,55.6 103.4,56.4 			"/>
			<polygon class="st1" points="86.3,59.2 101.5,58.4 101.5,56.5 86.3,57.3 			"/>
			<polygon class="st1" points="108.2,104.7 118.1,104.5 118.1,102.6 108.2,102.8 			"/>
			<polygon class="st1" points="96.7,104.9 106.4,104.7 106.4,102.8 96.7,103 			"/>
			<polygon class="st1" points="101.5,108.3 118.1,108 118.1,106 101.5,106.3 			"/>
			<polygon class="st1" points="83.7,108.6 99.6,108.3 99.6,106.4 83.7,106.6 			"/>
			<path class="st0" d="M9.3,64l108.4-6.8c0.8,0,1.4-0.7,1.4-1.5v-10c0-0.8-0.6-1.4-1.3-1.4c0,0-0.1,0-0.1,0L9.3,51.6
				C8.6,51.7,8,52.3,8,53.1v9.6C8,63.4,8.5,64,9.3,64C9.3,64,9.3,64,9.3,64z"/>
			<g class="st2">
				<polygon class="st0" points="77.7,55.7 29.8,58.7 29.8,60.1 77.7,57.1 				"/>
				<polygon class="st0" points="77.7,53.1 29.8,56.1 29.8,57.5 77.7,54.6 				"/>
				<polygon class="st0" points="51.3,52.1 29.8,53.5 29.8,54.9 51.3,53.5 				"/>
			</g>
			<polygon class="st0" points="19.4,60.6 25.8,60.3 25.8,53.8 19.4,54 			"/>
			<polygon class="st3" points="12.1,60.8 18.4,60.5 18.4,54 12.1,54.3 			"/>
			
				<linearGradient id="SVGID_1_" gradientUnits="userSpaceOnUse" x1="7204.0825" y1="12.2165" x2="7211.9824" y2="12.2165" gradientTransform="matrix(-1 0 0 -1 7321.0498 170.13)">
				<stop  offset="0" style="stop-color:#0000FF"/>
				<stop  offset="1" style="stop-color:#9E005D"/>
			</linearGradient>
			<path class="st4" d="M111.5,155.3c-0.2,0.8-0.3,1.5-0.3,2.3c-0.2,0.9-1,1.3-1.5,2s-1.4,2.2,2,2.2c3.7,0.1,5.9-0.2,5.3-2.2
				c-0.4-1.1-0.7-2.3-0.7-3.6c0.1-0.6,0-1.2-0.4-1.7C115.3,154,112,153.3,111.5,155.3z"/>
			
				<linearGradient id="SVGID_2_" gradientUnits="userSpaceOnUse" x1="7264.1514" y1="147.0946" x2="7236.1216" y2="139.3746" gradientTransform="matrix(-1 0 0 -1 7321.0498 170.13)">
				<stop  offset="0" style="stop-color:#F70F47"/>
				<stop  offset="1" style="stop-color:#FFB41D"/>
			</linearGradient>
			<path class="st5" d="M64.2,16.5c1,1.8,10.4,9.8,12.2,12.7c2,3.5-2.5,8.9-4.5,6.8c-2.2-2.4-4.4-5.3-7.7-11
				c-2.4-4.2-2.6-5.6-2.4-7.7C61.9,15.5,63.5,15.3,64.2,16.5z"/>
			
				<linearGradient id="SVGID_3_" gradientUnits="userSpaceOnUse" x1="7264.1611" y1="147.0457" x2="7236.1411" y2="139.3257" gradientTransform="matrix(-1 0 0 -1 7321.0498 170.13)">
				<stop  offset="0" style="stop-color:#F70F47"/>
				<stop  offset="1" style="stop-color:#FFB41D"/>
			</linearGradient>
			<path class="st6" d="M74.5,29.5c2.2-0.3,8.5-2.8,16.9-5.3c1.5-0.5,5,1,6.7,2.8c1,1.2,0.6,4.2-2.2,5.3c-2.9,1.1-5.9,2-9,2.6
				c-8.7,1.9-12.3,1.8-13.9,1.5C71.2,36,71.3,29.9,74.5,29.5z"/>
			<path class="st7" d="M95.3,13.5c-1.5,0.7-2.2,0.7-2.7-1.2c-0.4-1.5-1.1-6.6,1.2-6.9S98,5,97.7,8.2S97.1,12.7,95.3,13.5z"/>
			<path class="st8" d="M104.1,16.3c0,0.2,0.5,5.1,0.6,8.9c-0.1,2-1.7,3.5-3.7,3.6H101c-1.8,0-3.9-1.6-3.8-3.5
				c0.2-2.2,0.2-4.5,0.1-6.7L104.1,16.3z"/>
			
				<linearGradient id="SVGID_4_" gradientUnits="userSpaceOnUse" x1="7221.1753" y1="138.1007" x2="7226.0352" y2="96.3407" gradientTransform="matrix(-1 0 0 -1 7321.0498 170.13)">
				<stop  offset="0" style="stop-color:#F70F47"/>
				<stop  offset="1" style="stop-color:#FFB41D"/>
			</linearGradient>
			<path class="st9" d="M113.3,36.7c-3.4,11.1-4.9,24.5-4.2,32.2H83.7c0,0,0.2-23.7,1.8-36.7c0.4-3.2,2.4-6,5.3-7.5
				c2.1-0.9,4.4-1.4,6.8-1.5h4.7c1.7,0.1,3.3,0.3,4.9,0.6C114,25.1,115.2,30.3,113.3,36.7z"/>
			
				<linearGradient id="SVGID_5_" gradientUnits="userSpaceOnUse" x1="7157.7515" y1="3.3161" x2="7253.9219" y2="132.0761" gradientTransform="matrix(-1 0 0 -1 7321.0498 170.13)">
				<stop  offset="0" style="stop-color:#36078B"/>
				<stop  offset="1" style="stop-color:#16B1FF"/>
			</linearGradient>
			<path class="st10" d="M109,84.4c0,0,2.2-5.3,0.1-15.5H83.7c-0.6,5.1-0.9,10.3-0.9,15.5H109z"/>
			
				<linearGradient id="SVGID_6_" gradientUnits="userSpaceOnUse" x1="7175.0884" y1="-9.6338" x2="7271.2583" y2="119.1262" gradientTransform="matrix(-1 0 0 -1 7321.0498 170.13)">
				<stop  offset="0" style="stop-color:#36078B"/>
				<stop  offset="1" style="stop-color:#16B1FF"/>
			</linearGradient>
			<path class="st11" d="M104,117.6c-2-8.3,6.4-9.7,9.1-3.7c3.8,8.4,3.5,35.4,3.3,40.8c0,0.7-0.4,0.6-0.8,0.4
				c-0.8-0.4-1.8-0.5-2.7-0.5c-0.6,0.2-1.1,0.6-1.4,1.1C110.6,148.3,105.9,125.5,104,117.6z"/>
			
				<linearGradient id="SVGID_7_" gradientUnits="userSpaceOnUse" x1="7160.1992" y1="1.4859" x2="7256.3691" y2="130.2459" gradientTransform="matrix(-1 0 0 -1 7321.0498 170.13)">
				<stop  offset="0" style="stop-color:#36078B"/>
				<stop  offset="1" style="stop-color:#16B1FF"/>
			</linearGradient>
			<path class="st12" d="M96.4,85.5c-0.9-10.3,3.2-18.2,9.5-14.8c2.7,1.4,3.7,4.3,4,7c0.3,2.7,2.3,30.6,3,35.6
				c1.6,11.4-7.4,8.3-8.4,5.2C102.1,110.4,96.9,91.1,96.4,85.5z"/>
			
				<linearGradient id="SVGID_8_" gradientUnits="userSpaceOnUse" x1="7191.998" y1="-22.2659" x2="7288.168" y2="106.4941" gradientTransform="matrix(-1 0 0 -1 7321.0498 170.13)">
				<stop  offset="0" style="stop-color:#36078B"/>
				<stop  offset="1" style="stop-color:#16B1FF"/>
			</linearGradient>
			<path class="st13" d="M81.4,117c-0.3-7.7,7.2-7.5,9-1.3c3,9.8-2.2,31-2.5,43c-1.3-2.1-2.5-2.6-3.1-2.6c-0.6,0.1-1.1,0.3-1.4,0.8
				C83.6,141.1,81.8,125.2,81.4,117z"/>
			
				<linearGradient id="SVGID_9_" gradientUnits="userSpaceOnUse" x1="7172.1621" y1="-7.4492" x2="7268.332" y2="121.3108" gradientTransform="matrix(-1 0 0 -1 7321.0498 170.13)">
				<stop  offset="0" style="stop-color:#36078B"/>
				<stop  offset="1" style="stop-color:#16B1FF"/>
			</linearGradient>
			<path class="st14" d="M90.2,117.9c-1,3.1-9.6,6.8-8.7-4.7c0.4-5.1,1.4-33.1,1.7-35.8s0.7-6.6,2-7.1c6.8-2.5,13.3,5.6,11.6,15.7
				C95.5,92.8,92.2,111.3,90.2,117.9z"/>
			
				<linearGradient id="SVGID_10_" gradientUnits="userSpaceOnUse" x1="7203.3384" y1="136.0199" x2="7208.2085" y2="94.2598" gradientTransform="matrix(-1 0 0 -1 7321.0498 170.13)">
				<stop  offset="0" style="stop-color:#F70F47"/>
				<stop  offset="1" style="stop-color:#FFB41D"/>
			</linearGradient>
			<path class="st15" d="M107.8,61.1c1.3-1.6,5.5-13.2,7.7-15.8c2.5-3.1,9-1.1,7.8,1.6c-1.8,4.2-2.7,5.7-7.5,10.8
				c-3.4,3.5-4.4,5-6.4,5.5C107.7,63.6,106.9,62.1,107.8,61.1z"/>
			
				<linearGradient id="SVGID_11_" gradientUnits="userSpaceOnUse" x1="7206.4502" y1="136.38" x2="7211.3101" y2="94.63" gradientTransform="matrix(-1 0 0 -1 7321.0498 170.13)">
				<stop  offset="0" style="stop-color:#F70F47"/>
				<stop  offset="1" style="stop-color:#FFB41D"/>
			</linearGradient>
			<path class="st16" d="M116.4,46.9c-1-1.9-5.5-7-10.9-14c-0.9-1.2-0.8-5.1,0.3-7.3c0.7-1.4,3.7-2,5.7,0.2c2.1,2.4,4,4.9,5.6,7.5
				c4.8,7.5,5.9,10.9,6.2,12.5C123.7,47.8,117.9,49.7,116.4,46.9z"/>
			<path class="st17" d="M106.6,12.7c-0.4,4.2-0.5,5.1-2.4,6.8c-1.8,1.6-4.1,2.5-6.4,2.5c-2.2,0-3.7-2.3-4.2-4
				c-0.8-3.5-1-7.2-0.5-10.7c0.7-2.9,3.2-5,6.2-5.2C102.2,2.1,107.7,2.5,106.6,12.7z"/>
			<path class="st17" d="M110,60.5c-1-1.1-2.5-2.7-3.2-3.7s-3,0.7-3,1.5c-0.1,1.2,1.2,4.5,2.7,4.5s2,1.4,3.3,1
				C111.1,63.4,111.6,62.2,110,60.5z"/>
			
				<linearGradient id="SVGID_12_" gradientUnits="userSpaceOnUse" x1="7232.9131" y1="11.1338" x2="7245.9438" y2="11.1338" gradientTransform="matrix(-1 0 0 -1 7321.0498 170.13)">
				<stop  offset="0" style="stop-color:#0000FF"/>
				<stop  offset="1" style="stop-color:#9E005D"/>
			</linearGradient>
			<path class="st18" d="M83.1,157c-0.9,1.2-2.2,2.1-3.6,2.6c-1.9,0.8-6,1.2-3.7,1.9c2,0.5,4.2,0.5,6.2,0.1c1.4-0.2,2.8-0.3,4.2-0.2
				c2.1,0,2.1-0.1,1.8-2.4C87.6,155.9,84,155.2,83.1,157z"/>
			<path class="st7" d="M106.6,12.1c-1.1,1.1-1.7,1.4-2.8-0.2c-0.9-1.2-3.2-5.6-1.2-6.6s3.6-1.7,4.4,1.2S108,10.7,106.6,12.1z"/>
			
				<ellipse transform="matrix(0.3782 -0.9257 0.9257 0.3782 54.044 107.1091)" class="st17" cx="106.7" cy="13.3" rx="2.8" ry="1.5"/>
			<path class="st7" d="M105.3,4.5c-1.6,2.4-9.5,2.7-12.1,1.8S90.8,0.3,94.5,0c2.1,0,0.6,0.5,2.3,1.2C97.6,1.5,107.1,1.8,105.3,4.5z
				"/>
			<path class="st17" d="M64.6,16.7c-0.5-1.3-4.6-11-6.2-9.4c-1.8,1.8-1,6-0.6,7.4c0.8,2.5,3.2,4.1,4.8,4
				C63.7,18.6,65,17.9,64.6,16.7z"/>
			<path class="st17" d="M64.8,16c0.1-0.6,0.4-4.3-0.3-4.4c-1-0.2-1.4,2.2-1.6,3.8c-0.1,0.9,0.3,2.1,1,2.1
				C64.6,17.5,64.7,16.9,64.8,16z"/>
			<g>
				<defs>
					<path id="SVGID_13_" d="M57.8,14.7c0.6,1.9,2.1,3.3,3.9,3.9c0.1,1.5,0.6,3.1,2.4,6.3c3.3,5.7,5.5,8.7,7.7,11
						c0.3,0.4,0.9,0.6,1.4,0.5c1.5,0.3,4.8,0.4,12-1.1c-1.4,13.3-1.5,33.6-1.5,33.6c-0.6,5.1-0.9,10.3-0.9,15.5l0,0
						c-0.4,9.4-1,25.1-1.3,28.8c-0.1,0.8-0.1,1.6,0,2.4c0,0.5,0,0.9,0,1.4c0.3,8.1,2.1,23.8,2,39.6c-0.1,0.1-0.2,0.3-0.3,0.4
						c-0.9,1.2-2.2,2.1-3.6,2.6c-1.9,0.8-6,1.2-3.7,1.9c2,0.5,4.2,0.5,6.2,0.1c1.4-0.2,2.8-0.3,4.2-0.2c2.1,0,2.1-0.1,1.8-2.4
						c0-0.1,0-0.1,0-0.2l0,0c0.3-11.9,5.2-32.4,2.6-42.5c2-7.2,4.8-22.6,6-29.4c0.9,6.1,4.7,20.3,7.1,28.6c0,0.7,0.1,1.4,0.3,2.1
						c2,8,6.6,30.8,7.4,38.1l0,0c-0.2,0.9-0.1,1.3-0.2,1.9c-0.2,0.9-1,1.3-1.5,2s-1.4,2.2,2,2.2c3.7,0.1,5.9-0.2,5.3-2.2
						c-0.4-1.1-0.7-2.3-0.7-3.6c0-0.3,0-0.7-0.1-1c0.1-0.1,0.2-0.2,0.2-0.5c0.2-5.4,0.5-32.4-3.3-40.8l0,0c0-0.2,0-0.4-0.1-0.6
						c-0.7-4.9-2.6-31.6-3-35.4c0-3-0.3-6-0.9-9c-0.1-1.7-0.2-3.4-0.1-5c0.3,0.1,0.6,0.1,0.9,0c0.7-0.1,1.3-0.8,1.2-1.6
						c1.7-1.4,3.2-3,4.7-4.7c4.8-5.1,5.7-6.6,7.5-10.8c0.1-0.2,0.1-0.4,0.1-0.6c0-0.1,0-0.2,0-0.4c-0.3-1.6-1.4-5.1-6.2-12.5
						c-1.6-2.5-2.9-4.2-3.8-5.4c-0.5-1.1-1.4-2-2.4-2.6c-0.5-0.4-1-0.7-1.6-0.8c-0.7-0.3-1.4-0.5-2.1-0.6c-0.8-0.2-1.7-0.3-2.6-0.4
						c-0.1-1.4-0.2-2.8-0.3-4c1-0.9,1.6-2.1,1.8-3.4c0.9-0.4,1.6-1.1,1.9-2.1c0.6-1.5,0.5-2.9-0.3-3.2c-0.1,0-0.2-0.1-0.3,0
						c0.3-1,0.1-2.2-0.5-4.2c-0.4-1.4-0.9-2-1.7-2.1c1.5-2.5-7.8-2.9-8.6-3.2C95.1,0.5,96.6,0,94.5,0c-3.5,0.3-3.8,4.8-1.7,6
						c-1.1,1.5-0.6,5.1-0.2,6.3c0.1,0.3,0.2,0.6,0.3,0.8c0.1,1.6,0.3,3.2,0.7,4.8c0.4,1.7,1.9,3.7,3.8,4c0,0.4,0,0.8,0,1.2
						c-1.7,0.1-3.4,0.4-5,0.9c-0.3,0-0.7,0-1,0c-6.7,2-12.1,4-15.1,4.9c-1.7-2.7-9.6-9.6-11.7-12.1c0,0,0-0.1,0-0.1
						c0.1-0.3,0.1-0.6,0.2-1c0.1-0.6,0.4-4.3-0.3-4.4s-1,0.8-1.3,2c-1.5-3.2-3.7-7.3-4.8-6.2C56.5,9.1,57.3,13.3,57.8,14.7z
						 M109.2,58.3c0.5-5.8,1.4-11.5,2.8-17.2c1.4,1.7,2.5,3.2,3.3,4.2C113.8,47.4,111,54.3,109.2,58.3z"/>
				</defs>
				<clipPath id="SVGID_14_">
					<use xlink:href="#SVGID_13_"  style="overflow:visible;"/>
				</clipPath>
			</g>
			
				<rect x="50.4" y="14.5" transform="matrix(0.6205 -0.7842 0.7842 0.6205 9.3489 51.7602)" class="st0" width="15.5" height="3.4"/>
			<path class="st0" d="M60.9,15.3l-2.5-2c-0.2-0.2-0.2-0.5-0.1-0.7c0,0,0,0,0,0l7-8.9c0.7-0.9,2-1.1,2.9-0.3c0,0,0,0,0,0l0,0
				c0.9,0.7,1.1,2,0.3,2.9c0,0,0,0,0,0l-7,8.9C61.4,15.4,61.1,15.5,60.9,15.3C60.9,15.3,60.9,15.3,60.9,15.3z"/>
			<polygon class="st0" points="53.2,26.3 49,28.7 48.2,28 49.5,23.4 52.2,22 53.9,23.3 			"/>
			<path class="st0" d="M53.6,24.3l-2.3-1.8c-0.3-0.3-0.4-0.7-0.1-1l0,0c0.3-0.3,0.7-0.4,1-0.1l2.3,1.8c0.3,0.3,0.3,0.7,0.1,1l0,0
				C54.4,24.4,54,24.5,53.6,24.3z"/>
			<ellipse transform="matrix(0.6205 -0.7842 0.7842 0.6205 -0.512 49.5724)" class="st0" cx="51" cy="25.3" rx="0.5" ry="0.5"/>
			<path class="st0" d="M51.1,25.5l-2.4,3l-0.3-0.2l2.4-3c0.1-0.1,0.2-0.1,0.3,0c0,0,0,0,0,0c0,0,0.1,0.1,0.1,0.1
				C51.1,25.4,51.1,25.4,51.1,25.5z"/>
			<path class="st0" d="M61,15.7l-3-2.4c-0.2-0.2-0.2-0.4-0.1-0.6c0,0,0,0,0,0l0,0c0.2-0.2,0.4-0.2,0.6-0.1c0,0,0,0,0,0l3,2.4
				c0.2,0.2,0.2,0.4,0.1,0.6c0,0,0,0,0,0l0,0C61.5,15.8,61.2,15.8,61,15.7C61,15.7,61,15.7,61,15.7z"/>
			<path class="st17" d="M64.8,14.9c0-0.6,0-4.3-0.7-4.4c-1-0.1-1.2,2.4-1.2,4c0,0.9,0.5,2.1,1.2,2C64.8,16.4,64.8,15.9,64.8,14.9z"
				/>
		</g>
	</g>
</g>
</svg>
