<svg xmlns="http://www.w3.org/2000/svg" xmlns:xlink="http://www.w3.org/1999/xlink" viewBox="0 0 474.48 393.71"><defs><style>.cls-1,.cls-24,.cls-25,.cls-5{fill:none;}.cls-2{isolation:isolate;}.cls-3,.cls-35{opacity:0.2;}.cls-3{fill:url(#Degradado_sin_nombre_488);}.cls-13,.cls-4{fill:#dd001e;}.cls-4{opacity:0.1;}.cls-24,.cls-25,.cls-5{stroke:#0037ff;stroke-linecap:round;stroke-linejoin:round;}.cls-6{opacity:0.3;}.cls-7{fill:#b20202;}.cls-8{fill:#0016a0;}.cls-9{fill:#fff;}.cls-10{fill:#fffff8;}.cls-11{fill:#d5e9f8;}.cls-12{fill:#a5d0f8;}.cls-14{fill:#00b2ff;}.cls-15{fill:#e4eaff;}.cls-16{fill:#b0ceff;}.cls-17{fill:#13068c;}.cls-18{fill:#432ad3;}.cls-19{fill:#0027da;}.cls-20{fill:url(#Degradado_sin_nombre_23);}.cls-21{fill:#28ffff;}.cls-22{fill:url(#Degradado_sin_nombre_186);}.cls-23{clip-path:url(#clip-path);}.cls-24{opacity:0.67;}.cls-25{opacity:0.78;}.cls-26,.cls-32{fill:#00216c;}.cls-27{fill:#003591;}.cls-28{fill:#7f0000;}.cls-29{fill:#feb536;}.cls-30{fill:#ffd4a0;}.cls-31{fill:#ff907d;}.cls-32{opacity:0.33;mix-blend-mode:multiply;}.cls-33{fill:#000f1f;}.cls-34{fill:#d9f0ff;}.cls-35,.cls-36{fill:#00cdff;}.cls-36{opacity:0.5;}</style><linearGradient id="Degradado_sin_nombre_488" x1="104.51" y1="192.4" x2="485.39" y2="192.4" gradientTransform="translate(-48.25 182.41) rotate(-31.03)" gradientUnits="userSpaceOnUse"><stop offset="0" stop-color="#ff70fa"/><stop offset="0.27" stop-color="#cc54f1"/><stop offset="0.89" stop-color="#4e0cdc"/><stop offset="1" stop-color="#3800d8"/></linearGradient><linearGradient id="Degradado_sin_nombre_23" x1="414.73" y1="98.14" x2="385.51" y2="165.62" gradientUnits="userSpaceOnUse"><stop offset="0" stop-color="#e2f3f8" stop-opacity="0"/><stop offset="0.1" stop-color="#def3f8" stop-opacity="0.02"/><stop offset="0.23" stop-color="#d4f4f9" stop-opacity="0.08"/><stop offset="0.36" stop-color="#c3f5f9" stop-opacity="0.17"/><stop offset="0.5" stop-color="#aaf7fa" stop-opacity="0.3"/><stop offset="0.65" stop-color="#8bf9fb" stop-opacity="0.47"/><stop offset="0.8" stop-color="#65fbfd" stop-opacity="0.67"/><stop offset="0.95" stop-color="#39fefe" stop-opacity="0.91"/><stop offset="1" stop-color="#28ffff"/></linearGradient><linearGradient id="Degradado_sin_nombre_186" x1="-370.03" y1="1076.29" x2="-361.44" y2="1084.88" gradientTransform="translate(-592.12 -438.48) rotate(-79.02)" gradientUnits="userSpaceOnUse"><stop offset="0" stop-color="#e2f3f8"/><stop offset="1" stop-color="#d7e4ff"/></linearGradient><clipPath id="clip-path"><path class="cls-1" d="M437.12,51.87c-6.52-7.21-31.64-35-73.62-40.58-8.93-1.19-50.91-6.78-77.74,17.81C250.25,61.64,279.19,112.26,248.6,151c-26.3,33.34-74.86.78-108.43,34.1-17.52,17.39-27.07,46.53-21.32,68.33,18,68,203.81,135.82,300.37,47.27C489.51,236.27,489.64,109.93,437.12,51.87Z"/></clipPath></defs><title>kto-my-takie</title><g class="cls-2"><g id="Слой_2" data-name="Слой 2"><g id="OBJECTS"><path class="cls-3" d="M437.12,51.87c-6.52-7.21-31.64-35-73.62-40.58-8.93-1.19-50.91-6.78-77.74,17.81C250.25,61.64,279.19,112.26,248.6,151c-26.3,33.34-74.86.78-108.43,34.1-17.52,17.39-27.07,46.53-21.32,68.33,18,68,203.81,135.82,300.37,47.27C489.51,236.27,489.64,109.93,437.12,51.87Z"/><path class="cls-4" d="M12.48,248.49c4.18,8.77,20.31,42.58,58.93,59.95,8.21,3.7,46.84,21.07,79.59,5.19,43.34-21,30.1-77.8,70.5-106.2,34.74-24.42,72,20.68,113.65-1.64,21.77-11.65,39.26-36.84,40-59.37C377.39,76.08,218.72-42,100.85,15.16,15.05,56.81-21.23,177.82,12.48,248.49Z"/><path class="cls-5" d="M291.38,244.35c7.11-4.22,14.25-1.54,16.78-.33,2.44-1.52,6.86-3,12.53.33C334,258.73,326.12,271,326.12,271l-3.69-3.69a13.71,13.71,0,0,1-2.82,13.85L313.5,275c1.11,9.4-7.47,15.76-7.47,15.76s-8.57-6.36-7.47-15.76l-6.11,6.11a13.71,13.71,0,0,1-2.82-13.85L285.95,271S278.1,258.73,291.38,244.35Z"/><path class="cls-5" d="M296.23,245.13c4.75-2.82,9.52-1,11.22-.22,1.63-1,4.58-2,8.37.22,8.87,9.61,3.63,17.81,3.63,17.81L317,260.47a9.17,9.17,0,0,1-1.88,9.26L311,265.64c.74,6.28-5,10.54-5,10.54s-5.73-4.25-5-10.54L297,269.72a9.17,9.17,0,0,1-1.88-9.26l-2.47,2.47S287.36,254.74,296.23,245.13Z"/><path class="cls-5" d="M299.16,244.67a8.38,8.38,0,0,1,7.86-.15,5.35,5.35,0,0,1,5.87.15c6.22,6.74,2.54,12.49,2.54,12.49l-1.73-1.73a6.43,6.43,0,0,1-1.32,6.49l-2.86-2.86c.52,4.41-3.5,7.39-3.5,7.39s-4-3-3.5-7.39l-2.86,2.86a6.43,6.43,0,0,1-1.32-6.49l-1.73,1.73S292.94,251.41,299.16,244.67Z"/><path class="cls-5" d="M332.3,204.27l17.41,14c4.27,3.39,6.76,6.66,7.39,11.27l.42,16a2.25,2.25,0,0,1-3.85,1.64l-5.24-8.7-23.64-7.15Z"/><polygon class="cls-5" points="333.4 205.16 333.4 233.91 324.79 231.3 331.76 206.2 333.31 205.08 333.4 205.16"/><path class="cls-5" d="M279.82,204.27l-17.41,14c-4.27,3.39-6.76,6.66-7.39,11.27l-.42,16a2.25,2.25,0,0,0,3.85,1.64l5.24-8.7,23.64-7.15Z"/><polygon class="cls-5" points="278.72 205.16 278.72 233.91 287.33 231.3 280.36 206.2 278.81 205.08 278.72 205.16"/><path class="cls-5" d="M286.1,223.67,304,220.74h13.63l8.45,2.67-3.88,20.8h0c-.38,4.16-7.43,7.48-16.1,7.48s-15.54-3.24-16.08-7.32h0Z"/><path class="cls-5" d="M278.53,204.08l24.63-4H322l11.66,3.68-5.35,28.68h0c-.52,5.74-10.25,10.32-22.2,10.32-11.8,0-21.43-4.46-22.18-10.1h0Z"/><path class="cls-5" d="M281.63,220.8,282,223c4.91,5.62,14,7.45,24,7.45s18.75-2,24-7.78l.36-1.91c-2.86,5-12.86,8.73-24.39,8.73C293.72,229.53,284.51,225.78,281.63,220.8Z"/><path class="cls-5" d="M306,235.59c-11,0-20.21-3.54-23.21-8.4l1,5.44h0c.75,5.64,10.38,10.1,22.18,10.1,12,0,21.68-4.58,22.2-10.32h0l1-5.22C326.23,232.05,317,235.59,306,235.59Z"/><ellipse class="cls-5" cx="306.03" cy="202.46" rx="27.7" ry="13.45"/><path class="cls-5" d="M306,70.5v-.06l0,0,0,0v.06c50.22,72.68,23.63,132,23.63,132h0C327.89,208,318,212.28,306,212.28s-21.86-4.26-23.65-9.83h0S255.8,143.19,306,70.5Z"/><path class="cls-5" d="M306,177.39c16.18,0,29.45-5.64,30.67-12.78q0,1.32-.08,2.61c-3.53,6.32-15.88,11-30.58,11s-27-4.67-30.56-11c0-.79-.06-1.59-.08-2.39C276.88,171.88,290,177.39,306,177.39Z"/><path class="cls-5" d="M306.07,70.44S316.08,83.24,321,96c-.79,3.48-7.15,6.2-15,6.2s-14.12-2.7-15-6.15C295,86.7,300,79.19,306.07,70.44Z"/><path class="cls-5" d="M306,180.74c16.87,0,28.62-5.35,30.44-10.8q-.16,2.6-.41,5c-5.31,5-16.61,8.36-30,8.36S281.34,180,276,175c-.16-1.6-.3-3.26-.41-5C277.49,175.43,289.22,180.74,306,180.74Z"/><path class="cls-5" d="M306,187.36a10.27,10.27,0,0,1,10.26,10.26v13.54a47.41,47.41,0,0,1-20.52,0V197.62A10.27,10.27,0,0,1,306,187.36Z"/><path class="cls-5" d="M306,185.3a12.34,12.34,0,0,1,12.33,12.32v13l-.83.22V197.62a11.5,11.5,0,0,0-23,0v13.23l-.83-.22v-13A12.34,12.34,0,0,1,306,185.3Z"/><path class="cls-5" d="M306,189a8.63,8.63,0,0,1,8.61,8.61V211.5a48.05,48.05,0,0,1-17.21,0V197.62A8.63,8.63,0,0,1,306,189Z"/><rect class="cls-5" x="299.2" y="198.87" width="0.38" height="3.15" rx="0.18" ry="0.18"/><rect class="cls-5" x="300.19" y="198.87" width="0.38" height="3.15" rx="0.18" ry="0.18"/><rect class="cls-5" x="301.18" y="198.87" width="0.38" height="3.15" rx="0.18" ry="0.18"/><rect class="cls-5" x="302.17" y="198.87" width="0.38" height="3.15" rx="0.18" ry="0.18"/><rect class="cls-5" x="303.16" y="198.87" width="0.38" height="3.15" rx="0.18" ry="0.18"/><rect class="cls-5" x="308.66" y="198.42" width="4.2" height="9.94" rx="2.04" ry="2.04" transform="translate(621.52 406.78) rotate(180)"/><rect class="cls-5" x="311.74" y="202.3" width="0.38" height="3.15" rx="0.18" ry="0.18"/><rect class="cls-5" x="310.57" y="202.3" width="0.38" height="3.15" rx="0.18" ry="0.18"/><circle class="cls-5" cx="306.03" cy="154.1" r="21"/><circle class="cls-5" cx="306.04" cy="154.1" r="18.18"/><circle class="cls-5" cx="306.04" cy="154.1" r="15.89"/><circle class="cls-5" cx="300.86" cy="148.92" r="6.18"/><circle class="cls-5" cx="309.02" cy="153.17" r="1.96"/><circle class="cls-5" cx="306.03" cy="118.6" r="11.97"/><circle class="cls-5" cx="306.04" cy="118.6" r="9.95"/><circle class="cls-5" cx="306.04" cy="118.6" r="8.7"/><circle class="cls-5" cx="303.2" cy="115.76" r="3.38"/><circle class="cls-5" cx="307.67" cy="118.09" r="1.07"/><circle class="cls-5" cx="306.03" cy="193.95" r="3.54"/><circle class="cls-5" cx="306.03" cy="193.95" r="3.07"/><circle class="cls-5" cx="306.03" cy="193.95" r="2.68"/><circle class="cls-5" cx="305.16" cy="193.07" r="1.04"/><circle class="cls-5" cx="306.54" cy="193.79" r="0.33"/><circle class="cls-5" cx="311.5" cy="206.46" r="0.54"/><circle class="cls-5" cx="310.03" cy="206.46" r="0.54"/><g class="cls-6"><path class="cls-5" d="M327.82,84.21c-2.41,4.58-11.82-.49-21.76-.27-9.94-.22-19.35,4.85-21.76.27-2.55-4.37,6.67-15.57,21.76-15.59S330.37,79.83,327.82,84.21Z"/></g><g class="cls-6"><path class="cls-5" d="M322.62,79c-1.83,3-9-.27-16.56-.13-7.56-.15-14.73,3.16-16.56.13s5.08-10.33,16.56-10.34S324.56,76.05,322.62,79Z"/></g><g class="cls-6"><path class="cls-5" d="M314.94,74.28c-1,1.63-4.82,1.2-8.88,1.28-4.06-.08-7.9.35-8.88-1.28s2.72-5.54,8.88-5.55S316,72.73,314.94,74.28Z"/></g><g class="cls-6"><path class="cls-5" d="M311.05,71.86c-.55.92-2.71.68-5,.72s-4.44.19-5-.72,1.53-3.12,5-3.12S311.64,71,311.05,71.86Z"/></g><path class="cls-7" d="M420,117.07s-12.13-2.23-16.84-13.07l-3.31,2.62s2.1,13.27,19.55,19.73A11.41,11.41,0,0,0,420,117.07Z"/><polygon class="cls-8" points="419.25 116.78 413.79 123.8 416.11 125 419.25 116.78"/><path class="cls-9" d="M403.13,104l-2.19-5.22-7-5.18s-1.41,1.19,3.61,4.7l-1.41,1.26.14,3.07,2.87,1.81,1.54,5.55Z"/><path class="cls-10" d="M426.86,105.89a9.36,9.36,0,0,1,4.39,12.46c-.47,1,1.07,2,1.55.9a11.17,11.17,0,0,0-5-14.91c-1-.53-1.93,1-.91,1.55Z"/><path class="cls-11" d="M383.34,146.71v22.13h3.48s6.17-14.48,4.56-21.51S387.5,143,387.5,143Z"/><path class="cls-12" d="M387.5,143l-4.15,3.7v13.4l3.28-12.19,5,2.47a12.78,12.78,0,0,0-.26-3.06C389.78,140.29,387.5,143,387.5,143Z"/><path class="cls-11" d="M410.34,137.31l-17.84-1.72a6.16,6.16,0,0,0-6.48,4.32l-.8,2.58,4.69,2.6"/><path class="cls-13" d="M436.48,120.4l-1.83,11.85a3,3,0,0,1-3.39,2.51l-5.44-.78.86-19.53,6,.87A4.45,4.45,0,0,1,436.48,120.4Z"/><path class="cls-14" d="M431.63,134.77a25.16,25.16,0,0,0-3.18-20.08h0l-1.87,1.79L425.81,134l5.44.78A3,3,0,0,0,431.63,134.77Z"/><path d="M436.87,124a2.66,2.66,0,0,0-3,2.22l-1.45,9.36a3,3,0,0,0,3.05-2.52l1.4-9.06Z"/><path class="cls-15" d="M424.67,142.49s4.67-9.79,5.54-16.06-.44-10.35-3.35-14.14l-6,.87-10.54,24.14,8.06,7.93Z"/><path class="cls-16" d="M424.67,114.91C420.34,116.78,422,122,422,122l2.87,9.19-12.11.49-1.85,4.25a57.11,57.11,0,0,0,15.59,2.31,55.42,55.42,0,0,0,3.68-11.81,18.64,18.64,0,0,0-1-10.08C428.07,114.86,426.57,114.1,424.67,114.91Z"/><polygon class="cls-13" points="428.06 114 419.25 116.78 418 112.96 426.81 110.18 428.06 114"/><path class="cls-14" d="M427.57,112.53l-.77-2.35L418,113l.53,1.63a12.45,12.45,0,0,0,9-2.06Z"/><circle class="cls-10" cx="420.41" cy="105.72" r="9.02"/><path d="M414.75,99.4a7.26,7.26,0,0,0-.83.08,8.55,8.55,0,0,0,2.64,14.37,7.34,7.34,0,0,0-1.81-14.46Z"/><path class="cls-17" d="M413.79,111.91a10.2,10.2,0,0,0,2.74,2,7.48,7.48,0,0,0,4.2-2.9A12,12,0,0,0,413.79,111.91Z"/><path class="cls-10" d="M422.89,145.24l-12.55-7.93h-24a6.91,6.91,0,0,0-6.08,3.63l-15.06,27.9h3.46s16.93-11.95,16.58-22l23.08,4.8S419.29,153.65,422.89,145.24Z"/><path d="M368.2,163.28l5.67,1.36-6.51,9.45-8.94-3.16a14.72,14.72,0,0,1,6.78-2.08Z"/><polygon class="cls-13" points="374.63 164.06 368.2 163.28 371.84 167.59 374.63 164.06"/><rect class="cls-13" x="357.72" y="172.09" width="10.21" height="1.17" rx="0.45" ry="0.45" transform="translate(89.34 -121.72) rotate(21.66)"/><path class="cls-13" d="M380.26,140.94l-2,3.71a7.63,7.63,0,0,0,10.18-7.28s0,0,0-.06h-2.08A6.91,6.91,0,0,0,380.26,140.94Z"/><path d="M383.34,165.56l5.09-.94-2,10.17h-8.19a6.56,6.56,0,0,1,5.09-3.87Z"/><polygon class="cls-13" points="388.54 164.06 383.34 165.56 387.83 167.71 388.54 164.06"/><rect class="cls-13" x="377.68" y="174.2" width="9.27" height="1.17" rx="0.45" ry="0.45"/><polygon class="cls-13" points="410.34 137.31 422.88 145.24 424.67 142.49 410.34 137.31"/><path class="cls-13" d="M421.17,121.62s-1-5.92,3.68-6.39,5.8,4.93,6.23,9.45-.73,12.83-2.92,14a68,68,0,0,1-21.43-6.44l.87-3.33,15.28,2.19Z"/><circle class="cls-18" cx="425.45" cy="119.72" r="3.2"/><circle class="cls-14" cx="425.45" cy="119.72" r="1.99"/><path d="M427.6,134.67A3.57,3.57,0,0,0,424,138c2.56.5,4.12.64,4.12.64.72-.38,1.33-1.55,1.8-3.09A3.55,3.55,0,0,0,427.6,134.67Z"/><circle class="cls-13" cx="422.89" cy="105.69" r="3.78"/><circle class="cls-14" cx="422.89" cy="105.69" r="2.35"/><rect class="cls-19" x="422.1" y="104.49" width="5.5" height="5.5" rx="1.26" ry="1.26"/><circle class="cls-13" cx="426.12" cy="107.31" r="0.32"/><circle class="cls-13" cx="426.12" cy="108.36" r="0.32"/><rect class="cls-13" x="423.18" y="105.4" width="0.34" height="3.67" rx="0.13" ry="0.13"/><circle class="cls-13" cx="424.46" cy="105.89" r="0.49"/><circle class="cls-13" cx="425.94" cy="105.89" r="0.49"/><polyline class="cls-20" points="391.44 126.31 402.73 66.35 439.96 99.4 410.23 129.29"/><path class="cls-21" d="M405,128.33h0a.41.41,0,0,1-.48.32l-12.63-2.45a.41.41,0,0,1-.32-.48h0a.41.41,0,0,1,.48-.32l12.63,2.45A.41.41,0,0,1,405,128.33Z"/><path class="cls-22" d="M404.55,128.44h0a.41.41,0,0,1-.48.32l-12.63-2.45a.41.41,0,0,1-.32-.48h0a.41.41,0,0,1,.48-.32L404.23,128A.41.41,0,0,1,404.55,128.44Z"/><path class="cls-10" d="M408,128.93a5.68,5.68,0,0,1-1.7-1.23c-.62-.79-3.86-3.57-4.5-1.83-.1.26.12.77.81,1.07a2.67,2.67,0,0,1,1.46,1.73l-6.8-1.27a6.46,6.46,0,0,0,1.47,1.71,5.39,5.39,0,0,0,1.29,1.6c.69.48,1.39,1.82,2.33,2s3.6.73,5.22-.17A4.07,4.07,0,0,0,408,128.93Z"/><polyline class="cls-10" points="407.98 128.93 413.49 129.75 409.77 133.61 406.06 131.99"/><rect class="cls-5" x="353.28" y="56.93" width="37.34" height="53.35" rx="6" ry="6"/><polygon class="cls-5" points="371.85 109.74 371.85 116.31 378.45 109.72 371.85 109.74"/><path class="cls-5" d="M371.7,95.37H365a.25.25,0,0,1-.25-.25h0a.25.25,0,0,1,.25-.25h6.69a.25.25,0,0,1,.25.25h0A.25.25,0,0,1,371.7,95.37Z"/><path class="cls-5" d="M371.7,97.32H365a.25.25,0,0,1-.25-.25h0a.25.25,0,0,1,.25-.25h6.69a.25.25,0,0,1,.25.25h0A.25.25,0,0,1,371.7,97.32Z"/><path class="cls-5" d="M371.7,99.28H365a.25.25,0,0,1-.25-.25h0a.25.25,0,0,1,.25-.25h6.69A.25.25,0,0,1,372,99h0A.25.25,0,0,1,371.7,99.28Z"/><path class="cls-5" d="M371.7,101.23H365a.25.25,0,0,1-.25-.25h0a.25.25,0,0,1,.25-.25h6.69a.25.25,0,0,1,.25.25h0A.25.25,0,0,1,371.7,101.23Z"/><path class="cls-5" d="M371.7,103.19H365a.25.25,0,0,1-.25-.25h0a.25.25,0,0,1,.25-.25h6.69a.25.25,0,0,1,.25.25h0A.25.25,0,0,1,371.7,103.19Z"/><path class="cls-5" d="M371.7,105.14H365a.25.25,0,0,1-.25-.25h0a.25.25,0,0,1,.25-.25h6.69a.25.25,0,0,1,.25.25h0A.25.25,0,0,1,371.7,105.14Z"/><path class="cls-5" d="M371.7,107.1H365a.25.25,0,0,1-.25-.25h0a.25.25,0,0,1,.25-.25h6.69a.25.25,0,0,1,.25.25h0A.25.25,0,0,1,371.7,107.1Z"/><path class="cls-5" d="M375.69,62.42H357.87a.77.77,0,0,1-.77-.77h0a.77.77,0,0,1,.77-.77h17.82a.77.77,0,0,1,.77.77h0A.77.77,0,0,1,375.69,62.42Z"/><path class="cls-5" d="M375.69,66.52H357.87a.77.77,0,0,1-.77-.77h0a.77.77,0,0,1,.77-.77h17.82a.77.77,0,0,1,.77.77h0A.77.77,0,0,1,375.69,66.52Z"/><path class="cls-5" d="M375.69,70.63H357.87a.77.77,0,0,1-.77-.77h0a.77.77,0,0,1,.77-.77h17.82a.77.77,0,0,1,.77.77h0A.77.77,0,0,1,375.69,70.63Z"/><path class="cls-5" d="M385.83,74.73h-28a.77.77,0,0,1-.77-.77h0a.77.77,0,0,1,.77-.77h28a.77.77,0,0,1,.77.77h0A.77.77,0,0,1,385.83,74.73Z"/><path class="cls-5" d="M385.83,79h-28a.77.77,0,0,1-.77-.77h0a.77.77,0,0,1,.77-.77h28a.77.77,0,0,1,.77.77h0A.77.77,0,0,1,385.83,79Z"/><path class="cls-5" d="M385.83,83.21h-28a.77.77,0,0,1-.77-.77h0a.77.77,0,0,1,.77-.77h28a.77.77,0,0,1,.77.77h0A.77.77,0,0,1,385.83,83.21Z"/><path class="cls-5" d="M385.83,87.45h-28a.77.77,0,0,1-.77-.77h0a.77.77,0,0,1,.77-.77h28a.77.77,0,0,1,.77.77h0A.77.77,0,0,1,385.83,87.45Z"/><path class="cls-5" d="M385.83,91.69h-28a.77.77,0,0,1-.77-.77h0a.77.77,0,0,1,.77-.77h28a.77.77,0,0,1,.77.77h0A.77.77,0,0,1,385.83,91.69Z"/><rect class="cls-5" x="335.03" y="77.71" width="20.5" height="27.61" rx="3.66" ry="3.66"/><polygon class="cls-5" points="351.75 104.65 351.75 108.21 348.18 104.63 351.75 104.65"/><rect class="cls-5" x="346.32" y="81.67" width="1.92" height="20.49"/><rect class="cls-5" x="358.88" y="81.67" width="0.96" height="20.49"/><rect class="cls-5" x="353.72" y="81.67" width="3.38" height="20.49"/><rect class="cls-5" x="350.25" y="96.83" width="1.92" height="5.33"/><circle class="cls-5" cx="380.06" cy="100.7" r="6.54"/><path class="cls-5" d="M386.6,100.7a6.54,6.54,0,0,0-6.54-6.54v13.08A6.54,6.54,0,0,0,386.6,100.7Z"/><path class="cls-5" d="M386.53,100a6.52,6.52,0,0,0-6.47-5.81V100Z"/><g class="cls-23"><path class="cls-24" d="M223.63,267a2.59,2.59,0,1,0,2.59-2.59A2.59,2.59,0,0,0,223.63,267Zm155.82,28.34a1.49,1.49,0,1,0-1.49-1.49A1.49,1.49,0,0,0,379.45,295.35ZM371,303.42a5.16,5.16,0,0,0,2.55-9.66,2.6,2.6,0,1,0-2.9-.66,5.17,5.17,0,0,0,.35,10.32Zm-148.34-41a5.18,5.18,0,1,0-5.18-5.18A5.18,5.18,0,0,0,222.69,262.45Zm3.47,24.23a2.59,2.59,0,1,0,2.59,2.59A2.59,2.59,0,0,0,226.16,286.69ZM381.3,321.56a8.49,8.49,0,0,0-16.94-.8,20.15,20.15,0,0,0-24.51,3.74,39.71,39.71,0,0,0-19.46-16.32V247.48s-4.43,4.46-14.6,4.22-14.12-4.22-14.12-4.22v60.71a39.66,39.66,0,0,0-16.44,12,24.6,24.6,0,1,0-7.46,35,39.58,39.58,0,0,0,76.37.5A20.18,20.18,0,0,0,372.89,330,8.49,8.49,0,0,0,381.3,321.56ZM221.62,295.13h0a10.32,10.32,0,0,0-3.16-6.2,10.35,10.35,0,0,0-2-20.34,10.47,10.47,0,0,0,.07-1.15,10.36,10.36,0,1,0-11,10.33,10.47,10.47,0,0,0-.07,1.15,10.32,10.32,0,0,0,3.26,7.53,10.35,10.35,0,0,0,2.62,20.37h0a10.36,10.36,0,1,0,10.27-11.68Z"/><path class="cls-25" d="M236,309.36a12.9,12.9,0,0,0-2.14.19,5.9,5.9,0,1,0-7.54,4.21,12.86,12.86,0,1,0,9.68-4.4Zm102,12.45a35.65,35.65,0,0,0-29.34,15.37A20.39,20.39,0,0,0,278,342.5a12.88,12.88,0,1,0-2.83,10.66A20.39,20.39,0,0,0,304.92,371,35.7,35.7,0,1,0,338,321.81Z"/></g><path class="cls-26" d="M193.57,262.94l.08,28.48s-5.23,10.16-3.72,31.71l3.65,0L203.09,289V274.61l-4-9.21Z"/><path class="cls-27" d="M209.84,262.94,210,323l-4.29.1s-6-18.19-3.84-30.09l-8.29-30.09Z"/><path class="cls-13" d="M218.58,230.47s-4.94,7.14-12.42,7l-3.07-6.23s7.86,3.26,12.87-3.41Z"/><path class="cls-28" d="M205.82,236.78a8.33,8.33,0,0,0,1.8.63,12.43,12.43,0,0,0,3.11-.77,34.92,34.92,0,0,0-4-4.62l-1.59,3.42Z"/><rect class="cls-28" x="216.96" y="226.54" width="2.12" height="3.72" transform="translate(533.68 235.75) rotate(135)"/><path class="cls-29" d="M202.16,226.62l1.9.39a.94.94,0,0,1,.75.92v2.26Z"/><polygon class="cls-9" points="206.29 218.95 206.29 220.32 204.86 220.48 204.22 218.98 206.29 218.95"/><path class="cls-30" d="M202.73,225.36v-2.3a6.94,6.94,0,0,0,3.56-.64v-2.1a1.52,1.52,0,0,1-1.67-1.14l1.67-.23-.28-1.1,1.2-.69-1.92-3.27-.17-1.93-1.21.83-.55,3.52-.64-1.38s-1.14-.62-1.56.5a1.5,1.5,0,0,0,1.56,2l-1.88,2.72-4.2,1.3v3.88Z"/><path d="M202.73,214.93l.64,1.75.55-3.9s3.74-.28,3.74-3.3l-1.3.07a3.86,3.86,0,0,0-.9-4.38l-1.26,1.34a2.89,2.89,0,0,0-2.87-2.8l-.57,1.85s-6.61.16-7.34,5h0s-3.64,6.73,3.23,10.94v.86l1.18-.86,3.56-1,1.34-3a1.65,1.65,0,0,1-1.62-1.39A1.09,1.09,0,0,1,202.73,214.93Z"/><polygon class="cls-31" points="205.3 213.88 206.02 217.84 207.22 217.15 205.3 213.88"/><path class="cls-32" d="M209.84,262.94s-5.25,4.94-16.28,2.79v-4.42l10.4-.4Z"/><path class="cls-29" d="M204.81,229.94s6.45,4.56,3.6,15.63a47.89,47.89,0,0,1-3.1-13.29"/><path class="cls-7" d="M209.84,262.94a28.69,28.69,0,0,1-16.28,0V236.19s.12-7.87,2.8-11.21l6.72,2.36a31.83,31.83,0,0,1,5.76,13.56C209.85,248.37,209.84,262.94,209.84,262.94Z"/><path class="cls-28" d="M197.16,239.73s2.74,10.61,12.52,13.51l-.15-5.27-5.3-6.52-2.52-2"/><polygon class="cls-13" points="196.37 224.98 196.37 223.16 203.09 224.98 203.69 228.18 196.37 224.98"/><polygon class="cls-33" points="205.69 323.04 205.69 326.24 219.01 326.24 209.98 323.04 205.69 323.04"/><polygon class="cls-33" points="189.88 323.17 189.88 326.11 202.1 326.11 193.82 323.17 189.88 323.17"/><path class="cls-34" d="M230.35,240l11.18-9a1.2,1.2,0,0,0-.1-1.94l-13-8.43a2,2,0,0,0-2.32.11l-10.82,8.61a.69.69,0,0,0,0,1.1l13.12,9.64A1.54,1.54,0,0,0,230.35,240Z"/><path class="cls-26" d="M230,238.33l10.33-7.78a.63.63,0,0,0-.05-1l-12.14-8.06a1.32,1.32,0,0,0-1.54.07l-9.76,7.77a.37.37,0,0,0,0,.59l11.53,8.47A1.33,1.33,0,0,0,230,238.33Z"/><path class="cls-13" d="M240.38,229.61s0-.06-.08-.08l-.26-.17-3.53.74-.08,0L235.22,233l-2.64-2.35,4.72-3.08-.29-.19L231.37,231l-3.05,0-2.65-4,8.39-1.7-.38-.25-8.2,1.67-.28-.41,1.43-2.07-1.61-1.5-.25.2,1.44,1.34-1.4,2,.32.49-6.28,1.27-.24-.22-.25.2.34.31.06.05,6.57-1.33,2.6,3.9-2.16,0-4-3L218,230.7l.27.2,3.5-2.4,3.92,2.9,2.47,0,2,3-2.12.87-5-2.51,0,0-1.9.27.37.27,1.48-.21,4.68,2.36-.5.21-3.56-.82.66.48,2.88.67h.05l.86-.35,3.32,1.68.29-.22-3.22-1.62,2.23-.91-2.13-3.2,2.89,0h0l.83-.54,2.79,2.48-.79,1.85.52-.39.53-1.24.51.45.26-.2-.64-.57,1.2-2.79Z"/><polygon class="cls-13" points="228.38 221.61 226.52 221.62 226.11 221.95 228.86 221.92 228.38 221.61"/><path class="cls-35" d="M234.55,228.28a2.14,2.14,0,0,1-2.61.49c-1-.45-1.37-1.39-.89-2.1a2.14,2.14,0,0,1,2.61-.49C234.62,226.62,235,227.57,234.55,228.28Z"/><path class="cls-36" d="M233.59,227.84a1,1,0,0,1-1.19.22c-.44-.2-.62-.63-.41-1a1,1,0,0,1,1.19-.22C233.62,227.09,233.8,227.51,233.59,227.84Z"/><path class="cls-13" d="M197.16,239.73s-.79-7.07,4.91-10.91c0,0,5.73,12,12.95,13.56s16.31-4.91,16.31-4.91l2.3,3.27s-10.13,8.58-19.12,9.24C202.48,250.87,197.16,239.73,197.16,239.73Z"/><path class="cls-30" d="M232,237.41a4.89,4.89,0,0,0,.87-1.58c.19-.85,1.62-4,2.84-2.93.18.16.18.49-.25,1a2.3,2.3,0,0,0-.5,1.88l4.83-3.49a5.56,5.56,0,0,1-.52,1.87,4.65,4.65,0,0,1-.42,1.72c-.36.62-.42,1.93-1.09,2.4s-2.54,1.89-4.13,1.79A3.5,3.5,0,0,1,232,237.41Z"/><rect class="cls-28" x="231.25" y="237.17" width="2.12" height="4.21" transform="translate(559.48 303.93) rotate(145.33)"/><path class="cls-30" d="M217.45,226.34a6.71,6.71,0,0,1,2.22-2.16A27,27,0,0,1,224,222.4l-2.82,2.25a2.92,2.92,0,0,0,2-.59c.76-.54,1.17,0,1,.34a6,6,0,0,1-5.37,2.12l-.69.55Z"/><path class="cls-5" d="M232.33,184.26h-15a5.36,5.36,0,0,0-5.36,5.36v25a5.36,5.36,0,0,0,5.36,5.36h9.27l6.22,5.78V220a5.36,5.36,0,0,0,4.85-5.34v-25A5.36,5.36,0,0,0,232.33,184.26Z"/><path class="cls-5" d="M234.18,189.76H215.44a.38.38,0,0,1-.37-.37h0a.38.38,0,0,1,.37-.37h18.74a.38.38,0,0,1,.37.37h0A.38.38,0,0,1,234.18,189.76Z"/><path class="cls-5" d="M234.18,192.25H215.44a.38.38,0,0,1-.37-.37h0a.38.38,0,0,1,.37-.37h18.74a.38.38,0,0,1,.37.37h0A.38.38,0,0,1,234.18,192.25Z"/><path class="cls-5" d="M234.18,194.74H215.44a.38.38,0,0,1-.37-.37h0a.38.38,0,0,1,.37-.37h18.74a.38.38,0,0,1,.37.37h0A.38.38,0,0,1,234.18,194.74Z"/><path class="cls-5" d="M234.18,197.24H215.44a.38.38,0,0,1-.37-.37h0a.38.38,0,0,1,.37-.37h18.74a.38.38,0,0,1,.37.37h0A.38.38,0,0,1,234.18,197.24Z"/><path class="cls-5" d="M234.18,199.73H215.44a.38.38,0,0,1-.37-.37h0a.38.38,0,0,1,.37-.37h18.74a.38.38,0,0,1,.37.37h0A.38.38,0,0,1,234.18,199.73Z"/><path class="cls-5" d="M222.24,203.08h-6.43a.74.74,0,0,1-.74-.74h0a.74.74,0,0,1,.74-.74h6.43a.74.74,0,0,1,.74.74h0A.74.74,0,0,1,222.24,203.08Z"/><path class="cls-5" d="M222.24,205.7h-6.43a.75.75,0,0,1-.74-.74h0a.74.74,0,0,1,.74-.74h6.43a.74.74,0,0,1,.74.74h0A.75.75,0,0,1,222.24,205.7Z"/><path class="cls-5" d="M228.66,209.13H215.81a.74.74,0,0,1-.74-.74h0a.74.74,0,0,1,.74-.74h12.85a.74.74,0,0,1,.74.74h0A.74.74,0,0,1,228.66,209.13Z"/><path class="cls-5" d="M228.66,212.83H215.81a.74.74,0,0,1-.74-.74h0a.74.74,0,0,1,.74-.74h12.85a.74.74,0,0,1,.74.74h0A.74.74,0,0,1,228.66,212.83Z"/><path class="cls-5" d="M233.81,205.7h-7.18a.75.75,0,0,1-.74-.74h0a.74.74,0,0,1,.74-.74h7.18a.74.74,0,0,1,.74.74h0A.75.75,0,0,1,233.81,205.7Z"/><path class="cls-5" d="M233.81,215.65h-7.18a.75.75,0,0,1-.74-.74h0a.74.74,0,0,1,.74-.74h7.18a.74.74,0,0,1,.74.74h0A.74.74,0,0,1,233.81,215.65Z"/><path class="cls-5" d="M230.09,203.08H227a.75.75,0,0,1-.74-.74h0a.74.74,0,0,1,.74-.74h3.13a.74.74,0,0,1,.74.74h0A.74.74,0,0,1,230.09,203.08Z"/><path class="cls-5" d="M233.76,203.08h-1.19a.74.74,0,0,1-.74-.74h0a.74.74,0,0,1,.74-.74h1.19a.75.75,0,0,1,.74.74h0A.75.75,0,0,1,233.76,203.08Z"/></g></g></g></svg>