<svg xmlns="http://www.w3.org/2000/svg" viewBox="0 0 136.24 92.77"><defs><style>.cls-1{fill:none;stroke:#0037ff;stroke-linecap:round;stroke-linejoin:round;}</style></defs><title>lendingi</title><g id="Слой_2" data-name="Слой 2"><g id="Designed_by_Freepik" data-name="Designed by Freepik"><rect class="cls-1" x="3.06" y="2.23" width="132.59" height="89.9" rx="3.06" ry="3.06" transform="translate(-0.1 0.14) rotate(-0.12)"/><rect class="cls-1" x="0.59" y="0.63" width="132.59" height="89.9" rx="3.06" ry="3.06" transform="translate(-0.09 0.14) rotate(-0.12)"/><path class="cls-1" d="M129.83.5,3.88.76A3.33,3.33,0,0,0,.57,4.09V7l132.59-.27V3.82A3.33,3.33,0,0,0,129.83.5Z"/><rect class="cls-1" x="0.62" y="0.63" width="132.59" height="89.9" rx="3.06" ry="3.06" transform="translate(-0.09 0.14) rotate(-0.12)"/><rect class="cls-1" x="4.02" y="81.8" width="17.01" height="2.49" rx="1.24" ry="1.24" transform="translate(-0.17 0.03) rotate(-0.12)"/><circle class="cls-1" cx="6.77" cy="3.81" r="1.07" transform="translate(-0.01 0.01) rotate(-0.12)"/><circle class="cls-1" cx="11.3" cy="3.8" r="1.07" transform="translate(-0.01 0.02) rotate(-0.12)"/><circle class="cls-1" cx="15.84" cy="3.79" r="1.07" transform="translate(-0.01 0.03) rotate(-0.12)"/><rect class="cls-1" x="4.66" y="28.9" width="14.88" height="1.23" rx="0.61" ry="0.61" transform="translate(-0.06 0.03) rotate(-0.12)"/><rect class="cls-1" x="4.67" y="31.52" width="14.88" height="1.23" rx="0.61" ry="0.61" transform="translate(-0.07 0.03) rotate(-0.12)"/><rect class="cls-1" x="4.12" y="9.09" width="125.13" height="78.05" rx="3.28" ry="3.28"/><polyline class="cls-1" points="28.71 32.77 7.05 57.24 125.14 57.24 95.09 18.49 52.32 50.06 28.71 32.77"/><ellipse class="cls-1" cx="47.67" cy="24.65" rx="9.23" ry="8.98"/><rect class="cls-1" x="10.23" y="18.49" width="21.74" height="2.18" rx="1.09" ry="1.09"/><rect class="cls-1" x="46.56" y="72.72" width="40.23" height="8.08" rx="4.04" ry="4.04"/><rect class="cls-1" x="10.23" y="23.01" width="14.7" height="2.18" rx="1.09" ry="1.09"/><rect class="cls-1" x="10.23" y="27.26" width="14.7" height="2.18" rx="1.09" ry="1.09"/></g></g></svg>