<svg xmlns="http://www.w3.org/2000/svg" viewBox="0 0 194.73 194.73"><defs><style>.cls-1{fill:#ed0f0f;opacity:0.1;}.cls-2{fill:none;stroke:#0037ff;stroke-linecap:round;stroke-linejoin:round;}</style></defs><title>lendingi_1</title><g id="Слой_2" data-name="Слой 2"><g id="Designed_by_Freepik" data-name="Designed by Freepik"><circle class="cls-1" cx="97.36" cy="97.36" r="97.36"/><rect class="cls-2" x="32.3" y="53.21" width="132.59" height="89.9" rx="3.06" ry="3.06" transform="translate(-0.2 0.2) rotate(-0.12)"/><rect class="cls-2" x="29.83" y="51.61" width="132.59" height="89.9" rx="3.06" ry="3.06" transform="translate(-0.2 0.2) rotate(-0.12)"/><path class="cls-2" d="M159.07,51.48l-125.94.26a3.33,3.33,0,0,0-3.32,3.33V58l132.59-.27V54.8A3.33,3.33,0,0,0,159.07,51.48Z"/><rect class="cls-2" x="29.86" y="51.61" width="132.59" height="89.9" rx="3.06" ry="3.06" transform="translate(-0.2 0.2) rotate(-0.12)"/><rect class="cls-2" x="33.26" y="132.78" width="17.01" height="2.49" rx="1.24" ry="1.24" transform="translate(-0.28 0.09) rotate(-0.12)"/><circle class="cls-2" cx="36.01" cy="54.79" r="1.07" transform="translate(-0.11 0.07) rotate(-0.12)"/><circle class="cls-2" cx="40.54" cy="54.78" r="1.07" transform="translate(-0.11 0.08) rotate(-0.12)"/><circle class="cls-2" cx="45.08" cy="54.77" r="1.07" transform="translate(-0.11 0.09) rotate(-0.12)"/><rect class="cls-2" x="33.9" y="79.88" width="14.88" height="1.23" rx="0.61" ry="0.61" transform="translate(-0.17 0.09) rotate(-0.12)"/><rect class="cls-2" x="33.91" y="82.5" width="14.88" height="1.23" rx="0.61" ry="0.61" transform="translate(-0.17 0.09) rotate(-0.12)"/><rect class="cls-2" x="33.36" y="60.08" width="125.13" height="78.05" rx="3.28" ry="3.28"/><polyline class="cls-2" points="57.95 83.75 36.29 108.22 154.38 108.22 124.34 69.47 81.57 101.04 57.95 83.75"/><ellipse class="cls-2" cx="76.91" cy="75.63" rx="9.23" ry="8.98"/><rect class="cls-2" x="39.47" y="69.47" width="21.74" height="2.18" rx="1.09" ry="1.09"/><rect class="cls-2" x="75.81" y="123.7" width="40.23" height="8.08" rx="4.04" ry="4.04"/><rect class="cls-2" x="39.47" y="73.99" width="14.7" height="2.18" rx="1.09" ry="1.09"/><rect class="cls-2" x="39.47" y="78.24" width="14.7" height="2.18" rx="1.09" ry="1.09"/></g></g></svg>