<svg xmlns="http://www.w3.org/2000/svg" viewBox="0 0 25.51 25.51"><defs><style>.cls-1{fill:#e21d29;}</style></defs><title>log-scroll-separatly</title><g id="Слой_2" data-name="Слой 2"><g id="Слой_1-2" data-name="Слой 1"><path class="cls-1" d="M12.75,0A12.75,12.75,0,1,0,25.51,12.75,12.75,12.75,0,0,0,12.75,0ZM19.1,23a4.3,4.3,0,0,1-.95.46,15.72,15.72,0,0,0-2.34-.82L8,20.35a13.94,13.94,0,0,1-5.27-2.75,6.08,6.08,0,0,1-2-4.82,6.31,6.31,0,0,1,.66-2.92,5.77,5.77,0,0,0,1.38,1.79A13.94,13.94,0,0,0,8,14.41l7.8,2.29a9.8,9.8,0,0,1,3.75,1.67,2.94,2.94,0,0,1,1.06,2.28A2.85,2.85,0,0,1,19.1,23ZM17.26,11,9.43,8.7Q4.89,7.4,4.89,4.85A2.47,2.47,0,0,1,6.2,2.76a4.68,4.68,0,0,1,1.57-.59,13.83,13.83,0,0,0,1.66.58L17.26,5q7.57,2.2,7.56,7.57a7,7,0,0,1-.66,3.06Q22.59,12.54,17.26,11Z"/></g></g></svg>