<?xml version="1.0" encoding="utf-8"?>
<!-- Generator: Adobe Illustrator 21.0.0, SVG Export Plug-In . SVG Version: 6.00 Build 0)  -->
<svg version="1.1" id="Слой_1" xmlns="http://www.w3.org/2000/svg" xmlns:xlink="http://www.w3.org/1999/xlink" x="0px" y="0px"
	 viewBox="0 0 276.8 262" style="enable-background:new 0 0 276.8 262;" xml:space="preserve">
<style type="text/css">
	.st0{opacity:0.1;fill:#ED0F0F;enable-background:new    ;}
	.st1{fill:none;stroke:#0037FF;stroke-linecap:round;stroke-linejoin:round;}
	.st2{opacity:0.4;fill:none;stroke:#0037FF;stroke-linecap:round;stroke-linejoin:round;enable-background:new    ;}
	.st3{opacity:0.6;fill:none;stroke:#0037FF;stroke-linecap:round;stroke-linejoin:round;enable-background:new    ;}
	.st4{opacity:0.5;fill:none;stroke:#0037FF;stroke-linecap:round;stroke-linejoin:round;enable-background:new    ;}
	.st5{opacity:0.6;}
	.st6{fill:url(#SVGID_1_);}
	.st7{fill:url(#SVGID_2_);}
	.st8{fill:#4E11F4;}
	.st9{fill:#FFAF84;}
	.st10{fill:url(#SVGID_3_);}
	.st11{fill:url(#SVGID_4_);}
	.st12{fill:url(#SVGID_5_);}
	.st13{fill:url(#SVGID_6_);}
	.st14{fill:url(#SVGID_7_);}
	.st15{fill:url(#SVGID_8_);}
	.st16{fill:url(#SVGID_9_);}
	.st17{fill:url(#SVGID_10_);}
	.st18{fill:url(#SVGID_11_);}
	.st19{fill:url(#SVGID_12_);}
	.st20{fill:url(#SVGID_15_);}
	.st21{fill:url(#SVGID_16_);}
	.st22{fill:#541968;}
	.st23{fill:url(#SVGID_17_);}
	.st24{fill:url(#SVGID_18_);}
	.st25{fill:url(#SVGID_19_);}
	.st26{fill:url(#SVGID_20_);}
	.st27{fill:url(#SVGID_21_);}
	.st28{fill:url(#SVGID_22_);}
	.st29{fill:url(#SVGID_23_);}
	.st30{fill:url(#SVGID_24_);}
	.st31{fill:url(#SVGID_25_);}
	.st32{fill:url(#SVGID_26_);}
</style>
<title>main-slide6</title>
<g>
	<g id="Слой_2">
		<g id="Designed_by_Freepik">
			<circle class="st0" cx="131" cy="131" r="131"/>
			<polygon class="st1" points="261.2,91.9 261.2,182.8 134.1,182.8 134.1,100 			"/>
			<polygon class="st2" points="167.2,151.9 194.3,151.3 194.3,114.1 167.2,115.5 			"/>
			<polygon class="st3" points="171.1,138.6 139.5,139.6 139.5,106 171.1,104.1 			"/>
			<path class="st1" d="M165.1,121.7c0,5.9-4.5,10.9-10,11.1s-9.8-4.4-9.8-10.2s4.4-10.8,9.8-11.1S165.1,115.8,165.1,121.7z"/>
			<path class="st1" d="M162.6,121.8c0,2.6-1.1,5-3.1,6.7c-0.6,0.5-1.2,0.8-1.8,1.1c-0.3,0.1-0.6,0.2-0.9,0.3l-0.6,0.1
				c-0.4,0.1-0.8,0.1-1.2,0.1c-0.7,0-1.5-0.1-2.2-0.3c-3.2-1.1-5.3-4.1-5.2-7.5c0-1.2,0.3-2.4,0.7-3.5c0.6-1.3,1.5-2.5,2.6-3.3
				c0.3-0.2,0.5-0.4,0.8-0.6c0.6-0.4,1.3-0.6,1.9-0.8c3.6-0.9,7.2,1.1,8.4,4.6C162.5,119.8,162.7,120.8,162.6,121.8z"/>
			<path class="st1" d="M155.1,123.1c-0.5,0-0.9-0.4-0.9-0.9V117c0-0.5,0.4-0.9,0.9-0.9c0.5,0,0.9,0.4,0.9,0.9c0,0,0,0,0,0v5.2
				C156,122.7,155.6,123.1,155.1,123.1z"/>
			<path class="st1" d="M155.1,123.1c-0.5,0-0.9-0.4-0.9-0.9c0-0.3,0.1-0.6,0.4-0.7l2.5-1.8c0.4-0.3,1-0.2,1.3,0.2
				c0.3,0.4,0.2,1-0.2,1.3l0,0l-2.5,1.8C155.5,123,155.3,123.1,155.1,123.1z"/>
			<polygon class="st4" points="257.3,177 131.1,177.5 131.1,95.7 257.3,87.3 			"/>
			<path class="st1" d="M181.9,136.3c-3.3,1.5-7.1,0.8-9.6-1.8c-1.2-1.3-2-2.9-2.4-4.6l4.3-1.2c0.4,2.3,2.6,3.9,5,3.5
				c0.4-0.1,0.7-0.2,1-0.3L181.9,136.3z"/>
			<path class="st1" d="M184.9,134.1l-0.2,0.2l-3.1-3.3c0.9-1,1.4-2.2,1.4-3.6c0.1-2.4-1.8-4.5-4.2-4.6c-0.1,0-0.2,0-0.3,0
				c-1.8,0.1-3.3,1.2-4,2.8l-4-1.9c0.4-0.9,1-1.8,1.7-2.6c3.1-3.6,8.5-4.1,12.1-1.1c0.2,0.2,0.4,0.3,0.5,0.5
				C188.4,124.4,188.4,130.3,184.9,134.1z"/>
			<path class="st1" d="M174.1,127.8c0,0.3,0,0.7,0.1,1l-4.3,1.2c-0.4-2.1-0.2-4.3,0.7-6.2l4,1.9
				C174.3,126.3,174.1,127.1,174.1,127.8z"/>
			<path class="st1" d="M184.7,134.3c-0.8,0.8-1.8,1.5-2.8,2l-1.7-4.3c0.5-0.2,1-0.6,1.4-1L184.7,134.3z"/>
			<polygon class="st1" points="186.8,138.7 186.8,137.8 185,137.8 185,138.8 			"/>
			<polygon class="st1" points="189.9,138.6 189.9,137.7 188.1,137.7 188.1,138.7 			"/>
			<polygon class="st1" points="193,138.5 193,137.6 191.3,137.6 191.3,138.6 			"/>
			<path class="st1" d="M191.8,121.2c-0.6-0.2-1.3,0-1.7,0.4c-0.2,0.2-0.4,0.5-0.4,0.8l0.8,0.1c0.1-0.4,0.4-0.7,0.8-0.7
				c0.1,0,0.2,0,0.3,0L191.8,121.2z"/>
			<path class="st1" d="M192.4,121.6L192.4,121.6l-0.6,0.6c0.2,0.2,0.3,0.4,0.3,0.6c0,0.5-0.3,0.8-0.8,0.9c-0.3,0-0.6-0.2-0.7-0.4
				l-0.7,0.4c0.4,0.8,1.3,1.1,2,0.7c0.2-0.1,0.4-0.2,0.5-0.4C193,123.3,193,122.3,192.4,121.6z"/>
			<path class="st1" d="M190.4,122.9c0-0.1,0-0.1,0-0.2l-0.8-0.1c-0.1,0.4,0,0.8,0.1,1.1l0.7-0.4C190.4,123.1,190.4,123,190.4,122.9
				z"/>
			<path class="st1" d="M192.3,121.5c-0.1-0.1-0.3-0.2-0.5-0.3l-0.3,0.8c0.1,0,0.2,0.1,0.3,0.2L192.3,121.5z"/>
			<path class="st1" d="M189.8,133.8c0.2,0.6,0.8,1,1.5,1c0.3,0,0.6-0.1,0.9-0.3l-0.4-0.7c-0.3,0.2-0.7,0.2-1-0.1
				c-0.1-0.1-0.1-0.2-0.2-0.3L189.8,133.8z"/>
			<path class="st1" d="M189.6,133.1C189.6,133.1,189.6,133.1,189.6,133.1h0.8c0-0.2,0.1-0.5,0.2-0.6c0.3-0.3,0.8-0.3,1.1,0
				c0,0,0,0,0,0c0.2,0.2,0.3,0.6,0.2,0.9l0.8,0.2c0.1-0.2,0.1-0.4,0.1-0.6c0-0.9-0.7-1.6-1.5-1.6c0,0-0.1,0-0.1,0
				C190.3,131.4,189.6,132.2,189.6,133.1z"/>
			<path class="st1" d="M191.8,133.6l-0.1,0.1l0.4,0.7c0.3-0.2,0.5-0.5,0.6-0.9l-0.8-0.2C191.9,133.4,191.9,133.5,191.8,133.6z"/>
			<path class="st1" d="M189.6,133.1c0,0.2,0,0.4,0.1,0.6l0.7-0.4c0-0.1-0.1-0.2-0.1-0.3L189.6,133.1z"/>
			<path class="st1" d="M191.9,129.5c0.6-0.3,1-0.9,1-1.6c0-0.3-0.1-0.6-0.3-0.9l-0.7,0.5c0.2,0.3,0.2,0.8-0.1,1.1
				c-0.1,0.1-0.2,0.1-0.3,0.2L191.9,129.5z"/>
			<path class="st1" d="M191.2,129.6L191.2,129.6l0.1-0.8c-0.2,0-0.4-0.1-0.6-0.2c-0.3-0.3-0.3-0.9,0-1.2c0.2-0.2,0.5-0.3,0.8-0.2
				l0.3-0.8c-0.2-0.1-0.3-0.1-0.5-0.1c-0.9,0.1-1.6,0.8-1.6,1.8C189.6,128.9,190.3,129.6,191.2,129.6
				C191.2,129.6,191.2,129.6,191.2,129.6z"/>
			<path class="st1" d="M191.8,127.3c0,0,0.1,0.1,0.1,0.1l0.7-0.5c-0.2-0.3-0.5-0.5-0.8-0.7l-0.3,0.8
				C191.6,127.2,191.7,127.2,191.8,127.3z"/>
			<path class="st1" d="M191.3,129.6c0.2,0,0.4-0.1,0.6-0.2l-0.3-0.8c-0.1,0-0.2,0.1-0.3,0.1L191.3,129.6z"/>
			<polygon class="st1" points="261.2,91.9 134.1,100 134.1,88.1 261.2,78.8 			"/>
			<polygon class="st1" points="258.6,89.4 136.2,97.4 136.2,93.4 258.6,85 			"/>
			<polygon class="st1" points="138.1,92 136.2,92.1 136.2,90 138.1,89.9 			"/>
			<polygon class="st1" points="141.4,91.7 139.5,91.9 139.5,89.8 141.4,89.7 			"/>
			<polygon class="st1" points="144.8,91.5 142.9,91.6 142.9,89.6 144.8,89.4 			"/>
			<polygon class="st4" points="190.4,169.8 252.7,169.3 252.7,97.2 190.4,100.9 			"/>
			<path class="st1" d="M198.7,116.5c-0.4,0-0.8-0.2-1.1-0.4c-0.3-0.3-0.5-0.8-0.5-1.3v-9.4c0-1,0.7-1.8,1.7-1.8l55.5-3.2
				c1-0.1,1.8,0.7,1.8,1.6c0,0,0,0.1,0,0.1v9.8c0,1-0.8,1.8-1.8,1.9L198.7,116.5L198.7,116.5z M254.4,101.1L254.4,101.1l-55.6,3.2
				c-0.5,0-0.9,0.5-0.9,1v9.4c0,0.2,0.1,0.5,0.3,0.7c0.2,0.1,0.4,0.2,0.6,0.2l55.5-2.7c0.6,0,1-0.5,1-1.1V102c0-0.3-0.1-0.5-0.3-0.7
				C254.8,101.2,254.6,101.1,254.4,101.1L254.4,101.1z"/>
			<path class="st1" d="M198.7,132.5c-0.4,0-0.8-0.2-1.1-0.5c-0.3-0.3-0.5-0.8-0.5-1.3v-9.4c0-1,0.7-1.8,1.7-1.8l55.6-2.5
				c0.5,0,1,0.1,1.3,0.5c0.3,0.3,0.5,0.8,0.5,1.3v9.8c0,1-0.8,1.8-1.8,1.9L198.7,132.5L198.7,132.5z M254.4,117.8L254.4,117.8
				l-55.5,2.6c-0.5,0.1-0.9,0.5-0.9,1v9.4c0,0.3,0.1,0.5,0.3,0.7c0.2,0.2,0.4,0.2,0.6,0.2l55.5-2.1c0.6,0,1-0.5,1-1.1v-9.8
				c0-0.3-0.1-0.5-0.3-0.7C254.9,117.9,254.6,117.8,254.4,117.8L254.4,117.8z"/>
			<path class="st1" d="M198.7,148.5c-0.4,0-0.8-0.2-1.1-0.5c-0.3-0.3-0.5-0.8-0.5-1.3v-9.4c0-1,0.7-1.8,1.7-1.8l55.5-1.9
				c0.5,0,1,0.2,1.3,0.5c0.3,0.3,0.5,0.8,0.5,1.3v9.8c0,1-0.8,1.8-1.8,1.9L198.7,148.5L198.7,148.5z M254.4,134.5L254.4,134.5
				l-55.5,1.9c-0.5,0.1-0.9,0.5-0.9,1v9.4c0,0.3,0.1,0.5,0.3,0.7c0.2,0.1,0.4,0.2,0.6,0.2l55.5-1.4c0.6,0,1-0.4,1-1v-9.8
				c0-0.3-0.1-0.5-0.3-0.7C254.9,134.6,254.6,134.5,254.4,134.5L254.4,134.5z"/>
			<path class="st1" d="M198.8,164.6c-0.4,0-0.9-0.2-1.2-0.5c-0.3-0.3-0.5-0.8-0.5-1.3v-9.4c0-1,0.7-1.8,1.7-1.8l55.5-1.3
				c0.5,0,0.9,0.2,1.3,0.5c0.3,0.3,0.5,0.8,0.5,1.3v9.9c0,1-0.8,1.8-1.8,1.9L198.8,164.6L198.8,164.6z M198.8,163.7L198.8,163.7
				l55.5-0.8c0.6,0,1-0.4,1-1v-9.8c0-0.3-0.1-0.5-0.3-0.7c-0.2-0.2-0.4-0.3-0.7-0.3l-55.5,1.3c-0.5,0.1-0.9,0.5-0.9,1v9.4
				c0,0.3,0.1,0.5,0.3,0.7C198.3,163.7,198.6,163.8,198.8,163.7L198.8,163.7z"/>
			<polygon class="st4" points="225.4,140.5 249.4,139.8 249.4,137.9 225.4,138.6 			"/>
			<polygon class="st4" points="233.1,143.7 249.4,143.2 249.4,141.3 233.1,141.8 			"/>
			<polygon class="st4" points="227.3,143.8 231.3,143.7 231.3,141.8 227.3,141.9 			"/>
			<polygon class="st4" points="225.4,108.2 249.4,106.9 249.4,105 225.4,106.3 			"/>
			<polygon class="st4" points="235,111.1 249.4,110.4 249.4,108.4 235,109.2 			"/>
			<polygon class="st4" points="218.3,111.9 233.1,111.2 233.1,109.3 218.3,110.1 			"/>
			<polygon class="st4" points="239.7,156.6 249.4,156.4 249.4,154.5 239.7,154.7 			"/>
			<polygon class="st4" points="228.4,156.8 237.9,156.6 237.9,154.7 228.4,154.9 			"/>
			<polygon class="st4" points="233.1,160.1 249.4,159.8 249.4,157.9 233.1,158.2 			"/>
			<polygon class="st4" points="215.7,160.4 231.3,160.1 231.3,158.2 215.7,158.5 			"/>
			<path class="st1" d="M201.6,129.6l55.8-2.2c0.8,0,1.4-0.7,1.4-1.5v-9.8c0-0.7-0.6-1.3-1.3-1.4c0,0-0.1,0-0.1,0l-55.8,2.7
				c-0.7,0.1-1.3,0.7-1.3,1.4v9.5C200.3,129,200.8,129.6,201.6,129.6C201.5,129.7,201.6,129.7,201.6,129.6z"/>
			<g class="st5">
				<polygon class="st1" points="231.7,119.5 255.7,118.5 255.7,117 231.7,118.1 				"/>
				<polygon class="st1" points="231.7,122.1 255.7,121 255.7,119.6 231.7,120.6 				"/>
				<polygon class="st1" points="245,124 255.7,123.6 255.7,122.1 245,122.6 				"/>
			</g>
			<polygon class="st1" points="211.5,125.5 217.7,125.2 217.7,118.8 211.5,119.1 			"/>
			<polygon class="st3" points="204.3,125.8 210.4,125.5 210.4,119.1 204.3,119.4 			"/>
			<path class="st1" d="M126.5,81.1l132.3,36.1c1.8,0.5,3.6-0.6,4.1-2.3l6.1-22.4c0.5-1.8-0.6-3.6-2.3-4.1L134.3,52.2
				c-1.8-0.5-3.6,0.6-4.1,2.3L124.1,77C123.7,78.8,124.7,80.6,126.5,81.1z"/>
			<g class="st5">
				
					<rect x="231.6" y="57.3" transform="matrix(0.263 -0.9648 0.9648 0.263 88.7324 288.5684)" class="st1" width="3.4" height="57.8"/>
				
					<rect x="230" y="63.1" transform="matrix(0.263 -0.9648 0.9648 0.263 81.9555 291.3264)" class="st1" width="3.4" height="57.8"/>
				
					<rect x="242.7" y="90.2" transform="matrix(0.2614 -0.9652 0.9652 0.2614 81.1198 311.881)" class="st1" width="3.4" height="25.5"/>
			</g>
			
				<rect x="154.9" y="65.5" transform="matrix(0.263 -0.9648 0.9648 0.263 49.1828 211.0008)" class="st3" width="15.6" height="15.6"/>
			
				<rect x="137.3" y="60.7" transform="matrix(0.263 -0.9648 0.9648 0.263 40.8605 190.55)" class="st3" width="15.6" height="15.6"/>
			
				<linearGradient id="SVGID_1_" gradientUnits="userSpaceOnUse" x1="193.5705" y1="515.6763" x2="211.6005" y2="483.4263" gradientTransform="matrix(0.99 0.16 0.16 -0.99 -15.2324 584.2511)">
				<stop  offset="0" style="stop-color:#36078B"/>
				<stop  offset="1" style="stop-color:#16B1FF"/>
			</linearGradient>
			<path class="st6" d="M256.4,124.5c1.5,0.8,3,0.5,7,0.3c5.8-0.3,7.2-0.8,10.6-2.3c2.3-1-0.5-5.8-3.8-5.3c-2.8,0.4-11.9,5-13.6,5.3
				C255.6,122.6,255.2,123.9,256.4,124.5z"/>
			
				<linearGradient id="SVGID_2_" gradientUnits="userSpaceOnUse" x1="203.2568" y1="521.081" x2="221.2767" y2="488.831" gradientTransform="matrix(0.99 0.16 0.16 -0.99 -15.2324 584.2511)">
				<stop  offset="0" style="stop-color:#36078B"/>
				<stop  offset="1" style="stop-color:#16B1FF"/>
			</linearGradient>
			<path class="st7" d="M274.8,121.7c0.6-1.2,1.5-4.1,1.8-11.4c0.2-2.6,0.1-5.2-0.2-7.8c-0.2-2.5-2.6-3.4-3.7-2.9
				c-1.9,0.9-3.8,3.5-3.7,4.8c0.3,7.3,0.9,12.9,0.6,14.7C269.3,121.7,274.1,123.2,274.8,121.7z"/>
			<path class="st8" d="M269.7,203.7c-0.1,0.6-0.2,1.3-0.3,1.9c-0.1,0.8-0.9,1-1.3,1.7s-1.2,1.7,1.7,1.8c3.1,0.1,4.9,0,4.4-1.7
				c-0.4-0.9-0.6-1.9-0.6-2.9c0.1-0.5,0-1-0.4-1.4C272.9,202.6,270.2,202.1,269.7,203.7z"/>
			<path class="st8" d="M238.4,205.1c-0.8,1-1.8,1.7-3,2.2c-1.6,0.7-5,1-3.1,1.6c1.7,0.4,3.5,0.4,5.2,0.1c1.2-0.2,2.3-0.2,3.5-0.2
				c1.7,0,1.7-0.1,1.5-2C242.2,204.2,239.2,203.7,238.4,205.1z"/>
			<path class="st9" d="M273.3,89c-0.9,3.4-1.1,4.1-2.8,5.3s-4.1,1-5.7,0.8s-2.6-2.5-2.8-4c-0.2-2.7,0.1-5.5,0.9-8.1
				c0.9-2.3,3.2-3.7,5.7-3.4C271,79.8,275.5,80.8,273.3,89z"/>
			
				<linearGradient id="SVGID_3_" gradientUnits="userSpaceOnUse" x1="190.3283" y1="532.1678" x2="190.3283" y2="497.0578" gradientTransform="matrix(0.99 0.16 0.16 -0.99 -15.2324 584.2511)">
				<stop  offset="0" style="stop-color:#36078B"/>
				<stop  offset="1" style="stop-color:#16B1FF"/>
			</linearGradient>
			<path class="st10" d="M251.2,115.9c1.1-0.7,3.5-2.7,7.7-8.7c1.5-2.1,2.9-4.3,4-6.7c1.1-2.2-0.3-4.3-1.6-4.4c-2.1-0.2-5,0.9-5.7,2
				c-3.7,6.3-6.2,11.4-7.4,12.7C246.5,112.9,249.8,116.7,251.2,115.9z"/>
			<path class="st9" d="M270.6,94.8c-0.1,1.2-0.2,2.6-0.4,3.8c-0.2,1.7-1.7,2.9-3.4,2.9h-0.2c-1.5-0.2-3-1.8-2.6-3.3
				c0.2-1,0.4-1.9,0.6-2.8c0.3-1.6,1.5-2.9,3.1-3.2l0,0c1.3-0.2,2.6,0.6,2.9,2C270.6,94.4,270.6,94.6,270.6,94.8z"/>
			
				<linearGradient id="SVGID_4_" gradientUnits="userSpaceOnUse" x1="198.9163" y1="532.1678" x2="198.9163" y2="497.0578" gradientTransform="matrix(0.99 0.16 0.16 -0.99 -15.2324 584.2511)">
				<stop  offset="0" style="stop-color:#36078B"/>
				<stop  offset="1" style="stop-color:#16B1FF"/>
			</linearGradient>
			<path class="st11" d="M275.2,110.6c-4.2,8.6-6.6,17.9-7,24.3l-20.8-3.3c0,0,3.2-19.4,6.2-29.8c0.8-2.6,2.8-4.6,5.3-5.4
				c1.9-0.5,3.8-0.6,5.7-0.4l3.8,0.6c1.4,0.2,2.7,0.6,4,1.1C277.9,100.4,277.6,105.6,275.2,110.6z"/>
			
				<linearGradient id="SVGID_5_" gradientUnits="userSpaceOnUse" x1="193.5059" y1="501.0826" x2="206.7859" y2="416.6627" gradientTransform="matrix(0.99 0.16 0.16 -0.99 -15.2324 584.2511)">
				<stop  offset="0" style="stop-color:#0000FF"/>
				<stop  offset="1" style="stop-color:#9E005D"/>
			</linearGradient>
			<path class="st12" d="M266.1,147.6c0,0,2.5-4.1,2.1-12.7l-20.8-3.3c-1.1,4.1-2.1,8.3-2.8,12.6L266.1,147.6z"/>
			
				<linearGradient id="SVGID_6_" gradientUnits="userSpaceOnUse" x1="271.8481" y1="-156.3196" x2="284.6081" y2="-237.4696" gradientTransform="matrix(0.9861 -0.1661 -0.1661 -0.9861 -48.3024 15.5259)">
				<stop  offset="0" style="stop-color:#0000FF"/>
				<stop  offset="1" style="stop-color:#9E005D"/>
			</linearGradient>
			<path class="st13" d="M258.6,176.5c-2.8-6.5,3.9-8.8,6.9-4.3c4.2,6.4,7.7,26.9,8.3,31.3c0.1,0.6,0.3,1.3,0,1.5
				c-0.6,0.4-1.4,0.7-2.1,0.7c-0.8,0.1-1.5,0.2-1.8-0.7C268.4,198.7,261.4,182.8,258.6,176.5z"/>
			
				<linearGradient id="SVGID_7_" gradientUnits="userSpaceOnUse" x1="198.6866" y1="501.9044" x2="211.9666" y2="417.4744" gradientTransform="matrix(0.99 0.16 0.16 -0.99 -15.2324 584.2511)">
				<stop  offset="0" style="stop-color:#0000FF"/>
				<stop  offset="1" style="stop-color:#9E005D"/>
			</linearGradient>
			<path class="st14" d="M255.6,146.9c0.6-8.5,4.9-14.5,9.7-10.9c2,1.5,2.4,4,2.4,6.2s-2,25.3-2.1,29.5c-0.2,9.5-7.1,5.8-7.5,3.1
				C257.1,168,255.3,151.5,255.6,146.9z"/>
			
				<linearGradient id="SVGID_8_" gradientUnits="userSpaceOnUse" x1="214.6147" y1="334.9217" x2="227.8947" y2="250.4917" gradientTransform="matrix(1 7.000000e-02 7.000000e-02 -1 -1.3023 438.15)">
				<stop  offset="0" style="stop-color:#0000FF"/>
				<stop  offset="1" style="stop-color:#9E005D"/>
			</linearGradient>
			<path class="st15" d="M242.2,206c1-10,6.5-27.1,4.7-35.4c-1.2-5.3-7.4-5.9-7.6,0.5c-0.2,6.8,0.9,20.1-0.8,33.2
				C238.3,205.5,242,207.1,242.2,206z"/>
			
				<linearGradient id="SVGID_9_" gradientUnits="userSpaceOnUse" x1="185.367" y1="499.8117" x2="198.647" y2="415.3817" gradientTransform="matrix(0.99 0.16 0.16 -0.99 -15.2324 584.2511)">
				<stop  offset="0" style="stop-color:#0000FF"/>
				<stop  offset="1" style="stop-color:#9E005D"/>
			</linearGradient>
			<path class="st16" d="M246.4,172.6c-1.2,2.4-8.7,4.3-6.5-4.9c1-4.1,5.4-26.9,6-29.1s1.4-5.4,2.6-5.6c5.9-1.1,10.2,6.3,7.4,14.4
				C254,152.7,248.9,167.5,246.4,172.6z"/>
			<ellipse transform="matrix(0.9732 -0.2299 0.2299 0.9732 -12.9831 62.5728)" class="st9" cx="262.1" cy="87" rx="1.2" ry="2.3"/>
			
				<ellipse transform="matrix(0.5171 -0.8559 0.8559 0.5171 55.9769 276.7298)" class="st9" cx="273.2" cy="88.8" rx="2.4" ry="1.2"/>
			
				<linearGradient id="SVGID_10_" gradientUnits="userSpaceOnUse" x1="-821.1624" y1="1789.4335" x2="-821.1624" y2="1754.3234" gradientTransform="matrix(0.57 0.8216 0.8216 -0.57 -733.1037 1788.468)">
				<stop  offset="0" style="stop-color:#36078B"/>
				<stop  offset="1" style="stop-color:#16B1FF"/>
			</linearGradient>
			<path class="st17" d="M233.8,110.2c1.1,1.3,1.9,2.1,5.8,3.3c3.5,1.2,7.2,2,10.9,2.4c2.5,0.2,2.1-5.7-1-6.7
				c-2.7-0.8-12.9-0.4-14.5-0.9C233.9,108.1,233,109.1,233.8,110.2z"/>
			<path class="st9" d="M235.3,108.4c-1-0.5-9.6-3.5-9.7-1.6c-0.1,2.1,3.4,3.4,4.6,3.8c2.3,0.7,4.1,1.1,5,0.1
				C235.9,110,236.2,108.9,235.3,108.4z"/>
			<path class="st9" d="M234.8,107.9c-0.4-0.3-2.7-2.3-3.1-1.9c-0.6,0.6,0.9,2,1.8,2.9c0.5,0.5,1.6,0.8,1.9,0.3
				S235.4,108.4,234.8,107.9z"/>
			
				<linearGradient id="SVGID_11_" gradientUnits="userSpaceOnUse" x1="190.7274" y1="546.9659" x2="205.3074" y2="529.886" gradientTransform="matrix(0.99 0.16 0.16 -0.99 -15.2324 584.2511)">
				<stop  offset="0" style="stop-color:#0000FF"/>
				<stop  offset="1" style="stop-color:#9E005D"/>
			</linearGradient>
			<path class="st18" d="M266.1,80.6c-2.2,0.9-2.8,1.9-3.1,4.3s0.1,6.8,4.5,8.5s6.2-2.7,6.9-5.7s1-5.4-1.3-6.3
				C269.8,80,267.4,80.1,266.1,80.6z"/>
			
				<linearGradient id="SVGID_12_" gradientUnits="userSpaceOnUse" x1="191.9629" y1="547.9445" x2="206.5029" y2="530.9246" gradientTransform="matrix(0.99 0.16 0.16 -0.99 -15.2324 584.2511)">
				<stop  offset="0" style="stop-color:#0000FF"/>
				<stop  offset="1" style="stop-color:#9E005D"/>
			</linearGradient>
			<path class="st19" d="M274.2,81.9c0.2-1.9-2.7-3.3-3.1-4.2c0,0-0.2,1.3,0.4,1.7c-1.7-0.7-3.4-1.6-4.9-2.6c0,0,0.6,1.3,1.3,1.7
				c-1.8-0.5-3.5-1.1-5.1-1.9c0.6,1,1.4,1.8,2.2,2.6c-1.8,0-3.5-0.3-5.2-0.9c0,0,1.5,4.4,4.5,4.9S274,85.4,274.2,81.9z"/>
			<g>
				<defs>
					<path id="SVGID_13_" d="M272.5,97.8c-0.7-0.3-1.4-0.6-2.1-0.8c0.1-0.8,0.1-1.5,0.2-2.2c0-0.2,0-0.4,0-0.6
						c0.8-0.5,1.4-1.2,1.8-2.1c0.4-0.5,0.7-1.1,1-1.7c0.4-0.3,0.7-0.7,0.9-1.1c0.6-1.1,0.7-2.2,0.2-2.6c0.4-2,0.5-3.6-0.4-4.6
						c0-0.1,0-0.2,0.1-0.3c0.2-1.9-2.7-3.3-3.1-4.2c0,0-0.2,1.3,0.4,1.7c-1.7-0.7-3.4-1.6-4.9-2.6c0,0,0.6,1.3,1.3,1.7
						c-1.8-0.5-3.5-1.1-5.1-1.9c0.6,1,1.4,1.8,2.2,2.6c-1.8,0-3.5-0.3-5.2-0.9c0,0,1.1,3,3.2,4.3c0,0,0,0.1,0,0.1
						c-0.2,0.8-0.4,1.5-0.5,2.2c-0.2-0.3-0.5-0.4-0.9-0.3c-0.7,0.2-1,1.3-0.7,2.6c0.1,0.7,0.5,1.4,1.1,1.8c0,0.6,0,1.3,0,1.9
						c0.2,1.5,1,3.7,2.6,4.1c0,0.1-0.1,0.3-0.1,0.4s-0.1,0.4-0.1,0.6c-1.5-0.2-3.1-0.1-4.6,0.2c-1.8,0.2-3.7,1.1-4.3,2l-0.6,1
						c-0.4,0.5-0.7,1.1-1,1.8c-2,3.5-3.6,6.5-4.7,8.3c-2.7-0.7-11.2-0.4-13.8-0.8c-0.1-0.1-0.1-0.1-0.2-0.2l0,0
						c-0.1-0.2-0.3-0.3-0.5-0.5c-0.4-0.3-2.7-2.3-3.1-1.9s-0.1,0.7,0.2,1.2c-2.8-0.8-6.2-1.5-6.2-0.3c-0.1,2.1,3.4,3.4,4.6,3.8
						c1.8,0.5,3.4,0.9,4.4,0.5c0.9,0.9,2.1,1.6,5.1,2.5c3.5,1.2,7,2,10.7,2.4c-1.7,8.2-2.9,15.7-2.9,15.7c-1.1,4.1-2.1,8.3-2.8,12.6
						l0,0c-1.5,7.6-4.1,20.4-4.8,23.4c-0.1,0.6-0.2,1.2-0.3,1.8c-0.1,0.5-0.2,1.1-0.2,1.6c-0.2,6.8,0.9,20.1-0.8,33.2
						c0,0.2,0,0.4,0.2,0.6c-0.1,0.1-0.2,0.2-0.2,0.3c-0.8,1-1.8,1.7-3,2.2c-1.6,0.7-5,1-3.1,1.6c1.7,0.4,3.5,0.4,5.2,0.1
						c1.2-0.2,2.3-0.2,3.5-0.2c1.7,0,1.7-0.1,1.5-2c0-0.4-0.2-0.7-0.3-1c1-9.7,6.2-26,4.8-34.5c2.6-5.7,6.8-17.8,8.6-23.2
						c0,5.8,1.6,20.5,2.5,26.8c0,0.1,0.1,0.3,0.1,0.4c0.1,0.4,0.3,0.8,0.4,1.2c2.6,5.9,9,20.6,11,27.5c-0.2,0.7-0.1,1.1-0.2,1.6
						c-0.1,0.8-0.9,1-1.3,1.7s-1.2,1.7,1.7,1.8c3.1,0.1,4.9,0,4.4-1.7c-0.2-0.7-0.4-1.4-0.5-2.2c0.1,0,0.1-0.1,0.2-0.1
						c0.3-0.3,0-0.9,0-1.5c-0.6-4.4-4-24.8-8.2-31.2c0-0.2,0-0.4,0-0.6c0.1-4.1,2-26.3,2.1-29.4c0.4-2.5,0.6-5,0.4-7.5
						c0.3-3.7,1-7.4,2-11c1.3-0.4,2.7-0.9,3.9-1.4c0.3-0.1,0.6-0.4,0.7-0.7l0,0c0.6-1.2,1.5-4.1,1.8-11.4c0.1-1.8,0.1-3.1,0.1-4.2
						C277.3,102.7,276.3,99.6,272.5,97.8z"/>
				</defs>
				<clipPath id="SVGID_14_">
					<use xlink:href="#SVGID_13_"  style="overflow:visible;"/>
				</clipPath>
			</g>
			<path class="st9" d="M124.3,70.4c0.2-1.1,2.6-9.8,4.1-8.7c1.7,1.3,1.6,5,1.4,6.2c-0.4,2.2-2.2,3.8-3.6,3.9
				C125.2,71.9,124.1,71.5,124.3,70.4z"/>
			
				<linearGradient id="SVGID_15_" gradientUnits="userSpaceOnUse" x1="-2195.0952" y1="1854.6022" x2="-2195.0952" y2="1822.2622" gradientTransform="matrix(-6.000000e-02 1.07 1.01 0.12 -1872.1289 2205.9932)">
				<stop  offset="0" style="stop-color:#36078B"/>
				<stop  offset="1" style="stop-color:#168D68"/>
			</linearGradient>
			<path class="st20" d="M127.7,70.2c0.7,1.6,0.1,1.9-0.3,6.3c-0.5,5.6-1.1,8.6-2,11.2c-0.8,2.3-5.7-0.6-5.3-3.9
				c0.4-2.8,4.4-12.3,5.1-13.8c0.4-0.6,1.3-0.8,1.9-0.4C127.4,69.7,127.6,69.9,127.7,70.2z"/>
			
				<linearGradient id="SVGID_16_" gradientUnits="userSpaceOnUse" x1="-2148.2236" y1="1862.1372" x2="-2148.2236" y2="1817.7173" gradientTransform="matrix(-9.000000e-02 1 1 9.000000e-02 -1926.95 2074.97)">
				<stop  offset="0" style="stop-color:#36078B"/>
				<stop  offset="1" style="stop-color:#168D68"/>
			</linearGradient>
			<path class="st21" d="M125.9,85.4c-0.3,1.4-1.3,4.3-5.6,10.5c-1.5,2.2-3.1,4.3-4.9,6.3c-1.7,1.9-4.2,1.2-4.8,0
				c-1-1.9-0.9-5.2-0.1-6.2c4.7-5.8,8.7-10.1,9.6-11.7C121.3,82.1,126.2,83.8,125.9,85.4z"/>
			<path class="st22" d="M111.7,204.4c0.1,0.7,0.2,1.3,0.3,2c0.1,0.8,0.9,1.1,1.3,1.7s1.2,1.7-1.7,1.8c-3.1,0.1-5,0-4.5-1.8
				c0.4-1,0.6-2,0.6-3c-0.1-0.5,0-1.1,0.4-1.5C108.4,203.2,111.2,202.6,111.7,204.4z"/>
			<path class="st22" d="M131.1,194.6c0.9,1,1.9,1.7,3.2,2.1c1.7,0.6,5.1,0.8,3.3,1.5c-1.7,0.5-3.5,0.6-5.3,0.3
				c-1.2,0-2.4,0-3.6,0.1c-1.8,0.1-1.8-0.2-1.6-2.1C127.2,193.8,130.3,193.1,131.1,194.6z"/>
			<path class="st9" d="M115.8,83.4c0.4,3.6,0.5,4.4,2,5.8s4,1.7,5.7,1.7s3-2.2,3.4-3.7c0.7-2.8,0.8-5.6,0.4-8.4
				c-0.6-2.4-2.7-4.2-5.2-4.4C119.6,74.4,114.9,74.7,115.8,83.4z"/>
			<path class="st9" d="M117.6,89.7c-0.1,1.2-0.2,2.7-0.2,4c0,1.8,1.3,3.3,3,3.5h0.2c1.5,0,3.3-1.4,3.2-2.9c-0.1-1-0.1-2-0.1-2.9
				c0-1.7-1.1-3.2-2.7-3.8l0,0c-1.3-0.5-2.8,0.2-3.2,1.5C117.7,89.3,117.6,89.5,117.6,89.7z"/>
			
				<linearGradient id="SVGID_17_" gradientUnits="userSpaceOnUse" x1="-3926.6746" y1="201.72" x2="-3926.6746" y2="136.44" gradientTransform="matrix(-1 0 0 -1 -3804.1899 303.89)">
				<stop  offset="0" style="stop-color:#36078B"/>
				<stop  offset="1" style="stop-color:#168D68"/>
			</linearGradient>
			<path class="st23" d="M110.5,105c2.9,9.4,3.8,19.2,3.2,25.8h21.6c0,0-0.1-20.2-1.6-31.3c-0.4-2.7-2.1-5.1-4.6-6.3
				c-1.8-0.8-3.8-1.2-5.8-1.3h-4c-1.4,0-2.8,0.1-4.2,0.5C109.3,94.2,108.8,99.5,110.5,105z"/>
			
				<linearGradient id="SVGID_18_" gradientUnits="userSpaceOnUse" x1="-3928.323" y1="67.3" x2="-3928.323" y2="160.11" gradientTransform="matrix(-1 0 0 -1 -3804.1899 303.89)">
				<stop  offset="0" style="stop-color:#36078B"/>
				<stop  offset="1" style="stop-color:#16B1FF"/>
			</linearGradient>
			<path class="st24" d="M113.8,144c0,0-1.9-4.5-0.1-13.2h21.6c0,0,0,6.2,0,13.2H113.8z"/>
			
				<linearGradient id="SVGID_19_" gradientUnits="userSpaceOnUse" x1="-3917.1145" y1="67.31" x2="-3917.1145" y2="160.11" gradientTransform="matrix(-1 0 0 -1 -3804.1899 303.89)">
				<stop  offset="0" style="stop-color:#36078B"/>
				<stop  offset="1" style="stop-color:#16B1FF"/>
			</linearGradient>
			<path class="st25" d="M118.1,172.2c1.7-7-5.4-8.3-7.7-3.2c-3.2,7.2-2.9,30.1-2.8,34.7c0,0.6-0.1,1.3,0.2,1.6
				c0.7,0.3,1.5,0.4,2.3,0.4c0.8,0,1.6,0,1.7-1C112.3,198,116.4,179,118.1,172.2z"/>
			
				<linearGradient id="SVGID_20_" gradientUnits="userSpaceOnUse" x1="-3921.6355" y1="67.31" x2="-3921.6355" y2="160.11" gradientTransform="matrix(-1 0 0 -1 -3804.1899 303.89)">
				<stop  offset="0" style="stop-color:#36078B"/>
				<stop  offset="1" style="stop-color:#16B1FF"/>
			</linearGradient>
			<path class="st26" d="M124.5,144.9c0.8-8.7-2.7-15.5-8.1-12.6c-2.3,1.2-3.1,3.6-3.4,5.9s-2,26-2.6,30.3c-1.3,9.7,6.3,7.1,7.1,4.4
				C119.7,166.1,124.1,149.7,124.5,144.9z"/>
			
				<linearGradient id="SVGID_21_" gradientUnits="userSpaceOnUse" x1="-3797.394" y1="517.046" x2="-3797.394" y2="609.8561" gradientTransform="matrix(-0.92 -0.38 0.38 -0.92 -3573.3081 -743.9412)">
				<stop  offset="0" style="stop-color:#36078B"/>
				<stop  offset="1" style="stop-color:#16B1FF"/>
			</linearGradient>
			<path class="st27" d="M127.2,194.7c3.7-9.6,6.5-27.9,12-34.7c3.5-4.3,9.5-2,6.7,3.9c-3,6.4-10.1,18.1-14.6,30.8
				C130.9,196,126.8,195.8,127.2,194.7z"/>
			
				<linearGradient id="SVGID_22_" gradientUnits="userSpaceOnUse" x1="-4105.3584" y1="-738.4317" x2="-4105.3584" y2="-663.5217" gradientTransform="matrix(-0.95 0.31 -0.31 -0.95 -3968.4141 792.6855)">
				<stop  offset="0" style="stop-color:#36078B"/>
				<stop  offset="1" style="stop-color:#16B1FF"/>
			</linearGradient>
			<path class="st28" d="M138.9,163.4c1.6,2.3,10.9,2.1,7.1-6.9c-1.7-4-6.9-18.3-7.7-20.4s-2.3-5.2-3.5-5.2
				c-6.1-0.2-9.3,8.1-5.1,15.8C132.4,151.7,135.5,158.7,138.9,163.4z"/>
			
				<ellipse transform="matrix(0.3783 -0.9257 0.9257 0.3783 2.3125 169.7749)" class="st9" cx="127.6" cy="83.2" rx="2.4" ry="1.3"/>
			
				<ellipse transform="matrix(0.9257 -0.3783 0.3783 0.9257 -22.8487 50.0333)" class="st9" cx="115.9" cy="83.2" rx="1.3" ry="2.4"/>
			
				<linearGradient id="SVGID_23_" gradientUnits="userSpaceOnUse" x1="-3877.6975" y1="262.682" x2="-3869.9675" y2="268.022" gradientTransform="matrix(-1 0 0 -1 -3804.1899 303.89)">
				<stop  offset="0" style="stop-color:#2C27CE"/>
				<stop  offset="0.65" style="stop-color:#EF1D68"/>
				<stop  offset="1" style="stop-color:#EFBA92"/>
			</linearGradient>
			<path class="st29" d="M116.9,76.4c1.4,2.1,8.1,2.3,10.3,1.5c2.2-0.8,2-5-1.1-5.3c-1.8,0-0.5,0.4-1.9,1
				C123.5,73.9,115.4,74.2,116.9,76.4z"/>
			<path class="st9" d="M159.6,90.2c1.1-0.4,9.8-2.9,9.6-1c-0.2,2.2-3.4,3.9-4.6,4.4c-1.8,0.8-3.9,0.3-5.2-1.1
				C158.8,91.7,158.6,90.5,159.6,90.2z"/>
			<path class="st9" d="M159.9,89.6c0.4-0.4,2.6-2.6,3.1-2.2c0.7,0.6-0.7,2.1-1.6,3.1c-0.5,0.5-1.5,0.9-1.9,0.5
				S159.4,90.2,159.9,89.6z"/>
			
				<linearGradient id="SVGID_24_" gradientUnits="userSpaceOnUse" x1="149.0804" y1="216.2106" x2="159.5704" y2="194.3806" gradientTransform="matrix(1 0 0 -1 0 303.89)">
				<stop  offset="0" style="stop-color:#36078B"/>
				<stop  offset="1" style="stop-color:#168D68"/>
			</linearGradient>
			<path class="st30" d="M161.5,93c-1,1.4-1.6,1-5.6,3c-5,2.5-7.9,3.5-10.6,4.1c-2.4,0.5-2.5-5.2,0.6-6.5c2.6-1.1,12.7-2.6,14.5-2.8
				c0.8,0,1.4,0.6,1.3,1.4C161.8,92.5,161.7,92.8,161.5,93z"/>
			
				<linearGradient id="SVGID_25_" gradientUnits="userSpaceOnUse" x1="134.4953" y1="211.6726" x2="149.5253" y2="181.1626" gradientTransform="matrix(1 0 0 -1 0 303.89)">
				<stop  offset="0" style="stop-color:#36078B"/>
				<stop  offset="1" style="stop-color:#168D68"/>
			</linearGradient>
			<path class="st31" d="M147.8,99.4c-1.3,0.6-4.3,1.4-11.8,1.4c-2.2,0.1-4.4,0-6.6-0.3c-2.5-0.3-4.2-2.8-4.2-4.1
				c0.1-2.2,1.2-3.8,2.5-3.7c7.5,0.6,15.7,1.6,17.6,1.4C148,93.7,149.3,98.7,147.8,99.4z"/>
			
				<linearGradient id="SVGID_26_" gradientUnits="userSpaceOnUse" x1="121.5378" y1="224.8792" x2="114.3678" y2="207.4792" gradientTransform="matrix(1 0 0 -1 0 303.89)">
				<stop  offset="0" style="stop-color:#2C27CE"/>
				<stop  offset="0.65" style="stop-color:#EF1D68"/>
				<stop  offset="1" style="stop-color:#EFBA92"/>
			</linearGradient>
			<path class="st32" d="M124.5,76c2.1,1.3,2.6,2.3,2.5,4.9s-1.2,6.9-5.9,7.9s-5.8-3.7-6.1-6.9s-0.1-5.6,2.3-6.2
				C120.8,74.8,123.2,75.3,124.5,76z"/>
			<g>
				<defs>
					<path id="SVGID_27_" d="M162.4,89.3c0.6-0.8,1-1.5,0.6-1.9s-2.7,1.8-3.1,2.2c-0.2,0.2-0.4,0.4-0.5,0.6
						c-0.3,0.1-0.5,0.4-0.5,0.7c-3.4,0.5-10.7,1.6-12.9,2.6c-0.3,0.1-0.6,0.3-0.8,0.5c-2,0.2-10.1-0.8-17.5-1.4l0,0
						c-1.3-0.4-2.6-0.6-4-0.7c0-0.2,0-0.4,0-0.6s0-0.3,0-0.4c1.8-0.1,2.9-2.2,3.3-3.7c0.2-0.6,0.3-1.2,0.4-1.9
						c0.6-0.4,1.1-1,1.4-1.7c0.5-1.2,0.4-2.4-0.3-2.7c-0.3-0.1-0.7,0-0.9,0.2c0-0.7-0.1-1.5-0.2-2.3c0-0.1-0.1-0.3-0.1-0.4
						c0-0.2,0-0.3,0.1-0.5c1.6-0.6,1.9-3.2,0.5-4.5c0.2-0.8,0.2-1.6,0.1-2.4c0.9-0.8,1.6-1.9,1.8-3.1c0.2-1.2,0.4-4.9-1.4-6.2
						c-1.6-1.2-3.9,7.5-4.1,8.7c-0.1,0.4,0,0.7,0.3,1c-0.3,0.7-0.6,1.5-1,2.3c-1.8,0.3-6.9,0.7-6.9,2.2c-1.7,0.7-2,2.6-1.8,5.1
						c-0.6,0.3-0.7,1.5-0.2,2.7c0.2,0.4,0.4,0.9,0.8,1.2c0.2,0.7,0.4,1.3,0.8,1.9c0.1,0.6,0.4,1.1,0.7,1.6c-1.4,1.6-3.1,3.7-5,6
						c-0.4,0.4-0.8,0.9-1.2,1.4l-0.3,0.4c-0.4,0.6-0.6,1.3-0.6,2.1c-0.3,2.3-0.1,4.6,0.7,6.8c2.9,9.4,3.8,19.2,3.2,25.8
						c-0.5,2.5-0.8,5.1-0.8,7.6c-0.4,3.2-2,25.9-2.6,30.1c0,0.2,0,0.3,0,0.5l0,0c-3.2,7.2-2.9,30.1-2.8,34.7c0,0.5,0,0.9,0.1,1.4
						c0,1-0.2,2-0.6,3c-0.5,1.7,1.3,1.8,4.5,1.8c2.9-0.1,2.2-1.1,1.7-1.8s-1.2-0.9-1.3-1.7c-0.1-0.6,0-0.9-0.2-1.6l0,0
						c0.6-6.7,4.6-25.6,6.3-32.4c0.1-0.6,0.2-1.2,0.2-1.8c2.3-7.7,5.8-21.3,6.2-25.5c0-0.3,0-0.6,0.1-0.9h10.6
						c0.6,0,1.2-0.1,1.8-0.1c3.1-0.4,6.7-0.8,10.3-1.3c-3.1,8.4-5.4,20-8.1,27c-0.1,0.2,0,0.4,0.2,0.6c-0.2,0.4-0.4,0.8-0.4,1.2
						c-0.1,1.9-0.1,2.2,1.6,2.1c1.2-0.1,2.4-0.2,3.6-0.1c1.8,0.3,3.6,0.2,5.3-0.3c1.9-0.7-1.6-0.9-3.3-1.5c-1.1-0.4-2.1-1-3-1.8l0,0
						c4.3-12.2,11-23.4,14.1-30c0.8-1.1,1.2-2.4,1.1-3.7c0-0.9-0.3-1.7-0.9-2.4l-0.1-0.1c-0.1-0.1-0.2-0.2-0.2-0.2
						c-1-1-2.7-1.6-5.5-1.5c-3,0.1-11.2,0.1-16.7,0.1c0-0.8,0-1.2,0-1.2s-0.1-18.7-1.4-30h2.2c7.6,0,10.6-0.8,11.8-1.4l0,0
						c2.8-0.9,5.5-2.1,8.1-3.5c3.2-1.6,4.2-1.6,5-2.3c1.2,0.4,2.4,0.4,3.6-0.1c1.2-0.5,4.4-2.2,4.6-4.4
						C169.3,87.9,165.3,88.6,162.4,89.3z"/>
				</defs>
				<clipPath id="SVGID_28_">
					<use xlink:href="#SVGID_27_"  style="overflow:visible;"/>
				</clipPath>
			</g>
		</g>
	</g>
</g>
</svg>
