<?xml version="1.0" encoding="utf-8"?>
<!-- Generator: Adobe Illustrator 21.0.0, SVG Export Plug-In . SVG Version: 6.00 Build 0)  -->
<svg version="1.1" id="Слой_1" xmlns="http://www.w3.org/2000/svg" xmlns:xlink="http://www.w3.org/1999/xlink" x="0px" y="0px"
	 viewBox="0 0 294.2 262" style="enable-background:new 0 0 294.2 262;" xml:space="preserve">
<style type="text/css">
	.st0{opacity:0.1;fill:#ED0F0F;enable-background:new    ;}
	.st1{fill:url(#SVGID_1_);}
	.st2{fill:url(#SVGID_2_);}
	.st3{fill:url(#SVGID_3_);}
	.st4{fill:#E89672;}
	.st5{fill:url(#SVGID_4_);}
	.st6{fill:#FFAF84;}
	.st7{fill:url(#SVGID_5_);}
	.st8{fill:url(#SVGID_6_);}
	.st9{fill:url(#SVGID_7_);}
	.st10{fill:url(#SVGID_8_);}
	.st11{fill:url(#SVGID_9_);}
	.st12{fill:url(#SVGID_10_);}
	.st13{fill:url(#SVGID_11_);}
	.st14{fill:url(#SVGID_12_);}
	.st15{fill:url(#SVGID_13_);}
	.st16{fill:url(#SVGID_14_);}
	.st17{fill:url(#SVGID_15_);}
	.st18{clip-path:url(#SVGID_17_);}
	.st19{opacity:0.3;fill:url(#SVGID_18_);enable-background:new    ;}
	.st20{fill:none;stroke:#0037FF;stroke-linecap:round;stroke-linejoin:round;}
	.st21{fill:none;stroke:#0037FF;stroke-miterlimit:10;}
	.st22{opacity:0.3;fill:none;stroke:#0037FF;stroke-miterlimit:10;enable-background:new    ;}
	.st23{opacity:0.1;fill:none;stroke:#0037FF;stroke-miterlimit:10;enable-background:new    ;}
	.st24{opacity:0.3;fill:none;stroke:#0037FF;stroke-linecap:round;stroke-linejoin:round;enable-background:new    ;}
	.st25{opacity:0.1;fill:none;stroke:#0037FF;stroke-linecap:round;stroke-linejoin:round;enable-background:new    ;}
	.st26{fill:url(#SVGID_19_);}
	.st27{fill:url(#SVGID_20_);}
	.st28{fill:url(#SVGID_21_);}
	.st29{fill:url(#SVGID_22_);}
	.st30{fill:url(#SVGID_23_);}
	.st31{fill:url(#SVGID_24_);}
	.st32{fill:url(#SVGID_25_);}
	.st33{fill:url(#SVGID_26_);}
	.st34{fill:url(#SVGID_27_);}
	.st35{fill:url(#SVGID_28_);}
	.st36{fill:url(#SVGID_29_);}
	.st37{fill:url(#SVGID_30_);}
</style>
<title>main-slide3</title>
<g>
	<g id="Слой_2">
		<g id="Designed_by_Freepik">
			<circle class="st0" cx="131" cy="131" r="131"/>
			
				<linearGradient id="SVGID_1_" gradientUnits="userSpaceOnUse" x1="79.9817" y1="141.4378" x2="141.1017" y2="189.9778" gradientTransform="matrix(1 0 0 -1 0 261.89)">
				<stop  offset="0" style="stop-color:#36078B"/>
				<stop  offset="1" style="stop-color:#16B1FF"/>
			</linearGradient>
			<path class="st1" d="M143.1,61.5c-1.8-1.5-6.7-3.2-8.5,3.7s-13.3,10.7-10.4,18.2s16.7,7.3,19.3-1.2S148.6,66.2,143.1,61.5z"/>
			
				<linearGradient id="SVGID_2_" gradientUnits="userSpaceOnUse" x1="-1803.9692" y1="570.5452" x2="-1791.1593" y2="581.1852" gradientTransform="matrix(-0.9 -0.43 0.43 -0.9 -1701.1128 -119.479)">
				<stop  offset="0" style="stop-color:#F70F47"/>
				<stop  offset="1" style="stop-color:#9E005D"/>
			</linearGradient>
			<path class="st2" d="M137.1,85.4c0.6-0.7,1.6-2.3,3.2-6.6c0.6-1.5,1.1-3,1.4-4.5c0.4-1.4-0.8-2.1-1.5-1.8c-1.1,0.5-2,1.5-2.5,2.6
				c-1.3,4.3-2.1,7.5-2.6,8.5C134.4,85.1,136.4,86.2,137.1,85.4z"/>
			
				<linearGradient id="SVGID_3_" gradientUnits="userSpaceOnUse" x1="-1923.1013" y1="13.0239" x2="-1910.2913" y2="23.6539" gradientTransform="matrix(-1 3.000000e-02 -3.000000e-02 -1 -1762.3634 178.81)">
				<stop  offset="0" style="stop-color:#F70F47"/>
				<stop  offset="1" style="stop-color:#9E005D"/>
			</linearGradient>
			<path class="st3" d="M128.1,89.4c0.6,0.2,1-0.6,3-1.2c2-0.5,4-1.4,5.7-2.6c1.3-0.8,0.7-3-1.1-2.3c-1.5,0.6-7.2,4.4-8.1,4.8
				C127.1,88.2,127.6,89.2,128.1,89.4z"/>
			<path class="st4" d="M143.7,67.7c0,0.1,0.7,2.7,1.2,4.8c0.2,0.9-0.2,1.8-1,2.2l0,0c-0.9,0-1.8-0.6-1.9-1.6
				c-0.2-1.8-0.7-3.6-0.7-3.6L143.7,67.7z"/>
			
				<linearGradient id="SVGID_4_" gradientUnits="userSpaceOnUse" x1="142.5426" y1="184.785" x2="146.1926" y2="164.565" gradientTransform="matrix(1 0 0 -1 0 261.89)">
				<stop  offset="0" style="stop-color:#F70F47"/>
				<stop  offset="1" style="stop-color:#9E005D"/>
			</linearGradient>
			<path class="st5" d="M147.9,78.7c-0.2,1.9-0.3,3.9-0.2,5.8c0.1,1.4,0.3,2.8,0.8,4.2c0.3,0.8,0.6,1.6,0.9,2.4
				c0.1,0.3,1.2,2.7,1.3,3l-11.5,2.2c-0.3-2.3,0.9-9.8-1.7-14c-1.8-2.9-0.2-3.3,0.3-6.2c0.1-0.7,0.3-1.4,0.6-2.1
				c0.4-0.6,0.9-1.1,1.6-1.4c0.3-0.1,0.7-0.3,1-0.3c1.9-0.5,6.4-2,7.3,0.7c0.2,0.7,0.3,1.5,0.2,2.3c-0.1,0.8-0.3,1.7-0.5,2.5
				C148,78.1,148,78.4,147.9,78.7z"/>
			<path class="st6" d="M141.5,90.1c-0.6,1.3-1.1,1.9-1,2.6s1.2,0,1.5-0.4s1.3-1.9,1.1-2.5S141.9,89.2,141.5,90.1z"/>
			
				<linearGradient id="SVGID_5_" gradientUnits="userSpaceOnUse" x1="165.1643" y1="-15.9296" x2="158.0543" y2="-33.6496" gradientTransform="matrix(0.9821 -0.1886 -0.1886 -0.9821 -15.1953 86.7706)">
				<stop  offset="0" style="stop-color:#F70F47"/>
				<stop  offset="1" style="stop-color:#9E005D"/>
			</linearGradient>
			<path class="st7" d="M151.3,84.5c0-0.9-0.1-2.8-1.3-7.2c-0.4-1.5-0.9-3-1.5-4.5c-0.6-1.4-1.8-1.2-2.2-0.5
				c-0.6,1.1-0.8,2.4-0.5,3.6c1.5,4.2,2.7,7.3,2.9,8.4C149,85.9,151.3,85.5,151.3,84.5z"/>
			
				<linearGradient id="SVGID_6_" gradientUnits="userSpaceOnUse" x1="-538.5408" y1="-958.0246" x2="-543.5208" y2="-970.4346" gradientTransform="matrix(0.2265 -0.974 -0.974 -0.2265 -673.3184 -660.8096)">
				<stop  offset="0" style="stop-color:#F70F47"/>
				<stop  offset="1" style="stop-color:#9E005D"/>
			</linearGradient>
			<path class="st8" d="M142.6,90.5c0.5,0.1,0.9-0.8,2.9-1.8c1.9-0.8,3.7-2,5.3-3.4c1.2-1,0.3-3.1-1.4-2.2c-2.5,1.9-5,3.9-7.3,6
				C141.7,89.6,142.1,90.4,142.6,90.5z"/>
			<path class="st6" d="M143.7,65.2c0.7,2.2,0.8,2.7,0.3,4c-0.6,1.2-1.5,2.1-2.7,2.7c-1.1,0.5-2.4-0.3-3-1.1c-1.2-1.6-2-3.4-2.6-5.3
				c-0.3-1.6,0.5-3.2,2-3.9C139.2,60.8,142,59.8,143.7,65.2z"/>
			<path class="st6" d="M129.1,88c-0.6-0.1-1.3-0.2-1.9-0.2c-0.8,0.1-1.2,0.6-1,0.8s0.8,0.9,1.3,0.9c0.4,0,0.8-0.2,1.1-0.6
				C128.9,88.7,129.8,88.2,129.1,88z"/>
			
				<linearGradient id="SVGID_7_" gradientUnits="userSpaceOnUse" x1="-1921.4226" y1="-56.9184" x2="-1920.3026" y2="-43.1584" gradientTransform="matrix(-0.98 0.19 -0.19 -0.98 -1771.0609 423.9022)">
				<stop  offset="0" style="stop-color:#F70F47"/>
				<stop  offset="1" style="stop-color:#FFB41D"/>
			</linearGradient>
			<path class="st9" d="M121.3,106.3c-0.3,0.6-0.8,1.2-1.4,1.5c-0.8,0.6-2.6,1.1-1.5,1.2c1,0.1,1.9-0.1,2.8-0.5
				c0.6-0.2,1.2-0.4,1.9-0.5c0.9-0.2,0.9-0.3,0.6-1.3C123.2,105.4,121.6,105.4,121.3,106.3z"/>
			
				<linearGradient id="SVGID_8_" gradientUnits="userSpaceOnUse" x1="-1852.5574" y1="16.4327" x2="-1851.4374" y2="30.1927" gradientTransform="matrix(-1 6.000000e-02 -6.000000e-02 -1 -1728.0266 266.16)">
				<stop  offset="0" style="stop-color:#F70F47"/>
				<stop  offset="1" style="stop-color:#FFB41D"/>
			</linearGradient>
			<path class="st10" d="M122.7,126.5c-0.4,0.6-0.9,1-1.6,1.3c-0.9,0.4-2.7,0.7-1.7,1c1,0.2,1.9,0.1,2.9-0.1
				c0.6-0.1,1.3-0.2,1.9-0.2c1-0.1,1-0.1,0.8-1.2C124.7,125.8,123,125.6,122.7,126.5z"/>
			
				<linearGradient id="SVGID_9_" gradientUnits="userSpaceOnUse" x1="-2025.33" y1="-316.4704" x2="-1964.21" y2="-267.9404" gradientTransform="matrix(-0.92 0.4 -0.4 -0.92 -1717.8041 617.5288)">
				<stop  offset="0" style="stop-color:#36078B"/>
				<stop  offset="1" style="stop-color:#16B1FF"/>
			</linearGradient>
			<path class="st11" d="M135.6,64.2c-0.2,1.8,6.9,1.8,8.2,1s-0.2-3.2-1.8-4.1S136.1,60,135.6,64.2z"/>
			
				<linearGradient id="SVGID_10_" gradientUnits="userSpaceOnUse" x1="-2024.205" y1="-317.883" x2="-1963.085" y2="-269.343" gradientTransform="matrix(-0.92 0.4 -0.4 -0.92 -1717.8041 617.5288)">
				<stop  offset="0" style="stop-color:#36078B"/>
				<stop  offset="1" style="stop-color:#16B1FF"/>
			</linearGradient>
			<path class="st12" d="M137.7,62.8c0.3,1.3-1.7,2.5-1.6,3.6c0,0.7-0.9-1.2-0.8-2.3S137.1,60.2,137.7,62.8z"/>
			
				<linearGradient id="SVGID_11_" gradientUnits="userSpaceOnUse" x1="-238.6911" y1="862.6106" x2="-277.7111" y2="866.5005" gradientTransform="matrix(0.74 0.67 0.67 -0.74 -268.3063 906.0786)">
				<stop  offset="0" style="stop-color:#000061"/>
				<stop  offset="1" style="stop-color:#0065FF"/>
			</linearGradient>
			<path class="st13" d="M123.2,91.1c0.5-3.7,3.9-3,4.2,0.1c0.6,4.9-2.4,10.6-3.5,16.2c-0.4-1.1-0.7-1.4-1.2-1.5
				c-0.5-0.1-1,0-1.4,0.3C122.7,98.8,122.7,95,123.2,91.1z"/>
			
				<linearGradient id="SVGID_12_" gradientUnits="userSpaceOnUse" x1="154.5918" y1="-42.2528" x2="139.9318" y2="-45.1129" gradientTransform="matrix(0.9821 -0.1886 -0.1886 -0.9821 -15.1953 86.7706)">
				<stop  offset="0" style="stop-color:#000061"/>
				<stop  offset="1" style="stop-color:#0065FF"/>
			</linearGradient>
			<path class="st14" d="M150.4,101.7c0,0,3.9-0.5,0.5-7.6l-11.5,2.2c0,0-2.2,4.5,3,7L150.4,101.7z"/>
			
				<linearGradient id="SVGID_13_" gradientUnits="userSpaceOnUse" x1="153.1646" y1="-34.9169" x2="138.4946" y2="-37.7769" gradientTransform="matrix(0.9821 -0.1886 -0.1886 -0.9821 -15.1953 86.7706)">
				<stop  offset="0" style="stop-color:#000061"/>
				<stop  offset="1" style="stop-color:#0065FF"/>
			</linearGradient>
			<path class="st15" d="M124.2,92.3c-1.2-1-1.3-5.3,3.6-2.8c2.2,1.1,14.3,6.7,15.5,7.2c0.9,0.4,1.6,1.3,1.6,2.3
				c0,3.3-3.5,4.5-7.8,1.9C134.3,99.2,126.7,94.3,124.2,92.3z"/>
			
				<linearGradient id="SVGID_14_" gradientUnits="userSpaceOnUse" x1="133.3726" y1="-61.1792" x2="165.2826" y2="-10.6892" gradientTransform="matrix(0.9821 -0.1886 -0.1886 -0.9821 -15.1953 86.7706)">
				<stop  offset="0" style="stop-color:#000061"/>
				<stop  offset="1" style="stop-color:#0065FF"/>
			</linearGradient>
			<path class="st16" d="M130,109.4c1.3-3.8,5-2.3,4.5,0.8c-0.7,4.3-8,14.9-9.5,17.1c-0.2,0.3-0.3,0.1-0.4,0
				c-0.4-0.5-0.7-0.8-0.9-0.9c-0.3,0-0.6,0-0.9,0C124.3,123.2,128.7,113.1,130,109.4z"/>
			
				<linearGradient id="SVGID_15_" gradientUnits="userSpaceOnUse" x1="138.8918" y1="-64.666" x2="170.8018" y2="-14.186" gradientTransform="matrix(0.9821 -0.1886 -0.1886 -0.9821 -15.1953 86.7706)">
				<stop  offset="0" style="stop-color:#000061"/>
				<stop  offset="1" style="stop-color:#0065FF"/>
			</linearGradient>
			<path class="st17" d="M144,97.2c4.4-2.3,8.5-1.1,8.1,2.2c-0.3,1.3-1.1,2.4-2.4,3c-1.1,0.7-13.1,6.6-15.1,7.9
				c-4.7,2.8-5-1.6-3.8-2.6C134,105.1,141.7,98.4,144,97.2z"/>
			<ellipse transform="matrix(0.2 -0.9798 0.9798 0.2 50.8392 194.6668)" class="st6" cx="144.6" cy="66.2" rx="1.6" ry="0.8"/>
			<g>
				<defs>
					<path id="SVGID_16_" d="M150.8,94.1c-0.1-0.3-1.2-2.7-1.3-3c-0.4-0.8-0.7-1.6-0.9-2.4c-0.1-0.4-0.3-0.9-0.4-1.4
						c0.9-0.6,1.8-1.2,2.6-1.9c0.2-0.1,0.3-0.3,0.4-0.5c0.1-0.1,0.1-0.2,0.1-0.4c0-0.1,0-0.1,0-0.2l0,0c-0.1-2.4-0.6-4.7-1.3-7
						c-0.4-1.5-0.9-3-1.5-4.5c-0.1-0.4-0.4-0.7-0.7-0.9c-0.4-0.3-1-0.5-1.5-0.5c0.5-3.9-0.1-7.3-3.1-9.8c-1.8-1.5-6.7-3.2-8.5,3.7
						s-13.3,10.7-10.4,18.2c0.8,1.9,2.2,3.4,4.1,4.3l-0.2,0.1c-0.3,0-0.5,0-0.8,0c-0.8,0.1-1.2,0.6-1,0.8l0.1,0.1
						c-0.3-0.1-0.5-0.1-0.8-0.1c-0.3,0-0.6,0-0.8,0.1c-0.4,0.1-0.7,0.4-0.9,0.8c-0.3,0.5-0.5,1-0.5,1.6c-0.5,3.9-0.5,7.7-1.8,15.1
						l0,0c0,0,0,0.1-0.1,0.1c-0.3,0.6-0.8,1.2-1.4,1.5c-0.8,0.6-2.6,1.1-1.5,1.2c1,0.1,1.9-0.1,2.8-0.5c0.6-0.2,1.2-0.4,1.9-0.5
						c0.7-0.1,0.9-0.2,0.8-0.7l0,0c0.9-4.4,2.8-8.9,3.4-12.9c3.3,2.3,7.8,5.1,9.8,6.3c0.4,0.2,0.8,0.4,1.2,0.6
						c-2.8,2.3-5.7,4.8-7.4,6.2c-0.3,0.2-0.4,0.6-0.5,0.9c-0.2,0.3-0.3,0.5-0.4,0.8c-1.3,3.7-5.7,13.8-7.3,17l0,0
						c0,0-0.1,0.1-0.1,0.1c-0.4,0.6-0.9,1-1.6,1.3c-0.9,0.5-2.7,0.7-1.7,1c1,0.2,1.9,0.1,2.9-0.1c0.6-0.1,1.3-0.2,1.9-0.2
						c1-0.1,1-0.1,0.8-1.2v-0.1l0,0c1.4-2.1,8.5-12.3,9.4-16.8l0.3-0.1c2.1-1.2,14-7.2,15.1-7.9c0.6-0.3,1.1-0.7,1.5-1.2
						C152.2,100.4,153,98.6,150.8,94.1z M148.5,83.8l-0.8,0.6c0-1,0-2,0-3C148.1,82.5,148.4,83.3,148.5,83.8L148.5,83.8z
						 M150.7,94.1l-1.1,0.2L150.7,94.1z M148.8,94.4l-0.4,0.1L148.8,94.4z M144.9,95.2l0.9-0.2L144.9,95.2z M127.9,89.5l0.2-0.1
						c0.5,0.1,0.8-0.4,2.1-0.9c3,0.8,6.2,0.4,9-1.1c0.2,2.5,0.2,4.9,0.1,7.4C135.3,93,129.6,90.3,127.9,89.5L127.9,89.5z"/>
				</defs>
				<clipPath id="SVGID_17_">
					<use xlink:href="#SVGID_16_"  style="overflow:visible;"/>
				</clipPath>
				<g class="st18">
					
						<linearGradient id="SVGID_18_" gradientUnits="userSpaceOnUse" x1="-274.8189" y1="547.7996" x2="-150.3989" y2="471.3595" gradientTransform="matrix(0.49 -0.68 0.48 0.42 22.0928 -237.2138)">
						<stop  offset="0" style="stop-color:#0000FF"/>
						<stop  offset="1" style="stop-color:#9E005D"/>
					</linearGradient>
					<path class="st19" d="M173,67.5c-8.9-5.3-24.1,1.2-28.5,10.3c-4.5,9.3,3.7,14.5-5.3,27.2c-7.2,10.1-2.1,22-1.8,31.1
						c0.4,10-14.3,17.6-13.4,26.5c1.9,20.7-14.8,28.3,1.9,33.7c17.2,5.6,18.1-3.6,37.5-2.4c16.8,1,22.4-33.5,22.4-46.9
						c0.1-14.1-9.6-17.2-3.3-31.8c3.8-8.8,6.6-13.7-3.1-24.1C174.5,86.1,190.1,77.7,173,67.5z"/>
				</g>
			</g>
			<path class="st20" d="M139.1,92.8h-0.2l-3.5-8.3c0.3-0.1,0.4-0.4,0.3-0.7c-0.1-0.2-0.3-0.4-0.6-0.3l-12.4,0.7
				c-0.3,0-0.5,0.3-0.5,0.6c0,0.1,0,0.1,0,0.2l4,9.3c0.1,0.2,0.3,0.3,0.5,0.3l12.4-0.7c0.3,0,0.5-0.3,0.5-0.6
				C139.7,93,139.5,92.8,139.1,92.8L139.1,92.8L139.1,92.8z"/>
			<path class="st20" d="M147.3,93.5l-8.1,0.4c-0.2,0-0.5-0.1-0.5-0.3l-4-9.3c-0.2-0.3-0.1-0.6,0.2-0.8c0.3-0.2,0.6-0.1,0.8,0.2
				c0,0,0,0.1,0.1,0.1l3.8,9l7.7-0.4c0.3,0,0.6,0.2,0.6,0.5C147.8,93.2,147.5,93.4,147.3,93.5L147.3,93.5L147.3,93.5z"/>
			<polygon class="st20" points="127,89.4 132.3,89.1 132.1,88.7 126.8,89 			"/>
			<polygon class="st20" points="129.2,90 132.7,89.8 132.5,89.4 128.9,89.6 			"/>
			<path class="st21" d="M266.9,83.3l3.5,24.3c0.2,1.5-0.8,2.8-2.3,3l-24.3,3.5c-0.3,0-0.5,0-0.8,0l0,0c-1.2-0.2-2.1-1.1-2.2-2.3
				l-3.5-24.3c-0.2-1.5,0.8-2.8,2.3-3l24.2-3.5C265.3,80.8,266.7,81.8,266.9,83.3C266.9,83.3,266.9,83.3,266.9,83.3z"/>
			<path class="st22" d="M252.1,82.7l-0.3,30.3l-7.9,1.1c-0.3,0-0.5,0-0.8,0l0.3-30.1L252.1,82.7z"/>
			<polygon class="st22" points="258.1,81.8 257.8,112.1 253.5,112.7 253.8,82.4 			"/>
			<path class="st21" d="M260.6,90.4c-2.3-1.9-5.6-1.6-7.5,0.7c-0.1,0.1-0.1,0.1-0.2,0.2c-2.4-1.8-5.7-1.3-7.5,1.1
				c0,0.1-0.1,0.1-0.1,0.2c-1.6,2.4-1,5.6,1.3,7.3l6.8,5.1c0.9,0.7,2.2,0.5,2.9-0.4c0,0,0,0,0,0l5-6.8
				C263.2,95.5,262.8,92.2,260.6,90.4z"/>
			<path class="st21" d="M156.2,180.6c-0.4,0.6-0.9,1.1-1.5,1.6l-5.5,3.9c-2.9-3.9-5.4-8.1-7.6-12.4c-1.3-2.4-2.3-5-3.1-7.6
				c0-0.1-0.1-0.2-0.1-0.3l12.6-3c0.9,2.6,2,5.2,3.4,7.6c0.6,1,1.2,2.1,2,3.3C157.7,175.8,157.7,178.5,156.2,180.6z"/>
			<path class="st21" d="M155.8,202.5l-11,7.9c-10.4-14.6-15.9-25.7-18.8-32.7c-1.1-2.6-2-5.3-2.8-8l4-0.9l10.1-2.4l1.2-0.3l9.8-2.4
				v-0.1c0.8,2.6,1.8,5.1,3,7.6c1.2,2.6,2.8,5.7,4.9,9.5c0.9,1.5,1.8,3.2,2.9,4.9C162.8,191.1,161.2,198.6,155.8,202.5z"/>
			<path class="st21" d="M212.2,174.2l-38.8-6c-4.6-0.7-9.3-0.5-13.9,0.7l-5.2,1.3l-3.1,0.8l-9.7,2.5l-1.4,0.4l-10.1,2.6l-4.1,1.1
				l-3,0.8c-9.8,2.5-19.8-3.3-22.3-13.1l-6.3-23.8l-1.8-7c-2.5-9.8,3.3-19.8,13.2-22.3l7.1-1.8l10.1-2.6l19.4-5
				c4.5-1.2,8.8-3.3,12.5-6.1l31-24.1c2.8-2.1,6.8-1.6,8.9,1.2c0.5,0.7,0.9,1.4,1.1,2.2l2,7.7l12.6,48.5l8.9,34.3
				c0.9,3.4-1.2,6.9-4.6,7.7C213.9,174.3,213.1,174.3,212.2,174.2z"/>
			<path class="st21" d="M193.4,81L193.4,81c1.9-0.5,3.9,0.7,4.4,2.6c0,0,0,0,0,0l19.5,75c0.5,1.9-0.7,3.9-2.6,4.4c0,0,0,0,0,0l0,0
				c-1.9,0.5-3.9-0.7-4.4-2.6c0,0,0,0,0,0l-19.5-75.1C190.4,83.5,191.5,81.5,193.4,81z"/>
			<path class="st21" d="M140.2,174l-10.1,2.6c-8.2-21.4-14-43.6-17.2-66.3l10.1-2.6C126.1,130.4,131.9,152.6,140.2,174z"/>
			<path class="st21" d="M228.3,76.1l-2.4,16.6c-0.1,1-1.1,1.7-2.1,1.6L207.3,92c-0.2,0-0.4-0.1-0.5-0.2l0,0c-0.7-0.4-1.1-1.1-1-1.9
				l2.4-16.6c0.1-1,1.1-1.7,2.1-1.6l16.6,2.3C227.7,74.3,228.4,75.2,228.3,76.1z"/>
			<path class="st23" d="M218.7,72.9l-6,19.8l-5.4-0.7c-0.2,0-0.4-0.1-0.5-0.2l6-19.7L218.7,72.9z"/>
			<polygon class="st23" points="222.8,73.5 216.8,93.3 213.9,92.9 219.9,73.1 			"/>
			<path class="st21" d="M217.3,77c-0.5-0.4-1.3-0.3-1.7,0.3c-0.7,1.2-1.6,2.4-2.6,3.4l-1.1-0.2c-0.1,0-0.2,0-0.2,0.1c0,0,0,0,0,0
				l-0.9,6c0,0.1,0,0.2,0.1,0.2c0,0,0,0,0,0l0.9,0.1c0.4,1,1.3,1.8,2.4,1.9l0.5,0.1l3.3,0.5l0.7,0.1c0.7,0.1,1.3-0.3,1.4-1
				c0.1-0.4,0-0.7-0.3-1l0.5,0.1c0.7,0.1,1.3-0.4,1.3-1.1c0-0.3-0.1-0.7-0.3-0.9c0.7-0.1,1.1-0.8,0.9-1.4c-0.1-0.5-0.5-0.9-1-1l0,0
				c0.5-0.4,0.7-1.1,0.3-1.7c-0.2-0.3-0.5-0.5-0.8-0.5l-4.6-0.7C217,79.2,218.3,77.6,217.3,77z"/>
			<path class="st21" d="M148,39.7l-40,8.2c-1,0.2-1.6,1.1-1.4,2.1c0,0,0,0,0,0l2.4,11.7c0.2,1,1.1,1.6,2.1,1.4c0,0,0,0,0,0l3.9-0.8
				l1.9-0.4c0.4,0.4,1.5,1.3,2,1.6c0.4,0.3,0.9,0.2,1.2-0.2c0,0,0,0,0-0.1c0.3-0.5,0.9-1.8,1.2-2.3l9.7-2l20-4.1
				c1-0.2,1.6-1.1,1.4-2.1c0,0,0,0,0,0L150.2,41C150,40.1,149,39.5,148,39.7C148,39.7,148,39.7,148,39.7z"/>
			<path class="st21" d="M117.1,54.3c0.3-0.5,0.5-1,0.3-1.6l-0.2-1c-0.2-1-1.2-1.7-2.3-1.6c-1.1,0.2-1.8,1.2-1.6,2.3c0,0,0,0,0,0
				l0.2,1c0.1,0.5,0.5,1,0.9,1.3c-1.2,0.7-2,2-2.1,3.4c0,0.5,0.4,0.9,0.8,0.9c0.1,0,0.1,0,0.2,0l6.3-1.3c0.5-0.1,0.8-0.5,0.7-1
				c0-0.1,0-0.1-0.1-0.2C119.7,55.3,118.5,54.4,117.1,54.3z"/>
			<path class="st21" d="M132.7,46.5l-8,1.6c-0.6,0.1-1.1,0.8-0.9,1.4l0.8,3.9c0.1,0.6,0.8,1.1,1.4,0.9l0.8-0.2c0,0,1.3,1.1,1.8,1.5
				c0.3,0.2,0.8,0.1,1-0.2c0,0,0,0,0,0c0.3-0.5,1-2,1-2l3.4-0.7c0.6-0.1,1.1-0.8,0.9-1.4l-0.8-3.9C133.9,46.9,133.3,46.4,132.7,46.5
				z"/>
			<path class="st21" d="M132.4,48.6l-6.5,1.3c-0.2,0.1-0.4,0-0.5-0.2c-0.1-0.2,0-0.4,0.2-0.5c0,0,0.1,0,0.1,0l6.5-1.3
				c0.2-0.1,0.4,0,0.5,0.2C132.7,48.3,132.6,48.5,132.4,48.6C132.4,48.6,132.4,48.6,132.4,48.6z"/>
			<path class="st21" d="M132.7,50.3l-6.5,1.3c-0.2,0-0.4-0.1-0.4-0.3c0-0.2,0.1-0.3,0.2-0.4l6.5-1.3c0.2,0,0.4,0.1,0.4,0.3
				C133,50.1,132.9,50.2,132.7,50.3z"/>
			<path class="st21" d="M129.5,52.7l-2.9,0.6c-0.2,0.1-0.4,0-0.5-0.2c-0.1-0.2,0-0.4,0.2-0.5c0,0,0.1,0,0.1,0l2.9-0.6
				c0.2-0.1,0.4,0,0.5,0.2C129.9,52.4,129.8,52.6,129.5,52.7C129.6,52.7,129.5,52.7,129.5,52.7z"/>
			<path class="st21" d="M148.5,50.2c-0.2-0.8-0.6-1.5-1.1-2l-0.2-0.8c-0.3-1.4-1.6-2.4-3-2.4l-0.1-0.3c0-0.3-0.2-0.5-0.5-0.5
				c-0.3,0-0.5,0.2-0.5,0.5c0,0.1,0,0.1,0,0.2l0.1,0.3c-1.3,0.5-2.1,1.9-1.8,3.3l0.2,0.8l0,0c-0.3,0.7-0.4,1.5-0.3,2.3l0.1,0.4
				c0,0.2,0.2,0.3,0.4,0.3c0,0,0,0,0,0l1.4-0.3c0,0.1,0.1,0.2,0.2,0.3c1.2,0.5,2.6,0.2,3.4-0.7c0.1-0.1,0.1-0.2,0.1-0.3l1.4-0.3
				c0.2,0,0.3-0.2,0.3-0.4c0,0,0,0,0,0L148.5,50.2z"/>
			
				<ellipse transform="matrix(0.9799 -0.1995 0.1995 0.9799 -7.5559 29.1555)" class="st21" cx="140.9" cy="52.1" rx="1.6" ry="1.6"/>
			<path class="st21" d="M292.2,80.8l-14.3-5.3c-1.2-0.4-2.5,0.1-2.9,1.3c0,0,0,0,0,0l-3.4,9.3c-0.4,1.2,0.2,2.5,1.3,2.9l1.4,0.5
				c0,0,1,3.1,1.4,4.1c0.3,0.7,1.1,1,1.8,0.7c0,0,0.1,0,0.1,0c1-0.5,3.7-2.2,3.7-2.2l6,2.2c1.2,0.4,2.5-0.2,2.9-1.3l3.4-9.3
				C294,82.6,293.4,81.3,292.2,80.8z"/>
			<path class="st21" d="M289.3,84.7l-11.6-4.3c-0.4-0.1-0.6-0.5-0.5-0.9c0.1-0.4,0.5-0.6,0.9-0.5c0,0,0,0,0.1,0l11.6,4.3
				c0.4,0.1,0.6,0.5,0.5,0.9C290.1,84.6,289.7,84.9,289.3,84.7C289.3,84.7,289.3,84.7,289.3,84.7z"/>
			<path class="st21" d="M288.1,88l-11.6-4.3c-0.4-0.2-0.5-0.6-0.4-1c0.1-0.3,0.5-0.5,0.9-0.4l11.6,4.3c0.4,0.2,0.5,0.6,0.4,1
				C288.8,87.9,288.4,88.1,288.1,88z"/>
			<path class="st21" d="M280.5,88.9l-5.2-1.9c-0.4-0.2-0.5-0.6-0.4-1c0.1-0.3,0.5-0.5,0.9-0.4l5.2,1.9c0.4,0.2,0.5,0.6,0.4,1
				C281.2,88.9,280.9,89,280.5,88.9L280.5,88.9z"/>
			<path class="st21" d="M249.7,58.7l5.7,7.6l-15.6-2.2l7.6-5.8C248.2,57.9,249.2,58,249.7,58.7z"/>
			<path class="st21" d="M255.4,66.4l-1,7.3c-0.1,0.4-0.4,0.7-0.8,0.6c0,0,0,0,0,0l-14.1-2c-0.4-0.1-0.7-0.4-0.6-0.8c0,0,0,0,0,0
				l1-7.3c0.1-0.4,0.4-0.7,0.8-0.6c0,0,0,0,0,0l14.1,2C255.2,65.6,255.5,66,255.4,66.4C255.4,66.4,255.4,66.4,255.4,66.4L255.4,66.4
				z"/>
			<path class="st21" d="M255.3,65.8l-1.8,1l-4.9,2.9c-1,0.6-2.4,0.4-3.2-0.5l-3.9-4.1l-1.4-1.5c0.2-0.1,0.3-0.1,0.5-0.1l14.1,2
				C255,65.5,255.1,65.6,255.3,65.8z"/>
			<path class="st21" d="M254.2,62l-0.7,4.8l-4.9,2.9c-1,0.6-2.4,0.4-3.2-0.5l-3.9-4.1l0.7-4.8c0.1-0.8,0.8-1.3,1.6-1.2l9.2,1.3
				C253.8,60.5,254.3,61.2,254.2,62C254.2,62,254.2,62,254.2,62z"/>
			<path class="st21" d="M251.7,63.1l-7.5-1.1c-0.2-0.1-0.4-0.3-0.3-0.6c0.1-0.2,0.2-0.3,0.4-0.3l7.5,1.1c0.2,0.1,0.4,0.3,0.3,0.6
				C252.1,63,251.9,63.1,251.7,63.1z"/>
			<path class="st21" d="M251.4,65.3l-7.4-1.1c-0.2-0.1-0.4-0.3-0.3-0.6c0.1-0.2,0.2-0.3,0.4-0.3l7.5,1.1c0.2,0.1,0.4,0.3,0.3,0.6
				C251.8,65.1,251.7,65.3,251.4,65.3L251.4,65.3z"/>
			<path class="st21" d="M247,66.8l-3.4-0.5c-0.2,0-0.5-0.2-0.5-0.4c0-0.2,0.2-0.5,0.4-0.5c0,0,0.1,0,0.1,0l3.4,0.5
				c0.2,0.1,0.4,0.3,0.3,0.6C247.4,66.7,247.2,66.8,247,66.8z"/>
			<path class="st21" d="M107.4,187.1l8.3,1.8l-11.8,7.6l1.8-8.3C105.9,187.5,106.6,187,107.4,187.1
				C107.4,187.1,107.4,187.1,107.4,187.1z"/>
			<path class="st21" d="M115.7,189l3.6,5.5c0.2,0.3,0.1,0.7-0.2,0.9l-10.7,6.9c-0.3,0.2-0.7,0.1-0.9-0.2l-3.6-5.5
				c-0.2-0.3-0.1-0.7,0.2-0.9l10.7-6.9C115.1,188.6,115.5,188.7,115.7,189z"/>
			<path class="st21" d="M115.3,188.7l-0.6,1.7l-1.6,4.8c-0.3,1-1.3,1.7-2.4,1.6l-5-0.5l-1.8-0.2c0-0.2,0.1-0.3,0.3-0.4l10.7-6.9
				C114.9,188.7,115.1,188.6,115.3,188.7z"/>
			<path class="st21" d="M112.3,186.7l2.3,3.7l-1.6,4.8c-0.3,1-1.3,1.7-2.4,1.6l-5-0.5l-2.3-3.7c-0.4-0.6-0.2-1.3,0.4-1.7l7-4.5
				C111.2,186,112,186.2,112.3,186.7z"/>
			<path class="st21" d="M111.4,188.9l-5.6,3.6c-0.2,0.1-0.4,0.1-0.6-0.1c-0.1-0.2-0.1-0.4,0.1-0.6c0,0,0,0,0.1,0l5.6-3.6
				c0.2-0.1,0.4-0.1,0.6,0.1C111.6,188.5,111.6,188.7,111.4,188.9C111.4,188.9,111.4,188.9,111.4,188.9z"/>
			<path class="st21" d="M112.4,190.5l-5.6,3.6c-0.2,0.1-0.4,0.1-0.6-0.1c-0.1-0.2-0.1-0.4,0.1-0.6c0,0,0,0,0.1,0l5.6-3.6
				c0.2-0.1,0.4,0,0.5,0.2C112.6,190.2,112.5,190.4,112.4,190.5z"/>
			<path class="st21" d="M110.3,194.1l-2.5,1.6c-0.2,0.1-0.4,0-0.5-0.2c-0.1-0.2,0-0.4,0.1-0.5l2.5-1.6c0.2-0.1,0.4-0.1,0.6,0.1
				C110.6,193.7,110.5,193.9,110.3,194.1C110.4,194.1,110.3,194.1,110.3,194.1z"/>
			<path class="st21" d="M189.1,186l-3.2,2.1l1-4.8c0.2-1-0.4-1.9-1.4-2.1l-13.2-2.7c-1-0.2-1.9,0.4-2.1,1.4l-2.7,13.2
				c-0.2,1,0.4,1.9,1.4,2.1l13.1,2.7c1,0.2,1.9-0.4,2.1-1.4l1-4.8l2.1,3.2c0.3,0.5,1,0.6,1.5,0.3c0.2-0.2,0.4-0.4,0.5-0.7l1.5-7.5
				c0.1-0.6-0.3-1.1-0.9-1.2C189.6,185.8,189.3,185.9,189.1,186z"/>
			<polygon class="st21" points="176.5,184 174.9,191.8 179.6,188.7 			"/>
			
				<rect x="231.6" y="111.7" transform="matrix(0.6099 -0.7925 0.7925 0.6099 1.7706 228.6162)" class="st20" width="3" height="1.6"/>
			<path class="st20" d="M226.2,121.4L226.2,121.4c0.6,0.5,1.5,0.4,2-0.3c0,0,0,0,0,0l5.2-7.4l-1.7-1.3l-5.8,6.9
				C225.5,120,225.6,120.9,226.2,121.4C226.2,121.4,226.2,121.4,226.2,121.4z"/>
			<path class="st24" d="M231.2,106.5c0.5,4,4.2,6.8,8.2,6.3c1.7-0.2,3.2-1,4.3-2.2c0.4-0.4,0.7-0.9,1-1.4c0.2-0.3,0.3-0.6,0.5-0.9
				c0.4-1,0.6-2.1,0.5-3.1c0-0.2,0-0.4-0.1-0.6c-0.5-4-4.2-6.8-8.2-6.3l-0.6,0.1c-1,0.2-2,0.7-2.9,1.3c-0.3,0.2-0.5,0.4-0.8,0.7
				c-0.4,0.4-0.7,0.9-1,1.3C231.4,103.1,231,104.8,231.2,106.5z"/>
			<path class="st25" d="M234.1,99.7l11.2,8.6c0.4-1,0.6-2.1,0.5-3.1l-8.8-6.8C235.9,98.6,234.9,99,234.1,99.7z"/>
			<path class="st25" d="M232.2,101.7l11.5,8.9c0.4-0.4,0.7-0.9,1-1.4l-11.5-8.8C232.9,100.8,232.5,101.2,232.2,101.7z"/>
			<path class="st20" d="M239.6,113.9c-4.6,0.6-8.8-2.7-9.4-7.3c-0.3-2.2,0.3-4.5,1.7-6.2l0,0c2.8-3.7,8.1-4.4,11.8-1.5
				c3.7,2.8,4.4,8.1,1.5,11.8C243.8,112.4,241.8,113.6,239.6,113.9z M237.7,99.4c-1.6,0.2-3.1,1.1-4.1,2.4l0,0
				c-2.1,2.7-1.6,6.6,1.1,8.7c2.7,2.1,6.6,1.6,8.7-1.1s1.6-6.6-1.1-8.7C240.9,99.6,239.3,99.2,237.7,99.4z"/>
			<path class="st6" d="M232.1,119.4c-0.3-0.8-2-5.8-3-4.9c-1.9,1.9-1.4,3-1.1,3.8c0.4,1.3,1.6,2.2,3,2.3
				C231.7,120.5,232.4,120.1,232.1,119.4z"/>
			<path class="st6" d="M232.3,118.9c0-0.4,0.1-2.9-0.3-2.9c-0.6-0.1-1,1.5-1.1,2.4c-0.1,0.5,0.4,1.4,0.9,1.4
				S232.2,119.5,232.3,118.9z"/>
			
				<linearGradient id="SVGID_19_" gradientUnits="userSpaceOnUse" x1="257.8481" y1="52.9479" x2="287.3582" y2="59.3979" gradientTransform="matrix(1 -6.000000e-02 -6.000000e-02 -1 -1.2566 216.82)">
				<stop  offset="0" style="stop-color:#F70F47"/>
				<stop  offset="1" style="stop-color:#9E005D"/>
			</linearGradient>
			<path class="st26" d="M267.1,152c-0.4-4.2-0.7-5.2-1.9-7.6l0,0c0,0,0-0.1,0-0.1c-0.5-0.8-2-2.5-6.4-5.4c-1.6-1.1-3.2-2-4.9-2.8
				c-1-0.6-2.4-0.3-3,0.8c-0.1,0.1-0.2,0.3-0.2,0.5c-0.1,1.5,0.7,3.6,1.6,4.1c4.6,2.6,8.3,4.3,9.3,5.1c0.2,0.1,0.4,0.2,0.6,0.3
				c0,0.1,0,0.3,0,0.4c0.4,2,3.2,8.6,3.5,9.8c0.1,0.8,1.1,1,1.5,0.1C267.7,155.9,267.4,154.9,267.1,152z"/>
			
				<linearGradient id="SVGID_20_" gradientUnits="userSpaceOnUse" x1="224.9244" y1="1.8088" x2="232.0799" y2="1.8088" gradientTransform="matrix(1 -6.000000e-02 -6.000000e-02 -1 -1.2466 216.82)">
				<stop  offset="0" style="stop-color:#F70F47"/>
				<stop  offset="1" style="stop-color:#FFB41D"/>
			</linearGradient>
			<path class="st27" d="M225.9,199.8c-0.2,0.9-0.7,1.7-1.3,2.3c-0.8,0.9-2.9,2.2-1.5,2c1.2-0.3,2.4-0.8,3.4-1.5
				c0.7-0.5,1.5-0.9,2.2-1.2c1.1-0.5,1.1-0.6,0.4-1.8C228.1,198.1,226,198.6,225.9,199.8z"/>
			
				<linearGradient id="SVGID_21_" gradientUnits="userSpaceOnUse" x1="254.4744" y1="-17.0598" x2="258.9144" y2="-17.0598" gradientTransform="matrix(1 -6.000000e-02 -6.000000e-02 -1 -1.2566 216.82)">
				<stop  offset="0" style="stop-color:#F70F47"/>
				<stop  offset="1" style="stop-color:#FFB41D"/>
			</linearGradient>
			<path class="st28" d="M253.8,216.9c0.3,0.9,0.4,1.8,0.2,2.7c-0.2,1.2-1.3,3.4-0.2,2.5c0.9-0.9,1.6-2,2-3.1
				c0.3-0.8,0.7-1.5,1.2-2.2c0.6-1.1,0.6-1.1-0.6-1.7C254.6,214.3,253.1,215.9,253.8,216.9z"/>
			<path class="st6" d="M253.3,129.3c-0.4,2.5-0.5,3-1.6,4c-1.2,0.8-2.6,1.2-4.1,1c-1.3-0.1-2.1-1.7-2.3-2.7c-0.4-2-0.4-4,0-5.9
				c0.5-1.7,2.1-2.9,3.8-2.9C251,122.8,254.2,123.2,253.3,129.3z"/>
			<path class="st6" d="M251.8,133.7c0,0.9,0,1.9,0,2.8c0,1.2-1,2.2-2.2,2.3h-0.1c-1.1-0.1-2.3-1.1-2.2-2.2c0.1-0.7,0.2-1.4,0.2-2
				c0.1-1.2,0.9-2.2,2-2.6l0,0c0.9-0.3,1.9,0.2,2.2,1.2C251.8,133.4,251.8,133.5,251.8,133.7z"/>
			
				<linearGradient id="SVGID_22_" gradientUnits="userSpaceOnUse" x1="243.7455" y1="23.7149" x2="259.0255" y2="80.6849" gradientTransform="matrix(1 -6.000000e-02 -6.000000e-02 -1 -1.2566 216.82)">
				<stop  offset="0" style="stop-color:#F70F47"/>
				<stop  offset="1" style="stop-color:#9E005D"/>
			</linearGradient>
			<path class="st29" d="M256.3,144.6c-2.1,5.8-3.2,11.9-3.2,18l-15.2-0.6c0,0,0.8-14.2,2.2-21.9c0.4-1.9,1.6-3.5,3.4-4.3
				c1.3-0.5,2.7-0.7,4.1-0.7l2.8,0.1c1,0,2,0.2,2.9,0.5C257.5,137.1,257.6,140.9,256.3,144.6z"/>
			
				<linearGradient id="SVGID_23_" gradientUnits="userSpaceOnUse" x1="354.8825" y1="77.5623" x2="354.8825" y2="142.9323" gradientTransform="matrix(0.9988 4.902409e-02 4.902409e-02 -0.9988 -116.3863 296.8)">
				<stop  offset="0" style="stop-color:#000061"/>
				<stop  offset="1" style="stop-color:#0065FF"/>
			</linearGradient>
			<path class="st30" d="M252.6,172c0,0,1.5-3.1,0.5-9.3l-15.2-0.7c-0.5,3.1-0.8,6.2-1,9.3L252.6,172z"/>
			
				<linearGradient id="SVGID_24_" gradientUnits="userSpaceOnUse" x1="382.2884" y1="-167.5303" x2="382.2884" y2="-102.1603" gradientTransform="matrix(0.9839 -0.1786 -0.1786 -0.9839 -149.2982 141.3189)">
				<stop  offset="0" style="stop-color:#000061"/>
				<stop  offset="1" style="stop-color:#0065FF"/>
			</linearGradient>
			<path class="st31" d="M245.1,193.9c-2.1-4.6,2.7-6.4,4.9-3.2c3.1,4.6,5.8,20.5,6.3,23.7c0.1,0.4,0.2,0.9,0,1.1
				c-0.5,0.3-1,0.5-1.5,0.5c-0.6,0.1-1.1,0.2-1.3-0.5C252.3,211,247.1,198.4,245.1,193.9z"/>
			
				<linearGradient id="SVGID_25_" gradientUnits="userSpaceOnUse" x1="302.5511" y1="265.4656" x2="302.5511" y2="330.8356" gradientTransform="matrix(0.9729 0.2312 0.2312 -0.9729 -121.4137 424.1779)">
				<stop  offset="0" style="stop-color:#000061"/>
				<stop  offset="1" style="stop-color:#0065FF"/>
			</linearGradient>
			<path class="st32" d="M244.4,171.9c0.9-6.1,4.4-10.2,7.6-7.3c1.2,1.2,1.7,2.9,1.4,4.6c-0.2,1.6-2.9,18.1-3.2,21.2
				c-0.7,6.8-5.5,3.8-5.6,1.8C244.3,187.3,243.9,175.2,244.4,171.9z"/>
			
				<linearGradient id="SVGID_26_" gradientUnits="userSpaceOnUse" x1="263.5625" y1="-399.8661" x2="263.5625" y2="-335.1961" gradientTransform="matrix(0.9996 -2.722377e-02 -2.722377e-02 -0.9996 -45.8211 -172.4081)">
				<stop  offset="0" style="stop-color:#000061"/>
				<stop  offset="1" style="stop-color:#0065FF"/>
			</linearGradient>
			<path class="st33" d="M229.1,199.6c0-7.2,2.6-19.6,0.6-25.4c-1.2-3.7-5.7-3.7-5.4,0.9c0.4,4.9,2.1,14.4,1.9,24
				C226.1,199.9,229.1,200.4,229.1,199.6z"/>
			
				<linearGradient id="SVGID_27_" gradientUnits="userSpaceOnUse" x1="-1352.6604" y1="1923.547" x2="-1352.6604" y2="1976.317" gradientTransform="matrix(0.4736 0.8807 0.8807 -0.4736 -858.8295 2295.6987)">
				<stop  offset="0" style="stop-color:#000061"/>
				<stop  offset="1" style="stop-color:#0065FF"/>
			</linearGradient>
			<path class="st34" d="M227.7,177.6c-1.9,0.4-6.6-4.2-0.3-7c2.8-1.2,12.4-6,13.9-6.7s3.7-1.5,4.3-1c3.2,2.9,0.8,8.6-5,10.6
				C236.7,174.8,231.8,176.9,227.7,177.6z"/>
			
				<ellipse transform="matrix(0.9432 -0.3322 0.3322 0.9432 -28.8392 88.7015)" class="st6" cx="245" cy="128.7" rx="0.9" ry="1.7"/>
			
				<ellipse transform="matrix(0.4231 -0.9061 0.9061 0.4231 29.0832 303.9589)" class="st6" cx="253.2" cy="129.1" rx="1.7" ry="0.9"/>
			
				<linearGradient id="SVGID_28_" gradientUnits="userSpaceOnUse" x1="367.4516" y1="170.6638" x2="353.6216" y2="195.1338" gradientTransform="matrix(0.9988 4.902409e-02 4.902409e-02 -0.9988 -116.3863 296.8)">
				<stop  offset="0" style="stop-color:#2C27CE"/>
				<stop  offset="0.65" style="stop-color:#EF1D68"/>
				<stop  offset="1" style="stop-color:#EFBA92"/>
			</linearGradient>
			<path class="st35" d="M252.8,124.3c-1,1.4-5.8,1.3-7.3,0.7s-1.3-3.6,1-3.7c1.2,0.1,0.3,0.3,1.3,0.8
				C248.2,122.3,253.9,122.8,252.8,124.3z"/>
			
				<linearGradient id="SVGID_29_" gradientUnits="userSpaceOnUse" x1="232.6447" y1="81.5088" x2="260.5047" y2="55.5888" gradientTransform="matrix(1 -6.000000e-02 -6.000000e-02 -1 -1.2566 216.82)">
				<stop  offset="0" style="stop-color:#F70F47"/>
				<stop  offset="1" style="stop-color:#9E005D"/>
			</linearGradient>
			<path class="st36" d="M244.8,135.6c-3.9-3.5-7.2-6-8-7l-0.1-0.1c0-0.1,0-0.2-0.1-0.4c-0.6-1.9-4.4-8-5.2-9c-0.4-0.4-1-0.4-1.4,0
				c-0.1,0.1-0.2,0.3-0.3,0.5c-0.3,1.2,0.2,1.3,1,4.3c0.5,2.1,1.2,4.1,2.1,6l0,0c0.2,0.5,0.5,1,0.8,1.5l0,0c1.3,1.9,2.7,3.6,4.3,5.2
				c1.3,1.4,2.7,2.7,4.2,3.8c0.9,0.8,2.2,0.8,3.1-0.1c0.1-0.1,0.2-0.3,0.3-0.4C245.9,138.5,245.5,136.2,244.8,135.6z"/>
			<path class="st6" d="M267.9,158.2c0-0.8-0.5-2.8-1.3-2.6c-1,0.2-1.7,1.1-1.7,2.1c0,1.6,0.9,1.6,1.8,1.8
				C267.4,159.8,267.9,159,267.9,158.2z"/>
			
				<linearGradient id="SVGID_30_" gradientUnits="userSpaceOnUse" x1="366.9889" y1="170.4023" x2="353.1489" y2="194.8723" gradientTransform="matrix(0.9988 4.902409e-02 4.902409e-02 -0.9988 -116.3863 296.8)">
				<stop  offset="0" style="stop-color:#2C27CE"/>
				<stop  offset="0.65" style="stop-color:#EF1D68"/>
				<stop  offset="1" style="stop-color:#EFBA92"/>
			</linearGradient>
			<path class="st37" d="M247.4,123.8c-1.5,0.8-1.9,1.6-1.9,3.4c-0.1,1.8,0.6,4.9,3.9,5.8s4.2-2.4,4.5-4.7s0.3-4-1.4-4.4
				C250.1,123.1,248.4,123.3,247.4,123.8z"/>
			<g>
				<defs>
					<path id="SVGID_31_" d="M267.4,156.2c0.1-1.4,0-2.8-0.3-4.2c-0.4-4.2-0.7-5.2-1.9-7.6l0,0c0,0,0-0.1,0-0.1
						c-0.5-0.8-2-2.5-6.4-5.4c-1.2-0.8-2.5-1.6-3.9-2.3c-0.5-0.3-1-0.6-1.5-0.8c-0.5-0.2-1-0.3-1.6-0.4c0-0.6,0-1.1,0-1.6
						c0-0.1,0-0.3-0.1-0.4c0.5-0.4,0.9-1,1.1-1.6c0.3-0.4,0.5-0.8,0.6-1.3c0.2-0.2,0.4-0.5,0.6-0.8c0.4-0.8,0.4-1.6,0-1.9
						c0.2-1.8,0-3.1-1.1-3.6c0.1-1.2-4.7-1.7-5.2-1.9c-1-0.5-0.1-0.7-1.3-0.8c-2.2,0.1-2.5,3.1-1,3.7h0.1c-0.1,0.2-0.2,0.4-0.2,0.6
						c-0.1,0.6-0.2,1.1-0.2,1.6c-0.2-0.2-0.4-0.2-0.7-0.2c-0.5,0.2-0.6,1-0.3,1.9c0.2,0.5,0.5,0.9,0.9,1.2c0,0.5,0.1,0.9,0.2,1.3
						c0.2,1.1,1,2.6,2.2,2.7c0,0.1,0,0.2,0,0.3s0,0.3,0,0.4c-1,0-2,0.1-2.9,0.4c-3.8-3.4-7-5.8-7.7-6.8l-0.1-0.1
						c0-0.1,0-0.2-0.1-0.4c-0.5-1.6-3.2-6-4.5-8.1c0.1-0.2,0.2-0.4,0.1-0.6c0.1-0.2,0.1-0.4,0.1-0.6c0-0.4,0.1-2.9-0.3-2.9
						c0,0-0.1,0-0.1,0l1.6-2.2l-0.2-0.2l0.7-0.9c3.9,2.5,9.1,1.3,11.6-2.7s1.3-9.1-2.7-11.6c-3.9-2.5-9.1-1.3-11.6,2.7
						c-2.1,3.4-1.6,7.9,1.4,10.6l-0.7,0.9l-0.2-0.2l-1.9,2.2c-0.3-0.3-0.6-0.4-0.8-0.2c-1.2,1.2-1.4,2.1-1.4,2.7l-1.9,2.1
						c-0.5,0.6-0.5,1.5,0.1,2s1.5,0.5,2-0.1c0,0,0.1-0.1,0.1-0.1l0.9-1.2c0.2,0.1,0.3,0.2,0.5,0.3c0,0.7,0.4,1.3,1.1,3.8
						c0.5,2.1,1.2,4.1,2.1,6l0,0c0.2,0.5,0.5,1,0.8,1.5l0,0c1.3,1.9,2.7,3.6,4.3,5.2c1.1,1.1,1.9,1.9,2.5,2.4
						c-0.1,0.3-0.2,0.6-0.3,0.9c-1.4,7.7-2.2,21.9-2.2,21.9s-0.3,1.6-0.5,3.8c-3.5,1.7-8.1,4-10,4.8c-0.8,0.3-1.5,0.8-2.1,1.3
						c-0.2,0.2-0.4,0.4-0.5,0.6c-0.4,0.6-0.6,1.4-0.5,2.1c0,0.1,0,0.3,0,0.4c0.4,4.9,2.1,14.4,1.9,24c0,0.1,0,0.1,0,0.2
						c-0.2,0.2-0.2,0.4-0.3,0.6c-0.2,0.9-0.7,1.7-1.3,2.3c-0.8,0.9-2.9,2.2-1.5,2c1.2-0.3,2.4-0.8,3.4-1.5c0.7-0.5,1.5-0.9,2.2-1.2
						c1.1-0.5,1.1-0.6,0.4-1.8l0,0l0,0c0-6.2,1.9-16.2,1.2-22.6c3.4-1,7.2-2.5,10.4-3.5c1.3-0.4,2.5-1.1,3.6-2h0.3
						c0,0.1,0,0.2-0.1,0.3c-0.5,3.3-0.1,15.3,0.2,20.3c0,0.1,0,0.3,0.1,0.4c0.1,0.4,0.2,0.8,0.4,1.2c2,4.5,7.2,17.1,8.5,21.7
						c0,0.1,0.1,0.3,0.2,0.4c-0.2,0.3-0.2,0.7,0,1c0.3,0.9,0.4,1.8,0.2,2.7c-0.2,1.2-1.3,3.4-0.2,2.5c0.9-0.9,1.6-2,2-3.1
						c0.3-0.8,0.7-1.5,1.2-2.2c0.6-1,0.6-1.1-0.5-1.6c0-0.2-0.1-0.5-0.1-0.7c-0.4-3.2-3.1-18.7-6.2-23.5c0-0.2,0-0.3,0.1-0.5
						c0.3-3,3-19.6,3.2-21.2c0-0.5,0-1,0-1.5c0.1-1.7,0-3.3-0.3-5c0-6.1,1.1-12.2,3.2-18c0.1-0.3,0.2-0.7,0.3-1
						c1.7,0.8,3.4,1.8,5,2.8c0.2,0.1,0.4,0.2,0.6,0.3c0,0.1,0,0.3,0,0.4c0.3,1.8,2.6,7.1,3.3,9.1c-0.4,0.4-0.6,0.9-0.5,1.5
						c0,1.6,0.9,1.6,1.8,1.8c0.7,0.2,1.2-0.7,1.1-1.4C267.8,157.6,267.7,156.9,267.4,156.2z"/>
				</defs>
				<clipPath id="SVGID_32_">
					<use xlink:href="#SVGID_31_"  style="overflow:visible;"/>
				</clipPath>
			</g>
		</g>
	</g>
</g>
</svg>
