<?xml version="1.0" encoding="utf-8"?>
<!-- Generator: Adobe Illustrator 21.0.0, SVG Export Plug-In . SVG Version: 6.00 Build 0)  -->
<svg version="1.1" id="Слой_1" xmlns="http://www.w3.org/2000/svg" xmlns:xlink="http://www.w3.org/1999/xlink" x="0px" y="0px"
	 viewBox="0 0 271.3 262" style="enable-background:new 0 0 271.3 262;" xml:space="preserve">
<style type="text/css">
	.st0{opacity:0.1;fill:#ED0F0F;enable-background:new    ;}
	.st1{fill:#F70F47;}
	.st2{fill:url(#SVGID_1_);}
	.st3{fill:url(#SVGID_2_);}
	.st4{fill:#ED9169;}
	.st5{fill:url(#SVGID_3_);}
	.st6{fill:#FFB41D;}
	.st7{fill:url(#SVGID_4_);}
	.st8{fill:url(#SVGID_5_);}
	.st9{fill:#FFAF84;}
	.st10{fill:none;stroke:#0037FF;stroke-miterlimit:10;}
	.st11{opacity:0.5;fill:none;stroke:#0037FF;stroke-miterlimit:10;enable-background:new    ;}
	.st12{opacity:0.4;fill:none;stroke:#0037FF;stroke-miterlimit:10;enable-background:new    ;}
	.st13{opacity:0.6;}
	.st14{fill:url(#SVGID_8_);}
	.st15{fill:url(#SVGID_9_);}
	.st16{fill:#4E11F4;}
	.st17{fill:url(#SVGID_10_);}
	.st18{fill:url(#SVGID_11_);}
	.st19{fill:url(#SVGID_12_);}
	.st20{fill:url(#SVGID_13_);}
	.st21{fill:url(#SVGID_14_);}
</style>
<title>main-slide2</title>
<g>
	<g id="Слой_2">
		<g id="Designed_by_Freepik">
			<circle class="st0" cx="131" cy="131" r="131"/>
		</g>
		<g id="Objects">
			<path class="st1" d="M101.7,200.9c0.1,0.6,0.2,1.2,0.2,1.8c0.1,0.7,0.8,1,1.2,1.6s1.1,1.7-1.5,1.7c-2.8,0.1-4.5-0.1-4-1.7
				c0.3-0.9,0.5-1.8,0.5-2.7c-0.1-0.5,0-1,0.3-1.3C98.8,199.9,101.3,199.4,101.7,200.9z"/>
			
				<linearGradient id="SVGID_1_" gradientUnits="userSpaceOnUse" x1="143.7576" y1="162.8787" x2="122.1676" y2="156.9287" gradientTransform="matrix(1 0 0 -1 0 261.89)">
				<stop  offset="0" style="stop-color:#F70F47"/>
				<stop  offset="1" style="stop-color:#9E005D"/>
			</linearGradient>
			<path class="st2" d="M140,94.5c0.1,1.6,0,2.7-1.9,5.9c-1.6,3.1-3.6,5.9-5.9,8.5c-1.6,1.7-5-2.5-3.5-5.2c1.3-2.3,8.6-8.4,9.4-9.8
				C138.7,93.1,139.9,93.2,140,94.5z"/>
			
				<linearGradient id="SVGID_2_" gradientUnits="userSpaceOnUse" x1="143.7786" y1="162.8089" x2="122.1886" y2="156.8589" gradientTransform="matrix(1 0 0 -1 0 261.89)">
				<stop  offset="0" style="stop-color:#F70F47"/>
				<stop  offset="1" style="stop-color:#9E005D"/>
			</linearGradient>
			<path class="st3" d="M131.3,109.3c-1.2,0.2-4,0.4-10.7-1.1c-2.4-0.5-4.7-1.1-7-2c-2.2-0.8-2.5-3.2-1.7-4c1.3-1.4,4-2.5,5.2-2.2
				c6.5,2,11.4,3.9,13,4.1C132.6,104.3,132.8,109,131.3,109.3z"/>
			<path class="st1" d="M114.2,91.7c1.2,0.6,1.7,0.6,2.1-0.9c0.3-1.1,0.9-5.1-0.9-5.3s-3.2-0.3-3,2.1S112.8,91,114.2,91.7z"/>
			<path class="st4" d="M107.4,93.8c0,0.2-0.4,4-0.5,6.9c0.1,1.5,1.3,2.7,2.8,2.8h0.1c1.4,0,3-1.3,2.9-2.7c-0.1-1.7-0.1-3.4,0-5.2
				L107.4,93.8z"/>
			
				<linearGradient id="SVGID_3_" gradientUnits="userSpaceOnUse" x1="110.6499" y1="155.94" x2="114.3899" y2="123.76" gradientTransform="matrix(1 0 0 -1 0 261.89)">
				<stop  offset="0" style="stop-color:#F70F47"/>
				<stop  offset="1" style="stop-color:#9E005D"/>
			</linearGradient>
			<path class="st5" d="M100.3,109.5c2.6,8.5,3.8,18.9,3.3,24.8h19.5c0,0-0.1-18.3-1.4-28.3c-0.3-2.5-1.9-4.6-4.1-5.7
				c-1.6-0.7-3.4-1.1-5.2-1.2h-3.6c-1.3,0-2.6,0.2-3.8,0.5C99.8,100.6,98.8,104.6,100.3,109.5z"/>
			<path class="st6" d="M103.7,146.3c0,0-1.7-4.1-0.1-11.9h19.5c0.5,4,0.7,8,0.7,11.9H103.7z"/>
			<path class="st6" d="M107.5,171.8c1.6-6.4-4.9-7.5-7-2.9c-2.9,6.5-2.7,27.3-2.5,31.4c0,0.5,0.3,0.4,0.6,0.3
				c0.7-0.3,1.4-0.4,2.1-0.4c0.5,0.1,0.9,0.4,1.1,0.9C102.4,195.6,106,178,107.5,171.8z"/>
			<path class="st6" d="M113.3,147.2c0.7-7.9-2.4-14-7.3-11.4c-2.1,1.1-2.8,3.3-3.1,5.4s-1.8,23.5-2.3,27.4c-1.2,8.8,5.7,6.4,6.5,4
				C108.9,166.4,113,151.5,113.3,147.2z"/>
			<path class="st6" d="M124.9,171.4c0.3-5.9-5.5-5.8-7-1c-2.3,7.6,1.7,23.9,1.9,33.2c1-1.6,2-2,2.4-2c0.4,0,0.8,0.3,1.1,0.6
				C123.2,190,124.6,177.8,124.9,171.4z"/>
			<path class="st6" d="M118.1,172.1c0.8,2.4,7.4,5.2,6.7-3.6c-0.3-3.9-1.1-25.5-1.3-27.6s-0.5-5.1-1.6-5.5
				c-5.2-1.9-10.3,4.3-8.9,12.1C114,152.8,116.6,167.1,118.1,172.1z"/>
			
				<linearGradient id="SVGID_4_" gradientUnits="userSpaceOnUse" x1="96.918" y1="154.3409" x2="100.668" y2="122.1609" gradientTransform="matrix(1 0 0 -1 0 261.89)">
				<stop  offset="0" style="stop-color:#F70F47"/>
				<stop  offset="1" style="stop-color:#9E005D"/>
			</linearGradient>
			<path class="st7" d="M103.4,129.9c-1.5-0.4-2.3-1.5-4.9-4.3c-3.7-3.9-4.4-5.1-5.8-8.3c-0.9-2.1,4-3.6,6-1.2
				c1.7,2,4.9,10.9,5.9,12.2C105.2,129.1,104.7,130.3,103.4,129.9z"/>
			
				<linearGradient id="SVGID_5_" gradientUnits="userSpaceOnUse" x1="99.308" y1="154.6209" x2="103.058" y2="122.4409" gradientTransform="matrix(1 0 0 -1 0 261.89)">
				<stop  offset="0" style="stop-color:#F70F47"/>
				<stop  offset="1" style="stop-color:#9E005D"/>
			</linearGradient>
			<path class="st8" d="M92.6,116.6c0.2-1.2,1.1-3.9,4.8-9.7c1.3-2.1,2.7-4,4.3-5.8c1.5-1.7,3.8-1.2,4.4-0.2c0.9,1.7,1,4.7,0.3,5.6
				c-4.1,5.4-7.6,9.3-8.4,10.8C96.8,119.6,92.3,118.1,92.6,116.6z"/>
			<path class="st9" d="M105.4,91.1c0.3,3.2,0.4,3.9,1.8,5.3c1.4,1.2,3.2,1.9,5,1.9c1.7,0,2.9-1.8,3.3-3.1c0.6-2.7,0.7-5.5,0.4-8.3
				c-0.5-2.2-2.4-3.8-4.7-4C108.8,82.9,104.7,83.2,105.4,91.1z"/>
			<path class="st9" d="M102.8,127.9c0.8-0.8,1.9-2.1,2.5-2.8s2.3,0.5,2.3,1.2c0.1,0.9-0.9,3.5-2.1,3.5s-1.5,1.1-2.6,0.8
				S101.6,129.2,102.8,127.9z"/>
			<path class="st1" d="M123.6,202.2c0.7,0.9,1.7,1.6,2.8,2c1.5,0.6,4.6,0.9,2.9,1.5c-1.6,0.4-3.2,0.4-4.8,0.1
				c-1.1-0.1-2.2-0.2-3.2-0.2c-1.6,0-1.6-0.1-1.4-1.8C120.1,201.4,122.9,200.9,123.6,202.2z"/>
			<path class="st1" d="M105.5,90.6c0.9,0.9,1.3,1,2.2-0.1c0.7-0.9,2.4-4.3,0.9-5.1s-2.8-1.3-3.4,0.9S104.4,89.5,105.5,90.6z"/>
			
				<ellipse transform="matrix(0.9257 -0.3782 0.3782 0.9257 -26.7944 46.639)" class="st9" cx="105.4" cy="91.5" rx="1.1" ry="2.2"/>
			<path class="st1" d="M106.4,84.7c1.3,1.9,7.3,2.1,9.3,1.4s1.8-4.5-1-4.8c-1.6,0-0.4,0.4-1.7,0.9
				C112.4,82.4,105.1,82.7,106.4,84.7z"/>
			<path class="st9" d="M137.9,94.1c0.4-1,3.5-8.5,4.8-7.3s0.8,4.7,0.4,5.7c-0.5,1.7-2,2.9-3.7,3C138.5,95.6,137.5,95.1,137.9,94.1z
				"/>
			<path class="st9" d="M137.7,93.6c0-0.5-0.3-3.3,0.2-3.4c0.8-0.1,1.1,1.7,1.3,2.9c0.1,0.7-0.2,1.6-0.8,1.6S137.8,94.3,137.7,93.6z
				"/>
			<g>
				<defs>
					<path id="SVGID_6_" d="M142.6,86.9c-0.9-0.9-2.6,2.3-3.7,4.8c-0.2-0.9-0.5-1.6-1-1.5s-0.3,2.9-0.2,3.4c0,0.2,0.1,0.5,0.1,0.7
						c0,0,0,0.1,0,0.1c-1.6,1.9-7.7,7.2-9,9.3c-2.3-0.7-6.5-2.2-11.6-3.8c-0.3,0-0.5,0-0.8,0c-1.2-0.4-2.5-0.6-3.8-0.7
						c0-0.3,0-0.7,0-1c1.5-0.2,2.6-1.8,2.9-3.1c0.3-1.2,0.5-2.5,0.5-3.7c0.1-0.2,0.2-0.4,0.2-0.6c0.3-0.9,0.7-3.8-0.2-4.9
						c1.1-0.9,1.4-2.5,0.5-3.6c-0.4-0.6-1.1-0.9-1.8-1c-1.6,0-0.4,0.4-1.7,0.9c-0.7,0.3-7.8,0.5-6.6,2.5c-0.5,0.1-1,0.5-1.3,1.6
						c-0.4,1-0.5,2.1-0.3,3.2c-0.1,0-0.2,0-0.3,0c-0.6,0.2-0.7,1.3-0.2,2.5c0.2,0.7,0.8,1.3,1.5,1.6c0.1,1,0.6,1.9,1.4,2.6
						c-0.1,0.9-0.2,2-0.2,3.1c-0.7,0.1-1.4,0.2-2,0.3c-0.6,0.1-1.1,0.3-1.7,0.5c-0.4,0.1-0.8,0.3-1.2,0.6c-0.8,0.5-1.4,1.2-1.8,2.1
						c-0.7,0.9-1.7,2.2-2.9,4.2c-3.7,5.7-4.6,8.4-4.8,9.7c0,0.1,0,0.2,0,0.3c0,0.2,0,0.3,0.1,0.5c1.4,3.2,2.1,4.4,5.8,8.3
						c1.1,1.3,2.3,2.5,3.6,3.6c0,0.6,0.4,1.1,0.9,1.2c0.2,0.1,0.5,0.1,0.7,0c0,1.3,0,2.6-0.1,3.9c-0.5,2.3-0.7,4.6-0.7,6.9
						c-0.3,2.9-1.8,23.4-2.3,27.2c0,0.1,0,0.3,0,0.4l0,0c-2.9,6.5-2.7,27.3-2.5,31.4c0,0.2,0.1,0.3,0.1,0.4c0,0.3,0,0.5,0,0.8
						c0,0.9-0.2,1.9-0.5,2.7c-0.5,1.6,1.2,1.7,4,1.7c2.7-0.1,2-1.1,1.5-1.7s-1.1-0.8-1.2-1.6c-0.1-0.5,0-0.8-0.2-1.5l0,0
						c0.6-5.6,4.2-23.2,5.7-29.4c0.1-0.5,0.2-1.1,0.2-1.6c1.9-6.4,4.8-17.3,5.5-22c0.9,5.3,3.1,17.1,4.6,22.7
						c-2,7.8,1.8,23.6,2,32.7l0,0c0,0.1,0,0.1,0,0.2c-0.2,1.7-0.2,1.8,1.4,1.8c1.1,0,2.2,0,3.2,0.2c1.6,0.3,3.2,0.3,4.8-0.1
						c1.7-0.6-1.4-0.9-2.9-1.5c-1.1-0.4-2-1.1-2.8-2c-0.1-0.1-0.1-0.2-0.2-0.3c-0.1-12.1,1.3-24.2,1.5-30.5c0-0.4,0-0.7,0-1.1
						c0-0.6,0-1.3,0-1.9c-0.2-2.8-0.7-15-1-22.2l0,0c0-4-0.3-8-0.7-11.9c0,0-0.1-15.6-1.2-25.9c5.6,1.2,8.1,1.1,9.3,0.9
						c0.4,0,0.7-0.1,1-0.4c2.3-2.6,4.3-5.5,5.9-8.5c1.4-2.5,1.8-3.7,1.9-4.8c1.4-0.4,2.6-1.6,3-3C143.4,91.5,144,88.3,142.6,86.9z
						 M98.6,116.2c0.6-0.8,1.5-1.9,2.6-3.3c1.1,4.3,1.8,8.8,2.2,13.2C102,123.1,99.9,117.8,98.6,116.2L98.6,116.2z"/>
				</defs>
				<clipPath id="SVGID_7_">
					<use xlink:href="#SVGID_6_"  style="overflow:visible;"/>
				</clipPath>
			</g>
			<polygon class="st10" points="143.7,86.5 143.7,190.5 264.9,181.2 264.9,99.8 			"/>
			<polygon class="st11" points="148,187.8 267.3,179.2 267.3,106.3 148,95 			"/>
			<polygon class="st11" points="203.5,178.1 255.6,174.9 255.6,108.6 203.5,104 			"/>
			<path class="st10" d="M211.5,121.2l45.3,2.4c0.5,0,1-0.5,1-1.2v-9c0.1-0.6-0.4-1.2-1-1.4l-45.3-3.6c-0.7,0-1.2,0.5-1.2,1.2
				c0,0,0,0.1,0,0.1v10C210.2,120.4,210.7,121.1,211.5,121.2z"/>
			<path class="st10" d="M211.5,138l45.3,0.9c0.6-0.1,1.1-0.6,1-1.3v-9c0.1-0.6-0.4-1.2-1-1.3l-45.3-2.1c-0.7,0-1.2,0.6-1.2,1.3
				c0,0,0,0,0,0.1v10C210.2,137.3,210.7,137.9,211.5,138z"/>
			<path class="st10" d="M209.9,139.9l45.6,0.7c0.6-0.1,1.1-0.7,1-1.3v-9c0.1-0.6-0.4-1.2-1-1.3l-45.6-2c-0.7,0-1.3,0.6-1.2,1.3
				c0,0,0,0,0,0.1v10C208.6,139.1,209.1,139.8,209.9,139.9z"/>
			<path class="st10" d="M211.5,154.9l45.3-0.7c0.6-0.1,1.1-0.7,1-1.3v-9c0.1-0.6-0.4-1.2-1-1.3l-45.3-0.5c-0.7,0.1-1.3,0.7-1.2,1.4
				c0,0,0,0,0,0v10C210.2,154.2,210.7,154.8,211.5,154.9z"/>
			<polygon class="st12" points="125.7,148.1 189.5,145.6 189.5,63.6 125.7,55.9 			"/>
			<path class="st10" d="M211.5,171.7l45.3-2.2c0.6-0.1,1.1-0.7,1-1.3v-9c0.1-0.6-0.4-1.2-1-1.3c0,0,0,0,0,0l-45.3,1.1
				c-0.7,0.1-1.3,0.7-1.2,1.5v9.9C210.2,171,210.7,171.6,211.5,171.7C211.4,171.7,211.4,171.7,211.5,171.7z"/>
			<path class="st10" d="M161.4,114.6c-7.6,3.1-16.9,1.2-23.5-5.8c-3.1-3.3-5.3-7.4-6.2-11.8l11.1-1.8c1,5.3,5.4,9.2,10.8,9.6
				c1.4,0.1,2.7-0.1,4-0.6L161.4,114.6z"/>
			<path class="st10" d="M169.3,107l-0.5,0.5l-7-8.4c2.2-2.1,3.3-5,3.3-8c0-6.2-4.7-11.5-10.6-12c-4.1-0.4-8.1,1.9-9.9,5.6
				l-10.1-5.9c1.1-2.2,2.5-4.2,4.3-5.8c8.7-8.1,22.4-6.6,30.4,2.8C177.1,85,177.1,98.8,169.3,107z"/>
			<path class="st10" d="M143.5,89.8c0,0.8,0.1,1.7,0.3,2.5l-11.1,1.8c-1.1-5.2-0.5-10.6,1.9-15.3l10.1,5.9
				C143.9,86.3,143.5,88,143.5,89.8z"/>
			<path class="st10" d="M168.8,107.5c-1.8,1.8-4,3.3-6.5,4.2l-3.9-10.5c1.2-0.5,2.4-1.2,3.3-2.1L168.8,107.5z"/>
			<g class="st13">
				<polygon class="st10" points="236.1,131.6 254.3,132.2 254.3,130.9 236.1,130.2 				"/>
				<polygon class="st10" points="236.1,134 254.3,134.5 254.3,133.2 236.1,132.6 				"/>
				<polygon class="st10" points="246.4,136.7 254.3,136.9 254.3,135.6 246.4,135.4 				"/>
			</g>
			<polygon class="st11" points="223,157.9 228.4,158 228.4,151.5 223,151.3 			"/>
			<polygon class="st11" points="213.4,143 219.1,143.1 219.1,136.5 213.4,136.3 			"/>
			<polygon class="st10" points="158.5,140.9 158.5,182.2 159.5,182.1 159.5,140.9 			"/>
			<polygon class="st10" points="197.9,166.8 197.9,179.7 198.8,179.6 198.8,166.7 			"/>
			<polygon class="st10" points="179,152.9 179,180.9 179.9,180.8 179.9,152.8 			"/>
			<path class="st10" d="M136.6,172.9c11.4-0.5,11.4-26.5,22.4-26.4c10.5,0,10.5,25,20.6,24.5c9.7-0.4,9.7-24.4,19.1-24.4"/>
			<polygon class="st10" points="173.4,117.8 173.4,115.7 169.5,115.6 169.5,117.7 			"/>
			<polygon class="st10" points="180.3,117.9 180.3,115.8 176.4,115.7 176.4,117.8 			"/>
			<polygon class="st10" points="186.9,118 186.9,115.9 183.2,115.9 183.2,117.9 			"/>
			<polygon class="st11" points="234.7,147.7 253.3,147.7 253.3,145.9 234.7,145.8 			"/>
			<polygon class="st11" points="240.9,151 253.3,150.9 253.3,149.1 240.9,149.1 			"/>
			<polygon class="st11" points="236.3,151 239.5,151 239.5,149.1 236.3,149.1 			"/>
			<polygon class="st11" points="234.7,116 253.3,117.2 253.3,115.4 234.7,114.1 			"/>
			<polygon class="st11" points="242.4,119.7 253.3,120.4 253.3,118.6 242.4,117.9 			"/>
			<polygon class="st11" points="228.8,118.9 240.9,119.7 240.9,117.8 228.8,117 			"/>
			<polygon class="st11" points="246,163.4 253.3,163.1 253.3,161.3 246,161.5 			"/>
			<polygon class="st11" points="237.2,163.7 244.7,163.4 244.7,161.6 237.2,161.8 			"/>
			<polygon class="st11" points="240.9,166.8 253.3,166.3 253.3,164.5 240.9,165 			"/>
			<polygon class="st11" points="226.6,167.4 239.5,166.9 239.5,165 226.6,165.5 			"/>
			<path class="st10" d="M184.3,67.2c-1.2-0.7-2.7-0.5-3.7,0.5c-0.5,0.5-0.8,1.1-0.9,1.8l1.7,0.5c0.1-0.8,0.8-1.4,1.7-1.3
				c0.2,0,0.4,0.1,0.6,0.2L184.3,67.2z"/>
			<path class="st10" d="M185.5,68.2L185.5,68.2l-1.2,1.2c0.3,0.4,0.5,0.9,0.5,1.4c0.1,0.9-0.6,1.7-1.5,1.7c-0.1,0-0.1,0-0.2,0
				c-0.7-0.1-1.3-0.5-1.5-1.2L180,72c0.2,0.4,0.4,0.7,0.6,1.1c1,1.4,3,1.7,4.4,0.7c0.1-0.1,0.2-0.2,0.4-0.3
				C186.8,72,186.8,69.7,185.5,68.2z"/>
			<path class="st10" d="M181.4,70.5c0-0.1,0-0.3,0-0.4l-1.7-0.5c-0.2,0.8-0.1,1.7,0.3,2.5l1.5-0.7
				C181.4,71.1,181.4,70.8,181.4,70.5z"/>
			<path class="st10" d="M185.4,68.1c-0.3-0.3-0.7-0.6-1.1-0.8l-0.6,1.7c0.2,0.1,0.4,0.2,0.5,0.4L185.4,68.1z"/>
			<path class="st10" d="M179.9,106.9c0.5,1.4,1.7,2.3,3.1,2.4c0.7,0,1.3-0.2,1.8-0.5l-0.9-1.6c-0.7,0.5-1.6,0.3-2.1-0.3
				c-0.2-0.2-0.3-0.4-0.4-0.6L179.9,106.9z"/>
			<path class="st10" d="M179.7,105.4c0,0,0,0.1,0,0.1h1.7c0-0.5,0.2-1,0.5-1.4c0.6-0.6,1.6-0.7,2.2-0.1c0.1,0.1,0.1,0.1,0.2,0.2
				c0.5,0.6,0.6,1.3,0.4,2l1.6,0.7c0.1-0.4,0.2-0.8,0.2-1.2c0.1-2-1.4-3.7-3.4-3.9c-1.9,0-3.4,1.5-3.4,3.4
				C179.7,105.3,179.7,105.4,179.7,105.4z"/>
			<path class="st10" d="M184.3,107c-0.1,0.1-0.2,0.2-0.3,0.2l0.9,1.6c0.7-0.5,1.1-1.1,1.4-1.9l-1.6-0.7
				C184.6,106.5,184.5,106.8,184.3,107z"/>
			<path class="st10" d="M179.7,105.6c0,0.5,0.1,0.9,0.3,1.4l1.6-0.7c-0.1-0.2-0.1-0.5-0.1-0.7L179.7,105.6z"/>
			<path class="st10" d="M184.4,85.6c1.3-0.6,2.1-1.9,2-3.3c0-0.7-0.2-1.4-0.5-2.1l-1.4,0.9c0.4,0.7,0.3,1.7-0.2,2.3
				c-0.1,0.2-0.3,0.3-0.5,0.4L184.4,85.6z"/>
			<path class="st10" d="M183.1,85.8h0.1l-0.1-1.9c-0.5,0-0.9-0.2-1.3-0.6c-0.7-0.8-0.7-1.9,0-2.7c0.5-0.5,1.2-0.6,1.8-0.3l0.5-1.7
				c-0.3-0.2-0.7-0.2-1.1-0.3c-1.8,0-3.4,1.4-3.4,3.3c0,0.1,0,0.2,0,0.3C179.6,83.9,181.1,85.6,183.1,85.8z"/>
			<path class="st10" d="M184.3,80.8c0.1,0.1,0.2,0.2,0.2,0.3l1.4-0.9c-0.4-0.7-1-1.3-1.8-1.7l-0.5,1.7
				C183.9,80.4,184.1,80.6,184.3,80.8z"/>
			<path class="st10" d="M183.2,85.8c0.4,0,0.8-0.1,1.2-0.2l-0.7-1.8c-0.2,0.1-0.4,0.1-0.6,0.1L183.2,85.8z"/>
			
				<linearGradient id="SVGID_8_" gradientUnits="userSpaceOnUse" x1="258.695" y1="141.0652" x2="272.795" y2="126.2252" gradientTransform="matrix(1 0 0 -1 0 261.89)">
				<stop  offset="0" style="stop-color:#F70F47"/>
				<stop  offset="1" style="stop-color:#FFB41D"/>
			</linearGradient>
			<path class="st14" d="M253.9,127.5c1.5,0.5,2.8,0,6.5-0.8c5.3-1.2,6.5-1.8,9.4-3.6c1.9-1.2-1.3-5.2-4.3-4.3
				c-2.5,0.8-10.2,6.3-11.7,6.8C252.8,125.8,252.6,127.1,253.9,127.5z"/>
			
				<linearGradient id="SVGID_9_" gradientUnits="userSpaceOnUse" x1="267.255" y1="149.2052" x2="281.3549" y2="134.3652" gradientTransform="matrix(1 0 0 -1 0 261.89)">
				<stop  offset="0" style="stop-color:#F70F47"/>
				<stop  offset="1" style="stop-color:#FFB41D"/>
			</linearGradient>
			<path class="st15" d="M270.3,122.3c0.4-1.2,0.8-4,0-10.8c-0.2-2.4-0.7-4.8-1.3-7.1c-0.6-2.2-2.9-2.8-3.9-2.1
				c-1.6,1.1-2.9,3.7-2.7,4.9c1.3,6.7,2.7,11.7,2.7,13.4C265.2,123,269.9,123.7,270.3,122.3z"/>
			<path class="st16" d="M267.1,200.9c-0.1,0.6-0.2,1.2-0.2,1.8c-0.1,0.7-0.8,1-1.2,1.6s-1.1,1.6,1.5,1.6c2.8,0.1,4.5,0,4-1.6
				c-0.3-0.9-0.5-1.8-0.5-2.7c0.1-0.5,0-1-0.3-1.3C270.1,199.9,267.5,199.4,267.1,200.9z"/>
			<path class="st9" d="M232.9,113.5c-0.9-0.5-8.4-3.8-8.4-2.1c-0.1,2,2.6,3.9,3.6,4.5c1.5,0.9,3.4,0.8,4.8-0.3
				C233.4,115,233.8,114,232.9,113.5z"/>
			<path class="st9" d="M232.6,113c-0.3-0.4-2-2.6-2.5-2.3c-0.7,0.4,0.4,2,1.1,3c0.4,0.6,1.3,1,1.7,0.7S233.1,113.6,232.6,113z"/>
			<path class="st16" d="M245.2,202.2c-0.7,0.9-1.7,1.6-2.8,2c-1.5,0.6-4.6,0.9-2.9,1.5c1.6,0.4,3.2,0.4,4.8,0.1
				c1.1-0.1,2.2-0.2,3.2-0.2c1.6,0,1.6-0.1,1.4-1.8C248.7,201.4,246,200.9,245.2,202.2z"/>
			<path class="st9" d="M263.4,91.5c-0.3,3.2-0.4,3.9-1.8,5.3s-3.6,1.5-5.1,1.5s-2.7-2-3.1-3.4c-0.6-2.5-0.7-5.1-0.3-7.6
				c0.5-2.2,2.4-3.8,4.7-4C260,83.3,264.2,83.6,263.4,91.5z"/>
			
				<linearGradient id="SVGID_10_" gradientUnits="userSpaceOnUse" x1="-193.0114" y1="671.5826" x2="-193.0114" y2="638.9626" gradientTransform="matrix(0.58 0.81 0.81 -0.58 -168.8809 646.0562)">
				<stop  offset="0" style="stop-color:#F70F47"/>
				<stop  offset="1" style="stop-color:#FFB41D"/>
			</linearGradient>
			<path class="st17" d="M231.1,115.6c1,1.2,1.8,2,5.4,3c3.3,1.1,6.7,1.8,10.1,2.1c2.3,0.2,1.9-5.3-1.1-6.2
				c-2.5-0.7-12-0.2-13.5-0.7C231.1,113.6,230.3,114.6,231.1,115.6z"/>
			
				<linearGradient id="SVGID_11_" gradientUnits="userSpaceOnUse" x1="249.4271" y1="169.39" x2="249.4271" y2="136.76" gradientTransform="matrix(1 0 0 -1 0 261.89)">
				<stop  offset="0" style="stop-color:#F70F47"/>
				<stop  offset="1" style="stop-color:#FFB41D"/>
			</linearGradient>
			<path class="st18" d="M246.9,119.3c1-0.8,2.8-2.9,5.8-9.1c1.1-2.2,2-4.4,2.8-6.7c0.7-2.2-0.9-3.9-2.1-3.8
				c-1.9,0.1-4.5,1.6-4.9,2.7c-2.5,6.3-4.1,11.3-4.9,12.8C242.2,117.3,245.8,120.3,246.9,119.3z"/>
			<path class="st9" d="M261.7,97.2c0.1,1.1,0.2,2.4,0.2,3.6c0,1.6-1.1,2.9-2.7,3.1h-0.2c-1.4,0-3-1.3-2.9-2.7
				c0.1-0.9,0.1-1.8,0.1-2.6c0-1.5,1-2.9,2.4-3.4l0,0c1.2-0.4,2.5,0.2,2.9,1.4C261.7,96.8,261.7,97,261.7,97.2z"/>
			
				<linearGradient id="SVGID_12_" gradientUnits="userSpaceOnUse" x1="257.3356" y1="169.38" x2="257.3356" y2="136.76" gradientTransform="matrix(1 0 0 -1 0 261.89)">
				<stop  offset="0" style="stop-color:#F70F47"/>
				<stop  offset="1" style="stop-color:#FFB41D"/>
			</linearGradient>
			<path class="st19" d="M268.2,111c-2.6,8.5-3.4,17.4-2.9,23.4h-19.5c0,0,0.1-18.3,1.4-28.3c0.3-2.5,1.9-4.6,4.1-5.7
				c1.6-0.7,3.4-1.1,5.2-1.2h3.6c1.3,0,2.6,0.1,3.8,0.5C269.2,101.3,269.7,106.1,268.2,111z"/>
			<path class="st1" d="M265.2,146.3c0,0,1.7-4.1,0.1-11.9h-19.5c-0.5,4-0.7,7.9-0.7,11.9H265.2z"/>
			<path class="st1" d="M261.3,171.8c-1.6-6.4,4.9-7.5,7-2.9c2.9,6.5,2.7,27.3,2.5,31.4c0,0.5,0.1,1.2-0.2,1.4
				c-0.6,0.3-1.4,0.4-2.1,0.3c-0.7,0-1.4,0-1.5-0.9C266.5,195.2,262.8,178,261.3,171.8z"/>
			<path class="st1" d="M255.5,147.2c-0.7-7.9,2.4-14,7.3-11.4c2.1,1.1,2.8,3.3,3.1,5.4s1.8,23.5,2.3,27.4c1.2,8.8-5.7,6.4-6.5,4
				C259.9,166.4,255.9,151.5,255.5,147.2z"/>
			<path class="st1" d="M249,203.6c0.3-9.3,4.2-25.6,1.9-33.2c-1.4-4.8-7.2-4.9-7,1c0.3,6.3,2.2,18.6,1.5,30.8
				C245.4,203.5,249,204.7,249,203.6z"/>
			<path class="st1" d="M250.7,172.1c-0.8,2.4-7.4,5.2-6.7-3.6c0.3-3.9,1.1-25.5,1.3-27.6s0.5-5.1,1.6-5.5
				c5.2-1.9,10.3,4.3,8.9,12.1C254.8,152.8,252.3,167.1,250.7,172.1z"/>
			
				<ellipse transform="matrix(0.9257 -0.3782 0.3782 0.9257 -15.7461 102.3596)" class="st9" cx="252.8" cy="91.3" rx="1.1" ry="2.2"/>
			<ellipse transform="matrix(0.378 -0.9258 0.9258 0.378 79.2664 300.4844)" class="st9" cx="263.3" cy="91.3" rx="2.2" ry="1.1"/>
			
				<linearGradient id="SVGID_13_" gradientUnits="userSpaceOnUse" x1="248.4599" y1="183.6099" x2="275.9299" y2="162.4499" gradientTransform="matrix(1 0 0 -1 0 261.89)">
				<stop  offset="0" style="stop-color:#0000FF"/>
				<stop  offset="1" style="stop-color:#9E005D"/>
			</linearGradient>
			<path class="st20" d="M262.4,85.1c-1.3,1.9-7.3,2.1-9.3,1.4s-1.9-4.5,1-4.8c1.6,0,0.4,0.4,1.7,0.9
				C256.5,82.9,263.7,83.1,262.4,85.1z"/>
			
				<linearGradient id="SVGID_14_" gradientUnits="userSpaceOnUse" x1="246.8561" y1="181.5249" x2="274.326" y2="160.3649" gradientTransform="matrix(1 0 0 -1 0 261.89)">
				<stop  offset="0" style="stop-color:#0000FF"/>
				<stop  offset="1" style="stop-color:#9E005D"/>
			</linearGradient>
			<path class="st21" d="M255.5,84.8c-1.9,1.1-2.3,2.1-2.3,4.4s1,6.3,5.3,7.1c4.3,0.9,5.3-3.3,5.5-6.3s0.1-5.1-2.1-5.6
				C258.9,83.7,256.7,84.1,255.5,84.8z"/>
			<g>
				<defs>
					<path id="SVGID_15_" d="M271.3,204.3c-0.3-0.9-0.5-1.8-0.5-2.7c0.1-0.4,0.1-0.8,0.1-1.2c0.1-4.1,0.4-24.9-2.5-31.4l0,0
						c0-0.1,0-0.3,0-0.4c-0.5-3.8-2-24.4-2.3-27.2c0-2.3-0.2-4.6-0.7-6.9c-0.2-3-0.2-6,0.1-9c1.5-0.6,3-1.4,4.4-2.3
						c0.3-0.2,0.5-0.4,0.5-0.8l0,0c0.4-1.2,0.8-4,0-10.8c-0.2-2.4-0.7-4.8-1.3-7.1c-0.2-0.6-0.5-1.2-1-1.7c-0.9-1.5-2.4-2.6-4.1-3.1
						c-0.7-0.2-1.3-0.3-2-0.4c0-0.7-0.1-1.4-0.1-2.1c0-0.2,0-0.3-0.1-0.5c0.7-0.6,1.1-1.4,1.3-2.3c0.3-0.5,0.5-1.1,0.7-1.7
						c0.3-0.3,0.5-0.7,0.7-1.1c0.4-1.1,0.4-2.1-0.2-2.4c0.1-2.3-0.1-3.9-1.6-4.6c0.1-1.6-6.1-1.8-6.8-2.1c-1.3-0.5-0.1-0.9-1.7-0.9
						c-2.8,0.3-3,4.1-1,4.8h0.1c-0.1,0.2-0.2,0.5-0.2,0.8c-0.1,0.8-0.1,1.4-0.2,2.1c-0.2-0.2-0.6-0.3-0.9-0.2
						c-0.6,0.2-0.7,1.3-0.2,2.5c0.2,0.6,0.7,1.2,1.3,1.5c0.1,0.6,0.2,1.1,0.3,1.7c0.4,1.3,1.4,3.3,3,3.3c0,0.1,0,0.2,0,0.4
						c0,0.2,0,0.4,0,0.6c-1.5,0.1-2.9,0.4-4.3,0.8c-1.6,0.5-3.3,1.6-3.6,2.4l-0.4,1.1c-0.3,0.6-0.5,1.2-0.7,1.8
						c-1.9,4.9-3.1,8.7-3.8,9.9c-0.1,0.2-0.2,0.4-0.2,0.6c-2,1.7-6.2,8.3-7.9,10.1h-0.1c-0.2,0-0.5,0-0.7,0c-0.5,0-3.3,0.2-3.3,0.7
						s0.8,0.7,1.6,0.8c-2.3,1.5-5.2,3.6-4.2,4.4c1.6,1.2,4.7,0.1,5.7-0.4c1.4-0.6,2.3-1.9,2.5-3.4c1.1-0.2,2.3-0.8,4.6-2.5
						c1.9-1.5,3.4-2.8,4.6-3.9c-0.3,6.9-0.3,12.8-0.3,12.8c-0.5,4-0.7,8-0.7,12l0,0c-0.3,7.2-0.8,19.4-1,22.2c0,0.6,0,1.3,0,1.9
						c0,0.4,0,0.7,0,1.1c0.3,6.3,2.1,18.4,1.6,30.5c-0.1,0.1-0.2,0.2-0.3,0.3c-0.7,0.9-1.7,1.6-2.8,2c-1.5,0.6-4.6,0.9-2.9,1.5
						c1.6,0.4,3.2,0.4,4.8,0.1c1.1-0.1,2.2-0.2,3.2-0.2c1.6,0,1.6-0.1,1.4-1.8c0-0.1,0-0.1,0-0.1l0,0c0.2-9.1,4-25,2-32.7
						c1.5-5.5,3.7-17.4,4.6-22.7c0.7,4.7,3.6,15.6,5.5,22c0,0.5,0.1,1.1,0.2,1.6c1.5,6.2,5.2,23.3,5.7,29.4l0,0
						c-0.1,0.7-0.1,1-0.2,1.5c-0.1,0.7-0.8,1-1.2,1.6s-1.1,1.6,1.5,1.6C270.1,206,271.7,205.9,271.3,204.3z"/>
				</defs>
				<clipPath id="SVGID_16_">
					<use xlink:href="#SVGID_15_"  style="overflow:visible;"/>
				</clipPath>
			</g>
		</g>
	</g>
</g>
</svg>
