<?xml version="1.0" encoding="utf-8"?>
<!-- Generator: Adobe Illustrator 21.0.0, SVG Export Plug-In . SVG Version: 6.00 Build 0)  -->
<svg version="1.1" id="Слой_1" xmlns="http://www.w3.org/2000/svg" xmlns:xlink="http://www.w3.org/1999/xlink" x="0px" y="0px"
	 viewBox="0 0 285.4 262" style="enable-background:new 0 0 285.4 262;" xml:space="preserve">
<style type="text/css">
	.st0{opacity:0.1;fill:#ED0F0F;enable-background:new    ;}
	.st1{fill:none;stroke:#0037FF;stroke-miterlimit:10;}
	.st2{fill:#FFAF84;}
	.st3{fill:url(#SVGID_1_);}
	.st4{fill:url(#SVGID_2_);}
	.st5{fill:#541968;}
	.st6{fill:url(#SVGID_3_);}
	.st7{fill:url(#SVGID_4_);}
	.st8{fill:url(#SVGID_5_);}
	.st9{fill:url(#SVGID_6_);}
	.st10{fill:url(#SVGID_7_);}
	.st11{fill:url(#SVGID_8_);}
	.st12{fill:url(#SVGID_9_);}
	.st13{fill:url(#SVGID_10_);}
	.st14{fill:url(#SVGID_11_);}
	.st15{fill:url(#SVGID_12_);}
	.st16{fill:url(#SVGID_15_);}
	.st17{fill:url(#SVGID_16_);}
	.st18{fill:url(#SVGID_17_);}
	.st19{fill:#ED9169;}
	.st20{fill:url(#SVGID_18_);}
	.st21{fill:url(#SVGID_19_);}
	.st22{fill:url(#SVGID_20_);}
	.st23{fill:url(#SVGID_21_);}
	.st24{fill:url(#SVGID_22_);}
	.st25{fill:url(#SVGID_23_);}
	.st26{fill:url(#SVGID_24_);}
	.st27{fill:url(#SVGID_25_);}
	.st28{fill:url(#SVGID_26_);}
	.st29{fill:url(#SVGID_27_);}
</style>
<title>main-slide5</title>
<g>
	<g id="Слой_2">
		<g id="Designed_by_Freepik">
			<circle class="st0" cx="131" cy="131" r="131"/>
		</g>
		<g id="Objects">
			<polygon class="st1" points="190.4,181.3 128.2,157 128.2,75.6 190.4,99.9 			"/>
			<polygon class="st1" points="190.4,51.7 128.2,75.8 190.4,99.9 252.7,75.8 			"/>
			<polygon class="st1" points="190.4,62.4 158.6,74.7 190.4,87 			"/>
			<polygon class="st1" points="190.4,62.4 222.3,74.7 190.4,87 			"/>
			<polygon class="st1" points="190.4,181.3 252.7,157 252.7,75.6 190.4,99.9 			"/>
			<path class="st1" d="M218.6,125.9c0,0.7,0.2,1.4,0.6,1.9l-7.3,2.9v7.5c-0.8-0.2-1.6-0.1-2.4,0.2c-2.4,1-4.1,3.4-4.3,6
				c0,2.4,1.9,3.5,4.3,2.6c0.9-0.4,1.7-0.9,2.4-1.7v9.3l7.1-2.8c-0.2-0.5-0.3-1-0.3-1.5c0.2-2.6,1.9-5,4.3-6c2.4-1,4.3,0.2,4.3,2.6
				c0,0.6-0.1,1.2-0.3,1.8l7-2.8v-9c0.6,0,1.1-0.1,1.7-0.3c2.4-1,4.1-3.4,4.3-6c0-2.4-1.9-3.5-4.3-2.6c-0.6,0.2-1.2,0.6-1.7,1v-7.1
				l-7.3,2.9c0.4-0.7,0.6-1.6,0.6-2.4c0-2.4-1.9-3.5-4.3-2.6C220.5,120.9,218.8,123.2,218.6,125.9z"/>
			<polygon class="st1" points="175.8,164 140.4,150.2 140.4,109 175.8,122.8 			"/>
			<path class="st1" d="M160.3,123.6c0.5,0.2,0.9,0.5,1.1,0.9c0.2,0.3,0.4,0.6,0.5,1l8.2,26.9c0.1,0.2,0.1,0.4,0.1,0.6
				c0,0.2-0.1,0.4-0.2,0.5c-0.2,0.1-0.4,0.1-0.6,0l-4.7-1.9c-0.4-0.1-0.8-0.4-1.1-0.7c-0.2-0.2-0.3-0.5-0.4-0.8l-1.1-3.5l-10-3.9
				l-1.1,2.7c-0.1,0.2-0.2,0.4-0.4,0.5c-0.2,0.1-0.6,0.1-1.1-0.1l-4.7-1.9c-0.2-0.1-0.4-0.3-0.6-0.5c-0.2-0.2-0.2-0.4-0.2-0.7
				c0-0.2,0.1-0.3,0.1-0.5l8.2-20.4c0.1-0.3,0.3-0.5,0.5-0.6c0.4-0.2,0.8-0.2,1.1,0L160.3,123.6z M154.3,137.6l6.1,2.4l-3-10.2
				L154.3,137.6z"/>
			<path class="st2" d="M117.6,65.2c0.3-1.2,2.7-10.2,4.3-9c1.8,1.4,1.6,5.2,1.4,6.5c-0.4,2.3-2.3,4-3.8,4
				C118.5,66.8,117.3,66.4,117.6,65.2z"/>
			
				<linearGradient id="SVGID_1_" gradientUnits="userSpaceOnUse" x1="-1793.6088" y1="1487.9889" x2="-1793.6088" y2="1454.3689" gradientTransform="matrix(-6.000000e-02 1.07 1.01 0.12 -1484.2988 1815.5531)">
				<stop  offset="0" style="stop-color:#36078B"/>
				<stop  offset="1" style="stop-color:#168D68"/>
			</linearGradient>
			<path class="st3" d="M121.1,65c0.8,1.7,0.1,1.9-0.3,6.6c-0.5,5.8-1.2,9-2.1,11.6c-0.9,2.4-5.9-0.6-5.5-4.1
				c0.4-3,4.5-12.7,5.3-14.4c0.4-0.7,1.3-0.9,2-0.4C120.8,64.4,121,64.7,121.1,65z"/>
			
				<linearGradient id="SVGID_2_" gradientUnits="userSpaceOnUse" x1="-1753.7593" y1="1490.4032" x2="-1753.7593" y2="1444.2131" gradientTransform="matrix(-9.000000e-02 1 1 9.000000e-02 -1528.9299 1709.5199)">
				<stop  offset="0" style="stop-color:#36078B"/>
				<stop  offset="1" style="stop-color:#168D68"/>
			</linearGradient>
			<path class="st4" d="M119.2,80.9c-0.3,1.4-1.3,4.5-5.8,10.9c-1.5,2.3-3.2,4.5-5.1,6.5c-1.8,1.9-4.4,1.3-5,0c-1-2-1-5.4-0.1-6.4
				c4.9-6.1,9-10.5,9.9-12.2C114.4,77.4,119.5,79.2,119.2,80.9z"/>
			<path class="st5" d="M104.5,204.5c0.1,0.7,0.2,1.3,0.3,2c0.1,0.8,0.9,1.1,1.4,1.8s1.3,1.8-1.8,1.9c-3.3,0.1-5.2,0-4.7-1.8
				c0.4-1,0.6-2.1,0.6-3.1c-0.1-0.5,0-1.1,0.4-1.5C101.1,203.4,104,202.7,104.5,204.5z"/>
			<path class="st5" d="M126.7,204.8c0.9,1,2,1.8,3.3,2.2c1.7,0.6,5.3,0.8,3.4,1.6c-1.8,0.5-3.7,0.6-5.5,0.3c-1.2,0-2.5,0-3.7,0.2
				c-1.8,0.1-1.8-0.2-1.7-2.2C122.6,204,125.8,203.3,126.7,204.8z"/>
			<path class="st2" d="M108.8,78.8c0.4,3.7,0.5,4.5,2.1,6s4.2,1.7,5.9,1.7s3.2-2.3,3.6-3.9c0.7-2.9,0.8-5.8,0.4-8.7
				c-0.6-2.5-2.8-4.4-5.4-4.6C112.7,69.4,107.8,69.7,108.8,78.8z"/>
			<path class="st2" d="M110.6,85.3c-0.1,1.3-0.2,2.8-0.2,4.1c0,1.8,1.3,3.3,3.1,3.5h0.2c1.6,0,3.5-1.4,3.3-3.1
				c-0.1-1-0.1-2.1-0.1-3c0-1.8-1.1-3.3-2.8-3.9l0,0c-1.4-0.5-2.9,0.2-3.3,1.6C110.7,84.9,110.7,85.1,110.6,85.3z"/>
			
				<linearGradient id="SVGID_3_" gradientUnits="userSpaceOnUse" x1="-3203.6287" y1="187.61" x2="-3203.6287" y2="119.74" gradientTransform="matrix(-1 0 0 -1 -3087.95 285.89)">
				<stop  offset="0" style="stop-color:#36078B"/>
				<stop  offset="1" style="stop-color:#168D68"/>
			</linearGradient>
			<path class="st6" d="M103.2,101.2c3,9.8,4,20,3.4,26.8H129c0,0-0.1-21-1.6-32.5c-0.4-2.8-2.2-5.3-4.7-6.6c-1.9-0.8-3.9-1.3-6-1.3
				h-4.1c-1.5,0-2.9,0.2-4.4,0.5C102,90,101.5,95.5,103.2,101.2z"/>
			
				<linearGradient id="SVGID_4_" gradientUnits="userSpaceOnUse" x1="-3205.3452" y1="47.86" x2="-3205.3452" y2="144.35" gradientTransform="matrix(-1 0 0 -1 -3087.95 285.89)">
				<stop  offset="0" style="stop-color:#36078B"/>
				<stop  offset="1" style="stop-color:#16B1FF"/>
			</linearGradient>
			<path class="st7" d="M106.7,141.7c0,0-1.9-4.7-0.1-13.7H129c0,0,0,6.4,0,13.7H106.7z"/>
			
				<linearGradient id="SVGID_5_" gradientUnits="userSpaceOnUse" x1="-3193.6995" y1="47.87" x2="-3193.6995" y2="144.35" gradientTransform="matrix(-1 0 0 -1 -3087.95 285.89)">
				<stop  offset="0" style="stop-color:#36078B"/>
				<stop  offset="1" style="stop-color:#16B1FF"/>
			</linearGradient>
			<path class="st8" d="M111.1,171.1c1.8-7.3-5.7-8.6-8-3.3c-3.3,7.5-3.1,31.3-2.9,36.1c0,0.6-0.1,1.4,0.2,1.6
				c0.7,0.3,1.6,0.5,2.4,0.4c0.8,0,1.7,0,1.7-1.1C105.1,197.9,109.4,178.2,111.1,171.1z"/>
			
				<linearGradient id="SVGID_6_" gradientUnits="userSpaceOnUse" x1="-3198.4089" y1="47.87" x2="-3198.4089" y2="144.35" gradientTransform="matrix(-1 0 0 -1 -3087.95 285.89)">
				<stop  offset="0" style="stop-color:#36078B"/>
				<stop  offset="1" style="stop-color:#16B1FF"/>
			</linearGradient>
			<path class="st9" d="M117.8,142.7c0.8-9.1-2.8-16.1-8.4-13.1c-2.4,1.3-3.2,3.8-3.6,6.1s-2.1,27-2.7,31.5c-1.4,10,6.6,7.3,7.4,4.6
				C112.8,164.8,117.4,147.7,117.8,142.7z"/>
			
				<linearGradient id="SVGID_7_" gradientUnits="userSpaceOnUse" x1="-3194.3884" y1="265.6268" x2="-3194.3884" y2="362.1168" gradientTransform="matrix(-0.96 -0.27 0.27 -0.96 -3019.2104 -383.2056)">
				<stop  offset="0" style="stop-color:#36078B"/>
				<stop  offset="1" style="stop-color:#16B1FF"/>
			</linearGradient>
			<path class="st10" d="M122.7,205.8c2.7-10.4,3.4-29.6,8.3-37.2c3.1-4.9,9.5-3.2,7.4,3.3c-2.3,6.9-8.3,19.9-11.4,33.6
				C126.7,206.7,122.4,207,122.7,205.8z"/>
			
				<linearGradient id="SVGID_8_" gradientUnits="userSpaceOnUse" x1="-3079.8584" y1="160.7691" x2="-3079.8584" y2="238.6491" gradientTransform="matrix(-0.96 0.28 -0.31 -1.13 -2756.4541 1275.0156)">
				<stop  offset="0" style="stop-color:#36078B"/>
				<stop  offset="1" style="stop-color:#16B1FF"/>
			</linearGradient>
			<path class="st11" d="M130.8,169.7c1.7,2.9,11.5,3.5,7.5-7.7c-1.8-5-7.2-22.7-8.1-25.3s-2.4-6.5-3.7-6.6
				c-6.4-0.8-9.8,8.9-5.4,18.6C124,155,127.3,163.7,130.8,169.7z"/>
			<ellipse transform="matrix(0.3783 -0.9257 0.9257 0.3783 2.5036 160.7798)" class="st2" cx="121" cy="78.5" rx="2.5" ry="1.3"/>
			
				<ellipse transform="matrix(0.9257 -0.3783 0.3783 0.9257 -21.6125 47.0185)" class="st2" cx="108.9" cy="78.5" rx="1.3" ry="2.5"/>
			
				<linearGradient id="SVGID_9_" gradientUnits="userSpaceOnUse" x1="-3152.731" y1="251.0258" x2="-3144.6909" y2="256.5858" gradientTransform="matrix(-1 0 0 -1 -3087.95 285.89)">
				<stop  offset="0" style="stop-color:#2C27CE"/>
				<stop  offset="0.65" style="stop-color:#EF1D68"/>
				<stop  offset="1" style="stop-color:#EFBA92"/>
			</linearGradient>
			<path class="st12" d="M109.9,71.5c1.4,2.2,8.4,2.4,10.7,1.6s2.1-5.2-1.1-5.5c-1.8,0-0.5,0.4-2,1
				C116.7,68.9,108.3,69.2,109.9,71.5z"/>
			<path class="st2" d="M154.3,85.8c1.1-0.4,10.1-3,9.9-1c-0.2,2.2-3.6,4.1-4.8,4.5c-2.2,0.9-4.6,0.1-5.4-1.1
				C153.4,87.4,153.2,86.2,154.3,85.8z"/>
			<path class="st2" d="M154.6,85.2c0.4-0.4,2.7-2.7,3.2-2.3c0.7,0.6-0.8,2.2-1.7,3.2c-0.5,0.6-1.6,1-2,0.5S154,85.8,154.6,85.2z"/>
			
				<linearGradient id="SVGID_10_" gradientUnits="userSpaceOnUse" x1="143.3667" y1="202.6832" x2="154.2767" y2="179.9932" gradientTransform="matrix(1 0 0 -1 0 285.89)">
				<stop  offset="0" style="stop-color:#36078B"/>
				<stop  offset="1" style="stop-color:#168D68"/>
			</linearGradient>
			<path class="st13" d="M156.3,88.7c-1,1.5-1.6,1.1-5.8,3.1c-5.2,2.6-8.3,3.7-11,4.2c-2.5,0.5-2.6-5.4,0.7-6.8
				c2.7-1.2,13.2-2.7,15.1-2.9c0.8,0,1.4,0.7,1.4,1.5C156.6,88.1,156.5,88.5,156.3,88.7z"/>
			
				<linearGradient id="SVGID_11_" gradientUnits="userSpaceOnUse" x1="128.1745" y1="197.9622" x2="143.8045" y2="166.2422" gradientTransform="matrix(1 0 0 -1 0 285.89)">
				<stop  offset="0" style="stop-color:#36078B"/>
				<stop  offset="1" style="stop-color:#168D68"/>
			</linearGradient>
			<path class="st14" d="M142,95.4c-1.3,0.6-4.4,1.4-12.3,1.4c-2.3,0.1-4.6,0-6.8-0.3c-2.6-0.3-4.4-2.9-4.4-4.3
				c0.1-2.3,1.2-4,2.6-3.9c7.8,0.6,16.4,1.6,18.3,1.4C142.2,89.5,143.5,94.7,142,95.4z"/>
			
				<linearGradient id="SVGID_12_" gradientUnits="userSpaceOnUse" x1="114.7189" y1="211.6804" x2="107.2689" y2="193.5904" gradientTransform="matrix(1 0 0 -1 0 285.89)">
				<stop  offset="0" style="stop-color:#2C27CE"/>
				<stop  offset="0.65" style="stop-color:#EF1D68"/>
				<stop  offset="1" style="stop-color:#EFBA92"/>
			</linearGradient>
			<path class="st15" d="M117.7,71.1c2.2,1.3,2.7,2.4,2.6,5.1s-1.2,7.2-6.1,8.2s-6-3.8-6.3-7.2s-0.1-5.8,2.4-6.5
				C113.9,69.9,116.4,70.3,117.7,71.1z"/>
			<g>
				<defs>
					<path id="SVGID_13_" d="M157.2,85c0.6-0.8,1.1-1.6,0.6-2s-2.8,1.9-3.2,2.3c-0.2,0.2-0.4,0.4-0.6,0.7c-0.3,0.1-0.5,0.4-0.6,0.7
						c-3.6,0.5-11.1,1.7-13.4,2.7c-0.3,0.1-0.6,0.3-0.8,0.5c-2,0.2-10.5-0.9-18.2-1.4l0,0c-1.4-0.4-2.8-0.6-4.2-0.7
						c0-0.2,0-0.4,0-0.6s0-0.3,0-0.4c1.8-0.1,3-2.3,3.5-3.8c0.2-0.7,0.3-1.3,0.4-2c0.6-0.4,1.1-1,1.4-1.8c0.5-1.3,0.4-2.6-0.3-2.8
						c-0.3-0.1-0.7,0-1,0.2c0-0.8-0.1-1.6-0.2-2.4c0-0.1-0.1-0.3-0.1-0.4c0-0.2,0-0.4,0.1-0.5c1.7-0.7,2-3.3,0.6-4.7
						c0.2-0.8,0.3-1.6,0.2-2.4c1-0.8,1.6-1.9,1.9-3.2c0.2-1.3,0.4-5.1-1.4-6.5c-1.6-1.2-4.1,7.8-4.3,9c-0.1,0.4,0,0.7,0.3,1
						c-0.3,0.7-0.7,1.5-1,2.4c-1.9,0.3-7.2,0.7-7.1,2.3c-1.7,0.7-2,2.7-1.9,5.3c-0.6,0.3-0.7,1.5-0.2,2.8c0.2,0.5,0.5,0.9,0.8,1.3
						c0.2,0.7,0.4,1.4,0.8,2c0.1,0.6,0.4,1.1,0.7,1.6c-1.4,1.7-3.3,3.8-5.3,6.2c-0.5,0.4-0.9,0.9-1.2,1.5l-0.3,0.4
						c-0.4,0.6-0.6,1.4-0.6,2.2c-0.3,2.4-0.1,4.8,0.7,7.1c3,9.8,4,20,3.4,26.8c-0.6,2.6-0.8,5.3-0.8,7.9c-0.4,3.3-2.1,26.9-2.7,31.3
						c0,0.2,0,0.3,0,0.5l0,0c-3.3,7.5-3.1,31.3-2.9,36.1c0,0.5,0,1,0.1,1.4c0,1.1-0.3,2.1-0.6,3.1c-0.6,1.8,1.4,1.9,4.7,1.8
						c3.1-0.1,2.3-1.1,1.8-1.9s-1.2-1-1.4-1.8c-0.1-0.6,0-0.9-0.2-1.7l0,0c0.6-7,4.8-26.7,6.6-33.7c0.2-0.6,0.2-1.2,0.3-1.9
						c2.3-8,6.1-22.1,6.4-26.5c0-0.3,0-0.7,0.1-1H129c0.6,0,1.2-0.1,1.8-0.1c3.2-0.4,7-0.8,10.7-1.3c-3.3,8.7-5.6,20.8-8.4,28.1
						c-0.1,0.2,0,0.5,0.2,0.6c-0.2,0.4-0.4,0.8-0.4,1.3c-0.1,2-0.1,2.3,1.7,2.2c1.2-0.1,2.5-0.2,3.7-0.2c1.8,0.3,3.7,0.2,5.5-0.3
						c2-0.7-1.6-0.9-3.4-1.6c-1.1-0.4-2.2-1.1-3.1-1.9l0,0c4.5-12.7,11.4-24.4,14.7-31.1c0.8-1.1,1.2-2.5,1.2-3.9
						c0-0.9-0.3-1.8-0.9-2.5l-0.1-0.1c-0.1-0.1-0.2-0.2-0.3-0.2c-1.1-1-2.8-1.7-5.7-1.6c-3.1,0.1-11.6,0.1-17.4,0.1
						c0-0.8,0-1.2,0-1.2s-0.1-19.5-1.5-31.2h2.2c7.9,0,11-0.9,12.3-1.4l0,0c2.9-1,5.7-2.2,8.4-3.6c3.4-1.6,4.4-1.7,5.2-2.4
						c1.2,0.4,2.5,0.4,3.7-0.1c1.2-0.5,4.6-2.3,4.8-4.5C164.3,83.4,160.2,84.2,157.2,85z"/>
				</defs>
				<clipPath id="SVGID_14_">
					<use xlink:href="#SVGID_13_"  style="overflow:visible;"/>
				</clipPath>
			</g>
			
				<linearGradient id="SVGID_15_" gradientUnits="userSpaceOnUse" x1="-1571.2762" y1="230.007" x2="-1579.6761" y2="191.327" gradientTransform="matrix(-1 0 0 -1 -1309.5 285.89)">
				<stop  offset="0" style="stop-color:#2C27CE"/>
				<stop  offset="1" style="stop-color:#EF1D68"/>
			</linearGradient>
			<path class="st16" d="M271.8,69.2c3.5,2.6,5.3,7,4.6,11.4c-0.6,4-0.3,8.2,0.9,12.1c0.9,2.7,3.9,11.9-6.9,11.7
				s-11.5-12.9-10.2-19.3s-1-11,0.6-13S266.2,65.1,271.8,69.2z"/>
			<path class="st2" d="M231,92.9c-2-1.6-4.1-3.3-4.5-1.5s-0.4,1.7,1,3S232.7,94.2,231,92.9z"/>
			
				<linearGradient id="SVGID_16_" gradientUnits="userSpaceOnUse" x1="-1564.8612" y1="190.818" x2="-1543.7112" y2="188.748" gradientTransform="matrix(-1 0 0 -1 -1309.5 285.89)">
				<stop  offset="0" style="stop-color:#36078B"/>
				<stop  offset="1" style="stop-color:#16B1FF"/>
			</linearGradient>
			<path class="st17" d="M230.9,92.5c1.4,0.6,10.9,2.5,14.8,3.8h0.1c1.9-0.5,7.3-3.1,14.4-6.3c2.1-0.7,4.4-0.5,6.4,0.4
				c1.3,0.6,1.7,2.8-0.6,4c-2.5,1.3-5,2.4-7.7,3.3c-6.5,2.4-10,3.1-11.8,3.3c-0.4,0.1-0.8,0.1-1.2,0c-3.7-0.7-7.2-2.1-10.4-3.9
				c-3.4-1.8-4.7-1.2-5.3-2.3C229.2,93.8,229.9,92.1,230.9,92.5z"/>
			
				<linearGradient id="SVGID_17_" gradientUnits="userSpaceOnUse" x1="-1585.1334" y1="80.8108" x2="-1584.6134" y2="96.2608" gradientTransform="matrix(-1 0 0 -1 -1309.5 285.89)">
				<stop  offset="0" style="stop-color:#2C27CE"/>
				<stop  offset="0.65" style="stop-color:#EF1D68"/>
				<stop  offset="1" style="stop-color:#EFBA92"/>
			</linearGradient>
			<path class="st18" d="M274.4,203.4c-0.1,0.6-0.2,1.3-0.3,1.9c-0.1,0.8-0.8,1.1-1.3,1.7s-1.2,1.8,1.6,1.9c3,0.1,4.8-0.1,4.3-1.8
				c-0.4-1-0.6-2-0.6-3c0.1-0.5,0-1-0.3-1.5C277.6,202.3,274.9,201.8,274.4,203.4z"/>
			<path class="st19" d="M268.9,82.5c0,0.2,0.4,5,0.4,8.6c0,1.8-1.3,3.5-2.5,3.5h-0.1c-1.3,0-2.8-1.6-2.6-3.3c0.2-3.2,0-6.4,0-6.5
				L268.9,82.5z"/>
			
				<linearGradient id="SVGID_18_" gradientUnits="userSpaceOnUse" x1="-1577.8405" y1="195.1621" x2="-1569.7605" y2="159.0822" gradientTransform="matrix(-1 0 0 -1 -1309.5 285.89)">
				<stop  offset="0" style="stop-color:#36078B"/>
				<stop  offset="1" style="stop-color:#16B1FF"/>
			</linearGradient>
			<path class="st20" d="M272.6,103c-1,3.3-1.8,6.6-2.3,10c-0.4,2.5-0.4,5,0,7.5c0.2,1.5,0.5,3,0.8,4.5c0.1,0.6,1.2,5.1,1.3,5.6
				h-20.6c0.2-4,4.8-16.7,1.7-24.9c-2.1-5.7,0.7-5.8,2.6-10.6c0.4-1.2,0.9-2.4,1.6-3.4c0.8-1,1.9-1.6,3.1-1.9
				c0.6-0.1,1.3-0.2,1.9-0.3c3.5-0.3,11.7-1.3,12.5,3.7c0.2,1.3,0,2.7-0.4,4c-0.5,1.4-1.1,2.8-1.7,4.2
				C273,101.9,272.8,102.5,272.6,103z"/>
			
				<linearGradient id="SVGID_19_" gradientUnits="userSpaceOnUse" x1="-1571.5327" y1="131.02" x2="-1570.4227" y2="32.04" gradientTransform="matrix(-1 0 0 -1 -1309.5 285.89)">
				<stop  offset="0" style="stop-color:#F70F47"/>
				<stop  offset="1" style="stop-color:#9E005D"/>
			</linearGradient>
			<path class="st21" d="M272.4,143.6c0,0,1.8-4.5,0.1-13.1h-20.6c-0.5,4.3-0.7,8.7-0.8,13.1L272.4,143.6z"/>
			
				<linearGradient id="SVGID_20_" gradientUnits="userSpaceOnUse" x1="-1583.0935" y1="130.89" x2="-1581.9835" y2="31.91" gradientTransform="matrix(-1 0 0 -1 -1309.5 285.89)">
				<stop  offset="0" style="stop-color:#F70F47"/>
				<stop  offset="1" style="stop-color:#9E005D"/>
			</linearGradient>
			<path class="st22" d="M268.4,171.6c-1.6-7,5.2-8.2,7.4-3.1c3.1,7.1,2.8,29.9,2.6,34.4c0,0.6-0.3,0.5-0.7,0.4
				c-0.7-0.3-1.4-0.4-2.2-0.4c-0.5,0.1-0.9,0.5-1.1,0.9C273.7,197.6,269.9,178.3,268.4,171.6z"/>
			
				<linearGradient id="SVGID_21_" gradientUnits="userSpaceOnUse" x1="-1578.4517" y1="130.95" x2="-1577.3517" y2="31.96" gradientTransform="matrix(-1 0 0 -1 -1309.5 285.89)">
				<stop  offset="0" style="stop-color:#F70F47"/>
				<stop  offset="1" style="stop-color:#9E005D"/>
			</linearGradient>
			<path class="st23" d="M262.2,144.6c-0.7-8.6,2.6-15.4,7.7-12.5c2.2,1.2,3,3.6,3.3,5.9s1.9,25.8,2.5,30c1.3,9.6-6,7-6.8,4.3
				C266.8,165.6,262.6,149.3,262.2,144.6z"/>
			
				<linearGradient id="SVGID_22_" gradientUnits="userSpaceOnUse" x1="-1563.7544" y1="131.1103" x2="-1562.6444" y2="32.1303" gradientTransform="matrix(-1 0 0 -1 -1309.5 285.89)">
				<stop  offset="0" style="stop-color:#F70F47"/>
				<stop  offset="1" style="stop-color:#9E005D"/>
			</linearGradient>
			<path class="st24" d="M250,171.1c-0.3-6.5,5.8-6.4,7.3-1.1c2.4,8.3-1.8,26.1-2,36.3c-1.1-1.8-2.1-2.2-2.5-2.1
				c-0.5,0-0.9,0.3-1.2,0.7C251.8,191.5,250.3,178.1,250,171.1z"/>
			
				<linearGradient id="SVGID_23_" gradientUnits="userSpaceOnUse" x1="-1565.912" y1="131.0895" x2="-1564.802" y2="32.0995" gradientTransform="matrix(-1 0 0 -1 -1309.5 285.89)">
				<stop  offset="0" style="stop-color:#F70F47"/>
				<stop  offset="1" style="stop-color:#9E005D"/>
			</linearGradient>
			<path class="st25" d="M257.1,171.9c-0.8,2.6-7.8,5.7-7-3.9c0.3-4.3,1.2-27.9,1.4-30.1s0.6-5.6,1.6-6c5.5-2.1,10.8,4.7,9.4,13.3
				C261.5,150.7,258.8,166.4,257.1,171.9z"/>
			<path class="st2" d="M227.8,90.8c-0.9-0.8-2-1.3-3.2-1.6c-0.9-0.1,1,1,1.7,1.6S228.7,91.4,227.8,90.8z"/>
			<path class="st2" d="M271.7,120.8c-2.5-0.5-3.8-1.3-4.9-0.7s0.5,2.8,1.4,3.2s3.9,1.9,4.8,1.1c0.8-1,0.6-2.4-0.3-3.1
				C272.3,121,272,120.9,271.7,120.8z"/>
			
				<linearGradient id="SVGID_24_" gradientUnits="userSpaceOnUse" x1="-1584.1226" y1="191.2704" x2="-1588.2626" y2="165.3504" gradientTransform="matrix(-1 0 0 -1 -1309.5 285.89)">
				<stop  offset="0" style="stop-color:#36078B"/>
				<stop  offset="1" style="stop-color:#16B1FF"/>
			</linearGradient>
			<path class="st26" d="M280.1,109.8c-1.4-2.2-4.6-6.4-8.5-11.8c-1.1-1.9-1.4-4.2-0.9-6.3c0.4-1.4,2.4-2.3,4-0.2
				c1.8,2.2,3.4,4.4,4.8,6.8c4.3,6.8,5.4,10.1,5.8,11.6c0.1,0.6-0.2,1.2-0.7,1.6c0,0.1-0.1,0.2-0.1,0.2c-2.1,3.1-4.8,5.7-7.8,7.9
				c-3,2.4-3,3.8-4.2,3.9c-1,0.1-2.3-1.3-1.5-2C272.1,120.6,277.3,113.1,280.1,109.8z"/>
			<path class="st2" d="M272.1,79.7c-1,3.9-1.3,4.8-3.3,6.2c-1.9,1.2-4.3,1.7-6.5,1.4c-2-0.3-3.2-2.7-3.4-4.5
				c-0.2-3.5,0.2-7,1.2-10.3c1.1-2.6,3.8-4.3,6.7-4C269.5,68.9,274.7,70.1,272.1,79.7z"/>
			
				<linearGradient id="SVGID_25_" gradientUnits="userSpaceOnUse" x1="-1559.6454" y1="79.9609" x2="-1559.1254" y2="95.4109" gradientTransform="matrix(-1 0 0 -1 -1309.5 285.89)">
				<stop  offset="0" style="stop-color:#2C27CE"/>
				<stop  offset="0.65" style="stop-color:#EF1D68"/>
				<stop  offset="1" style="stop-color:#EFBA92"/>
			</linearGradient>
			<path class="st27" d="M251.4,204.9c-0.8,1-1.8,1.7-2.9,2.2c-1.6,0.7-4.9,1-3,1.6c1.7,0.4,3.4,0.4,5.1,0.1
				c1.1-0.2,2.3-0.2,3.4-0.2c1.7,0,1.7-0.1,1.5-2C255.1,203.9,252.1,203.4,251.4,204.9z"/>
			
				<linearGradient id="SVGID_26_" gradientUnits="userSpaceOnUse" x1="-1531.7955" y1="231.427" x2="-1540.1956" y2="192.757" gradientTransform="matrix(-0.99 -0.16 0.16 -0.99 -1286.7924 40.9711)">
				<stop  offset="0" style="stop-color:#2C27CE"/>
				<stop  offset="1" style="stop-color:#EF1D68"/>
			</linearGradient>
			<path class="st28" d="M261,70.5c-2,2.4,8.6,9.2,11.2,9.2s2.8-4.9,1.2-7.7S265.8,64.7,261,70.5z"/>
			
				<linearGradient id="SVGID_27_" gradientUnits="userSpaceOnUse" x1="-1526.896" y1="230.3559" x2="-1535.296" y2="191.6859" gradientTransform="matrix(-0.99 -0.16 0.16 -0.99 -1286.7924 40.9711)">
				<stop  offset="0" style="stop-color:#2C27CE"/>
				<stop  offset="1" style="stop-color:#EF1D68"/>
			</linearGradient>
			<path class="st29" d="M265.4,70.5c-0.8,2.2-4.8,2.1-5.8,3.8c-0.6,1.1-0.2-2.6,1-4.1S266.9,66,265.4,70.5z"/>
			
				<ellipse transform="matrix(0.3782 -0.9257 0.9257 0.3782 95.1124 300.9055)" class="st2" cx="271.5" cy="79.7" rx="2.8" ry="1.4"/>
			<g>
				<defs>
					<path id="SVGID_28_" d="M226.4,90.8c0.1,0.1,0.2,0.1,0.3,0.2c-0.1,0.1-0.1,0.3-0.2,0.4c-0.4,1.9-0.4,1.7,1,3
						c0.6,0.5,1.5,0.6,2.2,0.4c0.6,0.9,1.9,0.5,5.2,2.2c3.2,1.9,6.7,3.2,10.4,3.9c0.4,0.1,0.8,0.1,1.2,0c2.5-0.3,4.9-0.9,7.3-1.7
						c-1,1.6-1.6,3-0.3,6.5c3.1,8.2-1.5,20.9-1.7,24.9c-0.5,4.3-0.7,8.7-0.8,13.1c-0.3,7.9-0.9,21.2-1.1,24.3c0,0.7,0,1.3,0,2
						c0,0.4,0,0.8,0,1.2c0.3,6.9,1.7,20.1,1.6,33.4c-0.1,0.1-0.2,0.2-0.3,0.3c-0.8,1-1.8,1.7-2.9,2.2c-1.6,0.7-4.9,1-3,1.6
						c1.7,0.4,3.4,0.4,5.1,0.1c1.1-0.2,2.3-0.2,3.4-0.2c1.7,0,1.7-0.1,1.5-2c0-0.1,0-0.1-0.1-0.2l0,0c0.3-10,4.2-27.3,2.1-35.8
						c1.6-6.1,3.9-19.1,4.9-24.8c0.8,5.1,3.8,17.1,5.8,24.1c0,0.6,0.1,1.2,0.2,1.8c1.6,6.7,5.4,26,6,32.2l0,0
						c-0.2,0.8-0.1,1.1-0.2,1.7c-0.1,0.8-0.8,1.1-1.3,1.7s-1.2,1.8,1.6,1.9c3,0.1,4.8-0.1,4.3-1.8c-0.4-1-0.6-2-0.6-3
						c0-0.3,0-0.6,0-0.9c0.1-0.1,0.1-0.2,0.1-0.4c0.2-4.5,0.4-27.3-2.6-34.4l0,0c0-0.2,0-0.3,0-0.4c-0.5-4.1-2.1-26.7-2.4-29.8
						c0-2.5-0.2-5.1-0.7-7.6c0-0.5-1.1-5-1.3-5.6c0-0.2-0.1-0.4-0.1-0.6c0.7,0.2,1.4,0.2,1.8-0.1c0.3-0.3,0.5-0.7,0.5-1.2
						c1-1.3,2.2-2.5,3.4-3.6c3-2.2,5.6-4.9,7.8-7.9c0.1-0.1,0.1-0.2,0.1-0.2c0.5-0.4,0.8-1,0.7-1.6c-0.4-1.5-1.5-4.8-5.8-11.6
						c-0.5-0.8-0.9-1.4-1.3-2.1c-0.2-1.2-0.5-2.4-0.9-3.5c-1.2-3.9-1.5-8-0.9-12.1c0.7-4.4-1.1-8.8-4.6-11.4
						c-1.4-1.1-3.1-1.7-4.8-1.6c-0.9-0.1-1.8,0-2.7,0.3c-1.4,0.3-2.7,1.1-3.7,2.1c-1.2,1.5-1.6,5.1-1,4.2c-0.6,2.8-0.9,5.6-0.7,8.4
						c0.1,1.1,0.6,2.2,1.2,3.1c-0.2,1.4-0.3,2.9-0.3,4.3c-6.9,3.1-12,5.6-13.9,6.1h-0.1c-3.9-1.2-13.4-3.1-14.8-3.8
						c-0.1-0.1-0.3-0.1-0.4-0.1c-0.8-0.7-1.8-1.3-2.8-1.8c-0.9-0.7-1.9-1.2-3-1.5C223.8,89.1,225.7,90.2,226.4,90.8z M271.7,120.8
						L271.7,120.8c-0.5-0.1-0.9-0.2-1.3-0.3c-0.4-2.5-0.4-5,0-7.5c0.4-2.9,1.1-5.8,1.9-8.7c1.2-0.1,2.3-0.4,3.3-0.9
						c2,2.8,3.7,5,4.6,6.4C277.7,112.7,273.5,118.6,271.7,120.8z"/>
				</defs>
				<clipPath id="SVGID_29_">
					<use xlink:href="#SVGID_28_"  style="overflow:visible;"/>
				</clipPath>
			</g>
		</g>
	</g>
</g>
</svg>
