<?xml version="1.0" encoding="utf-8"?>
<!-- Generator: Adobe Illustrator 21.0.0, SVG Export Plug-In . SVG Version: 6.00 Build 0)  -->
<svg version="1.1" id="Слой_1" xmlns="http://www.w3.org/2000/svg" xmlns:xlink="http://www.w3.org/1999/xlink" x="0px" y="0px"
	 viewBox="0 0 290.8 262" style="enable-background:new 0 0 290.8 262;" xml:space="preserve">
<style type="text/css">
	.st0{opacity:0.1;fill:#ED0F0F;enable-background:new    ;}
	.st1{fill:#FFAF84;}
	.st2{fill:url(#SVGID_1_);}
	.st3{fill:url(#SVGID_2_);}
	.st4{fill:url(#SVGID_3_);}
	.st5{fill:url(#SVGID_4_);}
	.st6{fill:#ED9169;}
	.st7{fill:url(#SVGID_5_);}
	.st8{fill:url(#SVGID_6_);}
	.st9{fill:url(#SVGID_7_);}
	.st10{fill:url(#SVGID_8_);}
	.st11{fill:url(#SVGID_9_);}
	.st12{fill:url(#SVGID_10_);}
	.st13{fill:url(#SVGID_11_);}
	.st14{fill:url(#SVGID_12_);}
	.st15{fill:url(#SVGID_13_);}
	.st16{fill:none;stroke:#0037FF;stroke-miterlimit:10;}
	.st17{fill:url(#SVGID_16_);}
	.st18{fill:url(#SVGID_17_);}
	.st19{fill:url(#SVGID_18_);}
	.st20{fill:url(#SVGID_19_);}
	.st21{fill:#4BADF7;}
	.st22{fill:url(#SVGID_20_);}
	.st23{fill:url(#SVGID_21_);}
	.st24{fill:url(#SVGID_22_);}
	.st25{fill:url(#SVGID_23_);}
	.st26{fill:url(#SVGID_24_);}
	.st27{fill:url(#SVGID_25_);}
	.st28{fill:url(#SVGID_26_);}
	.st29{fill:url(#SVGID_27_);}
	.st30{fill:url(#SVGID_28_);}
	.st31{fill:url(#SVGID_29_);}
	.st32{fill:url(#SVGID_30_);}
	.st33{fill:url(#SVGID_31_);}
	.st34{fill:url(#SVGID_32_);}
	.st35{fill:url(#SVGID_33_);}
	.st36{clip-path:url(#SVGID_35_);}
	.st37{opacity:0.2;fill:url(#SVGID_36_);enable-background:new    ;}
</style>
<title>main-slide7</title>
<g>
	<g id="Слой_2">
		<g id="Designed_by_Freepik">
			<circle class="st0" cx="131" cy="131" r="131"/>
		</g>
		<g id="Objects">
			<path class="st1" d="M221.4,119.7c-1.3,0.3-3.4,0.8-4.5,1s-0.8,2.7-0.2,3.1c1,0.6,4.2,1.1,4.9-0.1s2.1-1,2.3-2.3
				S223.6,119.2,221.4,119.7z"/>
			
				<linearGradient id="SVGID_1_" gradientUnits="userSpaceOnUse" x1="227.3204" y1="154.0724" x2="229.3904" y2="181.5524" gradientTransform="matrix(0.9993 3.786459e-02 3.786459e-02 -0.9993 -1.6689 342.861)">
				<stop  offset="0" style="stop-color:#36078B"/>
				<stop  offset="1" style="stop-color:#16B1FF"/>
			</linearGradient>
			<path class="st2" d="M233.2,190.5c-0.9,1.1-2.1,1.9-3.4,2.3c-1.8,0.7-5.6,0.9-3.5,1.7c1.9,0.5,3.9,0.6,5.8,0.3
				c1.3-0.1,2.6-0.2,3.9-0.1c1.9,0.1,2-0.1,1.8-2.2C237.5,189.7,234.1,189,233.2,190.5z"/>
			
				<linearGradient id="SVGID_2_" gradientUnits="userSpaceOnUse" x1="267.6389" y1="151.0247" x2="269.7189" y2="178.5047" gradientTransform="matrix(0.9993 3.786459e-02 3.786459e-02 -0.9993 -1.6689 342.861)">
				<stop  offset="0" style="stop-color:#36078B"/>
				<stop  offset="1" style="stop-color:#16B1FF"/>
			</linearGradient>
			<path class="st3" d="M273.7,187.7c-0.3,0.5-1.1,3.3-3,4s-5,1.5-3,2.3c1.9,0.5,3.9,0.6,5.8,0.3c1.3-0.1,1.5-1.7,2.9-2.4
				c2-1,1.8-0.9,1.6-3.1c0-1.3-1.1-2.3-2.4-2.3C274.9,186.6,274.2,187,273.7,187.7z"/>
			
				<linearGradient id="SVGID_3_" gradientUnits="userSpaceOnUse" x1="-4685.4419" y1="-349.5306" x2="-4651.2021" y2="-374.0106" gradientTransform="matrix(-0.98 0.22 -0.22 -0.98 -4424.354 772.0222)">
				<stop  offset="0" style="stop-color:#36078B"/>
				<stop  offset="1" style="stop-color:#16B1FF"/>
			</linearGradient>
			<path class="st4" d="M220.5,119.4c1.6-1.8,2.4-4.6,3.5-6.7c1.2-2.9,2.8-5.6,4.8-8c0.2-0.3,0.5-0.6,0.6-0.9c0.5-1.3,0.7-2.6,0.7-4
				c0.1-1.3,0.2-2.7,0.3-4c0.3-3.9,0.5-7.7,0.8-11.6c0.1-1.5,2.6-4.2,4.9-3.6c2.5,0.7,3.3,1.8,3.2,4.6c0,2.9-0.3,5.9-0.8,8.8
				c-0.9,6-2.2,12.3-6,17.2c-1.5,1.9-3,3.8-4.6,5.7c-3,3.4-4.2,4-6.1,4.5C220.4,121.8,219.7,120.4,220.5,119.4z"/>
			
				<linearGradient id="SVGID_4_" gradientUnits="userSpaceOnUse" x1="214.6795" y1="279.6931" x2="240.5895" y2="308.6931" gradientTransform="matrix(0.9993 3.786459e-02 3.786459e-02 -0.9993 -1.6689 342.861)">
				<stop  offset="0" style="stop-color:#2C27CE"/>
				<stop  offset="0.65" style="stop-color:#EF1D68"/>
				<stop  offset="1" style="stop-color:#EFBA92"/>
			</linearGradient>
			<path class="st5" d="M234.5,65.8c-1.3,1-1.9,1.2-2.9-0.5c0-0.1-5.2-5-0.5-7c2.2-0.9,3.9-1.4,4.4,1.7S236,64.5,234.5,65.8z"/>
			<path class="st6" d="M242.9,66.1c0.1,0.2,2.3,4.6,3.7,8.1c0.6,1.9-0.4,3.9-2.1,4.7h-0.1c-1.7,0.6-4.3-0.2-4.7-1.9
				c-0.6-2.1-1.4-4.2-2.3-6.3L242.9,66.1z"/>
			
				<linearGradient id="SVGID_5_" gradientUnits="userSpaceOnUse" x1="-4738.8076" y1="242.0393" x2="-4673.1875" y2="292.2093" gradientTransform="matrix(-1 -4.000000e-02 4.000000e-02 -1 -4475.1357 174.38)">
				<stop  offset="0" style="stop-color:#36078B"/>
				<stop  offset="1" style="stop-color:#16B1FF"/>
			</linearGradient>
			<path class="st7" d="M255.4,84.4c-1.3,10.7-0.6,27.8,1.3,34.8l-23.6-0.9c0,0-1.4-15.3-2.5-28.6c-0.3-2.5-0.2-4.9,0.3-7.4
				c0.6-2.4,2.1-4.4,4.2-5.8c1.9-1.1,3.9-1.9,6.1-2.3c1.9-0.5,3.8-0.8,5.8-0.8c2.7,0,5.6,0.6,7.2,2.9c1.4,2,1.6,4.7,1.4,7.1
				C255.5,83.8,255.5,84.1,255.4,84.4z"/>
			
				<linearGradient id="SVGID_6_" gradientUnits="userSpaceOnUse" x1="222.0284" y1="158.2349" x2="234.0584" y2="209.7449" gradientTransform="matrix(0.9993 3.786459e-02 3.786459e-02 -0.9993 -1.6689 342.861)">
				<stop  offset="0" style="stop-color:#FF664F"/>
				<stop  offset="1" style="stop-color:#9E005D"/>
			</linearGradient>
			<path class="st8" d="M256.1,133.6c0,0,2.2-4.9,0.6-14.5l-23.6-0.9c-0.7,4.8-1.2,9.6-1.4,14.4L256.1,133.6z"/>
			
				<linearGradient id="SVGID_7_" gradientUnits="userSpaceOnUse" x1="249.0524" y1="137.6316" x2="264.6824" y2="204.5516" gradientTransform="matrix(0.9993 3.786459e-02 3.786459e-02 -0.9993 -1.6689 342.861)">
				<stop  offset="0" style="stop-color:#FF664F"/>
				<stop  offset="1" style="stop-color:#9E005D"/>
			</linearGradient>
			<path class="st9" d="M253.7,161.9c-5.5-5.7-2.4-10.6,3.4-8.5c8.1,3,16.9,30,20.4,33.6c0.5,0.5,0.1,0.6-0.2,0.8
				c-1.1,0.5-1.7-0.3-3,0.1c-0.5,0.2-1.3,1.5-1.3,1.5C267.5,183.3,259,167.4,253.7,161.9z"/>
			
				<linearGradient id="SVGID_8_" gradientUnits="userSpaceOnUse" x1="233.0751" y1="155.6456" x2="245.1051" y2="207.1556" gradientTransform="matrix(0.9993 3.786459e-02 3.786459e-02 -0.9993 -1.6689 342.861)">
				<stop  offset="0" style="stop-color:#FF664F"/>
				<stop  offset="1" style="stop-color:#9E005D"/>
			</linearGradient>
			<path class="st10" d="M244.3,134.2c-0.5-9.6,3.6-16.9,9.4-13.5c2.5,1.4,3.3,4.1,3.5,6.6c0.2,2.5,1.4,21.8,1.8,26.5
				c1,10.7-7.9,7.2-8.6,4.3C248.4,150.6,244.5,139.4,244.3,134.2z"/>
			
				<linearGradient id="SVGID_9_" gradientUnits="userSpaceOnUse" x1="221.6523" y1="148.8416" x2="236.1123" y2="210.7816" gradientTransform="matrix(0.9993 3.786459e-02 3.786459e-02 -0.9993 -1.6689 342.861)">
				<stop  offset="0" style="stop-color:#FF664F"/>
				<stop  offset="1" style="stop-color:#9E005D"/>
			</linearGradient>
			<path class="st11" d="M229.5,154.5c0.4-7.2,4.2-8.7,7.7-3.7c5.5,7.9-0.1,32.1,0.5,41.5c-1.2-1.1-2.8-1.5-4.4-1.2
				c-0.8,0.3-0.2-1-0.2-1C230.2,175.3,229.2,160.9,229.5,154.5z"/>
			
				<linearGradient id="SVGID_10_" gradientUnits="userSpaceOnUse" x1="217.3856" y1="159.3155" x2="229.4156" y2="210.8255" gradientTransform="matrix(0.9993 3.786459e-02 3.786459e-02 -0.9993 -1.6689 342.861)">
				<stop  offset="0" style="stop-color:#FF664F"/>
				<stop  offset="1" style="stop-color:#9E005D"/>
			</linearGradient>
			<path class="st12" d="M238.9,156.4c-1,2.9-10.5,6.9-9.2-3.7c0.6-4.7,2.3-24,2.6-26.5s0.9-6.2,2.1-6.6c6.4-2.1,12.2,5.7,10.2,15.1
				C243.2,141,241,150.4,238.9,156.4z"/>
			
				<linearGradient id="SVGID_11_" gradientUnits="userSpaceOnUse" x1="214.408" y1="246.1456" x2="254.618" y2="289.2256" gradientTransform="matrix(0.9993 3.786459e-02 3.786459e-02 -0.9993 0.3811 342.941)">
				<stop  offset="0" style="stop-color:#36078B"/>
				<stop  offset="1" style="stop-color:#16B1FF"/>
			</linearGradient>
			<path class="st13" d="M240.9,97.2c1.8-1.5,3.4-3.1,4.9-4.9c1.2-1.4,2.3-2.8,3.4-4.3c1.8-2.3,3.4-4.8,4.8-7.4
				c1.2-2,0.5-4.5-1.5-5.7c-0.2-0.1-0.3-0.2-0.5-0.3c-2.3-0.7-3.7,0.6-6.1,3c-5.5,5.3-8.2,12.9-9.6,15.1c-0.4,0-0.8,0-1.1,0.1
				c-3.1,0.8-7.9,4.4-15.2,7.2c-1.2,0.5-0.9,2.9,0.6,3.5c1.8,0.7,3.8-0.2,8.2-1.4c2.8-0.6,5.5-1.5,8.1-2.6c1.4-0.6,2.7-1.3,3.9-2.2
				L240.9,97.2z"/>
			<path class="st1" d="M244.6,63.2c0.6,4.1,0.7,5.1-0.7,7.2c-1.3,1.9-3.3,3.3-5.6,3.9c-2.1,0.5-4.1-1.3-5-2.9
				c-1.6-3.2-2.6-6.7-3-10.3c0-2.9,1.9-5.5,4.7-6.4C237.8,54,243.1,53,244.6,63.2z"/>
			
				<linearGradient id="SVGID_12_" gradientUnits="userSpaceOnUse" x1="218.4113" y1="276.3615" x2="244.3213" y2="305.3615" gradientTransform="matrix(0.9993 3.786459e-02 3.786459e-02 -0.9993 -1.6689 342.861)">
				<stop  offset="0" style="stop-color:#2C27CE"/>
				<stop  offset="0.65" style="stop-color:#EF1D68"/>
				<stop  offset="1" style="stop-color:#EFBA92"/>
			</linearGradient>
			<path class="st14" d="M244.4,62.5c-0.8,1.4-1.4,1.7-2.8,0.5c-1.1-0.9-4.4-4.6-2.7-6.2s3.1-2.5,4.6,0.1S245.4,60.9,244.4,62.5z"/>
			
				<ellipse transform="matrix(0.1498 -0.9887 0.9887 0.1498 145.791 296.8571)" class="st1" cx="245.5" cy="63.7" rx="2.8" ry="1.5"/>
			
				<linearGradient id="SVGID_13_" gradientUnits="userSpaceOnUse" x1="212.4022" y1="281.7407" x2="238.3122" y2="310.7307" gradientTransform="matrix(0.9993 3.786459e-02 3.786459e-02 -0.9993 -1.6689 342.861)">
				<stop  offset="0" style="stop-color:#2C27CE"/>
				<stop  offset="0.65" style="stop-color:#EF1D68"/>
				<stop  offset="1" style="stop-color:#EFBA92"/>
			</linearGradient>
			<path class="st15" d="M241.4,55.5c-1,2.7-8.6,4.8-11.3,4.6s-3.7-5.1-0.2-6.3c2-0.5,0.7,0.3,2.5,0.6
				C233.2,54.5,242.4,52.5,241.4,55.5z"/>
			<path class="st1" d="M219.9,99.6c-1.2,0.4-6.8,1.8-5.3,3.3c1.1,1.4,2.8,2,4.5,1.5c2.4-0.7,2.6-1.4,2.5-3
				C221.7,100.4,221.1,99.2,219.9,99.6z"/>
			<path class="st1" d="M214.6,101.9c-0.5,0.2-3.6,1.7-3.3,2.1c0.4,0.7,2.4-0.1,3.8-0.7c0.7-0.3,1.5-1.1,1.1-1.6
				S215.4,101.5,214.6,101.9z"/>
			<g>
				<defs>
					<path id="SVGID_14_" d="M278.1,188.8c0-0.5-0.2-1-0.4-1.4c0.1-0.1,0-0.3-0.2-0.5c-3.2-3.3-10.9-26.4-18.4-32.4
						c0-0.2,0-0.5,0-0.7c-0.5-4.6-1.5-23.1-1.8-26.3c0.1-2.8,0-5.6-0.5-8.4c-1.9-7-2.6-24-1.3-34.8c0-0.3,0.1-0.6,0.1-1
						c0.2-2.4,0-5.1-1.4-7.1c-0.2-0.3-0.5-0.7-0.9-0.9l-0.3-0.2c-1.8-1.2-3.9-1.8-6.1-1.7h-0.6c-0.6-1.4-1.2-2.9-1.8-4.1
						c0.5-0.9,0.7-2,0.5-3c0.8-0.6,1.3-1.5,1.3-2.5c0.2-1.5-0.2-2.9-1-3c-0.1,0-0.2,0-0.3,0c0-1-0.5-2.2-1.4-3.9
						c-0.7-1.3-1.4-1.7-2.1-1.6c0.8-2.8-8.2-0.9-9.1-1c-1.8-0.3-0.4-1.1-2.5-0.6c-1.8,0.6-2.7,2.6-2,4.3c0.3,0.8,0.8,1.4,1.5,1.8
						c-0.7,1.5,0.5,3.3,1.4,4.5c0.5,2.5,1.3,4.8,2.5,7.1c0.9,1.6,3,3.4,5,2.9l0.4-0.1l0.3,0.7c-1.4,0.4-2.7,1-3.9,1.7
						c-2.1,1.3-3.5,3.4-4.2,5.8c-0.5,2.4-0.6,4.9-0.3,7.4l0.2,2.1l-0.2,3.2c-3.1,1.7-6.3,3.3-9.6,4.7c-0.3-0.2-0.6-0.2-0.9-0.1
						c-0.9,0.3-4.4,1.2-5.3,2.3h-0.1c-0.5,0.2-3.6,1.7-3.3,2.1c0.4,0.7,2.4-0.1,3.8-0.7l0,0c1.1,1.1,2.6,1.5,4.1,1.1
						c0.6-0.1,1.2-0.4,1.8-0.8c1.7,0.4,3.7-0.4,7.7-1.5l1.3-0.3c-0.1,0.7-0.2,1.4-0.6,2.1c-0.2,0.3-0.4,0.6-0.6,0.9
						c-1.9,2.4-3.5,5.1-4.8,8c-1,2.1-1.9,4.9-3.5,6.7c-0.1,0.2-0.2,0.3-0.3,0.5c-1.1,0.3-2.4,0.6-3.3,0.7c-1.1,0.2-0.8,2.7-0.2,3.1
						c1,0.6,4.2,1.1,4.9-0.1s2.1-1,2.3-2.3c0.1-0.3,0.1-0.6,0-0.9c1.5-1,2.8-2.2,3.9-3.6c1.6-1.8,3-3.7,4.5-5.6
						c0.4,4.2,0.6,6.9,0.6,6.9s-1,5.9-1.3,12.9c-0.6,6.8-1.7,18.1-2.1,21.6c-0.1,0.6-0.1,1.1-0.1,1.7c0,0,0,0.1,0,0.1
						c-0.3,6.4,0.6,20.8,3.6,35.6c-0.1,0.3-0.2,0.5-0.2,0.8c-0.9,0.8-2,1.5-3.1,1.9c-1.8,0.7-5.6,0.9-3.5,1.7
						c1.9,0.5,3.9,0.6,5.8,0.3c1.3-0.1,2.6-0.2,3.9-0.1c1.9,0.1,2-0.1,1.8-2.2c0-0.1,0-0.2,0-0.3l0,0c-0.5-7.9,3.3-26.1,1.4-36.5
						c2.1-6.7,3.9-13.5,5.3-20.4c0.7,5.6,4.1,15.7,6,22.6c0.4,0.9,1.1,1.7,2,2.2c0.4,0.6,0.8,1.1,1.3,1.6
						c5.3,5.5,13.8,21.4,19.2,27.6c-0.4,1-1.2,1.8-2.1,2.2c-1.8,0.7-5,1.5-3,2.3c1.9,0.5,3.9,0.6,5.8,0.3c1.3-0.1,1.5-1.7,2.9-2.4
						C278.5,190.9,278.3,191,278.1,188.8z"/>
				</defs>
				<clipPath id="SVGID_15_">
					<use xlink:href="#SVGID_14_"  style="overflow:visible;"/>
				</clipPath>
			</g>
			<path class="st16" d="M168.1,150.4l-2.6,23.6l-2.6,23.9c-0.3,2.4-1.9,4.4-4.1,5.3c-0.7,0.3-1.5,0.5-2.3,0.5h-45.1
				c-4.3-0.1-7.8-3.6-7.8-8c0-0.2,0-0.4,0-0.6L106,174l0.5-4.3c1.3-12,12.3-21.9,24.3-21.9h27.6c1,0,2.1,0.1,3.1,0.2
				C163.8,148.4,166,149.2,168.1,150.4z"/>
			<path class="st16" d="M180,150.4l-2.6,23.6l-2.6,23.9c-0.4,3.2-3.1,5.7-6.4,5.8h-53.8l3.3-29.7l0.5-4.3
				c1.3-12,12.3-21.9,24.3-21.9h27.6C173.6,147.8,177,148.7,180,150.4z"/>
			<path class="st16" d="M284.5,122.2H170.1c-3.3,0.1-6,2.5-6.4,5.8l-2.3,19.9v0.2l-2.9,25.9l-2.6,23.9c-0.3,2.2,0.9,4.4,2.9,5.3
				c0.7,0.3,1.4,0.5,2.2,0.5h114.5c3.3-0.1,6-2.5,6.4-5.8l5.2-47.5l2.6-22.4c0.4-2.8-1.5-5.4-4.3-5.8
				C285.1,122.2,284.8,122.2,284.5,122.2z"/>
			<path class="st16" d="M265.4,147.9h-27.6c-11.7,0-22.3,9.3-24.1,20.8H110.4l-6.8,26.5c-0.4,4.3,2.9,8.1,7.2,8.5
				c0.2,0,0.4,0,0.6,0h152.2c3.3-0.1,6-2.5,6.4-5.8l5.2-47.5C272.2,148.7,268.8,147.8,265.4,147.9z"/>
			<path class="st16" d="M284.5,122.2h-7.3c-3.3,0.1-6,2.5-6.4,5.8l-2.3,19.9h-18.9c-12,0-22.9,9.8-24.3,21.9l-2.8,25.4
				c-0.4,4.3,2.9,8.1,7.2,8.5c0.2,0,0.4,0,0.6,0h45.1c3.3-0.1,6-2.5,6.4-5.8l5.2-47.5l2.6-22.4c0.4-2.8-1.5-5.4-4.3-5.8
				C285.1,122.2,284.8,122.2,284.5,122.2z"/>
			
				<linearGradient id="SVGID_16_" gradientUnits="userSpaceOnUse" x1="-4495.1914" y1="735.5161" x2="-4508.6611" y2="701.936" gradientTransform="matrix(-0.97 -0.25 0.25 -0.97 -4356.1226 -307.0367)">
				<stop  offset="0" style="stop-color:#FF664F"/>
				<stop  offset="1" style="stop-color:#9E005D"/>
			</linearGradient>
			<path class="st17" d="M191,138.3c0.8-1.4,2.1-4.7,3.5-12.9c0.5-2.8,0.9-5.7,1-8.6c0.1-2.7-2-3.4-3.3-2.6
				c-1.8,1.3-3.1,3.3-3.6,5.5c-0.8,8-1.3,14.1-1.8,16.1C186.1,138.8,190.1,140,191,138.3z"/>
			
				<linearGradient id="SVGID_17_" gradientUnits="userSpaceOnUse" x1="-3839.5544" y1="1679.6974" x2="-3844.7144" y2="1666.8374" gradientTransform="matrix(-0.73 -0.69 0.69 -0.73 -3778.4241 -1292.9303)">
				<stop  offset="0" style="stop-color:#FF664F"/>
				<stop  offset="1" style="stop-color:#9E005D"/>
			</linearGradient>
			<path class="st18" d="M172.2,132.9c0.6,1.1,1.9,0.5,5.4,2.4c3.3,1.9,6.9,3.3,10.7,4c2.7,0.6,4.7-3,1.6-4.3
				c-2.6-1.2-14.8-3.6-16.4-4.3C172.4,130.2,171.7,132,172.2,132.9z"/>
			<path class="st6" d="M201.8,105.9c0,0.2,0.4,5.1,0.4,8.9c0,1.8-1.3,3.6-2.6,3.6h-0.1c-1.3,0-2.8-1.6-2.7-3.4
				c0.2-3.3,0.1-6.6,0-6.7L201.8,105.9z"/>
			
				<linearGradient id="SVGID_18_" gradientUnits="userSpaceOnUse" x1="194.1914" y1="115.9218" x2="202.6414" y2="155.8318" gradientTransform="matrix(1 0 0 -1 0 261.89)">
				<stop  offset="0" style="stop-color:#FF664F"/>
				<stop  offset="1" style="stop-color:#9E005D"/>
			</linearGradient>
			<path class="st19" d="M205.6,127c-1.1,3.3-1.8,6.8-2.3,10.3c-0.4,2.6-0.4,5.2,0,7.7c0.2,1.5,0.5,3.1,0.9,4.6
				c0.1,0.6,1.3,5.2,1.3,5.7h-21.1c0.2-4.1,4.9-17.1,1.7-25.6c-2.2-5.8,0.7-6,2.7-10.9c0.4-1.2,1-2.4,1.7-3.5c0.8-1,2-1.7,3.2-2
				c0.7-0.1,1.3-0.2,2-0.3c3.6-0.3,12-1.3,12.8,3.8c0.2,1.4,0,2.8-0.4,4.1c-0.5,1.5-1.2,2.9-1.8,4.3
				C206,125.8,205.8,126.4,205.6,127z"/>
			<path class="st1" d="M194.6,125.2c-0.9-0.8-2-1.4-3.2-1.7c-0.9-0.1,0.6,1.1,1.3,1.8S195.5,125.9,194.6,125.2z"/>
			<path class="st1" d="M193.5,124.9c-2.6-0.5-3.9-1.2-5-0.7s0.5,2.1,1.3,2.4s3.9,1.6,4.8,1S195.4,125.3,193.5,124.9z"/>
			
				<linearGradient id="SVGID_19_" gradientUnits="userSpaceOnUse" x1="272.9764" y1="136.8015" x2="271.4064" y2="123.3615" gradientTransform="matrix(1 0 -0.49 -1 -25.9639 261.89)">
				<stop  offset="0" style="stop-color:#36078B"/>
				<stop  offset="1" style="stop-color:#16B1FF"/>
			</linearGradient>
			<path class="st20" d="M191.9,136.4h-15.5c-0.7,0-1.3-0.4-1.6-1l-4.8-9.7c-0.5-0.9-0.1-2,0.8-2.5c0.3-0.1,0.5-0.2,0.8-0.2h15.5
				c0.7,0,1.3,0.4,1.6,1l4.8,9.7c0.5,0.9,0.1,2-0.8,2.5C192.4,136.3,192.1,136.4,191.9,136.4z"/>
			<g>
				<polygon class="st21" points="176.9,129.5 183.3,129.5 183.1,129.1 176.7,129.1 				"/>
				<polygon class="st21" points="179.5,130.4 183.8,130.4 183.5,129.9 179.2,129.9 				"/>
			</g>
			
				<linearGradient id="SVGID_20_" gradientUnits="userSpaceOnUse" x1="272.6586" y1="136.4727" x2="271.1386" y2="123.4127" gradientTransform="matrix(1 0 -0.49 -1 -25.9639 261.89)">
				<stop  offset="0" style="stop-color:#36078B"/>
				<stop  offset="1" style="stop-color:#16B1FF"/>
			</linearGradient>
			<path class="st22" d="M191.4,136.4h-15.1c-0.7,0-1.3-0.4-1.6-1l-4.7-9.4c-0.4-0.9-0.1-1.9,0.8-2.4c0.2-0.1,0.5-0.2,0.8-0.2h15
				c0.7,0,1.3,0.4,1.6,1l4.7,9.5c0.4,0.9,0,2-0.9,2.4C191.9,136.4,191.6,136.4,191.4,136.4z"/>
			
				<linearGradient id="SVGID_21_" gradientUnits="userSpaceOnUse" x1="-4595.4961" y1="-358.2754" x2="-4592.9658" y2="-334.9654" gradientTransform="matrix(-0.98 0.22 -0.22 -0.98 -4396.0142 749.8422)">
				<stop  offset="0" style="stop-color:#36078B"/>
				<stop  offset="1" style="stop-color:#16B1FF"/>
			</linearGradient>
			<path class="st23" d="M188,99.6c0.9,4.9,1.9,12.9,1.5,14.4c0,0,6.6-1.8,7.2-5.5s-3.5-14.1-7.4-13.6"/>
			
				<linearGradient id="SVGID_22_" gradientUnits="userSpaceOnUse" x1="-5166.6367" y1="973.092" x2="-5181.3467" y2="936.4221" gradientTransform="matrix(-0.69 -0.27 0.35 -0.94 -3699.5515 -348.2534)">
				<stop  offset="0" style="stop-color:#FF664F"/>
				<stop  offset="1" style="stop-color:#9E005D"/>
			</linearGradient>
			<path class="st24" d="M209.6,138.4c0.4-1.6,0.8-5.1,0.1-13.3c-0.2-2.9-0.6-5.7-1.2-8.5c-0.5-2.6-2.8-2.8-3.8-1.7
				c-1.4,1.8-2.2,4-2.1,6.2c1.2,8,2.3,13.9,2.3,16C204.9,140.1,209.2,140.3,209.6,138.4z"/>
			
				<linearGradient id="SVGID_23_" gradientUnits="userSpaceOnUse" x1="-433.703" y1="1601.2651" x2="-442.993" y2="1578.1151" gradientTransform="matrix(0.7827 0.6224 0.6224 -0.7827 -437.8185 1645.6312)">
				<stop  offset="0" style="stop-color:#FF664F"/>
				<stop  offset="1" style="stop-color:#9E005D"/>
			</linearGradient>
			<path class="st25" d="M193.3,127c0,1,1.8,1.3,4.3,4.4c2.2,3.1,5,5.8,8.1,8c2.2,1.7,5.5-0.8,3.2-3.3c-1.9-2.1-12.2-9.5-13.6-10.4
				C194.5,125,193.3,126,193.3,127z"/>
			<path class="st1" d="M202.7,101.5c0.5,4.2,0.6,5.1-0.8,7.2c-1.4,1.9-3.4,3.3-5.7,3.8c-2.1,0.5-4.1-1.4-5-3
				c-1.5-3.3-2.5-6.7-2.8-10.3c0.1-2.9,2-5.5,4.9-6.3C196.1,92.2,201.5,91.3,202.7,101.5z"/>
			<path class="st1" d="M175.5,132.3c-0.6-1-1.4-1.9-2.3-2.7c-1.1-0.9-2.3-0.7-2.4-0.3c-0.2,0.6-0.2,2.2,0.5,2.9
				c0.6,0.5,1.4,0.8,2.2,0.7C174.3,132.8,176.1,133.3,175.5,132.3z"/>
			
				<linearGradient id="SVGID_24_" gradientUnits="userSpaceOnUse" x1="-4619.5991" y1="75.1091" x2="-4617.5791" y2="100.0491" gradientTransform="matrix(-1 0 0 -1 -4443.2598 261.89)">
				<stop  offset="0" style="stop-color:#36078B"/>
				<stop  offset="1" style="stop-color:#16B1FF"/>
			</linearGradient>
			<path class="st26" d="M176.1,164.9c-0.8,1-1.8,1.8-3,2.3c-1.6,0.7-5,1-3.1,1.7c1.7,0.4,3.5,0.5,5.2,0.1c1.2-0.2,2.3-0.2,3.5-0.2
				c1.7,0,1.7-0.1,1.5-2.1C179.8,163.9,176.8,163.4,176.1,164.9z"/>
			
				<linearGradient id="SVGID_25_" gradientUnits="userSpaceOnUse" x1="-3994.8025" y1="1445.2628" x2="-3992.7825" y2="1470.2028" gradientTransform="matrix(-0.8 -0.6 0.6 -0.8 -3919.1941 -1038.318)">
				<stop  offset="0" style="stop-color:#36078B"/>
				<stop  offset="1" style="stop-color:#16B1FF"/>
			</linearGradient>
			<path class="st27" d="M145.1,203.1c-1.2,0.3-2.5,0.3-3.8,0c-1.7-0.4-4.6-2.2-3.5-0.5c1.1,1.4,2.5,2.5,4.1,3.2c1,0.6,2,1.3,2.9,2
				c1.4,1,1.5,1,2.4-0.7C148.7,204.6,146.6,202.4,145.1,203.1z"/>
			
				<linearGradient id="SVGID_26_" gradientUnits="userSpaceOnUse" x1="-4602.2095" y1="-357.5444" x2="-4599.6797" y2="-334.2444" gradientTransform="matrix(-0.98 0.22 -0.22 -0.98 -4396.0142 749.8422)">
				<stop  offset="0" style="stop-color:#36078B"/>
				<stop  offset="1" style="stop-color:#16B1FF"/>
			</linearGradient>
			<path class="st28" d="M188.6,96.9c-1,3.1,11.7,5.5,14.2,4.5s0.8-5.8-1.7-7.8S190.9,89.6,188.6,96.9z"/>
			
				<linearGradient id="SVGID_27_" gradientUnits="userSpaceOnUse" x1="-4596.8677" y1="-358.111" x2="-4594.3477" y2="-334.811" gradientTransform="matrix(-0.98 0.22 -0.22 -0.98 -4396.0142 749.8422)">
				<stop  offset="0" style="stop-color:#36078B"/>
				<stop  offset="1" style="stop-color:#16B1FF"/>
			</linearGradient>
			<path class="st29" d="M192.8,95.2c0.1,2.4-3.8,3.8-4.1,5.9c-0.2,1.3-1.2-2.4-0.6-4.3S192.6,90.4,192.8,95.2z"/>
			
				<linearGradient id="SVGID_28_" gradientUnits="userSpaceOnUse" x1="-4606.2837" y1="-357.0958" x2="-4603.7637" y2="-333.7858" gradientTransform="matrix(-0.98 0.22 -0.22 -0.98 -4396.0142 749.8422)">
				<stop  offset="0" style="stop-color:#36078B"/>
				<stop  offset="1" style="stop-color:#16B1FF"/>
			</linearGradient>
			<path class="st30" d="M202.3,100.9c1.2,4.8-1.6,9.2-2,10.7c0,0,6.6-1.8,7.2-5.5S206,88.9,193.1,92"/>
			
				<linearGradient id="SVGID_29_" gradientUnits="userSpaceOnUse" x1="145.4633" y1="71.698" x2="173.6233" y2="117.828" gradientTransform="matrix(1 0 0 -1 0 261.89)">
				<stop  offset="0" style="stop-color:#2C27CE"/>
				<stop  offset="0.65" style="stop-color:#EF1D68"/>
				<stop  offset="1" style="stop-color:#EFBA92"/>
			</linearGradient>
			<path class="st31" d="M158.6,143.6c-3.8-5.5,1.5-8.7,5.8-5c6.7,5.9,10.1,18,15.6,26.9c-1.9-0.9-3.1-0.9-3.5-0.6
				c-0.6,0.5-1.2,0.9-1.2,0.9C167.9,154.2,162.6,149.4,158.6,143.6z"/>
			
				<linearGradient id="SVGID_30_" gradientUnits="userSpaceOnUse" x1="168.474" y1="57.6498" x2="196.6339" y2="103.7798" gradientTransform="matrix(1 0 0 -1 0 261.89)">
				<stop  offset="0" style="stop-color:#2C27CE"/>
				<stop  offset="0.65" style="stop-color:#EF1D68"/>
				<stop  offset="1" style="stop-color:#EFBA92"/>
			</linearGradient>
			<path class="st32" d="M202,168.7c0,0,7.1,0.5,3.4-13.4h-21.1c0,0-5.4,7.3,2.9,13.4H202z"/>
			
				<linearGradient id="SVGID_31_" gradientUnits="userSpaceOnUse" x1="150.0301" y1="68.9177" x2="178.1901" y2="115.0377" gradientTransform="matrix(1 0 0 -1 0 261.89)">
				<stop  offset="0" style="stop-color:#2C27CE"/>
				<stop  offset="0.65" style="stop-color:#EF1D68"/>
				<stop  offset="1" style="stop-color:#EFBA92"/>
			</linearGradient>
			<path class="st33" d="M158.7,143c-1.8-2.2-0.5-9.9,7.3-3.8c3.5,2.7,23.3,16.8,25.1,18.2c1.5,1.1,2.3,2.9,2.1,4.7
				c-1.2,5.9-7.7,6.8-14.5,0.7C174.3,158.7,162.5,147.5,158.7,143z"/>
			
				<linearGradient id="SVGID_32_" gradientUnits="userSpaceOnUse" x1="109.7107" y1="-0.2505" x2="172.4407" y2="92.5796" gradientTransform="matrix(1 0 0 -1 0 261.89)">
				<stop  offset="0" style="stop-color:#2C27CE"/>
				<stop  offset="0.65" style="stop-color:#EF1D68"/>
				<stop  offset="1" style="stop-color:#EFBA92"/>
			</linearGradient>
			<path class="st34" d="M163.2,175.4c3.7-6.3,9.7-2.4,7.7,2.9c-2.8,7.5-19.4,23.8-22.7,27.1c-0.4,0.4-0.6,0.1-0.8-0.2
				c-0.5-1-0.9-1.7-1.3-1.9c-0.6-0.1-1.1-0.2-1.7-0.1C148.3,198.2,159.6,181.6,163.2,175.4z"/>
			
				<linearGradient id="SVGID_33_" gradientUnits="userSpaceOnUse" x1="118.6677" y1="-6.3085" x2="181.4077" y2="86.5216" gradientTransform="matrix(1 0 0 -1 0 261.89)">
				<stop  offset="0" style="stop-color:#2C27CE"/>
				<stop  offset="0.65" style="stop-color:#EF1D68"/>
				<stop  offset="1" style="stop-color:#EFBA92"/>
			</linearGradient>
			<path class="st35" d="M192.3,158.5c8.5-2.6,15.5,0.9,13.7,6.7c-0.8,2.4-3,3.8-5.2,4.5s-25.5,7.4-29.6,8.8
				c-9.4,3.3-8.3-4.6-5.8-5.9C171.7,169.2,187.7,159.9,192.3,158.5z"/>
			
				<ellipse transform="matrix(0.3782 -0.9257 0.9257 0.3782 31.1109 252.2521)" class="st1" cx="203.3" cy="103" rx="2.8" ry="1.5"/>
			<g>
				<defs>
					<path id="SVGID_34_" d="M209.7,125.1c-0.2-2.9-0.6-5.7-1.2-8.5c-0.1-0.7-0.5-1.4-1.1-1.9c-1.2-1.2-3.1-1.7-5.2-1.9
						c0-0.6-0.1-1.3-0.1-1.9c2-0.8,5-2.4,5.4-4.8c0.6-3.6-1.4-16.6-13.5-14.3l-0.3,0.1l-0.6,0.1l0,0c-0.9,0.3-1.6,0.7-2.3,1.3
						c-1.3,0.9-2.2,2.1-2.8,3.5c-0.3,1.3-0.2,2.7,0.2,4c0.8,4.9,1.6,11.7,1.3,13.1c1.5-0.4,2.9-1.1,4.2-1.8c0.7,0.4,1.6,0.6,2.4,0.4
						c0.3-0.1,0.6-0.1,0.9-0.2c0,0.2,0,0.4,0,0.7l-1.3,0.1c-0.7,0-1.3,0.1-2,0.3c-1.3,0.3-2.4,1-3.2,2c-0.7,1.1-1.3,2.3-1.7,3.5
						c-0.7,1.5-1.5,2.9-2.4,4.2h-14.7c-1,0-1.8,0.8-1.8,1.8c0,0.3,0.1,0.6,0.2,0.8l0.1,0.2v0.1l1.5,3c-0.4,0-0.6,0.2-0.7,0.3
						c-0.2,0.6-0.2,2.2,0.5,2.9c0.2,0.2,0.5,0.3,0.7,0.4c0,0.1,0.1,0.2,0.1,0.3c0.3,0.6,0.8,0.7,1.8,1l0.8,1.6c0.3,0.6,0.9,1,1.6,1
						h3.5c2.3,1.2,4.7,2.1,7.3,2.6c-0.5,4.6-1.3,9.1-2.3,13.6c-6.7-4.8-16.4-11.7-18.7-13.5c-3-2.3-5-2.6-6.3-2
						c-2.4,0.4-3.6,3-1.2,6.5c4.1,5.8,9.3,10.6,16.6,22.3c-0.6,0.5-1.3,1-2.1,1.3c-1.6,0.7-5,1-3.1,1.7c0.6,0.2,1.2,0.3,1.8,0.3
						c-2.5,1.4-4.7,2.6-6.3,3.5c-0.5,0.3-1,0.8-1.2,1.4c-0.4,0.4-0.7,0.9-1,1.4c-3.6,6.1-14.9,22.8-18.8,27.9
						c-1,0.1-2.1,0.1-3.1-0.2c-1.7-0.4-4.6-2.2-3.5-0.5c1.1,1.4,2.5,2.5,4.1,3.2c1,0.6,2,1.3,2.9,2c1.4,1,1.5,1,2.4-0.7
						c0.3-0.4,0.4-0.9,0.4-1.4c0.1,0.1,0.3,0,0.5-0.2c3.3-3.2,19.3-19,22.5-26.6l0.5-0.2c4.1-1.5,27.4-8,29.6-8.8
						c1.1-0.4,2.2-0.9,3.1-1.6c1.8-1,3.8-4.1,1.4-12.9c-0.1-0.5-1.2-5.1-1.3-5.7c-0.4-1.5-0.6-3-0.9-4.6c-0.4-2.5-0.4-5-0.1-7.6
						c0.7,0.6,1.5,1.2,2.5,1.9c1,0.8,2.5,0.7,3.4-0.2c0.3-0.2,0.4-0.4,0.5-0.8C210,136.9,210.4,133.3,209.7,125.1z M204.3,131.8
						l0.1,0.4l-0.1-0.1L204.3,131.8z M180.7,164.2l-1.2,0.6c-0.6-1-1.1-2-1.7-3l0.9,0.8C179.3,163.2,180,163.8,180.7,164.2
						L180.7,164.2z"/>
				</defs>
				<clipPath id="SVGID_35_">
					<use xlink:href="#SVGID_34_"  style="overflow:visible;"/>
				</clipPath>
				<g class="st36">
					
						<linearGradient id="SVGID_36_" gradientUnits="userSpaceOnUse" x1="120.6526" y1="2450.4084" x2="244.5526" y2="2374.2886" gradientTransform="matrix(0.65 -0.7 0.36 0.62 -766.5404 -1214.7118)">
						<stop  offset="0" style="stop-color:#0000FF"/>
						<stop  offset="1" style="stop-color:#9E005D"/>
					</linearGradient>
					<path class="st37" d="M251.7,81.6c-10.4-5.4-28.4-3.2-35.3,7.3c-7,10.7-0.1,19.2-12.6,33c-9.9,11-7.9,27.2-10,38.8
						c-2.3,12.8-22.5,5.9-30.6,21.3c-12.5,23.7,12.6,40.7,28,51.6c15.9,11.2,27.6-12.2,45.4-28c13.2-11.6,22.8-24.9,20.5-37.4
						c-3.4-17.9-20.6-6.5-10.3-23.4c6.1-10.1,11.9-29.2-4.9-31.5S266.6,89.4,251.7,81.6z"/>
				</g>
			</g>
		</g>
	</g>
</g>
</svg>
