<svg xmlns="http://www.w3.org/2000/svg" viewBox="0 0 295.07 261.98"><defs><style>.cls-1{isolation:isolate;}.cls-2{fill:#ed0f0f;}.cls-2,.cls-6{opacity:0.1;}.cls-3,.cls-4,.cls-5,.cls-7{fill:none;}.cls-3,.cls-4,.cls-7{stroke:#0037ff;}.cls-3,.cls-5{stroke-linecap:round;stroke-linejoin:round;}.cls-4,.cls-7{stroke-miterlimit:10;}.cls-5{stroke:#dfe4e5;stroke-width:8px;}.cls-6{mix-blend-mode:multiply;}.cls-7{opacity:0.4;}.cls-8{fill:#d8491d;}.cls-9{fill:#4817ce;}.cls-10{fill:#f05a25;}.cls-11{fill:#6123ea;}.cls-12{fill:#f8b7b0;}.cls-13{fill:#1c1e38;}.cls-14{fill:#f6931e;}</style></defs><title>main-slide1</title><g class="cls-1"><g id="Слой_2" data-name="Слой 2"><g id="Designed_by_Freepik" data-name="Designed by Freepik"><circle class="cls-2" cx="130.99" cy="130.99" r="130.99"/><path class="cls-3" d="M294.22,125.24h-1v.62l-.25-.17L195.1,69.18a3.16,3.16,0,0,0-3.15,0l-56.21,32.46a3.14,3.14,0,0,0-.9.78h-.66V106a.26.26,0,0,0,0,0,3.11,3.11,0,0,0,1.57,2.68l97.89,56.52a3.12,3.12,0,0,0,3.15,0L293,132.8a3.26,3.26,0,0,0,.95-.84,3.2,3.2,0,0,0,.62-1.89v-3.4A3.14,3.14,0,0,0,294.22,125.24Z"/><path class="cls-3" d="M294.57,126.67a3.3,3.3,0,0,1-.12.88,3,3,0,0,1-1.19,1.69l-.25.17-56.22,32.45a3.12,3.12,0,0,1-3.15,0l-97.89-56.52a3.09,3.09,0,0,1-1.45-1.85,3.14,3.14,0,0,1,1.45-3.6l56.21-32.46a3.16,3.16,0,0,1,3.15,0L293,123.95a3,3,0,0,1,1.23,1.3A3.14,3.14,0,0,1,294.57,126.67Z"/><path class="cls-4" d="M218.73,124.21l-16.63,9.6a.7.7,0,0,0,0,1.22L218,144.22a3.65,3.65,0,0,0,3.64,0L237.58,135a.7.7,0,0,0,0-1.22L221,124.21A2.23,2.23,0,0,0,218.73,124.21Z"/><path class="cls-4" d="M228.18,132.84c.44,2.27-2.2,4.64-5.9,5.3s-7.05-.64-7.49-2.91,2.2-4.64,5.9-5.3S227.74,130.58,228.18,132.84Z"/><path class="cls-4" d="M227.49,131.77c.45,2.26-2,4.6-5.53,5.22s-6.72-.71-7.17-3,2-4.6,5.53-5.22S227,129.51,227.49,131.77Z"/><path class="cls-5" d="M156.31,176.78"/><g class="cls-6"><ellipse class="cls-4" cx="193.53" cy="78.92" rx="4.66" ry="2.75"/></g><path class="cls-4" d="M198.23,75.79a4.69,4.69,0,0,1-9.16,1.44,4.69,4.69,0,0,1,5.29-6.06A4.7,4.7,0,0,1,198.15,75,4.64,4.64,0,0,1,198.23,75.79Z"/><path class="cls-4" d="M192,80.5a4.94,4.94,0,0,1-3.19-3.19,4.89,4.89,0,0,1-.24-1.52,4.94,4.94,0,1,1,4.94,4.95A4.9,4.9,0,0,1,192,80.5Zm-2.93-4.71a4.44,4.44,0,0,0,4.44,4.45,4.44,4.44,0,0,0,.78-8.82,4.38,4.38,0,0,0-.78-.07A4.45,4.45,0,0,0,189.09,75.79Z"/><path class="cls-4" d="M193.68,80.73a.25.25,0,0,0,.13-.46,3.37,3.37,0,0,1-1.75-2.5,2.69,2.69,0,0,1,.89-2.25,3.35,3.35,0,0,1,2.89-1A3.05,3.05,0,0,1,198,76.24a.25.25,0,1,0,.45-.22,3.55,3.55,0,0,0-2.53-1.94,3.85,3.85,0,0,0-3.32,1.08,3.18,3.18,0,0,0-1,2.67,3.85,3.85,0,0,0,2,2.88A.25.25,0,0,0,193.68,80.73Z"/><path class="cls-4" d="M189.08,75.94a4.34,4.34,0,0,0,2.47-1.43,3,3,0,0,0,1.07-2.28,1.57,1.57,0,0,0-.44-1.08.25.25,0,0,0-.32.39,1.14,1.14,0,0,1,.25.72,2.55,2.55,0,0,1-.93,1.9c-.86.86-1.86,1.42-2.27,1.26a.25.25,0,1,0-.18.46A.9.9,0,0,0,189.08,75.94Z"/><polygon class="cls-4" points="192.24 108.31 166.69 123.06 183.73 132.9 209.28 118.15 192.24 108.31"/><polygon class="cls-4" points="192.24 107.95 166.69 122.7 183.73 132.54 209.28 117.79 192.24 107.95"/><polygon class="cls-4" points="192.24 107.6 166.69 122.35 183.73 132.18 209.28 117.43 192.24 107.6"/><path class="cls-4" d="M184.56,132.2a.52.52,0,0,0,.11-.58.58.58,0,0,0-.11-.17.52.52,0,0,0-.85.16.47.47,0,0,0,0,.21.53.53,0,0,0,.9.37Zm-.26-.5,0,.06a.17.17,0,0,1,0,.06.17.17,0,0,1,0,.12.18.18,0,0,1-.24,0,.17.17,0,0,1,0-.12.14.14,0,0,1,0-.06l0-.06a.18.18,0,0,1,.12,0A.17.17,0,0,1,184.3,131.7Z"/><path class="cls-4" d="M187.23,130.68a.53.53,0,0,0,.19-.72.53.53,0,0,0-1,.13.52.52,0,0,0,.05.4.53.53,0,0,0,.46.26A.49.49,0,0,0,187.23,130.68Zm-.12-.54a.17.17,0,0,1,0,.13.17.17,0,0,1-.08.11.17.17,0,0,1-.23-.06h0a.17.17,0,0,1,.06-.23l.08,0A.17.17,0,0,1,187.11,130.14Zm2.89-1.06a.52.52,0,0,0,.25-.32.53.53,0,0,0-.78-.59.53.53,0,0,0,.53.91Zm-.11-.55a.17.17,0,0,1-.06.24.16.16,0,0,1-.23-.06h0a.17.17,0,0,1,.06-.23l.09,0A.17.17,0,0,1,189.88,128.54Zm2.89-1.05a.53.53,0,1,0-.72-.19h0a.53.53,0,0,0,.46.26A.53.53,0,0,0,192.77,127.48Zm-.43-.5a.17.17,0,0,1,.21-.12.17.17,0,0,1,.1.08.17.17,0,0,1,0,.13.17.17,0,0,1-.08.1.18.18,0,0,1-.24-.06A.17.17,0,0,1,192.34,127Zm3.21-1.1A.53.53,0,0,0,195,125a.53.53,0,0,0,.27,1A.53.53,0,0,0,195.55,125.88Zm-.12-.54a.17.17,0,0,1-.06.23.18.18,0,0,1-.24-.06h0a.17.17,0,0,1,.06-.23l.08,0A.17.17,0,0,1,195.43,125.34Zm2.89-1.06a.53.53,0,1,0-.53-.92.53.53,0,0,0-.19.72.52.52,0,0,0,.46.26A.53.53,0,0,0,198.32,124.28Zm-.12-.55a.17.17,0,0,1-.06.24.18.18,0,0,1-.23-.06h0a.17.17,0,0,1,.06-.23l.09,0A.17.17,0,0,1,198.2,123.74Zm2.89-1.06a.52.52,0,0,0,.19-.72.52.52,0,0,0-.72-.2.53.53,0,0,0-.19.72h0a.52.52,0,0,0,.72.19Zm-.35-.61a.16.16,0,0,1,.13,0,.18.18,0,0,1,.12.21.16.16,0,0,1-.08.1.16.16,0,0,1-.24-.06A.17.17,0,0,1,200.74,122.08Zm3.12-1a.53.53,0,0,0,.2-.73.53.53,0,0,0-.91.53.52.52,0,0,0,.72.19Zm-.11-.54a.17.17,0,0,1-.29.17h0a.17.17,0,0,1,.06-.23l.08,0A.17.17,0,0,1,203.74,120.54Zm2.89-1.06a.53.53,0,0,0,.19-.72.53.53,0,0,0-.92.53h0a.53.53,0,0,0,.72.19Zm-.35-.6a.17.17,0,0,1,.13,0,.17.17,0,0,1,.1.08.17.17,0,0,1-.06.23.18.18,0,0,1-.24-.06A.17.17,0,0,1,206.28,118.88Z"/><path class="cls-4" d="M209.34,117.91a.54.54,0,0,0,.17-.12.49.49,0,0,0,.12-.17.51.51,0,0,0,0-.4.54.54,0,0,0-.12-.17.52.52,0,0,0-.17-.11.53.53,0,0,0-.58.12.6.6,0,0,0-.11.17.52.52,0,0,0,0,.2.52.52,0,0,0,0,.2.55.55,0,0,0,.12.18.54.54,0,0,0,.17.12.56.56,0,0,0,.2,0A.52.52,0,0,0,209.34,117.91Zm-.14-.65.05,0,0,.06a.17.17,0,0,1,0,.06.18.18,0,0,1,0,.07l0,.05-.05,0a.21.21,0,0,1-.13,0l0,0,0-.06a.19.19,0,0,1,0-.13l0-.06.05,0h.13Z"/><polygon class="cls-7" points="242.83 130.83 263.29 142.43 281.74 118.47 262.83 110.21 242.83 130.83"/><polygon class="cls-4" points="245.2 130.76 266.1 141.76 283.71 117.46 264.53 109.72 245.2 130.76"/><polygon class="cls-4" points="248.86 134.49 271.63 142.51 284.36 116.94 265.17 111.14 248.86 134.49"/><path class="cls-3" d="M126.44,198.8a1.7,1.7,0,0,1-.85-3.17L152.7,180A4.72,4.72,0,0,0,155,175.9V156.59a4.7,4.7,0,0,0-7.06-4.07l-11.1,6.41a8.1,8.1,0,0,1-12.15-7V133.84a1.7,1.7,0,1,1,3.39,0v18.07a4.7,4.7,0,0,0,7.06,4.07l11.1-6.41a8.1,8.1,0,0,1,12.15,7V175.9a8.12,8.12,0,0,1-4,7l-27.11,15.66A1.69,1.69,0,0,1,126.44,198.8Z"/><path class="cls-8" d="M167.28,178.21c.2,3.56-.53,3.31,0,5.25.42,1.53,3,3,7.45,1.55s8.59-4.28,10.16-7.14-4-4.12-8.77-2.17a60,60,0,0,1-8.83,2.5"/><path class="cls-9" d="M171.72,147.76c-1,6.36-5.87,29.72-4.5,33s5.71,3.23,8.81-1.51,8.77-31,8.85-35.77C185,139.25,173,139.41,171.72,147.76Z"/><path class="cls-9" d="M165.23,157.68c6.11-3.71,16.9-9.39,19-13.43s-.79-9.55-6.75-9.46-18.56,10-23.08,10.61S157.2,162.55,165.23,157.68Z"/><path class="cls-10" d="M179.45,183.11c-.46,3.54-.79,4.8-.79,5.85s2.18,2.84,6.86,2.21,11.33-3,13.4-5.53-5.92-5.13-10.35-3.92a61.73,61.73,0,0,1-9.12,1.4"/><path class="cls-11" d="M184,152.35c-1,6.36-5.87,29.72-4.5,33s5.71,3.23,8.81-1.51,8.77-31,8.85-35.77C197.21,143.84,185.22,144,184,152.35Z"/><path class="cls-3" d="M185.35,161.11l-3.44-2v1.27L158.54,146.9a3.59,3.59,0,0,0-3.59,0l-23.82,13.76v-1.27l-3,1.72a1.12,1.12,0,0,0-.57,1v1.27a1.12,1.12,0,0,0,.57,1l3,1.72,22.67,13.09a5.88,5.88,0,0,0,5.88,0l22.23-12.83,3.44-2a1.12,1.12,0,0,0,.57-1v-1.27A1.12,1.12,0,0,0,185.35,161.11Z"/><path class="cls-3" d="M185.92,162.09a1.11,1.11,0,0,1-.2.64,1.14,1.14,0,0,1-.37.35l-3.44,2-22.23,12.83a5.88,5.88,0,0,1-5.88,0L131.13,164.8l-3-1.72a1.14,1.14,0,0,1-.37-.35,1.14,1.14,0,0,1,.37-1.62l3-1.72L155,145.63a3.59,3.59,0,0,1,3.59,0l23.37,13.49,3.44,2A1.12,1.12,0,0,1,185.92,162.09Z"/><path class="cls-12" d="M156.56,114.8a10.71,10.71,0,0,0,10.23-1.18c1.33-1-1.68-3.11-2.57-4.68a3.91,3.91,0,0,1-.13-2.75,59.6,59.6,0,0,1,2.39-8.5l-10.22-1.26s-.86,5.17-1.31,7.07a2.88,2.88,0,0,1-.34.86c-.66,1.1-2,1.31-4.36,2.4C147.41,108.09,151.58,112.91,156.56,114.8Z"/><path class="cls-12" d="M149.39,89.86c1.07,6.1,1.25,8.17,4.26,10.52s9.7,3,12,2.87c2.93-.17,3.77-3.52,4.35-6.16a44.9,44.9,0,0,0-.19-16.38c-.71-3.38-5.45-7.26-10.05-7S146.78,75,149.39,89.86Z"/><path class="cls-13" d="M167.59,87.44c-.45,5.36-2,6.27-3.57,9.62-1.42,3.13-5.18,5.43-7.91,4.65-4.9-1.4-5.16-3.2-8-8.48a19.37,19.37,0,0,1-2.26-12.07c.37-3,4.79-6.7,9.49-6.85S168.69,74.35,167.59,87.44Z"/><path class="cls-12" d="M169.38,94.12c-.21,2-1.7,3.53-3.33,3.42s-2.79-1.81-2.59-3.81,1.7-3.53,3.33-3.42S169.58,92.13,169.38,94.12Z"/><path class="cls-13" d="M165.1,83.57c3.18-1.78,7.14-3.21,5.14-5.88s-8.33-6.36-16.81-3.76S165.1,83.57,165.1,83.57Z"/><path class="cls-12" d="M175.53,107.27c3.74-.14,4.29-1.51,7.33-2s4.31-.5,6.24.83,3.28,5-2,4.91-5.85.94-8.93,1.31C174.88,112.71,175.53,107.27,175.53,107.27Z"/><path class="cls-13" d="M189.83,112.57a.38.38,0,0,0,.25-.65l-7.75-7.08a.38.38,0,1,0-.51.55l7.75,7.08A.37.37,0,0,0,189.83,112.57Z"/><path class="cls-12" d="M174.82,110.74c3.73.08,4.44-.48,7.53-.57s4.33,0,6.08.59,2.61,2.24-2.61,2-5.92.17-9,.21C173.48,113,174.82,110.74,174.82,110.74Z"/><path class="cls-10" d="M151.51,124.79c7.17-.48,25-9.83,28.15-11.79a1.47,1.47,0,0,0,.68-1.17c.19-3.1-1.48-5.58-2.33-5.75s-22.57,11.19-32.52,8.68"/><path class="cls-11" d="M143.71,149.75c-1.12,5.25-1.87,9.93.5,12.53s9.43,7,19.71,5.35,17.48-4.74,16-7.6-.37-10.27-11.5-9.27S143.71,149.75,143.71,149.75Z"/><path class="cls-11" d="M177.48,163.72c6.11-3.71,16.9-9.39,19-13.42s-.79-9.55-6.75-9.46-18.56,10-23.08,10.61S169.45,168.59,177.48,163.72Z"/><path class="cls-14" d="M172.52,151.09c.06,2.81-.57,7-6.26,8.24-6.36,1.43-12.92.56-17.61-2-5.73-3.09-5.43-4.64-4.28-10.24a91.12,91.12,0,0,0,1-9.81c0-6-.91-9.2-1.51-13.16-.88-5.71-2.26-12.92,3.64-17.66a10.29,10.29,0,0,1,6.23-1.9c6.83,1.14,15.58,5.33,18.31,14.13a19.3,19.3,0,0,1,.66,3,21.19,21.19,0,0,1,.18,3.71c-.23,6.51-.35,11.32-.4,15,0,.12,0,.25,0,.37C172.39,146.71,172.48,149.36,172.52,151.09Z"/><path class="cls-10" d="M172.88,125.44c-.23,6.51-.35,11.32-.4,15a100.8,100.8,0,0,1-7.59-11.8c-4.13-7.78-3.67-13.1,2.34-12.47a6.81,6.81,0,0,1,4.81,2.61,19.3,19.3,0,0,1,.66,3A21.19,21.19,0,0,1,172.88,125.44Z"/><path class="cls-3" d="M155.86,152.6v7.15a1.94,1.94,0,0,1-.62,1.43h0a1.91,1.91,0,0,1-1-.26l-26.4-15.25a2,2,0,0,1-1-1.69v-7.15a1.92,1.92,0,0,1,.62-1.43,1.9,1.9,0,0,1,1,.26l26.4,15.24A2,2,0,0,1,155.86,152.6Z"/><path class="cls-3" d="M156.75,216.28a1.7,1.7,0,0,1-.85-3.17L183,197.47a4.72,4.72,0,0,0,2.35-4.07V173.18a4.7,4.7,0,0,0-7.06-4.07l-11.1,6.41a8.1,8.1,0,0,1-12.15-7V150.44a1.7,1.7,0,1,1,3.39,0V168.5a4.7,4.7,0,0,0,7.06,4.07l11.1-6.41a8.1,8.1,0,0,1,12.15,7v20.21a8.12,8.12,0,0,1-4,7l-27.11,15.65A1.69,1.69,0,0,1,156.75,216.28Z"/><path class="cls-12" d="M210.81,130.31c3.55-.56,3.91-1.93,6.75-2.74s4-1,6,.08,4.69,4.81-.34,5.34a51.34,51.34,0,0,0-9.36,1.82C210.81,135.56,210.81,130.31,210.81,130.31Z"/><path class="cls-14" d="M160.16,119.81c5.78,6.48,19,16.51,25.77,18.11,7,1.65,26.81-2,30.37-3a1.47,1.47,0,0,0,1-.92c1.09-2.91.23-5.76-.54-6.18s-24.86,4.06-33.64-1.26c-6.13-3.72-6.49-4-11.13-9.69-3.75-4.63-6.83-9.92-13-9S154.69,113.68,160.16,119.81Z"/><path class="cls-4" d="M248.77,107.93h-.37v.24l-.1-.06L211.25,86.71a1.2,1.2,0,0,0-1.19,0L188.78,99a1.19,1.19,0,0,0-.34.29h-.25V100a1.18,1.18,0,0,0,.59,1l37.05,21.39a1.18,1.18,0,0,0,1.19,0l21.28-12.28a1.23,1.23,0,0,0,.36-.32,1.21,1.21,0,0,0,.24-.72v-.66A1.19,1.19,0,0,0,248.77,107.93Z"/><path class="cls-4" d="M248.9,108.47a1.25,1.25,0,0,1,0,.33,1.15,1.15,0,0,1-.45.64l-.1.06L227,121.78a1.18,1.18,0,0,1-1.19,0l-37.05-21.39a1.17,1.17,0,0,1-.55-.7,1.19,1.19,0,0,1,.55-1.36L210.06,86a1.2,1.2,0,0,1,1.19,0l37.05,21.39a1.15,1.15,0,0,1,.46.49A1.19,1.19,0,0,1,248.9,108.47Z"/><path class="cls-4" d="M216.54,108.05l-4.4,2.54a.63.63,0,0,1-.63,0L205.3,107a.63.63,0,0,1,0-1.09l4.4-2.54a.63.63,0,0,1,.63,0l6.21,3.58A.63.63,0,0,1,216.54,108.05Z"/><path class="cls-4" d="M201.47,94.44l8.81-5.08a.74.74,0,0,1,.74,0l32,18.47a.74.74,0,0,1,0,1.29l-8.81,5.08a.74.74,0,0,1-.74,0l-32-18.47A.74.74,0,0,1,201.47,94.44Z"/><path class="cls-4" d="M210.65,60.44V85a1.19,1.19,0,0,0,.6,1l37.05,21.39a1.19,1.19,0,0,0,1.79-1V81.83a1.19,1.19,0,0,0-.6-1L212.44,59.41A1.19,1.19,0,0,0,210.65,60.44Z"/><path class="cls-4" d="M212.64,83.52V62.68a.5.5,0,0,1,.74-.43l33.83,19.53a1.78,1.78,0,0,1,.89,1.54v20.85a.5.5,0,0,1-.74.43L213.53,85.06A1.78,1.78,0,0,1,212.64,83.52Z"/><path class="cls-4" d="M242.17,99.58,218,85.64a7.29,7.29,0,0,1-3.64-6.3V69.67a2.78,2.78,0,0,1,4.18-2.41L242.71,81.2a7.3,7.3,0,0,1,3.64,6.3v9.67a2.78,2.78,0,0,1-4.18,2.41ZM216,67.7a2.26,2.26,0,0,0-1.14,2v9.67a6.79,6.79,0,0,0,3.39,5.87l24.15,13.94a2.29,2.29,0,0,0,3.43-2V87.5a6.79,6.79,0,0,0-3.39-5.87h0L218.32,67.7a2.26,2.26,0,0,0-2.29,0Zm26.55,13.72h0Z"/></g></g></g></svg>