<?xml version="1.0" encoding="utf-8"?>
<!-- Generator: Adobe Illustrator 21.0.0, SVG Export Plug-In . SVG Version: 6.00 Build 0)  -->
<svg version="1.1" id="Слой_1" xmlns="http://www.w3.org/2000/svg" xmlns:xlink="http://www.w3.org/1999/xlink" x="0px" y="0px"
	 viewBox="0 0 271.2 262" style="enable-background:new 0 0 271.2 262;" xml:space="preserve">
<style type="text/css">
	.st0{opacity:0.1;fill:#ED0F0F;enable-background:new    ;}
	.st1{fill:url(#SVGID_1_);}
	.st2{fill:url(#SVGID_2_);}
	.st3{fill:url(#SVGID_3_);}
	.st4{fill:#EA8F68;}
	.st5{fill:url(#SVGID_4_);}
	.st6{fill:url(#SVGID_5_);}
	.st7{fill:url(#SVGID_6_);}
	.st8{fill:url(#SVGID_7_);}
	.st9{fill:url(#SVGID_8_);}
	.st10{fill:#FFAF84;}
	.st11{fill:url(#SVGID_9_);}
	.st12{opacity:0.3;fill:url(#SVGID_10_);enable-background:new    ;}
	.st13{opacity:0.3;fill:url(#SVGID_11_);enable-background:new    ;}
	.st14{fill:url(#SVGID_12_);}
	.st15{fill:url(#SVGID_13_);}
	.st16{opacity:0.3;fill:url(#SVGID_14_);enable-background:new    ;}
	.st17{fill:url(#SVGID_15_);}
	.st18{fill:url(#SVGID_18_);}
	.st19{fill:url(#SVGID_19_);}
	.st20{fill:url(#SVGID_20_);}
	.st21{fill:url(#SVGID_21_);}
	.st22{fill:url(#SVGID_22_);}
	.st23{fill:url(#SVGID_23_);}
	.st24{fill:url(#SVGID_24_);}
	.st25{fill:url(#SVGID_25_);}
	.st26{fill:url(#SVGID_26_);}
	.st27{fill:url(#SVGID_27_);}
	.st28{fill:url(#SVGID_28_);}
	.st29{fill:url(#SVGID_29_);}
	.st30{fill:url(#SVGID_30_);}
	.st31{opacity:0.7;}
	.st32{fill:none;stroke:#0037FF;stroke-miterlimit:10;}
	.st33{opacity:0.3;fill:none;stroke:#0037FF;stroke-miterlimit:10;enable-background:new    ;}
	.st34{fill:url(#SVGID_31_);}
	.st35{fill:url(#SVGID_32_);}
</style>
<title>main-slide4</title>
<g>
	<g id="Слой_2">
		<g id="Designed_by_Freepik">
			<circle class="st0" cx="131" cy="131" r="131"/>
			
				<linearGradient id="SVGID_1_" gradientUnits="userSpaceOnUse" x1="267.5662" y1="43.5894" x2="268.5662" y2="69.7094" gradientTransform="matrix(1 0 0 -1 0 261.89)">
				<stop  offset="0" style="stop-color:#36078B"/>
				<stop  offset="1" style="stop-color:#168D68"/>
			</linearGradient>
			<path class="st1" d="M266.4,207.8c-0.1,0.7-0.2,1.3-0.3,2c-0.1,0.8-0.9,1.1-1.4,1.8s-1.3,1.9,1.8,2c3.2,0.1,5.1-0.1,4.6-1.9
				c-0.4-1-0.6-2-0.6-3.1c0.1-0.5,0-1.1-0.4-1.5C269.8,206.6,266.9,206,266.4,207.8z"/>
			
				<linearGradient id="SVGID_2_" gradientUnits="userSpaceOnUse" x1="245.7812" y1="158.6747" x2="230.0512" y2="149.2847" gradientTransform="matrix(1 0 0 -1 0 261.89)">
				<stop  offset="0" style="stop-color:#36078B"/>
				<stop  offset="1" style="stop-color:#168D68"/>
			</linearGradient>
			<path class="st2" d="M240.9,114.1c1.2-0.7,3.7-2.7,8.3-9c1.7-2.2,3.1-4.5,4.4-6.9c1.2-2.3,0.1-4.3-1.6-4.7
				c-2.1-0.5-4.5-0.2-6.9,3.4c-2.6,3.8-5,7.8-7.2,11.8C236,112.1,239.4,114.9,240.9,114.1z"/>
			
				<linearGradient id="SVGID_3_" gradientUnits="userSpaceOnUse" x1="254.5164" y1="177.695" x2="245.9465" y2="191.115" gradientTransform="matrix(1 0 0 -1 0 261.89)">
				<stop  offset="0" style="stop-color:#36078B"/>
				<stop  offset="1" style="stop-color:#16B1FF"/>
			</linearGradient>
			<path class="st3" d="M252.3,83.8c-1.3,0.6-1.9,0.6-2.4-1c-0.4-1.3-1-5.8,1-6.1s3.6-0.4,3.4,2.4S253.9,83.1,252.3,83.8z"/>
			<path class="st4" d="M260,86.2c0,0.2,0.5,4.5,0.5,7.8c-0.1,1.7-1.5,3.1-3.2,3.2h-0.1c-1.6,0-3.4-1.4-3.3-3
				c0.2-1.9,0.2-3.9,0.1-5.8L260,86.2z"/>
			
				<linearGradient id="SVGID_4_" gradientUnits="userSpaceOnUse" x1="242.18" y1="149.605" x2="268.7399" y2="149.605" gradientTransform="matrix(1 0 0 -1 0 261.89)">
				<stop  offset="0" style="stop-color:#36078B"/>
				<stop  offset="1" style="stop-color:#16B1FF"/>
			</linearGradient>
			<path class="st5" d="M268,104.1c-2.9,9.7-4.3,21.4-3.7,28.1h-22.1c0,0,0.1-20.7,1.6-32.1c0.4-2.8,2.1-5.3,4.7-6.5
				c1.9-0.8,3.9-1.3,5.9-1.3h4.1c1.5,0.1,2.9,0.2,4.3,0.5C268.6,94,269.7,98.5,268,104.1z"/>
			
				<linearGradient id="SVGID_5_" gradientUnits="userSpaceOnUse" x1="259.8585" y1="56.2489" x2="249.9085" y2="164.6989" gradientTransform="matrix(1 0 0 -1 0 261.89)">
				<stop  offset="0" style="stop-color:#F70F47"/>
				<stop  offset="1" style="stop-color:#FFB41D"/>
			</linearGradient>
			<path class="st6" d="M264.2,145.8c0,0,1.9-4.6,0.1-13.6h-22.1c-0.1,4.5,0.2,9.1,0.9,13.6H264.2z"/>
			
				<linearGradient id="SVGID_6_" gradientUnits="userSpaceOnUse" x1="267.2572" y1="56.9288" x2="257.3072" y2="165.3788" gradientTransform="matrix(1 0 0 -1 0 261.89)">
				<stop  offset="0" style="stop-color:#F70F47"/>
				<stop  offset="1" style="stop-color:#FFB41D"/>
			</linearGradient>
			<path class="st7" d="M259.9,174.8c-1.8-7.2,5.6-8.5,7.9-3.3c3.3,7.4,3,32,2.8,36.7c0,0.6,0,0.6-0.4,0.5c-0.5-0.1-1-1.3-2.5-1.3
				c-0.8,0-1.5,1-1.5,1C265.6,202,261.6,181.7,259.9,174.8z"/>
			
				<linearGradient id="SVGID_7_" gradientUnits="userSpaceOnUse" x1="265.1647" y1="56.7404" x2="255.2147" y2="165.1804" gradientTransform="matrix(1 0 0 -1 0 261.89)">
				<stop  offset="0" style="stop-color:#F70F47"/>
				<stop  offset="1" style="stop-color:#FFB41D"/>
			</linearGradient>
			<path class="st8" d="M253.9,146.7c-0.8-9,2.1-15.9,7.7-12.9c2.3,1.2,3.2,3.7,3.5,6.1s2,26.7,2.6,31.1c1.4,9.9-6.5,7.3-7.3,4.5
				C258.2,168.5,254.3,151.6,253.9,146.7z"/>
			
				<linearGradient id="SVGID_8_" gradientUnits="userSpaceOnUse" x1="253.6633" y1="55.6803" x2="243.7133" y2="164.1303" gradientTransform="matrix(1 0 0 -1 0 261.89)">
				<stop  offset="0" style="stop-color:#F70F47"/>
				<stop  offset="1" style="stop-color:#FFB41D"/>
			</linearGradient>
			<path class="st9" d="M246.1,174.7c-1.4-6.6,5.1-7.5,7.6-2.4c4,8.1,2.6,27.4,4.1,37.8c-1.4-1.6-2.5-1.6-3-1.5
				c-0.4,0.1-0.8,0.4-1.1,0.8C251.7,195.7,247.6,181.8,246.1,174.7z"/>
			<path class="st10" d="M244.2,106.7c-1.2-0.4-3-1.1-4-1.5s-2,1.7-1.7,2.4c0.4,1,2.7,3,3.9,2.4s2.1,0.3,3-0.6
				S246.1,107.4,244.2,106.7z"/>
			
				<linearGradient id="SVGID_9_" gradientUnits="userSpaceOnUse" x1="253.9978" y1="55.698" x2="244.0478" y2="164.198" gradientTransform="matrix(1 0 0 -1 0 261.89)">
				<stop  offset="0" style="stop-color:#F70F47"/>
				<stop  offset="1" style="stop-color:#FFB41D"/>
			</linearGradient>
			<path class="st11" d="M253.8,174.2c-0.4,2.9-7.3,7.2-8.1-2.8c-0.4-4.4-2.9-28.7-3.1-31.1s-0.5-5.9,0.3-6.5
				c5.2-3.6,11.1,2.8,11,11.8C253.8,151.6,254.6,168.3,253.8,174.2z"/>
			
				<linearGradient id="SVGID_10_" gradientUnits="userSpaceOnUse" x1="243.922" y1="149.2274" x2="262.6617" y2="149.2274" gradientTransform="matrix(1 0 0 -1 0 261.89)">
				<stop  offset="0" style="stop-color:#0000FF"/>
				<stop  offset="1" style="stop-color:#9E005D"/>
			</linearGradient>
			<path class="st12" d="M244.1,109c0.8,1.6,2.2,2.3,5.8,4.6c5.2,3.3,8.1,4.6,10.6,4.6s3-5.3-0.1-6.9c-2.6-1.4-13.2-3.1-14.8-4
				C244.6,106.7,243.4,107.7,244.1,109z"/>
			
				<linearGradient id="SVGID_11_" gradientUnits="userSpaceOnUse" x1="237.5304" y1="158.5878" x2="253.7625" y2="158.5878" gradientTransform="matrix(1 0 0 -1 0 261.89)">
				<stop  offset="0" style="stop-color:#0000FF"/>
				<stop  offset="1" style="stop-color:#9E005D"/>
			</linearGradient>
			<path class="st13" d="M253.8,93.7c-0.1,1.8-0.5,3.3-2.8,6.9c-3.1,4.8-7,11.5-9.1,13.3c-2,1.7-5.8-2.1-3.7-4.9
				c1.8-2.3,12.5-14.7,13.6-16.1C252.4,91.9,253.8,92.3,253.8,93.7z"/>
			<path class="st10" d="M262.2,83.1c-0.4,3.7-0.5,4.5-2.1,6c-1.6,1.4-3.6,2.2-5.6,2.2c-1.9,0-3.3-2-3.7-3.5
				c-0.7-3.1-0.8-6.3-0.4-9.4c0.6-2.5,2.8-4.3,5.4-4.5C258.3,73.9,263.1,74.2,262.2,83.1z"/>
			
				<linearGradient id="SVGID_12_" gradientUnits="userSpaceOnUse" x1="252.332" y1="44.1699" x2="253.322" y2="70.2899" gradientTransform="matrix(1 0 0 -1 0 261.89)">
				<stop  offset="0" style="stop-color:#36078B"/>
				<stop  offset="1" style="stop-color:#168D68"/>
			</linearGradient>
			<path class="st14" d="M253.8,209.2c-0.8,1-1.9,1.8-3.1,2.3c-1.7,0.7-5.2,1.1-3.3,1.7c1.8,0.4,3.6,0.5,5.4,0.1
				c1.2-0.2,2.4-0.2,3.7-0.2c1.8,0,1.8-0.1,1.6-2.1C257.8,208.3,254.6,207.7,253.8,209.2z"/>
			
				<linearGradient id="SVGID_13_" gradientUnits="userSpaceOnUse" x1="261.1983" y1="181.9653" x2="252.6183" y2="195.3853" gradientTransform="matrix(1 0 0 -1 0 261.89)">
				<stop  offset="0" style="stop-color:#36078B"/>
				<stop  offset="1" style="stop-color:#16B1FF"/>
			</linearGradient>
			<path class="st15" d="M262.2,82.6c-1,1-1.5,1.2-2.5-0.2c-0.8-1-2.8-4.9-1-5.8s3.2-1.5,3.9,1.1S263.4,81.4,262.2,82.6z"/>
			
				<ellipse transform="matrix(0.3783 -0.9257 0.9257 0.3783 85.6212 294.8235)" class="st10" cx="262.3" cy="83.7" rx="2.5" ry="1.3"/>
			<path class="st10" d="M251.8,95c-0.5-0.7-4.2-6.7-2.7-7c1.7-0.3,3.6,1.8,4.2,2.6c0.9,1.2,1.1,2.8,0.3,4.1
				C253.1,95.3,252.3,95.7,251.8,95z"/>
			
				<linearGradient id="SVGID_14_" gradientUnits="userSpaceOnUse" x1="256.9398" y1="155.3113" x2="268.9998" y2="155.3113" gradientTransform="matrix(1 0 0 -1 0 261.89)">
				<stop  offset="0" style="stop-color:#0000FF"/>
				<stop  offset="1" style="stop-color:#9E005D"/>
			</linearGradient>
			<path class="st16" d="M261.3,118.1c1.3-0.6,3.1-3.9,5.5-11.3c0.9-2.6,1.6-5.2,2.1-7.9c0.5-2.6-1.6-4.3-3-4
				c-2.2,0.4-4.8,2.4-5.2,3.7c-1.9,7.5-2.9,13.3-3.7,15.1C256,116.3,259.9,118.8,261.3,118.1z"/>
			
				<linearGradient id="SVGID_15_" gradientUnits="userSpaceOnUse" x1="258.6832" y1="180.3521" x2="250.1032" y2="193.7721" gradientTransform="matrix(1 0 0 -1 0 261.89)">
				<stop  offset="0" style="stop-color:#36078B"/>
				<stop  offset="1" style="stop-color:#16B1FF"/>
			</linearGradient>
			<path class="st17" d="M261,76.3c-1.2,0.8-6.7,2.3-8.3,2.7c0.9-0.5,1.8-1,2.6-1.7c-2.1,0.3-4.1,0.3-6.2,0c0.6-0.3,1.1-0.7,1.6-1.2
				c-1,0-2-0.2-2.9-0.5c0,0,6-4.1,11.2-2.6C261.6,73.8,262.2,75.5,261,76.3z"/>
			<g>
				<defs>
					<path id="SVGID_16_" d="M271.1,211.6c-0.3-0.9-0.6-1.9-0.6-2.9c0.1,0,0.1-0.1,0.1-0.5c0.2-4.7,0.5-29.3-2.8-36.7l0,0
						c0-0.2,0-0.3-0.1-0.5c-0.6-4.3-2.2-27.7-2.6-30.9c0-2.6-0.2-5.3-0.8-7.9c-0.6-6.8,0.7-18.5,3.7-28.1c0.4-1.3,0.7-2.7,0.7-4.1
						c0.1-0.4,0.1-0.8,0.2-1.1c0.3-1.5-0.3-3-1.7-3.8c-1.2-1.3-2.8-2.1-4.5-2.3c-0.7-0.1-1.5-0.3-2.3-0.4c-0.1-1.2-0.1-2.5-0.2-3.5
						c0.9-0.8,1.4-1.8,1.6-3c0.8-0.3,1.4-1,1.7-1.8c0.5-1.3,0.4-2.5-0.3-2.8c-0.1,0-0.2,0-0.3,0c0.2-1.2,0-2.5-0.4-3.7
						c-0.3-1-0.7-1.5-1.1-1.7c0.6-0.9-0.2-2.2-2.5-2.9c-5.2-1.5-11.2,2.6-11.2,2.6c0.9,0.3,1.9,0.5,2.9,0.5c-0.5,0.5-1,0.9-1.6,1.2
						c0.3,0.1,0.6,0.1,0.9,0.2c-0.8,1.4-0.4,4.3-0.1,5.3c0.1,0.2,0.2,0.5,0.3,0.7c0.1,1.4,0.3,2.8,0.6,4.2c0.1,0.3,0.2,0.6,0.3,0.9
						c-0.6-0.4-1.3-0.6-2-0.6c-1,0.2,0.3,2.8,1.4,4.8c-0.7,0.2-1.4,0.4-2,0.7c-1.8,0.9-3.2,2.4-4.1,4.3c-2,3-3.5,5.4-4.5,7.2
						c-0.9,0.1-1.7,1.8-1.4,2.4l0,0l-0.6,1.2c-1.7,3,0.9,5.6,2.5,5.5c0.5,0.1,1.1,0,1.5-0.4c0.3-0.3,0.6-0.6,0.9-0.9
						c-0.5,9.7-0.6,19.3-0.6,19.3c-0.1,4.5,0.2,9.1,0.9,13.6l0,0c0.8,8.1,2.3,22.4,2.6,25.6c0.1,0.7,0.2,1.4,0.3,2.1
						c0,0.4,0.1,0.8,0.2,1.2c1.5,7,5.5,20.9,7.6,34.5c-0.8,1-1.9,1.8-3.1,2.3c-1.7,0.7-5.2,1.1-3.3,1.7c1.8,0.4,3.6,0.5,5.4,0.1
						c1.2-0.2,2.4-0.2,3.7-0.2c1.8,0,1.8-0.1,1.6-2.1c0-0.3-0.1-0.7-0.3-1c-1.4-10.3-0.2-29-3.9-37.2c0.6-6.7-0.1-21-0.1-26.8
						c0,0.3,0,0.5,0.1,0.8c0.4,4.3,3.5,18.1,5.7,26c0,0.7,0.1,1.3,0.3,2c1.7,7,5.7,27.2,6.4,33.6l0,0c-0.1,0.6,0,0.9-0.1,1.4
						c-0.1,0.8-0.9,1.1-1.4,1.8s-1.3,1.9,1.8,2C269.8,213.6,271.7,213.4,271.1,211.6z M254.1,91.2c0,0.3,0,0.7,0,1.1H254
						c-0.1-0.4-0.2-0.8-0.4-1.2C253.8,91.2,253.9,91.2,254.1,91.2L254.1,91.2z"/>
				</defs>
				<clipPath id="SVGID_17_">
					<use xlink:href="#SVGID_16_"  style="overflow:visible;"/>
				</clipPath>
			</g>
			
				<linearGradient id="SVGID_18_" gradientUnits="userSpaceOnUse" x1="167.5614" y1="146.312" x2="133.2414" y2="171.062" gradientTransform="matrix(1 0 0 -1 0 261.89)">
				<stop  offset="0" style="stop-color:#2C27CE"/>
				<stop  offset="0.65" style="stop-color:#EF1D68"/>
				<stop  offset="1" style="stop-color:#EFBA92"/>
			</linearGradient>
			<path class="st18" d="M146.3,88.1c1.2-1.7-0.2-4.8-3.7-5.1c-4-0.3-11.1,2-7.3,11.3c4,9.7,2.7,12.2,0.1,13.6c0,0,9.1,0.7,8.4-7.3
				S143.4,92.1,146.3,88.1z"/>
			
				<linearGradient id="SVGID_19_" gradientUnits="userSpaceOnUse" x1="-281.8546" y1="-1022.6583" x2="-292.4546" y2="-1049.0883" gradientTransform="matrix(0.61 -0.79 -0.79 -0.61 -486.6569 -746.5571)">
				<stop  offset="0" style="stop-color:#F70F47"/>
				<stop  offset="1" style="stop-color:#9E005D"/>
			</linearGradient>
			<path class="st19" d="M164.6,118.4c-1.4-0.2-4.3-1.1-10.7-4.5c-2.2-1.1-4.3-2.4-6.4-3.9c-1.9-1.3-1.3-3.2,0-3.6
				c1.9-0.5,3.9-0.4,5.7,0.4c5.9,3.7,10.3,6.6,11.9,7.3C167.6,115.2,166.3,118.6,164.6,118.4z"/>
			
				<linearGradient id="SVGID_20_" gradientUnits="userSpaceOnUse" x1="48.3082" y1="-595.4739" x2="36.4382" y2="-625.0739" gradientTransform="matrix(0.85 -0.52 -0.52 -0.85 -186.5972 -397.5935)">
				<stop  offset="0" style="stop-color:#F70F47"/>
				<stop  offset="1" style="stop-color:#9E005D"/>
			</linearGradient>
			<path class="st20" d="M174.9,106.2c0.1,1-1.1,1.2-2.8,4c-1.5,2.8-3.5,5.3-5.8,7.5c-1.6,1.6-4.6-0.1-3-2.4c1.3-2,9-9,9.8-10.2
				C173.6,104.4,174.8,105.4,174.9,106.2z"/>
			<path class="st4" d="M144.9,99.7c0,0.2-0.3,4.4-0.4,7.7c0,1.6,1.1,3.1,2.3,3.1l0,0c1.4-0.2,2.5-1.5,2.4-3c-0.2-2.8,0-5.7,0-5.8
				L144.9,99.7z"/>
			
				<linearGradient id="SVGID_21_" gradientUnits="userSpaceOnUse" x1="148.5091" y1="149.2487" x2="152.4291" y2="115.5887" gradientTransform="matrix(1 0 0 -1 0 261.89)">
				<stop  offset="0" style="stop-color:#F70F47"/>
				<stop  offset="1" style="stop-color:#9E005D"/>
			</linearGradient>
			<path class="st21" d="M141.6,118c0.9,2.9,1.6,5.9,2,8.9c0.3,2.2,0.3,4.5,0,6.7c-0.2,1.3-0.4,2.7-0.8,4c-0.1,0.5-1.1,4.5-1.1,4.9
				h18.3c-0.2-3.6-4.3-14.9-1.5-22.2c1.9-5.1-0.6-5.2-2.4-9.4c-0.3-1.1-0.8-2.1-1.5-3.1c-0.7-0.9-1.7-1.5-2.8-1.7
				c-0.6-0.1-1.1-0.2-1.7-0.2c-3.1-0.3-10.4-1.2-11.1,3.3c-0.2,1.2,0,2.4,0.4,3.6c0.4,1.3,1,2.5,1.5,3.8
				C141.3,117,141.5,117.5,141.6,118z"/>
			
				<linearGradient id="SVGID_22_" gradientUnits="userSpaceOnUse" x1="155.4935" y1="125.8588" x2="139.9635" y2="80.6688" gradientTransform="matrix(1 0 0 -1 0 261.89)">
				<stop  offset="0" style="stop-color:#36078B"/>
				<stop  offset="1" style="stop-color:#168D68"/>
			</linearGradient>
			<path class="st22" d="M141.8,154.2c0,0-1.6-4-0.1-11.6h18.3c0.4,3.9,0.6,7.8,0.7,11.6H141.8z"/>
			
				<linearGradient id="SVGID_23_" gradientUnits="userSpaceOnUse" x1="112.9997" y1="346.5605" x2="97.1297" y2="300.3604" gradientTransform="matrix(0.99 0.15 0.15 -0.99 1.4265 465.6111)">
				<stop  offset="0" style="stop-color:#36078B"/>
				<stop  offset="1" style="stop-color:#16B1FF"/>
			</linearGradient>
			<path class="st23" d="M145.1,179.9c2.4-5.9-3.4-7.9-6-3.8c-3.7,5.8-5.3,27.4-5.7,31.4c-0.1,0.5,0.2,0.5,0.5,0.4
				c0.9-0.2,0.5-1,1.8-0.9c0.7,0,0.9,1,0.9,1C138,202.6,142.8,185.6,145.1,179.9z"/>
			
				<linearGradient id="SVGID_24_" gradientUnits="userSpaceOnUse" x1="153.0167" y1="126.7108" x2="137.4867" y2="81.5208" gradientTransform="matrix(1 0 0 -1 0 261.89)">
				<stop  offset="0" style="stop-color:#36078B"/>
				<stop  offset="1" style="stop-color:#16B1FF"/>
			</linearGradient>
			<path class="st24" d="M150.9,155c0.6-7.7-2.3-13.7-6.9-11.1c-1.9,1.1-2.6,3.2-2.9,5.2s-1.7,22.9-2.1,26.7
				c-1.1,8.5,5.4,6.2,6.1,3.9C146.8,173.7,150.6,159.2,150.9,155z"/>
			
				<linearGradient id="SVGID_25_" gradientUnits="userSpaceOnUse" x1="175.0891" y1="119.1272" x2="159.5591" y2="73.9372" gradientTransform="matrix(1 0 0 -1 0 261.89)">
				<stop  offset="0" style="stop-color:#36078B"/>
				<stop  offset="1" style="stop-color:#16B1FF"/>
			</linearGradient>
			<path class="st25" d="M161.8,178.7c0.2-5.8-5.2-5.6-6.5-1c-2.1,7.4,1.6,23.3,1.8,32.3c0.9-1.6,1.8-1.9,2.3-1.9
				c0.4,0,0.8,0.3,1.1,0.6C160.2,196.8,161.5,184.8,161.8,178.7z"/>
			
				<linearGradient id="SVGID_26_" gradientUnits="userSpaceOnUse" x1="164.8317" y1="122.6528" x2="149.3017" y2="77.4628" gradientTransform="matrix(1 0 0 -1 0 261.89)">
				<stop  offset="0" style="stop-color:#36078B"/>
				<stop  offset="1" style="stop-color:#16B1FF"/>
			</linearGradient>
			<path class="st26" d="M155.4,179.3c0.7,2.4,6.9,5.1,6.3-3.5c-0.3-3.8-1.1-24.8-1.2-26.9s-0.5-5-1.5-5.4
				c-4.9-1.9-9.6,4.2-8.4,11.8C151.6,160.5,154,174.4,155.4,179.3z"/>
			<path class="st10" d="M142.7,96.6c0.4,3.6,0.5,4.4,2,5.9c1.5,1.4,3.5,2.1,5.6,2.2c1.9,0,3.2-2,3.6-3.5c0.7-3,0.8-6.2,0.4-9.3
				c-0.6-2.5-2.8-4.3-5.3-4.4C146.5,87.5,141.8,87.8,142.7,96.6z"/>
			
				<linearGradient id="SVGID_27_" gradientUnits="userSpaceOnUse" x1="160.323" y1="34.2281" x2="162.073" y2="55.8581" gradientTransform="matrix(1 0 0 -1 0 261.89)">
				<stop  offset="0" style="stop-color:#2C27CE"/>
				<stop  offset="0.65" style="stop-color:#EF1D68"/>
				<stop  offset="1" style="stop-color:#EFBA92"/>
			</linearGradient>
			<path class="st27" d="M160.6,208.7c0.7,0.9,1.6,1.6,2.6,2c1.4,0.6,4.3,0.9,2.7,1.5c-1.5,0.4-3,0.4-4.5,0.1c-1-0.1-2-0.2-3-0.2
				c-1.5,0-1.5-0.1-1.3-1.8C157.3,207.9,159.9,207.4,160.6,208.7z"/>
			
				<linearGradient id="SVGID_28_" gradientUnits="userSpaceOnUse" x1="135.4904" y1="30.21" x2="137.7004" y2="57.47" gradientTransform="matrix(1 0 0 -1 0 261.89)">
				<stop  offset="0" style="stop-color:#2C27CE"/>
				<stop  offset="0.65" style="stop-color:#EF1D68"/>
				<stop  offset="1" style="stop-color:#EFBA92"/>
			</linearGradient>
			<path class="st28" d="M136.5,207.7c0.2,0.4,0.4,2.4,1.8,3s4.3,0.9,2.7,1.5c-1.5,0.4-3,0.4-4.5,0.1c-1-0.1-1.1-1.2-2.3-1.2
				c-1.5,0-1.5-0.1-1.3-1.8C133.2,206.8,135.8,206.3,136.5,207.7z"/>
			
				<linearGradient id="SVGID_29_" gradientUnits="userSpaceOnUse" x1="163.4321" y1="151.0418" x2="143.9721" y2="173.2518" gradientTransform="matrix(1 0 0 -1 0 261.89)">
				<stop  offset="0" style="stop-color:#2C27CE"/>
				<stop  offset="0.65" style="stop-color:#EF1D68"/>
				<stop  offset="1" style="stop-color:#EFBA92"/>
			</linearGradient>
			<path class="st29" d="M153.8,90.1c1.4,2.4-8.9,6.8-11.2,6.5s-2.3-5.2-0.5-7.4S150.4,84.4,153.8,90.1z"/>
			
				<linearGradient id="SVGID_30_" gradientUnits="userSpaceOnUse" x1="167.469" y1="154.5754" x2="147.999" y2="176.7854" gradientTransform="matrix(1 0 0 -1 0 261.89)">
				<stop  offset="0" style="stop-color:#2C27CE"/>
				<stop  offset="0.65" style="stop-color:#EF1D68"/>
				<stop  offset="1" style="stop-color:#EFBA92"/>
			</linearGradient>
			<path class="st30" d="M150,89.5c0.4,2,4,2.5,4.6,4.2c0.4,1.1,0.6-2.3-0.3-3.8S149.2,85.3,150,89.5z"/>
			
				<ellipse transform="matrix(0.9258 -0.378 0.378 0.9258 -26.1579 61.1194)" class="st10" cx="142.6" cy="97.2" rx="1.3" ry="2.4"/>
			<g class="st31">
				<path class="st32" d="M177.1,144.2l9.1-6.6l4.6-3.3c1-0.7,1.3-2.2,0.5-3.2c0,0,0,0,0,0l-23-32.2c-0.7-1-2.2-1.3-3.2-0.5
					l-4.6,3.3l-56.7,40.6c-1,0.7-1.3,2.2-0.5,3.2c0,0,0,0,0,0l23.1,32.2c0.7,1,2.2,1.3,3.2,0.5c0,0,0,0,0,0l38.1-27.3
					c0.3,0.2,0.8,0.2,1.1,0l8-5.7C177.1,145,177.2,144.6,177.1,144.2z"/>
				<path class="st32" d="M116.5,160.6L116.5,160.6c-0.7-1-0.5-2.3,0.5-3l0,0c1-0.7,2.3-0.5,3,0.5l0,0c0.7,1,0.5,2.3-0.5,3l0,0
					C118.5,161.8,117.2,161.5,116.5,160.6z"/>
				<path class="st32" d="M171.3,111.4L171.3,111.4c-0.3-0.4-0.2-0.9,0.2-1.2c0,0,0,0,0,0l0,0c0.4-0.3,0.9-0.2,1.2,0.2c0,0,0,0,0,0
					l0,0c0.3,0.4,0.2,0.9-0.2,1.2c0,0,0,0,0,0l0,0C172.2,111.9,171.6,111.8,171.3,111.4C171.3,111.4,171.3,111.4,171.3,111.4z"/>
				<path class="st32" d="M179,121.2l-5.1-7.1c-0.1-0.1-0.1-0.4,0.1-0.5c0.1-0.1,0.4-0.1,0.5,0.1l5.1,7.1c0.1,0.1,0.1,0.4-0.1,0.5
					C179.3,121.4,179.1,121.3,179,121.2L179,121.2z"/>
				
					<rect x="115.9" y="117" transform="matrix(0.8126 -0.5828 0.5828 0.8126 -52.8931 111.9629)" class="st32" width="63.4" height="42.5"/>
				<polygon class="st33" points="178.3,126.6 136.9,119.8 149.9,110.5 169,113.6 				"/>
				<polygon class="st33" points="184.8,135.6 127.9,126.2 134.4,121.6 180.2,129.1 				"/>
			</g>
			<path class="st10" d="M143.1,129.7c1.1-0.1,2.1,0.1,3.1,0.5c0.7,0.4-1,0.5-1.9,0.6S142.2,129.7,143.1,129.7z"/>
			<path class="st10" d="M144.1,130.4c2,1,3.3,1.3,3.8,2.2s-1.4,1.2-2.2,0.9s-3.5-1-3.8-1.9S142.6,129.6,144.1,130.4z"/>
			
				<linearGradient id="SVGID_31_" gradientUnits="userSpaceOnUse" x1="555.0814" y1="508.1519" x2="542.3214" y2="476.3619" gradientTransform="matrix(0.71 0.18 0.26 -0.97 -382.7114 497.1433)">
				<stop  offset="0" style="stop-color:#F70F47"/>
				<stop  offset="1" style="stop-color:#9E005D"/>
			</linearGradient>
			<path class="st34" d="M128.5,122.1c0.5-1.3,2-4,6.6-9.5c1.6-1.9,3.3-3.7,5.1-5.4c1.7-1.6,3.4-0.5,3.5,0.7c0.1,2-0.5,3.9-1.7,5.5
				c-4.9,5-8.7,8.7-9.7,10.1C130.9,125.6,127.9,123.6,128.5,122.1z"/>
			
				<linearGradient id="SVGID_32_" gradientUnits="userSpaceOnUse" x1="-211.4849" y1="962.405" x2="-220.7749" y2="939.245" gradientTransform="matrix(0.81 0.58 0.58 -0.81 -234.3762 1018.0309)">
				<stop  offset="0" style="stop-color:#F70F47"/>
				<stop  offset="1" style="stop-color:#9E005D"/>
			</linearGradient>
			<path class="st35" d="M142.6,131.7c-1,0.2-1.4-1-4.6-2.3c-3.1-1.1-6-2.8-8.6-4.8c-1.9-1.4-0.6-4.8,2-3.5c2.2,1.1,10.6,7.9,12,8.5
				C144.3,130,143.4,131.5,142.6,131.7z"/>
			<path class="st10" d="M172.9,106.6c-0.6-0.6-1.1-1.3-1.4-2.1c-0.2-0.5,0-1.1,0.6-1.1c1,0.2,1.8,0.7,2.4,1.5c0.3,0.6,0.3,1.4,0,2
				C174.2,107.5,173.6,107.3,172.9,106.6z"/>
			<path class="st32" d="M197.2,63.4h39.5c1.4,0,2.5,1.1,2.5,2.5v28.4c0,1.4-1.1,2.5-2.5,2.5h-39.5c-1.4,0-2.5-1.1-2.5-2.5V65.9
				C194.6,64.5,195.8,63.4,197.2,63.4z"/>
			<path class="st32" d="M236.6,63.4h-39.5c-1.4,0-2.5,1.1-2.5,2.5v6.4h44.6v-6.4C239.2,64.5,238,63.4,236.6,63.4
				C236.6,63.4,236.6,63.4,236.6,63.4z"/>
			<circle class="st32" cx="234.6" cy="67.9" r="0.8"/>
			<circle class="st32" cx="231.5" cy="67.9" r="0.8"/>
			<circle class="st32" cx="228.4" cy="67.9" r="0.8"/>
			<path class="st32" d="M221.9,80.5c0.1,0,0.2-0.1,0.2-0.2s-0.1-0.2-0.2-0.2h-23.8c-0.1,0-0.2,0.1-0.2,0.2s0.1,0.2,0.2,0.2H221.9z"
				/>
			<path class="st32" d="M221.9,83.4c0.1,0,0.2-0.1,0.2-0.2s-0.1-0.2-0.2-0.2h-23.8c-0.1,0-0.2,0.1-0.2,0.2s0.1,0.2,0.2,0.2H221.9z"
				/>
			<path class="st32" d="M221.9,86.3c0.1,0,0.2-0.1,0.2-0.2s-0.1-0.2-0.2-0.2h-23.8c-0.1,0-0.2,0.1-0.2,0.2s0.1,0.2,0.2,0.2H221.9z"
				/>
			<path class="st32" d="M221.9,89.2c0.1,0,0.2-0.1,0.2-0.2s-0.1-0.2-0.2-0.2h-16c-0.1,0-0.2,0.1-0.2,0.2s0.1,0.2,0.2,0.2H221.9z"/>
			<path class="st32" d="M221.9,77.6c0.1,0,0.2-0.1,0.2-0.2s-0.1-0.2-0.2-0.2h-23.8c-0.1,0-0.2,0.1-0.2,0.2s0.1,0.2,0.2,0.2H221.9z"
				/>
			<path class="st32" d="M225.2,75.6h9.8c0.5,0,1,0.4,1,1v7.2c0,0.5-0.4,1-1,1h-9.8c-0.5,0-1-0.4-1-1v-7.2
				C224.3,76,224.7,75.6,225.2,75.6z"/>
			<path class="st32" d="M225.1,86.4h10.2c0.4,0,0.8,0.4,0.8,0.8v2.5c0,0.4-0.4,0.8-0.8,0.8h-10.2c-0.4,0-0.8-0.4-0.8-0.8v-2.5
				C224.3,86.8,224.6,86.4,225.1,86.4z"/>
			<g id="_Группа_">
				<g id="_Группа_2">
					<circle class="st32" cx="231.5" cy="157.6" r="7.6"/>
				</g>
				<g id="_Группа_3">
					<g id="_Группа_4">
						<path class="st32" d="M233.3,161.1c-0.6,0.3-1.3,0.4-2,0.4c-1.9,0.1-3.4-1.4-3.5-3.3c0-0.1,0-0.1,0-0.2
							c-0.1-2.3,1.7-4.1,4-4.2c0.1,0,0.1,0,0.2,0c1.7-0.1,3.2,1.2,3.3,3c0,0.1,0,0.2,0,0.2c0,1.6-0.9,2.6-2.1,2.6
							c-0.5,0.1-0.9-0.3-1-0.7c0,0,0-0.1,0-0.1l0,0c-0.3,0.5-0.8,0.8-1.4,0.9c-0.7,0-1.3-0.6-1.3-1.3c0-0.1,0-0.1,0-0.2
							c0-1.4,1.1-2.6,2.5-2.6c0,0,0.1,0,0.1,0c0.5,0,0.9,0.1,1.3,0.3l-0.3,2c-0.1,0.6,0,1,0.3,1c0.5,0,1.1-0.6,1.1-1.9
							c0.1-1.3-1-2.5-2.3-2.6c-0.1,0-0.2,0-0.3,0c-1.8,0-3.2,1.5-3.2,3.3c0,0.1,0,0.1,0,0.2c-0.1,1.5,1,2.8,2.4,2.9
							c0.1,0,0.3,0,0.4,0c0.6,0,1.1-0.1,1.6-0.4L233.3,161.1z M232.3,156.5c-0.1,0-0.2,0-0.3,0c-0.8,0.1-1.4,0.8-1.3,1.6
							c0,0.4,0.2,0.7,0.6,0.7s0.8-0.5,0.9-1.2L232.3,156.5z"/>
					</g>
				</g>
			</g>
			<g id="_Группа_5">
				<g id="_Группа_6">
					
						<ellipse transform="matrix(0.9872 -0.1595 0.1595 0.9872 -6.8669 29.8758)" class="st32" cx="182.6" cy="57.7" rx="9.4" ry="9.4"/>
				</g>
				<g id="_Группа_7">
					<g id="_Группа_8">
						<path class="st32" d="M181.4,62.9l-0.8-5.1l-0.9,0.1l-0.2-1.5l0.9-0.1V56c-0.2-0.8,0-1.7,0.5-2.3c0.4-0.5,1-0.9,1.7-1
							c0.4-0.1,0.7-0.1,1.1,0l0.2,1.6c-0.2,0-0.5,0-0.7,0c-0.7,0.1-0.9,0.7-0.8,1.3l0.1,0.3l1.3-0.2l0.2,1.5l-1.3,0.2l0.8,5.1
							L181.4,62.9z"/>
					</g>
				</g>
			</g>
			<g id="_Группа_9">
				<g id="_Группа_10">
					<circle class="st32" cx="157.5" cy="73.9" r="9.4"/>
				</g>
				<g id="_Группа_11">
					<path class="st32" d="M163,70.2c-0.4,0.2-0.8,0.3-1.2,0.3c0.5-0.3,0.8-0.7,1-1.3c-0.4,0.3-0.9,0.4-1.4,0.6
						c-0.9-0.9-2.3-0.9-3.2-0.1c-0.6,0.5-0.8,1.4-0.6,2.1c-1.8-0.1-3.5-0.9-4.6-2.4c-0.6,1-0.3,2.3,0.7,3c-0.4,0-0.7-0.1-1-0.3l0,0
						c0,1.1,0.8,2,1.8,2.2c-0.3,0.1-0.7,0.1-1,0c0.3,0.9,1.1,1.6,2.1,1.6c-0.9,0.7-2.1,1.1-3.3,0.9c0,0,0.8,1.2,3.7,1.6
						s7.9-1.6,6.1-7.2C162.4,71,162.7,70.6,163,70.2z"/>
				</g>
			</g>
			<g id="_Группа_12">
				<g id="_Группа_13">
					
						<ellipse transform="matrix(0.9826 -0.1858 0.1858 0.9826 -16.5426 43.5928)" class="st32" cx="224.3" cy="110" rx="9.4" ry="9.4"/>
				</g>
				<g id="_Группа_14">
					<polygon class="st32" points="222.8,114 221.5,106.8 228,109.3 					"/>
				</g>
			</g>
			<g id="_Группа_15">
				<g id="_Группа_16">
					
						<ellipse transform="matrix(0.9817 -0.1903 0.1903 0.9817 -21.8325 43.9375)" class="st32" cx="217.8" cy="135.6" rx="9.4" ry="9.4"/>
				</g>
			</g>
			<g id="_Группа_17">
				<g id="_Группа_18">
					
						<ellipse transform="matrix(1 -5.934085e-03 5.934085e-03 1 -0.6688 1.1958)" class="st32" cx="201.2" cy="113.3" rx="7.5" ry="7.5"/>
				</g>
				<g id="_Группа_19">
					<g id="_Группа_20">
						<path class="st32" d="M201.9,115.6c-0.4,0-0.9-0.2-1.2-0.6l0,0c-0.2,1.2-1,3.9-1.8,4.5c-0.3-1.8,0.8-4.8,1.1-6.2
							c-0.5-0.9,0-2.6,1.1-2.2c1.3,0.5-1.1,3.2,0.5,3.5s2.4-3,1.3-4.1c-1.6-1.6-4.5,0-4.1,2.2c0.1,0.6,0.7,0.7,0.2,1.5l0,0
							c-0.8-0.3-1.4-1.1-1.3-2c0.1-1.6,1.4-2.9,3-3.1c1.9-0.2,3.6,0.7,3.9,2.4C205,113.6,203.9,115.8,201.9,115.6L201.9,115.6z"/>
					</g>
				</g>
			</g>
			<g id="_Группа_21">
				<g id="_Группа_22">
					<circle class="st32" cx="178.8" cy="93.3" r="6.1"/>
				</g>
				<g id="_Группа_23">
					<g id="_Группа_24">
						<path class="st32" d="M179.2,90v1.2h1.3v1.3h-1.3v2c0,0.7,0.2,1,0.7,1c0.2,0,0.4,0,0.6,0v1.3c-0.4,0.1-0.8,0.2-1.2,0.2
							c-0.5,0-0.9-0.2-1.3-0.5c-0.4-0.5-0.5-1.1-0.5-1.6v-2.3h-0.7v-1.3l0,0c0.7,0,1.2-0.5,1.2-1.2c0,0,0,0,0,0L179.2,90L179.2,90z"
							/>
					</g>
				</g>
			</g>
			<path class="st32" d="M254.7,58.1h-9.1c-1,0-1.9,0.8-1.9,1.9c0,0,0,0,0,0v6.4c0,1,0.8,1.9,1.9,1.9l0,0h3.2l1.4,1.9l1.3-1.9h3.2
				c1,0,1.9-0.8,1.9-1.9l0,0V60C256.6,59,255.8,58.1,254.7,58.1C254.7,58.1,254.7,58.1,254.7,58.1z"/>
			<path class="st32" d="M247,61.8h1.1c0.2,0,0.4,0.2,0.4,0.4v2.9c0,0.2-0.2,0.4-0.4,0.4H247c-0.2,0-0.4-0.2-0.4-0.4v-2.9
				C246.6,62,246.8,61.8,247,61.8z"/>
			<path class="st32" d="M249.2,62.3c0-0.2,0.1-0.4,0.2-0.5c0.7-0.4,1.1-1.2,1.1-2c0.1-0.8,1-0.3,1.1,0.6c0,0.7,0,1.3,0,1.3h1.4
				c0.4,0,0.7,0.3,0.7,0.7V65c0,0.4-0.3,0.7-0.7,0.7h-2.8c-0.1,0-0.2,0-0.4-0.1l-0.4-0.3c-0.2-0.1-0.3-0.3-0.3-0.5L249.2,62.3z"/>
			
				<ellipse transform="matrix(6.557733e-02 -0.9978 0.9978 6.557733e-02 33.2872 333.332)" class="st32" cx="194.6" cy="148.9" rx="5.9" ry="5.9"/>
			<polygon class="st32" points="194.9,145 195.9,147.5 198.4,148 196.4,149.7 196.7,152.3 194.5,150.9 192.1,152 192.7,149.5 
				191,147.5 193.6,147.3 			"/>
			<path class="st32" d="M222.1,132.7c-1.4-1.1-3.4-0.9-4.5,0.4c0,0-0.1,0.1-0.1,0.1c-1.4-1.1-3.4-0.8-4.5,0.6c0,0-0.1,0.1-0.1,0.1
				c-1,1.5-0.6,3.4,0.8,4.4l4.1,3.1c0.6,0.4,1.3,0.3,1.8-0.2c0,0,0,0,0,0l3.1-4.1C223.7,135.8,223.5,133.8,222.1,132.7z"/>
		</g>
	</g>
</g>
</svg>
