<?xml version="1.0" encoding="utf-8"?>
<!-- Generator: Adobe Illustrator 21.0.0, SVG Export Plug-In . SVG Version: 6.00 Build 0)  -->
<svg version="1.1" id="Слой_1" xmlns="http://www.w3.org/2000/svg" xmlns:xlink="http://www.w3.org/1999/xlink" x="0px" y="0px"
	 viewBox="0 0 267.3 262" style="enable-background:new 0 0 267.3 262;" xml:space="preserve">
<style type="text/css">
	.st0{opacity:0.1;fill:#ED0F0F;enable-background:new    ;}
	.st1{fill:none;stroke:#0037FF;stroke-linecap:round;stroke-linejoin:round;}
	.st2{opacity:0.4;fill:none;stroke:#0037FF;stroke-linecap:round;stroke-linejoin:round;enable-background:new    ;}
	.st3{opacity:0.3;fill:none;stroke:#0037FF;stroke-linecap:round;stroke-linejoin:round;enable-background:new    ;}
	.st4{fill:url(#SVGID_1_);}
	.st5{fill:url(#SVGID_2_);}
	.st6{fill:url(#SVGID_3_);}
	.st7{fill:#EA8F68;}
	.st8{fill:url(#SVGID_4_);}
	.st9{fill:url(#SVGID_5_);}
	.st10{fill:url(#SVGID_6_);}
	.st11{fill:url(#SVGID_7_);}
	.st12{fill:url(#SVGID_8_);}
	.st13{fill:url(#SVGID_9_);}
	.st14{fill:#FFAF84;}
	.st15{fill:url(#SVGID_10_);}
	.st16{fill:url(#SVGID_11_);}
	.st17{fill:url(#SVGID_12_);}
	.st18{fill:url(#SVGID_13_);}
	.st19{fill:url(#SVGID_14_);}
	.st20{fill:url(#SVGID_15_);}
	.st21{fill:url(#SVGID_16_);}
	.st22{fill:url(#SVGID_17_);}
	.st23{fill:#4E11F4;}
	.st24{fill:url(#SVGID_18_);}
	.st25{fill:url(#SVGID_19_);}
	.st26{fill:url(#SVGID_20_);}
	.st27{fill:#F70F47;}
	.st28{fill:url(#SVGID_21_);}
	.st29{fill:url(#SVGID_22_);}
</style>
<title>main-slide8</title>
<g>
	<g id="Слой_2">
		<g id="Designed_by_Freepik">
			<circle class="st0" cx="131" cy="131" r="131"/>
			<path class="st1" d="M149.3,93H216c6.6,0,12,5.4,12,12v90.8c0,6.6-5.4,12-12,12h-66.7c-6.6,0-12-5.4-12-12V105
				C137.3,98.4,142.6,93,149.3,93z"/>
			<path class="st1" d="M154.5,93h66.7c6.6,0,12,5.4,12,12v90.8c0,6.6-5.4,12-12,12h-66.7c-6.6,0-12-5.4-12-12V105
				C142.5,98.4,147.9,93,154.5,93z"/>
			<path class="st2" d="M217.4,194.6h-59.1c-1.4,0-2.6-1.1-2.6-2.6v-83.2c0-1.4,1.1-2.6,2.6-2.6h59.1c1.4,0,2.6,1.1,2.6,2.6V192
				C219.9,193.4,218.8,194.6,217.4,194.6C217.4,194.6,217.4,194.6,217.4,194.6z M158.3,106.6c-1.3,0-2.3,1-2.3,2.3V192
				c0,1.3,1,2.3,2.3,2.3h59.1c1.3,0,2.3-1,2.3-2.3v-83.2c0-1.3-1-2.3-2.3-2.3L158.3,106.6z"/>
			<path class="st1" d="M159.3,107.5h57c1.3,0,2.3,1,2.3,2.3V191c0,1.3-1,2.3-2.3,2.3h-57c-1.3,0-2.3-1-2.3-2.3v-81.1
				C157,108.6,158,107.5,159.3,107.5z"/>
			<path class="st1" d="M151,207.8h7.2c0.3,0,0.6,0.3,0.6,0.6v0.9c0,0.3-0.3,0.6-0.6,0.6H151c-0.3,0-0.6-0.3-0.6-0.6v-0.9
				C150.4,208.1,150.6,207.8,151,207.8z"/>
			<path class="st1" d="M217.5,207.8h7.2c0.3,0,0.6,0.3,0.6,0.6v0.9c0,0.3-0.3,0.6-0.6,0.6h-7.2c-0.3,0-0.6-0.3-0.6-0.6v-0.9
				C216.9,208.1,217.2,207.8,217.5,207.8z"/>
			<path class="st1" d="M155.1,118.4h1.6c0.6,0,1.1,0.5,1.1,1.1v10.8c0,0.6-0.5,1.1-1.1,1.1h-1.6c-0.6,0-1.1-0.5-1.1-1.1v-10.8
				C154,118.9,154.5,118.4,155.1,118.4z"/>
			<path class="st1" d="M155.1,169.4h1.6c0.6,0,1.1,0.5,1.1,1.1v10.8c0,0.6-0.5,1.1-1.1,1.1h-1.6c-0.6,0-1.1-0.5-1.1-1.1v-10.8
				C154,169.9,154.5,169.4,155.1,169.4z"/>
			<circle class="st2" cx="187.8" cy="152" r="19"/>
			<circle class="st1" cx="187.8" cy="150.4" r="19"/>
			<circle class="st1" cx="187.8" cy="119.2" r="4.6"/>
			<path class="st1" d="M187.8,122.8c-2,0-3.7-1.6-3.7-3.7s1.6-3.7,3.7-3.7c2,0,3.7,1.6,3.7,3.7c0,0,0,0,0,0
				C191.5,121.2,189.8,122.8,187.8,122.8z M187.8,115.8c-1.9,0-3.4,1.5-3.4,3.4s1.5,3.4,3.4,3.4c1.9,0,3.4-1.5,3.4-3.4l0,0
				C191.2,117.3,189.7,115.8,187.8,115.8z"/>
			<path class="st1" d="M187.8,164.9c-8,0-14.4-6.5-14.4-14.4s6.5-14.4,14.4-14.4s14.4,6.5,14.4,14.4l0,0
				C202.2,158.4,195.8,164.8,187.8,164.9z M187.8,137.1c-7.4,0-13.3,6-13.3,13.3s6,13.3,13.3,13.3s13.3-6,13.3-13.3l0,0
				C201.1,143.1,195.2,137.1,187.8,137.1L187.8,137.1z"/>
			<circle class="st1" cx="187.8" cy="150.4" r="6"/>
			
				<rect x="174" y="149.9" transform="matrix(0.7071 -0.7071 0.7071 0.7071 -51.3492 176.8662)" class="st1" width="27.7" height="1.1"/>
			
				<rect x="187.3" y="136.6" transform="matrix(0.7071 -0.7071 0.7071 0.7071 -51.3522 176.8733)" class="st1" width="1.1" height="27.7"/>
			<path class="st1" d="M171.5,58.7c0.8,9.5,11.7,21.8,15.2,25.5c0.6,0.6,1.5,0.6,2.1,0.1c0,0,0,0,0.1-0.1
				c3.5-3.7,14.4-16,15.2-25.5c0.1-0.6-0.2-1.2-0.8-1.5l-14.8-8c-0.4-0.2-1-0.2-1.4,0l-14.8,8C171.8,57.6,171.5,58.1,171.5,58.7z"/>
			<path class="st3" d="M186.7,80.6c-4.5-5-10.9-13.4-12.5-20.2c-0.1-0.6,0.1-1.3,0.7-1.6l12.1-7c0.5-0.3,1-0.3,1.5,0l12.1,7
				c0.6,0.3,0.9,1,0.7,1.6c-1.5,6.7-8,15.1-12.5,20.2c-0.5,0.6-1.5,0.7-2.1,0.1C186.8,80.7,186.8,80.7,186.7,80.6z"/>
			<path class="st1" d="M186.2,70.5c-0.2,0-0.4-0.1-0.6-0.3l-4.1-4.1c-0.4-0.3-0.4-0.8-0.1-1.2c0.3-0.4,0.8-0.4,1.2-0.1
				c0.1,0,0.1,0.1,0.1,0.1l3.5,3.5l8.3-8.3c0.4-0.3,0.9-0.2,1.2,0.1c0.2,0.3,0.2,0.7,0,1l-8.9,8.9C186.6,70.4,186.4,70.5,186.2,70.5
				z"/>
			
				<linearGradient id="SVGID_1_" gradientUnits="userSpaceOnUse" x1="153.9292" y1="159.0589" x2="114.9292" y2="187.1789" gradientTransform="matrix(1 0 0 -1 0 261.89)">
				<stop  offset="0" style="stop-color:#2C27CE"/>
				<stop  offset="0.65" style="stop-color:#EF1D68"/>
				<stop  offset="1" style="stop-color:#EFBA92"/>
			</linearGradient>
			<path class="st4" d="M129.8,71.6c1.4-2-0.2-5.5-4.2-5.8c-4.5-0.4-12.6,2.3-8.3,12.8c4.5,11,3.1,13.8,0.1,15.5
				c0,0,10.4,0.8,9.6-8.3S126.5,76.2,129.8,71.6z"/>
			
				<linearGradient id="SVGID_2_" gradientUnits="userSpaceOnUse" x1="-801.6531" y1="-2067.041" x2="-813.7031" y2="-2097.0811" gradientTransform="matrix(0.61 -0.79 -0.79 -0.61 -1011.5569 -1810.5071)">
				<stop  offset="0" style="stop-color:#F70F47"/>
				<stop  offset="1" style="stop-color:#9E005D"/>
			</linearGradient>
			<path class="st5" d="M150.6,106c-1.6-0.3-4.9-1.2-12.1-5.1c-2.5-1.3-4.9-2.8-7.3-4.4c-2.2-1.5-1.4-3.6-0.1-4.1
				c2.1-0.6,4.4-0.4,6.5,0.5c6.7,4.2,11.7,7.5,13.6,8.3C154,102.4,152.5,106.3,150.6,106z"/>
			
				<linearGradient id="SVGID_3_" gradientUnits="userSpaceOnUse" x1="-150.9466" y1="-1277.4828" x2="-164.4366" y2="-1311.1229" gradientTransform="matrix(0.85 -0.52 -0.52 -0.85 -386.3572 -1100.1735)">
				<stop  offset="0" style="stop-color:#F70F47"/>
				<stop  offset="1" style="stop-color:#9E005D"/>
			</linearGradient>
			<path class="st6" d="M162.3,92.2c0.1,1.2-1.3,1.4-3.2,4.6c-1.7,3.2-4,6.1-6.6,8.5c-1.9,1.8-5.3-0.1-3.4-2.7
				c1.5-2.2,10.2-10.2,11.1-11.6C160.8,90.1,162.2,91.2,162.3,92.2z"/>
			<path class="st7" d="M128.2,84.8c0,0.2-0.4,5-0.4,8.7c0,1.8,1.3,3.5,2.6,3.6h0.1c1.3,0,2.8-1.6,2.7-3.4c-0.2-3.2-0.1-6.5,0-6.6
				L128.2,84.8z"/>
			
				<linearGradient id="SVGID_4_" gradientUnits="userSpaceOnUse" x1="132.3197" y1="162.4035" x2="136.7797" y2="124.1435" gradientTransform="matrix(1 0 0 -1 0 261.89)">
				<stop  offset="0" style="stop-color:#F70F47"/>
				<stop  offset="1" style="stop-color:#9E005D"/>
			</linearGradient>
			<path class="st8" d="M124.5,105.6c1,3.3,1.8,6.7,2.3,10.1c0.4,2.5,0.4,5.1,0,7.6c-0.2,1.5-0.5,3-0.8,4.5
				c-0.1,0.6-1.2,5.1-1.3,5.6h20.8c-0.2-4.1-4.9-16.9-1.7-25.2c2.2-5.8-0.7-5.9-2.7-10.7c-0.4-1.2-1-2.4-1.7-3.5
				c-0.8-1-1.9-1.7-3.2-2c-0.6-0.1-1.3-0.2-1.9-0.3c-3.5-0.3-11.8-1.3-12.6,3.7c-0.2,1.4,0,2.7,0.4,4.1c0.5,1.5,1.2,2.8,1.7,4.3
				C124.1,104.4,124.3,105,124.5,105.6z"/>
			
				<linearGradient id="SVGID_5_" gradientUnits="userSpaceOnUse" x1="140.2146" y1="135.8184" x2="122.5746" y2="84.4584" gradientTransform="matrix(1 0 0 -1 0 261.89)">
				<stop  offset="0" style="stop-color:#36078B"/>
				<stop  offset="1" style="stop-color:#168D68"/>
			</linearGradient>
			<path class="st9" d="M124.7,146.7c0,0-1.8-4.5-0.1-13.2h20.8c0.5,4.4,0.7,8.8,0.8,13.2H124.7z"/>
			
				<linearGradient id="SVGID_6_" gradientUnits="userSpaceOnUse" x1="82.0008" y1="561.3318" x2="63.9608" y2="508.8418" gradientTransform="matrix(0.99 0.15 0.15 -0.99 -14.1835 673.6011)">
				<stop  offset="0" style="stop-color:#36078B"/>
				<stop  offset="1" style="stop-color:#16B1FF"/>
			</linearGradient>
			<path class="st10" d="M128.4,175.9c2.7-6.7-3.9-9-6.9-4.3c-4.2,6.6-6,31.2-6.5,35.8c-0.1,0.6,0.3,0.5,0.6,0.5
				c1-0.2,0.6-1.2,2.1-1.1c0.8,0,1,1.1,1,1.1C120.3,201.8,125.8,182.4,128.4,175.9z"/>
			
				<linearGradient id="SVGID_7_" gradientUnits="userSpaceOnUse" x1="137.3593" y1="136.7937" x2="119.7193" y2="85.4337" gradientTransform="matrix(1 0 0 -1 0 261.89)">
				<stop  offset="0" style="stop-color:#36078B"/>
				<stop  offset="1" style="stop-color:#16B1FF"/>
			</linearGradient>
			<path class="st11" d="M135,147.6c0.7-8.7-2.6-15.5-7.8-12.6c-2.2,1.2-3,3.6-3.3,5.9s-1.9,26.1-2.4,30.4c-1.3,9.7,6.1,7.1,6.9,4.4
				C130.3,168.9,134.6,152.4,135,147.6z"/>
			
				<linearGradient id="SVGID_8_" gradientUnits="userSpaceOnUse" x1="162.5006" y1="128.1598" x2="144.8606" y2="76.7998" gradientTransform="matrix(1 0 0 -1 0 261.89)">
				<stop  offset="0" style="stop-color:#36078B"/>
				<stop  offset="1" style="stop-color:#16B1FF"/>
			</linearGradient>
			<path class="st12" d="M147.3,174.5c0.3-6.6-5.9-6.4-7.4-1.1c-2.4,8.4,1.8,26.4,2,36.7c1.1-1.8,2.1-2.2,2.6-2.2
				c0.5,0,0.9,0.3,1.2,0.7C145.6,195.1,147.1,181.5,147.3,174.5z"/>
			
				<linearGradient id="SVGID_9_" gradientUnits="userSpaceOnUse" x1="150.8277" y1="132.1742" x2="133.1777" y2="80.8142" gradientTransform="matrix(1 0 0 -1 0 261.89)">
				<stop  offset="0" style="stop-color:#36078B"/>
				<stop  offset="1" style="stop-color:#16B1FF"/>
			</linearGradient>
			<path class="st13" d="M140.2,175.2c0.8,2.7,7.9,5.8,7.1-4c-0.3-4.3-1.2-28.2-1.4-30.5s-0.6-5.7-1.7-6.1c-5.6-2.1-11,4.8-9.5,13.4
				C135.7,153.9,138.5,169.7,140.2,175.2z"/>
			<path class="st14" d="M125.7,81.3c0.4,4.1,0.5,5,2.3,6.7c1.7,1.5,4,2.4,6.3,2.4c2.1,0,3.7-2.2,4.1-4c0.8-3.4,1-7,0.5-10.5
				c-0.7-2.8-3.1-4.8-6-5C130,70.9,124.7,71.3,125.7,81.3z"/>
			
				<linearGradient id="SVGID_10_" gradientUnits="userSpaceOnUse" x1="145.7605" y1="31.6735" x2="147.7505" y2="56.2535" gradientTransform="matrix(1 0 0 -1 0 261.89)">
				<stop  offset="0" style="stop-color:#2C27CE"/>
				<stop  offset="0.65" style="stop-color:#EF1D68"/>
				<stop  offset="1" style="stop-color:#EFBA92"/>
			</linearGradient>
			<path class="st15" d="M146,208.6c0.8,1,1.8,1.8,3,2.2c1.6,0.7,4.9,1,3.1,1.6c-1.7,0.4-3.4,0.4-5.1,0.1c-1.1-0.2-2.3-0.2-3.4-0.2
				c-1.7,0-1.7-0.1-1.5-2C142.2,207.7,145.2,207.1,146,208.6z"/>
			
				<linearGradient id="SVGID_11_" gradientUnits="userSpaceOnUse" x1="117.4694" y1="27.1209" x2="119.9894" y2="58.0909" gradientTransform="matrix(1 0 0 -1 0 261.89)">
				<stop  offset="0" style="stop-color:#2C27CE"/>
				<stop  offset="0.65" style="stop-color:#EF1D68"/>
				<stop  offset="1" style="stop-color:#EFBA92"/>
			</linearGradient>
			<path class="st16" d="M118.6,207.5c0.2,0.5,0.5,2.7,2.1,3.4s4.9,1,3.1,1.6c-1.7,0.4-3.4,0.4-5.1,0.1c-1.1-0.2-1.3-1.4-2.6-1.4
				c-1.7,0-1.7-0.1-1.5-2C114.9,206.5,117.9,206,118.6,207.5z"/>
			
				<linearGradient id="SVGID_12_" gradientUnits="userSpaceOnUse" x1="149.2409" y1="164.4208" x2="127.1209" y2="189.6708" gradientTransform="matrix(1 0 0 -1 0 261.89)">
				<stop  offset="0" style="stop-color:#2C27CE"/>
				<stop  offset="0.65" style="stop-color:#EF1D68"/>
				<stop  offset="1" style="stop-color:#EFBA92"/>
			</linearGradient>
			<path class="st17" d="M138.3,73.8c1.6,2.8-10.1,7.8-12.7,7.4s-2.6-6-0.6-8.5S134.5,67.3,138.3,73.8z"/>
			
				<linearGradient id="SVGID_13_" gradientUnits="userSpaceOnUse" x1="153.8033" y1="168.4129" x2="131.6733" y2="193.6629" gradientTransform="matrix(1 0 0 -1 0 261.89)">
				<stop  offset="0" style="stop-color:#2C27CE"/>
				<stop  offset="0.65" style="stop-color:#EF1D68"/>
				<stop  offset="1" style="stop-color:#EFBA92"/>
			</linearGradient>
			<path class="st18" d="M133.9,73.1c0.4,2.3,4.5,2.9,5.2,4.8c0.4,1.2,0.6-2.6-0.3-4.3S133.1,68.5,133.9,73.1z"/>
			<ellipse transform="matrix(0.9258 -0.378 0.378 0.9258 -21.6533 53.548)" class="st14" cx="125.6" cy="81.9" rx="1.5" ry="2.8"/>
			<path class="st14" d="M126.2,118.9c1.2-0.1,2.4,0.1,3.5,0.6c0.8,0.5-1.2,0.5-2.1,0.6S125.1,118.9,126.2,118.9z"/>
			<path class="st14" d="M127.3,119.7c2.3,1.2,3.7,1.4,4.4,2.5s-1.6,1.4-2.5,1.1s-4-1.1-4.4-2.2S125.6,118.8,127.3,119.7z"/>
			
				<linearGradient id="SVGID_14_" gradientUnits="userSpaceOnUse" x1="948.8538" y1="851.0253" x2="934.3538" y2="814.8953" gradientTransform="matrix(0.71 0.18 0.26 -0.97 -767.8914 743.7833)">
				<stop  offset="0" style="stop-color:#F70F47"/>
				<stop  offset="1" style="stop-color:#9E005D"/>
			</linearGradient>
			<path class="st19" d="M109.5,110.3c0.6-1.5,2.3-4.6,7.5-10.8c1.8-2.2,3.8-4.2,5.8-6.1c1.9-1.8,3.9-0.6,4,0.8
				c0.1,2.2-0.5,4.4-1.9,6.2c-5.5,5.7-9.8,9.8-11,11.5C112.3,114.3,108.8,112,109.5,110.3z"/>
			
				<linearGradient id="SVGID_15_" gradientUnits="userSpaceOnUse" x1="-487.2356" y1="1747.394" x2="-497.7956" y2="1721.084" gradientTransform="matrix(0.81 0.58 0.58 -0.81 -483.2162 1801.871)">
				<stop  offset="0" style="stop-color:#F70F47"/>
				<stop  offset="1" style="stop-color:#9E005D"/>
			</linearGradient>
			<path class="st20" d="M125.5,121.1c-1.2,0.3-1.6-1.1-5.2-2.6c-3.5-1.3-6.8-3.1-9.8-5.5c-2.2-1.6-0.7-5.4,2.3-4
				c2.5,1.2,12.1,9,13.6,9.7C127.4,119.2,126.5,120.9,125.5,121.1z"/>
			<path class="st14" d="M163.8,90.5c0.7,0.2,1.3,0.5,1.8,1.1c0.2,0.3-0.4,0.9-1.6,1.1s-3.6,0.2-3.9-0.2s0.1-1.1,0.9-1.6
				C161.8,90.3,162.9,90.2,163.8,90.5z"/>
			
				<linearGradient id="SVGID_16_" gradientUnits="userSpaceOnUse" x1="252.7679" y1="149.928" x2="269.0279" y2="132.828" gradientTransform="matrix(1 0 0 -1 0 261.89)">
				<stop  offset="0" style="stop-color:#36078B"/>
				<stop  offset="1" style="stop-color:#16B1FF"/>
			</linearGradient>
			<path class="st21" d="M247.2,119.6c1.8,0.6,3.2,0,7.4-0.9c6.1-1.3,7.5-2,10.9-4.2c2.2-1.4-1.5-6-4.9-5
				c-2.9,0.9-11.7,7.3-13.5,7.8C245.9,117.7,245.8,119.2,247.2,119.6z"/>
			
				<linearGradient id="SVGID_17_" gradientUnits="userSpaceOnUse" x1="262.6403" y1="159.3103" x2="278.8903" y2="142.2103" gradientTransform="matrix(1 0 0 -1 0 261.89)">
				<stop  offset="0" style="stop-color:#36078B"/>
				<stop  offset="1" style="stop-color:#16B1FF"/>
			</linearGradient>
			<path class="st22" d="M266.2,113.6c0.4-1.4,0.9-4.6,0-12.4c-0.3-2.8-0.8-5.5-1.5-8.2c-0.6-2.6-3.3-3.2-4.4-2.4
				c-1.8,1.3-3.4,4.3-3.1,5.7c1.5,7.7,3.1,13.5,3.1,15.4C260.3,114.5,265.7,115.3,266.2,113.6z"/>
			<path class="st23" d="M262.5,204.3c-0.2,0.7-0.2,1.3-0.3,2c-0.1,0.8-0.9,1.1-1.4,1.8s-1.3,1.8,1.8,1.9c3.3,0.1,5.2,0,4.7-1.8
				c-0.4-1-0.6-2.1-0.6-3.1c0.1-0.5,0-1.1-0.4-1.5C265.9,203.1,262.9,202.5,262.5,204.3z"/>
			<path class="st14" d="M223,103.6c-1.1-0.6-9.6-4.4-9.7-2.4c-0.1,2.3,3,4.6,4.1,5.2c2.1,1.2,4.5,0.7,5.5-0.3
				C223.6,105.3,224,104.1,223,103.6z"/>
			<path class="st14" d="M222.7,103c-0.3-0.4-2.3-3-2.8-2.7c-0.8,0.5,0.4,2.3,1.2,3.4c0.4,0.6,1.4,1.2,1.9,0.8
				S223.2,103.6,222.7,103z"/>
			<path class="st23" d="M237.3,205.8c-0.8,1-1.9,1.8-3.2,2.3c-1.7,0.7-5.3,1.1-3.3,1.7c1.8,0.4,3.7,0.5,5.5,0.1
				c1.2-0.2,2.5-0.2,3.7-0.2c1.8,0,1.9-0.1,1.6-2.1C241.3,204.8,238.1,204.2,237.3,205.8z"/>
			<path class="st14" d="M258.2,78.2c-0.4,3.7-0.5,4.6-2.1,6.1s-4.2,1.8-5.9,1.8s-3.2-2.3-3.6-3.9c-0.7-2.9-0.8-5.9-0.4-8.8
				c0.6-2.6,2.8-4.4,5.4-4.6C254.3,68.8,259.1,69.1,258.2,78.2z"/>
			
				<linearGradient id="SVGID_18_" gradientUnits="userSpaceOnUse" x1="-1070.3545" y1="2321.5325" x2="-1070.3545" y2="2283.9326" gradientTransform="matrix(0.58 0.81 0.81 -0.58 -1006.4809 2305.1262)">
				<stop  offset="0" style="stop-color:#36078B"/>
				<stop  offset="1" style="stop-color:#16B1FF"/>
			</linearGradient>
			<path class="st24" d="M221,106c1.2,1.4,2.1,2.3,6.3,3.5c3.8,1.3,7.7,2.1,11.7,2.4c2.6,0.2,2.2-6.1-1.2-7.1
				c-2.9-0.8-13.8-0.2-15.6-0.7C221,103.7,220,104.8,221,106z"/>
			
				<linearGradient id="SVGID_19_" gradientUnits="userSpaceOnUse" x1="242.097" y1="182.56" x2="242.097" y2="144.96" gradientTransform="matrix(1 0 0 -1 0 261.89)">
				<stop  offset="0" style="stop-color:#36078B"/>
				<stop  offset="1" style="stop-color:#16B1FF"/>
			</linearGradient>
			<path class="st25" d="M239.2,110.3c1.1-0.9,3.2-3.4,6.7-10.5c1.3-2.5,2.3-5.1,3.2-7.7c0.8-2.5-1.1-4.5-2.4-4.4
				c-2.2,0.1-5.2,1.8-5.7,3.1c-2.9,7.3-4.7,13.1-5.7,14.7C233.8,107.9,237.9,111.4,239.2,110.3z"/>
			<path class="st14" d="M256.3,84.7c0.1,1.3,0.2,2.8,0.2,4.1c0,1.8-1.3,3.4-3.1,3.6h-0.2c-1.6,0-3.5-1.5-3.4-3.1
				c0.1-1,0.1-2.1,0.1-3c0-1.8,1.1-3.3,2.8-3.9l0,0c1.4-0.5,2.9,0.2,3.4,1.6C256.2,84.3,256.3,84.5,256.3,84.7z"/>
			
				<linearGradient id="SVGID_20_" gradientUnits="userSpaceOnUse" x1="251.2068" y1="182.56" x2="251.2068" y2="144.96" gradientTransform="matrix(1 0 0 -1 0 261.89)">
				<stop  offset="0" style="stop-color:#36078B"/>
				<stop  offset="1" style="stop-color:#16B1FF"/>
			</linearGradient>
			<path class="st26" d="M263.7,100.6c-3,9.8-4,20.1-3.4,26.9h-22.5c0,0,0.2-21.1,1.6-32.6c0.4-2.9,2.2-5.3,4.8-6.6
				c1.9-0.8,3.9-1.3,6-1.3h4.2c1.5,0,3,0.2,4.4,0.6C264.9,89.4,265.5,95,263.7,100.6z"/>
			<path class="st27" d="M260.2,141.3c0,0,1.9-4.7,0.1-13.8h-22.5c-0.5,4.6-0.8,9.2-0.8,13.8H260.2z"/>
			<path class="st27" d="M255.8,170.8c-1.8-7.3,5.7-8.6,8-3.3c3.3,7.5,3.1,31.4,2.9,36.2c0,0.6,0.1,1.4-0.2,1.6
				c-0.7,0.3-1.6,0.5-2.4,0.4c-0.8,0-1.7,0-1.7-1.1C261.8,197.6,257.5,177.8,255.8,170.8z"/>
			<path class="st27" d="M249.1,142.3c-0.8-9.1,2.8-16.2,8.5-13.2c2.4,1.3,3.2,3.8,3.6,6.2s2.1,27.1,2.7,31.6
				c1.4,10.1-6.6,7.4-7.4,4.6C254.1,164.4,249.5,147.3,249.1,142.3z"/>
			<path class="st27" d="M241.6,207.4c0.3-10.7,4.8-29.5,2.2-38.2c-1.7-5.6-8.3-5.7-8,1.1c0.3,7.3,2.5,21.4,1.8,35.5
				C237.5,207.2,241.6,208.6,241.6,207.4z"/>
			<path class="st27" d="M243.5,171c-0.9,2.8-8.5,6-7.7-4.1c0.4-4.5,1.3-29.4,1.5-31.7s0.6-5.9,1.8-6.3c6-2.2,11.8,5,10.3,14
				C248.3,148.8,245.4,165.2,243.5,171z"/>
			
				<ellipse transform="matrix(0.9257 -0.3782 0.3782 0.9257 -11.0649 99.2542)" class="st14" cx="247.1" cy="77.8" rx="1.3" ry="2.5"/>
			<ellipse transform="matrix(0.378 -0.9258 0.9258 0.378 88.4002 287.3447)" class="st14" cx="258" cy="77.9" rx="2.5" ry="1.3"/>
			
				<linearGradient id="SVGID_21_" gradientUnits="userSpaceOnUse" x1="240.9709" y1="198.9382" x2="272.6309" y2="174.5582" gradientTransform="matrix(1 0 0 -1 0 261.89)">
				<stop  offset="0" style="stop-color:#0000FF"/>
				<stop  offset="1" style="stop-color:#9E005D"/>
			</linearGradient>
			<path class="st28" d="M257,70.8c-1.4,2.2-8.4,2.4-10.7,1.6s-2.1-5.2,1.1-5.5c1.8,0,0.5,0.4,2,1C250.2,68.2,258.6,68.5,257,70.8z"
				/>
			
				<linearGradient id="SVGID_22_" gradientUnits="userSpaceOnUse" x1="239.1266" y1="196.5556" x2="270.7866" y2="172.1756" gradientTransform="matrix(1 0 0 -1 0 261.89)">
				<stop  offset="0" style="stop-color:#0000FF"/>
				<stop  offset="1" style="stop-color:#9E005D"/>
			</linearGradient>
			<path class="st29" d="M249.1,70.5c-2.2,1.3-2.7,2.4-2.6,5.1s1.2,7.2,6.1,8.2s6.1-3.8,6.4-7.2s0.1-5.9-2.4-6.5
				C253,69.2,250.4,69.7,249.1,70.5z"/>
			<g>
				<defs>
					<path id="SVGID_23_" d="M267.3,208.2c-0.4-1-0.6-2-0.6-3.1c0.1-0.5,0.1-1,0.1-1.4c0.2-4.8,0.4-28.7-2.9-36.2l0,0
						c0-0.2,0-0.3-0.1-0.5c-0.6-4.4-2.3-28.1-2.6-31.4c0-2.7-0.2-5.4-0.8-8c-0.2-3.5-0.2-6.9,0.1-10.4c1.8-0.7,3.4-1.6,5-2.6
						c0.3-0.2,0.5-0.5,0.6-0.9l0,0c0.4-1.4,0.9-4.6,0-12.4c-0.2-2.8-0.7-5.5-1.4-8.3c-0.2-0.7-0.6-1.4-1.2-1.9
						c-1.1-1.8-2.8-3-4.8-3.5c-0.8-0.2-1.5-0.4-2.3-0.4c0-0.8-0.1-1.6-0.2-2.4c0-0.2-0.1-0.4-0.1-0.6c0.8-0.7,1.3-1.6,1.5-2.6
						c0.3-0.6,0.6-1.3,0.8-1.9c0.3-0.4,0.6-0.8,0.8-1.3c0.5-1.2,0.4-2.4-0.2-2.8c0.1-2.6-0.2-4.5-1.9-5.3c0.1-1.8-7.1-2.1-7.8-2.4
						c-1.5-0.6-0.2-1-2-1c-3.3,0.3-3.4,4.7-1.1,5.5h0.1c-0.1,0.3-0.2,0.6-0.3,0.9c-0.1,0.9-0.2,1.7-0.2,2.4c-0.3-0.2-0.7-0.3-1-0.2
						c-0.7,0.3-0.8,1.5-0.3,2.8c0.3,0.7,0.8,1.4,1.4,1.8c0.1,0.7,0.2,1.3,0.4,2c0.4,1.5,1.6,3.8,3.5,3.9c0,0.1,0,0.3,0,0.4
						c0,0.2,0,0.4,0,0.6c-1.7,0.1-3.3,0.4-4.9,0.9c-1.9,0.6-3.8,1.8-4.2,2.8l-0.5,1.2c-0.4,0.6-0.6,1.3-0.8,2.1
						c-2.1,5.7-3.6,10-4.4,11.4c-0.1,0.2-0.2,0.5-0.3,0.7c-2.3,2-7.2,9.6-9,11.6h-0.1c-0.3,0-0.6,0-0.9,0c-0.6,0-3.8,0.2-3.8,0.8
						s0.9,0.8,1.9,0.9c-2.6,1.7-6,4.2-4.9,5c1.8,1.4,5.4,0.2,6.6-0.4c1.6-0.7,2.7-2.2,2.9-3.9c1.3-0.2,2.6-0.9,5.2-2.9
						c2.2-1.7,3.9-3.2,5.3-4.4c-0.3,8-0.4,14.7-0.4,14.7c-0.5,4.6-0.8,9.2-0.8,13.8l0,0c-0.4,8.3-0.9,22.3-1.2,25.6
						c0,0.7,0,1.4,0,2.2c0,0.4,0,0.8,0,1.2c0.3,7.2,2.5,21.2,1.8,35.1c-0.1,0.1-0.2,0.2-0.3,0.4c-0.8,1-1.9,1.8-3.2,2.3
						c-1.7,0.7-5.3,1.1-3.3,1.7c1.8,0.4,3.7,0.5,5.5,0.1c1.2-0.2,2.5-0.2,3.7-0.2c1.8,0,1.9-0.1,1.6-2.1c0-0.1,0-0.1,0-0.2l0,0
						c0.3-10.5,4.7-28.8,2.3-37.7c1.8-6.4,4.2-20.1,5.3-26.1c0.8,5.4,4.2,18,6.3,25.4c0,0.6,0.1,1.3,0.3,1.9
						c1.7,7.1,6,26.9,6.6,33.8l0,0c-0.2,0.8-0.1,1.1-0.2,1.7c-0.1,0.8-0.9,1.1-1.4,1.8s-1.3,1.8,1.8,1.9
						C265.9,210.1,267.8,210,267.3,208.2z"/>
				</defs>
				<clipPath id="SVGID_24_">
					<use xlink:href="#SVGID_23_"  style="overflow:visible;"/>
				</clipPath>
			</g>
		</g>
	</g>
</g>
</svg>
