<svg xmlns="http://www.w3.org/2000/svg" xmlns:xlink="http://www.w3.org/1999/xlink" viewBox="0 0 621.79 530.32"><defs><style>.cls-1,.cls-33,.cls-36{fill:none;}.cls-2{isolation:isolate;}.cls-3{opacity:0.2;}.cls-4{clip-path:url(#clip-path);}.cls-5{fill:url(#Gradient_bez_nazwy_15);}.cls-6{fill:url(#Gradient_bez_nazwy_5);}.cls-7{fill:url(#Gradient_bez_nazwy_5-2);}.cls-8{fill:url(#Gradient_bez_nazwy_5-3);}.cls-9{fill:url(#Gradient_bez_nazwy_5-4);}.cls-10{fill:url(#Gradient_bez_nazwy_5-5);}.cls-11{fill:url(#Gradient_bez_nazwy_14);}.cls-12{fill:url(#Gradient_bez_nazwy_9);}.cls-13{fill:url(#Gradient_bez_nazwy_5-6);}.cls-14{fill:url(#Gradient_bez_nazwy_9-2);}.cls-15{fill:url(#Gradient_bez_nazwy_5-7);}.cls-16{fill:url(#Gradient_bez_nazwy_9-3);}.cls-17{fill:url(#Безымянный_градиент_7);}.cls-18{fill:url(#Gradient_bez_nazwy_9-4);}.cls-19{fill:url(#Gradient_bez_nazwy_5-8);}.cls-20{fill:url(#Gradient_bez_nazwy_5-9);}.cls-21{fill:url(#Gradient_bez_nazwy_5-10);}.cls-22{fill:url(#Gradient_bez_nazwy_5-11);}.cls-23{fill:url(#Gradient_bez_nazwy_8);}.cls-24{fill:url(#Gradient_bez_nazwy_8-2);}.cls-25{fill:#ffaf84;}.cls-26{fill:url(#Gradient_bez_nazwy_10);}.cls-27{fill:url(#Gradient_bez_nazwy_10-2);}.cls-28{fill:#fff;}.cls-29{fill:#2f78fa;}.cls-30{fill:url(#Безымянный_градиент_102);}.cls-31{fill:#031d7c;}.cls-32{fill:url(#Безымянный_градиент_33);}.cls-33,.cls-36{stroke:#d0dbff;stroke-miterlimit:10;}.cls-33{stroke-linecap:round;stroke-width:4px;}.cls-34{fill:url(#linear-gradient);}.cls-35{fill:#023de7;}.cls-36{stroke-width:2px;}.cls-37{fill:url(#Gradient_bez_nazwy_2);}.cls-38{fill:url(#Gradient_bez_nazwy_14-2);}.cls-39{fill:url(#Gradient_bez_nazwy_14-3);}.cls-40{fill:url(#Gradient_bez_nazwy_2-2);}.cls-41{fill:url(#Gradient_bez_nazwy_16);}.cls-42{fill:url(#Gradient_bez_nazwy_16-2);}.cls-43{fill:url(#Gradient_bez_nazwy_16-3);}.cls-44{fill:url(#Gradient_bez_nazwy_16-4);}.cls-45{fill:url(#Gradient_bez_nazwy_16-5);}.cls-46{fill:url(#Gradient_bez_nazwy_4);}.cls-47{fill:url(#Gradient_bez_nazwy_2-3);}.cls-48{clip-path:url(#clip-path-2);}.cls-49,.cls-62{opacity:0.3;mix-blend-mode:multiply;}.cls-49{fill:url(#Gradient_bez_nazwy_3);}.cls-50{fill:#541968;}.cls-51{fill:url(#Gradient_bez_nazwy_10-3);}.cls-52{fill:url(#Gradient_bez_nazwy_5-12);}.cls-53{fill:url(#Gradient_bez_nazwy_5-13);}.cls-54{fill:url(#Gradient_bez_nazwy_5-14);}.cls-55{fill:url(#Gradient_bez_nazwy_5-15);}.cls-56{fill:url(#Gradient_bez_nazwy_5-16);}.cls-57{fill:url(#Gradient_bez_nazwy_4-2);}.cls-58{fill:url(#Gradient_bez_nazwy_10-4);}.cls-59{fill:url(#Gradient_bez_nazwy_10-5);}.cls-60{fill:url(#Gradient_bez_nazwy_4-3);}.cls-61{clip-path:url(#clip-path-3);}.cls-62{fill:url(#Gradient_bez_nazwy_3-2);}</style><clipPath id="clip-path" transform="translate(-9.75)"><path class="cls-1" d="M6.17,195.9c-20.47-49,14.17-72.5,42.71-70.28,40.42,3.14,47,24.36,76.38-31.92,21.69-41.53,73.35-55.67,103.82-14C271.67,138,294,69.56,324.18,52.25c62.37-35.76,82.84,11.37,122.57,87C487.54,216.85,477,278.76,430.9,339.89c-34,45.13-74.5,73.92-115.54,52.55-58.94-30.68-26.67-93-78.67-65.14-31.12,16.68-91.35,23.61-103.52-49.52S35.65,266.4,6.17,195.9Z"/></clipPath><linearGradient id="Gradient_bez_nazwy_15" x1="-1068.61" y1="254.95" x2="-1068.61" y2="59.54" gradientTransform="translate(-433.17 1008.71) rotate(135)" gradientUnits="userSpaceOnUse"><stop offset="0" stop-color="#401381"/><stop offset="1" stop-color="#d11137"/></linearGradient><linearGradient id="Gradient_bez_nazwy_5" x1="-1046.82" y1="178.45" x2="-1046.82" y2="13.1" gradientTransform="translate(-433.17 1008.71) rotate(135)" gradientUnits="userSpaceOnUse"><stop offset="0" stop-color="#36078b"/><stop offset="1" stop-color="#16b1ff"/></linearGradient><linearGradient id="Gradient_bez_nazwy_5-2" x1="-339.46" y1="-268.89" x2="-327.26" y2="-281.97" gradientTransform="matrix(1, 0, 0, 1, 712.56, 556.77)" xlink:href="#Gradient_bez_nazwy_5"/><linearGradient id="Gradient_bez_nazwy_5-3" x1="315.54" y1="498.37" x2="327.74" y2="485.29" gradientTransform="translate(-105.15 -63.46) rotate(-21.25)" xlink:href="#Gradient_bez_nazwy_5"/><linearGradient id="Gradient_bez_nazwy_5-4" x1="671.06" y1="1697.14" x2="682.11" y2="1685.3" gradientTransform="translate(-1342.38 -353.39) rotate(-47.89)" xlink:href="#Gradient_bez_nazwy_5"/><linearGradient id="Gradient_bez_nazwy_5-5" x1="463.65" y1="2899.18" x2="473.58" y2="2888.55" gradientTransform="translate(-2549.38 -73.77) rotate(-73.88)" xlink:href="#Gradient_bez_nazwy_5"/><linearGradient id="Gradient_bez_nazwy_14" x1="27.5" y1="76.13" x2="71.28" y2="29.22" gradientTransform="translate(319.58 200.6) rotate(-10.84)" gradientUnits="userSpaceOnUse"><stop offset="0" stop-color="#f70f47"/><stop offset="1" stop-color="#ffb41d"/></linearGradient><linearGradient id="Gradient_bez_nazwy_9" x1="-462.41" y1="-281.39" x2="-426.05" y2="-338.91" gradientTransform="matrix(1, 0.01, -0.01, 1, 811.55, 583.05)" gradientUnits="userSpaceOnUse"><stop offset="0.48" stop-color="#36078b"/><stop offset="1" stop-color="#16b1ff"/></linearGradient><linearGradient id="Gradient_bez_nazwy_5-6" x1="-3266.09" y1="-608.57" x2="-3232.76" y2="-644.29" gradientTransform="matrix(-0.98, -0.21, -0.21, 0.98, -2957.46, 161.43)" xlink:href="#Gradient_bez_nazwy_5"/><linearGradient id="Gradient_bez_nazwy_9-2" x1="-436.79" y1="-280.47" x2="-476.04" y2="-342.56" xlink:href="#Gradient_bez_nazwy_9"/><linearGradient id="Gradient_bez_nazwy_5-7" x1="84.27" y1="205.23" x2="145.55" y2="139.56" gradientTransform="translate(241.77 69.41) rotate(-15.21)" xlink:href="#Gradient_bez_nazwy_5"/><linearGradient id="Gradient_bez_nazwy_9-3" x1="-459.23" y1="-281.03" x2="-404.99" y2="-379.93" xlink:href="#Gradient_bez_nazwy_9"/><linearGradient id="Безымянный_градиент_7" x1="-541.44" y1="-400.31" x2="-497.23" y2="-447.69" gradientTransform="translate(901.08 698.25) rotate(3.64)" gradientUnits="userSpaceOnUse"><stop offset="0" stop-color="#dd001e"/><stop offset="0.42" stop-color="#ab0639"/><stop offset="1" stop-color="#221783"/></linearGradient><linearGradient id="Gradient_bez_nazwy_9-4" x1="-453.64" y1="-283.12" x2="-394.31" y2="-337.3" xlink:href="#Gradient_bez_nazwy_9"/><linearGradient id="Gradient_bez_nazwy_5-8" x1="-422.46" y1="-346.43" x2="-415.83" y2="-358.53" gradientTransform="matrix(1, 0.01, -0.01, 1, 811.55, 583.05)" xlink:href="#Gradient_bez_nazwy_5"/><linearGradient id="Gradient_bez_nazwy_5-9" x1="-420.02" y1="-358.8" x2="-415.83" y2="-369.76" gradientTransform="matrix(1, 0.01, -0.01, 1, 811.55, 583.05)" xlink:href="#Gradient_bez_nazwy_5"/><linearGradient id="Gradient_bez_nazwy_5-10" x1="-441.71" y1="-353.22" x2="-441.68" y2="-363.59" gradientTransform="matrix(1, 0.01, -0.01, 1, 811.55, 583.05)" xlink:href="#Gradient_bez_nazwy_5"/><linearGradient id="Gradient_bez_nazwy_5-11" x1="-434.67" y1="-365.48" x2="-432.91" y2="-373.37" gradientTransform="matrix(1, 0.01, -0.01, 1, 811.55, 583.05)" xlink:href="#Gradient_bez_nazwy_5"/><linearGradient id="Gradient_bez_nazwy_8" x1="-444.14" y1="-292.87" x2="-444.14" y2="-274.24" gradientTransform="matrix(1, 0.01, -0.01, 1, 811.55, 583.05)" gradientUnits="userSpaceOnUse"><stop offset="0" stop-color="#2c27ce"/><stop offset="1" stop-color="#ef1d68"/></linearGradient><linearGradient id="Gradient_bez_nazwy_8-2" x1="-444.14" y1="-288.12" x2="-444.14" y2="-296.24" xlink:href="#Gradient_bez_nazwy_8"/><linearGradient id="Gradient_bez_nazwy_10" x1="-4477.75" y1="2400.75" x2="-4477.75" y2="2422.22" gradientTransform="matrix(-0.98, 0.41, -0.33, -0.96, -3422.23, 4426.14)" gradientUnits="userSpaceOnUse"><stop offset="0" stop-color="#36078b"/><stop offset="1" stop-color="#168d68"/></linearGradient><linearGradient id="Gradient_bez_nazwy_10-2" x1="-4713.61" y1="2036.02" x2="-4713.61" y2="2065.51" gradientTransform="matrix(-0.85, 0.52, -0.52, -0.85, -2788.42, 4448.88)" xlink:href="#Gradient_bez_nazwy_10"/><linearGradient id="Безымянный_градиент_102" x1="253.96" y1="120.76" x2="253.96" y2="431.89" gradientUnits="userSpaceOnUse"><stop offset="0.09" stop-color="#001fa9"/><stop offset="1" stop-color="#150e42"/></linearGradient><linearGradient id="Безымянный_градиент_33" x1="330.47" y1="60.3" x2="369.5" y2="60.3" gradientUnits="userSpaceOnUse"><stop offset="0" stop-color="#f47960"/><stop offset="1" stop-color="#ff1d25"/></linearGradient><linearGradient id="linear-gradient" x1="-2375.65" y1="369.25" x2="-2371.86" y2="369.25" gradientTransform="matrix(-1, 0.01, 0.01, 1, -2076.98, -292.04)" gradientUnits="userSpaceOnUse"><stop offset="0" stop-color="#fdf53f"/><stop offset="1" stop-color="#d93c65"/></linearGradient><linearGradient id="Gradient_bez_nazwy_2" x1="714.13" y1="1029.83" x2="738.31" y2="1024.56" gradientTransform="translate(-742.97 -606.85) rotate(-22.36)" gradientUnits="userSpaceOnUse"><stop offset="0" stop-color="#f70f47"/><stop offset="1" stop-color="#9e005d"/></linearGradient><linearGradient id="Gradient_bez_nazwy_14-2" x1="687.19" y1="1071.72" x2="693.05" y2="1071.72" gradientTransform="translate(-742.97 -606.85) rotate(-22.36)" xlink:href="#Gradient_bez_nazwy_14"/><linearGradient id="Gradient_bez_nazwy_14-3" x1="711.39" y1="1087.15" x2="715.03" y2="1087.15" gradientTransform="translate(-742.97 -606.85) rotate(-22.36)" xlink:href="#Gradient_bez_nazwy_14"/><linearGradient id="Gradient_bez_nazwy_2-2" x1="703.28" y1="1054.09" x2="715.8" y2="1007.42" xlink:href="#Gradient_bez_nazwy_2"/><linearGradient id="Gradient_bez_nazwy_16" x1="726.68" y1="823.22" x2="726.68" y2="769.66" gradientTransform="translate(-603.37 -441.93) rotate(-16.26)" gradientUnits="userSpaceOnUse"><stop offset="0" stop-color="#000061"/><stop offset="1" stop-color="#0065ff"/></linearGradient><linearGradient id="Gradient_bez_nazwy_16-2" x1="914.64" y1="1434.44" x2="914.64" y2="1380.89" gradientTransform="matrix(0.87, -0.49, 0.49, 0.87, -1163.97, -659.84)" xlink:href="#Gradient_bez_nazwy_16"/><linearGradient id="Gradient_bez_nazwy_16-3" x1="486.25" y1="372.74" x2="486.25" y2="319.18" gradientTransform="matrix(1, -0.1, 0.1, 1, -202.23, -176.33)" xlink:href="#Gradient_bez_nazwy_16"/><linearGradient id="Gradient_bez_nazwy_16-4" x1="701.47" y1="1421.98" x2="701.47" y2="1368.99" gradientTransform="matrix(0.94, -0.35, 0.35, 0.94, -847.62, -947.89)" xlink:href="#Gradient_bez_nazwy_16"/><linearGradient id="Gradient_bez_nazwy_16-5" x1="-2467.67" y1="-1891.39" x2="-2467.67" y2="-1934.63" gradientTransform="translate(809.71 3187.15) rotate(42.66)" xlink:href="#Gradient_bez_nazwy_16"/><linearGradient id="Gradient_bez_nazwy_4" x1="736.99" y1="746.93" x2="725.66" y2="726.88" gradientTransform="translate(-603.37 -441.93) rotate(-16.26)" gradientUnits="userSpaceOnUse"><stop offset="0" stop-color="#2c27ce"/><stop offset="0.65" stop-color="#ef1d68"/><stop offset="1" stop-color="#efba92"/></linearGradient><linearGradient id="Gradient_bez_nazwy_2-3" x1="-2050.94" y1="4121.52" x2="-2028.11" y2="4142.75" gradientTransform="translate(-4251.78 811.8) rotate(-125.48)" xlink:href="#Gradient_bez_nazwy_2"/><clipPath id="clip-path-2" transform="translate(-9.75)"><path class="cls-1" d="M322.94,75.75a16.36,16.36,0,0,0-1.36-3.21c-1.46-3.13-2-3.82-3.53-5.41h0l-.06-.07c-.62-.5-2.18-1.39-6.4-2.5A30.77,30.77,0,0,0,308,63.8a5.36,5.36,0,0,0-1.41-.2,6.86,6.86,0,0,0-1.31.13c-.15-.43-.31-.85-.45-1.24a1.41,1.41,0,0,0-.15-.29,2.63,2.63,0,0,0,.42-1.58,4.87,4.87,0,0,0,.12-1.16,2.32,2.32,0,0,0,.23-.8c.08-.73-.16-1.36-.53-1.45-.32-1.4-.79-2.38-1.83-2.51-.26-1-4.08,0-4.5-.07-.89-.09-.25-.53-1.22-.24a1.63,1.63,0,0,0,.25,3.11h.08a2,2,0,0,0,0,.52c.07.47.17.91.27,1.32a.58.58,0,0,0-.56,0c-.32.25-.18.94.3,1.54a1.84,1.84,0,0,0,1,.71,9.13,9.13,0,0,0,.51,1c.46.75,1.45,1.74,2.44,1.51,0,.07,0,.15,0,.22l.09.34a10.2,10.2,0,0,0-2.18,1.07c-3.87-1.61-6.94-2.62-7.81-3.18l-.1-.05a2,2,0,0,0-.16-.26,46.4,46.4,0,0,0-5.67-5,.56.56,0,0,0-.07-.49,2.24,2.24,0,0,0-.09-.46c-.08-.29-.66-2.27-1-2.2a.3.3,0,0,0-.08,0l.62-2.16-.19-.06.31-.92a6.9,6.9,0,1,0-1.28-.43l-.31.92-.19-.06-.85,2.23c-.3-.16-.54-.17-.66.07a2.82,2.82,0,0,0-.32,2.49L281,58.29a1.19,1.19,0,1,0,2.25.75l.35-1.2a2.88,2.88,0,0,0,.47.13c.18.58.67.89,1.82,2.62a27.22,27.22,0,0,0,3.22,4.08v0a6.5,6.5,0,0,0,1,.94h0a28.87,28.87,0,0,0,4.72,2.86c1.11.57,1.94.94,2.59,1.21a4.85,4.85,0,0,0,0,.79c1,6.36,4.18,17.57,4.18,17.57s.21,1.27.61,3.12c-2.23,2.24-5.23,5.28-6.42,6.39a6,6,0,0,0-1.29,1.61,1.91,1.91,0,0,0-.24.6,2.21,2.21,0,0,0,.18,1.75c0,.11.07.21.11.32,1.59,3.72,5.48,10.61,7.84,18.05a.39.39,0,0,0,.09.14.83.83,0,0,0,0,.54,4.22,4.22,0,0,1-.37,2.15c-.39.95-1.69,2.48-.65,2a6.87,6.87,0,0,0,2.22-2.1,13.75,13.75,0,0,1,1.39-1.52c.72-.71.69-.76-.18-1.46l0,0h0c-1.67-4.81-2.88-13-5.13-17.81,2.42-1.66,4.94-3.84,7.08-5.48a9,9,0,0,0,2.24-2.47l.21-.06c0,.09,0,.19,0,.28.51,2.71,4,11.91,5.6,15.67a1.31,1.31,0,0,0,.18.3,4.87,4.87,0,0,0,.63.84c2.77,2.95,10.19,11.33,12.35,14.54a.66.66,0,0,0,.24.23.91.91,0,0,0,.29.8,4.23,4.23,0,0,1,.87,2c.19,1-.06,3,.53,2a6.88,6.88,0,0,0,.71-3,13.72,13.72,0,0,1,.33-2c.21-1,.15-1-.84-1.11-.07-.16-.19-.35-.28-.53-1.2-2.32-7.42-13.67-11.08-16.57,0-.13-.05-.26-.08-.39-.58-2.43-2.9-16-3.21-17.25a7.09,7.09,0,0,0-.39-1.18,20.44,20.44,0,0,0-1.56-3.79,42.71,42.71,0,0,1-2.37-14.82c0-.3,0-.59,0-.88a37.55,37.55,0,0,1,4.6.83,1.15,1.15,0,0,0,.51.07,2.41,2.41,0,0,0,.16.34c.72,1.28,3.91,4.79,5,6.21a1.65,1.65,0,0,0,0,1.3c.4,1.25,1.11,1,1.9.93.56,0,.73-.82.51-1.41A4.48,4.48,0,0,0,322.94,75.75Z"/></clipPath><linearGradient id="Gradient_bez_nazwy_3" x1="580.36" y1="-161.48" x2="682.29" y2="-98.85" gradientTransform="matrix(0.24, -0.8, -0.59, -0.24, 96.65, 563.65)" gradientUnits="userSpaceOnUse"><stop offset="0" stop-color="blue"/><stop offset="1" stop-color="#9e005d"/></linearGradient><linearGradient id="Gradient_bez_nazwy_10-3" x1="-4192.57" y1="62.99" x2="-4192.57" y2="106.32" gradientTransform="matrix(-1, -0.09, -0.09, 1, -3995.46, -185.61)" xlink:href="#Gradient_bez_nazwy_10"/><linearGradient id="Gradient_bez_nazwy_5-12" x1="-4193.67" y1="152.21" x2="-4193.67" y2="90.61" gradientTransform="matrix(-1, -0.09, -0.09, 1, -3995.46, -185.61)" xlink:href="#Gradient_bez_nazwy_5"/><linearGradient id="Gradient_bez_nazwy_5-13" x1="-4186.23" y1="152.21" x2="-4186.23" y2="90.61" gradientTransform="matrix(-1, -0.09, -0.09, 1, -3995.46, -185.61)" xlink:href="#Gradient_bez_nazwy_5"/><linearGradient id="Gradient_bez_nazwy_5-14" x1="-4189.23" y1="152.21" x2="-4189.23" y2="90.61" gradientTransform="matrix(-1, -0.09, -0.09, 1, -3995.46, -185.61)" xlink:href="#Gradient_bez_nazwy_5"/><linearGradient id="Gradient_bez_nazwy_5-15" x1="-3434.55" y1="-224.75" x2="-3434.55" y2="-286.36" gradientTransform="matrix(-0.89, -0.46, -0.46, 0.89, -2973.1, -1072.56)" xlink:href="#Gradient_bez_nazwy_5"/><linearGradient id="Gradient_bez_nazwy_5-16" x1="-4715.58" y1="3171.76" x2="-4715.58" y2="3122.03" gradientTransform="matrix(-0.13, 0.99, 0.99, 0.13, -3516.05, 4566.98)" xlink:href="#Gradient_bez_nazwy_5"/><linearGradient id="Gradient_bez_nazwy_4-2" x1="-4160.07" y1="22.51" x2="-4154.93" y2="18.96" gradientTransform="matrix(-1, -0.09, -0.09, 1, -3995.46, -185.61)" xlink:href="#Gradient_bez_nazwy_4"/><linearGradient id="Gradient_bez_nazwy_10-4" x1="44.87" y1="53.36" x2="51.83" y2="67.85" gradientTransform="translate(152.41 195.92) rotate(5.26)" xlink:href="#Gradient_bez_nazwy_10"/><linearGradient id="Gradient_bez_nazwy_10-5" x1="35.17" y1="56.38" x2="45.14" y2="76.63" gradientTransform="translate(152.41 195.92) rotate(5.26)" xlink:href="#Gradient_bez_nazwy_10"/><linearGradient id="Gradient_bez_nazwy_4-3" x1="26.58" y1="47.62" x2="21.83" y2="59.17" gradientTransform="translate(152.41 195.92) rotate(5.26)" xlink:href="#Gradient_bez_nazwy_4"/><clipPath id="clip-path-3" transform="translate(-9.75)"><path class="cls-1" d="M200.9,255.08c.44-.47.77-.95.51-1.23s-1.88,1-2.15,1.25a2.55,2.55,0,0,0-.39.38.64.64,0,0,0-.39.41c-2.31.1-7.17.43-8.67.92a2.23,2.23,0,0,0-.55.28c-1.3,0-6.63-1.16-11.49-2h0a11.81,11.81,0,0,0-2.62-.7c0-.13,0-.28,0-.41s0-.18,0-.26c1.17,0,2.07-1.29,2.43-2.24a10.51,10.51,0,0,0,.36-1.22,2.12,2.12,0,0,0,1-1c.41-.78.41-1.6,0-1.81a.67.67,0,0,0-.64.08c0-.49,0-1,0-1.55a2.28,2.28,0,0,0,0-.28l.06-.34a1.88,1.88,0,0,0,.63-3,4.47,4.47,0,0,0,.28-1.54,3.38,3.38,0,0,0,1.37-1.92c.21-.8.55-3.21-.51-4.18s-3,4.75-3.26,5.47a.66.66,0,0,0,.13.67c-.23.42-.5.93-.8,1.49-1.22.06-4.6,0-4.67,1-1.14.37-1.45,1.59-1.51,3.24-.4.18-.53.94-.28,1.75a2.65,2.65,0,0,0,.43.85,5.6,5.6,0,0,0,.39,1.29,2.81,2.81,0,0,0,.36,1.07c-1,1-2.29,2.22-3.7,3.65a4.37,4.37,0,0,0-.85.86l-.25.25a2.64,2.64,0,0,0-.52,1.34,9.77,9.77,0,0,0,0,4.53,49.15,49.15,0,0,1,.57,17.26,22.94,22.94,0,0,0-1,5c-.43,2.07-2.88,17-3.51,19.74,0,.11,0,.2-.05.3l0,0c-2.55,4.55-3.78,19.75-3.95,22.79a3,3,0,0,0,0,.91,6.07,6.07,0,0,1-.58,1.91c-.46,1.1.77,1.28,2.85,1.43s1.51-.59,1.24-1.09-.73-.69-.76-1.22c0-.37,0-.61,0-1.09h0c.77-4.39,4.62-16.67,6.14-21.07a5.57,5.57,0,0,0,.27-1.17c2-4.94,5.15-13.69,5.65-16.47,0-.21.06-.42.09-.62l7.08.65h0a11.07,11.07,0,0,0,1.18,0c2.08-.1,4.49-.11,6.87-.2-2.59,5.37-4.78,12.89-7,17.35a.3.3,0,0,0,.11.38,2,2,0,0,0-.33.79c-.21,1.27-.22,1.46.95,1.51a16.86,16.86,0,0,1,2.38.12,7.93,7.93,0,0,0,3.51.11c1.29-.36-1-.67-2.05-1.19a5.52,5.52,0,0,1-1.84-1.38l0,0c3.58-7.81,8.69-14.83,11.17-18.95a4.07,4.07,0,0,0,1-2.38,2.21,2.21,0,0,0-.44-1.62l0,0a1.87,1.87,0,0,0-.15-.17,4.77,4.77,0,0,0-3.54-1.32c-2-.1-7.41-.6-11.07-.93l.07-.78s1.06-12.39.89-19.91l1.38.13c5,.44,7,.09,7.9-.2l0,0a39.11,39.11,0,0,0,5.58-1.76c2.23-.85,2.9-.81,3.46-1.23A3.39,3.39,0,0,0,202,258c.79-.23,3-1.19,3.31-2.61C205.52,254.53,202.85,254.78,200.9,255.08Z"/></clipPath><linearGradient id="Gradient_bez_nazwy_3-2" x1="-2255.81" y1="5825.27" x2="-2143.58" y2="5894.22" gradientTransform="matrix(-0.32, -0.9, 0.58, -0.42, -3943.41, 788.71)" xlink:href="#Gradient_bez_nazwy_3"/></defs><title>мы сделаем вас лидером_1</title><g class="cls-2"><g id="Слой_2" data-name="Слой 2"><g id="Designed_by_Freepik" data-name="Designed by Freepik"><g class="cls-3"><g class="cls-4"><path class="cls-5" d="M13.38,269c6.6-16.32,21.94-29.64,40.33-34.63A192.13,192.13,0,0,1,83.64,229c26.2-3.06,37-4.33,45.22-62.83,4.42-31.64,22.92-58.29,48.28-69.53,22.35-9.91,47.22-6.82,70,8.69,18.81,12.8,33.63,17.28,45.29,13.69,16.66-5.13,25.14-26.6,33.33-47.38,5.51-14,11.22-28.43,19.45-38C363.63,12.13,381.52,1.16,399.9.09c34.52-2,68.89,29.81,116.46,73.84q5.48,5.08,11.2,10.35c39.55,36.45,63.73,74.19,73.91,115.39,9.49,38.42,6.82,80.35-8.18,128.19-11.52,36.78-26.19,64.94-43.6,83.71-20.29,21.88-44.39,31.06-71.61,27.29-39-5.39-57.09-27.57-70.33-43.77-7.93-9.7-14.19-17.36-22-17.56-6.81-.17-15,5.33-25.91,17.32-16.91,18.66-48.15,39.13-80.5,35.4-25.53-2.94-47.09-19.93-64.08-50.49-22.2-40-50.93-32.67-84.19-24.24-31.26,7.92-66.68,16.9-98.83-18.42C7.85,310.28,7.64,287.78,11.76,273.64A49,49,0,0,1,13.38,269Z" transform="translate(-9.75)"/><path class="cls-6" d="M38.33,297.7c8.69-15.31,25.65-26.5,44.53-29a192.19,192.19,0,0,1,30.36-1.32c26.38.41,37.29.59,53.1-56.33,8.55-30.78,30.39-54.76,57-62.57,23.46-6.88,47.7-.55,68.26,17.83,17,15.17,31.06,21.55,43.1,19.53,17.19-2.89,28.42-23.06,39.27-42.58,7.31-13.13,14.86-26.7,24.29-35.16C419.33,89.19,438.5,80.67,456.86,82c34.48,2.55,64.37,38.61,105.73,88.52q4.77,5.75,9.74,11.74c34.41,41.34,53.41,81.93,58.08,124.12,4.35,39.33-3.82,80.55-25,126-16.26,34.94-34.51,60.93-54.24,77.25-23,19-48.09,25-74.58,17.63-37.91-10.47-53-34.85-64-52.64-6.58-10.66-11.78-19.07-19.45-20.29-6.73-1.07-15.62,3.3-28,13.75-19.22,16.27-52.88,32.45-84.46,24.5-24.93-6.27-44.06-26-56.88-58.48C207.16,391.6,177.72,395,143.64,399c-32,3.74-68.32,8-95.55-31.27-20.69-29.82-17.93-52.15-12-65.63A49.13,49.13,0,0,1,38.33,297.7Z" transform="translate(-9.75)"/></g></g><path class="cls-7" d="M373.19,286.2c-3.41-2.23,1.07-8.86,9.07-9.41a16,16,0,0,1,0,6.65C381.55,286.1,378,289.32,373.19,286.2Z" transform="translate(-9.75)"/><path class="cls-8" d="M368.58,286.68c-4-.82-2.25-8.64,5-12.08A16,16,0,0,1,376,280.8C376.32,283.53,374.16,287.84,368.58,286.68Z" transform="translate(-9.75)"/><path class="cls-9" d="M365.78,287.19c-3.56,1-5.33-6.08-.86-11.8a14.49,14.49,0,0,1,4.47,4C370.76,281.49,370.77,285.86,365.78,287.19Z" transform="translate(-9.75)"/><path class="cls-10" d="M364.25,286.27c-2.5,2.17-6.69-2.81-5.34-9.19a13,13,0,0,1,5.2,1.49C366,279.71,367.75,283.23,364.25,286.27Z" transform="translate(-9.75)"/><path class="cls-11" d="M357.29,269.7c-13.53-5.49-2.34-31.93,25.44-39.39,0,0,5.29,11.87,4.54,23.42C386.64,263.58,376.24,277.39,357.29,269.7Z" transform="translate(-9.75)"/><path class="cls-12" d="M379.93,233.64a26.11,26.11,0,0,0-6.43,6.59,32.87,32.87,0,0,0-2.41,3.88c-.34.68-.72,1.34-1,2l-.49,1-.44,1.05a56.73,56.73,0,0,0-2.78,8.67c-.15.75-.38,1.47-.51,2.23l-.44,2.25c-.23,1.51-.49,3-.63,4.55a125.37,125.37,0,0,0-.76,18.5c.08,3.11.21,6.23.4,9.36.09,1.57.14,3.14.27,4.71l.19,2.36.12,2.37-.22,0a161.72,161.72,0,0,1-2.54-18.72c-.15-1.57-.16-3.15-.25-4.72s0-3.15-.06-4.73a93.28,93.28,0,0,1,.6-9.44c.16-1.57.46-3.12.71-4.68s.63-3.09,1.06-4.62a51.38,51.38,0,0,1,3.23-8.89,37.12,37.12,0,0,1,5.06-8,23.42,23.42,0,0,1,7.26-6Z" transform="translate(-9.75)"/><path class="cls-13" d="M366,256.77c10.4-3.93,2.36-24.26-18.65-30.44,0,0-4.24,8.94-3.88,17.74C343.81,251.58,351.47,262.28,366,256.77Z" transform="translate(-9.75)"/><path class="cls-14" d="M349.56,228.78a72.75,72.75,0,0,1,9.85,16.89l1,2.25.86,2.3.86,2.3c.28.77.51,1.55.77,2.33s.49,1.56.73,2.35.48,1.57.68,2.36l1.23,4.76c.35,1.6.64,3.21,1,4.82.15.8.32,1.6.46,2.41l.34,2.43.63,4.87c.14,1.63.25,3.26.35,4.89l.16,2.44c0,.82,0,1.63,0,2.45v4.89c0,.81-.05,1.63-.12,2.44l-.17,2.44-.18,2.43-.23,2.43h-.17V296c0-.81,0-1.62-.05-2.43l-.25-4.85c0-.81-.07-1.62-.14-2.42l-.25-2.41-.5-4.83-.73-4.8-.37-2.4-.48-2.38c-.33-1.58-.63-3.17-1-4.75a135.44,135.44,0,0,0-5.69-18.54,91.83,91.83,0,0,0-8.72-17.29Z" transform="translate(-9.75)"/><path class="cls-15" d="M371.86,245c-19.47-6.22-6.68-44.32,31.3-57.69,0,0,8.64,16,8.84,32.2C412.17,233.36,399.12,253.74,371.86,245Z" transform="translate(-9.75)"/><path class="cls-16" d="M399.63,192.23a105.17,105.17,0,0,0-7.71,12.48c-2.34,4.28-4.45,8.66-6.39,13.11s-3.7,9-5.2,13.58-3,9.22-4.13,13.93-2.24,9.43-3.06,14.21c-.25,1.19-.42,2.39-.62,3.59s-.4,2.4-.56,3.6l-.47,3.62c-.19,1.2-.31,2.41-.44,3.62l-.4,3.63c-.1,1.21-.18,2.43-.3,3.64-.26,2.43-.34,4.87-.5,7.31-.11,1.22-.16,2.44-.21,3.67l-.16,3.68c-.05,1.23,0,2.45-.06,3.68l-.12,3.7-.27,0a195.63,195.63,0,0,1-.11-29.5,170.49,170.49,0,0,1,4.65-29.14,153.6,153.6,0,0,1,10-27.75,131.92,131.92,0,0,1,7.1-12.95c1.31-2.09,2.67-4.14,4.12-6.13a68.39,68.39,0,0,1,4.61-5.77Z" transform="translate(-9.75)"/><path class="cls-17" d="M382.76,262.95c-11.84-8.79,5.78-31.82,34.83-32.09,0,0,2.17,12.94-1.47,24C413,264.38,399.34,275.25,382.76,262.95Z" transform="translate(-9.75)"/><path class="cls-18" d="M414,233.37a60.78,60.78,0,0,0-8.29,6.55l-1.93,1.78L402,243.58c-.59.64-1.25,1.22-1.82,1.89l-1.74,2c-1.19,1.28-2.23,2.69-3.34,4-.54.69-1.13,1.33-1.62,2.06l-1.51,2.14c-.5.72-1,1.41-1.53,2.12s-.94,1.47-1.42,2.2l-1.4,2.21c-.46.74-1,1.46-1.35,2.24L383.66,269c-.21.38-.44.76-.64,1.15l-.56,1.18c-.38.79-.75,1.58-1.14,2.36L380.15,276c-.19.39-.4.78-.58,1.18l-.5,1.22c-.66,1.62-1.35,3.24-2,4.85s-1.26,3.28-1.88,4.93l-1.83,5c-1.16,3.34-2.09,6.75-3.3,10.12l-.19,0c.84-3.45,1.6-6.92,2.5-10.36l1.57-5.09c.53-1.7,1-3.41,1.69-5.05l1.91-5,.48-1.24c.17-.41.37-.81.55-1.21l1.12-2.42,1.12-2.42.56-1.21c.2-.4.42-.78.63-1.17l2.57-4.67a99.37,99.37,0,0,1,12.74-17.06c1.23-1.28,2.44-2.59,3.78-3.76l2-1.8,2.06-1.7a52.84,52.84,0,0,1,8.86-5.92Z" transform="translate(-9.75)"/><path class="cls-19" d="M386.7,227.1a18,18,0,0,1,4.61-2.4c.8-.33,1.62-.53,2.44-.78s1.66-.37,2.5-.54,1.69-.24,2.55-.3a24.52,24.52,0,0,1,2.58,0,15.08,15.08,0,0,1,5.13,1v.18a51.5,51.5,0,0,0-10,.92,96.77,96.77,0,0,0-9.79,2.12Z" transform="translate(-9.75)"/><path class="cls-20" d="M390,216.17a13.34,13.34,0,0,1,3.46-2.69,20,20,0,0,1,3.92-1.71,19.08,19.08,0,0,1,4.23-.81,11.43,11.43,0,0,1,4.4.45l0,.18c-1.38.18-2.74.45-4.09.76s-2.69.71-4,1.13-2.65.86-4,1.33-2.61,1-3.89,1.51Z" transform="translate(-9.75)"/><path class="cls-21" d="M376.14,224.61a15.23,15.23,0,0,1-1.31-2.59c-.33-.83-.61-1.63-.86-2.4s-.48-1.53-.77-2.25A11.54,11.54,0,0,0,372,215l.06-.15a5.15,5.15,0,0,1,2.19,1.74,8.88,8.88,0,0,1,1.27,2.5,15.22,15.22,0,0,1,.61,2.73,16.12,16.12,0,0,1,.16,2.78Z" transform="translate(-9.75)"/><path class="cls-22" d="M382.72,212.74a10.46,10.46,0,0,1-.51-2.17c-.09-.68-.17-1.34-.21-2s-.06-1.25-.14-1.85a7.88,7.88,0,0,0-.44-2l.07-.1a3.68,3.68,0,0,1,1.29,1.72,7.06,7.06,0,0,1,.46,2.11,14.3,14.3,0,0,1-.4,4.26Z" transform="translate(-9.75)"/><path class="cls-23" d="M379.09,305.89l-16.8-.2a1.65,1.65,0,0,1-1.62-1.47l-2.08-19.5a1.65,1.65,0,0,1,1.66-1.82l21.43.26a1.65,1.65,0,0,1,1.61,1.86l-2.55,19.44A1.65,1.65,0,0,1,379.09,305.89Z" transform="translate(-9.75)"/><path class="cls-24" d="M383.8,287,358,286.73a1.09,1.09,0,0,1-1.06-.94l-.47-3.32a1.09,1.09,0,0,1,1.09-1.24l26.78.32a1.09,1.09,0,0,1,1.06,1.26l-.55,3.3A1.09,1.09,0,0,1,383.8,287Z" transform="translate(-9.75)"/><path class="cls-25" d="M193.25,252.9c.74-.18,6.63-1.33,6.37,0s-2.52,2.38-3.31,2.61a3.08,3.08,0,0,1-3.37-1C192.61,253.87,192.54,253.07,193.25,252.9Z" transform="translate(-9.75)"/><path class="cls-26" d="M194.91,254.6c-.74.89-1.1.58-3.87,1.64a29.77,29.77,0,0,1-7.25,2c-1.65.19-1.32-3.58.82-4.28,1.81-.59,8.58-1,9.74-1A.91.91,0,0,1,194.91,254.6Z" transform="translate(-9.75)"/><path class="cls-27" d="M184.77,258.32c-.83.4-2.8,1-7.81,1.17a32.13,32.13,0,0,1-5.31-.17,2,2,0,0,1-1.93-2.57c.65-1.26,2.39-2.54,3.27-2.5,5,.21,8.8.68,10,.52C184.78,254.54,185.75,257.85,184.77,258.32Z" transform="translate(-9.75)"/><path class="cls-28" d="M343.76,161.24a5.85,5.85,0,0,1,8-5.48,4.49,4.49,0,0,1,7.48-2.76,6.41,6.41,0,0,1,12.66,1.42c0,.14,0,.28,0,.42A6.41,6.41,0,1,1,375.4,167v.07H348.67V167A5.86,5.86,0,0,1,343.76,161.24Z" transform="translate(-9.75)"/><path class="cls-28" d="M181.36,121.56a8.71,8.71,0,0,1,11.84-8.15,6.69,6.69,0,0,1,11.14-4.11,9.54,9.54,0,0,1,18.85,2.11c0,.21,0,.42,0,.62a9.54,9.54,0,1,1,5.3,18.16v.11h-39.8v-.13A8.73,8.73,0,0,1,181.36,121.56Z" transform="translate(-9.75)"/><path class="cls-28" d="M376,85.11a10.28,10.28,0,0,1,14-9.62,7.89,7.89,0,0,1,13.15-4.85,11.26,11.26,0,0,1,22.25,2.49c0,.25,0,.49,0,.73a11.26,11.26,0,1,1,6.26,21.43v.13h-47v-.15A10.3,10.3,0,0,1,376,85.11Z" transform="translate(-9.75)"/><path class="cls-28" d="M115.21,164a10.28,10.28,0,0,1,14-9.62,7.89,7.89,0,0,1,13.15-4.85A11.26,11.26,0,0,1,164.58,152c0,.25,0,.49,0,.73a11.26,11.26,0,1,1,6.26,21.43v.13h-47v-.15A10.3,10.3,0,0,1,115.21,164Z" transform="translate(-9.75)"/><path class="cls-29" d="M81,351.64,80.93,345a14.63,14.63,0,0,1,19.17-14.11l7.8,2.55a14.63,14.63,0,0,0,16.33-5.23l17.94-24.36A14.63,14.63,0,0,1,165,303l12.48,14.5a14.63,14.63,0,0,0,24.91-4.73l17.89-51.37c5.42-15.57,28.45-11.67,28.45,4.81V350.8Z" transform="translate(-9.75)"/><path class="cls-30" d="M421.63,351.5h.22l-.28-.17-65.74-191c-6.78-19.06-21.79-39.55-45.4-39.55l.35.16c-20.93,0-39.42,21.19-45.65,41.17L223.52,295.55,213.68,326a9.65,9.65,0,0,1-13.5,5.67l-5.9-2.95a9.65,9.65,0,0,0-11.14,1.81l-6.75,6.75a9.65,9.65,0,0,1-14.83-1.43l-6.19-9.18a9.65,9.65,0,0,0-15.43-.76l-13,15.66a9.65,9.65,0,0,1-9.85,3.18L107,342.18a9.65,9.65,0,0,0-7.44,1.1L86.07,351.5H419.47l2.26.29Z" transform="translate(-9.75)"/><path class="cls-29" d="M387.43,258.18l-10.3,54.74a14.63,14.63,0,0,1-24.91,4.73l-12.48-14.5a14.63,14.63,0,0,0-22.87.87l-17.94,24.36a14.63,14.63,0,0,1-16.33,5.23l-7.8-2.55a14.63,14.63,0,0,0-19.17,14.11l.08,5.76,189,1-28-94.58C409.93,231.21,387.16,243,387.43,258.18Z" transform="translate(-9.75)"/><polygon class="cls-31" points="329.06 43.26 307.25 121.2 308.38 121.52 330.19 43.58 329.06 43.26 329.06 43.26"/><path class="cls-32" d="M336,45.55s17.32,2.88,12.36,6.94S369.5,63.58,369.5,63.58s-8.48,6.59-11,10c-4.08,5.44-19.84-5.34-16.37-8.71,5.95-5.78-11.65.53-11.65.53L336,45.55Z" transform="translate(-9.75)"/><path class="cls-31" d="M155.07,306.73l-.68-.57,3.95-4.42a25.15,25.15,0,0,1,18.45-8.64,8.39,8.39,0,0,0,8.07-5.71L246.7,102.93a20.6,20.6,0,0,1,18.79-13.78l78.23-2.95,0,.87L265.53,90a19.7,19.7,0,0,0-18,13.19L185.71,287.65a9.28,9.28,0,0,1-8.92,6.3A24.24,24.24,0,0,0,159,302.3Z" transform="translate(-9.75)"/><path class="cls-33" d="M311.48,83.36a8,8,0,0,1-6.08-.44" transform="translate(-9.75)"/><path class="cls-34" d="M301.11,61.94l-3.79-.79Z" transform="translate(-9.75)"/><path class="cls-35" d="M196,207" transform="translate(-9.75)"/><path class="cls-36" d="M126.11,242.57" transform="translate(-9.75)"/><path class="cls-36" d="M86.16,270" transform="translate(-9.75)"/><path class="cls-25" d="M291.33,86.52c-.39.53-3.16,4-2.05,4.22,2.15.48,2.65-.35,3.1-.91a2.68,2.68,0,0,0,.3-3C292.33,86.33,291.71,86,291.33,86.52Z" transform="translate(-9.75)"/><path class="cls-25" d="M291,86.63c-.27.14-2.06,1.16-1.92,1.46.21.47,1.45.07,2.16-.27.38-.18.81-.94.62-1.24S291.4,86.4,291,86.63Z" transform="translate(-9.75)"/><path class="cls-37" d="M321.59,72.55c-1.46-3.13-2-3.82-3.53-5.41h0l-.06-.07c-.62-.5-2.18-1.39-6.4-2.5a27.84,27.84,0,0,0-4.53-.88,1.77,1.77,0,0,0-2.13,1.8,4.34,4.34,0,0,0,2.29,2.75c4.26.78,7.59,1.12,8.58,1.49a1.15,1.15,0,0,0,.51.07,2.41,2.41,0,0,0,.16.34c.82,1.45,4.8,5.77,5.3,6.66.33.59,1.14.5,1.21-.32C323.07,75.45,322.6,74.72,321.59,72.55Z" transform="translate(-9.75)"/><path class="cls-38" d="M302.49,120.62a4.22,4.22,0,0,1-.37,2.15c-.39.95-1.69,2.48-.65,2a6.87,6.87,0,0,0,2.22-2.1,13.75,13.75,0,0,1,1.39-1.52c.72-.71.69-.76-.18-1.46C303.71,118.68,302.22,119.68,302.49,120.62Z" transform="translate(-9.75)"/><path class="cls-39" d="M328.61,126.44a4.23,4.23,0,0,1,.87,2c.19,1-.06,3,.53,2a6.89,6.89,0,0,0,.71-3,13.72,13.72,0,0,1,.33-2c.22-1,.16-1-1-1.12C328.58,124.15,327.87,125.8,328.61,126.44Z" transform="translate(-9.75)"/><path class="cls-25" d="M304.8,58.71c.38,2,.45,2.49-.18,3.55a4.84,4.84,0,0,1-2.88,1.85c-1,.3-2-.73-2.51-1.5a12.68,12.68,0,0,1-1.56-4.6,3.33,3.33,0,0,1,2.19-3.27C301.26,54.32,303.88,53.73,304.8,58.71Z" transform="translate(-9.75)"/><path class="cls-25" d="M304.81,62.48c.25.67.53,1.44.77,2.16A2,2,0,0,1,304.49,67l-.11,0A1.85,1.85,0,0,1,302.12,66c-.11-.57-.26-1.14-.4-1.63a2.31,2.31,0,0,1,.87-2.52h0A1.45,1.45,0,0,1,304.81,62.48Z" transform="translate(-9.75)"/><path class="cls-40" d="M311.23,69.78A42.71,42.71,0,0,0,313.6,84.6l-11.95,3.48s-3.19-11.21-4.18-17.57a4.78,4.78,0,0,1,1.5-4.25,8.93,8.93,0,0,1,3-1.63l2.21-.64a8.72,8.72,0,0,1,2.42-.39C310.12,63.65,311.27,66.49,311.23,69.78Z" transform="translate(-9.75)"/><path class="cls-41" d="M315.68,91.92s.3-2.81-2.08-7.32l-11.95,3.48a70.76,70.76,0,0,0,1.7,7.44Z" transform="translate(-9.75)"/><path class="cls-42" d="M315.73,110.88c-2.85-3,.4-5.69,3-3.78,3.64,2.71,10,14.33,11.22,16.68.16.31.42.65.33.84a2.67,2.67,0,0,1-1,.83c-.41.21-.81.44-1.13,0C325.92,122.21,318.49,113.83,315.73,110.88Z" transform="translate(-9.75)"/><path class="cls-43" d="M309.32,94.07c-.93-5,.66-9.05,3.93-7.71a4.25,4.25,0,0,1,2.3,3.2c.31,1.29,2.63,14.82,3.21,17.25,1.31,5.47-3.22,4.42-3.85,2.93C313.33,106,309.83,96.78,309.32,94.07Z" transform="translate(-9.75)"/><path class="cls-44" d="M304.87,119.6c-1.94-5.6-3.26-15.86-6.33-19.87-1.95-2.55-5.42-1.33-3.93,2.15,1.59,3.72,5.48,10.61,7.84,18.05C302.68,120.67,305.09,120.26,304.87,119.6Z" transform="translate(-9.75)"/><path class="cls-45" d="M297.94,102.95c-1.4.8-6.22-1.53-2.1-5.36,1.83-1.7,8-8,8.94-8.89s2.45-2.18,3.11-1.9c3.26,1.36,3,6.45-1.06,9.52C304.14,98.37,300.85,101.28,297.94,102.95Z" transform="translate(-9.75)"/><ellipse class="cls-25" cx="298.26" cy="60.45" rx="0.73" ry="1.39" transform="translate(17.38 198.66) rotate(-38.47)"/><ellipse class="cls-25" cx="304.7" cy="58.57" rx="1.39" ry="0.73" transform="translate(205.08 355.55) rotate(-84.05)"/><path class="cls-46" d="M303.06,55c-.43,1.37-4.12,2.57-5.46,2.5a1.63,1.63,0,0,1-.25-3.11c1-.29.34.15,1.22.24C299,54.67,303.52,53.52,303.06,55Z" transform="translate(-9.75)"/><path class="cls-47" d="M297.09,70.67c-.72,4.27-1,7.6-1.37,8.61a1,1,0,0,0,0,.11,2,2,0,0,0-.22.21c-1.08,1.26-3.61,6.58-4,7.51a.8.8,0,0,0,1.07,1c1-.3.83-.69,2.6-2.57a27.21,27.21,0,0,0,3.25-4.07l0,0a6.5,6.5,0,0,0,.69-1.18h0A28.87,28.87,0,0,0,300.82,75a28,28,0,0,0,.82-4.54,1.77,1.77,0,0,0-1.83-2.1A4.33,4.33,0,0,0,297.09,70.67Z" transform="translate(-9.75)"/><path class="cls-25" d="M323.84,77.16c-.23-.62-1.13-2.07-1.68-1.64a1.7,1.7,0,0,0-.74,2.12c.4,1.25,1.11,1,1.9.93C323.9,78.54,324.06,77.75,323.84,77.16Z" transform="translate(-9.75)"/><g class="cls-48"><path class="cls-49" d="M320.34,43.43C312,41.68,302,50.78,301,59.06c-1,8.45,6.75,10.21,3.16,22.52-2.84,9.73,4.26,17.58,7,24.58,3,7.68-6.35,17.41-3.3,24.15,7,15.51-3.91,25.88,10.5,25.6,14.8-.29,13.09-7.61,28.39-11.88,13.29-3.72,8.35-32,4.82-42.31-3.74-11-12-10.72-11.05-23.74.58-7.79,1.41-12.38-8.83-17.8C326.43,57.38,336.28,46.77,320.34,43.43Z" transform="translate(-9.75)"/></g><path class="cls-50" d="M160.38,328a7.6,7.6,0,0,1,.06,1.31c0,.53.52.76.76,1.22s.71,1.23-1.24,1.09-3.31-.33-2.85-1.43a5.81,5.81,0,0,0,.58-2,1.23,1.23,0,0,1,.32-1C158.28,327.09,160.18,326.86,160.38,328Z" transform="translate(-9.75)"/><path class="cls-50" d="M183.34,306.86a4.86,4.86,0,0,0,2,1.57c1.06.51,3.35.83,2.05,1.19a7.93,7.93,0,0,1-3.51-.11,16.86,16.86,0,0,0-2.38-.12c-1.17-.06-1.16-.25-.95-1.51C180.8,306.13,182.85,305.85,183.34,306.86Z" transform="translate(-9.75)"/><path class="cls-25" d="M170.45,248.34c0,2.38,0,2.91,1,4a5.57,5.57,0,0,0,3.66,1.45c1.21.11,2.14-1.27,2.5-2.25a14.6,14.6,0,0,0,.75-5.54,3.83,3.83,0,0,0-3.19-3.21C173.48,242.61,170.41,242.52,170.45,248.34Z" transform="translate(-9.75)"/><path class="cls-25" d="M171.27,252.61c-.14.81-.29,1.75-.39,2.6a2.26,2.26,0,0,0,1.75,2.47l.13,0c1,.09,2.3-.72,2.31-1.75,0-.67,0-1.34.09-1.93a2.66,2.66,0,0,0-1.54-2.65h0A1.67,1.67,0,0,0,171.27,252.61Z" transform="translate(-9.75)"/><path class="cls-51" d="M165.62,262.25a49.15,49.15,0,0,1,.57,17.26l14.25,1.31s1.14-13.36.86-20.76a5.5,5.5,0,0,0-2.62-4.47,10.28,10.28,0,0,0-3.72-1.19l-2.63-.24a10,10,0,0,0-2.81.09C165.53,255.09,164.86,258.55,165.62,262.25Z" transform="translate(-9.75)"/><path class="cls-52" d="M165.45,288.24s-1-3.11.74-8.73l14.25,1.31s-.39,4.09-.8,8.72Z" transform="translate(-9.75)"/><path class="cls-53" d="M166.55,307.15c1.57-4.54-3.1-5.79-4.9-2.57-2.55,4.55-3.78,19.75-3.95,22.79,0,.4-.14.88.05,1a3.06,3.06,0,0,0,1.48.38c.53,0,1.05.08,1.17-.57C161.18,323.83,165,311.55,166.55,307.15Z" transform="translate(-9.75)"/><path class="cls-54" d="M172.47,289.52c1-5.72-.84-10.41-4.59-8.83a4.89,4.89,0,0,0-2.62,3.7c-.34,1.49-2.89,17.07-3.54,19.87-1.46,6.31,3.74,5.05,4.45,3.33C168,303.25,171.91,292.63,172.47,289.52Z" transform="translate(-9.75)"/><path class="cls-55" d="M180.73,306.7c3-6.12,6-18,10.07-22.19,2.58-2.64,6.37-.75,4.19,3-2.34,4-7.76,11.34-11.5,19.5C183.11,307.82,180.39,307.42,180.73,306.7Z" transform="translate(-9.75)"/><path class="cls-56" d="M193.56,288.81c1.83-.33,4.35-6-2.12-6.27-2.87-.14-12.93-1.13-14.45-1.21s-3.77-.1-4.14.62c-1.86,3.62,2.18,7.87,8,7.6C184.71,289.37,189.77,289.5,193.56,288.81Z" transform="translate(-9.75)"/><ellipse class="cls-25" cx="178.23" cy="248.87" rx="1.6" ry="0.84" transform="translate(-134.56 292.13) rotate(-62.52)"/><ellipse class="cls-25" cx="170.54" cy="248.17" rx="0.84" ry="1.6" transform="translate(-74.77 60.59) rotate(-16.97)"/><path class="cls-57" d="M171.61,243.76c.79,1.46,5.22,2,6.71,1.62s1.65-3.18-.4-3.57c-1.17-.11-.35.25-1.33.54C176.09,242.51,170.76,242.21,171.61,243.76Z" transform="translate(-9.75)"/><path class="cls-25" d="M199,255.44c.74-.18,6.63-1.33,6.37,0s-2.52,2.38-3.31,2.61a3.09,3.09,0,0,1-3.37-1C198.33,256.42,198.27,255.62,199,255.44Z" transform="translate(-9.75)"/><path class="cls-25" d="M199.25,255.11c.27-.22,1.89-1.54,2.15-1.25s-.61,1.35-1.28,2c-.36.33-1.07.53-1.3.2S198.82,255.47,199.25,255.11Z" transform="translate(-9.75)"/><path class="cls-58" d="M200.09,257.42c-.74.89-1.1.58-3.87,1.64a29.74,29.74,0,0,1-7.25,2c-1.65.19-1.32-3.58.83-4.28,1.81-.59,8.58-1,9.74-1A.91.91,0,0,1,200.09,257.42Z" transform="translate(-9.75)"/><path class="cls-59" d="M190.61,260.84c-.87.29-2.9.65-7.9.2a23.69,23.69,0,0,1-4.33-.6,3.34,3.34,0,0,1-2.52-3c.17-1.45,1-2.46,1.88-2.32,4.92.82,10.32,2,11.54,2C191.09,257.08,191.64,260.49,190.61,260.84Z" transform="translate(-9.75)"/><path class="cls-60" d="M176.62,244c1.29,1,1.54,1.7,1.35,3.39s-1.18,4.5-4.35,4.86-3.62-2.8-3.61-4.95.28-3.73,1.89-4C174.28,243,175.84,243.41,176.62,244Z" transform="translate(-9.75)"/><g class="cls-61"><path class="cls-62" d="M147.51,230.16c10.58-.79,24.74,7.54,26.73,18.71,2,11.4-6.81,16-1.38,32,4.3,12.68-3.15,25.46-5.59,35.87-2.67,11.43,2.6,17.56-.26,27.7-6.58,23.35-6.94,30.38-23.74,33.91C126,382,124.75,358.26,115.56,338.78c-6.78-14.39-10.06-28.92-3.64-38.43,9.22-13.66,19.41,2,17-15.74-1.47-10.61.58-28.53,15.35-24.45S132.28,231.29,147.51,230.16Z" transform="translate(-9.75)"/></g></g></g></g></svg>