<svg xmlns="http://www.w3.org/2000/svg" xmlns:xlink="http://www.w3.org/1999/xlink" viewBox="0 0 180 180"><defs><style>.cls-1{fill:#ed0f0f;opacity:0.1;}.cls-2{fill:none;stroke:#0037ff;stroke-miterlimit:10;}.cls-3{fill:url(#Безымянный_градиент_22);}.cls-4{fill:url(#Безымянный_градиент_29);}.cls-5{fill:url(#Безымянный_градиент_29-2);}.cls-6{fill:#ea8f68;}.cls-7{fill:url(#Безымянный_градиент_29-3);}.cls-8{fill:url(#Безымянный_градиент_14);}.cls-9{fill:url(#Безымянный_градиент_2);}.cls-10{fill:url(#Безымянный_градиент_2-2);}.cls-11{fill:url(#Безымянный_градиент_2-3);}.cls-12{fill:url(#Безымянный_градиент_2-4);}.cls-13{fill:#ffaf84;}.cls-14{fill:url(#Безымянный_градиент_22-2);}.cls-15{fill:url(#Безымянный_градиент_22-3);}.cls-16{fill:url(#Безымянный_градиент_22-4);}.cls-17{fill:url(#Безымянный_градиент_22-5);}.cls-18{fill:url(#Безымянный_градиент_29-4);}.cls-19{fill:url(#Безымянный_градиент_29-5);}.cls-20{opacity:0.7;}</style><linearGradient id="Безымянный_градиент_22" x1="85.56" y1="6639.74" x2="46.56" y2="6667.87" gradientTransform="matrix(1, 0, 0, -1, 0, 6705.15)" gradientUnits="userSpaceOnUse"><stop offset="0" stop-color="#2c27ce"/><stop offset="0.65" stop-color="#ef1d68"/><stop offset="1" stop-color="#efba92"/></linearGradient><linearGradient id="Безымянный_градиент_29" x1="-175.75" y1="-1235.18" x2="-187.8" y2="-1265.21" gradientTransform="matrix(0.61, -0.79, -0.79, -0.61, -804.62, -846.1)" gradientUnits="userSpaceOnUse"><stop offset="0" stop-color="#f70f47"/><stop offset="1" stop-color="#9e005d"/></linearGradient><linearGradient id="Безымянный_градиент_29-2" x1="-12745.13" y1="4617.54" x2="-12758.62" y2="4583.9" gradientTransform="matrix(-0.7, 0.72, 0.72, 0.7, -12100.63, 6026.19)" xlink:href="#Безымянный_градиент_29"/><linearGradient id="Безымянный_градиент_29-3" x1="63.94" y1="6643.08" x2="68.39" y2="6604.83" gradientTransform="matrix(1, 0, 0, -1, 0, 6705.15)" xlink:href="#Безымянный_градиент_29"/><linearGradient id="Безымянный_градиент_14" x1="71.84" y1="6616.5" x2="54.19" y2="6565.14" gradientTransform="matrix(1, 0, 0, -1, 0, 6705.15)" gradientUnits="userSpaceOnUse"><stop offset="0" stop-color="#36078b"/><stop offset="1" stop-color="#168d68"/></linearGradient><linearGradient id="Безымянный_градиент_2" x1="-581.98" y1="7805.61" x2="-600.02" y2="7753.12" gradientTransform="matrix(0.99, 0.15, 0.15, -0.99, -512.18, 7908.21)" gradientUnits="userSpaceOnUse"><stop offset="0" stop-color="#36078b"/><stop offset="1" stop-color="#16b1ff"/></linearGradient><linearGradient id="Безымянный_градиент_2-2" x1="69.01" y1="6617.47" x2="51.36" y2="6566.11" gradientTransform="matrix(1, 0, 0, -1, 0, 6705.15)" xlink:href="#Безымянный_градиент_2"/><linearGradient id="Безымянный_градиент_2-3" x1="94.11" y1="6608.84" x2="76.47" y2="6557.48" gradientTransform="matrix(1, 0, 0, -1, 0, 6705.15)" xlink:href="#Безымянный_градиент_2"/><linearGradient id="Безымянный_градиент_2-4" x1="82.45" y1="6612.85" x2="64.81" y2="6561.49" gradientTransform="matrix(1, 0, 0, -1, 0, 6705.15)" xlink:href="#Безымянный_градиент_2"/><linearGradient id="Безымянный_градиент_22-2" x1="77.34" y1="6512.35" x2="79.34" y2="6536.93" xlink:href="#Безымянный_градиент_22"/><linearGradient id="Безымянный_градиент_22-3" x1="49.11" y1="6507.8" x2="51.62" y2="6538.78" xlink:href="#Безымянный_градиент_22"/><linearGradient id="Безымянный_градиент_22-4" x1="80.86" y1="6645.1" x2="58.73" y2="6670.35" xlink:href="#Безымянный_градиент_22"/><linearGradient id="Безымянный_градиент_22-5" x1="85.42" y1="6649.1" x2="63.3" y2="6674.35" xlink:href="#Безымянный_градиент_22"/><linearGradient id="Безымянный_градиент_29-4" x1="1359.6" y1="8533.16" x2="1345.11" y2="8497.03" gradientTransform="matrix(0.71, 0.18, 0.26, -0.97, -3125.22, 8084.03)" xlink:href="#Безымянный_градиент_29"/><linearGradient id="Безымянный_градиент_29-5" x1="-8589.73" y1="11268.68" x2="-8600.29" y2="11242.36" gradientTransform="matrix(-0.67, -0.74, 0.74, -0.67, -14041.59, 1233.5)" xlink:href="#Безымянный_градиент_29"/></defs><title>nasviazi1</title><g id="Слой_2" data-name="Слой 2"><g id="Designed_by_Freepik" data-name="Designed by Freepik"><circle class="cls-1" cx="90" cy="90" r="90"/></g><g id="Objects"><g id="Слой_2-2" data-name="Слой 2"><g id="Designed_by_Freepik-2" data-name="Designed by Freepik"><path class="cls-2" d="M148.28,79.15l1.52-17.62.76-8.79a3.62,3.62,0,0,0-3.29-3.92L85.34,43.49a3.62,3.62,0,0,0-3.93,3.28v0l-.76,8.79L71.28,164.76a3.62,3.62,0,0,0,3.29,3.91L136.49,174a3.62,3.62,0,0,0,3.91-3.29l6.31-73.31a1.51,1.51,0,0,0,1.13-1.35l1.32-15.41A1.51,1.51,0,0,0,148.28,79.15Z"/><path class="cls-2" d="M148.3,79.14l1.52-17.62.76-8.79a3.62,3.62,0,0,0-3.29-3.92L85.36,43.47a3.62,3.62,0,0,0-3.95,3.26v0l-.76,8.79L71.3,164.75a3.62,3.62,0,0,0,3.29,3.91L136.51,174a3.62,3.62,0,0,0,3.91-3.29l6.31-73.31a1.51,1.51,0,0,0,1.12-1.34l1.32-15.41A1.51,1.51,0,0,0,148.3,79.14Z"/><path class="cls-2" d="M148.27,79.14l1.52-17.62.76-8.79a3.62,3.62,0,0,0-3.29-3.92L85.33,43.47a3.62,3.62,0,0,0-3.92,3.29h0l-.76,8.79L71.27,164.75a3.62,3.62,0,0,0,3.29,3.91L136.48,174a3.62,3.62,0,0,0,3.91-3.29l6.31-73.31a1.51,1.51,0,0,0,1.13-1.34l1.32-15.41A1.51,1.51,0,0,0,148.27,79.14Z"/><path class="cls-2" d="M148.27,79.14l1.52-17.62.76-8.79a3.62,3.62,0,0,0-3.29-3.92L85.33,43.47a3.62,3.62,0,0,0-3.92,3.29h0l-.76,8.79L71.27,164.75a3.62,3.62,0,0,0,3.29,3.91L136.48,174a3.62,3.62,0,0,0,3.91-3.29l6.31-73.31a1.51,1.51,0,0,0,1.13-1.34l1.32-15.41A1.51,1.51,0,0,0,148.27,79.14Z"/><path class="cls-2" d="M105.75,168.76h0a3.4,3.4,0,0,1-3.1-3.68h0a3.4,3.4,0,0,1,3.68-3.1h0a3.4,3.4,0,0,1,3.1,3.68h0a3.4,3.4,0,0,1-3.68,3.1Z"/><path class="cls-2" d="M103.1,53.05h0a1.38,1.38,0,0,1-1.26-1.49h0a1.38,1.38,0,0,1,1.49-1.26h0a1.38,1.38,0,0,1,1.26,1.49h0a1.38,1.38,0,0,1-1.49,1.26Z"/><path class="cls-2" d="M122.63,53.87l-13.69-1.18a.51.51,0,0,1,.09-1l13.69,1.18a.51.51,0,0,1-.09,1Z"/><rect class="cls-2" x="61.08" y="75.35" width="99.67" height="66.8" transform="translate(-6.94 209.92) rotate(-85.08)"/><polygon class="cls-2" points="128.35 60.21 77.91 102.66 80.06 77.69 103.38 58.06 128.35 60.21"/><polygon class="cls-2" points="145.73 61.71 76.41 120.03 77.49 107.55 133.25 60.63 145.73 61.71"/><path class="cls-3" d="M61.41,34.18c1.4-2-.2-5.46-4.18-5.78-4.54-.37-12.6,2.25-8.28,12.83,4.5,11,3.09,13.83.06,15.48,0,0,10.4.83,9.6-8.25S58.14,38.76,61.41,34.18Z"/><path class="cls-4" d="M82.24,68.58c-1.56-.26-4.94-1.24-12.11-5.07a58.48,58.48,0,0,1-7.25-4.4c-2.16-1.51-1.47-3.64-.05-4.06a9.16,9.16,0,0,1,6.46.51C76,59.75,81,63.07,82.86,63.88,85.58,65.05,84.09,68.89,82.24,68.58Z"/><path class="cls-5" d="M73.93,80.43c-.39-1.1.91-1.65,2-5.23a33.2,33.2,0,0,1,4.29-9.92c1.32-2.23,5.08-1.23,4,1.77-.92,2.53-7.36,12.45-7.92,14C75.92,82.05,74.25,81.33,73.93,80.43Z"/><path class="cls-6" d="M59.83,47.38c0,.23-.38,5-.45,8.73,0,1.81,1.28,3.53,2.58,3.57H62c1.28,0,2.78-1.61,2.67-3.38a48,48,0,0,1,0-6.56Z"/><path class="cls-7" d="M56.1,68.18a62.89,62.89,0,0,1,2.31,10.11,25.62,25.62,0,0,1,0,7.61c-.21,1.52-.5,3-.85,4.52-.13.57-1.24,5.13-1.29,5.62H77.06c-.2-4.08-4.85-16.9-1.7-25.21,2.18-5.75-.72-5.93-2.68-10.71A14.06,14.06,0,0,0,71,56.65a6,6,0,0,0-3.19-2,11.87,11.87,0,0,0-1.94-.27c-3.53-.28-11.83-1.31-12.61,3.71a8.88,8.88,0,0,0,.41,4c.48,1.51,1.17,2.91,1.72,4.31Q55.8,67.31,56.1,68.18Z"/><path class="cls-8" d="M56.32,109.26s-1.8-4.54-.08-13.23H77.06a127.45,127.45,0,0,1,.76,13.23Z"/><path class="cls-9" d="M60,138.48c2.73-6.7-3.92-9-6.87-4.29-4.17,6.64-6,31.18-6.52,35.75-.07.6.26.54.61.47,1-.2.59-1.16,2.06-1.07.78,0,1,1.11,1,1.11C51.91,164.36,57.41,145,60,138.48Z"/><path class="cls-10" d="M66.66,110.21c.73-8.74-2.61-15.53-7.83-12.65-2.2,1.21-3,3.65-3.3,5.93S53.62,129.57,53,133.87c-1.28,9.69,6.1,7.08,6.9,4.39C62,131.49,66.26,115,66.66,110.21Z"/><path class="cls-11" d="M79,137.1c.27-6.56-5.88-6.42-7.43-1.08-2.43,8.4,1.77,26.44,2,36.74,1.07-1.78,2.09-2.21,2.56-2.17a1.71,1.71,0,0,1,1.2.67C77.18,157.69,78.68,144.12,79,137.1Z"/><path class="cls-12" d="M71.79,137.82c.82,2.68,7.86,5.78,7.13-4-.33-4.33-1.2-28.21-1.36-30.51S77,97.64,75.9,97.22c-5.56-2.1-11,4.77-9.5,13.41C67.41,116.44,70.09,132.26,71.79,137.82Z"/><path class="cls-13" d="M57.33,43.9c.41,4.11.53,5,2.33,6.7A9.69,9.69,0,0,0,66,53.05c2.1,0,3.66-2.22,4.14-4a29.89,29.89,0,0,0,.48-10.53,6.64,6.64,0,0,0-6-5C61.66,33.52,56.33,33.85,57.33,43.9Z"/><path class="cls-14" d="M77.59,171.22a7.1,7.1,0,0,0,3,2.24c1.58.7,4.92,1,3.06,1.65a11.1,11.1,0,0,1-5.12.07,22.2,22.2,0,0,0-3.45-.21c-1.7,0-1.72-.12-1.49-2C73.87,170.29,76.83,169.73,77.59,171.22Z"/><path class="cls-15" d="M50.26,170.05c.24.46.49,2.7,2.06,3.41s4.92,1,3.06,1.65a11.1,11.1,0,0,1-5.12.07c-1.1-.18-1.27-1.37-2.56-1.38-1.7,0-1.72-.12-1.49-2C46.53,169.12,49.49,168.56,50.26,170.05Z"/><path class="cls-16" d="M69.89,36.42c1.61,2.75-10.09,7.79-12.69,7.36s-2.58-6-.57-8.47S66.09,29.93,69.89,36.42Z"/><path class="cls-17" d="M65.55,35.72c.42,2.33,4.5,2.86,5.19,4.78.43,1.19.63-2.58-.32-4.29S64.7,31.05,65.55,35.72Z"/><ellipse class="cls-13" cx="57.2" cy="44.51" rx="1.46" ry="2.78" transform="translate(-12.58 24.92) rotate(-22.21)"/><path class="cls-13" d="M34.26,59.8a7.54,7.54,0,0,0-1-3.44c-.54-.72-.39,1.21-.38,2.16S34.34,60.85,34.26,59.8Z"/><path class="cls-13" d="M33.36,58.8c-1.42-2.14-1.83-3.51-3-4.07s-1.17,1.78-.79,2.6,1.57,3.84,2.62,4.1S34.41,60.38,33.36,58.8Z"/><path class="cls-18" d="M41.15,72.83c.59-1.47,2.26-4.55,7.54-10.78a58.37,58.37,0,0,1,5.85-6.14c1.93-1.79,3.86-.62,4,.82a9.17,9.17,0,0,1-1.88,6.2c-5.53,5.69-9.84,9.83-11,11.48C43.91,76.86,40.41,74.57,41.15,72.83Z"/><path class="cls-19" d="M34.35,59.54C35.26,61,44,69.63,45.49,72c1.77,2.8-1.83,4.67-3.69,2.69a34.55,34.55,0,0,1-6.55-9.12c-1.87-3.4-3.3-3.67-3.16-4.88C32.22,59.7,33.75,58.59,34.35,59.54Z"/><path class="cls-13" d="M76,79.45a9,9,0,0,1,2.14,1.87c.37.48.36,1.24-.32,1.35a4.46,4.46,0,0,1-3-1,3.1,3.1,0,0,1-.58-2.21C74.41,78.76,75.07,78.81,76,79.45Z"/><g class="cls-20"><path class="cls-2" d="M96,5,71.85,4.55a3.59,3.59,0,0,0-3.65,3.5L67.93,23.8a3.58,3.58,0,0,0,3.48,3.67h2.36s3.06,4.11,4.17,5.4A2.14,2.14,0,0,0,81,33l.12-.11c1.16-1.25,4.35-5.25,4.35-5.25l10.15.17a3.59,3.59,0,0,0,3.65-3.52L99.5,8.57A3.59,3.59,0,0,0,96,5Z"/><path class="cls-2" d="M93.62,12.37,74,12.05a1.16,1.16,0,0,1,0-2.32h0l19.65.32a1.16,1.16,0,1,1,0,2.32h0Z"/><path class="cls-2" d="M93.52,17.9l-19.61-.33a1.16,1.16,0,0,1,0-2.32l19.61.34a1.16,1.16,0,0,1,0,2.32Z"/><path class="cls-2" d="M82.66,23.25l-8.84-.2a1.16,1.16,0,0,1,0-2.32l8.84.15a1.16,1.16,0,0,1,0,2.32Z"/></g></g></g></g></g></svg>