<svg xmlns="http://www.w3.org/2000/svg" viewBox="0 0 194.73 194.73"><defs><style>.cls-1{fill:#ed0f0f;opacity:0.1;}.cls-2{fill:none;stroke:#0037ff;stroke-linecap:round;stroke-linejoin:round;}.cls-3{opacity:0.2;}.cls-4{opacity:0.5;}</style></defs><title>netop10</title><g id="Слой_2" data-name="Слой 2"><g id="Designed_by_Freepik" data-name="Designed by Freepik"><circle class="cls-1" cx="97.36" cy="97.36" r="97.36"/><rect class="cls-2" x="32.3" y="53.21" width="132.59" height="89.9" rx="3.06" ry="3.06" transform="translate(-0.2 0.2) rotate(-0.12)"/><rect class="cls-2" x="29.83" y="51.61" width="132.59" height="89.9" rx="3.06" ry="3.06" transform="translate(-0.2 0.2) rotate(-0.12)"/><path class="cls-2" d="M159.07,51.48l-125.94.26a3.33,3.33,0,0,0-3.32,3.33V58l132.59-.27V54.8A3.33,3.33,0,0,0,159.07,51.48Z"/><path class="cls-2" d="M33.28,141.65l19,0-.17-83.69L29.78,58l.17,80.36A3.32,3.32,0,0,0,33.28,141.65Z"/><rect class="cls-2" x="29.86" y="51.61" width="132.59" height="89.9" rx="3.06" ry="3.06" transform="translate(-0.2 0.2) rotate(-0.12)"/><rect class="cls-2" x="33.26" y="132.78" width="17.01" height="2.49" rx="1.24" ry="1.24" transform="translate(-0.28 0.09) rotate(-0.12)"/><rect class="cls-2" x="32.69" y="61.71" width="16.78" height="16.78" rx="5.11" ry="5.11" transform="translate(-0.14 0.08) rotate(-0.12)"/><circle class="cls-2" cx="36.01" cy="54.79" r="1.07" transform="translate(-0.11 0.07) rotate(-0.12)"/><circle class="cls-2" cx="40.54" cy="54.78" r="1.07" transform="translate(-0.11 0.08) rotate(-0.12)"/><circle class="cls-2" cx="45.08" cy="54.77" r="1.07" transform="translate(-0.11 0.09) rotate(-0.12)"/><rect class="cls-2" x="33.9" y="79.88" width="14.88" height="1.23" rx="0.61" ry="0.61" transform="translate(-0.17 0.09) rotate(-0.12)"/><rect class="cls-2" x="33.91" y="82.5" width="14.88" height="1.23" rx="0.61" ry="0.61" transform="translate(-0.17 0.09) rotate(-0.12)"/><g class="cls-3"><rect class="cls-2" x="56.55" y="62.57" width="101.3" height="42.66" rx="3.28" ry="3.28"/></g><rect class="cls-2" x="137.57" y="73.28" width="7.01" height="28.33" rx="0.83" ry="0.83"/><rect class="cls-2" x="147.19" y="71.53" width="7.01" height="30.07" rx="0.92" ry="0.92"/><rect class="cls-2" x="60.56" y="72.6" width="7.01" height="29.01" rx="0.92" ry="0.92"/><rect class="cls-2" x="70.18" y="74.93" width="7.01" height="26.68" rx="0.8" ry="0.8"/><rect class="cls-2" x="79.81" y="70.96" width="7.01" height="30.64" rx="0.92" ry="0.92"/><rect class="cls-2" x="89.44" y="82.3" width="7.01" height="19.3" rx="0.68" ry="0.68"/><rect class="cls-2" x="99.06" y="66.64" width="7.01" height="34.96" rx="0.92" ry="0.92"/><rect class="cls-2" x="108.69" y="73.28" width="7.01" height="28.33" rx="0.83" ry="0.83"/><rect class="cls-2" x="118.31" y="71.53" width="7.01" height="30.07" rx="0.92" ry="0.92"/><rect class="cls-2" x="127.94" y="74.93" width="7.01" height="26.68" rx="0.8" ry="0.8"/><rect class="cls-2" x="57.49" y="107.03" width="33.87" height="14.26" rx="3.28" ry="3.28"/><rect class="cls-2" x="57.49" y="122.39" width="33.87" height="14.26" rx="3.28" ry="3.28"/><path class="cls-2" d="M89.66,108.88a.64.64,0,0,0-.64.64.63.63,0,0,0,.09.32l-5.18,5.85a.63.63,0,0,0-.5,0l-5.57-5.48a.64.64,0,1,0-1.15,0L69.54,118a.62.62,0,0,0-.67,0l-3.92-5.11a.64.64,0,1,0-1.07-.06l-4.39,5.69a.64.64,0,1,0,.31.25L64.18,113a.61.61,0,0,0,.44,0l4,5.17a.64.64,0,1,0,1.19.06L77,110.52a.61.61,0,0,0,.6,0L83.13,116a.63.63,0,0,0-.08.31.64.64,0,1,0,1.18-.33l5.17-5.84a.64.64,0,1,0,.25-1.22Z"/><rect class="cls-2" x="58.73" y="123.47" width="28.65" height="1.2" rx="0.6" ry="0.6"/><rect class="cls-2" x="58.73" y="125.62" width="25.77" height="1.2" rx="0.6" ry="0.6"/><path class="cls-2" d="M89.69,129H59.33a.6.6,0,0,1-.6-.6h0a.6.6,0,0,1,.6-.6H89.69a.6.6,0,0,1,.6.6h0A.6.6,0,0,1,89.69,129Z"/><rect class="cls-2" x="58.73" y="129.93" width="22.93" height="1.2" rx="0.6" ry="0.6"/><rect class="cls-2" x="58.73" y="132.08" width="28.95" height="1.2" rx="0.6" ry="0.6"/><path class="cls-2" d="M89.69,135.43H59.33a.6.6,0,0,1-.6-.6h0a.6.6,0,0,1,.6-.6H89.69a.6.6,0,0,1,.6.6h0A.6.6,0,0,1,89.69,135.43Z"/><g class="cls-4"><rect class="cls-2" x="96.6" y="107.51" width="61.26" height="13.2" rx="2.79" ry="2.79"/></g><rect class="cls-2" x="96.6" y="123.46" width="61.26" height="13.2" rx="2.79" ry="2.79"/></g></g></svg>