<svg xmlns="http://www.w3.org/2000/svg" viewBox="0 0 194.73 194.73"><defs><style>.cls-1{fill:#ed0f0f;opacity:0.1;}.cls-2,.cls-3,.cls-4{fill:none;stroke:#0037ff;stroke-linecap:round;stroke-linejoin:round;}.cls-3{opacity:0.39;}.cls-4,.cls-5{opacity:0.5;}</style></defs><title>netseo</title><g id="Слой_2" data-name="Слой 2"><g id="Designed_by_Freepik" data-name="Designed by Freepik"><circle class="cls-1" cx="97.36" cy="97.36" r="97.36"/><rect class="cls-2" x="32.3" y="53.21" width="132.59" height="89.9" rx="3.06" ry="3.06" transform="translate(-0.2 0.2) rotate(-0.12)"/><rect class="cls-2" x="29.83" y="51.61" width="132.59" height="89.9" rx="3.06" ry="3.06" transform="translate(-0.2 0.2) rotate(-0.12)"/><path class="cls-2" d="M159.07,51.48l-125.94.26a3.33,3.33,0,0,0-3.32,3.33V58l132.59-.27V54.8A3.33,3.33,0,0,0,159.07,51.48Z"/><path class="cls-2" d="M33.28,141.65l19,0-.17-83.69L29.78,58l.17,80.36A3.32,3.32,0,0,0,33.28,141.65Z"/><rect class="cls-2" x="29.86" y="51.61" width="132.59" height="89.9" rx="3.06" ry="3.06" transform="translate(-0.2 0.2) rotate(-0.12)"/><rect class="cls-2" x="33.26" y="132.78" width="17.01" height="2.49" rx="1.24" ry="1.24" transform="translate(-0.28 0.09) rotate(-0.12)"/><rect class="cls-2" x="32.69" y="61.71" width="16.78" height="16.78" rx="5.11" ry="5.11" transform="translate(-0.14 0.08) rotate(-0.12)"/><circle class="cls-2" cx="36.01" cy="54.79" r="1.07" transform="translate(-0.11 0.07) rotate(-0.12)"/><circle class="cls-2" cx="40.54" cy="54.78" r="1.07" transform="translate(-0.11 0.08) rotate(-0.12)"/><circle class="cls-2" cx="45.08" cy="54.77" r="1.07" transform="translate(-0.11 0.09) rotate(-0.12)"/><rect class="cls-2" x="33.9" y="79.88" width="14.88" height="1.23" rx="0.61" ry="0.61" transform="translate(-0.17 0.09) rotate(-0.12)"/><rect class="cls-2" x="33.91" y="82.5" width="14.88" height="1.23" rx="0.61" ry="0.61" transform="translate(-0.17 0.09) rotate(-0.12)"/><rect class="cls-2" x="57.49" y="62.76" width="100.37" height="42.86" rx="3.28" ry="3.28"/><path class="cls-3" d="M155.16,85.7V102a1.32,1.32,0,0,1-1.32,1.31H61.13A1.32,1.32,0,0,1,59.81,102V66.21c8.56,0,12.83,3.2,15.33,7.41q.25.4.46.82c4.23,8,3,19,12.25,19a3.82,3.82,0,0,0,1-.12,2.73,2.73,0,0,0,.57-.19c6.26-2.63,5.28-21.33,16.41-21.2a7.5,7.5,0,0,1,5.55,2.39c.13.15.27.29.4.45,5,5.85,5.05,18.88,12.7,21.24,2.76.85,5.19-.3,7.6-2.21l.46-.38c5.09-4.22,10.15-11.44,18-9.67l.69.18A16.41,16.41,0,0,1,155.16,85.7Z"/><path class="cls-2" d="M86.5,122A14.5,14.5,0,1,1,72,107.49a14.18,14.18,0,0,1,3.35.39,14.5,14.5,0,0,1,11.1,13Q86.5,121.41,86.5,122Z"/><path class="cls-4" d="M86.45,120.84,72,122l3.35-14.11A14.5,14.5,0,0,1,86.45,120.84Z"/><path class="cls-2" d="M118.79,109.79H90.88a1,1,0,0,1-1-1h0a1,1,0,0,1,1-1h27.91a1,1,0,0,1,1,1h0A1,1,0,0,1,118.79,109.79Z"/><rect class="cls-2" x="89.92" y="111.68" width="25.63" height="1.91" rx="0.96" ry="0.96"/><rect class="cls-2" x="89.92" y="115.48" width="19.81" height="1.91" rx="0.95" ry="0.95"/><path class="cls-2" d="M118.79,121.19H90.88a1,1,0,0,1-1-1h0a1,1,0,0,1,1-1h27.91a1,1,0,0,1,1,1h0A1,1,0,0,1,118.79,121.19Z"/><rect class="cls-2" x="89.92" y="123.08" width="26.55" height="1.91" rx="0.96" ry="0.96"/><path class="cls-2" d="M118.79,128.79H90.88a1,1,0,0,1-1-1h0a1,1,0,0,1,1-1h27.91a1,1,0,0,1,1,1h0A1,1,0,0,1,118.79,128.79Z"/><rect class="cls-2" x="89.92" y="130.68" width="24.1" height="1.91" rx="0.96" ry="0.96"/><path class="cls-2" d="M118.79,136.39H90.88a1,1,0,0,1-1-1h0a1,1,0,0,1,1-1h27.91a1,1,0,0,1,1,1h0A1,1,0,0,1,118.79,136.39Z"/><g class="cls-5"><rect class="cls-2" x="134.46" y="107.51" width="23.4" height="13.2" rx="2.79" ry="2.79"/></g><rect class="cls-2" x="134.46" y="123.46" width="23.4" height="13.2" rx="2.79" ry="2.79"/></g></g></svg>