<svg id="Слой_1" data-name="Слой 1" xmlns="http://www.w3.org/2000/svg" viewBox="0 0 170.9 44.9"><defs><style>.cls-1{fill:#6b6b6b;}.cls-2{fill:#066a8f;}.cls-3{fill:#fff;}.cls-4{fill:#4f4f4f;}</style></defs><title>novalux-logo-fin</title><path class="cls-1" d="M382.51,318.14V313h0.63l0.17,0a0.22,0.22,0,0,1,.11.12l1.66,3,0.1,0.22,0.09,0.22,0.09-.23,0.1-.22,1.64-3a0.21,0.21,0,0,1,.11-0.12l0.17,0H388v5.18h-0.74v-3.55q0-.09,0-0.19c0-.07,0-0.13,0-0.2l-1.66,3.07a0.32,0.32,0,0,1-.3.19h-0.12a0.31,0.31,0,0,1-.3-0.19l-1.69-3.08c0,0.07,0,.14,0,0.21s0,0.13,0,.19v3.55h-0.74Z" transform="translate(-328.52 -279.22)"/><path class="cls-1" d="M391.4,318.14V313h3.23v0.68h-2.39v1.56h1.91v0.66h-1.91v1.6h2.39v0.68H391.4Z" transform="translate(-328.52 -279.22)"/><path class="cls-1" d="M397.7,318.14V313h3.44v0.66h-2.6v1.52h0.93a2.93,2.93,0,0,1,.84.11,1.65,1.65,0,0,1,.58.3,1.14,1.14,0,0,1,.33.45,1.45,1.45,0,0,1,.11.56,1.68,1.68,0,0,1-.12.66,1.35,1.35,0,0,1-.36.5,1.64,1.64,0,0,1-.59.32,2.62,2.62,0,0,1-.79.11H397.7Zm0.84-.66h0.92a1.58,1.58,0,0,0,.48-0.06,0.84,0.84,0,0,0,.32-0.18,0.68,0.68,0,0,0,.18-0.27,1,1,0,0,0,.06-0.33,1,1,0,0,0-.05-0.35,0.62,0.62,0,0,0-.18-0.26,0.84,0.84,0,0,0-.32-0.17,1.7,1.7,0,0,0-.48-0.06h-0.92v1.68Z" transform="translate(-328.52 -279.22)"/><path class="cls-1" d="M404.36,318.14V313h3.23v0.68H405.2v1.56h1.91v0.66H405.2v1.6h2.39v0.68h-3.23Z" transform="translate(-328.52 -279.22)"/><path class="cls-1" d="M410,318v-0.52h0.27a0.76,0.76,0,0,0,.27,0,0.62,0.62,0,0,0,.26-0.21,1.76,1.76,0,0,0,.24-0.46,4.66,4.66,0,0,0,.21-0.81q0.09-.51.16-1.25t0.1-1.78h3.19v5.18h-0.84v-4.52h-1.55q0,1-.14,1.71a10.84,10.84,0,0,1-.22,1.23,4.11,4.11,0,0,1-.28.83,1.77,1.77,0,0,1-.35.5,1,1,0,0,1-.4.24,1.57,1.57,0,0,1-.45.06Q410,318.19,410,318Z" transform="translate(-328.52 -279.22)"/><path class="cls-1" d="M418.11,318.14V313H419v2.19h0.93a2.93,2.93,0,0,1,.84.11,1.65,1.65,0,0,1,.58.3,1.14,1.14,0,0,1,.33.45,1.45,1.45,0,0,1,.11.56,1.68,1.68,0,0,1-.12.66,1.35,1.35,0,0,1-.36.5,1.64,1.64,0,0,1-.59.32,2.62,2.62,0,0,1-.79.11h-1.77Zm0.84-.66h0.92a1.58,1.58,0,0,0,.48-0.06,0.84,0.84,0,0,0,.32-0.18,0.68,0.68,0,0,0,.18-0.27,1,1,0,0,0,.06-0.33,1,1,0,0,0-.05-0.35,0.62,0.62,0,0,0-.18-0.26,0.84,0.84,0,0,0-.32-0.17,1.7,1.7,0,0,0-.48-0.06H419v1.68Z" transform="translate(-328.52 -279.22)"/><path class="cls-1" d="M424.68,318.14V313h0.84v2.27h2.6V313H429v5.18h-0.84v-2.3h-2.6v2.3h-0.84Z" transform="translate(-328.52 -279.22)"/><path class="cls-1" d="M432.36,318.14V313h0.84v2.19h0.93a2.93,2.93,0,0,1,.84.11,1.65,1.65,0,0,1,.58.3,1.14,1.14,0,0,1,.33.45,1.45,1.45,0,0,1,.11.56,1.68,1.68,0,0,1-.12.66,1.35,1.35,0,0,1-.36.5,1.64,1.64,0,0,1-.59.32,2.62,2.62,0,0,1-.79.11h-1.77Zm0.84-.66h0.92a1.58,1.58,0,0,0,.48-0.06,0.84,0.84,0,0,0,.32-0.18,0.68,0.68,0,0,0,.18-0.27,1,1,0,0,0,.06-0.33,1,1,0,0,0-.05-0.35,0.62,0.62,0,0,0-.18-0.26,0.84,0.84,0,0,0-.32-0.17,1.7,1.7,0,0,0-.48-0.06H433.2v1.68Zm3.64,0.66V313h0.84v5.18h-0.84Z" transform="translate(-328.52 -279.22)"/><path class="cls-1" d="M441.06,318.14V313h3.23v0.68H441.9v1.56h1.91v0.66H441.9v1.6h2.39v0.68h-3.23Z" transform="translate(-328.52 -279.22)"/><path class="cls-1" d="M451.3,318.14V313h1.61a2.9,2.9,0,0,1,.88.12,1.71,1.71,0,0,1,.62.33,1.34,1.34,0,0,1,.36.51,1.88,1.88,0,0,1,0,1.34,1.42,1.42,0,0,1-.37.53,1.74,1.74,0,0,1-.62.34,2.73,2.73,0,0,1-.86.12h-0.77v1.88H451.3Zm0.84-2.54h0.77a1.55,1.55,0,0,0,.5-0.07,1,1,0,0,0,.35-0.2A0.84,0.84,0,0,0,454,315a1.15,1.15,0,0,0,.07-0.42,1.14,1.14,0,0,0-.07-0.41,0.76,0.76,0,0,0-.21-0.3,1,1,0,0,0-.35-0.19,1.7,1.7,0,0,0-.5-0.07h-0.77v2Z" transform="translate(-328.52 -279.22)"/><path class="cls-1" d="M457.86,318.14V313h3.23v0.68H458.7v1.56h1.91v0.66H458.7v1.6h2.39v0.68h-3.23Z" transform="translate(-328.52 -279.22)"/><path class="cls-1" d="M464.16,318.14V313H465v4.52h2V313h0.84v4.52h2V313h0.84v5.18h-6.55Z" transform="translate(-328.52 -279.22)"/><path class="cls-1" d="M474.09,318.14V313h3.23v0.68h-2.39v1.56h1.91v0.66h-1.91v1.6h2.39v0.68h-3.23Z" transform="translate(-328.52 -279.22)"/><path class="cls-1" d="M480.39,318.14V313h0.84v2.27h2.6V313h0.84v5.18h-0.84v-2.3h-2.6v2.3h-0.84Z" transform="translate(-328.52 -279.22)"/><path class="cls-1" d="M488.07,318.14V313h0.84v3.44c0,0.11,0,.24,0,0.36a3.77,3.77,0,0,1,0,.4,3.31,3.31,0,0,1,.15-0.34l0.15-.28,2.2-3.31,0.07-.09,0.09-.08,0.1-.06,0.12,0h0.63v5.18h-0.84V314.7q0-.17,0-0.36c0-.13,0-0.26,0-0.4a3.16,3.16,0,0,1-.15.35l-0.15.28-2.19,3.31L489,318l-0.09.09-0.1.06-0.12,0h-0.63Z" transform="translate(-328.52 -279.22)"/><path class="cls-1" d="M495.11,318.14l1.26-1.85a1.54,1.54,0,0,1,.24-0.28,1.11,1.11,0,0,1,.29-0.19,1.76,1.76,0,0,1-.53-0.19,1.39,1.39,0,0,1-.37-0.3,1.17,1.17,0,0,1-.22-0.39,1.48,1.48,0,0,1-.07-0.47,1.43,1.43,0,0,1,.13-0.61,1.32,1.32,0,0,1,.37-0.47,1.75,1.75,0,0,1,.59-0.31,2.6,2.6,0,0,1,.79-0.11h1.79v5.18h-0.84V316h-0.61l-0.17,0-0.16.06a0.59,0.59,0,0,0-.15.11,1.32,1.32,0,0,0-.15.19l-1,1.51a0.65,0.65,0,0,1-.21.22,0.57,0.57,0,0,1-.31.08h-0.63Zm1.44-3.69a1.05,1.05,0,0,0,.06.35,0.63,0.63,0,0,0,.18.27,0.85,0.85,0,0,0,.32.17,1.64,1.64,0,0,0,.48.06h0.94v-1.68h-0.94a1.61,1.61,0,0,0-.48.06,0.85,0.85,0,0,0-.32.17,0.65,0.65,0,0,0-.18.26A1,1,0,0,0,496.55,314.45Z" transform="translate(-328.52 -279.22)"/><rect class="cls-2" width="44.9" height="44.9"/><polygon class="cls-3" points="22.51 13.99 17.88 10.38 22.51 6.78 27.15 10.38 22.51 13.99"/><polygon class="cls-3" points="27.57 26.88 32.2 30.48 27.57 34.08 22.94 30.48 27.57 26.88"/><polygon class="cls-3" points="21.96 14.42 17.32 18.02 12.7 14.42 17.32 10.82 21.96 14.42"/><polygon class="cls-3" points="22.43 22.87 27.06 26.48 22.43 30.08 17.79 26.48 22.43 22.87"/><polygon class="cls-3" points="6.95 18.9 11.57 22.49 6.95 26.1 2.31 22.49 6.95 18.9"/><polygon class="cls-3" points="27.11 18.43 22.48 22.04 17.85 18.43 22.48 14.82 27.11 18.43"/><polygon class="cls-3" points="32.76 22.84 37.39 26.44 32.76 30.05 28.13 26.44 32.76 22.84"/><polygon class="cls-3" points="42.58 22.4 37.95 26.01 33.32 22.4 37.95 18.79 42.58 22.4"/><polygon class="cls-3" points="22.38 30.91 27.02 34.52 22.38 38.12 17.75 34.52 22.38 30.91"/><polygon class="cls-3" points="12.14 14.86 16.76 18.45 12.14 22.06 7.5 18.45 12.14 14.86"/><path class="cls-4" d="M382.51,302.74V285.32H387L395.32,296h0.05V285.32h4.53v17.41h-4.53l-8.29-10.67h0v10.67h-4.53Z" transform="translate(-328.52 -279.22)"/><path class="cls-4" d="M411.56,284.74a10.16,10.16,0,0,1,3.61.66,9.81,9.81,0,0,1,3.1,1.87,8.88,8.88,0,0,1,2.14,2.86,8.25,8.25,0,0,1,.78,3.58,10.32,10.32,0,0,1-.71,3.85,8.87,8.87,0,0,1-5.08,5.06,10.95,10.95,0,0,1-7.68,0,8.93,8.93,0,0,1-5.09-5.07,10.29,10.29,0,0,1-.7-3.84,8.25,8.25,0,0,1,.78-3.58,8.89,8.89,0,0,1,2.14-2.86,9.79,9.79,0,0,1,3.1-1.87A10.19,10.19,0,0,1,411.56,284.74Zm0,4.39a4.89,4.89,0,0,0-2.45.64,5,5,0,0,0-1.8,1.71,4.16,4.16,0,0,0-.67,2.25,5.38,5.38,0,0,0,.66,2.66,4.87,4.87,0,0,0,1.79,1.86,4.86,4.86,0,0,0,4.94,0,4.89,4.89,0,0,0,1.79-1.86,5.38,5.38,0,0,0,.66-2.66,4.18,4.18,0,0,0-.67-2.25,5,5,0,0,0-1.8-1.71A4.89,4.89,0,0,0,411.56,289.13Z" transform="translate(-328.52 -279.22)"/><path class="cls-4" d="M425.4,285.32l4.2,10.58,4.23-10.58h4.92l-7.43,17.41H427.8l-7.32-17.41h4.92Z" transform="translate(-328.52 -279.22)"/><path class="cls-4" d="M458.88,285.32V298.9h5.43v3.83h-10V285.32h4.53Z" transform="translate(-328.52 -279.22)"/><path class="cls-4" d="M476,285.32h4.53v9.79a23.19,23.19,0,0,1-.11,2.39,7.21,7.21,0,0,1-.51,2,5.22,5.22,0,0,1-1.21,1.76,5.76,5.76,0,0,1-1.65,1.12,8.54,8.54,0,0,1-2,.62,11.69,11.69,0,0,1-2.13.19,11.05,11.05,0,0,1-3.21-.47,6.1,6.1,0,0,1-2.57-1.47,5.2,5.2,0,0,1-1.21-1.76,7.19,7.19,0,0,1-.51-2,23.35,23.35,0,0,1-.11-2.4v-9.79h4.53v9.17a13.51,13.51,0,0,0,.18,2.42,3,3,0,0,0,.86,1.65,3.44,3.44,0,0,0,4.06,0,3,3,0,0,0,.86-1.65,13.54,13.54,0,0,0,.18-2.42v-9.17Z" transform="translate(-328.52 -279.22)"/><path class="cls-4" d="M487.66,293.43l-5.57-8.1h5.57l2.66,4.5,2.66-4.5h5.57l-5.57,8.1,6.44,9.31H494l-3.65-5.68-4,5.68h-5.48Z" transform="translate(-328.52 -279.22)"/><path class="cls-4" d="M447.21,299.71H441l-1.2,3H435l6.69-17.41h4.95l6.56,17.41h-4.83ZM446,296.25l-1.84-5.54h0l-1.87,5.54H446Z" transform="translate(-328.52 -279.22)"/></svg>