<svg xmlns="http://www.w3.org/2000/svg" viewBox="0 0 194.73 194.73"><defs><style>.cls-1{fill:#ed0f0f;opacity:0.1;}.cls-2{fill:none;stroke:#0037ff;stroke-linecap:round;stroke-linejoin:round;}</style></defs><title>noviy</title><g id="Слой_2" data-name="Слой 2"><g id="Designed_by_Freepik" data-name="Designed by Freepik"><circle class="cls-1" cx="97.36" cy="97.36" r="97.36"/><rect class="cls-2" x="32.3" y="53.21" width="132.59" height="89.9" rx="3.06" ry="3.06" transform="translate(-0.2 0.2) rotate(-0.12)"/><rect class="cls-2" x="29.83" y="51.61" width="132.59" height="89.9" rx="3.06" ry="3.06" transform="translate(-0.2 0.2) rotate(-0.12)"/><path class="cls-2" d="M159.07,51.48l-125.94.26a3.33,3.33,0,0,0-3.32,3.33V58l132.59-.27V54.8A3.33,3.33,0,0,0,159.07,51.48Z"/><path class="cls-2" d="M33.28,141.65l19,0-.17-83.69L29.78,58l.17,80.36A3.32,3.32,0,0,0,33.28,141.65Z"/><rect class="cls-2" x="29.86" y="51.61" width="132.59" height="89.9" rx="3.06" ry="3.06" transform="translate(-0.2 0.2) rotate(-0.12)"/><rect class="cls-2" x="33.26" y="132.78" width="17.01" height="2.49" rx="1.24" ry="1.24" transform="translate(-0.28 0.09) rotate(-0.12)"/><rect class="cls-2" x="32.69" y="61.71" width="16.78" height="16.78" rx="5.11" ry="5.11" transform="translate(-0.14 0.08) rotate(-0.12)"/><rect class="cls-2" x="55.75" y="112.67" width="46.56" height="3.25" rx="1.62" ry="1.62" transform="translate(-0.24 0.16) rotate(-0.12)"/><rect class="cls-2" x="62.36" y="63.1" width="37.44" height="3.25" rx="1.62" ry="1.62" transform="translate(-0.13 0.17) rotate(-0.12)"/><rect class="cls-2" x="55.77" y="119.39" width="46.56" height="3.25" rx="1.62" ry="1.62" transform="translate(-0.25 0.16) rotate(-0.12)"/><rect class="cls-2" x="55.78" y="126.11" width="46.56" height="3.25" rx="1.62" ry="1.62" transform="translate(-0.26 0.16) rotate(-0.12)"/><rect class="cls-2" x="105.29" y="109.86" width="48.89" height="23.88" rx="6.01" ry="6.01" transform="translate(-0.25 0.27) rotate(-0.12)"/><rect class="cls-2" x="105.21" y="71.16" width="48.89" height="23.88" rx="6.01" ry="6.01" transform="translate(-17.83 38.77) rotate(-15.93)"/><circle class="cls-2" cx="36.01" cy="54.79" r="1.07" transform="translate(-0.11 0.07) rotate(-0.12)"/><circle class="cls-2" cx="40.54" cy="54.78" r="1.07" transform="translate(-0.11 0.08) rotate(-0.12)"/><circle class="cls-2" cx="45.08" cy="54.77" r="1.07" transform="translate(-0.11 0.09) rotate(-0.12)"/><circle class="cls-2" cx="57.6" cy="64.77" r="3.1" transform="translate(-0.13 0.12) rotate(-0.12)"/><rect class="cls-2" x="33.9" y="79.88" width="14.88" height="1.23" rx="0.61" ry="0.61" transform="translate(-0.17 0.09) rotate(-0.12)"/><rect class="cls-2" x="33.91" y="82.5" width="14.88" height="1.23" rx="0.61" ry="0.61" transform="translate(-0.17 0.09) rotate(-0.12)"/><path class="cls-2" d="M63.92,89.25l-3.88,0,0,16.26H56.72a2.14,2.14,0,0,1-2.14-2.14l-.06-30.07a2.16,2.16,0,0,1,2.16-2.17l7.21,0Z"/><rect class="cls-2" x="54.55" y="71.16" width="37.11" height="34.37" rx="6.01" ry="6.01" transform="translate(-0.18 0.15) rotate(-0.12)"/></g></g></svg>