<svg xmlns="http://www.w3.org/2000/svg" xmlns:xlink="http://www.w3.org/1999/xlink" viewBox="0 0 453.32 436.38"><defs><style>.cls-1{fill:none;}.cls-2{isolation:isolate;}.cls-3,.cls-4{opacity:0.2;}.cls-3{fill:url(#Gradient_bez_nazwy_15);}.cls-4{fill:url(#Gradient_bez_nazwy_5);}.cls-5{fill:url(#Gradient_bez_nazwy_14);}.cls-6{fill:url(#Gradient_bez_nazwy_14-2);}.cls-7{fill:url(#Gradient_bez_nazwy_14-3);}.cls-8{fill:url(#Gradient_bez_nazwy_5-2);}.cls-9{fill:url(#Gradient_bez_nazwy_14-4);}.cls-10{fill:url(#Gradient_bez_nazwy_14-5);}.cls-11{fill:url(#Gradient_bez_nazwy_14-6);}.cls-12{fill:url(#Gradient_bez_nazwy_14-7);}.cls-13{fill:url(#Gradient_bez_nazwy_14-8);}.cls-14{fill:url(#Gradient_bez_nazwy_5-3);}.cls-15{fill:url(#Gradient_bez_nazwy_5-4);}.cls-16{fill:url(#Gradient_bez_nazwy_5-5);}.cls-17{fill:url(#Gradient_bez_nazwy_5-6);}.cls-18{fill:url(#Gradient_bez_nazwy_5-7);}.cls-19{fill:url(#Gradient_bez_nazwy_9);}.cls-20{fill:url(#Gradient_bez_nazwy_5-8);}.cls-21{fill:url(#Gradient_bez_nazwy_9-2);}.cls-22{fill:url(#Gradient_bez_nazwy_5-9);}.cls-23{fill:url(#Gradient_bez_nazwy_9-3);}.cls-24{fill:url(#Gradient_bez_nazwy_5-10);}.cls-25{fill:url(#Gradient_bez_nazwy_9-4);}.cls-26{fill:url(#Gradient_bez_nazwy_5-11);}.cls-27{fill:url(#Gradient_bez_nazwy_5-12);}.cls-28{fill:url(#Gradient_bez_nazwy_5-13);}.cls-29{fill:url(#Gradient_bez_nazwy_5-14);}.cls-30{fill:url(#Gradient_bez_nazwy_8);}.cls-31{fill:url(#Gradient_bez_nazwy_8-2);}.cls-32{fill:url(#Gradient_bez_nazwy_13);}.cls-33{fill:#46cccc;opacity:0.4;}.cls-34,.cls-38,.cls-45{fill:#7bcaff;}.cls-34,.cls-44{opacity:0.6;}.cls-35{fill:#3a7bd8;}.cls-36{fill:#eff4f4;}.cls-37{fill:#a9c3ea;}.cls-38{opacity:0.5;}.cls-39{fill:#d3d3d3;}.cls-40{fill:#f2f2f2;}.cls-41{fill:#f9f4ea;}.cls-42{fill:#bbceff;}.cls-43{fill:#f6f3ff;}.cls-46{fill:url(#Gradient_bez_nazwy_11);}.cls-47{fill:url(#Gradient_bez_nazwy_8-3);}.cls-48{fill:#ffaf84;}.cls-49{fill:url(#Gradient_bez_nazwy_5-15);}.cls-50{fill:url(#Gradient_bez_nazwy_4);}.cls-51{fill:#ed9169;}.cls-52{fill:url(#Gradient_bez_nazwy_5-16);}.cls-53{fill:url(#Gradient_bez_nazwy_2);}.cls-54{fill:url(#Gradient_bez_nazwy_2-2);}.cls-55{fill:url(#Gradient_bez_nazwy_2-3);}.cls-56{fill:url(#Gradient_bez_nazwy_2-4);}.cls-57{fill:url(#Gradient_bez_nazwy_2-5);}.cls-58{fill:url(#Gradient_bez_nazwy_5-17);}.cls-59{fill:url(#Gradient_bez_nazwy_4-2);}.cls-60{fill:url(#Gradient_bez_nazwy_8-4);}.cls-61{fill:url(#Gradient_bez_nazwy_8-5);}.cls-62{clip-path:url(#clip-path);}.cls-63{opacity:0.3;mix-blend-mode:multiply;fill:url(#Gradient_bez_nazwy_3);}</style><linearGradient id="Gradient_bez_nazwy_15" x1="-1428.63" y1="-494.11" x2="-1428.63" y2="-606.11" gradientTransform="matrix(-0.58, 0.81, -0.81, -0.58, -1106.67, 957.66)" gradientUnits="userSpaceOnUse"><stop offset="0" stop-color="#401381"/><stop offset="1" stop-color="#d11137"/></linearGradient><linearGradient id="Gradient_bez_nazwy_5" x1="-1417.69" y1="-482.27" x2="-1417.69" y2="-594.27" gradientTransform="matrix(-0.58, 0.81, -0.81, -0.58, -1106.67, 957.66)" gradientUnits="userSpaceOnUse"><stop offset="0" stop-color="#36078b"/><stop offset="1" stop-color="#16b1ff"/></linearGradient><linearGradient id="Gradient_bez_nazwy_14" x1="260.26" y1="414.04" x2="312.44" y2="370.6" gradientTransform="translate(-161.56 -260.08) rotate(-7.53)" gradientUnits="userSpaceOnUse"><stop offset="0" stop-color="#f70f47"/><stop offset="1" stop-color="#ffb41d"/></linearGradient><linearGradient id="Gradient_bez_nazwy_14-2" x1="252.24" y1="462.62" x2="230.27" y2="331.81" xlink:href="#Gradient_bez_nazwy_14"/><linearGradient id="Gradient_bez_nazwy_14-3" x1="282.3" y1="377.6" x2="255.92" y2="418.41" xlink:href="#Gradient_bez_nazwy_14"/><linearGradient id="Gradient_bez_nazwy_5-2" x1="252.1" y1="500.79" x2="252.1" y2="397.14" gradientTransform="translate(-161.56 -260.08) rotate(-7.53)" xlink:href="#Gradient_bez_nazwy_5"/><linearGradient id="Gradient_bez_nazwy_14-4" x1="254.61" y1="359.71" x2="228.24" y2="400.52" xlink:href="#Gradient_bez_nazwy_14"/><linearGradient id="Gradient_bez_nazwy_14-5" x1="242.47" y1="351.87" x2="216.1" y2="392.67" xlink:href="#Gradient_bez_nazwy_14"/><linearGradient id="Gradient_bez_nazwy_14-6" x1="245.09" y1="452.67" x2="289.81" y2="345.93" xlink:href="#Gradient_bez_nazwy_14"/><linearGradient id="Gradient_bez_nazwy_14-7" x1="257.15" y1="457.72" x2="301.87" y2="350.98" xlink:href="#Gradient_bez_nazwy_14"/><linearGradient id="Gradient_bez_nazwy_14-8" x1="261.28" y1="364.02" x2="234.9" y2="404.83" xlink:href="#Gradient_bez_nazwy_14"/><linearGradient id="Gradient_bez_nazwy_5-3" x1="-173.74" y1="-710.62" x2="-156.86" y2="-728.71" gradientTransform="matrix(0.91, 0.41, -0.41, 0.91, 195.56, 862.24)" xlink:href="#Gradient_bez_nazwy_5"/><linearGradient id="Gradient_bez_nazwy_5-4" x1="383.38" y1="112.93" x2="400.26" y2="94.84" gradientTransform="translate(-59.07 10.56) rotate(2.45)" xlink:href="#Gradient_bez_nazwy_5"/><linearGradient id="Gradient_bez_nazwy_5-5" x1="599.82" y1="1326.59" x2="615.1" y2="1310.22" gradientTransform="translate(-775.39 -826.12) rotate(-24.19)" xlink:href="#Gradient_bez_nazwy_5"/><linearGradient id="Gradient_bez_nazwy_5-6" x1="265.74" y1="2482.04" x2="279.46" y2="2467.34" gradientTransform="matrix(0.64, -0.77, 0.77, 0.64, -1763.09, -1249.63)" xlink:href="#Gradient_bez_nazwy_5"/><linearGradient id="Gradient_bez_nazwy_5-7" x1="141.84" y1="-339.08" x2="202.39" y2="-403.98" gradientTransform="translate(103.47 413.12) rotate(12.87)" xlink:href="#Gradient_bez_nazwy_5"/><linearGradient id="Gradient_bez_nazwy_9" x1="292.24" y1="142.35" x2="370.91" y2="90.66" gradientUnits="userSpaceOnUse"><stop offset="0.48" stop-color="#36078b"/><stop offset="1" stop-color="#16b1ff"/></linearGradient><linearGradient id="Gradient_bez_nazwy_5-8" x1="-3537.97" y1="-1107.77" x2="-3491.88" y2="-1157.17" gradientTransform="matrix(-0.81, -0.59, -0.59, 0.81, -3187.88, -1078.89)" xlink:href="#Gradient_bez_nazwy_5"/><linearGradient id="Gradient_bez_nazwy_9-2" x1="323.99" y1="158.15" x2="310" y2="57.51" xlink:href="#Gradient_bez_nazwy_9"/><linearGradient id="Gradient_bez_nazwy_5-9" x1="187.65" y1="-206.14" x2="272.42" y2="-296.98" gradientTransform="translate(135.41 267.74) rotate(8.49)" xlink:href="#Gradient_bez_nazwy_5"/><linearGradient id="Gradient_bez_nazwy_9-3" x1="296.05" y1="144.64" x2="420.89" y2="51.02" xlink:href="#Gradient_bez_nazwy_9"/><linearGradient id="Gradient_bez_nazwy_5-10" x1="-358.47" y1="-862.62" x2="-297.3" y2="-928.16" gradientTransform="matrix(0.89, 0.46, -0.46, 0.89, 274.74, 1051.67)" xlink:href="#Gradient_bez_nazwy_5"/><linearGradient id="Gradient_bez_nazwy_9-4" x1="304.28" y1="145.2" x2="409.98" y2="110.83" xlink:href="#Gradient_bez_nazwy_9"/><linearGradient id="Gradient_bez_nazwy_5-11" x1="379.73" y1="83.23" x2="394.99" y2="71.78" gradientTransform="matrix(1, 0, 0, 1, 0, 0)" xlink:href="#Gradient_bez_nazwy_5"/><linearGradient id="Gradient_bez_nazwy_5-12" x1="389.87" y1="69.04" x2="401.4" y2="57.62" gradientTransform="matrix(1, 0, 0, 1, 0, 0)" xlink:href="#Gradient_bez_nazwy_5"/><linearGradient id="Gradient_bez_nazwy_5-13" x1="359.35" y1="63.69" x2="365.32" y2="50.63" gradientTransform="matrix(1, 0, 0, 1, 0, 0)" xlink:href="#Gradient_bez_nazwy_5"/><linearGradient id="Gradient_bez_nazwy_5-14" x1="375.22" y1="52.26" x2="381.95" y2="43.31" gradientTransform="matrix(1, 0, 0, 1, 0, 0)" xlink:href="#Gradient_bez_nazwy_5"/><linearGradient id="Gradient_bez_nazwy_8" x1="-277.85" y1="-736.99" x2="-277.85" y2="-711.21" gradientTransform="translate(270.59 924.3) rotate(24.39)" gradientUnits="userSpaceOnUse"><stop offset="0" stop-color="#2c27ce"/><stop offset="1" stop-color="#ef1d68"/></linearGradient><linearGradient id="Gradient_bez_nazwy_8-2" x1="-277.85" y1="-730.41" x2="-277.85" y2="-741.64" xlink:href="#Gradient_bez_nazwy_8"/><linearGradient id="Gradient_bez_nazwy_13" x1="89.62" y1="217.77" x2="386.17" y2="217.77" gradientUnits="userSpaceOnUse"><stop offset="0.35" stop-color="#36078b"/><stop offset="1" stop-color="#16b1ff"/></linearGradient><linearGradient id="Gradient_bez_nazwy_11" x1="249.5" y1="110.71" x2="278.4" y2="147.55" gradientUnits="userSpaceOnUse"><stop offset="0" stop-color="#fea600"/><stop offset="1" stop-color="#ef1829"/></linearGradient><linearGradient id="Gradient_bez_nazwy_8-3" x1="197.64" y1="88.25" x2="184.21" y2="150.12" gradientTransform="matrix(1, 0, 0, 1, 0, 0)" xlink:href="#Gradient_bez_nazwy_8"/><linearGradient id="Gradient_bez_nazwy_5-15" x1="207.93" y1="150.92" x2="241.76" y2="154.24" gradientTransform="matrix(1, 0, 0, 1, 0, 0)" xlink:href="#Gradient_bez_nazwy_5"/><linearGradient id="Gradient_bez_nazwy_4" x1="175.53" y1="326.92" x2="176.36" y2="302.2" gradientUnits="userSpaceOnUse"><stop offset="0" stop-color="#2c27ce"/><stop offset="0.65" stop-color="#ef1d68"/><stop offset="1" stop-color="#efba92"/></linearGradient><linearGradient id="Gradient_bez_nazwy_5-16" x1="187.14" y1="143.99" x2="200.08" y2="201.71" gradientTransform="matrix(1, 0, 0, 1, 0, 0)" xlink:href="#Gradient_bez_nazwy_5"/><linearGradient id="Gradient_bez_nazwy_2" x1="197.25" y1="246.6" x2="199.02" y2="404.94" gradientUnits="userSpaceOnUse"><stop offset="0" stop-color="#f70f47"/><stop offset="1" stop-color="#9e005d"/></linearGradient><linearGradient id="Gradient_bez_nazwy_2-2" x1="178.77" y1="246.8" x2="180.54" y2="405.15" xlink:href="#Gradient_bez_nazwy_2"/><linearGradient id="Gradient_bez_nazwy_2-3" x1="186.18" y1="246.72" x2="187.95" y2="405.06" xlink:href="#Gradient_bez_nazwy_2"/><linearGradient id="Gradient_bez_nazwy_2-4" x1="209.66" y1="246.46" x2="211.43" y2="404.8" xlink:href="#Gradient_bez_nazwy_2"/><linearGradient id="Gradient_bez_nazwy_2-5" x1="206.31" y1="246.5" x2="208.08" y2="404.84" xlink:href="#Gradient_bez_nazwy_2"/><linearGradient id="Gradient_bez_nazwy_5-17" x1="177.12" y1="150.21" x2="170.48" y2="191.68" gradientTransform="matrix(1, 0, 0, 1, 0, 0)" xlink:href="#Gradient_bez_nazwy_5"/><linearGradient id="Gradient_bez_nazwy_4-2" x1="216.3" y1="328.29" x2="217.13" y2="303.57" xlink:href="#Gradient_bez_nazwy_4"/><linearGradient id="Gradient_bez_nazwy_8-4" x1="331.7" y1="469.3" x2="318.27" y2="531.16" gradientTransform="translate(-212.3 -323.05) rotate(-9.15)" xlink:href="#Gradient_bez_nazwy_8"/><linearGradient id="Gradient_bez_nazwy_8-5" x1="339.61" y1="471.01" x2="326.17" y2="532.88" gradientTransform="translate(-212.3 -323.05) rotate(-9.15)" xlink:href="#Gradient_bez_nazwy_8"/><clipPath id="clip-path"><path class="cls-1" d="M257,141.55a11.52,11.52,0,0,0-4.85,2.36,17.39,17.39,0,0,0-4.44,2.88,1.15,1.15,0,0,0-.7.08c-2.18,1-17.47,4.07-23.68,6l-.17-.06c-3-.84-11.21-4.79-22.25-9.71a43.91,43.91,0,0,0-.51-6.88,10.27,10.27,0,0,0,2-4.92,46,46,0,0,0-1.12-13.5c.91,1.5.27-4.28-1.62-6.67a11.62,11.62,0,0,0-6-3.42,9.72,9.72,0,0,0-4.29-.55c-2.26-.25-4.84.34-7.72,2.45a19,19,0,0,0-7.38,18.24,43.39,43.39,0,0,1-1.41,19.33,38.28,38.28,0,0,0-1.43,5.61c-.65,1-1.33,2-2.12,3.29-6.81,10.9-8.71,16.12-9.29,18.55a2.59,2.59,0,0,0,1.1,2.56c.08.12.14.25.23.38,3.95,5.29,5.51,7.17,12.4,12.71,3.47,2.8,4.44,4.77,5.44,5.68a2.86,2.86,0,0,0,.76,1.86c.55.52,1.63.45,2.82.14-.06.29-.12.58-.19.87-.2.89-2,8.11-2,8.88a56.72,56.72,0,0,0-1.15,12.11c-.55,5-3,41.06-3.89,47.7,0,.26,0,.47-.06.73l0,.06c-4.89,11.38-4.5,47.77-4.24,55,0,.38.11.55.25.64a5.12,5.12,0,0,0-.09,1.42,14.2,14.2,0,0,1-.92,4.79c-.81,2.71,2,3,6.83,2.95,4.48-.09,3.34-1.9,2.6-3s-1.81-1.48-2-2.72c-.14-.89-.06-1.47-.31-2.66l0,0c1-9.89,7.08-40.65,9.63-51.42a13.92,13.92,0,0,0,.37-2.83c3.17-11.21,8.06-30.33,9.25-38.53,1.56,9.21,5.19,30,7.76,39.74-3.39,13.59,3,41.29,3.4,57.27l0-.07c0,.12-.08.22-.09.35-.36,3-.34,3.21,2.35,3.22a34.85,34.85,0,0,1,5.46.33c1.73.28,5.15.87,8.09-.11s-2.35-1.5-4.84-2.61a11.24,11.24,0,0,1-4.67-3.53,2.14,2.14,0,0,0-.41-.5c-.2-21.26,2.13-42.44,2.59-53.43a14.18,14.18,0,0,0-.05-1.93,25.09,25.09,0,0,0,0-3.22c-.38-5-1.2-26.18-1.73-38.85a201.38,201.38,0,0,0-1.2-20.91c-.32-6.45-7.66-26.72-2.69-39.84,2.07-5.47,1.24-7.75-.43-10.34a59.16,59.16,0,0,0,11.7,2.76,4.09,4.09,0,0,0,2,0c6.43-1.51,8.77-2.2,16.6-6.3,5.22-2.74,7.38-2,8.3-3.51a4.22,4.22,0,0,0,3.57-.71c2.31-2.1,2.31-1.78,1.62-4.81a2,2,0,0,0-.28-.64,2.41,2.41,0,0,0,.43-.29C255.34,143.08,258.44,141.43,257,141.55Zm-88.65,33c1.45-2.25,4-5.76,7.3-10.23a13.65,13.65,0,0,0,5.29,1.49,112.61,112.61,0,0,1,3,13.85,40.49,40.49,0,0,1,0,11.93c-.63.17-1.3.34-2.06.49l-.08,0C178.89,188.61,172.16,179.1,168.36,174.57Z"/></clipPath><linearGradient id="Gradient_bez_nazwy_3" x1="-3123.76" y1="4819.74" x2="-2794.95" y2="5021.76" gradientTransform="matrix(-0.4, -0.87, 0.54, -0.47, -3713.78, -50.36)" gradientUnits="userSpaceOnUse"><stop offset="0" stop-color="blue"/><stop offset="1" stop-color="#9e005d"/></linearGradient></defs><title>плата только за переход</title><g class="cls-2"><g id="Слой_2" data-name="Слой 2"><g id="Designed_by_Freepik" data-name="Designed by Freepik"><path class="cls-3" d="M26.26,219.28c-25.76-41.07,2-67.46,28-69.72,36.9-3.2,46,14.94,64.08-40.17,13.35-40.67,57.81-61.13,91.49-28.08,47.09,46.2,57-18.85,81.62-39,50.88-41.54,76.37-2.12,123.46,60.1C463.27,166.32,463,223.7,430.58,285.68c-23.94,45.76-56.12,77.75-96.3,64.61-57.7-18.86-37.92-79.86-80.63-47C228.09,323,174.83,338.23,153,274.12S63.35,278.43,26.26,219.28Z"/><path class="cls-4" d="M10.27,221.28c-25.76-41.07,2-67.46,28-69.72,36.9-3.2,46,14.94,64.08-40.17,13.35-40.67,57.81-61.13,91.49-28.08,47.09,46.2,57-18.85,81.62-39,50.88-41.54,76.37-2.12,123.46,60.1,48.35,63.88,48.08,121.26,15.66,183.23-23.94,45.76-56.12,77.75-96.3,64.61-57.7-18.86-37.92-79.86-80.63-47C212.1,325,158.84,340.23,137,276.13S47.36,280.43,10.27,221.28Z"/><path class="cls-5" d="M155.75,72.77c6.73-3.12,10.21,1.59,10.05,5.59-.22,5.67-3.15,6.7,4.87,10.5,5.92,2.81,8.18,10,2.51,14.44-7.92,6.27,1.77,9,4.35,13.15,5.33,8.53-1.14,11.64-11.5,17.6-10.63,6.12-19.34,5-28.13-1.14-6.49-4.52-10.73-10-8-15.87,4-8.4,12.86-4.23,8.68-11.35-2.5-4.26-3.79-12.64,6.37-14.73S146.05,77.27,155.75,72.77Z"/><path class="cls-6" d="M112.12,63.82c-9.08-.68-11,6.24-9.13,10.77,2.7,6.41,6.52,6.33-1.05,14.17-5.59,5.79-5.09,15,3.36,17.67,11.81,3.77,1.87,11.12.69,17-2.44,12.1,6.35,12.88,20.82,15.25,14.86,2.43,24.37-2.65,31.82-13.47,5.51-8,8-16.15,2.29-21.67-8.2-7.93-16.6.7-14.88-9.28,1-6-1.11-16.16-13.69-14.17S125.2,64.8,112.12,63.82Z"/><path class="cls-7" d="M135.64,123.34c-7.4,14.58-9.15,24.09,2.58,23.7s22.72-32.14,13.37-36.73C145,107.08,139.16,116.39,135.64,123.34Z"/><path class="cls-8" d="M137.49,179.67l26.25-3.47a6.75,6.75,0,0,0,5.86-6.48l1.1-36.1a1.34,1.34,0,0,0-1.52-1.37l-48.37,6.39a1.34,1.34,0,0,0-1.11,1.72l10.45,34.57A6.74,6.74,0,0,0,137.49,179.67Z"/><path class="cls-9" d="M117.82,101.43c8.5,1.4,15.76,3.92,10.78,7s-24.36-2.11-22.23-5.73C107.88,100.17,113.77,100.76,117.82,101.43Z"/><path class="cls-10" d="M113.84,75.39c2.56,4.91,4.83,7.26,7,4s-4.37-12.58-7.47-10.91C111.21,69.61,112.62,73,113.84,75.39Z"/><path class="cls-11" d="M158.27,79.84c-1.34,5.37-1.2,8.64,2.64,7.62s5.07-12.32,1.63-13.13C160.13,73.77,158.9,77.28,158.27,79.84Z"/><path class="cls-12" d="M171,102.87c3.14-3.63,4.32-6.22.94-6.94s-8.76,7.55-6.42,9.53C167.16,106.85,169.48,104.61,171,102.87Z"/><path class="cls-13" d="M130,98.28c-3.37-.66-5.39-.47-4.64,1.88s7.79,2.75,8.18.6C133.81,99.24,131.6,98.59,130,98.28Z"/><path class="cls-14" d="M323.94,141.25c-3.08-4.72,6.28-10.63,16.72-6.88a22.13,22.13,0,0,1-3.71,8.42C334.58,145.76,328.25,147.85,323.94,141.25Z"/><path class="cls-15" d="M317.83,139.29c-4.59-3.26,2-12.19,13-12.53a22.14,22.14,0,0,1-.37,9.19C329.38,139.6,324.26,143.86,317.83,139.29Z"/><path class="cls-16" d="M314,138.37c-5-.78-3.37-10.66,5.46-15.43a20,20,0,0,1,3.43,7.59C323.48,133.93,321.06,139.46,314,138.37Z"/><path class="cls-17" d="M312.57,136.36c-4.37,1.36-6.92-7.28-1.66-14.61a18,18,0,0,1,5.76,4.77C318.47,129,318.7,134.46,312.57,136.36Z"/><path class="cls-18" d="M313,111.5C298.89,97,327.77,69.75,367.1,75.76c0,0,.1,18-7.27,32.19C353.55,120.07,332.69,131.78,313,111.5Z"/><path class="cls-19" d="M361.71,78.41a34.07,34.07,0,0,0-11.79,4.8,27.11,27.11,0,0,0-2.67,1.69c-.86.62-1.77,1.12-2.57,1.82l-2.42,2-1.21,1-1.11,1.13a86.06,86.06,0,0,0-8.33,9.45l-3.72,5.12-3.29,5.44c-.55.91-1.16,1.77-1.65,2.71l-1.46,2.84-3,5.67-5.22,11.76c-1.54,4-3.24,8-4.67,12.09s-2.86,8.2-4.54,12.27l-.31-.07,3.25-12.66c1.16-4.2,2.65-8.3,4-12.46s3.23-8.1,4.83-12.16l2.92-5.86,1.47-2.93c.49-1,1.11-1.88,1.67-2.82l3.46-5.56,3.93-5.24a72.36,72.36,0,0,1,9-9.46l1.22-1.1,1.32-1L343.51,85c.87-.66,1.86-1.14,2.79-1.72a25.47,25.47,0,0,1,2.87-1.57,31.94,31.94,0,0,1,12.54-3.62Z"/><path class="cls-20" d="M331.24,100c15.35.8,16.48-29.42-6.69-48.92,0,0-10.34,9-14.78,20.31C306,81,309.73,98.86,331.24,100Z"/><path class="cls-21" d="M325.94,55.37a85.61,85.61,0,0,1,2.45,13.32c.2,2.25.39,4.51.45,6.77S329,80,329,82.25a168.16,168.16,0,0,1-2.62,27c-.47,2.22-1,4.42-1.51,6.62l-.78,3.3-.92,3.27L321.32,129c-.7,2.15-1.48,4.27-2.27,6.39l-1.17,3.18-1.32,3.12-2.68,6.21c-.91,2.06-2.06,4-3.08,6s-2.11,4-3.22,5.93l-.22-.1c1.77-4.11,3.69-8.17,5.35-12.32l2.38-6.28,1.18-3.14,1-3.2,2.05-6.39,1.74-6.48.86-3.24.72-3.28c.46-2.19,1-4.37,1.39-6.57a187.39,187.39,0,0,0,3.1-26.65,127.15,127.15,0,0,0-1.43-26.76Z"/><path class="cls-22" d="M345.15,88.35C324,69.64,361.34,28.5,416.88,32.69c0,0,2.05,25.08-6.71,45.7C402.7,96,374.83,114.55,345.15,88.35Z"/><path class="cls-23" d="M409.69,36.91A152.69,152.69,0,0,0,393,48.44c-2.65,2.09-5.35,4.08-7.87,6.33L381.29,58l-3.67,3.46L374,64.95l-3.54,3.58-3.54,3.57c-1.18,1.18-2.25,2.49-3.37,3.73-2.18,2.54-4.61,4.86-6.67,7.51l-6.34,7.8c-2,2.65-4,5.38-6,8.06-1,1.36-2,2.68-3,4.07l-2.75,4.21c-1.84,2.8-3.77,5.56-5.55,8.41s-3.39,5.8-5.15,8.68l-2.62,4.33-2.33,4.49-4.69,9c-3.17,6-5.73,12.27-8.91,18.35l-.35-.12,3.67-9.53,1.83-4.77c.61-1.59,1.2-3.19,2-4.71l4.29-9.27,2.15-4.63,2.44-4.48,4.89-9c1.73-2.93,3.62-5.77,5.42-8.66l2.73-4.32c.94-1.42,2-2.77,3-4.16,2-2.75,4-5.54,6-8.26a217.85,217.85,0,0,1,28.16-29.54C386,50.44,397.19,42.4,409.54,36.57Z"/><path class="cls-24" d="M349,117.11c-10.11-17.72,25-37.09,62-21.28,0,0-4.45,17.6-15.24,29.64C386.5,135.74,363.15,141.92,349,117.11Z"/><path class="cls-25" d="M405,97a84.09,84.09,0,0,0-14.14,3.68l-3.45,1.16-3.38,1.33c-2.27.84-4.45,1.91-6.64,2.93a148.36,148.36,0,0,0-24.87,14.78l-5.83,4.32c-2,1.39-3.72,3.09-5.6,4.62s-3.76,3.06-5.44,4.81-3.5,3.36-5.3,5-3.46,3.42-5.14,5.18l-5,5.31c-3.32,3.59-6.4,7.39-9.8,11l-.22-.16c3-3.91,5.88-7.88,8.92-11.74l4.82-5.58c1.62-1.85,3.17-3.76,5-5.46,3.47-3.49,6.85-7.07,10.63-10.22,1.88-1.59,3.62-3.34,5.61-4.79l5.86-4.49A137.42,137.42,0,0,1,376.6,104.2c9.06-3.78,18.58-6.73,28.44-7.44Z"/><path class="cls-26" d="M373.92,73.89a24.89,24.89,0,0,1,7.17-.48,39.35,39.35,0,0,1,7,1.07,36.84,36.84,0,0,1,6.68,2.43,20.88,20.88,0,0,1,5.94,4.15l-.11.22a71.3,71.3,0,0,0-13.12-4.38,133.94,133.94,0,0,0-13.58-2.77Z"/><path class="cls-27" d="M384.12,61.86A18.46,18.46,0,0,1,390,60.38a29,29,0,0,1,5.91,0,27.43,27.43,0,0,1,5.81,1.33,15.82,15.82,0,0,1,5.32,3L407,65a59.31,59.31,0,0,0-11.32-2.1,111.72,111.72,0,0,0-11.52-.76Z"/><path class="cls-28" d="M361.93,64.86a31.5,31.5,0,0,1,0-7.52c.13-1.12.23-2.2.29-3.27a17.13,17.13,0,0,0-.2-3.65l.17-.16c1.83,1.93,2.26,4.75,2,7.29a25.05,25.05,0,0,1-2.09,7.4Z"/><path class="cls-29" d="M376.86,53.49a22.46,22.46,0,0,1,1.39-5.65c.32-.82.59-1.62.85-2.41a10.28,10.28,0,0,0,.54-2.74l.15-.09c1,1.79.73,4,.08,5.82A21.36,21.36,0,0,1,377,53.59Z"/><path class="cls-30" d="M320.46,169.46l-21.17-9.59a2.28,2.28,0,0,1-1.23-2.77l8.2-25.86a2.28,2.28,0,0,1,3.11-1.39l27,12.24a2.28,2.28,0,0,1,1,3.26l-14,23.21A2.28,2.28,0,0,1,320.46,169.46Z"/><path class="cls-31" d="M336.92,148.2l-32.47-14.72a1.5,1.5,0,0,1-.83-1.78l1.25-4.46a1.5,1.5,0,0,1,2.07-1l33.75,15.3a1.5,1.5,0,0,1,.64,2.19l-2.53,3.88A1.5,1.5,0,0,1,336.92,148.2Z"/><polygon class="cls-32" points="386.17 111.86 386.17 323.68 89.62 323.68 89.62 130.66 386.17 111.86"/><polygon class="cls-33" points="166.95 251.75 230.06 250.29 230.06 163.57 166.95 166.74 166.95 251.75"/><polygon class="cls-34" points="175.97 220.64 102.4 223.06 102.4 144.55 175.97 140.24 175.97 220.64"/><path class="cls-35" d="M162,181.29c0,13.86-10.44,25.48-23.23,26S115.86,197,115.86,183.4s10.21-25.26,22.89-25.95S162,167.44,162,181.29Z"/><path class="cls-36" d="M156.32,181.55a20.3,20.3,0,0,1-7.18,15.58,18.1,18.1,0,0,1-4.25,2.66,17.43,17.43,0,0,1-2.11.77c-.43.13-.87.24-1.31.33a15.84,15.84,0,0,1-2.71.34,16.2,16.2,0,0,1-5.18-.64c-7.08-2.1-12.19-9-12.19-17.44a20.54,20.54,0,0,1,1.73-8.25,19.66,19.66,0,0,1,6-7.76,18.36,18.36,0,0,1,1.89-1.29,17.22,17.22,0,0,1,4.54-1.88,16.46,16.46,0,0,1,3.21-.49c7.44-.39,13.82,4.3,16.37,11.26A19.38,19.38,0,0,1,156.32,181.55Z"/><path class="cls-37" d="M138.75,184.5a2.14,2.14,0,0,1-2.14-2.14V170.27a2.14,2.14,0,1,1,4.28,0v12.08A2.14,2.14,0,0,1,138.75,184.5Z"/><path class="cls-37" d="M138.75,184.5a2.14,2.14,0,0,1-1.26-3.88l5.82-4.21a2.14,2.14,0,1,1,2.51,3.47L140,184.09A2.13,2.13,0,0,1,138.75,184.5Z"/><polygon class="cls-38" points="377.07 310.14 82.79 311.33 82.79 120.7 377.07 101.03 377.07 310.14"/><polygon class="cls-39" points="386.17 111.86 89.62 130.67 89.62 102.83 386.17 81.31 386.17 111.86"/><polygon class="cls-40" points="380.16 105.85 94.62 124.51 94.62 115.3 380.16 95.79 380.16 105.85"/><polygon class="cls-41" points="99 111.9 94.62 112.2 94.62 107.42 99 107.11 99 111.9"/><polygon class="cls-41" points="106.8 111.36 102.4 111.66 102.4 106.87 106.8 106.56 106.8 111.36"/><polygon class="cls-41" points="114.64 110.81 110.22 111.12 110.22 106.31 114.64 106 114.64 110.81"/><polygon class="cls-38" points="221.08 293.53 366.28 292.16 366.28 124.14 221.08 132.86 221.08 293.53"/><path class="cls-42" d="M240.41,169.08a3.76,3.76,0,0,1-2.62-1,4,4,0,0,1-1.23-2.94v-22a4.31,4.31,0,0,1,3.94-4.31L370,131.33a4,4,0,0,1,4.31,4.08v22.93a4.48,4.48,0,0,1-4.21,4.43L240.6,169.07Zm129.86-35.81h-.13l-129.52,7.46a2.34,2.34,0,0,0-2.11,2.37v22a2.1,2.1,0,0,0,.63,1.54,1.89,1.89,0,0,0,1.37.51L370,160.83a2.52,2.52,0,0,0,2.36-2.49V135.41a2.14,2.14,0,0,0-.66-1.57A2.1,2.1,0,0,0,370.27,133.26Z"/><path class="cls-42" d="M240.44,206.46a3.79,3.79,0,0,1-2.65-1.07,4.05,4.05,0,0,1-1.23-3v-22a4.26,4.26,0,0,1,4-4.27L370,170.23a4.05,4.05,0,0,1,3,1.12,4.09,4.09,0,0,1,1.27,3v22.93a4.42,4.42,0,0,1-4.22,4.39l-129.52,4.79Zm129.79-34.3h-.11l-129.53,5.94a2.3,2.3,0,0,0-2.1,2.33v22a2.13,2.13,0,0,0,.64,1.55,2,2,0,0,0,1.38.53L370,199.73a2.47,2.47,0,0,0,2.35-2.45V174.34a2.17,2.17,0,0,0-.67-1.59A2.14,2.14,0,0,0,370.23,172.16Z"/><path class="cls-42" d="M240.47,243.84a3.83,3.83,0,0,1-2.69-1.1,4.09,4.09,0,0,1-1.23-3v-22a4.21,4.21,0,0,1,4-4.24L370,209.12a4.24,4.24,0,0,1,3,1.15,4.14,4.14,0,0,1,1.26,3v22.93a4.37,4.37,0,0,1-4.23,4.35l-129.52,3.28Zm129.71-32.78h-.08l-129.52,4.43a2.25,2.25,0,0,0-2.09,2.3v22a2.16,2.16,0,0,0,.64,1.57,2.05,2.05,0,0,0,1.39.55l129.52-3.28a2.42,2.42,0,0,0,2.34-2.41V213.28a2.21,2.21,0,0,0-.67-1.61A2.19,2.19,0,0,0,370.19,211.06Z"/><path class="cls-42" d="M240.51,281.22a3.86,3.86,0,0,1-2.73-1.13,4.13,4.13,0,0,1-1.22-3v-22a4.16,4.16,0,0,1,4-4.2L370.05,248a4.32,4.32,0,0,1,3,1.18,4.17,4.17,0,0,1,1.26,3v22.93a4.32,4.32,0,0,1-4.24,4.31l-129.52,1.76Zm0-1.94v0l129.52-1.76a2.37,2.37,0,0,0,2.33-2.37V252.22a2.25,2.25,0,0,0-.68-1.62,2.41,2.41,0,0,0-1.61-.63l-129.52,2.91a2.21,2.21,0,0,0-2.08,2.26v22a2.2,2.2,0,0,0,.65,1.59A1.8,1.8,0,0,0,240.54,279.28Z"/><polygon class="cls-38" points="302.59 225.13 358.6 223.44 358.6 218.95 302.59 220.72 302.59 225.13"/><polygon class="cls-38" points="320.68 232.48 358.6 231.42 358.6 226.93 320.68 228.04 320.68 232.48"/><polygon class="cls-38" points="307.03 232.86 316.34 232.6 316.34 228.16 307.03 228.44 307.03 232.86"/><polygon class="cls-38" points="302.59 149.83 358.6 146.84 358.6 142.35 302.59 145.42 302.59 149.83"/><polygon class="cls-38" points="325.04 156.53 358.6 154.82 358.6 150.33 325.04 152.09 325.04 156.53"/><polygon class="cls-38" points="285.98 158.53 320.68 156.76 320.68 152.32 285.98 154.13 285.98 158.53"/><polygon class="cls-38" points="336 262.62 358.6 262.2 358.6 257.71 336 258.16 336 262.62"/><polygon class="cls-38" points="309.6 263.11 331.84 262.7 331.84 258.25 309.6 258.69 309.6 263.11"/><polygon class="cls-38" points="320.68 270.8 358.6 270.19 358.6 265.69 320.68 266.36 320.68 270.8"/><polygon class="cls-38" points="279.92 271.45 316.34 270.87 316.34 266.44 279.92 267.07 279.92 271.45"/><path class="cls-43" d="M247.09,163.8l130.07-5a3.46,3.46,0,0,0,3.3-3.43v-23a3.12,3.12,0,0,0-3.3-3.15L247.09,135.4a3.29,3.29,0,0,0-3,3.32v22A3,3,0,0,0,247.09,163.8Z"/><g class="cls-44"><polygon class="cls-45" points="317.4 140.24 373.36 137.72 373.36 134.37 317.4 136.95 317.4 140.24"/><polygon class="cls-45" points="317.4 146.1 373.36 143.68 373.36 140.33 317.4 142.81 317.4 146.1"/><polygon class="cls-45" points="348.31 150.68 373.36 149.64 373.36 146.29 348.31 147.35 348.31 150.68"/></g><polygon class="cls-46" points="270.14 154.09 284.65 153.49 284.65 138.46 270.14 139.13 270.14 154.09"/><polygon class="cls-34" points="253.41 154.78 267.77 154.19 267.77 139.23 253.41 139.9 253.41 154.78"/><path class="cls-47" d="M181.64,109.63a19,19,0,0,0-7.38,18.24,43.39,43.39,0,0,1-1.41,19.33c-1.41,4.39-6.28,19.07,11,18.74S202.2,145.37,200.21,135s1.64-17.66-1-20.82S190.59,103.08,181.64,109.63Z"/><path class="cls-48" d="M246.93,147.43c3.23-2.54,6.48-5.31,7.15-2.43.7,3,.69,2.71-1.62,4.81S244.21,149.57,246.93,147.43Z"/><path class="cls-49" d="M247,146.88c-2.18,1-17.47,4.07-23.68,6l-.17-.06c-3.09-.86-11.6-5-23.06-10.07-2-.9-6.93-1-10.23.6-2,1-2.73,4.52,1,6.42a92.69,92.69,0,0,0,12.3,5.32c10.42,3.82,15.93,4.94,18.85,5.21a4.09,4.09,0,0,0,2,0c6.43-1.51,8.77-2.2,16.6-6.3,5.43-2.85,7.56-2,8.43-3.67C249.71,149,248.65,146.15,247,146.88Z"/><path class="cls-50" d="M177.41,324.32a18.68,18.68,0,0,1,.41,3.1c.2,1.25,1.34,1.7,2,2.72s1.88,2.94-2.6,3c-4.8.1-7.64-.24-6.83-2.95a14.2,14.2,0,0,0,.92-4.79,3,3,0,0,1,.54-2.34C172.39,322.56,176.7,321.61,177.41,324.32Z"/><path class="cls-51" d="M186.21,130.83c0,.35-.61,8-.7,13.8,0,2.86,2,5.58,4.07,5.65h.09c2,0,4.4-2.54,4.22-5.35-.32-5.08-.08-10.29-.07-10.37Z"/><path class="cls-52" d="M180.31,163.71a99.5,99.5,0,0,1,3.65,16,40.6,40.6,0,0,1,0,12c-.33,2.4-.8,4.78-1.35,7.14-.2.89-2,8.11-2,8.88h32.93c-.32-6.45-7.66-26.72-2.69-39.84,3.44-9.09-1.13-9.37-4.23-16.93a22.2,22.2,0,0,0-2.63-5.49,9.46,9.46,0,0,0-5-3.09,18.67,18.67,0,0,0-3.06-.43c-5.57-.45-18.69-2.06-19.93,5.86a14,14,0,0,0,.65,6.41c.74,2.31,1.83,4.49,2.76,6.74C179.65,161.87,180,162.79,180.31,163.71Z"/><path class="cls-53" d="M180.65,228.64s-2.84-7.17-.13-20.91h32.93a201.38,201.38,0,0,1,1.2,20.91Z"/><path class="cls-54" d="M187.15,273.37c2.64-11.13-8.31-13.08-11.77-5-4.89,11.38-4.5,47.77-4.24,55,0,1,.53.77,1.06.58a7.91,7.91,0,0,1,3.48-.65,3,3,0,0,1,1.83,1.5C178.55,314.9,184.6,284.15,187.15,273.37Z"/><path class="cls-55" d="M197,230.14c1.16-13.82-4.12-24.55-12.38-20-3.48,1.92-4.75,5.76-5.22,9.38s-3,41.22-3.92,48c-2,15.32,9.64,11.19,10.9,6.95C189.57,263.78,196.37,237.67,197,230.14Z"/><path class="cls-56" d="M216.46,272.65c.43-10.37-9.3-10.15-11.74-1.71-3.85,13.28,2.8,41.79,3.22,58.07,1.69-2.81,3.3-3.5,4.05-3.44a2.7,2.7,0,0,1,1.89,1.06C213.63,305.19,216,283.74,216.46,272.65Z"/><path class="cls-57" d="M205.11,273.78c1.29,4.23,12.43,9.14,11.27-6.28-.52-6.84-1.89-44.59-2.16-48.23s-.87-9-2.63-9.62c-8.8-3.32-17.32,7.54-15,21.2C198.12,240,202.42,265,205.11,273.78Z"/><path class="cls-48" d="M252,144.06c1.56-1.19,3.63-2.38,5.05-2.5s-1.67,1.53-2.79,2.51S250.65,145.06,252,144.06Z"/><path class="cls-48" d="M181.86,192.12c4-.81,6.06-2.16,7.9-1.15s-.86,4.55-2.23,5.13-6.18,3.07-7.59,1.74S178.89,192.72,181.86,192.12Z"/><path class="cls-58" d="M168.36,174.57c2.29-3.56,7.39-10.25,13.64-18.93,1.3-1.8,2.44-6.57,1.51-10.13-.58-2.22-3.87-3.6-6.48-.36a91.89,91.89,0,0,0-7.73,10.95c-6.81,10.9-8.71,16.12-9.29,18.55a2.59,2.59,0,0,0,1.1,2.56c.08.12.14.25.23.38,3.95,5.29,5.51,7.17,12.4,12.71,4.78,3.85,4.81,6.16,6.73,6.26,1.56.09,3.71-2,2.39-3.2C181.15,191.81,172.77,179.83,168.36,174.57Z"/><path class="cls-48" d="M181.13,126.42c1.67,6.31,2.09,7.7,5.32,9.88a15.32,15.32,0,0,0,10.46,2.24c3.28-.53,5.16-4.39,5.46-7.22a47.24,47.24,0,0,0-1.9-16.54c-1-3.49-6.13-7.1-10.66-6.37S177,111,181.13,126.42Z"/><path class="cls-59" d="M214.28,326.58a11.24,11.24,0,0,0,4.67,3.53c2.49,1.11,7.77,1.64,4.84,2.61s-6.35.39-8.09.11a34.85,34.85,0,0,0-5.46-.33c-2.7,0-2.72-.18-2.35-3.22C208.39,325.11,213.07,324.22,214.28,326.58Z"/><path class="cls-60" d="M198.85,111.59c3.2,3.88-13.79,14.69-18,14.67s-4.49-7.92-2-12.35S191.3,102.42,198.85,111.59Z"/><path class="cls-61" d="M191.91,111.6c1.24,3.52,7.74,3.33,9.31,6.16,1,1.76.34-4.18-1.58-6.61S189.4,104.52,191.91,111.6Z"/><ellipse class="cls-48" cx="182.06" cy="126.27" rx="2.3" ry="4.39" transform="translate(-34.23 78.22) rotate(-22.22)"/><g class="cls-62"><path class="cls-63" d="M107.67.79c30.65-5.14,74.2,15.36,83,47.41,9,32.72-15.59,48.37,4.57,93.68,15.95,35.84-2.37,75.14-6.69,106.15-4.74,34.06,12.3,50.53,6.68,80.9-12.94,69.89-12.11,90.49-60.15,105.31-49.32,15.21-59.46-53.59-91.49-108C19.95,286.11,6.5,244.59,22.67,215.1c23.23-42.34,57.17.61,45.26-50.47-7.13-30.56-6-83.41,38.21-75.45S63.53,8.18,107.67.79Z"/></g></g></g></g></svg>