<svg xmlns="http://www.w3.org/2000/svg" xmlns:xlink="http://www.w3.org/1999/xlink" viewBox="0 0 212.54 183.08"><defs><style>.cls-1{isolation:isolate;}.cls-2{fill:#ed0f0f;opacity:0.1;}.cls-3,.cls-4,.cls-5,.cls-6,.cls-7{fill:none;stroke:#0037ff;}.cls-3,.cls-4,.cls-5,.cls-6{stroke-miterlimit:10;}.cls-25,.cls-38,.cls-4,.cls-5{mix-blend-mode:multiply;}.cls-5{opacity:0.57;}.cls-6,.cls-7{stroke-linecap:round;}.cls-6{stroke-width:3.75px;}.cls-7{stroke-linejoin:round;}.cls-8{fill:url(#Gradient_bez_nazwy_4);}.cls-9{fill:url(#Gradient_bez_nazwy_2);}.cls-10{fill:url(#Gradient_bez_nazwy_2-2);}.cls-11{fill:#ea8f68;}.cls-12{fill:url(#Gradient_bez_nazwy_2-3);}.cls-13{fill:url(#Gradient_bez_nazwy_10);}.cls-14{fill:url(#Gradient_bez_nazwy_5);}.cls-15{fill:url(#Gradient_bez_nazwy_5-2);}.cls-16{fill:url(#Gradient_bez_nazwy_5-3);}.cls-17{fill:url(#Gradient_bez_nazwy_5-4);}.cls-18{fill:#ffaf84;}.cls-19{fill:url(#Gradient_bez_nazwy_4-2);}.cls-20{fill:url(#Gradient_bez_nazwy_4-3);}.cls-21{fill:url(#Gradient_bez_nazwy_4-4);}.cls-22{fill:url(#Gradient_bez_nazwy_4-5);}.cls-23{fill:url(#Gradient_bez_nazwy_2-4);}.cls-24{fill:url(#Gradient_bez_nazwy_2-5);}.cls-25,.cls-38{opacity:0.3;}.cls-25{fill:url(#Gradient_bez_nazwy_3);}.cls-26{fill:url(#Gradient_bez_nazwy_5-5);}.cls-27{fill:url(#Gradient_bez_nazwy_5-6);}.cls-28{fill:#f70f47;}.cls-29{fill:#ed9169;}.cls-30{fill:url(#Gradient_bez_nazwy_5-7);}.cls-31{fill:url(#Gradient_bez_nazwy_2-6);}.cls-32{fill:url(#Gradient_bez_nazwy_2-7);}.cls-33{fill:url(#Gradient_bez_nazwy_2-8);}.cls-34{fill:url(#Gradient_bez_nazwy_2-9);}.cls-35{fill:url(#Gradient_bez_nazwy_2-10);}.cls-36{fill:url(#Gradient_bez_nazwy_5-8);}.cls-37{fill:url(#Gradient_bez_nazwy_5-9);}.cls-38{fill:url(#Gradient_bez_nazwy_3-2);}</style><linearGradient id="Gradient_bez_nazwy_4" x1="-6414.85" y1="61.55" x2="-6457.88" y2="30.52" gradientTransform="matrix(-1, 0, 0, 1, -6264.25, 0)" gradientUnits="userSpaceOnUse"><stop offset="0" stop-color="#2c27ce"/><stop offset="0.65" stop-color="#ef1d68"/><stop offset="1" stop-color="#efba92"/></linearGradient><linearGradient id="Gradient_bez_nazwy_2" x1="-3875.35" y1="1491.1" x2="-3888.64" y2="1524.24" gradientTransform="matrix(-0.61, -0.79, -0.79, 0.61, -1024.58, -3930.91)" gradientUnits="userSpaceOnUse"><stop offset="0" stop-color="#f70f47"/><stop offset="1" stop-color="#9e005d"/></linearGradient><linearGradient id="Gradient_bez_nazwy_2-2" x1="-5484.94" y1="7191.49" x2="-5499.83" y2="7228.6" gradientTransform="matrix(0.7, 0.72, 0.72, -0.7, -1193.72, 9044.37)" xlink:href="#Gradient_bez_nazwy_2"/><linearGradient id="Gradient_bez_nazwy_2-3" x1="-6438.73" y1="57.86" x2="-6433.81" y2="100.06" gradientTransform="matrix(-1, 0, 0, 1, -6264.25, 0)" xlink:href="#Gradient_bez_nazwy_2"/><linearGradient id="Gradient_bez_nazwy_10" x1="-6429.99" y1="87.19" x2="-6449.45" y2="143.85" gradientTransform="matrix(-1, 0, 0, 1, -6264.25, 0)" gradientUnits="userSpaceOnUse"><stop offset="0" stop-color="#36078b"/><stop offset="1" stop-color="#168d68"/></linearGradient><linearGradient id="Gradient_bez_nazwy_5" x1="-6943.75" y1="93.62" x2="-6963.65" y2="151.54" gradientTransform="matrix(-0.99, 0.15, 0.15, 0.99, -6721.49, 1070.92)" gradientUnits="userSpaceOnUse"><stop offset="0" stop-color="#36078b"/><stop offset="1" stop-color="#16b1ff"/></linearGradient><linearGradient id="Gradient_bez_nazwy_5-2" x1="-6433.12" y1="86.11" x2="-6452.59" y2="142.77" gradientTransform="matrix(-1, 0, 0, 1, -6264.25, 0)" xlink:href="#Gradient_bez_nazwy_5"/><linearGradient id="Gradient_bez_nazwy_5-3" x1="-6405.39" y1="95.64" x2="-6424.86" y2="152.3" gradientTransform="matrix(-1, 0, 0, 1, -6264.25, 0)" xlink:href="#Gradient_bez_nazwy_5"/><linearGradient id="Gradient_bez_nazwy_5-4" x1="-6418.27" y1="91.21" x2="-6437.73" y2="147.87" gradientTransform="matrix(-1, 0, 0, 1, -6264.25, 0)" xlink:href="#Gradient_bez_nazwy_5"/><linearGradient id="Gradient_bez_nazwy_4-2" x1="-6423.96" y1="202.07" x2="-6421.76" y2="174.96" xlink:href="#Gradient_bez_nazwy_4"/><linearGradient id="Gradient_bez_nazwy_4-3" x1="-6455.06" y1="207.11" x2="-6452.29" y2="172.93" xlink:href="#Gradient_bez_nazwy_4"/><linearGradient id="Gradient_bez_nazwy_4-4" x1="-6420.03" y1="55.63" x2="-6444.43" y2="27.77" xlink:href="#Gradient_bez_nazwy_4"/><linearGradient id="Gradient_bez_nazwy_4-5" x1="-6415" y1="51.22" x2="-6439.41" y2="23.37" xlink:href="#Gradient_bez_nazwy_4"/><linearGradient id="Gradient_bez_nazwy_2-4" x1="-7544.14" y1="100.43" x2="-7560.13" y2="140.29" gradientTransform="matrix(-0.71, 0.18, 0.26, 0.97, -5228.64, 1330.7)" xlink:href="#Gradient_bez_nazwy_2"/><linearGradient id="Gradient_bez_nazwy_2-5" x1="-2036.65" y1="1250.4" x2="-2048.3" y2="1279.44" gradientTransform="matrix(0.67, -0.74, 0.74, 0.67, 618.05, -2310.36)" xlink:href="#Gradient_bez_nazwy_2"/><linearGradient id="Gradient_bez_nazwy_3" x1="6.53" y1="178.96" x2="14.59" y2="178.96" gradientUnits="userSpaceOnUse"><stop offset="0" stop-color="blue"/><stop offset="1" stop-color="#9e005d"/></linearGradient><linearGradient id="Gradient_bez_nazwy_5-5" x1="67.84" y1="41.27" x2="39.23" y2="49.15" gradientTransform="matrix(1, 0, 0, 1, 0, 0)" xlink:href="#Gradient_bez_nazwy_5"/><linearGradient id="Gradient_bez_nazwy_5-6" x1="67.86" y1="41.32" x2="39.25" y2="49.2" gradientTransform="matrix(1, 0, 0, 1, 0, 0)" xlink:href="#Gradient_bez_nazwy_5"/><linearGradient id="Gradient_bez_nazwy_5-7" x1="23.97" y1="50.46" x2="28.94" y2="93.08" gradientTransform="matrix(1, 0, 0, 1, 0, 0)" xlink:href="#Gradient_bez_nazwy_5"/><linearGradient id="Gradient_bez_nazwy_2-6" x1="13.68" y1="96" x2="41.39" y2="96" gradientTransform="matrix(1, 0, 0, 1, 0, 0)" xlink:href="#Gradient_bez_nazwy_2"/><linearGradient id="Gradient_bez_nazwy_2-7" x1="7.13" y1="153.44" x2="20.12" y2="153.44" gradientTransform="matrix(1, 0, 0, 1, 0, 0)" xlink:href="#Gradient_bez_nazwy_2"/><linearGradient id="Gradient_bez_nazwy_2-8" x1="10.45" y1="115.34" x2="27.66" y2="115.34" gradientTransform="matrix(1, 0, 0, 1, 0, 0)" xlink:href="#Gradient_bez_nazwy_2"/><linearGradient id="Gradient_bez_nazwy_2-9" x1="32.66" y1="155.53" x2="42.83" y2="155.53" gradientTransform="matrix(1, 0, 0, 1, 0, 0)" xlink:href="#Gradient_bez_nazwy_2"/><linearGradient id="Gradient_bez_nazwy_2-10" x1="26.9" y1="115.17" x2="42.81" y2="115.17" gradientTransform="matrix(1, 0, 0, 1, 0, 0)" xlink:href="#Gradient_bez_nazwy_2"/><linearGradient id="Gradient_bez_nazwy_5-8" x1="5.78" y1="52.58" x2="10.74" y2="95.2" gradientTransform="matrix(1, 0, 0, 1, 0, 0)" xlink:href="#Gradient_bez_nazwy_5"/><linearGradient id="Gradient_bez_nazwy_5-9" x1="8.95" y1="52.21" x2="13.91" y2="94.83" gradientTransform="matrix(1, 0, 0, 1, 0, 0)" xlink:href="#Gradient_bez_nazwy_5"/><linearGradient id="Gradient_bez_nazwy_3-2" x1="35.96" y1="180.06" x2="49.25" y2="180.06" xlink:href="#Gradient_bez_nazwy_3"/></defs><title>plusy-box3</title><g class="cls-1"><g id="Слой_2" data-name="Слой 2"><g id="Designed_by_Freepik" data-name="Designed by Freepik"><circle class="cls-2" cx="106.27" cy="91.79" r="90"/></g><g id="Objects"><path class="cls-3" d="M49.2,111.84l.23-11.69a4.83,4.83,0,0,1,7-4.22l8.94,4.52S61.39,111.26,49.2,111.84Z"/><path class="cls-4" d="M75.42,157.69l-2.68,6.84a5.73,5.73,0,0,1-9.68-1.14l-3.28-15S70.09,148.43,75.42,157.69Z"/><path class="cls-3" d="M49.25,132"/><path class="cls-3" d="M60.44,151.42A41.62,41.62,0,0,1,57,147.7"/><path class="cls-3" d="M94.87,163a41.7,41.7,0,0,1-20.52-2.62"/><path class="cls-3" d="M134.08,150.21q-1.51.67-3.1,1.22l-21,7.34"/><path class="cls-3" d="M134.08,150.21"/><path class="cls-3" d="M57.3,96.19a41.68,41.68,0,0,1,18.57-13l27.28-9.53c27.17-9.49,55.67,10.41,55.67,38.88h0a40.92,40.92,0,0,1-10.21,27"/><path class="cls-3" d="M57.3,96.19"/><path class="cls-3" d="M49.25,132a41.2,41.2,0,0,1-1.2-9.94h0a40.74,40.74,0,0,1,1.41-10.63"/><path class="cls-5" d="M60.44,151.42A41.62,41.62,0,0,1,57,147.7"/><path class="cls-5" d="M94.54,163.08a41.7,41.7,0,0,1-20.18-2.66"/><path class="cls-5" d="M94.71,163.05l-.18,0"/><path class="cls-5" d="M133.9,150.29q-1.42.62-2.91,1.14l-20.72,7.24"/><path class="cls-5" d="M133.9,150.29"/><path class="cls-5" d="M157.3,101.43c-.74-3.57,1.52,7.24,1.52,11.12h0a40.91,40.91,0,0,1-9.92,26.69"/><path class="cls-6" d="M147.15,84.45s-.77-7.83,5.07-9.5c4.1-1.17,5.75,1.19,5.33,4.11-.77,5.39-14.89,1.93-9.63-8.82"/><path class="cls-4" d="M94,161.86l4.3,7.07a5.73,5.73,0,0,0,9.68-1.14l3.18-12.56S99.32,152.6,94,161.86Z"/><path class="cls-4" d="M132,147.28l4.33,6.76A5.73,5.73,0,0,0,146,152.9l2.94-13.74S137.26,139.42,132,147.28Z"/><circle class="cls-3" cx="77.85" cy="129.39" r="2.43"/><circle class="cls-3" cx="51.63" cy="126.96" r="2.43"/><path class="cls-3" d="M87.49,106l9.8-6.39a4.83,4.83,0,0,1,7.43,3.43L106,113S94.83,115.78,87.49,106Z"/><path class="cls-3" d="M50.35,132"/><path class="cls-3" d="M50.35,132c.14,0,4.6-2.16,4.6-2.16s8.09-.64,11.11,3.58c2.72,3.81,2.6,8.33,0,10.16a37.57,37.57,0,0,1-6,3.3"/><ellipse class="cls-3" cx="55.13" cy="139.45" rx="7.73" ry="9.6" transform="translate(-94.69 133.3) rotate(-66.08)"/><ellipse class="cls-3" cx="57.77" cy="139.96" rx="0.72" ry="5.04"/><ellipse class="cls-3" cx="50.12" cy="138.38" rx="0.72" ry="5.04"/><path class="cls-3" d="M83.94,81.84l19.15-6.3a1.81,1.81,0,0,1,.67-.08l5.05.28a.23.23,0,0,1,.06.44L89.37,82.83a1.39,1.39,0,0,1-.58.05L84,82.29A.23.23,0,0,1,83.94,81.84Z"/><path class="cls-7" d="M93.45,71.26a11.14,11.14,0,0,1-1.59.11,12.12,12.12,0,0,1,0-24.21,11.11,11.11,0,0,1,2.14.21"/><ellipse class="cls-7" cx="94.45" cy="59.27" rx="11.56" ry="12.11"/><path class="cls-7" d="M140.16,19.8a7.92,7.92,0,0,1-.66.93,8.41,8.41,0,0,1-11.86.87,8.41,8.41,0,0,1-1.42-11.81,7.9,7.9,0,0,1,1.08-1.08"/><ellipse class="cls-7" cx="134.03" cy="13.84" rx="8.21" ry="8.6" transform="translate(38.15 108.51) rotate(-50.53)"/><path class="cls-7" d="M54.42,3.82a5.22,5.22,0,0,1,.39.64,5.55,5.55,0,0,1-2.58,7.4,5.55,5.55,0,0,1-7.51-2.23,5.2,5.2,0,0,1-.37-.94"/><ellipse class="cls-7" cx="49.21" cy="5.97" rx="5.67" ry="5.41" transform="translate(2.69 23.1) rotate(-27.13)"/><path class="cls-7" d="M105.87,20.8a8.2,8.2,0,0,1,.61,1,8.92,8.92,0,0,1-15.86,8.12A8.18,8.18,0,0,1,90,28.46"/><ellipse class="cls-7" cx="97.68" cy="24.17" rx="8.91" ry="8.51" transform="translate(-0.28 47.2) rotate(-27.13)"/><path class="cls-8" d="M177.27,27.09c-1.54-2.18.22-6,4.61-6.38,5-.41,13.9,2.48,9.13,14.15-5,12.15-3.41,15.26-.07,17.08,0,0-11.47.92-10.6-9.1S180.85,32.15,177.27,27.09Z"/><path class="cls-9" d="M153.58,59.82c2.05-.89,7.54-4.56,15-9.18a10.11,10.11,0,0,1,7.13-.57c1.51.51,2.32,2.87-.06,4.53a64.52,64.52,0,0,1-8,4.86c-7.91,4.22-11.64,5.3-13.36,5.59C152.22,65.39,150.58,61.12,153.58,59.82Z"/><path class="cls-10" d="M160.83,78.79c-.61-1.7-7.72-12.64-8.74-15.44-1.21-3.3,2.95-4.43,4.44-2a36.63,36.63,0,0,1,4.73,10.94c1.17,3.95,2.6,4.56,2.17,5.77C163.08,79.11,161.23,79.92,160.83,78.79Z"/><path class="cls-11" d="M179,41.66c0,.25.42,5.56.49,9.64,0,2-1.41,3.89-2.85,3.94h-.06c-1.41,0-3.07-1.77-2.95-3.73.23-3.55.06-7.18.05-7.24Z"/><path class="cls-12" d="M183.1,64.61a69.38,69.38,0,0,0-2.55,11.15,28.26,28.26,0,0,0,0,8.4c.23,1.68.56,3.34.94,5,.14.62,1.37,5.66,1.43,6.2H160c.22-4.5,5.35-18.65,1.88-27.81-2.4-6.34.79-6.54,3-11.82a15.52,15.52,0,0,1,1.84-3.83,6.6,6.6,0,0,1,3.52-2.16,13.09,13.09,0,0,1,2.14-.3c3.89-.31,13-1.44,13.91,4.09a9.8,9.8,0,0,1-.46,4.47c-.51,1.61-1.28,3.13-1.92,4.7Q183.43,63.64,183.1,64.61Z"/><path class="cls-13" d="M182.86,109.93s2-5,.09-14.59H160a140.61,140.61,0,0,0-.84,14.59Z"/><path class="cls-14" d="M178.77,142.17c-3-7.39,4.32-9.92,7.57-4.74,4.6,7.32,6.59,34.4,7.19,39.44.08.66-.28.59-.67.51-1.13-.22-.65-1.28-2.28-1.18-.86.05-1.1,1.23-1.1,1.23C187.72,170.71,181.7,149.32,178.77,142.17Z"/><path class="cls-15" d="M171.45,111c-.81-9.65,2.87-17.14,8.64-14,2.43,1.34,3.32,4,3.64,6.55s2.11,28.77,2.74,33.51c1.41,10.69-6.73,7.81-7.61,4.85C176.64,134.45,171.89,116.23,171.45,111Z"/><path class="cls-16" d="M157.87,140.64c-.3-7.24,6.49-7.08,8.2-1.19,2.69,9.27-2,29.17-2.25,40.53-1.18-2-2.3-2.44-2.83-2.4a1.89,1.89,0,0,0-1.32.74C159.84,163.35,158.19,148.38,157.87,140.64Z"/><path class="cls-17" d="M165.79,141.43c-.9,3-8.68,6.38-7.86-4.38.36-4.77,1.32-31.12,1.51-33.66s.61-6.25,1.84-6.71c6.14-2.32,12.09,5.26,10.48,14.8C170.67,117.84,167.66,135.3,165.79,141.43Z"/><path class="cls-18" d="M181.74,37.81c-.45,4.53-.59,5.54-2.57,7.4a10.69,10.69,0,0,1-7,2.71c-2.32,0-4-2.45-4.57-4.37a33,33,0,0,1-.53-11.61c.33-2.52,3.44-5.57,6.64-5.57S182.85,26.73,181.74,37.81Z"/><path class="cls-19" d="M159.38,178.29a7.84,7.84,0,0,1-3.26,2.47c-1.74.78-5.43,1.14-3.38,1.83a12.25,12.25,0,0,0,5.64.08,24.49,24.49,0,0,1,3.81-.23c1.88,0,1.89-.13,1.64-2.25C163.5,177.25,160.23,176.64,159.38,178.29Z"/><path class="cls-20" d="M189.54,177c-.26.51-.54,3-2.28,3.76s-5.43,1.14-3.38,1.83a12.25,12.25,0,0,0,5.64.08c1.21-.19,1.4-1.51,2.83-1.52,1.88,0,1.9-.13,1.64-2.25C193.65,176,190.39,175.34,189.54,177Z"/><path class="cls-21" d="M167.88,29.56c-1.77,3,11.13,8.59,14,8.12s2.84-6.57.63-9.35S172.07,22.4,167.88,29.56Z"/><path class="cls-22" d="M172.67,28.8c-.47,2.57-5,3.15-5.73,5.28-.48,1.32-.7-2.84.36-4.73S173.61,23.64,172.67,28.8Z"/><ellipse class="cls-18" cx="181.88" cy="38.48" rx="3.07" ry="1.61" transform="translate(77.5 192.31) rotate(-67.79)"/><path class="cls-18" d="M207.19,55.36a8.32,8.32,0,0,1,1.05-3.79c.6-.8.43,1.34.42,2.38S207.1,56.52,207.19,55.36Z"/><path class="cls-18" d="M208.19,54.25c1.57-2.36,2-3.87,3.25-4.49s1.29,2,.87,2.87-1.74,4.24-2.89,4.53S207,56,208.19,54.25Z"/><path class="cls-23" d="M194.63,71.53c-1.31-1.82-6.07-6.39-12.17-12.66A10.11,10.11,0,0,1,180.38,52c.18-1.59,2.3-2.88,4.44-.91a64.4,64.4,0,0,1,6.45,6.77c5.82,6.83,7.66,10.23,8.32,11.86C200.36,71.66,196.54,74.18,194.63,71.53Z"/><path class="cls-24" d="M209.58,56.33c.16,1.33-1.42,1.63-3.48,5.38a38.11,38.11,0,0,1-7.23,10.07c-2.06,2.19-6,.12-4.07-3,1.65-2.61,11.29-12.15,12.29-13.74C207.75,54,209.45,55.25,209.58,56.33Z"/><path class="cls-18" d="M161.09,77a9.91,9.91,0,0,0-2.36,2.06c-.41.52-.4,1.36.35,1.49a4.91,4.91,0,0,0,3.35-1.12,3.42,3.42,0,0,0,.64-2.44C162.95,76.28,162.17,76.33,161.09,77Z"/><path class="cls-25" d="M12.15,176.3a13.65,13.65,0,0,1,.32,2.34c.15.94,1.05,1.29,1.57,2.06s1.48,2.22-2,2.29c-3.77.07-6-.18-5.36-2.23a10.44,10.44,0,0,0,.72-3.63,2.22,2.22,0,0,1,.43-1.77C8.22,175,11.6,174.25,12.15,176.3Z"/><path class="cls-26" d="M62.89,35.3c.16,2.11,0,3.54-2.45,7.85C57.08,49,54.83,52,52.6,54.43c-2.06,2.23-6.68-3.36-4.61-6.9,1.75-3,11.34-11.13,12.4-13C61.09,33.38,62.76,33.59,62.89,35.3Z"/><path class="cls-27" d="M51.36,54.9c-1.62.32-5.35.47-14.19-1.5A57.91,57.91,0,0,1,28,50.7c-2.85-1.06-3.27-4.17-2.21-5.36,1.71-1.92,5.33-3.35,6.86-2.89,8.61,2.63,15.07,5.17,17.27,5.44C53.09,48.28,53.29,54.52,51.36,54.9Z"/><path class="cls-28" d="M28.64,31.57c1.54.72,2.21.73,2.77-1.19.43-1.49,1.16-6.72-1.22-7.07s-4.26-.42-4,2.8S26.81,30.71,28.64,31.57Z"/><path class="cls-29" d="M19.63,34.37c0,.24-.55,5.25-.65,9.09a4,4,0,0,0,3.73,3.72h.08c1.85,0,4-1.67,3.86-3.52a49.72,49.72,0,0,1-.07-6.83Z"/><path class="cls-30" d="M10.3,55.23c3.43,11.29,5,25,4.3,32.86H40.45s-.15-24.22-1.88-37.48A9.92,9.92,0,0,0,33.11,43a18.56,18.56,0,0,0-6.89-1.53H21.44a28.89,28.89,0,0,0-5,.63C9.55,43.4,8.3,48.69,10.3,55.23Z"/><path class="cls-31" d="M14.7,103.91s-2.23-5.43-.11-15.82H40.45a147,147,0,0,1,.94,15.82Z"/><path class="cls-32" d="M19.8,137.75c2.07-8.42-6.53-9.9-9.24-3.81C6.72,142.55,7,170.09,7.24,175.58c0,.72.42.58.83.44a6.42,6.42,0,0,1,2.73-.49,2.36,2.36,0,0,1,1.44,1.13C13.05,169.17,17.8,145.9,19.8,137.75Z"/><path class="cls-33" d="M27.53,105c.91-10.46-3.23-18.58-9.72-15.12-2.73,1.45-3.73,4.36-4.1,7.1s-2.38,31.19-3.08,36.33c-1.59,11.59,7.57,8.47,8.56,5.25C21.7,130.49,27,110.75,27.53,105Z"/><path class="cls-34" d="M42.82,137.21c.34-7.85-7.3-7.68-9.22-1.3-3,10,2.2,31.62,2.53,43.94,1.33-2.13,2.59-2.64,3.18-2.6a2.13,2.13,0,0,1,1.48.8C40.59,161.83,42.45,145.6,42.82,137.21Z"/><path class="cls-35" d="M33.9,138.06c1,3.2,9.76,6.91,8.85-4.75-.4-5.17-1.48-33.74-1.69-36.49S40.37,90,39,89.54c-6.91-2.51-13.6,5.7-11.79,16C28.42,112.49,31.79,131.42,33.9,138.06Z"/><path class="cls-36" d="M14.38,82.21c-2-.58-3.1-2-6.54-5.64-5-5.19-5.8-6.74-7.68-11C-1.07,62.82,5.49,60.82,8.08,64c2.19,2.68,6.5,14.5,7.84,16.12C16.81,81.18,16,82.68,14.38,82.21Z"/><path class="cls-37" d="M0,64.59C.28,63,1.43,59.41,6.34,51.8a57.91,57.91,0,0,1,5.72-7.7c2-2.3,5-1.62,5.79-.21,1.2,2.27,1.3,6.17.33,7.43C12.74,58.49,8.11,63.67,7.09,65.64,5.61,68.51-.3,66.53,0,64.59Z"/><path class="cls-18" d="M17.09,30.74c.43,4.28.55,5.23,2.42,7a10.09,10.09,0,0,0,6.57,2.55c2.19,0,3.81-2.31,4.31-4.12a31.13,31.13,0,0,0,.5-11,6.91,6.91,0,0,0-6.27-5.25C21.59,19.94,16,20.29,17.09,30.74Z"/><path class="cls-18" d="M13.61,79.51c1-1.09,2.54-2.78,3.31-3.74s3,.7,3.08,1.53c.07,1.24-1.18,4.62-2.76,4.61s-2,1.44-3.39,1S12,81.29,13.61,79.51Z"/><path class="cls-38" d="M41.11,178a8.77,8.77,0,0,0,3.66,2.67c2,.84,6.1,1.24,3.8,2a14.3,14.3,0,0,1-6.35.08,28.76,28.76,0,0,0-4.28-.25c-2.11,0-2.13-.14-1.85-2.44C36.48,176.89,40.15,176.22,41.11,178Z"/><path class="cls-28" d="M17.1,30.08c1.16,1.16,1.76,1.38,2.89-.17.88-1.2,3.25-5.69,1.2-6.79s-3.71-1.77-4.51,1.24S15.72,28.71,17.1,30.08Z"/><ellipse class="cls-18" cx="16.96" cy="31.37" rx="1.52" ry="2.89" transform="translate(-10.6 8.74) rotate(-22.22)"/><path class="cls-28" d="M18.4,22.31c1.67,2.49,9.72,2.72,12.34,1.8s2.44-6-1.31-6.35c-2.12,0-.58.5-2.3,1.2C26.27,19.32,16.63,19.66,18.4,22.31Z"/><path class="cls-18" d="M60,34.81c.47-1.29,4.67-11.28,6.33-9.61,1.83,1.84,1,6.17.58,7.59-.82,2.6-3.27,4.15-4.93,4C60.86,36.75,59.59,36,60,34.81Z"/><path class="cls-18" d="M59.82,34.06c-.06-.63-.41-4.37.29-4.49,1.06-.18,1.41,2.26,1.65,3.88.13.87-.28,2.14-1,2.16S59.92,35.07,59.82,34.06Z"/></g></g></g></svg>