<svg xmlns="http://www.w3.org/2000/svg" xmlns:xlink="http://www.w3.org/1999/xlink" viewBox="0 0 182.59 180"><defs><style>.cls-1{isolation:isolate;}.cls-2{fill:#ed0f0f;opacity:0.1;}.cls-3{opacity:0.8;}.cls-4,.cls-5,.cls-6,.cls-7,.cls-8{fill:none;stroke:#0037ff;stroke-linecap:round;stroke-linejoin:round;}.cls-4{opacity:0.3;mix-blend-mode:exclusion;}.cls-6{opacity:0.4;}.cls-7,.cls-9{opacity:0.6;}.cls-8{opacity:0.5;}.cls-10{fill:url(#Gradient_bez_nazwy_5);}.cls-11{fill:url(#Gradient_bez_nazwy_5-2);}.cls-12{fill:#4e11f4;}.cls-13{fill:#ffaf84;}.cls-14{fill:url(#Gradient_bez_nazwy_5-3);}.cls-15{fill:url(#Gradient_bez_nazwy_5-4);}.cls-16{fill:url(#Gradient_bez_nazwy_3);}.cls-17{fill:url(#Gradient_bez_nazwy_3-2);}.cls-18{fill:url(#Gradient_bez_nazwy_3-3);}.cls-19{fill:url(#Gradient_bez_nazwy_3-4);}.cls-20{fill:url(#Gradient_bez_nazwy_3-5);}.cls-21{fill:url(#Gradient_bez_nazwy_5-5);}.cls-22{fill:url(#Gradient_bez_nazwy_3-6);}.cls-23{fill:url(#Gradient_bez_nazwy_3-7);}.cls-24{fill:#0037ff;}</style><linearGradient id="Gradient_bez_nazwy_5" x1="-443.56" y1="-868.76" x2="-422.35" y2="-830.8" gradientTransform="matrix(0.99, 0.16, -0.16, 0.99, 464.47, 971.33)" gradientUnits="userSpaceOnUse"><stop offset="0" stop-color="#36078b"/><stop offset="1" stop-color="#16b1ff"/></linearGradient><linearGradient id="Gradient_bez_nazwy_5-2" x1="-432.1" y1="-875.17" x2="-410.89" y2="-837.21" xlink:href="#Gradient_bez_nazwy_5"/><linearGradient id="Gradient_bez_nazwy_5-3" x1="181.32" y1="1607.85" x2="181.32" y2="1646.48" gradientTransform="translate(-1052.71 -1050.94) rotate(-41.42)" xlink:href="#Gradient_bez_nazwy_5"/><linearGradient id="Gradient_bez_nazwy_5-4" x1="-436.83" y1="-887.63" x2="-436.83" y2="-846.31" xlink:href="#Gradient_bez_nazwy_5"/><linearGradient id="Gradient_bez_nazwy_3" x1="-443.39" y1="-851.24" x2="-427.76" y2="-751.89" gradientTransform="matrix(0.99, 0.16, -0.16, 0.99, 464.47, 971.33)" gradientUnits="userSpaceOnUse"><stop offset="0" stop-color="blue"/><stop offset="1" stop-color="#9e005d"/></linearGradient><linearGradient id="Gradient_bez_nazwy_3-2" x1="639.08" y1="1128.13" x2="654.1" y2="1223.63" gradientTransform="translate(-671.47 -938.01) rotate(-9.56)" xlink:href="#Gradient_bez_nazwy_3"/><linearGradient id="Gradient_bez_nazwy_3-3" x1="-437.29" y1="-852.2" x2="-421.66" y2="-752.84" xlink:href="#Gradient_bez_nazwy_3"/><linearGradient id="Gradient_bez_nazwy_3-4" x1="-129.65" y1="-383.03" x2="-114.02" y2="-283.67" gradientTransform="matrix(1, 0.07, -0.07, 1, 236.78, 453.5)" xlink:href="#Gradient_bez_nazwy_3"/><linearGradient id="Gradient_bez_nazwy_3-5" x1="-453.1" y1="-849.71" x2="-437.47" y2="-750.35" xlink:href="#Gradient_bez_nazwy_3"/><linearGradient id="Gradient_bez_nazwy_5-5" x1="166.38" y1="1615.34" x2="166.38" y2="1637.82" gradientTransform="translate(-1052.71 -1050.94) rotate(-41.42)" xlink:href="#Gradient_bez_nazwy_5"/><linearGradient id="Gradient_bez_nazwy_3-6" x1="-447.03" y1="-905.77" x2="-429.87" y2="-885.67" xlink:href="#Gradient_bez_nazwy_3"/><linearGradient id="Gradient_bez_nazwy_3-7" x1="-445.55" y1="-906.95" x2="-428.44" y2="-886.93" xlink:href="#Gradient_bez_nazwy_3"/></defs><title>plusy-box1</title><g class="cls-1"><g id="Слой_2" data-name="Слой 2"><g id="Designed_by_Freepik" data-name="Designed by Freepik"><circle class="cls-2" cx="91.55" cy="90" r="90"/></g><g id="Objects"><g class="cls-3"><polygon class="cls-4" points="180.31 37.1 180.31 158.57 19.79 157.14 19.79 47.88 180.31 37.1"/><polygon class="cls-5" points="168.37 44.04 168.37 154.09 14.3 154.09 14.3 53.81 168.37 44.04"/><polygon class="cls-6" points="21.73 151.06 80.48 149.71 80.48 68.97 21.73 71.92 21.73 151.06"/><polygon class="cls-7" points="32.14 70.06 21.91 70.4 21.91 59.48 32.14 58.88 32.14 70.06"/><path class="cls-5" d="M30.19,64.59A3.53,3.53,0,0,1,27,68.2a3.17,3.17,0,0,1-3.18-3.32A3.54,3.54,0,0,1,27,61.28,3.16,3.16,0,0,1,30.19,64.59Z"/><path class="cls-5" d="M29.4,64.63a2.82,2.82,0,0,1-1,2.17,2.52,2.52,0,0,1-.59.37l-.29.11-.18,0a2.2,2.2,0,0,1-.38,0,2.25,2.25,0,0,1-.72-.09,2.47,2.47,0,0,1-1.7-2.43,2.86,2.86,0,0,1,.24-1.15,2.73,2.73,0,0,1,.84-1.08l.26-.18a2.39,2.39,0,0,1,.63-.26,2.27,2.27,0,0,1,2.72,1.5A2.69,2.69,0,0,1,29.4,64.63Z"/><path class="cls-5" d="M27,65a.3.3,0,0,1-.3-.3V63.06a.3.3,0,1,1,.6,0v1.68A.3.3,0,0,1,27,65Z"/><path class="cls-5" d="M27,65a.3.3,0,0,1-.17-.54l.81-.59a.3.3,0,1,1,.35.48l-.81.59A.3.3,0,0,1,27,65Z"/><polygon class="cls-8" points="167.52 153.69 14.63 154.31 14.63 55.27 167.52 45.05 167.52 153.69"/><path class="cls-5" d="M53.56,117.21a18.25,18.25,0,0,1-20.9-3.84,19.88,19.88,0,0,1-5.18-9.94l9.36-2.56A9.31,9.31,0,0,0,50,107.77Z"/><path class="cls-5" d="M60.15,112.39l-.47.49L53,105.6a11.09,11.09,0,0,0,3.1-7.71c0-5.74-4.39-10.19-9.79-10a10.23,10.23,0,0,0-8.73,6.14L29,89.92a21.68,21.68,0,0,1,3.65-5.6c7.54-8.38,19.86-9,27.5-1.26S67.84,104,60.15,112.39Z"/><path class="cls-5" d="M36.61,98.68a10.86,10.86,0,0,0,.22,2.2l-9.36,2.56A22,22,0,0,1,29,89.92l8.61,4.16A11.06,11.06,0,0,0,36.61,98.68Z"/><path class="cls-5" d="M59.68,112.88a20.13,20.13,0,0,1-6.12,4.34L50,107.77A10.18,10.18,0,0,0,53,105.6Z"/><polygon class="cls-5" points="64.17 122.37 64.17 120.35 60.34 120.47 60.34 122.5 64.17 122.37"/><polygon class="cls-5" points="70.98 122.15 70.98 120.12 67.13 120.25 67.13 122.27 70.98 122.15"/><polygon class="cls-5" points="77.81 121.93 77.81 119.9 73.95 120.02 73.95 122.05 77.81 121.93"/><path class="cls-5" d="M75.15,84.42a3.44,3.44,0,0,0-3.75,1,3.88,3.88,0,0,0-.94,1.85l1.69.31A1.87,1.87,0,0,1,73.86,86a1.62,1.62,0,0,1,.65.1Z"/><path class="cls-5" d="M76.33,85.18l-.08-.08-1.19,1.38a1.8,1.8,0,0,1,.55,1.32,1.89,1.89,0,0,1-1.75,1.91,1.65,1.65,0,0,1-1.57-1l-1.55.87a3.34,3.34,0,0,0,5.58.73A3.8,3.8,0,0,0,76.33,85.18Z"/><path class="cls-5" d="M72.11,88a2,2,0,0,1,0-.39l-1.69-.31a3.76,3.76,0,0,0,.28,2.39l1.55-.87A1.84,1.84,0,0,1,72.11,88Z"/><path class="cls-5" d="M76.24,85.1a3.22,3.22,0,0,0-1.09-.68l-.64,1.72a1.62,1.62,0,0,1,.55.34Z"/><path class="cls-5" d="M70.67,111.6a3.33,3.33,0,0,0,3.2,2.1,3.44,3.44,0,0,0,1.88-.65l-.94-1.5a1.67,1.67,0,0,1-2.18-.17,1.75,1.75,0,0,1-.37-.56Z"/><path class="cls-5" d="M70.38,110.17s0,.08,0,.12l1.73-.12a2,2,0,0,1,.51-1.38,1.69,1.69,0,0,1,2.47-.09,1.87,1.87,0,0,1,.42,1.87l1.64.53a3.83,3.83,0,0,0,.19-1.18,3.42,3.42,0,0,0-3.49-3.53A3.74,3.74,0,0,0,70.38,110.17Z"/><path class="cls-5" d="M75.1,111.29a1.82,1.82,0,0,1-.29.26l.94,1.5a3.8,3.8,0,0,0,1.42-2l-1.64-.53A1.92,1.92,0,0,1,75.1,111.29Z"/><path class="cls-5" d="M70.39,110.29a3.65,3.65,0,0,0,.28,1.31l1.59-.78a1.88,1.88,0,0,1-.14-.66Z"/><path class="cls-5" d="M75.24,102.27a3.85,3.85,0,0,0,2.11-3.45,3.64,3.64,0,0,0-.55-2l-1.46,1a1.93,1.93,0,0,1-.23,2.3,1.81,1.81,0,0,1-.55.41Z"/><path class="cls-5" d="M73.86,102.62H74l-.06-1.82a1.64,1.64,0,0,1-1.29-.49,1.9,1.9,0,0,1,0-2.6,1.73,1.73,0,0,1,1.8-.51L75,95.45a3.22,3.22,0,0,0-1.12-.15,3.76,3.76,0,0,0-3.48,3.8A3.41,3.41,0,0,0,73.86,102.62Z"/><path class="cls-5" d="M75.1,97.61a1.76,1.76,0,0,1,.23.3l1.46-1A3.3,3.3,0,0,0,75,95.45l-.56,1.75A1.64,1.64,0,0,1,75.1,97.61Z"/><path class="cls-5" d="M74,102.61a3.4,3.4,0,0,0,1.26-.34l-.69-1.65a1.7,1.7,0,0,1-.63.17Z"/><polygon class="cls-5" points="168.37 44.05 14.3 53.81 14.3 39.35 168.37 28.17 168.37 44.05"/><polygon class="cls-5" points="165.25 40.92 16.9 50.61 16.9 45.83 165.25 35.69 165.25 40.92"/><polygon class="cls-5" points="19.17 44.06 16.9 44.22 16.9 41.74 19.17 41.58 19.17 44.06"/><polygon class="cls-5" points="23.22 43.78 20.94 43.94 20.94 41.45 23.22 41.29 23.22 43.78"/><polygon class="cls-5" points="27.3 43.5 25 43.66 25 41.16 27.3 41 27.3 43.5"/><polygon class="cls-8" points="82.59 138.43 158.04 137.71 158.04 50.42 82.59 54.95 82.59 138.43"/><path class="cls-5" d="M92.64,73.77a2,2,0,0,1-1.36-.54,2.09,2.09,0,0,1-.64-1.53V60.27a2.24,2.24,0,0,1,2-2.24L160,54.16a2.1,2.1,0,0,1,2.24,2.12V68.19a2.33,2.33,0,0,1-2.18,2.3L92.74,73.77ZM160.1,55.16H160L92.74,59a1.22,1.22,0,0,0-1.1,1.23V71.7a1.09,1.09,0,0,0,.33.8,1,1,0,0,0,.71.26L160,69.48a1.31,1.31,0,0,0,1.23-1.29V56.28a1.11,1.11,0,0,0-.34-.82A1.09,1.09,0,0,0,160.1,55.16Z"/><path class="cls-5" d="M92.66,93.19a2,2,0,0,1-1.38-.56,2.1,2.1,0,0,1-.64-1.53V79.67a2.21,2.21,0,0,1,2.05-2.22L160,74.37a2.11,2.11,0,0,1,1.57.58,2.13,2.13,0,0,1,.66,1.56V88.42A2.3,2.3,0,0,1,160,90.7L92.73,93.19Zm67.43-17.82H160L92.73,78.46a1.19,1.19,0,0,0-1.09,1.21V91.1a1.11,1.11,0,0,0,.33.81,1,1,0,0,0,.72.27L160,89.69a1.28,1.28,0,0,0,1.22-1.27V76.51a1.13,1.13,0,0,0-.35-.83A1.11,1.11,0,0,0,160.09,75.37Z"/><path class="cls-5" d="M92.67,112.61a2,2,0,0,1-1.4-.57,2.12,2.12,0,0,1-.64-1.54V99.08a2.19,2.19,0,0,1,2.06-2.2L160,94.58a2.2,2.2,0,0,1,1.57.6,2.15,2.15,0,0,1,.66,1.56v11.91a2.27,2.27,0,0,1-2.2,2.26l-67.29,1.7Zm67.39-17h0l-67.29,2.3a1.17,1.17,0,0,0-1.09,1.19V110.5a1.12,1.12,0,0,0,.33.82,1.07,1.07,0,0,0,.72.28L160,109.9a1.26,1.26,0,0,0,1.21-1.25V96.74a1.15,1.15,0,0,0-.35-.83A1.14,1.14,0,0,0,160.06,95.58Z"/><path class="cls-5" d="M92.69,132a2,2,0,0,1-1.42-.59,2.14,2.14,0,0,1-.64-1.54V118.48a2.16,2.16,0,0,1,2.06-2.18L160,114.79a2.25,2.25,0,0,1,1.57.62,2.17,2.17,0,0,1,.65,1.56v11.91a2.25,2.25,0,0,1-2.2,2.24L92.72,132Zm0-1v0l67.29-.92a1.23,1.23,0,0,0,1.21-1.23V117a1.17,1.17,0,0,0-.35-.84,1.25,1.25,0,0,0-.84-.33l-67.29,1.51a1.15,1.15,0,0,0-1.08,1.18v11.43a1.14,1.14,0,0,0,.34.82A.93.93,0,0,0,92.71,131Z"/><polygon class="cls-8" points="124.94 102.89 154.04 102.01 154.04 99.68 124.94 100.6 124.94 102.89"/><polygon class="cls-8" points="134.34 106.71 154.04 106.16 154.04 103.83 134.34 104.4 134.34 106.71"/><polygon class="cls-8" points="127.25 106.91 132.09 106.77 132.09 104.47 127.25 104.61 127.25 106.91"/><polygon class="cls-8" points="124.94 63.77 154.04 62.22 154.04 59.88 124.94 61.48 124.94 63.77"/><polygon class="cls-8" points="136.61 67.25 154.04 66.36 154.04 64.03 136.61 64.94 136.61 67.25"/><polygon class="cls-8" points="116.31 68.29 134.34 67.37 134.34 65.06 116.31 66.01 116.31 68.29"/><polygon class="cls-8" points="142.3 122.37 154.04 122.15 154.04 119.82 142.3 120.05 142.3 122.37"/><polygon class="cls-8" points="128.59 122.63 140.14 122.41 140.14 120.1 128.59 120.33 128.59 122.63"/><polygon class="cls-8" points="134.34 126.62 154.04 126.3 154.04 123.97 134.34 124.31 134.34 126.62"/><polygon class="cls-8" points="113.16 126.96 132.09 126.65 132.09 124.35 113.16 124.68 113.16 126.96"/><path class="cls-5" d="M96.11,89.73l67.57-2.62a1.8,1.8,0,0,0,1.71-1.78V73.39a1.62,1.62,0,0,0-1.71-1.64L96.11,75a1.71,1.71,0,0,0-1.58,1.72V88.14A1.54,1.54,0,0,0,96.11,89.73Z"/><g class="cls-9"><polygon class="cls-5" points="132.64 77.49 161.71 76.18 161.71 74.44 132.64 75.78 132.64 77.49"/><polygon class="cls-5" points="132.64 80.53 161.71 79.28 161.71 77.53 132.64 78.82 132.64 80.53"/><polygon class="cls-5" points="148.7 82.91 161.71 82.37 161.71 80.63 148.7 81.18 148.7 82.91"/></g><polygon class="cls-5" points="108.08 84.68 115.63 84.37 115.63 76.56 108.08 76.91 108.08 84.68"/><polygon class="cls-7" points="99.39 85.04 106.86 84.73 106.86 76.96 99.39 77.31 99.39 85.04"/></g><path class="cls-5" d="M16.72,125.77l142.7-64.14a3.81,3.81,0,0,0,1.91-5L150.48,32.45a3.81,3.81,0,0,0-5-1.91L2.75,94.68a3.81,3.81,0,0,0-1.91,5l10.85,24.14A3.81,3.81,0,0,0,16.72,125.77Z"/><g class="cls-9"><rect class="cls-5" x="81.55" y="50.93" width="65.94" height="3.87" transform="translate(240.65 54.12) rotate(155.8)"/><rect class="cls-5" x="84.37" y="57.2" width="65.94" height="3.87" transform="translate(248.61 64.96) rotate(155.8)"/><rect class="cls-5" x="122.28" y="55.95" width="29.24" height="3.87" transform="translate(285.5 54.56) rotate(155.8)"/></g><rect class="cls-7" x="34.1" y="83.74" width="17.83" height="17.83" transform="translate(120.24 159.52) rotate(155.79)"/><rect class="cls-7" x="15.18" y="92.25" width="17.83" height="17.83" transform="translate(87.54 183.55) rotate(155.79)"/><path class="cls-10" d="M158.59,68.36c1.8.92,3.49.59,8.25.31,6.84-.41,8.44-.95,12.52-2.69,2.67-1.14-.62-6.81-4.5-6.28-3.28.45-14,5.92-16,6.19C157.55,66.06,157.12,67.61,158.59,68.36Z"/><path class="cls-11" d="M180.22,65.08c.7-1.42,1.76-4.82,2.13-13.47a55.35,55.35,0,0,0-.21-9.17c-.27-2.89-3-4.05-4.4-3.37-2.19,1.11-4.42,4.09-4.37,5.62.29,8.6,1,15.2.74,17.29C173.68,65,179.39,66.77,180.22,65.08Z"/><path class="cls-12" d="M174.22,161.56a13.13,13.13,0,0,0-.31,2.24c-.15.9-1,1.23-1.51,2s-1.41,2,2,2.06c3.6.07,5.74,0,5.12-2a10,10,0,0,1-.69-3.47,2.12,2.12,0,0,0-.41-1.69C178,160.29,174.75,159.6,174.22,161.56Z"/><path class="cls-12" d="M137.42,163.2a8.4,8.4,0,0,1-3.5,2.56c-1.87.8-5.84,1.18-3.63,1.89a13.68,13.68,0,0,0,6.07.08,27.2,27.2,0,0,1,4.1-.24c2,0,2-.13,1.77-2.33C141.84,162.13,138.33,161.49,137.42,163.2Z"/><path class="cls-13" d="M178.44,26.58c-1,4-1.3,4.85-3.32,6.23s-4.82,1.19-6.74.88c-2.07-.32-3-3-3.24-4.82a25.22,25.22,0,0,1,1.09-9.58,6.61,6.61,0,0,1,6.7-4C175.79,15.71,181,16.86,178.44,26.58Z"/><path class="cls-14" d="M164.13,62.17c.47-1.51,1-5,0-13.64a55.23,55.23,0,0,0-1.62-9c-.72-2.81-3.63-3.54-4.87-2.65-2,1.43-3.73,4.73-3.45,6.22,1.61,8.45,3.37,14.86,3.4,17C157.67,63.15,163.58,64,164.13,62.17Z"/><path class="cls-13" d="M175.27,33.37c-.11,1.42-.26,3-.45,4.52a3.9,3.9,0,0,1-4,3.39l-.22,0c-1.74-.27-3.55-2.18-3.12-3.9.28-1.12.5-2.26.66-3.26a4.59,4.59,0,0,1,3.7-3.79h0A2.89,2.89,0,0,1,175.27,33.37Z"/><path class="cls-15" d="M180.64,51.91c-4.92,10.15-7.73,21.1-8.26,28.65L148,76.73s3.74-22.85,7.34-35.12a9.49,9.49,0,0,1,6.28-6.37,17.77,17.77,0,0,1,6.74-.42l4.51.71a17.33,17.33,0,0,1,4.67,1.34C183.83,40,183.49,46,180.64,51.91Z"/><path class="cls-16" d="M169.93,95.49s2.92-4.79,2.45-14.92L148,76.73a140.56,140.56,0,0,0-3.24,14.8Z"/><path class="cls-17" d="M161.18,129.54c-3.29-7.61,4.58-10.37,8.11-5.06,5,7.51,9.07,31.62,9.75,36.84.09.68.35,1.5,0,1.79a5.28,5.28,0,0,1-2.51.85c-.91.13-1.81.28-2.08-.83C172.6,155.67,164.37,136.91,161.18,129.54Z"/><path class="cls-18" d="M157.64,94.66c.69-10,5.81-17.06,11.42-12.84,2.36,1.78,2.88,4.67,2.82,7.31s-2.38,29.81-2.48,34.77c-.22,11.18-8.4,6.87-8.86,3.69C159.37,119.56,157.26,100.11,157.64,94.66Z"/><path class="cls-19" d="M141.8,164.22c1.18-11.72,7.69-31.92,5.52-41.71-1.38-6.22-8.65-6.92-8.88.58-.25,8,1,23.7-1,39.09C137.28,163.69,141.64,165.58,141.8,164.22Z"/><path class="cls-20" d="M146.73,124.89c-1.43,2.88-10.24,5.08-7.65-5.8,1.15-4.83,6.41-31.64,7-34.21s1.65-6.3,3-6.57c6.89-1.35,12,7.4,8.75,16.9C155.7,101.56,149.7,118.93,146.73,124.89Z"/><ellipse class="cls-13" cx="165.2" cy="24.19" rx="1.45" ry="2.77" transform="translate(-1.14 38.63) rotate(-13.29)"/><ellipse class="cls-13" cx="178.38" cy="26.26" rx="2.77" ry="1.45" transform="translate(63.66 165.35) rotate(-58.86)"/><path class="cls-21" d="M144.44,70.67c2,.36,3.36.39,7.71-1.56a57.14,57.14,0,0,0,11.5-6.34c2.32-1.74-2.54-6.68-6.1-5.07-3,1.37-11.7,9.68-13.54,10.51C142.79,68.76,142.82,70.38,144.44,70.67Z"/><path class="cls-13" d="M144.26,67.91c-1.28.32-11.18,4.4-9.75,6.15,1.57,1.93,5.65.38,6.93-.23,2.49-1.18,4.48-2.24,4.54-3.83C146,68.88,145.47,67.6,144.26,67.91Z"/><path class="cls-13" d="M143.85,66.89c-.46-.39-3.21-2.71-3.68-2.22-.72.74,1,2.34,2.15,3.41.62.58,1.83.94,2.24.39S144.58,67.52,143.85,66.89Z"/><path class="cls-22" d="M170,16.67c-2.56,1-3.3,2.2-3.69,5.11s.07,8,5.23,10,7.24-3.15,8.14-6.75,1.12-6.36-1.48-7.44C174.31,16,171.51,16,170,16.67Z"/><path class="cls-23" d="M179.54,18.17c.18-2.27-3.21-3.86-3.61-4.91,0,0-.2,1.54.43,2a28.79,28.79,0,0,1-5.74-3.08s.67,1.59,1.49,2a35.7,35.7,0,0,1-6-2.22A18.19,18.19,0,0,0,168.67,15a17.7,17.7,0,0,1-6.14-1s1.83,5.13,5.36,5.76S179.21,22.32,179.54,18.17Z"/><path class="cls-5" d="M9.26,13.94a1.69,1.69,0,0,1,1.52-1.81"/><path class="cls-5" d="M13.92,13.94a1.69,1.69,0,0,1,1.52-1.81"/><path class="cls-5" d="M18.59,13.94a1.69,1.69,0,0,1,1.52-1.81"/><path class="cls-5" d="M23.25,13.94a1.69,1.69,0,0,1,1.52-1.81"/><path class="cls-5" d="M27.91,13.94a1.69,1.69,0,0,1,1.52-1.81"/><path class="cls-5" d="M32.57,13.94a1.69,1.69,0,0,1,1.52-1.81"/><path class="cls-5" d="M37.24,13.94a1.69,1.69,0,0,1,1.52-1.81"/><path class="cls-5" d="M46.61,13.94a1.69,1.69,0,0,1,1.52-1.81"/><path class="cls-5" d="M51.27,13.94a1.69,1.69,0,0,1,1.52-1.81"/><path class="cls-5" d="M55.93,13.94a1.69,1.69,0,0,1,1.52-1.81"/><path class="cls-5" d="M60.59,13.94a1.69,1.69,0,0,1,1.52-1.81"/><path class="cls-5" d="M65.25,13.94a1.69,1.69,0,0,1,1.52-1.81"/><path class="cls-5" d="M69.92,13.94a1.69,1.69,0,0,1,1.52-1.81"/><path class="cls-5" d="M74.58,13.94a1.69,1.69,0,0,1,1.52-1.81"/><path class="cls-5" d="M41.9,13.94a1.69,1.69,0,0,1,1.52-1.81"/><rect class="cls-5" x="2.43" y="13.4" width="78.89" height="63.78" rx="2.96" ry="2.96"/><path class="cls-24" d="M15.14,46H13.93v-.27H15.6l-1.18,2.34h-.33Z"/><path class="cls-24" d="M24.25,47a.59.59,0,0,1-.07.29.66.66,0,0,1-.18.22.83.83,0,0,1-.26.14,1,1,0,0,1-.32,0,1,1,0,0,1-.33-.05.81.81,0,0,1-.26-.15.68.68,0,0,1-.17-.22A.62.62,0,0,1,22.6,47a.51.51,0,0,1,0-.2.67.67,0,0,1,.1-.17.7.7,0,0,1,.14-.13l.16-.08-.14-.08a.61.61,0,0,1-.12-.11.53.53,0,0,1-.08-.13.43.43,0,0,1,0-.16.51.51,0,0,1,.07-.26.65.65,0,0,1,.17-.19.77.77,0,0,1,.24-.12.92.92,0,0,1,.26,0,.94.94,0,0,1,.27,0,.79.79,0,0,1,.24.12.63.63,0,0,1,.18.19.5.5,0,0,1,.07.26.43.43,0,0,1-.11.29.69.69,0,0,1-.26.19l.17.09a.66.66,0,0,1,.14.13.59.59,0,0,1,.1.17A.55.55,0,0,1,24.25,47ZM24,47a.38.38,0,0,0,0-.19.47.47,0,0,0-.12-.14.53.53,0,0,0-.17-.09l-.19,0a.59.59,0,0,0-.19,0,.52.52,0,0,0-.17.09.45.45,0,0,0-.12.14.4.4,0,0,0,0,.19.36.36,0,0,0,0,.19.43.43,0,0,0,.12.14.56.56,0,0,0,.17.09.61.61,0,0,0,.19,0,.59.59,0,0,0,.36-.12.47.47,0,0,0,.12-.14A.36.36,0,0,0,24,47Zm-1-1a.3.3,0,0,0,0,.16.37.37,0,0,0,.11.11.48.48,0,0,0,.14.07l.16,0,.16,0,.15-.07a.37.37,0,0,0,.11-.12.31.31,0,0,0,0-.31.37.37,0,0,0-.1-.11.47.47,0,0,0-.15-.07l-.17,0-.17,0a.41.41,0,0,0-.14.07.39.39,0,0,0-.1.12A.31.31,0,0,0,23,45.94Z"/><path class="cls-24" d="M31.26,46.58a.78.78,0,0,1,.06-.32.8.8,0,0,1,.18-.26.84.84,0,0,1,.27-.17.86.86,0,0,1,.33-.06.85.85,0,0,1,.34.07.75.75,0,0,1,.27.2.93.93,0,0,1,.17.32,1.35,1.35,0,0,1,.06.42,2.64,2.64,0,0,1-.06.61,1.35,1.35,0,0,1-.18.43.73.73,0,0,1-.64.35.81.81,0,0,1-.41-.11.76.76,0,0,1-.29-.31l.18-.18a.58.58,0,0,0,.53.34.5.5,0,0,0,.43-.24,1.24,1.24,0,0,0,.17-.68.58.58,0,0,1-.23.27.67.67,0,0,1-.37.1.82.82,0,0,1-.32-.06.79.79,0,0,1-.26-.17.78.78,0,0,1-.23-.56ZM32.1,46a.52.52,0,0,0-.22,0,.56.56,0,0,0-.18.12.59.59,0,0,0-.12.18.55.55,0,0,0,0,.43.57.57,0,0,0,.12.18.59.59,0,0,0,.18.12.54.54,0,0,0,.43,0,.6.6,0,0,0,.18-.12.55.55,0,0,0,.12-.18.51.51,0,0,0,0-.22.53.53,0,0,0,0-.21.56.56,0,0,0-.3-.3A.53.53,0,0,0,32.1,46Z"/><path class="cls-24" d="M40.46,47.4v.26H39.28V47.4h.47V46.11l-.09.08-.14.08-.16.06-.15,0v-.28a.39.39,0,0,0,.16,0l.17-.1.14-.11.07-.07H40V47.4Z"/><path class="cls-24" d="M42.39,46.69a1.25,1.25,0,0,1-.06.4,1,1,0,0,1-.18.32.8.8,0,0,1-.27.21.76.76,0,0,1-.33.07.77.77,0,0,1-.33-.07.79.79,0,0,1-.26-.21,1,1,0,0,1-.17-.32,1.32,1.32,0,0,1,0-.8A1,1,0,0,1,41,46a.81.81,0,0,1,.26-.21.74.74,0,0,1,.33-.08.73.73,0,0,1,.33.08.81.81,0,0,1,.27.21,1,1,0,0,1,.18.32A1.25,1.25,0,0,1,42.39,46.69Zm-.29,0a1.06,1.06,0,0,0,0-.3.74.74,0,0,0-.11-.23.53.53,0,0,0-.17-.15.46.46,0,0,0-.22-.05.47.47,0,0,0-.22.05.5.5,0,0,0-.17.15.74.74,0,0,0-.11.23,1.13,1.13,0,0,0,0,.6.71.71,0,0,0,.11.23.49.49,0,0,0,.17.15.47.47,0,0,0,.22.05.46.46,0,0,0,.22-.05.53.53,0,0,0,.17-.15.71.71,0,0,0,.11-.23A1.06,1.06,0,0,0,42.09,46.69Z"/><path class="cls-24" d="M49.43,47.4v.26H48.24V47.4h.47V46.11l-.09.08-.14.08-.16.06-.15,0v-.28a.39.39,0,0,0,.16,0l.17-.1.14-.11.07-.07H49V47.4Z"/><path class="cls-24" d="M50.91,47.4v.26H49.73V47.4h.47V46.11l-.09.08-.14.08-.16.06-.15,0v-.28a.39.39,0,0,0,.16,0L50,46l.14-.11.07-.07h.3V47.4Z"/><path class="cls-24" d="M58,47.4v.26H56.8V47.4h.47V46.11l-.09.08-.14.08-.16.06-.15,0v-.28a.39.39,0,0,0,.16,0l.17-.1.14-.11.07-.07h.3V47.4Z"/><path class="cls-24" d="M58.2,47.66a1.42,1.42,0,0,1,0-.25.74.74,0,0,1,.08-.22.83.83,0,0,1,.16-.2,1.49,1.49,0,0,1,.27-.19l.2-.1.19-.11a.67.67,0,0,0,.14-.12.23.23,0,0,0,.05-.16.27.27,0,0,0,0-.11.3.3,0,0,0-.08-.1.38.38,0,0,0-.12-.07l-.17,0a.53.53,0,0,0-.18,0l-.14.07-.11.09-.08.08-.19-.21.09-.08.16-.1.22-.09a1,1,0,0,1,.28,0,.86.86,0,0,1,.27,0,.62.62,0,0,1,.21.11.52.52,0,0,1,.13.17.48.48,0,0,1,0,.21.44.44,0,0,1-.06.22.72.72,0,0,1-.14.17l-.17.12-.17.09-.16.09-.17.12a.83.83,0,0,0-.14.14.4.4,0,0,0-.08.17h1.13v.26Z"/><path class="cls-24" d="M66.67,47.4v.26H65.48V47.4H66V46.11l-.09.08-.14.08-.16.06-.15,0v-.28a.39.39,0,0,0,.16,0l.17-.1.14-.11.07-.07h.3V47.4Z"/><path class="cls-24" d="M67.93,46.88a.52.52,0,0,1,.33.2.61.61,0,0,1,.12.39.66.66,0,0,1-.06.28.61.61,0,0,1-.16.21.74.74,0,0,1-.25.14,1,1,0,0,1-.32,0,1,1,0,0,1-.44-.09.71.71,0,0,1-.3-.27l.2-.19a.57.57,0,0,0,.2.21.65.65,0,0,0,.34.08.56.56,0,0,0,.36-.1.37.37,0,0,0,.13-.31.42.42,0,0,0-.14-.33.6.6,0,0,0-.41-.12h-.09v-.25h.09a.53.53,0,0,0,.36-.11.37.37,0,0,0,.13-.29.3.3,0,0,0-.12-.26.52.52,0,0,0-.31-.09.63.63,0,0,0-.32.08.54.54,0,0,0-.21.22l-.18-.18A.55.55,0,0,1,67,46a.81.81,0,0,1,.17-.12l.21-.08.24,0a.91.91,0,0,1,.29,0,.69.69,0,0,1,.22.12.52.52,0,0,1,.15.18.57.57,0,0,1,.05.24.62.62,0,0,1,0,.19.54.54,0,0,1-.08.16.47.47,0,0,1-.13.12A.48.48,0,0,1,67.93,46.88Z"/><path class="cls-24" d="M14.47,54.42v.26H13.28v-.26h.47V53.13l-.09.08-.14.08-.16.06-.15,0v-.28a.39.39,0,0,0,.16,0l.17-.1.14-.11.07-.07H14v1.62Z"/><path class="cls-24" d="M15.69,55.1v-.56H14.63v-.26l1.15-1.49H16v1.48h.29v.26H16v.56Zm-.76-.82h.79v-1Z"/><path class="cls-24" d="M23.18,54.42v.26H22v-.26h.47V53.13l-.09.08-.14.08-.16.06-.15,0v-.28a.39.39,0,0,0,.16,0l.17-.1.14-.11.07-.07h.3v1.62Z"/><path class="cls-24" d="M24.19,53.65a.83.83,0,0,1,.3.05.71.71,0,0,1,.24.15.7.7,0,0,1,.16.24.76.76,0,0,1,.06.3.77.77,0,0,1-.06.32.73.73,0,0,1-.18.25.79.79,0,0,1-.26.16.93.93,0,0,1-.32.06.87.87,0,0,1-.45-.12.77.77,0,0,1-.3-.32l.18-.16a.72.72,0,0,0,.25.24.63.63,0,0,0,.33.09.57.57,0,0,0,.21,0,.52.52,0,0,0,.17-.11.48.48,0,0,0,.11-.16.55.55,0,0,0,0-.21.51.51,0,0,0,0-.2.47.47,0,0,0-.11-.16.48.48,0,0,0-.16-.1.53.53,0,0,0-.2,0,.58.58,0,0,0-.27.06.53.53,0,0,0-.2.18h-.26l0-.08,0-.17,0-.22,0-.24.13-.64h1.14v.27H23.9l-.14.75a.53.53,0,0,1,.18-.12A.66.66,0,0,1,24.19,53.65Z"/><path class="cls-24" d="M31.78,54.42v.26H30.59v-.26h.47V53.13l-.09.08-.14.08-.16.06-.15,0v-.28a.39.39,0,0,0,.16,0l.17-.1.14-.11.07-.07h.3v1.62Z"/><path class="cls-24" d="M33.71,53.91a.77.77,0,0,1-.06.31.79.79,0,0,1-.18.26.83.83,0,0,1-.27.17.87.87,0,0,1-.33.06.85.85,0,0,1-.34-.07.77.77,0,0,1-.27-.2.93.93,0,0,1-.17-.32,1.35,1.35,0,0,1-.06-.42,2.59,2.59,0,0,1,.06-.61,1.33,1.33,0,0,1,.18-.43.77.77,0,0,1,.28-.26.76.76,0,0,1,.36-.09.8.8,0,0,1,.42.11.76.76,0,0,1,.29.31l-.18.17a.58.58,0,0,0-.21-.25.58.58,0,0,0-.32-.09.49.49,0,0,0-.24.06.56.56,0,0,0-.19.18.94.94,0,0,0-.12.29,1.7,1.7,0,0,0,0,.39.58.58,0,0,1,.23-.27.68.68,0,0,1,.37-.1.84.84,0,0,1,.32.06.81.81,0,0,1,.26.17.78.78,0,0,1,.17.25A.76.76,0,0,1,33.71,53.91Zm-.84.56a.52.52,0,0,0,.21,0,.56.56,0,0,0,.18-.12.58.58,0,0,0,.12-.18.53.53,0,0,0,0-.22.54.54,0,0,0,0-.21.56.56,0,0,0-.12-.18.6.6,0,0,0-.18-.12.55.55,0,0,0-.43,0,.6.6,0,0,0-.18.12.55.55,0,0,0-.12.18.52.52,0,0,0,0,.21.52.52,0,0,0,0,.22.57.57,0,0,0,.3.3A.52.52,0,0,0,32.88,54.47Z"/><path class="cls-24" d="M40.59,54.42v.26H39.41v-.26h.47V53.13l-.09.08-.14.08-.16.06-.15,0v-.28a.39.39,0,0,0,.16,0l.17-.1.14-.11.07-.07h.3v1.62Z"/><path class="cls-24" d="M42,53H40.76v-.27h1.66L41.24,55.1h-.33Z"/><path class="cls-24" d="M49.18,54.42v.26H48v-.26h.47V53.13l-.09.08-.14.08-.16.06-.15,0v-.28a.39.39,0,0,0,.16,0l.17-.1.14-.11.07-.07h.3v1.62Z"/><path class="cls-24" d="M51.07,54a.59.59,0,0,1-.07.29.66.66,0,0,1-.18.22.83.83,0,0,1-.26.14,1,1,0,0,1-.32,0,1,1,0,0,1-.33-.05.81.81,0,0,1-.26-.15.68.68,0,0,1-.17-.22.62.62,0,0,1-.06-.28.51.51,0,0,1,0-.2.67.67,0,0,1,.1-.17.7.7,0,0,1,.14-.13l.16-.08-.14-.08a.61.61,0,0,1-.12-.11.53.53,0,0,1-.08-.13.43.43,0,0,1,0-.16.51.51,0,0,1,.07-.26.65.65,0,0,1,.17-.19.77.77,0,0,1,.24-.12.92.92,0,0,1,.26,0,.94.94,0,0,1,.27,0,.79.79,0,0,1,.24.12.63.63,0,0,1,.18.19A.5.5,0,0,1,51,53a.43.43,0,0,1-.11.29.69.69,0,0,1-.26.19l.17.09a.66.66,0,0,1,.14.13.59.59,0,0,1,.1.17A.55.55,0,0,1,51.07,54Zm-.29,0a.38.38,0,0,0,0-.19.47.47,0,0,0-.12-.14.53.53,0,0,0-.17-.09l-.19,0a.59.59,0,0,0-.19,0,.52.52,0,0,0-.17.09.45.45,0,0,0-.12.14.4.4,0,0,0,0,.19.36.36,0,0,0,0,.19.43.43,0,0,0,.12.14.56.56,0,0,0,.17.09.61.61,0,0,0,.19,0,.59.59,0,0,0,.36-.12.47.47,0,0,0,.12-.14A.36.36,0,0,0,50.78,54Zm-1-1a.3.3,0,0,0,0,.16.37.37,0,0,0,.11.11.48.48,0,0,0,.14.07l.16,0,.16,0,.15-.07a.37.37,0,0,0,.11-.12.31.31,0,0,0,0-.31.37.37,0,0,0-.1-.11.47.47,0,0,0-.15-.07l-.17,0-.17,0a.41.41,0,0,0-.14.07.39.39,0,0,0-.1.12A.31.31,0,0,0,49.8,53Z"/><path class="cls-24" d="M57.89,54.42v.26H56.71v-.26h.47V53.13l-.09.08-.14.08-.16.06-.15,0v-.28a.39.39,0,0,0,.16,0L57,53l.14-.11.07-.07h.3v1.62Z"/><path class="cls-24" d="M58.09,53.61a.78.78,0,0,1,.06-.32.8.8,0,0,1,.18-.26.84.84,0,0,1,.27-.17.86.86,0,0,1,.33-.06.85.85,0,0,1,.34.07.75.75,0,0,1,.27.2.93.93,0,0,1,.17.32,1.35,1.35,0,0,1,.06.42,2.64,2.64,0,0,1-.06.61,1.35,1.35,0,0,1-.18.43.73.73,0,0,1-.64.35.81.81,0,0,1-.41-.11.76.76,0,0,1-.29-.31l.18-.18a.58.58,0,0,0,.53.34.5.5,0,0,0,.43-.24A1.24,1.24,0,0,0,59.5,54a.58.58,0,0,1-.23.27.67.67,0,0,1-.37.1.82.82,0,0,1-.32-.06.79.79,0,0,1-.26-.17.78.78,0,0,1-.23-.56Zm.83-.56a.52.52,0,0,0-.22,0,.56.56,0,0,0-.18.12.59.59,0,0,0-.12.18.55.55,0,0,0,0,.43.57.57,0,0,0,.12.18.59.59,0,0,0,.18.12.54.54,0,0,0,.43,0,.6.6,0,0,0,.18-.12.55.55,0,0,0,.12-.18.51.51,0,0,0,0-.22.53.53,0,0,0,0-.21.56.56,0,0,0-.3-.3A.53.53,0,0,0,58.92,53.05Z"/><path class="cls-24" d="M65.14,54.68a1.42,1.42,0,0,1,0-.25.74.74,0,0,1,.08-.22.83.83,0,0,1,.16-.2,1.49,1.49,0,0,1,.27-.19l.2-.1.19-.11a.67.67,0,0,0,.14-.12.23.23,0,0,0,.05-.16.27.27,0,0,0,0-.11.3.3,0,0,0-.08-.1.38.38,0,0,0-.12-.07l-.17,0a.53.53,0,0,0-.18,0l-.14.07-.11.09-.08.08-.19-.21.09-.08.16-.1.22-.09a1,1,0,0,1,.28,0,.86.86,0,0,1,.27,0,.62.62,0,0,1,.21.11.52.52,0,0,1,.13.17.48.48,0,0,1,0,.21.44.44,0,0,1-.06.22.72.72,0,0,1-.14.17l-.17.12L66,53.9l-.16.09-.17.12a.83.83,0,0,0-.14.14.4.4,0,0,0-.08.17h1.13v.26Z"/><path class="cls-24" d="M68.61,53.72a1.25,1.25,0,0,1-.06.4,1,1,0,0,1-.18.32.8.8,0,0,1-.27.21.76.76,0,0,1-.33.07.77.77,0,0,1-.33-.07.79.79,0,0,1-.26-.21,1,1,0,0,1-.17-.32,1.32,1.32,0,0,1,0-.8,1,1,0,0,1,.17-.32.81.81,0,0,1,.26-.21.74.74,0,0,1,.33-.08.73.73,0,0,1,.33.08.81.81,0,0,1,.27.21,1,1,0,0,1,.18.32A1.25,1.25,0,0,1,68.61,53.72Zm-.29,0a1.06,1.06,0,0,0,0-.3.74.74,0,0,0-.11-.23A.53.53,0,0,0,68,53a.46.46,0,0,0-.22-.05.47.47,0,0,0-.22.05.5.5,0,0,0-.17.15.74.74,0,0,0-.11.23,1.13,1.13,0,0,0,0,.6.71.71,0,0,0,.11.23.49.49,0,0,0,.17.15.47.47,0,0,0,.22.05.46.46,0,0,0,.22-.05.53.53,0,0,0,.17-.15.71.71,0,0,0,.11-.23A1.06,1.06,0,0,0,68.32,53.72Z"/><path class="cls-24" d="M13.24,61.71a1.42,1.42,0,0,1,0-.25.74.74,0,0,1,.08-.22.83.83,0,0,1,.16-.2,1.49,1.49,0,0,1,.27-.19l.2-.1.19-.11a.67.67,0,0,0,.14-.12.23.23,0,0,0,.05-.16.27.27,0,0,0,0-.11.3.3,0,0,0-.08-.1.38.38,0,0,0-.12-.07L14,60a.53.53,0,0,0-.18,0l-.14.07-.11.09-.08.08-.19-.21.09-.08.16-.1.22-.09a1,1,0,0,1,.28,0,.86.86,0,0,1,.27,0,.62.62,0,0,1,.21.11.52.52,0,0,1,.13.17.48.48,0,0,1,0,.21.44.44,0,0,1-.06.22.72.72,0,0,1-.14.17l-.17.12-.17.09L14,61l-.17.12a.83.83,0,0,0-.14.14.4.4,0,0,0-.08.17h1.13v.26Z"/><path class="cls-24" d="M16.27,61.45v.26H15.09v-.26h.47V60.16l-.09.08-.14.08-.16.06-.15,0v-.28a.39.39,0,0,0,.16,0l.17-.1.14-.11.07-.07h.3v1.62Z"/><path class="cls-24" d="M21.8,61.71a1.42,1.42,0,0,1,0-.25.74.74,0,0,1,.08-.22.83.83,0,0,1,.16-.2,1.49,1.49,0,0,1,.27-.19l.2-.1.19-.11a.67.67,0,0,0,.14-.12.23.23,0,0,0,.05-.16.27.27,0,0,0,0-.11.3.3,0,0,0-.08-.1.38.38,0,0,0-.12-.07l-.17,0a.53.53,0,0,0-.18,0l-.14.07-.11.09-.08.08-.19-.21.09-.08.16-.1.22-.09a1,1,0,0,1,.28,0,.86.86,0,0,1,.27,0,.62.62,0,0,1,.21.11.52.52,0,0,1,.13.17.48.48,0,0,1,0,.21.44.44,0,0,1-.06.22.72.72,0,0,1-.14.17l-.17.12-.17.09-.16.09-.17.12a.83.83,0,0,0-.14.14.4.4,0,0,0-.08.17h1.13v.26Z"/><path class="cls-24" d="M23.56,61.71a1.42,1.42,0,0,1,0-.25.74.74,0,0,1,.08-.22.83.83,0,0,1,.16-.2,1.49,1.49,0,0,1,.27-.19l.2-.1.19-.11a.67.67,0,0,0,.14-.12.23.23,0,0,0,.05-.16.27.27,0,0,0,0-.11.3.3,0,0,0-.08-.1.38.38,0,0,0-.12-.07l-.17,0a.53.53,0,0,0-.18,0l-.14.07-.11.09-.08.08-.19-.21.09-.08.16-.1.22-.09a1,1,0,0,1,.28,0,.86.86,0,0,1,.27,0,.62.62,0,0,1,.21.11.52.52,0,0,1,.13.17.48.48,0,0,1,0,.21.44.44,0,0,1-.06.22.72.72,0,0,1-.14.17l-.17.12-.17.09L24.3,61l-.17.12a.83.83,0,0,0-.14.14.4.4,0,0,0-.08.17H25v.26Z"/><path class="cls-24" d="M30.48,61.71a1.42,1.42,0,0,1,0-.25.74.74,0,0,1,.08-.22.83.83,0,0,1,.16-.2,1.49,1.49,0,0,1,.27-.19l.2-.1.19-.11a.67.67,0,0,0,.14-.12.23.23,0,0,0,.05-.16.27.27,0,0,0,0-.11.3.3,0,0,0-.08-.1.38.38,0,0,0-.12-.07l-.17,0a.53.53,0,0,0-.18,0l-.14.07-.11.09-.08.08-.19-.21L30.6,60l.16-.1.22-.09a1,1,0,0,1,.28,0,.86.86,0,0,1,.27,0,.62.62,0,0,1,.21.11.52.52,0,0,1,.13.17.48.48,0,0,1,0,.21.44.44,0,0,1-.06.22.72.72,0,0,1-.14.17l-.17.12-.17.09-.16.09-.17.12a.83.83,0,0,0-.14.14.4.4,0,0,0-.08.17H32v.26Z"/><path class="cls-24" d="M33.29,60.93a.52.52,0,0,1,.33.2.61.61,0,0,1,.12.39.66.66,0,0,1-.06.28.61.61,0,0,1-.16.21.74.74,0,0,1-.25.14,1,1,0,0,1-.32,0,1,1,0,0,1-.44-.09.71.71,0,0,1-.3-.27l.2-.19a.57.57,0,0,0,.2.21.65.65,0,0,0,.34.08.56.56,0,0,0,.36-.1.37.37,0,0,0,.13-.31.42.42,0,0,0-.14-.33.6.6,0,0,0-.41-.12h-.09v-.25h.09a.53.53,0,0,0,.36-.11.37.37,0,0,0,.13-.29.3.3,0,0,0-.12-.26.52.52,0,0,0-.31-.09.63.63,0,0,0-.32.08.54.54,0,0,0-.21.22l-.18-.18a.55.55,0,0,1,.12-.15.81.81,0,0,1,.17-.12l.21-.08.24,0a.91.91,0,0,1,.29,0,.69.69,0,0,1,.22.12.52.52,0,0,1,.15.18.57.57,0,0,1,.05.24.62.62,0,0,1,0,.19.54.54,0,0,1-.08.16.47.47,0,0,1-.13.12A.48.48,0,0,1,33.29,60.93Z"/><path class="cls-24" d="M39.15,61.71a1.42,1.42,0,0,1,0-.25.74.74,0,0,1,.08-.22.83.83,0,0,1,.16-.2,1.49,1.49,0,0,1,.27-.19l.2-.1.19-.11a.67.67,0,0,0,.14-.12.23.23,0,0,0,.05-.16.27.27,0,0,0,0-.11.3.3,0,0,0-.08-.1.38.38,0,0,0-.12-.07l-.17,0a.53.53,0,0,0-.18,0l-.14.07-.11.09-.08.08-.19-.21.09-.08.16-.1.22-.09a1,1,0,0,1,.28,0,.86.86,0,0,1,.27,0,.62.62,0,0,1,.21.11.52.52,0,0,1,.13.17.48.48,0,0,1,0,.21.44.44,0,0,1-.06.22.72.72,0,0,1-.14.17l-.17.12-.17.09-.16.09-.17.12a.83.83,0,0,0-.14.14.4.4,0,0,0-.08.17h1.13v.26Z"/><path class="cls-24" d="M41.91,62.13v-.56H40.85v-.26L42,59.82h.2v1.48h.29v.26H42.2v.56Zm-.76-.82h.79v-1Z"/><path class="cls-24" d="M47.86,61.71a1.42,1.42,0,0,1,0-.25.74.74,0,0,1,.08-.22.83.83,0,0,1,.16-.2,1.49,1.49,0,0,1,.27-.19l.2-.1.19-.11a.67.67,0,0,0,.14-.12.23.23,0,0,0,.05-.16.27.27,0,0,0,0-.11.3.3,0,0,0-.08-.1.38.38,0,0,0-.12-.07l-.17,0a.53.53,0,0,0-.18,0l-.14.07-.11.09-.08.08-.19-.21L48,60l.16-.1.22-.09a1,1,0,0,1,.28,0,.86.86,0,0,1,.27,0,.62.62,0,0,1,.21.11.52.52,0,0,1,.13.17.48.48,0,0,1,0,.21.44.44,0,0,1-.06.22.72.72,0,0,1-.14.17l-.17.12-.17.09L48.6,61l-.17.12a.83.83,0,0,0-.14.14.4.4,0,0,0-.08.17h1.13v.26Z"/><path class="cls-24" d="M50.41,60.67a.83.83,0,0,1,.3.05.71.71,0,0,1,.24.15.7.7,0,0,1,.16.24.76.76,0,0,1,.06.3.77.77,0,0,1-.06.32.73.73,0,0,1-.18.25.79.79,0,0,1-.26.16.93.93,0,0,1-.32.06.87.87,0,0,1-.45-.12.77.77,0,0,1-.3-.32l.18-.16a.72.72,0,0,0,.25.24.63.63,0,0,0,.33.09.57.57,0,0,0,.21,0,.52.52,0,0,0,.17-.11.48.48,0,0,0,.11-.16.55.55,0,0,0,0-.21.51.51,0,0,0,0-.2.47.47,0,0,0-.11-.16.48.48,0,0,0-.16-.1.53.53,0,0,0-.2,0,.58.58,0,0,0-.27.06.53.53,0,0,0-.2.18h-.26l0-.08,0-.17,0-.22,0-.24.13-.64H51v.27h-.92l-.14.75a.53.53,0,0,1,.18-.12A.66.66,0,0,1,50.41,60.67Z"/><path class="cls-24" d="M56.46,61.71a1.42,1.42,0,0,1,0-.25.74.74,0,0,1,.08-.22.83.83,0,0,1,.16-.2,1.49,1.49,0,0,1,.27-.19l.2-.1.19-.11a.67.67,0,0,0,.14-.12.23.23,0,0,0,.05-.16.27.27,0,0,0,0-.11.3.3,0,0,0-.08-.1.38.38,0,0,0-.12-.07l-.17,0a.53.53,0,0,0-.18,0l-.14.07-.11.09-.08.08-.19-.21.09-.08.16-.1.22-.09a1,1,0,0,1,.28,0,.86.86,0,0,1,.27,0,.62.62,0,0,1,.21.11.52.52,0,0,1,.13.17.48.48,0,0,1,0,.21.44.44,0,0,1-.06.22.72.72,0,0,1-.14.17l-.17.12-.17.09L57.2,61l-.17.12a.83.83,0,0,0-.14.14.4.4,0,0,0-.08.17h1.13v.26Z"/><path class="cls-24" d="M59.94,60.93a.77.77,0,0,1-.06.31.79.79,0,0,1-.18.26.83.83,0,0,1-.27.17.87.87,0,0,1-.33.06.85.85,0,0,1-.34-.07.77.77,0,0,1-.27-.2.93.93,0,0,1-.17-.32,1.35,1.35,0,0,1-.06-.42,2.59,2.59,0,0,1,.06-.61,1.33,1.33,0,0,1,.18-.43.77.77,0,0,1,.28-.26.76.76,0,0,1,.36-.09.8.8,0,0,1,.42.11.76.76,0,0,1,.29.31l-.18.17a.58.58,0,0,0-.21-.25.58.58,0,0,0-.32-.09.49.49,0,0,0-.24.06.56.56,0,0,0-.19.18.94.94,0,0,0-.12.29,1.7,1.7,0,0,0,0,.39.58.58,0,0,1,.23-.27.68.68,0,0,1,.37-.1.84.84,0,0,1,.32.06.81.81,0,0,1,.26.17.78.78,0,0,1,.17.25A.76.76,0,0,1,59.94,60.93Zm-.84.56a.52.52,0,0,0,.21,0,.56.56,0,0,0,.18-.12.58.58,0,0,0,.12-.18.53.53,0,0,0,0-.22.54.54,0,0,0,0-.21.56.56,0,0,0-.12-.18.6.6,0,0,0-.18-.12.55.55,0,0,0-.43,0,.6.6,0,0,0-.18.12.55.55,0,0,0-.12.18.52.52,0,0,0,0,.21.52.52,0,0,0,0,.22.57.57,0,0,0,.3.3A.52.52,0,0,0,59.1,61.49Z"/><path class="cls-24" d="M65.27,61.71a1.42,1.42,0,0,1,0-.25.74.74,0,0,1,.08-.22.83.83,0,0,1,.16-.2,1.49,1.49,0,0,1,.27-.19l.2-.1.19-.11a.67.67,0,0,0,.14-.12.23.23,0,0,0,.05-.16.27.27,0,0,0,0-.11.3.3,0,0,0-.08-.1.38.38,0,0,0-.12-.07L66,60a.53.53,0,0,0-.18,0l-.14.07-.11.09-.08.08-.19-.21.09-.08.16-.1.22-.09a1,1,0,0,1,.28,0,.86.86,0,0,1,.27,0,.62.62,0,0,1,.21.11.52.52,0,0,1,.13.17.48.48,0,0,1,0,.21.44.44,0,0,1-.06.22.72.72,0,0,1-.14.17l-.17.12-.17.09L66,61l-.17.12a.83.83,0,0,0-.14.14.4.4,0,0,0-.08.17h1.13v.26Z"/><path class="cls-24" d="M68.19,60.05H67v-.27h1.66l-1.18,2.34h-.33Z"/><path class="cls-24" d="M13,68.73a1.42,1.42,0,0,1,0-.25.74.74,0,0,1,.08-.22.83.83,0,0,1,.16-.2,1.49,1.49,0,0,1,.27-.19l.2-.1.19-.11a.67.67,0,0,0,.14-.12.23.23,0,0,0,.05-.16.27.27,0,0,0,0-.11.3.3,0,0,0-.08-.1.38.38,0,0,0-.12-.07l-.17,0a.53.53,0,0,0-.18,0l-.14.07-.11.09-.08.08L13,67.13l.09-.08.16-.1.22-.09a1,1,0,0,1,.28,0,.86.86,0,0,1,.27,0,.62.62,0,0,1,.21.11.52.52,0,0,1,.13.17.48.48,0,0,1,0,.21.44.44,0,0,1-.06.22.72.72,0,0,1-.14.17l-.17.12L13.9,68l-.16.09-.17.12a.83.83,0,0,0-.14.14.4.4,0,0,0-.08.17h1.13v.26Z"/><path class="cls-24" d="M16.43,68.07a.59.59,0,0,1-.07.29.66.66,0,0,1-.18.22.83.83,0,0,1-.26.14,1,1,0,0,1-.32,0,1,1,0,0,1-.33-.05.81.81,0,0,1-.26-.15.68.68,0,0,1-.17-.22.62.62,0,0,1-.06-.28.51.51,0,0,1,0-.2.67.67,0,0,1,.1-.17.7.7,0,0,1,.14-.13l.16-.08-.14-.08a.61.61,0,0,1-.12-.11.53.53,0,0,1-.08-.13.43.43,0,0,1,0-.16.51.51,0,0,1,.07-.26.65.65,0,0,1,.17-.19.77.77,0,0,1,.24-.12.92.92,0,0,1,.26,0,.94.94,0,0,1,.27,0,.79.79,0,0,1,.24.12.63.63,0,0,1,.18.19.5.5,0,0,1,.07.26.43.43,0,0,1-.11.29.69.69,0,0,1-.26.19l.17.09a.66.66,0,0,1,.14.13.59.59,0,0,1,.1.17A.55.55,0,0,1,16.43,68.07Zm-.29,0a.38.38,0,0,0,0-.19.47.47,0,0,0-.12-.14.53.53,0,0,0-.17-.09l-.19,0a.59.59,0,0,0-.19,0,.52.52,0,0,0-.17.09.45.45,0,0,0-.12.14.4.4,0,0,0,0,.19.36.36,0,0,0,0,.19.43.43,0,0,0,.12.14.56.56,0,0,0,.17.09.61.61,0,0,0,.19,0,.59.59,0,0,0,.36-.12.47.47,0,0,0,.12-.14A.36.36,0,0,0,16.14,68.05Zm-1-1a.3.3,0,0,0,0,.16.37.37,0,0,0,.11.11.48.48,0,0,0,.14.07l.16,0,.16,0,.15-.07a.37.37,0,0,0,.11-.12.31.31,0,0,0,0-.31.37.37,0,0,0-.1-.11.47.47,0,0,0-.15-.07l-.17,0-.17,0a.41.41,0,0,0-.14.07.39.39,0,0,0-.1.12A.31.31,0,0,0,15.16,67Z"/><path class="cls-24" d="M21.71,68.73a1.42,1.42,0,0,1,0-.25.74.74,0,0,1,.08-.22.83.83,0,0,1,.16-.2,1.49,1.49,0,0,1,.27-.19l.2-.1.19-.11a.67.67,0,0,0,.14-.12.23.23,0,0,0,.05-.16.27.27,0,0,0,0-.11.3.3,0,0,0-.08-.1.38.38,0,0,0-.12-.07l-.17,0a.53.53,0,0,0-.18,0l-.14.07-.11.09-.08.08-.19-.21.09-.08.16-.1.22-.09a1,1,0,0,1,.28,0,.86.86,0,0,1,.27,0A.62.62,0,0,1,23,67a.52.52,0,0,1,.13.17.48.48,0,0,1,0,.21.44.44,0,0,1-.06.22.72.72,0,0,1-.14.17l-.17.12-.17.09-.16.09-.17.12a.83.83,0,0,0-.14.14.4.4,0,0,0-.08.17h1.13v.26Z"/><path class="cls-24" d="M23.45,67.66a.78.78,0,0,1,.06-.32.8.8,0,0,1,.18-.26.84.84,0,0,1,.27-.17.86.86,0,0,1,.33-.06.85.85,0,0,1,.34.07.75.75,0,0,1,.27.2.93.93,0,0,1,.17.32,1.35,1.35,0,0,1,.06.42,2.64,2.64,0,0,1-.06.61,1.35,1.35,0,0,1-.18.43.73.73,0,0,1-.64.35.81.81,0,0,1-.41-.11.76.76,0,0,1-.29-.31l.18-.18a.58.58,0,0,0,.53.34.5.5,0,0,0,.43-.24,1.24,1.24,0,0,0,.17-.68.58.58,0,0,1-.23.27.67.67,0,0,1-.37.1.82.82,0,0,1-.32-.06.79.79,0,0,1-.26-.17.78.78,0,0,1-.23-.56Zm.83-.56a.52.52,0,0,0-.22,0,.56.56,0,0,0-.18.12.59.59,0,0,0-.12.18.55.55,0,0,0,0,.43.57.57,0,0,0,.12.18.59.59,0,0,0,.18.12.54.54,0,0,0,.43,0,.6.6,0,0,0,.18-.12.55.55,0,0,0,.12-.18.51.51,0,0,0,0-.22.53.53,0,0,0,0-.21.56.56,0,0,0-.3-.3A.53.53,0,0,0,24.29,67.1Z"/><path class="cls-24" d="M31.39,68a.52.52,0,0,1,.33.2.61.61,0,0,1,.12.39.66.66,0,0,1-.06.28.61.61,0,0,1-.16.21.74.74,0,0,1-.25.14,1,1,0,0,1-.32,0,1,1,0,0,1-.44-.09.71.71,0,0,1-.3-.27l.2-.19a.57.57,0,0,0,.2.21.65.65,0,0,0,.34.08.56.56,0,0,0,.36-.1.37.37,0,0,0,.13-.31.42.42,0,0,0-.14-.33.6.6,0,0,0-.41-.12h-.09v-.25H31a.53.53,0,0,0,.36-.11.37.37,0,0,0,.13-.29.3.3,0,0,0-.12-.26.52.52,0,0,0-.31-.09.63.63,0,0,0-.32.08.54.54,0,0,0-.21.22l-.18-.18a.55.55,0,0,1,.12-.15.81.81,0,0,1,.17-.12l.21-.08.24,0a.91.91,0,0,1,.29,0,.69.69,0,0,1,.22.12.52.52,0,0,1,.15.18.57.57,0,0,1,.05.24.62.62,0,0,1,0,.19.54.54,0,0,1-.08.16.47.47,0,0,1-.13.12A.48.48,0,0,1,31.39,68Z"/><path class="cls-24" d="M33.84,67.77a1.25,1.25,0,0,1-.06.4,1,1,0,0,1-.18.32.8.8,0,0,1-.27.21.76.76,0,0,1-.33.07.77.77,0,0,1-.33-.07.79.79,0,0,1-.26-.21,1,1,0,0,1-.17-.32,1.32,1.32,0,0,1,0-.8,1,1,0,0,1,.17-.32.81.81,0,0,1,.26-.21.74.74,0,0,1,.33-.08.73.73,0,0,1,.33.08.81.81,0,0,1,.27.21,1,1,0,0,1,.18.32A1.25,1.25,0,0,1,33.84,67.77Zm-.29,0a1.06,1.06,0,0,0,0-.3.74.74,0,0,0-.11-.23.53.53,0,0,0-.17-.15A.46.46,0,0,0,33,67a.47.47,0,0,0-.22.05.5.5,0,0,0-.17.15.74.74,0,0,0-.11.23,1.13,1.13,0,0,0,0,.6.71.71,0,0,0,.11.23.49.49,0,0,0,.17.15.47.47,0,0,0,.22.05.46.46,0,0,0,.22-.05.53.53,0,0,0,.17-.15.71.71,0,0,0,.11-.23A1.06,1.06,0,0,0,33.55,67.77Z"/><path class="cls-24" d="M40.36,68a.52.52,0,0,1,.33.2.61.61,0,0,1,.12.39.66.66,0,0,1-.06.28.61.61,0,0,1-.16.21.74.74,0,0,1-.25.14,1,1,0,0,1-.32,0,1,1,0,0,1-.44-.09.71.71,0,0,1-.3-.27l.2-.19a.57.57,0,0,0,.2.21A.65.65,0,0,0,40,69a.56.56,0,0,0,.36-.1.37.37,0,0,0,.13-.31.42.42,0,0,0-.14-.33.6.6,0,0,0-.41-.12h-.09v-.25H40a.53.53,0,0,0,.36-.11.37.37,0,0,0,.13-.29.3.3,0,0,0-.12-.26.52.52,0,0,0-.31-.09.63.63,0,0,0-.32.08.54.54,0,0,0-.21.22l-.18-.18a.55.55,0,0,1,.12-.15.81.81,0,0,1,.17-.12l.21-.08.24,0a.91.91,0,0,1,.29,0,.69.69,0,0,1,.22.12.52.52,0,0,1,.15.18.57.57,0,0,1,.05.24.62.62,0,0,1,0,.19.54.54,0,0,1-.08.16.47.47,0,0,1-.13.12A.48.48,0,0,1,40.36,68Z"/><path class="cls-24" d="M42.36,68.47v.26H41.18v-.26h.47V67.18l-.09.08-.14.08-.16.06-.15,0v-.28a.39.39,0,0,0,.16,0l.17-.1.14-.11.07-.07h.3v1.62Z"/><path class="cls-24" d="M24.78,40.35v.26H23.6v-.26h.47V39.07l-.09.08-.14.08-.16.06-.15,0V39a.39.39,0,0,0,.16,0l.17-.1L24,38.8l.07-.07h.3v1.62Z"/><path class="cls-24" d="M32.07,40.62a1.42,1.42,0,0,1,0-.25.74.74,0,0,1,.08-.22.83.83,0,0,1,.16-.2,1.49,1.49,0,0,1,.27-.19l.2-.1.19-.11a.67.67,0,0,0,.14-.12.23.23,0,0,0,.05-.16.27.27,0,0,0,0-.11.3.3,0,0,0-.08-.1A.38.38,0,0,0,33,39l-.17,0a.53.53,0,0,0-.18,0l-.14.07-.11.09-.08.08L32.1,39l.09-.08.16-.1.22-.09a1,1,0,0,1,.28,0,.86.86,0,0,1,.27,0,.62.62,0,0,1,.21.11.52.52,0,0,1,.13.17.48.48,0,0,1,0,.21.44.44,0,0,1-.06.22.72.72,0,0,1-.14.17l-.17.12-.17.09-.16.09-.17.12a.83.83,0,0,0-.14.14.4.4,0,0,0-.08.17h1.13v.26Z"/><path class="cls-24" d="M41.8,39.84a.52.52,0,0,1,.33.2.61.61,0,0,1,.12.39.66.66,0,0,1-.06.28.61.61,0,0,1-.16.21.74.74,0,0,1-.25.14,1,1,0,0,1-.32,0A1,1,0,0,1,41,41a.71.71,0,0,1-.3-.27l.2-.19a.57.57,0,0,0,.2.21.65.65,0,0,0,.34.08.56.56,0,0,0,.36-.1.37.37,0,0,0,.13-.31.42.42,0,0,0-.14-.33.6.6,0,0,0-.41-.12h-.09v-.25h.09a.53.53,0,0,0,.36-.11.37.37,0,0,0,.13-.29.3.3,0,0,0-.12-.26.52.52,0,0,0-.31-.09.63.63,0,0,0-.32.08.54.54,0,0,0-.21.22l-.18-.18a.55.55,0,0,1,.12-.15.81.81,0,0,1,.17-.12l.21-.08.24,0a.91.91,0,0,1,.29,0,.69.69,0,0,1,.22.12.52.52,0,0,1,.15.18.57.57,0,0,1,.05.24.62.62,0,0,1,0,.19.54.54,0,0,1-.08.16.47.47,0,0,1-.13.12A.48.48,0,0,1,41.8,39.84Z"/><path class="cls-24" d="M50.42,41v-.56H49.36v-.26l1.15-1.49h.2v1.48H51v.26h-.29V41Zm-.76-.82h.79v-1Z"/><path class="cls-24" d="M58.92,39.58a.83.83,0,0,1,.3.05.71.71,0,0,1,.24.15.7.7,0,0,1,.16.24.76.76,0,0,1,.06.3.77.77,0,0,1-.06.32.73.73,0,0,1-.18.25.79.79,0,0,1-.26.16.93.93,0,0,1-.32.06.87.87,0,0,1-.45-.12.77.77,0,0,1-.3-.32l.18-.16a.72.72,0,0,0,.25.24.63.63,0,0,0,.33.09.57.57,0,0,0,.21,0,.52.52,0,0,0,.17-.11.48.48,0,0,0,.11-.16.55.55,0,0,0,0-.21.51.51,0,0,0,0-.2.47.47,0,0,0-.11-.16.48.48,0,0,0-.16-.1.53.53,0,0,0-.2,0,.58.58,0,0,0-.27.06.53.53,0,0,0-.2.18h-.26l0-.08,0-.17,0-.22,0-.24.13-.64h1.14V39h-.92l-.14.75a.53.53,0,0,1,.18-.12A.66.66,0,0,1,58.92,39.58Z"/><path class="cls-24" d="M68.45,39.84a.77.77,0,0,1-.06.31.79.79,0,0,1-.18.26.83.83,0,0,1-.27.17.87.87,0,0,1-.33.06.85.85,0,0,1-.34-.07.77.77,0,0,1-.27-.2.93.93,0,0,1-.17-.32,1.35,1.35,0,0,1-.06-.42,2.59,2.59,0,0,1,.06-.61A1.33,1.33,0,0,1,67,38.6a.77.77,0,0,1,.28-.26.76.76,0,0,1,.36-.09.8.8,0,0,1,.42.11.76.76,0,0,1,.29.31l-.18.17A.58.58,0,0,0,68,38.6a.58.58,0,0,0-.32-.09.49.49,0,0,0-.24.06.56.56,0,0,0-.19.18.94.94,0,0,0-.12.29,1.7,1.7,0,0,0,0,.39.58.58,0,0,1,.23-.27.68.68,0,0,1,.37-.1.84.84,0,0,1,.32.06.81.81,0,0,1,.26.17.78.78,0,0,1,.17.25A.76.76,0,0,1,68.45,39.84Zm-.84.56a.52.52,0,0,0,.21,0,.56.56,0,0,0,.18-.12.58.58,0,0,0,.12-.18.53.53,0,0,0,0-.22.54.54,0,0,0,0-.21.56.56,0,0,0-.12-.18.6.6,0,0,0-.18-.12.55.55,0,0,0-.43,0,.6.6,0,0,0-.18.12.55.55,0,0,0-.12.18.52.52,0,0,0,0,.21.52.52,0,0,0,0,.22.57.57,0,0,0,.3.3A.52.52,0,0,0,67.61,40.4Z"/><path class="cls-24" d="M14.72,30.86l-.08-.06-.14-.07-.18-.06-.2,0a.45.45,0,0,0-.27.07.22.22,0,0,0-.09.19.19.19,0,0,0,0,.12.28.28,0,0,0,.1.08l.16.06.22.06.3.1a.82.82,0,0,1,.23.13.53.53,0,0,1,.14.18.6.6,0,0,1,.05.26.66.66,0,0,1-.07.31.59.59,0,0,1-.18.21.82.82,0,0,1-.27.12,1.35,1.35,0,0,1-.32,0,1.7,1.7,0,0,1-.5-.08,1.55,1.55,0,0,1-.45-.22l.19-.38.1.07.18.09.23.08a1,1,0,0,0,.26,0q.36,0,.36-.23a.19.19,0,0,0,0-.12.35.35,0,0,0-.12-.09l-.18-.07-.24-.07-.28-.1a.74.74,0,0,1-.2-.12.45.45,0,0,1-.12-.17.57.57,0,0,1,0-.22.7.7,0,0,1,.06-.31.61.61,0,0,1,.18-.22.81.81,0,0,1,.26-.14,1.09,1.09,0,0,1,.32,0,1.26,1.26,0,0,1,.44.07,1.66,1.66,0,0,1,.35.18Z"/><path class="cls-24" d="M67.82,30.86l-.08-.06-.14-.07-.18-.06-.2,0a.45.45,0,0,0-.27.07.22.22,0,0,0-.09.19.19.19,0,0,0,0,.12.28.28,0,0,0,.1.08l.16.06.22.06.3.1a.82.82,0,0,1,.23.13.53.53,0,0,1,.14.18.6.6,0,0,1,.05.26.66.66,0,0,1-.07.31.59.59,0,0,1-.18.21.82.82,0,0,1-.27.12,1.35,1.35,0,0,1-.32,0,1.7,1.7,0,0,1-.5-.08,1.55,1.55,0,0,1-.45-.22l.19-.38.1.07.18.09.23.08a1,1,0,0,0,.26,0q.36,0,.36-.23a.19.19,0,0,0,0-.12.35.35,0,0,0-.12-.09l-.18-.07L67,31.57l-.28-.1a.74.74,0,0,1-.2-.12.45.45,0,0,1-.12-.17.57.57,0,0,1,0-.22.7.7,0,0,1,.06-.31.61.61,0,0,1,.18-.22.81.81,0,0,1,.26-.14,1.09,1.09,0,0,1,.32,0,1.26,1.26,0,0,1,.44.07,1.66,1.66,0,0,1,.35.18Z"/><path class="cls-24" d="M24,32.53V31l-.58,1.12H23.2L22.62,31v1.5h-.44V30.26h.47l.67,1.29L24,30.26h.47v2.26Z"/><path class="cls-24" d="M33,30.65h-.72v1.88h-.44V30.65h-.72v-.39H33Z"/><path class="cls-24" d="M40.08,30.27h.41l.25.75.25-.75h.41l-.39,1,.29.72.64-1.76h.48l-.92,2.26h-.37l-.39-1-.39,1H40l-.92-2.26h.47L40.18,32l.28-.72Z"/><path class="cls-24" d="M50.95,30.65h-.72v1.88h-.44V30.65h-.72v-.39h1.89Z"/><path class="cls-24" d="M58,32.53V30.26h1.52v.39H58.46v.58h.9v.36h-.9v.94Z"/><path class="cls-24" d="M13.78,22.22v2.44H13v-3.8h.57l2,2.5V20.86h.74v3.8h-.6Z"/><path class="cls-24" d="M18.32,24.71a1.54,1.54,0,0,1-.62-.12,1.39,1.39,0,0,1-.46-.32,1.41,1.41,0,0,1-.29-.46,1.56,1.56,0,0,1,0-1.11,1.42,1.42,0,0,1,.29-.46,1.39,1.39,0,0,1,.46-.32,1.54,1.54,0,0,1,.62-.12,1.52,1.52,0,0,1,.61.12,1.39,1.39,0,0,1,.46.32,1.42,1.42,0,0,1,.29.46,1.56,1.56,0,0,1,0,1.11,1.43,1.43,0,0,1-.29.46,1.36,1.36,0,0,1-.46.32A1.54,1.54,0,0,1,18.32,24.71Zm-.73-1.45a1,1,0,0,0,.06.34.84.84,0,0,0,.16.27A.7.7,0,0,0,18,24a.71.71,0,0,0,.58,0,.7.7,0,0,0,.23-.17A.83.83,0,0,0,19,23.6a1,1,0,0,0,.06-.34,1,1,0,0,0-.06-.34.83.83,0,0,0-.16-.27.7.7,0,0,0-.23-.17.69.69,0,0,0-.29-.06.66.66,0,0,0-.29.06.73.73,0,0,0-.23.18.83.83,0,0,0-.16.27A1,1,0,0,0,17.59,23.26Z"/><path class="cls-24" d="M20.92,24.66l-1-2.81h.74l.71,2.22.72-2.22h.68l-1,2.81Z"/><path class="cls-24" d="M24.31,24.71a1.56,1.56,0,0,1-.61-.12,1.38,1.38,0,0,1-.76-.77,1.48,1.48,0,0,1-.1-.55,1.57,1.57,0,0,1,.1-.57,1.38,1.38,0,0,1,.29-.47,1.41,1.41,0,0,1,.47-.32,1.55,1.55,0,0,1,.62-.12,1.52,1.52,0,0,1,.61.12,1.42,1.42,0,0,1,.46.32,1.36,1.36,0,0,1,.29.46,1.54,1.54,0,0,1,.1.55s0,.09,0,.13a.59.59,0,0,1,0,.11H23.6a.81.81,0,0,0,.08.29.72.72,0,0,0,.4.36.75.75,0,0,0,.27,0,.83.83,0,0,0,.4-.1A.55.55,0,0,0,25,23.8l.62.17a1.26,1.26,0,0,1-.5.53A1.54,1.54,0,0,1,24.31,24.71ZM25,23a.75.75,0,0,0-.23-.51.73.73,0,0,0-1,0,.75.75,0,0,0-.16.22.77.77,0,0,0-.07.28Z"/><path class="cls-24" d="M30.58,24.66h-.72V23.08a.83.83,0,0,0-.12-.49.37.37,0,0,0-.32-.16.6.6,0,0,0-.4.16.9.9,0,0,0-.27.43v1.63H28V23.08a.83.83,0,0,0-.12-.49.37.37,0,0,0-.32-.16.61.61,0,0,0-.4.16.88.88,0,0,0-.27.42v1.64h-.72V21.85h.65v.52a1.07,1.07,0,0,1,.43-.42,1.27,1.27,0,0,1,.62-.15.79.79,0,0,1,.55.17.77.77,0,0,1,.25.42,1.21,1.21,0,0,1,.43-.44,1.17,1.17,0,0,1,.6-.15.84.84,0,0,1,.42.1.7.7,0,0,1,.26.25,1.06,1.06,0,0,1,.13.35,2.3,2.3,0,0,1,0,.4Z"/><path class="cls-24" d="M32.8,24.71a1.13,1.13,0,0,1-.57-.14,1.06,1.06,0,0,1-.4-.4v.49h-.63V20.75h.72v1.6a1.09,1.09,0,0,1,.39-.4,1.11,1.11,0,0,1,.57-.14,1.06,1.06,0,0,1,.5.12,1.26,1.26,0,0,1,.39.32,1.44,1.44,0,0,1,.25.47,1.78,1.78,0,0,1,.09.56,1.58,1.58,0,0,1-.1.57,1.43,1.43,0,0,1-.28.46,1.3,1.3,0,0,1-.42.31A1.21,1.21,0,0,1,32.8,24.71Zm-.2-.61a.74.74,0,0,0,.32-.07.76.76,0,0,0,.25-.18.83.83,0,0,0,.16-.26.92.92,0,0,0,.06-.32,1,1,0,0,0-.05-.33.85.85,0,0,0-.15-.27.77.77,0,0,0-.23-.19.63.63,0,0,0-.29-.07.66.66,0,0,0-.43.16,1.06,1.06,0,0,0-.29.39v.67a.62.62,0,0,0,.11.19.81.81,0,0,0,.16.15.78.78,0,0,0,.2.1A.67.67,0,0,0,32.61,24.1Z"/><path class="cls-24" d="M35.91,24.71a1.56,1.56,0,0,1-.61-.12,1.38,1.38,0,0,1-.76-.77,1.48,1.48,0,0,1-.1-.55,1.57,1.57,0,0,1,.1-.57,1.38,1.38,0,0,1,.29-.47,1.41,1.41,0,0,1,.47-.32,1.55,1.55,0,0,1,.62-.12,1.52,1.52,0,0,1,.61.12,1.42,1.42,0,0,1,.46.32,1.36,1.36,0,0,1,.29.46,1.54,1.54,0,0,1,.1.55s0,.09,0,.13a.59.59,0,0,1,0,.11H35.19a.81.81,0,0,0,.08.29.72.72,0,0,0,.4.36.75.75,0,0,0,.27,0,.83.83,0,0,0,.4-.1.55.55,0,0,0,.26-.28l.62.17a1.26,1.26,0,0,1-.5.53A1.54,1.54,0,0,1,35.91,24.71ZM36.64,23a.75.75,0,0,0-.23-.51.73.73,0,0,0-1,0,.75.75,0,0,0-.16.22.77.77,0,0,0-.07.28Z"/><path class="cls-24" d="M39.48,22.47a1.41,1.41,0,0,0-.58.13.74.74,0,0,0-.37.36v1.7h-.72V21.85h.66v.6a1.24,1.24,0,0,1,.18-.26,1.34,1.34,0,0,1,.22-.2,1,1,0,0,1,.24-.13.65.65,0,0,1,.23,0h.14Z"/><path class="cls-5" d="M10.78,12.12a1.69,1.69,0,0,1,1.52,1.81,1.69,1.69,0,0,1-1.52,1.81"/><path class="cls-5" d="M15.44,12.12A1.69,1.69,0,0,1,17,13.94a1.69,1.69,0,0,1-1.52,1.81"/><path class="cls-5" d="M20.1,12.12a1.69,1.69,0,0,1,1.52,1.81,1.69,1.69,0,0,1-1.52,1.81"/><path class="cls-5" d="M24.77,12.12a1.69,1.69,0,0,1,1.52,1.81,1.69,1.69,0,0,1-1.52,1.81"/><path class="cls-5" d="M29.43,12.12a1.69,1.69,0,0,1,1.52,1.81,1.69,1.69,0,0,1-1.52,1.81"/><path class="cls-5" d="M34.09,12.12a1.69,1.69,0,0,1,1.52,1.81,1.69,1.69,0,0,1-1.52,1.81"/><path class="cls-5" d="M38.75,12.12a1.69,1.69,0,0,1,1.52,1.81,1.69,1.69,0,0,1-1.52,1.81"/><path class="cls-5" d="M48.12,12.12a1.69,1.69,0,0,1,1.52,1.81,1.69,1.69,0,0,1-1.52,1.81"/><path class="cls-5" d="M52.79,12.12a1.69,1.69,0,0,1,1.52,1.81,1.69,1.69,0,0,1-1.52,1.81"/><path class="cls-5" d="M57.45,12.12A1.69,1.69,0,0,1,59,13.94a1.69,1.69,0,0,1-1.52,1.81"/><path class="cls-5" d="M62.11,12.12a1.69,1.69,0,0,1,1.52,1.81,1.69,1.69,0,0,1-1.52,1.81"/><path class="cls-5" d="M66.77,12.12a1.69,1.69,0,0,1,1.52,1.81,1.69,1.69,0,0,1-1.52,1.81"/><path class="cls-5" d="M71.43,12.12A1.69,1.69,0,0,1,73,13.94a1.69,1.69,0,0,1-1.52,1.81"/><path class="cls-5" d="M76.1,12.12a1.69,1.69,0,0,1,1.52,1.81,1.69,1.69,0,0,1-1.52,1.81"/><path class="cls-5" d="M43.42,12.12a1.69,1.69,0,0,1,1.52,1.81,1.69,1.69,0,0,1-1.52,1.81"/><circle class="cls-5" cx="10.67" cy="15.96" r="0.93"/><circle class="cls-5" cx="15.44" cy="15.96" r="0.93"/><circle class="cls-5" cx="20.21" cy="15.96" r="0.93"/><circle class="cls-5" cx="24.98" cy="15.96" r="0.93"/><circle class="cls-5" cx="29.75" cy="15.96" r="0.93"/><circle class="cls-5" cx="34.53" cy="15.96" r="0.93"/><circle class="cls-5" cx="39.3" cy="15.96" r="0.93"/><circle class="cls-5" cx="43.43" cy="15.96" r="0.93"/><circle class="cls-5" cx="48.26" cy="15.96" r="0.93"/><circle class="cls-5" cx="53" cy="15.96" r="0.93"/><circle class="cls-5" cx="57.58" cy="15.96" r="0.93"/><circle class="cls-5" cx="62.28" cy="15.96" r="0.93"/><circle class="cls-5" cx="66.55" cy="15.96" r="0.93"/><circle class="cls-5" cx="71.48" cy="15.96" r="0.93"/><circle class="cls-5" cx="76.06" cy="15.96" r="0.93"/><path class="cls-5" d="M113,46a6,6,0,0,1-3.47-1.19,7.15,7.15,0,0,1-1.39-1.33,8.31,8.31,0,0,1-1-1.72,10.34,10.34,0,0,1,0-8.34,9.14,9.14,0,0,1,1-1.79,8,8,0,0,1,1.39-1.43A6.44,6.44,0,0,1,113,28.8a5.9,5.9,0,0,1,3.61.87,6.93,6.93,0,0,1,1.53,1.28,8.16,8.16,0,0,1,1.19,1.76,10.26,10.26,0,0,1,0,9,9,9,0,0,1-1.19,1.85,7.7,7.7,0,0,1-1.53,1.39A6.21,6.21,0,0,1,113,46m-2.84-26.36L110,22.48a12.78,12.78,0,0,0-3.44,2.21l-1.62-1.58-3.63,5.11,1.33,1.89a18.54,18.54,0,0,0-1.32,4.25l-2,.31v6.49l2,.16a17.44,17.44,0,0,0,1.32,4.15l-1.33,2,3.63,4.84,1.62-1.7a11.61,11.61,0,0,0,3.44,2l.17,2.8,5.78.41.18-2.88a11.86,11.86,0,0,0,3.86-1.71l1.93,2,4.64-5.14-1.76-2.35A18.22,18.22,0,0,0,126.51,41l2.75-.27V33l-2.75-.07a17,17,0,0,0-1.74-4.65l1.76-2.48L121.88,21l-1.93,2.18a11,11,0,0,0-3.86-1.43l-.18-2.86-5.78.83"/><path class="cls-5" d="M140.6,26.08a2,2,0,0,1-1.11-.21,2,2,0,0,1-.45-.32,2,2,0,0,1-.34-.45,2.45,2.45,0,0,1,0-2.32,2.57,2.57,0,0,1,.8-.93,2.34,2.34,0,0,1,1.11-.44,2,2,0,0,1,1.95,1,2.45,2.45,0,0,1,0,2.37,2.6,2.6,0,0,1-.82.93,2.33,2.33,0,0,1-1.12.42M138.77,14l-.11,1.56a9.15,9.15,0,0,0-2.26,1.32l-1.08-.85-2.44,3,.9,1a9.87,9.87,0,0,0-.9,2.46l-1.36.26V26.5h1.36a8.07,8.07,0,0,0,.9,2.28l-.9,1.21,2.44,2.5,1.08-1.06a7.23,7.23,0,0,0,2.26.86l.11,1.54,3.7-.18.11-1.58a8.92,8.92,0,0,0,2.4-1.18l1.19,1,2.8-3-1.05-1.15A9.87,9.87,0,0,0,149,25l1.63-.27V20.69l-1.63.06a8,8,0,0,0-1-2.42L149,17l-2.8-2.46L145,15.72a7.3,7.3,0,0,0-2.4-.69l-.11-1.56-3.7.56"/></g></g></g></svg>