<svg xmlns="http://www.w3.org/2000/svg" xmlns:xlink="http://www.w3.org/1999/xlink" viewBox="0 0 202.79 180"><defs><style>.cls-1{isolation:isolate;}.cls-2{fill:#ed0f0f;opacity:0.1;}.cls-3,.cls-4,.cls-5,.cls-6{fill:none;stroke:#0037ff;stroke-linecap:round;stroke-linejoin:round;}.cls-4{opacity:0.4;}.cls-5,.cls-7{opacity:0.6;}.cls-6{opacity:0.5;}.cls-8{fill:url(#Gradient_bez_nazwy_8);}.cls-9{fill:#ffaf84;}.cls-10{fill:url(#Gradient_bez_nazwy_5);}.cls-11{fill:url(#Gradient_bez_nazwy_4);}.cls-12{fill:#ed9169;}.cls-13{fill:url(#Gradient_bez_nazwy_5-2);}.cls-14{fill:url(#Gradient_bez_nazwy_2);}.cls-15{fill:url(#Gradient_bez_nazwy_2-2);}.cls-16{fill:url(#Gradient_bez_nazwy_2-3);}.cls-17{fill:url(#Gradient_bez_nazwy_2-4);}.cls-18{fill:url(#Gradient_bez_nazwy_2-5);}.cls-19{fill:url(#Gradient_bez_nazwy_5-3);}.cls-20{fill:url(#Gradient_bez_nazwy_4-2);}.cls-21{fill:url(#Gradient_bez_nazwy_8-2);}.cls-22{fill:url(#Gradient_bez_nazwy_8-3);}.cls-23{fill:#4e11f4;}.cls-24{fill:url(#Gradient_bez_nazwy_5-4);}.cls-25{fill:url(#Gradient_bez_nazwy_5-5);}.cls-26{fill:url(#Gradient_bez_nazwy_5-6);}.cls-27{fill:url(#Gradient_bez_nazwy_14);}.cls-28{fill:url(#Gradient_bez_nazwy_14-2);}.cls-29{fill:url(#Gradient_bez_nazwy_14-3);}.cls-30{fill:url(#Gradient_bez_nazwy_14-4);}.cls-31{fill:url(#Gradient_bez_nazwy_14-5);}.cls-32{fill:url(#Gradient_bez_nazwy_3);}.cls-33{fill:url(#Gradient_bez_nazwy_5-7);}.cls-34{fill:url(#Gradient_bez_nazwy_5-8);}.cls-35{fill:url(#Gradient_bez_nazwy_5-9);}.cls-36{fill:url(#Gradient_bez_nazwy_5-10);}.cls-37{fill:url(#Gradient_bez_nazwy_5-11);}.cls-38{fill:url(#Gradient_bez_nazwy_4-3);}.cls-39{fill:url(#Gradient_bez_nazwy_5-12);}.cls-40{fill:url(#Gradient_bez_nazwy_7);}.cls-41{fill:url(#Gradient_bez_nazwy_7-2);}.cls-42{fill:url(#Gradient_bez_nazwy_7-3);}.cls-43{fill:url(#Gradient_bez_nazwy_7-4);}.cls-44{fill:url(#Gradient_bez_nazwy_7-5);}.cls-45{fill:url(#Gradient_bez_nazwy_5-13);}.cls-46{fill:url(#Gradient_bez_nazwy_4-4);}.cls-47{fill:url(#Gradient_bez_nazwy_4-5);}.cls-48{fill:url(#Gradient_bez_nazwy_10);}.cls-49{fill:url(#Gradient_bez_nazwy_10-2);}.cls-50{fill:url(#Gradient_bez_nazwy_5-14);}.cls-51{fill:#ea8f68;}.cls-52{fill:url(#Gradient_bez_nazwy_5-15);}.cls-53{fill:url(#Gradient_bez_nazwy_14-6);}.cls-54{fill:url(#Gradient_bez_nazwy_14-7);}.cls-55{fill:url(#Gradient_bez_nazwy_14-8);}.cls-56{fill:url(#Gradient_bez_nazwy_14-9);}.cls-57{fill:url(#Gradient_bez_nazwy_14-10);}.cls-58,.cls-59,.cls-62{opacity:0.3;mix-blend-mode:multiply;}.cls-58{fill:url(#Gradient_bez_nazwy_3-2);}.cls-59{fill:url(#Gradient_bez_nazwy_3-3);}.cls-60{fill:url(#Gradient_bez_nazwy_10-3);}.cls-61{fill:url(#Gradient_bez_nazwy_5-16);}.cls-62{fill:url(#Gradient_bez_nazwy_3-4);}.cls-63{fill:url(#Gradient_bez_nazwy_5-17);}</style><linearGradient id="Gradient_bez_nazwy_8" x1="117.78" y1="7.14" x2="109.18" y2="46.75" gradientUnits="userSpaceOnUse"><stop offset="0" stop-color="#2c27ce"/><stop offset="1" stop-color="#ef1d68"/></linearGradient><linearGradient id="Gradient_bez_nazwy_5" x1="124.36" y1="47.27" x2="146.03" y2="49.39" gradientUnits="userSpaceOnUse"><stop offset="0" stop-color="#36078b"/><stop offset="1" stop-color="#16b1ff"/></linearGradient><linearGradient id="Gradient_bez_nazwy_4" x1="103.62" y1="159.95" x2="104.16" y2="144.13" gradientUnits="userSpaceOnUse"><stop offset="0" stop-color="#2c27ce"/><stop offset="0.65" stop-color="#ef1d68"/><stop offset="1" stop-color="#efba92"/></linearGradient><linearGradient id="Gradient_bez_nazwy_5-2" x1="111.06" y1="42.83" x2="119.34" y2="79.79" xlink:href="#Gradient_bez_nazwy_5"/><linearGradient id="Gradient_bez_nazwy_2" x1="117.53" y1="108.53" x2="118.66" y2="209.9" gradientUnits="userSpaceOnUse"><stop offset="0" stop-color="#f70f47"/><stop offset="1" stop-color="#9e005d"/></linearGradient><linearGradient id="Gradient_bez_nazwy_2-2" x1="105.7" y1="108.66" x2="106.83" y2="210.04" xlink:href="#Gradient_bez_nazwy_2"/><linearGradient id="Gradient_bez_nazwy_2-3" x1="110.44" y1="108.61" x2="111.57" y2="209.98" xlink:href="#Gradient_bez_nazwy_2"/><linearGradient id="Gradient_bez_nazwy_2-4" x1="125.47" y1="108.44" x2="126.61" y2="209.81" xlink:href="#Gradient_bez_nazwy_2"/><linearGradient id="Gradient_bez_nazwy_2-5" x1="123.33" y1="108.46" x2="124.46" y2="209.84" xlink:href="#Gradient_bez_nazwy_2"/><linearGradient id="Gradient_bez_nazwy_5-3" x1="104.64" y1="46.81" x2="100.39" y2="73.36" xlink:href="#Gradient_bez_nazwy_5"/><linearGradient id="Gradient_bez_nazwy_4-2" x1="129.73" y1="160.83" x2="130.26" y2="145.01" xlink:href="#Gradient_bez_nazwy_4"/><linearGradient id="Gradient_bez_nazwy_8-2" x1="539.36" y1="1033.55" x2="530.76" y2="1073.16" gradientTransform="translate(-584.16 -927.94) rotate(-9.15)" xlink:href="#Gradient_bez_nazwy_8"/><linearGradient id="Gradient_bez_nazwy_8-3" x1="544.42" y1="1034.65" x2="535.82" y2="1074.26" gradientTransform="translate(-584.16 -927.94) rotate(-9.15)" xlink:href="#Gradient_bez_nazwy_8"/><linearGradient id="Gradient_bez_nazwy_5-4" x1="-4044.76" y1="-4489.37" x2="-3998.26" y2="-4534.15" gradientTransform="matrix(0.58, 0.81, -0.81, 0.58, 93.62, 6185.3)" xlink:href="#Gradient_bez_nazwy_5"/><linearGradient id="Gradient_bez_nazwy_5-5" x1="150.16" y1="73.22" x2="196.65" y2="28.44" xlink:href="#Gradient_bez_nazwy_5"/><linearGradient id="Gradient_bez_nazwy_5-6" x1="185.89" y1="27.97" x2="185.89" y2="67.36" xlink:href="#Gradient_bez_nazwy_5"/><linearGradient id="Gradient_bez_nazwy_14" x1="149.52" y1="150.45" x2="187.92" y2="77.54" gradientUnits="userSpaceOnUse"><stop offset="0" stop-color="#f70f47"/><stop offset="1" stop-color="#ffb41d"/></linearGradient><linearGradient id="Gradient_bez_nazwy_14-2" x1="181.74" y1="167.42" x2="220.13" y2="94.51" xlink:href="#Gradient_bez_nazwy_14"/><linearGradient id="Gradient_bez_nazwy_14-3" x1="163.6" y1="157.87" x2="202" y2="84.96" xlink:href="#Gradient_bez_nazwy_14"/><linearGradient id="Gradient_bez_nazwy_14-4" x1="164.07" y1="158.12" x2="202.47" y2="85.2" xlink:href="#Gradient_bez_nazwy_14"/><linearGradient id="Gradient_bez_nazwy_14-5" x1="149.77" y1="150.58" x2="188.16" y2="77.67" xlink:href="#Gradient_bez_nazwy_14"/><linearGradient id="Gradient_bez_nazwy_3" x1="175.17" y1="10.81" x2="208.33" y2="36.35" gradientUnits="userSpaceOnUse"><stop offset="0" stop-color="blue"/><stop offset="1" stop-color="#9e005d"/></linearGradient><linearGradient id="Gradient_bez_nazwy_5-7" x1="162.13" y1="99.46" x2="213.38" y2="40.94" xlink:href="#Gradient_bez_nazwy_5"/><linearGradient id="Gradient_bez_nazwy_5-8" x1="159.06" y1="96.77" x2="210.31" y2="38.26" xlink:href="#Gradient_bez_nazwy_5"/><linearGradient id="Gradient_bez_nazwy_5-9" x1="-10131.01" y1="322.45" x2="-10128.97" y2="295.52" gradientTransform="matrix(-1, 0.04, 0.04, 1, -10090.16, 227.31)" xlink:href="#Gradient_bez_nazwy_5"/><linearGradient id="Gradient_bez_nazwy_5-10" x1="-10091.46" y1="325.43" x2="-10089.43" y2="298.5" gradientTransform="matrix(-1, 0.04, 0.04, 1, -10090.16, 227.31)" xlink:href="#Gradient_bez_nazwy_5"/><linearGradient id="Gradient_bez_nazwy_5-11" x1="-2870.69" y1="-750.26" x2="-2837.14" y2="-726.28" gradientTransform="translate(2673.22 1427.18) rotate(12.76)" xlink:href="#Gradient_bez_nazwy_5"/><linearGradient id="Gradient_bez_nazwy_4-3" x1="-10143.35" y1="199.34" x2="-10117.96" y2="170.92" gradientTransform="matrix(-1, 0.04, 0.04, 1, -10090.16, 227.31)" xlink:href="#Gradient_bez_nazwy_4"/><linearGradient id="Gradient_bez_nazwy_5-12" x1="-2002.38" y1="241.06" x2="-1938.07" y2="191.89" gradientTransform="matrix(1, -0.04, 0.04, 1, 2003.04, -229.52)" xlink:href="#Gradient_bez_nazwy_5"/><linearGradient id="Gradient_bez_nazwy_7" x1="-10136.17" y1="318.38" x2="-10124.38" y2="267.89" gradientTransform="matrix(-1, 0.04, 0.04, 1, -10090.16, 227.31)" gradientUnits="userSpaceOnUse"><stop offset="0" stop-color="#ff664f"/><stop offset="1" stop-color="#9e005d"/></linearGradient><linearGradient id="Gradient_bez_nazwy_7-2" x1="-10109.69" y1="338.56" x2="-10094.37" y2="272.98" xlink:href="#Gradient_bez_nazwy_7"/><linearGradient id="Gradient_bez_nazwy_7-3" x1="-10125.33" y1="320.91" x2="-10113.54" y2="270.42" xlink:href="#Gradient_bez_nazwy_7"/><linearGradient id="Gradient_bez_nazwy_7-4" x1="-10136.55" y1="327.57" x2="-10122.37" y2="266.87" xlink:href="#Gradient_bez_nazwy_7"/><linearGradient id="Gradient_bez_nazwy_7-5" x1="-10140.71" y1="317.32" x2="-10128.92" y2="266.83" xlink:href="#Gradient_bez_nazwy_7"/><linearGradient id="Gradient_bez_nazwy_5-13" x1="-10143.99" y1="222.21" x2="-10111.43" y2="187.32" gradientTransform="matrix(-1, 0.04, 0.04, 1, -10092.2, 227.39)" xlink:href="#Gradient_bez_nazwy_5"/><linearGradient id="Gradient_bez_nazwy_4-4" x1="-10139.7" y1="202.6" x2="-10114.31" y2="174.19" gradientTransform="matrix(-1, 0.04, 0.04, 1, -10090.16, 227.31)" xlink:href="#Gradient_bez_nazwy_4"/><linearGradient id="Gradient_bez_nazwy_4-5" x1="-10145.59" y1="197.34" x2="-10120.2" y2="168.92" gradientTransform="matrix(-1, 0.04, 0.04, 1, -10090.16, 227.31)" xlink:href="#Gradient_bez_nazwy_4"/><linearGradient id="Gradient_bez_nazwy_10" x1="97.43" y1="168.75" x2="98.44" y2="142.22" gradientUnits="userSpaceOnUse"><stop offset="0" stop-color="#36078b"/><stop offset="1" stop-color="#168d68"/></linearGradient><linearGradient id="Gradient_bez_nazwy_10-2" x1="75.32" y1="51.85" x2="59.34" y2="61.39" xlink:href="#Gradient_bez_nazwy_10"/><linearGradient id="Gradient_bez_nazwy_5-14" x1="84.21" y1="32.5" x2="75.49" y2="18.86" xlink:href="#Gradient_bez_nazwy_5"/><linearGradient id="Gradient_bez_nazwy_5-15" x1="71.65" y1="61.05" x2="98.64" y2="61.05" xlink:href="#Gradient_bez_nazwy_5"/><linearGradient id="Gradient_bez_nazwy_14-6" x1="89.62" y1="155.89" x2="79.51" y2="45.71" xlink:href="#Gradient_bez_nazwy_14"/><linearGradient id="Gradient_bez_nazwy_14-7" x1="97.13" y1="155.2" x2="87.03" y2="45.02" xlink:href="#Gradient_bez_nazwy_14"/><linearGradient id="Gradient_bez_nazwy_14-8" x1="95" y1="155.39" x2="84.89" y2="45.23" xlink:href="#Gradient_bez_nazwy_14"/><linearGradient id="Gradient_bez_nazwy_14-9" x1="83.31" y1="156.47" x2="73.21" y2="46.29" xlink:href="#Gradient_bez_nazwy_14"/><linearGradient id="Gradient_bez_nazwy_14-10" x1="83.68" y1="156.45" x2="73.57" y2="46.22" xlink:href="#Gradient_bez_nazwy_14"/><linearGradient id="Gradient_bez_nazwy_3-2" x1="73.42" y1="61.44" x2="92.45" y2="61.44" xlink:href="#Gradient_bez_nazwy_3"/><linearGradient id="Gradient_bez_nazwy_3-3" x1="66.92" y1="51.92" x2="83.42" y2="51.92" xlink:href="#Gradient_bez_nazwy_3"/><linearGradient id="Gradient_bez_nazwy_10-3" x1="81.96" y1="168.16" x2="82.97" y2="141.63" xlink:href="#Gradient_bez_nazwy_10"/><linearGradient id="Gradient_bez_nazwy_5-16" x1="90.96" y1="28.18" x2="82.24" y2="14.55" xlink:href="#Gradient_bez_nazwy_5"/><linearGradient id="Gradient_bez_nazwy_3-4" x1="86.66" y1="55.25" x2="98.91" y2="55.25" xlink:href="#Gradient_bez_nazwy_3"/><linearGradient id="Gradient_bez_nazwy_5-17" x1="88.41" y1="29.81" x2="79.7" y2="16.18" xlink:href="#Gradient_bez_nazwy_5"/></defs><title>plusy-box4</title><g class="cls-1"><g id="Слой_2" data-name="Слой 2"><g id="Designed_by_Freepik" data-name="Designed by Freepik"><circle class="cls-2" cx="101.4" cy="90" r="90"/></g><g id="Objects"><polygon class="cls-3" points="193.75 50.38 193.75 158.85 41.89 158.85 41.89 60.02 193.75 50.38"/><polygon class="cls-4" points="81.49 122.02 113.81 121.27 113.81 76.86 81.49 78.49 81.49 122.02"/><polygon class="cls-5" points="86.11 106.09 48.44 107.33 48.44 67.13 86.11 64.92 86.11 106.09"/><path class="cls-3" d="M78.94,85.94C78.94,93,73.6,99,67,99.24S55.33,94,55.33,87,60.56,74.08,67,73.73,78.94,78.85,78.94,85.94Z"/><path class="cls-3" d="M76,86.07a10.4,10.4,0,0,1-3.68,8,9.27,9.27,0,0,1-2.18,1.36,8.93,8.93,0,0,1-1.08.4c-.22.07-.44.12-.67.17a8.11,8.11,0,0,1-1.39.17,8.29,8.29,0,0,1-2.65-.33,9.1,9.1,0,0,1-6.24-8.93A10.52,10.52,0,0,1,59,82.66a10.07,10.07,0,0,1,3.08-4,9.4,9.4,0,0,1,1-.66,8.82,8.82,0,0,1,2.33-1,8.37,8.37,0,0,1,10,5.52A9.92,9.92,0,0,1,76,86.07Z"/><path class="cls-3" d="M67,87.58a1.1,1.1,0,0,1-1.1-1.1V80.3a1.1,1.1,0,1,1,2.19,0v6.19A1.1,1.1,0,0,1,67,87.58Z"/><path class="cls-3" d="M67.05,87.58a1.1,1.1,0,0,1-.64-2l3-2.16a1.1,1.1,0,1,1,1.29,1.78l-3,2.16A1.09,1.09,0,0,1,67.05,87.58Z"/><polygon class="cls-3" points="193.75 50.39 41.89 60.02 41.89 45.76 193.75 34.74 193.75 50.39"/><polygon class="cls-3" points="190.67 47.31 44.45 56.86 44.45 52.15 190.67 42.16 190.67 47.31"/><polygon class="cls-3" points="46.69 50.41 44.45 50.56 44.45 48.11 46.69 47.95 46.69 50.41"/><polygon class="cls-3" points="50.69 50.13 48.44 50.28 48.44 47.83 50.69 47.67 50.69 50.13"/><polygon class="cls-3" points="54.7 49.85 52.44 50.01 52.44 47.55 54.7 47.39 54.7 49.85"/><polygon class="cls-6" points="109.21 143.42 183.56 142.71 183.56 56.67 109.21 61.14 109.21 143.42"/><path class="cls-3" d="M119.11,79.68a1.93,1.93,0,0,1-1.34-.54,2.06,2.06,0,0,1-.63-1.51V66.38a2.21,2.21,0,0,1,2-2.21l66.33-3.82a2.07,2.07,0,0,1,2.21,2.09V74.19a2.29,2.29,0,0,1-2.15,2.27L119.2,79.68Zm66.5-18.34h-.07l-66.33,3.82a1.2,1.2,0,0,0-1.08,1.21V77.64a1.07,1.07,0,0,0,.32.79,1,1,0,0,0,.7.26l66.33-3.23a1.29,1.29,0,0,0,1.21-1.28V62.44a1.1,1.1,0,0,0-.34-.81A1.08,1.08,0,0,0,185.6,61.34Z"/><path class="cls-3" d="M119.12,98.83a1.94,1.94,0,0,1-1.36-.55,2.07,2.07,0,0,1-.63-1.51V85.5a2.18,2.18,0,0,1,2-2.19l66.33-3a2.07,2.07,0,0,1,1.55.57,2.1,2.1,0,0,1,.65,1.53V94.12a2.27,2.27,0,0,1-2.16,2.25L119.2,98.83Zm66.46-17.56h-.06l-66.33,3a1.18,1.18,0,0,0-1.07,1.19V96.77a1.09,1.09,0,0,0,.33.8,1,1,0,0,0,.71.27l66.33-2.45a1.26,1.26,0,0,0,1.2-1.26V82.38a1.11,1.11,0,0,0-.34-.81A1.1,1.1,0,0,0,185.59,81.27Z"/><path class="cls-3" d="M119.14,118a2,2,0,0,1-1.38-.56,2.09,2.09,0,0,1-.63-1.52V104.63a2.16,2.16,0,0,1,2-2.17l66.33-2.27a2.17,2.17,0,0,1,1.55.59,2.12,2.12,0,0,1,.65,1.54v11.74a2.24,2.24,0,0,1-2.17,2.23L119.19,118Zm66.42-16.79h0l-66.33,2.27a1.15,1.15,0,0,0-1.07,1.18v11.26a1.11,1.11,0,0,0,.33.8,1.05,1.05,0,0,0,.71.28l66.33-1.68a1.24,1.24,0,0,0,1.2-1.23V102.32a1.13,1.13,0,0,0-.34-.82A1.12,1.12,0,0,0,185.57,101.18Z"/><path class="cls-3" d="M119.16,137.11a2,2,0,0,1-1.4-.58,2.11,2.11,0,0,1-.63-1.52V123.75a2.13,2.13,0,0,1,2-2.15l66.33-1.49a2.21,2.21,0,0,1,1.54.61,2.14,2.14,0,0,1,.64,1.54V134a2.21,2.21,0,0,1-2.17,2.21l-66.33.9Zm0-1v0l66.33-.9a1.22,1.22,0,0,0,1.19-1.22V122.26a1.15,1.15,0,0,0-.35-.83,1.23,1.23,0,0,0-.83-.32l-66.33,1.49a1.13,1.13,0,0,0-1.06,1.16V135a1.13,1.13,0,0,0,.33.81A.92.92,0,0,0,119.17,136.12Z"/><polygon class="cls-6" points="150.95 108.39 179.63 107.52 179.63 105.22 150.95 106.13 150.95 108.39"/><polygon class="cls-6" points="160.21 112.15 179.63 111.61 179.63 109.31 160.21 109.88 160.21 112.15"/><polygon class="cls-6" points="153.22 112.35 157.99 112.21 157.99 109.94 153.22 110.08 153.22 112.35"/><polygon class="cls-6" points="150.95 69.83 179.63 68.3 179.63 66 150.95 67.57 150.95 69.83"/><polygon class="cls-6" points="162.44 73.26 179.63 72.39 179.63 70.09 162.44 70.99 162.44 73.26"/><polygon class="cls-6" points="142.44 74.28 160.21 73.38 160.21 71.1 142.44 72.03 142.44 74.28"/><polygon class="cls-6" points="168.06 127.59 179.63 127.37 179.63 125.08 168.06 125.3 168.06 127.59"/><polygon class="cls-6" points="154.54 127.84 165.93 127.63 165.93 125.35 154.54 125.57 154.54 127.84"/><polygon class="cls-6" points="160.21 131.77 179.63 131.46 179.63 129.16 160.21 129.5 160.21 131.77"/><polygon class="cls-6" points="139.34 132.11 157.99 131.81 157.99 129.54 139.34 129.87 139.34 132.11"/><path class="cls-3" d="M122.53,77l66.6-2.58a1.77,1.77,0,0,0,1.69-1.76V60.88a1.6,1.6,0,0,0-1.69-1.61l-66.6,3.17a1.69,1.69,0,0,0-1.56,1.7V75.42A1.52,1.52,0,0,0,122.53,77Z"/><g class="cls-7"><polygon class="cls-3" points="158.53 64.92 187.19 63.63 187.19 61.91 158.53 63.23 158.53 64.92"/><polygon class="cls-3" points="158.53 67.92 187.19 66.68 187.19 64.96 158.53 66.23 158.53 67.92"/><polygon class="cls-3" points="174.36 70.27 187.19 69.73 187.19 68.02 174.36 68.56 174.36 70.27"/></g><polygon class="cls-3" points="134.33 72.01 141.76 71.7 141.76 64 134.33 64.35 134.33 72.01"/><polygon class="cls-5" points="125.77 72.37 133.12 72.06 133.12 64.4 125.77 64.74 125.77 72.37"/><path class="cls-8" d="M107.53,20.83a12.16,12.16,0,0,0-4.73,11.68,27.78,27.78,0,0,1-.9,12.37c-.9,2.81-4,12.21,7,12s11.75-13.17,10.48-19.8,1.05-11.31-.62-13.33S113.27,16.64,107.53,20.83Z"/><path class="cls-9" d="M149.34,45c2.07-1.63,4.15-3.4,4.58-1.56s.44,1.74-1,3.08S147.6,46.4,149.34,45Z"/><path class="cls-10" d="M149.4,44.68c-1.4.63-11.19,2.6-15.16,3.85l-.11,0c-2-.55-7.43-3.19-14.76-6.45a9.28,9.28,0,0,0-6.55.39c-1.31.66-1.75,2.9.63,4.11a59.35,59.35,0,0,0,7.88,3.4c6.67,2.45,10.2,3.16,12.07,3.34a2.62,2.62,0,0,0,1.25,0,35,35,0,0,0,10.63-4c3.48-1.82,4.84-1.25,5.39-2.35C151.12,46,150.44,44.21,149.4,44.68Z"/><path class="cls-11" d="M104.83,158.29a12,12,0,0,1,.26,2c.13.8.86,1.09,1.28,1.74s1.2,1.88-1.67,1.94c-3.07.06-4.89-.15-4.37-1.89a9.09,9.09,0,0,0,.59-3.07,1.93,1.93,0,0,1,.35-1.5C101.61,157.16,104.37,156.55,104.83,158.29Z"/><path class="cls-12" d="M110.46,34.41c0,.23-.39,5.1-.45,8.84,0,1.83,1.29,3.57,2.61,3.62h.06c1.29,0,2.82-1.63,2.7-3.42-.21-3.26-.05-6.59,0-6.64Z"/><path class="cls-13" d="M106.68,55.46A63.71,63.71,0,0,1,109,65.69a26,26,0,0,1,0,7.7c-.21,1.54-.51,3.06-.86,4.57-.13.57-1.26,5.19-1.31,5.68H127.9c-.2-4.13-4.91-17.11-1.72-25.51,2.21-5.82-.72-6-2.71-10.84a14.21,14.21,0,0,0-1.68-3.51,6.06,6.06,0,0,0-3.23-2,12,12,0,0,0-2-.28c-3.57-.29-12-1.32-12.76,3.75a9,9,0,0,0,.42,4.1c.47,1.48,1.17,2.88,1.77,4.31C106.26,54.28,106.48,54.87,106.68,55.46Z"/><path class="cls-14" d="M106.9,97s-1.82-4.59-.09-13.39H127.9A128.93,128.93,0,0,1,128.67,97Z"/><path class="cls-15" d="M111.06,125.67c1.69-7.12-5.32-8.38-7.53-3.22-3.13,7.29-2.88,30.59-2.71,35.24,0,.61.34.49.68.37a5.06,5.06,0,0,1,2.23-.42,2,2,0,0,1,1.17,1C105.56,152.26,109.43,132.57,111.06,125.67Z"/><path class="cls-16" d="M117.37,98c.74-8.85-2.64-15.72-7.93-12.8-2.23,1.23-3,3.69-3.34,6s-1.94,26.39-2.51,30.74c-1.29,9.81,6.17,7.16,7,4.45C112.61,119.53,117,102.81,117.37,98Z"/><path class="cls-17" d="M129.83,125.21c.28-6.64-6-6.5-7.52-1.1-2.46,8.5,1.8,26.76,2.06,37.18,1.09-1.8,2.11-2.24,2.59-2.2a1.73,1.73,0,0,1,1.21.68C128,146,129.53,132.31,129.83,125.21Z"/><path class="cls-18" d="M122.56,125.93c.83,2.71,8,5.85,7.21-4-.33-4.38-1.21-28.55-1.38-30.88s-.56-5.74-1.69-6.16c-5.63-2.13-11.09,4.82-9.61,13.57C118.09,104.29,120.84,120.3,122.56,125.93Z"/><path class="cls-9" d="M152.56,42.87a7.62,7.62,0,0,1,3.23-1.6c.91-.08-1.07,1-1.78,1.61S151.72,43.52,152.56,42.87Z"/><path class="cls-9" d="M107.68,73.64c2.57-.52,3.88-1.38,5.06-.73s-.55,2.92-1.43,3.29-4,2-4.86,1.11A2.3,2.3,0,0,1,107.68,73.64Z"/><path class="cls-19" d="M99,62.41c1.46-2.28,4.73-6.56,8.73-12.12a9.28,9.28,0,0,0,1-6.49c-.37-1.42-2.48-2.3-4.15-.23a58.83,58.83,0,0,0-4.95,7c-4.36,7-5.58,10.32-5.95,11.88a1.66,1.66,0,0,0,.71,1.64c0,.08.09.16.15.24a34.91,34.91,0,0,0,7.94,8.14c3.06,2.46,3.08,3.94,4.31,4,1,.05,2.38-1.28,1.53-2C107.22,73.45,101.85,65.78,99,62.41Z"/><path class="cls-9" d="M107.21,31.58c1.07,4,1.34,4.93,3.4,6.32a9.81,9.81,0,0,0,6.7,1.44c2.1-.34,3.3-2.81,3.5-4.62a30.25,30.25,0,0,0-1.22-10.59A6.73,6.73,0,0,0,112.76,20C109.86,20.51,104.59,21.71,107.21,31.58Z"/><path class="cls-20" d="M128.43,159.74a7.2,7.2,0,0,0,3,2.26c1.59.71,5,1,3.1,1.67a11.27,11.27,0,0,1-5.18.07,22.31,22.31,0,0,0-3.49-.21c-1.73,0-1.74-.12-1.51-2.06C124.66,158.79,127.66,158.22,128.43,159.74Z"/><path class="cls-21" d="M118.56,22.09c2,2.49-8.83,9.41-11.49,9.39s-2.88-5.07-1.27-7.91S113.72,16.21,118.56,22.09Z"/><path class="cls-22" d="M114.11,22.09c.8,2.26,5,2.13,6,3.94.62,1.12.22-2.68-1-4.23S112.51,17.56,114.11,22.09Z"/><ellipse class="cls-9" cx="107.8" cy="31.49" rx="1.47" ry="2.81" transform="translate(-3.9 43.1) rotate(-22.22)"/><path class="cls-23" d="M197.67,158.88a12.39,12.39,0,0,0-.29,2.14c-.14.86-1,1.17-1.44,1.88s-1.34,1.9,1.86,2c3.43.07,5.47,0,4.88-1.91a9.53,9.53,0,0,1-.66-3.3,2,2,0,0,0-.39-1.61C201.26,157.66,198.18,157,197.67,158.88Z"/><path class="cls-9" d="M156.36,53.36c-1.11-.58-10.1-4.65-10.18-2.51-.09,2.37,3.13,4.76,4.31,5.44,2.15,1.23,4.75.75,5.79-.35C157,55.16,157.42,53.91,156.36,53.36Z"/><path class="cls-9" d="M156,52.72c-.35-.46-2.43-3.18-3-2.83-.82.54.46,2.39,1.29,3.62.46.67,1.51,1.26,2,.82S156.59,53.45,156,52.72Z"/><path class="cls-23" d="M171.29,160.44a8,8,0,0,1-3.34,2.44c-1.78.77-5.56,1.13-3.46,1.8a13,13,0,0,0,5.79.07,26.2,26.2,0,0,1,3.9-.23c1.93,0,1.94-.13,1.68-2.22C175.5,159.42,172.16,158.81,171.29,160.44Z"/><path class="cls-9" d="M193.18,26.77c-.39,3.9-.5,4.76-2.21,6.36S186.6,35,184.76,35s-3.31-2.41-3.76-4.06a24,24,0,0,1-.39-9.18,6.3,6.3,0,0,1,5.71-4.79C189.07,16.93,194.13,17.25,193.18,26.77Z"/><path class="cls-24" d="M154.22,55.87c1.22,1.5,2.2,2.37,6.55,3.65A54.52,54.52,0,0,0,173,62.06c2.76.18,2.3-6.41-1.28-7.45-3-.88-14.48-.24-16.32-.78C154.21,53.47,153.23,54.66,154.22,55.87Z"/><path class="cls-25" d="M173.31,60.38c1.15-1,3.38-3.54,7-11a52.91,52.91,0,0,0,3.32-8.09c.86-2.63-1.11-4.7-2.56-4.62-2.34.13-5.42,1.89-6,3.24-3,7.62-4.89,13.67-6,15.39C167.62,57.85,171.94,61.54,173.31,60.38Z"/><path class="cls-9" d="M191.19,33.64c.1,1.35.21,2.91.25,4.33a3.72,3.72,0,0,1-3.25,3.78H188c-1.68,0-3.67-1.52-3.52-3.21.1-1.1.13-2.2.14-3.17a4.38,4.38,0,0,1,2.92-4.11h0A2.75,2.75,0,0,1,191.19,33.64Z"/><path class="cls-26" d="M199,50.3c-3.13,10.29-4.16,21-3.54,28.2H171.89s.14-22.07,1.72-34.15a9,9,0,0,1,5-6.93A16.91,16.91,0,0,1,184.85,36h4.35a16.49,16.49,0,0,1,4.6.57C200.23,38.57,200.8,44.34,199,50.3Z"/><path class="cls-27" d="M195.35,92.91s2-4.94.1-14.41H171.89A133.91,133.91,0,0,0,171,92.91Z"/><path class="cls-28" d="M190.7,123.75c-1.89-7.67,5.95-9,8.42-3.47,3.5,7.85,3.22,32.94,3,37.94,0,.66.09,1.46-.24,1.69a5,5,0,0,1-2.49.4c-.88,0-1.74,0-1.83-1.11C197,151.9,192.53,131.18,190.7,123.75Z"/><path class="cls-29" d="M183.66,93.95c-.83-9.53,2.95-16.93,8.86-13.78,2.49,1.32,3.4,4,3.73,6.47s2.16,28.42,2.81,33.1c1.45,10.56-6.89,7.71-7.8,4.79C189,117.14,184.11,99.14,183.66,93.95Z"/><path class="cls-30" d="M175.83,162.11c.3-11.23,5.06-30.88,2.3-40-1.75-5.82-8.71-6-8.4,1.18.33,7.64,2.63,22.45,1.85,37.22C171.5,161.93,175.78,163.42,175.83,162.11Z"/><path class="cls-31" d="M177.85,124c-.92,2.92-8.89,6.3-8.06-4.33.37-4.71,1.35-30.74,1.54-33.25s.62-6.18,1.88-6.63c6.29-2.29,12.4,5.2,10.74,14.62C182.85,100.73,179.77,118,177.85,124Z"/><ellipse class="cls-9" cx="180.35" cy="26.47" rx="1.38" ry="2.64" transform="translate(3.38 70.18) rotate(-22.22)"/><ellipse class="cls-9" cx="193.06" cy="26.47" rx="2.64" ry="1.38" transform="translate(95.56 195.2) rotate(-67.79)"/><path class="cls-9" d="M184.91,67.39c-1-.52-9.09-4.18-9.16-2.26-.08,2.13,2.81,4.28,3.87,4.89a4.56,4.56,0,0,0,5.21-.31C185.49,69,185.86,67.88,184.91,67.39Z"/><path class="cls-9" d="M183.72,65.89c-.48-.19-3.35-1.32-3.6-.79-.38.8,1.46,1.63,2.68,2.18.66.3,1.75.26,1.93-.3S184.49,66.2,183.72,65.89Z"/><path class="cls-32" d="M192,19.09c-1.52,2.27-8.85,2.48-11.25,1.64s-2.23-5.47,1.2-5.78c1.93,0,.53.46,2.09,1.09C184.81,16.36,193.6,16.67,192,19.09Z"/><path class="cls-33" d="M181.68,70.19c1.83.6,3.38,0,7.81-.93,6.38-1.4,7.81-2.14,11.4-4.39,2.34-1.47-1.59-6.32-5.16-5.25-3,.91-12.29,7.65-14.13,8.19C180.37,68.18,180.19,69.71,181.68,70.19Z"/><path class="cls-34" d="M201.56,63.91c.45-1.44.95-4.8,0-13A52.81,52.81,0,0,0,200,42.3c-.69-2.68-3.46-3.37-4.64-2.52-1.9,1.37-3.55,4.51-3.28,5.93,1.55,8.06,3.23,14.16,3.26,16.17C195.4,64.84,201,65.62,201.56,63.91Z"/><path class="cls-9" d="M55.62,90.31c1.29.3,3.29.76,4.38.93s.79,2.67.16,3.08c-.94.6-4.13,1.12-4.82-.12s-2-1-2.27-2.21S53.52,89.83,55.62,90.31Z"/><path class="cls-35" d="M44.09,159.78a7.87,7.87,0,0,0,3.37,2.27c1.78.69,5.51.9,3.47,1.65a12.83,12.83,0,0,1-5.69.29,25.74,25.74,0,0,0-3.85-.08c-1.9.06-1.91-.05-1.74-2.12C39.91,158.93,43.18,158.21,44.09,159.78Z"/><path class="cls-36" d="M4.36,157c.28.49,1.11,3.23,2.89,3.92s4.95,1.49,2.91,2.23a12.84,12.84,0,0,1-5.69.29c-1.23-.14-1.52-1.65-2.8-2.31-2-1-1.73-.92-1.55-3A2.28,2.28,0,0,1,4.36,157Z"/><path class="cls-37" d="M56.53,90.07c-1.54-1.78-2.39-4.46-3.41-6.55a35.25,35.25,0,0,0-4.67-7.83,4.84,4.84,0,0,1-.63-.84,11.69,11.69,0,0,1-.72-3.92c-.14-1.31-.22-2.63-.31-3.94-.25-3.79-.45-7.59-.75-11.38-.11-1.43-2.6-4.08-4.83-3.5-2.48.65-3.21,1.74-3.16,4.46a51.91,51.91,0,0,0,.76,8.57C39.73,71,41,77.23,44.74,82c1.47,1.88,2.94,3.76,4.51,5.57C52.17,91,53.34,91.49,55.18,92,56.67,92.37,57.34,91,56.53,90.07Z"/><path class="cls-38" d="M42.81,37.48c1.27,1,1.89,1.18,2.84-.47,0-.08,5.12-5,.47-6.84-2.14-.87-3.86-1.35-4.33,1.7S41.3,36.27,42.81,37.48Z"/><path class="cls-12" d="M34.63,37.84c-.11.2-2.24,4.52-3.6,7.93a3.79,3.79,0,0,0,2.1,4.57l.07,0c1.66.61,4.16-.16,4.63-1.88a47.6,47.6,0,0,1,2.21-6.14Z"/><path class="cls-39" d="M22.3,55.74c1.26,10.51.59,27.21-1.25,34.07l23.18-.88s1.36-15,2.49-28a23.82,23.82,0,0,0-.31-7.22,9.51,9.51,0,0,0-4.07-5.64,17.89,17.89,0,0,0-6-2.21,26.77,26.77,0,0,0-5.69-.81c-2.61,0-5.48.56-7.06,2.8-1.4,2-1.58,4.59-1.41,6.94C22.23,55.12,22.26,55.43,22.3,55.74Z"/><path class="cls-40" d="M21.68,104s-2.19-4.79-.63-14.18l23.18-.88a131.52,131.52,0,0,1,1.38,14.15Z"/><path class="cls-41" d="M24,131.7c5.43-5.57,2.31-10.38-3.31-8.33-7.95,2.9-16.55,29.36-20,32.91-.45.47-.12.63.24.81,1,.52,1.71-.3,3,.12.51.17,1.23,1.5,1.23,1.5C10.44,152.66,18.77,137.08,24,131.7Z"/><path class="cls-42" d="M33.23,104.57C33.69,95.16,29.7,88,24,91.34c-2.4,1.39-3.2,4-3.43,6.5s-1.32,21.37-1.78,26c-1,10.44,7.7,7.08,8.48,4.17C29.24,120.66,33,109.69,33.23,104.57Z"/><path class="cls-43" d="M47.69,124.47c-.36-7-4.12-8.57-7.52-3.65-5.35,7.75.09,31.43-.5,40.71A5.23,5.23,0,0,1,44,160.32c.8.33.18-1,.18-1C47.07,144.87,48,130.76,47.69,124.47Z"/><path class="cls-44" d="M38.53,126.34c1,2.84,10.25,6.8,9-3.62-.54-4.62-2.22-23.52-2.5-26s-.84-6.05-2.1-6.45c-6.28-2-12,5.57-10,14.78A193.76,193.76,0,0,0,38.53,126.34Z"/><path class="cls-45" d="M36.52,68.28a38.18,38.18,0,0,1-4.84-4.79c-1.16-1.36-2.26-2.78-3.32-4.21A52.05,52.05,0,0,1,23.68,52a4.07,4.07,0,0,1,2-5.82c2.21-.66,3.58.62,6,2.95,5.42,5.23,8,12.62,9.46,14.79.38,0,0-.11.38,0,3,.79,14-7.48,19.22-8.63,1.22-.27,3,2.58,1.51,3.11-1.78.65-6.88,5.22-10.7,7.66-3.2,2.05-8.43,5.65-11,4.52a17.07,17.07,0,0,1-3.83-2.14Z"/><path class="cls-9" d="M33,34.93c-.58,4.07-.67,5,.66,7a9.64,9.64,0,0,0,5.52,3.86c2,.5,4.07-1.28,4.94-2.85A29.76,29.76,0,0,0,47,32.91a6.61,6.61,0,0,0-4.62-6.3C39.59,25.92,34.36,25,33,34.93Z"/><path class="cls-46" d="M33.11,34.31c.81,1.34,1.32,1.68,2.72.5,1.09-.92,4.31-4.55,2.66-6s-3-2.49-4.47.12S32.15,32.72,33.11,34.31Z"/><ellipse class="cls-9" cx="32.69" cy="35.48" rx="1.45" ry="2.77" transform="translate(-4.87 5.21) rotate(-8.48)"/><path class="cls-47" d="M36.09,27.4c1,2.69,8.41,4.73,11.05,4.48s3.63-5,.22-6.19c-2-.48-.66.33-2.41.59C44.07,26.41,35,24.53,36.09,27.4Z"/><path class="cls-9" d="M59.58,55.56c.93-.81,4.94-4.72,5.51-2.69A4.18,4.18,0,0,1,64,57.42c-1.78,1.68-2.53,1.4-3.78.59C59.37,57.44,58.69,56.33,59.58,55.56Z"/><path class="cls-9" d="M64.28,52.27c.46-.31,3.21-2.11,3.48-1.64.4.71-1.36,2-2.52,2.81-.63.46-1.69.68-1.89.15S63.54,52.76,64.28,52.27Z"/><path class="cls-48" d="M96.27,158.06a11.89,11.89,0,0,0-.28,2c-.13.82-.92,1.12-1.37,1.79s-1.28,1.93,1.78,2c3.28.06,5.22-.16,4.66-1.94a9.11,9.11,0,0,1-.63-3.16,1.92,1.92,0,0,0-.37-1.54C99.7,156.91,96.76,156.28,96.27,158.06Z"/><path class="cls-49" d="M70.31,62.89c1.25-.72,3.78-2.75,8.44-9.1a50.38,50.38,0,0,0,4.49-7c1.26-2.32.07-4.36-1.62-4.77-2.17-.53-4.54-.19-7,3.44a131.31,131.31,0,0,0-7.35,12C65.38,60.88,68.83,63.74,70.31,62.89Z"/><path class="cls-50" d="M81.93,32.14c-1.34.63-1.92.63-2.41-1-.37-1.29-1-5.84,1.07-6.15s3.7-.36,3.46,2.44S83.52,31.39,81.93,32.14Z"/><path class="cls-51" d="M89.77,34.58c0,.2.48,4.56.56,7.91a3.45,3.45,0,0,1-3.24,3.23H87c-1.61,0-3.5-1.46-3.36-3.06a43.3,43.3,0,0,0,.06-5.94Z"/><path class="cls-52" d="M97.89,52.73c-3,9.82-4.33,21.73-3.74,28.59H71.65s.13-21.07,1.64-32.61A8.63,8.63,0,0,1,78,42.1a16.15,16.15,0,0,1,6-1.33h4.16a25.14,25.14,0,0,1,4.39.55C98.54,42.44,99.62,47,97.89,52.73Z"/><path class="cls-53" d="M94.06,95.08s1.94-4.72.09-13.76H71.65a79.56,79.56,0,0,0,.89,13.76Z"/><path class="cls-54" d="M89.62,124.53c-1.8-7.32,5.68-8.61,8-3.31,3.34,7.49,3.06,32.47,2.89,37.25,0,.63,0,.57-.35.48-.55-.14-1.07-1.33-2.53-1.29-.84,0-1.53,1-1.53,1C95.43,152.19,91.36,131.62,89.62,124.53Z"/><path class="cls-55" d="M83.54,96.06c-.79-9.1,2.16-16.15,7.8-13.15,2.38,1.26,3.24,3.79,3.56,6.17s2.07,27.14,2.68,31.61c1.38,10.08-6.58,7.37-7.45,4.57C88,118.21,84,101,83.54,96.06Z"/><path class="cls-56" d="M75.68,124.5c-1.42-6.69,5.16-7.64,7.73-2.44,4,8.19,2.66,27.82,4.15,38.44-1.45-1.63-2.53-1.63-3-1.51a1.56,1.56,0,0,0-1.07.77C81.29,145.81,77.2,131.65,75.68,124.5Z"/><path class="cls-9" d="M73.71,55.41c-1.2-.44-3.08-1.12-4.05-1.56s-2.06,1.75-1.76,2.42c.44,1,2.76,3.1,4,2.45s2.15.3,3-.59S75.67,56.13,73.71,55.41Z"/><path class="cls-57" d="M83.46,124c-.41,2.9-7.38,7.34-8.28-2.8-.4-4.5-3-29.19-3.2-31.58s-.54-6,.31-6.61c5.27-3.61,11.26,2.84,11.19,12C83.44,101,84.31,117.95,83.46,124Z"/><path class="cls-58" d="M73.62,57.7c.84,1.64,2.26,2.3,5.91,4.63C84.79,65.69,87.72,67,90.34,67s3-5.34-.1-7c-2.65-1.42-13.44-3.15-15-4C74.12,55.42,72.94,56.37,73.62,57.7Z"/><path class="cls-59" d="M83.42,42.2c-.09,1.84-.52,3.32-2.85,7-3.12,4.9-7.06,11.65-9.25,13.49-2,1.7-5.93-2.17-3.76-5,1.83-2.39,12.67-14.89,13.78-16.35C82.06,40.34,83.49,40.7,83.42,42.2Z"/><path class="cls-9" d="M92,31.42c-.37,3.72-.48,4.55-2.11,6.07a8.78,8.78,0,0,1-5.72,2.22c-1.9,0-3.32-2-3.75-3.59A27,27,0,0,1,80,26.6,6,6,0,0,1,85.43,22C88.06,22,92.89,22.33,92,31.42Z"/><path class="cls-60" d="M83.46,159.55a7.63,7.63,0,0,1-3.19,2.33c-1.7.73-5.31,1.08-3.31,1.72a12.46,12.46,0,0,0,5.53.07,24.88,24.88,0,0,1,3.73-.22c1.84,0,1.85-.12,1.61-2.12C87.49,158.58,84.29,158,83.46,159.55Z"/><path class="cls-61" d="M92,30.85c-1,1-1.53,1.2-2.51-.15-.76-1-2.82-5-1-5.91s3.23-1.54,3.93,1.07S93.17,29.65,92,30.85Z"/><ellipse class="cls-9" cx="92.09" cy="31.97" rx="2.52" ry="1.32" transform="translate(27.66 105.12) rotate(-67.77)"/><path class="cls-9" d="M81.39,43.51c-.51-.75-4.25-6.82-2.72-7.07,1.69-.28,3.7,1.81,4.29,2.6a3.67,3.67,0,0,1,.27,4.18C82.74,43.81,81.88,44.22,81.39,43.51Z"/><path class="cls-62" d="M91.06,67c1.3-.63,3.12-4,5.64-11.43a50.35,50.35,0,0,0,2.14-8.07c.49-2.6-1.63-4.31-3-4.06-2.2.41-4.9,2.46-5.24,3.8-1.93,7.59-2.95,13.55-3.74,15.3C85.71,65.1,89.63,67.68,91.06,67Z"/><path class="cls-63" d="M90.77,24.54c-1.22.83-6.81,2.35-8.45,2.76a10.83,10.83,0,0,0,2.62-1.77,22.64,22.64,0,0,1-6.29,0,8.45,8.45,0,0,0,1.64-1.23,8.27,8.27,0,0,1-3-.51s6.06-4.14,11.34-2.64C91.38,22,92,23.7,90.77,24.54Z"/></g></g></g></svg>