<svg xmlns="http://www.w3.org/2000/svg" xmlns:xlink="http://www.w3.org/1999/xlink" viewBox="0 0 205.34 180"><defs><style>.cls-1{fill:#ed0f0f;opacity:0.1;}.cls-2,.cls-3,.cls-4,.cls-5{fill:none;stroke:#0037ff;stroke-linecap:round;stroke-linejoin:round;}.cls-3{opacity:0.7;}.cls-4{opacity:0.3;}.cls-5{opacity:0.6;}.cls-6{fill:url(#Gradient_bez_nazwy_8);}.cls-7{fill:#ffaf84;}.cls-8{fill:url(#Gradient_bez_nazwy_5);}.cls-9{fill:url(#Gradient_bez_nazwy_4);}.cls-10{fill:#ed9169;}.cls-11{fill:url(#Gradient_bez_nazwy_5-2);}.cls-12{fill:url(#Gradient_bez_nazwy_2);}.cls-13{fill:url(#Gradient_bez_nazwy_2-2);}.cls-14{fill:url(#Gradient_bez_nazwy_2-3);}.cls-15{fill:url(#Gradient_bez_nazwy_2-4);}.cls-16{fill:url(#Gradient_bez_nazwy_2-5);}.cls-17{fill:url(#Gradient_bez_nazwy_5-3);}.cls-18{fill:url(#Gradient_bez_nazwy_4-2);}.cls-19{fill:url(#Gradient_bez_nazwy_8-2);}.cls-20{fill:url(#Gradient_bez_nazwy_8-3);}.cls-21{fill:url(#Gradient_bez_nazwy_14);}.cls-22{fill:url(#Gradient_bez_nazwy_14-2);}.cls-23{fill:#4e11f4;}.cls-24{fill:url(#Gradient_bez_nazwy_14-3);}.cls-25{fill:url(#Gradient_bez_nazwy_14-4);}.cls-26{fill:url(#Gradient_bez_nazwy_14-5);}.cls-27{fill:#f70f47;}.cls-28{fill:url(#Gradient_bez_nazwy_3);}.cls-29{fill:url(#Gradient_bez_nazwy_3-2);}</style><linearGradient id="Gradient_bez_nazwy_8" x1="-1641.08" y1="2.33" x2="-1650.36" y2="45.08" gradientTransform="translate(1667.13)" gradientUnits="userSpaceOnUse"><stop offset="0" stop-color="#2c27ce"/><stop offset="1" stop-color="#ef1d68"/></linearGradient><linearGradient id="Gradient_bez_nazwy_5" x1="-1633.98" y1="45.63" x2="-1610.6" y2="47.93" gradientTransform="translate(1667.13)" gradientUnits="userSpaceOnUse"><stop offset="0" stop-color="#36078b"/><stop offset="1" stop-color="#16b1ff"/></linearGradient><linearGradient id="Gradient_bez_nazwy_4" x1="-1656.36" y1="167.24" x2="-1655.79" y2="150.17" gradientTransform="translate(1667.13)" gradientUnits="userSpaceOnUse"><stop offset="0" stop-color="#2c27ce"/><stop offset="0.65" stop-color="#ef1d68"/><stop offset="1" stop-color="#efba92"/></linearGradient><linearGradient id="Gradient_bez_nazwy_5-2" x1="-1648.34" y1="40.84" x2="-1639.4" y2="80.73" xlink:href="#Gradient_bez_nazwy_5"/><linearGradient id="Gradient_bez_nazwy_2" x1="-1641.35" y1="111.74" x2="-1640.13" y2="221.15" gradientTransform="translate(1667.13)" gradientUnits="userSpaceOnUse"><stop offset="0" stop-color="#f70f47"/><stop offset="1" stop-color="#9e005d"/></linearGradient><linearGradient id="Gradient_bez_nazwy_2-2" x1="-1654.12" y1="111.89" x2="-1652.9" y2="221.3" xlink:href="#Gradient_bez_nazwy_2"/><linearGradient id="Gradient_bez_nazwy_2-3" x1="-1649" y1="111.83" x2="-1647.78" y2="221.24" xlink:href="#Gradient_bez_nazwy_2"/><linearGradient id="Gradient_bez_nazwy_2-4" x1="-1632.78" y1="111.65" x2="-1631.56" y2="221.06" xlink:href="#Gradient_bez_nazwy_2"/><linearGradient id="Gradient_bez_nazwy_2-5" x1="-1635.09" y1="111.67" x2="-1633.87" y2="221.09" xlink:href="#Gradient_bez_nazwy_2"/><linearGradient id="Gradient_bez_nazwy_5-3" x1="-1655.26" y1="45.14" x2="-1659.85" y2="73.79" xlink:href="#Gradient_bez_nazwy_5"/><linearGradient id="Gradient_bez_nazwy_4-2" x1="-1628.19" y1="168.19" x2="-1627.61" y2="151.11" xlink:href="#Gradient_bez_nazwy_4"/><linearGradient id="Gradient_bez_nazwy_8-2" x1="-1202.14" y1="834.1" x2="-1211.43" y2="876.85" gradientTransform="translate(1074.84 -1012.96) rotate(-9.15)" xlink:href="#Gradient_bez_nazwy_8"/><linearGradient id="Gradient_bez_nazwy_8-3" x1="-1196.68" y1="835.29" x2="-1205.96" y2="878.04" gradientTransform="translate(1074.84 -1012.96) rotate(-9.15)" xlink:href="#Gradient_bez_nazwy_8"/><linearGradient id="Gradient_bez_nazwy_14" x1="188.93" y1="62.17" x2="207.23" y2="81.43" gradientUnits="userSpaceOnUse"><stop offset="0" stop-color="#f70f47"/><stop offset="1" stop-color="#ffb41d"/></linearGradient><linearGradient id="Gradient_bez_nazwy_14-2" x1="200.04" y1="51.61" x2="218.34" y2="70.87" xlink:href="#Gradient_bez_nazwy_14"/><linearGradient id="Gradient_bez_nazwy_14-3" x1="-5170.66" y1="-4096" x2="-5170.66" y2="-4053.65" gradientTransform="matrix(0.58, 0.81, -0.81, 0.58, -122.96, 6623.74)" xlink:href="#Gradient_bez_nazwy_14"/><linearGradient id="Gradient_bez_nazwy_14-4" x1="176.9" y1="25.42" x2="176.9" y2="67.77" xlink:href="#Gradient_bez_nazwy_14"/><linearGradient id="Gradient_bez_nazwy_14-5" x1="187.16" y1="25.42" x2="187.16" y2="67.77" xlink:href="#Gradient_bez_nazwy_14"/><linearGradient id="Gradient_bez_nazwy_3" x1="175.64" y1="6.97" x2="211.3" y2="34.43" gradientUnits="userSpaceOnUse"><stop offset="0" stop-color="blue"/><stop offset="1" stop-color="#9e005d"/></linearGradient><linearGradient id="Gradient_bez_nazwy_3-2" x1="173.56" y1="9.66" x2="209.22" y2="37.12" xlink:href="#Gradient_bez_nazwy_3"/></defs><title>plusy-box6</title><g id="Слой_2" data-name="Слой 2"><g id="Designed_by_Freepik" data-name="Designed by Freepik"><circle class="cls-1" cx="102.67" cy="90" r="90"/></g><g id="Objects"><circle class="cls-2" cx="104.87" cy="80.19" r="72.89"/><path class="cls-3" d="M116.06,130.12c-19.8-6-37-17.22-49.93-35.3-13.3-19.12-17.77-40.65-15.74-63A72.87,72.87,0,0,0,155.07,133,89.08,89.08,0,0,1,116.06,130.12Z"/><path class="cls-4" d="M104.87,7.29A73.05,73.05,0,0,0,89.73,8.88a21.4,21.4,0,0,1,13.92,3.68c-1.81,9-9.93,15.8-19.86,16.7C82.43,29.26,82,32,82,33.32c-.45,5-3.16,17.15,5.42,13.54.45-.45,1.81-.9,2.26-1.81,1.81-3.61,2.26-8.12,6.32-9,2.71-.9,5,1.35,5.87,3.61,2.71,6.77-2.71,11.28-9,13.09-1.81.45-2.26,3.61-3.16,5.87-.9,1.81-3.16,5.42-5.87,2.71-1.81-1.35,0-5.42-1.81-4.51-3.61,1.81-.45,7.67-4.51,9.93C75,68,71,69.42,69.49,71.84l.31.3a14.52,14.52,0,0,0,4.32,2.43,7.53,7.53,0,0,0,1.1-1.07,7.53,7.53,0,0,1-1.1,1.07,17.15,17.15,0,0,0,2.9.73c15.8.45,36.11-9,46.94,7.22,4.51,7.22,4.51,15.8,6.32,24.37,3.13,16,21.48,14.45,35.43,13.45a72.88,72.88,0,0,0-60.83-113Z"/><path class="cls-2" d="M66.63,61.75c-3.16-9.93-7.22-19.41-4.51-30.24l2.71-6.77A34.85,34.85,0,0,1,78,12.42a72.8,72.8,0,0,0-16,8.86c-4.34,14.6-4.15,30.38,2.48,44.59C65.67,64.59,67.19,63.43,66.63,61.75Z"/><path class="cls-2" d="M69.49,71.84c1.5-2.41,5.49-3.87,8-5.12,4.06-2.26.9-8.12,4.51-9.93,1.81-.9,0,3.16,1.81,4.51,2.71,2.71,5-.9,5.87-2.71.9-2.26,1.35-5.42,3.16-5.87,6.32-1.81,11.73-6.32,9-13.09-.9-2.26-3.16-4.51-5.87-3.61-4.06.9-4.51,5.42-6.32,9-.45.9-1.81,1.35-2.26,1.81-8.58,3.61-5.87-8.58-5.42-13.54,0-1.35.45-4.06,1.81-4.06,9.93-.9,18.05-7.67,19.86-16.7A21.4,21.4,0,0,0,89.73,8.88,72.27,72.27,0,0,0,78,12.42,34.85,34.85,0,0,0,64.83,24.74l-2.71,6.77c-2.71,10.83,1.35,20.31,4.51,30.24.56,1.68-1,2.84-2.2,4.12l.4.84C66.11,68.85,67.79,70.18,69.49,71.84Z"/><path class="cls-5" d="M130.27,106.89c-1.81-8.58-1.81-17.15-6.32-24.37C113.12,66.27,92.81,75.74,77,75.29a14.83,14.83,0,0,1-7.22-3.16c-1.81-1.81-3.61-3.16-5-5.42-7-14.43-7.3-30.55-2.87-45.43a73.4,73.4,0,0,0-11.56,10.5c-2,22.39,2.43,43.92,15.74,63,12.91,18.08,30.13,29.27,49.93,35.3a89.08,89.08,0,0,0,39,2.89,73.39,73.39,0,0,0,10.62-12.67C151.75,121.34,133.4,122.91,130.27,106.89Z"/><path class="cls-2" d="M96.29,19.27c-1.64,2.19-3.45,4.51-6.06,5.33s-5.23.09-7.64,1S78.51,29.24,78,31.9A23.88,23.88,0,0,0,78.44,40c.37,2.21,1.12,4.87,3.3,5.41,2.48.61,4.5-2.08,5.22-4.53s1.15-5.33,3.3-6.69a5.39,5.39,0,0,1,6.06.69,11,11,0,0,1,3.29,5.51c.66,2.18.86,4.9-.87,6.38-1.93,1.65-5.2.8-7.06,2.52-1.49,1.38-1.38,3.72-2,5.65s-3.4,3.53-4.53,1.84A3.37,3.37,0,1,0,78.9,54.2c-.65,1.95.55,4.14,0,6.11-1.29,4.29-8.75,2.91-11,6.77-.69,1.18-.19,2.9-.45,4.25a10.64,10.64,0,0,1-1.91,4.34,3,3,0,0,1-1.36,1.15,1.29,1.29,0,0,1-1.56-.53c-.45-.94.75-1.86.9-2.9a2,2,0,0,0-1.64-2,4.54,4.54,0,0,0-2.77.49c-4.74,2.12-8,7.2-8.85,12.19-.48,2.67.31,7.71,4.08,7.4a2.65,2.65,0,0,0,2.35-1.72c.25-.81,0-1.71.2-2.53a2.61,2.61,0,0,1,3.38-1.58c2,.77,2.45,3.78,2.3,5.66-.17,2.11-.52,4.27,0,6.32a15,15,0,0,0,2.77,5c2.3,3.11,4.19,7,8.65,7,3.8.41,8.31-1,11,1.68,4.17,4.08-1.1,12.44,3,16.6,2.32,2.35,6.9,2.28,8,5.39.81,2.19-.78,4.57-2.64,6s-4.11,2.41-5.51,4.29-1.32,5.15.86,6c-5.92.68-11.92-1.2-17.08-4.18s-9.63-7-14.05-11c-3.09-2.79-6.47-6.53-5.34-10.54.66-2.33,2.7-3.94,4.22-5.83a15.25,15.25,0,0,0,2.15-15.2,9.71,9.71,0,0,0-6.45-6.17c-1.91-.54-4-.49-5.79-1.31-4.48-2-3.88-7-6-10.69-.62-1.05-2.52-1.9-2.91-.28-.23.95.94,3,1.51,3.69s1.48,1.53,1.16,2.41-1.19,1-2,1.07c-1.26.17-3.37-5.1-3.66-6-.82-2.56-.58-4.69-.34-7.26.18-2-1.59-3.28-2-5.35a16.66,16.66,0,0,1,.6-7.11c4.37-16.34,12.79-31.89,25.61-42.92A62.9,62.9,0,0,1,85.77,9C89.46,8.21,97.4,6.15,101,7.84,105.42,9.93,98,16.95,96.29,19.27Z"/><path class="cls-2" d="M88.46,142.81c1.39-1.45,3.3-2.37,4.92-3.6,1.86-1.42,3.45-3.79,2.64-6-1.15-3.1-5.72-3-8-5.39-4.1-4.15,1.17-12.52-3-16.6-2.73-2.68-7.24-1.27-11-1.68-4.46,0-6.35-3.91-8.65-7a15,15,0,0,1-2.77-5c-.54-2-.18-4.21,0-6.32.15-1.88-.29-4.89-2.3-5.66a2.61,2.61,0,0,0-3.38,1.58c-.22.82,0,1.72-.2,2.53a2,2,0,0,1-.08.2q.82,4.24,1.85,8.34C62.87,116.77,73.93,131.61,88.46,142.81Z"/><path class="cls-2" d="M88.46,142.81c-14.54-11.2-25.6-26-30.08-44.55q-1-4.09-1.85-8.34a2.7,2.7,0,0,1-2.27,1.53c-3.77.3-4.56-4.73-4.08-7.4a18.13,18.13,0,0,1,4.21-8.73c-1.81-18-.59-36.81,5.08-53.37l-1,.87c-12.82,11-21.24,26.58-25.61,42.92a16.66,16.66,0,0,0-.6,7.11c.37,2.07,2.14,3.38,2,5.35-.24,2.57-.48,4.69.34,7.26.29.92,2.4,6.19,3.66,6,.78-.1,1.71-.32,2-1.07S39.6,88.72,39,88s-1.74-2.74-1.51-3.69c.39-1.62,2.29-.78,2.91.28,2.14,3.65,1.54,8.65,6,10.69,1.81.82,3.88.77,5.79,1.31a9.71,9.71,0,0,1,6.45,6.17A15.25,15.25,0,0,1,56.49,118c-1.52,1.88-3.56,3.5-4.22,5.83-1.14,4,2.25,7.74,5.34,10.54,4.42,4,8.89,8,14.05,11s11.16,4.86,17.08,4.18c-2.18-.85-2.25-4.12-.86-6A7.28,7.28,0,0,1,88.46,142.81Z"/><path class="cls-2" d="M54.39,75.32A13.84,13.84,0,0,1,59,71.86a4.54,4.54,0,0,1,2.77-.49,2,2,0,0,1,1.64,2c-.15,1-1.35,2-.9,2.9a1.29,1.29,0,0,0,1.56.53,3,3,0,0,0,1.36-1.15,10.65,10.65,0,0,0,1.91-4.34c.26-1.35-.24-3.07.45-4.25,2.28-3.86,9.73-2.48,11-6.77.59-2-.61-4.16,0-6.11a3.37,3.37,0,1,1,6.23,2.52c1.14,1.69,3.89.09,4.53-1.84s.53-4.27,2-5.65c1.87-1.72,5.14-.87,7.06-2.52,1.73-1.48,1.53-4.2.87-6.38a11,11,0,0,0-3.29-5.51,5.39,5.39,0,0,0-6.06-.69c-2.16,1.36-2.58,4.25-3.3,6.69S84.21,46,81.73,45.37c-2.18-.54-2.93-3.2-3.3-5.41A23.88,23.88,0,0,1,78,31.9c.48-2.66,2.05-5.29,4.57-6.27s5.18-.24,7.64-1,4.42-3.14,6.06-5.33S105.42,9.93,101,7.84C97.4,6.15,89.46,8.21,85.77,9A62.78,62.78,0,0,0,59.47,22C53.8,38.52,52.58,57.31,54.39,75.32Z"/><path class="cls-2" d="M177.54,79.57a16.1,16.1,0,0,1-18.13,1.27c-1.59-1-3.5-2.27-5.13-1.37a4.57,4.57,0,0,0-1.56,1.84l-8.73,15a13.8,13.8,0,0,0-2.07,5,4.7,4.7,0,0,0,1.95,4.71c-1.45,1.23-.3,3.76,1.43,4.56s3.74.63,5.55,1.2,3.52,2.55,2.63,4.23c-.73,1.38-2.76,1.67-3.45,3.07a4.17,4.17,0,0,0-.23,2.15L150.91,137C167.54,123.86,177.61,100.79,177.54,79.57Z"/><path class="cls-2" d="M159.4,80.84c-1.59-1-3.5-2.27-5.13-1.37a4.57,4.57,0,0,0-1.56,1.84l-6,10.41a19,19,0,0,0,4.69,4.83c6.89,4.3,12.05-.86,18.94-.86,1.72.86,1.72,3.44,3.44,4.3.29.08.57.13.84.18a74.4,74.4,0,0,0,2.95-20.6A16.1,16.1,0,0,1,159.4,80.84Z"/><path class="cls-2" d="M170.3,95.68c-6.89,0-12.05,5.17-18.94.86a19,19,0,0,1-4.69-4.83L144,96.34a13.8,13.8,0,0,0-2.07,5,4.7,4.7,0,0,0,1.95,4.71c-1.45,1.23-.3,3.76,1.43,4.56s3.74.63,5.55,1.2,3.52,2.55,2.63,4.23c-.73,1.38-2.76,1.67-3.45,3.07a4.17,4.17,0,0,0-.23,2.15L150.91,137c11.3-9,19.56-22.47,23.68-36.88-.28-.05-.55-.11-.84-.18C172,99.13,172,96.54,170.3,95.68Z"/><path class="cls-2" d="M24.43,144.26l.65.14Z"/><path class="cls-2" d="M176.59,72.48l-.89,1a11.51,11.51,0,0,1-.87-.81l-1.13-1.25c-1-.14-1.39,1.9-2.28,1.49-.59-.27-.28-1.16.07-1.71a9.67,9.67,0,0,0-.09-10.06,3.33,3.33,0,0,0-1.49-1.4c-.65-.25-1.4-.27-1.43.43a10.35,10.35,0,0,0,2.3,7l-1.34.88-.23-.62a1.36,1.36,0,0,0-1.36.93l-4,.15c1.8-1.18,2.27-3.73,1.63-5.79a5.43,5.43,0,0,0-3.06-3.55c-1.51-.58-3-.68-3.78.71l-.86.29a5,5,0,0,1-1.46,4,6.39,6.39,0,0,1-4,1.79,4.82,4.82,0,0,1-2.66-.44,2.87,2.87,0,0,1-1.56-2.11c-.22-1.78,1.57-3.23,1.71-5a4.31,4.31,0,0,1,2.81-3.59,5.06,5.06,0,0,1,4.92.42l.63-2.75c1.13.59,2.55-.49,2.79-1.75a6.23,6.23,0,0,0-.84-3.67,1.94,1.94,0,0,1,2.68.09,6.07,6.07,0,0,1,1.39,2.62,4.9,4.9,0,0,0,1.53,2.52c.69.5,1.36.22,2-.38a3.31,3.31,0,0,0,.81-2.36c0-3.49-2.69-6.59-5.95-7.83a10.21,10.21,0,0,1-2.71-1.2c-1.5-1.16-1.81-3.25-2-5.14.75-1.15,1.09-2.2,1.84-3.35C169.75,43.6,175.87,57.21,176.59,72.48Z"/><path class="cls-2" d="M129.88,94.49l.88,6.41a3.88,3.88,0,0,0,1.24,2.82,2.63,2.63,0,0,0,3.22-.58A7.68,7.68,0,0,0,136.8,100a15.26,15.26,0,0,0,1-4.56A5.16,5.16,0,0,0,136,91.29,3.8,3.8,0,0,0,130.25,96"/><ellipse class="cls-2" cx="68.13" cy="45.52" rx="7.02" ry="3.78"/><ellipse class="cls-2" cx="68.13" cy="45.52" rx="4.44" ry="2.39"/><ellipse class="cls-2" cx="81.72" cy="20.48" rx="7.02" ry="3.78"/><ellipse class="cls-2" cx="81.72" cy="20.48" rx="4.44" ry="2.39"/><ellipse class="cls-2" cx="52" cy="65.36" rx="7.02" ry="3.78"/><ellipse class="cls-2" cx="52" cy="65.36" rx="4.44" ry="2.39"/><ellipse class="cls-2" cx="68.13" cy="115" rx="7.02" ry="3.78"/><ellipse class="cls-2" cx="68.13" cy="115" rx="4.44" ry="2.39"/><ellipse class="cls-2" cx="79.58" cy="131.12" rx="7.02" ry="3.78"/><ellipse class="cls-2" cx="79.58" cy="131.12" rx="4.44" ry="2.39"/><ellipse class="cls-2" cx="150.81" cy="104.06" rx="7.02" ry="3.78"/><ellipse class="cls-2" cx="150.81" cy="104.06" rx="4.44" ry="2.39"/><ellipse class="cls-2" cx="155.07" cy="56.47" rx="7.02" ry="3.78"/><ellipse class="cls-2" cx="155.07" cy="56.47" rx="4.44" ry="2.39"/><ellipse class="cls-2" cx="165.79" cy="89.67" rx="7.02" ry="3.78"/><ellipse class="cls-2" cx="165.79" cy="89.67" rx="4.44" ry="2.39"/><ellipse class="cls-2" cx="165.7" cy="102.43" rx="7.02" ry="3.78"/><ellipse class="cls-2" cx="165.7" cy="102.43" rx="4.44" ry="2.39"/><ellipse class="cls-2" cx="61.23" cy="32.08" rx="7.02" ry="3.78"/><ellipse class="cls-2" cx="61.23" cy="32.08" rx="4.44" ry="2.39"/><path class="cls-6" d="M15,17.1a13.13,13.13,0,0,0-5.1,12.61,30,30,0,0,1-1,13.36c-1,3-4.34,13.18,7.6,12.95S29.2,41.8,27.82,34.63,29,22.43,27.16,20.25,21.18,12.57,15,17.1Z"/><path class="cls-7" d="M60.1,43.22c2.23-1.76,4.48-3.67,4.94-1.68s.48,1.87-1.12,3.32S58.22,44.7,60.1,43.22Z"/><path class="cls-8" d="M60.17,42.84c-1.51.68-12.07,2.81-16.37,4.15l-.12,0c-2.14-.59-8-3.45-15.93-7a10,10,0,0,0-7.07.42c-1.41.71-1.88,3.13.68,4.43a64,64,0,0,0,8.5,3.67c7.2,2.64,11,3.41,13,3.6a2.83,2.83,0,0,0,1.35,0,37.72,37.72,0,0,0,11.47-4.35c3.76-2,5.23-1.35,5.82-2.54C62,44.28,61.29,42.33,60.17,42.84Z"/><path class="cls-9" d="M12.06,165.45a12.91,12.91,0,0,1,.28,2.14c.14.86.93,1.17,1.39,1.88s1.3,2-1.8,2.09c-3.32.07-5.28-.16-4.72-2a9.81,9.81,0,0,0,.63-3.31,2.08,2.08,0,0,1,.38-1.62C8.6,164.23,11.58,163.57,12.06,165.45Z"/><path class="cls-10" d="M18.15,31.75c0,.25-.42,5.5-.49,9.54,0,2,1.39,3.86,2.81,3.9h.06c1.4,0,3-1.75,2.92-3.7-.22-3.51-.06-7.11-.05-7.16Z"/><path class="cls-11" d="M14.07,54.47a68.76,68.76,0,0,1,2.52,11,28.06,28.06,0,0,1,0,8.31c-.23,1.66-.55,3.3-.93,4.93-.14.62-1.36,5.6-1.41,6.13H37c-.22-4.46-5.3-18.46-1.86-27.53,2.38-6.28-.78-6.47-2.93-11.7a15.34,15.34,0,0,0-1.82-3.79,6.54,6.54,0,0,0-3.48-2.13,12.9,12.9,0,0,0-2.12-.3C20.92,39.13,11.85,38,11,43.49a9.69,9.69,0,0,0,.45,4.43c.51,1.6,1.27,3.1,1.91,4.66C13.61,53.2,13.85,53.83,14.07,54.47Z"/><path class="cls-12" d="M14.31,99.34s-2-5-.09-14.45H37a139.15,139.15,0,0,1,.83,14.45Z"/><path class="cls-13" d="M18.8,130.24c1.82-7.69-5.74-9-8.13-3.48-3.38,7.87-3.11,33-2.93,38,0,.66.37.53.73.4a5.46,5.46,0,0,1,2.4-.45,2.1,2.1,0,0,1,1.27,1C12.86,158.94,17,137.69,18.8,130.24Z"/><path class="cls-14" d="M25.6,100.37c.8-9.55-2.85-17-8.55-13.81-2.4,1.33-3.28,4-3.6,6.48s-2.09,28.48-2.71,33.18c-1.4,10.58,6.66,7.73,7.53,4.8C20.47,123.62,25.16,105.58,25.6,100.37Z"/><path class="cls-15" d="M39,129.75c.3-7.17-6.43-7-8.11-1.18-2.66,9.18,1.94,28.88,2.22,40.13,1.17-1.94,2.28-2.42,2.8-2.37a1.86,1.86,0,0,1,1.31.73C37.09,152.23,38.73,137.41,39,129.75Z"/><path class="cls-16" d="M31.2,130.52c.89,2.93,8.59,6.31,7.79-4.34-.36-4.72-1.31-30.81-1.49-33.33s-.6-6.19-1.82-6.65c-6.08-2.29-12,5.21-10.37,14.65C26.38,107.17,29.35,124.46,31.2,130.52Z"/><path class="cls-7" d="M63.58,40.89a8.23,8.23,0,0,1,3.49-1.73c1-.09-1.15,1.05-1.92,1.74S62.67,41.58,63.58,40.89Z"/><path class="cls-7" d="M15.14,74.1c2.78-.56,4.19-1.49,5.46-.79s-.6,3.15-1.54,3.55-4.27,2.12-5.25,1.2A2.48,2.48,0,0,1,15.14,74.1Z"/><path class="cls-17" d="M5.81,62c1.58-2.46,5.11-7.08,9.42-13.08a10,10,0,0,0,1-7c-.4-1.53-2.68-2.49-4.48-.25a63.49,63.49,0,0,0-5.34,7.57C1.75,56.75.44,60.35,0,62A1.79,1.79,0,0,0,.8,63.8c.05.09.1.18.16.26a37.67,37.67,0,0,0,8.57,8.78c3.3,2.66,3.32,4.25,4.65,4.33,1.08.06,2.57-1.38,1.65-2.21C14.65,73.89,8.86,65.61,5.81,62Z"/><path class="cls-7" d="M14.63,28.7c1.16,4.36,1.45,5.32,3.67,6.82a10.59,10.59,0,0,0,7.23,1.55c2.27-.37,3.57-3,3.77-5A32.64,32.64,0,0,0,28,20.65c-.72-2.41-4.24-4.9-7.37-4.4S11.81,18,14.63,28.7Z"/><path class="cls-18" d="M37.54,167a7.77,7.77,0,0,0,3.22,2.44c1.72.77,5.37,1.13,3.34,1.81a12.16,12.16,0,0,1-5.59.08,24.08,24.08,0,0,0-3.77-.23c-1.86,0-1.88-.13-1.63-2.23C33.47,166,36.71,165.38,37.54,167Z"/><path class="cls-19" d="M26.88,18.45c2.21,2.68-9.53,10.15-12.4,10.14s-3.1-5.47-1.38-8.54S21.66,12.12,26.88,18.45Z"/><path class="cls-20" d="M22.08,18.46c.86,2.44,5.35,2.3,6.43,4.26.67,1.21.23-2.89-1.09-4.57S20.35,13.57,22.08,18.46Z"/><ellipse class="cls-7" cx="15.28" cy="28.6" rx="1.59" ry="3.04" transform="translate(-9.68 7.9) rotate(-22.22)"/><path class="cls-21" d="M182.64,70.82c2,.64,3.63,0,8.4-1,6.86-1.5,8.4-2.3,12.25-4.71,2.52-1.58-1.71-6.79-5.55-5.64-3.25,1-13.22,8.22-15.2,8.81C181.23,68.65,181,70.3,182.64,70.82Z"/><path class="cls-22" d="M204,64.06c.48-1.55,1-5.16,0-14a56.78,56.78,0,0,0-1.67-9.25c-.74-2.88-3.72-3.62-5-2.71-2,1.47-3.82,4.85-3.53,6.38,1.66,8.66,3.47,15.22,3.5,17.39C197.4,65.06,203.45,65.9,204,64.06Z"/><path class="cls-23" d="M199.84,166.17a13.32,13.32,0,0,0-.31,2.3c-.15.92-1,1.26-1.54,2s-1.45,2,2,2.11c3.69.07,5.88,0,5.25-2.06a10.25,10.25,0,0,1-.71-3.55,2.17,2.17,0,0,0-.42-1.73C203.69,164.86,200.38,164.16,199.84,166.17Z"/><path class="cls-7" d="M155.41,52.72c-1.2-.62-10.86-5-10.95-2.7-.09,2.55,3.36,5.12,4.63,5.85,2.32,1.33,5.11.8,6.23-.38C156.11,54.66,156.55,53.31,155.41,52.72Z"/><path class="cls-7" d="M155.07,52c-.38-.49-2.61-3.42-3.19-3-.88.58.49,2.57,1.39,3.89.49.72,1.63,1.35,2.16.88S155.67,52.82,155.07,52Z"/><path class="cls-23" d="M171.47,167.85a8.6,8.6,0,0,1-3.59,2.62c-1.92.83-6,1.21-3.72,1.94a14,14,0,0,0,6.22.08,28.17,28.17,0,0,1,4.2-.24c2.07,0,2.09-.14,1.81-2.39C176,166.75,172.4,166.09,171.47,167.85Z"/><path class="cls-7" d="M195,24.13c-.42,4.19-.54,5.12-2.37,6.84s-4.69,2-6.68,2c-2.15,0-3.56-2.59-4-4.36a25.83,25.83,0,0,1-.42-9.88,6.77,6.77,0,0,1,6.14-5.15C190.58,13.55,196,13.89,195,24.13Z"/><path class="cls-24" d="M153.12,55.42c1.31,1.61,2.36,2.54,7,3.93,6.32,1.87,10,2.51,13.18,2.72,3,.19,2.48-6.89-1.38-8-3.26-.94-15.57-.26-17.54-.84C153.11,52.84,152.06,54.11,153.12,55.42Z"/><path class="cls-25" d="M173.64,60.27c1.24-1,3.63-3.81,7.53-11.78a56.89,56.89,0,0,0,3.57-8.7c.93-2.83-1.19-5.05-2.75-5-2.51.14-5.83,2-6.41,3.48-3.26,8.2-5.26,14.7-6.4,16.54C167.52,57.55,172.17,61.51,173.64,60.27Z"/><path class="cls-7" d="M192.87,31.51c.11,1.45.22,3.13.27,4.65a4,4,0,0,1-3.49,4.06h-.23c-1.81,0-3.94-1.64-3.78-3.45.1-1.18.14-2.37.15-3.41A4.71,4.71,0,0,1,188.92,29h0A3,3,0,0,1,192.87,31.51Z"/><path class="cls-26" d="M201.25,49.43c-3.36,11.06-4.47,22.6-3.81,30.32H172.11S172.26,56,174,43a9.72,9.72,0,0,1,5.35-7.45,18.18,18.18,0,0,1,6.75-1.5h4.68a17.73,17.73,0,0,1,4.94.62C202.59,36.82,203.2,43,201.25,49.43Z"/><path class="cls-27" d="M197.34,95.25s2.19-5.32.1-15.5H172.11a144,144,0,0,0-.92,15.5Z"/><path class="cls-27" d="M192.34,128.4c-2-8.25,6.4-9.7,9.05-3.73,3.76,8.44,3.46,35.41,3.26,40.8,0,.71.1,1.57-.26,1.82a5.42,5.42,0,0,1-2.68.43c-.94,0-1.87,0-2-1.19C199.11,158.66,194.3,136.39,192.34,128.4Z"/><path class="cls-27" d="M184.77,96.36c-.89-10.25,3.17-18.2,9.52-14.82,2.67,1.42,3.65,4.27,4,7s2.33,30.56,3,35.59c1.55,11.36-7.41,8.29-8.39,5.15C190.48,121.29,185.25,101.94,184.77,96.36Z"/><path class="cls-27" d="M176.35,169.65c.32-12.07,5.44-33.2,2.48-43-1.88-6.26-9.37-6.42-9,1.27.36,8.22,2.83,24.14,2,40C171.7,169.45,176.29,171.06,176.35,169.65Z"/><path class="cls-27" d="M178.53,128.7c-1,3.14-9.56,6.77-8.67-4.65.4-5.07,1.45-33.05,1.66-35.75s.67-6.64,2-7.13c6.77-2.46,13.33,5.59,11.55,15.72C183.9,103.65,180.59,122.19,178.53,128.7Z"/><ellipse class="cls-7" cx="181.21" cy="23.81" rx="1.49" ry="2.84" transform="translate(4.46 70.31) rotate(-22.22)"/><ellipse class="cls-7" cx="194.88" cy="23.81" rx="2.84" ry="1.49" transform="translate(99.16 195.22) rotate(-67.79)"/><path class="cls-28" d="M193.71,15.87c-1.63,2.44-9.52,2.66-12.09,1.77s-2.4-5.88,1.29-6.22c2.07,0,.57.49,2.25,1.18C186,12.94,195.45,13.27,193.71,15.87Z"/><path class="cls-29" d="M184.84,15.45c-2.43,1.47-3,2.75-2.93,5.76s1.35,8.13,6.88,9.27,6.83-4.34,7.17-8.13.12-6.61-2.68-7.29C189.13,14,186.31,14.56,184.84,15.45Z"/></g></g></svg>