<svg xmlns="http://www.w3.org/2000/svg" xmlns:xlink="http://www.w3.org/1999/xlink" viewBox="0 0 201.29 183.37"><defs><style>.cls-1{fill:#ed0f0f;opacity:0.1;}.cls-2{fill:#f70f47;}.cls-3{fill:url(#Gradient_bez_nazwy_2);}.cls-4{fill:url(#Gradient_bez_nazwy_2-2);}.cls-5{fill:#ed9169;}.cls-6{fill:url(#Gradient_bez_nazwy_2-3);}.cls-7{fill:#ffb41d;}.cls-8{fill:url(#Gradient_bez_nazwy_2-4);}.cls-9{fill:url(#Gradient_bez_nazwy_2-5);}.cls-10{fill:#ffaf84;}.cls-11,.cls-12,.cls-13{fill:none;stroke:#0037ff;stroke-miterlimit:10;}.cls-12{opacity:0.5;}.cls-13{opacity:0.4;}.cls-14{opacity:0.6;}.cls-15{fill:url(#Gradient_bez_nazwy_14);}.cls-16{fill:url(#Gradient_bez_nazwy_14-2);}.cls-17{fill:#4e11f4;}.cls-18{fill:url(#Gradient_bez_nazwy_14-3);}.cls-19{fill:url(#Gradient_bez_nazwy_14-4);}.cls-20{fill:url(#Gradient_bez_nazwy_14-5);}.cls-21{fill:url(#Gradient_bez_nazwy_3);}.cls-22{fill:url(#Gradient_bez_nazwy_3-2);}</style><linearGradient id="Gradient_bez_nazwy_2" x1="61.54" y1="21.32" x2="35.59" y2="28.47" gradientUnits="userSpaceOnUse"><stop offset="0" stop-color="#f70f47"/><stop offset="1" stop-color="#9e005d"/></linearGradient><linearGradient id="Gradient_bez_nazwy_2-2" x1="61.55" y1="21.36" x2="35.6" y2="28.51" xlink:href="#Gradient_bez_nazwy_2"/><linearGradient id="Gradient_bez_nazwy_2-3" x1="21.75" y1="29.65" x2="26.25" y2="68.32" xlink:href="#Gradient_bez_nazwy_2"/><linearGradient id="Gradient_bez_nazwy_2-4" x1="5.24" y1="31.57" x2="9.74" y2="70.24" xlink:href="#Gradient_bez_nazwy_2"/><linearGradient id="Gradient_bez_nazwy_2-5" x1="8.12" y1="31.24" x2="12.62" y2="69.9" xlink:href="#Gradient_bez_nazwy_2"/><linearGradient id="Gradient_bez_nazwy_14" x1="185.13" y1="52.93" x2="203.16" y2="71.89" gradientUnits="userSpaceOnUse"><stop offset="0" stop-color="#f70f47"/><stop offset="1" stop-color="#ffb41d"/></linearGradient><linearGradient id="Gradient_bez_nazwy_14-2" x1="196.07" y1="42.52" x2="214.1" y2="61.49" xlink:href="#Gradient_bez_nazwy_14"/><linearGradient id="Gradient_bez_nazwy_14-3" x1="-5070.57" y1="-3909.58" x2="-5070.57" y2="-3867.88" gradientTransform="matrix(0.58, 0.81, -0.81, 0.58, -33.61, 6424.97)" xlink:href="#Gradient_bez_nazwy_14"/><linearGradient id="Gradient_bez_nazwy_14-4" x1="173.28" y1="16.73" x2="173.28" y2="58.44" xlink:href="#Gradient_bez_nazwy_14"/><linearGradient id="Gradient_bez_nazwy_14-5" x1="183.39" y1="16.73" x2="183.39" y2="58.44" xlink:href="#Gradient_bez_nazwy_14"/><linearGradient id="Gradient_bez_nazwy_3" x1="172.04" y1="-1.45" x2="207.16" y2="25.6" gradientUnits="userSpaceOnUse"><stop offset="0" stop-color="blue"/><stop offset="1" stop-color="#9e005d"/></linearGradient><linearGradient id="Gradient_bez_nazwy_3-2" x1="170" y1="1.21" x2="205.12" y2="28.25" xlink:href="#Gradient_bez_nazwy_3"/></defs><title>plusy-box5</title><g id="Слой_2" data-name="Слой 2"><g id="Designed_by_Freepik" data-name="Designed by Freepik"><circle class="cls-1" cx="92.28" cy="93.37" r="90"/></g><g id="Objects"><path class="cls-2" d="M11,143.8a12.39,12.39,0,0,1,.29,2.13c.14.86,1,1.17,1.43,1.87s1.34,2-1.86,2.08c-3.42.07-5.44-.16-4.86-2a9.47,9.47,0,0,0,.65-3.29,2,2,0,0,1,.39-1.6C7.45,142.6,10.52,141.94,11,143.8Z" transform="translate(0 0)"/><path class="cls-3" d="M57.05,15.9c.15,1.92,0,3.21-2.22,7.12a54.22,54.22,0,0,1-7.11,10.23c-1.87,2-6.06-3-4.18-6.25,1.58-2.71,10.29-10.09,11.25-11.75C55.41,14.16,56.93,14.35,57.05,15.9Z" transform="translate(0 0)"/><path class="cls-4" d="M46.59,33.68c-1.47.29-4.85.43-12.87-1.36a52.53,52.53,0,0,1-8.35-2.44c-2.58-1-3-3.78-2-4.86,1.55-1.74,4.84-3,6.22-2.62,7.81,2.38,13.67,4.69,15.66,4.93C48.16,27.68,48.34,33.33,46.59,33.68Z" transform="translate(0 0)"/><path class="cls-2" d="M26,12.51c1.4.66,2,.66,2.51-1.08.39-1.35,1.05-6.09-1.11-6.41s-3.86-.38-3.61,2.54S24.32,11.74,26,12.51Z" transform="translate(0 0)"/><path class="cls-5" d="M17.8,15.06c0,.21-.5,4.76-.59,8.25a3.6,3.6,0,0,0,3.38,3.37h.07c1.68,0,3.65-1.52,3.5-3.2a45.1,45.1,0,0,1-.06-6.19Z" transform="translate(0 0)"/><path class="cls-6" d="M9.34,34c3.11,10.24,4.51,22.66,3.9,29.81H36.69s-.14-22-1.71-34A9,9,0,0,0,30,22.9a16.84,16.84,0,0,0-6.25-1.38H19.45a26.21,26.21,0,0,0-4.58.57C8.66,23.25,7.53,28,9.34,34Z" transform="translate(0 0)"/><path class="cls-7" d="M13.34,78.14s-2-4.92-.1-14.35H36.69a133.3,133.3,0,0,1,.85,14.35Z" transform="translate(0 0)"/><path class="cls-7" d="M18,108.84c1.88-7.63-5.92-9-8.38-3.46-3.48,7.81-3.2,32.79-3,37.77,0,.65.38.53.76.4a5.82,5.82,0,0,1,2.48-.45,2.14,2.14,0,0,1,1.3,1C11.84,137.34,16.15,116.23,18,108.84Z" transform="translate(0 0)"/><path class="cls-7" d="M25,79.17c.82-9.49-2.93-16.85-8.82-13.72-2.48,1.32-3.38,4-3.72,6.44s-2.16,28.29-2.79,33c-1.44,10.51,6.86,7.68,7.76,4.77C19.68,102.25,24.53,84.34,25,79.17Z" transform="translate(0 0)"/><path class="cls-7" d="M38.84,108.34c.31-7.12-6.62-7-8.36-1.18-2.74,9.11,2,28.68,2.29,39.86,1.21-1.93,2.35-2.4,2.89-2.36a1.93,1.93,0,0,1,1.35.73C36.82,130.67,38.51,116,38.84,108.34Z" transform="translate(0 0)"/><path class="cls-7" d="M30.75,109.11c.92,2.91,8.85,6.27,8-4.31-.37-4.69-1.35-30.6-1.54-33.1s-.62-6.15-1.87-6.6C29.1,62.82,23,70.28,24.67,79.65,25.78,85.92,28.84,103.09,30.75,109.11Z" transform="translate(0 0)"/><path class="cls-8" d="M13,58.45c-1.85-.53-2.81-1.85-5.93-5.11-4.49-4.7-5.26-6.11-7-10C-1,40.87,5,39,7.33,41.92c2,2.43,5.9,13.15,7.11,14.62C15.25,57.52,14.55,58.88,13,58.45Z" transform="translate(0 0)"/><path class="cls-9" d="M0,42.47c.24-1.48,1.28-4.7,5.74-11.6a52.53,52.53,0,0,1,5.19-7c1.8-2.09,4.58-1.47,5.25-.19,1.09,2.06,1.18,5.59.3,6.74-4.94,6.5-9.14,11.19-10.06,13C5.09,46-.27,44.23,0,42.47Z" transform="translate(0 0)"/><path class="cls-10" d="M15.5,11.77c.39,3.88.5,4.74,2.2,6.33a9.15,9.15,0,0,0,6,2.32c2,0,3.46-2.1,3.91-3.74A28.24,28.24,0,0,0,28,6.74,6.27,6.27,0,0,0,22.33,2C19.59,2,14.55,2.29,15.5,11.77Z" transform="translate(0 0)"/><path class="cls-10" d="M12.35,56c.9-1,2.31-2.52,3-3.4s2.75.63,2.79,1.39c.07,1.12-1.07,4.19-2.5,4.19s-1.85,1.31-3.07.91S10.88,57.62,12.35,56Z" transform="translate(0 0)"/><path class="cls-2" d="M37.29,145.36a8,8,0,0,0,3.32,2.43c1.77.76,5.54,1.12,3.45,1.79a13,13,0,0,1-5.76.07,26.09,26.09,0,0,0-3.89-.23c-1.92,0-1.93-.13-1.68-2.21C33.09,144.34,36.42,143.73,37.29,145.36Z" transform="translate(0 0)"/><path class="cls-2" d="M15.51,11.17c1.05,1.05,1.6,1.25,2.62-.15.79-1.09,2.94-5.16,1.09-6.16S15.85,3.25,15.12,6,14.26,9.92,15.51,11.17Z" transform="translate(0 0)"/><ellipse class="cls-10" cx="15.38" cy="12.34" rx="1.38" ry="2.63" transform="translate(-3.52 6.73) rotate(-22.22)"/><path class="cls-2" d="M16.69,4.12c1.51,2.26,8.81,2.47,11.2,1.64S30.11.32,26.7,0c-1.92,0-.53.46-2.09,1.09C23.83,1.41,15.08,1.71,16.69,4.12Z" transform="translate(0 0)"/><path class="cls-10" d="M54.46,15.46c.43-1.17,4.24-10.23,5.74-8.72,1.66,1.67.94,5.6.53,6.89-.74,2.36-3,3.76-4.47,3.66C55.2,17.22,54.06,16.57,54.46,15.46Z" transform="translate(0 0)"/><path class="cls-10" d="M54.26,14.77c-.06-.57-.37-4,.26-4.07,1-.16,1.28,2.05,1.5,3.52.12.79-.26,1.94-.91,2S54.35,15.69,54.26,14.77Z" transform="translate(0 0)"/><polygon class="cls-11" points="51.86 46.35 51.86 156.3 180 146.44 180 60.34 51.86 46.35"/><polygon class="cls-12" points="56.41 153.5 182.53 144.33 182.53 67.26 56.41 55.3 56.41 153.5"/><polygon class="cls-12" points="115.04 143.22 170.22 139.84 170.22 69.68 115.04 64.87 115.04 143.22"/><path class="cls-11" d="M123.49,83l48,2.58c.58,0,1.06-.56,1.06-1.31V74.73a1.37,1.37,0,0,0-1.06-1.45l-48-3.83a1.29,1.29,0,0,0-1.29,1.41V81.39A1.51,1.51,0,0,0,123.49,83Z" transform="translate(0 0)"/><path class="cls-11" d="M123.49,100.8l48,.93a1.21,1.21,0,0,0,1.06-1.35V90.88a1.31,1.31,0,0,0-1.06-1.42l-48-2.18a1.34,1.34,0,0,0-1.29,1.46V99.26A1.45,1.45,0,0,0,123.49,100.8Z" transform="translate(0 0)"/><path class="cls-11" d="M121.79,102.76l48.25.75a1.22,1.22,0,0,0,1.06-1.36V92.62A1.31,1.31,0,0,0,170,91.21l-48.25-2a1.35,1.35,0,0,0-1.3,1.46v10.56A1.45,1.45,0,0,0,121.79,102.76Z" transform="translate(0 0)"/><path class="cls-11" d="M123.49,118.63l48-.72a1.26,1.26,0,0,0,1.06-1.38V107a1.26,1.26,0,0,0-1.06-1.38l-48-.53a1.4,1.4,0,0,0-1.29,1.5v10.53A1.39,1.39,0,0,0,123.49,118.63Z" transform="translate(0 0)"/><polygon class="cls-13" points="32.76 111.46 100.28 108.82 100.28 22.11 32.76 13.96 32.76 111.46"/><path class="cls-11" d="M123.49,136.46l48-2.36a1.32,1.32,0,0,0,1.06-1.42v-9.51a1.21,1.21,0,0,0-1.06-1.34l-48,1.11a1.46,1.46,0,0,0-1.29,1.54V135A1.33,1.33,0,0,0,123.49,136.46Z" transform="translate(0 0)"/><path class="cls-11" d="M70.58,76c-8.07,3.23-17.92,1.23-24.85-6.1A26,26,0,0,1,39.17,57.4l11.73-2A12.53,12.53,0,0,0,62.28,65.58a10.45,10.45,0,0,0,4.2-.67Z" transform="translate(0 0)"/><path class="cls-11" d="M78.9,68l-.52.51-7.44-8.84a11.55,11.55,0,0,0,3.49-8.44c0-6.51-5-12.2-11.19-12.73a10.53,10.53,0,0,0-10.42,5.94L42.1,38.19A21.62,21.62,0,0,1,46.69,32c9.25-8.6,23.67-7,32.2,3C87.19,44.78,87.18,59.33,78.9,68Z" transform="translate(0 0)"/><path class="cls-11" d="M51.59,49.77a12.92,12.92,0,0,0,.27,2.63l-11.73,2a24.4,24.4,0,0,1,2-16.17l10.72,6.26A11.91,11.91,0,0,0,51.59,49.77Z" transform="translate(0 0)"/><path class="cls-11" d="M78.38,68.52A20.54,20.54,0,0,1,71.55,73L67.44,61.87a10.35,10.35,0,0,0,3.5-2.2Z" transform="translate(0 0)"/><g class="cls-14"><polygon class="cls-11" points="149.51 93.98 168.81 94.64 168.81 93.24 149.51 92.52 149.51 93.98"/><polygon class="cls-11" points="149.51 96.57 168.81 97.13 168.81 95.73 149.51 95.11 149.51 96.57"/><polygon class="cls-11" points="160.44 99.42 168.81 99.62 168.81 98.22 160.44 98 160.44 99.42"/></g><polygon class="cls-12" points="135.69 121.83 141.46 121.97 141.46 115.08 135.69 114.87 135.69 121.83"/><polygon class="cls-12" points="125.59 106.04 131.53 106.18 131.53 99.2 125.59 98.98 125.59 106.04"/><polygon class="cls-11" points="67.48 103.83 67.48 147.54 68.5 147.48 68.5 103.84 67.48 103.83"/><polygon class="cls-11" points="109.19 131.23 109.19 144.88 110.07 144.83 110.07 131.2 109.19 131.23"/><polygon class="cls-11" points="89.12 116.51 89.12 146.16 90.06 146.1 90.06 116.5 89.12 116.51"/><path class="cls-11" d="M44.35,137.74c12.05-.54,12.05-28,23.63-28,11.13,0,11.13,26.41,21.83,25.93,10.31-.46,10.31-25.87,20.24-25.85" transform="translate(0 0)"/><polygon class="cls-11" points="83.27 79.43 83.27 77.18 79.1 77.1 79.1 79.37 83.27 79.43"/><polygon class="cls-11" points="90.49 79.54 90.49 77.31 86.43 77.24 86.43 79.48 90.49 79.54"/><polygon class="cls-11" points="97.52 79.64 97.52 77.44 93.57 77.37 93.57 79.58 97.52 79.64"/><polygon class="cls-12" points="148.1 111.06 167.7 111.05 167.7 109.16 148.1 109.09 148.1 111.06"/><polygon class="cls-12" points="154.68 114.51 167.7 114.41 167.7 112.52 154.68 112.56 154.68 114.51"/><polygon class="cls-12" points="149.74 114.54 153.12 114.52 153.12 112.57 149.74 112.58 149.74 114.54"/><polygon class="cls-12" points="148.1 77.5 167.7 78.82 167.7 76.93 148.1 75.53 148.1 77.5"/><polygon class="cls-12" points="156.23 81.49 167.7 82.18 167.7 80.29 156.23 79.55 156.23 81.49"/><polygon class="cls-12" points="141.83 80.62 154.68 81.39 154.68 79.45 141.83 78.63 141.83 80.62"/><polygon class="cls-12" points="160.06 127.63 167.7 127.36 167.7 125.47 160.06 125.71 160.06 127.63"/><polygon class="cls-12" points="150.68 127.95 158.61 127.68 158.61 125.75 150.68 126 150.68 127.95"/><polygon class="cls-12" points="154.68 131.26 167.7 130.72 167.7 128.83 154.68 129.32 154.68 131.26"/><polygon class="cls-12" points="139.49 131.9 153.12 131.33 153.12 129.38 139.49 129.9 139.49 131.9"/><path class="cls-11" d="M94.81,25.94a3.21,3.21,0,0,0-3.88.54,3.72,3.72,0,0,0-1,1.9l1.76.57a1.68,1.68,0,0,1,1.77-1.43,1.73,1.73,0,0,1,.67.2Z" transform="translate(0 0)"/><path class="cls-11" d="M96,26.93l-.09-.1-1.21,1.34a2.28,2.28,0,0,1,.57,1.51,1.73,1.73,0,0,1-1.8,1.85,2,2,0,0,1-1.62-1.25L90.24,31a4.42,4.42,0,0,0,.69,1.12,3.37,3.37,0,0,0,5.08.39A4.31,4.31,0,0,0,96,26.93Z" transform="translate(0 0)"/><path class="cls-11" d="M91.67,29.38a2.21,2.21,0,0,1,0-.43l-1.76-.57A4.48,4.48,0,0,0,90.24,31l1.62-.75A2.27,2.27,0,0,1,91.67,29.38Z" transform="translate(0 0)"/><path class="cls-11" d="M95.92,26.83a4,4,0,0,0-1.12-.89l-.66,1.79a2,2,0,0,1,.56.45Z" transform="translate(0 0)"/><path class="cls-11" d="M90.16,67.94a3.78,3.78,0,0,0,3.32,2.53,3.21,3.21,0,0,0,1.93-.57l-1-1.7a1.69,1.69,0,0,1-2.25-.35,2.12,2.12,0,0,1-.38-.64Z" transform="translate(0 0)"/><path class="cls-11" d="M89.86,66.35s0,.09,0,.13h1.8A2,2,0,0,1,92.2,65a1.68,1.68,0,0,1,2.55.1,2.21,2.21,0,0,1,.43,2.07l1.68.7A4.3,4.3,0,0,0,97,66.62a4,4,0,0,0-3.57-4.13A3.63,3.63,0,0,0,89.86,66.35Z" transform="translate(0 0)"/><path class="cls-11" d="M94.75,67.95a1.76,1.76,0,0,1-.3.26l1,1.7a3.73,3.73,0,0,0,1.45-2l-1.68-.7A1.93,1.93,0,0,1,94.75,67.95Z" transform="translate(0 0)"/><path class="cls-11" d="M89.87,66.48a4.4,4.4,0,0,0,.29,1.46l1.66-.73a2.2,2.2,0,0,1-.15-.73Z" transform="translate(0 0)"/><path class="cls-11" d="M94.9,45.35A3.74,3.74,0,0,0,97,41.82a4.47,4.47,0,0,0-.56-2.18l-1.49,1a2.14,2.14,0,0,1-.24,2.48,1.65,1.65,0,0,1-.56.39Z" transform="translate(0 0)"/><path class="cls-11" d="M93.48,45.59h.12l-.06-2a1.82,1.82,0,0,1-1.34-.66,2.16,2.16,0,0,1,0-2.84,1.62,1.62,0,0,1,1.86-.36l.57-1.84a3.37,3.37,0,0,0-1.15-.29,3.54,3.54,0,0,0-3.62,3.77A4.09,4.09,0,0,0,93.48,45.59Z" transform="translate(0 0)"/><path class="cls-11" d="M94.75,40.27a2.12,2.12,0,0,1,.24.35l1.49-1a4,4,0,0,0-1.85-1.74l-.57,1.84A1.92,1.92,0,0,1,94.75,40.27Z" transform="translate(0 0)"/><path class="cls-11" d="M93.6,45.6a3.12,3.12,0,0,0,1.3-.25l-.7-1.86a1.58,1.58,0,0,1-.65.12Z" transform="translate(0 0)"/><path class="cls-15" d="M178.94,61.44c1.94.63,3.58,0,8.27-1,6.76-1.48,8.27-2.26,12.07-4.64,2.48-1.55-1.68-6.69-5.47-5.56-3.2,1-13,8.1-15,8.67C177.55,59.31,177.36,60.93,178.94,61.44Z" transform="translate(0 0)"/><path class="cls-16" d="M200,54.78c.47-1.53,1-5.09,0-13.77a55.93,55.93,0,0,0-1.65-9.11c-.73-2.84-3.67-3.56-4.92-2.67-2,1.45-3.76,4.77-3.48,6.28,1.64,8.53,3.42,15,3.45,17.13C193.47,55.77,199.43,56.59,200,54.78Z" transform="translate(0 0)"/><path class="cls-17" d="M195.87,155.35a13.12,13.12,0,0,0-.31,2.26c-.15.91-1,1.24-1.52,2s-1.42,2,2,2.08c3.63.07,5.79,0,5.17-2a10.1,10.1,0,0,1-.7-3.5,2.13,2.13,0,0,0-.41-1.71C199.67,154.07,196.41,153.37,195.87,155.35Z" transform="translate(0 0)"/><path class="cls-10" d="M152.12,43.61c-1.18-.61-10.7-4.93-10.78-2.66-.09,2.51,3.31,5,4.56,5.76,2.28,1.31,5,.79,6.13-.37C152.81,45.52,153.24,44.19,152.12,43.61Z" transform="translate(0 0)"/><path class="cls-10" d="M151.78,42.93c-.37-.49-2.57-3.37-3.15-3-.87.57.48,2.53,1.37,3.83.48.7,1.6,1.33,2.13.87S152.37,43.72,151.78,42.93Z" transform="translate(0 0)"/><path class="cls-17" d="M167.93,157a8.47,8.47,0,0,1-3.53,2.58c-1.89.81-5.89,1.19-3.67,1.91a13.8,13.8,0,0,0,6.13.08,27.74,27.74,0,0,1,4.13-.24c2,0,2.06-.13,1.78-2.35C172.4,155.93,168.85,155.28,167.93,157Z" transform="translate(0 0)"/><path class="cls-10" d="M191.11,15.46c-.41,4.13-.53,5-2.34,6.73s-4.62,1.94-6.58,1.94c-2.11,0-3.51-2.55-4-4.3a25.44,25.44,0,0,1-.41-9.73,6.67,6.67,0,0,1,6-5.07C186.76,5,192.12,5.37,191.11,15.46Z" transform="translate(0 0)"/><path class="cls-18" d="M149.86,46.27c1.29,1.59,2.33,2.5,6.93,3.87a57.74,57.74,0,0,0,13,2.68c2.92.19,2.44-6.79-1.36-7.89-3.21-.93-15.33-.25-17.28-.83C149.85,43.73,148.81,45,149.86,46.27Z" transform="translate(0 0)"/><path class="cls-19" d="M170.07,51.05c1.22-1,3.58-3.75,7.42-11.6A56,56,0,0,0,181,30.89c.91-2.79-1.17-5-2.71-4.89-2.48.14-5.74,2-6.31,3.43-3.21,8.07-5.18,14.48-6.3,16.29C164,48.37,168.63,52.28,170.07,51.05Z" transform="translate(0 0)"/><path class="cls-10" d="M189,22.73c.11,1.43.22,3.08.27,4.58a3.94,3.94,0,0,1-3.44,4h-.23c-1.78,0-3.88-1.61-3.72-3.4.1-1.16.14-2.33.15-3.36a4.64,4.64,0,0,1,3.09-4.35h0A2.92,2.92,0,0,1,189,22.73Z" transform="translate(0 0)"/><path class="cls-20" d="M197.27,40.37c-3.31,10.89-4.4,22.25-3.75,29.86H168.56s.15-23.37,1.82-36.16a9.58,9.58,0,0,1,5.27-7.34,17.91,17.91,0,0,1,6.65-1.47h4.61a17.46,17.46,0,0,1,4.87.61C198.58,28,199.19,34.06,197.27,40.37Z" transform="translate(0 0)"/><path class="cls-2" d="M193.41,85.5s2.16-5.24.1-15.26H168.56a141.81,141.81,0,0,0-.91,15.26Z" transform="translate(0 0)"/><path class="cls-2" d="M188.49,118.15c-2-8.12,6.3-9.55,8.92-3.68,3.7,8.31,3.41,34.88,3.21,40.18,0,.7.09,1.55-.26,1.79a5.34,5.34,0,0,1-2.64.42c-.93,0-1.84,0-1.94-1.18C195.15,148,190.42,126,188.49,118.15Z" transform="translate(0 0)"/><path class="cls-2" d="M181,86.6c-.88-10.09,3.12-17.93,9.38-14.6,2.63,1.4,3.6,4.21,4,6.85s2.29,30.1,3,35.06c1.53,11.18-7.3,8.17-8.26,5.07C186.66,111.15,181.51,92.09,181,86.6Z" transform="translate(0 0)"/><path class="cls-2" d="M172.74,158.78c.31-11.89,5.35-32.7,2.44-42.4-1.85-6.16-9.22-6.32-8.9,1.25.35,8.09,2.79,23.78,2,39.41C168.16,158.58,172.68,160.17,172.74,158.78Z" transform="translate(0 0)"/><path class="cls-2" d="M174.88,118.45c-1,3.09-9.42,6.67-8.54-4.58.39-5,1.43-32.56,1.63-35.21s.66-6.54,2-7c6.66-2.42,13.13,5.5,11.37,15.48C180.18,93.78,176.92,112,174.88,118.45Z" transform="translate(0 0)"/><ellipse class="cls-10" cx="177.53" cy="15.14" rx="1.46" ry="2.79" transform="translate(7.46 68.27) rotate(-22.22)"/><ellipse class="cls-10" cx="190.99" cy="15.14" rx="2.79" ry="1.46" transform="translate(104.76 186.23) rotate(-67.79)"/><path class="cls-21" d="M189.84,7.32c-1.61,2.4-9.38,2.62-11.91,1.74s-2.36-5.79,1.27-6.12c2,0,.56.49,2.22,1.16C182.25,4.44,191.55,4.76,189.84,7.32Z" transform="translate(0 0)"/><path class="cls-22" d="M181.1,6.91c-2.39,1.44-2.95,2.71-2.88,5.67s1.33,8,6.78,9.13,6.73-4.28,7.06-8,.12-6.51-2.64-7.18C185.33,5.53,182.55,6,181.1,6.91Z" transform="translate(0 0)"/></g></g></svg>