<svg xmlns="http://www.w3.org/2000/svg" xmlns:xlink="http://www.w3.org/1999/xlink" viewBox="0 0 196.82 180"><defs><style>.cls-1{isolation:isolate;}.cls-2{fill:#ed0f0f;opacity:0.1;}.cls-3{fill:none;stroke:#0037ff;stroke-linecap:round;stroke-linejoin:round;}.cls-4{fill:url(#Gradient_bez_nazwy_4);}.cls-5{fill:url(#Gradient_bez_nazwy_2);}.cls-6{fill:url(#Gradient_bez_nazwy_2-2);}.cls-7{fill:#ea8f68;}.cls-8{fill:url(#Gradient_bez_nazwy_2-3);}.cls-9{fill:url(#Gradient_bez_nazwy_10);}.cls-10{fill:url(#Gradient_bez_nazwy_5);}.cls-11{fill:url(#Gradient_bez_nazwy_5-2);}.cls-12{fill:url(#Gradient_bez_nazwy_5-3);}.cls-13{fill:url(#Gradient_bez_nazwy_5-4);}.cls-14{fill:#ffaf84;}.cls-15{fill:url(#Gradient_bez_nazwy_4-2);}.cls-16{fill:url(#Gradient_bez_nazwy_4-3);}.cls-17{fill:url(#Gradient_bez_nazwy_4-4);}.cls-18{fill:url(#Gradient_bez_nazwy_4-5);}.cls-19{fill:url(#Gradient_bez_nazwy_2-4);}.cls-20{fill:url(#Gradient_bez_nazwy_2-5);}.cls-21,.cls-34{opacity:0.3;mix-blend-mode:multiply;}.cls-21{fill:url(#Gradient_bez_nazwy_3);}.cls-22{fill:url(#Gradient_bez_nazwy_14);}.cls-23{fill:url(#Gradient_bez_nazwy_14-2);}.cls-24{fill:#f70f47;}.cls-25{fill:#ed9169;}.cls-26{fill:url(#Gradient_bez_nazwy_14-3);}.cls-27{fill:url(#Gradient_bez_nazwy_5-5);}.cls-28{fill:url(#Gradient_bez_nazwy_5-6);}.cls-29{fill:url(#Gradient_bez_nazwy_5-7);}.cls-30{fill:url(#Gradient_bez_nazwy_5-8);}.cls-31{fill:url(#Gradient_bez_nazwy_5-9);}.cls-32{fill:url(#Gradient_bez_nazwy_14-4);}.cls-33{fill:url(#Gradient_bez_nazwy_14-5);}.cls-34{fill:url(#Gradient_bez_nazwy_3-2);}</style><linearGradient id="Gradient_bez_nazwy_4" x1="49.09" y1="55.79" x2="9.32" y2="27.1" gradientUnits="userSpaceOnUse"><stop offset="0" stop-color="#2c27ce"/><stop offset="0.65" stop-color="#ef1d68"/><stop offset="1" stop-color="#efba92"/></linearGradient><linearGradient id="Gradient_bez_nazwy_2" x1="178.26" y1="6396.43" x2="165.97" y2="6427.06" gradientTransform="matrix(0.61, -0.79, 0.79, 0.61, -5134.48, -3737.38)" gradientUnits="userSpaceOnUse"><stop offset="0" stop-color="#f70f47"/><stop offset="1" stop-color="#9e005d"/></linearGradient><linearGradient id="Gradient_bez_nazwy_2-2" x1="854.02" y1="3861.35" x2="840.26" y2="3895.65" gradientTransform="matrix(0.85, -0.52, 0.52, 0.85, -2697.13, -2827.53)" xlink:href="#Gradient_bez_nazwy_2"/><linearGradient id="Gradient_bez_nazwy_2-3" x1="27.02" y1="52.38" x2="31.56" y2="91.39" gradientTransform="matrix(1, 0, 0, 1, 0, 0)" xlink:href="#Gradient_bez_nazwy_2"/><linearGradient id="Gradient_bez_nazwy_10" x1="35.1" y1="79.49" x2="17.11" y2="131.87" gradientUnits="userSpaceOnUse"><stop offset="0" stop-color="#36078b"/><stop offset="1" stop-color="#168d68"/></linearGradient><linearGradient id="Gradient_bez_nazwy_5" x1="-553.49" y1="-873.35" x2="-571.88" y2="-819.82" gradientTransform="matrix(0.99, 0.15, -0.15, 0.99, 458.61, 1032.21)" gradientUnits="userSpaceOnUse"><stop offset="0" stop-color="#36078b"/><stop offset="1" stop-color="#16b1ff"/></linearGradient><linearGradient id="Gradient_bez_nazwy_5-2" x1="32.2" y1="78.49" x2="14.21" y2="130.87" gradientTransform="matrix(1, 0, 0, 1, 0, 0)" xlink:href="#Gradient_bez_nazwy_5"/><linearGradient id="Gradient_bez_nazwy_5-3" x1="57.83" y1="87.3" x2="39.84" y2="139.67" gradientTransform="matrix(1, 0, 0, 1, 0, 0)" xlink:href="#Gradient_bez_nazwy_5"/><linearGradient id="Gradient_bez_nazwy_5-4" x1="45.93" y1="83.21" x2="27.94" y2="135.59" gradientTransform="matrix(1, 0, 0, 1, 0, 0)" xlink:href="#Gradient_bez_nazwy_5"/><linearGradient id="Gradient_bez_nazwy_4-2" x1="40.67" y1="185.69" x2="42.71" y2="160.62" xlink:href="#Gradient_bez_nazwy_4"/><linearGradient id="Gradient_bez_nazwy_4-3" x1="11.92" y1="190.34" x2="14.49" y2="158.75" xlink:href="#Gradient_bez_nazwy_4"/><linearGradient id="Gradient_bez_nazwy_4-4" x1="44.31" y1="50.31" x2="21.74" y2="24.57" xlink:href="#Gradient_bez_nazwy_4"/><linearGradient id="Gradient_bez_nazwy_4-5" x1="48.95" y1="46.25" x2="26.39" y2="20.5" xlink:href="#Gradient_bez_nazwy_4"/><linearGradient id="Gradient_bez_nazwy_2-4" x1="117.61" y1="1362.95" x2="104.07" y2="1396.7" gradientTransform="translate(-688.1 -1129.29) rotate(-26.03)" xlink:href="#Gradient_bez_nazwy_2"/><linearGradient id="Gradient_bez_nazwy_2-5" x1="-721.94" y1="-1170.76" x2="-728.76" y2="-1153.74" gradientTransform="translate(105.93 1438.82) rotate(28.48)" xlink:href="#Gradient_bez_nazwy_2"/><linearGradient id="Gradient_bez_nazwy_3" x1="-4148.69" y1="163.53" x2="-4141.16" y2="163.53" gradientTransform="matrix(-1, 0, 0, 1, -3957.97, 0)" gradientUnits="userSpaceOnUse"><stop offset="0" stop-color="blue"/><stop offset="1" stop-color="#9e005d"/></linearGradient><linearGradient id="Gradient_bez_nazwy_14" x1="-4091.42" y1="34.93" x2="-4118.14" y2="42.29" gradientTransform="matrix(-1, 0, 0, 1, -3957.97, 0)" gradientUnits="userSpaceOnUse"><stop offset="0" stop-color="#f70f47"/><stop offset="1" stop-color="#ffb41d"/></linearGradient><linearGradient id="Gradient_bez_nazwy_14-2" x1="-4091.41" y1="34.97" x2="-4118.13" y2="42.34" xlink:href="#Gradient_bez_nazwy_14"/><linearGradient id="Gradient_bez_nazwy_14-3" x1="-4132.4" y1="43.51" x2="-4127.76" y2="83.32" xlink:href="#Gradient_bez_nazwy_14"/><linearGradient id="Gradient_bez_nazwy_5-5" x1="-4192.85" y1="172.01" x2="-4101.16" y2="49.26" gradientTransform="matrix(-1, 0, 0, 1, -3957.97, 0)" xlink:href="#Gradient_bez_nazwy_5"/><linearGradient id="Gradient_bez_nazwy_5-6" x1="-4176.31" y1="184.36" x2="-4084.63" y2="61.61" gradientTransform="matrix(-1, 0, 0, 1, -3957.97, 0)" xlink:href="#Gradient_bez_nazwy_5"/><linearGradient id="Gradient_bez_nazwy_5-7" x1="-4190.55" y1="173.73" x2="-4098.86" y2="50.98" gradientTransform="matrix(-1, 0, 0, 1, -3957.97, 0)" xlink:href="#Gradient_bez_nazwy_5"/><linearGradient id="Gradient_bez_nazwy_5-8" x1="-4160.22" y1="196.39" x2="-4068.53" y2="73.64" gradientTransform="matrix(-1, 0, 0, 1, -3957.97, 0)" xlink:href="#Gradient_bez_nazwy_5"/><linearGradient id="Gradient_bez_nazwy_5-9" x1="-4179.13" y1="182.26" x2="-4087.44" y2="59.51" gradientTransform="matrix(-1, 0, 0, 1, -3957.97, 0)" xlink:href="#Gradient_bez_nazwy_5"/><linearGradient id="Gradient_bez_nazwy_14-4" x1="-4149.39" y1="45.49" x2="-4144.76" y2="85.3" xlink:href="#Gradient_bez_nazwy_14"/><linearGradient id="Gradient_bez_nazwy_14-5" x1="-4146.43" y1="45.14" x2="-4141.8" y2="84.95" xlink:href="#Gradient_bez_nazwy_14"/><linearGradient id="Gradient_bez_nazwy_3-2" x1="-4121.2" y1="164.56" x2="-4108.79" y2="164.56" xlink:href="#Gradient_bez_nazwy_3"/></defs><title>plusy-box2</title><g class="cls-1"><g id="Слой_2" data-name="Слой 2"><g id="Designed_by_Freepik" data-name="Designed by Freepik"><circle class="cls-2" cx="90" cy="90" r="90"/></g><g id="Objects"><rect class="cls-3" x="44.3" y="28.56" width="103.45" height="136.86" rx="13.47" ry="13.47" transform="translate(192.05 193.98) rotate(180)"/><path class="cls-3" d="M164.3,9.27c-22.56,1.46-23,27.11-23,27.11V158.52H50.74V36.38s-.1-25.56,23.1-27.11Z"/><rect class="cls-3" x="62.63" y="41.18" width="62.22" height="5.49"/><rect class="cls-3" x="62.63" y="53.87" width="53.12" height="3.89"/><rect class="cls-3" x="62.63" y="64.14" width="26.7" height="5.78"/><rect class="cls-3" x="97.23" y="64.14" width="27.62" height="27.62"/><rect class="cls-3" x="62.63" y="75.13" width="26.89" height="4.25"/><rect class="cls-3" x="62.63" y="86.17" width="26.59" height="1.67"/><rect class="cls-3" x="62.63" y="95.85" width="57.64" height="2.29"/><rect class="cls-3" x="62.83" y="106.02" width="30.91" height="18.43"/><rect class="cls-3" x="96.03" y="106.14" width="24.25" height="2.97"/><rect class="cls-3" x="96.03" y="112.43" width="17.19" height="2.97"/><rect class="cls-3" x="62.63" y="126.73" width="47.51" height="2.29"/><rect class="cls-3" x="62.63" y="137.02" width="71.12" height="2.29"/><path class="cls-4" d="M24.44,23.94c1.43-2-.21-5.56-4.26-5.9-4.63-.38-12.85,2.29-8.44,13.08,4.59,11.23,3.15,14.1.06,15.79,0,0,10.6.85,9.79-8.41S21.13,28.61,24.44,23.94Z"/><path class="cls-5" d="M45.7,59c-1.59-.27-5-1.26-12.35-5.17A59.64,59.64,0,0,1,26,49.37c-2.2-1.54-1.45-3.72-.06-4.19a9.34,9.34,0,0,1,6.59.52c6.87,4.27,11.94,7.66,13.84,8.49C49.11,55.39,47.59,59.34,45.7,59Z"/><path class="cls-6" d="M57.61,44.91c.1,1.19-1.31,1.4-3.27,4.67a33.86,33.86,0,0,1-6.75,8.71c-1.9,1.88-5.36-.09-3.52-2.77,1.55-2.27,10.43-10.43,11.37-11.81C56.06,42.8,57.53,43.95,57.61,44.91Z"/><path class="cls-7" d="M22.86,37.4c0,.23-.39,5.14-.46,8.91,0,1.85,1.3,3.6,2.63,3.64h.06c1.3,0,2.84-1.64,2.72-3.45-.21-3.28-.05-6.64,0-6.69Z"/><path class="cls-8" d="M19,58.62A64.13,64.13,0,0,1,21.4,68.93a26.12,26.12,0,0,1,0,7.76c-.21,1.55-.51,3.08-.87,4.61-.13.58-1.27,5.23-1.32,5.73H40.43c-.2-4.16-4.94-17.24-1.73-25.71,2.22-5.86-.73-6-2.73-10.92a14.34,14.34,0,0,0-1.7-3.54,6.1,6.1,0,0,0-3.25-2,12.1,12.1,0,0,0-2-.28c-3.6-.29-12.06-1.33-12.86,3.78a9.06,9.06,0,0,0,.42,4.13c.48,1.49,1.18,2.9,1.78,4.35Q18.74,57.72,19,58.62Z"/><path class="cls-9" d="M19.27,100.51S17.44,95.88,19.19,87H40.43a130,130,0,0,1,.77,13.49Z"/><path class="cls-10" d="M23,130.31c2.79-6.83-4-9.17-7-4.38C11.8,132.7,10,157.73,9.4,162.38c-.07.61.26.55.62.48,1-.2.61-1.18,2.1-1.09.79,0,1,1.14,1,1.14C14.78,156.7,20.35,136.92,23,130.31Z"/><path class="cls-11" d="M29.82,101.48c.75-8.92-2.66-15.84-8-12.9-2.24,1.24-3.06,3.72-3.37,6.05s-2,26.6-2.53,31c-1.3,9.88,6.22,7.22,7,4.48C25,123.18,29.41,106.34,29.82,101.48Z"/><path class="cls-12" d="M42.37,128.9c.28-6.69-6-6.55-7.58-1.1-2.48,8.57,1.81,27,2.08,37.47C38,163.45,39,163,39.49,163a1.75,1.75,0,0,1,1.22.69C40.55,149.89,42.07,136.06,42.37,128.9Z"/><path class="cls-13" d="M35,129.63c.83,2.73,8,5.89,7.27-4.05-.33-4.41-1.22-28.77-1.39-31.12s-.56-5.78-1.7-6.21c-5.67-2.14-11.18,4.86-9.69,13.68C30.54,107.82,33.32,124,35,129.63Z"/><path class="cls-14" d="M20.3,33.85c.42,4.19.54,5.12,2.37,6.84a9.88,9.88,0,0,0,6.44,2.5c2.15,0,3.74-2.27,4.22-4a30.48,30.48,0,0,0,.49-10.73,6.77,6.77,0,0,0-6.14-5.15C24.72,23.26,19.28,23.61,20.3,33.85Z"/><path class="cls-15" d="M41,163.7A7.25,7.25,0,0,0,44,166c1.61.72,5,1.05,3.12,1.69a11.32,11.32,0,0,1-5.22.07,22.64,22.64,0,0,0-3.52-.21c-1.74,0-1.75-.12-1.52-2.08C37.17,162.74,40.19,162.17,41,163.7Z"/><path class="cls-16" d="M13.1,162.5c.24.47.5,2.76,2.1,3.47s5,1.05,3.12,1.69a11.32,11.32,0,0,1-5.22.07c-1.12-.18-1.3-1.4-2.61-1.41-1.74,0-1.75-.12-1.52-2.08C9.29,161.55,12.31,161,13.1,162.5Z"/><path class="cls-17" d="M33.12,26.22c1.64,2.8-10.29,7.94-12.94,7.5s-2.63-6.07-.58-8.64S29.24,19.61,33.12,26.22Z"/><path class="cls-18" d="M28.69,25.51c.43,2.37,4.59,2.92,5.3,4.88.44,1.22.64-2.63-.33-4.37S27.82,20.75,28.69,25.51Z"/><ellipse class="cls-14" cx="20.18" cy="34.46" rx="1.49" ry="2.84" transform="translate(-11.53 10.19) rotate(-22.21)"/><path class="cls-14" d="M23.29,82.49a7.69,7.69,0,0,1,2.88,2.22c.47.79-1.3-.1-2.18-.47S22.33,82,23.29,82.49Z"/><path class="cls-14" d="M23.89,83.73c1.47,2.17,2.61,3.08,2.71,4.35s-2.13.42-2.76-.26-3-3-2.87-4.05S22.81,82.13,23.89,83.73Z"/><path class="cls-19" d="M11.8,68.91c-.12-1.61,0-5.19,2.1-13.22a59.53,59.53,0,0,1,2.62-8.24c1-2.5,3.27-2.29,4.06-1a9.35,9.35,0,0,1,1,6.53c-2.52,7.69-4.62,13.41-5,15.45C16.14,71.36,11.94,70.82,11.8,68.91Z"/><path class="cls-20" d="M21.63,84.19c-1.2-.33-.9-1.78-3.4-4.86a35.23,35.23,0,0,1-6.1-9.7c-1.16-2.53,2-5.21,4-2.45,1.66,2.33,6.47,13.91,7.48,15.32C24.24,83.43,22.6,84.46,21.63,84.19Z"/><path class="cls-14" d="M59.32,45.59a3.84,3.84,0,0,0,1.95-1.19c.2-.33-.5-.95-1.76-1.14-1.1-.17-3.95-.14-4.24.36s.21,1.13,1,1.71A3.38,3.38,0,0,0,59.32,45.59Z"/><path class="cls-21" d="M185.47,161a12.75,12.75,0,0,0-.3,2.19c-.14.88-1,1.2-1.47,1.92s-1.38,2.08,1.91,2.14c3.52.07,5.6-.17,5-2.08a9.75,9.75,0,0,1-.67-3.39,2.07,2.07,0,0,0-.4-1.65C189.14,159.8,186,159.13,185.47,161Z"/><path class="cls-22" d="M140.41,28.68c1,1.7,9.95,9.31,11.58,12.1,1.93,3.3-2.38,8.52-4.31,6.44a55.83,55.83,0,0,1-7.32-10.53c-2.33-4-2.44-5.36-2.29-7.34C138.2,27.75,139.76,27.56,140.41,28.68Z"/><path class="cls-23" d="M150.22,41.11c2.05-.25,8.09-2.63,16.13-5.08,1.42-.43,4.8.91,6.4,2.7,1,1.11.6,4-2.06,5a54.09,54.09,0,0,1-8.6,2.52c-8.25,1.84-11.73,1.7-13.25,1.4C147,47.3,147.22,41.48,150.22,41.11Z"/><path class="cls-24" d="M170.07,25.86c-1.44.68-2.07.68-2.58-1.11-.4-1.39-1.08-6.27,1.14-6.6s4-.39,3.72,2.62S171.78,25.06,170.07,25.86Z"/><path class="cls-25" d="M178.48,28.48c0,.22.52,4.9.6,8.49a3.7,3.7,0,0,1-3.48,3.47h-.08c-1.73,0-3.76-1.56-3.6-3.29a46.44,46.44,0,0,0,.06-6.38Z"/><path class="cls-26" d="M187.2,48c-3.21,10.54-4.64,23.33-4,30.7H159s.14-22.62,1.76-35a9.27,9.27,0,0,1,5.1-7.1,17.34,17.34,0,0,1,6.44-1.43h4.46a27,27,0,0,1,4.71.59C187.9,36.92,189.06,41.86,187.2,48Z"/><path class="cls-27" d="M183.08,93.43s2.09-5.07.1-14.77H159a137.26,137.26,0,0,0-.88,14.77Z"/><path class="cls-28" d="M178.32,125c-1.93-7.86,6.1-9.25,8.63-3.56,3.59,8,3.3,33.76,3.11,38.89,0,.67-.39.55-.78.41a6,6,0,0,0-2.55-.46,2.2,2.2,0,0,0-1.34,1.06C184.63,154.39,180.19,132.66,178.32,125Z"/><path class="cls-29" d="M171.1,94.5c-.85-9.77,3-17.35,9.08-14.13,2.55,1.36,3.48,4.07,3.83,6.63s2.22,29.13,2.88,33.93c1.48,10.82-7.07,7.91-8,4.91C176.55,118.26,171.56,99.82,171.1,94.5Z"/><path class="cls-30" d="M156.83,124.54c-.32-7.33,6.82-7.17,8.61-1.21,2.82,9.38-2.06,29.53-2.36,41-1.24-2-2.42-2.47-3-2.43a2,2,0,0,0-1.39.75C158.9,147.53,157.17,132.37,156.83,124.54Z"/><path class="cls-31" d="M165.15,125.33c-.95,3-9.12,6.46-8.26-4.44.38-4.83,1.39-31.51,1.58-34.08s.64-6.33,1.93-6.8c6.45-2.35,12.7,5.33,11,15C170.28,101.45,167.12,119.12,165.15,125.33Z"/><path class="cls-32" d="M181.94,71.2c1.25-1.52,5.28-12.56,7.32-15.06,2.42-3,8.55-1.08,7.4,1.5-1.76,4-2.55,5.41-7.18,10.25-3.21,3.36-4.2,4.72-6.1,5.26C181.84,73.6,181.11,72.2,181.94,71.2Z"/><path class="cls-33" d="M190.19,57.69c-.95-1.84-5.27-6.67-10.36-13.36-.9-1.19-.81-4.82.31-6.94.7-1.32,3.56-2,5.41.2a54.09,54.09,0,0,1,5.35,7.19c4.59,7.1,5.66,10.41,5.91,11.94C197.1,58.52,191.57,60.37,190.19,57.69Z"/><path class="cls-14" d="M180.86,25.09c-.4,4-.52,4.88-2.26,6.52A9.42,9.42,0,0,1,172.46,34c-2,0-3.56-2.16-4-3.85A29.08,29.08,0,0,1,168,19.91,6.46,6.46,0,0,1,173.82,15C176.65,15,181.83,15.33,180.86,25.09Z"/><path class="cls-14" d="M184.1,70.64c-.93-1-2.37-2.59-3.09-3.5s-2.83.65-2.88,1.43c-.07,1.16,1.1,4.31,2.58,4.31s1.9,1.35,3.17.93S185.62,72.3,184.1,70.64Z"/><path class="cls-34" d="M158.42,162.65a8.19,8.19,0,0,1-3.42,2.5c-1.83.79-5.7,1.16-3.55,1.85a13.36,13.36,0,0,0,5.93.08,26.86,26.86,0,0,1,4-.23c2,0,2-.13,1.73-2.28C162.74,161.6,159.31,161,158.42,162.65Z"/><path class="cls-24" d="M180.85,24.47c-1.08,1.08-1.65,1.29-2.7-.16-.82-1.12-3-5.32-1.12-6.34s3.47-1.65,4.22,1.15S182.13,23.19,180.85,24.47Z"/><ellipse class="cls-14" cx="180.98" cy="25.68" rx="2.7" ry="1.42" transform="translate(88.76 183.5) rotate(-67.78)"/><path class="cls-24" d="M179.63,17.22c-1.56,2.32-9.08,2.54-11.53,1.68s-2.28-5.6,1.23-5.93c2,0,.55.47,2.15,1.12C172.28,14.43,181.29,14.74,179.63,17.22Z"/><path class="cls-14" d="M140.74,28.89c-.44-1.21-4.36-10.53-5.91-9-1.71,1.72-1,5.76-.55,7.09.76,2.43,3.06,3.87,4.6,3.77C140,30.7,141.16,30,140.74,28.89Z"/><path class="cls-14" d="M140.95,28.19c.06-.59.38-4.09-.27-4.19-1-.16-1.32,2.11-1.54,3.62-.12.82.26,2,.94,2S140.85,29.13,140.95,28.19Z"/><rect class="cls-3" x="133.01" y="21.06" width="3.27" height="14.75" transform="translate(46.7 -77.41) rotate(38.35)"/><path class="cls-3" d="M137.27,27.57l-2.38-1.88a.46.46,0,0,1-.08-.65l6.71-8.48a2,2,0,0,1,2.78-.32h0a2,2,0,0,1,.32,2.78l-6.71,8.48A.46.46,0,0,1,137.27,27.57Z"/><polygon class="cls-3" points="129.88 38.02 125.91 40.31 125.11 39.67 126.43 35.28 128.97 33.96 130.59 35.23 129.88 38.02"/><path class="cls-3" d="M130.33,36.1l-2.16-1.71a.72.72,0,0,1-.12-1h0a.72.72,0,0,1,1-.12L131.22,35a.72.72,0,0,1,.12,1h0A.72.72,0,0,1,130.33,36.1Z"/><ellipse class="cls-3" cx="127.79" cy="37.11" rx="0.51" ry="0.53" transform="translate(19.39 114.29) rotate(-51.65)"/><path class="cls-3" d="M127.9,37.26l-2.25,2.85-.28-.22L127.62,37a.17.17,0,0,1,.24,0,.18.18,0,0,1,.07.12A.17.17,0,0,1,127.9,37.26Z"/><path class="cls-3" d="M137.41,27.9l-2.86-2.27a.44.44,0,0,1-.07-.62h0a.44.44,0,0,1,.62-.07L138,27.21a.44.44,0,0,1,.07.62h0A.44.44,0,0,1,137.41,27.9Z"/><path class="cls-14" d="M141,27.17c0-.59,0-4.1-.7-4.14-1-.06-1.09,2.24-1.16,3.76,0,.83.47,2,1.14,1.91S141,28.12,141,27.17Z"/></g></g></g></svg>