<svg xmlns="http://www.w3.org/2000/svg" xmlns:xlink="http://www.w3.org/1999/xlink" viewBox="0 0 447.38 386.77"><defs><style>.cls-1,.cls-24,.cls-35{fill:none;}.cls-2{isolation:isolate;}.cls-3,.cls-4{opacity:0.2;}.cls-3{fill:url(#Gradient_bez_nazwy_15);}.cls-4{fill:url(#Gradient_bez_nazwy_5);}.cls-5{fill:url(#Gradient_bez_nazwy_5-2);}.cls-6{fill:url(#Gradient_bez_nazwy_5-3);}.cls-7{fill:url(#Gradient_bez_nazwy_5-4);}.cls-8{fill:url(#Gradient_bez_nazwy_5-5);}.cls-9{fill:url(#Gradient_bez_nazwy_5-6);}.cls-10{fill:url(#Gradient_bez_nazwy_9);}.cls-11{fill:url(#Gradient_bez_nazwy_5-7);}.cls-12{fill:url(#Gradient_bez_nazwy_9-2);}.cls-13{fill:url(#Gradient_bez_nazwy_5-8);}.cls-14{fill:url(#Gradient_bez_nazwy_9-3);}.cls-15{fill:url(#Gradient_bez_nazwy_5-9);}.cls-16{fill:url(#Gradient_bez_nazwy_9-4);}.cls-17{fill:url(#Gradient_bez_nazwy_5-10);}.cls-18{fill:url(#Gradient_bez_nazwy_5-11);}.cls-19{fill:url(#Gradient_bez_nazwy_5-12);}.cls-20{fill:url(#Gradient_bez_nazwy_5-13);}.cls-21{opacity:0.8;}.cls-22{fill:url(#Gradient_bez_nazwy_15-2);}.cls-23,.cls-32{fill:#7bcaff;}.cls-23,.cls-33{opacity:0.5;}.cls-24{stroke:#bbceff;stroke-width:0.92px;}.cls-24,.cls-35{stroke-miterlimit:10;}.cls-25{fill:#f6f3ff;}.cls-26,.cls-33,.cls-34{fill:#ff3369;}.cls-26{opacity:0.4;}.cls-27{fill:#ffc550;}.cls-28{fill:#edf4fc;}.cls-29{fill:#f2bbd2;}.cls-30{fill:#aaa4f7;}.cls-31{opacity:0.6;}.cls-35{stroke:#ffc550;stroke-width:1.01px;}.cls-36{fill:url(#Gradient_bez_nazwy_14);}.cls-37{fill:url(#Gradient_bez_nazwy_14-2);}.cls-38{fill:#4e11f4;}.cls-39{fill:#ffaf84;}.cls-40{fill:url(#Gradient_bez_nazwy_14-3);}.cls-41{fill:url(#Gradient_bez_nazwy_14-4);}.cls-42{fill:url(#Gradient_bez_nazwy_14-5);}.cls-43{fill:#f70f47;}.cls-44{fill:url(#Gradient_bez_nazwy_3);}.cls-45{fill:url(#Gradient_bez_nazwy_3-2);}.cls-46{clip-path:url(#clip-path);}.cls-47{opacity:0.3;mix-blend-mode:multiply;fill:url(#Gradient_bez_nazwy_3-3);}</style><linearGradient id="Gradient_bez_nazwy_15" x1="-3199.2" y1="-1405.83" x2="-3199.2" y2="-1517.83" gradientTransform="matrix(-0.58, 0.81, -0.81, -0.58, -2884.6, 1875.76)" gradientUnits="userSpaceOnUse"><stop offset="0" stop-color="#401381"/><stop offset="1" stop-color="#d11137"/></linearGradient><linearGradient id="Gradient_bez_nazwy_5" x1="-3198.75" y1="-1393.78" x2="-3198.75" y2="-1505.78" gradientTransform="matrix(-0.58, 0.81, -0.81, -0.58, -2884.6, 1875.76)" gradientUnits="userSpaceOnUse"><stop offset="0" stop-color="#36078b"/><stop offset="1" stop-color="#16b1ff"/></linearGradient><linearGradient id="Gradient_bez_nazwy_5-2" x1="-4851.68" y1="-133.05" x2="-4836.5" y2="-149.32" gradientTransform="matrix(-1, 0.02, 0.02, 1, -4688.31, 355.26)" xlink:href="#Gradient_bez_nazwy_5"/><linearGradient id="Gradient_bez_nazwy_5-3" x1="-4258.06" y1="-649.99" x2="-4242.88" y2="-666.26" gradientTransform="matrix(-0.94, -0.35, -0.35, 0.94, -4053.63, -744.86)" xlink:href="#Gradient_bez_nazwy_5"/><linearGradient id="Gradient_bez_nazwy_5-4" x1="-3325.08" y1="-931.62" x2="-3311.34" y2="-946.35" gradientTransform="matrix(-0.68, -0.73, -0.73, 0.68, -2781.61, -1670.42)" xlink:href="#Gradient_bez_nazwy_5"/><linearGradient id="Gradient_bez_nazwy_5-5" x1="-2385.22" y1="-774.19" x2="-2372.88" y2="-787.41" gradientTransform="matrix(-0.29, -0.96, -0.96, 0.29, -1268.61, -1931.65)" xlink:href="#Gradient_bez_nazwy_5"/><linearGradient id="Gradient_bez_nazwy_5-6" x1="-4579.23" y1="-451.24" x2="-4524.76" y2="-509.6" gradientTransform="matrix(-0.99, -0.17, -0.17, 0.99, -4412.76, -239.45)" xlink:href="#Gradient_bez_nazwy_5"/><linearGradient id="Gradient_bez_nazwy_9" x1="-4310.58" y1="-770.64" x2="-4239.83" y2="-817.14" gradientTransform="matrix(-0.92, -0.39, -0.39, 0.92, -4086.25, -822.2)" gradientUnits="userSpaceOnUse"><stop offset="0.48" stop-color="#36078b"/><stop offset="1" stop-color="#16b1ff"/></linearGradient><linearGradient id="Gradient_bez_nazwy_5-7" x1="-1308.95" y1="198.45" x2="-1267.49" y2="154.03" gradientTransform="matrix(0.97, -0.23, 0.23, 0.97, 1402.26, -405.21)" xlink:href="#Gradient_bez_nazwy_5"/><linearGradient id="Gradient_bez_nazwy_9-2" x1="-4282.03" y1="-756.43" x2="-4294.61" y2="-846.95" xlink:href="#Gradient_bez_nazwy_9"/><linearGradient id="Gradient_bez_nazwy_5-8" x1="-4517.47" y1="-589.83" x2="-4441.23" y2="-671.53" gradientTransform="matrix(-0.97, -0.25, -0.25, 0.97, -4367.78, -469.87)" xlink:href="#Gradient_bez_nazwy_5"/><linearGradient id="Gradient_bez_nazwy_9-3" x1="-4307.16" y1="-768.58" x2="-4194.88" y2="-852.79" xlink:href="#Gradient_bez_nazwy_9"/><linearGradient id="Gradient_bez_nazwy_5-9" x1="-4997.41" y1="-71.29" x2="-4942.4" y2="-130.23" gradientTransform="matrix(-1, 0.08, 0.08, 1, -4831.32, 566.26)" xlink:href="#Gradient_bez_nazwy_5"/><linearGradient id="Gradient_bez_nazwy_9-4" x1="-4299.75" y1="-768.08" x2="-4204.69" y2="-799" xlink:href="#Gradient_bez_nazwy_9"/><linearGradient id="Gradient_bez_nazwy_5-10" x1="-4231.89" y1="-823.82" x2="-4218.17" y2="-834.11" gradientTransform="matrix(-0.92, -0.39, -0.39, 0.92, -4086.25, -822.2)" xlink:href="#Gradient_bez_nazwy_5"/><linearGradient id="Gradient_bez_nazwy_5-11" x1="-4222.78" y1="-836.58" x2="-4212.4" y2="-846.84" gradientTransform="matrix(-0.92, -0.39, -0.39, 0.92, -4086.25, -822.2)" xlink:href="#Gradient_bez_nazwy_5"/><linearGradient id="Gradient_bez_nazwy_5-12" x1="-4250.22" y1="-841.39" x2="-4244.86" y2="-853.13" gradientTransform="matrix(-0.92, -0.39, -0.39, 0.92, -4086.25, -822.2)" xlink:href="#Gradient_bez_nazwy_5"/><linearGradient id="Gradient_bez_nazwy_5-13" x1="-4235.95" y1="-851.67" x2="-4229.9" y2="-859.71" gradientTransform="matrix(-0.92, -0.39, -0.39, 0.92, -4086.25, -822.2)" xlink:href="#Gradient_bez_nazwy_5"/><linearGradient id="Gradient_bez_nazwy_15-2" x1="85.16" y1="286.6" x2="332.41" y2="83.54" gradientTransform="matrix(1, 0, 0, 1, 0, 0)" xlink:href="#Gradient_bez_nazwy_15"/><linearGradient id="Gradient_bez_nazwy_14" x1="347.89" y1="201.74" x2="372.29" y2="227.41" gradientUnits="userSpaceOnUse"><stop offset="0" stop-color="#f70f47"/><stop offset="1" stop-color="#ffb41d"/></linearGradient><linearGradient id="Gradient_bez_nazwy_14-2" x1="362.69" y1="187.66" x2="387.1" y2="213.33" xlink:href="#Gradient_bez_nazwy_14"/><linearGradient id="Gradient_bez_nazwy_14-3" x1="-1914.17" y1="-2255.21" x2="-1914.17" y2="-2198.77" gradientTransform="matrix(0.58, 0.81, -0.81, 0.58, -362.09, 3034.98)" xlink:href="#Gradient_bez_nazwy_14"/><linearGradient id="Gradient_bez_nazwy_14-4" x1="331.85" y1="152.75" x2="331.85" y2="209.2" xlink:href="#Gradient_bez_nazwy_14"/><linearGradient id="Gradient_bez_nazwy_14-5" x1="345.53" y1="152.76" x2="345.53" y2="209.2" xlink:href="#Gradient_bez_nazwy_14"/><linearGradient id="Gradient_bez_nazwy_3" x1="330.17" y1="128.15" x2="377.7" y2="164.75" gradientUnits="userSpaceOnUse"><stop offset="0" stop-color="blue"/><stop offset="1" stop-color="#9e005d"/></linearGradient><linearGradient id="Gradient_bez_nazwy_3-2" x1="327.41" y1="131.74" x2="374.94" y2="168.34" xlink:href="#Gradient_bez_nazwy_3"/><clipPath id="clip-path"><path class="cls-1" d="M369.62,346.19a14.35,14.35,0,0,1-.94-4.62,7,7,0,0,0,.17-2.15c.27-7.18.67-43.13-4.35-54.38v0c0-.25,0-.49-.08-.76-.9-6.56-3.42-42.19-4-47.13a54.14,54.14,0,0,0-1.18-12,90.18,90.18,0,0,1,.22-15.58,36.85,36.85,0,0,0,7.58-3.95,2,2,0,0,0,.94-1.33l0-.06c.64-2.06,1.36-6.88,0-18.63a75.69,75.69,0,0,0-2.23-12.33,5.45,5.45,0,0,0-1.77-2.86,11.71,11.71,0,0,0-7.14-5.31,18.65,18.65,0,0,0-3.51-.66c-.07-1.23-.15-2.46-.24-3.59A4,4,0,0,0,353,160a7.07,7.07,0,0,0,2.32-3.83,13.27,13.27,0,0,0,1.17-2.9,6.27,6.27,0,0,0,1.2-1.91c.76-1.85.61-3.66-.29-4.17.22-3.88-.25-6.8-2.83-7.92.11-2.77-10.63-3.18-11.68-3.6-2.24-.91-.24-1.57-3-1.57-4.91.45-5.15,7.09-1.72,8.29l.21.06a5.45,5.45,0,0,0-.38,1.35c-.17,1.29-.26,2.5-.31,3.65a1.58,1.58,0,0,0-1.48-.33c-1,.41-1.19,2.32-.4,4.25a5,5,0,0,0,2.17,2.65,24.66,24.66,0,0,0,.58,2.95c.63,2.31,2.46,5.65,5.22,5.79a6,6,0,0,0-.05.62c0,.3,0,.64,0,1a26.81,26.81,0,0,0-7.33,1.42c-2.81.83-5.65,2.69-6.25,4.2l-.72,1.83a12.55,12.55,0,0,0-1.19,3.09c-3.23,8.55-5.34,15.06-6.62,17.13a3.1,3.1,0,0,0-.4,1.11c-3.42,3-10.76,14.33-13.57,17.44l-.15.06a6,6,0,0,0-1.28-.05c-.83,0-5.73.25-5.76,1.18s1.3,1.23,2.82,1.36c-3.93,2.53-9,6.27-7.34,7.53,2.71,2,8.17.23,9.92-.61a7.72,7.72,0,0,0,4.37-5.91c2-.36,3.95-1.32,7.87-4.37,3.36-2.62,5.91-4.77,8-6.68-.47,12-.53,22.12-.53,22.12a191.91,191.91,0,0,0-1.23,20.66h0c-.54,12.52-1.39,33.49-1.77,38.39a24.09,24.09,0,0,0,0,3.26,13.64,13.64,0,0,0,0,1.83c.47,10.85,3.7,31.77,2.67,52.73a2.21,2.21,0,0,0-.44.56,11.46,11.46,0,0,1-4.78,3.49c-2.55,1.1-8,1.62-5,2.58s6.52.38,8.29.11a37.55,37.55,0,0,1,5.6-.33c2.76,0,2.78-.18,2.41-3.18,0-.09,0-.17,0-.25v0c.42-15.79,7-43.21,3.5-56.63,2.64-9.58,6.34-30.11,7.95-39.21,1.22,8.11,6.24,27,9.49,38.07a13.3,13.3,0,0,0,.37,2.79c2.62,10.65,9,40.34,9.88,50.81h0c-.26,1.18-.16,1.71-.3,2.59-.2,1.23-1.38,1.68-2.06,2.69s-1.93,2.73,2.67,2.82C367.54,349,370.46,348.87,369.62,346.19Z"/></clipPath><linearGradient id="Gradient_bez_nazwy_3-3" x1="-5220.39" y1="6671.72" x2="-5024.03" y2="6792.36" gradientTransform="matrix(-0.4, -0.87, 0.54, -0.47, -5288.32, -1027.16)" xlink:href="#Gradient_bez_nazwy_3"/></defs><title>поток клиентов</title><g class="cls-2"><g id="Слой_2" data-name="Слой 2"><g id="Designed_by_Freepik" data-name="Designed by Freepik"><path class="cls-3" d="M20.32,228.43c-25.76-41.07,2-67.46,28-69.72,36.9-3.2,46,14.94,64.08-40.17,13.35-40.67,57.81-61.13,91.49-28.08,47.09,46.2,57-18.85,81.62-39C336.4,10,361.89,49.38,409,111.6c48.35,63.88,48.08,121.26,15.66,183.23-23.94,45.76-56.12,77.75-96.3,64.61-57.7-18.86-37.92-79.86-80.63-47C222.16,332.14,168.9,347.38,147,283.28S57.42,287.58,20.32,228.43Z"/><path class="cls-4" d="M10.27,221.78c-25.76-41.07,2-67.46,28-69.72,36.9-3.2,46,14.94,64.08-40.17,13.35-40.67,57.81-61.13,91.49-28.08,47.09,46.2,57-18.85,81.62-39,50.88-41.54,76.37-2.12,123.46,60.1C447.28,168.82,447,226.2,414.59,288.18c-23.94,45.76-56.12,77.75-96.3,64.61-57.7-18.86-37.92-79.86-80.63-47C212.1,325.48,158.84,340.73,137,276.62S47.36,280.93,10.27,221.78Z"/></g><g id="Objects"><path class="cls-5" d="M161,122.36c4.19-2.84-1.51-11-11.47-11.52a19.91,19.91,0,0,0,.15,8.27C150.63,122.41,155.16,126.34,161,122.36Z"/><path class="cls-6" d="M166.78,122.87c4.94-1.11,2.62-10.79-6.46-14.92a19.91,19.91,0,0,0-2.89,7.75C157.09,119.1,159.86,124.42,166.78,122.87Z"/><path class="cls-7" d="M170.27,123.43c4.45,1.11,6.5-7.67.83-14.69a18,18,0,0,0-5.48,5.1C164,116.45,164,121.88,170.27,123.43Z"/><path class="cls-8" d="M172.16,122.26c3.15,2.65,8.27-3.63,6.46-11.54a16.19,16.19,0,0,0-6.43,2C169.81,114.14,167.74,118.56,172.16,122.26Z"/><path class="cls-9" d="M180.47,101.51C197.19,94.4,182.72,61.74,148,53c0,0-6.33,14.87-5.17,29.22C143.83,94.5,157.06,111.47,180.47,101.51Z"/><path class="cls-10" d="M151.56,57.11a30.65,30.65,0,0,1,8.11,8.08,24.38,24.38,0,0,1,1.63,2.33c.5.81,1.08,1.55,1.5,2.4l1.31,2.52.65,1.26.52,1.32a77.4,77.4,0,0,1,3.62,10.73l1.3,5.54L171,97c.14.94.35,1.87.43,2.83l.23,2.86.48,5.73.24,11.57c-.12,3.87-.09,7.76-.33,11.65s-.48,7.79-.51,11.76l.28,0,1.7-11.63c.5-3.89.69-7.81,1-11.71s.14-7.84.22-11.76l-.39-5.87-.2-2.94c-.07-1-.27-1.94-.4-2.92l-.93-5.82L171.47,85a65.08,65.08,0,0,0-4.21-11l-.63-1.33-.75-1.27-1.52-2.53c-.49-.85-1.15-1.6-1.71-2.4a22.91,22.91,0,0,0-1.84-2.3,28.73,28.73,0,0,0-9.14-7.37Z"/><path class="cls-11" d="M169.33,85.6c-13-4.68-3.44-30.13,22.57-38.25,0,0,5.46,11,5.2,22C196.87,78.69,187.55,92.15,169.33,85.6Z"/><path class="cls-12" d="M189.24,50.45a77,77,0,0,0-6.67,10.2c-1,1.8-1.89,3.6-2.73,5.46s-1.72,3.69-2.49,5.58A151.23,151.23,0,0,0,170.12,95c-.39,2-.7,4-1.05,6l-.5,3-.37,3-.72,6.06c-.16,2-.25,4.06-.34,6.09l-.13,3v3l.06,6.08c0,2,.31,4,.46,6.07s.37,4,.6,6h.22c0-4-.22-8.05-.15-12.08l.21-6,.12-3,.26-3,.52-6,.81-6,.41-3,.55-3c.38-2,.72-4,1.13-5.93a168.53,168.53,0,0,1,6.7-23.18,114.35,114.35,0,0,1,10.49-21.69Z"/><path class="cls-13" d="M161.84,71.12C185.93,63,169.23,15.85,121.71,0c0,0-10.43,20.08-10.33,40.23C111.45,57.43,128.11,82.52,161.84,71.12Z"/><path class="cls-14" d="M126.2,6A137.32,137.32,0,0,1,136,21.37c1.47,2.65,3,5.25,4.33,8l2,4,1.84,4.14,1.83,4.14,1.69,4.2,1.7,4.19c.57,1.39,1,2.85,1.5,4.26.93,2.87,2.13,5.64,2.91,8.55l2.55,8.67c.78,2.91,1.44,5.85,2.17,8.78.34,1.47.75,2.92,1,4.4l.82,4.45c.55,3,1.19,5.92,1.68,8.9s.8,6,1.25,9l.67,4.5.38,4.53.76,9.09c.54,6.07.48,12.17,1,18.32l.34,0,.27-9.18.14-4.59c.05-1.53.11-3.06,0-4.59l-.33-9.18-.17-4.59-.47-4.57-.94-9.14c-.42-3-1-6-1.48-9.07l-.76-4.53c-.28-1.5-.68-3-1-4.48-.71-3-1.36-6-2.12-8.94A195.93,195.93,0,0,0,146.6,36.38c-5.5-10.93-11.95-21.48-20.16-30.61Z"/><path class="cls-15" d="M148.66,93.63c14.55-11.18-7.84-39.46-44-39.21,0,0-2.43,16.14,2.33,29.88C111.06,96,128.28,109.28,148.66,93.63Z"/><path class="cls-16" d="M109.15,57.48a75.62,75.62,0,0,1,10.45,8l2.46,2.16,2.34,2.28c1.59,1.48,3,3.13,4.49,4.74a133.42,133.42,0,0,1,15.48,20.91l3.33,5.61c1.16,1.84,2,3.86,3,5.78s2.06,3.85,2.84,5.89,1.73,4,2.65,6,1.68,4,2.46,6.08l2.34,6.16c1.51,4.13,2.74,8.36,4.31,12.53l.24-.05c-1.11-4.28-2.14-8.58-3.32-12.84l-2.06-6.3c-.7-2.1-1.32-4.22-2.21-6.25-1.66-4.1-3.22-8.24-5.27-12.17-1-2-1.84-4-3-5.92l-3.29-5.76a123.59,123.59,0,0,0-16.2-21c-6.2-6.28-13.07-12-21-16.06Z"/><path class="cls-17" d="M143,49.11a22.38,22.38,0,0,0-5.78-2.89,35.39,35.39,0,0,0-6.17-1.54,33.13,33.13,0,0,0-6.39-.31,18.78,18.78,0,0,0-6.37,1.37V46a64.12,64.12,0,0,1,12.4.93,120.46,120.46,0,0,1,12.23,2.43Z"/><path class="cls-18" d="M138.73,35.6a16.6,16.6,0,0,0-4.36-3.27,26.07,26.07,0,0,0-4.91-2,24.67,24.67,0,0,0-5.28-.92,14.22,14.22,0,0,0-5.46.65l0,.22a53.34,53.34,0,0,1,10.12,2.19,100.48,100.48,0,0,1,9.82,3.37Z"/><path class="cls-19" d="M156.09,45.8a28.33,28.33,0,0,0,2.6-6.24c.28-1,.58-1.91.9-2.81a15.41,15.41,0,0,1,1.43-3l-.08-.19a8.35,8.35,0,0,0-4.22,5.34,22.53,22.53,0,0,0-.84,6.87Z"/><path class="cls-20" d="M147.67,31.17a20.2,20.2,0,0,0,.81-5.17c0-.79.07-1.55.13-2.3a9.25,9.25,0,0,1,.5-2.47l-.09-.12a6.38,6.38,0,0,0-2.1,4.8,19.21,19.21,0,0,0,.59,5.3Z"/><g class="cls-21"><polygon class="cls-22" points="149.01 66.25 149.01 246.07 358.57 229.96 358.57 89.15 149.01 66.25"/><polygon class="cls-23" points="156.45 241.5 362.71 226.5 362.71 100.45 156.45 80.9 156.45 241.5"/><polygon class="cls-23" points="252.34 224.69 342.58 219.16 342.58 104.42 252.34 96.55 252.34 224.69"/><path class="cls-24" d="M266.16,126.15l78.43,4.21c1,.05,1.73-.91,1.73-2.14V112.68a2.24,2.24,0,0,0-1.73-2.38L266.16,104a2.11,2.11,0,0,0-2.11,2.31v17.21A2.47,2.47,0,0,0,266.16,126.15Z"/><path class="cls-24" d="M266.16,155.31l78.43,1.52a2,2,0,0,0,1.73-2.2V139.08a2.15,2.15,0,0,0-1.73-2.32l-78.43-3.56a2.19,2.19,0,0,0-2.11,2.38V152.8A2.37,2.37,0,0,0,266.16,155.31Z"/><path class="cls-25" d="M263.38,158.52l78.92,1.23a2,2,0,0,0,1.74-2.22v-15.6a2.14,2.14,0,0,0-1.74-2.32l-78.92-3.28a2.21,2.21,0,0,0-2.12,2.4V156A2.37,2.37,0,0,0,263.38,158.52Z"/><path class="cls-24" d="M266.16,184.47l78.43-1.17a2.07,2.07,0,0,0,1.73-2.26V165.48a2.06,2.06,0,0,0-1.73-2.26l-78.43-.87a2.29,2.29,0,0,0-2.11,2.45V182A2.27,2.27,0,0,0,266.16,184.47Z"/><polygon class="cls-26" points="117.77 210.83 228.2 206.5 228.2 64.71 117.77 51.37 117.77 210.83"/><path class="cls-24" d="M266.16,213.63l78.43-3.87a2.16,2.16,0,0,0,1.73-2.32V191.89a2,2,0,0,0-1.73-2.2l-78.43,1.82a2.38,2.38,0,0,0-2.11,2.53v17.21A2.18,2.18,0,0,0,266.16,213.63Z"/><path class="cls-27" d="M179.63,152.87c-13.21,5.28-29.31,2-40.65-10a42.55,42.55,0,0,1-10.73-20.49l19.19-3.19c1.9,9.12,9.59,16.18,18.61,16.57a17.09,17.09,0,0,0,6.87-1.09Z"/><path class="cls-28" d="M193.23,139.76c-.28.29-.56.56-.85.84l-12.16-14.46a18.88,18.88,0,0,0,5.71-13.8c0-10.64-8.1-20-18.3-20.82a17.22,17.22,0,0,0-17,9.71L133,91a35.36,35.36,0,0,1,7.52-10.05c15.13-14.07,38.71-11.49,52.67,4.91C206.79,101.78,206.78,125.57,193.23,139.76Z"/><path class="cls-29" d="M148.57,109.94a21.13,21.13,0,0,0,.45,4.31l-19.19,3.19A39.9,39.9,0,0,1,133,91l17.54,10.23A19.48,19.48,0,0,0,148.57,109.94Z"/><path class="cls-30" d="M192.38,140.59a33.6,33.6,0,0,1-11.17,7.31l-6.72-18.17a16.92,16.92,0,0,0,5.72-3.6Z"/><g class="cls-31"><polygon class="cls-32" points="308.71 144.15 340.28 145.23 340.28 142.94 308.71 141.76 308.71 144.15"/><polygon class="cls-32" points="308.71 148.39 340.28 149.31 340.28 147.01 308.71 146 308.71 148.39"/><polygon class="cls-32" points="326.59 153.05 340.28 153.38 340.28 151.09 326.59 150.72 326.59 153.05"/></g><polygon class="cls-33" points="286.11 189.71 295.55 189.93 295.55 178.67 286.11 178.31 286.11 189.71"/><polygon class="cls-33" points="269.6 163.88 279.3 164.11 279.3 152.69 269.6 152.33 269.6 163.88"/><polygon class="cls-29" points="174.55 160.27 174.55 231.75 176.22 231.65 176.22 160.29 174.55 160.27"/><polygon class="cls-28" points="242.77 160.43 242.77 226.53 244.2 226.26 244.2 160.27 242.77 160.43"/><polygon class="cls-30" points="209.94 160.64 209.94 229.5 211.49 229.36 211.49 160.62 209.94 160.64"/><polygon class="cls-34" points="200.37 158.45 200.37 154.76 193.56 154.63 193.56 158.35 200.37 158.45"/><polygon class="cls-34" points="212.18 158.62 212.18 154.98 205.55 154.86 205.55 158.52 212.18 158.62"/><polygon class="cls-34" points="223.69 158.79 223.69 155.19 217.22 155.07 217.22 158.69 223.69 158.79"/><polygon class="cls-23" points="306.4 172.09 338.46 172.07 338.46 168.98 306.4 168.87 306.4 172.09"/><polygon class="cls-23" points="317.16 177.72 338.46 177.57 338.46 174.48 317.16 174.55 317.16 177.72"/><polygon class="cls-23" points="309.08 177.78 314.62 177.74 314.62 174.56 309.08 174.58 309.08 177.78"/><polygon class="cls-23" points="306.4 117.2 338.46 119.37 338.46 116.28 306.4 113.99 306.4 117.2"/><polygon class="cls-23" points="319.7 123.73 338.46 124.86 338.46 121.77 319.7 120.56 319.7 123.73"/><polygon class="cls-23" points="296.15 122.3 317.16 123.57 317.16 120.4 296.15 119.05 296.15 122.3"/><polygon class="cls-23" points="325.97 199.18 338.46 198.75 338.46 195.66 325.97 196.04 325.97 199.18"/><polygon class="cls-23" points="310.62 199.72 323.6 199.26 323.6 196.12 310.62 196.51 310.62 199.72"/><polygon class="cls-23" points="317.16 205.13 338.46 204.24 338.46 201.15 317.16 201.96 317.16 205.13"/><polygon class="cls-23" points="292.32 206.17 314.62 205.24 314.62 202.05 292.32 202.9 292.32 206.17"/><path class="cls-28" d="M219.25,91.91a5.25,5.25,0,0,0-6.34.89,6.08,6.08,0,0,0-1.6,3.1l2.88.94a2.74,2.74,0,0,1,2.89-2.34,2.83,2.83,0,0,1,1.09.33Z"/><path class="cls-27" d="M221.21,93.53l-.14-.16-2,2.19A3.73,3.73,0,0,1,220,98a2.83,2.83,0,0,1-2.94,3,3.26,3.26,0,0,1-2.65-2l-2.65,1.23a7.23,7.23,0,0,0,1.13,1.83c2.31,2.73,6,3,8.31.64A7,7,0,0,0,221.21,93.53Z"/><path class="cls-27" d="M214.12,97.54a3.62,3.62,0,0,1,.07-.7l-2.88-.94a7.33,7.33,0,0,0,.48,4.34L214.43,99A3.71,3.71,0,0,1,214.12,97.54Z"/><path class="cls-29" d="M221.07,93.37a6.46,6.46,0,0,0-1.82-1.46l-1.08,2.92a3.26,3.26,0,0,1,.92.73Z"/><path class="cls-29" d="M211.65,139.66a6.18,6.18,0,0,0,5.43,4.14,5.25,5.25,0,0,0,3.16-.93l-1.57-2.78a2.77,2.77,0,0,1-3.68-.57,3.46,3.46,0,0,1-.63-1Z"/><path class="cls-30" d="M211.16,137c0,.07,0,.15,0,.22h3a3.35,3.35,0,0,1,.87-2.4,2.75,2.75,0,0,1,4.17.17,3.61,3.61,0,0,1,.7,3.39l2.75,1.14a7,7,0,0,0,.31-2.07c0-3.58-2.6-6.6-5.84-6.75S211.16,133.42,211.16,137Z"/><path class="cls-28" d="M219.16,139.66a2.88,2.88,0,0,1-.49.42l1.57,2.78a6.11,6.11,0,0,0,2.37-3.3l-2.75-1.14A3.16,3.16,0,0,1,219.16,139.66Z"/><path class="cls-27" d="M211.17,137.26a7.19,7.19,0,0,0,.48,2.39l2.71-1.19a3.6,3.6,0,0,1-.24-1.2Z"/><path class="cls-30" d="M219.39,123.64a6.12,6.12,0,0,0,3.52-5.77,7.3,7.3,0,0,0-.92-3.56l-2.44,1.59a3.5,3.5,0,0,1-.39,4.05,2.7,2.7,0,0,1-.92.64Z"/><path class="cls-29" d="M217.08,124.05h.2l-.1-3.25a3,3,0,0,1-2.19-1.09,3.53,3.53,0,0,1,0-4.64,2.65,2.65,0,0,1,3-.59l.94-3a5.51,5.51,0,0,0-1.88-.47c-3.25-.22-5.91,2.54-5.91,6.17S213.82,123.88,217.08,124.05Z"/><path class="cls-27" d="M219.16,115.34a3.46,3.46,0,0,1,.39.57l2.44-1.59a6.54,6.54,0,0,0-3-2.85l-.94,3A3.14,3.14,0,0,1,219.16,115.34Z"/><path class="cls-28" d="M217.27,124.05a5.11,5.11,0,0,0,2.12-.41l-1.15-3a2.58,2.58,0,0,1-1.07.2Z"/><path class="cls-35" d="M161.41,230.58c13.41-18.1,24.4-22,30.17-19.64,3.89,1.57,7.26,2.76,11.81,1.54,5.13-1.38,4.57-5.75,11.89-11.6,4.55-3.64,6.46-3,10.51-7.54a30.31,30.31,0,0,0,5.26-7.65c2.55-5.37,2-8.32,4.45-10.2s4,0,6.28-1.79,3.14-5.54,3.44-8.42"/></g><path class="cls-36" d="M339.51,213.26c2.63.86,4.84.06,11.19-1.33,9.15-2,11.19-3.06,16.33-6.28,3.36-2.1-2.28-9.06-7.4-7.52-4.33,1.3-17.62,11-20.26,11.74C337.63,210.38,337.38,212.57,339.51,213.26Z"/><path class="cls-37" d="M368,204.25c.64-2.07,1.36-6.88,0-18.63a75.69,75.69,0,0,0-2.23-12.33c-1-3.84-5-4.82-6.65-3.61-2.73,2-5.09,6.46-4.7,8.51,2.22,11.54,4.63,20.29,4.67,23.18C359.17,205.59,367.24,206.7,368,204.25Z"/><path class="cls-38" d="M362.43,340.36a17.76,17.76,0,0,0-.42,3.06c-.2,1.23-1.38,1.68-2.06,2.69s-1.93,2.73,2.67,2.82c4.92.1,7.84-.06,7-2.74a13.66,13.66,0,0,1-.94-4.74,2.89,2.89,0,0,0-.56-2.31C367.57,338.62,363.15,337.68,362.43,340.36Z"/><path class="cls-39" d="M303.21,189.14c-1.6-.83-14.48-6.67-14.59-3.6-.12,3.39,4.48,6.83,6.17,7.79,3.09,1.77,6.81,1.07,8.3-.5C304.15,191.72,304.73,189.92,303.21,189.14Z"/><path class="cls-39" d="M302.75,188.22c-.5-.66-3.48-4.56-4.26-4-1.17.77.65,3.42,1.86,5.18.65,1,2.17,1.8,2.88,1.18S303.55,189.27,302.75,188.22Z"/><path class="cls-38" d="M324.61,342.59a11.46,11.46,0,0,1-4.78,3.49c-2.55,1.1-8,1.62-5,2.58s6.52.38,8.29.11a37.55,37.55,0,0,1,5.6-.33c2.76,0,2.78-.18,2.41-3.18C330.66,341.13,325.86,340.26,324.61,342.59Z"/><path class="cls-39" d="M356,151c-.56,5.59-.72,6.82-3.16,9.11s-6.25,2.62-8.9,2.62c-2.86,0-4.75-3.45-5.39-5.81a34.43,34.43,0,0,1-.56-13.16c.41-3.1,4.23-6.86,8.18-6.86S357.34,137.38,356,151Z"/><path class="cls-40" d="M300.16,192.74c1.74,2.15,3.15,3.39,9.39,5.23,8.43,2.49,13.29,3.35,17.57,3.63,4,.26,3.3-9.19-1.83-10.68-4.34-1.26-20.75-.34-23.39-1.12C300.14,189.29,298.74,191,300.16,192.74Z"/><path class="cls-41" d="M327.51,199.2c1.65-1.4,4.84-5.07,10-15.7a75.83,75.83,0,0,0,4.76-11.59c1.24-3.77-1.59-6.74-3.67-6.62-3.35.19-7.77,2.71-8.54,4.64-4.34,10.93-7,19.59-8.53,22.05C319.35,195.58,325.55,200.86,327.51,199.2Z"/><path class="cls-39" d="M353.13,160.87c.15,1.94.29,4.17.36,6.2a5.33,5.33,0,0,1-4.65,5.41h-.31c-2.41,0-5.25-2.18-5-4.6.14-1.57.19-3.15.2-4.54a6.28,6.28,0,0,1,4.18-5.89h0A4,4,0,0,1,353.13,160.87Z"/><path class="cls-42" d="M364.31,184.75c-4.48,14.74-6,30.12-5.08,40.41H325.47s.2-31.62,2.46-48.94a13,13,0,0,1,7.13-9.93,24.23,24.23,0,0,1,9-2h6.24a23.63,23.63,0,0,1,6.59.82C366.09,167.94,366.91,176.21,364.31,184.75Z"/><path class="cls-43" d="M359.1,245.82s2.92-7.09.14-20.66H325.47a191.91,191.91,0,0,0-1.23,20.66Z"/><path class="cls-43" d="M352.43,290c-2.7-11,8.52-12.93,12.07-5,5,11.25,4.61,47.2,4.35,54.38,0,.94.13,2.1-.35,2.42-.89.61-2.78.6-3.57.57-1.26,0-2.49,0-2.62-1.59C361.45,330.35,355.05,300.66,352.43,290Z"/><path class="cls-43" d="M342.34,247.31c-1.19-13.66,4.22-24.26,12.69-19.75,3.57,1.9,4.87,5.69,5.35,9.27s3.1,40.73,4,47.44c2.07,15.14-9.88,11.06-11.18,6.86C350,280.54,343,254.75,342.34,247.31Z"/><path class="cls-43" d="M331.12,345c.42-16.09,7.25-44.26,3.3-57.38-2.51-8.34-12.48-8.56-12,1.69.47,11,3.77,32.18,2.65,53.34C324.92,344.73,331,346.88,331.12,345Z"/><path class="cls-43" d="M334,290.42c-1.33,4.18-12.75,9-11.55-6.2.53-6.76,1.94-44.06,2.21-47.65s.89-8.85,2.7-9.51c9-3.28,17.76,7.45,15.39,20.95C341.19,257,336.77,281.74,334,290.42Z"/><ellipse class="cls-39" cx="337.6" cy="150.61" rx="1.98" ry="3.78" transform="translate(-31.88 138.87) rotate(-22.22)"/><ellipse class="cls-39" cx="355.82" cy="150.61" rx="3.78" ry="1.98" transform="translate(81.87 423.07) rotate(-67.79)"/><path class="cls-44" d="M354.26,140c-2.18,3.25-12.69,3.55-16.12,2.36s-3.19-7.83,1.72-8.29c2.76,0,.76.66,3,1.57C344,136.12,356.58,136.55,354.26,140Z"/><path class="cls-45" d="M342.43,139.46c-3.24,2-4,3.67-3.9,7.67s1.8,10.83,9.17,12.36,9.11-5.79,9.56-10.83.16-8.82-3.57-9.72C348.16,137.59,344.39,138.28,342.43,139.46Z"/><g class="cls-46"><path class="cls-47" d="M358.14,127.21c15.23-9.33,43.37,4.83,48.44,23.25,5.17,18.8-9,27.8,2.62,53.83,9.17,20.59-1.36,43.18-3.84,61-2.72,19.57,7.07,29,3.83,46.49-7.44,40.16,29.15,64.07,1.54,72.58-28.35,8.74-27.9-9.17-58.72-9.28-26.78-.09-28.21-68.25-25.45-94.32,2.92-27.6,18.8-32.32,12-61.68-4.09-17.57-7.44-27.6,10-46.6C357.48,162.76,329,145.05,358.14,127.21Z"/></g></g></g></g></svg>