<?xml version="1.0" encoding="utf-8"?>
<!-- Generator: Adobe Illustrator 21.0.0, SVG Export Plug-In . SVG Version: 6.00 Build 0)  -->
<svg version="1.1" id="Слой_1" xmlns="http://www.w3.org/2000/svg" xmlns:xlink="http://www.w3.org/1999/xlink" x="0px" y="0px"
	 viewBox="0 0 124.9 157.5" style="enable-background:new 0 0 124.9 157.5;" xml:space="preserve">
<style type="text/css">
	.st0{fill:none;stroke:#0037FF;stroke-linecap:round;stroke-linejoin:round;}
	.st1{opacity:0.4;fill:none;stroke:#0037FF;stroke-linecap:round;stroke-linejoin:round;enable-background:new    ;}
	.st2{opacity:0.81;fill:none;stroke:#0037FF;stroke-linecap:round;stroke-linejoin:round;enable-background:new    ;}
	.st3{opacity:0.3;fill:none;stroke:#0037FF;stroke-linecap:round;stroke-linejoin:round;enable-background:new    ;}
	.st4{fill:#4E11F4;}
	.st5{fill:#FFAF84;}
	.st6{fill:url(#SVGID_1_);}
	.st7{fill:url(#SVGID_2_);}
	.st8{fill:url(#SVGID_3_);}
	.st9{fill:#F70F47;}
	.st10{fill:url(#SVGID_4_);}
	.st11{fill:url(#SVGID_5_);}
	.st12{fill:url(#SVGID_6_);}
</style>
<title>programmist</title>
<g>
	<g id="Слой_2">
		<g id="Designed_by_Freepik">
			<path class="st0" d="M5.6,35.4h113.8c2.8,0,5.1,2.3,5.1,5.1v70.3c0,2.8-2.3,5.1-5.1,5.1H5.6c-2.8,0-5.1-2.3-5.1-5.1V40.4
				C0.5,37.6,2.8,35.4,5.6,35.4z"/>
			<path class="st0" d="M120.9,35.4H4c-1.9,0-3.5,1.6-3.5,3.5v9.5h123.9v-9.5C124.4,36.9,122.8,35.4,120.9,35.4
				C120.9,35.4,120.9,35.4,120.9,35.4z"/>
			<path class="st1" d="M120.9,35.4H4c-1.9,0-3.5,1.6-3.5,3.5V39c0-1.9,1.6-3.5,3.5-3.5h116.9c1.9,0,3.5,1.6,3.5,3.5v-0.1
				C124.4,36.9,122.8,35.4,120.9,35.4z"/>
			<rect x="0.5" y="47.8" class="st1" width="123.9" height="0.5"/>
			<path class="st2" d="M9.7,52.3h105.8c2.3,0,4.2,1.9,4.2,4.2v51c0,2.3-1.9,4.2-4.2,4.2H9.7c-2.3,0-4.2-1.9-4.2-4.2v-51
				C5.5,54.1,7.4,52.3,9.7,52.3z"/>
			<circle class="st3" cx="7.4" cy="41.9" r="3.5"/>
			<circle class="st3" cx="7.4" cy="41.9" r="2.7"/>
			<circle class="st0" cx="7.4" cy="41.9" r="2.2"/>
			<circle class="st0" cx="7.4" cy="41.9" r="1.3"/>
			<circle class="st3" cx="17.6" cy="41.9" r="3.5"/>
			<circle class="st3" cx="17.6" cy="41.9" r="2.7"/>
			<circle class="st0" cx="17.6" cy="41.9" r="2.2"/>
			<circle class="st0" cx="17.6" cy="41.9" r="1.3"/>
			<circle class="st3" cx="27.8" cy="41.9" r="3.5"/>
			<circle class="st3" cx="27.8" cy="41.9" r="2.7"/>
			<circle class="st0" cx="27.8" cy="41.9" r="2.2"/>
			<circle class="st0" cx="27.8" cy="41.9" r="1.3"/>
			<polyline class="st0" points="11.5,55.7 8.8,58.5 11.5,61.2 			"/>
			<polyline class="st0" points="18.4,55.7 21.1,58.5 18.4,61.2 			"/>
			<line class="st0" x1="13.8" y1="61.6" x2="16" y2="55.7"/>
			<circle class="st0" cx="24" cy="61.7" r="0.8"/>
			<circle class="st0" cx="27.2" cy="61.7" r="0.8"/>
			<circle class="st0" cx="30.4" cy="61.7" r="0.8"/>
			<line class="st0" x1="10.2" y1="67.2" x2="92.2" y2="67.2"/>
			<line class="st0" x1="97.1" y1="67.2" x2="103.4" y2="67.2"/>
			<line class="st0" x1="107" y1="67.2" x2="115.1" y2="67.2"/>
			<line class="st0" x1="10.2" y1="73.7" x2="61.5" y2="73.7"/>
			<line class="st0" x1="69.1" y1="73.7" x2="78.3" y2="73.7"/>
			<line class="st0" x1="78.3" y1="77.4" x2="53.3" y2="77.4"/>
			<line class="st0" x1="49.9" y1="77.4" x2="44.9" y2="77.4"/>
			<line class="st0" x1="40.9" y1="77.4" x2="35.8" y2="77.4"/>
			<line class="st0" x1="31.9" y1="77.4" x2="26.8" y2="77.4"/>
			<line class="st0" x1="22.8" y1="77.4" x2="17.8" y2="77.4"/>
			<line class="st0" x1="95.6" y1="81.9" x2="17.8" y2="81.9"/>
			<line class="st0" x1="12" y1="77.4" x2="10.2" y2="77.4"/>
			<line class="st0" x1="12" y1="81.9" x2="10.2" y2="81.9"/>
			<line class="st0" x1="12" y1="86.4" x2="10.2" y2="86.4"/>
			<line class="st0" x1="12" y1="90.9" x2="10.2" y2="90.9"/>
			<line class="st0" x1="100.3" y1="81.9" x2="111" y2="81.9"/>
			<line class="st0" x1="17.6" y1="86.4" x2="39.1" y2="86.4"/>
			<line class="st0" x1="17.6" y1="91" x2="39.1" y2="91"/>
			<line class="st0" x1="17.6" y1="95.7" x2="39.1" y2="95.7"/>
			<line class="st0" x1="17.6" y1="100.3" x2="39.1" y2="100.3"/>
			<line class="st0" x1="53.3" y1="100.3" x2="97.1" y2="100.3"/>
			<line class="st0" x1="79.3" y1="95.7" x2="97.1" y2="95.7"/>
			<line class="st0" x1="90.1" y1="90.9" x2="97.1" y2="90.9"/>
		</g>
		<g id="Objects">
			<path class="st4" d="M102.7,151c-0.2,0.7-0.3,1.5-0.3,2.2c-0.2,0.9-1,1.2-1.5,2s-1.4,2,2,2.1c3.6,0.1,5.7,0,5.1-2
				c-0.4-1.1-0.7-2.3-0.7-3.5c0.1-0.6,0-1.2-0.4-1.7C106.4,149.7,103.2,149.1,102.7,151z"/>
			<path class="st5" d="M59.3,40.3c-1.2-0.6-10.6-4.9-10.7-2.6c-0.1,2.5,3.3,5,4.5,5.7c2.3,1.3,5,0.8,6.1-0.4
				C60,42.2,60.4,40.9,59.3,40.3z"/>
			<path class="st5" d="M59,39.6c-0.4-0.5-2.5-3.3-3.1-3c-0.9,0.6,0.5,2.5,1.4,3.8c0.5,0.7,1.6,1.3,2.1,0.9S59.6,40.4,59,39.6z"/>
			<path class="st4" d="M75,152.6c-0.9,1.1-2.1,2-3.5,2.6c-1.9,0.8-5.8,1.2-3.6,1.9c2,0.5,4.1,0.5,6.1,0.1c1.4-0.2,2.7-0.3,4.1-0.2
				c2,0,2-0.1,1.8-2.3C79.4,151.6,75.9,150.9,75,152.6z"/>
			<path class="st5" d="M97.9,12.4c-0.4,4.1-0.5,5-2.3,6.7S91,21,89.1,21c-2.1,0-3.5-2.5-3.9-4.3c-0.8-3.2-0.9-6.4-0.4-9.6
				c0.7-2.8,3.1-4.8,6-5C93.6,2.1,98.9,2.4,97.9,12.4z"/>
			
				<linearGradient id="SVGID_1_" gradientUnits="userSpaceOnUse" x1="-119.6697" y1="786.2667" x2="-119.6697" y2="744.9467" gradientTransform="matrix(0.58 0.81 0.81 -0.58 -470.047 576.566)">
				<stop  offset="0" style="stop-color:#36078B"/>
				<stop  offset="1" style="stop-color:#16B1FF"/>
			</linearGradient>
			<path class="st6" d="M57.1,42.9c1.3,1.6,2.3,2.5,6.9,3.8c4.2,1.4,8.5,2.3,12.9,2.7c2.9,0.2,2.4-6.7-1.3-7.8
				c-3.2-0.9-15.2-0.3-17.1-0.8C57.1,40.4,56,41.7,57.1,42.9z"/>
			
				<linearGradient id="SVGID_2_" gradientUnits="userSpaceOnUse" x1="80.2792" y1="163.84" x2="80.2792" y2="122.52" gradientTransform="matrix(1 0 0 -1 0 177.51)">
				<stop  offset="0" style="stop-color:#36078B"/>
				<stop  offset="1" style="stop-color:#16B1FF"/>
			</linearGradient>
			<path class="st7" d="M77.1,47.7c1.2-1,3.6-3.7,7.3-11.5c1.4-2.7,2.6-5.6,3.5-8.5c0.9-2.8-1.2-4.9-2.7-4.9c-2.4,0.1-5.7,2-6.3,3.4
				c-3.2,8-5.1,14.3-6.2,16.1C71.1,45,75.7,48.9,77.1,47.7z"/>
			<path class="st5" d="M95.9,19.6c0.1,1.4,0.2,3,0.3,4.5c0.1,2-1.4,3.7-3.4,4h-0.2c-1.8,0-3.8-1.6-3.7-3.4c0.1-1.1,0.1-2.3,0.2-3.3
				c0-1.9,1.2-3.7,3.1-4.3l0,0c1.5-0.5,3.2,0.2,3.7,1.7C95.8,19.1,95.8,19.4,95.9,19.6z"/>
			
				<linearGradient id="SVGID_3_" gradientUnits="userSpaceOnUse" x1="72.0165" y1="109.7113" x2="103.3465" y2="147.2613" gradientTransform="matrix(1 0 0 -1 0 177.51)">
				<stop  offset="0" style="stop-color:#36078B"/>
				<stop  offset="1" style="stop-color:#16B1FF"/>
			</linearGradient>
			<path class="st8" d="M104,37.1c-3.3,10.8-4.4,22-3.7,29.6H75.6c0,0,0.1-23.1,1.8-35.8c0.4-3.1,2.4-5.9,5.2-7.3
				c2.1-0.9,4.3-1.4,6.6-1.5h4.6c1.6,0,3.2,0.2,4.8,0.6C105.3,24.8,105.9,30.8,104,37.1z"/>
			<path class="st9" d="M100.2,81.8c0,0,2.1-5.2,0.1-15.1H75.6c-0.6,5-0.9,10.1-0.9,15.1H100.2z"/>
			
				<linearGradient id="SVGID_4_" gradientUnits="userSpaceOnUse" x1="102.8446" y1="138.2654" x2="120.7046" y2="119.4754" gradientTransform="matrix(1 0 0 -1 0 177.51)">
				<stop  offset="0" style="stop-color:#36078B"/>
				<stop  offset="1" style="stop-color:#16B1FF"/>
			</linearGradient>
			<path class="st10" d="M106.8,51.4c0.5-1.5,1-5,0-13.6c-0.3-3-0.8-6.1-1.6-9c-0.7-2.8-3.6-3.5-4.9-2.6c-2,1.4-3.7,4.7-3.4,6.2
				c1.6,8.5,3.4,14.8,3.4,17C100.3,52.4,106.2,53.2,106.8,51.4z"/>
			<path class="st9" d="M95.3,114.2c-2-8,6.2-9.5,8.8-3.6c3.7,8.2,3.4,34.6,3.2,39.8c0,0.7,0.1,1.5-0.3,1.8
				c-0.8,0.4-1.7,0.5-2.6,0.4c-0.9,0-1.8,0-1.9-1.2C102,143.7,97.3,122,95.3,114.2z"/>
			<path class="st9" d="M88,82.9c-0.9-10,3.1-17.8,9.3-14.5c2.6,1.4,3.6,4.2,3.9,6.8s2.3,29.8,2.9,34.7c1.5,11.1-7.2,8.1-8.2,5
				C93.5,107.2,88.4,88.3,88,82.9z"/>
			<path class="st9" d="M79.8,154.4c0.3-11.8,5.3-32.4,2.4-42c-1.8-6.1-9.1-6.3-8.8,1.2c0.3,8,2.8,23.6,1.9,39
				C75.2,154.2,79.7,155.8,79.8,154.4z"/>
			<path class="st9" d="M81.9,114.4c-1,3.1-9.3,6.6-8.5-4.5C73.8,105,74.8,77.6,75,75s0.7-6.5,2-7c6.6-2.4,13,5.4,11.3,15.3
				C87.1,90,83.9,108.1,81.9,114.4z"/>
			<ellipse transform="matrix(0.9257 -0.3782 0.3782 0.9257 1.6962 32.8503)" class="st5" cx="84.5" cy="12.1" rx="1.4" ry="2.8"/>
			<ellipse transform="matrix(0.378 -0.9258 0.9258 0.378 49.6499 98.0811)" class="st5" cx="97.8" cy="12.1" rx="2.8" ry="1.5"/>
			
				<linearGradient id="SVGID_5_" gradientUnits="userSpaceOnUse" x1="79.0543" y1="181.8556" x2="113.8543" y2="155.0556" gradientTransform="matrix(1 0 0 -1 0 177.51)">
				<stop  offset="0" style="stop-color:#0000FF"/>
				<stop  offset="1" style="stop-color:#9E005D"/>
			</linearGradient>
			<path class="st11" d="M96.7,4.3c-1.6,2.4-9.3,2.6-11.8,1.7S82.6,0.3,86.1,0c2,0,0.6,0.5,2.2,1.1C89.2,1.5,98.4,1.8,96.7,4.3z"/>
			<path class="st5" d="M86,54.9c-1.2,0.5-10.6,5-8.9,6.5c1.8,1.7,5.9,0.7,7.3,0.2c2.4-0.9,3.8-3.3,3.6-4.9
				C87.8,55.6,87.1,54.4,86,54.9z"/>
			<path class="st5" d="M85.2,54.7c-0.6,0-4.2-0.2-4.3,0.5c-0.1,1,2.2,1.3,3.8,1.4c0.8,0.1,2-0.4,2-1S86.2,54.8,85.2,54.7z"/>
			
				<linearGradient id="SVGID_6_" gradientUnits="userSpaceOnUse" x1="92.0372" y1="127.9963" x2="109.8972" y2="109.1964" gradientTransform="matrix(1 0 0 -1 0 177.51)">
				<stop  offset="0" style="stop-color:#36078B"/>
				<stop  offset="1" style="stop-color:#16B1FF"/>
			</linearGradient>
			<path class="st12" d="M85.9,58c1.9,0.6,3.5,0,8.2-1c6.7-1.5,8.2-2.2,12-4.6c2.5-1.5-1.7-6.6-5.4-5.5c-3.2,1-12.9,8-14.8,8.6
				C84.5,55.8,84.3,57.5,85.9,58z"/>
			<g>
				<defs>
					<path id="SVGID_7_" d="M107.9,155.3c-0.4-1.1-0.6-2.2-0.7-3.4c0.1-0.5,0.2-1,0.1-1.6c0.2-5.3,0.5-31.6-3.2-39.8l0,0
						c0-0.2,0-0.4-0.1-0.6c-0.7-4.8-2.5-30.9-2.9-34.5c0-2.9-0.3-5.9-0.9-8.8c-0.3-3.8-0.2-7.6,0.2-11.4c1.9-0.8,3.8-1.7,5.5-2.9
						c0.4-0.2,0.6-0.6,0.7-1l0,0c0.5-1.5,1-5,0-13.6c-0.3-3-0.8-6.1-1.6-9c-0.2-0.8-0.7-1.5-1.3-2.1c-1.2-1.9-3-3.3-5.2-3.9
						c-0.8-0.3-1.7-0.4-2.5-0.5c-0.1-0.9-0.1-1.8-0.2-2.6c0-0.2-0.1-0.4-0.1-0.6c0.9-0.7,1.5-1.7,1.7-2.8c0.4-0.7,0.7-1.4,0.9-2.1
						c0.4-0.4,0.7-0.9,0.9-1.4c0.6-1.4,0.4-2.7-0.2-3.1c0.2-2.8-0.2-5-2.1-5.8c0.2-2-7.8-2.3-8.5-2.6C86.7,0.5,88.2,0,86.1,0
						c-3.6,0.3-3.8,5.2-1.3,6.1H85c-0.1,0.3-0.2,0.7-0.3,1c-0.1,1-0.2,1.8-0.2,2.7c-0.3-0.3-0.7-0.3-1.1-0.2
						c-0.7,0.3-0.9,1.7-0.3,3.1c0.3,0.8,0.8,1.5,1.6,1.9c0.1,0.7,0.2,1.4,0.4,2.2c0.5,1.7,1.8,4.1,3.8,4.2c0,0.1,0,0.3,0,0.5
						c0,0.2,0,0.5,0,0.7c-1.8,0.1-3.6,0.4-5.4,1c-2.1,0.6-4.1,2-4.6,3.1l-0.5,1.3c-0.4,0.7-0.7,1.5-0.9,2.3
						c-2.4,6.3-3.9,11-4.8,12.5c-0.2,0.3-0.3,0.5-0.3,0.8c-2.5,2.2-7.9,10.5-9.9,12.8h-0.1c-0.3,0-0.6,0-0.9,0
						c-0.6,0-4.2,0.2-4.2,0.9s1,0.9,2.1,1c-2.9,1.8-6.6,4.6-5.4,5.5c2,1.5,6,0.2,7.3-0.4c1.7-0.8,2.9-2.4,3.2-4.3
						c1.4-0.3,2.9-1,5.8-3.2c2.5-1.9,4.3-3.5,5.8-4.9c-0.3,8.8-0.4,16.2-0.4,16.2c-0.6,5-0.9,10.1-0.9,15.1l0,0
						c-0.4,9.2-1,24.5-1.3,28.1c-0.1,0.8-0.1,1.6,0,2.4c0,0.4,0,0.9,0,1.3c0.3,7.9,2.7,23.3,2,38.6c-0.1,0.1-0.2,0.3-0.3,0.4
						c-0.9,1.1-2.1,2-3.5,2.6c-1.9,0.8-5.8,1.2-3.6,1.9c2,0.5,4.1,0.5,6.1,0.1c1.4-0.2,2.7-0.3,4.1-0.2c2,0,2-0.1,1.8-2.3
						c0-0.1,0-0.1,0-0.2l0,0c0.3-11.6,5.1-31.6,2.6-41.5c1.9-7,4.6-22,5.8-28.7c0.9,5.9,4.6,19.8,6.9,27.9c0,0.7,0.1,1.3,0.3,2
						c1.9,7.8,6.6,29.5,7.2,37.2l0,0c-0.2,0.9-0.1,1.3-0.2,1.9c-0.2,0.9-1,1.2-1.5,2s-1.4,2,2,2.1
						C106.4,157.4,108.5,157.3,107.9,155.3z"/>
				</defs>
				<clipPath id="SVGID_8_">
					<use xlink:href="#SVGID_7_"  style="overflow:visible;"/>
				</clipPath>
			</g>
		</g>
	</g>
</g>
</svg>
