<svg xmlns="http://www.w3.org/2000/svg" viewBox="0 0 194.73 194.73"><defs><style>.cls-1{fill:#ed0f0f;opacity:0.1;}.cls-2,.cls-3{fill:none;stroke:#0037ff;stroke-linecap:round;stroke-linejoin:round;}.cls-3{opacity:0.5;}</style></defs><title>promo</title><g id="Слой_2" data-name="Слой 2"><g id="Designed_by_Freepik" data-name="Designed by Freepik"><circle class="cls-1" cx="97.36" cy="97.36" r="97.36"/><rect class="cls-2" x="32.63" y="53.21" width="132.59" height="89.9" rx="3.06" ry="3.06" transform="translate(-0.2 0.2) rotate(-0.12)"/><path class="cls-2" d="M32.56,51.61H158.89a3.06,3.06,0,0,1,3.06,3.06v83.79a3.05,3.05,0,0,1-3.05,3.05H32.56a3.06,3.06,0,0,1-3.06-3.06V54.67a3.06,3.06,0,0,1,3.06-3.06Z" transform="translate(-0.2 0.2) rotate(-0.12)"/><path class="cls-2" d="M158.68,51.48l-125.94.26a3.33,3.33,0,0,0-3.32,3.33V58L162,57.69V54.8A3.33,3.33,0,0,0,158.68,51.48Z"/><rect class="cls-2" x="33.58" y="132.78" width="17.01" height="2.49" rx="1.24" ry="1.24" transform="translate(-0.28 0.09) rotate(-0.12)"/><circle class="cls-2" cx="36.33" cy="54.79" r="1.07" transform="translate(-0.11 0.07) rotate(-0.12)"/><circle class="cls-2" cx="40.87" cy="54.78" r="1.07" transform="translate(-0.11 0.08) rotate(-0.12)"/><circle class="cls-2" cx="45.4" cy="54.77" r="1.07" transform="translate(-0.11 0.09) rotate(-0.12)"/><rect class="cls-2" x="34.23" y="79.88" width="14.88" height="1.23" rx="0.61" ry="0.61" transform="translate(-0.17 0.09) rotate(-0.12)"/><rect class="cls-2" x="34.23" y="82.5" width="14.88" height="1.23" rx="0.61" ry="0.61" transform="translate(-0.17 0.09) rotate(-0.12)"/><rect class="cls-2" x="67.39" y="62.25" width="10.8" height="2.18" rx="1.09" ry="1.09"/><rect class="cls-2" x="81.35" y="62.25" width="10.8" height="2.18" rx="1.09" ry="1.09"/><rect class="cls-2" x="95.32" y="62.25" width="10.8" height="2.18" rx="1.09" ry="1.09"/><rect class="cls-2" x="109.28" y="62.25" width="10.8" height="2.18" rx="1.09" ry="1.09"/><rect class="cls-2" x="123.25" y="62.25" width="10.8" height="2.18" rx="1.09" ry="1.09"/><circle class="cls-2" cx="154.96" cy="63.05" r="2.73"/><rect class="cls-2" x="33" y="60.24" width="16.78" height="5.96" rx="2.98" ry="2.98" transform="translate(-0.13 0.09) rotate(-0.12)"/><polygon class="cls-2" points="161.43 124.93 30.26 124.93 30.26 124.93 30.26 57.97 161.43 57.97 161.43 57.97 161.43 124.93 161.43 124.93"/><path class="cls-2" d="M56,83,35.33,106.69a1.37,1.37,0,0,0,1,2.28h118a1.37,1.37,0,0,0,1.09-2.21L126.45,69a1.37,1.37,0,0,0-1.91-.26l-42.93,32a1.37,1.37,0,0,1-1.64,0L56,83"/><ellipse class="cls-2" cx="75.92" cy="74.44" rx="9.68" ry="9.51"/><rect class="cls-2" x="29.5" y="51.61" width="132.59" height="89.9" rx="3.06" ry="3.06" transform="matrix(1, 0, 0, 1, -0.2, 0.2)"/><ellipse class="cls-3" cx="71.42" cy="124.93" rx="7.35" ry="7.15"/><ellipse class="cls-3" cx="96.41" cy="124.93" rx="7.35" ry="7.15"/><ellipse class="cls-3" cx="121.41" cy="124.93" rx="7.35" ry="7.15"/></g></g></svg>