<?xml version="1.0" encoding="utf-8"?>
<!-- Generator: Adobe Illustrator 21.0.0, SVG Export Plug-In . SVG Version: 6.00 Build 0)  -->
<svg version="1.1" id="Слой_1" xmlns="http://www.w3.org/2000/svg" xmlns:xlink="http://www.w3.org/1999/xlink" x="0px" y="0px"
	 viewBox="0 0 120.8 160.1" style="enable-background:new 0 0 120.8 160.1;" xml:space="preserve">
<style type="text/css">
	.st0{fill:none;stroke:#0037FF;stroke-linecap:round;stroke-linejoin:round;}
	.st1{fill:url(#SVGID_1_);}
	.st2{fill:url(#SVGID_2_);}
	.st3{fill:url(#SVGID_3_);}
	.st4{fill:#EA8F68;}
	.st5{fill:url(#SVGID_4_);}
	.st6{fill:url(#SVGID_5_);}
	.st7{fill:url(#SVGID_6_);}
	.st8{fill:url(#SVGID_7_);}
	.st9{fill:url(#SVGID_8_);}
	.st10{fill:#FFAF84;}
	.st11{fill:url(#SVGID_9_);}
	.st12{opacity:0.3;fill:url(#SVGID_10_);enable-background:new    ;}
	.st13{opacity:0.3;fill:url(#SVGID_11_);enable-background:new    ;}
	.st14{fill:url(#SVGID_12_);}
	.st15{fill:url(#SVGID_13_);}
	.st16{opacity:0.3;fill:url(#SVGID_14_);enable-background:new    ;}
	.st17{fill:url(#SVGID_15_);}
</style>
<title>rukovoditel</title>
<g>
	<g id="Слой_2">
		<g id="Designed_by_Freepik">
			<path class="st0" d="M60,110.5c0.4,0.6,0.9,1.1,1.4,1.5l5.2,3.7c2.7-3.7,5.1-7.6,7.1-11.6c1.2-2.3,2.2-4.7,2.9-7.1
				c0-0.1,0.1-0.2,0.1-0.3l-11.8-2.8c-0.8,2.5-1.9,4.9-3.2,7.1c-0.5,1-1.1,2-1.8,3.1C58.6,106,58.7,108.5,60,110.5z"/>
			<path class="st0" d="M60.4,131l10.3,7.4c9.8-13.7,15-24.2,17.6-30.7c1.1-2.4,1.9-5,2.6-7.5l-3.7-0.9l-9.5-2.3l-1.1-0.3l-9.2-2.2
				v-0.1c-0.8,2.4-1.7,4.8-2.8,7.1c-1.1,2.4-2.6,5.4-4.6,8.9c-0.8,1.4-1.7,3-2.7,4.6C53.9,120.4,55.3,127.4,60.4,131z"/>
			<path class="st0" d="M7.4,104.5l36.4-5.6c4.3-0.7,8.8-0.4,13,0.7l4.8,1.3l2.9,0.8l9.2,2.4l1.3,0.3l9.5,2.5l3.9,1l2.8,0.7
				c9.2,2.4,18.6-3.1,21-12.3c0,0,0,0,0,0l5.8-22.4l1.7-6.6c2.4-9.2-3.1-18.6-12.3-21c0,0,0,0,0,0l-6.7-1.7L91.2,42L73,37.3
				c-4.3-1.1-8.2-3.1-11.7-5.8L32.2,9c-2.6-2-6.4-1.5-8.4,1.1c-0.5,0.6-0.8,1.3-1,2.1l-1.9,7.2L9,65L0.7,97.1
				c-0.8,3.2,1.2,6.5,4.4,7.3C5.8,104.6,6.6,104.6,7.4,104.5z"/>
			<path class="st0" d="M25,17L25,17c-1.8-0.5-3.7,0.6-4.2,2.4c0,0,0,0,0,0L2.6,89.9C2.1,91.7,3.2,93.5,5,94l0,0
				c1.8,0.5,3.7-0.6,4.2-2.4l18.3-70.5C27.9,19.3,26.8,17.5,25,17z"/>
			<path class="st0" d="M75,104.3l9.5,2.5c7.7-20.1,13.1-41,16.2-62.2l-9.5-2.5C88.2,63.4,82.8,84.2,75,104.3z"/>
			
				<linearGradient id="SVGID_1_" gradientUnits="userSpaceOnUse" x1="78.7361" y1="36.4398" x2="79.8661" y2="66.1198" gradientTransform="matrix(1 0 0 -1 0 201.89)">
				<stop  offset="0" style="stop-color:#36078B"/>
				<stop  offset="1" style="stop-color:#168D68"/>
			</linearGradient>
			<path class="st1" d="M77.4,153.5c-0.2,0.7-0.3,1.5-0.3,2.3c-0.2,0.9-1,1.3-1.5,2s-1.4,2.2,2,2.2c3.7,0.1,5.8-0.2,5.2-2.2
				c-0.4-1.1-0.7-2.3-0.7-3.5c0.1-0.6,0-1.2-0.4-1.7C81.3,152.2,78,151.5,77.4,153.5z"/>
			
				<linearGradient id="SVGID_2_" gradientUnits="userSpaceOnUse" x1="53.9794" y1="167.2345" x2="36.0994" y2="156.5645" gradientTransform="matrix(1 0 0 -1 0 201.89)">
				<stop  offset="0" style="stop-color:#36078B"/>
				<stop  offset="1" style="stop-color:#168D68"/>
			</linearGradient>
			<path class="st2" d="M48.4,47c1.4-0.8,4.2-3.1,9.4-10.2c1.9-2.5,3.6-5.1,5-7.9c1.4-2.6,0.1-4.9-1.8-5.3c-2.4-0.6-5.1-0.2-7.8,3.9
				c-3,4.4-5.7,8.9-8.2,13.5C42.9,44.8,46.7,48,48.4,47z"/>
			
				<linearGradient id="SVGID_3_" gradientUnits="userSpaceOnUse" x1="63.9391" y1="188.8394" x2="54.1891" y2="204.0894" gradientTransform="matrix(1 0 0 -1 0 201.89)">
				<stop  offset="0" style="stop-color:#36078B"/>
				<stop  offset="1" style="stop-color:#16B1FF"/>
			</linearGradient>
			<path class="st3" d="M61.4,12.6c-1.5,0.7-2.2,0.7-2.7-1.2C58.3,10,57.6,5,59.9,4.6s4.1-0.4,3.9,2.7S63.2,11.8,61.4,12.6z"/>
			<path class="st4" d="M70.2,15.4c0,0.2,0.5,5.1,0.6,8.8c-0.1,2-1.7,3.5-3.6,3.6h-0.1c-1.8,0-3.9-1.6-3.8-3.4
				c0.2-2.2,0.2-4.4,0.1-6.6L70.2,15.4z"/>
			
				<linearGradient id="SVGID_4_" gradientUnits="userSpaceOnUse" x1="49.9" y1="156.9" x2="80.0833" y2="156.9" gradientTransform="matrix(1 0 0 -1 0 201.89)">
				<stop  offset="0" style="stop-color:#36078B"/>
				<stop  offset="1" style="stop-color:#16B1FF"/>
			</linearGradient>
			<path class="st5" d="M79.2,35.7c-3.3,11-4.8,24.3-4.2,32H49.9c0,0,0.1-23.6,1.8-36.5c0.4-3.2,2.4-6,5.3-7.4
				c2.1-0.9,4.4-1.4,6.7-1.5h4.7c1.7,0.1,3.3,0.3,4.9,0.6C80,24.2,81.2,29.3,79.2,35.7z"/>
			
				<linearGradient id="SVGID_5_" gradientUnits="userSpaceOnUse" x1="70.0145" y1="50.8323" x2="58.7045" y2="174.0622" gradientTransform="matrix(1 0 0 -1 0 201.89)">
				<stop  offset="0" style="stop-color:#F70F47"/>
				<stop  offset="1" style="stop-color:#FFB41D"/>
			</linearGradient>
			<path class="st6" d="M75,83c0,0,2.2-5.3,0.1-15.4H49.9c-0.1,5.1,0.2,10.3,1,15.4H75z"/>
			
				<linearGradient id="SVGID_6_" gradientUnits="userSpaceOnUse" x1="78.4127" y1="51.6012" x2="67.1027" y2="174.8312" gradientTransform="matrix(1 0 0 -1 0 201.89)">
				<stop  offset="0" style="stop-color:#F70F47"/>
				<stop  offset="1" style="stop-color:#FFB41D"/>
			</linearGradient>
			<path class="st7" d="M70,116c-2-8.2,6.3-9.6,9-3.7c3.7,8.4,3.4,36.3,3.2,41.7c0,0.7,0,0.6-0.4,0.5c-0.6-0.2-1.2-1.5-2.8-1.4
				c-0.9,0-1.7,1.2-1.7,1.2C76.5,146.9,71.9,123.9,70,116z"/>
			
				<linearGradient id="SVGID_7_" gradientUnits="userSpaceOnUse" x1="76.0224" y1="51.3911" x2="64.7124" y2="174.6012" gradientTransform="matrix(1 0 0 -1 0 201.89)">
				<stop  offset="0" style="stop-color:#F70F47"/>
				<stop  offset="1" style="stop-color:#FFB41D"/>
			</linearGradient>
			<path class="st8" d="M63.2,84.1c-0.9-10.1,2.4-18.1,8.7-14.7c2.7,1.4,3.6,4.2,4,6.9s2.3,30.3,3,35.3c1.5,11.3-7.4,8.2-8.3,5.1
				C68.1,108.9,63.7,89.7,63.2,84.1z"/>
			
				<linearGradient id="SVGID_8_" gradientUnits="userSpaceOnUse" x1="62.9431" y1="50.1803" x2="51.6331" y2="173.4103" gradientTransform="matrix(1 0 0 -1 0 201.89)">
				<stop  offset="0" style="stop-color:#F70F47"/>
				<stop  offset="1" style="stop-color:#FFB41D"/>
			</linearGradient>
			<path class="st9" d="M54.4,116c-1.6-7.5,5.8-8.6,8.6-2.7c4.5,9.2,3,31.1,4.6,43c-1.6-1.8-2.8-1.8-3.4-1.7
				c-0.5,0.1-0.9,0.4-1.2,0.9C60.7,139.8,56.1,123.9,54.4,116z"/>
			<path class="st10" d="M52.2,38.7c-1.3-0.5-3.4-1.3-4.5-1.8s-2.3,2-2,2.7c0.5,1.1,3.1,3.5,4.5,2.8s2.4,0.3,3.4-0.7
				S54.4,39.5,52.2,38.7z"/>
			
				<linearGradient id="SVGID_9_" gradientUnits="userSpaceOnUse" x1="63.3497" y1="50.21" x2="52.0397" y2="173.49" gradientTransform="matrix(1 0 0 -1 0 201.89)">
				<stop  offset="0" style="stop-color:#F70F47"/>
				<stop  offset="1" style="stop-color:#FFB41D"/>
			</linearGradient>
			<path class="st11" d="M63.1,115.3c-0.5,3.2-8.3,8.2-9.3-3.1c-0.4-5-3.3-32.7-3.6-35.3s-0.6-6.8,0.3-7.4c5.9-4,12.6,3.2,12.5,13.4
				C63.1,89.7,64.1,108.6,63.1,115.3z"/>
			
				<linearGradient id="SVGID_10_" gradientUnits="userSpaceOnUse" x1="51.8759" y1="156.4768" x2="73.1619" y2="156.4768" gradientTransform="matrix(1 0 0 -1 0 201.89)">
				<stop  offset="0" style="stop-color:#0000FF"/>
				<stop  offset="1" style="stop-color:#9E005D"/>
			</linearGradient>
			<path class="st12" d="M52.1,41.2c0.9,1.8,2.5,2.6,6.6,5.2c5.9,3.8,9.2,5.2,12.1,5.3s3.4-6-0.1-7.9c-3-1.6-15-3.5-16.8-4.5
				C52.7,38.7,51.3,39.7,52.1,41.2z"/>
			
				<linearGradient id="SVGID_11_" gradientUnits="userSpaceOnUse" x1="44.5911" y1="167.1167" x2="63.0529" y2="167.1167" gradientTransform="matrix(1 0 0 -1 0 201.89)">
				<stop  offset="0" style="stop-color:#0000FF"/>
				<stop  offset="1" style="stop-color:#9E005D"/>
			</linearGradient>
			<path class="st13" d="M63,23.9c-0.1,2.1-0.6,3.7-3.2,7.8c-3.5,5.5-7.9,13-10.3,15.1c-2.3,1.9-6.6-2.4-4.2-5.6
				c2-2.7,14.2-16.6,15.4-18.3C61.5,21.8,63.1,22.2,63,23.9z"/>
			<path class="st10" d="M72.6,11.8c-0.4,4.2-0.5,5.1-2.4,6.8c-1.8,1.6-4,2.5-6.4,2.5c-2.1,0-3.7-2.3-4.2-4c-0.8-3.5-1-7.1-0.5-10.7
				c0.7-2.9,3.2-4.9,6.1-5.1C68.3,1.3,73.7,1.7,72.6,11.8z"/>
			
				<linearGradient id="SVGID_12_" gradientUnits="userSpaceOnUse" x1="61.4339" y1="37.0999" x2="62.5639" y2="66.7799" gradientTransform="matrix(1 0 0 -1 0 201.89)">
				<stop  offset="0" style="stop-color:#36078B"/>
				<stop  offset="1" style="stop-color:#168D68"/>
			</linearGradient>
			<path class="st14" d="M63.1,155.2c-0.9,1.2-2.2,2.1-3.6,2.6c-1.9,0.8-5.9,1.2-3.7,1.9c2,0.5,4.1,0.5,6.2,0.1
				c1.4-0.2,2.8-0.3,4.2-0.2c2.1,0,2.1-0.1,1.8-2.4C67.6,154.1,64,153.4,63.1,155.2z"/>
			
				<linearGradient id="SVGID_13_" gradientUnits="userSpaceOnUse" x1="71.4868" y1="193.668" x2="61.7368" y2="208.918" gradientTransform="matrix(1 0 0 -1 0 201.89)">
				<stop  offset="0" style="stop-color:#36078B"/>
				<stop  offset="1" style="stop-color:#16B1FF"/>
			</linearGradient>
			<path class="st15" d="M72.6,11.2c-1.1,1.1-1.7,1.3-2.8-0.2c-0.8-1.2-3.2-5.5-1.2-6.6s3.6-1.7,4.4,1.2S74,9.9,72.6,11.2z"/>
			<ellipse transform="matrix(0.3783 -0.9257 0.9257 0.3783 33.6978 75.1)" class="st10" cx="72.8" cy="12.5" rx="2.8" ry="1.5"/>
			<path class="st10" d="M60.8,25.4c-0.6-0.8-4.8-7.6-3-7.9c1.9-0.3,4.1,2,4.8,2.9c1,1.3,1.1,3.2,0.3,4.6
				C62.3,25.7,61.3,26.2,60.8,25.4z"/>
			
				<linearGradient id="SVGID_14_" gradientUnits="userSpaceOnUse" x1="66.6755" y1="163.3839" x2="80.3812" y2="163.3839" gradientTransform="matrix(1 0 0 -1 0 201.89)">
				<stop  offset="0" style="stop-color:#0000FF"/>
				<stop  offset="1" style="stop-color:#9E005D"/>
			</linearGradient>
			<path class="st16" d="M71.6,51.6c1.4-0.7,3.5-4.4,6.3-12.8c1-2.9,1.8-5.9,2.4-9c0.6-2.9-1.8-4.8-3.3-4.5
				c-2.5,0.5-5.5,2.8-5.9,4.3c-2.2,8.5-3.3,15.1-4.2,17.1C65.6,49.5,70,52.4,71.6,51.6z"/>
			
				<linearGradient id="SVGID_15_" gradientUnits="userSpaceOnUse" x1="68.663" y1="191.8647" x2="58.913" y2="207.1147" gradientTransform="matrix(1 0 0 -1 0 201.89)">
				<stop  offset="0" style="stop-color:#36078B"/>
				<stop  offset="1" style="stop-color:#16B1FF"/>
			</linearGradient>
			<path class="st17" d="M71.3,4.1c-1.4,0.9-7.6,2.6-9.5,3.1c0,0,2.5-1.3,2.9-2c-2.3,0.3-4.7,0.3-7,0c0.7-0.4,1.3-0.8,1.8-1.4
				c-1.1,0-2.3-0.2-3.3-0.6c0,0,6.7-4.6,12.7-2.9C72,1.3,72.7,3.2,71.3,4.1z"/>
			<g>
				<defs>
					<path id="SVGID_16_" d="M82.8,157.8c-0.4-1.1-0.6-2.2-0.7-3.3c0.1,0,0.1-0.1,0.1-0.6c0.2-5.4,0.5-33.3-3.2-41.7l0,0
						c0-0.2,0-0.4-0.1-0.6c-0.7-4.9-2.6-31.4-3-35.1c0-3-0.3-6-0.9-8.9c-0.7-7.7,0.8-21,4.2-32c0.5-1.5,0.8-3.1,0.8-4.6
						c0.1-0.5,0.2-0.9,0.2-1.2c0.4-1.7-0.4-3.4-1.9-4.3c-1.3-1.4-3.1-2.4-5.1-2.6c-0.8-0.1-1.7-0.3-2.6-0.4c-0.1-1.4-0.2-2.8-0.3-4
						c1-0.9,1.6-2.1,1.8-3.4c0.9-0.4,1.6-1.2,1.9-2.1c0.6-1.4,0.4-2.9-0.3-3.2c-0.1,0-0.2-0.1-0.3-0.1c0.3-1,0.1-2.2-0.5-4.2
						c-0.3-1.2-0.8-1.7-1.3-2c0.6-1-0.2-2.5-2.8-3.3c-5.9-1.6-12.7,3-12.7,3c1.1,0.4,2.2,0.6,3.3,0.6c-0.6,0.5-1.2,1-1.8,1.4
						c0.3,0.1,0.7,0.1,1.1,0.2c-0.9,1.6-0.4,4.9-0.1,6.1c0.1,0.3,0.2,0.5,0.3,0.8c0.1,1.6,0.3,3.2,0.7,4.8c0.1,0.3,0.2,0.7,0.4,1
						c-0.7-0.5-1.5-0.7-2.3-0.6c-1.1,0.2,0.3,3.2,1.6,5.5c-0.8,0.2-1.6,0.5-2.3,0.8c-2.1,1-3.7,2.8-4.6,4.9
						c-2.3,3.4-3.9,6.1-5.2,8.2c-1,0.1-1.9,2.1-1.6,2.8l0,0L45,41c-1.9,3.5,1,6.4,2.9,6.2c0.6,0.1,1.2,0,1.7-0.4
						c0.4-0.3,0.7-0.6,1-1c-0.6,11-0.6,21.9-0.6,21.9c-0.1,5.1,0.2,10.3,1,15.4l0,0c0.9,9.2,2.6,25.4,3,29.2
						c0.1,0.8,0.2,1.6,0.4,2.4c0,0.5,0.1,0.9,0.2,1.3c1.7,8,6.2,23.7,8.7,39.3c-0.9,1.1-2.2,2-3.5,2.6c-1.9,0.8-5.9,1.2-3.7,1.9
						c2,0.5,4.1,0.5,6.2,0.1c1.4-0.2,2.8-0.3,4.2-0.2c2.1,0,2.1-0.1,1.8-2.4c0-0.4-0.2-0.8-0.3-1.1c-1.6-11.7-0.2-32.9-4.4-42.3
						c0.6-7.6-0.2-23.8-0.1-30.4c0,0.3,0,0.6,0.1,0.9c0.4,4.9,4,20.6,6.5,29.6c0,0.7,0.1,1.5,0.2,2.2c2,7.9,6.5,30.9,7.3,38.2l0,0
						c-0.1,0.6-0.1,1-0.2,1.6c-0.2,0.9-1,1.3-1.5,2s-1.4,2.2,2,2.2C81.3,160.1,83.4,159.8,82.8,157.8z M63.5,21.1c0,0.4,0,0.8,0,1.2
						h-0.1c-0.1-0.5-0.2-0.9-0.5-1.4C63.1,21,63.3,21,63.5,21.1z"/>
				</defs>
				<clipPath id="SVGID_17_">
					<use xlink:href="#SVGID_16_"  style="overflow:visible;"/>
				</clipPath>
			</g>
		</g>
	</g>
</g>
</svg>
