<svg xmlns="http://www.w3.org/2000/svg" viewBox="0 0 189.9 175.67"><defs><style>.cls-1{isolation:isolate;}.cls-2,.cls-3,.cls-4,.cls-6{fill:none;}.cls-2,.cls-3,.cls-6{stroke:#0037ff;}.cls-2,.cls-4{stroke-linecap:round;stroke-linejoin:round;}.cls-3,.cls-6{stroke-miterlimit:10;}.cls-4{stroke:#dfe4e5;stroke-width:8px;}.cls-5{opacity:0.1;mix-blend-mode:multiply;}.cls-6{opacity:0.4;}.cls-7{fill:#d8491d;}.cls-8{fill:#4817ce;}.cls-9{fill:#f05a25;}.cls-10{fill:#6123ea;}.cls-11{fill:#f8b7b0;}.cls-12{fill:#1c1e38;}.cls-13{fill:#f6931e;}</style></defs><title>saity</title><g class="cls-1"><g id="Слой_2" data-name="Слой 2"><g id="Designed_by_Freepik" data-name="Designed by Freepik"><path class="cls-2" d="M189,73.91h-1.08v.69a2.8,2.8,0,0,0-.28-.18L78.76,11.54a3.52,3.52,0,0,0-3.5,0L12.73,47.65a3.49,3.49,0,0,0-1,.87H11v4a.29.29,0,0,0,0,.05,3.46,3.46,0,0,0,1.75,3l108.88,62.87a3.47,3.47,0,0,0,3.5,0l62.54-36.1a3.63,3.63,0,0,0,1.05-.93,3.55,3.55,0,0,0,.69-2.1V75.49A3.49,3.49,0,0,0,189,73.91Z"/><path class="cls-2" d="M189.4,75.49a3.67,3.67,0,0,1-.14,1,3.39,3.39,0,0,1-1.32,1.88,2.8,2.8,0,0,1-.28.18l-62.54,36.1a3.47,3.47,0,0,1-3.5,0L12.73,51.76a3.44,3.44,0,0,1-1.62-2.05,3.49,3.49,0,0,1,1.62-4L75.26,9.6a3.52,3.52,0,0,1,3.5,0L187.66,72.47A3.39,3.39,0,0,1,189,73.91,3.49,3.49,0,0,1,189.4,75.49Z"/><path class="cls-3" d="M105,72.76,86.55,83.44a.78.78,0,0,0,0,1.36L104.25,95a4.05,4.05,0,0,0,4.05,0L126,84.8a.78.78,0,0,0,0-1.36L107.52,72.76A2.48,2.48,0,0,0,105,72.76Z"/><path class="cls-3" d="M115.56,82.36c.49,2.52-2.45,5.16-6.56,5.89s-7.85-.71-8.34-3.23,2.45-5.16,6.56-5.89S115.07,79.84,115.56,82.36Z"/><path class="cls-3" d="M114.79,81.17c.5,2.52-2.25,5.12-6.16,5.81s-7.48-.79-8-3.31,2.25-5.12,6.16-5.81S114.29,78.65,114.79,81.17Z"/><path class="cls-4" d="M35.62,131.23"/><g class="cls-5"><ellipse class="cls-3" cx="77.02" cy="22.39" rx="5.18" ry="3.06"/></g><path class="cls-3" d="M82.24,18.9A5.22,5.22,0,0,1,72,20.5a5.22,5.22,0,0,1,5.89-6.74A5.22,5.22,0,0,1,82.16,18,5.16,5.16,0,0,1,82.24,18.9Z"/><path class="cls-3" d="M75.33,24.14a5.5,5.5,0,0,1-3.55-3.55,5.43,5.43,0,0,1-.27-1.69A5.5,5.5,0,1,1,77,24.4,5.45,5.45,0,0,1,75.33,24.14ZM72.08,18.9A4.94,4.94,0,0,0,77,23.84,4.94,4.94,0,0,0,77.89,14,4.88,4.88,0,0,0,77,14,5,5,0,0,0,72.08,18.9Z"/><path class="cls-3" d="M77.18,24.4a.28.28,0,0,0,.14-.52,3.75,3.75,0,0,1-2-2.78,3,3,0,0,1,1-2.51,3.73,3.73,0,0,1,3.21-1.06A3.4,3.4,0,0,1,82,19.4a.28.28,0,1,0,.5-.25A4,4,0,0,0,79.67,17,4.28,4.28,0,0,0,76,18.19a3.54,3.54,0,0,0-1.16,3A4.28,4.28,0,0,0,77,24.36.28.28,0,0,0,77.18,24.4Z"/><path class="cls-3" d="M72.07,19.06a4.83,4.83,0,0,0,2.75-1.59A3.37,3.37,0,0,0,76,14.94a1.74,1.74,0,0,0-.49-1.2.28.28,0,0,0-.35.43,1.27,1.27,0,0,1,.28.8,2.84,2.84,0,0,1-1,2.12c-1,1-2.06,1.58-2.52,1.4a.28.28,0,1,0-.2.52A1,1,0,0,0,72.07,19.06Z"/><polygon class="cls-3" points="75.58 55.08 47.17 71.48 66.11 82.42 94.53 66.01 75.58 55.08"/><polygon class="cls-3" points="75.58 54.68 47.17 71.08 66.11 82.02 94.53 65.62 75.58 54.68"/><polygon class="cls-3" points="75.58 54.28 47.17 70.69 66.11 81.63 94.53 65.22 75.58 54.28"/><path class="cls-3" d="M67,81.65a.58.58,0,0,0,.12-.64.65.65,0,0,0-.13-.19.58.58,0,0,0-.95.18.52.52,0,0,0-.05.24.59.59,0,0,0,1,.42Zm-.29-.56,0,.07a.19.19,0,0,1,0,.07.18.18,0,0,1-.05.13.2.2,0,0,1-.27,0,.19.19,0,0,1-.05-.14.15.15,0,0,1,0-.07l0-.06a.2.2,0,0,1,.14-.05A.19.19,0,0,1,66.75,81.09Z"/><path class="cls-3" d="M70,80a.58.58,0,0,0,.21-.8.59.59,0,0,0-1.08.14.58.58,0,0,0,.06.45.59.59,0,0,0,.51.29A.55.55,0,0,0,70,80Zm-.13-.6a.18.18,0,0,1,0,.14.19.19,0,0,1-.09.12.19.19,0,0,1-.25-.07h0a.19.19,0,0,1,.07-.26l.09,0A.19.19,0,0,1,69.87,79.36Zm3.21-1.18a.58.58,0,0,0,.28-.36.59.59,0,0,0-.86-.66.59.59,0,0,0,.59,1ZM73,77.57a.19.19,0,0,1-.07.26.18.18,0,0,1-.26-.06h0a.19.19,0,0,1,.07-.26l.09,0A.19.19,0,0,1,73,77.57Zm3.21-1.17a.59.59,0,1,0-.8-.21h0a.59.59,0,0,0,.51.28A.59.59,0,0,0,76.17,76.4Zm-.48-.56a.19.19,0,0,1,.23-.13.18.18,0,0,1,.11.09.19.19,0,0,1,0,.14.19.19,0,0,1-.09.11.2.2,0,0,1-.26-.07A.19.19,0,0,1,75.69,75.84Zm3.57-1.22a.59.59,0,0,0-.59-1A.59.59,0,0,0,79,74.7.59.59,0,0,0,79.26,74.62Zm-.13-.6a.19.19,0,0,1-.07.26.2.2,0,0,1-.26-.07h0a.19.19,0,0,1,.07-.26l.09,0A.19.19,0,0,1,79.13,74Zm3.21-1.18a.59.59,0,1,0-.59-1,.59.59,0,0,0-.21.8.58.58,0,0,0,.51.29A.59.59,0,0,0,82.34,72.84Zm-.13-.61a.19.19,0,0,1-.07.26.2.2,0,0,1-.26-.07h0a.19.19,0,0,1,.07-.26l.1,0A.19.19,0,0,1,82.21,72.23Zm3.21-1.18a.58.58,0,0,0,.22-.8.58.58,0,0,0-.8-.22.59.59,0,0,0-.22.8h0a.58.58,0,0,0,.8.21ZM85,70.38a.18.18,0,0,1,.14,0,.2.2,0,0,1,.14.24.18.18,0,0,1-.09.11.18.18,0,0,1-.26-.07A.19.19,0,0,1,85,70.38Zm3.47-1.11a.59.59,0,0,0,.22-.81.59.59,0,0,0-1,.59.58.58,0,0,0,.8.21Zm-.13-.61a.19.19,0,0,1-.33.19h0a.19.19,0,0,1,.07-.26l.09,0A.19.19,0,0,1,88.38,68.67Zm3.21-1.18a.59.59,0,0,0,.22-.8.59.59,0,0,0-1,.59h0a.59.59,0,0,0,.8.21Zm-.39-.67a.19.19,0,0,1,.14,0,.19.19,0,0,1,.11.09.19.19,0,0,1-.07.26.2.2,0,0,1-.26-.07A.19.19,0,0,1,91.2,66.83Z"/><path class="cls-3" d="M94.61,65.75a.6.6,0,0,0,.19-.13.54.54,0,0,0,.13-.19.57.57,0,0,0,0-.45.6.6,0,0,0-.13-.19.58.58,0,0,0-.19-.13.59.59,0,0,0-.65.13.67.67,0,0,0-.12.18.58.58,0,0,0,0,.22.58.58,0,0,0,0,.22.61.61,0,0,0,.13.2.6.6,0,0,0,.19.13.62.62,0,0,0,.22,0A.58.58,0,0,0,94.61,65.75ZM94.45,65l.06,0,0,.07a.19.19,0,0,1,0,.07.2.2,0,0,1,0,.08.15.15,0,0,1,0,.06l-.06,0a.23.23,0,0,1-.15,0l-.05,0a.22.22,0,0,1,0-.07.22.22,0,0,1,0-.14l0-.06.06,0h.15Z"/><polygon class="cls-6" points="131.86 80.12 154.61 93.03 175.13 66.38 154.1 57.19 131.86 80.12"/><polygon class="cls-3" points="134.49 80.04 157.73 92.28 177.32 65.25 155.99 56.65 134.49 80.04"/><polygon class="cls-3" points="138.56 84.2 163.88 93.12 178.05 64.67 156.71 58.22 138.56 84.2"/><path class="cls-2" d="M2.39,155.72a1.89,1.89,0,0,1-.95-3.52L31.6,134.78a5.25,5.25,0,0,0,2.61-4.53V108.77a5.23,5.23,0,0,0-7.85-4.53L14,111.37A9,9,0,0,1,.5,103.57V83.47a1.89,1.89,0,1,1,3.78,0v20.1a5.23,5.23,0,0,0,7.85,4.53L24.48,101A9,9,0,0,1,38,108.77v21.48a9,9,0,0,1-4.5,7.8L3.33,155.47A1.88,1.88,0,0,1,2.39,155.72Z"/><path class="cls-7" d="M47.81,132.82c.22,4-.59,3.69,0,5.83.47,1.7,3.3,3.37,8.28,1.73s9.55-4.76,11.3-7.94-4.5-4.59-9.76-2.41a66.69,66.69,0,0,1-9.83,2.79"/><path class="cls-8" d="M52.75,98.95c-1.06,7.07-6.52,33.06-5,36.75s6.35,3.59,9.8-1.68S67.3,99.55,67.4,94.23C67.48,89.49,54.15,89.67,52.75,98.95Z"/><path class="cls-8" d="M45.54,110c6.8-4.13,18.79-10.45,21.13-14.93s-.88-10.62-7.51-10.53S38.52,95.64,33.49,96.32,36.61,115.4,45.54,110Z"/><path class="cls-9" d="M61.36,138.27c-.51,3.93-.87,5.34-.87,6.5s2.42,3.15,7.63,2.45,12.6-3.35,14.9-6.15-6.59-5.71-11.51-4.36a68.67,68.67,0,0,1-10.15,1.56"/><path class="cls-10" d="M66.38,104.06c-1.06,7.07-6.53,33.06-5,36.75s6.35,3.59,9.8-1.68S80.92,104.66,81,99.33C81.11,94.6,67.78,94.77,66.38,104.06Z"/><path class="cls-2" d="M67.91,113.8l-3.82-2.21V113l-26-15a4,4,0,0,0-4,0L7.61,113.3v-1.42L4.29,113.8a1.25,1.25,0,0,0-.63,1.09v1.42a1.25,1.25,0,0,0,.63,1.09l3.32,1.92,25.22,14.56a6.55,6.55,0,0,0,6.54,0l24.73-14.27,3.82-2.21a1.25,1.25,0,0,0,.63-1.09V114.9A1.25,1.25,0,0,0,67.91,113.8Z"/><path class="cls-2" d="M68.55,114.9a1.24,1.24,0,0,1-.22.71,1.26,1.26,0,0,1-.42.39l-3.82,2.21L39.37,132.47a6.55,6.55,0,0,1-6.54,0L7.61,117.91,4.29,116a1.26,1.26,0,0,1-.42-.39,1.26,1.26,0,0,1,.42-1.8l3.32-1.92,26.5-15.3a4,4,0,0,1,4,0l26,15,3.82,2.21A1.25,1.25,0,0,1,68.55,114.9Z"/><path class="cls-11" d="M35.89,62.3A11.92,11.92,0,0,0,47.28,61c1.48-1.16-1.86-3.46-2.86-5.21a4.35,4.35,0,0,1-.14-3.06,66.3,66.3,0,0,1,2.66-9.45l-11.37-1.4s-1,5.75-1.46,7.86a3.2,3.2,0,0,1-.37,1c-.73,1.22-2.24,1.45-4.85,2.67C25.72,54.83,30.35,60.2,35.89,62.3Z"/><path class="cls-11" d="M27.92,34.55c1.19,6.78,1.39,9.09,4.74,11.71s10.79,3.34,13.4,3.19c3.26-.18,4.2-3.92,4.84-6.85a49.94,49.94,0,0,0-.21-18.22c-.79-3.76-6.06-8.07-11.18-7.78S25,18,27.92,34.55Z"/><path class="cls-12" d="M48.16,31.85c-.5,6-2.28,7-4,10.71-1.58,3.48-5.76,6-8.8,5.17-5.45-1.56-5.74-3.56-8.93-9.43A21.55,21.55,0,0,1,24,24.87c.41-3.31,5.32-7.46,10.56-7.61S49.39,17.3,48.16,31.85Z"/><path class="cls-11" d="M50.15,39.29c-.23,2.22-1.89,3.92-3.71,3.8s-3.11-2-2.88-4.23,1.89-3.92,3.71-3.8S50.38,37.07,50.15,39.29Z"/><path class="cls-12" d="M45.39,27.56c3.54-2,7.94-3.57,5.72-6.54s-9.26-7.08-18.7-4.19S45.39,27.56,45.39,27.56Z"/><path class="cls-11" d="M57,53.92c4.16-.16,4.77-1.68,8.15-2.22s4.79-.56,6.94.92,3.64,5.53-2.22,5.46-6.5,1-9.93,1.45C56.27,60,57,53.92,57,53.92Z"/><path class="cls-12" d="M72.9,59.81a.42.42,0,0,0,.28-.73l-8.62-7.87a.42.42,0,1,0-.56.62l8.62,7.87A.42.42,0,0,0,72.9,59.81Z"/><path class="cls-11" d="M56.21,57.78c4.15.09,4.94-.53,8.37-.63s4.82-.05,6.76.66,2.9,2.49-2.9,2.23-6.58.19-10,.23C54.72,60.32,56.21,57.78,56.21,57.78Z"/><path class="cls-9" d="M30.28,73.41c8-.53,27.84-10.93,31.31-13.11a1.64,1.64,0,0,0,.75-1.3c.21-3.45-1.64-6.2-2.59-6.39S34.64,65,23.57,62.26"/><path class="cls-10" d="M21.6,101.17c-1.25,5.84-2.09,11,.56,13.93s10.49,7.76,21.93,5.95,19.45-5.28,17.84-8.46-.42-11.42-12.79-10.31S21.6,101.17,21.6,101.17Z"/><path class="cls-10" d="M59.16,116.71C66,112.58,78,106.26,80.29,101.78s-.88-10.62-7.51-10.53S52.14,102.37,47.12,103,50.24,122.13,59.16,116.71Z"/><path class="cls-13" d="M53.65,102.66c.06,3.12-.63,7.75-7,9.17-7.08,1.59-14.37.62-19.58-2.19-6.38-3.43-6-5.16-4.77-11.39a101.36,101.36,0,0,0,1.11-10.92c0-6.72-1-10.23-1.68-14.64-1-6.35-2.52-14.37,4.05-19.64A11.45,11.45,0,0,1,32.74,51c7.6,1.27,17.32,5.93,20.36,15.71A21.46,21.46,0,0,1,53.84,70a23.57,23.57,0,0,1,.2,4.13c-.26,7.24-.38,12.59-.45,16.63,0,.14,0,.28,0,.42C53.5,97.79,53.6,100.73,53.65,102.66Z"/><path class="cls-9" d="M54,74.13c-.26,7.24-.38,12.59-.45,16.63a112.12,112.12,0,0,1-8.44-13.12c-4.59-8.66-4.08-14.57,2.6-13.87a7.58,7.58,0,0,1,5.35,2.9A21.46,21.46,0,0,1,53.84,70,23.57,23.57,0,0,1,54,74.13Z"/><path class="cls-2" d="M35.12,104.34v8a2.16,2.16,0,0,1-.68,1.59h0a2.13,2.13,0,0,1-1.08-.29L4,96.63A2.17,2.17,0,0,1,2.9,94.75v-8a2.14,2.14,0,0,1,.69-1.59,2.11,2.11,0,0,1,1.08.29l29.37,17A2.17,2.17,0,0,1,35.12,104.34Z"/><path class="cls-2" d="M36.1,175.17a1.89,1.89,0,0,1-.95-3.52l30.15-17.41a5.25,5.25,0,0,0,2.62-4.53V127.23a5.23,5.23,0,0,0-7.85-4.53l-12.35,7.13A9,9,0,0,1,34.21,122v-20.1a1.89,1.89,0,1,1,3.78,0V122a5.23,5.23,0,0,0,7.85,4.53l12.35-7.13a9,9,0,0,1,13.51,7.8v22.48a9,9,0,0,1-4.5,7.8L37,174.92A1.88,1.88,0,0,1,36.1,175.17Z"/><path class="cls-11" d="M96.24,79.55c3.95-.63,4.35-2.14,7.51-3s4.5-1.07,6.71.09,5.22,5.35-.38,5.94a57.11,57.11,0,0,0-10.42,2C96.24,85.39,96.24,79.55,96.24,79.55Z"/><path class="cls-13" d="M39.9,67.87C46.33,75.07,61,86.23,68.57,88c7.78,1.84,29.82-2.26,33.78-3.33a1.64,1.64,0,0,0,1.1-1c1.21-3.24.25-6.41-.6-6.87S75.2,81.3,65.44,75.38C58.62,71.24,58.21,71,53.06,64.6c-4.17-5.15-7.6-11-14.41-10S33.82,61,39.9,67.87Z"/><path class="cls-3" d="M138.46,54.65H138v.26l-.11-.07L96.72,31a1.33,1.33,0,0,0-1.33,0L71.73,44.71a1.32,1.32,0,0,0-.38.33h-.28v.84A1.31,1.31,0,0,0,71.73,47l41.21,23.8a1.31,1.31,0,0,0,1.33,0l23.67-13.66a1.37,1.37,0,0,0,.4-.35,1.35,1.35,0,0,0,.26-.8v-.74A1.32,1.32,0,0,0,138.46,54.65Z"/><path class="cls-3" d="M138.6,55.25a1.39,1.39,0,0,1-.05.37,1.28,1.28,0,0,1-.5.71l-.11.07L114.27,70.06a1.31,1.31,0,0,1-1.33,0L71.73,46.26a1.3,1.3,0,0,1-.61-.78A1.32,1.32,0,0,1,71.73,44L95.4,30.31a1.33,1.33,0,0,1,1.33,0l41.22,23.8a1.28,1.28,0,0,1,.52.55A1.32,1.32,0,0,1,138.6,55.25Z"/><path class="cls-3" d="M102.61,54.79l-4.89,2.82a.7.7,0,0,1-.7,0l-6.9-4a.7.7,0,0,1,0-1.22L95,49.59a.7.7,0,0,1,.7,0l6.9,4A.7.7,0,0,1,102.61,54.79Z"/><path class="cls-3" d="M85.85,39.64,95.65,34a.83.83,0,0,1,.83,0l35.58,20.54a.83.83,0,0,1,0,1.43l-9.8,5.65a.83.83,0,0,1-.83,0L85.85,41.08A.83.83,0,0,1,85.85,39.64Z"/><path class="cls-3" d="M96.06,1.83V29.16a1.32,1.32,0,0,0,.66,1.15l41.22,23.8a1.32,1.32,0,0,0,2-1.15V25.62a1.32,1.32,0,0,0-.66-1.15L98,.68A1.32,1.32,0,0,0,96.06,1.83Z"/><path class="cls-3" d="M98.27,27.5V4.32a.55.55,0,0,1,.83-.48l37.63,21.72a2,2,0,0,1,1,1.71V50.46a.55.55,0,0,1-.83.48L99.26,29.22A2,2,0,0,1,98.27,27.5Z"/><path class="cls-3" d="M131.12,45.36,104.27,29.86a8.11,8.11,0,0,1-4-7V12.1a3.1,3.1,0,0,1,4.65-2.68l26.86,15.5a8.11,8.11,0,0,1,4,7V42.68a3.09,3.09,0,0,1-4.65,2.68ZM102,9.9a2.52,2.52,0,0,0-1.27,2.2V22.85a7.56,7.56,0,0,0,3.77,6.53L131.4,44.88a2.54,2.54,0,0,0,3.81-2.2V31.93a7.56,7.56,0,0,0-3.77-6.53h0L104.59,9.9a2.52,2.52,0,0,0-2.54,0Zm29.53,15.26h0Z"/></g></g></g></svg>