<svg xmlns="http://www.w3.org/2000/svg" viewBox="0 0 84.74 25.51"><defs><style>.cls-1{fill:#1d1d1b;}.cls-2{fill:#e21d29;}</style></defs><title>scroll-logo</title><g id="Слой_2" data-name="Слой 2"><g id="Слой_1-2" data-name="Слой 1"><path class="cls-1" d="M28.91,12.89l.85-1.28A9.15,9.15,0,0,0,34.66,13a4.28,4.28,0,0,0,2.24-.43,1.2,1.2,0,0,0,.64-1,1.24,1.24,0,0,0-.45-1,4.14,4.14,0,0,0-1.58-.71l-3.3-1A5.89,5.89,0,0,1,30,7.79a2.57,2.57,0,0,1-.86-2q0-2.25,3-2.94a11.5,11.5,0,0,1,2.64-.25,9.6,9.6,0,0,1,3,.48A8.69,8.69,0,0,1,40.1,4.16l-.85,1.28a11,11,0,0,0-2-1A6.91,6.91,0,0,0,34.79,4a3.69,3.69,0,0,0-1.92.36,1,1,0,0,0-.55.88q0,1.08,1.92,1.63l3.31,1q3.2.93,3.19,3.2,0,3.41-6.07,3.41a11.05,11.05,0,0,1-4.68-1A6.63,6.63,0,0,1,28.91,12.89Z"/><path class="cls-1" d="M41.26,8.53A5.61,5.61,0,0,1,43.07,4.1a6.84,6.84,0,0,1,4.69-1.54,7.93,7.93,0,0,1,3.84.94,5.13,5.13,0,0,1,1,.67l-.85,1.28A6.22,6.22,0,0,0,48,4a3.14,3.14,0,0,0-3.25,2.43,6.84,6.84,0,0,0-.27,2q0,3.42,2.22,4.22a4.41,4.41,0,0,0,1.52.25,6.1,6.1,0,0,0,3.72-1.39l.85,1.28a6.83,6.83,0,0,1-3.43,1.49,11,11,0,0,1-1.77.11,7.81,7.81,0,0,1-2.35-.39,5.9,5.9,0,0,1-2.12-1.16A5.49,5.49,0,0,1,41.26,8.53Z"/><path class="cls-1" d="M53.72,14.07V7.57a4.25,4.25,0,0,1,1.37-3.38A5.83,5.83,0,0,1,59,3h3.19V4.48H59.69a3,3,0,0,0-2.21.78,3.16,3.16,0,0,0-.77,2.31v6.5Z"/><path class="cls-1" d="M62.34,8.53A5.61,5.61,0,0,1,64.15,4.1a6.83,6.83,0,0,1,4.68-1.54A8.37,8.37,0,0,1,71.47,3,5.82,5.82,0,0,1,73.52,4.1a5.61,5.61,0,0,1,1.81,4.43,5.57,5.57,0,0,1-1.81,4.41,6.79,6.79,0,0,1-4.68,1.55,6.81,6.81,0,0,1-4.69-1.55A5.56,5.56,0,0,1,62.34,8.53Zm3.19,0a5.41,5.41,0,0,0,1,3.52,2.83,2.83,0,0,0,2.32,1.06,3,3,0,0,0,3-2.48,7.18,7.18,0,0,0,.27-2.1,5.49,5.49,0,0,0-1-3.54,2.85,2.85,0,0,0-2.32-1.05,3,3,0,0,0-3,2.48A7.23,7.23,0,0,0,65.53,8.53Z"/><path class="cls-1" d="M76.71,14.07V0h3V14.07Z"/><path class="cls-1" d="M81.61,14.07V0h3V14.07Z"/><path class="cls-1" d="M29.82,20.26a1.43,1.43,0,0,1,1.29-.79,1.07,1.07,0,0,1,1.11.75,1.39,1.39,0,0,1,1.29-.75,1.14,1.14,0,0,1,1.25,1.22v2.77h-.48V20.82a.81.81,0,0,0-.9-.92,1,1,0,0,0-1.08,1.19v2.38h-.47V20.86c0-.59-.23-1-.85-1-.79,0-1.13.6-1.13,1.36v2.21h-.48V19.58h.45Z"/><path class="cls-1" d="M37.61,23.59a1.79,1.79,0,0,1-1.78-2,1.87,1.87,0,0,1,1.78-2.09c1.15,0,1.71,1,1.71,2v.14h-3c0,.82.38,1.57,1.31,1.57a1.15,1.15,0,0,0,1.19-1h.46A1.6,1.6,0,0,1,37.61,23.59Zm0-3.72c-.85,0-1.19.66-1.28,1.38h2.52C38.78,20.39,38.31,19.87,37.58,19.87Z"/><path class="cls-1" d="M43.75,23.46h-.43V22.7a1.41,1.41,0,0,1-1.4.88c-1.07,0-1.75-.79-1.75-2.05s.68-2.05,1.74-2.05a1.41,1.41,0,0,1,1.38.84V18.08h.46Zm-3.1-1.95c0,1,.51,1.68,1.32,1.68s1.34-.63,1.34-1.67c0-.84-.39-1.66-1.34-1.66C41.16,19.86,40.65,20.51,40.65,21.51Z"/><path class="cls-1" d="M45.54,18.84h-.48v-.78h.48Zm0,4.62h-.48V19.58h.48Z"/><path class="cls-1" d="M50.23,23.44a1.07,1.07,0,0,1-.38.06c-.46,0-.51-.35-.51-.71a1.62,1.62,0,0,1-1.46.78c-.79,0-1.27-.41-1.27-1.09s.48-1.1,1.44-1.2a2.93,2.93,0,0,0,1.13-.2c.1-.07.14-.17.14-.37,0-.64-.39-.84-1-.84a.92.92,0,0,0-1.06.91h-.45c0-.83.6-1.31,1.56-1.31s1.43.38,1.43,1.12v2.11c0,.23,0,.39.26.39a.56.56,0,0,0,.18,0Zm-2-1.82c-.49.07-1.16.18-1.16.82,0,.45.35.74.89.74A1.22,1.22,0,0,0,49.33,22v-.63C49.18,21.51,48.79,21.55,48.27,21.62Z"/><path class="cls-1" d="M55.93,20.71c0-.59-.42-.85-1-.85s-.91.25-.91.64.38.57,1.11.73,1.44.34,1.44,1.15-.62,1.19-1.54,1.19-1.57-.5-1.59-1.39h.46c0,.65.43,1,1.15,1s1.06-.3,1.06-.76-.66-.66-1.07-.76c-.63-.15-1.5-.25-1.5-1.1,0-.68.54-1.09,1.43-1.09s1.46.41,1.46,1.24Z"/><path class="cls-1" d="M61.1,21.53a1.8,1.8,0,0,1-1.83,2,1.83,1.83,0,0,1-1.85-2.05,1.85,1.85,0,1,1,3.68,0Zm-3.2,0c0,1,.52,1.66,1.38,1.66s1.34-.64,1.34-1.65-.53-1.66-1.36-1.66S57.91,20.52,57.91,21.52Z"/><path class="cls-1" d="M62.68,23.46h-.47V18.08h.47Z"/><path class="cls-1" d="M67.11,23.46h-.44v-.72a1.41,1.41,0,0,1-1.37.83A1.25,1.25,0,0,1,64,22.16V19.58h.48V22c0,.76.23,1.2,1,1.2a1.28,1.28,0,0,0,1.22-1.44V19.58h.47Z"/><path class="cls-1" d="M70,20h-.8v2.46c0,.39,0,.65.49.65l.31,0v.41a2.66,2.66,0,0,1-.42,0c-.34,0-.72-.07-.81-.45a3.48,3.48,0,0,1,0-.85V20H68v-.39h.69V18.39h.47v1.19H70Z"/><path class="cls-1" d="M71.51,18.84H71v-.78h.48Zm0,4.62H71V19.58h.48Z"/><path class="cls-1" d="M76.29,21.53a1.8,1.8,0,0,1-1.83,2,1.83,1.83,0,0,1-1.85-2.05,1.85,1.85,0,1,1,3.68,0Zm-3.2,0c0,1,.52,1.66,1.38,1.66s1.34-.64,1.34-1.65-.53-1.66-1.36-1.66S73.09,20.52,73.09,21.52Z"/><path class="cls-1" d="M77.83,20.31a1.43,1.43,0,0,1,1.38-.84,1.22,1.22,0,0,1,1.34,1.34v2.64h-.48V21c0-.8-.4-1.08-1-1.08s-1.22.47-1.22,1.47v2.1h-.48V19.58h.45Z"/><path class="cls-1" d="M84.15,20.71c0-.59-.42-.85-1-.85s-.91.25-.91.64.38.57,1.11.73,1.44.34,1.44,1.15-.62,1.19-1.54,1.19-1.57-.5-1.59-1.39h.46c0,.65.43,1,1.15,1s1.06-.3,1.06-.76-.66-.66-1.07-.76c-.63-.15-1.5-.25-1.5-1.1,0-.68.54-1.09,1.43-1.09s1.46.41,1.46,1.24Z"/><path class="cls-2" d="M12.75,0A12.75,12.75,0,1,0,25.51,12.75,12.75,12.75,0,0,0,12.75,0ZM19.1,23a4.3,4.3,0,0,1-.95.46,15.72,15.72,0,0,0-2.34-.82L8,20.35a13.94,13.94,0,0,1-5.27-2.75,6.08,6.08,0,0,1-2-4.82,6.31,6.31,0,0,1,.66-2.92,5.77,5.77,0,0,0,1.38,1.79A13.94,13.94,0,0,0,8,14.41l7.8,2.29a9.8,9.8,0,0,1,3.75,1.67,2.94,2.94,0,0,1,1.06,2.28A2.85,2.85,0,0,1,19.1,23ZM17.26,11,9.43,8.7Q4.89,7.4,4.89,4.85A2.47,2.47,0,0,1,6.2,2.76a4.68,4.68,0,0,1,1.57-.59,13.83,13.83,0,0,0,1.66.58L17.26,5q7.57,2.2,7.56,7.57a7,7,0,0,1-.66,3.06Q22.59,12.54,17.26,11Z"/></g></g></svg>