<svg xmlns="http://www.w3.org/2000/svg" xmlns:xlink="http://www.w3.org/1999/xlink" viewBox="0 0 178.79 150.71"><defs><style>.cls-1{fill:#f70f47;}.cls-2{fill:url(#Gradient_bez_nazwy_2);}.cls-3{fill:url(#Gradient_bez_nazwy_2-2);}.cls-4{fill:#ed9169;}.cls-5{fill:url(#Gradient_bez_nazwy_2-3);}.cls-6{fill:#ffb41d;}.cls-7{fill:url(#Gradient_bez_nazwy_2-4);}.cls-8{fill:url(#Gradient_bez_nazwy_2-5);}.cls-9{fill:#ffaf84;}.cls-10,.cls-11,.cls-12{fill:none;stroke:#0037ff;stroke-miterlimit:10;}.cls-11{opacity:0.5;}.cls-12{opacity:0.4;}.cls-13{opacity:0.6;}.cls-14{fill:url(#Gradient_bez_nazwy_14);}.cls-15{fill:url(#Gradient_bez_nazwy_14-2);}.cls-16{fill:#4e11f4;}.cls-17{fill:url(#Gradient_bez_nazwy_14-3);}.cls-18{fill:url(#Gradient_bez_nazwy_14-4);}.cls-19{fill:url(#Gradient_bez_nazwy_14-5);}.cls-20{fill:url(#Gradient_bez_nazwy_3);}.cls-21{fill:url(#Gradient_bez_nazwy_3-2);}</style><linearGradient id="Gradient_bez_nazwy_2" x1="51.21" y1="43.67" x2="29.62" y2="49.62" gradientUnits="userSpaceOnUse"><stop offset="0" stop-color="#f70f47"/><stop offset="1" stop-color="#9e005d"/></linearGradient><linearGradient id="Gradient_bez_nazwy_2-2" x1="51.23" y1="43.7" x2="29.63" y2="49.65" xlink:href="#Gradient_bez_nazwy_2"/><linearGradient id="Gradient_bez_nazwy_2-3" x1="18.1" y1="50.6" x2="21.84" y2="82.78" xlink:href="#Gradient_bez_nazwy_2"/><linearGradient id="Gradient_bez_nazwy_2-4" x1="4.36" y1="52.2" x2="8.11" y2="84.38" xlink:href="#Gradient_bez_nazwy_2"/><linearGradient id="Gradient_bez_nazwy_2-5" x1="6.75" y1="51.92" x2="10.5" y2="84.1" xlink:href="#Gradient_bez_nazwy_2"/><linearGradient id="Gradient_bez_nazwy_14" x1="166.15" y1="65.47" x2="180.25" y2="80.31" gradientUnits="userSpaceOnUse"><stop offset="0" stop-color="#f70f47"/><stop offset="1" stop-color="#ffb41d"/></linearGradient><linearGradient id="Gradient_bez_nazwy_14-2" x1="174.71" y1="57.33" x2="188.81" y2="72.17" xlink:href="#Gradient_bez_nazwy_14"/><linearGradient id="Gradient_bez_nazwy_14-3" x1="-3726.43" y1="-1083.37" x2="-3726.43" y2="-1050.75" gradientTransform="matrix(0.58, 0.81, -0.81, 0.58, 1460.65, 3704.7)" xlink:href="#Gradient_bez_nazwy_14"/><linearGradient id="Gradient_bez_nazwy_14-4" x1="156.88" y1="37.15" x2="156.88" y2="69.78" xlink:href="#Gradient_bez_nazwy_14"/><linearGradient id="Gradient_bez_nazwy_14-5" x1="164.79" y1="37.15" x2="164.79" y2="69.78" xlink:href="#Gradient_bez_nazwy_14"/><linearGradient id="Gradient_bez_nazwy_3" x1="155.91" y1="22.93" x2="183.38" y2="44.09" gradientUnits="userSpaceOnUse"><stop offset="0" stop-color="blue"/><stop offset="1" stop-color="#9e005d"/></linearGradient><linearGradient id="Gradient_bez_nazwy_3-2" x1="154.31" y1="25.01" x2="181.78" y2="46.16" xlink:href="#Gradient_bez_nazwy_3"/></defs><title>seo</title><g id="Слой_2" data-name="Слой 2"><g id="Objects"><path class="cls-1" d="M9.17,145.6a10.31,10.31,0,0,1,.24,1.77c.12.71.8,1,1.19,1.55s1.11,1.68-1.54,1.73c-2.84.06-4.53-.13-4-1.68a7.88,7.88,0,0,0,.54-2.74,1.67,1.67,0,0,1,.32-1.33C6.2,144.59,8.76,144,9.17,145.6Z"/><path class="cls-2" d="M47.48,39.16c.12,1.59,0,2.67-1.85,5.93a45.12,45.12,0,0,1-5.92,8.51c-1.55,1.68-5-2.54-3.48-5.21,1.32-2.25,8.56-8.4,9.36-9.78C46.11,37.71,47.38,37.86,47.48,39.16Z"/><path class="cls-3" d="M38.77,53.95c-1.23.24-4,.36-10.71-1.13a43.72,43.72,0,0,1-7-2c-2.15-.8-2.47-3.15-1.67-4,1.29-1.45,4-2.53,5.18-2.18,6.5,2,11.38,3.9,13,4.11C40.08,49,40.23,53.66,38.77,53.95Z"/><path class="cls-1" d="M21.62,36.34c1.16.55,1.67.55,2.09-.9.33-1.12.88-5.07-.92-5.33s-3.21-.32-3,2.12S20.24,35.69,21.62,36.34Z"/><path class="cls-4" d="M14.82,38.46c0,.18-.42,4-.49,6.86a3,3,0,0,0,2.81,2.81h.06c1.39,0,3-1.26,2.91-2.66a37.53,37.53,0,0,1,0-5.15Z"/><path class="cls-5" d="M7.77,54.2C10.36,62.72,11.52,73.06,11,79H30.54s-.11-18.28-1.42-28.29A7.49,7.49,0,0,0,25,45a14,14,0,0,0-5.2-1.15H16.19a21.81,21.81,0,0,0-3.81.47C7.21,45.27,6.27,49.26,7.77,54.2Z"/><path class="cls-6" d="M11.1,91S9.41,86.86,11,79H30.54A110.93,110.93,0,0,1,31.25,91Z"/><path class="cls-6" d="M15,116.5c1.56-6.35-4.93-7.47-7-2.88-2.9,6.5-2.67,27.29-2.51,31.43,0,.54.31.44.63.33A4.85,4.85,0,0,1,8.15,145a1.78,1.78,0,0,1,1.09.85C9.85,140.22,13.44,122.65,15,116.5Z"/><path class="cls-6" d="M20.79,91.81c.69-7.89-2.44-14-7.34-11.42-2.06,1.1-2.82,3.29-3.09,5.36S8.56,109.29,8,113.17c-1.2,8.75,5.71,6.39,6.46,4C16.38,111,20.41,96.11,20.79,91.81Z"/><path class="cls-6" d="M32.32,116.09c.26-5.92-5.51-5.8-7-1C23.08,122.69,27,139,27.27,148.28c1-1.61,2-2,2.4-2a1.61,1.61,0,0,1,1.12.61C30.64,134.67,32,122.42,32.32,116.09Z"/><path class="cls-6" d="M25.59,116.73c.77,2.42,7.37,5.22,6.68-3.58C32,109.24,31.15,87.68,31,85.6s-.52-5.12-1.56-5.5c-5.21-1.9-10.27,4.31-8.9,12.11C21.45,97.43,24,111.71,25.59,116.73Z"/><path class="cls-7" d="M10.86,74.57C9.32,74.13,8.52,73,5.92,70.31,2.19,66.4,1.55,65.23.12,62c-.93-2.09,4-3.61,6-1.22C7.76,62.83,11,71.75,12,73,12.69,73.79,12.11,74.92,10.86,74.57Z"/><path class="cls-8" d="M0,61.27c.2-1.23,1.07-3.91,4.78-9.65A43.71,43.71,0,0,1,9.11,45.8c1.5-1.74,3.81-1.22,4.37-.16.91,1.72,1,4.65.25,5.61-4.11,5.41-7.61,9.32-8.37,10.8C4.24,64.23-.23,62.73,0,61.27Z"/><path class="cls-9" d="M12.9,35.72c.32,3.23.42,3.94,1.83,5.27a7.62,7.62,0,0,0,5,1.93c1.65,0,2.88-1.75,3.25-3.11a23.5,23.5,0,0,0,.37-8.27,5.22,5.22,0,0,0-4.73-4C16.3,27.56,12.11,27.83,12.9,35.72Z"/><path class="cls-9" d="M10.27,72.53c.75-.82,1.92-2.1,2.5-2.83s2.29.53,2.32,1.15c.06.93-.89,3.49-2.08,3.48s-1.54,1.09-2.56.75S9.05,73.87,10.27,72.53Z"/><path class="cls-1" d="M31,146.89a6.62,6.62,0,0,0,2.77,2c1.48.64,4.61.93,2.87,1.49a10.79,10.79,0,0,1-4.79.06,21.71,21.71,0,0,0-3.23-.19c-1.6,0-1.61-.1-1.39-1.84C27.54,146,30.31,145.54,31,146.89Z"/><path class="cls-1" d="M12.91,35.22c.87.87,1.33,1,2.18-.13.66-.91,2.45-4.3.91-5.12s-2.8-1.34-3.41.93S11.87,34.18,12.91,35.22Z"/><ellipse class="cls-9" cx="12.8" cy="36.19" rx="1.14" ry="2.18" transform="translate(-12.74 7.53) rotate(-22.22)"/><path class="cls-1" d="M13.89,29.35c1.26,1.88,7.34,2.05,9.32,1.36s1.85-4.53-1-4.79c-1.6,0-.44.38-1.74.91C19.83,27.1,12.55,27.35,13.89,29.35Z"/><path class="cls-9" d="M45.32,38.79c.35-1,3.53-8.51,4.78-7.25s.78,4.66.44,5.73a4.21,4.21,0,0,1-3.72,3C45.94,40.25,45,39.72,45.32,38.79Z"/><path class="cls-9" d="M45.16,38.22c0-.48-.31-3.3.22-3.39.8-.13,1.07,1.71,1.25,2.93.1.66-.21,1.62-.76,1.63S45.23,39,45.16,38.22Z"/><polygon class="cls-10" points="51.19 31.18 51.19 135.12 172.32 125.81 172.32 44.41 51.19 31.18"/><polygon class="cls-11" points="55.49 132.48 174.71 123.81 174.71 50.95 55.49 39.65 55.49 132.48"/><polygon class="cls-11" points="110.92 122.76 163.08 119.56 163.08 53.24 110.92 48.69 110.92 122.76"/><path class="cls-10" d="M118.91,65.8l45.33,2.44c.55,0,1-.53,1-1.24V58a1.29,1.29,0,0,0-1-1.37L118.91,53a1.22,1.22,0,0,0-1.22,1.33v10A1.43,1.43,0,0,0,118.91,65.8Z"/><path class="cls-10" d="M118.91,82.66l45.33.88a1.15,1.15,0,0,0,1-1.27v-9a1.24,1.24,0,0,0-1-1.34l-45.33-2.06a1.27,1.27,0,0,0-1.22,1.38v10A1.37,1.37,0,0,0,118.91,82.66Z"/><path class="cls-10" d="M117.3,84.51l45.62.71a1.16,1.16,0,0,0,1-1.28v-9a1.24,1.24,0,0,0-1-1.34l-45.62-1.9a1.28,1.28,0,0,0-1.23,1.38v10A1.37,1.37,0,0,0,117.3,84.51Z"/><path class="cls-10" d="M118.91,99.51l45.33-.68a1.2,1.2,0,0,0,1-1.31v-9a1.19,1.19,0,0,0-1-1.3l-45.33-.5a1.32,1.32,0,0,0-1.22,1.42v10A1.31,1.31,0,0,0,118.91,99.51Z"/><polygon class="cls-12" points="33.13 92.74 96.96 90.24 96.96 8.27 33.13 0.56 33.13 92.74"/><path class="cls-10" d="M118.91,116.37l45.33-2.23a1.25,1.25,0,0,0,1-1.34v-9a1.14,1.14,0,0,0-1-1.27l-45.33,1.05a1.38,1.38,0,0,0-1.22,1.46V115A1.26,1.26,0,0,0,118.91,116.37Z"/><path class="cls-10" d="M68.89,59.23c-7.63,3.05-16.94,1.17-23.5-5.77a24.59,24.59,0,0,1-6.2-11.84l11.09-1.85A11.85,11.85,0,0,0,61,49.36a9.88,9.88,0,0,0,4-.63Z"/><path class="cls-10" d="M76.75,51.65l-.49.48-7-8.36a10.92,10.92,0,0,0,3.3-8c0-6.15-4.68-11.53-10.58-12a10,10,0,0,0-9.86,5.61L42,23.46a20.44,20.44,0,0,1,4.35-5.81C55,9.52,68.68,11,76.75,20.49,84.59,29.7,84.58,43.45,76.75,51.65Z"/><path class="cls-10" d="M50.93,34.42a12.21,12.21,0,0,0,.26,2.49L40.1,38.75A23.07,23.07,0,0,1,42,23.46l10.14,5.91A11.26,11.26,0,0,0,50.93,34.42Z"/><path class="cls-10" d="M76.26,52.14a19.42,19.42,0,0,1-6.46,4.22l-3.88-10.5a9.78,9.78,0,0,0,3.31-2.08Z"/><g class="cls-13"><polygon class="cls-10" points="143.5 76.21 161.75 76.83 161.75 75.51 143.5 74.83 143.5 76.21"/><polygon class="cls-10" points="143.5 78.66 161.75 79.19 161.75 77.86 143.5 77.28 143.5 78.66"/><polygon class="cls-10" points="153.84 81.35 161.75 81.54 161.75 80.22 153.84 80 153.84 81.35"/></g><polygon class="cls-11" points="130.44 102.54 135.9 102.67 135.9 96.16 130.44 95.96 130.44 102.54"/><polygon class="cls-11" points="120.89 87.61 126.5 87.74 126.5 81.15 120.89 80.94 120.89 87.61"/><polygon class="cls-10" points="65.95 85.52 65.95 126.85 66.92 126.78 66.92 85.53 65.95 85.52"/><polygon class="cls-10" points="105.39 111.43 105.39 124.33 106.21 124.28 106.21 111.4 105.39 111.43"/><polygon class="cls-10" points="86.41 97.51 86.41 125.54 87.3 125.48 87.3 97.5 86.41 97.51"/><path class="cls-10" d="M44.08,117.58c11.39-.51,11.39-26.46,22.34-26.44,10.52,0,10.52,25,20.64,24.51,9.74-.44,9.74-24.45,19.13-24.44"/><polygon class="cls-10" points="80.88 62.46 80.88 60.33 76.94 60.25 76.94 62.4 80.88 62.46"/><polygon class="cls-10" points="87.7 62.56 87.7 60.45 83.87 60.38 83.87 62.5 87.7 62.56"/><polygon class="cls-10" points="94.36 62.65 94.36 60.58 90.62 60.51 90.62 62.6 94.36 62.65"/><polygon class="cls-11" points="142.17 92.36 160.7 92.35 160.7 90.56 142.17 90.5 142.17 92.36"/><polygon class="cls-11" points="148.39 95.61 160.7 95.52 160.7 93.74 148.39 93.78 148.39 95.61"/><polygon class="cls-11" points="143.72 95.65 146.91 95.63 146.91 93.78 143.72 93.8 143.72 95.65"/><polygon class="cls-11" points="142.17 60.63 160.7 61.88 160.7 60.09 142.17 58.77 142.17 60.63"/><polygon class="cls-11" points="149.85 64.4 160.7 65.06 160.7 63.27 149.85 62.57 149.85 64.4"/><polygon class="cls-11" points="136.24 63.58 148.39 64.31 148.39 62.48 136.24 61.69 136.24 63.58"/><polygon class="cls-11" points="153.48 108.02 160.7 107.77 160.7 105.98 153.48 106.2 153.48 108.02"/><polygon class="cls-11" points="144.61 108.33 152.11 108.06 152.11 106.25 144.61 106.47 144.61 108.33"/><polygon class="cls-11" points="148.39 111.46 160.7 110.94 160.7 109.16 148.39 109.62 148.39 111.46"/><polygon class="cls-11" points="134.03 112.06 146.91 111.52 146.91 109.68 134.03 110.16 134.03 112.06"/><path class="cls-10" d="M91.79,11.89a3,3,0,0,0-3.67.51,3.52,3.52,0,0,0-.93,1.79l1.67.54a1.59,1.59,0,0,1,1.67-1.35,1.64,1.64,0,0,1,.63.19Z"/><path class="cls-10" d="M92.92,12.82l-.08-.09L91.7,14a2.15,2.15,0,0,1,.54,1.42,1.64,1.64,0,0,1-1.7,1.75A1.88,1.88,0,0,1,89,16l-1.53.71a4.18,4.18,0,0,0,.65,1.06,3.18,3.18,0,0,0,4.8.37A4.07,4.07,0,0,0,92.92,12.82Z"/><path class="cls-10" d="M88.82,15.14a2.09,2.09,0,0,1,0-.4L87.2,14.2a4.24,4.24,0,0,0,.28,2.51L89,16A2.14,2.14,0,0,1,88.82,15.14Z"/><path class="cls-10" d="M92.84,12.73a3.73,3.73,0,0,0-1.05-.84l-.62,1.69a1.88,1.88,0,0,1,.53.42Z"/><path class="cls-10" d="M87.39,51.6A3.57,3.57,0,0,0,90.53,54a3,3,0,0,0,1.83-.54l-.91-1.61a1.6,1.6,0,0,1-2.13-.33,2,2,0,0,1-.36-.61Z"/><path class="cls-10" d="M87.12,50.09s0,.08,0,.13h1.71a1.94,1.94,0,0,1,.5-1.38,1.59,1.59,0,0,1,2.41.1,2.09,2.09,0,0,1,.41,2l1.59.66a4.06,4.06,0,0,0,.18-1.2,3.78,3.78,0,0,0-3.37-3.9A3.43,3.43,0,0,0,87.12,50.09Z"/><path class="cls-10" d="M91.74,51.6a1.66,1.66,0,0,1-.28.24l.91,1.61a3.53,3.53,0,0,0,1.37-1.91l-1.59-.66A1.82,1.82,0,0,1,91.74,51.6Z"/><path class="cls-10" d="M87.12,50.21a4.16,4.16,0,0,0,.28,1.38L89,50.91a2.08,2.08,0,0,1-.14-.69Z"/><path class="cls-10" d="M91.87,30.23a3.54,3.54,0,0,0,2-3.33,4.22,4.22,0,0,0-.53-2.06L92,25.76a2,2,0,0,1-.23,2.34,1.56,1.56,0,0,1-.53.37Z"/><path class="cls-10" d="M90.53,30.47h.11l-.06-1.88A1.72,1.72,0,0,1,89.33,28a2,2,0,0,1,0-2.68,1.53,1.53,0,0,1,1.75-.34l.54-1.74a3.18,3.18,0,0,0-1.09-.27,3.35,3.35,0,0,0-3.42,3.56A3.87,3.87,0,0,0,90.53,30.47Z"/><path class="cls-10" d="M91.74,25.43a2,2,0,0,1,.23.33l1.41-.92a3.78,3.78,0,0,0-1.75-1.65l-.54,1.74A1.81,1.81,0,0,1,91.74,25.43Z"/><path class="cls-10" d="M90.65,30.47a3,3,0,0,0,1.23-.24l-.67-1.76a1.49,1.49,0,0,1-.62.12Z"/><path class="cls-14" d="M161.3,72.13c1.52.5,2.8,0,6.47-.77,5.29-1.16,6.47-1.77,9.44-3.63,1.94-1.21-1.32-5.23-4.28-4.35-2.5.75-10.18,6.34-11.71,6.79C160.22,70.46,160.07,71.73,161.3,72.13Z"/><path class="cls-15" d="M177.77,66.92c.37-1.19.78-4,0-10.77A43.75,43.75,0,0,0,176.5,49c-.57-2.22-2.87-2.79-3.85-2.09-1.58,1.13-2.94,3.73-2.72,4.92,1.28,6.67,2.68,11.73,2.7,13.4C172.67,67.69,177.34,68.34,177.77,66.92Z"/><path class="cls-16" d="M174.55,145.6a10.26,10.26,0,0,0-.24,1.77c-.12.71-.8,1-1.19,1.55s-1.11,1.58,1.54,1.63c2.84.06,4.53,0,4-1.58a7.9,7.9,0,0,1-.54-2.74,1.67,1.67,0,0,0-.32-1.33C177.52,144.59,175,144,174.55,145.6Z"/><path class="cls-9" d="M140.32,58.18c-.92-.48-8.37-3.85-8.43-2.08-.07,2,2.59,3.95,3.57,4.5a4.2,4.2,0,0,0,4.8-.29C140.86,59.68,141.2,58.64,140.32,58.18Z"/><path class="cls-9" d="M140.06,57.65c-.29-.38-2-2.63-2.46-2.34-.68.45.38,2,1.07,3,.38.55,1.25,1,1.66.68S140.52,58.26,140.06,57.65Z"/><path class="cls-16" d="M152.69,146.89a6.62,6.62,0,0,1-2.77,2c-1.48.64-4.61.93-2.87,1.49a10.79,10.79,0,0,0,4.79.06,21.7,21.7,0,0,1,3.23-.19c1.6,0,1.61-.1,1.39-1.84C156.19,146,153.41,145.54,152.69,146.89Z"/><path class="cls-9" d="M170.83,36.16c-.32,3.23-.42,3.94-1.83,5.27s-3.61,1.52-5.15,1.52-2.74-2-3.12-3.36a19.9,19.9,0,0,1-.32-7.61,5.22,5.22,0,0,1,4.73-4C167.42,28,171.61,28.27,170.83,36.16Z"/><path class="cls-17" d="M138.56,60.27c1,1.24,1.82,2,5.43,3a45.17,45.17,0,0,0,10.15,2.1c2.28.15,1.91-5.31-1.06-6.17-2.51-.73-12-.2-13.52-.65C138.55,58.27,137.74,59.26,138.56,60.27Z"/><path class="cls-18" d="M154.37,64c1-.81,2.8-2.93,5.8-9.07a43.83,43.83,0,0,0,2.75-6.7c.72-2.18-.92-3.89-2.12-3.83-1.94.11-4.49,1.56-4.94,2.68-2.51,6.32-4.05,11.33-4.93,12.75C149.65,61.91,153.24,65,154.37,64Z"/><path class="cls-9" d="M169.18,41.85c.09,1.12.17,2.41.21,3.58a3.08,3.08,0,0,1-2.69,3.13h-.18c-1.39,0-3-1.26-2.91-2.66.08-.91.11-1.82.12-2.63a3.63,3.63,0,0,1,2.42-3.41h0A2.28,2.28,0,0,1,169.18,41.85Z"/><path class="cls-19" d="M175.64,55.65c-2.59,8.52-3.44,17.41-2.93,23.36H153.19s.11-18.28,1.42-28.29A7.49,7.49,0,0,1,158.73,45a14,14,0,0,1,5.2-1.15h3.61a13.66,13.66,0,0,1,3.81.47C176.67,45.93,177.15,50.71,175.64,55.65Z"/><path class="cls-1" d="M172.63,91s1.69-4.1.08-11.94H153.19A110.93,110.93,0,0,0,152.48,91Z"/><path class="cls-1" d="M168.77,116.5c-1.56-6.35,4.93-7.47,7-2.88,2.9,6.5,2.67,27.29,2.51,31.43,0,.54.07,1.21-.2,1.4a4.18,4.18,0,0,1-2.06.33c-.73,0-1.44,0-1.51-.92C174,139.81,170.29,122.65,168.77,116.5Z"/><path class="cls-1" d="M162.94,91.81c-.69-7.89,2.44-14,7.34-11.42,2.06,1.1,2.82,3.29,3.09,5.36s1.79,23.54,2.33,27.42c1.2,8.75-5.71,6.39-6.46,4C167.34,111,163.31,96.11,162.94,91.81Z"/><path class="cls-1" d="M156.46,148.28c.25-9.3,4.19-25.58,1.91-33.17-1.45-4.82-7.22-4.95-7,1,.27,6.33,2.18,18.6,1.53,30.83C152.87,148.12,156.41,149.36,156.46,148.28Z"/><path class="cls-1" d="M158.13,116.73c-.77,2.42-7.37,5.22-6.68-3.58.31-3.91,1.12-25.47,1.28-27.55s.52-5.12,1.56-5.5c5.21-1.9,10.27,4.31,8.9,12.11C162.27,97.43,159.72,111.71,158.13,116.73Z"/><ellipse class="cls-9" cx="160.2" cy="35.91" rx="1.14" ry="2.18" transform="translate(-1.68 63.26) rotate(-22.22)"/><ellipse class="cls-9" cx="170.73" cy="35.91" rx="2.18" ry="1.14" transform="translate(72.94 180.39) rotate(-67.79)"/><path class="cls-20" d="M169.83,29.79c-1.26,1.88-7.34,2.05-9.32,1.36s-1.85-4.53,1-4.79c1.6,0,.44.38,1.74.91C163.9,27.54,171.17,27.79,169.83,29.79Z"/><path class="cls-21" d="M163,29.47c-1.87,1.13-2.31,2.12-2.25,4.44s1,6.26,5.3,7.14,5.27-3.35,5.52-6.26.09-5.1-2.06-5.62C166.3,28.39,164.13,28.78,163,29.47Z"/></g></g></svg>