<svg xmlns="http://www.w3.org/2000/svg" xmlns:xlink="http://www.w3.org/1999/xlink" viewBox="0 0 326.69 255.7"><defs><style>.cls-1,.cls-12,.cls-8,.cls-9{fill:none;}.cls-2{isolation:isolate;}.cls-3,.cls-4{opacity:0.15;}.cls-3{fill:url(#Gradient_bez_nazwy_5);}.cls-4{fill:url(#Gradient_bez_nazwy_15);}.cls-5{fill:#ffaf84;}.cls-6{fill:url(#Gradient_bez_nazwy_10);}.cls-7{fill:url(#Gradient_bez_nazwy_10-2);}.cls-8{stroke:#0037ff;stroke-width:0.92px;}.cls-12,.cls-8,.cls-9{stroke-miterlimit:10;}.cls-12,.cls-9{stroke:#d0dbff;}.cls-9{stroke-linecap:round;stroke-width:4px;}.cls-10{fill:url(#linear-gradient);}.cls-11{fill:#023de7;}.cls-12{stroke-width:2px;}.cls-13{fill:url(#Gradient_bez_nazwy_2);}.cls-14{fill:url(#Gradient_bez_nazwy_14);}.cls-15{fill:url(#Gradient_bez_nazwy_14-2);}.cls-16{fill:url(#Gradient_bez_nazwy_2-2);}.cls-17{fill:url(#Gradient_bez_nazwy_16);}.cls-18{fill:url(#Gradient_bez_nazwy_16-2);}.cls-19{fill:url(#Gradient_bez_nazwy_16-3);}.cls-20{fill:url(#Gradient_bez_nazwy_16-4);}.cls-21{fill:url(#Gradient_bez_nazwy_16-5);}.cls-22{fill:url(#Gradient_bez_nazwy_4);}.cls-23{fill:url(#Gradient_bez_nazwy_2-3);}.cls-24{clip-path:url(#clip-path);}.cls-25,.cls-38{opacity:0.3;mix-blend-mode:multiply;}.cls-25{fill:url(#Gradient_bez_nazwy_3);}.cls-26{fill:#541968;}.cls-27{fill:url(#Gradient_bez_nazwy_10-3);}.cls-28{fill:url(#Gradient_bez_nazwy_5-2);}.cls-29{fill:url(#Gradient_bez_nazwy_5-3);}.cls-30{fill:url(#Gradient_bez_nazwy_5-4);}.cls-31{fill:url(#Gradient_bez_nazwy_5-5);}.cls-32{fill:url(#Gradient_bez_nazwy_5-6);}.cls-33{fill:url(#Gradient_bez_nazwy_4-2);}.cls-34{fill:url(#Gradient_bez_nazwy_10-4);}.cls-35{fill:url(#Gradient_bez_nazwy_10-5);}.cls-36{fill:url(#Gradient_bez_nazwy_4-3);}.cls-37{clip-path:url(#clip-path-2);}.cls-38{fill:url(#Gradient_bez_nazwy_3-2);}</style><linearGradient id="Gradient_bez_nazwy_5" x1="103.32" y1="131.36" x2="326.69" y2="131.36" gradientUnits="userSpaceOnUse"><stop offset="0" stop-color="#36078b"/><stop offset="1" stop-color="#16b1ff"/></linearGradient><linearGradient id="Gradient_bez_nazwy_15" y1="127.85" x2="255.7" y2="127.85" gradientUnits="userSpaceOnUse"><stop offset="0" stop-color="#401381"/><stop offset="1" stop-color="#d11137"/></linearGradient><linearGradient id="Gradient_bez_nazwy_10" x1="-3618.15" y1="-1070.84" x2="-3618.15" y2="-1056.48" gradientTransform="matrix(-0.98, 0.41, -0.33, -0.96, -3779.34, 623.23)" gradientUnits="userSpaceOnUse"><stop offset="0" stop-color="#36078b"/><stop offset="1" stop-color="#168d68"/></linearGradient><linearGradient id="Gradient_bez_nazwy_10-2" x1="-3476.49" y1="-1315.93" x2="-3476.49" y2="-1296.21" gradientTransform="translate(-3523.4 838.69) rotate(148.65)" xlink:href="#Gradient_bez_nazwy_10"/><linearGradient id="linear-gradient" x1="-1944.8" y1="340.99" x2="-1942.4" y2="340.99" gradientTransform="matrix(-1, 0.01, 0.01, 1, -1786.2, -292.96)" gradientUnits="userSpaceOnUse"><stop offset="0" stop-color="#fdf53f"/><stop offset="1" stop-color="#d93c65"/></linearGradient><linearGradient id="Gradient_bez_nazwy_2" x1="-69.08" y1="758.84" x2="-52.91" y2="755.31" gradientTransform="matrix(0.92, -0.38, 0.38, 0.92, -6.53, -697.33)" gradientUnits="userSpaceOnUse"><stop offset="0" stop-color="#f70f47"/><stop offset="1" stop-color="#9e005d"/></linearGradient><linearGradient id="Gradient_bez_nazwy_14" x1="-87.1" y1="786.86" x2="-83.18" y2="786.86" gradientTransform="matrix(0.92, -0.38, 0.38, 0.92, -6.53, -697.33)" gradientUnits="userSpaceOnUse"><stop offset="0" stop-color="#f70f47"/><stop offset="1" stop-color="#ffb41d"/></linearGradient><linearGradient id="Gradient_bez_nazwy_14-2" x1="-70.91" y1="797.18" x2="-68.48" y2="797.18" xlink:href="#Gradient_bez_nazwy_14"/><linearGradient id="Gradient_bez_nazwy_2-2" x1="-76.34" y1="775.07" x2="-67.96" y2="743.85" xlink:href="#Gradient_bez_nazwy_2"/><linearGradient id="Gradient_bez_nazwy_16" x1="124.47" y1="617.08" x2="124.47" y2="581.25" gradientTransform="translate(-63.64 -479.27) rotate(-16.26)" gradientUnits="userSpaceOnUse"><stop offset="0" stop-color="#000061"/><stop offset="1" stop-color="#0065ff"/></linearGradient><linearGradient id="Gradient_bez_nazwy_16-2" x1="-58.22" y1="1014.84" x2="-58.22" y2="979.01" gradientTransform="matrix(0.87, -0.49, 0.49, 0.87, -210.39, -836.81)" xlink:href="#Gradient_bez_nazwy_16"/><linearGradient id="Gradient_bez_nazwy_16-3" x1="210.55" y1="273.36" x2="210.55" y2="237.54" gradientTransform="translate(-12.12 -171.92) rotate(-5.7)" xlink:href="#Gradient_bez_nazwy_16"/><linearGradient id="Gradient_bez_nazwy_16-4" x1="-25.07" y1="1158.94" x2="-25.07" y2="1123.5" gradientTransform="translate(-166.24 -1021.34) rotate(-20.63)" xlink:href="#Gradient_bez_nazwy_16"/><linearGradient id="Gradient_bez_nazwy_16-5" x1="-1237.32" y1="-2291.62" x2="-1237.32" y2="-2320.54" gradientTransform="matrix(0.74, 0.68, -0.68, 0.74, -446.48, 2588.08)" xlink:href="#Gradient_bez_nazwy_16"/><linearGradient id="Gradient_bez_nazwy_4" x1="131.37" y1="566.05" x2="123.78" y2="552.64" gradientTransform="translate(-63.64 -479.27) rotate(-16.26)" gradientUnits="userSpaceOnUse"><stop offset="0" stop-color="#2c27ce"/><stop offset="0.65" stop-color="#ef1d68"/><stop offset="1" stop-color="#efba92"/></linearGradient><linearGradient id="Gradient_bez_nazwy_2-3" x1="-3295.46" y1="950.43" x2="-3280.19" y2="964.63" gradientTransform="translate(-2477.93 -2090.68) rotate(-125.48)" xlink:href="#Gradient_bez_nazwy_2"/><clipPath id="clip-path"><path class="cls-1" d="M227.41,32a10.94,10.94,0,0,0-.91-2.14,9.87,9.87,0,0,0-2.36-3.62h0l0,0c-.42-.33-1.46-.93-4.28-1.67A20.59,20.59,0,0,0,217.4,24a3.58,3.58,0,0,0-.94-.13,4.59,4.59,0,0,0-.88.09c-.1-.29-.2-.57-.3-.83a1,1,0,0,0-.1-.19,1.76,1.76,0,0,0,.28-1.06,3.26,3.26,0,0,0,.08-.78,1.55,1.55,0,0,0,.15-.54c.05-.49-.11-.91-.36-1-.22-.94-.53-1.59-1.22-1.68-.17-.66-2.73,0-3,0-.59-.06-.16-.36-.82-.16a1.09,1.09,0,0,0,.17,2.08h.05a1.34,1.34,0,0,0,0,.35c0,.32.11.61.18.89a.39.39,0,0,0-.37,0c-.21.17-.12.63.2,1a1.23,1.23,0,0,0,.7.48,6.11,6.11,0,0,0,.34.66c.31.5,1,1.17,1.64,1,0,0,0,.1,0,.15l.06.23a6.82,6.82,0,0,0-1.46.72c-2.59-1.08-4.64-1.75-5.23-2.13l-.07,0a1.36,1.36,0,0,0-.1-.17,31,31,0,0,0-3.79-3.36.37.37,0,0,0,0-.33,1.5,1.5,0,0,0-.06-.31c-.05-.2-.44-1.52-.66-1.47l-.05,0,.42-1.45-.13,0,.21-.61a4.61,4.61,0,1,0-.85-.28l-.21.61-.13,0-.57,1.49c-.2-.11-.36-.12-.44,0a1.89,1.89,0,0,0-.21,1.66l-.54,1.41a.79.79,0,1,0,1.5.5l.23-.8.31.09a14.43,14.43,0,0,0,1.22,1.75,18.21,18.21,0,0,0,2.16,2.73v0a4.35,4.35,0,0,0,.66.63h0a19.3,19.3,0,0,0,3.16,1.91c.74.38,1.29.63,1.73.81a3.24,3.24,0,0,0,0,.53c.66,4.25,2.8,11.75,2.8,11.75s.14.85.41,2.09c-1.49,1.5-3.5,3.53-4.3,4.27a4,4,0,0,0-.86,1.08,1.28,1.28,0,0,0-.16.4,1.48,1.48,0,0,0,.12,1.17c0,.07,0,.14.08.22,1.06,2.49,3.67,7.1,5.24,12.08a.26.26,0,0,0,.06.1.56.56,0,0,0,0,.36,2.83,2.83,0,0,1-.24,1.44c-.26.63-1.13,1.66-.43,1.31a4.6,4.6,0,0,0,1.48-1.41,9.2,9.2,0,0,1,.93-1c.48-.48.46-.51-.12-1l0,0h0c-1.12-3.22-1.93-8.72-3.43-11.91,1.62-1.11,3.31-2.57,4.74-3.66a6,6,0,0,0,1.5-1.65l.14,0c0,.06,0,.12,0,.19A93.39,93.39,0,0,0,222,54.74a.87.87,0,0,0,.12.2,3.26,3.26,0,0,0,.42.56c1.85,2,6.81,7.58,8.26,9.72a.44.44,0,0,0,.16.15.61.61,0,0,0,.19.53,2.83,2.83,0,0,1,.58,1.34c.13.67,0,2,.35,1.33a4.6,4.6,0,0,0,.47-2,9.18,9.18,0,0,1,.22-1.36c.14-.64.1-.68-.56-.74,0-.11-.13-.23-.19-.35-.8-1.55-5-9.15-7.41-11.08,0-.09,0-.17-.06-.26-.39-1.62-1.94-10.68-2.15-11.54a4.74,4.74,0,0,0-.26-.79,13.67,13.67,0,0,0-1-2.53A28.57,28.57,0,0,1,219.58,28c0-.2,0-.39,0-.59a25.11,25.11,0,0,1,3.07.55.77.77,0,0,0,.34,0,1.61,1.61,0,0,0,.1.23c.48.86,2.61,3.21,3.33,4.15a1.1,1.1,0,0,0,0,.87c.27.84.74.66,1.27.62.38,0,.49-.55.34-.95A3,3,0,0,0,227.41,32Z"/></clipPath><linearGradient id="Gradient_bez_nazwy_3" x1="-1446.24" y1="-2557.41" x2="-1378.05" y2="-2515.52" gradientTransform="matrix(0.24, -0.8, -0.59, -0.24, -925.72, -1682.17)" gradientUnits="userSpaceOnUse"><stop offset="0" stop-color="blue"/><stop offset="1" stop-color="#9e005d"/></linearGradient><linearGradient id="Gradient_bez_nazwy_10-3" x1="-4034.18" y1="-32.75" x2="-4034.18" y2="-3.76" gradientTransform="matrix(-1, -0.09, -0.09, 1, -3892.63, -180.89)" xlink:href="#Gradient_bez_nazwy_10"/><linearGradient id="Gradient_bez_nazwy_5-2" x1="-4034.92" y1="26.93" x2="-4034.92" y2="-14.28" gradientTransform="matrix(-1, -0.09, -0.09, 1, -3892.63, -180.89)" xlink:href="#Gradient_bez_nazwy_5"/><linearGradient id="Gradient_bez_nazwy_5-3" x1="-4029.94" y1="26.93" x2="-4029.94" y2="-14.28" gradientTransform="matrix(-1, -0.09, -0.09, 1, -3892.63, -180.89)" xlink:href="#Gradient_bez_nazwy_5"/><linearGradient id="Gradient_bez_nazwy_5-4" x1="-4031.95" y1="26.93" x2="-4031.95" y2="-14.28" gradientTransform="matrix(-1, -0.09, -0.09, 1, -3892.63, -180.89)" xlink:href="#Gradient_bez_nazwy_5"/><linearGradient id="Gradient_bez_nazwy_5-5" x1="-3959.94" y1="-468.96" x2="-3959.94" y2="-510.17" gradientTransform="matrix(-0.89, -0.46, -0.46, 0.89, -3597.51, -1226.49)" xlink:href="#Gradient_bez_nazwy_5"/><linearGradient id="Gradient_bez_nazwy_5-6" x1="-2772.2" y1="1289.3" x2="-2772.2" y2="1256.03" gradientTransform="matrix(-0.13, 0.99, 0.99, 0.13, -1466.45, 2762.73)" xlink:href="#Gradient_bez_nazwy_5"/><linearGradient id="Gradient_bez_nazwy_4-2" x1="-4012.44" y1="-59.83" x2="-4009.01" y2="-62.2" gradientTransform="matrix(-1, -0.09, -0.09, 1, -3892.63, -180.89)" xlink:href="#Gradient_bez_nazwy_4"/><linearGradient id="Gradient_bez_nazwy_10-4" x1="158.82" y1="-39.19" x2="163.48" y2="-29.49" gradientTransform="translate(-21.79 175.15) rotate(5.26)" xlink:href="#Gradient_bez_nazwy_10"/><linearGradient id="Gradient_bez_nazwy_10-5" x1="152.34" y1="-37.17" x2="159.01" y2="-23.62" gradientTransform="translate(-21.79 175.15) rotate(5.26)" xlink:href="#Gradient_bez_nazwy_10"/><linearGradient id="Gradient_bez_nazwy_4-3" x1="146.59" y1="-43.03" x2="143.41" y2="-35.3" gradientTransform="translate(-21.79 175.15) rotate(5.26)" xlink:href="#Gradient_bez_nazwy_4"/><clipPath id="clip-path-2"><path class="cls-1" d="M145.77,152c.3-.31.52-.63.34-.82s-1.26.69-1.44.84a1.71,1.71,0,0,0-.26.25.43.43,0,0,0-.26.27,35.64,35.64,0,0,0-5.8.62,1.49,1.49,0,0,0-.37.19c-.87,0-4.44-.78-7.69-1.32h0a7.9,7.9,0,0,0-1.76-.47c0-.09,0-.19,0-.27s0-.12,0-.18c.78,0,1.39-.86,1.63-1.5a7,7,0,0,0,.24-.82,1.42,1.42,0,0,0,.68-.69c.27-.53.27-1.07,0-1.21a.45.45,0,0,0-.43.05c0-.33,0-.67,0-1a1.52,1.52,0,0,0,0-.19l0-.23a1.26,1.26,0,0,0,.42-2,3,3,0,0,0,.19-1,2.26,2.26,0,0,0,.92-1.28c.14-.53.37-2.15-.34-2.8s-2,3.17-2.18,3.66a.44.44,0,0,0,.08.45l-.53,1c-.82,0-3.08,0-3.12.68-.76.25-1,1.06-1,2.17-.27.12-.36.63-.19,1.17a1.77,1.77,0,0,0,.29.57,3.75,3.75,0,0,0,.26.86,1.88,1.88,0,0,0,.24.71c-.68.67-1.53,1.49-2.48,2.44a2.92,2.92,0,0,0-.57.58l-.16.17a1.76,1.76,0,0,0-.35.9,6.53,6.53,0,0,0,0,3,32.87,32.87,0,0,1,.38,11.54,15.35,15.35,0,0,0-.64,3.35c-.29,1.38-1.93,11.38-2.35,13.21,0,.07,0,.13,0,.2v0c-1.71,3-2.53,13.21-2.64,15.24a2,2,0,0,0,0,.61,4.06,4.06,0,0,1-.39,1.28c-.31.74.51.86,1.91,1s1-.39.83-.73-.49-.46-.51-.81,0-.41,0-.73h0c.51-2.93,3.09-11.15,4.11-14.09A3.73,3.73,0,0,0,123,186a98.81,98.81,0,0,0,3.78-11c0-.14,0-.28.06-.42l4.74.44h0a7.4,7.4,0,0,0,.79,0c1.39-.06,3-.07,4.59-.13-1.74,3.59-3.2,8.62-4.66,11.61a.2.2,0,0,0,.08.25,1.31,1.31,0,0,0-.22.53c-.14.85-.15,1,.63,1a11.28,11.28,0,0,1,1.59.08,5.31,5.31,0,0,0,2.35.07c.86-.24-.66-.45-1.37-.79a3.69,3.69,0,0,1-1.23-.92v0c2.4-5.22,5.81-9.92,7.47-12.67a2.72,2.72,0,0,0,.65-1.59,1.48,1.48,0,0,0-.29-1.09l0,0-.1-.11a3.19,3.19,0,0,0-2.37-.88c-1.33-.07-5-.4-7.4-.62l0-.52s.71-8.29.59-13.32l.92.09c3.34.3,4.7.06,5.28-.14h0a26.16,26.16,0,0,0,3.73-1.18,16.48,16.48,0,0,0,2.31-.83,2.27,2.27,0,0,0,1.57.12c.53-.16,2-.8,2.22-1.74C148.86,151.59,147.08,151.76,145.77,152Z"/></clipPath><linearGradient id="Gradient_bez_nazwy_3-2" x1="-3562.18" y1="2823.01" x2="-3487.1" y2="2869.13" gradientTransform="matrix(-0.32, -0.9, 0.58, -0.42, -2657.18, -1802.14)" xlink:href="#Gradient_bez_nazwy_3"/></defs><title>slide3-seo</title><g class="cls-2"><g id="Слой_2" data-name="Слой 2"><g id="Background"><circle class="cls-3" cx="215.01" cy="131.36" r="111.69"/><circle class="cls-4" cx="127.85" cy="127.85" r="127.85"/></g><g id="Designed_by_Freepik" data-name="Designed by Freepik"><path class="cls-5" d="M140.65,150.5c.49-.12,4.43-.89,4.26,0s-1.69,1.59-2.21,1.74a2.06,2.06,0,0,1-2.26-.68C140.23,151.15,140.18,150.62,140.65,150.5Z"/><path class="cls-6" d="M141.77,151.64c-.49.6-.73.39-2.59,1.09a19.92,19.92,0,0,1-4.85,1.37c-1.1.13-.88-2.39.55-2.86a40.33,40.33,0,0,1,6.51-.64A.61.61,0,0,1,141.77,151.64Z"/><path class="cls-7" d="M135,154.13c-.55.27-1.87.67-5.23.78a21.49,21.49,0,0,1-3.55-.11,1.36,1.36,0,0,1-1.29-1.72,3.33,3.33,0,0,1,2.19-1.67c3.33.14,5.88.45,6.7.34C135,151.6,135.64,153.81,135,154.13Z"/><path class="cls-8" d="M241.33,89.19a3.92,3.92,0,0,1,5.32-3.66,3,3,0,0,1,5-1.85,4.29,4.29,0,0,1,8.47.95c0,.09,0,.19,0,.28a4.29,4.29,0,1,1,2.38,8.16v0H244.62v-.06A3.92,3.92,0,0,1,241.33,89.19Z"/><path class="cls-8" d="M132.7,62.65a5.83,5.83,0,0,1,7.92-5.45,4.47,4.47,0,0,1,7.45-2.75,6.38,6.38,0,0,1,12.61,1.41c0,.14,0,.28,0,.42a6.38,6.38,0,1,1,3.55,12.15v.07H137.59V68.4A5.84,5.84,0,0,1,132.7,62.65Z"/><path class="cls-8" d="M262.92,38.26a6.88,6.88,0,0,1,9.34-6.44,5.28,5.28,0,0,1,8.8-3.25,7.53,7.53,0,0,1,14.88,1.67c0,.17,0,.33,0,.49a7.53,7.53,0,1,1,4.19,14.33v.08H268.7v-.1A6.89,6.89,0,0,1,262.92,38.26Z"/><path class="cls-8" d="M88.46,91.06a6.88,6.88,0,0,1,9.34-6.44,5.28,5.28,0,0,1,8.8-3.25A7.53,7.53,0,0,1,121.48,83c0,.17,0,.33,0,.49a7.53,7.53,0,1,1,4.19,14.33v.08H94.23v-.1A6.89,6.89,0,0,1,88.46,91.06Z"/><path class="cls-8" d="M65.58,216.55l-.05-4.42a9.79,9.79,0,0,1,12.83-9.44l5.22,1.71a9.79,9.79,0,0,0,10.92-3.5l12-16.29a9.79,9.79,0,0,1,15.3-.58l8.35,9.7a9.79,9.79,0,0,0,16.66-3.16l12-34.36c3.63-10.41,19-7.81,19,3.22V216Z"/><path class="cls-8" d="M293.42,216.46h.15l-.19-.12-44-127.77C244.88,75.81,234.84,62.11,219,62.11l.23.11c-14,0-26.37,14.18-30.53,27.54L160.91,179l-6.59,20.38a6.46,6.46,0,0,1-9,3.79l-3.94-2a6.46,6.46,0,0,0-7.45,1.21L129.37,207a6.46,6.46,0,0,1-9.92-1l-4.14-6.14a6.46,6.46,0,0,0-10.32-.51L96.3,209.84A6.46,6.46,0,0,1,89.71,212L83,210.22a6.46,6.46,0,0,0-5,.73l-9,5.5H292l1.51.19Z"/><path class="cls-8" d="M270.55,154l-6.89,36.62A9.79,9.79,0,0,1,247,193.82l-8.35-9.7a9.79,9.79,0,0,0-15.3.58l-12,16.29a9.79,9.79,0,0,1-10.92,3.5l-5.22-1.71a9.79,9.79,0,0,0-12.83,9.44l.05,3.85,126.39.66-18.72-63.26C285.59,136,270.37,143.89,270.55,154Z"/><polygon class="cls-8" points="238.03 10.27 223.44 62.41 224.19 62.62 238.78 10.48 238.03 10.27 238.03 10.27"/><path class="cls-8" d="M236.16,11.8s11.59,1.93,8.27,4.64,14.13,7.42,14.13,7.42-5.67,4.41-7.36,6.67c-2.73,3.64-13.27-3.57-11-5.83,4-3.87-7.79.36-7.79.36l3.71-13.26Z"/><path class="cls-8" d="M115.12,186.51l-.45-.38,2.64-3a16.82,16.82,0,0,1,12.34-5.78,5.61,5.61,0,0,0,5.4-3.82L176.41,50.18A13.78,13.78,0,0,1,189,41l52.33-2,0,.58-52.33,2a13.18,13.18,0,0,0-12,8.82L135.62,173.75a6.2,6.2,0,0,1-6,4.22,16.22,16.22,0,0,0-11.89,5.58Z"/><path class="cls-9" d="M219.74,37.1a5.32,5.32,0,0,1-4.06-.3"/><path class="cls-10" d="M160.86,35.46l-2.4-.5Z"/><path class="cls-11" d="M142.5,119.77"/><path class="cls-12" d="M95.75,143.59"/><path class="cls-12" d="M69,161.94"/><path class="cls-5" d="M206.27,39.21c-.26.36-2.11,2.65-1.37,2.82,1.44.32,1.77-.24,2.07-.61a1.79,1.79,0,0,0,.2-2C206.93,39.08,206.52,38.87,206.27,39.21Z"/><path class="cls-5" d="M206,39.28c-.18.1-1.38.77-1.28,1s1,0,1.45-.18c.26-.12.54-.63.42-.83S206.31,39.13,206,39.28Z"/><path class="cls-13" d="M226.5,29.86a9.87,9.87,0,0,0-2.36-3.62h0l0,0c-.42-.33-1.46-.93-4.28-1.67a18.62,18.62,0,0,0-3-.59,1.19,1.19,0,0,0-1.42,1.21A2.9,2.9,0,0,0,216.89,27c2.85.52,5.07.75,5.74,1a.77.77,0,0,0,.34,0,1.61,1.61,0,0,0,.1.23c.55,1,3.21,3.86,3.54,4.45.22.39.76.33.81-.22S227.18,31.31,226.5,29.86Z"/><path class="cls-14" d="M213.73,62a2.83,2.83,0,0,1-.24,1.44c-.26.63-1.13,1.66-.43,1.31a4.6,4.6,0,0,0,1.48-1.41,9.2,9.2,0,0,1,.93-1c.48-.48.46-.51-.12-1C214.55,60.72,213.55,61.39,213.73,62Z"/><path class="cls-15" d="M231.2,65.91a2.83,2.83,0,0,1,.58,1.34c.13.67,0,2,.35,1.33a4.61,4.61,0,0,0,.47-2,9.18,9.18,0,0,1,.22-1.36c.14-.67.11-.68-.64-.75C231.18,64.38,230.71,65.48,231.2,65.91Z"/><path class="cls-5" d="M215.28,20.6c.25,1.36.3,1.66-.12,2.37a3.24,3.24,0,0,1-1.93,1.23c-.68.2-1.36-.49-1.68-1a8.48,8.48,0,0,1-1-3.08A2.23,2.23,0,0,1,212,17.94C212.91,17.67,214.66,17.28,215.28,20.6Z"/><path class="cls-5" d="M215.28,23.13c.17.45.36,1,.51,1.44a1.31,1.31,0,0,1-.73,1.6l-.07,0a1.24,1.24,0,0,1-1.51-.74c-.08-.38-.17-.76-.27-1.09a1.55,1.55,0,0,1,.58-1.68h0A1,1,0,0,1,215.28,23.13Z"/><path class="cls-16" d="M219.58,28a28.57,28.57,0,0,0,1.59,9.92l-8,2.33s-2.14-7.5-2.8-11.75a3.2,3.2,0,0,1,1-2.84,6,6,0,0,1,2-1.09l1.48-.43a5.83,5.83,0,0,1,1.62-.26C218.84,23.91,219.6,25.81,219.58,28Z"/><path class="cls-17" d="M222.55,42.82a9.48,9.48,0,0,0-1.39-4.9l-8,2.33a47.33,47.33,0,0,0,1.13,5Z"/><path class="cls-18" d="M222.59,55.5c-1.91-2,.27-3.81,2-2.53,2.44,1.81,6.7,9.58,7.51,11.16.11.21.28.43.22.56a1.79,1.79,0,0,1-.7.56c-.28.14-.54.29-.76,0C229.4,63.08,224.44,57.47,222.59,55.5Z"/><path class="cls-19" d="M218.3,44.26c-.63-3.32.44-6.05,2.63-5.16a2.84,2.84,0,0,1,1.54,2.14c.21.87,1.76,9.92,2.15,11.54.88,3.66-2.15,3-2.57,2A93.39,93.39,0,0,1,218.3,44.26Z"/><path class="cls-20" d="M215.32,61.34c-1.3-3.75-2.18-10.61-4.23-13.29-1.3-1.71-3.62-.89-2.63,1.44,1.06,2.49,3.67,7.1,5.24,12.08C213.86,62.05,215.47,61.78,215.32,61.34Z"/><path class="cls-21" d="M210.69,50.2c-.94.54-4.16-1-1.4-3.58,1.22-1.14,5.33-5.34,6-5.95s1.64-1.46,2.08-1.27c2.18.91,2,4.32-.71,6.37A61.61,61.61,0,0,1,210.69,50.2Z"/><ellipse class="cls-5" cx="210.9" cy="21.77" rx="0.49" ry="0.93" transform="translate(32.23 135.92) rotate(-38.47)"/><ellipse class="cls-5" cx="215.21" cy="20.51" rx="0.93" ry="0.49" transform="translate(172.48 232.43) rotate(-84.05)"/><path class="cls-22" d="M214.11,18.12c-.29.92-2.76,1.72-3.65,1.67a1.09,1.09,0,0,1-.17-2.08c.65-.19.23.1.82.16C211.41,17.9,214.42,17.14,214.11,18.12Z"/><path class="cls-23" d="M210.12,28.61c-.48,2.86-.68,5.09-.92,5.76a.7.7,0,0,0,0,.08l-.14.14a35,35,0,0,0-2.67,5,.53.53,0,0,0,.71.64c.64-.2.56-.46,1.74-1.72A18.2,18.2,0,0,0,211,35.81h0a4.35,4.35,0,0,0,.46-.79h0a19.3,19.3,0,0,0,1.15-3.51,18.71,18.71,0,0,0,.55-3A1.19,1.19,0,0,0,211.94,27,2.9,2.9,0,0,0,210.12,28.61Z"/><path class="cls-5" d="M228,32.95c-.15-.42-.75-1.38-1.12-1.09a1.13,1.13,0,0,0-.49,1.42c.27.84.74.66,1.27.62C228,33.87,228.16,33.34,228,32.95Z"/><g class="cls-24"><path class="cls-25" d="M225.67,10.38c-5.58-1.17-12.25,4.92-12.92,10.46s4.52,6.83,2.11,15.06c-1.9,6.51,2.85,11.76,4.66,16.44,2,5.14-4.25,11.64-2.21,16.15,4.7,10.37-2.62,17.31,7,17.12,9.9-.2,8.76-5.09,19-7.95,8.89-2.49,5.59-21.38,3.22-28.3-2.5-7.33-8-7.17-7.39-15.88.39-5.21.94-8.28-5.91-11.91C229.74,19.72,236.34,12.62,225.67,10.38Z"/></g><path class="cls-26" d="M118.67,200.75a5.09,5.09,0,0,1,0,.88c0,.35.34.51.51.81s.47.82-.83.73-2.21-.22-1.91-1a3.88,3.88,0,0,0,.39-1.31.82.82,0,0,1,.22-.64C117.26,200.13,118.53,200,118.67,200.75Z"/><path class="cls-26" d="M134,186.6a3.25,3.25,0,0,0,1.31,1c.71.34,2.24.56,1.37.79a5.31,5.31,0,0,1-2.35-.07,11.28,11.28,0,0,0-1.59-.08c-.78,0-.78-.17-.63-1C132.33,186.11,133.7,185.92,134,186.6Z"/><path class="cls-5" d="M125.41,147.45c0,1.59,0,1.95.66,2.66a3.73,3.73,0,0,0,2.45,1c.81.07,1.43-.85,1.67-1.5a9.77,9.77,0,0,0,.5-3.7,2.56,2.56,0,0,0-2.13-2.15C127.44,143.62,125.38,143.56,125.41,147.45Z"/><path class="cls-5" d="M126,150.3c-.09.54-.19,1.17-.26,1.74a1.51,1.51,0,0,0,1.17,1.65H127c.68.06,1.54-.48,1.54-1.17,0-.45,0-.9.06-1.29a1.78,1.78,0,0,0-1-1.77h0A1.12,1.12,0,0,0,126,150.3Z"/><path class="cls-27" d="M122.18,156.76a32.87,32.87,0,0,1,.38,11.54l9.54.88s.77-8.94.58-13.89a3.68,3.68,0,0,0-1.75-3,6.87,6.87,0,0,0-2.49-.8l-1.76-.16a6.7,6.7,0,0,0-1.88.06C122.11,152,121.67,154.28,122.18,156.76Z"/><path class="cls-28" d="M122.07,174.14s-.64-2.08.5-5.84l9.54.88s-.26,2.73-.54,5.83Z"/><path class="cls-29" d="M122.8,186.79c1-3-2.07-3.87-3.28-1.72-1.71,3-2.53,13.21-2.64,15.24,0,.27-.09.59,0,.69a2,2,0,0,0,1,.25c.36,0,.7.05.78-.38C119.2,198,121.78,189.73,122.8,186.79Z"/><path class="cls-30" d="M126.76,175c.69-3.83-.56-7-3.07-5.91a3.27,3.27,0,0,0-1.75,2.48c-.23,1-1.93,11.42-2.37,13.29-1,4.22,2.5,3.38,3,2.23C123.75,184.18,126.38,177.08,126.76,175Z"/><path class="cls-31" d="M132.28,186.49c2-4.1,4-12.07,6.73-14.84,1.73-1.76,4.26-.5,2.8,2-1.56,2.69-5.19,7.58-7.69,13C133.87,187.24,132.05,187,132.28,186.49Z"/><path class="cls-32" d="M140.87,174.52c1.22-.22,2.91-4-1.42-4.19-1.92-.09-8.65-.76-9.67-.81s-2.52-.07-2.77.42c-1.25,2.42,1.46,5.27,5.34,5.08A70.81,70.81,0,0,0,140.87,174.52Z"/><ellipse class="cls-5" cx="130.61" cy="147.81" rx="1.07" ry="0.56" transform="translate(-60.8 195.46) rotate(-62.52)"/><ellipse class="cls-5" cx="125.46" cy="147.34" rx="0.56" ry="1.07" transform="translate(-37.54 43.04) rotate(-16.97)"/><path class="cls-33" d="M126.18,144.39c.53,1,3.49,1.33,4.49,1.08a1.25,1.25,0,0,0-.27-2.38c-.78-.07-.23.17-.89.36C129.18,143.55,125.61,143.35,126.18,144.39Z"/><path class="cls-5" d="M144.49,152.2c.49-.12,4.43-.89,4.26,0s-1.69,1.59-2.22,1.74a2.06,2.06,0,0,1-2.26-.68C144.06,152.85,144,152.32,144.49,152.2Z"/><path class="cls-5" d="M144.67,152c.18-.15,1.26-1,1.44-.84s-.41.9-.85,1.31c-.24.22-.72.35-.87.14S144.38,152.22,144.67,152Z"/><path class="cls-34" d="M145.23,153.53c-.49.6-.73.39-2.59,1.09A19.89,19.89,0,0,1,137.8,156c-1.1.13-.88-2.39.55-2.86a40.34,40.34,0,0,1,6.51-.64A.61.61,0,0,1,145.23,153.53Z"/><path class="cls-35" d="M138.9,155.81c-.58.2-1.94.43-5.28.14a15.85,15.85,0,0,1-2.9-.4,2.23,2.23,0,0,1-1.68-2c.12-1,.68-1.65,1.26-1.55,3.29.55,6.9,1.33,7.72,1.32C139.21,153.3,139.58,155.58,138.9,155.81Z"/><path class="cls-36" d="M129.53,144.54a2,2,0,0,1,.9,2.27,3.42,3.42,0,0,1-2.91,3.25c-2.12.24-2.42-1.87-2.42-3.31s.18-2.49,1.26-2.65A4.38,4.38,0,0,1,129.53,144.54Z"/><g class="cls-37"><path class="cls-38" d="M110.06,135.29c7.08-.53,16.55,5,17.88,12.52,1.36,7.63-4.56,10.67-.92,21.39,2.88,8.48-2.11,17-3.74,24-1.79,7.64,1.74,11.74-.17,18.53-4.4,15.62-4.64,20.32-15.88,22.68C95.7,236.83,94.84,221,88.69,207.95c-4.54-9.62-6.73-19.34-2.43-25.71,6.17-9.14,13,1.34,11.35-10.53-1-7.1.39-19.09,10.27-16.35S99.87,136,110.06,135.29Z"/></g></g></g></g></svg>