<svg xmlns="http://www.w3.org/2000/svg" xmlns:xlink="http://www.w3.org/1999/xlink" viewBox="0 0 320.13 253.42"><defs><style>.cls-1{fill:none;}.cls-2{isolation:isolate;}.cls-3{fill:url(#Gradient_bez_nazwy_5);}.cls-4{fill:url(#Gradient_bez_nazwy_5-2);}.cls-5{fill:url(#Gradient_bez_nazwy_5-3);}.cls-6{fill:url(#Gradient_bez_nazwy_5-4);}.cls-7{fill:url(#Gradient_bez_nazwy_14);}.cls-8{fill:url(#Gradient_bez_nazwy_9);}.cls-9{fill:url(#Gradient_bez_nazwy_14-2);}.cls-10{fill:url(#Gradient_bez_nazwy_9-2);}.cls-11{fill:url(#Безымянный_градиент_7);}.cls-12{fill:url(#Gradient_bez_nazwy_9-3);}.cls-13{fill:url(#Безымянный_градиент_7-2);}.cls-14{fill:url(#Gradient_bez_nazwy_9-4);}.cls-15{fill:url(#Gradient_bez_nazwy_5-5);}.cls-16{fill:url(#Gradient_bez_nazwy_5-6);}.cls-17{fill:url(#Gradient_bez_nazwy_5-7);}.cls-18{fill:url(#Gradient_bez_nazwy_5-8);}.cls-19{fill:url(#Gradient_bez_nazwy_8);}.cls-20{fill:url(#Gradient_bez_nazwy_8-2);}.cls-21{fill:url(#Gradient_bez_nazwy_4);}.cls-22{fill:url(#Gradient_bez_nazwy_2);}.cls-23{fill:url(#Gradient_bez_nazwy_2-2);}.cls-24{fill:#ea8f68;}.cls-25{fill:url(#Gradient_bez_nazwy_2-3);}.cls-26{fill:url(#Gradient_bez_nazwy_10);}.cls-27{fill:url(#Gradient_bez_nazwy_5-9);}.cls-28{fill:url(#Gradient_bez_nazwy_5-10);}.cls-29{fill:url(#Gradient_bez_nazwy_5-11);}.cls-30{fill:url(#Gradient_bez_nazwy_5-12);}.cls-31{fill:#ffaf84;}.cls-32{fill:url(#Gradient_bez_nazwy_4-2);}.cls-33{fill:url(#Gradient_bez_nazwy_4-3);}.cls-34{fill:url(#Gradient_bez_nazwy_4-4);}.cls-35{fill:url(#Gradient_bez_nazwy_4-5);}.cls-36{opacity:0.7;}.cls-37{fill:url(#Gradient_bez_nazwy_8-3);}.cls-38{fill:#e3fff0;}.cls-39{fill:url(#Gradient_bez_nazwy_17);}.cls-40{fill:#f5feff;}.cls-40,.cls-47,.cls-60,.cls-62{opacity:0.3;}.cls-41{fill:url(#Gradient_bez_nazwy_2-4);}.cls-42{fill:url(#Gradient_bez_nazwy_2-5);}.cls-43{clip-path:url(#clip-path);}.cls-44,.cls-45,.cls-46{opacity:0.2;}.cls-44,.cls-47,.cls-60,.cls-62{mix-blend-mode:multiply;}.cls-44{fill:url(#Gradient_bez_nazwy_3);}.cls-45{fill:url(#Gradient_bez_nazwy_8-4);}.cls-46{fill:url(#Gradient_bez_nazwy_5-13);}.cls-47{fill:url(#Gradient_bez_nazwy_3-2);}.cls-48{fill:url(#Gradient_bez_nazwy_5-14);}.cls-49{fill:url(#Gradient_bez_nazwy_5-15);}.cls-50{fill:#f70f47;}.cls-51{fill:#ed9169;}.cls-52{fill:url(#Gradient_bez_nazwy_5-16);}.cls-53{fill:url(#Gradient_bez_nazwy_2-6);}.cls-54{fill:url(#Gradient_bez_nazwy_2-7);}.cls-55{fill:url(#Gradient_bez_nazwy_2-8);}.cls-56{fill:url(#Gradient_bez_nazwy_2-9);}.cls-57{fill:url(#Gradient_bez_nazwy_2-10);}.cls-58{fill:url(#Gradient_bez_nazwy_5-17);}.cls-59{fill:url(#Gradient_bez_nazwy_5-18);}.cls-60{fill:url(#Gradient_bez_nazwy_3-3);}.cls-61{clip-path:url(#clip-path-2);}.cls-62{fill:url(#Gradient_bez_nazwy_3-4);}.cls-63{fill:url(#Gradient_bez_nazwy_2-11);}.cls-64{fill:#fff;}.cls-65{fill:#e2e2e2;}.cls-66{fill:#ff3131;}.cls-67{fill:url(#Gradient_bez_nazwy_16);}.cls-68{fill:#ffb6ea;}</style><linearGradient id="Gradient_bez_nazwy_5" x1="-1569.27" y1="-1040.36" x2="-1559.53" y2="-1050.79" gradientTransform="translate(1721.32 1180.86) rotate(-2.44)" gradientUnits="userSpaceOnUse"><stop offset="0" stop-color="#36078b"/><stop offset="1" stop-color="#16b1ff"/></linearGradient><linearGradient id="Gradient_bez_nazwy_5-2" x1="325.59" y1="434.37" x2="335.33" y2="423.94" gradientTransform="translate(-368.18 -56.69) rotate(-23.92)" xlink:href="#Gradient_bez_nazwy_5"/><linearGradient id="Gradient_bez_nazwy_5-3" x1="1723.68" y1="3056.66" x2="1732.49" y2="3047.22" gradientTransform="matrix(0.64, -0.77, 0.77, 0.64, -3352.26, -402.34)" xlink:href="#Gradient_bez_nazwy_5"/><linearGradient id="Gradient_bez_nazwy_5-4" x1="1811.42" y1="5955.56" x2="1819.34" y2="5947.08" gradientTransform="translate(-6112.26 583.95) rotate(-76.55)" xlink:href="#Gradient_bez_nazwy_5"/><linearGradient id="Gradient_bez_nazwy_14" x1="-528.77" y1="-385.78" x2="-493.83" y2="-423.22" gradientTransform="translate(702.19 447.3) rotate(-13.5)" gradientUnits="userSpaceOnUse"><stop offset="0" stop-color="#f70f47"/><stop offset="1" stop-color="#ffb41d"/></linearGradient><linearGradient id="Gradient_bez_nazwy_9" x1="-1716.83" y1="-1064.81" x2="-1687.82" y2="-1110.71" gradientTransform="translate(1844.89 1221.51) rotate(-1.98)" gradientUnits="userSpaceOnUse"><stop offset="0.48" stop-color="#36078b"/><stop offset="1" stop-color="#16b1ff"/></linearGradient><linearGradient id="Gradient_bez_nazwy_14-2" x1="-6210.78" y1="-1554.58" x2="-6184.19" y2="-1583.07" gradientTransform="matrix(-0.99, -0.17, -0.17, 0.99, -6282.76, 688.61)" xlink:href="#Gradient_bez_nazwy_14"/><linearGradient id="Gradient_bez_nazwy_9-2" x1="-1696.38" y1="-1064.08" x2="-1727.71" y2="-1113.62" xlink:href="#Gradient_bez_nazwy_9"/><linearGradient id="Безымянный_градиент_7" x1="-229.39" y1="-96.6" x2="-180.49" y2="-149" gradientTransform="translate(357.84 196.72) rotate(-17.88)" gradientUnits="userSpaceOnUse"><stop offset="0" stop-color="#dd001e"/><stop offset="0.42" stop-color="#ab0639"/><stop offset="1" stop-color="#221783"/></linearGradient><linearGradient id="Gradient_bez_nazwy_9-3" x1="-1714.3" y1="-1064.52" x2="-1671.01" y2="-1143.44" xlink:href="#Gradient_bez_nazwy_9"/><linearGradient id="Безымянный_градиент_7-2" x1="-1991.27" y1="-1234.89" x2="-1955.99" y2="-1272.7" gradientTransform="translate(2087.88 1458.78) rotate(0.98)" xlink:href="#Безымянный_градиент_7"/><linearGradient id="Gradient_bez_nazwy_9-4" x1="-1709.83" y1="-1066.19" x2="-1662.49" y2="-1109.42" xlink:href="#Gradient_bez_nazwy_9"/><linearGradient id="Gradient_bez_nazwy_5-5" x1="-1684.95" y1="-1116.71" x2="-1679.66" y2="-1126.36" gradientTransform="translate(1844.89 1221.51) rotate(-1.98)" xlink:href="#Gradient_bez_nazwy_5"/><linearGradient id="Gradient_bez_nazwy_5-6" x1="-1683.01" y1="-1126.58" x2="-1679.66" y2="-1135.33" gradientTransform="translate(1844.89 1221.51) rotate(-1.98)" xlink:href="#Gradient_bez_nazwy_5"/><linearGradient id="Gradient_bez_nazwy_5-7" x1="-1700.31" y1="-1122.13" x2="-1700.29" y2="-1130.41" gradientTransform="translate(1844.89 1221.51) rotate(-1.98)" xlink:href="#Gradient_bez_nazwy_5"/><linearGradient id="Gradient_bez_nazwy_5-8" x1="-1694.7" y1="-1131.91" x2="-1693.29" y2="-1138.21" gradientTransform="translate(1844.89 1221.51) rotate(-1.98)" xlink:href="#Gradient_bez_nazwy_5"/><linearGradient id="Gradient_bez_nazwy_8" x1="-1702.25" y1="-1073.98" x2="-1702.25" y2="-1059.1" gradientTransform="translate(1844.89 1221.51) rotate(-1.98)" gradientUnits="userSpaceOnUse"><stop offset="0" stop-color="#2c27ce"/><stop offset="1" stop-color="#ef1d68"/></linearGradient><linearGradient id="Gradient_bez_nazwy_8-2" x1="-1702.25" y1="-1070.18" x2="-1702.25" y2="-1076.66" xlink:href="#Gradient_bez_nazwy_8"/><linearGradient id="Gradient_bez_nazwy_4" x1="561.13" y1="95.28" x2="517.06" y2="63.5" gradientTransform="matrix(-1, 0, 0, 1, 759.46, 0)" gradientUnits="userSpaceOnUse"><stop offset="0" stop-color="#2c27ce"/><stop offset="0.65" stop-color="#ef1d68"/><stop offset="1" stop-color="#efba92"/></linearGradient><linearGradient id="Gradient_bez_nazwy_2" x1="2159.09" y1="5884.82" x2="2145.48" y2="5918.76" gradientTransform="matrix(-0.61, -0.79, -0.79, 0.61, 6193.31, -1820.58)" gradientUnits="userSpaceOnUse"><stop offset="0" stop-color="#f70f47"/><stop offset="1" stop-color="#9e005d"/></linearGradient><linearGradient id="Gradient_bez_nazwy_2-2" x1="2196.27" y1="3402.32" x2="2181.02" y2="3440.32" gradientTransform="matrix(-0.85, -0.52, -0.52, 0.85, 3850.71, -1699.97)" xlink:href="#Gradient_bez_nazwy_2"/><linearGradient id="Gradient_bez_nazwy_2-3" x1="536.68" y1="91.51" x2="541.72" y2="134.74" gradientTransform="matrix(-1, 0, 0, 1, 759.46, 0)" xlink:href="#Gradient_bez_nazwy_2"/><linearGradient id="Gradient_bez_nazwy_10" x1="545.63" y1="121.55" x2="525.69" y2="179.58" gradientTransform="matrix(-1, 0, 0, 1, 759.46, 0)" gradientUnits="userSpaceOnUse"><stop offset="0" stop-color="#36078b"/><stop offset="1" stop-color="#168d68"/></linearGradient><linearGradient id="Gradient_bez_nazwy_5-9" x1="-214.72" y1="-616.5" x2="-235.1" y2="-557.18" gradientTransform="matrix(-0.99, 0.15, 0.15, 0.99, 84.17, 768.71)" xlink:href="#Gradient_bez_nazwy_5"/><linearGradient id="Gradient_bez_nazwy_5-10" x1="542.42" y1="120.45" x2="522.49" y2="178.48" gradientTransform="matrix(-1, 0, 0, 1, 759.46, 0)" xlink:href="#Gradient_bez_nazwy_5"/><linearGradient id="Gradient_bez_nazwy_5-11" x1="570.82" y1="130.2" x2="550.88" y2="188.24" gradientTransform="matrix(-1, 0, 0, 1, 759.46, 0)" xlink:href="#Gradient_bez_nazwy_5"/><linearGradient id="Gradient_bez_nazwy_5-12" x1="557.64" y1="125.67" x2="537.7" y2="183.71" gradientTransform="matrix(-1, 0, 0, 1, 759.46, 0)" xlink:href="#Gradient_bez_nazwy_5"/><linearGradient id="Gradient_bez_nazwy_4-2" x1="551.81" y1="239.22" x2="554.06" y2="211.45" xlink:href="#Gradient_bez_nazwy_4"/><linearGradient id="Gradient_bez_nazwy_4-3" x1="519.95" y1="244.38" x2="522.79" y2="209.37" xlink:href="#Gradient_bez_nazwy_4"/><linearGradient id="Gradient_bez_nazwy_4-4" x1="555.84" y1="89.22" x2="530.83" y2="60.69" xlink:href="#Gradient_bez_nazwy_4"/><linearGradient id="Gradient_bez_nazwy_4-5" x1="560.98" y1="84.71" x2="535.98" y2="56.18" xlink:href="#Gradient_bez_nazwy_4"/><linearGradient id="Gradient_bez_nazwy_8-3" x1="-5312.97" y1="-2050.33" x2="-5312.97" y2="-2187.61" gradientTransform="matrix(-0.58, 0.81, 0.81, 0.58, -1153.65, 5674.97)" xlink:href="#Gradient_bez_nazwy_8"/><linearGradient id="Gradient_bez_nazwy_17" x1="-5313.38" y1="-2036.59" x2="-5313.38" y2="-2149.56" gradientTransform="matrix(-1, 0, 0, 1, -5089.38, 2239.99)" gradientUnits="userSpaceOnUse"><stop offset="0" stop-color="#2ca6ef"/><stop offset="1" stop-color="#b1ffff"/></linearGradient><linearGradient id="Gradient_bez_nazwy_2-4" x1="528.65" y1="-1049.78" x2="512.28" y2="-1008.95" gradientTransform="matrix(-0.71, 0.18, 0.26, 0.97, 879.98, 998.01)" xlink:href="#Gradient_bez_nazwy_2"/><linearGradient id="Gradient_bez_nazwy_2-5" x1="-3064.57" y1="-2047.23" x2="-3076.5" y2="-2017.49" gradientTransform="matrix(-0.81, 0.58, 0.58, 0.81, -1087.9, 3541.84)" xlink:href="#Gradient_bez_nazwy_2"/><clipPath id="clip-path"><path class="cls-1" d="M168.4,119.47l5.86,4.21L186,132.1a1.23,1.23,0,0,0,.46,1.35l10.27,7.37a1.23,1.23,0,0,0,1.42,0l8.79,6.31c-.38,9.13-.89,22.22-1.14,25.49a18.29,18.29,0,0,0,0,2.36,10.18,10.18,0,0,0,0,1.33c.33,7.85,2,23,1.85,38.16a1.57,1.57,0,0,0-.29.39,8,8,0,0,1-3.33,2.53c-1.78.8-5.56,1.17-3.46,1.87a12.55,12.55,0,0,0,5.78.08,25.09,25.09,0,0,1,3.9-.24c1.93,0,1.94-.13,1.68-2.3,0-.07,0-.14,0-.21h0c.29-11.42,4.85-31.22,2.43-40.94,1.26-4.76,2.88-13.29,4.14-20.31l3.64,2.61c1.39,5.82,3.11,12.32,4.41,16.92a9,9,0,0,0,.7,3c3,7.27,9.06,28.87,10.93,35.93-.26.83-.66,2.89-2.24,3.59-1.78.8-5.56,1.17-3.46,1.87a12.55,12.55,0,0,0,5.78.08c1.24-.2,1.44-1.55,2.9-1.56,1.92,0,1.94-.13,1.68-2.3a3.46,3.46,0,0,0-.57-1.57c.09-.08.14-.22.1-.5-.61-5.08-2.6-32.07-7.17-40,0-.23,0-.46-.08-.71-.14-1.05-.33-3.13-.56-5.77l12.54,9a3,3,0,0,0,4.12-.68l29.61-41.28a3,3,0,0,0-.68-4.12l-32.46-23.28a2.85,2.85,0,0,0,.85-1.7,1.55,1.55,0,0,0,0-1.15c-.67-1.66-2.56-5.15-8.52-12.14a68.23,68.23,0,0,0-5.89-6.27,4.34,4.34,0,0,0-.81-.88,14.86,14.86,0,0,0,6.36,1.06c-3.43-1.86-5-5,.07-17.49,4.89-12-4.22-14.92-9.35-14.49-3.43.28-5.29,2.64-5.28,4.73a8.53,8.53,0,0,0-6,1.07,8.42,8.42,0,0,0-3.7,3c-1.06,1.9-.86,6-.39,4.9a32.81,32.81,0,0,0,.75,9.64c.54,2,2.3,4.48,4.68,4.48a9.82,9.82,0,0,0,1.55-.14c0,.49,0,1,0,1.56l-1.45.12a13.41,13.41,0,0,0-2.19.31,7.44,7.44,0,0,0-2,.87l-9-6.45-5.86-4.2a3,3,0,0,0-4.13.67l-4.17,5.81a.71.71,0,0,0-.59-.2,5,5,0,0,0-3,2,3,3,0,0,0-.19.65,1.82,1.82,0,0,0-.44,1c0,.59.24,1,.76,1.52l-21.94,30.58A3,3,0,0,0,168.4,119.47Zm70.69,93.29a1.77,1.77,0,0,0-.37.19A1,1,0,0,1,239.09,212.76ZM231.6,83.4a13,13,0,0,0-3.76-.78c-.05-1.42-.13-2.86-.2-4.11a8.76,8.76,0,0,0,1.12-1.23A7.25,7.25,0,0,0,231.6,83.4Zm6.11,16-5.05-3.62.45-1Z"/></clipPath><linearGradient id="Gradient_bez_nazwy_3" x1="1978.44" y1="2502.08" x2="2105.61" y2="2580.21" gradientTransform="matrix(-0.5, -0.86, 0.57, -0.49, -179.52, 3162.56)" gradientUnits="userSpaceOnUse"><stop offset="0" stop-color="blue"/><stop offset="1" stop-color="#9e005d"/></linearGradient><linearGradient id="Gradient_bez_nazwy_8-4" x1="-577.39" y1="1460.28" x2="-370.09" y2="1460.28" gradientTransform="matrix(1.1, -0.76, 0.68, 1.02, -306.77, -1725.14)" xlink:href="#Gradient_bez_nazwy_8"/><linearGradient id="Gradient_bez_nazwy_5-13" x1="5.45" y1="187.79" x2="312.4" y2="187.79" gradientTransform="translate(-27.06 -25.47) rotate(-12.72)" xlink:href="#Gradient_bez_nazwy_5"/><linearGradient id="Gradient_bez_nazwy_3-2" x1="62.8" y1="220.37" x2="70.76" y2="220.37" gradientTransform="matrix(1, 0, 0, 1, 0, 0)" xlink:href="#Gradient_bez_nazwy_3"/><linearGradient id="Gradient_bez_nazwy_5-14" x1="123.35" y1="84.4" x2="95.1" y2="92.19" gradientTransform="matrix(1, 0, 0, 1, 0, 0)" xlink:href="#Gradient_bez_nazwy_5"/><linearGradient id="Gradient_bez_nazwy_5-15" x1="123.36" y1="84.45" x2="95.11" y2="92.24" gradientTransform="matrix(1, 0, 0, 1, 0, 0)" xlink:href="#Gradient_bez_nazwy_5"/><linearGradient id="Gradient_bez_nazwy_5-16" x1="80.03" y1="93.48" x2="84.93" y2="135.57" gradientTransform="matrix(1, 0, 0, 1, 0, 0)" xlink:href="#Gradient_bez_nazwy_5"/><linearGradient id="Gradient_bez_nazwy_2-6" x1="69.86" y1="138.45" x2="97.23" y2="138.45" gradientTransform="matrix(1, 0, 0, 1, 0, 0)" xlink:href="#Gradient_bez_nazwy_2"/><linearGradient id="Gradient_bez_nazwy_2-7" x1="63.39" y1="195.17" x2="76.22" y2="195.17" gradientTransform="matrix(1, 0, 0, 1, 0, 0)" xlink:href="#Gradient_bez_nazwy_2"/><linearGradient id="Gradient_bez_nazwy_2-8" x1="66.67" y1="157.54" x2="83.67" y2="157.54" gradientTransform="matrix(1, 0, 0, 1, 0, 0)" xlink:href="#Gradient_bez_nazwy_2"/><linearGradient id="Gradient_bez_nazwy_2-9" x1="88.6" y1="197.24" x2="98.64" y2="197.24" gradientTransform="matrix(1, 0, 0, 1, 0, 0)" xlink:href="#Gradient_bez_nazwy_2"/><linearGradient id="Gradient_bez_nazwy_2-10" x1="82.92" y1="157.38" x2="98.63" y2="157.38" gradientTransform="matrix(1, 0, 0, 1, 0, 0)" xlink:href="#Gradient_bez_nazwy_2"/><linearGradient id="Gradient_bez_nazwy_5-17" x1="62.06" y1="95.57" x2="66.96" y2="137.66" gradientTransform="matrix(1, 0, 0, 1, 0, 0)" xlink:href="#Gradient_bez_nazwy_5"/><linearGradient id="Gradient_bez_nazwy_5-18" x1="65.19" y1="95.21" x2="70.09" y2="137.3" gradientTransform="matrix(1, 0, 0, 1, 0, 0)" xlink:href="#Gradient_bez_nazwy_5"/><linearGradient id="Gradient_bez_nazwy_3-3" x1="91.86" y1="221.46" x2="104.99" y2="221.46" gradientTransform="matrix(1, 0, 0, 1, 0, 0)" xlink:href="#Gradient_bez_nazwy_3"/><clipPath id="clip-path-2"><path class="cls-1" d="M121.89,68.54c-1.11-1.12-3.39,3.08-4.88,6.28-.25-1.12-.63-2.08-1.31-2s-.34,3.81-.28,4.43a4.56,4.56,0,0,0,.17,1s0,.08,0,.12c-2.08,2.48-10.1,9.4-11.78,12.17-3-.87-8.45-2.88-15.23-4.95a2.86,2.86,0,0,0-1-.05,20.93,20.93,0,0,0-5-.89c0-.44,0-.86,0-1.26,1.95-.27,3.38-2.35,3.84-4A25.49,25.49,0,0,0,87,74.48a4.87,4.87,0,0,0,.32-.83c.35-1.21.9-4.91-.23-6.38,2.14-1.27,1.79-5.74-1.71-6.07-2.09,0-.58.5-2.27,1.18-.85.34-10.15.67-8.67,3.21-.71.11-1.28.7-1.66,2.11-.53,2-.75,3.21-.46,4.22A.82.82,0,0,0,72,72c-.77.31-.9,1.75-.31,3.21a3.38,3.38,0,0,0,1.91,2.1,5.46,5.46,0,0,0,1.81,3.43c-.1,1.22-.21,2.67-.27,4.08-.89.12-1.79.28-2.62.44a11.84,11.84,0,0,0-2.15.61,4.06,4.06,0,0,0-1.56.81,6.58,6.58,0,0,0-2.38,2.71c-1,1.2-2.18,2.88-3.83,5.44-4.85,7.51-6,11-6.25,12.63a1,1,0,0,0,0,.37,1.63,1.63,0,0,0,.14.62c1.86,4.19,2.7,5.72,7.59,10.84A45.26,45.26,0,0,0,68.81,124,1.48,1.48,0,0,0,70,125.52a1.42,1.42,0,0,0,.88,0,50.62,50.62,0,0,1-.14,5.09,40.9,40.9,0,0,0-.9,9c-.43,3.74-2.33,30.68-3,35.64,0,.2,0,.38-.06.57h0C63,184.42,63.3,211.61,63.5,217c0,.28.08.43.18.5a3.72,3.72,0,0,0-.06,1,10.31,10.31,0,0,1-.71,3.58c-.63,2,1.57,2.27,5.29,2.2,3.48-.07,2.59-1.42,2-2.26s-1.4-1.1-1.56-2c-.11-.67,0-1.07-.23-2h0c.8-7.39,5.49-30.37,7.47-38.42a10,10,0,0,0,.28-2.11c2.46-8.37,6.25-22.65,7.17-28.79,1.21,6.88,4,22.41,6,29.65-2.64,10.15,2.33,30.88,2.65,42.82h0c0,.07,0,.14,0,.22-.28,2.27-.26,2.4,1.82,2.41a28.4,28.4,0,0,1,4.23.25,14.12,14.12,0,0,0,6.27-.08c2.27-.73-1.82-1.12-3.75-2a8.66,8.66,0,0,1-3.62-2.64,1.67,1.67,0,0,0-.32-.41c-.16-15.88,1.65-31.68,2-39.89a10.32,10.32,0,0,0,0-1.39,18.39,18.39,0,0,0,0-2.47c-.29-3.71-.93-19.56-1.34-29h0a145.12,145.12,0,0,0-.93-15.62s-.13-20.46-1.5-33.89c7.26,1.5,10.58,1.41,12.13,1.13a1.49,1.49,0,0,0,1.37-.48C110.5,95,112.72,92,116,86.27c1.88-3.26,2.39-4.85,2.46-6.35a5.84,5.84,0,0,0,4-3.88C122.91,74.63,123.7,70.36,121.89,68.54ZM64.39,106.9c.8-1.09,2-2.53,3.36-4.26A112.54,112.54,0,0,1,70.61,120C68.77,115.91,66,109,64.39,106.9Z"/></clipPath><linearGradient id="Gradient_bez_nazwy_3-4" x1="-4266.54" y1="13707.91" x2="-4123.66" y2="13795.7" gradientTransform="matrix(-0.4, -0.87, 0.54, -0.47, -9014.58, 3010.02)" xlink:href="#Gradient_bez_nazwy_3"/><linearGradient id="Gradient_bez_nazwy_2-11" x1="144.09" y1="79.05" x2="84.53" y2="-25.36" gradientTransform="translate(2.54 -7.82) rotate(3.65)" xlink:href="#Gradient_bez_nazwy_2"/><linearGradient id="Gradient_bez_nazwy_16" x1="226.94" y1="43.54" x2="182.17" y2="38.64" gradientTransform="translate(29.34 -56.29) rotate(17.85)" gradientUnits="userSpaceOnUse"><stop offset="0" stop-color="#000061"/><stop offset="1" stop-color="#0065ff"/></linearGradient></defs><title>slide3</title><g class="cls-2"><g id="Слой_2" data-name="Слой 2"><g id="Designed_by_Freepik" data-name="Designed by Freepik"><path class="cls-3" d="M108.41,207.92c-2.8-1.65.52-7.1,6.88-7.84a12.77,12.77,0,0,1,.24,5.3C115.07,207.53,112.33,210.23,108.41,207.92Z"/><path class="cls-4" d="M104.75,208.47c-3.21-.51-2.11-6.8,3.53-9.81a12.77,12.77,0,0,1,2.16,4.85C110.8,205.67,109.24,209.19,104.75,208.47Z"/><path class="cls-5" d="M102.54,209c-2.8.89-4.47-4.65-1.13-9.37a11.57,11.57,0,0,1,3.72,3C106.3,204.25,106.46,207.73,102.54,209Z"/><path class="cls-6" d="M101.28,208.3c-1.91,1.82-5.44-2-4.6-7.13a10.39,10.39,0,0,1,4.2,1C102.46,203,104,205.75,101.28,208.3Z"/><path class="cls-7" d="M95.12,195.35c-11-3.88-3-25.37,18.82-32.34,0,0,4.65,9.26,4.49,18.5C118.29,189.39,110.51,200.78,95.12,195.35Z"/><path class="cls-8" d="M111.83,165.77a20.83,20.83,0,0,0-4.88,5.49,26.23,26.23,0,0,0-1.78,3.18c-.25.55-.52,1.09-.75,1.66l-.35.84-.31.85a45.27,45.27,0,0,0-1.89,7c-.09.6-.25,1.19-.32,1.79l-.27,1.81c-.12,1.22-.28,2.42-.34,3.65a100,100,0,0,0,.08,14.78c.18,2.48.4,5,.67,7.45.13,1.24.23,2.5.39,3.74l.24,1.87.19,1.89-.18,0A129,129,0,0,1,99.62,207c-.18-1.25-.25-2.5-.38-3.75s-.15-2.51-.23-3.77a74.44,74.44,0,0,1,.13-7.55c.07-1.26.25-2.51.39-3.76s.39-2.49.67-3.72a41,41,0,0,1,2.25-7.21,29.62,29.62,0,0,1,3.74-6.55,18.69,18.69,0,0,1,5.56-5.07Z"/><path class="cls-9" d="M101.61,184.72c8.14-3.52,1-19.43-16-23.57,0,0-3,7.28-2.44,14.28C83.7,181.41,90.21,189.65,101.61,184.72Z"/><path class="cls-10" d="M87.45,163a58.05,58.05,0,0,1,8.48,13.1l.86,1.76.77,1.8.77,1.8c.25.6.47,1.22.7,1.83s.45,1.23.67,1.84.44,1.23.63,1.86l1.16,3.75c.34,1.26.63,2.54.94,3.8.15.63.32,1.27.46,1.9l.36,1.93.68,3.86c.17,1.29.32,2.59.46,3.89l.22,1.94c.06.65.09,1.3.12,2l.18,3.9c0,.65,0,1.3,0,2l0,2-.05,1.95-.09,1.94h-.14l-.17-3.87-.09-1.94c0-.65-.06-1.29-.13-1.93l-.38-3.86c-.07-.64-.12-1.29-.2-1.93l-.29-1.92-.58-3.83-.76-3.8-.38-1.9-.47-1.88c-.32-1.25-.62-2.51-1-3.75a108.08,108.08,0,0,0-5.22-14.57,73.28,73.28,0,0,0-7.59-13.46Z"/><path class="cls-11" d="M105.82,175.15c-15.75-4.24-7-35.08,22.81-47.14,0,0,7.48,12.43,8.24,25.34C137.52,164.35,127.88,181.08,105.82,175.15Z"/><path class="cls-12" d="M126,132a83.92,83.92,0,0,0-5.69,10.23c-1.71,3.49-3.23,7.07-4.61,10.68s-2.62,7.29-3.64,11-2,7.46-2.77,11.25-1.44,7.6-1.92,11.44c-.15,1-.25,1.92-.36,2.88s-.23,1.92-.31,2.89l-.24,2.9c-.1,1-.16,1.93-.22,2.9l-.18,2.91c0,1-.05,1.94-.1,2.92-.12,1.95-.09,3.89-.13,5.85,0,1,0,2,0,2.93v2.94c0,1,.07,2,.09,2.94l0,3-.21,0a156.1,156.1,0,0,1-1.18-23.51,136,136,0,0,1,2.62-23.4,122.57,122.57,0,0,1,7-22.49,105.27,105.27,0,0,1,5.18-10.58c1-1.71,2-3.4,3.06-5a54.57,54.57,0,0,1,3.46-4.77Z"/><path class="cls-13" d="M115.17,189c-9.76-6.57,3.42-25.58,26.57-26.87,0,0,2.21,10.24-.28,19.22C139.33,189,128.85,198.22,115.17,189Z"/><path class="cls-14" d="M139,164.29a48.5,48.5,0,0,0-6.37,5.53l-1.47,1.49-1.39,1.57c-.45.53-1,1-1.38,1.57l-1.32,1.63c-.9,1.06-1.68,2.23-2.51,3.34-.4.57-.85,1.1-1.21,1.7l-1.13,1.76c-.37.59-.76,1.16-1.14,1.75s-.7,1.21-1,1.81l-1,1.81c-.34.61-.71,1.2-1,1.83l-1.88,3.74c-.15.31-.32.62-.46.94l-.4,1c-.27.64-.54,1.29-.82,1.93l-.84,1.92c-.14.32-.29.64-.41,1l-.35,1c-.47,1.32-1,2.63-1.45,3.94s-.88,2.66-1.32,4l-1.28,4c-.8,2.71-1.41,5.46-2.25,8.19l-.15,0c.54-2.78,1-5.58,1.61-8.35l1.06-4.12c.36-1.37.67-2.76,1.16-4.09l1.34-4,.33-1c.12-.33.27-.66.4-1l.81-2,.81-2,.4-1c.14-.32.31-.64.46-1l1.88-3.82a79.29,79.29,0,0,1,9.52-14.07c.94-1.07,1.85-2.15,2.87-3.14l1.5-1.51,1.58-1.43a42.16,42.16,0,0,1,6.84-5Z"/><path class="cls-15" d="M117,160.3a14.37,14.37,0,0,1,3.58-2.08c.62-.29,1.27-.48,1.91-.71s1.31-.36,2-.53,1.34-.26,2-.33a19.57,19.57,0,0,1,2.06-.13,12,12,0,0,1,4.13.62v.14a41.1,41.1,0,0,0-7.9,1.1,77.22,77.22,0,0,0-7.73,2Z"/><path class="cls-16" d="M119.18,151.48a10.65,10.65,0,0,1,2.66-2.27,16,16,0,0,1,3.06-1.51,15.23,15.23,0,0,1,3.34-.8,9.12,9.12,0,0,1,3.52.2l0,.14c-1.09.2-2.17.46-3.24.76s-2.11.67-3.16,1.05-2.08.78-3.1,1.21-2,.88-3,1.35Z"/><path class="cls-17" d="M108.48,158.71a12.16,12.16,0,0,1-1.14-2c-.29-.65-.54-1.27-.78-1.88s-.44-1.2-.7-1.76a9.21,9.21,0,0,0-1-1.84l0-.12a4.11,4.11,0,0,1,1.81,1.3,7.09,7.09,0,0,1,1.1,1.95,12.14,12.14,0,0,1,.59,2.15,12.86,12.86,0,0,1,.23,2.21Z"/><path class="cls-18" d="M113.28,149a8.34,8.34,0,0,1-.49-1.71c-.1-.54-.19-1.06-.24-1.56s-.1-1-.18-1.47a6.29,6.29,0,0,0-.42-1.56l.05-.08a2.94,2.94,0,0,1,1.09,1.32,5.63,5.63,0,0,1,.44,1.66,11.41,11.41,0,0,1-.16,3.41Z"/><path class="cls-19" d="M113.84,223.39l-13.4.46a1.31,1.31,0,0,1-1.34-1.11l-2.38-15.46A1.31,1.31,0,0,1,98,205.76l17.09-.59a1.31,1.31,0,0,1,1.36,1.42l-1.31,15.59A1.32,1.32,0,0,1,113.84,223.39Z"/><path class="cls-20" d="M116.9,208.19l-20.55.71a.87.87,0,0,1-.88-.71L95,205.57a.87.87,0,0,1,.82-1l21.36-.74a.87.87,0,0,1,.89,1l-.31,2.65A.87.87,0,0,1,116.9,208.19Z"/><path class="cls-21" d="M225.64,60c-1.58-2.23.23-6.16,4.73-6.54C235.5,53,244.6,56,239.72,68c-5.08,12.44-3.5,15.63-.07,17.49,0,0-11.75.94-10.85-9.32S229.31,65.17,225.64,60Z"/><path class="cls-22" d="M201.38,93.51c2.1-.91,7.72-4.67,15.34-9.4a10.35,10.35,0,0,1,7.3-.58c1.55.52,2.38,2.94-.06,4.64a66.08,66.08,0,0,1-8.19,5c-8.1,4.33-11.92,5.43-13.68,5.72C200,99.22,198.3,94.85,201.38,93.51Z"/><path class="cls-23" d="M191.29,81.91c1,1.53,10.88,10.58,12.6,13.09,2,3-1.8,5.15-3.9,3.07a37.52,37.52,0,0,1-7.48-9.65c-2.17-3.62-3.74-3.86-3.62-5.18C189,82.16,190.6,80.89,191.29,81.91Z"/><path class="cls-24" d="M227.39,74.92c0,.25.43,5.69.5,9.87,0,2-1.44,4-2.91,4h-.06c-1.44,0-3.14-1.82-3-3.82.23-3.63.06-7.35.05-7.41Z"/><path class="cls-25" d="M231.61,98.42A71.06,71.06,0,0,0,229,109.84a29,29,0,0,0,0,8.6c.23,1.72.57,3.42,1,5.1.15.64,1.4,5.79,1.46,6.35H207.92c.23-4.61,5.48-19.1,1.92-28.48-2.46-6.5.81-6.7,3-12.11a15.89,15.89,0,0,1,1.88-3.92,6.76,6.76,0,0,1,3.6-2.21,13.41,13.41,0,0,1,2.19-.31c4-.32,13.36-1.48,14.24,4.19a10,10,0,0,1-.47,4.58c-.53,1.65-1.31,3.21-2,4.82Q232,97.43,231.61,98.42Z"/><path class="cls-26" d="M231.37,144.84s2-5.13.1-14.95H207.92a144,144,0,0,0-.86,14.95Z"/><path class="cls-27" d="M227.18,177.86c-3.09-7.57,4.43-10.16,7.76-4.85,4.71,7.5,6.75,35.23,7.37,40.39.08.68-.29.6-.69.53-1.16-.23-.67-1.31-2.33-1.21-.88.05-1.13,1.26-1.13,1.26C236.34,207.1,230.18,185.19,227.18,177.86Z"/><path class="cls-28" d="M219.68,145.91c-.83-9.88,2.94-17.55,8.85-14.29,2.49,1.37,3.4,4.12,3.73,6.71s2.16,29.47,2.8,34.33c1.45,10.95-6.89,8-7.79,5C225,170,220.13,151.3,219.68,145.91Z"/><path class="cls-29" d="M205.77,176.3c-.31-7.42,6.65-7.26,8.39-1.22,2.75,9.49-2,29.87-2.3,41.52-1.21-2-2.36-2.5-2.9-2.46a1.93,1.93,0,0,0-1.35.76C207.8,199.56,206.1,184.23,205.77,176.3Z"/><path class="cls-30" d="M213.89,177.1c-.92,3-8.89,6.53-8.06-4.49.37-4.89,1.35-31.88,1.54-34.48s.62-6.4,1.88-6.88c6.29-2.37,12.38,5.39,10.73,15.16C218.88,152.95,215.8,170.83,213.89,177.1Z"/><path class="cls-31" d="M230.22,71c-.46,4.64-.6,5.67-2.63,7.57a11,11,0,0,1-7.13,2.77c-2.38,0-4.14-2.51-4.68-4.48A33.77,33.77,0,0,1,215.25,65c.34-2.58,3.52-5.7,6.8-5.7S231.36,59.63,230.22,71Z"/><path class="cls-32" d="M207.32,214.85a8,8,0,0,1-3.33,2.53c-1.78.8-5.56,1.17-3.46,1.87a12.55,12.55,0,0,0,5.78.08,25.09,25.09,0,0,1,3.9-.24c1.93,0,1.94-.13,1.68-2.3C211.54,213.8,208.19,213.16,207.32,214.85Z"/><path class="cls-33" d="M238.21,213.53c-.27.52-.55,3.05-2.33,3.85s-5.56,1.17-3.46,1.87a12.55,12.55,0,0,0,5.78.08c1.24-.2,1.44-1.55,2.9-1.56,1.93,0,1.94-.13,1.68-2.3C242.42,212.47,239.08,211.84,238.21,213.53Z"/><path class="cls-34" d="M216,62.52c-1.82,3.11,11.4,8.8,14.34,8.31s2.91-6.72.64-9.57S220.32,55.19,216,62.52Z"/><path class="cls-35" d="M220.93,61.74c-.48,2.63-5.08,3.23-5.87,5.41-.49,1.35-.71-2.91.37-4.84S221.89,56.46,220.93,61.74Z"/><ellipse class="cls-31" cx="230.36" cy="71.66" rx="3.14" ry="1.65" transform="translate(76.93 257.83) rotate(-67.79)"/><g class="cls-36"><path class="cls-37" d="M186,132.1l-11.75-8.43-5.86-4.21a3,3,0,0,1-.69-4.13l29.61-41.28a3,3,0,0,1,4.13-.67l5.86,4.2L280.1,129.8a3,3,0,0,1,.68,4.12L251.18,175.2a3,3,0,0,1-4.12.68l-48.88-35.06a1.23,1.23,0,0,1-1.42,0l-10.27-7.37A1.23,1.23,0,0,1,186,132.1Z"/><path class="cls-38" d="M263.92,153.08h0a2.78,2.78,0,0,0-.64-3.88h0a2.78,2.78,0,0,0-3.88.64h0a2.78,2.78,0,0,0,.64,3.88h0A2.78,2.78,0,0,0,263.92,153.08Z"/><path class="cls-38" d="M193.48,89.93h0a1.13,1.13,0,0,0-.26-1.58h0a1.13,1.13,0,0,0-1.58.26h0a1.13,1.13,0,0,0,.26,1.58h0A1.13,1.13,0,0,0,193.48,89.93Z"/><path class="cls-38" d="M183.6,102.49l6.55-9.13a.42.42,0,0,0-.68-.48L182.92,102a.42.42,0,0,0,.68.49Z"/><rect class="cls-39" x="196.6" y="83.64" width="54.6" height="81.47" transform="translate(-7.66 233.82) rotate(-54.35)"/><polygon class="cls-40" points="184.5 109.41 237.67 100.65 221.02 88.72 196.44 92.77 184.5 109.41"/><polygon class="cls-40" points="176.18 121 249.25 108.96 240.93 103 182.15 112.68 176.18 121"/></g><path class="cls-31" d="M229.69,113.41a8.52,8.52,0,0,0-4,.64c-.88.52,1.31.59,2.37.7S230.87,113.45,229.69,113.41Z"/><path class="cls-31" d="M228.45,114.29c-2.58,1.33-4.17,1.62-4.94,2.8s1.86,1.54,2.82,1.21,4.51-1.29,4.93-2.43S230.35,113.31,228.45,114.29Z"/><path class="cls-41" d="M243.43,105.51c-1.34-1.86-6.22-6.54-12.46-13a10.36,10.36,0,0,1-2.13-7c.18-1.63,2.36-2.95,4.55-.93A66,66,0,0,1,240,91.53c6,7,7.85,10.48,8.52,12.14C249.3,105.64,245.38,108.23,243.43,105.51Z"/><path class="cls-42" d="M229.41,113.27c1.73-.84,12.53-9.57,15.38-11,3.37-1.64,5,2.63,2.56,4.48A39,39,0,0,1,236.28,113c-4.05,1.68-4.54,3.25-5.87,2.94C229.32,115.69,228.26,113.82,229.41,113.27Z"/><path class="cls-31" d="M191.48,83.71a10.15,10.15,0,0,0,1.82-2.65c.27-.62.05-1.45-.73-1.39a5,5,0,0,0-3,2,3.5,3.5,0,0,0,0,2.58C189.83,84.94,190.58,84.69,191.48,83.71Z"/><g class="cls-43"><path class="cls-44" d="M265,92.1c15.35,3.1,16.22-16.45,21.61-1.89,5.5,14.86-10.36-2.72,1.2,17.77,9.14,16.21.86,34.38-.49,48.61-1.48,15.63,18.47,28.29,16.43,42.24-4.69,32.1,18.23,45.08-5.93,52.39-24.8,7.51-25.27-6.75-52.7-6.22-23.83.45-28.38-53.74-27.17-74.54,1.27-22,9.85-27.32,2.36-50.54C215.77,106,219,92.14,231.6,88.05,239.65,85.44,246.51,88.38,265,92.1Z"/></g><path class="cls-45" d="M76.82,31.81C135.14-13.71,182.41-4.55,223.57,23s73.1,24.8,86.47,79.75-40.51,100.35-66.51,110.67-58.32,13-93.11,22.29c-51.75,13.76-75.16,1.25-88.88-17.48C42.13,191.7,55.69,178,40.72,144.6,22.79,104.62,31.2,67.43,76.82,31.81Z"/><path class="cls-46" d="M22.89,91.15c-27.85,53.32,16,103.09,63.9,123,42.71,17.77,111.42,21.3,143.28-3.43,23.28-18.07,11.65-39.39,46-71.28,22.31-20.73,35.85-19.73,41.82-32.24,14.26-29.87-41.07-81.4-113.66-89C143.55,11.9,52.56,34.35,22.89,91.15Z"/></g><g id="Objects"><path class="cls-47" d="M68.35,217.75a13.48,13.48,0,0,1,.32,2.32c.15.93,1,1.27,1.56,2s1.46,2.19-2,2.26c-3.72.07-5.93-.18-5.29-2.2a10.31,10.31,0,0,0,.71-3.58,2.19,2.19,0,0,1,.42-1.75C64.47,216.43,67.81,215.72,68.35,217.75Z"/><path class="cls-48" d="M118.46,78.51c.16,2.09,0,3.5-2.42,7.76C112.72,92,110.5,95,108.3,97.4c-2,2.2-6.59-3.32-4.55-6.81,1.73-2.95,11.2-11,12.24-12.79C116.68,76.61,118.33,76.82,118.46,78.51Z"/><path class="cls-49" d="M107.07,97.86c-1.6.32-5.28.47-14-1.48A57.19,57.19,0,0,1,84,93.72c-2.81-1-3.23-4.12-2.18-5.29,1.69-1.89,5.27-3.31,6.77-2.85,8.5,2.59,14.88,5.11,17.05,5.37C108.78,91.33,109,97.48,107.07,97.86Z"/><path class="cls-50" d="M84.63,74.82c1.52.71,2.18.72,2.73-1.17.43-1.47,1.15-6.63-1.21-7s-4.2-.41-3.93,2.77S82.83,74,84.63,74.82Z"/><path class="cls-51" d="M75.73,77.59c0,.23-.55,5.18-.64,9a3.92,3.92,0,0,0,3.68,3.67h.08c1.82,0,4-1.65,3.81-3.48A49.1,49.1,0,0,1,82.6,80Z"/><path class="cls-52" d="M66.52,98.19c3.39,11.14,4.91,24.67,4.25,32.45H96.3s-.15-23.91-1.86-37a9.8,9.8,0,0,0-5.39-7.51,18.33,18.33,0,0,0-6.81-1.51H77.53a28.53,28.53,0,0,0-5,.62C65.78,86.51,64.55,91.73,66.52,98.19Z"/><path class="cls-53" d="M70.87,146.26s-2.21-5.36-.1-15.62H96.3a145.12,145.12,0,0,1,.93,15.62Z"/><path class="cls-54" d="M75.91,179.68c2-8.31-6.45-9.77-9.13-3.76C63,184.42,63.3,211.61,63.5,217c0,.71.41.58.82.43A6.34,6.34,0,0,1,67,217a2.33,2.33,0,0,1,1.42,1.12C69.24,210.71,73.93,187.73,75.91,179.68Z"/><path class="cls-55" d="M83.54,147.38c.9-10.33-3.19-18.34-9.6-14.94-2.7,1.43-3.68,4.31-4,7s-2.35,30.8-3,35.88c-1.57,11.45,7.47,8.36,8.45,5.19C77.78,172.51,83.05,153,83.54,147.38Z"/><path class="cls-56" d="M98.63,179.14c.34-7.75-7.21-7.58-9.11-1.28-3,9.92,2.18,31.22,2.5,43.39,1.31-2.1,2.56-2.61,3.14-2.57a2.1,2.1,0,0,1,1.47.79C96.44,203.45,98.27,187.43,98.63,179.14Z"/><path class="cls-57" d="M89.83,180c1,3.16,9.64,6.83,8.74-4.69-.4-5.11-1.47-33.32-1.67-36s-.68-6.69-2-7.19c-6.82-2.48-13.43,5.63-11.64,15.84C84.41,154.74,87.75,173.42,89.83,180Z"/><path class="cls-58" d="M70.56,124.83c-2-.57-3.06-2-6.45-5.57-4.89-5.12-5.72-6.65-7.59-10.84-1.22-2.74,5.26-4.72,7.82-1.59,2.17,2.64,6.42,14.32,7.74,15.92C73,123.81,72.19,125.29,70.56,124.83Z"/><path class="cls-59" d="M56.36,107.43c.26-1.61,1.4-5.12,6.25-12.63a57.19,57.19,0,0,1,5.65-7.6c2-2.27,5-1.6,5.72-.21,1.19,2.24,1.28,6.09.33,7.34-5.38,7.07-10,12.19-11,14.13C61.9,111.3,56.06,109.34,56.36,107.43Z"/><path class="cls-31" d="M73.23,74c.42,4.22.55,5.16,2.39,6.89a10,10,0,0,0,6.49,2.52c2.16,0,3.77-2.28,4.25-4.07a30.74,30.74,0,0,0,.49-10.82,6.83,6.83,0,0,0-6.19-5.19C77.68,63.34,72.2,63.68,73.23,74Z"/><path class="cls-31" d="M69.79,122.17c1-1.07,2.51-2.74,3.26-3.7s3,.69,3,1.51c.07,1.22-1.16,4.56-2.73,4.56s-2,1.43-3.35,1S68.19,123.92,69.79,122.17Z"/><path class="cls-60" d="M96.95,219.44a8.66,8.66,0,0,0,3.62,2.64c1.93.83,6,1.22,3.75,2a14.12,14.12,0,0,1-6.27.08,28.4,28.4,0,0,0-4.23-.25c-2.09,0-2.1-.14-1.82-2.41C92.38,218.33,96,217.67,96.95,219.44Z"/><path class="cls-50" d="M73.24,73.35c1.14,1.14,1.74,1.36,2.85-.17.86-1.19,3.2-5.62,1.19-6.7s-3.67-1.75-4.46,1.22S71.88,72,73.24,73.35Z"/><ellipse class="cls-31" cx="73.1" cy="74.63" rx="1.5" ry="2.86" transform="translate(-22.79 33.19) rotate(-22.22)"/><path class="cls-50" d="M74.53,65.68c1.64,2.46,9.6,2.69,12.19,1.78s2.41-5.92-1.3-6.27c-2.09,0-.58.5-2.27,1.18C82.29,62.73,72.77,63.06,74.53,65.68Z"/><path class="cls-31" d="M115.64,78c.46-1.28,4.61-11.14,6.25-9.49,1.81,1.82,1,6.09.58,7.5-.81,2.57-3.23,4.09-4.86,4C116.45,79.94,115.2,79.24,115.64,78Z"/><path class="cls-31" d="M115.42,77.28c-.06-.62-.4-4.32.28-4.43,1-.17,1.4,2.23,1.63,3.83.13.86-.28,2.11-1,2.13S115.52,78.28,115.42,77.28Z"/><g class="cls-61"><path class="cls-62" d="M40,52.58c13.32-2.23,32.24,6.68,36.07,20.6,3.91,14.22-6.78,21,2,40.71,6.93,15.57-1,32.65-2.9,46.13-2.06,14.8,5.34,22,2.9,35.15-5.62,30.37-5.26,39.32-26.14,45.76C30.5,247.54,26.09,217.65,12.17,194,1.9,176.57-4,158.52,3.08,145.71c10.09-18.4,24.84.27,19.67-21.93C19.65,110.5,20.15,87.54,39.35,91S20.83,55.8,40,52.58Z"/></g><path class="cls-63" d="M161.71,18.17,76.26,19.77a3.73,3.73,0,0,0-3.66,3.8l.47,25a3.73,3.73,0,0,0,3.8,3.66l8.42-.16L89.38,52c.75.92,2.65,3.27,3.45,4.13a1.85,1.85,0,0,0,2.71-.05c.76-.88,2.58-3.3,3.29-4.25l20.77-.39,42.73-.8a3.73,3.73,0,0,0,3.66-3.8l-.47-25A3.73,3.73,0,0,0,161.71,18.17Z"/><path class="cls-64" d="M92.56,36.47a4.11,4.11,0,0,0,1.31-3.09l0-2a4.24,4.24,0,0,0-4.07-4.22,4.12,4.12,0,0,0-4.17,4.2l0,2.2a4.11,4.11,0,0,0,1.43,3,8.71,8.71,0,0,0-5.55,6.16,1.77,1.77,0,0,0,1.78,2.15l13.35-.25a1.77,1.77,0,0,0,1.7-2.22A8.71,8.71,0,0,0,92.56,36.47Z"/><path class="cls-64" d="M127.64,26.41l-17,.32a2.52,2.52,0,0,0-2.48,2.57l.16,8.37a2.52,2.52,0,0,0,2.57,2.48l1.66,0s2.25,2.81,3.07,3.69a1.51,1.51,0,0,0,2.21,0c.78-.91,2.93-3.8,2.93-3.8l7.15-.13a2.52,2.52,0,0,0,2.48-2.57l-.16-8.37A2.52,2.52,0,0,0,127.64,26.41Z"/><path class="cls-65" d="M112.22,31.08a1,1,0,0,1,0-2.1l13.81-.26a1,1,0,1,1,0,2.1l-13.81.26Z"/><path class="cls-65" d="M112.29,34.71a1,1,0,0,1,0-2.1l13.81-.26a1,1,0,1,1,0,2.1l-13.81.26Z"/><path class="cls-65" d="M112.35,38.33a1,1,0,0,1,0-2.1l6.22-.12a1,1,0,1,1,0,2.1l-6.23.12Z"/><path class="cls-64" d="M158.68,40a7.64,7.64,0,0,0-1.59-4.54l0-1.8a6.17,6.17,0,0,0-5.2-6v-.53a1.08,1.08,0,1,0-2.16,0v.53a6.17,6.17,0,0,0-5,6.16l0,1.8h0a7.67,7.67,0,0,0-1.42,4.59v.78a.72.72,0,0,0,.73.71l3.05-.06a.61.61,0,0,0,.25.62,6.18,6.18,0,0,0,7.32-.14.61.61,0,0,0,.22-.63l3.06-.06a.72.72,0,0,0,.71-.73Z"/><circle class="cls-66" cx="142.29" cy="40.94" r="3.25" transform="translate(-0.74 2.68) rotate(-1.08)"/><path class="cls-67" d="M221,25.37l-32.85-.16a4.87,4.87,0,0,0-4.89,4.85l-.1,21.39A4.87,4.87,0,0,0,188,56.34l3.21,0s4.22,5.52,5.76,7.26a2.91,2.91,0,0,0,4.27,0c1.55-1.72,5.82-7.2,5.82-7.2l13.79.07a4.87,4.87,0,0,0,4.89-4.85l.1-21.39A4.87,4.87,0,0,0,221,25.37Z"/><path class="cls-68" d="M217.82,35.47l-26.63-.13a1.57,1.57,0,0,1,0-3.15l26.63.13a1.57,1.57,0,0,1,0,3.15Z"/><path class="cls-68" d="M217.78,43l-26.63-.13a1.57,1.57,0,0,1,0-3.15l26.63.13a1.57,1.57,0,0,1,0,3.15Z"/><path class="cls-68" d="M203.12,50.42l-12-.06a1.57,1.57,0,0,1,0-3.15l12,.06a1.57,1.57,0,0,1,0,3.15Z"/></g></g></g></svg>