<?xml version="1.0" encoding="utf-8"?>
<!-- Generator: Adobe Illustrator 21.0.0, SVG Export Plug-In . SVG Version: 6.00 Build 0)  -->
<svg version="1.1" id="Слой_1" xmlns="http://www.w3.org/2000/svg" xmlns:xlink="http://www.w3.org/1999/xlink" x="0px" y="0px"
	 viewBox="0 0 326.7 255.7" style="enable-background:new 0 0 326.7 255.7;" xml:space="preserve">
<style type="text/css">
	.st0{opacity:0.8;}
	.st1{fill:none;stroke:#0037FF;stroke-miterlimit:10;}
	.st2{opacity:0.5;fill:none;stroke:#0037FF;stroke-miterlimit:10;enable-background:new    ;}
	.st3{fill:none;stroke:#0037FF;stroke-width:0.92;stroke-miterlimit:10;}
	.st4{opacity:0.4;fill:none;stroke:#0037FF;stroke-miterlimit:10;enable-background:new    ;}
	.st5{opacity:0.6;}
	.st6{fill:none;stroke:#0037FF;stroke-width:1.01;stroke-miterlimit:10;}
	.st7{opacity:0.15;fill:url(#SVGID_1_);enable-background:new    ;}
	.st8{opacity:0.15;fill:url(#SVGID_2_);enable-background:new    ;}
	.st9{fill:url(#SVGID_3_);}
	.st10{fill:#FFAF84;}
	.st11{fill:url(#SVGID_4_);}
	.st12{fill:url(#SVGID_5_);}
	.st13{fill:#ED9169;}
	.st14{fill:url(#SVGID_6_);}
	.st15{fill:url(#SVGID_7_);}
	.st16{fill:url(#SVGID_8_);}
	.st17{fill:url(#SVGID_9_);}
	.st18{fill:url(#SVGID_10_);}
	.st19{fill:url(#SVGID_11_);}
	.st20{fill:url(#SVGID_12_);}
	.st21{fill:url(#SVGID_13_);}
	.st22{fill:url(#SVGID_14_);}
	.st23{fill:url(#SVGID_15_);}
	.st24{fill:#4E11F4;}
	.st25{fill:url(#SVGID_18_);}
	.st26{fill:url(#SVGID_19_);}
	.st27{fill:url(#SVGID_20_);}
	.st28{fill:url(#SVGID_21_);}
	.st29{fill:url(#SVGID_22_);}
	.st30{fill:url(#SVGID_23_);}
	.st31{fill:url(#SVGID_24_);}
	.st32{fill:url(#SVGID_25_);}
	.st33{fill:url(#SVGID_26_);}
	.st34{fill:url(#SVGID_27_);}
	.st35{fill:url(#SVGID_28_);}
	.st36{fill:url(#SVGID_31_);}
	.st37{fill:url(#SVGID_32_);}
	.st38{fill:url(#SVGID_33_);}
	.st39{fill:url(#SVGID_34_);}
	.st40{fill:url(#SVGID_35_);}
	.st41{fill:url(#SVGID_36_);}
	.st42{fill:url(#SVGID_37_);}
	.st43{fill:url(#SVGID_38_);}
	.st44{fill:url(#SVGID_39_);}
	.st45{fill:url(#SVGID_40_);}
	.st46{fill:url(#SVGID_41_);}
	.st47{fill:url(#SVGID_42_);}
	.st48{fill:url(#SVGID_43_);}
	.st49{fill:url(#SVGID_46_);}
	.st50{fill:url(#SVGID_47_);}
	.st51{fill:url(#SVGID_48_);}
	.st52{fill:#EA8F68;}
	.st53{fill:url(#SVGID_49_);}
	.st54{fill:url(#SVGID_50_);}
	.st55{fill:url(#SVGID_51_);}
	.st56{fill:url(#SVGID_52_);}
	.st57{fill:url(#SVGID_53_);}
	.st58{fill:url(#SVGID_54_);}
	.st59{opacity:0.3;fill:url(#SVGID_55_);enable-background:new    ;}
	.st60{opacity:0.3;fill:url(#SVGID_56_);enable-background:new    ;}
	.st61{fill:url(#SVGID_57_);}
	.st62{fill:url(#SVGID_58_);}
	.st63{opacity:0.3;fill:url(#SVGID_59_);enable-background:new    ;}
	.st64{fill:url(#SVGID_60_);}
</style>
<title>slide1-seo</title>
<g>
	<g id="Слой_2">
		<g id="Background">
			<g class="st0">
				<polygon class="st1" points="111.1,45.9 111.1,191.1 280.3,178.1 280.3,64.4 				"/>
				<polygon class="st2" points="117.1,187.4 283.6,175.3 283.6,73.5 117.1,57.7 				"/>
				<polygon class="st2" points="194.5,173.8 267.3,169.4 267.3,76.7 194.5,70.4 				"/>
				<path class="st3" d="M205.6,94.3l63.4,3.4c0.8,0,1.4-0.7,1.4-1.7V83.4c0.1-0.9-0.5-1.7-1.4-1.9l-63.3-5.1
					c-0.9,0-1.7,0.8-1.7,1.7c0,0.1,0,0.1,0,0.2v13.9C203.9,93.2,204.6,94.1,205.6,94.3z"/>
				<path class="st3" d="M205.6,117.8L269,119c0.9-0.1,1.5-0.9,1.4-1.8v-12.6c0.1-0.9-0.5-1.7-1.4-1.9l-63.4-2.8
					c-1,0-1.7,0.9-1.7,1.8c0,0,0,0.1,0,0.1v13.9C203.9,116.8,204.6,117.7,205.6,117.8z"/>
				<path class="st1" d="M203.4,120.4l63.7,1c0.9-0.1,1.5-0.9,1.4-1.8V107c0.1-0.9-0.5-1.7-1.4-1.9l-63.7-2.6c-1,0-1.8,0.9-1.7,1.9
					c0,0,0,0,0,0.1v13.9C201.6,119.4,202.4,120.3,203.4,120.4z"/>
				<path class="st3" d="M205.6,141.4l63.3-0.9c0.9-0.1,1.5-0.9,1.4-1.8V126c0.1-0.9-0.5-1.7-1.4-1.8l-63.3-0.7c-1,0.1-1.8,1-1.7,2
					c0,0,0,0,0,0v13.9C203.9,140.4,204.6,141.3,205.6,141.4C205.6,141.4,205.6,141.4,205.6,141.4z"/>
				<polygon class="st4" points="85.8,162.6 175,159.1 175,44.7 85.8,33.9 				"/>
				<path class="st3" d="M205.6,164.9l63.4-3.1c0.9-0.2,1.5-1,1.4-1.9v-12.6c0.1-0.9-0.5-1.7-1.4-1.8l-63.3,1.5c-1,0.1-1.7,1-1.7,2
					V163C203.9,164,204.6,164.8,205.6,164.9C205.6,164.9,205.6,164.9,205.6,164.9z"/>
				<path class="st1" d="M135.8,115.8c-10.7,4.3-23.7,1.6-32.8-8.1c-4.4-4.6-7.4-10.3-8.7-16.5l15.5-2.6c1.5,7.4,7.7,13.1,15,13.4
					c1.9,0.1,3.8-0.2,5.5-0.9L135.8,115.8z"/>
				<path class="st1" d="M146.8,105.3c-0.2,0.2-0.4,0.4-0.7,0.7l-9.8-11.7c3-2.9,4.7-7,4.6-11.1c0-8.6-6.5-16.1-14.8-16.8
					c-5.8-0.5-11.3,2.6-13.8,7.8l-14.2-8.3c1.5-3,3.6-5.8,6.1-8.1c12.2-11.4,31.3-9.3,42.5,4C157.7,74.6,157.7,93.8,146.8,105.3z"/>
				<path class="st1" d="M110.7,81.2c0,1.2,0.1,2.3,0.4,3.5l-15.5,2.6C94,80,94.9,72.5,98.2,65.9l14.2,8.3
					C111.3,76.3,110.7,78.8,110.7,81.2z"/>
				<path class="st1" d="M146.1,105.9c-2.6,2.5-5.6,4.6-9,5.9l-5.4-14.7c1.7-0.6,3.3-1.6,4.6-2.9L146.1,105.9z"/>
				<g class="st5">
					<polygon class="st1" points="240,108.8 265.5,109.7 265.5,107.8 240,106.9 					"/>
					<polygon class="st1" points="240,112.2 265.5,113 265.5,111.1 240,110.3 					"/>
					<polygon class="st1" points="254.4,116 265.5,116.3 265.5,114.4 254.4,114.1 					"/>
				</g>
				<polygon class="st2" points="221.8,145.6 229.4,145.8 229.4,136.7 221.8,136.4 				"/>
				<polygon class="st2" points="208.4,124.7 216.3,124.9 216.3,115.7 208.4,115.4 				"/>
				<polygon class="st1" points="131.7,121.8 131.7,179.5 133,179.4 133,121.8 				"/>
				<polygon class="st1" points="186.8,158 186.8,176 187.9,175.9 187.9,158 				"/>
				<polygon class="st1" points="160.3,138.6 160.3,177.7 161.5,177.6 161.5,138.5 				"/>
				<path class="st6" d="M101.2,166.6c15.9-0.7,15.9-37,31.2-36.9c14.7,0,14.7,34.9,28.8,34.2c13.6-0.6,13.6-34.2,26.7-34.1"/>
				<polygon class="st1" points="152.5,120.3 152.5,117.4 147,117.3 147,120.3 				"/>
				<polygon class="st1" points="162.1,120.5 162.1,117.6 156.7,117.5 156.7,120.4 				"/>
				<polygon class="st1" points="171.4,120.6 171.4,117.7 166.1,117.6 166.1,120.5 				"/>
				<polygon class="st2" points="238.1,131.4 264,131.3 264,128.9 238.1,128.8 				"/>
				<polygon class="st2" points="246.8,135.9 264,135.8 264,133.3 246.8,133.3 				"/>
				<polygon class="st2" points="240.3,136 244.8,135.9 244.8,133.4 240.3,133.4 				"/>
				<polygon class="st2" points="238.1,87.1 264,88.8 264,86.3 238.1,84.5 				"/>
				<polygon class="st2" points="248.9,92.3 264,93.2 264,90.7 248.9,89.8 				"/>
				<polygon class="st2" points="229.9,91.2 246.8,92.2 246.8,89.6 229.9,88.5 				"/>
				<polygon class="st2" points="253.9,153.2 264,152.9 264,150.4 253.9,150.7 				"/>
				<polygon class="st2" points="241.5,153.7 252,153.3 252,150.8 241.5,151.1 				"/>
				<polygon class="st2" points="246.8,158 264,157.3 264,154.8 246.8,155.5 				"/>
				<polygon class="st2" points="226.8,158.9 244.8,158.1 244.8,155.6 226.8,156.2 				"/>
				<path class="st1" d="M167.8,66.6c-1.7-0.9-3.8-0.7-5.1,0.7c-0.7,0.7-1.1,1.6-1.3,2.5l2.3,0.8c0.2-1.1,1.2-1.9,2.3-1.9
					c0.3,0,0.6,0.1,0.9,0.3L167.8,66.6z"/>
				<path class="st1" d="M169.4,67.9l-0.1-0.1l-1.6,1.8c0.5,0.6,0.8,1.3,0.8,2c0.1,1.3-0.9,2.3-2.2,2.4c-0.1,0-0.2,0-0.2,0
					c-1-0.1-1.8-0.7-2.1-1.7l-2.1,1c0.2,0.5,0.5,1,0.9,1.5c1.5,2,4.2,2.4,6.2,1c0.2-0.1,0.3-0.3,0.5-0.4
					C171.2,73.2,171.2,70.1,169.4,67.9z"/>
				<path class="st1" d="M163.6,71.2c0-0.2,0-0.4,0.1-0.6l-2.3-0.8c-0.2,1.2-0.1,2.4,0.4,3.5l2.1-1C163.7,72,163.6,71.6,163.6,71.2z
					"/>
				<path class="st1" d="M169.3,67.8c-0.4-0.5-0.9-0.9-1.5-1.2l-0.9,2.4c0.3,0.2,0.5,0.4,0.7,0.6L169.3,67.8z"/>
				<path class="st1" d="M161.6,105.2c0.7,1.9,2.4,3.2,4.4,3.3c0.9,0,1.8-0.2,2.6-0.8l-1.3-2.2c-1,0.7-2.3,0.5-3-0.5
					c-0.2-0.3-0.4-0.5-0.5-0.8L161.6,105.2z"/>
				<path class="st1" d="M161.3,103.1c0,0.1,0,0.1,0,0.2h2.4c0-0.7,0.2-1.4,0.7-1.9c0.8-0.9,2.2-0.9,3.1-0.1
					c0.1,0.1,0.2,0.2,0.2,0.2c0.6,0.8,0.9,1.8,0.6,2.7l2.2,0.9c0.2-0.5,0.3-1.1,0.3-1.7c0.1-2.8-2-5.2-4.7-5.5
					c-2.7,0-4.8,2.2-4.8,4.8C161.2,102.9,161.2,103,161.3,103.1z"/>
				<path class="st1" d="M167.7,105.2c-0.1,0.1-0.3,0.2-0.4,0.3l1.3,2.2c0.9-0.6,1.6-1.6,1.9-2.7l-2.2-0.9
					C168.2,104.6,168,104.9,167.7,105.2z"/>
				<path class="st1" d="M161.3,103.2c0,0.7,0.1,1.3,0.4,1.9l2.2-1c-0.1-0.3-0.2-0.7-0.2-1L161.3,103.2z"/>
				<path class="st1" d="M167.9,92.3c1.8-0.8,2.9-2.7,2.8-4.7c0-1-0.3-2-0.7-2.9l-2,1.3c0.6,1,0.5,2.4-0.3,3.3
					c-0.2,0.2-0.5,0.4-0.7,0.5L167.9,92.3z"/>
				<path class="st1" d="M166,92.6h0.2l-0.1-2.6c-0.7,0-1.3-0.3-1.8-0.9c-0.9-1.1-0.9-2.7,0-3.8c0.6-0.7,1.6-0.9,2.4-0.5l0.8-2.4
					c-0.5-0.2-1-0.3-1.5-0.4c-2.6-0.2-4.8,2.1-4.8,5C161.2,89.9,163.2,92.3,166,92.6z"/>
				<path class="st1" d="M167.7,85.5c0.1,0.1,0.2,0.3,0.3,0.4l2-1.3c-0.5-1-1.4-1.8-2.4-2.3l-0.8,2.4
					C167.1,85,167.5,85.3,167.7,85.5z"/>
				<path class="st1" d="M166.2,92.6c0.6,0,1.2-0.1,1.7-0.3l-0.9-2.5c-0.3,0.1-0.6,0.2-0.9,0.2L166.2,92.6z"/>
			</g>
			
				<linearGradient id="SVGID_1_" gradientUnits="userSpaceOnUse" x1="103.32" y1="146.53" x2="326.7" y2="146.53" gradientTransform="matrix(1 0 0 -1 0 277.89)">
				<stop  offset="0" style="stop-color:#36078B"/>
				<stop  offset="1" style="stop-color:#16B1FF"/>
			</linearGradient>
			<circle class="st7" cx="215" cy="131.4" r="111.7"/>
			
				<linearGradient id="SVGID_2_" gradientUnits="userSpaceOnUse" x1="0" y1="150.04" x2="255.7" y2="150.04" gradientTransform="matrix(1 0 0 -1 0 277.89)">
				<stop  offset="0" style="stop-color:#401381"/>
				<stop  offset="1" style="stop-color:#D11137"/>
			</linearGradient>
			<circle class="st8" cx="127.8" cy="127.8" r="127.8"/>
		</g>
		<g id="Designed_by_Freepik">
			
				<linearGradient id="SVGID_3_" gradientUnits="userSpaceOnUse" x1="216.9359" y1="218.8887" x2="208.4559" y2="179.8387" gradientTransform="matrix(1 0 0 -1 0 277.89)">
				<stop  offset="0" style="stop-color:#2C27CE"/>
				<stop  offset="1" style="stop-color:#EF1D68"/>
			</linearGradient>
			<path class="st9" d="M206.8,72.5c-3.6,2.7-5.4,7.1-4.7,11.5c0.6,4.1,0.3,8.3-0.9,12.2c-0.9,2.8-4,12,6.9,11.8s11.6-13,10.3-19.5
				s1-11.2-0.6-13.1S212.5,68.3,206.8,72.5z"/>
			<path class="st10" d="M248,96.3c2-1.6,4.1-3.3,4.5-1.5s0.4,1.7-1,3S246.3,97.7,248,96.3z"/>
			
				<linearGradient id="SVGID_4_" gradientUnits="userSpaceOnUse" x1="223.4188" y1="179.3173" x2="244.7788" y2="177.2273" gradientTransform="matrix(1 0 0 -1 0 277.89)">
				<stop  offset="0" style="stop-color:#36078B"/>
				<stop  offset="1" style="stop-color:#16B1FF"/>
			</linearGradient>
			<path class="st11" d="M248.1,96c-1.4,0.6-11,2.6-15,3.8H233c-2-0.5-7.3-3.2-14.6-6.4c-2.1-0.7-4.4-0.5-6.5,0.4
				c-1.3,0.7-1.7,2.9,0.6,4.1c2.5,1.3,5.1,2.4,7.8,3.4c6.6,2.4,10.1,3.1,11.9,3.3c0.4,0.1,0.8,0.1,1.2,0c3.7-0.8,7.2-2.1,10.5-4
				c3.4-1.8,4.8-1.2,5.3-2.3C249.8,97.3,249.1,95.5,248.1,96z"/>
			
				<linearGradient id="SVGID_5_" gradientUnits="userSpaceOnUse" x1="202.9798" y1="68.2297" x2="203.5098" y2="83.8297" gradientTransform="matrix(1 0 0 -1 0 277.89)">
				<stop  offset="0" style="stop-color:#2C27CE"/>
				<stop  offset="0.65" style="stop-color:#EF1D68"/>
				<stop  offset="1" style="stop-color:#EFBA92"/>
			</linearGradient>
			<path class="st12" d="M204.2,208c0.1,0.7,0.2,1.3,0.3,2c0.1,0.8,0.9,1.1,1.3,1.7s1.2,1.9-1.6,1.9c-3,0.1-4.8-0.1-4.3-1.9
				c0.4-1,0.6-2,0.6-3c-0.1-0.5,0-1.1,0.3-1.5C201,206.9,203.7,206.3,204.2,208z"/>
			<path class="st13" d="M209.7,85.9c0,0.2-0.4,5-0.4,8.7c0,1.8,1.3,3.5,2.6,3.6h0.1c1.3,0,2.8-1.6,2.7-3.4c-0.2-3.2-0.1-6.5,0-6.5
				L209.7,85.9z"/>
			
				<linearGradient id="SVGID_6_" gradientUnits="userSpaceOnUse" x1="210.3449" y1="183.7201" x2="218.5149" y2="147.2801" gradientTransform="matrix(1 0 0 -1 0 277.89)">
				<stop  offset="0" style="stop-color:#36078B"/>
				<stop  offset="1" style="stop-color:#16B1FF"/>
			</linearGradient>
			<path class="st14" d="M206,106.6c1,3.3,1.8,6.7,2.3,10.1c0.4,2.5,0.4,5.1,0,7.6c-0.2,1.5-0.5,3-0.9,4.5c-0.1,0.6-1.2,5.1-1.3,5.6
				H227c-0.2-4.1-4.8-16.9-1.7-25.2c2.2-5.7-0.7-5.9-2.7-10.7c-0.4-1.2-1-2.4-1.7-3.5c-0.8-1-1.9-1.7-3.2-1.9
				c-0.6-0.1-1.3-0.2-1.9-0.3c-3.5-0.3-11.8-1.3-12.6,3.7c-0.2,1.3,0,2.7,0.4,4c0.5,1.5,1.2,2.8,1.7,4.3
				C205.6,105.5,205.8,106,206,106.6z"/>
			
				<linearGradient id="SVGID_7_" gradientUnits="userSpaceOnUse" x1="216.6885" y1="118.94" x2="217.7985" y2="18.98" gradientTransform="matrix(1 0 0 -1 0 277.89)">
				<stop  offset="0" style="stop-color:#F70F47"/>
				<stop  offset="1" style="stop-color:#9E005D"/>
			</linearGradient>
			<path class="st15" d="M206.2,147.6c0,0-1.8-4.5-0.1-13.2h20.8c0.5,4.4,0.7,8.8,0.8,13.2H206.2z"/>
			
				<linearGradient id="SVGID_8_" gradientUnits="userSpaceOnUse" x1="205.0182" y1="118.81" x2="206.1282" y2="18.85" gradientTransform="matrix(1 0 0 -1 0 277.89)">
				<stop  offset="0" style="stop-color:#F70F47"/>
				<stop  offset="1" style="stop-color:#9E005D"/>
			</linearGradient>
			<path class="st16" d="M210.3,175.8c1.7-7-5.3-8.3-7.4-3.2c-3.1,7.2-2.8,30.2-2.7,34.7c0,0.6,0.3,0.5,0.7,0.4
				c0.7-0.3,1.4-0.4,2.2-0.4c0.5,0.1,0.9,0.5,1.2,0.9C204.9,202.1,208.7,182.7,210.3,175.8z"/>
			
				<linearGradient id="SVGID_9_" gradientUnits="userSpaceOnUse" x1="209.6924" y1="118.86" x2="210.8124" y2="18.9" gradientTransform="matrix(1 0 0 -1 0 277.89)">
				<stop  offset="0" style="stop-color:#F70F47"/>
				<stop  offset="1" style="stop-color:#9E005D"/>
			</linearGradient>
			<path class="st17" d="M216.5,148.6c0.7-8.7-2.6-15.5-7.8-12.6c-2.2,1.2-3,3.6-3.3,5.9s-1.9,26-2.5,30.3c-1.3,9.7,6.1,7.1,6.9,4.4
				C211.8,169.8,216.1,153.3,216.5,148.6z"/>
			
				<linearGradient id="SVGID_10_" gradientUnits="userSpaceOnUse" x1="224.5177" y1="119.02" x2="225.6277" y2="19.07" gradientTransform="matrix(1 0 0 -1 0 277.89)">
				<stop  offset="0" style="stop-color:#F70F47"/>
				<stop  offset="1" style="stop-color:#9E005D"/>
			</linearGradient>
			<path class="st18" d="M228.8,175.4c0.3-6.6-5.9-6.4-7.4-1.1c-2.4,8.4,1.8,26.4,2,36.7c1.1-1.8,2.1-2.2,2.6-2.2
				c0.5,0,0.9,0.3,1.2,0.7C227,195.9,228.5,182.4,228.8,175.4z"/>
			
				<linearGradient id="SVGID_11_" gradientUnits="userSpaceOnUse" x1="222.3958" y1="119" x2="223.5158" y2="19.05" gradientTransform="matrix(1 0 0 -1 0 277.89)">
				<stop  offset="0" style="stop-color:#F70F47"/>
				<stop  offset="1" style="stop-color:#9E005D"/>
			</linearGradient>
			<path class="st19" d="M221.6,176.1c0.8,2.7,7.9,5.8,7.1-4c-0.3-4.3-1.2-28.1-1.4-30.4s-0.6-5.7-1.7-6.1
				c-5.6-2.1-10.9,4.8-9.5,13.4C217.2,154.8,220,170.6,221.6,176.1z"/>
			<path class="st10" d="M251.2,94.2c0.9-0.8,2-1.3,3.2-1.6c0.9-0.1-1.1,1-1.8,1.6S250.4,94.9,251.2,94.2z"/>
			<path class="st10" d="M207,124.6c2.5-0.5,3.8-1.4,5-0.7s-0.5,2.9-1.4,3.2s-3.9,1.9-4.8,1.1c-0.8-1-0.6-2.4,0.3-3.2
				C206.4,124.8,206.7,124.6,207,124.6z"/>
			
				<linearGradient id="SVGID_12_" gradientUnits="userSpaceOnUse" x1="204.0132" y1="179.7731" x2="199.8332" y2="153.6031" gradientTransform="matrix(1 0 0 -1 0 277.89)">
				<stop  offset="0" style="stop-color:#36078B"/>
				<stop  offset="1" style="stop-color:#16B1FF"/>
			</linearGradient>
			<path class="st20" d="M198.4,113.5c1.4-2.2,4.7-6.5,8.6-11.9c1.1-1.9,1.5-4.2,1-6.4c-0.4-1.4-2.4-2.3-4.1-0.2
				c-1.8,2.2-3.4,4.5-4.9,6.9c-4.3,6.9-5.5,10.2-5.9,11.7c-0.1,0.6,0.2,1.3,0.7,1.6c0,0.1,0.1,0.2,0.1,0.2c2.2,3.1,4.8,5.8,7.8,8
				c3,2.4,3,3.9,4.3,4c1,0.1,2.3-1.3,1.5-2C206.5,124.4,201.2,116.8,198.4,113.5z"/>
			<path class="st10" d="M206.5,83.1c1.1,4,1.3,4.9,3.4,6.2c2,1.3,4.3,1.8,6.6,1.4c2.1-0.3,3.3-2.8,3.4-4.6
				c0.2-3.5-0.2-7.1-1.2-10.4c-1.1-2.7-3.9-4.3-6.7-4C209.1,72.2,203.9,73.4,206.5,83.1z"/>
			
				<linearGradient id="SVGID_13_" gradientUnits="userSpaceOnUse" x1="228.7147" y1="67.3698" x2="229.2346" y2="82.9698" gradientTransform="matrix(1 0 0 -1 0 277.89)">
				<stop  offset="0" style="stop-color:#2C27CE"/>
				<stop  offset="0.65" style="stop-color:#EF1D68"/>
				<stop  offset="1" style="stop-color:#EFBA92"/>
			</linearGradient>
			<path class="st21" d="M227.4,209.4c0.8,1,1.8,1.8,2.9,2.2c1.6,0.7,4.9,1,3.1,1.6c-1.7,0.4-3.4,0.4-5.1,0.1
				c-1.1-0.2-2.3-0.2-3.4-0.2c-1.7,0-1.7-0.1-1.5-2C223.7,208.5,226.7,208,227.4,209.4z"/>
			
				<linearGradient id="SVGID_14_" gradientUnits="userSpaceOnUse" x1="132.0801" y1="5.9897" x2="123.6001" y2="-33.0703" gradientTransform="matrix(0.9873 -0.159 -0.159 -0.9873 82.5693 85.4531)">
				<stop  offset="0" style="stop-color:#2C27CE"/>
				<stop  offset="1" style="stop-color:#EF1D68"/>
			</linearGradient>
			<path class="st22" d="M217.7,73.7c2,2.4-8.7,9.3-11.3,9.3s-2.8-5-1.3-7.8S212.9,67.9,217.7,73.7z"/>
			
				<linearGradient id="SVGID_15_" gradientUnits="userSpaceOnUse" x1="137.0644" y1="4.901" x2="128.5844" y2="-34.149" gradientTransform="matrix(0.9873 -0.159 -0.159 -0.9873 82.5693 85.4531)">
				<stop  offset="0" style="stop-color:#2C27CE"/>
				<stop  offset="1" style="stop-color:#EF1D68"/>
			</linearGradient>
			<path class="st23" d="M213.3,73.7c0.8,2.2,4.9,2.1,5.9,3.9c0.6,1.1,0.2-2.6-1-4.2S211.7,69.3,213.3,73.7z"/>
			
				<ellipse transform="matrix(0.9257 -0.3782 0.3782 0.9257 -16.0098 84.4774)" class="st10" cx="207.1" cy="83" rx="1.4" ry="2.8"/>
			<g>
				<defs>
					<path id="SVGID_16_" d="M254.4,92.6c-1.1,0.2-2.2,0.8-3.1,1.5c-1,0.5-2,1.1-2.8,1.8c-0.1,0-0.3,0-0.4,0.1
						c-1.4,0.6-11,2.6-15,3.8H233c-1.9-0.5-7.1-3-14-6.1c0-1.5-0.1-2.9-0.3-4.3c0.7-0.9,1.1-2,1.2-3.1c0.2-2.9-0.1-5.7-0.7-8.5
						c0.6,0.9,0.2-2.7-1-4.2c-1-1.1-2.3-1.8-3.8-2.2c-0.9-0.3-1.8-0.4-2.7-0.3c-1.8-0.1-3.5,0.4-4.9,1.6c-3.6,2.7-5.4,7.1-4.7,11.5
						c0.6,4.1,0.3,8.3-0.9,12.2c-0.4,1.2-0.7,2.3-0.9,3.5c-0.4,0.6-0.8,1.3-1.3,2.1c-4.3,6.9-5.5,10.2-5.9,11.7
						c-0.1,0.6,0.2,1.3,0.7,1.6c0,0.1,0.1,0.2,0.1,0.2c2.2,3.1,4.8,5.8,7.8,8c1.3,1.1,2.4,2.3,3.4,3.6c0,0.4,0.2,0.9,0.5,1.2
						c0.4,0.3,1,0.3,1.8,0.1c0,0.2-0.1,0.4-0.1,0.6c-0.1,0.6-1.2,5.1-1.3,5.6c-0.5,2.5-0.8,5.1-0.7,7.6c-0.4,3.2-1.9,25.9-2.4,30.1
						c0,0.2,0,0.3,0,0.5l0,0c-3.1,7.2-2.8,30.2-2.7,34.7c0,0.2,0.1,0.4,0.2,0.4c-0.1,0.3-0.1,0.6-0.1,0.9c0,1-0.2,2-0.6,3
						c-0.5,1.7,1.3,1.9,4.3,1.9c2.8-0.1,2.1-1.2,1.6-1.9s-1.1-0.9-1.3-1.7c-0.1-0.6,0-0.9-0.2-1.7l0,0c0.6-6.3,4.5-25.7,6.1-32.5
						c0.1-0.6,0.2-1.2,0.2-1.8c2-7.1,5.1-19.1,5.8-24.3c1,5.8,3.3,19,4.9,25.1c-2.1,8.6,1.9,26.1,2.1,36.1l0,0c0,0.1,0,0.1-0.1,0.2
						c-0.2,1.9-0.2,2,1.5,2c1.2,0,2.3,0.1,3.4,0.2c1.7,0.4,3.4,0.4,5.1-0.1c1.9-0.6-1.5-0.9-3.1-1.6c-1.2-0.5-2.2-1.2-2.9-2.2
						c-0.1-0.1-0.2-0.2-0.3-0.3c-0.1-13.4,1.3-26.8,1.6-33.7c0-0.4,0-0.8,0-1.2c0-0.7,0-1.3,0-2c-0.2-3.1-0.8-16.5-1.1-24.5
						c0-4.4-0.3-8.8-0.8-13.2c-0.2-4.1-4.8-16.9-1.7-25.2c1.3-3.4,0.8-4.9-0.3-6.5c2.4,0.8,4.9,1.4,7.4,1.7c0.4,0.1,0.8,0.1,1.2,0
						c3.7-0.8,7.2-2.1,10.5-4c3.3-1.7,4.7-1.3,5.2-2.2c0.8,0.2,1.6,0,2.3-0.4c1.5-1.3,1.5-1.1,1-3c0-0.1-0.1-0.3-0.2-0.4
						c0.1-0.1,0.2-0.1,0.3-0.2C253.4,93.6,255.3,92.6,254.4,92.6z M198.4,113.5c0.9-1.4,2.5-3.6,4.6-6.5c1,0.5,2.2,0.9,3.3,0.9
						c0.8,2.9,1.5,5.8,1.9,8.8c0.4,2.5,0.4,5,0,7.5c-0.4,0.1-0.8,0.2-1.3,0.3h-0.1C205.1,122.3,200.8,116.3,198.4,113.5L198.4,113.5
						z"/>
				</defs>
				<clipPath id="SVGID_17_">
					<use xlink:href="#SVGID_16_"  style="overflow:visible;"/>
				</clipPath>
			</g>
		</g>
		<g id="Objects">
			<path class="st24" d="M292.9,208.9c-0.2,0.7-0.3,1.4-0.3,2.1c-0.1,0.8-0.9,1.1-1.4,1.8s-1.3,1.9,1.8,1.9c3.4,0.1,5.4,0,4.8-1.9
				c-0.4-1-0.6-2.1-0.6-3.3c0.1-0.6,0-1.1-0.4-1.6C296.4,207.7,293.4,207,292.9,208.9z"/>
			<path class="st10" d="M251.6,117.1c-1.2,0.3-10.5,3-9.2,4.7c1.4,1.8,5.4,1.5,6.7,1.3c2.4-0.5,4-2.5,4.1-4
				C253.3,118,252.8,116.8,251.6,117.1z"/>
			<path class="st10" d="M251,116.8c-0.6-0.1-3.9-0.8-4-0.2c-0.3,0.9,1.9,1.5,3.3,1.9c0.8,0.2,1.9,0,2-0.7S251.9,117,251,116.8z"/>
			<path class="st24" d="M267,210.4c-0.9,1.1-2,1.9-3.3,2.4c-1.8,0.8-5.5,1.1-3.4,1.8c1.9,0.4,3.8,0.5,5.7,0.1
				c1.3-0.2,2.5-0.2,3.8-0.2c1.9,0,1.9-0.1,1.6-2.2C271.1,209.4,267.8,208.8,267,210.4z"/>
			<path class="st10" d="M288.5,79.1c-0.4,3.8-0.5,4.7-2.2,6.2s-4.3,1.8-6.1,1.8s-3.3-2.4-3.7-4c-0.7-2.9-0.8-6-0.4-9
				c0.6-2.6,2.9-4.5,5.6-4.7C284.4,69.5,289.4,69.8,288.5,79.1z"/>
			
				<linearGradient id="SVGID_18_" gradientUnits="userSpaceOnUse" x1="-490.3789" y1="1731.8995" x2="-444.7189" y2="1775.8795" gradientTransform="matrix(0.9719 0.2353 0.2353 -0.9719 1383.131 1296.8387)">
				<stop  offset="0" style="stop-color:#36078B"/>
				<stop  offset="1" style="stop-color:#16B1FF"/>
			</linearGradient>
			<path class="st25" d="M251.6,120.3c1.9,0.3,3.1,0.3,7.2-1.5c3.8-1.6,7.4-3.6,10.7-6c2.2-1.6-2.4-6.3-5.7-4.7
				c-2.8,1.3-10.9,9.1-12.6,9.9C250.1,118.5,250.1,120,251.6,120.3z"/>
			
				<linearGradient id="SVGID_19_" gradientUnits="userSpaceOnUse" x1="246.2001" y1="153.1399" x2="291.8601" y2="197.1099" gradientTransform="matrix(1 0 0 -1 0 277.89)">
				<stop  offset="0" style="stop-color:#36078B"/>
				<stop  offset="1" style="stop-color:#16B1FF"/>
			</linearGradient>
			<path class="st26" d="M268.9,112.1c1.1-1,3.3-3.5,6.9-10.8c1.3-2.6,2.4-5.2,3.3-7.9c0.9-2.6-1.1-4.6-2.5-4.5
				c-2.3,0.1-5.3,1.8-5.9,3.2c-3,7.5-4.8,13.4-5.8,15.1C263.4,109.7,267.6,113.3,268.9,112.1z"/>
			<path class="st10" d="M286.5,85.9c0.1,1.3,0.2,2.8,0.3,4.3c0,1.9-1.3,3.5-3.2,3.7h-0.2c-1.6,0-3.6-1.5-3.5-3.2
				c0.1-1.1,0.1-2.2,0.1-3.1c0-1.8,1.2-3.4,2.9-4l0,0c1.4-0.5,2.9,0.2,3.4,1.6C286.4,85.4,286.5,85.7,286.5,85.9z"/>
			
				<linearGradient id="SVGID_20_" gradientUnits="userSpaceOnUse" x1="281.2893" y1="197.57" x2="281.2893" y2="158.89" gradientTransform="matrix(1 0 0 -1 0 277.89)">
				<stop  offset="0" style="stop-color:#36078B"/>
				<stop  offset="1" style="stop-color:#16B1FF"/>
			</linearGradient>
			<path class="st27" d="M294.2,102.2c-3.1,10.1-4.1,20.6-3.5,27.7h-23.1c0,0,0.1-21.7,1.7-33.5c0.4-2.9,2.2-5.5,4.9-6.8
				c2-0.8,4-1.3,6.2-1.4h4.3c1.5,0,3,0.2,4.5,0.6C295.4,90.7,295.9,96.4,294.2,102.2z"/>
			
				<linearGradient id="SVGID_21_" gradientUnits="userSpaceOnUse" x1="245.5802" y1="77.2899" x2="283.2802" y2="148.8899" gradientTransform="matrix(1 0 0 -1 0 277.89)">
				<stop  offset="0" style="stop-color:#F70F47"/>
				<stop  offset="1" style="stop-color:#FFB41D"/>
			</linearGradient>
			<path class="st28" d="M290.6,144.1c0,0,2-4.9,0.1-14.1h-23.1c-0.5,4.7-0.8,9.4-0.8,14.1H290.6z"/>
			
				<linearGradient id="SVGID_22_" gradientUnits="userSpaceOnUse" x1="277.215" y1="60.6326" x2="314.915" y2="132.2326" gradientTransform="matrix(1 0 0 -1 0 277.89)">
				<stop  offset="0" style="stop-color:#F70F47"/>
				<stop  offset="1" style="stop-color:#FFB41D"/>
			</linearGradient>
			<path class="st29" d="M286,174.4c-1.9-7.5,5.8-8.9,8.3-3.4c3.4,7.7,3.2,32.3,3,37.3c0,0.6,0.1,1.4-0.2,1.7
				c-0.8,0.3-1.6,0.5-2.5,0.4c-0.9,0-1.7,0-1.8-1.1C292.2,202,287.8,181.7,286,174.4z"/>
			
				<linearGradient id="SVGID_23_" gradientUnits="userSpaceOnUse" x1="259.4137" y1="70.008" x2="297.1137" y2="141.608" gradientTransform="matrix(1 0 0 -1 0 277.89)">
				<stop  offset="0" style="stop-color:#F70F47"/>
				<stop  offset="1" style="stop-color:#FFB41D"/>
			</linearGradient>
			<path class="st30" d="M279.1,145.1c-0.8-9.4,2.9-16.6,8.7-13.5c2.4,1.3,3.3,3.9,3.7,6.4s2.1,27.9,2.8,32.5
				c1.4,10.4-6.8,7.6-7.7,4.7C284.3,167.9,279.5,150.2,279.1,145.1z"/>
			
				<linearGradient id="SVGID_24_" gradientUnits="userSpaceOnUse" x1="259.8491" y1="69.781" x2="297.5491" y2="141.381" gradientTransform="matrix(1 0 0 -1 0 277.89)">
				<stop  offset="0" style="stop-color:#F70F47"/>
				<stop  offset="1" style="stop-color:#FFB41D"/>
			</linearGradient>
			<path class="st31" d="M271.4,212c0.3-11,5-30.3,2.3-39.3c-1.7-5.7-8.5-5.9-8.3,1.2c0.3,7.5,2.6,22,1.8,36.6
				C267.2,211.9,271.4,213.3,271.4,212z"/>
			
				<linearGradient id="SVGID_25_" gradientUnits="userSpaceOnUse" x1="245.8187" y1="77.1607" x2="283.5187" y2="148.7607" gradientTransform="matrix(1 0 0 -1 0 277.89)">
				<stop  offset="0" style="stop-color:#F70F47"/>
				<stop  offset="1" style="stop-color:#FFB41D"/>
			</linearGradient>
			<path class="st32" d="M273.4,174.6c-0.9,2.9-8.7,6.2-7.9-4.3c0.4-4.6,1.3-30.2,1.5-32.6s0.6-6.1,1.9-6.5
				c6.2-2.2,12.2,5.1,10.6,14.3C278.3,151.8,275.3,168.7,273.4,174.6z"/>
			
				<ellipse transform="matrix(0.9257 -0.3782 0.3782 0.9257 -9.3377 110.1778)" class="st10" cx="275.9" cy="78.9" rx="1.4" ry="2.6"/>
			
				<ellipse transform="matrix(0.378 -0.9258 0.9258 0.378 106.3559 315.9621)" class="st10" cx="288.3" cy="78.8" rx="2.6" ry="1.4"/>
			<path class="st10" d="M280.3,119c-1-0.5-8.9-4.1-9-2.2c-0.1,2.1,2.8,4.2,3.8,4.8c1.6,1,3.6,0.9,5.1-0.3
				C280.9,120.6,281.3,119.5,280.3,119z"/>
			<path class="st10" d="M279.2,117.6c-0.5-0.2-3.3-1.3-3.5-0.8c-0.4,0.8,1.4,1.6,2.6,2.1c0.6,0.3,1.7,0.3,1.9-0.3
				S279.9,117.9,279.2,117.6z"/>
			
				<linearGradient id="SVGID_26_" gradientUnits="userSpaceOnUse" x1="270.7709" y1="214.4441" x2="303.3409" y2="189.3641" gradientTransform="matrix(1 0 0 -1 0 277.89)">
				<stop  offset="0" style="stop-color:#0000FF"/>
				<stop  offset="1" style="stop-color:#9E005D"/>
			</linearGradient>
			<path class="st33" d="M287.3,71.6c-1.5,2.2-8.7,2.4-11,1.6s-2.2-5.4,1.2-5.7c1.9,0,0.5,0.4,2.1,1.1
				C280.2,68.9,288.9,69.2,287.3,71.6z"/>
			
				<linearGradient id="SVGID_27_" gradientUnits="userSpaceOnUse" x1="257.9536" y1="127.3756" x2="308.2837" y2="184.8356" gradientTransform="matrix(1 0 0 -1 0 277.89)">
				<stop  offset="0" style="stop-color:#36078B"/>
				<stop  offset="1" style="stop-color:#16B1FF"/>
			</linearGradient>
			<path class="st34" d="M277.2,121.8c1.8,0.6,3.3,0,7.7-0.9c6.3-1.4,7.7-2.1,11.2-4.3c2.3-1.4-1.6-6.2-5.1-5.2
				c-3,0.9-12.1,7.5-13.9,8C275.9,119.8,275.7,121.3,277.2,121.8z"/>
			
				<linearGradient id="SVGID_28_" gradientUnits="userSpaceOnUse" x1="254.9411" y1="130.0078" x2="305.2711" y2="187.4778" gradientTransform="matrix(1 0 0 -1 0 277.89)">
				<stop  offset="0" style="stop-color:#36078B"/>
				<stop  offset="1" style="stop-color:#16B1FF"/>
			</linearGradient>
			<path class="st35" d="M296.7,115.6c0.4-1.4,0.9-4.7,0-12.8c-0.3-2.9-0.8-5.7-1.5-8.4c-0.7-2.6-3.4-3.3-4.6-2.5
				c-1.9,1.3-3.5,4.4-3.2,5.8c1.5,7.9,3.2,13.9,3.2,15.9C290.6,116.5,296.2,117.3,296.7,115.6z"/>
			<g>
				<defs>
					<path id="SVGID_29_" d="M297.8,212.9c-0.4-1-0.6-2.1-0.6-3.2c0.1-0.5,0.2-1,0.1-1.5c0.2-4.9,0.5-29.6-3-37.3l0,0
						c0-0.2,0-0.3-0.1-0.5c-0.6-4.5-2.4-28.9-2.7-32.3c0-2.8-0.2-5.5-0.8-8.2c-0.3-3.6-0.2-7.1,0.1-10.7c1.8-0.7,3.6-1.6,5.2-2.7
						c0.3-0.2,0.6-0.5,0.6-0.9l0,0c0.4-1.4,0.9-4.7,0-12.8c-0.3-2.9-0.8-5.7-1.5-8.4c-0.2-0.8-0.6-1.5-1.2-2
						c-1.1-1.8-2.8-3.1-4.9-3.6c-0.8-0.2-1.6-0.4-2.4-0.4c0-0.8-0.1-1.7-0.2-2.5c0-0.2-0.1-0.4-0.1-0.6c0.8-0.7,1.4-1.6,1.7-2.6
						c0.3-0.6,0.6-1.3,0.8-2c0.4-0.4,0.6-0.8,0.8-1.3c0.5-1.3,0.4-2.5-0.2-2.9c0.1-2.7-0.2-4.7-1.9-5.4c0.1-1.9-7.3-2.2-8-2.5
						c-1.5-0.6-0.2-1.1-2.1-1.1c-3.4,0.3-3.5,4.9-1.2,5.7h0.1c-0.1,0.3-0.2,0.6-0.3,0.9c-0.1,0.9-0.2,1.7-0.2,2.5
						c-0.3-0.2-0.6-0.3-1-0.2c-0.7,0.3-0.8,1.6-0.3,2.9c0.3,0.8,0.8,1.4,1.5,1.8c0.1,0.7,0.2,1.3,0.4,2c0.4,1.6,1.7,3.9,3.6,4
						c0,0.1,0,0.3,0,0.4c0,0.2,0,0.4,0,0.7c-1.7,0.1-3.4,0.4-5,1c-1.9,0.6-3.9,1.8-4.3,2.9l-0.5,1.3c-0.4,0.7-0.6,1.4-0.8,2.1
						c-2.2,5.9-3.7,10.3-4.5,11.7c-0.1,0.2-0.2,0.5-0.3,0.8c-2.3,2.1-7.4,9.8-9.3,12h-0.1c-0.3,0-0.6,0-0.9,0
						c-0.6,0-3.9,0.2-3.9,0.8s0.9,0.8,1.9,0.9c-2.7,1.7-6.2,4.3-5,5.2c1.9,1.4,5.6,0.2,6.8-0.4c1.6-0.7,2.7-2.2,3-4
						c1.3-0.3,2.7-0.9,5.4-3c2.3-1.8,4-3.3,5.5-4.6c-0.3,8.2-0.4,15.2-0.4,15.2c-0.5,4.7-0.8,9.4-0.8,14.1l0,0
						c-0.4,8.6-1,22.9-1.2,26.3c-0.1,0.7-0.1,1.5,0,2.2c0,0.4,0,0.8,0,1.3c0.3,7.4,2.5,21.8,1.8,36.1c-0.1,0.1-0.2,0.2-0.3,0.4
						c-0.9,1.1-2,1.9-3.3,2.4c-1.8,0.8-5.5,1.1-3.4,1.8c1.9,0.4,3.8,0.5,5.7,0.1c1.3-0.2,2.5-0.2,3.8-0.2c1.9,0,1.9-0.1,1.6-2.2
						c0-0.1,0-0.1,0-0.2l0,0c0.3-10.8,4.8-29.6,2.4-38.8c1.8-6.6,4.3-20.6,5.4-26.9c0.8,5.6,4.3,18.5,6.5,26.1
						c0,0.6,0.1,1.3,0.3,1.9c1.8,7.3,6.2,27.6,6.8,34.8l0,0c-0.2,0.8-0.1,1.2-0.2,1.8c-0.1,0.8-0.9,1.1-1.4,1.8s-1.3,1.9,1.8,1.9
						C296.4,214.8,298.4,214.7,297.8,212.9z"/>
				</defs>
				<clipPath id="SVGID_30_">
					<use xlink:href="#SVGID_29_"  style="overflow:visible;"/>
				</clipPath>
			</g>
			<path class="st10" d="M134.1,137.8c1.3,0.3,3.4,0.8,4.5,1s0.8,2.8,0.2,3.2c-1,0.6-4.3,1.1-5-0.1s-2.1-1-2.3-2.3
				S131.9,137.3,134.1,137.8z"/>
			
				<linearGradient id="SVGID_31_" gradientUnits="userSpaceOnUse" x1="-224.5754" y1="91.4813" x2="-222.4854" y2="119.2213" gradientTransform="matrix(-1 4.000000e-02 -4.000000e-02 -1 -96.7644 317.01)">
				<stop  offset="0" style="stop-color:#36078B"/>
				<stop  offset="1" style="stop-color:#16B1FF"/>
			</linearGradient>
			<path class="st36" d="M122.2,209.3c0.9,1.1,2.1,1.9,3.5,2.3c1.8,0.7,5.7,0.9,3.6,1.7c-1.9,0.5-3.9,0.6-5.9,0.3
				c-1.3-0.1-2.7-0.2-4-0.1c-2,0.1-2-0.1-1.8-2.2C117.9,208.4,121.3,207.7,122.2,209.3z"/>
			
				<linearGradient id="SVGID_32_" gradientUnits="userSpaceOnUse" x1="-183.937" y1="88.4089" x2="-181.837" y2="116.1589" gradientTransform="matrix(-1 4.000000e-02 -4.000000e-02 -1 -96.7644 317.01)">
				<stop  offset="0" style="stop-color:#36078B"/>
				<stop  offset="1" style="stop-color:#16B1FF"/>
			</linearGradient>
			<path class="st37" d="M81.3,206.4c0.3,0.5,1.1,3.3,3,4s5.1,1.5,3,2.3c-1.9,0.5-3.9,0.6-5.9,0.3c-1.3-0.1-1.6-1.7-2.9-2.4
				c-2-1.1-1.8-0.9-1.6-3.1c0.1-1.3,1.2-2.3,2.5-2.2C80.2,205.4,80.9,205.8,81.3,206.4z"/>
			
				<linearGradient id="SVGID_33_" gradientUnits="userSpaceOnUse" x1="-1885.7236" y1="-1.0517" x2="-1851.1437" y2="-25.7617" gradientTransform="matrix(0.9753 0.2209 0.2209 -0.9753 1956.3279 523.6056)">
				<stop  offset="0" style="stop-color:#36078B"/>
				<stop  offset="1" style="stop-color:#16B1FF"/>
			</linearGradient>
			<path class="st38" d="M135,137.5c-1.6-1.8-2.5-4.6-3.5-6.8c-1.2-2.9-2.9-5.6-4.8-8.1c-0.2-0.3-0.5-0.6-0.7-0.9
				c-0.5-1.3-0.7-2.6-0.7-4c-0.1-1.3-0.2-2.7-0.3-4.1c-0.3-3.9-0.5-7.8-0.8-11.7c-0.1-1.5-2.7-4.2-5-3.6c-2.6,0.7-3.3,1.8-3.3,4.6
				c0,3,0.3,5.9,0.8,8.8c0.9,6,2.2,12.5,6.1,17.4c1.5,1.9,3,3.9,4.6,5.7c3,3.5,4.2,4,6.1,4.5C135.2,139.9,135.9,138.5,135,137.5z"/>
			
				<linearGradient id="SVGID_34_" gradientUnits="userSpaceOnUse" x1="-237.6421" y1="218.3225" x2="-211.4821" y2="247.6025" gradientTransform="matrix(-1 4.000000e-02 -4.000000e-02 -1 -96.7644 317.01)">
				<stop  offset="0" style="stop-color:#2C27CE"/>
				<stop  offset="0.65" style="stop-color:#EF1D68"/>
				<stop  offset="1" style="stop-color:#EFBA92"/>
			</linearGradient>
			<path class="st39" d="M120.9,83.3c1.3,1.1,1.9,1.2,2.9-0.5c0-0.1,5.3-5.1,0.5-7c-2.2-0.9-4-1.4-4.5,1.8S119.3,82.1,120.9,83.3z"
				/>
			<path class="st13" d="M112.5,83.7c-0.1,0.2-2.3,4.7-3.7,8.2c-0.6,1.9,0.4,3.9,2.2,4.7h0.1c1.7,0.6,4.3-0.2,4.8-1.9
				c0.6-2.2,1.4-4.3,2.3-6.3L112.5,83.7z"/>
			
				<linearGradient id="SVGID_35_" gradientUnits="userSpaceOnUse" x1="-2058.8569" y1="177.4409" x2="-1992.5968" y2="228.1009" gradientTransform="matrix(1 -4.000000e-02 -4.000000e-02 -1 2151.3655 232.02)">
				<stop  offset="0" style="stop-color:#36078B"/>
				<stop  offset="1" style="stop-color:#16B1FF"/>
			</linearGradient>
			<path class="st40" d="M99.8,102.1c1.3,10.8,0.6,28-1.3,35.1l23.9-0.9c0,0,1.4-15.4,2.6-28.8c0.3-2.5,0.2-5-0.3-7.4
				c-0.6-2.4-2.1-4.5-4.2-5.8c-1.9-1.1-4-1.9-6.1-2.2c-1.9-0.5-3.9-0.8-5.9-0.8c-2.7,0-5.6,0.6-7.3,2.9c-1.4,2-1.6,4.7-1.4,7.2
				C99.7,101.5,99.7,101.8,99.8,102.1z"/>
			
				<linearGradient id="SVGID_36_" gradientUnits="userSpaceOnUse" x1="-230.1017" y1="95.6617" x2="-217.9517" y2="147.6817" gradientTransform="matrix(-1 4.000000e-02 -4.000000e-02 -1 -96.7644 317.01)">
				<stop  offset="0" style="stop-color:#FF664F"/>
				<stop  offset="1" style="stop-color:#9E005D"/>
			</linearGradient>
			<path class="st41" d="M99.1,151.8c0,0-2.3-4.9-0.7-14.6l23.9-0.9c0.7,4.8,1.2,9.7,1.4,14.6L99.1,151.8z"/>
			
				<linearGradient id="SVGID_37_" gradientUnits="userSpaceOnUse" x1="-202.7621" y1="74.8578" x2="-186.9821" y2="142.4278" gradientTransform="matrix(-1 4.000000e-02 -4.000000e-02 -1 -96.7644 317.01)">
				<stop  offset="0" style="stop-color:#FF664F"/>
				<stop  offset="1" style="stop-color:#9E005D"/>
			</linearGradient>
			<path class="st42" d="M101.5,180.4c5.6-5.7,2.4-10.7-3.4-8.6c-8.2,3-17,30.3-20.6,33.9c-0.5,0.5-0.1,0.6,0.2,0.8
				c1.1,0.5,1.8-0.3,3.1,0.1c0.5,0.2,1.3,1.5,1.3,1.5C87.6,202,96.1,185.9,101.5,180.4z"/>
			
				<linearGradient id="SVGID_38_" gradientUnits="userSpaceOnUse" x1="-218.8732" y1="93.0381" x2="-206.7232" y2="145.0581" gradientTransform="matrix(-1 4.000000e-02 -4.000000e-02 -1 -96.7644 317.01)">
				<stop  offset="0" style="stop-color:#FF664F"/>
				<stop  offset="1" style="stop-color:#9E005D"/>
			</linearGradient>
			<path class="st43" d="M111,152.4c0.5-9.7-3.6-17-9.5-13.6c-2.5,1.4-3.3,4.2-3.5,6.7s-1.4,22-1.8,26.8c-1.1,10.8,7.9,7.3,8.7,4.3
				C106.9,169,110.8,157.7,111,152.4z"/>
			
				<linearGradient id="SVGID_39_" gradientUnits="userSpaceOnUse" x1="-230.3811" y1="86.1559" x2="-215.7711" y2="148.7059" gradientTransform="matrix(-1 4.000000e-02 -4.000000e-02 -1 -96.7644 317.01)">
				<stop  offset="0" style="stop-color:#FF664F"/>
				<stop  offset="1" style="stop-color:#9E005D"/>
			</linearGradient>
			<path class="st44" d="M125.9,173c-0.4-7.3-4.2-8.8-7.7-3.8c-5.5,8,0.1,32.4-0.5,41.9c1.2-1.1,2.9-1.5,4.5-1.3
				c0.8,0.3,0.2-1,0.2-1C125.3,194,126.3,179.4,125.9,173z"/>
			
				<linearGradient id="SVGID_40_" gradientUnits="userSpaceOnUse" x1="-234.7533" y1="96.7451" x2="-222.6033" y2="148.7651" gradientTransform="matrix(-1 4.000000e-02 -4.000000e-02 -1 -96.7644 317.01)">
				<stop  offset="0" style="stop-color:#FF664F"/>
				<stop  offset="1" style="stop-color:#9E005D"/>
			</linearGradient>
			<path class="st45" d="M116.5,174.9c1.1,2.9,10.6,7,9.3-3.7c-0.6-4.8-2.3-24.2-2.6-26.8s-0.9-6.2-2.2-6.6
				c-6.5-2.1-12.4,5.7-10.3,15.2C112.1,159.3,114.3,168.8,116.5,174.9z"/>
			
				<linearGradient id="SVGID_41_" gradientUnits="userSpaceOnUse" x1="-238.2316" y1="194.7519" x2="-204.6816" y2="230.7019" gradientTransform="matrix(-1 4.000000e-02 -4.000000e-02 -1 -98.8044 317.09)">
				<stop  offset="0" style="stop-color:#36078B"/>
				<stop  offset="1" style="stop-color:#16B1FF"/>
			</linearGradient>
			<path class="st46" d="M114.4,115c-1.8-1.5-3.5-3.1-5-4.9c-1.2-1.4-2.3-2.9-3.4-4.3c-1.8-2.3-3.4-4.8-4.8-7.4
				c-1.2-2-0.5-4.6,1.5-5.7c0.2-0.1,0.3-0.2,0.5-0.3c2.3-0.7,3.7,0.6,6.2,3c5.6,5.4,8.3,13,9.7,15.2c0.4,0,0-0.1,0.4,0
				c3.1,0.8,14.4-7.7,19.8-8.9c1.3-0.3,3,2.7,1.6,3.2c-1.8,0.7-7.1,5.4-11,7.9c-3.3,2.1-8.7,5.8-11.3,4.7c-1.4-0.6-2.7-1.3-3.9-2.2
				L114.4,115z"/>
			<path class="st10" d="M110.8,80.7c-0.6,4.2-0.7,5.1,0.7,7.2c1.4,2,3.4,3.4,5.7,4c2.1,0.5,4.2-1.3,5.1-2.9c1.6-3.2,2.6-6.8,3-10.4
				c0-3-1.9-5.6-4.8-6.5C117.6,71.4,112.2,70.4,110.8,80.7z"/>
			
				<linearGradient id="SVGID_42_" gradientUnits="userSpaceOnUse" x1="-233.9097" y1="214.9871" x2="-207.7497" y2="244.2671" gradientTransform="matrix(-1 4.000000e-02 -4.000000e-02 -1 -96.7644 317.01)">
				<stop  offset="0" style="stop-color:#2C27CE"/>
				<stop  offset="0.65" style="stop-color:#EF1D68"/>
				<stop  offset="1" style="stop-color:#EFBA92"/>
			</linearGradient>
			<path class="st47" d="M110.9,80.1c0.8,1.4,1.4,1.7,2.8,0.5c1.1-0.9,4.4-4.7,2.7-6.2s-3.1-2.6-4.6,0.1S109.9,78.4,110.9,80.1z"/>
			
				<ellipse transform="matrix(0.9891 -0.1475 0.1475 0.9891 -10.7751 17.1795)" class="st10" cx="110.5" cy="81.3" rx="1.5" ry="2.8"/>
			
				<linearGradient id="SVGID_43_" gradientUnits="userSpaceOnUse" x1="-239.9803" y1="220.4177" x2="-213.8203" y2="249.6977" gradientTransform="matrix(-1 4.000000e-02 -4.000000e-02 -1 -96.7644 317.01)">
				<stop  offset="0" style="stop-color:#2C27CE"/>
				<stop  offset="0.65" style="stop-color:#EF1D68"/>
				<stop  offset="1" style="stop-color:#EFBA92"/>
			</linearGradient>
			<path class="st48" d="M114,72.9c1,2.8,8.7,4.9,11.4,4.6s3.7-5.2,0.2-6.4c-2-0.5-0.7,0.3-2.5,0.6C122.2,71.9,112.9,70,114,72.9z"
				/>
			<path class="st10" d="M138.2,102c1-0.8,5.1-4.9,5.7-2.8c0.6,1.6,0.2,3.5-1.1,4.7c-1.8,1.7-2.6,1.4-3.9,0.6
				C138,103.9,137.3,102.7,138.2,102z"/>
			<path class="st10" d="M143,98.5c0.5-0.3,3.3-2.2,3.6-1.7c0.4,0.7-1.4,2-2.6,2.9c-0.6,0.5-1.8,0.7-2,0.2S142.3,99.1,143,98.5z"/>
			<g>
				<defs>
					<path id="SVGID_44_" d="M76.9,207.6c0-0.5,0.2-1,0.4-1.4c-0.1-0.1,0-0.3,0.2-0.5c3.2-3.4,11-26.6,18.6-32.7
						c0-0.2,0-0.5,0.1-0.7c0.5-4.7,1.5-23.4,1.8-26.6c-0.1-2.8,0-5.7,0.5-8.5c1.9-7.1,2.6-24.3,1.3-35.1c0-0.3-0.1-0.7-0.1-1
						c-0.2-2.4,0-5.1,1.4-7.2c0.3-0.4,0.5-0.7,0.9-1l0.3-0.2c1.8-1.2,3.9-1.8,6.1-1.7h0.7c0.6-1.4,1.2-2.9,1.8-4.2
						c-0.5-0.9-0.6-2-0.5-3c-0.8-0.6-1.3-1.5-1.4-2.4c-0.2-1.6,0.2-2.9,1.1-3c0.1,0,0.2,0,0.3,0c0-1.1,0.5-2.2,1.4-4
						c0.7-1.3,1.4-1.7,2.1-1.7c-0.8-2.8,8.3-0.9,9.2-1.1c1.8-0.3,0.5-1.1,2.5-0.6c1.8,0.6,2.7,2.6,2.1,4.3c-0.3,0.8-0.8,1.4-1.5,1.8
						c0.7,1.5-0.5,3.4-1.4,4.5c-0.5,2.5-1.4,4.9-2.5,7.2c-0.9,1.6-3,3.4-5.1,2.9l-0.4-0.1l-0.3,0.7c1.4,0.4,2.8,1,4,1.7
						c2.1,1.3,3.6,3.4,4.2,5.8c0.5,2.4,0.6,5,0.3,7.4l-0.2,2.1l0.2,3.2c3.2,1.8,6.4,3.3,9.7,4.8c0.3-0.2,0.7-0.2,1-0.1
						c0.9,0.3,4.4,1.2,5.4,2.3h0.1c0.5,0.2,3.6,1.7,3.3,2.2c-0.4,0.7-2.5-0.1-3.8-0.7l0,0c-1.1,1.1-2.6,1.5-4.1,1.1
						c-0.6-0.1-1.3-0.4-1.8-0.8c-1.7,0.4-3.7-0.4-7.8-1.5l-1.3-0.3c0.1,0.7,0.2,1.4,0.6,2.1c0.2,0.3,0.4,0.6,0.7,0.9
						c1.9,2.5,3.6,5.2,4.8,8.1c1,2.2,1.9,4.9,3.5,6.8c0.1,0.2,0.2,0.3,0.3,0.5c1.2,0.3,2.5,0.6,3.3,0.7c1.1,0.2,0.8,2.8,0.2,3.2
						c-1,0.6-4.3,1.1-5-0.1s-2.1-1-2.3-2.3c-0.1-0.3-0.1-0.6,0-0.9c-1.5-1-2.8-2.2-3.9-3.7c-1.6-1.8-3.1-3.7-4.5-5.6
						c-0.4,4.2-0.6,7-0.6,7s1,5.9,1.3,13c0.6,6.8,1.7,18.3,2.1,21.8c0.1,0.6,0.1,1.1,0.1,1.7c0,0,0,0.1,0,0.1
						c0.3,6.5-0.6,21-3.6,35.9c0.1,0.3,0.2,0.5,0.2,0.8c0.9,0.9,2,1.5,3.2,1.9c1.8,0.7,5.7,0.9,3.6,1.7c-1.9,0.5-3.9,0.6-5.9,0.3
						c-1.3-0.1-2.7-0.2-4-0.1c-2,0.1-2-0.1-1.8-2.2c0-0.1,0-0.2,0-0.3l0,0c0.5-8-3.3-26.4-1.4-36.8c-2.2-6.8-4-13.6-5.4-20.6
						c-0.7,5.7-4.1,15.9-6,22.9c-0.4,1-1.1,1.7-2,2.2c-0.4,0.6-0.8,1.1-1.3,1.6c-5.4,5.5-14,21.6-19.4,27.8c0.4,1,1.2,1.8,2.2,2.3
						c1.8,0.7,5.1,1.5,3,2.3c-1.9,0.5-3.9,0.6-5.9,0.3c-1.3-0.1-1.6-1.7-2.9-2.4C76.5,209.6,76.7,209.7,76.9,207.6z"/>
				</defs>
				<clipPath id="SVGID_45_">
					<use xlink:href="#SVGID_44_"  style="overflow:visible;"/>
				</clipPath>
			</g>
			
				<linearGradient id="SVGID_46_" gradientUnits="userSpaceOnUse" x1="189.3267" y1="59.4697" x2="190.3467" y2="86.2297" gradientTransform="matrix(1 0 0 -1 0 277.89)">
				<stop  offset="0" style="stop-color:#36078B"/>
				<stop  offset="1" style="stop-color:#168D68"/>
			</linearGradient>
			<path class="st49" d="M188.1,207.6c-0.2,0.7-0.2,1.4-0.3,2.1c-0.1,0.8-0.9,1.1-1.4,1.8s-1.3,2,1.8,2c3.3,0.1,5.3-0.2,4.7-2
				c-0.4-1-0.6-2.1-0.6-3.2c0.1-0.5,0-1.1-0.4-1.6C191.6,206.5,188.6,205.8,188.1,207.6z"/>
			
				<linearGradient id="SVGID_47_" gradientUnits="userSpaceOnUse" x1="167.0285" y1="177.3957" x2="150.8985" y2="167.7657" gradientTransform="matrix(1 0 0 -1 0 277.89)">
				<stop  offset="0" style="stop-color:#36078B"/>
				<stop  offset="1" style="stop-color:#168D68"/>
			</linearGradient>
			<path class="st50" d="M162,111.6c1.3-0.7,3.8-2.8,8.5-9.2c1.7-2.2,3.2-4.6,4.5-7.1c1.3-2.3,0.1-4.4-1.6-4.8
				c-2.2-0.5-4.6-0.2-7.1,3.5c-2.7,3.9-5.2,8-7.4,12.2C157,109.6,160.5,112.5,162,111.6z"/>
			
				<linearGradient id="SVGID_48_" gradientUnits="userSpaceOnUse" x1="175.9624" y1="196.9188" x2="167.1725" y2="210.6688" gradientTransform="matrix(1 0 0 -1 0 277.89)">
				<stop  offset="0" style="stop-color:#36078B"/>
				<stop  offset="1" style="stop-color:#16B1FF"/>
			</linearGradient>
			<path class="st51" d="M173.7,80.6c-1.4,0.6-1.9,0.6-2.4-1c-0.4-1.3-1-5.9,1.1-6.2s3.7-0.4,3.5,2.5S175.3,79.8,173.7,80.6z"/>
			<path class="st52" d="M181.6,83.1c0,0.2,0.5,4.6,0.6,8c-0.1,1.8-1.5,3.2-3.3,3.3h-0.1c-1.6,0-3.5-1.5-3.4-3.1c0.2-2,0.2-4,0.1-6
				L181.6,83.1z"/>
			
				<linearGradient id="SVGID_49_" gradientUnits="userSpaceOnUse" x1="163.32" y1="168.13" x2="190.5364" y2="168.13" gradientTransform="matrix(1 0 0 -1 0 277.89)">
				<stop  offset="0" style="stop-color:#36078B"/>
				<stop  offset="1" style="stop-color:#16B1FF"/>
			</linearGradient>
			<path class="st53" d="M189.8,101.4c-3,9.9-4.4,21.9-3.8,28.8h-22.7c0,0,0.1-21.3,1.6-32.9c0.4-2.9,2.2-5.4,4.8-6.7
				c1.9-0.8,3.9-1.3,6-1.3h4.2c1.5,0.1,3,0.2,4.4,0.6C190.4,91,191.5,95.6,189.8,101.4z"/>
			
				<linearGradient id="SVGID_50_" gradientUnits="userSpaceOnUse" x1="181.4452" y1="72.4405" x2="171.2452" y2="183.6005" gradientTransform="matrix(1 0 0 -1 0 277.89)">
				<stop  offset="0" style="stop-color:#F70F47"/>
				<stop  offset="1" style="stop-color:#FFB41D"/>
			</linearGradient>
			<path class="st54" d="M185.9,144.1c0,0,2-4.8,0.1-13.9h-22.7c-0.1,4.6,0.2,9.3,0.9,13.9H185.9z"/>
			
				<linearGradient id="SVGID_51_" gradientUnits="userSpaceOnUse" x1="189.024" y1="73.1404" x2="178.824" y2="184.2904" gradientTransform="matrix(1 0 0 -1 0 277.89)">
				<stop  offset="0" style="stop-color:#F70F47"/>
				<stop  offset="1" style="stop-color:#FFB41D"/>
			</linearGradient>
			<path class="st55" d="M181.4,173.8c-1.8-7.4,5.7-8.7,8.1-3.3c3.4,7.6,3.1,32.8,2.9,37.6c0,0.6,0,0.6-0.4,0.5
				c-0.6-0.1-1.1-1.3-2.6-1.3c-0.9,0-1.5,1.1-1.5,1.1C187.3,201.7,183.2,181,181.4,173.8z"/>
			
				<linearGradient id="SVGID_52_" gradientUnits="userSpaceOnUse" x1="186.8687" y1="72.9399" x2="176.6687" y2="184.0899" gradientTransform="matrix(1 0 0 -1 0 277.89)">
				<stop  offset="0" style="stop-color:#F70F47"/>
				<stop  offset="1" style="stop-color:#FFB41D"/>
			</linearGradient>
			<path class="st56" d="M175.3,145.1c-0.8-9.2,2.2-16.3,7.9-13.3c2.4,1.3,3.3,3.8,3.6,6.2s2.1,27.4,2.7,31.9
				c1.4,10.2-6.6,7.4-7.5,4.6C179.8,167.4,175.8,150.1,175.3,145.1z"/>
			
				<linearGradient id="SVGID_53_" gradientUnits="userSpaceOnUse" x1="175.0743" y1="71.8595" x2="164.8743" y2="183.0095" gradientTransform="matrix(1 0 0 -1 0 277.89)">
				<stop  offset="0" style="stop-color:#F70F47"/>
				<stop  offset="1" style="stop-color:#FFB41D"/>
			</linearGradient>
			<path class="st57" d="M167.4,173.8c-1.4-6.7,5.2-7.7,7.8-2.5c4.1,8.3,2.7,28.1,4.2,38.8c-1.5-1.6-2.6-1.6-3.1-1.5
				c-0.5,0.1-0.9,0.4-1.1,0.8C173,195.3,168.9,181,167.4,173.8z"/>
			<path class="st10" d="M165.4,104.1c-1.2-0.4-3.1-1.1-4.1-1.6s-2.1,1.8-1.8,2.4c0.4,1,2.8,3.1,4,2.5s2.2,0.3,3-0.6
				S167.4,104.8,165.4,104.1z"/>
			
				<linearGradient id="SVGID_54_" gradientUnits="userSpaceOnUse" x1="175.4472" y1="71.8797" x2="165.2372" y2="183.0797" gradientTransform="matrix(1 0 0 -1 0 277.89)">
				<stop  offset="0" style="stop-color:#F70F47"/>
				<stop  offset="1" style="stop-color:#FFB41D"/>
			</linearGradient>
			<path class="st58" d="M175.2,173.2c-0.4,2.9-7.4,7.4-8.4-2.8c-0.4-4.5-3-29.4-3.2-31.9s-0.5-6.1,0.3-6.7
				c5.3-3.6,11.4,2.9,11.3,12.1C175.2,150.1,176.1,167.2,175.2,173.2z"/>
			
				<linearGradient id="SVGID_55_" gradientUnits="userSpaceOnUse" x1="165.1008" y1="167.7336" x2="184.3008" y2="167.7336" gradientTransform="matrix(1 0 0 -1 0 277.89)">
				<stop  offset="0" style="stop-color:#0000FF"/>
				<stop  offset="1" style="stop-color:#9E005D"/>
			</linearGradient>
			<path class="st59" d="M165.3,106.4c0.8,1.7,2.3,2.3,6,4.7c5.3,3.4,8.3,4.7,10.9,4.8s3.1-5.4-0.1-7.1c-2.7-1.4-13.6-3.2-15.2-4.1
				C165.8,104.1,164.6,105,165.3,106.4z"/>
			
				<linearGradient id="SVGID_56_" gradientUnits="userSpaceOnUse" x1="158.538" y1="177.3431" x2="175.1832" y2="177.3431" gradientTransform="matrix(1 0 0 -1 0 277.89)">
				<stop  offset="0" style="stop-color:#0000FF"/>
				<stop  offset="1" style="stop-color:#9E005D"/>
			</linearGradient>
			<path class="st60" d="M175.2,90.7c-0.1,1.9-0.5,3.3-2.9,7c-3.1,4.9-7.1,11.8-9.3,13.6c-2,1.7-6-2.2-3.8-5
				c1.9-2.4,12.8-15,13.9-16.5C173.8,88.9,175.3,89.2,175.2,90.7z"/>
			<path class="st10" d="M183.8,79.9c-0.4,3.8-0.5,4.6-2.1,6.1c-1.6,1.4-3.6,2.2-5.8,2.2c-1.9,0-3.4-2-3.8-3.6
				c-0.7-3.2-0.9-6.4-0.4-9.6c0.6-2.6,2.9-4.4,5.5-4.6C179.9,70.4,184.7,70.7,183.8,79.9z"/>
			
				<linearGradient id="SVGID_57_" gradientUnits="userSpaceOnUse" x1="173.7041" y1="60.0602" x2="174.7241" y2="86.8302" gradientTransform="matrix(1 0 0 -1 0 277.89)">
				<stop  offset="0" style="stop-color:#36078B"/>
				<stop  offset="1" style="stop-color:#168D68"/>
			</linearGradient>
			<path class="st61" d="M175.2,209.1c-0.8,1.1-2,1.9-3.2,2.4c-1.7,0.7-5.4,1.1-3.3,1.7c1.8,0.4,3.7,0.5,5.6,0.1
				c1.2-0.2,2.5-0.2,3.8-0.2c1.9,0,1.9-0.1,1.6-2.1C179.3,208.2,176.1,207.6,175.2,209.1z"/>
			
				<linearGradient id="SVGID_58_" gradientUnits="userSpaceOnUse" x1="182.8074" y1="201.2911" x2="174.0174" y2="215.0511" gradientTransform="matrix(1 0 0 -1 0 277.89)">
				<stop  offset="0" style="stop-color:#36078B"/>
				<stop  offset="1" style="stop-color:#16B1FF"/>
			</linearGradient>
			<path class="st62" d="M183.8,79.3c-1,1-1.6,1.2-2.5-0.2c-0.8-1.1-2.9-5-1.1-6s3.3-1.6,4,1.1S185,78.1,183.8,79.3z"/>
			
				<ellipse transform="matrix(0.3783 -0.9257 0.9257 0.3783 39.8944 220.2823)" class="st10" cx="183.9" cy="80.4" rx="2.5" ry="1.3"/>
			<path class="st10" d="M173.1,92.1c-0.5-0.8-4.3-6.9-2.8-7.1c1.7-0.3,3.7,1.8,4.3,2.6c1,1.2,1.1,2.9,0.3,4.2
				C174.5,92.4,173.6,92.8,173.1,92.1z"/>
			
				<linearGradient id="SVGID_59_" gradientUnits="userSpaceOnUse" x1="178.45" y1="173.9652" x2="190.8008" y2="173.9652" gradientTransform="matrix(1 0 0 -1 0 277.89)">
				<stop  offset="0" style="stop-color:#0000FF"/>
				<stop  offset="1" style="stop-color:#9E005D"/>
			</linearGradient>
			<path class="st63" d="M182.9,115.8c1.3-0.6,3.1-4,5.7-11.5c0.9-2.6,1.7-5.4,2.2-8.1c0.5-2.6-1.6-4.3-3-4.1
				c-2.2,0.4-4.9,2.5-5.3,3.8c-1.9,7.7-3,13.7-3.8,15.4C177.5,113.8,181.5,116.5,182.9,115.8z"/>
			
				<linearGradient id="SVGID_60_" gradientUnits="userSpaceOnUse" x1="180.2084" y1="199.6326" x2="171.4184" y2="213.3826" gradientTransform="matrix(1 0 0 -1 0 277.89)">
				<stop  offset="0" style="stop-color:#36078B"/>
				<stop  offset="1" style="stop-color:#16B1FF"/>
			</linearGradient>
			<path class="st64" d="M182.6,72.9c-1.2,0.8-6.9,2.4-8.5,2.8c1-0.5,1.9-1.1,2.6-1.8c-2.1,0.3-4.2,0.3-6.3,0
				c0.6-0.4,1.1-0.8,1.6-1.3c-1,0-2-0.2-3-0.5c0,0,6.1-4.2,11.4-2.7C183.2,70.3,183.8,72.1,182.6,72.9z"/>
			<g>
				<defs>
					<path id="SVGID_61_" d="M193,211.6c-0.4-1-0.6-2-0.6-3c0.1,0,0.1-0.1,0.1-0.5c0.2-4.8,0.5-30-2.9-37.6l0,0c0-0.2,0-0.3-0.1-0.5
						c-0.6-4.4-2.3-28.4-2.7-31.7c0-2.7-0.2-5.4-0.8-8c-0.6-6.9,0.8-18.9,3.8-28.8c0.4-1.4,0.7-2.8,0.8-4.2c0.1-0.4,0.1-0.8,0.2-1.1
						c0.4-1.5-0.4-3.1-1.8-3.9c-1.2-1.3-2.8-2.1-4.6-2.4c-0.7-0.1-1.5-0.3-2.3-0.4c-0.1-1.3-0.1-2.5-0.2-3.6c0.9-0.8,1.5-1.8,1.6-3
						c0.8-0.3,1.4-1,1.7-1.9c0.5-1.3,0.4-2.6-0.3-2.9c-0.1,0-0.2,0-0.3,0c0.3-0.9,0.1-2-0.4-3.8c-0.3-1-0.7-1.6-1.2-1.8
						c0.6-0.9-0.2-2.3-2.5-3c-5.3-1.6-11.5,2.6-11.5,2.6c1,0.4,2,0.5,3,0.5c-0.5,0.5-1.1,0.9-1.7,1.2c0.3,0.1,0.7,0.1,1,0.2
						c-0.8,1.4-0.4,4.4-0.1,5.5c0.1,0.3,0.2,0.5,0.3,0.7c0.1,1.5,0.3,2.9,0.6,4.3c0.1,0.3,0.2,0.6,0.3,0.9c-0.6-0.4-1.4-0.6-2.1-0.6
						c-1,0.2,0.3,2.9,1.4,5c-0.7,0.2-1.4,0.4-2.1,0.8c-1.9,0.9-3.3,2.5-4.2,4.4c-2.1,3.1-3.6,5.5-4.6,7.4c-0.9,0.1-1.7,1.9-1.4,2.5
						l0,0l-0.6,1.2c-1.7,3.1,0.9,5.8,2.6,5.6c0.5,0.1,1.1,0,1.5-0.4c0.3-0.3,0.6-0.6,0.9-0.9c-0.5,9.9-0.6,19.8-0.6,19.8
						c-0.1,4.6,0.2,9.3,0.9,13.9l0,0c0.9,8.3,2.4,22.9,2.7,26.3c0.1,0.7,0.2,1.5,0.3,2.2c0,0.4,0.1,0.8,0.2,1.2
						c1.5,7.2,5.6,21.4,7.8,35.4c-0.9,1-1.9,1.8-3.2,2.3c-1.7,0.7-5.4,1.1-3.3,1.7c1.8,0.4,3.7,0.5,5.6,0.1c1.2-0.2,2.5-0.2,3.8-0.2
						c1.9,0,1.9-0.1,1.6-2.1c0-0.3-0.1-0.7-0.3-1c-1.4-10.6-0.2-29.7-4-38.2c0.6-6.8-0.1-21.5-0.1-27.5c0,0.3,0,0.5,0.1,0.8
						c0.4,4.4,3.6,18.6,5.9,26.7c0,0.7,0.1,1.3,0.3,2c1.8,7.2,5.9,27.9,6.6,34.5l0,0c-0.1,0.6-0.1,0.9-0.1,1.4
						c-0.1,0.8-0.9,1.1-1.4,1.8s-1.3,2,1.8,2C191.6,213.6,193.6,213.4,193,211.6z M175.6,88.2c0,0.4,0,0.7,0,1.1h-0.1
						c-0.1-0.4-0.2-0.9-0.4-1.2C175.2,88.1,175.4,88.2,175.6,88.2z"/>
				</defs>
				<clipPath id="SVGID_62_">
					<use xlink:href="#SVGID_61_"  style="overflow:visible;"/>
				</clipPath>
			</g>
		</g>
	</g>
</g>
</svg>
