<svg xmlns="http://www.w3.org/2000/svg" xmlns:xlink="http://www.w3.org/1999/xlink" viewBox="0 0 306.72 277.09"><defs><style>.cls-1{fill:none;}.cls-2{isolation:isolate;}.cls-3,.cls-4,.cls-47{opacity:0.2;}.cls-3{fill:url(#Gradient_bez_nazwy_8);}.cls-4{fill:url(#Gradient_bez_nazwy_5);}.cls-5,.cls-8{fill:#d1d4eb;}.cls-6{fill:#fff;}.cls-48,.cls-7,.cls-8{fill-rule:evenodd;}.cls-7{fill:url(#Gradient_bez_nazwy_8-2);}.cls-9{fill:url(#Gradient_bez_nazwy_5-2);}.cls-10{fill:url(#Gradient_bez_nazwy_5-3);}.cls-11{fill:url(#Gradient_bez_nazwy_5-4);}.cls-12{fill:url(#Gradient_bez_nazwy_5-5);}.cls-13{fill:url(#Gradient_bez_nazwy_5-6);}.cls-14{fill:url(#Gradient_bez_nazwy_5-7);}.cls-15{fill:url(#Безымянный_градиент_7);}.cls-16{fill:url(#Gradient_bez_nazwy_5-8);}.cls-17{fill:url(#Безымянный_градиент_7-2);}.cls-18{fill:url(#Gradient_bez_nazwy_5-9);}.cls-19{fill:url(#Gradient_bez_nazwy_5-10);}.cls-20{fill:url(#Gradient_bez_nazwy_5-11);}.cls-21{fill:url(#Безымянный_градиент_7-3);}.cls-22{fill:url(#Gradient_bez_nazwy_5-12);}.cls-23{fill:url(#Gradient_bez_nazwy_5-13);}.cls-24{fill:url(#Gradient_bez_nazwy_5-14);}.cls-25{fill:url(#Gradient_bez_nazwy_5-15);}.cls-26{fill:url(#Gradient_bez_nazwy_5-16);}.cls-27{fill:url(#Gradient_bez_nazwy_2);}.cls-28{fill:url(#Gradient_bez_nazwy_2-2);}.cls-29{fill:url(#Gradient_bez_nazwy_4);}.cls-30{fill:url(#Gradient_bez_nazwy_2-3);}.cls-31{fill:url(#Gradient_bez_nazwy_2-4);}.cls-32{fill:#ea8f68;}.cls-33{fill:url(#Gradient_bez_nazwy_2-5);}.cls-34{fill:url(#Gradient_bez_nazwy_10);}.cls-35{fill:url(#Gradient_bez_nazwy_5-17);}.cls-36{fill:url(#Gradient_bez_nazwy_5-18);}.cls-37{fill:url(#Gradient_bez_nazwy_5-19);}.cls-38{fill:url(#Gradient_bez_nazwy_5-20);}.cls-39{fill:#ffaf84;}.cls-40{fill:url(#Gradient_bez_nazwy_4-2);}.cls-41{fill:url(#Gradient_bez_nazwy_4-3);}.cls-42{fill:url(#Gradient_bez_nazwy_4-4);}.cls-43{fill:url(#Gradient_bez_nazwy_4-5);}.cls-44{fill:url(#Gradient_bez_nazwy_2-6);}.cls-45{fill:url(#Gradient_bez_nazwy_2-7);}.cls-46{clip-path:url(#clip-path);}.cls-47,.cls-66{mix-blend-mode:multiply;}.cls-47{fill:url(#Gradient_bez_nazwy_3);}.cls-48{fill:url(#Безымянный_градиент_7-4);}.cls-49{fill:url(#Gradient_bez_nazwy_5-21);}.cls-50{fill:url(#Gradient_bez_nazwy_5-22);}.cls-51{fill:#ff5b8c;}.cls-52{fill:#ff4064;}.cls-53{fill:#4d99ff;}.cls-54{fill:#fcfeff;}.cls-55{fill:#ffba01;}.cls-56{fill:url(#Gradient_bez_nazwy_5-23);}.cls-57{fill:url(#Gradient_bez_nazwy_5-24);}.cls-58{fill:#4e11f4;}.cls-59{fill:url(#Gradient_bez_nazwy_5-25);}.cls-60{fill:url(#Gradient_bez_nazwy_5-26);}.cls-61{fill:url(#Gradient_bez_nazwy_5-27);}.cls-62{fill:#f70f47;}.cls-63{fill:url(#Gradient_bez_nazwy_3-2);}.cls-64{fill:url(#Gradient_bez_nazwy_3-3);}.cls-65{clip-path:url(#clip-path-2);}.cls-66{opacity:0.3;fill:url(#Gradient_bez_nazwy_3-4);}.cls-67{fill:url(#Gradient_bez_nazwy_18);}.cls-68{fill:#c9fca7;}.cls-69{fill:url(#Безымянный_градиент_94);}.cls-70{fill:url(#Безымянный_градиент_75);}.cls-71{fill:url(#Безымянный_градиент_83);}.cls-72{fill:url(#Безымянный_градиент_114);}</style><linearGradient id="Gradient_bez_nazwy_8" x1="-1610.48" y1="2101.55" x2="-1403.18" y2="2101.55" gradientTransform="matrix(-1.08, -0.79, 0.74, -0.98, -3028.77, 1002.42)" gradientUnits="userSpaceOnUse"><stop offset="0" stop-color="#2c27ce"/><stop offset="1" stop-color="#ef1d68"/></linearGradient><linearGradient id="Gradient_bez_nazwy_5" x1="-728.43" y1="440.49" x2="-421.47" y2="440.49" gradientTransform="translate(270.92 -570.72) rotate(-43.41)" gradientUnits="userSpaceOnUse"><stop offset="0" stop-color="#36078b"/><stop offset="1" stop-color="#16b1ff"/></linearGradient><linearGradient id="Gradient_bez_nazwy_8-2" x1="132.58" y1="65.41" x2="169.67" y2="65.41" gradientTransform="matrix(1, 0, 0, 1, 0, 0)" xlink:href="#Gradient_bez_nazwy_8"/><linearGradient id="Gradient_bez_nazwy_5-2" x1="157.33" y1="82.42" x2="157.33" y2="73.23" gradientTransform="matrix(1, 0, 0, 1, 0, 0)" xlink:href="#Gradient_bez_nazwy_5"/><linearGradient id="Gradient_bez_nazwy_5-3" x1="157.33" y1="88.35" x2="157.33" y2="84.17" gradientTransform="matrix(1, 0, 0, 1, 0, 0)" xlink:href="#Gradient_bez_nazwy_5"/><linearGradient id="Gradient_bez_nazwy_5-4" x1="-12241.21" y1="172.93" x2="-12227.75" y2="158.5" gradientTransform="matrix(-1, -0.01, -0.01, 1, -12167.2, -57.83)" xlink:href="#Gradient_bez_nazwy_5"/><linearGradient id="Gradient_bez_nazwy_5-5" x1="-10160.44" y1="-1752.1" x2="-10146.98" y2="-1766.53" gradientTransform="matrix(-0.93, -0.37, -0.37, 0.93, -10001.75, -1957.49)" xlink:href="#Gradient_bez_nazwy_5"/><linearGradient id="Gradient_bez_nazwy_5-6" x1="-6838.19" y1="-2874.25" x2="-6826.01" y2="-2887.3" gradientTransform="matrix(-0.66, -0.75, -0.75, 0.66, -6598.28, -3012.32)" xlink:href="#Gradient_bez_nazwy_5"/><linearGradient id="Gradient_bez_nazwy_5-7" x1="-3444.83" y1="-2418.03" x2="-3433.88" y2="-2429.76" gradientTransform="matrix(-0.27, -0.96, -0.96, 0.27, -3164.6, -2465.26)" xlink:href="#Gradient_bez_nazwy_5"/><linearGradient id="Безымянный_градиент_7" x1="104.26" y1="219.92" x2="71.6" y2="169.91" gradientUnits="userSpaceOnUse"><stop offset="0" stop-color="#dd001e"/><stop offset="0.42" stop-color="#ab0639"/><stop offset="1" stop-color="#221783"/></linearGradient><linearGradient id="Gradient_bez_nazwy_5-8" x1="-12385.69" y1="223.92" x2="-12345.57" y2="160.47" gradientTransform="matrix(-1, 0, 0, 1, -12289.35, 0)" xlink:href="#Gradient_bez_nazwy_5"/><linearGradient id="Безымянный_градиент_7-2" x1="785.21" y1="1503.88" x2="821.98" y2="1464.48" gradientTransform="translate(-984.67 -1136.02) rotate(-11.52)" xlink:href="#Безымянный_градиент_7"/><linearGradient id="Gradient_bez_nazwy_5-9" x1="-12357.43" y1="224.94" x2="-12400.74" y2="156.45" gradientTransform="matrix(-1, 0, 0, 1, -12289.35, 0)" xlink:href="#Gradient_bez_nazwy_5"/><linearGradient id="Gradient_bez_nazwy_5-10" x1="-10892.19" y1="-1349.32" x2="-10824.58" y2="-1421.77" gradientTransform="matrix(-0.96, -0.27, -0.27, 0.96, -10774.51, -1518.19)" xlink:href="#Gradient_bez_nazwy_5"/><linearGradient id="Gradient_bez_nazwy_5-11" x1="-12382.17" y1="224.33" x2="-12322.32" y2="115.22" gradientTransform="matrix(-1, 0, 0, 1, -12289.35, 0)" xlink:href="#Gradient_bez_nazwy_5"/><linearGradient id="Безымянный_градиент_7-3" x1="-12572.07" y1="508.79" x2="-12523.29" y2="456.51" gradientTransform="matrix(-1, 0.05, 0.05, 1, -12522.3, 328.98)" xlink:href="#Безымянный_градиент_7"/><linearGradient id="Gradient_bez_nazwy_5-12" x1="-12376.02" y1="222.02" x2="-12310.56" y2="162.24" gradientTransform="matrix(-1, 0, 0, 1, -12289.35, 0)" xlink:href="#Gradient_bez_nazwy_5"/><linearGradient id="Gradient_bez_nazwy_5-13" x1="-12341.61" y1="152.17" x2="-12334.3" y2="138.82" gradientTransform="matrix(-1, 0, 0, 1, -12289.35, 0)" xlink:href="#Gradient_bez_nazwy_5"/><linearGradient id="Gradient_bez_nazwy_5-14" x1="-12338.92" y1="138.52" x2="-12334.3" y2="126.43" gradientTransform="matrix(-1, 0, 0, 1, -12289.35, 0)" xlink:href="#Gradient_bez_nazwy_5"/><linearGradient id="Gradient_bez_nazwy_5-15" x1="-12362.85" y1="144.68" x2="-12362.82" y2="133.23" gradientTransform="matrix(-1, 0, 0, 1, -12289.35, 0)" xlink:href="#Gradient_bez_nazwy_5"/><linearGradient id="Gradient_bez_nazwy_5-16" x1="-12355.09" y1="131.15" x2="-12353.15" y2="122.44" gradientTransform="matrix(-1, 0, 0, 1, -12289.35, 0)" xlink:href="#Gradient_bez_nazwy_5"/><linearGradient id="Gradient_bez_nazwy_2" x1="-12365.53" y1="211.25" x2="-12365.53" y2="231.81" gradientTransform="matrix(-1, 0, 0, 1, -12289.35, 0)" gradientUnits="userSpaceOnUse"><stop offset="0" stop-color="#f70f47"/><stop offset="1" stop-color="#9e005d"/></linearGradient><linearGradient id="Gradient_bez_nazwy_2-2" x1="-12365.53" y1="216.5" x2="-12365.53" y2="207.55" xlink:href="#Gradient_bez_nazwy_2"/><linearGradient id="Gradient_bez_nazwy_4" x1="118.86" y1="102.83" x2="71.55" y2="68.72" gradientUnits="userSpaceOnUse"><stop offset="0" stop-color="#2c27ce"/><stop offset="0.65" stop-color="#ef1d68"/><stop offset="1" stop-color="#efba92"/></linearGradient><linearGradient id="Gradient_bez_nazwy_2-3" x1="1261.92" y1="6819.06" x2="1247.31" y2="6855.49" gradientTransform="matrix(0.61, -0.79, 0.79, 0.61, -6066.32, -3095.69)" xlink:href="#Gradient_bez_nazwy_2"/><linearGradient id="Gradient_bez_nazwy_2-4" x1="1582.81" y1="4020.21" x2="1566.44" y2="4061.02" gradientTransform="matrix(0.85, -0.52, 0.52, 0.85, -3332.69, -2542.38)" xlink:href="#Gradient_bez_nazwy_2"/><linearGradient id="Gradient_bez_nazwy_2-5" x1="92.61" y1="98.78" x2="98.01" y2="145.19" gradientTransform="matrix(1, 0, 0, 1, 0, 0)" xlink:href="#Gradient_bez_nazwy_2"/><linearGradient id="Gradient_bez_nazwy_10" x1="102.22" y1="131.03" x2="80.81" y2="193.33" gradientUnits="userSpaceOnUse"><stop offset="0" stop-color="#36078b"/><stop offset="1" stop-color="#168d68"/></linearGradient><linearGradient id="Gradient_bez_nazwy_5-17" x1="-670.92" y1="-787.96" x2="-692.8" y2="-724.28" gradientTransform="matrix(0.99, 0.15, -0.15, 0.99, 657.08, 1018.34)" xlink:href="#Gradient_bez_nazwy_5"/><linearGradient id="Gradient_bez_nazwy_5-18" x1="98.77" y1="129.84" x2="77.37" y2="192.14" gradientTransform="matrix(1, 0, 0, 1, 0, 0)" xlink:href="#Gradient_bez_nazwy_5"/><linearGradient id="Gradient_bez_nazwy_5-19" x1="129.26" y1="140.32" x2="107.86" y2="202.62" gradientTransform="matrix(1, 0, 0, 1, 0, 0)" xlink:href="#Gradient_bez_nazwy_5"/><linearGradient id="Gradient_bez_nazwy_5-20" x1="115.11" y1="135.46" x2="93.7" y2="197.76" gradientTransform="matrix(1, 0, 0, 1, 0, 0)" xlink:href="#Gradient_bez_nazwy_5"/><linearGradient id="Gradient_bez_nazwy_4-2" x1="108.85" y1="257.35" x2="111.27" y2="227.54" xlink:href="#Gradient_bez_nazwy_4"/><linearGradient id="Gradient_bez_nazwy_4-3" x1="74.65" y1="262.89" x2="77.7" y2="225.31" xlink:href="#Gradient_bez_nazwy_4"/><linearGradient id="Gradient_bez_nazwy_4-4" x1="113.17" y1="96.32" x2="86.33" y2="65.7" xlink:href="#Gradient_bez_nazwy_4"/><linearGradient id="Gradient_bez_nazwy_4-5" x1="118.7" y1="91.49" x2="91.86" y2="60.86" xlink:href="#Gradient_bez_nazwy_4"/><linearGradient id="Gradient_bez_nazwy_2-6" x1="732.09" y1="1477.14" x2="715.98" y2="1517.3" gradientTransform="translate(-1226.94 -917.49) rotate(-26.03)" xlink:href="#Gradient_bez_nazwy_2"/><linearGradient id="Gradient_bez_nazwy_2-7" x1="-1224.1" y1="-915.37" x2="-1232.22" y2="-895.13" gradientTransform="translate(735.2 1502.7) rotate(28.48)" xlink:href="#Gradient_bez_nazwy_2"/><clipPath id="clip-path"><path class="cls-1" d="M151.72,124.36,128.17,91.53c.56-.6.87-1,.82-1.63a2,2,0,0,0-.48-1,3.26,3.26,0,0,0-.21-.69c-.44-1-2.54-2-3.27-2.11a.76.76,0,0,0-.63.21L119.94,80a3.18,3.18,0,0,0-4.43-.72l-6.29,4.51-9.65,6.92a8,8,0,0,0-2.2-.93A14.4,14.4,0,0,0,95,89.5l-1.56-.13c0-.58,0-1.14,0-1.67a10.54,10.54,0,0,0,1.67.15c2.55,0,4.44-2.7,5-4.81a35.22,35.22,0,0,0,.81-10.35c.5,1.2.71-3.23-.42-5.26a9,9,0,0,0-4-3.27A9.16,9.16,0,0,0,90.14,63c0-2.25-2-4.78-5.67-5.08-5.51-.45-15.29,2.72-10,15.56,5.46,13.36,3.75,16.78.08,18.78a16,16,0,0,0,6.83-1.14,4.66,4.66,0,0,0-.87.94,73.25,73.25,0,0,0-6.33,6.73c-6.39,7.51-8.43,11.25-9.14,13a1.66,1.66,0,0,0,0,1.23,3.06,3.06,0,0,0,.91,1.82l-34.84,25a3.17,3.17,0,0,0-.73,4.43l31.78,44.31a3.17,3.17,0,0,0,4.43.73L80,179.69c-.24,2.83-.45,5.07-.6,6.2,0,.26-.06.51-.08.76-4.9,8.55-7,37.52-7.69,43,0,.3,0,.46.11.54a3.71,3.71,0,0,0-.62,1.68c-.28,2.33-.26,2.46,1.8,2.47,1.57,0,1.78,1.46,3.11,1.67a13.47,13.47,0,0,0,6.21-.08c2.25-.75-1.8-1.15-3.71-2-1.69-.76-2.12-3-2.4-3.85,2-7.58,8.55-30.77,11.74-38.57a9.66,9.66,0,0,0,.75-3.19c1.4-4.94,3.24-11.92,4.73-18.16l3.91-2.81c1.35,7.53,3.08,16.69,4.44,21.8-2.6,10.43,2.3,31.69,2.61,43.95h0c0,.08,0,.15,0,.23-.28,2.33-.26,2.46,1.81,2.47a26.93,26.93,0,0,1,4.19.25,13.47,13.47,0,0,0,6.21-.08c2.25-.75-1.8-1.15-3.71-2a8.62,8.62,0,0,1-3.58-2.71,1.69,1.69,0,0,0-.32-.42c-.15-16.31,1.63-32.54,2-41a10.93,10.93,0,0,0,0-1.42,19.64,19.64,0,0,0,0-2.53c-.26-3.5-.82-17.56-1.22-27.36l9.44-6.77a1.32,1.32,0,0,0,1.53,0l11-7.91a1.32,1.32,0,0,0,.5-1.45l12.61-9,6.29-4.51A3.18,3.18,0,0,0,151.72,124.36ZM75.49,229.15a1.9,1.9,0,0,0-.39-.21A1.06,1.06,0,0,1,75.49,229.15ZM86.2,83.5a9.41,9.41,0,0,0,1.2,1.32c-.08,1.34-.16,2.88-.22,4.41a13.92,13.92,0,0,0-4,.84A7.78,7.78,0,0,0,86.2,83.5Zm-4.67,18.73.48,1.11-5.43,3.89Z"/></clipPath><linearGradient id="Gradient_bez_nazwy_3" x1="1128.35" y1="1135.92" x2="1264.88" y2="1219.8" gradientTransform="matrix(0.5, -0.86, -0.57, -0.49, 133.66, 1778.56)" gradientUnits="userSpaceOnUse"><stop offset="0" stop-color="blue"/><stop offset="1" stop-color="#9e005d"/></linearGradient><linearGradient id="Безымянный_градиент_7-4" x1="171" y1="105.19" x2="221.69" y2="105.19" xlink:href="#Безымянный_градиент_7"/><linearGradient id="Gradient_bez_nazwy_5-21" x1="204.82" y1="128.43" x2="204.82" y2="115.87" gradientTransform="matrix(1, 0, 0, 1, 0, 0)" xlink:href="#Gradient_bez_nazwy_5"/><linearGradient id="Gradient_bez_nazwy_5-22" x1="204.82" y1="136.53" x2="204.82" y2="130.82" gradientTransform="matrix(1, 0, 0, 1, 0, 0)" xlink:href="#Gradient_bez_nazwy_5"/><linearGradient id="Gradient_bez_nazwy_5-23" x1="247.47" y1="115.76" x2="267.19" y2="136.5" gradientTransform="matrix(1, 0, 0, 1, 0, 0)" xlink:href="#Gradient_bez_nazwy_5"/><linearGradient id="Gradient_bez_nazwy_5-24" x1="259.44" y1="104.39" x2="279.15" y2="125.13" gradientTransform="matrix(1, 0, 0, 1, 0, 0)" xlink:href="#Gradient_bez_nazwy_5"/><linearGradient id="Gradient_bez_nazwy_5-25" x1="-6125.63" y1="-3131.31" x2="-6125.63" y2="-3085.7" gradientTransform="matrix(0.58, 0.81, -0.81, 0.58, 1276.45, 6889.7)" xlink:href="#Gradient_bez_nazwy_5"/><linearGradient id="Gradient_bez_nazwy_5-26" x1="234.51" y1="76.18" x2="234.51" y2="121.79" gradientTransform="matrix(1, 0, 0, 1, 0, 0)" xlink:href="#Gradient_bez_nazwy_5"/><linearGradient id="Gradient_bez_nazwy_5-27" x1="245.57" y1="76.18" x2="245.57" y2="121.79" gradientTransform="matrix(1, 0, 0, 1, 0, 0)" xlink:href="#Gradient_bez_nazwy_5"/><linearGradient id="Gradient_bez_nazwy_3-2" x1="233.16" y1="56.3" x2="271.56" y2="85.88" gradientTransform="matrix(1, 0, 0, 1, 0, 0)" xlink:href="#Gradient_bez_nazwy_3"/><linearGradient id="Gradient_bez_nazwy_3-3" x1="230.93" y1="59.21" x2="269.33" y2="88.78" gradientTransform="matrix(1, 0, 0, 1, 0, 0)" xlink:href="#Gradient_bez_nazwy_3"/><clipPath id="clip-path-2"><path class="cls-1" d="M265,232.48a11.59,11.59,0,0,1-.76-3.73,5.67,5.67,0,0,0,.14-1.74c.22-5.8.54-34.85-3.51-43.94v0c0-.2,0-.4-.07-.61-.73-5.3-2.77-34.09-3.22-38.08a43.75,43.75,0,0,0-1-9.67,72.86,72.86,0,0,1,.18-12.59,29.78,29.78,0,0,0,6.12-3.19,1.64,1.64,0,0,0,.76-1.07l0-.05c.52-1.67,1.1-5.56,0-15.05a61.16,61.16,0,0,0-1.8-10,4.41,4.41,0,0,0-1.43-2.31,9.46,9.46,0,0,0-5.77-4.29,15.07,15.07,0,0,0-2.84-.53c-.06-1-.12-2-.19-2.9a3.26,3.26,0,0,0-.14-.7,5.71,5.71,0,0,0,1.88-3.1,10.72,10.72,0,0,0,.95-2.34,5.07,5.07,0,0,0,1-1.54c.61-1.5.5-3-.23-3.37.18-3.14-.21-5.49-2.28-6.4.09-2.24-8.59-2.57-9.44-2.91-1.81-.73-.19-1.27-2.43-1.27-4,.37-4.16,5.73-1.39,6.7l.17,0a4.4,4.4,0,0,0-.31,1.09c-.14,1-.21,2-.25,2.95a1.28,1.28,0,0,0-1.2-.27c-.82.33-1,1.87-.32,3.43a4,4,0,0,0,1.75,2.14,19.93,19.93,0,0,0,.47,2.38c.51,1.87,2,4.56,4.22,4.68a4.87,4.87,0,0,0,0,.5c0,.24,0,.52,0,.78a21.67,21.67,0,0,0-5.92,1.15c-2.27.67-4.56,2.17-5.05,3.4l-.58,1.48a10.14,10.14,0,0,0-1,2.49c-2.61,6.91-4.32,12.17-5.35,13.84a2.5,2.5,0,0,0-.33.9c-2.76,2.43-8.69,11.58-11,14.09l-.13,0a4.87,4.87,0,0,0-1,0c-.67,0-4.63.21-4.65,1s1.05,1,2.28,1.1c-3.17,2-7.28,5.07-5.93,6.08,2.19,1.65,6.6.18,8-.49a6.24,6.24,0,0,0,3.53-4.77c1.58-.29,3.19-1.07,6.36-3.53,2.71-2.11,4.77-3.85,6.43-5.4-.38,9.66-.43,17.88-.43,17.88a155.07,155.07,0,0,0-1,16.69h0c-.44,10.12-1.12,27.06-1.43,31a19.47,19.47,0,0,0,0,2.63,11,11,0,0,0,0,1.48c.38,8.77,3,25.67,2.16,42.6a1.79,1.79,0,0,0-.36.45,9.26,9.26,0,0,1-3.87,2.82c-2.06.89-6.44,1.31-4,2.09a15.09,15.09,0,0,0,6.7.09,30.34,30.34,0,0,1,4.52-.26c2.23,0,2.25-.15,1.95-2.57,0-.07,0-.13,0-.2v0c.34-12.76,5.65-34.91,2.83-45.75,2.13-7.74,5.12-24.33,6.42-31.69,1,6.55,5,21.81,7.67,30.76a10.75,10.75,0,0,0,.3,2.26c2.12,8.6,7.29,32.59,8,41.05h0c-.21.95-.13,1.38-.24,2.09-.16,1-1.11,1.36-1.66,2.17s-1.56,2.21,2.16,2.28C263.35,234.77,265.71,234.64,265,232.48Z"/></clipPath><linearGradient id="Gradient_bez_nazwy_3-4" x1="-7224.16" y1="16150.17" x2="-7065.5" y2="16247.65" gradientTransform="matrix(-0.4, -0.87, 0.54, -0.47, -11280.77, 1612.49)" xlink:href="#Gradient_bez_nazwy_3"/><linearGradient id="Gradient_bez_nazwy_18" x1="-1053.76" y1="-1014.07" x2="-1005.35" y2="-1084.72" gradientTransform="matrix(1, 0.02, -0.02, 1, 1110.22, 1112.13)" gradientUnits="userSpaceOnUse"><stop offset="0" stop-color="#008161"/><stop offset="1" stop-color="#9fff31"/></linearGradient><linearGradient id="Безымянный_градиент_94" x1="122.5" y1="70.43" x2="225.84" y2="-35.78" gradientTransform="translate(17.73 -45.01) rotate(17.35)" gradientUnits="userSpaceOnUse"><stop offset="0" stop-color="#44bae7"/><stop offset="0.47" stop-color="#2657a0"/><stop offset="0.69" stop-color="#204593"/><stop offset="1" stop-color="#ed1e79"/></linearGradient><linearGradient id="Безымянный_градиент_75" x1="622.3" y1="1730.04" x2="742.45" y2="1606.55" gradientTransform="translate(1.6 -1749.69) rotate(17.35)" gradientUnits="userSpaceOnUse"><stop offset="0.23" stop-color="#ffc107"/><stop offset="0.31" stop-color="#f44336"/><stop offset="0.41" stop-color="#9c27b0"/></linearGradient><linearGradient id="Безымянный_градиент_83" x1="141.03" y1="167.23" x2="158.09" y2="149.7" gradientTransform="translate(54.05 -37.38) rotate(17.35)" gradientUnits="userSpaceOnUse"><stop offset="0.18" stop-color="#14569e"/><stop offset="0.78" stop-color="#002c7f"/></linearGradient><linearGradient id="Безымянный_градиент_114" x1="-794.42" y1="-1120.68" x2="-775.7" y2="-1139.4" gradientTransform="matrix(-0.3, 0.95, -0.95, -0.3, -1129.22, 480.76)" gradientUnits="userSpaceOnUse"><stop offset="0.14" stop-color="#f4af08"/><stop offset="1" stop-color="#e66514"/></linearGradient></defs><title>slide8</title><g class="cls-2"><g id="Слой_2" data-name="Слой 2"><g id="Designed_by_Freepik" data-name="Designed by Freepik"><path class="cls-3" d="M91,255.47c-62.18-40.1-69.07-87.75-56.63-135.67S33.74,42.61,81.23,11.9s108.09,5.24,126.39,26.41,31.5,50.79,51.68,80.6c30,44.35,25.9,70.57,12.73,89.68-18.64,27-36.07,18.75-62.65,43.86C177.52,282.54,139.63,286.84,91,255.47Z"/><path class="cls-4" d="M14,192c3.27,60.07,66.39,80.47,117.74,73.17,45.8-6.51,106.68-38.55,121.46-76.08,10.8-27.42-10.09-39.82,3.16-84.76,8.61-29.21,20.76-35.27,19.51-49.07-3-33-76.87-49-143.16-18.51C77.27,62.25,10.48,128,14,192Z"/><rect class="cls-5" x="122.45" y="61.67" width="44.94" height="33.76" rx="2.56" ry="2.56"/><rect class="cls-6" x="121.51" y="60.92" width="44.94" height="33.76" rx="2.56" ry="2.56"/><path class="cls-7" d="M163.89,60.92H124.07a2.57,2.57,0,0,0-2.56,2.56V69.9h44.94V63.48A2.57,2.57,0,0,0,163.89,60.92Z"/><circle class="cls-6" cx="161.86" cy="65.41" r="0.78"/><circle class="cls-6" cx="158.74" cy="65.41" r="0.78"/><circle class="cls-6" cx="155.62" cy="65.41" r="0.78"/><path class="cls-8" d="M149.06,78.19a.24.24,0,0,0,0-.47H125a.24.24,0,0,0,0,.47Z"/><path class="cls-8" d="M149.06,81.12a.24.24,0,0,0,0-.47H125a.24.24,0,1,0,0,.47Z"/><path class="cls-8" d="M149.06,84.06a.24.24,0,0,0,0-.47H125a.24.24,0,0,0,0,.47Z"/><path class="cls-8" d="M149.06,87a.24.24,0,0,0,0-.47H132.93a.24.24,0,0,0,0,.47Z"/><path class="cls-8" d="M149.06,75.26a.24.24,0,0,0,0-.47H125a.24.24,0,1,0,0,.47Z"/><rect class="cls-9" x="151.41" y="73.23" width="11.86" height="9.19" rx="0.97" ry="0.97"/><rect class="cls-10" x="151.41" y="84.17" width="11.86" height="4.18" rx="0.81" ry="0.81"/><path class="cls-11" d="M73.69,212.68c3.79-2.41-1.06-9.79-9.88-10.51a17.66,17.66,0,0,0-.08,7.34C64.47,212.45,68.38,216.06,73.69,212.68Z"/><path class="cls-12" d="M78.77,213.27c4.41-.86,2.6-9.5-5.35-13.39a17.65,17.65,0,0,0-2.76,6.8C70.28,209.69,72.6,214.47,78.77,213.27Z"/><path class="cls-13" d="M81.85,213.86c3.91,1.1,6-6.63,1.11-13a16,16,0,0,0-5,4.38C76.43,207.51,76.37,212.33,81.85,213.86Z"/><path class="cls-14" d="M83.55,212.87c2.73,2.42,7.42-3,6-10.07a14.38,14.38,0,0,0-5.75,1.57C81.68,205.61,79.73,209.48,83.55,212.87Z"/><path class="cls-15" d="M91.45,194.68c15-5.88,3-35.2-27.55-43.78,0,0-6,13-5.32,25.77C59.15,187.55,70.45,202.92,91.45,194.68Z"/><path class="cls-16" d="M66.95,154.6a27.17,27.17,0,0,1,7,7.37,20.7,20.7,0,0,1,1.36,2.12c.41.73.91,1.41,1.25,2.18s.73,1.51,1.1,2.26l.55,1.12.44,1.18a64.15,64.15,0,0,1,3,9.6c.31,1.66.67,3.3,1,4.94l.59,5c.1.84.26,1.67.31,2.52l.13,2.54c.09,1.7.16,3.39.28,5.09,0,3.41,0,6.83-.1,10.26-.09,1.71-.22,3.43-.28,5.15l-.1,2.59-.05,1.3-.12,1.29-.41,5.18-.2,2.6-.13,2.62.25,0,1.81-10.27.22-1.28.14-1.3.29-2.59.57-5.18.14-1.3.05-1.3.1-2.61.2-5.21-.2-5.22-.1-2.61c0-.87-.19-1.73-.28-2.59L85,185l-1.13-5.1A57.76,57.76,0,0,0,80.43,170l-.52-1.2-.64-1.14L78,165.39c-.41-.77-1-1.44-1.46-2.17A20.16,20.16,0,0,0,75,161.13,25.47,25.47,0,0,0,67,154.37Z"/><path class="cls-17" d="M82,180.3c-11.42-4.48-2.29-26.79,21-33.33,0,0,4.56,9.91,4,19.62C106.56,174.87,98,186.57,82,180.3Z"/><path class="cls-18" d="M100.51,149.64a68.05,68.05,0,0,0-6.17,8.87c-.89,1.57-1.77,3.15-2.56,4.77l-1.22,2.42-1.13,2.46a121,121,0,0,0-7,20.49c-.4,1.76-.75,3.53-1.12,5.3l-.54,2.65-.41,2.68-.75,5.36c-.18,1.79-.31,3.6-.43,5.39l-.19,2.7c0,.9,0,1.8-.07,2.7l-.1,5.39c0,1.8.18,3.6.25,5.39s.23,3.58.38,5.37h.19c.07-3.57,0-7.14.17-10.71l.34-5.34c.06-.89.1-1.78.18-2.67l.31-2.66.61-5.32.87-5.28.44-2.64.56-2.62c.39-1.74.74-3.49,1.16-5.23a149.21,149.21,0,0,1,6.52-20.38,101.27,101.27,0,0,1,9.85-19Z"/><path class="cls-19" d="M75.7,167.27c21.56-6.61,7.95-48.81-33.77-64.05,0,0-9.75,17.54-10.18,35.4C31.39,153.86,45.51,176.53,75.7,167.27Z"/><path class="cls-20" d="M45.76,108.66Q46.95,110.3,48,112c.76,1.12,1.46,2.27,2.15,3.43s1.38,2.32,2,3.51,1.34,2.33,1.91,3.56c1.22,2.4,2.51,4.75,3.58,7.22.55,1.22,1.14,2.43,1.71,3.63l1.55,3.71,1.54,3.7,1.39,3.76,1.4,3.76c.47,1.25.81,2.55,1.22,3.82s.82,2.54,1.23,3.81l.62,1.9c.19.64.34,1.29.52,1.94l2,7.75c.62,2.6,1.13,5.22,1.7,7.83.27,1.31.59,2.61.81,3.93s.39,2.65.61,4c.41,2.64.9,5.28,1.26,7.93s.54,5.33.85,8l.45,4,.21,4,.5,8.07c.33,5.4.12,10.8.43,16.26l.3,0,.48-8.13.24-4.07c.08-1.36.18-2.71.13-4.07l-.06-8.15,0-4.07-.3-4.06-.6-8.13c-.3-2.7-.73-5.38-1.08-8.08l-.56-4c-.21-1.34-.53-2.66-.79-4-.56-2.66-1.06-5.33-1.66-8A173.52,173.52,0,0,0,63.07,136.1c-4.6-9.83-10-19.34-17.09-27.65Z"/><path class="cls-21" d="M63.44,186.9c13.18-9.54-6-35.18-38-35.86,0,0-2.57,14.25,1.31,26.55C30.06,188.07,45,200.26,63.44,186.9Z"/><path class="cls-22" d="M29.34,153.86a67.11,67.11,0,0,1,9.06,7.33l2.12,2,2,2.08c1.37,1.36,2.61,2.85,3.86,4.31a130.64,130.64,0,0,1,13.19,18.92l2.78,5.07a27,27,0,0,1,1.29,2.59l1.23,2.62,1.25,2.61c.21.44.43.87.62,1.31L67.3,204c.7,1.8,1.45,3.59,2.22,5.37s1.39,3.62,2,5.46l1.92,5.52c1.23,3.7,2.21,7.48,3.5,11.21l.21,0c-.88-3.82-1.68-7.66-2.62-11.46l-1.67-5.64c-.56-1.88-1.06-3.78-1.8-5.6l-2-5.52L68.54,202c-.18-.45-.4-.9-.59-1.34l-1.21-2.68-1.21-2.68a27.63,27.63,0,0,0-1.29-2.64l-2.78-5.19a109.61,109.61,0,0,0-13.83-19c-1.34-1.43-2.66-2.88-4.12-4.2l-2.14-2-2.25-1.9a58.25,58.25,0,0,0-9.7-6.65Z"/><path class="cls-23" d="M59.56,147.29a19.87,19.87,0,0,0-5.05-2.71c-.87-.37-1.78-.61-2.68-.89s-1.83-.43-2.75-.63a29.31,29.31,0,0,0-5.65-.44,16.6,16.6,0,0,0-5.68,1.06v.2a56.83,56.83,0,0,1,11,1.14,106.62,106.62,0,0,1,10.78,2.46Z"/><path class="cls-24" d="M56.12,135.2a14.74,14.74,0,0,0-3.78-3,21.66,21.66,0,0,0-2.1-1.08c-.72-.31-1.46-.57-2.2-.85a21.93,21.93,0,0,0-4.65-.95,12.61,12.61,0,0,0-4.86.44l0,.2a47.33,47.33,0,0,1,8.92,2.2A89.09,89.09,0,0,1,56,135.38Z"/><path class="cls-25" d="M71.24,144.69a15.7,15.7,0,0,0,1.47-2.84c.37-.91.7-1.78,1-2.63.11-.44.29-.84.43-1.25l.21-.62a5.16,5.16,0,0,0,.23-.6,13.66,13.66,0,0,1,1.35-2.59l-.07-.17a5.69,5.69,0,0,0-2.44,1.89A9.79,9.79,0,0,0,72,138.62a18.66,18.66,0,0,0-.92,6.07Z"/><path class="cls-26" d="M64.15,131.51a11.52,11.52,0,0,0,.59-2.39c.13-.75.18-1.48.26-2.17s.1-1.37.18-2a8.65,8.65,0,0,1,.51-2.17l-.08-.11a4.25,4.25,0,0,0-1.44,1.88,7.79,7.79,0,0,0-.54,2.32,17,17,0,0,0,.39,4.71Z"/><path class="cls-27" d="M66.92,234.32H85.45a1.82,1.82,0,0,0,1.81-1.6l2.55-21.48a1.82,1.82,0,0,0-1.8-2H64.37a1.82,1.82,0,0,0-1.81,2l2.55,21.48A1.82,1.82,0,0,0,66.92,234.32Z"/><path class="cls-28" d="M62,213.46H90.4a1.2,1.2,0,0,0,1.19-1l.56-3.65A1.2,1.2,0,0,0,91,207.41H61.41a1.2,1.2,0,0,0-1.19,1.38l.56,3.65A1.2,1.2,0,0,0,62,213.46Z"/><path class="cls-29" d="M89.54,64.95c1.7-2.39-.24-6.62-5.07-7-5.51-.45-15.29,2.72-10,15.56,5.46,13.36,3.75,16.78.08,18.78,0,0,12.61,1,11.65-10S85.6,70.51,89.54,64.95Z"/><path class="cls-30" d="M114.83,106.68c-1.89-.32-6-1.5-14.69-6.15a70.94,70.94,0,0,1-8.79-5.34c-2.62-1.83-1.73-4.42-.07-5a11.11,11.11,0,0,1,7.84.62c8.17,5.08,14.2,9.12,16.46,10.09C118.89,102.36,117.08,107.06,114.83,106.68Z"/><path class="cls-31" d="M129,89.9c.12,1.41-1.56,1.67-3.89,5.56-3.35,5.6-4.56,6.93-8,10.36-2.26,2.24-6.38-.1-4.19-3.29,1.85-2.7,12.41-12.41,13.53-14C127.15,87.39,128.9,88.75,129,89.9Z"/><path class="cls-32" d="M87.66,81c0,.27-.46,6.11-.54,10.59,0,2.2,1.55,4.28,3.13,4.33h.07c1.55,0,3.38-1.95,3.24-4.11-.25-3.9-.06-7.89-.06-8Z"/><path class="cls-33" d="M83.13,106.2a76.28,76.28,0,0,1,2.8,12.26,31.07,31.07,0,0,1,0,9.23c-.25,1.84-.61,3.67-1,5.48-.16.69-1.51,6.22-1.57,6.81h25.27c-.24-5-5.88-20.51-2.06-30.58,2.64-7-.87-7.19-3.25-13a17.06,17.06,0,0,0-2-4.21,7.26,7.26,0,0,0-3.87-2.37A14.4,14.4,0,0,0,95,89.5c-4.28-.35-14.35-1.58-15.29,4.5a10.78,10.78,0,0,0,.5,4.92c.57,1.78,1.41,3.45,2.12,5.17Q82.76,105.14,83.13,106.2Z"/><path class="cls-34" d="M83.39,156s-2.18-5.5-.1-16h25.27a154.61,154.61,0,0,1,.92,16Z"/><path class="cls-35" d="M87.88,191.48c3.32-8.12-4.75-10.9-8.33-5.21-5.05,8.05-7.25,37.82-7.91,43.36-.09.73.31.65.74.57,1.25-.24.72-1.41,2.5-1.3.94.06,1.21,1.35,1.21,1.35C78,222.87,84.67,199.35,87.88,191.48Z"/><path class="cls-36" d="M95.94,157.18c.89-10.61-3.16-18.84-9.5-15.34-2.67,1.47-3.65,4.42-4,7.2s-2.32,31.64-3,36.85c-1.55,11.76,7.39,8.59,8.36,5.33C90.23,183,95.45,163,95.94,157.18Z"/><path class="cls-37" d="M110.87,189.81c.33-8-7.14-7.79-9-1.31-3,10.19,2.15,32.07,2.47,44.57,1.3-2.16,2.53-2.68,3.11-2.64a2.08,2.08,0,0,1,1.45.82C108.7,214.78,110.52,198.31,110.87,189.81Z"/><path class="cls-38" d="M102.16,190.67c1,3.25,9.54,7,8.65-4.82-.4-5.25-1.45-34.22-1.65-37s-.67-6.87-2-7.38c-6.75-2.55-13.3,5.78-11.52,16.27C96.8,164.73,100.1,183.93,102.16,190.67Z"/><path class="cls-39" d="M84.62,76.74c.5,5,.64,6.09,2.82,8.13a11.76,11.76,0,0,0,7.66,3c2.55,0,4.44-2.7,5-4.81a36.25,36.25,0,0,0,.58-12.77c-.36-2.77-3.78-6.12-7.3-6.12S83.4,64.56,84.62,76.74Z"/><path class="cls-40" d="M109.2,231.19a8.62,8.62,0,0,0,3.58,2.71c1.91.85,6,1.25,3.71,2a13.47,13.47,0,0,1-6.21.08,26.93,26.93,0,0,0-4.19-.25c-2.07,0-2.08-.14-1.81-2.47C104.68,230.06,108.27,229.38,109.2,231.19Z"/><path class="cls-41" d="M76,229.77c.29.56.59,3.28,2.5,4.13s6,1.25,3.71,2a13.47,13.47,0,0,1-6.21.08c-1.33-.21-1.54-1.66-3.11-1.67-2.07,0-2.08-.14-1.81-2.47C71.52,228.64,75.11,228,76,229.77Z"/><path class="cls-42" d="M99.86,67.66c2,3.33-12.24,9.45-15.39,8.92s-3.13-7.22-.69-10.28S95.25,59.8,99.86,67.66Z"/><path class="cls-43" d="M94.6,66.83c.51,2.82,5.46,3.47,6.3,5.8.52,1.45.77-3.13-.39-5.2S93.57,61.15,94.6,66.83Z"/><ellipse class="cls-39" cx="84.47" cy="77.47" rx="1.77" ry="3.37" transform="translate(-23.02 37.68) rotate(-22.21)"/><path class="cls-39" d="M88.17,134.59a9.14,9.14,0,0,1,3.43,2.64c.56.94-1.54-.12-2.6-.55S87,134,88.17,134.59Z"/><path class="cls-39" d="M88.89,136.07c1.75,2.58,3.11,3.66,3.22,5.17s-2.54.5-3.28-.31-3.59-3.53-3.41-4.82S87.6,134.16,88.89,136.07Z"/><path class="cls-44" d="M74.51,118.44c-.14-1.92,0-6.17,2.5-15.73a70.81,70.81,0,0,1,3.11-9.8c1.16-3,3.88-2.73,4.82-1.24a11.12,11.12,0,0,1,1.25,7.76c-3,9.14-5.5,16-5.91,18.38C79.66,121.36,74.67,120.71,74.51,118.44Z"/><path class="cls-45" d="M86.19,136.62c-1.42-.39-1.07-2.12-4-5.78-4.27-5.27-5.14-6.93-7.25-11.53-1.38-3,2.37-6.19,4.71-2.92,2,2.77,7.69,16.54,8.9,18.22C89.3,135.72,87.35,136.94,86.19,136.62Z"/><path class="cls-39" d="M131,90.71a4.56,4.56,0,0,0,2.32-1.42c.23-.39-.59-1.13-2.09-1.36-1.31-.2-4.69-.16-5,.43s.25,1.35,1.2,2A4,4,0,0,0,131,90.71Z"/><g class="cls-46"><path class="cls-47" d="M47.33,99.42c-16.47,3.33-17.41-17.66-23.2-2-5.91,16,11.12-2.92-1.29,19.07-9.82,17.4-.92,36.91.53,52.19C25,185.42,3.54,199,5.73,214c5,34.46-19.57,48.39,6.37,56.25,26.63,8.07,27.13-7.24,56.58-6.68,25.59.49,30.46-57.7,29.17-80-1.37-23.63-10.58-29.33-2.53-54.26,4.82-14.92,1.34-29.82-12.17-34.21C74.5,92.27,67.13,95.42,47.33,99.42Z"/></g><rect class="cls-5" x="157.14" y="100.07" width="61.41" height="46.14" rx="3.5" ry="3.5"/><rect class="cls-6" x="155.86" y="99.05" width="61.41" height="46.14" rx="3.5" ry="3.5"/><path class="cls-48" d="M213.78,99H159.36a3.51,3.51,0,0,0-3.5,3.5v8.79h61.41v-8.79A3.51,3.51,0,0,0,213.78,99Z"/><circle class="cls-6" cx="211.01" cy="105.19" r="1.07"/><circle class="cls-6" cx="206.74" cy="105.19" r="1.07"/><circle class="cls-6" cx="202.48" cy="105.19" r="1.07"/><path class="cls-8" d="M193.52,122.65a.32.32,0,0,0,0-.64H160.68a.32.32,0,0,0,0,.64Z"/><path class="cls-8" d="M193.52,126.66a.32.32,0,0,0,0-.64H160.68a.32.32,0,1,0,0,.64Z"/><path class="cls-8" d="M193.52,130.67a.32.32,0,0,0,0-.64H160.68a.32.32,0,0,0,0,.64Z"/><path class="cls-8" d="M193.52,134.68a.32.32,0,0,0,0-.64h-22a.32.32,0,0,0,0,.64Z"/><path class="cls-8" d="M193.52,118.64a.32.32,0,0,0,0-.64H160.68a.32.32,0,1,0,0,.64Z"/><rect class="cls-49" x="196.72" y="115.87" width="16.21" height="12.56" rx="1.32" ry="1.32"/><rect class="cls-50" x="196.72" y="130.82" width="16.21" height="5.71" rx="1.11" ry="1.11"/><g id="_Группа_" data-name="&lt;Группа&gt;"><g id="_Группа_2" data-name="&lt;Группа&gt;"><circle class="cls-51" cx="203.54" cy="164.52" r="10.48"/></g><g id="_Группа_3" data-name="&lt;Группа&gt;"><g id="_Группа_4" data-name="&lt;Группа&gt;"><path class="cls-6" d="M206,169.29a6.26,6.26,0,0,1-2.79.55,4.64,4.64,0,0,1-4.76-4.81,5.64,5.64,0,0,1,5.71-5.82,4.35,4.35,0,0,1,4.61,4.41c0,2.23-1.25,3.63-2.9,3.63a1.2,1.2,0,0,1-1.31-1.18h0a2.24,2.24,0,0,1-2,1.18,1.74,1.74,0,0,1-1.71-2,3.49,3.49,0,0,1,3.57-3.56,4.29,4.29,0,0,1,1.82.38l-.46,2.82c-.15.9,0,1.31.38,1.33.66,0,1.48-.82,1.48-2.58a3.37,3.37,0,0,0-3.65-3.53,4.45,4.45,0,0,0-4.38,4.75,3.69,3.69,0,0,0,3.91,4,5,5,0,0,0,2.21-.49Zm-1.36-6.3a1.87,1.87,0,0,0-.47-.06,2,2,0,0,0-1.8,2.17c0,.58.26.95.76.95s1.16-.72,1.3-1.6Z"/></g></g></g><g id="_Группа_5" data-name="&lt;Группа&gt;"><g id="_Группа_6" data-name="&lt;Группа&gt;"><circle class="cls-52" cx="163.26" cy="206.15" r="12.93" transform="matrix(0.98, -0.19, 0.19, 0.98, -35.48, 33.95)"/></g><g id="_Группа_7" data-name="&lt;Группа&gt;"><polygon class="cls-6" points="161.31 211.68 159.42 201.71 168.42 205.17 161.31 211.68"/></g></g><path class="cls-53" d="M234.24,44.29h-16A3.25,3.25,0,0,0,215,47.54V58.73A3.25,3.25,0,0,0,218.28,62h5.59l2.39,3.38L228.57,62h5.67a3.25,3.25,0,0,0,3.25-3.25V47.54A3.25,3.25,0,0,0,234.24,44.29Z"/><rect class="cls-54" x="220.08" y="50.8" width="3.25" height="6.36" rx="0.39" ry="0.39"/><path class="cls-54" d="M224.55,51.67a1.11,1.11,0,0,1,.43-.87c.56-.45,1.51-.87,1.93-3.46.22-1.36,1.83-.45,1.91,1,.07,1.21,0,2.21,0,2.21h2.43a1.17,1.17,0,0,1,1.17,1.17v4.68a1.17,1.17,0,0,1-1.17,1.17h-4.85a1.1,1.1,0,0,1-.62-.19l-.78-.53a1.1,1.1,0,0,1-.48-.91Z"/><circle class="cls-55" cx="131.38" cy="125.84" r="8.2" transform="matrix(0.07, -1, 1, 0.07, -2.81, 248.68)"/><polygon class="cls-6" points="131.73 120.54 133.11 123.87 136.63 124.62 133.89 126.96 134.27 130.54 131.19 128.66 127.9 130.13 128.74 126.62 126.33 123.94 129.92 123.66 131.73 120.54"/><path class="cls-6" d="M208.36,118.92a2.64,2.64,0,0,0-3.79.45,2.64,2.64,0,0,0-3.77.63,2.69,2.69,0,0,0,.66,3.63l3.33,2.5a1,1,0,0,0,1.45-.21l2.5-3.33A2.69,2.69,0,0,0,208.36,118.92Z"/><path class="cls-56" d="M240.7,125.07c2.12.69,3.91,0,9-1.08,7.39-1.62,9-2.48,13.2-5.08,2.71-1.7-1.84-7.32-6-6.08-3.5,1-14.24,8.86-16.37,9.48C239.18,122.74,239,124.51,240.7,125.07Z"/><path class="cls-57" d="M263.73,117.8c.52-1.67,1.1-5.56,0-15.05a61.16,61.16,0,0,0-1.8-10c-.79-3.11-4-3.9-5.38-2.91-2.2,1.58-4.12,5.22-3.8,6.87,1.79,9.33,3.74,16.39,3.77,18.73C256.59,118.87,263.11,119.77,263.73,117.8Z"/><path class="cls-58" d="M259.22,227.77a14.35,14.35,0,0,0-.34,2.47c-.16,1-1.11,1.36-1.66,2.17s-1.56,2.21,2.16,2.28c4,.08,6.33,0,5.66-2.21a11,11,0,0,1-.76-3.83,2.33,2.33,0,0,0-.45-1.87C263.37,226.36,259.8,225.6,259.22,227.77Z"/><path class="cls-39" d="M211.37,105.58c-1.29-.67-11.7-5.39-11.79-2.91-.1,2.74,3.62,5.52,5,6.3,2.49,1.43,5.51.87,6.71-.4C212.13,107.67,212.6,106.21,211.37,105.58Z"/><path class="cls-39" d="M211,104.84c-.4-.53-2.82-3.68-3.44-3.27-.95.62.53,2.77,1.5,4.19.53.77,1.75,1.45,2.32,1S211.65,105.69,211,104.84Z"/><path class="cls-58" d="M228.67,229.57a9.26,9.26,0,0,1-3.87,2.82c-2.06.89-6.44,1.31-4,2.09a15.09,15.09,0,0,0,6.7.09,30.34,30.34,0,0,1,4.52-.26c2.23,0,2.25-.15,1.95-2.57C233.55,228.39,229.67,227.69,228.67,229.57Z"/><path class="cls-39" d="M254,74.79c-.45,4.51-.58,5.51-2.56,7.36s-5.05,2.12-7.19,2.12c-2.31,0-3.84-2.79-4.36-4.7a27.82,27.82,0,0,1-.45-10.64c.33-2.51,3.42-5.55,6.61-5.55S255.11,63.76,254,74.79Z"/><path class="cls-59" d="M208.9,108.49c1.41,1.73,2.55,2.74,7.58,4.23,6.81,2,10.74,2.71,14.19,2.93,3.19.21,2.67-7.42-1.48-8.63-3.51-1-16.76-.28-18.9-.9C208.89,105.71,207.76,107.08,208.9,108.49Z"/><path class="cls-60" d="M231,113.71c1.33-1.13,3.91-4.1,8.11-12.68A61.27,61.27,0,0,0,243,91.67c1-3-1.28-5.44-3-5.35-2.71.15-6.28,2.19-6.9,3.75-3.51,8.83-5.67,15.83-6.89,17.82C224.41,110.79,229.43,115.05,231,113.71Z"/><path class="cls-39" d="M251.71,82.74c.12,1.56.24,3.37.29,5a4.31,4.31,0,0,1-3.76,4.37H248c-1.95,0-4.24-1.77-4.07-3.72.11-1.27.15-2.55.16-3.67A5.07,5.07,0,0,1,247.47,80h0A3.19,3.19,0,0,1,251.71,82.74Z"/><path class="cls-61" d="M260.74,102c-3.62,11.91-4.81,24.34-4.1,32.65H229.36s.16-25.55,2-39.55a10.47,10.47,0,0,1,5.76-8,19.58,19.58,0,0,1,7.27-1.61h5a19.09,19.09,0,0,1,5.32.66C262.18,88.45,262.85,95.14,260.74,102Z"/><path class="cls-62" d="M256.53,151.38s2.36-5.73.11-16.69H229.36a155.07,155.07,0,0,0-1,16.69Z"/><path class="cls-62" d="M251.14,187.09c-2.18-8.88,6.89-10.45,9.75-4,4.05,9.09,3.73,38.14,3.51,43.94,0,.76.1,1.69-.28,2a5.84,5.84,0,0,1-2.88.46c-1,0-2,0-2.12-1.29C258.43,219.68,253.26,195.69,251.14,187.09Z"/><path class="cls-62" d="M243,152.58c-1-11,3.41-19.6,10.26-16,2.88,1.53,3.93,4.6,4.32,7.49s2.51,32.91,3.25,38.33c1.67,12.23-8,8.93-9,5.54C249.14,179.43,243.51,158.59,243,152.58Z"/><path class="cls-62" d="M233.93,231.52c.34-13,5.85-35.76,2.67-46.36-2-6.74-10.09-6.91-9.73,1.37.38,8.85,3,26,2.14,43.1C228.91,231.3,233.87,233,233.93,231.52Z"/><path class="cls-62" d="M236.27,187.41c-1.07,3.38-10.3,7.29-9.34-5,.43-5.46,1.57-35.6,1.79-38.5s.72-7.15,2.18-7.68c7.29-2.65,14.35,6,12.44,16.93C242.06,160.44,238.49,180.41,236.27,187.41Z"/><ellipse class="cls-39" cx="239.16" cy="74.45" rx="1.6" ry="3.05" transform="translate(-10.39 95.99) rotate(-22.22)"/><ellipse class="cls-39" cx="253.88" cy="74.45" rx="3.05" ry="1.6" transform="translate(88.97 281.34) rotate(-67.79)"/><path class="cls-63" d="M252.62,65.89c-1.76,2.62-10.25,2.87-13,1.9S237,61.47,241,61.1c2.23,0,.62.53,2.43,1.27C244.33,62.74,254.5,63.09,252.62,65.89Z"/><path class="cls-64" d="M243.06,65.44c-2.62,1.58-3.22,3-3.15,6.2s1.46,8.75,7.41,10,7.36-4.68,7.72-8.75.13-7.12-2.88-7.86C247.69,63.93,244.65,64.48,243.06,65.44Z"/><g class="cls-65"><path class="cls-66" d="M255.76,55.54c12.31-7.54,35,3.9,39.14,18.78,4.18,15.19-7.24,22.46,2.12,43.5,7.41,16.64-1.1,34.89-3.1,49.29-2.2,15.81,5.71,23.46,3.1,37.56-6,32.45,23.55,51.77,1.25,58.65-22.9,7.06-22.55-7.41-47.45-7.5-21.64-.08-22.79-55.14-20.56-76.21,2.36-22.3,15.19-26.12,9.66-49.84-3.31-14.19-6-22.3,8.09-37.65C255.22,84.27,232.22,70,255.76,55.54Z"/></g><path class="cls-67" d="M118.82,27.25l-27.3-.64a4,4,0,0,0-4.14,4L87,48.33a4,4,0,0,0,4,4.14l2.67.06s3.42,4.66,4.67,6.12a2.42,2.42,0,0,0,3.55.08c1.32-1.4,5-5.89,5-5.89l11.46.27a4,4,0,0,0,4.14-4l.42-17.77A4,4,0,0,0,118.82,27.25Z"/><path class="cls-68" d="M116,35.59,93.9,35.07A1.31,1.31,0,1,1,94,32.46L116.1,33a1.31,1.31,0,1,1-.06,2.62Z"/><path class="cls-68" d="M115.89,41.84l-22.13-.52a1.31,1.31,0,0,1,.06-2.62l22.13.52a1.31,1.31,0,0,1-.06,2.62Z"/><path class="cls-68" d="M103.59,47.79l-10-.23a1.31,1.31,0,0,1,.06-2.62l10,.23a1.31,1.31,0,0,1-.06,2.62Z"/></g><g id="Objects"><circle class="cls-69" cx="156.4" cy="35.59" r="12.87" transform="translate(-3.5 48.25) rotate(-17.35)"/><path class="cls-6" d="M162.78,38a18.84,18.84,0,0,0-1.36-1.37c-.42-.41-.44-.64-.11-1.11s.76-1,1.13-1.51a5.49,5.49,0,0,0,.88-1.52c.11-.36,0-.52-.36-.59h-2.4a.49.49,0,0,0-.52.35c-.13.33-.26.65-.42,1a7.92,7.92,0,0,1-1.29,2c-.12.13-.25.29-.46.22s-.33-.51-.32-.65V32.25c0-.36-.13-.53-.49-.6h-2.29a.73.73,0,0,0-.62.31c-.09.11-.12.18.07.22a.76.76,0,0,1,.65.7,7.81,7.81,0,0,1,0,1.83,1.7,1.7,0,0,1-.12.52.31.31,0,0,1-.52.15,2.13,2.13,0,0,1-.51-.56,12.3,12.3,0,0,1-1.34-2.49.58.58,0,0,0-.55-.41c-.66,0-1.32,0-2,0-.4,0-.52.2-.35.56a24.62,24.62,0,0,0,2.57,4.58,6.39,6.39,0,0,0,2,1.83,5.19,5.19,0,0,0,2.9.62c.48,0,.62-.15.65-.63a2.12,2.12,0,0,1,.21-.95.42.42,0,0,1,.67-.16,1.91,1.91,0,0,1,.36.32c.27.3.53.6.81.88a1.57,1.57,0,0,0,1.29.53h2c.33,0,.5-.42.31-.79A3.9,3.9,0,0,0,162.78,38Z"/><circle class="cls-70" cx="129.49" cy="60.29" r="14.96" transform="translate(-8.78 96.13) rotate(-39.5)"/><path class="cls-6" d="M132.53,52.55l-5.84-.09a4.87,4.87,0,0,0-4.94,4.79l-.09,5.84A4.87,4.87,0,0,0,126.45,68l5.84.09a4.87,4.87,0,0,0,4.94-4.79l.09-5.84A4.87,4.87,0,0,0,132.53,52.55Zm3.24,10.76a3.41,3.41,0,0,1-3.46,3.35l-5.84-.09a3.41,3.41,0,0,1-3.35-3.46l.09-5.84a3.41,3.41,0,0,1,3.46-3.35l5.84.09a3.41,3.41,0,0,1,3.35,3.46Z"/><path class="cls-6" d="M129.55,56.4a3.89,3.89,0,1,0,3.83,4A3.89,3.89,0,0,0,129.55,56.4Zm-.1,6.33a2.43,2.43,0,1,1,2.47-2.4A2.44,2.44,0,0,1,129.45,62.72Z"/><circle class="cls-6" cx="133.74" cy="56.17" r="0.52" transform="translate(75.51 189.02) rotate(-89.12)"/><circle class="cls-71" cx="149.56" cy="158.47" r="12.23" transform="translate(-40.44 51.8) rotate(-17.35)"/><path class="cls-6" d="M150.38,156.42v-1.64a.82.82,0,0,1,.82-.82H152V151.9h-1.64a2.46,2.46,0,0,0-2.46,2.46v2.05h-1.64v2.05h1.64V165h2.46v-6.56H152l.82-2.05Z"/><circle class="cls-72" cx="183.48" cy="68.32" r="13.23" transform="translate(107.1 248.59) rotate(-87.46)"/><path class="cls-6" d="M183,71.6a6,6,0,0,1-3.25-1c-.12-.09-.24-.17-.35-.26a1,1,0,0,1,1-1.61,1.87,1.87,0,0,1,.27.15,5.26,5.26,0,0,0,5.82-.19,1.58,1.58,0,0,1,.55-.32.89.89,0,0,1,1,.36.86.86,0,0,1,0,1.14A4.71,4.71,0,0,1,186.49,71a8,8,0,0,1-1.9.51l.22.21,2.78,2.57a.88.88,0,0,1,.24,1,1.06,1.06,0,0,1-1,.66,1,1,0,0,1-.64-.29c-.7-.65-1.41-1.28-2.1-1.94-.2-.19-.29-.15-.45,0-.65.72-1.3,1.44-2,2.15a.86.86,0,0,1-1,.23,1.05,1.05,0,0,1-.65-.94,1,1,0,0,1,.3-.66l2.53-2.75Z"/><path class="cls-6" d="M183.64,68.5a3.91,3.91,0,1,1,3.77-4A3.92,3.92,0,0,1,183.64,68.5Zm1.78-4a1.92,1.92,0,1,0-1.82,2A1.91,1.91,0,0,0,185.42,64.51Z"/></g></g></g></svg>