<svg xmlns="http://www.w3.org/2000/svg" xmlns:xlink="http://www.w3.org/1999/xlink" viewBox="0 0 333.48 255.7"><defs><style>.cls-1,.cls-2{opacity:0.15;}.cls-1{fill:url(#Gradient_bez_nazwy_5);}.cls-2{fill:url(#Gradient_bez_nazwy_15);}.cls-3{fill:none;stroke:#0037ff;stroke-miterlimit:10;stroke-width:0.92px;}.cls-4{opacity:0.5;}.cls-5{fill:#ffbe9d;}.cls-6{fill:#eb996e;}.cls-7{fill:#263238;}.cls-8{fill:url(#Gradient_bez_nazwy_5-2);}.cls-9{opacity:0.6;}.cls-10{fill:#fff;}.cls-11{opacity:0.2;}.cls-12{fill:url(#Gradient_bez_nazwy_5-3);}.cls-13{fill:url(#Gradient_bez_nazwy_5-4);}.cls-14{fill:url(#Gradient_bez_nazwy_5-5);}.cls-15{fill:url(#Gradient_bez_nazwy_5-6);}.cls-16{fill:#e8505b;}</style><linearGradient id="Gradient_bez_nazwy_5" x1="103.32" y1="131.36" x2="326.69" y2="131.36" gradientUnits="userSpaceOnUse"><stop offset="0" stop-color="#36078b"/><stop offset="1" stop-color="#16b1ff"/></linearGradient><linearGradient id="Gradient_bez_nazwy_15" y1="127.85" x2="255.7" y2="127.85" gradientUnits="userSpaceOnUse"><stop offset="0" stop-color="#401381"/><stop offset="1" stop-color="#d11137"/></linearGradient><linearGradient id="Gradient_bez_nazwy_5-2" x1="135.29" y1="119.19" x2="228.54" y2="119.19" xlink:href="#Gradient_bez_nazwy_5"/><linearGradient id="Gradient_bez_nazwy_5-3" x1="139.18" y1="132.91" x2="183.87" y2="132.91" xlink:href="#Gradient_bez_nazwy_5"/><linearGradient id="Gradient_bez_nazwy_5-4" x1="156.96" y1="126.44" x2="176.67" y2="126.44" xlink:href="#Gradient_bez_nazwy_5"/><linearGradient id="Gradient_bez_nazwy_5-5" x1="138.75" y1="128.75" x2="165.47" y2="128.75" xlink:href="#Gradient_bez_nazwy_5"/><linearGradient id="Gradient_bez_nazwy_5-6" x1="167.58" y1="140.33" x2="181.91" y2="140.33" xlink:href="#Gradient_bez_nazwy_5"/></defs><title>slide5-seo</title><g id="Слой_2" data-name="Слой 2"><g id="Background"><circle class="cls-1" cx="215.01" cy="131.36" r="111.69"/><circle class="cls-2" cx="127.85" cy="127.85" r="127.85"/></g><g id="Objects"><rect class="cls-3" x="101.53" y="75.12" width="30.19" height="41.31" transform="translate(-17.59 26.78) rotate(-12.19)"/><g class="cls-4"><rect class="cls-3" x="178.93" y="41.87" width="100.57" height="65.4"/></g><g class="cls-4"><circle class="cls-3" cx="229.22" cy="71.81" r="13.68"/><polygon class="cls-3" points="233.82 71.81 230.24 73.87 226.67 75.94 226.67 71.81 226.67 67.68 230.24 69.75 233.82 71.81"/></g><g class="cls-4"><rect class="cls-3" x="178.93" y="95.53" width="100.57" height="11.75"/></g><polygon class="cls-3" points="188.71 101.4 187.26 102.24 185.81 103.07 185.81 101.4 185.81 99.72 187.26 100.56 188.71 101.4"/><rect class="cls-3" x="197.04" y="101.13" width="74.18" height="0.53"/><circle class="cls-3" cx="197.44" cy="101.4" r="1.11"/><g class="cls-4"><rect class="cls-3" x="230.05" y="88.98" width="102.96" height="92.79" rx="5.49" ry="5.49"/></g><path class="cls-3" d="M236.46,89H326.6A6.41,6.41,0,0,1,333,95.39v4a0,0,0,0,1,0,0h-103a0,0,0,0,1,0,0v-4A6.41,6.41,0,0,1,236.46,89Z"/><circle class="cls-3" cx="236.34" cy="94.17" r="0.81"/><circle class="cls-3" cx="241.21" cy="94.17" r="0.81"/><circle class="cls-3" cx="246.08" cy="94.17" r="0.81"/><g class="cls-4"><rect class="cls-3" x="281.75" y="107.69" width="38.88" height="1.41"/></g><g class="cls-4"><rect class="cls-3" x="281.75" y="113.48" width="38.88" height="1.41"/></g><g class="cls-4"><rect class="cls-3" x="281.75" y="119.27" width="38.88" height="1.41"/></g><g class="cls-4"><rect class="cls-3" x="281.75" y="125.06" width="38.88" height="1.41"/></g><g class="cls-4"><rect class="cls-3" x="281.75" y="130.85" width="19.44" height="1.41"/></g><g class="cls-4"><rect class="cls-3" x="240.46" y="142.24" width="38.88" height="1.41" transform="translate(519.8 285.89) rotate(180)"/></g><g class="cls-4"><rect class="cls-3" x="240.46" y="148.03" width="38.88" height="1.41" transform="translate(519.8 297.47) rotate(180)"/></g><g class="cls-4"><rect class="cls-3" x="240.46" y="153.82" width="38.88" height="1.41" transform="translate(519.8 309.05) rotate(180)"/></g><g class="cls-4"><rect class="cls-3" x="240.46" y="159.61" width="38.88" height="1.41" transform="translate(519.8 320.63) rotate(180)"/></g><g class="cls-4"><rect class="cls-3" x="259.9" y="165.4" width="19.44" height="1.41" transform="translate(539.24 332.21) rotate(180)"/></g><g class="cls-4"><rect class="cls-3" x="286.06" y="140.68" width="33.27" height="27.68"/><polygon class="cls-3" points="286 160.01 295.83 153.12 302.69 157.86 313.48 148.74 319.32 154.53 319.32 168.37 286.06 168.37 286 160.01"/><circle class="cls-3" cx="303.27" cy="148.73" r="2.79"/></g><g class="cls-4"><rect class="cls-3" x="240.46" y="106.84" width="33.27" height="27.68"/><polygon class="cls-3" points="240.4 126.16 250.24 119.27 257.1 124.02 267.88 114.89 273.73 120.68 273.73 134.52 240.46 134.52 240.4 126.16"/><circle class="cls-3" cx="257.67" cy="114.89" r="2.79"/></g><rect class="cls-3" x="97.81" y="82.41" width="30.19" height="41.31" transform="translate(-19.21 26.16) rotate(-12.19)"/><path class="cls-3" d="M132,120.07l0-.2-.13-.57-.49-2.2-1.82-8.29-6.35-29.1.15.1L93.82,86.2h0l.11-.16,8.7,40.38-.13-.09,21.44-4.57,6-1.26,1.57-.33.55-.11-.52.12-1.55.35L124,121.85l-21.49,4.7-.11,0,0-.11L93.65,86.09l0-.14.14,0h0l29.51-6.36.12,0,0,.12,6.24,29.2,1.75,8.27.46,2.18.11.56C132,120,132,120.07,132,120.07Z"/><ellipse class="cls-3" cx="106.42" cy="91.83" rx="7.33" ry="0.14" transform="translate(-16.99 24.54) rotate(-12.19)"/><ellipse class="cls-3" cx="111.05" cy="94.5" rx="11.3" ry="0.14" transform="translate(-17.45 25.57) rotate(-12.19)"/><ellipse class="cls-3" cx="111.84" cy="98.16" rx="11.3" ry="0.14" transform="translate(-18.2 25.82) rotate(-12.19)"/><ellipse class="cls-3" cx="112.63" cy="101.82" rx="11.3" ry="0.14" transform="translate(-18.96 26.07) rotate(-12.19)"/><ellipse class="cls-3" cx="113.42" cy="105.48" rx="11.3" ry="0.14" transform="translate(-19.71 26.32) rotate(-12.19)"/><ellipse class="cls-3" cx="114.22" cy="109.14" rx="11.3" ry="0.14" transform="translate(-20.47 26.57) rotate(-12.19)"/><ellipse class="cls-3" cx="115.01" cy="112.8" rx="11.3" ry="0.14" transform="translate(-21.22 26.82) rotate(-12.19)"/><ellipse class="cls-3" cx="110.69" cy="117.57" rx="6.07" ry="0.14" transform="translate(-22.32 26.02) rotate(-12.19)"/><polygon class="cls-3" points="283.91 179.68 291.46 199.07 294.61 193.99 298.97 199.71 304.18 194.76 299.22 189.99 303.8 186.89 283.91 179.68"/><ellipse class="cls-3" cx="278.24" cy="184.34" rx="3.35" ry="0.14" transform="translate(-55.46 177.68) rotate(-32.38)"/><path class="cls-3" d="M281.66,178.64a5.35,5.35,0,0,1-1.21-.32c-.74-.24-1.75-.59-2.84-1s-2.07-.88-2.77-1.21a5.57,5.57,0,0,1-1.11-.59,5.71,5.71,0,0,1,1.19.41l2.8,1.13,2.8,1.11A6,6,0,0,1,281.66,178.64Z"/><path class="cls-3" d="M283.93,169.84a4.2,4.2,0,0,1,.27,1.07c.13.67.28,1.6.41,2.63s.21,2,.25,2.65a4.19,4.19,0,0,1,0,1.1,36.38,36.38,0,0,1-.52-3.72A36.38,36.38,0,0,1,283.93,169.84Z"/><path class="cls-3" d="M294.39,174.18c0,.08-1.37.68-2.94,1.69s-2.82,1.89-2.87,1.82a3.55,3.55,0,0,1,.75-.66c.49-.38,1.17-.89,2-1.39A10.31,10.31,0,0,1,294.39,174.18Z"/><ellipse class="cls-3" cx="231.05" cy="180.47" rx="0.14" ry="27.51" transform="translate(-60.83 152.9) rotate(-32.6)"/><g class="cls-4"><circle class="cls-3" cx="248.77" cy="210.71" r="15.52"/><path class="cls-3" d="M233.25,210.71s0-.09,0-.25l0-.74,0-.55c0-.2.06-.42.09-.65a11,11,0,0,1,.3-1.61,14.71,14.71,0,0,1,1.69-4.16,15.61,15.61,0,0,1,10.51-7.39,14.52,14.52,0,0,1,2-.23c.34,0,.68,0,1,0l1,.05a6.8,6.8,0,0,1,1,.11c.35.06.7.1,1.05.17a16.51,16.51,0,0,1,2.09.61,16.27,16.27,0,0,1,2,.89c.33.18.65.39,1,.58a8,8,0,0,1,.95.65,14.32,14.32,0,0,1,3.31,3.32,15.14,15.14,0,0,1,2.24,4.31,15.5,15.5,0,0,1,0,9.88,15.15,15.15,0,0,1-2.24,4.31,14.32,14.32,0,0,1-3.31,3.32,8,8,0,0,1-.95.65c-.33.19-.64.4-1,.58a16.27,16.27,0,0,1-2,.89A16.51,16.51,0,0,1,252,226c-.35.07-.7.11-1.05.17a6.8,6.8,0,0,1-1,.11l-1,.05c-.34,0-.68,0-1,0a14.53,14.53,0,0,1-2-.24,15.61,15.61,0,0,1-10.51-7.39,14.71,14.71,0,0,1-1.69-4.16,11,11,0,0,1-.3-1.61c0-.24-.07-.45-.09-.65l0-.55,0-.74c0-.17,0-.25,0-.25s0,.09,0,.25l.05.74,0,.54c0,.2.06.41.1.65a11.3,11.3,0,0,0,.33,1.6,14.81,14.81,0,0,0,1.72,4.11,15.49,15.49,0,0,0,10.42,7.25,14.35,14.35,0,0,0,1.95.22c.33,0,.67,0,1,0l1-.05a6.63,6.63,0,0,0,1-.11c.34-.06.69-.1,1-.17a16.3,16.3,0,0,0,2.05-.6,16,16,0,0,0,2-.88c.32-.18.64-.38,1-.57a7.85,7.85,0,0,0,.93-.64,14.08,14.08,0,0,0,3.25-3.27,14.9,14.9,0,0,0,2.2-4.24,15.25,15.25,0,0,0,0-9.71,14.9,14.9,0,0,0-2.2-4.24,14.08,14.08,0,0,0-3.25-3.27,7.85,7.85,0,0,0-.93-.64c-.32-.19-.63-.4-1-.57a16.06,16.06,0,0,0-2-.88,16.29,16.29,0,0,0-2.05-.6c-.34-.07-.69-.11-1-.17a6.65,6.65,0,0,0-1-.11l-1-.05c-.34,0-.67,0-1,0a14.32,14.32,0,0,0-1.95.22,15.49,15.49,0,0,0-10.42,7.25,14.81,14.81,0,0,0-1.72,4.11,11.31,11.31,0,0,0-.33,1.6c0,.23-.08.45-.1.65l0,.54-.05.74C233.27,210.62,233.25,210.71,233.25,210.71Z"/></g><polygon class="cls-3" points="244.54 205 242.41 217.15 248.77 216.27 255.13 217.15 252.57 205 244.54 205"/><path class="cls-3" d="M251.46,205.16s-.17-.43-.51-1.08a3.38,3.38,0,0,0-.76-1,2.37,2.37,0,0,0-.62-.36,2.5,2.5,0,0,0-.76-.13,2.63,2.63,0,0,0-1.45.35,2.32,2.32,0,0,0-.79.93c-.32.65-.42,1.11-.47,1.09a2.93,2.93,0,0,1,.29-1.18,2.38,2.38,0,0,1,.83-1.06,2.77,2.77,0,0,1,1.59-.41,2.66,2.66,0,0,1,.85.16,2.52,2.52,0,0,1,.69.42,3.28,3.28,0,0,1,.77,1.09A3,3,0,0,1,251.46,205.16Z"/><ellipse class="cls-3" cx="186.84" cy="180.81" rx="0.14" ry="23.87"/><g class="cls-4"><circle class="cls-3" cx="186.52" cy="211.05" r="15.52"/><path class="cls-3" d="M171,211.05s0-.09,0-.25l0-.74,0-.55c0-.2.06-.42.09-.65a11,11,0,0,1,.3-1.61,14.7,14.7,0,0,1,1.69-4.16,15.61,15.61,0,0,1,10.51-7.39,14.51,14.51,0,0,1,2-.23c.34,0,.68,0,1,0l1,.05a6.8,6.8,0,0,1,1,.11c.35.06.7.1,1.05.17a16.51,16.51,0,0,1,2.09.61,16.27,16.27,0,0,1,2,.89c.33.18.65.39,1,.58a8,8,0,0,1,.95.65,14.31,14.31,0,0,1,3.31,3.32,15.15,15.15,0,0,1,2.24,4.31,15.5,15.5,0,0,1,0,9.88,15.15,15.15,0,0,1-2.24,4.31,14.32,14.32,0,0,1-3.31,3.32,8,8,0,0,1-.95.65c-.33.19-.64.4-1,.58a16.27,16.27,0,0,1-2,.89,16.51,16.51,0,0,1-2.09.61c-.35.07-.7.11-1.05.17a6.8,6.8,0,0,1-1,.11l-1,.05c-.34,0-.68,0-1,0a14.52,14.52,0,0,1-2-.24A15.61,15.61,0,0,1,173.13,219a14.71,14.71,0,0,1-1.69-4.16,11,11,0,0,1-.3-1.61c0-.24-.07-.45-.09-.65l0-.55,0-.74c0-.17,0-.25,0-.25s0,.09,0,.25l.05.74,0,.54c0,.2.06.41.1.65a11.31,11.31,0,0,0,.33,1.6,14.81,14.81,0,0,0,1.72,4.11,15.49,15.49,0,0,0,10.42,7.25,14.32,14.32,0,0,0,1.95.22c.33,0,.67,0,1,0l1-.05a6.63,6.63,0,0,0,1-.11c.34-.06.69-.1,1-.17a16.29,16.29,0,0,0,2.05-.6,16.06,16.06,0,0,0,2-.88c.32-.18.64-.38,1-.57a7.85,7.85,0,0,0,.93-.64,14.08,14.08,0,0,0,3.25-3.27,14.9,14.9,0,0,0,2.2-4.24,15.25,15.25,0,0,0,0-9.71,14.9,14.9,0,0,0-2.2-4.24,14.08,14.08,0,0,0-3.25-3.27,7.83,7.83,0,0,0-.93-.64c-.32-.19-.63-.4-1-.57a16.05,16.05,0,0,0-2-.88,16.29,16.29,0,0,0-2.05-.6c-.34-.07-.69-.11-1-.17a6.63,6.63,0,0,0-1-.11l-1-.05c-.34,0-.67,0-1,0a14.32,14.32,0,0,0-1.95.22,15.49,15.49,0,0,0-10.42,7.25,14.81,14.81,0,0,0-1.72,4.11,11.3,11.3,0,0,0-.33,1.6c0,.23-.08.45-.1.65l0,.54-.05.74C171,211,171,211.05,171,211.05Z"/></g><polygon class="cls-3" points="186.52 204.1 179.79 210.22 179.79 217.98 185.03 217.98 185.03 213.33 188.37 213.33 188.37 217.98 193.26 217.98 193.26 210.22 186.52 204.1"/><ellipse class="cls-3" cx="141.8" cy="180.66" rx="27.92" ry="0.14" transform="translate(-86.79 202.8) rotate(-57.4)"/><g class="cls-4"><circle class="cls-3" cx="124.25" cy="210.86" r="15.52"/><path class="cls-3" d="M139.77,210.86s0-.09,0-.25l-.05-.74,0-.54c0-.2-.06-.41-.1-.65a11.3,11.3,0,0,0-.33-1.6,14.81,14.81,0,0,0-1.72-4.11,15.49,15.49,0,0,0-10.42-7.25,14.33,14.33,0,0,0-1.95-.22c-.33,0-.67,0-1,0l-1,.05a6.64,6.64,0,0,0-1,.11c-.34.06-.69.1-1,.17a16.29,16.29,0,0,0-2.05.6,16.05,16.05,0,0,0-2,.88c-.32.18-.64.38-1,.57a7.85,7.85,0,0,0-.93.64,14.08,14.08,0,0,0-3.25,3.27,14.9,14.9,0,0,0-2.2,4.24,15.25,15.25,0,0,0,0,9.71,14.9,14.9,0,0,0,2.2,4.24,14.08,14.08,0,0,0,3.25,3.27,7.85,7.85,0,0,0,.93.64c.32.19.63.4,1,.57a16.05,16.05,0,0,0,2,.88,16.29,16.29,0,0,0,2.05.6c.34.07.69.11,1,.17a6.63,6.63,0,0,0,1,.11l1,.05c.34,0,.67,0,1,0a14.34,14.34,0,0,0,1.95-.22,15.49,15.49,0,0,0,10.42-7.25,14.81,14.81,0,0,0,1.72-4.11,11.31,11.31,0,0,0,.33-1.6c0-.23.08-.45.1-.65l0-.54.05-.74c0-.17,0-.25,0-.25s0,.09,0,.25l0,.74,0,.55c0,.2-.06.42-.09.65a11,11,0,0,1-.3,1.61,14.7,14.7,0,0,1-1.69,4.16,15.61,15.61,0,0,1-10.51,7.39,14.54,14.54,0,0,1-2,.23c-.34,0-.68,0-1,0l-1-.05a6.79,6.79,0,0,1-1-.11c-.35-.06-.7-.1-1.05-.17a16.5,16.5,0,0,1-2.09-.61,16.27,16.27,0,0,1-2-.89c-.33-.18-.65-.39-1-.58a8,8,0,0,1-.95-.65,14.32,14.32,0,0,1-3.31-3.32,15.15,15.15,0,0,1-2.24-4.31,15.5,15.5,0,0,1,0-9.88,15.14,15.14,0,0,1,2.24-4.31,14.31,14.31,0,0,1,3.31-3.32,8,8,0,0,1,.95-.65c.33-.19.64-.4,1-.58a16.26,16.26,0,0,1,2-.89,16.51,16.51,0,0,1,2.09-.61c.35-.07.7-.11,1.05-.17a6.8,6.8,0,0,1,1-.11l1-.05c.34,0,.68,0,1,0a14.51,14.51,0,0,1,2,.23,15.61,15.61,0,0,1,10.51,7.39,14.7,14.7,0,0,1,1.69,4.16,11,11,0,0,1,.3,1.61c0,.24.07.45.09.65l0,.55,0,.74C139.78,210.77,139.77,210.86,139.77,210.86Z"/></g><rect class="cls-3" x="118.07" y="202.78" width="12.19" height="16.16"/><ellipse class="cls-3" cx="122.75" cy="205.36" rx="2" ry="0.14"/><ellipse class="cls-3" cx="124.28" cy="207.63" rx="4" ry="0.14"/><ellipse class="cls-3" cx="124.28" cy="209.01" rx="4" ry="0.14"/><ellipse class="cls-3" cx="124.28" cy="210.4" rx="4" ry="0.14"/><ellipse class="cls-3" cx="124.28" cy="211.78" rx="4" ry="0.14"/><ellipse class="cls-3" cx="124.28" cy="213.16" rx="4" ry="0.14"/><ellipse class="cls-3" cx="124.28" cy="214.54" rx="4" ry="0.14"/><ellipse class="cls-3" cx="124.28" cy="215.92" rx="4" ry="0.14"/><rect class="cls-3" x="108.16" y="130.81" width="162.74" height="26.72" rx="12.04" ry="12.04"/><path class="cls-3" d="M234.85,130.57v27h22.74a13.48,13.48,0,0,0,13.48-13.48h0a13.48,13.48,0,0,0-13.48-13.48Z"/><path class="cls-3" d="M256,143.3a12.09,12.09,0,0,0-.23-1.38,5.67,5.67,0,0,0-2.08-3.07,5.58,5.58,0,0,0-5.28-.78,5.58,5.58,0,0,0-2.58,1.94,5.54,5.54,0,0,0,0,6.57,5.58,5.58,0,0,0,2.58,1.94,5.58,5.58,0,0,0,5.28-.78,5.67,5.67,0,0,0,2.08-3.07,12.09,12.09,0,0,0,.23-1.38,4.41,4.41,0,0,1-.13,1.4,5.67,5.67,0,0,1-2.06,3.2,5.72,5.72,0,0,1-2.43,1.1,5.81,5.81,0,0,1-3.05-.24,5.81,5.81,0,0,1-2.71-2,5.79,5.79,0,0,1,0-6.89,5.81,5.81,0,0,1,2.71-2,5.81,5.81,0,0,1,3.05-.24,5.74,5.74,0,0,1,4.49,4.3A4.41,4.41,0,0,1,256,143.3Z"/><ellipse class="cls-3" cx="258.09" cy="148.98" rx="0.14" ry="3.94" transform="translate(-13.29 272.09) rotate(-54.4)"/><rect class="cls-3" x="123.64" y="141.67" width="99.48" height="5.72"/><path class="cls-3" d="M258.24,157.54l.92-.06a8.32,8.32,0,0,0,1.12-.14,11.72,11.72,0,0,0,1.53-.35,12.9,12.9,0,0,0,3.9-2l.53-.4.51-.46a10.45,10.45,0,0,0,1-1c.35-.36.62-.8.95-1.22l.42-.69.21-.35.18-.38a12.25,12.25,0,0,0,1.12-3.37l.14-.94.05-1c0-.65,0-1.33,0-2a12.58,12.58,0,0,0-12.2-12.29c-3.63,0-7.48,0-11.52,0l-126.26,0a12.6,12.6,0,0,0-8.31,3.16,12.4,12.4,0,0,0-4.11,7.75,8.62,8.62,0,0,0-.09,1.11c0,.37,0,.74,0,1.12a21.6,21.6,0,0,0,.09,2.22,12.12,12.12,0,0,0,1.26,4.19A12.44,12.44,0,0,0,120,157.36c.71.05,1.43,0,2.15,0h27l56.76,0,38.27,0,10.4,0h0l-10.4,0-38.27,0-56.76,0h-27c-.72,0-1.43,0-2.16,0a12.71,12.71,0,0,1-10.57-7,12.4,12.4,0,0,1-1.29-4.29,21.89,21.89,0,0,1-.09-2.25c0-.37,0-.75,0-1.13a8.87,8.87,0,0,1,.09-1.13,12.67,12.67,0,0,1,4.2-7.92,12.88,12.88,0,0,1,8.49-3.23l126.26,0c4,0,7.88,0,11.53,0A12.73,12.73,0,0,1,271,143.21c0,.69,0,1.36,0,2l-.05,1-.15.95a12.34,12.34,0,0,1-1.14,3.39l-.18.38-.22.36-.42.7c-.33.42-.61.86-1,1.23a10.52,10.52,0,0,1-1,1l-.52.46-.54.4a12.87,12.87,0,0,1-3.93,1.94,11.56,11.56,0,0,1-1.54.33,8.06,8.06,0,0,1-1.13.13Z"/><path class="cls-5" d="M187.73,140.92c-.48-.56-.53-1,.56-1.14,2.4-.22,4.17-1.27,4.45-1.87s-.48-1.2-1.13-.84a9,9,0,0,1-2.34.66,5.88,5.88,0,0,1-1.95,0c-.56-.09-1.05-.18-1.49-.28a11.82,11.82,0,0,1-3.64-1.4l-5.38,5.75,2.52,2.85a3.83,3.83,0,0,0,3.37,1.59,17.34,17.34,0,0,0,5.07-1.77c.39-.6,3.88,1.54,5,2.35s2,.6,1.91-.17c0-.53-3.4-3.08-4.53-3.85a14.15,14.15,0,0,1-2.42-1.91"/><path class="cls-6" d="M184.57,145.92s-.16.1-.43.09a1.85,1.85,0,0,1-1.63-1.23c-.08-.27-.06-.44,0-.44s.21.63.82,1.08A3.65,3.65,0,0,0,184.57,145.92Z"/><path class="cls-6" d="M186.7,145.08s-.15.09-.42.07a1.84,1.84,0,0,1-1.55-1.21c-.08-.25-.06-.42,0-.42s.22.59.8,1A4.13,4.13,0,0,0,186.7,145.08Z"/><path class="cls-7" d="M192.49,85.31c.22,4.72,6,11.18,10.26,12.23,2.25.55,4.84.29,6.62,1.8,3.06,2.59,1.27,8,3.33,11.45,1.27,2.14,3.79,3.19,5.21,5.22,2.37,3.37.78,8.47-2.45,11s-7.54,3-11.6,2.89c-8.92-.23-18-3.06-24.49-9.38-3-3-14.87-12.14-10.74-33.86"/><path class="cls-8" d="M224.68,119.07,190.78,109a21.5,21.5,0,0,0-4.94-1.49l-11.44.08a11.13,11.13,0,0,0-4.39.92l-30.86,10.25a5.89,5.89,0,0,0-3.86,5.73h0c0,3.29,2.37,6,5.29,6h14.25l-.06.21,49.56.19v0l18.92,0c2.92,0,5.29-2.69,5.29-6A6,6,0,0,0,224.68,119.07Z"/><path class="cls-7" d="M217.88,122.73l-.31,0-.87-.1c-.76-.1-1.85-.22-3.21-.35a96.69,96.69,0,0,0-21.25.28c-1.35.17-2.45.32-3.2.43l-.87.12-.31,0,.3-.08.86-.17c.75-.15,1.84-.33,3.19-.52a85.19,85.19,0,0,1,21.3-.28c1.36.16,2.45.31,3.2.44l.87.15Z"/><g class="cls-9"><path class="cls-10" d="M209.93,114.49l-.09.11-.3.32c-.27.27-.66.67-1.2,1.16a19.26,19.26,0,0,1-2.06,1.66,10.2,10.2,0,0,1-3.17,1.51,8.08,8.08,0,0,1-4.24-.08,21,21,0,0,1-4.46-2,27.1,27.1,0,0,0-4.83-2.26,7.45,7.45,0,0,0-5.52.28c-1.78.8-3.3,2-5,2.91-.41.23-.85.41-1.27.6a13.44,13.44,0,0,1-1.3.43,12.63,12.63,0,0,1-2.61.45,13.45,13.45,0,0,1-8.67-2.39,23.66,23.66,0,0,1-2.62-2.33,12.78,12.78,0,0,0-2-1.66,5.62,5.62,0,0,0-2.08-.78,3.14,3.14,0,0,1,.58.07,4.88,4.88,0,0,1,1.55.62,12.4,12.4,0,0,1,2.08,1.64,24.29,24.29,0,0,0,2.63,2.28,13.33,13.33,0,0,0,8.54,2.29,12.44,12.44,0,0,0,2.56-.45,13.23,13.23,0,0,0,1.27-.43c.41-.19.83-.36,1.24-.59,1.63-.87,3.15-2.1,5-2.93a7.71,7.71,0,0,1,5.71-.29,27,27,0,0,1,4.87,2.3,21,21,0,0,0,4.4,2,7.91,7.91,0,0,0,4.13.12,10.16,10.16,0,0,0,3.13-1.45,20.37,20.37,0,0,0,2.08-1.61c.54-.47,1-.86,1.23-1.12l.32-.3Z"/></g><g class="cls-11"><polygon points="157.25 122.66 178.68 126.7 176.2 130.73 175.55 130.74 157.25 122.66"/></g><g class="cls-9"><path class="cls-10" d="M222.11,118.43a1.45,1.45,0,0,1,0,.33,7.1,7.1,0,0,1-.09.94,8.22,8.22,0,0,1-8.35,6.78,13.73,13.73,0,0,1-3.21-.59c-1.07-.3-2.1-.64-3.12-.84a9.05,9.05,0,0,0-3-.15,9.45,9.45,0,0,0-4.62,1.89,9.29,9.29,0,0,0-2.3,2.51l-.28.46-.18.35a1.47,1.47,0,0,1-.16.29,1.45,1.45,0,0,1,.11-.31l.15-.37.26-.48a8.93,8.93,0,0,1,2.27-2.61,9.51,9.51,0,0,1,4.71-2,9.22,9.22,0,0,1,3,.14c1,.21,2.08.54,3.14.84a13.68,13.68,0,0,0,3.15.58,8.12,8.12,0,0,0,6.89-3.42,8.43,8.43,0,0,0,1.35-3.12C222.09,118.88,222.09,118.43,222.11,118.43Z"/></g><path class="cls-12" d="M139.18,129.76s38.74,17.09,38.54,16.71,6.15-11.6,6.15-11.6l-31.39-15.51Z"/><path class="cls-13" d="M157,121.57a5.16,5.16,0,0,1,.8.33l2.13,1c1.79.86,4.27,2.06,7,3.41s5.18,2.58,7,3.48l2.09,1.08a5.19,5.19,0,0,1,.75.43,5.15,5.15,0,0,1-.8-.33l-2.13-1c-1.79-.86-4.27-2.06-7-3.41s-5.18-2.58-7-3.48L157.71,122A5.18,5.18,0,0,1,157,121.57Z"/><g class="cls-9"><path class="cls-14" d="M165.47,126.75a3.34,3.34,0,0,1-.36,1.15,5.43,5.43,0,0,1-2.31,2.31,7.1,7.1,0,0,1-2.15.77,8.49,8.49,0,0,1-2.62,0,19.82,19.82,0,0,1-5.65-1.9,29.46,29.46,0,0,0-5.49-2.17,9.88,9.88,0,0,0-2.54-.29,7.92,7.92,0,0,0-2.19.37,6,6,0,0,0-2.7,1.69,11.11,11.11,0,0,0-.7,1,3.59,3.59,0,0,1,.62-1,5.89,5.89,0,0,1,2.72-1.81,8,8,0,0,1,2.24-.41,10,10,0,0,1,2.6.28,28.61,28.61,0,0,1,5.55,2.16,20.07,20.07,0,0,0,5.57,1.89,8.37,8.37,0,0,0,2.55,0,7,7,0,0,0,2.1-.71,5.48,5.48,0,0,0,2.31-2.19A9.27,9.27,0,0,0,165.47,126.75Z"/></g><g class="cls-9"><path class="cls-15" d="M181.91,138.47c0,.05-.86-.09-2.24-.11a18.87,18.87,0,0,0-2.42.12,18.5,18.5,0,0,0-5.69,1.61,18.86,18.86,0,0,0-2.13,1.17c-1.17.74-1.82,1.31-1.85,1.27a2.54,2.54,0,0,1,.43-.43,12.51,12.51,0,0,1,1.31-1,16.5,16.5,0,0,1,2.13-1.23,17.22,17.22,0,0,1,5.77-1.63,16.51,16.51,0,0,1,2.46-.07,12.49,12.49,0,0,1,1.65.17A2.54,2.54,0,0,1,181.91,138.47Z"/></g><g class="cls-11"><path d="M186.69,107.44c-.64,1.79.32,3.72,1.25,5.38a14.6,14.6,0,0,0,2.25,3.26,4.92,4.92,0,0,0,3.52,1.58c1.74-.06,3.3-1.34,5-1.24a6.67,6.67,0,0,1,3.2,1.43,25.34,25.34,0,0,0,5.37,3,9.65,9.65,0,0,0,6,.38,6,6,0,0,0,4.18-4.14"/></g><path class="cls-5" d="M186.83,106.95c.09-2.09.2-4,.2-4a5.62,5.62,0,0,0,4.86-5.35c.2-4.76-.27-15.71-.27-15.71L183,77.8l-9.23,7.44,1.45,21.85a5.79,5.79,0,0,0,6,5.4h0A5.79,5.79,0,0,0,186.83,106.95Z"/><ellipse class="cls-7" cx="190.23" cy="90.53" rx="0.59" ry="0.61" transform="matrix(1, -0.02, 0.02, 1, -1.54, 3.31)"/><path class="cls-7" d="M191.4,89.25c-.07.08-.52-.29-1.16-.32s-1.11.3-1.18.21,0-.18.25-.34a1.54,1.54,0,0,1,1.87.08C191.37,89.06,191.43,89.21,191.4,89.25Z"/><ellipse class="cls-7" cx="183.16" cy="90.53" rx="0.59" ry="0.61" transform="translate(-1.54 3.19) rotate(-0.99)"/><path class="cls-7" d="M184.32,89.37c-.07.08-.52-.29-1.16-.32s-1.11.3-1.18.21,0-.18.25-.34a1.54,1.54,0,0,1,1.87.08C184.3,89.19,184.36,89.34,184.32,89.37Z"/><path class="cls-7" d="M186.72,94.86a3.93,3.93,0,0,1,1-.16c.16,0,.32,0,.35-.16A1,1,0,0,0,188,94l-.46-1.35a24.53,24.53,0,0,1-1-3.52,24.38,24.38,0,0,1,1.29,3.43l.44,1.36a1.08,1.08,0,0,1,.07.69.41.41,0,0,1-.27.24,1,1,0,0,1-.28,0A3.9,3.9,0,0,1,186.72,94.86Z"/><path class="cls-10" d="M184.62,95.52c-.65-.43,1.8,1.06,3.1,1a1.74,1.74,0,0,1-2.1.65A1.38,1.38,0,0,1,184.62,95.52Z"/><path class="cls-6" d="M187,103a11.35,11.35,0,0,1-6.17-2s1.45,3.47,6.09,3.19Z"/><path class="cls-7" d="M168.81,89.92h0c0,4.12-1.09,15,6.41,16.52l-.27-15s7.27-3.43,8.49-10.56l0,0c.47,1.08,1.29,3.39.79,5.28l6.81,1.68.78.72a9.36,9.36,0,0,0-2.25-10.13c-4.68-4.82-8.67-1.33-11.18-1.63-1.67-.2-7.45-.16-9.8,9.79Z"/><path class="cls-5" d="M175.14,91.61a1.67,1.67,0,0,0-2,.48,2.73,2.73,0,0,0,2.72,4.49"/><path class="cls-6" d="M175,95.15s-.21.07-.55,0a1.44,1.44,0,0,1-1-.88,1.06,1.06,0,0,1,0-.78,1.13,1.13,0,0,1,.41-.47c.3-.19.53-.18.53-.15s-.19.1-.41.3a.93.93,0,0,0-.29,1,1.42,1.42,0,0,0,.8.79C174.79,95.08,175,95.11,175,95.15Z"/><path class="cls-16" d="M174.37,96.09a.54.54,0,1,0,.21,0"/><path class="cls-5" d="M188.16,130.86V123s-11.61,2.41-11.83,7.73Z"/><path class="cls-7" d="M187,106.13a9.73,9.73,0,0,0,9.53,9c1.71,0,3.52-.38,5.09.32,1.36.61,2.24,1.93,3.31,3a9.82,9.82,0,0,0,9.74,2.2c1.41-.47,3.64-1.48,3.9-2.94.2-1.11-1.16-2.22-2-3a9.91,9.91,0,0,0-2.86-1.79c-8.27-3.89-17.15-6.71-26.28-7.19"/></g></g></svg>