<svg xmlns="http://www.w3.org/2000/svg" xmlns:xlink="http://www.w3.org/1999/xlink" viewBox="0 0 318.21 241.51"><defs><style>.cls-1,.cls-27{fill:none;}.cls-2{isolation:isolate;}.cls-3,.cls-4{opacity:0.2;}.cls-3{fill:url(#Gradient_bez_nazwy_8);}.cls-4{fill:url(#Gradient_bez_nazwy_5);}.cls-5{fill:url(#Gradient_bez_nazwy_5-2);}.cls-6{fill:url(#Gradient_bez_nazwy_5-3);}.cls-7{fill:url(#Gradient_bez_nazwy_5-4);}.cls-8{fill:url(#Gradient_bez_nazwy_5-5);}.cls-9{fill:url(#Gradient_bez_nazwy_14);}.cls-10{fill:url(#Gradient_bez_nazwy_9);}.cls-11{fill:url(#Gradient_bez_nazwy_14-2);}.cls-12{fill:url(#Gradient_bez_nazwy_9-2);}.cls-13{fill:url(#Безымянный_градиент_7);}.cls-14{fill:url(#Gradient_bez_nazwy_9-3);}.cls-15{fill:url(#Безымянный_градиент_7-2);}.cls-16{fill:url(#Gradient_bez_nazwy_9-4);}.cls-17{fill:url(#Gradient_bez_nazwy_5-6);}.cls-18{fill:url(#Gradient_bez_nazwy_5-7);}.cls-19{fill:url(#Gradient_bez_nazwy_5-8);}.cls-20{fill:url(#Gradient_bez_nazwy_5-9);}.cls-21{fill:url(#Gradient_bez_nazwy_8-2);}.cls-22{fill:url(#Gradient_bez_nazwy_8-3);}.cls-23{fill:#5c5cc6;}.cls-24,.cls-26,.cls-28,.cls-29,.cls-51,.cls-64,.cls-66{mix-blend-mode:multiply;}.cls-24{fill:url(#Gradient_bez_nazwy_3);}.cls-25{fill:url(#Gradient_bez_nazwy_5-10);}.cls-26,.cls-30{fill:#b4b4f9;}.cls-26{opacity:0.57;}.cls-27{stroke:#6459ff;stroke-linecap:round;stroke-miterlimit:10;stroke-width:3.75px;}.cls-28{fill:url(#Gradient_bez_nazwy_3-2);}.cls-29{fill:url(#Gradient_bez_nazwy_3-3);}.cls-31{fill:#606060;}.cls-32{fill:#debb3e;}.cls-33{fill:#efe46e;}.cls-34{fill:url(#Gradient_bez_nazwy_4);}.cls-35{fill:url(#Gradient_bez_nazwy_2);}.cls-36{fill:url(#Gradient_bez_nazwy_2-2);}.cls-37{fill:#ea8f68;}.cls-38{fill:url(#Gradient_bez_nazwy_2-3);}.cls-39{fill:url(#Gradient_bez_nazwy_10);}.cls-40{fill:url(#Gradient_bez_nazwy_5-11);}.cls-41{fill:url(#Gradient_bez_nazwy_5-12);}.cls-42{fill:url(#Gradient_bez_nazwy_5-13);}.cls-43{fill:url(#Gradient_bez_nazwy_5-14);}.cls-44{fill:#ffaf84;}.cls-45{fill:url(#Gradient_bez_nazwy_4-2);}.cls-46{fill:url(#Gradient_bez_nazwy_4-3);}.cls-47{fill:url(#Gradient_bez_nazwy_4-4);}.cls-48{fill:url(#Gradient_bez_nazwy_4-5);}.cls-49{fill:url(#Gradient_bez_nazwy_2-4);}.cls-50{fill:url(#Gradient_bez_nazwy_2-5);}.cls-51,.cls-64,.cls-66{opacity:0.3;}.cls-51{fill:url(#Gradient_bez_nazwy_3-4);}.cls-52{fill:url(#Gradient_bez_nazwy_5-15);}.cls-53{fill:url(#Gradient_bez_nazwy_5-16);}.cls-54{fill:#f70f47;}.cls-55{fill:#ed9169;}.cls-56{fill:url(#Gradient_bez_nazwy_5-17);}.cls-57{fill:url(#Gradient_bez_nazwy_2-6);}.cls-58{fill:url(#Gradient_bez_nazwy_2-7);}.cls-59{fill:url(#Gradient_bez_nazwy_2-8);}.cls-60{fill:url(#Gradient_bez_nazwy_2-9);}.cls-61{fill:url(#Gradient_bez_nazwy_2-10);}.cls-62{fill:url(#Gradient_bez_nazwy_5-18);}.cls-63{fill:url(#Gradient_bez_nazwy_5-19);}.cls-64{fill:url(#Gradient_bez_nazwy_3-5);}.cls-65{clip-path:url(#clip-path);}.cls-66{fill:url(#Gradient_bez_nazwy_3-6);}</style><linearGradient id="Gradient_bez_nazwy_8" x1="-698.78" y1="1606.06" x2="-491.48" y2="1606.06" gradientTransform="matrix(1.1, -0.76, 0.68, 1.02, -271.06, -1965.51)" gradientUnits="userSpaceOnUse"><stop offset="0" stop-color="#2c27ce"/><stop offset="1" stop-color="#ef1d68"/></linearGradient><linearGradient id="Gradient_bez_nazwy_5" x1="-2.38" y1="257.89" x2="304.58" y2="257.89" gradientTransform="translate(101.94 -168.28) rotate(17.17)" gradientUnits="userSpaceOnUse"><stop offset="0" stop-color="#36078b"/><stop offset="1" stop-color="#16b1ff"/></linearGradient><linearGradient id="Gradient_bez_nazwy_5-2" x1="-1530.66" y1="-1181.1" x2="-1514.16" y2="-1198.78" gradientTransform="translate(1244.25 1750.98) rotate(17.78)" xlink:href="#Gradient_bez_nazwy_5"/><linearGradient id="Gradient_bez_nazwy_5-3" x1="387.2" y1="432.8" x2="403.69" y2="415.13" gradientTransform="translate(-272.78 -249.9) rotate(-3.7)" xlink:href="#Gradient_bez_nazwy_5"/><linearGradient id="Gradient_bez_nazwy_5-4" x1="1742.83" y1="3223.8" x2="1757.76" y2="3207.8" gradientTransform="translate(-2994.64 -1746.23) rotate(-30.33)" xlink:href="#Gradient_bez_nazwy_5"/><linearGradient id="Gradient_bez_nazwy_5-5" x1="1721.83" y1="6251.91" x2="1735.24" y2="6237.54" gradientTransform="translate(-6022.25 -1879.89) rotate(-56.33)" xlink:href="#Gradient_bez_nazwy_5"/><linearGradient id="Gradient_bez_nazwy_14" x1="-475.99" y1="-465.86" x2="-416.82" y2="-529.26" gradientTransform="translate(555.18 650.65) rotate(6.72)" gradientUnits="userSpaceOnUse"><stop offset="0" stop-color="#f70f47"/><stop offset="1" stop-color="#ffb41d"/></linearGradient><linearGradient id="Gradient_bez_nazwy_9" x1="-1691.22" y1="-1202.94" x2="-1642.07" y2="-1280.68" gradientTransform="matrix(0.95, 0.31, -0.31, 0.95, 1345.32, 1834.24)" gradientUnits="userSpaceOnUse"><stop offset="0.48" stop-color="#36078b"/><stop offset="1" stop-color="#16b1ff"/></linearGradient><linearGradient id="Gradient_bez_nazwy_14-2" x1="-6839.67" y1="-1781.01" x2="-6794.63" y2="-1829.28" gradientTransform="matrix(-0.87, -0.5, -0.5, 0.87, -6675.75, -1732.64)" xlink:href="#Gradient_bez_nazwy_14"/><linearGradient id="Gradient_bez_nazwy_9-2" x1="-1656.58" y1="-1201.7" x2="-1709.64" y2="-1285.61" xlink:href="#Gradient_bez_nazwy_9"/><linearGradient id="Безымянный_градиент_7" x1="-159.7" y1="-159.12" x2="-76.87" y2="-247.87" gradientTransform="translate(320.87 272.32) rotate(2.34)" gradientUnits="userSpaceOnUse"><stop offset="0" stop-color="#dd001e"/><stop offset="0.42" stop-color="#ab0639"/><stop offset="1" stop-color="#221783"/></linearGradient><linearGradient id="Gradient_bez_nazwy_9-3" x1="-1686.92" y1="-1202.45" x2="-1613.6" y2="-1336.13" xlink:href="#Gradient_bez_nazwy_9"/><linearGradient id="Безымянный_градиент_7-2" x1="-1955.6" y1="-1409.32" x2="-1895.84" y2="-1473.35" gradientTransform="translate(1485.61 2156.26) rotate(21.2)" xlink:href="#Безымянный_градиент_7"/><linearGradient id="Gradient_bez_nazwy_9-4" x1="-1679.36" y1="-1205.28" x2="-1599.18" y2="-1278.51" xlink:href="#Gradient_bez_nazwy_9"/><linearGradient id="Gradient_bez_nazwy_5-6" x1="-1637.22" y1="-1290.85" x2="-1628.25" y2="-1307.2" gradientTransform="matrix(0.95, 0.31, -0.31, 0.95, 1345.32, 1834.24)" xlink:href="#Gradient_bez_nazwy_5"/><linearGradient id="Gradient_bez_nazwy_5-7" x1="-1633.92" y1="-1307.57" x2="-1628.26" y2="-1322.38" gradientTransform="matrix(0.95, 0.31, -0.31, 0.95, 1345.32, 1834.24)" xlink:href="#Gradient_bez_nazwy_5"/><linearGradient id="Gradient_bez_nazwy_5-8" x1="-1663.24" y1="-1300.02" x2="-1663.19" y2="-1314.04" gradientTransform="matrix(0.95, 0.31, -0.31, 0.95, 1345.32, 1834.24)" xlink:href="#Gradient_bez_nazwy_5"/><linearGradient id="Gradient_bez_nazwy_5-9" x1="-1653.73" y1="-1316.59" x2="-1651.35" y2="-1327.26" gradientTransform="matrix(0.95, 0.31, -0.31, 0.95, 1345.32, 1834.24)" xlink:href="#Gradient_bez_nazwy_5"/><linearGradient id="Gradient_bez_nazwy_8-2" x1="-1666.52" y1="-1218.46" x2="-1666.52" y2="-1193.28" gradientTransform="matrix(0.95, 0.31, -0.31, 0.95, 1345.32, 1834.24)" xlink:href="#Gradient_bez_nazwy_8"/><linearGradient id="Gradient_bez_nazwy_8-3" x1="-1666.52" y1="-1212.03" x2="-1666.52" y2="-1223.01" gradientTransform="matrix(0.95, 0.31, -0.31, 0.95, 1345.32, 1834.24)" xlink:href="#Gradient_bez_nazwy_8"/><linearGradient id="Gradient_bez_nazwy_3" x1="122.99" y1="192.79" x2="139.45" y2="192.79" gradientUnits="userSpaceOnUse"><stop offset="0" stop-color="blue"/><stop offset="1" stop-color="#9e005d"/></linearGradient><linearGradient id="Gradient_bez_nazwy_5-10" x1="110.63" y1="150.43" x2="227.23" y2="150.43" gradientTransform="matrix(1, 0, 0, 1, 0, 0)" xlink:href="#Gradient_bez_nazwy_5"/><linearGradient id="Gradient_bez_nazwy_3-2" x1="158.99" y1="198.51" x2="177.05" y2="198.51" xlink:href="#Gradient_bez_nazwy_3"/><linearGradient id="Gradient_bez_nazwy_3-3" x1="198.97" y1="182.39" x2="216.8" y2="182.39" xlink:href="#Gradient_bez_nazwy_3"/><linearGradient id="Gradient_bez_nazwy_4" x1="-3006.41" y1="91.73" x2="-3051.7" y2="59.07" gradientTransform="matrix(-1, 0, 0, 1, -2787.83, 0)" gradientUnits="userSpaceOnUse"><stop offset="0" stop-color="#2c27ce"/><stop offset="0.65" stop-color="#ef1d68"/><stop offset="1" stop-color="#efba92"/></linearGradient><linearGradient id="Gradient_bez_nazwy_2" x1="-150.16" y1="3312.12" x2="-164.15" y2="3346.99" gradientTransform="matrix(-0.61, -0.79, -0.79, 0.61, 2766.07, -2073.29)" gradientUnits="userSpaceOnUse"><stop offset="0" stop-color="#f70f47"/><stop offset="1" stop-color="#9e005d"/></linearGradient><linearGradient id="Gradient_bez_nazwy_2-2" x1="-5783.78" y1="8090.45" x2="-5799.45" y2="8129.51" gradientTransform="matrix(0.7, 0.72, 0.72, -0.7, -1562.81, 9917.21)" xlink:href="#Gradient_bez_nazwy_2"/><linearGradient id="Gradient_bez_nazwy_2-3" x1="-3031.54" y1="87.86" x2="-3026.37" y2="132.28" gradientTransform="matrix(-1, 0, 0, 1, -2787.83, 0)" xlink:href="#Gradient_bez_nazwy_2"/><linearGradient id="Gradient_bez_nazwy_10" x1="-3022.34" y1="118.72" x2="-3042.83" y2="178.36" gradientTransform="matrix(-1, 0, 0, 1, -2787.83, 0)" gradientUnits="userSpaceOnUse"><stop offset="0" stop-color="#36078b"/><stop offset="1" stop-color="#168d68"/></linearGradient><linearGradient id="Gradient_bez_nazwy_5-11" x1="-3743.31" y1="-117.74" x2="-3764.26" y2="-56.78" gradientTransform="matrix(-0.99, 0.15, 0.15, 0.99, -3458.71, 817.71)" xlink:href="#Gradient_bez_nazwy_5"/><linearGradient id="Gradient_bez_nazwy_5-12" x1="-3025.64" y1="117.59" x2="-3046.13" y2="177.23" gradientTransform="matrix(-1, 0, 0, 1, -2787.83, 0)" xlink:href="#Gradient_bez_nazwy_5"/><linearGradient id="Gradient_bez_nazwy_5-13" x1="-2996.45" y1="127.62" x2="-3016.94" y2="187.26" gradientTransform="matrix(-1, 0, 0, 1, -2787.83, 0)" xlink:href="#Gradient_bez_nazwy_5"/><linearGradient id="Gradient_bez_nazwy_5-14" x1="-3010" y1="122.96" x2="-3030.49" y2="182.6" gradientTransform="matrix(-1, 0, 0, 1, -2787.83, 0)" xlink:href="#Gradient_bez_nazwy_5"/><linearGradient id="Gradient_bez_nazwy_4-2" x1="-3015.99" y1="239.65" x2="-3013.68" y2="211.11" xlink:href="#Gradient_bez_nazwy_4"/><linearGradient id="Gradient_bez_nazwy_4-3" x1="-3048.74" y1="244.95" x2="-3045.81" y2="208.98" xlink:href="#Gradient_bez_nazwy_4"/><linearGradient id="Gradient_bez_nazwy_4-4" x1="-3011.86" y1="85.5" x2="-3037.55" y2="56.18" xlink:href="#Gradient_bez_nazwy_4"/><linearGradient id="Gradient_bez_nazwy_4-5" x1="-3006.57" y1="80.87" x2="-3032.26" y2="51.55" xlink:href="#Gradient_bez_nazwy_4"/><linearGradient id="Gradient_bez_nazwy_2-4" x1="-4049.92" y1="-246.51" x2="-4066.75" y2="-204.56" gradientTransform="matrix(-0.71, 0.18, 0.26, 0.97, -2575.27, 1056.01)" xlink:href="#Gradient_bez_nazwy_2"/><linearGradient id="Gradient_bez_nazwy_2-5" x1="-502.25" y1="443.07" x2="-514.51" y2="473.63" gradientTransform="matrix(0.67, -0.74, 0.74, 0.67, 265.89, -599.62)" xlink:href="#Gradient_bez_nazwy_2"/><linearGradient id="Gradient_bez_nazwy_3-4" x1="66.94" y1="215.32" x2="75.42" y2="215.32" xlink:href="#Gradient_bez_nazwy_3"/><linearGradient id="Gradient_bez_nazwy_5-15" x1="131.48" y1="70.39" x2="101.36" y2="78.69" gradientTransform="matrix(1, 0, 0, 1, 0, 0)" xlink:href="#Gradient_bez_nazwy_5"/><linearGradient id="Gradient_bez_nazwy_5-16" x1="131.49" y1="70.45" x2="101.38" y2="78.74" gradientTransform="matrix(1, 0, 0, 1, 0, 0)" xlink:href="#Gradient_bez_nazwy_5"/><linearGradient id="Gradient_bez_nazwy_5-17" x1="85.3" y1="80.06" x2="90.52" y2="124.93" gradientTransform="matrix(1, 0, 0, 1, 0, 0)" xlink:href="#Gradient_bez_nazwy_5"/><linearGradient id="Gradient_bez_nazwy_2-6" x1="74.46" y1="128" x2="103.63" y2="128" gradientTransform="matrix(1, 0, 0, 1, 0, 0)" xlink:href="#Gradient_bez_nazwy_2"/><linearGradient id="Gradient_bez_nazwy_2-7" x1="67.57" y1="188.46" x2="81.25" y2="188.46" gradientTransform="matrix(1, 0, 0, 1, 0, 0)" xlink:href="#Gradient_bez_nazwy_2"/><linearGradient id="Gradient_bez_nazwy_2-8" x1="71.07" y1="148.35" x2="89.18" y2="148.35" gradientTransform="matrix(1, 0, 0, 1, 0, 0)" xlink:href="#Gradient_bez_nazwy_2"/><linearGradient id="Gradient_bez_nazwy_2-9" x1="94.44" y1="190.66" x2="105.14" y2="190.66" gradientTransform="matrix(1, 0, 0, 1, 0, 0)" xlink:href="#Gradient_bez_nazwy_2"/><linearGradient id="Gradient_bez_nazwy_2-10" x1="88.38" y1="148.18" x2="105.13" y2="148.18" gradientTransform="matrix(1, 0, 0, 1, 0, 0)" xlink:href="#Gradient_bez_nazwy_2"/><linearGradient id="Gradient_bez_nazwy_5-18" x1="66.15" y1="82.29" x2="71.37" y2="127.16" gradientTransform="matrix(1, 0, 0, 1, 0, 0)" xlink:href="#Gradient_bez_nazwy_5"/><linearGradient id="Gradient_bez_nazwy_5-19" x1="69.48" y1="81.91" x2="74.71" y2="126.77" gradientTransform="matrix(1, 0, 0, 1, 0, 0)" xlink:href="#Gradient_bez_nazwy_5"/><linearGradient id="Gradient_bez_nazwy_3-5" x1="97.91" y1="216.47" x2="111.9" y2="216.47" xlink:href="#Gradient_bez_nazwy_3"/><clipPath id="clip-path"><path class="cls-1" d="M129.92,53.48c-1.19-1.19-3.61,3.28-5.2,6.7-.27-1.2-.68-2.22-1.39-2.1s-.37,4.06-.3,4.72a4.86,4.86,0,0,0,.18,1s0,.09,0,.13c-2.22,2.65-10.76,10-12.56,13-3.22-.92-9-3.07-16.23-5.27a3.05,3.05,0,0,0-1.08-.06A22.3,22.3,0,0,0,88,70.63c0-.47,0-.92,0-1.35C90,69,91.56,66.78,92,65a27.16,27.16,0,0,0,.73-5.19,5.19,5.19,0,0,0,.34-.89c.37-1.29,1-5.24-.25-6.8,2.29-1.35,1.9-6.12-1.83-6.47-2.23,0-.61.53-2.42,1.26-.9.37-10.82.72-9.24,3.42-.76.12-1.37.74-1.77,2.25-.56,2.1-.8,3.42-.49,4.5a.88.88,0,0,0-.36.06c-.82.33-1,1.87-.33,3.42a3.6,3.6,0,0,0,2,2.24,5.82,5.82,0,0,0,1.93,3.65c-.11,1.3-.22,2.84-.29,4.35-1,.13-1.91.3-2.79.46a12.62,12.62,0,0,0-2.29.65,4.33,4.33,0,0,0-1.66.86,7,7,0,0,0-2.54,2.89c-1,1.28-2.32,3.07-4.09,5.79-5.17,8-6.38,11.74-6.66,13.46a1,1,0,0,0,0,.39,1.73,1.73,0,0,0,.14.66c2,4.47,2.87,6.1,8.09,11.56a48.24,48.24,0,0,0,5,5,1.58,1.58,0,0,0,1.29,1.67,1.52,1.52,0,0,0,.94,0,54,54,0,0,1-.15,5.43,43.59,43.59,0,0,0-1,9.65c-.45,4-2.49,32.7-3.21,38,0,.21,0,.41-.07.61v0c-4,9.06-3.72,38-3.5,43.83,0,.3.09.46.2.53a4,4,0,0,0-.06,1.11,11,11,0,0,1-.76,3.82c-.67,2.16,1.68,2.42,5.64,2.35,3.71-.07,2.76-1.51,2.15-2.41S73.36,216,73.19,215c-.12-.71,0-1.14-.24-2.09h0c.85-7.88,5.85-32.37,8-41a10.68,10.68,0,0,0,.3-2.25c2.62-8.92,6.66-24.15,7.65-30.68,1.29,7.34,4.28,23.88,6.4,31.61-2.81,10.81,2.49,32.91,2.82,45.64v0c0,.08,0,.15,0,.23-.3,2.42-.28,2.55,1.94,2.57a30.27,30.27,0,0,1,4.51.26,15.05,15.05,0,0,0,6.68-.09c2.42-.78-1.94-1.2-4-2.08a9.23,9.23,0,0,1-3.86-2.81,1.78,1.78,0,0,0-.34-.43c-.17-16.92,1.76-33.77,2.14-42.51a11,11,0,0,0,0-1.48,19.6,19.6,0,0,0,0-2.63c-.31-4-1-20.85-1.43-30.94h0a154.68,154.68,0,0,0-1-16.65s-.14-21.81-1.6-36.12c7.74,1.6,11.28,1.5,12.93,1.21a1.59,1.59,0,0,0,1.46-.51c2.35-2.54,4.71-5.74,8.25-11.87,2-3.47,2.55-5.17,2.62-6.77a6.22,6.22,0,0,0,4.23-4.14C131,60,131.85,55.42,129.92,53.48ZM68.63,94.37c.85-1.16,2.09-2.69,3.58-4.54a120,120,0,0,1,3.06,18.45C73.31,104,70.37,96.57,68.63,94.37Z"/></clipPath><linearGradient id="Gradient_bez_nazwy_3-6" x1="-4815.22" y1="14130.28" x2="-4662.92" y2="14223.85" gradientTransform="matrix(-0.4, -0.87, 0.54, -0.47, -9457.11, 2727.38)" xlink:href="#Gradient_bez_nazwy_3"/></defs><title>slide4</title><g class="cls-2"><g id="Слой_2" data-name="Слой 2"><g id="Designed_by_Freepik" data-name="Designed by Freepik"><path class="cls-3" d="M77.67,31.81C136-13.71,183.27-4.55,224.42,23s73.1,24.8,86.47,79.75-40.51,100.35-66.51,110.67-58.32,13-93.11,22.29c-51.75,13.76-75.16,1.25-88.88-17.48C43,191.7,56.54,178,41.58,144.6,23.65,104.62,32.05,67.43,77.67,31.81Z"/><path class="cls-4" d="M59,22.38c-50.72,32.35-37.49,97.36-5.91,138.5,28.17,36.69,86,74,125.93,68.43,29.19-4.06,29.73-28.34,75.38-38.88,29.67-6.85,40.92.76,52.32-7.1,27.24-18.79,5-91-54.19-133.79C203.06,13.8,113-12.08,59,22.38Z"/><path class="cls-5" d="M146.33,158c-3.48-4.26,5-11,15.52-8.44a21.63,21.63,0,0,1-2.72,8.56C157.14,161.23,151.21,163.92,146.33,158Z"/><path class="cls-6" d="M140.19,156.69c-4.8-2.69.62-12,11.36-13.53a21.63,21.63,0,0,1,.6,9C151.45,155.78,146.91,160.46,140.19,156.69Z"/><path class="cls-7" d="M136.38,156.2c-5-.23-4.39-10,3.7-15.56a19.59,19.59,0,0,1,4.13,7C145.12,150.89,143.35,156.52,136.38,156.2Z"/><path class="cls-8" d="M134.78,154.4c-4.11,1.77-7.48-6.35-3.14-14a17.6,17.6,0,0,1,6.09,4C139.75,146.67,140.53,151.91,134.78,154.4Z"/><path class="cls-9" d="M132.57,130.21c-15.19-12.59,10-42.11,48.84-40.38,0,0,2,17.45-3.69,32C172.88,134.29,153.85,147.85,132.57,130.21Z"/><path class="cls-10" d="M176.45,93a35.29,35.29,0,0,0-11,5.87,44.42,44.42,0,0,0-4.68,4c-.72.73-1.47,1.43-2.16,2.19l-1,1.12-1,1.18a76.67,76.67,0,0,0-7.12,10c-.5.9-1.09,1.75-1.56,2.66l-1.49,2.72c-.91,1.86-1.87,3.69-2.67,5.6a169.45,169.45,0,0,0-8.52,23.53c-1.16,4-2.27,8.12-3.3,12.23-.52,2.05-1.1,4.1-1.58,6.18l-.71,3.11-.81,3.11-.3,0a218.57,218.57,0,0,1,4.36-25.16c.45-2.08,1.07-4.12,1.6-6.19s1.23-4.08,1.85-6.12A126.08,126.08,0,0,1,141,127.1c.84-2,1.86-3.84,2.82-5.74s2.08-3.73,3.25-5.52a69.44,69.44,0,0,1,7.79-10.14,50.17,50.17,0,0,1,9.78-8.23,31.65,31.65,0,0,1,11.81-4.81Z"/><path class="cls-11" d="M149.1,117.11c15-.83,12.93-30.3-11.62-46.82,0,0-9.11,9.79-12.23,21.27C122.58,101.36,128.1,118.27,149.1,117.11Z"/><path class="cls-12" d="M139.3,74.33a98.33,98.33,0,0,1,5.81,25.79l.34,3.3.17,3.31.17,3.32c0,1.11,0,2.21,0,3.32s0,2.21,0,3.32,0,2.21-.09,3.32l-.35,6.63c-.21,2.2-.49,4.4-.73,6.6-.13,1.1-.24,2.2-.39,3.29l-.55,3.27-1.18,6.53c-.48,2.16-1,4.3-1.54,6.45l-.79,3.21c-.29,1.06-.62,2.12-1,3.17l-2,6.3c-.33,1-.73,2.08-1.15,3.1l-1.22,3.07-1.22,3.06-1.29,3-.22-.08,2-6.25,1-3.13c.34-1,.67-2.08.92-3.15l1.66-6.35c.27-1.06.57-2.11.81-3.18l.66-3.21,1.32-6.43,1-6.48.5-3.24.35-3.26c.22-2.18.48-4.35.66-6.53a183.06,183.06,0,0,0,.22-26.21,124.12,124.12,0,0,0-4.19-25.84Z"/><path class="cls-13" d="M161.4,104.35c-22.55-16,9.47-59.83,63.86-61.58,0,0,4.62,24.14-1.74,45.09C218.11,105.75,193,126.7,161.4,104.35Z"/><path class="cls-14" d="M218.72,47.64a142.14,142.14,0,0,0-15,12.93c-4.76,4.56-9.26,9.35-13.58,14.28s-8.42,10.05-12.24,15.37-7.58,10.68-11,16.26-6.73,11.24-9.74,17.06c-.8,1.43-1.52,2.91-2.26,4.37s-1.49,2.92-2.19,4.41l-2.08,4.47c-.73,1.47-1.39,3-2,4.49l-2,4.52c-.62,1.53-1.22,3.06-1.87,4.58-1.32,3-2.43,6.14-3.63,9.22-.64,1.53-1.2,3.09-1.76,4.64l-1.7,4.68c-.57,1.56-1,3.15-1.58,4.72l-1.67,4.72-.36-.08a264.4,264.4,0,0,1,11.89-38.07,230.43,230.43,0,0,1,17.87-35.66A207.6,207.6,0,0,1,188,72.88,178.3,178.3,0,0,1,202.43,59.1c2.53-2.16,5.13-4.25,7.81-6.22a92.43,92.43,0,0,1,8.3-5.56Z"/><path class="cls-15" d="M168.14,131.89c-11.68-16.15,20.42-38.65,58-27.16,0,0-2.48,17.56-11.7,30.39C206.53,146.06,184.49,154.51,168.14,131.89Z"/><path class="cls-16" d="M220.49,106.52a82.15,82.15,0,0,0-13.35,5.06l-3.22,1.51-3.13,1.67c-1,.59-2.11,1.06-3.11,1.7l-3,1.82c-2.06,1.16-4,2.56-5.95,3.84-1,.67-2,1.26-2.92,2l-2.82,2.14c-.93.72-1.89,1.4-2.84,2.1s-1.81,1.51-2.72,2.26l-2.71,2.28c-.9.77-1.83,1.49-2.66,2.33L166.83,140c-.43.41-.87.8-1.29,1.22l-1.21,1.3c-.81.86-1.61,1.73-2.44,2.58l-2.46,2.56c-.41.43-.83.84-1.22,1.29l-1.14,1.36c-1.51,1.82-3.06,3.62-4.62,5.42s-3,3.71-4.43,5.58L143.64,167c-2.85,3.83-5.44,7.85-8.37,11.7l-.23-.13c2.48-4.11,4.89-8.27,7.44-12.33l4.1-5.92c1.38-2,2.69-4,4.24-5.82l4.5-5.63,1.12-1.41c.39-.46.81-.89,1.21-1.34l2.43-2.66,2.43-2.66,1.22-1.33c.42-.43.86-.83,1.3-1.25l5.22-5a134.3,134.3,0,0,1,23.37-16.79c2.11-1.15,4.2-2.34,6.4-3.31l3.27-1.52,3.34-1.35a71.41,71.41,0,0,1,13.83-4Z"/><path class="cls-17" d="M187.84,87.3a24.33,24.33,0,0,1,6.92-1.21c1.16-.09,2.3,0,3.46,0s2.29.2,3.44.32,2.28.38,3.4.66a33.15,33.15,0,0,1,3.34,1,20.38,20.38,0,0,1,6.2,3.41l-.08.23a69.61,69.61,0,0,0-13.2-2.88,130.8,130.8,0,0,0-13.48-1.27Z"/><path class="cls-18" d="M196.49,74.55A18,18,0,0,1,202,72.5a27.08,27.08,0,0,1,5.75-.6,25.79,25.79,0,0,1,5.78.68A15.45,15.45,0,0,1,219.06,75l-.05.24c-1.85-.33-3.72-.53-5.59-.68s-3.75-.17-5.63-.17-3.76,0-5.64.11-3.76.2-5.63.36Z"/><path class="cls-19" d="M175.25,79.79a20.59,20.59,0,0,1-.63-3.87c-.08-1.2-.12-2.34-.14-3.44s0-2.16-.07-3.21a15.6,15.6,0,0,0-.56-3.53l.14-.17a7,7,0,0,1,2.11,3.13,12,12,0,0,1,.62,3.74,20.57,20.57,0,0,1-.33,3.76,21.78,21.78,0,0,1-.93,3.65Z"/><path class="cls-20" d="M188.56,67.17a14.13,14.13,0,0,1,.22-3c.16-.92.33-1.79.53-2.63s.43-1.63.58-2.43a10.65,10.65,0,0,0,.24-2.72l.13-.1a5,5,0,0,1,1,2.74,9.54,9.54,0,0,1-.27,2.9,19.32,19.32,0,0,1-2.26,5.33Z"/><path class="cls-21" d="M145.91,185.73l-21.56-7.11a2.23,2.23,0,0,1-1.49-2.56l5.27-26a2.23,2.23,0,0,1,2.88-1.67l27.51,9.07a2.23,2.23,0,0,1,1.32,3.06l-11.21,24A2.23,2.23,0,0,1,145.91,185.73Z"/><path class="cls-22" d="M159.66,163.36l-33.08-10.9a1.47,1.47,0,0,1-1-1.64l.75-4.46a1.47,1.47,0,0,1,1.91-1.15l34.38,11.33a1.47,1.47,0,0,1,.85,2.06l-2,4A1.47,1.47,0,0,1,159.66,163.36Z"/><path class="cls-23" d="M111.86,144.67l.25-12.31a5.09,5.09,0,0,1,7.38-4.44l9.41,4.76S124.68,144.06,111.86,144.67Z"/><path class="cls-24" d="M139.45,192.93l-2.83,7.2a6,6,0,0,1-10.18-1.2L123,183.16S133.84,183.19,139.45,192.93Z"/><path class="cls-25" d="M197.94,186.34l-28.71,10c-28.59,10-58.59-11-58.59-40.92h0a43.44,43.44,0,0,1,29.29-40.92l28.71-10c28.59-10,58.59,11,58.59,40.92h0A43.44,43.44,0,0,1,197.94,186.34Z"/><path class="cls-26" d="M225.63,133.71c-.78-3.76,1.6,7.62,1.6,11.71h0a43.44,43.44,0,0,1-29.29,40.92l-28.71,10a44.22,44.22,0,0,1-52.3-18.47s14.29,14.88,39.05,9.55c30.54-6.58,49.82-18.49,60.82-27.65C220.23,157,227.89,144.61,225.63,133.71Z"/><path class="cls-27" d="M214.95,115.84s-.81-8.24,5.34-10c4.32-1.23,6,1.25,5.61,4.32-.81,5.68-15.68,2-10.14-9.29"/><path class="cls-28" d="M159,197.32l4.53,7.44a6,6,0,0,0,10.18-1.2L177,190.34S164.61,187.58,159,197.32Z"/><path class="cls-29" d="M199,182l4.55,7.11a6,6,0,0,0,10.18-1.2l3.1-14.47S204.54,173.7,199,182Z"/><circle class="cls-30" cx="142.01" cy="163.14" r="2.55"/><circle class="cls-30" cx="114.41" cy="160.59" r="2.55"/><path class="cls-23" d="M152.16,138.56l10.31-6.72a5.09,5.09,0,0,1,7.82,3.61l1.36,10.46S159.88,148.82,152.16,138.56Z"/><path class="cls-23" d="M113.06,165.84c.15-.05,4.85-2.27,4.85-2.27s8.52-.68,11.7,3.77c2.87,4,2.73,8.77,0,10.7a39.55,39.55,0,0,1-6.27,3.48Z"/><ellipse class="cls-30" cx="118.1" cy="173.73" rx="8.13" ry="10.1" transform="translate(-88.6 211.23) rotate(-66.08)"/><ellipse class="cls-23" cx="120.87" cy="174.26" rx="0.76" ry="5.3"/><ellipse class="cls-23" cx="112.82" cy="172.6" rx="0.76" ry="5.3"/><path class="cls-31" d="M148.42,113.09l20.16-6.63a1.91,1.91,0,0,1,.7-.08l5.32.29a.24.24,0,0,1,.07.47l-20.53,7a1.46,1.46,0,0,1-.61.06l-5.06-.62A.24.24,0,0,1,148.42,113.09Z"/><ellipse class="cls-32" cx="107.92" cy="35.23" rx="5.43" ry="8.86" transform="translate(23.01 110.59) rotate(-59.67)"/><polygon class="cls-32" points="100.27 30.76 100.92 29.65 101.24 30.31 100.27 30.76"/><polygon class="cls-32" points="115.56 39.71 116.32 38.41 115.63 38.05 115.56 39.71"/><ellipse class="cls-33" cx="108.53" cy="34.18" rx="5.43" ry="8.86" transform="translate(24.22 110.6) rotate(-59.67)"/><path class="cls-32" d="M102.23,30.21s-1.46,4.11,4.57,7.41a8.3,8.3,0,0,0,8.58-.19s-3.26.8-7.8-1.75C102.64,32.89,102.23,30.21,102.23,30.21Z"/><ellipse class="cls-32" cx="59.99" cy="85.72" rx="12.74" ry="7.81" transform="translate(-8.8 6.88) rotate(-6.12)"/><polygon class="cls-32" points="72.66 84.36 72.85 86.2 71.92 85.71 72.66 84.36"/><polygon class="cls-32" points="47.31 87.08 47.55 89.23 48.65 89.06 47.31 87.08"/><ellipse class="cls-33" cx="60.17" cy="87.46" rx="12.74" ry="7.81" transform="translate(-8.98 6.91) rotate(-6.12)"/><path class="cls-32" d="M50.33,90.36s3.36,4,11,2.69c8.2-1.36,9-6,9-6a33.18,33.18,0,0,1-9.62,3.16A33.65,33.65,0,0,1,50.33,90.36Z"/><ellipse class="cls-32" cx="156.75" cy="99.33" rx="12.17" ry="12.74"/><polygon class="cls-32" points="156.75 86.59 159.63 86.59 158.72 87.47 156.75 86.59"/><polygon class="cls-32" points="156.75 112.08 160.12 112.08 160.03 110.96 156.75 112.08"/><ellipse class="cls-33" cx="159.48" cy="99.33" rx="12.17" ry="12.74"/><path class="cls-32" d="M157.41,89.16s8-.16,10.58,6.43c2.31,5.79.34,11.7-3.26,13.95,0,0,.53-6.57-1.39-11.19C160.67,92,157.41,89.16,157.41,89.16Z"/><ellipse class="cls-32" cx="204.73" cy="11.23" rx="8.73" ry="9.14" transform="translate(60.52 156.98) rotate(-48.45)"/><polygon class="cls-32" points="197.89 5.17 199.26 3.62 199.29 4.53 197.89 5.17"/><polygon class="cls-32" points="211.56 17.29 213.16 15.48 212.53 15 211.56 17.29"/><ellipse class="cls-33" cx="206.02" cy="9.77" rx="8.73" ry="9.14" transform="translate(62.05 157.46) rotate(-48.45)"/><path class="cls-32" d="M203.34,3.09s5-1.7,8.5,2.08c3.75,4,.53,9.46.53,9.46A19.75,19.75,0,0,0,208.7,7.7,19.46,19.46,0,0,0,203.34,3.09Z"/><ellipse class="cls-32" cx="217.43" cy="59.68" rx="8.86" ry="5.43" transform="translate(7.23 141.26) rotate(-36.56)"/><polygon class="cls-32" points="224.55 54.41 225.31 55.44 224.58 55.48 224.55 54.41"/><polygon class="cls-32" points="210.32 64.96 211.21 66.17 211.81 65.68 210.32 64.96"/><ellipse class="cls-33" cx="218.16" cy="60.66" rx="8.86" ry="5.43" transform="translate(6.79 141.88) rotate(-36.56)"/><path class="cls-32" d="M224.88,56.83a9.81,9.81,0,0,1-3.95,7.32c-3.25,2.41-6.81,2.55-9,1.26a14.09,14.09,0,0,0,7.71-2.84A18.93,18.93,0,0,0,224.88,56.83Z"/><path class="cls-34" d="M246.65,55.46c-1.63-2.29.23-6.34,4.86-6.72,5.27-.44,14.63,2.61,9.61,14.89-5.23,12.79-3.59,16.06-.07,18,0,0-12.07,1-11.15-9.58S250.42,60.79,246.65,55.46Z"/><path class="cls-35" d="M221.71,89.91c2.16-.94,7.93-4.8,15.76-9.66a10.64,10.64,0,0,1,7.5-.6c1.59.54,2.44,3-.06,4.77a67.91,67.91,0,0,1-8.41,5.11c-8.33,4.44-12.25,5.58-14.06,5.88C220.29,95.78,218.56,91.28,221.71,89.91Z"/><path class="cls-36" d="M229.34,109.89c-.65-1.79-8.13-13.31-9.2-16.25-1.27-3.48,3.1-4.67,4.67-2.05a38.56,38.56,0,0,1,5,11.51c1.23,4.16,2.73,4.8,2.29,6.08C231.72,110.22,229.77,111.07,229.34,109.89Z"/><path class="cls-37" d="M248.45,70.8c0,.26.44,5.85.52,10.14,0,2.1-1.48,4.1-3,4.15h-.07c-1.48,0-3.23-1.87-3.1-3.93.24-3.73.06-7.56.05-7.62Z"/><path class="cls-38" d="M252.79,95a73,73,0,0,0-2.68,11.74,29.75,29.75,0,0,0,0,8.84c.24,1.76.59,3.51,1,5.25.15.66,1.44,6,1.5,6.52H228.44c.23-4.74,5.63-19.63,2-29.27-2.53-6.68.83-6.88,3.11-12.44a16.33,16.33,0,0,1,1.93-4,7,7,0,0,1,3.7-2.27,13.78,13.78,0,0,1,2.25-.32c4.09-.33,13.73-1.52,14.64,4.31a10.32,10.32,0,0,1-.48,4.71c-.54,1.7-1.35,3.3-2,4.95Q253.14,93.94,252.79,95Z"/><path class="cls-39" d="M252.54,142.66s2.09-5.27.1-15.36H228.44a148,148,0,0,0-.88,15.36Z"/><path class="cls-40" d="M248.24,176.59c-3.18-7.78,4.55-10.44,8-5,4.84,7.71,6.94,36.21,7.57,41.51.08.7-.3.62-.71.54-1.19-.23-.69-1.35-2.4-1.24-.9.05-1.16,1.29-1.16,1.29C257.65,206.64,251.31,184.12,248.24,176.59Z"/><path class="cls-41" d="M240.53,143.76c-.85-10.15,3-18,9.09-14.69,2.55,1.41,3.49,4.23,3.83,6.89s2.22,30.28,2.88,35.28c1.49,11.25-7.08,8.22-8,5.1C246,168.47,241,149.29,240.53,143.76Z"/><path class="cls-42" d="M226.23,175c-.32-7.62,6.83-7.46,8.63-1.26,2.83,9.76-2.06,30.7-2.36,42.66-1.25-2.07-2.42-2.57-3-2.53a2,2,0,0,0-1.39.78C228.31,198.89,226.57,183.13,226.23,175Z"/><path class="cls-43" d="M234.57,175.81c-1,3.11-9.13,6.71-8.28-4.61.38-5,1.39-32.76,1.58-35.43s.64-6.58,1.93-7.07c6.46-2.44,12.73,5.54,11,15.57C239.7,151,236.54,169.36,234.57,175.81Z"/><path class="cls-44" d="M251.36,66.75c-.48,4.77-.62,5.83-2.7,7.78a11.25,11.25,0,0,1-7.33,2.85c-2.44,0-4.25-2.58-4.81-4.6A34.7,34.7,0,0,1,236,60.56c.35-2.65,3.62-5.86,7-5.86S252.53,55.09,251.36,66.75Z"/><path class="cls-45" d="M227.83,214.61a8.25,8.25,0,0,1-3.43,2.6c-1.83.82-5.71,1.2-3.56,1.92a12.89,12.89,0,0,0,5.94.08,25.78,25.78,0,0,1,4-.24c2,0,2-.13,1.73-2.37C232.16,213.52,228.72,212.87,227.83,214.61Z"/><path class="cls-46" d="M259.57,213.25c-.28.54-.57,3.14-2.4,4s-5.71,1.2-3.56,1.92a12.89,12.89,0,0,0,5.94.08c1.27-.2,1.48-1.59,3-1.6,2,0,2-.13,1.73-2.37C263.9,212.16,260.46,211.51,259.57,213.25Z"/><path class="cls-47" d="M236.77,58.07c-1.87,3.19,11.72,9,14.73,8.54s3-6.91.66-9.84S241.18,50.53,236.77,58.07Z"/><path class="cls-48" d="M241.81,57.26c-.49,2.7-5.22,3.32-6,5.56-.5,1.39-.73-3,.38-5S242.8,51.83,241.81,57.26Z"/><ellipse class="cls-44" cx="251.51" cy="67.45" rx="3.23" ry="1.69" transform="translate(93.98 274.79) rotate(-67.79)"/><path class="cls-44" d="M278.15,85.22a8.75,8.75,0,0,1,1.11-4c.63-.84.45,1.41.45,2.5S278.05,86.44,278.15,85.22Z"/><path class="cls-44" d="M279.19,84.06c1.65-2.48,2.13-4.08,3.42-4.73s1.36,2.07.92,3-1.83,4.46-3,4.76S278,85.89,279.19,84.06Z"/><path class="cls-49" d="M264.93,102.24c-1.38-1.91-6.39-6.72-12.81-13.33a10.65,10.65,0,0,1-2.19-7.2c.18-1.67,2.43-3,4.67-1a67.78,67.78,0,0,1,6.79,7.12c6.12,7.19,8.07,10.77,8.75,12.48C271,102.38,266.94,105,264.93,102.24Z"/><path class="cls-50" d="M280.66,86.25c.17,1.4-1.49,1.72-3.67,5.67-3.13,5.69-4.29,7.06-7.61,10.6-2.17,2.31-6.35.13-4.29-3.12C266.84,96.64,277,86.59,278,84.92,278.74,83.81,280.52,85.11,280.66,86.25Z"/><path class="cls-44" d="M229.63,108a10.43,10.43,0,0,0-2.49,2.17c-.43.55-.42,1.43.37,1.57s2.88-.34,3.53-1.18a3.6,3.6,0,0,0,.67-2.57C231.58,107.24,230.76,107.3,229.63,108Z"/></g><g id="Objects"><path class="cls-51" d="M72.86,212.52a14.37,14.37,0,0,1,.34,2.47c.16,1,1.11,1.35,1.66,2.17s1.55,2.34-2.15,2.41c-4,.08-6.32-.19-5.64-2.35a11,11,0,0,0,.76-3.82,2.33,2.33,0,0,1,.45-1.86C68.71,211.12,72.27,210.36,72.86,212.52Z"/><path class="cls-52" d="M126.27,64.11c.17,2.22,0,3.73-2.58,8.27-3.54,6.13-5.91,9.33-8.25,11.87-2.17,2.34-7-3.54-4.85-7.26,1.84-3.14,11.94-11.71,13-13.63C124.36,62.09,126.13,62.31,126.27,64.11Z"/><path class="cls-53" d="M114.13,84.73c-1.71.34-5.63.5-14.93-1.58a61,61,0,0,1-9.69-2.84c-3-1.12-3.44-4.39-2.32-5.64,1.8-2,5.61-3.53,7.22-3,9.06,2.76,15.86,5.44,18.18,5.72C116,77.77,116.15,84.33,114.13,84.73Z"/><path class="cls-54" d="M90.21,60.18c1.62.76,2.33.77,2.91-1.25.45-1.57,1.22-7.07-1.29-7.44s-4.48-.44-4.19,3S88.28,59.27,90.21,60.18Z"/><path class="cls-55" d="M80.72,63.13c0,.25-.58,5.52-.68,9.57A4.17,4.17,0,0,0,84,76.61h.09c1.94,0,4.23-1.76,4.06-3.71A52.34,52.34,0,0,1,88,65.72Z"/><path class="cls-56" d="M70.9,85.09c3.61,11.88,5.23,26.29,4.53,34.59h27.21s-.16-25.49-2-39.45a10.45,10.45,0,0,0-5.74-8,19.54,19.54,0,0,0-7.25-1.61h-5a30.41,30.41,0,0,0-5.31.66C70.12,72.64,68.81,78.2,70.9,85.09Z"/><path class="cls-57" d="M75.54,136.33s-2.35-5.71-.11-16.65h27.21a154.68,154.68,0,0,1,1,16.65Z"/><path class="cls-58" d="M80.91,171.94c2.18-8.86-6.87-10.42-9.73-4-4,9.06-3.72,38-3.5,43.83,0,.76.44.62.88.46a6.76,6.76,0,0,1,2.88-.52,2.48,2.48,0,0,1,1.51,1.19C73.8,205,78.8,180.53,80.91,171.94Z"/><path class="cls-59" d="M89,137.52c1-11-3.4-19.55-10.23-15.92-2.87,1.53-3.93,4.59-4.31,7.47S72,161.9,71.26,167.31c-1.67,12.2,8,8.91,9,5.53C82.91,164.31,88.53,143.52,89,137.52Z"/><path class="cls-60" d="M105.13,171.37c.36-8.26-7.68-8.08-9.71-1.36-3.18,10.58,2.32,33.28,2.66,46.25,1.4-2.24,2.72-2.78,3.35-2.74a2.24,2.24,0,0,1,1.56.85C102.79,197.29,104.75,180.2,105.13,171.37Z"/><path class="cls-61" d="M95.75,172.27c1.07,3.37,10.27,7.28,9.31-5-.43-5.45-1.56-35.51-1.78-38.41s-.72-7.13-2.18-7.66c-7.27-2.64-14.32,6-12.41,16.88C90,145.36,93.53,165.27,95.75,172.27Z"/><path class="cls-62" d="M75.2,113.48c-2.14-.61-3.26-2.14-6.88-5.93-5.21-5.46-6.1-7.09-8.09-11.56-1.3-2.92,5.6-5,8.33-1.69,2.31,2.82,6.84,15.26,8.25,17C77.76,112.4,76.95,114,75.2,113.48Z"/><path class="cls-63" d="M60.08,94.94c.28-1.72,1.49-5.45,6.66-13.46a61,61,0,0,1,6-8.1c2.09-2.42,5.31-1.7,6.1-.22,1.26,2.39,1.36,6.49.35,7.83C73.47,88.52,68.6,94,67.53,96,66,99.06,59.75,97,60.08,94.94Z"/><path class="cls-44" d="M78.05,59.31c.45,4.5.58,5.5,2.55,7.34a10.62,10.62,0,0,0,6.91,2.69c2.3,0,4-2.43,4.53-4.34a32.77,32.77,0,0,0,.52-11.53c-.33-2.5-3.41-5.53-6.59-5.53S77,48.31,78.05,59.31Z"/><path class="cls-44" d="M74.39,110.64c1-1.14,2.67-2.92,3.48-3.94s3.19.73,3.24,1.61c.08,1.3-1.24,4.86-2.91,4.86s-2.14,1.52-3.57,1.05S72.69,112.51,74.39,110.64Z"/><path class="cls-64" d="M103.33,214.32a9.23,9.23,0,0,0,3.86,2.81c2.06.89,6.42,1.3,4,2.08a15.05,15.05,0,0,1-6.68.09A30.27,30.27,0,0,0,100,219c-2.23,0-2.24-.15-1.94-2.57C98.46,213.14,102.33,212.44,103.33,214.32Z"/><path class="cls-54" d="M78.06,58.61c1.22,1.22,1.85,1.45,3-.18.92-1.27,3.42-6,1.26-7.15s-3.91-1.86-4.75,1.3S76.61,57.17,78.06,58.61Z"/><ellipse class="cls-44" cx="77.92" cy="59.97" rx="1.6" ry="3.05" transform="translate(-16.89 33.92) rotate(-22.22)"/><path class="cls-54" d="M79.44,50.44c1.75,2.62,10.23,2.86,13,1.9S95,46,91,45.66c-2.23,0-.61.53-2.42,1.26C87.71,47.29,77.57,47.64,79.44,50.44Z"/><path class="cls-44" d="M123.26,63.59c.49-1.36,4.92-11.87,6.66-10.11,1.93,1.94,1.09,6.49.61,8-.86,2.73-3.44,4.36-5.18,4.25C124.12,65.63,122.79,64.89,123.26,63.59Z"/><path class="cls-44" d="M123,62.8c-.06-.66-.43-4.6.3-4.73,1.12-.19,1.49,2.38,1.74,4.08.14.92-.3,2.25-1.06,2.27S123.13,63.86,123,62.8Z"/><g class="cls-65"><path class="cls-66" d="M42.65,36.47c14.2-2.38,34.37,7.12,38.45,22,4.17,15.16-7.22,22.4,2.12,43.39,7.39,16.6-1.1,34.8-3.1,49.17-2.19,15.77,5.7,23.4,3.09,37.47-6,32.37-5.61,41.91-27.86,48.77-22.85,7-27.54-24.82-42.38-50-11-18.6-17.19-37.83-9.7-51.49,10.76-19.61,26.48.28,21-23.38-3.3-14.16-2.77-38.63,17.7-34.95S22.21,39.9,42.65,36.47Z"/></g></g></g></g></svg>