<svg xmlns="http://www.w3.org/2000/svg" xmlns:xlink="http://www.w3.org/1999/xlink" viewBox="0 0 326.69 255.7"><defs><style>.cls-1{isolation:isolate;}.cls-2,.cls-3{opacity:0.15;}.cls-2{fill:url(#Gradient_bez_nazwy_5);}.cls-3{fill:url(#Gradient_bez_nazwy_15);}.cls-11,.cls-25,.cls-4,.cls-5,.cls-6,.cls-7,.cls-8,.cls-9{fill:none;stroke:#0037ff;stroke-width:0.92px;}.cls-25,.cls-4{stroke-miterlimit:10;}.cls-11,.cls-5,.cls-6,.cls-7,.cls-8,.cls-9{stroke-linecap:round;stroke-linejoin:round;}.cls-5{opacity:0.3;}.cls-10,.cls-6{opacity:0.4;}.cls-7{opacity:0.6;}.cls-9{opacity:0.7;}.cls-10{fill:url(#Gradient_bez_nazwy_5-2);}.cls-11{opacity:0.9;}.cls-12{fill:#231a66;}.cls-13{fill:url(#Gradient_bez_nazwy_7);}.cls-14{fill:url(#Gradient_bez_nazwy_7-2);}.cls-15{fill:url(#Gradient_bez_nazwy_5-3);}.cls-16{fill:url(#Gradient_bez_nazwy_5-4);}.cls-17{fill:#ffaf84;}.cls-18{fill:url(#Gradient_bez_nazwy_5-5);}.cls-19{fill:url(#Gradient_bez_nazwy_7-3);}.cls-20{fill:url(#Gradient_bez_nazwy_7-4);}.cls-21{fill:url(#Gradient_bez_nazwy_7-5);}.cls-22{fill:url(#Gradient_bez_nazwy_7-6);}.cls-23{fill:url(#Gradient_bez_nazwy_5-6);}.cls-24{fill:url(#Gradient_bez_nazwy_7-7);}.cls-25{mix-blend-mode:multiply;}</style><linearGradient id="Gradient_bez_nazwy_5" x1="103.32" y1="131.36" x2="326.69" y2="131.36" gradientUnits="userSpaceOnUse"><stop offset="0" stop-color="#36078b"/><stop offset="1" stop-color="#16b1ff"/></linearGradient><linearGradient id="Gradient_bez_nazwy_15" y1="127.85" x2="255.7" y2="127.85" gradientUnits="userSpaceOnUse"><stop offset="0" stop-color="#401381"/><stop offset="1" stop-color="#d11137"/></linearGradient><linearGradient id="Gradient_bez_nazwy_5-2" x1="206.18" y1="95.01" x2="206.18" y2="90.72" xlink:href="#Gradient_bez_nazwy_5"/><linearGradient id="Gradient_bez_nazwy_7" x1="195.12" y1="126.4" x2="198.09" y2="193.87" gradientUnits="userSpaceOnUse"><stop offset="0" stop-color="#ff664f"/><stop offset="1" stop-color="#9e005d"/></linearGradient><linearGradient id="Gradient_bez_nazwy_7-2" x1="178.22" y1="114.44" x2="181.72" y2="160.06" xlink:href="#Gradient_bez_nazwy_7"/><linearGradient id="Gradient_bez_nazwy_5-3" x1="94.62" y1="488.36" x2="105.24" y2="438.19" gradientTransform="translate(-26.93 -379.7) rotate(-9)" xlink:href="#Gradient_bez_nazwy_5"/><linearGradient id="Gradient_bez_nazwy_5-4" x1="-285.78" y1="-1493.49" x2="-263.76" y2="-1597.48" gradientTransform="matrix(0.79, 0.62, -0.62, 0.79, -568.25, 1441.21)" xlink:href="#Gradient_bez_nazwy_5"/><linearGradient id="Gradient_bez_nazwy_5-5" x1="-4953.14" y1="98.85" x2="-4932.16" y2="-0.2" gradientTransform="matrix(-1, 0, 0, 1, -4787.45, 0)" xlink:href="#Gradient_bez_nazwy_5"/><linearGradient id="Gradient_bez_nazwy_7-3" x1="173.29" y1="169.69" x2="180.98" y2="210.94" xlink:href="#Gradient_bez_nazwy_7"/><linearGradient id="Gradient_bez_nazwy_7-4" x1="212.43" y1="162.39" x2="220.13" y2="203.64" xlink:href="#Gradient_bez_nazwy_7"/><linearGradient id="Gradient_bez_nazwy_7-5" x1="203.91" y1="163.98" x2="211.6" y2="205.23" xlink:href="#Gradient_bez_nazwy_7"/><linearGradient id="Gradient_bez_nazwy_7-6" x1="-4952.78" y1="33.48" x2="-4967" y2="74.74" gradientTransform="matrix(-1, 0, 0, 1, -4787.45, 0)" xlink:href="#Gradient_bez_nazwy_7"/><linearGradient id="Gradient_bez_nazwy_5-6" x1="-150.38" y1="1169.56" x2="-106.8" y2="1135.53" gradientTransform="translate(-185.25 -1026.78) rotate(-25.73)" xlink:href="#Gradient_bez_nazwy_5"/><linearGradient id="Gradient_bez_nazwy_7-7" x1="-4946.55" y1="35.63" x2="-4960.77" y2="76.88" gradientTransform="matrix(-1, 0, 0, 1, -4787.45, 0)" xlink:href="#Gradient_bez_nazwy_7"/></defs><title>slide4-seo</title><g class="cls-1"><g id="Слой_2" data-name="Слой 2"><g id="Background"><circle class="cls-2" cx="215.01" cy="131.36" r="111.69"/><circle class="cls-3" cx="127.85" cy="127.85" r="127.85"/></g><g id="Designed_by_Freepik" data-name="Designed by Freepik"><path class="cls-4" d="M91.74,108.12H314a4.16,4.16,0,0,0,4.15-4.16h0A4.16,4.16,0,0,0,314,99.81H91.74A4.16,4.16,0,0,0,87.59,104h0A4.16,4.16,0,0,0,91.74,108.12Z"/><rect class="cls-4" x="303.86" y="108.12" width="8.32" height="96.77"/><rect class="cls-4" x="278.41" y="108.13" width="8.32" height="96.76"/><rect class="cls-4" x="93.52" y="108.13" width="8.32" height="96.76"/><rect class="cls-4" x="118.98" y="108.12" width="8.31" height="96.77"/><polygon class="cls-5" points="263.35 75.05 186.51 75.05 192.16 25.04 269 25.04 263.35 75.05"/><polygon class="cls-6" points="194.07 28.64 193.26 35.85 187.61 85.86 264.45 85.86 270.1 35.85 270.91 28.64 194.07 28.64"/><polygon class="cls-7" points="263.35 84.77 186.51 84.77 192.16 34.75 269 34.75 263.35 84.77"/><polygon class="cls-8" points="261.52 81.92 188.99 81.92 191.72 57.7 264.25 57.7 261.52 81.92"/><polygon class="cls-8" points="211.72 79.09 191.02 79.09 193.24 59.42 213.94 59.42 211.72 79.09"/><polygon class="cls-9" points="218.09 71.5 201.43 71.5 203.22 55.68 219.88 55.68 218.09 71.5"/><polygon class="cls-8" points="208.06 54.43 192.09 54.43 192.69 49.15 208.65 49.15 208.06 54.43"/><polygon class="cls-8" points="202.32 50.78 194.63 50.78 194.71 50.05 202.4 50.05 202.32 50.78"/><polygon class="cls-8" points="261.7 67.33 241 67.33 242.25 56.21 262.96 56.21 261.7 67.33"/><polygon class="cls-8" points="261.42 69.85 240.71 69.85 240.8 69.06 261.51 69.06 261.42 69.85"/><polygon class="cls-8" points="261.23 71.5 240.53 71.5 240.62 70.7 261.32 70.7 261.23 71.5"/><polygon class="cls-8" points="226.91 52.57 210.95 52.57 211.54 47.29 227.51 47.29 226.91 52.57"/><polygon class="cls-8" points="269.09 54.43 234.27 54.43 234.87 49.15 269.69 49.15 269.09 54.43"/><polygon class="cls-8" points="249.26 50.78 235.97 50.78 236.06 50.05 249.34 50.05 249.26 50.78"/><polygon class="cls-8" points="249.11 52.16 235.82 52.16 235.9 51.43 249.19 51.43 249.11 52.16"/><polygon class="cls-8" points="260.73 45.91 188.2 45.91 189.02 38.63 261.55 38.63 260.73 45.91"/><polygon class="cls-8" points="259.72 44.91 254.45 44.91 255.04 39.63 260.32 39.63 259.72 44.91"/><polygon class="cls-8" points="252.16 44.91 246.89 44.91 247.48 39.63 252.76 39.63 252.16 44.91"/><polygon class="cls-8" points="244.6 44.91 239.32 44.91 239.92 39.63 245.2 39.63 244.6 44.91"/><polygon class="cls-8" points="208.24 40.9 190.88 40.9 191 39.89 208.35 39.89 208.24 40.9"/><polygon class="cls-8" points="208.03 42.71 190.68 42.71 190.8 41.7 208.15 41.7 208.03 42.71"/><polygon class="cls-8" points="198.17 44.52 190.48 44.52 190.59 43.51 198.28 43.51 198.17 44.52"/><polygon class="cls-8" points="237.34 74.58 216.64 74.58 217.9 63.46 238.6 63.46 237.34 74.58"/><polygon class="cls-8" points="237.06 77.1 216.36 77.1 216.45 76.3 237.15 76.3 237.06 77.1"/><polygon class="cls-8" points="236.87 78.75 216.17 78.75 216.26 77.95 236.96 77.95 236.87 78.75"/><polygon class="cls-9" points="236.72 68.7 228.78 68.7 229.56 61.77 237.5 61.77 236.72 68.7"/><polygon class="cls-8" points="269 34.75 192.16 34.75 192.97 27.54 269.81 27.54 269 34.75"/><polygon class="cls-8" points="267.75 33.24 193.75 33.24 194.02 30.86 268.02 30.86 267.75 33.24"/><polygon class="cls-8" points="195.35 30.06 194.11 30.06 194.25 28.82 195.49 28.82 195.35 30.06"/><polygon class="cls-8" points="197.55 30.06 196.31 30.06 196.45 28.82 197.69 28.82 197.55 30.06"/><polygon class="cls-8" points="199.75 30.06 198.51 30.06 198.65 28.82 199.88 28.82 199.75 30.06"/><path class="cls-4" d="M210,93.64h-7.69A12.48,12.48,0,0,0,192,99.11l-.48.7h29.3l-.48-.7A12.48,12.48,0,0,0,210,93.64Z"/><ellipse class="cls-10" cx="206.18" cy="94.6" rx="4.75" ry="0.45"/><path class="cls-8" d="M226.09,18.75a9.73,9.73,0,0,0-14.19,4.35l8.94,3.85Z"/><path class="cls-8" d="M230.05,23.82l-9.22,3.13-9.72-.32c0,.11,0,.21,0,.32a9.73,9.73,0,1,0,19.47,0A9.63,9.63,0,0,0,230.05,23.82Z"/><path class="cls-11" d="M230.05,23.82a9.7,9.7,0,0,0-4-5.07l-5.25,8.19Z"/><path class="cls-8" d="M211.89,23.1a9.51,9.51,0,0,0-.78,3.52l9.72.32Z"/><path class="cls-12" d="M188.51,195.45c.5.84.55,2.16,3.65,3.31s9.56,1.46,6,2.78a17.05,17.05,0,0,1-8.4.88c-2.13-.22-3.38.11-5.87.22-3.28.14-3.32-.05-3-3.64C181.25,194.06,186.9,192.74,188.51,195.45Z"/><path class="cls-13" d="M181.25,195.34c5.35-18.37,7.83-52.75,17.06-66.18,5.86-8.53,17.24-5.17,13,6.28-4.51,12.23-15.93,35.07-22.33,59.45C188.37,197.29,180.66,197.5,181.25,195.34Z"/><path class="cls-14" d="M208.05,139.69c4.9-1.81,9.14-18.55-8.89-16.29-8,1-36.26,3.14-40.52,3.66s-10.46,1.55-11.14,3.73c-3.4,10.89,9.82,20.69,25.73,17.13C183.87,145.53,197.9,143.43,208.05,139.69Z"/><path class="cls-15" d="M159.92,98c-2.62,2-5.41,2-13.09,2.87-11.06,1.32-13.77.93-20.8-.68-4.59-1.05-1-11.06,5.37-11.34,5.37-.23,24.07,5.43,27.34,5.27C160.9,94.06,162,96.42,159.92,98Z"/><path class="cls-16" d="M124.47,95.07c.48-2.53,2.41-8,10.36-19.58A90.06,90.06,0,0,1,144,63.78c3.18-3.49,7.9-2.3,9-.08,1.77,3.58,1.75,9.62.2,11.55C144.48,86.14,137.07,94,135.42,97,133,101.39,123.9,98.07,124.47,95.07Z"/><path class="cls-12" d="M202.33,197c.5.84,2.79,2.71,5.88,3.87s9.56,1.46,6,2.78-7.72.83-9.84.61a44.51,44.51,0,0,0-6.66-.06c-3.28.14-3.32-.05-3-3.64C195.06,195.64,200.71,194.32,202.33,197Z"/><path class="cls-17" d="M150.92,43.72c.66,6.64.86,8.11,3.76,10.83s7.44,3.12,10.58,3.12c3.4,0,5.64-4.1,6.41-6.91a41,41,0,0,0,.66-15.65c-.48-3.69-5-8.16-9.73-8.16S149.3,27.49,150.92,43.72Z"/><path class="cls-17" d="M154.31,55.42c-.18,2.3-.35,5-.43,7.37a6.34,6.34,0,0,0,5.53,6.43l.36,0c2.87,0,6.25-2.6,6-5.47-.17-1.87-.23-3.75-.24-5.4a7.47,7.47,0,0,0-5-7h0A4.69,4.69,0,0,0,154.31,55.42Z"/><path class="cls-18" d="M141,83.82c5.33,17.53,7.08,28,6,40.25H187.2s-.23-29.8-2.92-50.39a15.41,15.41,0,0,0-8.47-11.81c-3-1.6-8.48-2.37-10.7-2.37h-7.42a28.11,28.11,0,0,0-7.83,1C138.9,63.83,137.93,73.66,141,83.82Z"/><path class="cls-19" d="M147.22,148.62s-3.47-8.43-.16-24.56H187.2a228.11,228.11,0,0,1,1.46,24.56Z"/><path class="cls-20" d="M195,197.24c6.83-17.88,12.12-51.93,22.41-64.56,6.54-8,17.61-3.74,12.47,7.32-5.49,11.83-18.75,33.65-27.12,57.42C201.93,199.76,194.23,199.34,195,197.24Z"/><path class="cls-21" d="M226.25,144c5-1.4,10.62-17.74-7.53-17-8,.34-36.39.16-40.68.33s-10.55.69-11.41,2.81c-4.28,10.58,8.1,21.42,24.24,19.17C201.67,147.81,215.83,146.87,226.25,144Z"/><ellipse class="cls-17" cx="172.77" cy="43.21" rx="4.49" ry="2.35" transform="translate(67.43 186.81) rotate(-67.78)"/><ellipse class="cls-17" cx="151.11" cy="43.21" rx="2.35" ry="4.49" transform="translate(-5.12 60.37) rotate(-22.23)"/><path class="cls-22" d="M153,30.63c2.59,3.86,15.09,4.22,19.17,2.8s3.8-9.31-2-9.85c-3.29,0-.91.78-3.57,1.86C165.18,26,150.21,26.5,153,30.63Z"/><path class="cls-17" d="M225.32,70.64c1.67-1,16-10.13,15.81-6.57-.19,3.93-5.1,8.17-6.87,9.38-3.24,2.22-6.74,2.93-8.08,1.19C225.23,73.41,223.73,71.63,225.32,70.64Z"/><path class="cls-23" d="M228.15,69.89c-3,.66-21.27,6.15-27,9-3.3-1.81-10.43-9.16-22-16.13-4.3-2.58-8.22-1.71-11.71.22-2.17,1.2-3.14,6,.49,9a90,90,0,0,0,12.12,8.66c11.95,7.41,17.49,9.1,20,9.46a1.44,1.44,0,0,0,.31,0h.1l.26-.05a3,3,0,0,0,.49-.1A102.19,102.19,0,0,0,221,80.63c7.34-4.32,8.12-3.93,9.61-6.81A2.57,2.57,0,0,0,228.15,69.89Z"/><path class="cls-24" d="M167,30c3.85,2.32,4.74,4.36,4.64,9.12S169.53,52,160.76,53.78,149.93,46.9,149.4,40.89s-.19-10.48,4.25-11.56C160.23,27.74,164.7,28.55,167,30Z"/><path class="cls-4" d="M198.93,199.9a2.91,2.91,0,0,1-2.85-2.33H146.43a2.91,2.91,0,0,1-5.76-.58,5.24,5.24,0,0,1,5.23-5.23h50.7a5.24,5.24,0,0,1,5.23,5.23A2.91,2.91,0,0,1,198.93,199.9Z"/><path class="cls-4" d="M213.68,148.59H198.36c-8.1,0-13.24-4.27-14.48-12-1.51-9.51-4.32-40.61-4.35-40.93a3.63,3.63,0,0,0-4.45-3.22H128.91a4.62,4.62,0,0,0-3.72,4.79c.12,1.29,2.86,31.68,4.42,41.45,1.8,11.33,9.92,18.1,21.72,18.1h61.49a4.65,4.65,0,0,0,4.51-4.08A3.6,3.6,0,0,0,213.68,148.59Z"/><path class="cls-4" d="M176.74,163.77h-11a1.4,1.4,0,0,1-1.4-1.4v-5.63h13.76v5.62A1.4,1.4,0,0,1,176.74,163.77Z"/><rect class="cls-4" x="166.64" y="163.77" width="9.23" height="27.36"/><path class="cls-4" d="M177.47,194.67H165v-7.15a1.38,1.38,0,0,1,1.38-1.38h9.66a1.38,1.38,0,0,1,1.38,1.38Z"/><path class="cls-4" d="M183.66,199.9a2.91,2.91,0,0,1-2.85-2.33H161.71A2.91,2.91,0,0,1,156,197a5.24,5.24,0,0,1,5.23-5.23h20.15a5.24,5.24,0,0,1,5.23,5.23A2.91,2.91,0,0,1,183.66,199.9Z"/><circle class="cls-4" cx="159.82" cy="200.95" r="3.96"/><circle class="cls-4" cx="157.89" cy="200.95" r="3.96"/><circle class="cls-4" cx="184.63" cy="200.95" r="3.96"/><circle class="cls-4" cx="182.69" cy="200.95" r="3.96"/><circle class="cls-4" cx="144.55" cy="200.95" r="3.96"/><circle class="cls-4" cx="142.62" cy="200.95" r="3.96"/><circle class="cls-4" cx="199.9" cy="200.95" r="3.96"/><circle class="cls-4" cx="197.97" cy="200.95" r="3.96"/><polygon class="cls-25" points="175.88 167.04 166.64 164.46 166.64 163.77 175.88 163.77 175.88 167.04"/><polygon class="cls-4" points="178.14 160.01 164.38 157.43 164.38 156.75 178.14 156.75 178.14 160.01"/><path class="cls-4" d="M212.81,156.74H197.49c-11.8,0-19.91-6.77-21.72-18.1-1.55-9.77-4.3-40.16-4.42-41.45a4.62,4.62,0,0,1,3.72-4.79,3.63,3.63,0,0,1,4.45,3.22c0,.31,2.84,31.42,4.35,40.92,1.24,7.76,6.38,12,14.48,12h15.32a3.6,3.6,0,0,1,3.65,4.08A4.65,4.65,0,0,1,212.81,156.74Z"/><line class="cls-8" x1="147.22" y1="148.62" x2="198.36" y2="148.59"/></g></g></g></svg>