<svg xmlns="http://www.w3.org/2000/svg" xmlns:xlink="http://www.w3.org/1999/xlink" viewBox="0 0 329.46 243.27"><defs><style>.cls-1{fill:none;}.cls-2{isolation:isolate;}.cls-3,.cls-4,.cls-56{opacity:0.2;}.cls-3{fill:url(#Gradient_bez_nazwy_8);}.cls-4{fill:url(#Gradient_bez_nazwy_5);}.cls-5{fill:url(#Gradient_bez_nazwy_5-2);}.cls-6{fill:url(#Gradient_bez_nazwy_4);}.cls-7{fill:url(#Gradient_bez_nazwy_4-2);}.cls-8{fill:url(#Gradient_bez_nazwy_4-3);}.cls-9{fill:url(#Gradient_bez_nazwy_4-4);}.cls-10{fill:url(#Gradient_bez_nazwy_4-5);}.cls-11{fill:url(#Gradient_bez_nazwy_4-6);}.cls-12{fill:url(#Gradient_bez_nazwy_4-7);}.cls-13{fill:url(#Gradient_bez_nazwy_4-8);}.cls-14{fill:url(#Gradient_bez_nazwy_5-3);}.cls-15{fill:url(#Gradient_bez_nazwy_5-4);}.cls-16{fill:url(#Gradient_bez_nazwy_5-5);}.cls-17{fill:url(#Gradient_bez_nazwy_5-6);}.cls-18{fill:url(#Gradient_bez_nazwy_14);}.cls-19{fill:url(#Gradient_bez_nazwy_9);}.cls-20{fill:url(#Gradient_bez_nazwy_5-7);}.cls-21{fill:url(#Gradient_bez_nazwy_9-2);}.cls-22{fill:url(#Gradient_bez_nazwy_7);}.cls-23{fill:url(#Gradient_bez_nazwy_9-3);}.cls-24{fill:url(#Безымянный_градиент_7);}.cls-25{fill:url(#Gradient_bez_nazwy_9-4);}.cls-26{fill:url(#Gradient_bez_nazwy_5-8);}.cls-27{fill:url(#Gradient_bez_nazwy_5-9);}.cls-28{fill:url(#Gradient_bez_nazwy_5-10);}.cls-29{fill:url(#Gradient_bez_nazwy_5-11);}.cls-30{fill:url(#Gradient_bez_nazwy_8-2);}.cls-31{fill:url(#Gradient_bez_nazwy_8-3);}.cls-32{fill:#0056c5;}.cls-33{fill:#0036ac;}.cls-34{fill:url(#Gradient_bez_nazwy_2);}.cls-35{fill:url(#Gradient_bez_nazwy_2-2);}.cls-36{fill:url(#Gradient_bez_nazwy_5-12);}.cls-37{fill:#e6eff1;}.cls-38{fill:#0c375a;}.cls-39{fill:url(#Безымянный_градиент_7-2);}.cls-40{fill:#fff;opacity:0.5;}.cls-41{fill:url(#Gradient_bez_nazwy_5-13);}.cls-42{fill:url(#Gradient_bez_nazwy_5-14);}.cls-43{fill:url(#Gradient_bez_nazwy_4-9);}.cls-44{fill:#ed9169;}.cls-45{fill:url(#Gradient_bez_nazwy_5-15);}.cls-46{fill:url(#Gradient_bez_nazwy_7-2);}.cls-47{fill:url(#Gradient_bez_nazwy_7-3);}.cls-48{fill:url(#Gradient_bez_nazwy_7-4);}.cls-49{fill:url(#Gradient_bez_nazwy_7-5);}.cls-50{fill:url(#Gradient_bez_nazwy_7-6);}.cls-51{fill:url(#Gradient_bez_nazwy_5-16);}.cls-52{fill:#ffaf84;}.cls-53{fill:url(#Gradient_bez_nazwy_4-10);}.cls-54{fill:url(#Gradient_bez_nazwy_4-11);}.cls-55{clip-path:url(#clip-path);}.cls-56{mix-blend-mode:multiply;fill:url(#Gradient_bez_nazwy_3);}.cls-57{fill:url(#Gradient_bez_nazwy_4-12);}.cls-58{fill:url(#Gradient_bez_nazwy_10);}.cls-59{fill:url(#Gradient_bez_nazwy_10-2);}.cls-60{fill:#ea8f68;}.cls-61{fill:url(#Gradient_bez_nazwy_10-3);}.cls-62{fill:url(#Gradient_bez_nazwy_14-2);}.cls-63{fill:url(#Gradient_bez_nazwy_14-3);}.cls-64{fill:url(#Gradient_bez_nazwy_14-4);}.cls-65{fill:url(#Gradient_bez_nazwy_14-5);}.cls-66{fill:url(#Gradient_bez_nazwy_14-6);}.cls-67{fill:url(#Gradient_bez_nazwy_4-13);}.cls-68{fill:url(#Gradient_bez_nazwy_4-14);}.cls-69{fill:url(#Gradient_bez_nazwy_4-15);}.cls-70{fill:url(#Gradient_bez_nazwy_4-16);}.cls-71{fill:url(#Gradient_bez_nazwy_10-4);}.cls-72{fill:url(#Gradient_bez_nazwy_10-5);}</style><linearGradient id="Gradient_bez_nazwy_8" x1="-1003.16" y1="1915.52" x2="-795.86" y2="1915.52" gradientTransform="matrix(1.27, -0.41, 0.36, 1.17, 627.06, -2488.89)" gradientUnits="userSpaceOnUse"><stop offset="0" stop-color="#2c27ce"/><stop offset="1" stop-color="#ef1d68"/></linearGradient><linearGradient id="Gradient_bez_nazwy_5" x1="-760.08" y1="129.31" x2="-453.12" y2="129.31" gradientTransform="translate(-300.21 518.58) rotate(152.45)" gradientUnits="userSpaceOnUse"><stop offset="0" stop-color="#36078b"/><stop offset="1" stop-color="#16b1ff"/></linearGradient><linearGradient id="Gradient_bez_nazwy_5-2" x1="-4673.08" y1="-307.86" x2="-4630.89" y2="-277.7" gradientTransform="translate(4578.51 1413.79) rotate(12.76)" xlink:href="#Gradient_bez_nazwy_5"/><linearGradient id="Gradient_bez_nazwy_4" x1="1573.83" y1="2931.15" x2="1538.91" y2="2838.85" gradientTransform="translate(-2565.69 -1755) rotate(-25.94)" gradientUnits="userSpaceOnUse"><stop offset="0" stop-color="#2c27ce"/><stop offset="0.65" stop-color="#ef1d68"/><stop offset="1" stop-color="#efba92"/></linearGradient><linearGradient id="Gradient_bez_nazwy_4-2" x1="-13223.85" y1="2929.14" x2="-13194.76" y2="2876.09" gradientTransform="matrix(-0.9, 0.44, 0.44, 0.9, -13039.64, 3339.83)" xlink:href="#Gradient_bez_nazwy_4"/><linearGradient id="Gradient_bez_nazwy_4-3" x1="-13203.02" y1="2900.39" x2="-13198.54" y2="2892.22" gradientTransform="matrix(-0.9, 0.44, 0.44, 0.9, -13039.64, 3339.83)" xlink:href="#Gradient_bez_nazwy_4"/><linearGradient id="Gradient_bez_nazwy_4-4" x1="-13199.91" y1="2888.12" x2="-13197.08" y2="2880.73" gradientTransform="matrix(-0.9, 0.44, 0.44, 0.9, -13039.64, 3339.83)" xlink:href="#Gradient_bez_nazwy_4"/><linearGradient id="Gradient_bez_nazwy_4-5" x1="-13215.92" y1="2895.88" x2="-13215.9" y2="2888.98" gradientTransform="matrix(-0.9, 0.44, 0.44, 0.9, -13039.64, 3339.83)" xlink:href="#Gradient_bez_nazwy_4"/><linearGradient id="Gradient_bez_nazwy_4-6" x1="-13206.5" y1="2914.43" x2="-13200.56" y2="2903.6" gradientTransform="matrix(-0.9, 0.44, 0.44, 0.9, -13039.64, 3339.83)" xlink:href="#Gradient_bez_nazwy_4"/><linearGradient id="Gradient_bez_nazwy_4-7" x1="-13223.19" y1="2908.74" x2="-13223.16" y2="2897.83" gradientTransform="matrix(-0.9, 0.44, 0.44, 0.9, -13039.64, 3339.83)" xlink:href="#Gradient_bez_nazwy_4"/><linearGradient id="Gradient_bez_nazwy_4-8" x1="-13209.87" y1="2884.15" x2="-13208.69" y2="2878.88" gradientTransform="matrix(-0.9, 0.44, 0.44, 0.9, -13039.64, 3339.83)" xlink:href="#Gradient_bez_nazwy_4"/><linearGradient id="Gradient_bez_nazwy_5-3" x1="-2461.26" y1="-1789.63" x2="-2444.57" y2="-1807.52" gradientTransform="matrix(0.87, 0.49, -0.49, 0.87, 1449.31, 2906.88)" xlink:href="#Gradient_bez_nazwy_5"/><linearGradient id="Gradient_bez_nazwy_5-4" x1="-325.94" y1="-116.42" x2="-309.25" y2="-134.31" gradientTransform="translate(486.36 296.14) rotate(7.96)" xlink:href="#Gradient_bez_nazwy_5"/><linearGradient id="Gradient_bez_nazwy_5-5" x1="1245.35" y1="2851.13" x2="1260.46" y2="2834.94" gradientTransform="matrix(0.95, -0.32, 0.32, 0.95, -1916.94, -2168.03)" xlink:href="#Gradient_bez_nazwy_5"/><linearGradient id="Gradient_bez_nazwy_5-6" x1="1336.63" y1="6127.08" x2="1350.2" y2="6112.54" gradientTransform="translate(-5084.11 -3286.13) rotate(-44.68)" xlink:href="#Gradient_bez_nazwy_5"/><linearGradient id="Gradient_bez_nazwy_14" x1="-1291.91" y1="-1054.38" x2="-1232.03" y2="-1118.55" gradientTransform="translate(1073.93 1518.05) rotate(18.37)" gradientUnits="userSpaceOnUse"><stop offset="0" stop-color="#f70f47"/><stop offset="1" stop-color="#ffb41d"/></linearGradient><linearGradient id="Gradient_bez_nazwy_9" x1="-2627" y1="-1811.7" x2="-2577.25" y2="-1890.37" gradientTransform="matrix(0.87, 0.5, -0.5, 0.87, 1527.54, 3015.6)" gradientUnits="userSpaceOnUse"><stop offset="0.48" stop-color="#36078b"/><stop offset="1" stop-color="#16b1ff"/></linearGradient><linearGradient id="Gradient_bez_nazwy_5-7" x1="-7739.16" y1="-2386.79" x2="-7693.57" y2="-2435.64" gradientTransform="matrix(-0.75, -0.66, -0.66, 0.75, -7190.62, -3232.88)" xlink:href="#Gradient_bez_nazwy_5"/><linearGradient id="Gradient_bez_nazwy_9-2" x1="-2591.94" y1="-1810.44" x2="-2645.63" y2="-1895.36" xlink:href="#Gradient_bez_nazwy_9"/><linearGradient id="Gradient_bez_nazwy_7" x1="-931.23" y1="-733.87" x2="-847.4" y2="-823.7" gradientTransform="translate(942.07 1028.56) rotate(14)" gradientUnits="userSpaceOnUse"><stop offset="0" stop-color="#ff664f"/><stop offset="1" stop-color="#9e005d"/></linearGradient><linearGradient id="Gradient_bez_nazwy_9-3" x1="-2622.65" y1="-1811.2" x2="-2548.44" y2="-1946.48" xlink:href="#Gradient_bez_nazwy_9"/><linearGradient id="Безымянный_градиент_7" x1="-2922.05" y1="-2019.99" x2="-2861.58" y2="-2084.8" gradientTransform="translate(1573.41 3402.3) rotate(32.85)" gradientUnits="userSpaceOnUse"><stop offset="0" stop-color="#dd001e"/><stop offset="0.42" stop-color="#ab0639"/><stop offset="1" stop-color="#221783"/></linearGradient><linearGradient id="Gradient_bez_nazwy_9-4" x1="-2615" y1="-1814.06" x2="-2533.84" y2="-1888.17" xlink:href="#Gradient_bez_nazwy_9"/><linearGradient id="Gradient_bez_nazwy_5-8" x1="-2572.34" y1="-1900.66" x2="-2563.27" y2="-1917.2" gradientTransform="matrix(0.87, 0.5, -0.5, 0.87, 1527.54, 3015.6)" xlink:href="#Gradient_bez_nazwy_5"/><linearGradient id="Gradient_bez_nazwy_5-9" x1="-2569.01" y1="-1917.58" x2="-2563.28" y2="-1932.57" gradientTransform="matrix(0.87, 0.5, -0.5, 0.87, 1527.54, 3015.6)" xlink:href="#Gradient_bez_nazwy_5"/><linearGradient id="Gradient_bez_nazwy_5-10" x1="-2598.67" y1="-1909.94" x2="-2598.63" y2="-1924.13" gradientTransform="matrix(0.87, 0.5, -0.5, 0.87, 1527.54, 3015.6)" xlink:href="#Gradient_bez_nazwy_5"/><linearGradient id="Gradient_bez_nazwy_5-11" x1="-2589.05" y1="-1926.71" x2="-2586.64" y2="-1937.51" gradientTransform="matrix(0.87, 0.5, -0.5, 0.87, 1527.54, 3015.6)" xlink:href="#Gradient_bez_nazwy_5"/><linearGradient id="Gradient_bez_nazwy_8-2" x1="-2602" y1="-1827.4" x2="-2602" y2="-1801.91" gradientTransform="matrix(0.87, 0.5, -0.5, 0.87, 1527.54, 3015.6)" xlink:href="#Gradient_bez_nazwy_8"/><linearGradient id="Gradient_bez_nazwy_8-3" x1="-2602" y1="-1820.9" x2="-2602" y2="-1832" gradientTransform="matrix(0.87, 0.5, -0.5, 0.87, 1527.54, 3015.6)" xlink:href="#Gradient_bez_nazwy_8"/><linearGradient id="Gradient_bez_nazwy_2" x1="150.76" y1="48.38" x2="181.13" y2="48.38" gradientUnits="userSpaceOnUse"><stop offset="0" stop-color="#f70f47"/><stop offset="1" stop-color="#9e005d"/></linearGradient><linearGradient id="Gradient_bez_nazwy_2-2" x1="91.4" y1="80.41" x2="112.17" y2="80.41" gradientTransform="translate(86.67 -48.42) rotate(45)" xlink:href="#Gradient_bez_nazwy_2"/><linearGradient id="Gradient_bez_nazwy_5-12" x1="92.25" y1="136.46" x2="239.64" y2="136.46" gradientTransform="matrix(1, 0, 0, 1, 0, 0)" xlink:href="#Gradient_bez_nazwy_5"/><linearGradient id="Безымянный_градиент_7-2" x1="132.8" y1="119.79" x2="241.29" y2="170.29" gradientTransform="matrix(1, 0, 0, 1, 0, 0)" xlink:href="#Безымянный_градиент_7"/><linearGradient id="Gradient_bez_nazwy_5-13" x1="-8213.01" y1="309.1" x2="-8210.45" y2="275.24" gradientTransform="matrix(-1, 0.04, 0.04, 1, -8121.19, 219.77)" xlink:href="#Gradient_bez_nazwy_5"/><linearGradient id="Gradient_bez_nazwy_5-14" x1="-8163.29" y1="312.85" x2="-8160.73" y2="279" gradientTransform="matrix(-1, 0.04, 0.04, 1, -8121.19, 219.77)" xlink:href="#Gradient_bez_nazwy_5"/><linearGradient id="Gradient_bez_nazwy_4-9" x1="-8228.53" y1="154.32" x2="-8196.6" y2="118.59" gradientTransform="matrix(-1, 0.04, 0.04, 1, -8121.19, 219.77)" xlink:href="#Gradient_bez_nazwy_4"/><linearGradient id="Gradient_bez_nazwy_5-15" x1="-3474.72" y1="206.93" x2="-3393.86" y2="145.11" gradientTransform="matrix(1, -0.04, 0.04, 1, 3518.51, -219.9)" xlink:href="#Gradient_bez_nazwy_5"/><linearGradient id="Gradient_bez_nazwy_7-2" x1="-8219.5" y1="303.98" x2="-8204.67" y2="240.51" gradientTransform="matrix(-1, 0.04, 0.04, 1, -8121.19, 219.77)" xlink:href="#Gradient_bez_nazwy_7"/><linearGradient id="Gradient_bez_nazwy_7-3" x1="-8186.2" y1="329.36" x2="-8166.95" y2="246.9" gradientTransform="matrix(-1, 0.04, 0.04, 1, -8121.19, 219.77)" xlink:href="#Gradient_bez_nazwy_7"/><linearGradient id="Gradient_bez_nazwy_7-4" x1="-8205.87" y1="307.17" x2="-8191.05" y2="243.69" gradientTransform="matrix(-1, 0.04, 0.04, 1, -8121.19, 219.77)" xlink:href="#Gradient_bez_nazwy_7"/><linearGradient id="Gradient_bez_nazwy_7-5" x1="-8219.97" y1="315.55" x2="-8202.15" y2="239.23" gradientTransform="matrix(-1, 0.04, 0.04, 1, -8121.19, 219.77)" xlink:href="#Gradient_bez_nazwy_7"/><linearGradient id="Gradient_bez_nazwy_7-6" x1="-8225.21" y1="302.65" x2="-8210.39" y2="239.17" gradientTransform="matrix(-1, 0.04, 0.04, 1, -8121.19, 219.77)" xlink:href="#Gradient_bez_nazwy_7"/><linearGradient id="Gradient_bez_nazwy_5-16" x1="-8228.4" y1="195.66" x2="-8178.86" y2="142.57" gradientTransform="matrix(-1, 0.04, 0.04, 1, -8123.23, 219.85)" xlink:href="#Gradient_bez_nazwy_5"/><linearGradient id="Gradient_bez_nazwy_4-10" x1="-8223.94" y1="158.42" x2="-8192.02" y2="122.69" gradientTransform="matrix(-1, 0.04, 0.04, 1, -8121.19, 219.77)" xlink:href="#Gradient_bez_nazwy_4"/><linearGradient id="Gradient_bez_nazwy_4-11" x1="-8231.35" y1="151.8" x2="-8199.42" y2="116.08" gradientTransform="matrix(-1, 0.04, 0.04, 1, -8121.19, 219.77)" xlink:href="#Gradient_bez_nazwy_4"/><clipPath id="clip-path"><path class="cls-1" d="M40.13,207.56a3.53,3.53,0,0,1,.54-1.68c-.07-.15,0-.34.24-.62,3.94-4.11,13.38-32.46,22.63-39.91,0-.29,0-.58.06-.88.56-5.69,1.88-28.51,2.22-32.44a46.76,46.76,0,0,1,.63-10.35c2.31-8.62,3.15-29.62,1.57-42.83,0-.39-.09-.79-.12-1.18-.22-2.95,0-6.23,1.77-8.73a7,7,0,0,1,1.06-1.17,4.52,4.52,0,0,1,.35-.29,11.92,11.92,0,0,1,7.46-2.07c.27,0,.53,0,.79,0,.7-1.71,1.52-3.52,2.24-5.08a6.53,6.53,0,0,1-.65-3.7,4.11,4.11,0,0,1-1.66-3c-.28-1.9.29-3.56,1.29-3.71A1,1,0,0,1,81,50c-.05-1.28.58-2.68,1.77-4.86.85-1.56,1.7-2.08,2.57-2-1-3.43,10.08-1.13,11.18-1.29,2.2-.32.56-1.35,3-.74,3.86,1.33,3.24,6.3.65,7.51.82,1.83-.63,4.11-1.74,5.49a35.16,35.16,0,0,1-3.05,8.72c-1.09,2-3.65,4.21-6.21,3.58l-.51-.15-.31.88a17.63,17.63,0,0,1,4.84,2.11,12,12,0,0,1,5.12,7.09,29.94,29.94,0,0,1,.39,9.08l-.23,2.57q.12,2,.24,3.91a121.76,121.76,0,0,0,11.87,5.8,1.35,1.35,0,0,1,1.16-.12c1.13.36,5.4,1.45,6.53,2.82l.1,0c.63.29,4.37,2.05,4,2.64-.49.9-3-.15-4.67-.84h0a5.09,5.09,0,0,1-5,1.35,6.25,6.25,0,0,1-2.21-1c-2.1.47-4.54-.53-9.52-1.86l-1.57-.42a7.54,7.54,0,0,0,.68,2.56,6.09,6.09,0,0,0,.8,1.06c2.54,3,4.18,6.37,5.87,9.85,1.28,2.63,2.36,6,4.29,8.24a1.8,1.8,0,0,1,.35.65c1.42.32,3,.67,4,.83,1.37.21,1,3.36.21,3.87-1.18.76-5.19,1.41-6.06-.15s-2.55-1.2-2.86-2.78a2.52,2.52,0,0,1,0-1.06,20.65,20.65,0,0,1-4.8-4.48c-1.92-2.23-3.73-4.54-5.54-6.85-.46,5.15-.77,8.54-.77,8.54s1.18,7.25,1.65,15.92c.78,8.33,2.06,22.28,2.55,26.56a19.42,19.42,0,0,1,.13,2.06c0,.05,0,.1,0,.15.41,7.91-.78,25.64-4.41,43.86a2.91,2.91,0,0,1,.29,1,11.59,11.59,0,0,0,3.84,2.38c2.24.87,6.93,1.13,4.37,2.07s-5.61.54-7.15.36a32.37,32.37,0,0,0-4.84-.1c-2.38.08-2.41-.07-2.19-2.67,0-.12,0-.22.05-.34l0,0c.62-9.76-4.06-32.17-1.68-44.94a245.93,245.93,0,0,1-6.58-25.12c-.86,6.91-5.06,19.35-7.35,27.91a5.07,5.07,0,0,1-2.47,2.69,16.92,16.92,0,0,1-1.62,2c-6.59,6.76-17.05,26.34-23.69,33.95a5.63,5.63,0,0,0,2.62,2.75c2.24.87,6.22,1.87,3.66,2.81s-5.61.54-7.15.36-1.91-2.08-3.52-2.9C39.59,210,39.91,210.16,40.13,207.56Z"/></clipPath><linearGradient id="Gradient_bez_nazwy_3" x1="-5409.78" y1="11463.61" x2="-5252.67" y2="11560.14" gradientTransform="matrix(-0.65, -0.7, 0.36, -0.62, -7604.51, 3484.93)" gradientUnits="userSpaceOnUse"><stop offset="0" stop-color="blue"/><stop offset="1" stop-color="#9e005d"/></linearGradient><linearGradient id="Gradient_bez_nazwy_4-12" x1="-4938.62" y1="83.7" x2="-4986.22" y2="49.38" gradientTransform="matrix(-1, 0, 0, 1, -4744.41, 0)" xlink:href="#Gradient_bez_nazwy_4"/><linearGradient id="Gradient_bez_nazwy_10" x1="-1710.87" y1="2549.78" x2="-1725.57" y2="2586.43" gradientTransform="matrix(-0.61, -0.79, -0.79, 0.61, 1184.1, -2848.54)" gradientUnits="userSpaceOnUse"><stop offset="0" stop-color="#36078b"/><stop offset="1" stop-color="#168d68"/></linearGradient><linearGradient id="Gradient_bez_nazwy_10-2" x1="-6098.17" y1="8769.56" x2="-6114.64" y2="8810.6" gradientTransform="matrix(0.7, 0.72, 0.72, -0.7, -1855.68, 10609.85)" xlink:href="#Gradient_bez_nazwy_10"/><linearGradient id="Gradient_bez_nazwy_10-3" x1="-4965.03" y1="79.63" x2="-4959.59" y2="126.31" gradientTransform="matrix(-1, 0, 0, 1, -4744.41, 0)" xlink:href="#Gradient_bez_nazwy_10"/><linearGradient id="Gradient_bez_nazwy_14-2" x1="-4955.36" y1="112.07" x2="-4976.9" y2="174.75" gradientTransform="matrix(-1, 0, 0, 1, -4744.41, 0)" xlink:href="#Gradient_bez_nazwy_14"/><linearGradient id="Gradient_bez_nazwy_14-3" x1="-5664.42" y1="23.09" x2="-5686.43" y2="87.16" gradientTransform="matrix(-0.99, 0.15, 0.15, 0.99, -5402.71, 968.6)" xlink:href="#Gradient_bez_nazwy_14"/><linearGradient id="Gradient_bez_nazwy_14-4" x1="-4958.83" y1="110.88" x2="-4980.36" y2="173.55" gradientTransform="matrix(-1, 0, 0, 1, -4744.41, 0)" xlink:href="#Gradient_bez_nazwy_14"/><linearGradient id="Gradient_bez_nazwy_14-5" x1="-4928.16" y1="121.41" x2="-4949.69" y2="184.09" gradientTransform="matrix(-1, 0, 0, 1, -4744.41, 0)" xlink:href="#Gradient_bez_nazwy_14"/><linearGradient id="Gradient_bez_nazwy_14-6" x1="-4942.4" y1="116.52" x2="-4963.93" y2="179.2" gradientTransform="matrix(-1, 0, 0, 1, -4744.41, 0)" xlink:href="#Gradient_bez_nazwy_14"/><linearGradient id="Gradient_bez_nazwy_4-13" x1="-4948.69" y1="239.15" x2="-4946.26" y2="209.16" gradientTransform="matrix(-1, 0, 0, 1, -4744.41, 0)" xlink:href="#Gradient_bez_nazwy_4"/><linearGradient id="Gradient_bez_nazwy_4-14" x1="-4983.1" y1="244.72" x2="-4980.03" y2="206.92" gradientTransform="matrix(-1, 0, 0, 1, -4744.41, 0)" xlink:href="#Gradient_bez_nazwy_4"/><linearGradient id="Gradient_bez_nazwy_4-15" x1="-4944.34" y1="77.16" x2="-4971.34" y2="46.34" gradientTransform="matrix(-1, 0, 0, 1, -4744.41, 0)" xlink:href="#Gradient_bez_nazwy_4"/><linearGradient id="Gradient_bez_nazwy_4-16" x1="-4938.79" y1="72.29" x2="-4965.79" y2="41.47" gradientTransform="matrix(-1, 0, 0, 1, -4744.41, 0)" xlink:href="#Gradient_bez_nazwy_4"/><linearGradient id="Gradient_bez_nazwy_10-4" x1="-6281.89" y1="-17.88" x2="-6299.58" y2="26.21" gradientTransform="matrix(-0.71, 0.18, 0.26, 0.97, -4250.25, 1234.76)" xlink:href="#Gradient_bez_nazwy_10"/><linearGradient id="Gradient_bez_nazwy_10-5" x1="-839.93" y1="1147.39" x2="-852.82" y2="1179.5" gradientTransform="matrix(0.67, -0.74, 0.74, 0.67, -55.71, -1330.18)" xlink:href="#Gradient_bez_nazwy_10"/></defs><title>slide7</title><g class="cls-2"><g id="Слой_2" data-name="Слой 2"><g id="Designed_by_Freepik" data-name="Designed by Freepik"><path class="cls-3" d="M114.93,11.89c68.89-27,111.58-4.7,143.16,33.41s63,44.64,60.1,101.12S250.73,231,222.86,233.5s-59.62-4.15-95.6-5.22C73.73,226.69,54.87,208,47.07,186.15c-11-30.93,5.88-40.22,1.07-76.47C42.36,66.24,61,33,114.93,11.89Z"/><path class="cls-4" d="M327.46,116.46C340.74,57.79,285.6,20.9,234.21,13.89c-45.83-6.26-113.16,7.91-137.64,40-17.88,23.42-1.18,41.06-26.21,80.67-16.27,25.75-29.61,28.25-32.18,41.86C32,208.91,98.71,244.58,170.82,233.34,231.09,223.95,313.31,179,327.46,116.46Z"/><path class="cls-5" d="M110.75,117.51c-1.93-2.24-3-5.61-4.29-8.24-1.69-3.48-3.33-6.89-5.87-9.85a6.09,6.09,0,0,1-.8-1.06c-.71-1.33-.74-3.43-.9-4.93s-.28-3.3-.39-5c-.31-4.77-.57-9.54-.94-14.3-.14-1.79-3.26-5.13-6.07-4.4-3.11.81-4,2.19-4,5.61a65.27,65.27,0,0,0,1,10.78c1.15,7.37,2.73,15.22,7.45,21.23,1.85,2.36,3.7,4.73,5.67,7,3.67,4.25,5.15,4.91,7.46,5.52C110.94,120.41,111.78,118.71,110.75,117.51Z"/><path class="cls-6" d="M82.47,141.64c-6.76,1.91-6.33,7.37-3.74,10.11,3.67,3.88,6.41,2.81,3,10.42-2.5,5.61.31,12,7.15,11.75,9.56-.41,4.32,7.47,5,12,1.46,9.3,8,7.54,19.15,5.42,11.41-2.17,16.95-8.31,19.46-18,1.86-7.17,1.49-13.66-4.12-16.1-8.05-3.52-11.83,4.87-13.25-2.72-.85-4.54-5.12-11.27-13.69-6.54S92.21,138.89,82.47,141.64Z"/><path class="cls-7" d="M130,192.6l-1.25-2.12-2.5-4.25c-.88-1.38-1.84-2.73-2.75-4.09l-1.39-2c-.48-.67-1-1.31-1.5-2-1-1.29-2-2.61-3-3.89a105.33,105.33,0,0,0-14.1-13.83,75,75,0,0,0-16.77-10.48l-.07.17q1.09.58,2.14,1.24c.71.41,1.41.85,2.1,1.29s1.37.89,2,1.37,1.36.91,2,1.43c1.31,1,2.64,1.91,3.89,3,.63.52,1.27,1,1.91,1.52l1.84,1.6,1.84,1.6,1.77,1.67,1.77,1.67c.59.55,1.13,1.17,1.69,1.75s1.13,1.16,1.69,1.74l.85.87c.28.3.53.61.8.91l3.19,3.66c1,1.25,2,2.53,3,3.8.5.64,1,1.26,1.49,1.91s.92,1.33,1.39,2c.93,1.32,1.91,2.62,2.81,4s1.72,2.75,2.6,4.11l1.32,2.05"/><path class="cls-8" d="M104.56,167.41a12.28,12.28,0,0,0-3.5-.13c-.58,0-1.14.14-1.71.22s-1.12.25-1.68.38a18.06,18.06,0,0,0-3.22,1.25,10.14,10.14,0,0,0-2.83,2.07l.06.11A35,35,0,0,1,98,169a65.88,65.88,0,0,1,6.57-1.51Z"/><path class="cls-9" d="M96.4,158.79a9.1,9.1,0,0,0-2.88-.64,13.43,13.43,0,0,0-1.44,0c-.48,0-1,.07-1.43.12a13.49,13.49,0,0,0-2.81.71,7.73,7.73,0,0,0-2.55,1.52l0,.11a29.21,29.21,0,0,1,5.48-1.16,55.09,55.09,0,0,1,5.6-.52Z"/><path class="cls-10" d="M110.28,162.92a9.33,9.33,0,0,0,0-1.92c0-.59-.09-1.15-.16-1.69-.06-.27-.06-.53-.1-.79l0-.39a3,3,0,0,0,0-.39,8.17,8.17,0,0,1,0-1.76l-.08-.07a3.41,3.41,0,0,0-.83,1.67,5.84,5.84,0,0,0-.05,1.86,11.16,11.16,0,0,0,1.12,3.53Z"/><path class="cls-11" d="M114.71,177a16.27,16.27,0,0,0-4.63-.18c-.77,0-1.51.19-2.26.3s-1.48.33-2.22.51a23.89,23.89,0,0,0-4.27,1.66,13.45,13.45,0,0,0-3.76,2.74l.07.14a46.39,46.39,0,0,1,8.39-3,87.34,87.34,0,0,1,8.71-2Z"/><path class="cls-12" d="M121.54,171.74a16.56,16.56,0,0,0-.17-4.84,20.22,20.22,0,0,1-.08-4.77q.07-.63.18-1.25c0-.22,0-.59-.18-.31a2.84,2.84,0,0,0-.25.58c-.14.34-.3.69-.4,1a19.68,19.68,0,0,0-.6,2.32,11.68,11.68,0,0,0,1.37,7.28Z"/><path class="cls-13" d="M100.16,155a6.89,6.89,0,0,0-.31-1.45c-.13-.44-.3-.85-.44-1.24s-.31-.77-.45-1.15a5.18,5.18,0,0,1-.3-1.31l-.07,0a2.54,2.54,0,0,0-.29,1.4,4.68,4.68,0,0,0,.32,1.4,10.2,10.2,0,0,0,1.47,2.45Z"/><path class="cls-14" d="M184.26,137.61c-2.58-4.93,7.19-9.87,17.11-5.19a21.89,21.89,0,0,1-4.45,7.93C194.3,143.06,187.87,144.52,184.26,137.61Z"/><path class="cls-15" d="M178.43,135.11c-4.21-3.64,3.08-11.81,14-11.09a21.89,21.89,0,0,1-1.24,9C189.78,136.5,184.32,140.21,178.43,135.11Z"/><path class="cls-16" d="M174.76,133.84c-4.88-1.24-2.3-10.81,6.84-14.66a19.82,19.82,0,0,1,2.66,7.79C184.5,130.36,181.6,135.58,174.76,133.84Z"/><path class="cls-17" d="M173.54,131.72c-4.43.92-6.12-7.82-.25-14.54a17.81,17.81,0,0,1,5.21,5.25C180,125.08,179.74,130.43,173.54,131.72Z"/><path class="cls-18" d="M176.29,107.3c-12.48-15.59,18.52-39.69,56.66-30,0,0-1.61,17.7-10.21,31C215.41,119.58,193.77,129.12,176.29,107.3Z"/><path class="cls-19" d="M227.39,79.35a35.71,35.71,0,0,0-12.07,3.58,45,45,0,0,0-5.46,3c-.86.58-1.75,1.11-2.59,1.73l-1.27.9-1.23,1a77.59,77.59,0,0,0-9.11,8.5c-.68.79-1.43,1.51-2.09,2.32l-2,2.39c-1.28,1.66-2.6,3.27-3.79,5a171.49,171.49,0,0,0-13.25,21.59c-2,3.77-3.91,7.58-5.77,11.45-.94,1.93-1.93,3.84-2.83,5.8l-1.34,2.94-1.44,2.92-.29-.1a221.2,221.2,0,0,1,9.47-24c.87-2,1.91-3.87,2.85-5.81s2.06-3.79,3.08-5.69a127.6,127.6,0,0,1,7-10.88c1.24-1.77,2.63-3.42,4-5.12S192,97.54,193.56,96a70.28,70.28,0,0,1,9.8-8.46,50.77,50.77,0,0,1,11.38-6.15A32,32,0,0,1,227.43,79Z"/><path class="cls-20" d="M195.36,97.69c15,2.24,19-27.39-1.95-48.78,0,0-11,7.84-16.47,18.59C172.29,76.66,174.3,94.55,195.36,97.69Z"/><path class="cls-21" d="M194.38,53.28A99.51,99.51,0,0,1,194.86,80l-.34,3.34L194,86.69,193.5,90c-.18,1.11-.42,2.2-.63,3.3s-.46,2.19-.69,3.29-.47,2.19-.77,3.27l-1.7,6.5c-.65,2.14-1.38,4.26-2.07,6.39-.35,1.06-.69,2.13-1.06,3.19l-1.22,3.13-2.5,6.23c-.92,2-1.88,4.06-2.84,6.07l-1.44,3c-.51,1-1.05,2-1.6,2.95l-3.27,5.84c-.54,1-1.15,1.91-1.77,2.84l-1.83,2.8-1.84,2.79-1.89,2.74-.2-.12,3.25-5.79,1.62-2.9c.55-1,1.09-1.93,1.56-2.93l2.94-6c.48-1,1-2,1.46-3l1.31-3,2.63-6.1,2.33-6.22,1.16-3.11,1-3.16c.66-2.11,1.36-4.21,2-6.33A185.26,185.26,0,0,0,193,79.78a125.61,125.61,0,0,0,1.13-26.47Z"/><path class="cls-22" d="M210.15,87.56c-19.09-20.42,21.61-57.37,75.88-48,0,0-.36,24.87-10.94,44.34C266.07,100.53,236.88,116.16,210.15,87.56Z"/><path class="cls-23" d="M278.55,43.06A143.85,143.85,0,0,0,261,52.81c-5.65,3.54-11.09,7.37-16.38,11.38s-10.4,8.24-15.27,12.74-9.7,9-14.22,13.87-9,9.76-13.14,14.92c-1.09,1.25-2.1,2.57-3.13,3.87s-2.08,2.59-3.07,3.93l-3,4c-1,1.31-2,2.67-2.95,4l-2.9,4.07c-.92,1.39-1.84,2.78-2.79,4.15-1.93,2.73-3.66,5.59-5.48,8.39-.95,1.39-1.82,2.81-2.69,4.24l-2.64,4.29c-.89,1.43-1.68,2.91-2.53,4.36l-2.62,4.34-.34-.16a267.58,267.58,0,0,1,19.56-35.3,233.2,233.2,0,0,1,25-31.69,210.1,210.1,0,0,1,30.49-26.45,180.45,180.45,0,0,1,17.12-10.72c3-1.62,5.95-3.16,9-4.57a93.55,93.55,0,0,1,9.36-3.81Z"/><path class="cls-24" d="M211.2,116.23c-8.27-18.4,28.14-34.14,63-15.07,0,0-6,16.9-17.81,27.73C246.36,138.12,222.78,142,211.2,116.23Z"/><path class="cls-25" d="M268.28,101.79A83.13,83.13,0,0,0,254,104.07l-3.5.84-3.45,1c-1.14.37-2.31.62-3.43,1l-3.39,1.18c-2.27.73-4.46,1.73-6.68,2.59-1.1.46-2.23.84-3.3,1.38L227,113.66c-1.07.52-2.16,1-3.25,1.51s-2.11,1.12-3.16,1.68l-3.15,1.7c-1,.58-2.12,1.1-3.11,1.77l-6.12,3.74c-.51.32-1,.61-1.52.94l-1.46,1c-1,.69-1.95,1.39-2.94,2.06l-3,2c-.49.34-1,.67-1.48,1l-1.41,1.12c-1.87,1.5-3.77,3-5.68,4.42s-3.7,3.07-5.54,4.63l-5.5,4.71c-3.61,3.22-7,6.67-10.69,9.89l-.2-.17c3.3-3.56,6.54-7.2,9.9-10.7l5.28-5c1.77-1.67,3.48-3.4,5.39-4.9l5.61-4.66,1.4-1.17c.48-.38,1-.72,1.47-1.08l3-2.14,3-2.14,1.48-1.07c.5-.34,1-.65,1.54-1L213,118a135.92,135.92,0,0,1,26.6-11.87c2.33-.71,4.64-1.46,7-2l3.55-.84,3.59-.65a72.27,72.27,0,0,1,14.53-1.16Z"/><path class="cls-26" d="M239.84,76.06a24.63,24.63,0,0,1,7.1.21c1.17.14,2.29.45,3.43.7s2.23.67,3.35,1,2.18.84,3.24,1.35A33.55,33.55,0,0,1,260.07,81a20.62,20.62,0,0,1,5.45,4.64l-.13.21a70.44,70.44,0,0,0-12.5-5.55,132.37,132.37,0,0,0-13.1-4Z"/><path class="cls-27" d="M251,65.19a18.25,18.25,0,0,1,5.93-.9,27.41,27.41,0,0,1,5.82.58,26.1,26.1,0,0,1,5.59,1.86,15.64,15.64,0,0,1,5,3.48l-.1.23c-1.77-.7-3.57-1.29-5.4-1.82s-3.68-.94-5.55-1.32-3.73-.75-5.61-1-3.77-.57-5.65-.8Z"/><path class="cls-28" d="M228.9,66a20.84,20.84,0,0,1,.17-4c.16-1.21.36-2.35.57-3.44s.45-2.14.58-3.19a15.79,15.79,0,0,0,.16-3.61l.18-.14A7,7,0,0,1,232,55.23a12.15,12.15,0,0,1-.15,3.83,20.81,20.81,0,0,1-1.09,3.66,22,22,0,0,1-1.67,3.43Z"/><path class="cls-29" d="M244.67,56.26a14.3,14.3,0,0,1,.84-2.93c.35-.88.69-1.71,1.06-2.49s.76-1.53,1.07-2.3a10.77,10.77,0,0,0,.8-2.65l.15-.07a5,5,0,0,1,.39,2.91,9.65,9.65,0,0,1-.86,2.82,19.55,19.55,0,0,1-3.32,4.82Z"/><path class="cls-30" d="M178.16,165.05,158.24,153.6a2.25,2.25,0,0,1-.95-2.84l10.53-24.67A2.25,2.25,0,0,1,171,125l25.41,14.61a2.25,2.25,0,0,1,.68,3.3l-16,21.51A2.25,2.25,0,0,1,178.16,165.05Z"/><path class="cls-31" d="M196.37,145.69l-30.56-17.57a1.49,1.49,0,0,1-.65-1.83l1.66-4.27a1.49,1.49,0,0,1,2.13-.75l31.76,18.26a1.49,1.49,0,0,1,.42,2.22l-2.86,3.58A1.49,1.49,0,0,1,196.37,145.69Z"/><path class="cls-32" d="M137.29,197.62l-8.3,8.1-7.92,7.73a7.17,7.17,0,0,1-10.14-10.14l6.17-6.17,6.4-6.41Z"/><path class="cls-32" d="M215.88,215.55a7.16,7.16,0,0,1-5.07-2.1l-7.92-7.73-8.3-8.1,13.78-6.89,6.4,6.41,6.17,6.17A7.17,7.17,0,0,1,215.88,215.55Z"/><path class="cls-33" d="M123.52,190.73l13.78,6.89-8.3,8.1a73.72,73.72,0,0,1-11.88-8.58Z"/><path class="cls-33" d="M214.77,197.14a73.72,73.72,0,0,1-11.88,8.58l-8.3-8.1,13.78-6.89Z"/><rect class="cls-33" x="157.96" y="50.63" width="15.96" height="17.56"/><rect class="cls-34" x="150.76" y="43.06" width="30.37" height="10.64" rx="4.17" ry="4.17"/><rect class="cls-33" x="101.64" y="79.62" width="12.98" height="14.28" transform="translate(-29.67 101.87) rotate(-45)"/><rect class="cls-35" x="89.44" y="76.09" width="24.68" height="8.65" rx="3.39" ry="3.39" transform="translate(-27.05 95.53) rotate(-45)"/><circle class="cls-36" cx="165.94" cy="136.46" r="73.69"/><path class="cls-37" d="M227,136.1a61,61,0,0,1-61,61,61.51,61.51,0,0,1-9.4-.72,60.32,60.32,0,0,1-14.35-4.08q-1.29-.54-2.55-1.15a60.8,60.8,0,0,1-16.85-11.93q-1.2-1.2-2.33-2.46a61,61,0,0,1,86.16-86.16q1.26,1.13,2.46,2.33A60.8,60.8,0,0,1,221,109.8q.6,1.26,1.15,2.55a60.33,60.33,0,0,1,4.08,14.35A61.49,61.49,0,0,1,227,136.1Z"/><rect class="cls-38" x="164.92" y="86.35" width="2.05" height="11.45" rx="1.03" ry="1.03"/><rect class="cls-38" x="164.92" y="174.4" width="2.05" height="11.45" rx="1.03" ry="1.03"/><rect class="cls-38" x="116.19" y="135.07" width="11.45" height="2.05" rx="1.03" ry="1.03"/><rect class="cls-38" x="204.25" y="135.07" width="11.45" height="2.05" rx="1.03" ry="1.03"/><rect class="cls-38" x="191.35" y="103.94" width="11.45" height="2.05" transform="translate(-16.51 170.08) rotate(-44.99)"/><path class="cls-38" d="M130.76,171.28h0a1,1,0,0,1,0-1.45l6.64-6.64a1,1,0,0,1,1.45,0h0a1,1,0,0,1,0,1.45l-6.64,6.64A1,1,0,0,1,130.76,171.28Z"/><path class="cls-38" d="M138.86,109h0a1,1,0,0,1-1.45,0l-6.64-6.64a1,1,0,0,1,0-1.45h0a1,1,0,0,1,1.45,0l6.64,6.64A1,1,0,0,1,138.86,109Z"/><path class="cls-38" d="M201.12,171.28h0a1,1,0,0,1-1.45,0L193,164.64a1,1,0,0,1,0-1.45h0a1,1,0,0,1,1.45,0l6.64,6.64A1,1,0,0,1,201.12,171.28Z"/><path class="cls-39" d="M183.5,143.7l-18.59-7.32.64-1.64,18.59,7.32a.88.88,0,0,1,.5,1.14h0A.88.88,0,0,1,183.5,143.7Z"/><path class="cls-38" d="M166.82,137H135.69a.88.88,0,0,1-.88-.88h0a.88.88,0,0,1,.88-.88h29.37v-24a.88.88,0,0,1,.88-.88h0a.88.88,0,0,1,.88.88Z"/><path class="cls-40" d="M206.63,90.62l-86.16,86.16a60.86,60.86,0,0,1-14.32-28.46l72-72a60.86,60.86,0,0,1,28.46,14.32Z"/><path class="cls-40" d="M226.24,126.7l-69.71,69.7a60.32,60.32,0,0,1-14.35-4.08q-1.29-.54-2.55-1.15L221,109.8q.6,1.26,1.15,2.55A60.33,60.33,0,0,1,226.24,126.7Z"/></g><g id="Objects"><path class="cls-41" d="M95.42,209.66a9.89,9.89,0,0,0,4.24,2.86c2.24.87,6.93,1.13,4.37,2.07s-5.61.54-7.15.36a32.37,32.37,0,0,0-4.84-.1c-2.38.08-2.41-.07-2.19-2.67C90.16,208.59,94.27,207.68,95.42,209.66Z"/><path class="cls-42" d="M45.47,206.13c.36.61,1.39,4.06,3.63,4.93s6.22,1.87,3.66,2.81-5.61.54-7.15.36-1.91-2.07-3.52-2.9c-2.49-1.28-2.17-1.16-2-3.76A2.86,2.86,0,0,1,45.47,206.13Z"/><path class="cls-43" d="M93.81,55.89c1.59,1.28,2.37,1.48,3.57-.6.06-.1,6.44-6.23.59-8.6-2.69-1.09-4.85-1.7-5.45,2.14S91.91,54.36,93.81,55.89Z"/><path class="cls-44" d="M83.53,56.34c-.14.25-2.81,5.68-4.52,10a4.77,4.77,0,0,0,2.65,5.75l.09,0c2.08.77,5.23-.21,5.82-2.36A59.85,59.85,0,0,1,90.34,62Z"/><path class="cls-45" d="M68,78.85c1.58,13.21.74,34.21-1.57,42.83l29.14-1.1s1.7-18.85,3.13-35.2a29.94,29.94,0,0,0-.39-9.08,12,12,0,0,0-5.12-7.09,22.49,22.49,0,0,0-7.49-2.78,33.66,33.66,0,0,0-7.16-1c-3.28,0-6.89.7-8.88,3.53-1.76,2.49-2,5.78-1.77,8.73C67.94,78.06,68,78.46,68,78.85Z"/><path class="cls-46" d="M67.25,139.51s-2.75-6-.79-17.82l29.14-1.1a165.36,165.36,0,0,1,1.74,17.79Z"/><path class="cls-47" d="M70.17,174.36c6.82-7,2.9-13.05-4.16-10.48-10,3.64-20.81,36.91-25.1,41.38-.56.59-.15.8.3,1,1.3.66,2.15-.38,3.72.15.65.22,1.55,1.88,1.55,1.88C53.11,200.7,63.59,181.12,70.17,174.36Z"/><path class="cls-48" d="M81.76,140.24c.58-11.83-4.44-20.8-11.6-16.63-3,1.75-4,5.07-4.32,8.17s-1.66,26.87-2.24,32.69c-1.29,13.13,9.68,8.91,10.66,5.25C76.74,160.47,81.45,146.68,81.76,140.24Z"/><path class="cls-49" d="M99.94,165.27c-.45-8.85-5.18-10.77-9.45-4.58-6.72,9.74.11,39.51-.62,51.18a6.57,6.57,0,0,1,5.44-1.53c1,.41.23-1.21.23-1.21C99.16,190.91,100.35,173.17,99.94,165.27Z"/><path class="cls-50" d="M88.43,167.61c1.28,3.57,12.89,8.55,11.36-4.55-.68-5.81-2.8-29.57-3.15-32.67s-1.06-7.61-2.64-8.12c-7.89-2.54-15.09,7-12.6,18.58C83.07,148.59,85.78,160.21,88.43,167.61Z"/><path class="cls-51" d="M85.9,94.62a48,48,0,0,1-6.08-6c-1.45-1.72-2.84-3.49-4.18-5.3a65.44,65.44,0,0,1-5.88-9.09c-1.65-3,0-6.56,2.51-7.32,2.78-.83,4.51.77,7.54,3.7,6.81,6.58,10.11,15.87,11.89,18.59a5.15,5.15,0,0,1,1.42.15c3.77,1,9.77,5.37,18.69,8.81,1.47.57,1.08,3.61-.74,4.28-2.24.82-4.66-.25-10.09-1.7a66.87,66.87,0,0,1-10-3.18,21.47,21.47,0,0,1-4.82-2.69Z"/><path class="cls-52" d="M81.42,52.68c-.72,5.12-.85,6.26.84,8.84a12.12,12.12,0,0,0,6.94,4.86c2.56.63,5.11-1.61,6.21-3.58a37.42,37.42,0,0,0,3.71-12.65c.32-2.86-2.29-7.06-5.81-7.92S83.18,40.18,81.42,52.68Z"/><path class="cls-53" d="M81.62,51.91c1,1.68,1.66,2.12,3.42.63,1.37-1.16,5.41-5.72,3.34-7.58s-3.83-3.12-5.62.15S80.41,49.91,81.62,51.91Z"/><ellipse class="cls-52" cx="81.09" cy="53.37" rx="1.82" ry="3.48" transform="matrix(0.99, -0.15, 0.15, 0.99, -6.98, 12.54)"/><path class="cls-54" d="M85.36,43.21c1.23,3.38,10.57,5.95,13.9,5.63s4.57-6.3.28-7.78c-2.47-.61-.82.42-3,.74C95.4,42,84,39.61,85.36,43.21Z"/><path class="cls-52" d="M111.77,97.54c1.48.47,8.31,2.18,6.51,4.13-2,2.15-3.95,2.3-5.57,1.86-3-.8-3.17-1.79-3.12-3.66C109.63,98.56,110.36,97.1,111.77,97.54Z"/><path class="cls-52" d="M118.4,100.4c.63.29,4.37,2.05,4,2.64-.49.9-3-.15-4.67-.84-.9-.37-1.84-1.37-1.41-1.93S117.39,99.93,118.4,100.4Z"/><g class="cls-55"><path class="cls-56" d="M9.18,38.85c12.79-6.68,40.21-5,48.71,7.9,8.69,13.15,2.94,25.51,15.22,41.64C84.3,103.08,78,122,80.52,136.32c2.82,15.71,27.72,7.28,37.77,26.26,15.44,29.17-15.46,50.17-34.53,63.64-19.58,13.82-49.62,26.53-71.6,7.14C-4.07,219.05-.35,161,2.54,145.7c4.15-22,25.32-8,12.7-28.8-7.55-12.47-14.66-36,6-38.81S-9.24,48.48,9.18,38.85Z"/></g><path class="cls-57" d="M223.71,45.59c-1.71-2.41.25-6.66,5.1-7.06,5.54-.46,15.38,2.74,10.1,15.65-5.49,13.44-3.78,16.88-.08,18.89,0,0-12.69,1-11.72-10.07S227.68,51.18,223.71,45.59Z"/><path class="cls-58" d="M197.51,81.79c2.27-1,8.34-5,16.56-10.15A11.18,11.18,0,0,1,222,71c1.67.56,2.57,3.17-.07,5A71.37,71.37,0,0,1,213,81.39c-8.75,4.67-12.87,5.86-14.78,6.18C196,88,194.19,83.23,197.51,81.79Z"/><path class="cls-59" d="M205.52,102.78c-.68-1.88-8.54-14-9.67-17.07-1.33-3.65,3.26-4.9,4.91-2.16,2.52,4.21,3.37,5.81,5.23,12.1,1.3,4.37,2.87,5,2.4,6.39C208,103.13,206,104,205.52,102.78Z"/><path class="cls-60" d="M225.6,61.71c0,.28.47,6.15.54,10.66,0,2.21-1.56,4.31-3.15,4.36h-.07c-1.56,0-3.4-2-3.26-4.13.25-3.92.06-7.94.06-8Z"/><path class="cls-61" d="M230.16,87.09a76.74,76.74,0,0,0-2.82,12.34,31.26,31.26,0,0,0,0,9.29c.25,1.85.62,3.69,1,5.51.16.69,1.52,6.26,1.58,6.85H204.58c.24-5,5.92-20.63,2.08-30.76-2.66-7,.87-7.23,3.27-13.07A17.16,17.16,0,0,1,212,73a7.3,7.3,0,0,1,3.89-2.39,14.49,14.49,0,0,1,2.36-.33c4.3-.35,14.43-1.59,15.38,4.53a10.84,10.84,0,0,1-.5,4.95c-.57,1.79-1.42,3.47-2.13,5.2Q230.53,86,230.16,87.09Z"/><path class="cls-62" d="M229.9,137.22s2.2-5.54.1-16.14H204.58a155.54,155.54,0,0,0-.93,16.14Z"/><path class="cls-63" d="M225.38,172.88c-3.34-8.17,4.78-11,8.38-5.24,5.09,8.1,7.29,38.05,8,43.62.09.73-.31.65-.74.57-1.25-.24-.72-1.42-2.52-1.31-.95.06-1.22,1.36-1.22,1.36C235.27,204.46,228.61,180.8,225.38,172.88Z"/><path class="cls-64" d="M217.28,138.38c-.89-10.67,3.18-19,9.56-15.43,2.68,1.48,3.67,4.45,4,7.24s2.34,31.83,3,37.07c1.56,11.83-7.44,8.64-8.41,5.36C223,164.35,217.76,144.2,217.28,138.38Z"/><path class="cls-65" d="M202.25,171.2c-.33-8,7.18-7.84,9.07-1.32,3,10.25-2.17,32.26-2.48,44.84-1.31-2.17-2.55-2.7-3.13-2.65a2.09,2.09,0,0,0-1.46.82C204.44,196.32,202.61,179.76,202.25,171.2Z"/><path class="cls-66" d="M211,172.07c-1,3.27-9.6,7.05-8.7-4.85.4-5.28,1.46-34.43,1.66-37.24s.67-6.91,2-7.43c6.79-2.56,13.38,5.82,11.59,16.37C216.41,146,213.09,165.29,211,172.07Z"/><path class="cls-52" d="M228.66,57.45c-.5,5-.65,6.13-2.84,8.18a11.83,11.83,0,0,1-7.7,3c-2.57,0-4.47-2.71-5.05-4.83a36.47,36.47,0,0,1-.58-12.85c.36-2.78,3.8-6.16,7.35-6.16S229.89,45.2,228.66,57.45Z"/><path class="cls-67" d="M203.93,212.84a8.67,8.67,0,0,1-3.6,2.73c-1.92.86-6,1.26-3.74,2a13.55,13.55,0,0,0,6.24.08,27.09,27.09,0,0,1,4.21-.25c2.08,0,2.1-.14,1.82-2.49C208.48,211.7,204.87,211,203.93,212.84Z"/><path class="cls-68" d="M237.29,211.41c-.29.56-.59,3.3-2.52,4.16s-6,1.26-3.74,2a13.55,13.55,0,0,0,6.24.08c1.34-.21,1.55-1.67,3.13-1.68,2.08,0,2.1-.14,1.82-2.49C241.84,210.27,238.23,209.58,237.29,211.41Z"/><path class="cls-69" d="M213.33,48.32c-2,3.35,12.31,9.51,15.48,9S232,50,229.51,47,218,40.41,213.33,48.32Z"/><path class="cls-70" d="M218.63,47.48c-.52,2.84-5.49,3.49-6.34,5.84-.53,1.46-.77-3.15.39-5.23S219.66,41.77,218.63,47.48Z"/><ellipse class="cls-52" cx="228.81" cy="58.19" rx="3.39" ry="1.78" transform="matrix(0.38, -0.93, 0.93, 0.38, 88.44, 248.02)"/><path class="cls-52" d="M256.81,76.87A9.2,9.2,0,0,1,258,72.67c.66-.88.48,1.48.47,2.63S256.71,78.14,256.81,76.87Z"/><path class="cls-52" d="M257.91,75.64c1.74-2.61,2.24-4.28,3.6-5s1.43,2.18,1,3.18-1.92,4.69-3.2,5S256.63,77.56,257.91,75.64Z"/><path class="cls-71" d="M242.92,94.75c-1.45-2-6.71-7.07-13.46-14a11.19,11.19,0,0,1-2.3-7.57c.19-1.76,2.55-3.18,4.91-1a71.23,71.23,0,0,1,7.14,7.49c6.43,7.55,8.48,11.32,9.2,13.11C249.26,94.89,245,97.68,242.92,94.75Z"/><path class="cls-72" d="M259.45,77.94c.18,1.47-1.57,1.81-3.85,6-3.29,6-4.5,7.42-8,11.13-2.28,2.42-6.67.14-4.51-3.28,1.83-2.89,12.49-13.44,13.6-15.2C257.43,75.38,259.31,76.74,259.45,77.94Z"/><path class="cls-52" d="M205.82,100.85a11,11,0,0,0-2.61,2.28c-.45.58-.44,1.51.39,1.65s3-.35,3.71-1.24a3.78,3.78,0,0,0,.71-2.7C207.87,100,207,100.06,205.82,100.85Z"/></g></g></g></svg>