<svg xmlns="http://www.w3.org/2000/svg" xmlns:xlink="http://www.w3.org/1999/xlink" viewBox="0 0 326.05 249.96"><defs><style>.cls-1{fill:none;}.cls-2{isolation:isolate;}.cls-3,.cls-4{opacity:0.2;}.cls-3{fill:url(#Gradient_bez_nazwy_8);}.cls-4{fill:url(#Gradient_bez_nazwy_5);}.cls-5{fill:url(#Gradient_bez_nazwy_5-2);}.cls-6{fill:url(#Gradient_bez_nazwy_5-3);}.cls-7{fill:url(#Gradient_bez_nazwy_5-4);}.cls-8{fill:url(#Gradient_bez_nazwy_5-5);}.cls-9{fill:url(#Gradient_bez_nazwy_14);}.cls-10{fill:url(#Gradient_bez_nazwy_9);}.cls-11{fill:url(#Gradient_bez_nazwy_14-2);}.cls-12{fill:url(#Gradient_bez_nazwy_9-2);}.cls-13{fill:url(#Безымянный_градиент_7);}.cls-14{fill:url(#Gradient_bez_nazwy_9-3);}.cls-15{fill:url(#Безымянный_градиент_7-2);}.cls-16{fill:url(#Gradient_bez_nazwy_9-4);}.cls-17{fill:url(#Gradient_bez_nazwy_5-6);}.cls-18{fill:url(#Gradient_bez_nazwy_5-7);}.cls-19{fill:url(#Gradient_bez_nazwy_5-8);}.cls-20{fill:url(#Gradient_bez_nazwy_5-9);}.cls-21{fill:url(#Gradient_bez_nazwy_8-2);}.cls-22{fill:url(#Gradient_bez_nazwy_8-3);}.cls-23,.cls-37,.cls-39{opacity:0.3;mix-blend-mode:multiply;}.cls-23{fill:url(#Gradient_bez_nazwy_3);}.cls-24{fill:url(#Gradient_bez_nazwy_5-10);}.cls-25{fill:url(#Gradient_bez_nazwy_5-11);}.cls-26{fill:#f70f47;}.cls-27{fill:#ed9169;}.cls-28{fill:url(#Gradient_bez_nazwy_5-12);}.cls-29{fill:url(#Gradient_bez_nazwy_2);}.cls-30{fill:url(#Gradient_bez_nazwy_2-2);}.cls-31{fill:url(#Gradient_bez_nazwy_2-3);}.cls-32{fill:url(#Gradient_bez_nazwy_2-4);}.cls-33{fill:url(#Gradient_bez_nazwy_2-5);}.cls-34{fill:url(#Gradient_bez_nazwy_5-13);}.cls-35{fill:url(#Gradient_bez_nazwy_5-14);}.cls-36{fill:#ffaf84;}.cls-37{fill:url(#Gradient_bez_nazwy_3-2);}.cls-38{clip-path:url(#clip-path);}.cls-39{fill:url(#Gradient_bez_nazwy_3-3);}.cls-40{fill:url(#Gradient_bez_nazwy_16);}.cls-41{fill:url(#Gradient_bez_nazwy_16-2);}.cls-42{fill:url(#Gradient_bez_nazwy_16-3);}.cls-43{fill:#fff;}.cls-44{fill:#d4e1f7;}.cls-45{fill:#2a3554;}.cls-46{fill:#cfe4ea;}.cls-47{fill:url(#Gradient_bez_nazwy_5-15);}.cls-48{fill:#004386;}.cls-49{fill:#0078cc;}.cls-50{fill:#ffda00;}.cls-51{fill:url(#Безымянный_градиент_7-3);}.cls-52{fill:#e22445;}.cls-53{fill:#ff6c88;}.cls-54{fill:url(#Безымянный_градиент_7-4);}.cls-55{fill:url(#Gradient_bez_nazwy_5-16);}.cls-56{fill:url(#Gradient_bez_nazwy_4);}.cls-57{fill:url(#Gradient_bez_nazwy_2-6);}.cls-58{fill:url(#Gradient_bez_nazwy_2-7);}.cls-59{fill:#ea8f68;}.cls-60{fill:url(#Gradient_bez_nazwy_2-8);}.cls-61{fill:url(#Gradient_bez_nazwy_10);}.cls-62{fill:url(#Gradient_bez_nazwy_5-17);}.cls-63{fill:url(#Gradient_bez_nazwy_5-18);}.cls-64{fill:url(#Gradient_bez_nazwy_5-19);}.cls-65{fill:url(#Gradient_bez_nazwy_5-20);}.cls-66{fill:url(#Gradient_bez_nazwy_4-2);}.cls-67{fill:url(#Gradient_bez_nazwy_4-3);}.cls-68{fill:url(#Gradient_bez_nazwy_4-4);}.cls-69{fill:url(#Gradient_bez_nazwy_4-5);}.cls-70{fill:url(#Gradient_bez_nazwy_2-9);}.cls-71{fill:url(#Gradient_bez_nazwy_2-10);}</style><linearGradient id="Gradient_bez_nazwy_8" x1="-931.77" y1="1841.42" x2="-724.47" y2="1841.42" gradientTransform="matrix(-0.91, 0.98, -0.89, -0.84, 1059.81, 2497.8)" gradientUnits="userSpaceOnUse"><stop offset="0" stop-color="#2c27ce"/><stop offset="1" stop-color="#ef1d68"/></linearGradient><linearGradient id="Gradient_bez_nazwy_5" x1="-161.45" y1="264.32" x2="145.51" y2="264.32" gradientTransform="translate(154.04 -137.21) rotate(-5.85)" gradientUnits="userSpaceOnUse"><stop offset="0" stop-color="#36078b"/><stop offset="1" stop-color="#16b1ff"/></linearGradient><linearGradient id="Gradient_bez_nazwy_5-2" x1="-1661.81" y1="-1430.48" x2="-1652.71" y2="-1440.24" gradientTransform="matrix(-0.95, 0.31, 0.31, 0.95, -929.4, 1956.06)" xlink:href="#Gradient_bez_nazwy_5"/><linearGradient id="Gradient_bez_nazwy_5-3" x1="309.17" y1="399.41" x2="318.28" y2="389.65" gradientTransform="matrix(-1, -0.06, -0.06, 1, 553.68, -293.28)" xlink:href="#Gradient_bez_nazwy_5"/><linearGradient id="Gradient_bez_nazwy_5-4" x1="1614.05" y1="3461.02" x2="1622.29" y2="3452.19" gradientTransform="matrix(-0.86, -0.51, -0.51, 0.86, 3362.46, -2087.19)" xlink:href="#Gradient_bez_nazwy_5"/><linearGradient id="Gradient_bez_nazwy_5-5" x1="1429.88" y1="6703.91" x2="1437.28" y2="6695.98" gradientTransform="matrix(-0.55, -0.83, -0.83, 0.55, 6594.84, -2443.69)" xlink:href="#Gradient_bez_nazwy_5"/><linearGradient id="Gradient_bez_nazwy_14" x1="-564.95" y1="-595.62" x2="-532.3" y2="-630.62" gradientTransform="matrix(-0.99, 0.12, 0.12, 0.99, -269.43, 729.34)" gradientUnits="userSpaceOnUse"><stop offset="0" stop-color="#f70f47"/><stop offset="1" stop-color="#ffb41d"/></linearGradient><linearGradient id="Gradient_bez_nazwy_9" x1="-1811.28" y1="-1462.64" x2="-1784.15" y2="-1505.54" gradientTransform="matrix(-0.95, 0.31, 0.31, 0.95, -1028.72, 2044.41)" gradientUnits="userSpaceOnUse"><stop offset="0.48" stop-color="#36078b"/><stop offset="1" stop-color="#16b1ff"/></linearGradient><linearGradient id="Gradient_bez_nazwy_14-2" x1="-8002.59" y1="-2121.55" x2="-7977.73" y2="-2148.19" gradientTransform="translate(8216.93 -2067.73) rotate(-29.76)" xlink:href="#Gradient_bez_nazwy_14"/><linearGradient id="Gradient_bez_nazwy_9-2" x1="-1792.16" y1="-1461.95" x2="-1821.44" y2="-1508.26" xlink:href="#Gradient_bez_nazwy_9"/><linearGradient id="Безымянный_градиент_7" x1="-254.45" y1="-231.99" x2="-208.74" y2="-280.97" gradientTransform="matrix(-1, 0.04, 0.04, 1, -39.84, 299.84)" gradientUnits="userSpaceOnUse"><stop offset="0" stop-color="#dd001e"/><stop offset="0.42" stop-color="#ab0639"/><stop offset="1" stop-color="#221783"/></linearGradient><linearGradient id="Gradient_bez_nazwy_9-3" x1="-1808.91" y1="-1462.36" x2="-1768.44" y2="-1536.14" xlink:href="#Gradient_bez_nazwy_9"/><linearGradient id="Безымянный_градиент_7-2" x1="-2108.46" y1="-1676.67" x2="-2075.48" y2="-1712.01" gradientTransform="matrix(-0.93, 0.36, 0.36, 0.93, -1156.89, 2398.97)" xlink:href="#Безымянный_градиент_7"/><linearGradient id="Gradient_bez_nazwy_9-4" x1="-1804.74" y1="-1463.93" x2="-1760.48" y2="-1504.34" xlink:href="#Gradient_bez_nazwy_9"/><linearGradient id="Gradient_bez_nazwy_5-6" x1="-1781.48" y1="-1511.15" x2="-1776.53" y2="-1520.17" gradientTransform="matrix(-0.95, 0.31, 0.31, 0.95, -1028.72, 2044.41)" xlink:href="#Gradient_bez_nazwy_5"/><linearGradient id="Gradient_bez_nazwy_5-7" x1="-1779.66" y1="-1520.38" x2="-1776.53" y2="-1528.55" gradientTransform="matrix(-0.95, 0.31, 0.31, 0.95, -1028.72, 2044.41)" xlink:href="#Gradient_bez_nazwy_5"/><linearGradient id="Gradient_bez_nazwy_5-8" x1="-1795.83" y1="-1516.21" x2="-1795.81" y2="-1523.95" gradientTransform="matrix(-0.95, 0.31, 0.31, 0.95, -1028.72, 2044.41)" xlink:href="#Gradient_bez_nazwy_5"/><linearGradient id="Gradient_bez_nazwy_5-9" x1="-1790.59" y1="-1525.36" x2="-1789.27" y2="-1531.25" gradientTransform="matrix(-0.95, 0.31, 0.31, 0.95, -1028.72, 2044.41)" xlink:href="#Gradient_bez_nazwy_5"/><linearGradient id="Gradient_bez_nazwy_8-2" x1="-1797.65" y1="-1471.2" x2="-1797.65" y2="-1457.3" gradientTransform="matrix(-0.95, 0.31, 0.31, 0.95, -1028.72, 2044.41)" xlink:href="#Gradient_bez_nazwy_8"/><linearGradient id="Gradient_bez_nazwy_8-3" x1="-1797.65" y1="-1467.65" x2="-1797.65" y2="-1473.71" gradientTransform="matrix(-0.95, 0.31, 0.31, 0.95, -1028.72, 2044.41)" xlink:href="#Gradient_bez_nazwy_8"/><linearGradient id="Gradient_bez_nazwy_3" x1="67.15" y1="207.69" x2="75.66" y2="207.69" gradientUnits="userSpaceOnUse"><stop offset="0" stop-color="blue"/><stop offset="1" stop-color="#9e005d"/></linearGradient><linearGradient id="Gradient_bez_nazwy_5-10" x1="131.89" y1="62.31" x2="101.68" y2="70.63" gradientTransform="matrix(1, 0, 0, 1, 0, 0)" xlink:href="#Gradient_bez_nazwy_5"/><linearGradient id="Gradient_bez_nazwy_5-11" x1="131.9" y1="62.36" x2="101.69" y2="70.68" gradientTransform="matrix(1, 0, 0, 1, 0, 0)" xlink:href="#Gradient_bez_nazwy_5"/><linearGradient id="Gradient_bez_nazwy_5-12" x1="85.57" y1="72.01" x2="90.81" y2="117.01" gradientTransform="matrix(1, 0, 0, 1, 0, 0)" xlink:href="#Gradient_bez_nazwy_5"/><linearGradient id="Gradient_bez_nazwy_2" x1="74.69" y1="120.09" x2="103.96" y2="120.09" gradientUnits="userSpaceOnUse"><stop offset="0" stop-color="#f70f47"/><stop offset="1" stop-color="#9e005d"/></linearGradient><linearGradient id="Gradient_bez_nazwy_2-2" x1="67.78" y1="180.74" x2="81.5" y2="180.74" xlink:href="#Gradient_bez_nazwy_2"/><linearGradient id="Gradient_bez_nazwy_2-3" x1="71.29" y1="140.51" x2="89.46" y2="140.51" xlink:href="#Gradient_bez_nazwy_2"/><linearGradient id="Gradient_bez_nazwy_2-4" x1="94.74" y1="182.95" x2="105.47" y2="182.95" xlink:href="#Gradient_bez_nazwy_2"/><linearGradient id="Gradient_bez_nazwy_2-5" x1="88.66" y1="140.34" x2="105.46" y2="140.34" xlink:href="#Gradient_bez_nazwy_2"/><linearGradient id="Gradient_bez_nazwy_5-13" x1="66.35" y1="74.24" x2="71.59" y2="119.25" gradientTransform="matrix(1, 0, 0, 1, 0, 0)" xlink:href="#Gradient_bez_nazwy_5"/><linearGradient id="Gradient_bez_nazwy_5-14" x1="69.7" y1="73.85" x2="74.94" y2="118.86" gradientTransform="matrix(1, 0, 0, 1, 0, 0)" xlink:href="#Gradient_bez_nazwy_5"/><linearGradient id="Gradient_bez_nazwy_3-2" x1="98.22" y1="208.84" x2="112.25" y2="208.84" xlink:href="#Gradient_bez_nazwy_3"/><clipPath id="clip-path"><path class="cls-1" d="M130.33,45.34c-1.19-1.2-3.62,3.29-5.21,6.72-.27-1.2-.68-2.23-1.4-2.11s-.37,4.07-.3,4.74a4.88,4.88,0,0,0,.19,1s0,.09,0,.13c-2.23,2.65-10.8,10.05-12.59,13-3.23-.93-9-3.08-16.28-5.29a3.06,3.06,0,0,0-1.09-.06,22.37,22.37,0,0,0-5.35-1c0-.47,0-.92,0-1.35,2.08-.29,3.62-2.51,4.11-4.3a27.25,27.25,0,0,0,.73-5.2,5.2,5.2,0,0,0,.34-.89c.37-1.29,1-5.25-.25-6.82,2.29-1.36,1.91-6.14-1.83-6.49-2.23,0-.62.53-2.43,1.27-.91.37-10.85.72-9.27,3.43-.76.12-1.37.75-1.78,2.25-.56,2.1-.81,3.43-.49,4.52A.88.88,0,0,0,77,49c-.82.33-1,1.87-.33,3.43a3.62,3.62,0,0,0,2,2.25,5.84,5.84,0,0,0,1.93,3.66c-.11,1.31-.22,2.85-.29,4.36-1,.13-1.91.3-2.8.47a12.66,12.66,0,0,0-2.3.66,4.34,4.34,0,0,0-1.67.87A7,7,0,0,0,71,67.61c-1,1.29-2.33,3.08-4.1,5.81-5.19,8-6.4,11.77-6.68,13.5a1,1,0,0,0,0,.39,1.74,1.74,0,0,0,.14.66c2,4.48,2.88,6.12,8.11,11.59a48.4,48.4,0,0,0,5,5,1.59,1.59,0,0,0,1.3,1.68,1.52,1.52,0,0,0,.94,0,54.12,54.12,0,0,1-.15,5.45,43.73,43.73,0,0,0-1,9.68c-.45,4-2.5,32.8-3.22,38.11,0,.21,0,.41-.07.61v0c-4.05,9.09-3.73,38.16-3.51,44,0,.3.09.46.2.53a4,4,0,0,0-.06,1.11,11,11,0,0,1-.76,3.83c-.68,2.17,1.68,2.43,5.66,2.36,3.72-.07,2.77-1.52,2.16-2.42s-1.5-1.18-1.66-2.17c-.12-.72,0-1.15-.25-2.1h0c.86-7.9,5.87-32.47,8-41.08a10.72,10.72,0,0,0,.3-2.26c2.63-8.95,6.68-24.22,7.67-30.78,1.3,7.36,4.29,24,6.42,31.7-2.82,10.85,2.49,33,2.83,45.78v0c0,.08,0,.15,0,.23-.3,2.43-.28,2.56,2,2.57a30.36,30.36,0,0,1,4.52.26,15.1,15.1,0,0,0,6.7-.09c2.43-.78-1.95-1.2-4-2.09a9.26,9.26,0,0,1-3.87-2.82,1.79,1.79,0,0,0-.34-.44c-.17-17,1.76-33.87,2.14-42.65a11,11,0,0,0,0-1.48,19.66,19.66,0,0,0,0-2.64c-.31-4-1-20.92-1.43-31h0a155.16,155.16,0,0,0-1-16.7s-.14-21.87-1.61-36.24c7.77,1.61,11.31,1.5,13,1.21a1.6,1.6,0,0,0,1.46-.52c2.35-2.54,4.73-5.75,8.28-11.91,2-3.48,2.56-5.18,2.63-6.79a6.24,6.24,0,0,0,4.24-4.15C131.42,51.85,132.26,47.29,130.33,45.34Zm-61.49,41c.86-1.17,2.09-2.7,3.59-4.56a120.32,120.32,0,0,1,3.07,18.51C73.53,96,70.59,88.56,68.84,86.36Z"/></clipPath><linearGradient id="Gradient_bez_nazwy_3-3" x1="-5975.2" y1="15013.36" x2="-5822.42" y2="15107.23" gradientTransform="matrix(-0.4, -0.87, 0.54, -0.47, -10393.48, 2128.45)" xlink:href="#Gradient_bez_nazwy_3"/><linearGradient id="Gradient_bez_nazwy_16" x1="132.29" y1="203.32" x2="276.8" y2="22.69" gradientUnits="userSpaceOnUse"><stop offset="0" stop-color="#000061"/><stop offset="1" stop-color="#0065ff"/></linearGradient><linearGradient id="Gradient_bez_nazwy_16-2" x1="225.78" y1="60.83" x2="149.51" y2="75.96" xlink:href="#Gradient_bez_nazwy_16"/><linearGradient id="Gradient_bez_nazwy_16-3" x1="226.93" y1="66.63" x2="150.66" y2="81.76" xlink:href="#Gradient_bez_nazwy_16"/><linearGradient id="Gradient_bez_nazwy_5-15" x1="158.61" y1="181.68" x2="259.39" y2="137.41" gradientTransform="matrix(1, 0, 0, 1, 0, 0)" xlink:href="#Gradient_bez_nazwy_5"/><linearGradient id="Безымянный_градиент_7-3" x1="122.81" y1="150.87" x2="287.83" y2="61.06" gradientTransform="matrix(1, 0, 0, 1, 0, 0)" xlink:href="#Безымянный_градиент_7"/><linearGradient id="Безымянный_градиент_7-4" x1="166.43" y1="149.9" x2="285.65" y2="100.88" gradientTransform="matrix(1, 0, 0, 1, 0, 0)" xlink:href="#Безымянный_градиент_7"/><linearGradient id="Gradient_bez_nazwy_5-16" x1="76.46" y1="78.69" x2="134.01" y2="78.69" gradientTransform="translate(109.37 -52.65) rotate(55.01)" xlink:href="#Gradient_bez_nazwy_5"/><linearGradient id="Gradient_bez_nazwy_4" x1="504.53" y1="81.74" x2="458.88" y2="48.81" gradientTransform="matrix(-1, 0, 0, 1, 747.52, 0)" gradientUnits="userSpaceOnUse"><stop offset="0" stop-color="#2c27ce"/><stop offset="0.65" stop-color="#ef1d68"/><stop offset="1" stop-color="#efba92"/></linearGradient><linearGradient id="Gradient_bez_nazwy_2-6" x1="1741.54" y1="6608.89" x2="1727.43" y2="6644.06" gradientTransform="matrix(-0.61, -0.79, -0.79, 0.61, 6555.14, -2608.36)" xlink:href="#Gradient_bez_nazwy_2"/><linearGradient id="Gradient_bez_nazwy_2-7" x1="1541.6" y1="3886.76" x2="1525.8" y2="3926.14" gradientTransform="matrix(-0.69, 0.73, 0.73, 0.69, -1567.49, -3711.94)" xlink:href="#Gradient_bez_nazwy_2"/><linearGradient id="Gradient_bez_nazwy_2-8" x1="479.2" y1="77.83" x2="484.42" y2="122.61" gradientTransform="matrix(-1, 0, 0, 1, 747.52, 0)" xlink:href="#Gradient_bez_nazwy_2"/><linearGradient id="Gradient_bez_nazwy_10" x1="488.48" y1="108.95" x2="467.82" y2="169.08" gradientTransform="matrix(-1, 0, 0, 1, 747.52, 0)" gradientUnits="userSpaceOnUse"><stop offset="0" stop-color="#36078b"/><stop offset="1" stop-color="#168d68"/></linearGradient><linearGradient id="Gradient_bez_nazwy_5-17" x1="-282.56" y1="-773.04" x2="-303.68" y2="-711.58" gradientTransform="matrix(-0.99, 0.15, 0.15, 0.99, 86.05, 921.42)" xlink:href="#Gradient_bez_nazwy_5"/><linearGradient id="Gradient_bez_nazwy_5-18" x1="485.15" y1="107.81" x2="464.49" y2="167.93" gradientTransform="matrix(-1, 0, 0, 1, 747.52, 0)" xlink:href="#Gradient_bez_nazwy_5"/><linearGradient id="Gradient_bez_nazwy_5-19" x1="514.57" y1="117.91" x2="493.92" y2="178.04" gradientTransform="matrix(-1, 0, 0, 1, 747.52, 0)" xlink:href="#Gradient_bez_nazwy_5"/><linearGradient id="Gradient_bez_nazwy_5-20" x1="500.91" y1="113.22" x2="480.26" y2="173.35" gradientTransform="matrix(-1, 0, 0, 1, 747.52, 0)" xlink:href="#Gradient_bez_nazwy_5"/><linearGradient id="Gradient_bez_nazwy_4-2" x1="494.87" y1="230.86" x2="497.21" y2="202.09" xlink:href="#Gradient_bez_nazwy_4"/><linearGradient id="Gradient_bez_nazwy_4-3" x1="461.86" y1="236.2" x2="464.81" y2="199.94" xlink:href="#Gradient_bez_nazwy_4"/><linearGradient id="Gradient_bez_nazwy_4-4" x1="499.05" y1="75.45" x2="473.14" y2="45.89" xlink:href="#Gradient_bez_nazwy_4"/><linearGradient id="Gradient_bez_nazwy_4-5" x1="504.38" y1="70.78" x2="478.47" y2="41.22" xlink:href="#Gradient_bez_nazwy_4"/><linearGradient id="Gradient_bez_nazwy_2-9" x1="1143.59" y1="1351.47" x2="1128.04" y2="1390.23" gradientTransform="matrix(-0.9, -0.44, -0.44, 0.9, 1902.01, -644.6)" xlink:href="#Gradient_bez_nazwy_2"/><linearGradient id="Gradient_bez_nazwy_2-10" x1="-809.14" y1="-822.22" x2="-816.98" y2="-802.69" gradientTransform="matrix(-0.88, 0.48, 0.48, 0.88, -53.85, 1201.44)" xlink:href="#Gradient_bez_nazwy_2"/></defs><title>slide6</title><g class="cls-2"><g id="Слой_2" data-name="Слой 2"><g id="Designed_by_Freepik" data-name="Designed by Freepik"><path class="cls-3" d="M283.16,199c-46.87,57.25-95,58.72-141.2,40.94s-76.76-8.1-101.91-58.76S57.47,74.36,80.57,58.57s54-25.56,85.92-42.24c47.45-24.81,73-17.76,90.55-2.51,24.76,21.57,14.56,38,36.5,67.21C319.83,116.07,319.82,154.21,283.16,199Z"/><path class="cls-4" d="M31.45,77.69C-2.57,127.3,35,182,80.18,207.47c40.27,22.75,108.07,34.48,142.66,13.73C248.12,206,239.12,183.49,277,155.93c24.63-17.91,38-15.3,45.38-27C340.12,101,291.36,43.2,220.2,27,160.73,13.44,67.7,24.85,31.45,77.69Z"/><path class="cls-5" d="M216.75,85.87c1.92-2.35-2.75-6.06-8.57-4.66a11.94,11.94,0,0,0,1.5,4.73C210.78,87.68,214.06,89.16,216.75,85.87Z"/><path class="cls-6" d="M220.14,85.17c2.65-1.48-.34-6.65-6.27-7.47a11.94,11.94,0,0,0-.33,4.95C213.92,84.67,216.43,87.25,220.14,85.17Z"/><path class="cls-7" d="M222.24,84.9c2.75-.13,2.42-5.52-2-8.59a10.81,10.81,0,0,0-2.28,3.87C217.42,82,218.39,85.08,222.24,84.9Z"/><path class="cls-8" d="M223.12,83.91c2.27,1,4.13-3.5,1.73-7.74a9.71,9.71,0,0,0-3.36,2.23C220.38,79.64,219.95,82.53,223.12,83.91Z"/><path class="cls-9" d="M224.34,70.56c8.38-7-5.52-23.24-27-22.28,0,0-1.09,9.63,2,17.67C202.09,72.81,212.6,80.29,224.34,70.56Z"/><path class="cls-10" d="M200.13,50a19.47,19.47,0,0,1,6.05,3.24,24.52,24.52,0,0,1,2.58,2.21c.4.41.81.79,1.19,1.21l.58.62.55.65A42.31,42.31,0,0,1,215,63.48c.27.5.6,1,.86,1.47l.82,1.5c.5,1,1,2,1.47,3.09a93.52,93.52,0,0,1,4.7,13c.64,2.23,1.25,4.48,1.82,6.75.29,1.13.61,2.27.87,3.41L226,94.4l.45,1.72.17,0a120.63,120.63,0,0,0-2.41-13.89c-.25-1.15-.59-2.28-.88-3.41s-.68-2.25-1-3.38a69.58,69.58,0,0,0-2.55-6.58c-.46-1.08-1-2.12-1.56-3.17s-1.15-2.06-1.79-3a38.32,38.32,0,0,0-4.3-5.6,27.69,27.69,0,0,0-5.4-4.54,17.47,17.47,0,0,0-6.52-2.65Z"/><path class="cls-11" d="M215.22,63.33c-8.28-.46-7.14-16.72,6.41-25.84,0,0,5,5.4,6.75,11.74C229.85,54.63,226.81,64,215.22,63.33Z"/><path class="cls-12" d="M220.63,39.72a54.26,54.26,0,0,0-3.2,14.23l-.19,1.82-.09,1.83-.09,1.83c0,.61,0,1.22,0,1.83s0,1.22,0,1.83,0,1.22.05,1.83l.19,3.66c.11,1.22.27,2.43.4,3.64.07.61.13,1.21.21,1.82l.3,1.81.65,3.6c.27,1.19.56,2.38.85,3.56l.43,1.77c.16.59.34,1.17.53,1.75l1.1,3.48c.18.58.4,1.15.63,1.71l.67,1.7.67,1.69.71,1.67.12,0-1.1-3.45-.55-1.73c-.19-.57-.37-1.15-.51-1.74l-.91-3.5c-.15-.58-.31-1.17-.45-1.75l-.37-1.77L220,79.25l-.56-3.58-.28-1.79-.19-1.8c-.12-1.2-.26-2.4-.36-3.6A101,101,0,0,1,218.44,54a68.5,68.5,0,0,1,2.31-14.26Z"/><path class="cls-13" d="M208.43,56.29c12.44-8.81-5.22-33-35.24-34,0,0-2.55,13.32,1,24.89C177.14,57.06,191,68.62,208.43,56.29Z"/><path class="cls-14" d="M176.8,25a78.44,78.44,0,0,1,8.29,7.14c2.63,2.51,5.11,5.16,7.49,7.88s4.65,5.55,6.75,8.48,4.18,5.89,6.07,9,3.72,6.2,5.38,9.42c.44.79.84,1.6,1.24,2.41s.82,1.61,1.21,2.43l1.15,2.47c.4.81.77,1.64,1.13,2.48l1.1,2.49c.34.84.67,1.69,1,2.52.73,1.67,1.34,3.39,2,5.09.35.84.66,1.7,1,2.56l.94,2.58c.32.86.57,1.74.87,2.61l.92,2.6.2,0a145.92,145.92,0,0,0-6.56-21,127.17,127.17,0,0,0-9.86-19.68,114.57,114.57,0,0,0-13.37-17.48,98.4,98.4,0,0,0-8-7.61c-1.4-1.19-2.83-2.34-4.31-3.43a51,51,0,0,0-4.58-3.07Z"/><path class="cls-15" d="M204.71,71.48c6.44-8.91-11.27-21.33-32-15,0,0,1.37,9.69,6.46,16.77C183.52,79.3,195.69,84,204.71,71.48Z"/><path class="cls-16" d="M175.82,57.48a45.33,45.33,0,0,1,7.37,2.79l1.78.83,1.73.92c.57.32,1.17.58,1.72.94l1.68,1c1.13.64,2.19,1.41,3.28,2.12.54.37,1.1.69,1.61,1.1l1.56,1.18c.52.4,1,.78,1.57,1.16s1,.83,1.5,1.25L201.11,72c.49.42,1,.82,1.47,1.29L205.43,76c.24.22.48.44.71.67l.67.72c.45.48.89,1,1.34,1.42l1.36,1.41c.22.24.46.47.67.71l.63.75c.83,1,1.69,2,2.55,3s1.64,2,2.45,3.08l2.42,3.12c1.57,2.11,3,4.33,4.62,6.46l.13-.07c-1.37-2.27-2.7-4.56-4.11-6.81l-2.26-3.27c-.76-1.09-1.48-2.2-2.34-3.21l-2.48-3.11-.62-.78c-.21-.25-.45-.49-.67-.74l-1.34-1.47-1.34-1.47-.67-.73c-.23-.24-.48-.46-.71-.69l-2.88-2.75A74.12,74.12,0,0,0,190.65,63c-1.17-.63-2.32-1.29-3.53-1.82l-1.8-.84-1.85-.74a39.41,39.41,0,0,0-7.63-2.22Z"/><path class="cls-17" d="M193.84,46.87A13.43,13.43,0,0,0,190,46.2c-.64-.05-1.27,0-1.91,0s-1.27.11-1.9.18-1.26.21-1.88.36a18.29,18.29,0,0,0-1.84.55,11.25,11.25,0,0,0-3.42,1.88l0,.13a38.41,38.41,0,0,1,7.29-1.59,72.18,72.18,0,0,1,7.44-.7Z"/><path class="cls-18" d="M189.07,39.84A10,10,0,0,0,186,38.71a15,15,0,0,0-3.17-.33,14.24,14.24,0,0,0-3.19.38,8.53,8.53,0,0,0-3,1.31l0,.13c1-.18,2.05-.29,3.08-.38s2.07-.1,3.11-.1,2.07,0,3.11.06,2.07.11,3.11.2Z"/><path class="cls-19" d="M200.79,42.73a11.36,11.36,0,0,0,.35-2.13c0-.66.06-1.29.08-1.9s0-1.19,0-1.77a8.61,8.61,0,0,1,.31-1.95l-.08-.09a3.84,3.84,0,0,0-1.17,1.73,6.62,6.62,0,0,0-.34,2.06,11.35,11.35,0,0,0,.18,2.08,12,12,0,0,0,.51,2Z"/><path class="cls-20" d="M193.44,35.77a7.8,7.8,0,0,0-.12-1.66c-.09-.51-.18-1-.29-1.45s-.24-.9-.32-1.34a5.88,5.88,0,0,1-.13-1.5l-.07-.06a2.74,2.74,0,0,0-.53,1.51,5.26,5.26,0,0,0,.15,1.6,10.66,10.66,0,0,0,1.24,2.94Z"/><path class="cls-21" d="M217,101.2l11.9-3.92a1.23,1.23,0,0,0,.82-1.41L226.8,81.53a1.23,1.23,0,0,0-1.59-.92l-15.18,5a1.23,1.23,0,0,0-.73,1.69l6.19,13.25A1.23,1.23,0,0,0,217,101.2Z"/><path class="cls-22" d="M209.39,88.85l18.26-6a.81.81,0,0,0,.55-.9l-.41-2.46a.81.81,0,0,0-1.05-.64l-19,6.25a.81.81,0,0,0-.47,1.14l1.13,2.23A.81.81,0,0,0,209.39,88.85Z"/></g><g id="Objects"><path class="cls-23" d="M73.08,204.88a14.42,14.42,0,0,1,.34,2.48c.16,1,1.11,1.36,1.66,2.17s1.56,2.35-2.16,2.42c-4,.08-6.34-.19-5.66-2.36a11,11,0,0,0,.76-3.83,2.34,2.34,0,0,1,.45-1.87C68.93,203.47,72.5,202.71,73.08,204.88Z"/><path class="cls-24" d="M126.66,56c.17,2.23,0,3.74-2.59,8.29-3.55,6.15-5.93,9.36-8.28,11.91-2.17,2.35-7-3.55-4.87-7.28,1.84-3.15,12-11.75,13.09-13.67C124.75,54,126.52,54.19,126.66,56Z"/><path class="cls-25" d="M114.48,76.69c-1.71.34-5.65.5-15-1.58a61.14,61.14,0,0,1-9.72-2.85c-3-1.12-3.45-4.4-2.33-5.66,1.81-2,5.63-3.54,7.24-3.05,9.09,2.77,15.91,5.46,18.23,5.74C116.31,69.71,116.52,76.29,114.48,76.69Z"/><path class="cls-26" d="M90.49,52.06c1.63.76,2.34.77,2.92-1.25.46-1.57,1.23-7.09-1.29-7.46s-4.49-.44-4.2,3S88.56,51.15,90.49,52.06Z"/><path class="cls-27" d="M81,55c0,.25-.59,5.54-.68,9.6a4.19,4.19,0,0,0,3.93,3.93h.09c2,0,4.25-1.77,4.07-3.72a52.5,52.5,0,0,1-.07-7.21Z"/><path class="cls-28" d="M71.12,77c3.63,11.92,5.25,26.38,4.54,34.7H103s-.16-25.57-2-39.57a10.48,10.48,0,0,0-5.76-8,19.6,19.6,0,0,0-7.28-1.61h-5a30.51,30.51,0,0,0-5.33.66C70.34,64.56,69,70.14,71.12,77Z"/><path class="cls-29" d="M75.78,128.44s-2.36-5.73-.11-16.7H103a155.16,155.16,0,0,1,1,16.7Z"/><path class="cls-30" d="M81.16,164.18c2.19-8.89-6.89-10.45-9.76-4-4.05,9.09-3.73,38.16-3.51,44,0,.76.44.62.88.46a6.78,6.78,0,0,1,2.89-.52,2.49,2.49,0,0,1,1.52,1.19C74,197.35,79,172.78,81.16,164.18Z"/><path class="cls-31" d="M89.33,129.64c1-11-3.41-19.61-10.26-16-2.88,1.53-3.94,4.6-4.33,7.49s-2.51,32.93-3.25,38.36c-1.68,12.24,8,8.94,9,5.55C83.17,156.51,88.8,135.66,89.33,129.64Z"/><path class="cls-32" d="M105.46,163.6c.36-8.29-7.71-8.11-9.74-1.37-3.19,10.61,2.33,33.38,2.67,46.39,1.41-2.25,2.73-2.79,3.36-2.75a2.25,2.25,0,0,1,1.57.85C103.11,189.6,105.08,172.46,105.46,163.6Z"/><path class="cls-33" d="M96,164.5c1.07,3.38,10.31,7.3,9.34-5C105,154,103.82,123.86,103.6,121s-.72-7.16-2.18-7.69c-7.29-2.65-14.36,6-12.44,16.94C90.26,137.5,93.82,157.49,96,164.5Z"/><path class="cls-34" d="M75.44,105.53c-2.15-.61-3.27-2.15-6.9-6C63.31,94.1,62.42,92.47,60.43,88c-1.3-2.93,5.62-5,8.36-1.7,2.32,2.82,6.86,15.31,8.28,17C78,104.44,77.19,106,75.44,105.53Z"/><path class="cls-35" d="M60.27,86.93c.28-1.73,1.49-5.47,6.68-13.5a61.14,61.14,0,0,1,6-8.13c2.09-2.43,5.33-1.71,6.11-.22,1.27,2.4,1.37,6.51.35,7.85C73.7,80.49,68.81,86,67.74,88,66.18,91.07,59.94,89,60.27,86.93Z"/><path class="cls-36" d="M78.3,51.19c.45,4.52.58,5.52,2.56,7.37a10.65,10.65,0,0,0,6.94,2.7c2.31,0,4-2.44,4.55-4.35a32.87,32.87,0,0,0,.52-11.57c-.33-2.51-3.42-5.55-6.62-5.55S77.19,40.15,78.3,51.19Z"/><path class="cls-36" d="M74.62,102.68c1-1.15,2.68-2.93,3.49-4s3.2.73,3.25,1.61c.08,1.31-1.24,4.88-2.92,4.87s-2.15,1.53-3.58,1.05S72.91,104.56,74.62,102.68Z"/><path class="cls-37" d="M103.66,206.69a9.26,9.26,0,0,0,3.87,2.82c2.07.89,6.44,1.31,4,2.09a15.1,15.1,0,0,1-6.7.09,30.36,30.36,0,0,0-4.52-.26c-2.23,0-2.25-.15-2-2.57C98.77,205.5,102.65,204.8,103.66,206.69Z"/><path class="cls-26" d="M78.3,50.49c1.22,1.22,1.86,1.46,3.05-.18.92-1.27,3.43-6,1.27-7.17s-3.92-1.87-4.77,1.3S76.85,49,78.3,50.49Z"/><ellipse class="cls-36" cx="78.16" cy="51.85" rx="1.6" ry="3.06" transform="translate(-13.8 33.41) rotate(-22.22)"/><path class="cls-26" d="M79.69,42.29c1.76,2.63,10.26,2.87,13,1.9s2.58-6.33-1.39-6.7c-2.23,0-.62.53-2.43,1.27C88,39.13,77.81,39.48,79.69,42.29Z"/><path class="cls-36" d="M123.41,54.69c-.06-.67-.43-4.62.3-4.74,1.12-.19,1.49,2.39,1.74,4.09.14.92-.3,2.26-1.06,2.28S123.52,55.75,123.41,54.69Z"/><g class="cls-38"><path class="cls-39" d="M42.79,28.28c14.24-2.39,34.48,7.14,38.57,22,4.18,15.2-7.25,22.47,2.12,43.52,7.41,16.65-1.1,34.91-3.11,49.32-2.2,15.82,5.71,23.48,3.1,37.59-6,32.47-5.63,42-27.95,48.93C32.61,236.74,27.9,204.77,13,179.51,2,160.85-4.22,141.56,3.29,127.86c10.79-19.67,26.56.28,21-23.45C21,90.21,21.55,65.66,42.08,69.35S22.28,31.72,42.79,28.28Z"/></g><path class="cls-40" d="M242.76,68.57V206.11a5.92,5.92,0,0,1-5.92,5.92H133.31a5.92,5.92,0,0,1-5.92-5.92V68.57a5.92,5.92,0,0,1,5.92-5.92H236.84a5.92,5.92,0,0,1,5.92,5.92Z"/><path class="cls-41" d="M204.71,70.83H158.28a1.22,1.22,0,0,1-1.22-1.22h0a1.22,1.22,0,0,1,1.22-1.22h46.43a1.22,1.22,0,0,1,1.22,1.22h0A1.22,1.22,0,0,1,204.71,70.83Z"/><path class="cls-42" d="M213.07,69.41a1.22,1.22,0,1,1-1-1A1.22,1.22,0,0,1,213.07,69.41Z"/><rect class="cls-43" x="136.11" y="76.81" width="98.1" height="127.33" rx="2.36" ry="2.36"/><path class="cls-44" d="M234.21,79.17V89.24h-98.1V79.17a2.36,2.36,0,0,1,2.36-2.36h93.37A2.36,2.36,0,0,1,234.21,79.17Z"/><path class="cls-43" d="M227.09,82H156.77A1.64,1.64,0,0,0,155,83.35a1.56,1.56,0,0,0,1.72,1.43h70.37a1.58,1.58,0,0,0,1.72-1.37h0A1.58,1.58,0,0,0,227.09,82Z"/><path class="cls-45" d="M144.25,83.42v1a.38.38,0,0,1-.57.33l-.88-.51-.88-.51a.38.38,0,0,1,0-.66l.88-.51.88-.51a.38.38,0,0,1,.57.33Z"/><path class="cls-45" d="M148.82,83.42v1a.38.38,0,0,0,.57.33l.88-.51.88-.51a.38.38,0,0,0,0-.66l-.88-.51-.88-.51a.38.38,0,0,0-.57.33Z"/><path class="cls-44" d="M165.8,101H143.61a1.07,1.07,0,0,1-1-1.13h0a1.07,1.07,0,0,1,1-1.13H165.8a1.07,1.07,0,0,1,1,1.13h0A1.07,1.07,0,0,1,165.8,101Z"/><path class="cls-44" d="M165.8,106.62H143.61a1.07,1.07,0,0,1-1-1.13h0a1.07,1.07,0,0,1,1-1.13H165.8a1.07,1.07,0,0,1,1,1.13h0A1.07,1.07,0,0,1,165.8,106.62Z"/><path class="cls-44" d="M165.8,112.28H143.61a1.07,1.07,0,0,1-1-1.13h0a1.07,1.07,0,0,1,1-1.13H165.8a1.07,1.07,0,0,1,1,1.13h0A1.07,1.07,0,0,1,165.8,112.28Z"/><path class="cls-44" d="M165.8,117.94H143.61a1.07,1.07,0,0,1-1-1.13h0a1.07,1.07,0,0,1,1-1.13H165.8a1.07,1.07,0,0,1,1,1.13h0A1.07,1.07,0,0,1,165.8,117.94Z"/><path class="cls-44" d="M165.8,128.31H143.61a1.07,1.07,0,0,1-1-1.13h0a1.07,1.07,0,0,1,1-1.13H165.8a1.07,1.07,0,0,1,1,1.13h0A1.07,1.07,0,0,1,165.8,128.31Z"/><path class="cls-44" d="M165.8,134H143.61a1.07,1.07,0,0,1-1-1.13h0a1.07,1.07,0,0,1,1-1.13H165.8a1.07,1.07,0,0,1,1,1.13h0A1.07,1.07,0,0,1,165.8,134Z"/><path class="cls-44" d="M165.8,139.63H143.61a1.07,1.07,0,0,1-1-1.13h0a1.07,1.07,0,0,1,1-1.13H165.8a1.07,1.07,0,0,1,1,1.13h0A1.07,1.07,0,0,1,165.8,139.63Z"/><path class="cls-44" d="M165.8,145.29H143.61a1.07,1.07,0,0,1-1-1.13h0a1.07,1.07,0,0,1,1-1.13H165.8a1.07,1.07,0,0,1,1,1.13h0A1.07,1.07,0,0,1,165.8,145.29Z"/><path class="cls-44" d="M165.8,155.68H143.61a1.07,1.07,0,0,1-1-1.13h0a1.07,1.07,0,0,1,1-1.13H165.8a1.07,1.07,0,0,1,1,1.13h0A1.07,1.07,0,0,1,165.8,155.68Z"/><path class="cls-44" d="M165.8,161.34H143.61a1.07,1.07,0,0,1-1-1.13h0a1.07,1.07,0,0,1,1-1.13H165.8a1.07,1.07,0,0,1,1,1.13h0A1.07,1.07,0,0,1,165.8,161.34Z"/><path class="cls-44" d="M165.8,167H143.61a1.07,1.07,0,0,1-1-1.13h0a1.07,1.07,0,0,1,1-1.13H165.8a1.07,1.07,0,0,1,1,1.13h0A1.07,1.07,0,0,1,165.8,167Z"/><path class="cls-44" d="M165.8,172.67H143.61a1.07,1.07,0,0,1-1-1.13h0a1.07,1.07,0,0,1,1-1.13H165.8a1.07,1.07,0,0,1,1,1.13h0A1.07,1.07,0,0,1,165.8,172.67Z"/><rect class="cls-46" x="175.73" y="155.5" width="53.84" height="19.26" rx="6.38" ry="6.38"/><rect class="cls-47" x="174.09" y="153.43" width="53.84" height="19.26" rx="6.38" ry="6.38"/><path class="cls-48" d="M192.28,162.93A8.1,8.1,0,0,1,178.82,169a8.15,8.15,0,0,1-.88-.91,8.1,8.1,0,1,1,14.34-5.16Z"/><circle class="cls-49" cx="184.18" cy="160.94" r="3.1"/><path class="cls-49" d="M189.54,169a8.1,8.1,0,0,1-10.72,0,4.75,4.75,0,0,1,2-2.82,5.93,5.93,0,0,1,6.74,0A4.75,4.75,0,0,1,189.54,169Z"/><path class="cls-50" d="M195.66,161.24v-.05l.48-1.49a.06.06,0,0,0,0-.08l-1.43-1.07,0,0h.1l1.73,0a0,0,0,0,0,.06,0l.52-1.61v0l0,0,.6,1.64a.06.06,0,0,0,.07,0h1.68l0,0-1.4.95a.05.05,0,0,0,0,.07l.57,1.64v.05l-.06,0-1.37-1a.05.05,0,0,0-.07,0l-1.36.95Z"/><path class="cls-50" d="M201.81,161.24v-.05l.48-1.49a.06.06,0,0,0,0-.08l-1.43-1.07,0,0h.1l1.73,0a0,0,0,0,0,.06,0l.52-1.61v0l0,0,.6,1.64a.06.06,0,0,0,.07,0h1.68l0,0-1.4.95a.05.05,0,0,0,0,.07l.57,1.64v.05l-.06,0-1.37-1a.05.05,0,0,0-.07,0l-1.36.95Z"/><path class="cls-50" d="M208,161.24v-.05l.48-1.49a.06.06,0,0,0,0-.08L207,158.55l0,0h.1l1.73,0a0,0,0,0,0,.06,0l.52-1.61v0l0,0,.6,1.64a.06.06,0,0,0,.07,0h1.68l0,0-1.4.95a.05.05,0,0,0,0,.07l.57,1.64v.05l-.06,0-1.37-1a.05.05,0,0,0-.07,0l-1.36.95Z"/><path class="cls-50" d="M214.11,161.24v-.05l.48-1.49a.06.06,0,0,0,0-.08l-1.43-1.07,0,0h.1l1.73,0a0,0,0,0,0,.06,0l.52-1.61v0l0,0,.6,1.64a.06.06,0,0,0,.07,0h1.68l0,0-1.4.95a.05.05,0,0,0,0,.07l.57,1.64v.05l-.06,0-1.37-1a.05.05,0,0,0-.07,0l-1.36.95Z"/><path class="cls-50" d="M220.26,161.24v-.05l.48-1.49a.06.06,0,0,0,0-.08l-1.43-1.07,0,0h.1l1.73,0a0,0,0,0,0,.06,0l.52-1.61v0l0,0,.6,1.64a.06.06,0,0,0,.07,0h1.68l0,0-1.4.95a.05.05,0,0,0,0,.07l.57,1.64v.05l-.06,0-1.37-1a.05.05,0,0,0-.07,0l-1.36.95Z"/><rect class="cls-48" x="194.66" y="163.27" width="29.37" height="1.29" rx="0.65" ry="0.65"/><path class="cls-48" d="M223.38,166H195.3a.65.65,0,0,0-.65.65h0a.65.65,0,0,0,.65.65h28.08a.65.65,0,0,0,.65-.65h0A.65.65,0,0,0,223.38,166Z"/><rect class="cls-46" x="175.73" y="100.75" width="53.84" height="19.26" rx="6.38" ry="6.38"/><rect class="cls-51" x="174.09" y="98.68" width="53.84" height="19.26" rx="6.38" ry="6.38"/><path class="cls-52" d="M192.28,108.18a8.1,8.1,0,0,1-13.46,6.07,8.15,8.15,0,0,1-.88-.91,8.1,8.1,0,1,1,14.34-5.16Z"/><circle class="cls-53" cx="184.18" cy="106.2" r="3.1"/><path class="cls-53" d="M189.54,114.25a8.1,8.1,0,0,1-10.72,0,4.75,4.75,0,0,1,2-2.82,5.93,5.93,0,0,1,6.74,0A4.75,4.75,0,0,1,189.54,114.25Z"/><path class="cls-50" d="M195.66,106.49v-.05l.48-1.49a.06.06,0,0,0,0-.08l-1.43-1.07,0,0h.1l1.73,0a0,0,0,0,0,.06,0l.52-1.61v0l0,0,.6,1.64a.06.06,0,0,0,.07,0h1.68l0,0-1.4.95a.05.05,0,0,0,0,.07l.57,1.64v.05l-.06,0-1.37-1a.05.05,0,0,0-.07,0l-1.36.95Z"/><path class="cls-50" d="M201.81,106.49v-.05l.48-1.49a.06.06,0,0,0,0-.08l-1.43-1.07,0,0h.1l1.73,0a0,0,0,0,0,.06,0l.52-1.61v0l0,0,.6,1.64a.06.06,0,0,0,.07,0h1.68l0,0-1.4.95a.05.05,0,0,0,0,.07l.57,1.64v.05l-.06,0-1.37-1a.05.05,0,0,0-.07,0l-1.36.95Z"/><path class="cls-50" d="M208,106.49v-.05l.48-1.49a.06.06,0,0,0,0-.08L207,103.8l0,0h.1l1.73,0a0,0,0,0,0,.06,0l.52-1.61v0l0,0,.6,1.64a.06.06,0,0,0,.07,0h1.68l0,0-1.4.95a.05.05,0,0,0,0,.07l.57,1.64v.05l-.06,0-1.37-1a.05.05,0,0,0-.07,0l-1.36.95Z"/><path class="cls-50" d="M214.11,106.49v-.05l.48-1.49a.06.06,0,0,0,0-.08l-1.43-1.07,0,0h.1l1.73,0a0,0,0,0,0,.06,0l.52-1.61v0l0,0,.6,1.64a.06.06,0,0,0,.07,0h1.68l0,0-1.4.95a.05.05,0,0,0,0,.07l.57,1.64v.05l-.06,0-1.37-1a.05.05,0,0,0-.07,0l-1.36.95Z"/><path class="cls-50" d="M220.26,106.49v-.05l.48-1.49a.06.06,0,0,0,0-.08l-1.43-1.07,0,0h.1l1.73,0a0,0,0,0,0,.06,0l.52-1.61v0l0,0,.6,1.64a.06.06,0,0,0,.07,0h1.68l0,0-1.4.95a.05.05,0,0,0,0,.07l.57,1.64v.05l-.06,0-1.37-1a.05.05,0,0,0-.07,0l-1.36.95Z"/><rect class="cls-52" x="194.66" y="108.52" width="29.37" height="1.29" rx="0.65" ry="0.65"/><path class="cls-52" d="M223.38,111.29H195.3a.65.65,0,0,0-.65.65h0a.65.65,0,0,0,.65.65h28.08a.65.65,0,0,0,.65-.65h0A.65.65,0,0,0,223.38,111.29Z"/><rect class="cls-46" x="175.73" y="128.12" width="53.84" height="19.26" rx="6.38" ry="6.38"/><rect class="cls-54" x="174.09" y="126.06" width="53.84" height="19.26" rx="6.38" ry="6.38"/><path class="cls-52" d="M192.28,135.56a8.1,8.1,0,0,1-13.46,6.07,8.15,8.15,0,0,1-.88-.91,8.1,8.1,0,1,1,14.34-5.16Z"/><circle class="cls-53" cx="184.18" cy="133.57" r="3.1"/><path class="cls-53" d="M189.54,141.63a8.1,8.1,0,0,1-10.72,0,4.75,4.75,0,0,1,2-2.82,5.93,5.93,0,0,1,6.74,0A4.75,4.75,0,0,1,189.54,141.63Z"/><path class="cls-50" d="M195.66,133.86v-.05l.48-1.49a.06.06,0,0,0,0-.08l-1.43-1.07,0,0h.1l1.73,0a0,0,0,0,0,.06,0l.52-1.61v0l0,0,.6,1.64a.06.06,0,0,0,.07,0h1.68l0,0-1.4.95a.05.05,0,0,0,0,.07l.57,1.64v.05l-.06,0-1.37-1a.05.05,0,0,0-.07,0l-1.36.95Z"/><path class="cls-50" d="M201.81,133.86v-.05l.48-1.49a.06.06,0,0,0,0-.08l-1.43-1.07,0,0h.1l1.73,0a0,0,0,0,0,.06,0l.52-1.61v0l0,0,.6,1.64a.06.06,0,0,0,.07,0h1.68l0,0-1.4.95a.05.05,0,0,0,0,.07l.57,1.64v.05l-.06,0-1.37-1a.05.05,0,0,0-.07,0l-1.36.95Z"/><path class="cls-50" d="M208,133.86v-.05l.48-1.49a.06.06,0,0,0,0-.08L207,131.18l0,0h.1l1.73,0a0,0,0,0,0,.06,0l.52-1.61v0l0,0,.6,1.64a.06.06,0,0,0,.07,0h1.68l0,0-1.4.95a.05.05,0,0,0,0,.07l.57,1.64v.05l-.06,0-1.37-1a.05.05,0,0,0-.07,0l-1.36.95Z"/><path class="cls-50" d="M214.11,133.86v-.05l.48-1.49a.06.06,0,0,0,0-.08l-1.43-1.07,0,0h.1l1.73,0a0,0,0,0,0,.06,0l.52-1.61v0l0,0,.6,1.64a.06.06,0,0,0,.07,0h1.68l0,0-1.4.95a.05.05,0,0,0,0,.07l.57,1.64v.05l-.06,0-1.37-1a.05.05,0,0,0-.07,0l-1.36.95Z"/><path class="cls-50" d="M220.26,133.86v-.05l.48-1.49a.06.06,0,0,0,0-.08l-1.43-1.07,0,0h.1l1.73,0a0,0,0,0,0,.06,0l.52-1.61v0l0,0,.6,1.64a.06.06,0,0,0,.07,0h1.68l0,0-1.4.95a.05.05,0,0,0,0,.07l.57,1.64v.05l-.06,0-1.37-1a.05.05,0,0,0-.07,0l-1.36.95Z"/><rect class="cls-52" x="194.66" y="135.9" width="29.37" height="1.29" rx="0.65" ry="0.65"/><path class="cls-52" d="M223.38,138.67H195.3a.65.65,0,0,0-.65.65h0a.65.65,0,0,0,.65.65h28.08a.65.65,0,0,0,.65-.65h0A.65.65,0,0,0,223.38,138.67Z"/><path class="cls-44" d="M147.76,196.93c0-.09,0-.15.05-.2q1-3,1.94-6a.23.23,0,0,0-.1-.31l-5.78-4.29a.42.42,0,0,1-.13-.15h.42l7-.07a.2.2,0,0,0,.22-.17q1-3.24,2.08-6.47l.05-.16.08.18q1.21,3.3,2.41,6.61a.25.25,0,0,0,.28.19l6.5,0a.93.93,0,0,1,.27,0l-.14.1L157.27,190a.21.21,0,0,0-.1.3q1.15,3.3,2.28,6.6c0,.05,0,.11.06.2l-.25-.17L153.72,193a.2.2,0,0,0-.28,0L148,196.81Z"/><path class="cls-44" d="M169.72,196.93c0-.09,0-.15.05-.2q1-3,1.94-6a.23.23,0,0,0-.1-.31l-5.78-4.29a.42.42,0,0,1-.13-.15h.42l7-.07a.2.2,0,0,0,.22-.17q1-3.24,2.08-6.47l.05-.16.08.18q1.21,3.3,2.41,6.61a.25.25,0,0,0,.28.19l6.5,0a.93.93,0,0,1,.27,0l-.14.1L179.23,190a.21.21,0,0,0-.1.3q1.15,3.3,2.28,6.6c0,.05,0,.11.06.2l-.25-.17L175.68,193a.2.2,0,0,0-.28,0l-5.49,3.82Z"/><path class="cls-44" d="M191.67,196.93c0-.09,0-.15.05-.2q1-3,1.94-6a.23.23,0,0,0-.1-.31l-5.78-4.29a.42.42,0,0,1-.13-.15h.42l7-.07a.2.2,0,0,0,.22-.17q1-3.24,2.08-6.47l.05-.16.08.18q1.21,3.3,2.41,6.61a.25.25,0,0,0,.28.19l6.5,0a.93.93,0,0,1,.27,0l-.14.1L201.18,190a.21.21,0,0,0-.1.3q1.15,3.3,2.28,6.6c0,.05,0,.11.06.2l-.25-.17L197.63,193a.2.2,0,0,0-.28,0l-5.49,3.82Z"/><path class="cls-44" d="M213.63,196.93c0-.09,0-.15.05-.2q1-3,1.94-6a.23.23,0,0,0-.1-.31l-5.78-4.29a.42.42,0,0,1-.13-.15H210l7-.07a.2.2,0,0,0,.22-.17q1-3.24,2.08-6.47l.05-.16.08.18q1.21,3.3,2.41,6.61a.25.25,0,0,0,.28.19l6.5,0a.93.93,0,0,1,.27,0l-.14.1L223.14,190a.21.21,0,0,0-.1.3q1.15,3.3,2.28,6.6c0,.05,0,.11.06.2l-.25-.17L219.59,193a.2.2,0,0,0-.28,0l-5.49,3.82Z"/><rect class="cls-55" x="69.13" y="65.78" width="72.2" height="25.83" rx="6.38" ry="6.38" transform="translate(-19.57 119.79) rotate(-55.01)"/><path class="cls-48" d="M98.38,88.19a10.86,10.86,0,0,1-3.68,19.45,10.93,10.93,0,0,1-1.68.27,10.86,10.86,0,1,1,5.36-19.72Z"/><circle class="cls-49" cx="89.98" cy="95.56" r="4.16" transform="translate(-39.9 114.48) rotate(-55.01)"/><path class="cls-49" d="M102.95,95.86a10.86,10.86,0,0,1-8.24,11.78,6.37,6.37,0,0,1-1.57-4.36,8,8,0,0,1,5.18-7.41A6.37,6.37,0,0,1,102.95,95.86Z"/><path class="cls-50" d="M99.12,83.17l0-.05L97.8,81.44a.08.08,0,0,0-.1,0l-2.28.76h-.07l.08-.11,1.31-1.92a.07.07,0,0,0,0-.09l-1.37-1.8,0,0h.06l2.26.6a.08.08,0,0,0,.11,0L99,77l.06-.07s0,0,0,.06q0,1.13,0,2.27a.07.07,0,0,0,.06.09l2.24.64.07,0-.1,0-2.13.76a.07.07,0,0,0-.05.08q0,1.11,0,2.23S99.12,83.14,99.12,83.17Z"/><path class="cls-50" d="M103.85,76.42l0-.05-1.27-1.68a.08.08,0,0,0-.1,0l-2.28.76h-.07l.08-.11,1.31-1.92a.07.07,0,0,0,0-.09l-1.37-1.8,0,0h.06l2.26.6a.08.08,0,0,0,.11,0l1.23-1.78.06-.07s0,0,0,.06q0,1.13,0,2.27a.07.07,0,0,0,.06.09l2.24.64.07,0-.1,0-2.13.76a.07.07,0,0,0-.05.08q0,1.11,0,2.23S103.85,76.38,103.85,76.42Z"/><path class="cls-50" d="M108.58,69.66l0-.05-1.27-1.68a.08.08,0,0,0-.1,0l-2.28.76h-.07l.08-.11,1.31-1.92a.07.07,0,0,0,0-.09l-1.37-1.8,0,0h.06l2.26.6a.08.08,0,0,0,.11,0l1.23-1.78.06-.07s0,0,0,.06q0,1.13,0,2.27a.07.07,0,0,0,.06.09l2.24.64.07,0-.1,0-2.13.76a.07.07,0,0,0-.05.08q0,1.11,0,2.23S108.58,69.63,108.58,69.66Z"/><path class="cls-50" d="M113.31,62.9l0-.05L112,61.17a.08.08,0,0,0-.1,0l-2.28.76h-.07l.08-.11,1.31-1.92a.07.07,0,0,0,0-.09L109.57,58l0,0h.06l2.26.6a.08.08,0,0,0,.11,0l1.23-1.78.06-.07s0,0,0,.06q0,1.13,0,2.27a.07.07,0,0,0,.06.09l2.24.64.07,0-.1,0-2.13.76a.07.07,0,0,0-.05.08q0,1.11,0,2.23S113.31,62.87,113.31,62.9Z"/><path class="cls-50" d="M118,56.14l0-.05-1.27-1.68a.08.08,0,0,0-.1,0l-2.28.76h-.07l.08-.11,1.31-1.92a.07.07,0,0,0,0-.09l-1.37-1.8,0,0h.06l2.26.6a.08.08,0,0,0,.11,0L117.93,50l.06-.07s0,0,0,.06q0,1.13,0,2.27a.07.07,0,0,0,.06.09l2.24.64.07,0-.1,0-2.13.76a.07.07,0,0,0-.05.08q0,1.11,0,2.23S118,56.11,118,56.14Z"/><path class="cls-48" d="M122.67,54.27,101.08,85.13a.87.87,0,0,0,.21,1.21h0a.87.87,0,0,0,1.21-.21l21.59-30.85a.87.87,0,0,0-.21-1.21h0A.87.87,0,0,0,122.67,54.27Z"/><path class="cls-48" d="M125.71,56.4,104.12,87.25a.87.87,0,0,0,.21,1.21h0a.87.87,0,0,0,1.21-.21L127.13,57.4a.87.87,0,0,0-.21-1.21h0A.87.87,0,0,0,125.71,56.4Z"/><path class="cls-36" d="M74.62,102.68c1-1.15,2.68-2.93,3.49-4s3.2.73,3.25,1.61c.08,1.31-1.24,4.88-2.92,4.87s-2.15,1.53-3.58,1.05S72.91,104.56,74.62,102.68Z"/><path class="cls-36" d="M131.47,51.84c-.83,1.35-1,4.88-2.82,2.91-2.07-2.18-3.72-2.68-2.88-4.18,1.53-2.74,2.1-2.4,4-1.91C131,49,132.26,50.56,131.47,51.84Z"/><path class="cls-56" d="M271.28,45.17c-1.64-2.31.24-6.39,4.9-6.77,5.32-.44,14.75,2.63,9.69,15-5.27,12.89-3.62,16.19-.07,18.12,0,0-12.17,1-11.24-9.66S275.08,50.54,271.28,45.17Z"/><path class="cls-57" d="M246.14,79.9c2.18-.94,8-4.84,15.89-9.74a10.73,10.73,0,0,1,7.56-.6c1.61.54,2.46,3-.06,4.81A68.47,68.47,0,0,1,261,79.52c-8.4,4.48-12.35,5.62-14.18,5.93C244.7,85.82,243,81.28,246.14,79.9Z"/><path class="cls-58" d="M228.49,91c1.77-.73,13-8.79,15.95-10,3.45-1.44,4.84,2.92,2.28,4.61a38.87,38.87,0,0,1-11.37,5.54c-4.13,1.43-4.71,3-6,2.58C228.26,93.43,227.32,91.51,228.49,91Z"/><path class="cls-59" d="M273.09,60.63c0,.26.45,5.9.52,10.22,0,2.12-1.49,4.13-3,4.18h-.07c-1.5,0-3.26-1.88-3.13-4,.24-3.76.06-7.62.05-7.68Z"/><path class="cls-60" d="M277.47,85a73.62,73.62,0,0,0-2.7,11.83,30,30,0,0,0,0,8.91c.24,1.78.59,3.54,1,5.29.15.66,1.45,6,1.51,6.58H252.92c.23-4.78,5.68-19.79,2-29.51-2.55-6.73.84-6.94,3.14-12.54A16.47,16.47,0,0,1,260,71.48a7,7,0,0,1,3.73-2.29,13.9,13.9,0,0,1,2.27-.32c4.13-.33,13.85-1.53,14.76,4.34a10.4,10.4,0,0,1-.48,4.75c-.55,1.71-1.36,3.33-2,5Q277.82,84,277.47,85Z"/><path class="cls-61" d="M277.21,133.08s2.11-5.31.1-15.48H252.92a149.21,149.21,0,0,0-.89,15.48Z"/><path class="cls-62" d="M272.88,167.29c-3.2-7.84,4.59-10.52,8-5,4.88,7.77,7,36.5,7.63,41.85.08.7-.3.63-.71.55-1.2-.23-.7-1.36-2.41-1.25-.91.05-1.17,1.3-1.17,1.3C282.37,197.58,276,174.88,272.88,167.29Z"/><path class="cls-63" d="M265.11,134.19c-.86-10.24,3.05-18.19,9.17-14.81,2.57,1.42,3.52,4.27,3.86,6.95s2.24,30.53,2.91,35.56c1.5,11.34-7.14,8.29-8.07,5.14C270.61,159.1,265.57,139.77,265.11,134.19Z"/><path class="cls-64" d="M250.69,165.67c-.32-7.68,6.89-7.52,8.7-1.27,2.85,9.84-2.08,31-2.38,43-1.26-2.08-2.44-2.59-3-2.55a2,2,0,0,0-1.4.79C252.79,189.77,251,173.89,250.69,165.67Z"/><path class="cls-65" d="M259.1,166.51c-1,3.14-9.21,6.77-8.35-4.65.38-5.06,1.4-33,1.6-35.72s.65-6.63,1.95-7.13c6.51-2.46,12.83,5.58,11.12,15.7C264.28,141.48,261.09,160,259.1,166.51Z"/><path class="cls-36" d="M276,56.55c-.48,4.81-.62,5.88-2.72,7.85a11.35,11.35,0,0,1-7.39,2.87c-2.46,0-4.29-2.6-4.85-4.64a35,35,0,0,1-.56-12.32c.35-2.67,3.65-5.91,7-5.91S277.2,44.79,276,56.55Z"/><path class="cls-66" d="M252.3,205.62a8.32,8.32,0,0,1-3.46,2.62c-1.85.82-5.76,1.21-3.58,1.94a13,13,0,0,0,6,.08,26,26,0,0,1,4-.24c2,0,2-.14,1.74-2.39C256.67,204.52,253.2,203.87,252.3,205.62Z"/><path class="cls-67" d="M284.3,204.25c-.28.54-.57,3.16-2.42,4s-5.76,1.21-3.58,1.94a13,13,0,0,0,6,.08c1.28-.21,1.49-1.6,3-1.61,2,0,2-.14,1.74-2.39C288.67,203.15,285.2,202.5,284.3,204.25Z"/><path class="cls-68" d="M261.32,47.79c-1.88,3.22,11.81,9.12,14.85,8.61s3-7,.66-9.92S265.77,40.2,261.32,47.79Z"/><path class="cls-69" d="M266.4,47c-.49,2.72-5.27,3.35-6.08,5.6-.5,1.4-.74-3,.38-5S267.4,41.51,266.4,47Z"/><ellipse class="cls-36" cx="276.17" cy="57.26" rx="3.26" ry="1.71" transform="translate(118.76 291.29) rotate(-67.79)"/><path class="cls-36" d="M272.6,112.39a8.82,8.82,0,0,0-3.31,2.55c-.54.91,1.49-.11,2.51-.53S273.7,111.84,272.6,112.39Z"/><path class="cls-36" d="M271.91,113.81c-1.69,2.49-3,3.54-3.11,5s2.45.48,3.17-.29,3.47-3.4,3.29-4.65S273.16,112,271.91,113.81Z"/><path class="cls-70" d="M280.22,96.2c-.4-2.34-2.81-8.92-5.71-17.74a10.73,10.73,0,0,1,1.2-7.49c.91-1.43,3.54-1.67,4.66,1.2a68.34,68.34,0,0,1,3,9.46c2.37,9.22,2.54,13.33,2.41,15.18C285.63,99,280.81,99.62,280.22,96.2Z"/><path class="cls-71" d="M272.28,112.4c1.16-1.62,6.68-14.91,8.59-17.58,2.25-3.16,5.87-.08,4.54,2.82-2,4.44-2.88,6-7,11.13-2.86,3.53-2.52,5.2-3.9,5.58C273.4,114.65,271.51,113.47,272.28,112.4Z"/><path class="cls-36" d="M229.69,95.83a4.41,4.41,0,0,1-1.8,1.91c-.42.14-.95-.78-.87-2.24.07-1.28.77-4.47,1.41-4.68s1.22.5,1.68,1.54A3.89,3.89,0,0,1,229.69,95.83Z"/><path class="cls-36" d="M228.31,90.87A8.82,8.82,0,0,0,225,93.42c-.54.91,1.49-.11,2.51-.53S229.4,90.32,228.31,90.87Z"/></g></g></g></svg>