<?xml version="1.0" encoding="utf-8"?>
<!-- Generator: Adobe Illustrator 21.0.0, SVG Export Plug-In . SVG Version: 6.00 Build 0)  -->
<svg version="1.1" id="Слой_1" xmlns="http://www.w3.org/2000/svg" xmlns:xlink="http://www.w3.org/1999/xlink" x="0px" y="0px"
	 viewBox="0 0 326.7 255.7" style="enable-background:new 0 0 326.7 255.7;" xml:space="preserve">
<style type="text/css">
	.st0{opacity:0.15;fill:url(#SVGID_1_);enable-background:new    ;}
	.st1{opacity:0.15;fill:url(#SVGID_2_);enable-background:new    ;}
	.st2{fill:none;stroke:#0037FF;stroke-linecap:round;stroke-linejoin:round;}
	.st3{opacity:0.5;fill:none;stroke:#0037FF;stroke-linecap:round;stroke-linejoin:round;enable-background:new    ;}
	.st4{opacity:0.6;}
	.st5{opacity:0.6;fill:none;stroke:#0037FF;stroke-linecap:round;stroke-linejoin:round;enable-background:new    ;}
	.st6{fill:#FFAF84;}
	.st7{fill:url(#SVGID_3_);}
	.st8{fill:url(#SVGID_4_);}
	.st9{fill:url(#SVGID_5_);}
	.st10{fill:url(#SVGID_6_);}
	.st11{fill:#ED9169;}
	.st12{fill:url(#SVGID_7_);}
	.st13{fill:url(#SVGID_8_);}
	.st14{fill:url(#SVGID_9_);}
	.st15{fill:url(#SVGID_10_);}
	.st16{fill:url(#SVGID_11_);}
	.st17{fill:url(#SVGID_12_);}
	.st18{fill:url(#SVGID_13_);}
	.st19{fill:url(#SVGID_14_);}
	.st20{fill:url(#SVGID_15_);}
</style>
<title>slide2-seo</title>
<g>
	<g id="Слой_2">
		<g id="Background">
			
				<linearGradient id="SVGID_1_" gradientUnits="userSpaceOnUse" x1="103.32" y1="124.53" x2="326.7" y2="124.53" gradientTransform="matrix(1 0 0 -1 0 255.89)">
				<stop  offset="0" style="stop-color:#36078B"/>
				<stop  offset="1" style="stop-color:#16B1FF"/>
			</linearGradient>
			<circle class="st0" cx="215" cy="131.4" r="111.7"/>
			
				<linearGradient id="SVGID_2_" gradientUnits="userSpaceOnUse" x1="0" y1="128.04" x2="255.7" y2="128.04" gradientTransform="matrix(1 0 0 -1 0 255.89)">
				<stop  offset="0" style="stop-color:#401381"/>
				<stop  offset="1" style="stop-color:#D11137"/>
			</linearGradient>
			<circle class="st1" cx="127.8" cy="127.8" r="127.8"/>
		</g>
		<g id="Objects">
			<polygon class="st2" points="306.7,62.1 306.7,185 134.7,185 134.7,73 			"/>
			<polygon class="st3" points="305.5,183 134.8,183.7 134.8,73.1 305.5,61.7 			"/>
			<polygon class="st2" points="306.7,62.1 134.7,73 134.7,56.9 306.7,44.4 			"/>
			<polygon class="st2" points="303.3,58.7 137.6,69.5 137.6,64.1 303.3,52.8 			"/>
			<polygon class="st2" points="140.2,62.2 137.6,62.3 137.6,59.6 140.2,59.4 			"/>
			<polygon class="st2" points="144.7,61.8 142.1,62 142.1,59.2 144.7,59.1 			"/>
			<polygon class="st2" points="149.2,61.5 146.7,61.7 146.7,58.9 149.2,58.7 			"/>
			<polygon class="st3" points="142.1,171.9 301.3,165.3 301.3,67.9 142.1,78.7 			"/>
			<path class="st2" d="M149.7,100.2c-0.6,0-1.1-0.2-1.5-0.6c-0.5-0.4-0.7-1.1-0.7-1.7V85.2c0-1.3,1-2.4,2.3-2.5l143.9-9.2
				c1.3-0.1,2.4,0.9,2.5,2.2c0,0.1,0,0.1,0,0.2v13.3c0,1.4-1.1,2.5-2.4,2.6L149.7,100.2L149.7,100.2z M293.8,74.6L293.8,74.6
				l-144,9.2c-0.7,0.1-1.2,0.7-1.2,1.4v12.8c0,0.3,0.1,0.7,0.4,0.9c0.2,0.2,0.5,0.3,0.8,0.3l143.9-8.6c0.8,0,1.4-0.7,1.4-1.4V75.8
				c0-0.3-0.1-0.7-0.4-0.9C294.5,74.7,294.1,74.6,293.8,74.6z"/>
			<path class="st2" d="M149.8,121.9c-0.6,0-1.1-0.2-1.5-0.6c-0.5-0.4-0.7-1.1-0.7-1.7v-12.8c0-1.3,1-2.4,2.3-2.5L293.7,96
				c0.7,0,1.3,0.2,1.8,0.7c0.5,0.5,0.7,1.1,0.7,1.7v13.3c0,1.4-1.1,2.5-2.5,2.6L149.8,121.9L149.8,121.9z M293.8,97.1L293.8,97.1
				l-144,8.4c-0.7,0.1-1.2,0.6-1.2,1.3v12.8c0,0.3,0.1,0.7,0.4,0.9c0.2,0.2,0.5,0.3,0.8,0.3l143.9-7.7c0.8,0,1.4-0.7,1.4-1.4V98.4
				c0-0.3-0.1-0.7-0.4-0.9C294.4,97.2,294.1,97.1,293.8,97.1z"/>
			<path class="st2" d="M149.8,143.6c-0.6,0-1.1-0.2-1.6-0.6c-0.5-0.5-0.7-1.1-0.7-1.7v-12.8c0-1.3,1-2.4,2.3-2.5l143.9-7.5
				c0.6,0,1.3,0.2,1.8,0.7c0.5,0.5,0.7,1.1,0.7,1.7v13.3c0,1.4-1.1,2.5-2.5,2.5L149.8,143.6L149.8,143.6z M293.8,119.7L293.8,119.7
				l-143.9,7.5c-0.7,0.1-1.2,0.6-1.2,1.3v12.8c0,0.3,0.1,0.7,0.4,0.9c0.2,0.2,0.5,0.3,0.8,0.3l143.9-6.8c0.8,0,1.4-0.6,1.4-1.4V121
				c0-0.4-0.1-0.7-0.4-0.9C294.5,119.8,294.1,119.7,293.8,119.7L293.8,119.7z"/>
			<path class="st2" d="M149.8,165.3c-0.6,0-1.2-0.2-1.6-0.6c-0.5-0.5-0.7-1.1-0.7-1.7v-12.8c0-1.3,1-2.4,2.3-2.4l143.9-6.6
				c0.7,0,1.3,0.2,1.8,0.7c0.5,0.5,0.7,1.1,0.7,1.8v13.3c0,1.4-1.1,2.5-2.5,2.5L149.8,165.3L149.8,165.3z M149.8,164.2L149.8,164.2
				l143.9-5.9c0.8,0,1.4-0.6,1.4-1.4v-13.3c0-0.4-0.1-0.7-0.4-0.9c-0.3-0.2-0.6-0.4-0.9-0.4l-143.9,6.6c-0.7,0-1.2,0.6-1.2,1.3v12.8
				c0,0.3,0.1,0.7,0.4,0.9C149.2,164.1,149.5,164.2,149.8,164.2L149.8,164.2z"/>
			<polygon class="st3" points="258.3,127.8 290.8,126.9 290.8,124.3 258.3,125.3 			"/>
			<polygon class="st3" points="268.8,132.1 290.8,131.5 290.8,128.9 268.8,129.5 			"/>
			<polygon class="st3" points="260.8,132.3 266.2,132.2 266.2,129.6 260.8,129.8 			"/>
			<polygon class="st3" points="258.3,84.2 290.8,82.4 290.8,79.8 258.3,81.6 			"/>
			<polygon class="st3" points="271.3,88.1 290.8,87.1 290.8,84.5 271.3,85.5 			"/>
			<polygon class="st3" points="248.6,89.2 268.8,88.2 268.8,85.6 248.6,86.7 			"/>
			<polygon class="st3" points="277.6,149.6 290.8,149.3 290.8,146.7 277.6,147 			"/>
			<polygon class="st3" points="262.3,149.9 275.2,149.6 275.2,147.1 262.3,147.3 			"/>
			<polygon class="st3" points="268.8,154.3 290.8,154 290.8,151.4 268.8,151.8 			"/>
			<polygon class="st3" points="245.1,154.7 266.2,154.4 266.2,151.8 245.1,152.2 			"/>
			<path class="st2" d="M146.4,95.6l143.8-9c1.1,0,1.9-0.9,1.9-2V71.3c0-1-0.8-1.8-1.8-1.8c0,0-0.1,0-0.1,0l-143.8,9.7
				c-1,0.1-1.8,0.9-1.8,1.9v12.8C144.7,94.8,145.4,95.6,146.4,95.6C146.4,95.7,146.4,95.7,146.4,95.6z"/>
			<g class="st4">
				<polygon class="st2" points="237.2,84.6 173.7,88.5 173.7,90.5 237.2,86.5 				"/>
				<polygon class="st2" points="237.2,81.2 173.7,85.1 173.7,87 237.2,83.1 				"/>
				<polygon class="st2" points="202.1,79.8 173.7,81.6 173.7,83.5 202.1,81.7 				"/>
			</g>
			<polygon class="st2" points="159.8,91.1 168.2,90.7 168.2,82 159.8,82.4 			"/>
			<polygon class="st5" points="150.1,91.3 158.4,91 158.4,82.3 150.1,82.7 			"/>
			<path class="st6" d="M132.5,131.8c1.3,0.3,3.4,0.8,4.5,1s0.8,2.8,0.2,3.2c-1,0.6-4.3,1.2-5-0.1s-2.1-1-2.4-2.3
				S130.3,131.3,132.5,131.8z"/>
			
				<linearGradient id="SVGID_3_" gradientUnits="userSpaceOnUse" x1="-1083.2405" y1="58.7959" x2="-1081.1405" y2="86.6559" gradientTransform="matrix(-1 4.000000e-02 -4.000000e-02 -1 -958.6244 311.31)">
				<stop  offset="0" style="stop-color:#36078B"/>
				<stop  offset="1" style="stop-color:#16B1FF"/>
			</linearGradient>
			<path class="st7" d="M120.5,203.7c0.9,1.1,2.1,1.9,3.5,2.4c1.8,0.7,5.7,0.9,3.6,1.7c-1.9,0.5-3.9,0.6-5.9,0.3
				c-1.3-0.1-2.7-0.2-4-0.1c-2,0.1-2-0.1-1.8-2.2C116.2,202.8,119.6,202.1,120.5,203.7z"/>
			
				<linearGradient id="SVGID_4_" gradientUnits="userSpaceOnUse" x1="-1042.4056" y1="55.7111" x2="-1040.2957" y2="83.5711" gradientTransform="matrix(-1 4.000000e-02 -4.000000e-02 -1 -958.6244 311.31)">
				<stop  offset="0" style="stop-color:#36078B"/>
				<stop  offset="1" style="stop-color:#16B1FF"/>
			</linearGradient>
			<path class="st8" d="M79.4,200.8c0.3,0.5,1.2,3.3,3,4.1s5.1,1.5,3,2.3c-1.9,0.5-3.9,0.6-5.9,0.3c-1.3-0.1-1.6-1.7-2.9-2.4
				c-2.1-1.1-1.8-1-1.6-3.1c0-1.3,1.1-2.3,2.4-2.3C78.3,199.7,79,200.1,79.4,200.8z"/>
			
				<linearGradient id="SVGID_5_" gradientUnits="userSpaceOnUse" x1="-1895.1304" y1="78.1488" x2="-1860.4104" y2="53.3388" gradientTransform="matrix(0.9753 0.2209 0.2209 -0.9753 1946.3585 596.8408)">
				<stop  offset="0" style="stop-color:#36078B"/>
				<stop  offset="1" style="stop-color:#16B1FF"/>
			</linearGradient>
			<path class="st9" d="M133.4,131.6c-1.6-1.9-2.5-4.6-3.5-6.8c-1.3-2.9-2.9-5.6-4.8-8.1c-0.3-0.3-0.5-0.6-0.7-0.9
				c-0.5-1.3-0.7-2.7-0.7-4.1c-0.1-1.4-0.2-2.7-0.3-4.1c-0.3-3.9-0.5-7.8-0.8-11.8c-0.1-1.5-2.7-4.2-5-3.6c-2.6,0.7-3.3,1.8-3.3,4.6
				c0,3,0.3,5.9,0.8,8.9c0.9,6.1,2.3,12.5,6.1,17.5c1.5,1.9,3,3.9,4.7,5.8c3,3.5,4.2,4,6.1,4.5C133.6,134,134.3,132.6,133.4,131.6z"
				/>
			
				<linearGradient id="SVGID_6_" gradientUnits="userSpaceOnUse" x1="-1095.9116" y1="185.0723" x2="-1069.6416" y2="214.4723" gradientTransform="matrix(-1 4.000000e-02 -4.000000e-02 -1 -958.6244 311.31)">
				<stop  offset="0" style="stop-color:#2C27CE"/>
				<stop  offset="0.65" style="stop-color:#EF1D68"/>
				<stop  offset="1" style="stop-color:#EFBA92"/>
			</linearGradient>
			<path class="st10" d="M119.2,77.2c1.3,1.1,2,1.2,2.9-0.5c0-0.1,5.3-5.1,0.5-7.1c-2.2-0.9-4-1.4-4.5,1.8S117.7,75.9,119.2,77.2z"
				/>
			<path class="st11" d="M110.8,77.5c-0.1,0.2-2.3,4.7-3.7,8.2c-0.6,1.9,0.4,3.9,2.2,4.7h0.1c1.7,0.6,4.3-0.2,4.8-1.9
				c0.6-2.2,1.4-4.3,2.3-6.3L110.8,77.5z"/>
			
				<linearGradient id="SVGID_7_" gradientUnits="userSpaceOnUse" x1="-2061.5435" y1="145.1989" x2="-1995.0133" y2="196.0689" gradientTransform="matrix(1 -4.000000e-02 -4.000000e-02 -1 2150.9255 193.72)">
				<stop  offset="0" style="stop-color:#36078B"/>
				<stop  offset="1" style="stop-color:#16B1FF"/>
			</linearGradient>
			<path class="st12" d="M98,96.1c1.3,10.9,0.6,28.2-1.3,35.2l24-0.9c0,0,1.4-15.5,2.6-29c0.3-2.5,0.2-5-0.3-7.5
				c-0.6-2.4-2.1-4.5-4.2-5.8c-1.9-1.1-4-1.9-6.2-2.3c-1.9-0.5-3.9-0.8-5.9-0.8c-2.7,0-5.7,0.6-7.3,2.9c-1.4,2.1-1.6,4.8-1.5,7.2
				C97.9,95.4,98,95.7,98,96.1z"/>
			
				<linearGradient id="SVGID_8_" gradientUnits="userSpaceOnUse" x1="-1088.5671" y1="62.8122" x2="-1076.3672" y2="115.0422" gradientTransform="matrix(-1 4.000000e-02 -4.000000e-02 -1 -958.6244 311.31)">
				<stop  offset="0" style="stop-color:#FF664F"/>
				<stop  offset="1" style="stop-color:#9E005D"/>
			</linearGradient>
			<path class="st13" d="M97.4,146c0,0-2.3-5-0.7-14.7l24-0.9c0.7,4.8,1.2,9.7,1.4,14.6L97.4,146z"/>
			
				<linearGradient id="SVGID_9_" gradientUnits="userSpaceOnUse" x1="-1061.1085" y1="41.9161" x2="-1045.2585" y2="109.7561" gradientTransform="matrix(-1 4.000000e-02 -4.000000e-02 -1 -958.6244 311.31)">
				<stop  offset="0" style="stop-color:#FF664F"/>
				<stop  offset="1" style="stop-color:#9E005D"/>
			</linearGradient>
			<path class="st14" d="M99.8,174.7c5.6-5.8,2.4-10.7-3.4-8.6c-8.2,3-17.1,30.4-20.7,34.1c-0.5,0.5-0.1,0.7,0.2,0.8
				c1.1,0.5,1.8-0.3,3.1,0.1c0.5,0.2,1.3,1.6,1.3,1.6C85.7,196.3,94.3,180.2,99.8,174.7z"/>
			
				<linearGradient id="SVGID_10_" gradientUnits="userSpaceOnUse" x1="-1077.3324" y1="60.1864" x2="-1065.1323" y2="112.4164" gradientTransform="matrix(-1 4.000000e-02 -4.000000e-02 -1 -958.6244 311.31)">
				<stop  offset="0" style="stop-color:#FF664F"/>
				<stop  offset="1" style="stop-color:#9E005D"/>
			</linearGradient>
			<path class="st15" d="M109.3,146.6c0.5-9.7-3.7-17.1-9.6-13.7c-2.5,1.4-3.3,4.2-3.6,6.7s-1.4,22.1-1.8,26.9
				c-1.1,10.8,8,7.3,8.8,4.3C105.2,163.2,109,151.9,109.3,146.6z"/>
			
				<linearGradient id="SVGID_11_" gradientUnits="userSpaceOnUse" x1="-1088.8575" y1="53.2691" x2="-1074.1975" y2="116.0691" gradientTransform="matrix(-1 4.000000e-02 -4.000000e-02 -1 -958.6244 311.31)">
				<stop  offset="0" style="stop-color:#FF664F"/>
				<stop  offset="1" style="stop-color:#9E005D"/>
			</linearGradient>
			<path class="st16" d="M124.3,167.2c-0.4-7.3-4.3-8.9-7.8-3.8c-5.5,8,0.1,32.5-0.5,42.1c1.2-1.1,2.9-1.5,4.5-1.3
				c0.8,0.3,0.2-1,0.2-1C123.6,188.3,124.6,173.7,124.3,167.2z"/>
			
				<linearGradient id="SVGID_12_" gradientUnits="userSpaceOnUse" x1="-1093.2334" y1="63.8943" x2="-1081.0333" y2="116.1243" gradientTransform="matrix(-1 4.000000e-02 -4.000000e-02 -1 -958.6244 311.31)">
				<stop  offset="0" style="stop-color:#FF664F"/>
				<stop  offset="1" style="stop-color:#9E005D"/>
			</linearGradient>
			<path class="st17" d="M114.8,169.1c1.1,2.9,10.6,7,9.3-3.8c-0.6-4.8-2.3-24.3-2.6-26.9s-0.9-6.3-2.2-6.7
				c-6.5-2.1-12.4,5.8-10.4,15.3C110.4,153.5,112.6,163,114.8,169.1z"/>
			
				<linearGradient id="SVGID_13_" gradientUnits="userSpaceOnUse" x1="-1096.5277" y1="161.3853" x2="-1062.8478" y2="197.4853" gradientTransform="matrix(-1 4.000000e-02 -4.000000e-02 -1 -960.6644 311.39)">
				<stop  offset="0" style="stop-color:#36078B"/>
				<stop  offset="1" style="stop-color:#16B1FF"/>
			</linearGradient>
			<path class="st18" d="M112.7,109c-1.8-1.5-3.5-3.2-5-5c-1.2-1.4-2.3-2.9-3.4-4.4c-1.8-2.4-3.4-4.9-4.8-7.5
				c-1.2-2-0.5-4.6,1.6-5.7c0.2-0.1,0.3-0.2,0.5-0.3c2.3-0.7,3.7,0.6,6.2,3c5.6,5.4,8.3,13.1,9.8,15.3c0.4,0,0-0.1,0.4,0
				c3.1,0.8,14.5-7.7,19.9-8.9c1.3-0.3,3.1,2.7,1.6,3.2c-1.9,0.7-7.1,5.4-11.1,7.9c-3.3,2.1-8.7,5.8-11.3,4.7
				c-1.4-0.6-2.8-1.3-4-2.2L112.7,109z"/>
			<path class="st6" d="M109,74.5c-0.6,4.2-0.7,5.2,0.7,7.3c1.4,2,3.4,3.4,5.7,4c2.1,0.5,4.2-1.3,5.1-2.9c1.6-3.3,2.6-6.8,3-10.4
				c0-3-1.9-5.6-4.8-6.5C115.9,65.2,110.5,64.2,109,74.5z"/>
			
				<linearGradient id="SVGID_14_" gradientUnits="userSpaceOnUse" x1="-1092.156" y1="181.7152" x2="-1065.8861" y2="211.1152" gradientTransform="matrix(-1 4.000000e-02 -4.000000e-02 -1 -958.6244 311.31)">
				<stop  offset="0" style="stop-color:#2C27CE"/>
				<stop  offset="0.65" style="stop-color:#EF1D68"/>
				<stop  offset="1" style="stop-color:#EFBA92"/>
			</linearGradient>
			<path class="st19" d="M109.2,73.9c0.8,1.4,1.4,1.7,2.8,0.5c1.1-1,4.4-4.7,2.8-6.2s-3.2-2.6-4.6,0.1S108.2,72.3,109.2,73.9z"/>
			
				<ellipse transform="matrix(0.9891 -0.1475 0.1475 0.9891 -9.8875 16.8575)" class="st6" cx="108.7" cy="75.1" rx="1.5" ry="2.9"/>
			
				<linearGradient id="SVGID_15_" gradientUnits="userSpaceOnUse" x1="-1098.2371" y1="187.1567" x2="-1071.967" y2="216.5467" gradientTransform="matrix(-1 4.000000e-02 -4.000000e-02 -1 -958.6244 311.31)">
				<stop  offset="0" style="stop-color:#2C27CE"/>
				<stop  offset="0.65" style="stop-color:#EF1D68"/>
				<stop  offset="1" style="stop-color:#EFBA92"/>
			</linearGradient>
			<path class="st20" d="M112.3,66.7c1,2.8,8.7,4.9,11.4,4.6s3.8-5.2,0.2-6.4c-2-0.5-0.7,0.3-2.5,0.6
				C120.5,65.7,111.2,63.8,112.3,66.7z"/>
			<path class="st6" d="M136.6,95.9c1-0.8,5.1-4.9,5.7-2.8c0.6,1.6,0.2,3.5-1.1,4.7c-1.8,1.7-2.6,1.4-3.9,0.6
				C136.4,97.8,135.6,96.7,136.6,95.9z"/>
			<path class="st6" d="M141.4,92.5c0.5-0.3,3.3-2.2,3.6-1.7c0.4,0.7-1.4,2-2.6,2.9c-0.6,0.5-1.8,0.7-2,0.2S140.7,93,141.4,92.5z"/>
			<g>
				<defs>
					<path id="SVGID_16_" d="M75.1,202c0-0.5,0.2-1,0.4-1.4c-0.1-0.1,0-0.3,0.2-0.5c3.2-3.4,11-26.7,18.6-32.8c0-0.2,0-0.5,0.1-0.7
						c0.5-4.7,1.6-23.5,1.8-26.7c-0.1-2.9,0-5.7,0.5-8.5c1.9-7.1,2.6-24.4,1.3-35.2c0-0.3-0.1-0.7-0.1-1c-0.2-2.4,0-5.1,1.5-7.2
						c0.3-0.4,0.5-0.7,0.9-1l0.3-0.2c1.8-1.2,4-1.8,6.1-1.7h0.7c0.6-1.4,1.3-2.9,1.8-4.2c-0.5-0.9-0.6-2-0.5-3
						c-0.8-0.6-1.3-1.5-1.4-2.5c-0.2-1.6,0.2-2.9,1.1-3.1c0.1,0,0.2,0,0.3,0c0-1.1,0.5-2.2,1.4-4c0.7-1.3,1.4-1.7,2.1-1.7
						c-0.8-2.8,8.3-0.9,9.2-1.1c1.8-0.3,0.5-1.1,2.5-0.6c1.8,0.6,2.7,2.6,2.1,4.4c-0.3,0.8-0.8,1.4-1.5,1.8c0.7,1.5-0.5,3.4-1.4,4.5
						c-0.5,2.5-1.4,4.9-2.5,7.2c-0.9,1.6-3,3.5-5.1,2.9l-0.4-0.1l-0.3,0.7c1.4,0.4,2.8,1,4,1.7c2.1,1.4,3.6,3.5,4.2,5.9
						c0.5,2.5,0.6,5,0.3,7.5l-0.2,2.1l0.2,3.2c3.2,1.8,6.4,3.4,9.8,4.8c0.3-0.2,0.7-0.2,1-0.1c0.9,0.3,4.4,1.2,5.4,2.3h0.1
						c0.5,0.2,3.6,1.7,3.3,2.2c-0.4,0.7-2.5-0.1-3.8-0.7l0,0c-1.1,1.1-2.7,1.5-4.1,1.1c-0.7-0.1-1.3-0.4-1.8-0.8
						c-1.7,0.4-3.7-0.4-7.8-1.5l-1.3-0.3c0.1,0.7,0.3,1.4,0.6,2.1c0.2,0.3,0.4,0.6,0.7,0.9c2,2.5,3.6,5.2,4.8,8.1
						c1.1,2.2,1.9,4.9,3.5,6.8c0.1,0.2,0.2,0.3,0.3,0.5c1.2,0.3,2.5,0.6,3.3,0.7c1.1,0.2,0.8,2.8,0.2,3.2c-1,0.6-4.3,1.2-5-0.1
						s-2.1-1-2.4-2.3c-0.1-0.3-0.1-0.6,0-0.9c-1.5-1-2.8-2.3-3.9-3.7c-1.6-1.8-3.1-3.7-4.6-5.6c-0.4,4.2-0.6,7-0.6,7s1,6,1.4,13.1
						c0.6,6.9,1.7,18.3,2.1,21.9c0.1,0.6,0.1,1.1,0.1,1.7c0,0,0,0.1,0,0.1c0.3,6.5-0.6,21.1-3.6,36.1c0.1,0.3,0.2,0.5,0.2,0.8
						c0.9,0.9,2,1.5,3.2,2c1.8,0.7,5.7,0.9,3.6,1.7c-1.9,0.5-3.9,0.6-5.9,0.3c-1.3-0.1-2.7-0.2-4-0.1c-2,0.1-2-0.1-1.8-2.2
						c0-0.1,0-0.2,0-0.3l0,0c0.5-8-3.3-26.5-1.4-37c-2.2-6.8-4-13.7-5.4-20.7c-0.7,5.7-4.2,15.9-6,23c-0.4,1-1.1,1.7-2,2.2
						c-0.4,0.6-0.9,1.1-1.3,1.6c-5.4,5.6-14,21.7-19.5,27.9c0.4,1,1.2,1.8,2.2,2.3c1.8,0.7,5.1,1.5,3,2.3c-1.9,0.5-3.9,0.6-5.9,0.3
						c-1.3-0.1-1.6-1.7-2.9-2.4C74.6,204,74.9,204.1,75.1,202z"/>
				</defs>
				<clipPath id="SVGID_17_">
					<use xlink:href="#SVGID_16_"  style="overflow:visible;"/>
				</clipPath>
			</g>
		</g>
	</g>
</g>
</svg>
