<?xml version="1.0" encoding="utf-8"?>
<!-- Generator: Adobe Illustrator 21.0.0, SVG Export Plug-In . SVG Version: 6.00 Build 0)  -->
<svg version="1.1" id="Слой_1" xmlns="http://www.w3.org/2000/svg" xmlns:xlink="http://www.w3.org/1999/xlink" x="0px" y="0px"
	 viewBox="0 0 308.1 255.7" style="enable-background:new 0 0 308.1 255.7;" xml:space="preserve">
<style type="text/css">
	.st0{opacity:0.15;fill:url(#SVGID_1_);enable-background:new    ;}
	.st1{opacity:0.15;fill:url(#SVGID_2_);enable-background:new    ;}
	.st2{opacity:0.3;fill:url(#SVGID_3_);enable-background:new    ;}
	.st3{fill:url(#SVGID_4_);}
	.st4{fill:url(#SVGID_5_);}
	.st5{fill:#F70F47;}
	.st6{fill:#ED9169;}
	.st7{fill:url(#SVGID_6_);}
	.st8{fill:url(#SVGID_7_);}
	.st9{fill:url(#SVGID_8_);}
	.st10{fill:url(#SVGID_9_);}
	.st11{fill:url(#SVGID_10_);}
	.st12{fill:url(#SVGID_11_);}
	.st13{fill:url(#SVGID_12_);}
	.st14{fill:url(#SVGID_13_);}
	.st15{fill:#FFAF84;}
	.st16{opacity:0.3;fill:url(#SVGID_14_);enable-background:new    ;}
	.st17{fill:none;stroke:#0037FF;stroke-miterlimit:10;}
	.st18{fill:none;stroke:#0037FF;stroke-linecap:round;stroke-linejoin:round;}
	.st19{fill:url(#SVGID_17_);}
	.st20{fill:url(#SVGID_18_);}
	.st21{fill:url(#SVGID_19_);}
	.st22{fill:#EA8F68;}
	.st23{fill:url(#SVGID_20_);}
	.st24{fill:url(#SVGID_21_);}
	.st25{fill:url(#SVGID_22_);}
	.st26{fill:url(#SVGID_23_);}
	.st27{fill:url(#SVGID_24_);}
	.st28{fill:url(#SVGID_25_);}
	.st29{fill:url(#SVGID_26_);}
	.st30{fill:url(#SVGID_27_);}
	.st31{fill:url(#SVGID_28_);}
	.st32{fill:url(#SVGID_29_);}
	.st33{fill:url(#SVGID_30_);}
	.st34{fill:url(#SVGID_31_);}
</style>
<title>smm-slide6</title>
<g>
	<g id="Слой_2">
		<g id="Background">
			
				<linearGradient id="SVGID_1_" gradientUnits="userSpaceOnUse" x1="84.74" y1="128.04" x2="308.12" y2="128.04" gradientTransform="matrix(1 0 0 -1 0 255.89)">
				<stop  offset="0" style="stop-color:#36078B"/>
				<stop  offset="1" style="stop-color:#16B1FF"/>
			</linearGradient>
			<circle class="st0" cx="196.4" cy="127.8" r="111.7"/>
			
				<linearGradient id="SVGID_2_" gradientUnits="userSpaceOnUse" x1="0" y1="128.04" x2="255.7" y2="128.04" gradientTransform="matrix(1 0 0 -1 0 255.89)">
				<stop  offset="0" style="stop-color:#36078B"/>
				<stop  offset="1" style="stop-color:#16B1FF"/>
			</linearGradient>
			<circle class="st1" cx="127.8" cy="127.8" r="127.8"/>
		</g>
		<g id="Objects">
			
				<linearGradient id="SVGID_3_" gradientUnits="userSpaceOnUse" x1="58.1731" y1="45.1344" x2="66.6832" y2="45.1344" gradientTransform="matrix(1 0 0 -1 0 255.89)">
				<stop  offset="0" style="stop-color:#0000FF"/>
				<stop  offset="1" style="stop-color:#9E005D"/>
			</linearGradient>
			<path class="st2" d="M64.1,208c0.2,0.8,0.3,1.6,0.3,2.5c0.2,1,1.1,1.4,1.7,2.2s1.6,2.4-2.2,2.4c-4,0.1-6.3-0.2-5.7-2.4
				c0.5-1.2,0.7-2.5,0.8-3.8c-0.1-0.7,0-1.3,0.4-1.9C59.9,206.6,63.5,205.8,64.1,208z"/>
			
				<linearGradient id="SVGID_4_" gradientUnits="userSpaceOnUse" x1="122.9087" y1="190.4949" x2="92.6987" y2="182.1749" gradientTransform="matrix(1 0 0 -1 0 255.89)">
				<stop  offset="0" style="stop-color:#36078B"/>
				<stop  offset="1" style="stop-color:#16B1FF"/>
			</linearGradient>
			<path class="st3" d="M117.7,59.1c0.2,2.2,0,3.7-2.6,8.3c-3.6,6.2-5.9,9.4-8.3,11.9c-2.2,2.3-7-3.6-4.9-7.3
				c1.8-3.2,12-11.8,13.1-13.7C115.8,57.1,117.5,57.3,117.7,59.1z"/>
			
				<linearGradient id="SVGID_5_" gradientUnits="userSpaceOnUse" x1="122.9196" y1="190.4415" x2="92.7096" y2="182.1215" gradientTransform="matrix(1 0 0 -1 0 255.89)">
				<stop  offset="0" style="stop-color:#36078B"/>
				<stop  offset="1" style="stop-color:#16B1FF"/>
			</linearGradient>
			<path class="st4" d="M105.5,79.8c-1.7,0.3-5.7,0.5-15-1.6c-3.3-0.7-6.6-1.6-9.7-2.8c-3-1.1-3.4-4.4-2.3-5.7
				c1.8-2,5.6-3.5,7.2-3.1c9.1,2.8,15.9,5.5,18.2,5.7C107.3,72.8,107.5,79.4,105.5,79.8z"/>
			<path class="st5" d="M81.5,55.1c1.6,0.8,2.3,0.8,2.9-1.3c0.5-1.6,1.2-7.1-1.3-7.5s-4.5-0.4-4.2,3S79.6,54.2,81.5,55.1z"/>
			<path class="st6" d="M72,58.1c0,0.3-0.6,5.5-0.7,9.6c0.1,2.1,1.8,3.8,3.9,3.9h0.1c2,0,4.3-1.8,4.1-3.7c-0.2-2.4-0.2-4.8-0.1-7.2
				L72,58.1z"/>
			
				<linearGradient id="SVGID_6_" gradientUnits="userSpaceOnUse" x1="76.5945" y1="180.7905" x2="81.8345" y2="135.7905" gradientTransform="matrix(1 0 0 -1 0 255.89)">
				<stop  offset="0" style="stop-color:#36078B"/>
				<stop  offset="1" style="stop-color:#16B1FF"/>
			</linearGradient>
			<path class="st7" d="M62.1,80.1c3.6,11.9,5.3,26.4,4.5,34.7H94c0,0-0.2-25.6-2-39.6c-0.5-3.5-2.6-6.5-5.8-8
				c-2.3-1-4.8-1.5-7.3-1.6h-5c-1.8,0.1-3.6,0.3-5.3,0.7C61.4,67.6,60,73.2,62.1,80.1z"/>
			
				<linearGradient id="SVGID_7_" gradientUnits="userSpaceOnUse" x1="65.7177" y1="132.71" x2="94.9877" y2="132.71" gradientTransform="matrix(1 0 0 -1 0 255.89)">
				<stop  offset="0" style="stop-color:#F70F47"/>
				<stop  offset="1" style="stop-color:#9E005D"/>
			</linearGradient>
			<path class="st8" d="M66.8,131.5c0,0-2.4-5.7-0.1-16.7H94c0.6,5.5,1,11.1,1,16.7H66.8z"/>
			
				<linearGradient id="SVGID_8_" gradientUnits="userSpaceOnUse" x1="58.796" y1="72.0355" x2="72.5173" y2="72.0355" gradientTransform="matrix(1 0 0 -1 0 255.89)">
				<stop  offset="0" style="stop-color:#F70F47"/>
				<stop  offset="1" style="stop-color:#9E005D"/>
			</linearGradient>
			<path class="st9" d="M72.2,167.3c2.2-8.9-6.9-10.4-9.8-4c-4.1,9.1-3.7,38.2-3.5,44c0,0.8,0.4,0.6,0.9,0.5
				c0.9-0.4,1.9-0.6,2.9-0.5c0.6,0.2,1.2,0.6,1.5,1.2C65,200.4,70,175.9,72.2,167.3z"/>
			
				<linearGradient id="SVGID_9_" gradientUnits="userSpaceOnUse" x1="62.3146" y1="112.3187" x2="80.4911" y2="112.3187" gradientTransform="matrix(1 0 0 -1 0 255.89)">
				<stop  offset="0" style="stop-color:#F70F47"/>
				<stop  offset="1" style="stop-color:#9E005D"/>
			</linearGradient>
			<path class="st10" d="M80.3,132.7c1-11-3.4-19.6-10.3-16c-2.9,1.5-3.9,4.6-4.3,7.5s-2.5,32.9-3.3,38.4c-1.7,12.2,8,8.9,9,5.6
				C74.2,159.6,79.8,138.7,80.3,132.7z"/>
			
				<linearGradient id="SVGID_10_" gradientUnits="userSpaceOnUse" x1="85.7513" y1="69.855" x2="96.4917" y2="69.855" gradientTransform="matrix(1 0 0 -1 0 255.89)">
				<stop  offset="0" style="stop-color:#F70F47"/>
				<stop  offset="1" style="stop-color:#9E005D"/>
			</linearGradient>
			<path class="st11" d="M96.5,166.7c0.4-8.3-7.7-8.1-9.7-1.4c-3.2,10.6,2.3,33.4,2.7,46.4c1.4-2.3,2.7-2.8,3.4-2.8
				c0.6,0.1,1.2,0.4,1.6,0.9C94.1,192.7,96.1,175.5,96.5,166.7z"/>
			
				<linearGradient id="SVGID_11_" gradientUnits="userSpaceOnUse" x1="79.6808" y1="112.4873" x2="96.4808" y2="112.4873" gradientTransform="matrix(1 0 0 -1 0 255.89)">
				<stop  offset="0" style="stop-color:#F70F47"/>
				<stop  offset="1" style="stop-color:#9E005D"/>
			</linearGradient>
			<path class="st12" d="M87,167.6c1.1,3.4,10.3,7.3,9.3-5c-0.3-5.5-1.5-35.6-1.7-38.6s-0.7-7.2-2.2-7.7c-7.3-2.7-14.4,6-12.4,16.9
				C81.3,140.6,84.8,160.6,87,167.6z"/>
			
				<linearGradient id="SVGID_12_" gradientUnits="userSpaceOnUse" x1="57.3783" y1="178.561" x2="62.6183" y2="133.551" gradientTransform="matrix(1 0 0 -1 0 255.89)">
				<stop  offset="0" style="stop-color:#36078B"/>
				<stop  offset="1" style="stop-color:#16B1FF"/>
			</linearGradient>
			<path class="st13" d="M66.5,108.6c-2.2-0.6-3.3-2.2-6.9-6c-5.2-5.5-6.1-7.1-8.1-11.6c-1.3-2.9,5.6-5,8.4-1.7
				c2.3,2.8,6.9,15.3,8.3,17C69,107.5,68.2,109.1,66.5,108.6z"/>
			
				<linearGradient id="SVGID_13_" gradientUnits="userSpaceOnUse" x1="60.7018" y1="178.9479" x2="65.9418" y2="133.9379" gradientTransform="matrix(1 0 0 -1 0 255.89)">
				<stop  offset="0" style="stop-color:#36078B"/>
				<stop  offset="1" style="stop-color:#16B1FF"/>
			</linearGradient>
			<path class="st14" d="M51.3,90c0.3-1.7,1.5-5.5,6.7-13.5c1.8-2.9,3.8-5.6,6-8.1c2.1-2.4,5.3-1.7,6.1-0.2c1.3,2.4,1.4,6.5,0.3,7.8
				c-5.7,7.6-10.6,13-11.7,15.1C57.2,94.2,51,92.1,51.3,90z"/>
			<path class="st15" d="M69.3,54.3c0.4,4.5,0.6,5.5,2.6,7.4c1.9,1.7,4.4,2.7,6.9,2.7c2.3,0,4-2.4,4.6-4.3c0.9-3.8,1-7.7,0.5-11.6
				c-0.3-2.5-3.4-5.5-6.6-5.5S68.2,43.2,69.3,54.3z"/>
			<path class="st15" d="M65.6,105.8c1-1.2,2.7-2.9,3.5-4s3.2,0.7,3.3,1.6c0.1,1.3-1.2,4.9-2.9,4.9s-2.2,1.5-3.6,1.1
				S63.9,107.6,65.6,105.8z"/>
			
				<linearGradient id="SVGID_14_" gradientUnits="userSpaceOnUse" x1="89.24" y1="43.9657" x2="103.27" y2="43.9657" gradientTransform="matrix(1 0 0 -1 0 255.89)">
				<stop  offset="0" style="stop-color:#0000FF"/>
				<stop  offset="1" style="stop-color:#9E005D"/>
			</linearGradient>
			<path class="st16" d="M94.7,209.8c1,1.3,2.4,2.2,3.9,2.8c2.1,0.9,6.4,1.3,4,2.1c-2.2,0.5-4.5,0.6-6.7,0.1c-1.5-0.2-3-0.3-4.5-0.3
				c-2.2,0-2.3-0.1-2-2.6C89.8,208.6,93.7,207.9,94.7,209.8z"/>
			<path class="st5" d="M69.3,53.6c1.2,1.2,1.9,1.5,3.1-0.2c0.9-1.3,3.4-6,1.3-7.2s-3.9-1.9-4.8,1.3S67.9,52.1,69.3,53.6z"/>
			
				<ellipse transform="matrix(0.9257 -0.3782 0.3782 0.9257 -15.6398 30.2423)" class="st15" cx="69.2" cy="54.9" rx="1.6" ry="3.1"/>
			<path class="st5" d="M70.7,45.4c1.8,2.6,10.3,2.9,13,1.9s2.6-6.3-1.4-6.7c-2.2,0-0.6,0.5-2.4,1.3C79,42.2,68.8,42.6,70.7,45.4z"
				/>
			<path class="st15" d="M114.4,57.8c-0.1-0.7-0.4-4.6,0.3-4.7c1.1-0.2,1.5,2.4,1.7,4.1c0.1,0.9-0.3,2.3-1.1,2.3
				S114.5,58.8,114.4,57.8z"/>
			<g>
				<defs>
					<path id="SVGID_15_" d="M121.3,48.4c-1.2-1.2-3.6,3.3-5.2,6.7c-0.3-1.2-0.7-2.2-1.4-2.1s-0.4,4.1-0.3,4.7c0,0.3,0.1,0.7,0.2,1
						c0,0,0,0.1,0,0.1c-2.2,2.7-10.8,10-12.6,13c-3.2-0.9-9-3.1-16.3-5.3c-0.4-0.1-0.7-0.1-1.1-0.1c-1.7-0.5-3.5-0.9-5.3-1
						c0-0.5,0-0.9,0-1.3c2.1-0.3,3.6-2.5,4.1-4.3c0.4-1.7,0.7-3.4,0.7-5.2c0.1-0.3,0.3-0.6,0.3-0.9c0.4-1.3,1-5.3-0.3-6.8
						c2.3-1.4,1.9-6.1-1.8-6.5c-2.2,0-0.6,0.5-2.4,1.3c-0.9,0.4-10.8,0.7-9.3,3.4c-0.8,0.1-1.4,0.8-1.8,2.3
						c-0.6,2.1-0.8,3.4-0.5,4.5c-0.1,0-0.2,0-0.4,0.1c-0.8,0.3-1,1.9-0.3,3.4c0.3,1,1,1.8,2,2.3c0.2,1.4,0.9,2.7,1.9,3.7
						c-0.1,1.3-0.2,2.8-0.3,4.4c-1,0.1-1.9,0.3-2.8,0.5c-0.8,0.1-1.6,0.4-2.3,0.7c-0.6,0.2-1.2,0.5-1.7,0.9c-1.1,0.7-2,1.7-2.6,3
						c-1,1.3-2.3,3.1-4.1,5.8c-5.2,8-6.4,11.8-6.7,13.5c0,0.1,0,0.3,0,0.4c0,0.2,0.1,0.5,0.1,0.7c2,4.5,2.9,6.1,8.1,11.6
						c1.5,1.8,3.2,3.5,5,5c-0.1,0.8,0.5,1.5,1.3,1.7c0.3,0.1,0.6,0.1,0.9,0c0,1.8,0,3.6-0.2,5.4c-0.7,3.2-1,6.4-1,9.7
						c-0.4,4-2.5,32.8-3.2,38.1c0,0.2,0,0.4-0.1,0.6l0,0c-4.1,9.1-3.7,38.2-3.5,44c0,0.3,0.1,0.5,0.2,0.5c-0.1,0.4-0.1,0.7-0.1,1.1
						c0,1.3-0.3,2.6-0.8,3.8c-0.7,2.2,1.7,2.4,5.7,2.4c3.7-0.1,2.8-1.5,2.2-2.4s-1.5-1.2-1.7-2.2c-0.1-0.7,0-1.1-0.3-2.1l0,0
						c0.9-7.9,5.9-32.5,8-41.1c0.2-0.7,0.3-1.5,0.3-2.3c2.6-8.9,6.7-24.2,7.7-30.8c1.3,7.4,4.3,24,6.4,31.7
						c-2.8,10.9,2.5,33,2.8,45.8l0,0c0,0.1,0,0.1,0,0.2c-0.3,2.4-0.3,2.6,2,2.6c1.5,0,3,0.1,4.5,0.3c2.2,0.5,4.5,0.4,6.7-0.1
						c2.4-0.8-1.9-1.2-4-2.1c-1.5-0.6-2.8-1.6-3.9-2.8c-0.1-0.2-0.2-0.3-0.3-0.4c-0.2-17,1.8-33.9,2.1-42.6c0-0.5,0-1,0-1.5
						c0.1-0.9,0.1-1.8,0-2.6c-0.3-4-1-20.9-1.4-31l0,0c0-5.6-0.4-11.2-1-16.7c0,0-0.2-21.8-1.6-36.2c7.8,1.6,11.3,1.5,13,1.2
						c0.5,0.1,1.1-0.1,1.5-0.5c2.3-2.5,4.7-5.8,8.3-11.9c2-3.5,2.6-5.2,2.6-6.8c2-0.6,3.6-2.1,4.2-4.2
						C122.4,54.9,123.3,50.4,121.3,48.4z M59.9,89.4c0.9-1.2,2.1-2.7,3.6-4.6C65,91,66,97.1,66.5,103.4
						C64.5,99.1,61.6,91.6,59.9,89.4L59.9,89.4z"/>
				</defs>
				<clipPath id="SVGID_16_">
					<use xlink:href="#SVGID_15_"  style="overflow:visible;"/>
				</clipPath>
			</g>
			<path class="st17" d="M233.8,71.7v137.5c0,3.3-2.7,5.9-5.9,5.9H124.3c-3.3,0-5.9-2.7-5.9-5.9V71.7c0-3.3,2.7-5.9,5.9-5.9h103.5
				C231.1,65.7,233.8,68.4,233.8,71.7z"/>
			<path class="st17" d="M195.7,73.9h-46.4c-0.7,0-1.2-0.5-1.2-1.2l0,0l0,0c0-0.7,0.5-1.2,1.2-1.2l0,0h46.4c0.7,0,1.2,0.5,1.2,1.2
				l0,0l0,0C196.9,73.4,196.4,73.9,195.7,73.9z"/>
			<path class="st17" d="M204.1,72.5c0.1,0.7-0.3,1.3-1,1.4c-0.7,0.1-1.3-0.3-1.4-1c-0.1-0.7,0.3-1.3,1-1.4c0.1,0,0.3,0,0.4,0
				C203.6,71.6,204,72,204.1,72.5z"/>
			<path class="st17" d="M129.5,79.9h93.4c1.3,0,2.4,1.1,2.4,2.4v122.6c0,1.3-1.1,2.4-2.4,2.4h-93.4c-1.3,0-2.4-1.1-2.4-2.4V82.3
				C127.1,81,128.2,79.9,129.5,79.9z"/>
			<path class="st17" d="M225.2,82.3v10.1h-98.1V82.3c0-1.3,1.1-2.4,2.4-2.4l0,0h93.4C224.2,79.9,225.2,80.9,225.2,82.3
				C225.2,82.3,225.2,82.3,225.2,82.3z"/>
			<path class="st17" d="M218.1,85.1h-70.3c-0.8-0.1-1.6,0.5-1.8,1.3c0.1,0.9,0.8,1.5,1.7,1.4c0,0,0,0,0,0h70.4
				c0.8,0.1,1.6-0.5,1.7-1.4l0,0C219.7,85.7,219,85,218.1,85.1z"/>
			<path class="st17" d="M135.3,86.5v1c0,0.2-0.2,0.4-0.4,0.4c-0.1,0-0.1,0-0.2-0.1l-0.9-0.5l-0.9-0.5c-0.2-0.1-0.2-0.3-0.1-0.5
				c0-0.1,0.1-0.1,0.1-0.1l0.9-0.5l0.9-0.5c0.2-0.1,0.4,0,0.5,0.1c0,0.1,0.1,0.1,0.1,0.2V86.5z"/>
			<path class="st17" d="M139.8,86.5v1c0,0.2,0.2,0.4,0.4,0.4c0.1,0,0.1,0,0.2-0.1l0.9-0.5l0.9-0.5c0.2-0.1,0.2-0.3,0.1-0.5
				c0-0.1-0.1-0.1-0.1-0.1l-0.9-0.5l-0.9-0.5c-0.2-0.1-0.4,0-0.5,0.1c0,0.1-0.1,0.1-0.1,0.2V86.5z"/>
			<path class="st17" d="M156.8,104h-22.2c-0.6,0-1-0.5-1-1.1l0,0c0-0.6,0.4-1.1,1-1.1h22.2c0.6,0,1,0.5,1,1.1l0,0
				C157.9,103.5,157.4,104,156.8,104z"/>
			<path class="st17" d="M156.8,109.7h-22.2c-0.6,0-1-0.5-1-1.1l0,0c0-0.6,0.4-1.1,1-1.1h22.2c0.6,0,1,0.5,1,1.1l0,0
				C157.9,109.2,157.4,109.7,156.8,109.7z"/>
			<path class="st17" d="M156.8,115.4h-22.2c-0.6,0-1-0.5-1-1.1l0,0c0-0.6,0.4-1.1,1-1.1h22.2c0.6,0,1,0.5,1,1.1l0,0
				C157.9,114.8,157.4,115.3,156.8,115.4z"/>
			<path class="st17" d="M156.8,121h-22.2c-0.6,0-1-0.5-1-1.1l0,0c0-0.6,0.4-1.1,1-1.1h22.2c0.6,0,1,0.5,1,1.1l0,0
				C157.9,120.5,157.4,121,156.8,121z"/>
			<path class="st17" d="M156.8,131.4h-22.2c-0.6,0-1-0.5-1-1.1l0,0c0-0.6,0.4-1.1,1-1.1h22.2c0.6,0,1,0.5,1,1.1l0,0
				C157.9,130.9,157.4,131.4,156.8,131.4z"/>
			<path class="st17" d="M156.8,137.1h-22.2c-0.6,0-1-0.5-1-1.1l0,0c0-0.6,0.4-1.1,1-1.1h22.2c0.6,0,1,0.5,1,1.1l0,0
				C157.9,136.5,157.4,137,156.8,137.1z"/>
			<path class="st17" d="M156.8,142.7h-22.2c-0.6,0-1-0.5-1-1.1l0,0c0-0.6,0.4-1.1,1-1.1h22.2c0.6,0,1,0.5,1,1.1l0,0
				C157.9,142.2,157.4,142.7,156.8,142.7z"/>
			<path class="st17" d="M156.8,148.4h-22.2c-0.6,0-1-0.5-1-1.1l0,0c0-0.6,0.4-1.1,1-1.1h22.2c0.6,0,1,0.5,1,1.1l0,0
				C157.9,147.8,157.4,148.3,156.8,148.4z"/>
			<path class="st17" d="M156.8,158.8h-22.2c-0.6,0-1-0.5-1-1.1l0,0c0-0.6,0.4-1.1,1-1.1h22.2c0.6,0,1,0.5,1,1.1l0,0
				C157.9,158.2,157.4,158.7,156.8,158.8z"/>
			<path class="st17" d="M156.8,164.4h-22.2c-0.6,0-1-0.5-1-1.1l0,0c0-0.6,0.4-1.1,1-1.1h22.2c0.6,0,1,0.5,1,1.1l0,0
				C157.9,163.9,157.4,164.4,156.8,164.4z"/>
			<path class="st17" d="M156.8,170.1h-22.2c-0.6,0-1-0.5-1-1.1l0,0c0-0.6,0.4-1.1,1-1.1h22.2c0.6,0,1,0.5,1,1.1l0,0
				C157.9,169.5,157.4,170.1,156.8,170.1z"/>
			<path class="st17" d="M156.8,175.8h-22.2c-0.6,0-1-0.5-1-1.1l0,0c0-0.6,0.4-1.1,1-1.1h22.2c0.6,0,1,0.5,1,1.1l0,0
				C157.9,175.2,157.4,175.7,156.8,175.8z"/>
			<path class="st17" d="M171.5,156.5h41.1c3.5,0,6.4,2.9,6.4,6.4v6.5c0,3.5-2.9,6.4-6.4,6.4h-41.1c-3.5,0-6.4-2.9-6.4-6.4v-6.5
				C165.1,159.4,168,156.5,171.5,156.5z"/>
			<path class="st17" d="M183.3,166c0,4.5-3.6,8.1-8.1,8.1c-2,0-3.9-0.7-5.4-2c-0.3-0.3-0.6-0.6-0.9-0.9c-2.9-3.4-2.4-8.6,1.1-11.4
				c3.4-2.9,8.6-2.4,11.4,1.1C182.6,162.3,183.3,164.1,183.3,166z"/>
			<circle class="st17" cx="175.2" cy="164" r="3.1"/>
			<path class="st17" d="M180.6,172.1c-3.1,2.7-7.7,2.7-10.7,0c0.3-1.2,1-2.2,2-2.8c2-1.4,4.7-1.4,6.7,0
				C179.6,169.9,180.3,170.9,180.6,172.1z"/>
			<path class="st18" d="M186.7,164.3L186.7,164.3l0.5-1.5c0,0,0-0.1,0-0.1l-1.4-1.1l0,0h0.1h1.7l0.5-1.6l0,0l0,0l0.6,1.6
				c0,0,0,0,0.1,0h1.7l0,0l-1.4,0.9c0,0,0,0.1,0,0.1l0.6,1.6v0.1h-0.1l-1.4-1c0,0-0.1,0-0.1,0L186.7,164.3L186.7,164.3z"/>
			<path class="st18" d="M192.8,164.3L192.8,164.3l0.5-1.5c0,0,0-0.1,0-0.1l-1.4-1.1l0,0h0.1h1.7l0.5-1.6l0,0l0,0l0.6,1.6
				c0,0,0,0,0.1,0h1.7l0,0l-1.4,0.9c0,0,0,0.1,0,0.1l0.6,1.6v0.1h-0.1l-1.4-1c0,0-0.1,0-0.1,0L192.8,164.3L192.8,164.3z"/>
			<path class="st18" d="M199,164.3L199,164.3l0.5-1.5c0,0,0-0.1,0-0.1l-1.5-1.1l0,0h0.1h1.7l0.5-1.6l0,0l0,0l0.6,1.6c0,0,0,0,0.1,0
				h1.7l0,0l-1.4,0.9c0,0,0,0.1,0,0.1l0.6,1.6v0.1h-0.1l-1.4-1c0,0-0.1,0-0.1,0L199,164.3L199,164.3z"/>
			<path class="st18" d="M205.1,164.3L205.1,164.3l0.5-1.5c0,0,0-0.1,0-0.1l-1.4-1.1l0,0h0.1h1.7l0.5-1.6l0,0l0,0l0.6,1.6
				c0,0,0,0,0.1,0h1.7l0,0l-1.4,0.9c0,0,0,0.1,0,0.1l0.6,1.6v0.1H208l-1.4-1c0,0-0.1,0-0.1,0L205.1,164.3L205.1,164.3z"/>
			<path class="st18" d="M211.3,164.3L211.3,164.3l0.5-1.5c0,0,0-0.1,0-0.1l-1.4-1.1l0,0h0.1h1.7l0.5-1.6l0,0l0,0l0.6,1.6
				c0,0,0,0,0.1,0h1.7l0,0l-1.4,0.9c0,0,0,0.1,0,0.1l0.6,1.6v0.1h-0.1l-1.4-1c0,0-0.1,0-0.1,0L211.3,164.3L211.3,164.3z"/>
			<path class="st17" d="M186.3,166.4h28.1c0.4,0,0.6,0.3,0.6,0.6v0c0,0.4-0.3,0.6-0.6,0.6h-28.1c-0.4,0-0.6-0.3-0.6-0.6v0
				C185.7,166.6,186,166.4,186.3,166.4z"/>
			<path class="st17" d="M214.4,169.1h-28.1c-0.4,0-0.6,0.3-0.6,0.6l0,0c0,0.4,0.3,0.6,0.6,0.6h28.1c0.4,0,0.6-0.3,0.6-0.6l0,0
				C215,169.4,214.8,169.1,214.4,169.1z"/>
			<path class="st17" d="M171.5,101.8h41.1c3.5,0,6.4,2.9,6.4,6.4v6.5c0,3.5-2.9,6.4-6.4,6.4h-41.1c-3.5,0-6.4-2.9-6.4-6.4v-6.5
				C165.1,104.6,168,101.8,171.5,101.8z"/>
			<path class="st17" d="M183.3,111.3c0,4.5-3.6,8.1-8.1,8.1c-2,0-3.9-0.7-5.4-2c-0.3-0.3-0.6-0.6-0.9-0.9
				c-2.9-3.4-2.4-8.6,1.1-11.4c3.4-2.9,8.6-2.4,11.4,1.1C182.6,107.6,183.3,109.4,183.3,111.3L183.3,111.3z"/>
			<circle class="st17" cx="175.2" cy="109.3" r="3.1"/>
			<path class="st17" d="M180.6,117.3c-3.1,2.7-7.7,2.7-10.7,0c0.3-1.2,1-2.2,2-2.8c2-1.4,4.7-1.4,6.7,0
				C179.6,115.2,180.3,116.2,180.6,117.3z"/>
			<path class="st18" d="M186.7,109.6L186.7,109.6l0.5-1.5c0,0,0-0.1,0-0.1l-1.4-1.1l0,0h0.1h1.7l0.5-1.6l0,0l0,0l0.6,1.6
				c0,0,0,0,0.1,0h1.7l0,0l-1.4,0.9c0,0,0,0.1,0,0.1l0.6,1.6v0.1h-0.1l-1.4-1c0,0-0.1,0-0.1,0L186.7,109.6L186.7,109.6z"/>
			<path class="st18" d="M192.8,109.6L192.8,109.6l0.5-1.5c0,0,0-0.1,0-0.1l-1.4-1.1l0,0h0.1h1.7l0.5-1.6l0,0l0,0l0.6,1.6
				c0,0,0,0,0.1,0h1.7l0,0l-1.4,0.9c0,0,0,0.1,0,0.1l0.6,1.6v0.1h-0.1l-1.4-1c0,0-0.1,0-0.1,0L192.8,109.6L192.8,109.6z"/>
			<path class="st18" d="M199,109.6L199,109.6l0.5-1.5c0,0,0-0.1,0-0.1l-1.5-1.1l0,0h0.1h1.7l0.5-1.6l0,0l0,0l0.6,1.6c0,0,0,0,0.1,0
				h1.7l0,0l-1.4,0.9c0,0,0,0.1,0,0.1l0.6,1.6v0.1h-0.1l-1.4-1c0,0-0.1,0-0.1,0L199,109.6L199,109.6z"/>
			<path class="st18" d="M205.1,109.6L205.1,109.6l0.5-1.5c0,0,0-0.1,0-0.1l-1.4-1.1l0,0h0.1h1.7l0.5-1.6l0,0l0,0l0.6,1.6
				c0,0,0,0,0.1,0h1.7l0,0l-1.4,0.9c0,0,0,0.1,0,0.1l0.6,1.6v0.1H208l-1.4-1c0,0-0.1,0-0.1,0L205.1,109.6L205.1,109.6z"/>
			<path class="st18" d="M211.3,109.6L211.3,109.6l0.5-1.5c0,0,0-0.1,0-0.1l-1.4-1.1l0,0h0.1h1.7l0.5-1.6l0,0l0,0l0.6,1.6
				c0,0,0,0,0.1,0h1.7l0,0l-1.4,0.9c0,0,0,0.1,0,0.1l0.6,1.6v0.1h-0.1l-1.4-1c0,0-0.1,0-0.1,0L211.3,109.6L211.3,109.6z"/>
			<path class="st17" d="M186.3,111.6h28.1c0.4,0,0.6,0.3,0.6,0.6v0c0,0.4-0.3,0.6-0.6,0.6h-28.1c-0.4,0-0.6-0.3-0.6-0.6v0
				C185.7,111.9,186,111.6,186.3,111.6z"/>
			<path class="st17" d="M214.4,114.4h-28.1c-0.4,0-0.6,0.3-0.6,0.7l0,0c0,0.4,0.3,0.7,0.6,0.7h28.1c0.4,0,0.6-0.3,0.6-0.7
				c0,0,0,0,0,0l0,0C215,114.7,214.7,114.4,214.4,114.4z"/>
			<path class="st17" d="M171.5,129.1h41.1c3.5,0,6.4,2.9,6.4,6.4v6.5c0,3.5-2.9,6.4-6.4,6.4h-41.1c-3.5,0-6.4-2.9-6.4-6.4v-6.5
				C165.1,132,168,129.1,171.5,129.1z"/>
			<path class="st17" d="M183.3,138.6c0,4.5-3.6,8.1-8.1,8.1c-2,0-3.9-0.7-5.4-2c-0.3-0.3-0.6-0.6-0.9-0.9
				c-2.9-3.4-2.4-8.6,1.1-11.4c3.4-2.9,8.6-2.4,11.4,1.1C182.6,134.9,183.3,136.8,183.3,138.6L183.3,138.6z"/>
			<circle class="st17" cx="175.2" cy="136.7" r="3.1"/>
			<path class="st17" d="M180.6,144.7c-3.1,2.7-7.7,2.7-10.7,0c0.3-1.2,1-2.2,2-2.8c2-1.4,4.7-1.4,6.7,0
				C179.6,142.5,180.3,143.6,180.6,144.7z"/>
			<path class="st18" d="M186.7,137L186.7,137l0.5-1.5c0,0,0-0.1,0-0.1l-1.4-1.1l0,0h0.1h1.7l0.5-1.6l0,0l0,0l0.6,1.6c0,0,0,0,0.1,0
				h1.7l0,0l-1.4,0.9c0,0,0,0.1,0,0.1l0.6,1.6v0h-0.1l-1.4-1c0,0-0.1,0-0.1,0L186.7,137L186.7,137z"/>
			<path class="st18" d="M192.8,137L192.8,137l0.5-1.5c0,0,0-0.1,0-0.1l-1.4-1.1l0,0h0.1h1.7l0.5-1.6l0,0l0,0l0.6,1.6c0,0,0,0,0.1,0
				h1.7l0,0l-1.4,0.9c0,0,0,0.1,0,0.1l0.6,1.6v0h-0.1l-1.4-1c0,0-0.1,0-0.1,0L192.8,137L192.8,137z"/>
			<path class="st18" d="M199,137L199,137l0.5-1.5c0,0,0-0.1,0-0.1l-1.5-1.1l0,0h0.1h1.7l0.5-1.6l0,0l0,0l0.6,1.6c0,0,0,0,0.1,0h1.7
				l0,0l-1.4,0.9c0,0,0,0.1,0,0.1l0.6,1.6v0h-0.1l-1.4-1c0,0-0.1,0-0.1,0L199,137L199,137z"/>
			<path class="st18" d="M205.1,137L205.1,137l0.5-1.5c0,0,0-0.1,0-0.1l-1.4-1.1l0,0h0.1h1.7l0.5-1.6l0,0l0,0l0.6,1.6c0,0,0,0,0.1,0
				h1.7l0,0l-1.4,0.9c0,0,0,0.1,0,0.1l0.6,1.6v0H208l-1.4-1c0,0-0.1,0-0.1,0L205.1,137L205.1,137z"/>
			<path class="st18" d="M211.3,137L211.3,137l0.5-1.5c0,0,0-0.1,0-0.1l-1.4-1.1l0,0h0.1h1.7l0.5-1.6l0,0l0,0l0.6,1.6c0,0,0,0,0.1,0
				h1.7l0,0l-1.4,0.9c0,0,0,0.1,0,0.1l0.6,1.6v0h-0.1l-1.4-1c0,0-0.1,0-0.1,0L211.3,137L211.3,137z"/>
			<path class="st17" d="M186.3,139h28.1c0.4,0,0.6,0.3,0.6,0.6v0c0,0.4-0.3,0.6-0.6,0.6h-28.1c-0.4,0-0.6-0.3-0.6-0.6v0
				C185.7,139.3,186,139,186.3,139z"/>
			<path class="st17" d="M214.4,141.7h-28.1c-0.4,0-0.6,0.3-0.6,0.6l0,0c0,0.4,0.3,0.6,0.6,0.6h28.1c0.4,0,0.6-0.3,0.6-0.6l0,0
				C215,142,214.8,141.7,214.4,141.7z"/>
			<path class="st17" d="M138.8,200c0-0.1,0-0.1,0-0.2c0.7-2,1.3-4,1.9-6c0.1-0.1,0-0.3-0.1-0.3c0,0,0,0,0,0l-5.8-4.3
				c-0.1,0-0.1-0.1-0.1-0.1h0.4l7-0.1c0.1,0,0.2-0.1,0.2-0.2c0.7-2.2,1.4-4.3,2.1-6.5l0.1-0.2l0.1,0.2c0.8,2.2,1.6,4.4,2.4,6.6
				c0,0.1,0.2,0.2,0.3,0.2h6.5c0.1,0,0.2,0,0.3,0l-0.1,0.1l-5.6,3.8c-0.1,0-0.2,0.2-0.1,0.3c0,0,0,0,0,0c0.8,2.2,1.5,4.4,2.3,6.6
				c0,0.1,0,0.1,0.1,0.2l-0.3-0.2l-5.5-3.9c-0.1-0.1-0.2-0.1-0.3,0l-5.5,3.8L138.8,200z"/>
			<path class="st17" d="M160.7,200c0-0.1,0-0.1,0.1-0.2c0.7-2,1.3-4,1.9-6c0.1-0.1,0-0.3-0.1-0.3c0,0,0,0,0,0l-5.8-4.3
				c-0.1,0-0.1-0.1-0.1-0.1h0.4l7-0.1c0.1,0,0.2-0.1,0.2-0.2c0.7-2.2,1.4-4.3,2.1-6.5l0-0.2l0.1,0.2c0.8,2.2,1.6,4.4,2.4,6.6
				c0,0.1,0.2,0.2,0.3,0.2h6.5c0.1,0,0.2,0,0.3,0l-0.1,0.1l-5.6,3.8c-0.1,0-0.2,0.2-0.1,0.3c0,0,0,0,0,0c0.8,2.2,1.5,4.4,2.3,6.6
				c0,0.1,0,0.1,0.1,0.2l-0.3-0.2l-5.5-3.9c-0.1-0.1-0.2-0.1-0.3,0l-5.5,3.8L160.7,200z"/>
			<path class="st17" d="M182.7,200c0-0.1,0-0.1,0-0.2c0.7-2,1.3-4,1.9-6c0.1-0.1,0-0.3-0.1-0.3c0,0,0,0,0,0l-5.8-4.3
				c-0.1,0-0.1-0.1-0.1-0.1h0.4l7-0.1c0.1,0,0.2-0.1,0.2-0.2c0.7-2.2,1.4-4.3,2.1-6.5l0.1-0.2l0.1,0.2c0.8,2.2,1.6,4.4,2.4,6.6
				c0,0.1,0.2,0.2,0.3,0.2h6.5c0.1,0,0.2,0,0.3,0l-0.1,0.1l-5.6,3.8c-0.1,0-0.2,0.2-0.1,0.3c0,0,0,0,0,0c0.8,2.2,1.5,4.4,2.3,6.6
				c0,0.1,0,0.1,0.1,0.2l-0.3-0.2l-5.5-3.9c-0.1-0.1-0.2-0.1-0.3,0l-5.5,3.8L182.7,200z"/>
			<path class="st17" d="M204.6,200c0-0.1,0-0.1,0.1-0.2c0.7-2,1.3-4,1.9-6c0.1-0.1,0-0.3-0.1-0.3c0,0,0,0,0,0l-5.8-4.3
				c-0.1,0-0.1-0.1-0.1-0.1h0.4l7-0.1c0.1,0,0.2-0.1,0.2-0.2c0.7-2.2,1.4-4.3,2.1-6.5l0-0.2l0.1,0.2c0.8,2.2,1.6,4.4,2.4,6.6
				c0,0.1,0.2,0.2,0.3,0.2h6.5c0.1,0,0.2,0,0.3,0l-0.1,0.1l-5.6,3.8c-0.1,0-0.2,0.2-0.1,0.3c0,0,0,0,0,0c0.8,2.2,1.5,4.4,2.3,6.6
				c0,0.1,0,0.1,0.1,0.2l-0.3-0.2l-5.5-3.9c-0.1-0.1-0.2-0.1-0.3,0l-5.5,3.8L204.6,200z"/>
			<path class="st17" d="M68.6,98.7L102.7,50c2-2.9,6-3.6,8.9-1.6l10.7,7.5c2.9,2,3.6,6,1.6,8.9l-34.1,48.7c-2,2.9-6,3.6-8.9,1.6
				l-10.7-7.5C67.3,105.6,66.6,101.6,68.6,98.7z"/>
			<path class="st17" d="M89.4,91.3c4.9,3.4,6.1,10.2,2.7,15.1c-1.5,2.2-3.8,3.7-6.3,4.3c-0.6,0.1-1.1,0.2-1.7,0.3
				c-6,0.5-11.2-4-11.7-10c-0.5-6,4-11.2,10-11.7C84.8,89.1,87.3,89.8,89.4,91.3L89.4,91.3z"/>
			<ellipse transform="matrix(0.5734 -0.8193 0.8193 0.5734 -46.2668 108.447)" class="st17" cx="81" cy="98.7" rx="4.2" ry="4.2"/>
			<path class="st17" d="M94,98.9c0.6,5.4-2.9,10.5-8.2,11.8c-1.1-1.2-1.6-2.8-1.6-4.4c0-3.3,2.1-6.2,5.2-7.4
				C90.8,98.4,92.5,98.4,94,98.9z"/>
			<path class="st17" d="M90.1,86.3L90.1,86.3l-1.3-1.7c0,0-0.1,0-0.1,0l-2.3,0.8h-0.1l0.1-0.1l1.3-1.9c0,0,0-0.1,0-0.1l-1.4-1.8
				l0,0h0.1l2.3,0.6c0,0,0.1,0,0.1,0l1.2-1.9l0.1-0.1c0,0,0,0,0,0.1c0,0.8,0,1.5,0,2.3c0,0,0,0.1,0,0.1c0,0,0,0,0,0l2.2,0.6h0.1
				h-0.1l-2.1,0.8c0,0-0.1,0-0.1,0.1c0,0.7,0,1.5,0,2.2C90.2,87.3,90.1,86.2,90.1,86.3z"/>
			<path class="st17" d="M94.9,79.5L94.9,79.5l-1.3-1.7c0,0-0.1,0-0.1,0l-2.3,0.8h-0.1l0.1-0.1l1.3-1.9c0,0,0-0.1,0-0.1l-1.4-1.8
				l0,0h0.1l2.3,0.6c0,0,0.1,0,0.1,0l1.2-1.8l0.1-0.1c0,0,0,0,0,0.1c0,0.8,0,1.5,0,2.3c0,0,0,0.1,0,0.1c0,0,0,0,0,0l2.2,0.6h0.1
				h-0.1L95,77.2c0,0-0.1,0-0.1,0.1c0,0.7,0,1.5,0,2.2C95,80.6,94.9,79.5,94.9,79.5z"/>
			<path class="st17" d="M99.6,72.7L99.6,72.7L98.3,71c0,0-0.1,0-0.1,0l-2.3,0.8h-0.1l0.1-0.1l1.3-1.9c0,0,0-0.1,0-0.1l-1.4-1.8l0,0
				h0.1l2.3,0.6c0,0,0.1,0,0.1,0l1.2-1.8l0.1-0.1c0,0,0,0,0,0.1c0,0.8,0,1.5,0,2.3c0,0,0,0.1,0,0.1c0,0,0,0,0,0l2.2,0.6h0.1h-0.1
				l-2.1,0.8c0,0-0.1,0-0.1,0.1C99.7,71.2,99.7,72,99.6,72.7C99.7,73.8,99.6,72.7,99.6,72.7z"/>
			<path class="st17" d="M104.3,66L104.3,66l-1.3-1.7c0,0-0.1,0-0.1,0l-2.3,0.8h-0.1l0.1-0.1L102,63c0,0,0-0.1,0-0.1l-1.4-1.8l0,0
				h0.1l2.3,0.6c0,0,0.1,0,0.1,0l1.2-1.8l0.1-0.1c0,0,0,0,0,0.1c0,0.8,0,1.5,0,2.3c0,0,0,0.1,0,0.1c0,0,0,0,0,0l2.2,0.6h0.1h-0.1
				l-2.1,0.8c0,0-0.1,0-0.1,0.1C104.4,64.5,104.4,65.2,104.3,66C104.4,67.1,104.3,66,104.3,66z"/>
			<path class="st17" d="M109,59.2L109,59.2l-1.3-1.7c0,0-0.1,0-0.1,0l-2.3,0.8h-0.1l0.1-0.1l1.3-1.9c0,0,0-0.1,0-0.1l-1.4-1.8l0,0
				h0.1l2.3,0.6c0,0,0.1,0,0.1,0l1.2-1.8l0-0.2c0,0,0,0,0,0.1c0,0.8,0,1.5,0,2.3c0,0,0,0.1,0,0.1c0,0,0,0,0,0l2.2,0.6h0.1h-0.1
				l-2.1,0.8c0,0-0.1,0-0.1,0.1C109.1,57.6,109.1,58.4,109,59.2C109.1,60.2,109,59.2,109,59.2z"/>
			<path class="st17" d="M113.7,57.4L92.1,88.2c-0.3,0.4-0.2,0.9,0.2,1.2l0,0c0.4,0.3,0.9,0.2,1.2-0.2l21.6-30.8
				c0.3-0.4,0.2-0.9-0.2-1.2l0,0C114.5,56.9,114,57,113.7,57.4z"/>
			<path class="st17" d="M116.7,59.5L95.1,90.3c-0.3,0.4-0.2,0.9,0.2,1.2l0,0c0.4,0.3,0.9,0.2,1.2-0.2l21.6-30.8
				c0.3-0.4,0.2-0.9-0.2-1.2l0,0C117.5,59,117,59.1,116.7,59.5z"/>
			<path class="st15" d="M65.6,105.8c1-1.2,2.7-2.9,3.5-4s3.2,0.7,3.3,1.6c0.1,1.3-1.2,4.9-2.9,4.9s-2.2,1.5-3.6,1.1
				S63.9,107.6,65.6,105.8z"/>
			<path class="st15" d="M122.5,54.9c-0.8,1.3-1,4.9-2.8,2.9c-2.1-2.2-3.7-2.7-2.9-4.2c1.5-2.7,2.1-2.4,4-1.9
				C122,52.1,123.3,53.6,122.5,54.9z"/>
			
				<linearGradient id="SVGID_17_" gradientUnits="userSpaceOnUse" x1="6322.8525" y1="171.0634" x2="6277.1924" y2="203.9933" gradientTransform="matrix(-1 0 0 -1 6556.8501 255.89)">
				<stop  offset="0" style="stop-color:#2C27CE"/>
				<stop  offset="0.65" style="stop-color:#EF1D68"/>
				<stop  offset="1" style="stop-color:#EFBA92"/>
			</linearGradient>
			<path class="st19" d="M262.3,48.3c-1.6-2.3,0.2-6.4,4.9-6.8c5.3-0.4,14.8,2.6,9.7,15c-5.3,12.9-3.6,16.2-0.1,18.1
				c0,0-12.2,1-11.2-9.7S266.1,53.6,262.3,48.3z"/>
			
				<linearGradient id="SVGID_18_" gradientUnits="userSpaceOnUse" x1="2081.5825" y1="-6527.2168" x2="2067.4724" y2="-6562.377" gradientTransform="matrix(-0.61 -0.79 0.79 -0.61 6692.6392 -2286.8813)">
				<stop  offset="0" style="stop-color:#F70F47"/>
				<stop  offset="1" style="stop-color:#9E005D"/>
			</linearGradient>
			<path class="st20" d="M237.2,83c2.2-0.9,8-4.8,15.9-9.7c2.4-1.1,5.1-1.3,7.6-0.6c1.6,0.5,2.5,3-0.1,4.8c-2.7,1.9-5.6,3.6-8.5,5.1
				c-8.4,4.5-12.4,5.6-14.2,5.9C235.7,88.9,234,84.4,237.2,83z"/>
			
				<linearGradient id="SVGID_19_" gradientUnits="userSpaceOnUse" x1="10414.6182" y1="232.3715" x2="10398.8184" y2="192.9915" gradientTransform="matrix(-0.69 0.73 -0.73 -0.69 7518.2134 -7378.1509)">
				<stop  offset="0" style="stop-color:#F70F47"/>
				<stop  offset="1" style="stop-color:#9E005D"/>
			</linearGradient>
			<path class="st21" d="M219.5,94.1c1.8-0.7,13-8.8,15.9-10c3.5-1.4,4.8,2.9,2.3,4.6c-3.5,2.5-7.3,4.3-11.4,5.5
				c-4.1,1.4-4.7,3-6,2.6C219.3,96.5,218.3,94.6,219.5,94.1z"/>
			<path class="st22" d="M264.1,63.7c0,0.3,0.5,5.9,0.5,10.2c0,2.1-1.5,4.1-3,4.2h-0.1c-1.5,0-3.3-1.9-3.1-4c0.2-3.8,0.1-7.6,0-7.7
				L264.1,63.7z"/>
			
				<linearGradient id="SVGID_20_" gradientUnits="userSpaceOnUse" x1="6297.5254" y1="174.9718" x2="6302.7451" y2="130.1918" gradientTransform="matrix(-1 0 0 -1 6556.8501 255.89)">
				<stop  offset="0" style="stop-color:#F70F47"/>
				<stop  offset="1" style="stop-color:#9E005D"/>
			</linearGradient>
			<path class="st23" d="M268.5,88.1c-1.2,3.9-2.1,7.8-2.7,11.8c-0.4,3-0.4,6,0,8.9c0.2,1.8,0.6,3.5,1,5.3c0.1,0.7,1.5,6,1.5,6.6
				h-24.4c0.2-4.8,5.7-19.8,2-29.5c-2.6-6.7,0.8-6.9,3.1-12.5c0.5-1.4,1.1-2.8,1.9-4.1c1-1.1,2.3-1.9,3.7-2.3
				c0.7-0.2,1.5-0.2,2.3-0.3c4.1-0.3,13.9-1.5,14.8,4.3c0.2,1.6,0,3.2-0.5,4.8c-0.5,1.7-1.4,3.3-2,5C269,86.7,268.7,87.4,268.5,88.1
				z"/>
			
				<linearGradient id="SVGID_21_" gradientUnits="userSpaceOnUse" x1="6306.792" y1="143.8492" x2="6286.1318" y2="83.7292" gradientTransform="matrix(-1 0 0 -1 6556.8501 255.89)">
				<stop  offset="0" style="stop-color:#36078B"/>
				<stop  offset="1" style="stop-color:#168D68"/>
			</linearGradient>
			<path class="st24" d="M268.2,136.2c0,0,2.1-5.3,0.1-15.5h-24.4c-0.6,5.1-0.9,10.3-0.9,15.5H268.2z"/>
			
				<linearGradient id="SVGID_22_" gradientUnits="userSpaceOnUse" x1="6355.3911" y1="1539.6624" x2="6334.2813" y2="1478.2024" gradientTransform="matrix(-0.99 0.15 -0.15 -0.99 6745.7134 660.5381)">
				<stop  offset="0" style="stop-color:#36078B"/>
				<stop  offset="1" style="stop-color:#16B1FF"/>
			</linearGradient>
			<path class="st25" d="M263.9,170.4c-3.2-7.8,4.6-10.5,8-5c4.9,7.8,7,36.5,7.6,41.9c0.1,0.7-0.3,0.6-0.7,0.6
				c-1.2-0.2-0.7-1.4-2.4-1.3c-0.9,0.1-1.2,1.3-1.2,1.3C273.4,200.7,267,178,263.9,170.4z"/>
			
				<linearGradient id="SVGID_23_" gradientUnits="userSpaceOnUse" x1="6303.4795" y1="144.9933" x2="6282.8296" y2="84.8632" gradientTransform="matrix(-1 0 0 -1 6556.8501 255.89)">
				<stop  offset="0" style="stop-color:#36078B"/>
				<stop  offset="1" style="stop-color:#16B1FF"/>
			</linearGradient>
			<path class="st26" d="M256.1,137.3c-0.9-10.2,3-18.2,9.2-14.8c2.6,1.4,3.5,4.3,3.9,6.9c0.3,2.7,2.2,30.6,2.9,35.6
				c1.5,11.3-7.1,8.3-8.1,5.1C261.6,162.2,256.6,142.9,256.1,137.3z"/>
			
				<linearGradient id="SVGID_24_" gradientUnits="userSpaceOnUse" x1="6332.8833" y1="134.8923" x2="6312.2231" y2="74.7623" gradientTransform="matrix(-1 0 0 -1 6556.8501 255.89)">
				<stop  offset="0" style="stop-color:#36078B"/>
				<stop  offset="1" style="stop-color:#16B1FF"/>
			</linearGradient>
			<path class="st27" d="M241.7,168.8c-0.3-7.7,6.9-7.5,8.7-1.3c2.9,9.8-2.1,31-2.4,43c-1.3-2.1-2.4-2.6-3-2.6
				c-0.6,0.1-1.1,0.3-1.4,0.8C243.8,192.9,242,177,241.7,168.8z"/>
			
				<linearGradient id="SVGID_25_" gradientUnits="userSpaceOnUse" x1="6319.2261" y1="139.578" x2="6298.5757" y2="79.448" gradientTransform="matrix(-1 0 0 -1 6556.8501 255.89)">
				<stop  offset="0" style="stop-color:#36078B"/>
				<stop  offset="1" style="stop-color:#16B1FF"/>
			</linearGradient>
			<path class="st28" d="M250.1,169.6c-1,3.1-9.2,6.8-8.4-4.6c0.4-5.1,1.4-33,1.6-35.7s0.6-6.6,2-7.1c6.5-2.5,12.8,5.6,11.1,15.7
				C255.3,144.6,252.1,163.1,250.1,169.6z"/>
			<path class="st15" d="M267,59.6c-0.5,4.8-0.6,5.9-2.7,7.8c-2,1.8-4.7,2.8-7.4,2.9c-2.5,0-4.3-2.6-4.9-4.6
				c-0.9-4-1.1-8.2-0.6-12.3c0.4-2.7,3.6-5.9,7-5.9S268.2,47.9,267,59.6z"/>
			
				<linearGradient id="SVGID_26_" gradientUnits="userSpaceOnUse" x1="6313.2153" y1="21.9379" x2="6315.5454" y2="50.708" gradientTransform="matrix(-1 0 0 -1 6556.8501 255.89)">
				<stop  offset="0" style="stop-color:#2C27CE"/>
				<stop  offset="0.65" style="stop-color:#EF1D68"/>
				<stop  offset="1" style="stop-color:#EFBA92"/>
			</linearGradient>
			<path class="st29" d="M243.3,208.7c-0.9,1.2-2.1,2.1-3.5,2.6c-1.9,0.8-5.8,1.2-3.6,1.9c2,0.5,4,0.5,6,0.1c1.3-0.2,2.7-0.3,4-0.2
				c2,0,2-0.1,1.7-2.4C247.7,207.6,244.2,207,243.3,208.7z"/>
			
				<linearGradient id="SVGID_27_" gradientUnits="userSpaceOnUse" x1="6280.186" y1="16.5995" x2="6283.126" y2="52.8595" gradientTransform="matrix(-1 0 0 -1 6556.8501 255.89)">
				<stop  offset="0" style="stop-color:#2C27CE"/>
				<stop  offset="0.65" style="stop-color:#EF1D68"/>
				<stop  offset="1" style="stop-color:#EFBA92"/>
			</linearGradient>
			<path class="st30" d="M275.3,207.3c-0.3,0.5-0.6,3.2-2.4,4s-5.8,1.2-3.6,1.9c2,0.5,4,0.5,6,0.1c1.3-0.2,1.5-1.6,3-1.6
				c2,0,2-0.1,1.7-2.4C279.7,206.2,276.2,205.6,275.3,207.3z"/>
			
				<linearGradient id="SVGID_28_" gradientUnits="userSpaceOnUse" x1="6317.3608" y1="177.3509" x2="6291.4609" y2="206.9109" gradientTransform="matrix(-1 0 0 -1 6556.8501 255.89)">
				<stop  offset="0" style="stop-color:#2C27CE"/>
				<stop  offset="0.65" style="stop-color:#EF1D68"/>
				<stop  offset="1" style="stop-color:#EFBA92"/>
			</linearGradient>
			<path class="st31" d="M252.3,50.9c-1.9,3.2,11.8,9.1,14.9,8.6s3-7,0.7-9.9S256.8,43.3,252.3,50.9z"/>
			
				<linearGradient id="SVGID_29_" gradientUnits="userSpaceOnUse" x1="6322.6846" y1="182.0151" x2="6296.7847" y2="211.5751" gradientTransform="matrix(-1 0 0 -1 6556.8501 255.89)">
				<stop  offset="0" style="stop-color:#2C27CE"/>
				<stop  offset="0.65" style="stop-color:#EF1D68"/>
				<stop  offset="1" style="stop-color:#EFBA92"/>
			</linearGradient>
			<path class="st32" d="M257.4,50.1c-0.5,2.7-5.3,3.3-6.1,5.6c-0.5,1.4-0.7-3,0.4-5S258.4,44.6,257.4,50.1z"/>
			
				<ellipse transform="matrix(0.378 -0.9258 0.9258 0.378 110.3228 284.8945)" class="st15" cx="267.2" cy="60.3" rx="3.3" ry="1.7"/>
			<path class="st15" d="M263.6,115.5c-1.3,0.6-2.4,1.4-3.3,2.5c-0.5,0.9,1.5-0.1,2.5-0.5S264.7,114.9,263.6,115.5z"/>
			<path class="st15" d="M262.9,116.9c-1.7,2.5-3,3.5-3.1,5s2.5,0.5,3.2-0.3s3.5-3.4,3.3-4.7S264.2,115.1,262.9,116.9z"/>
			
				<linearGradient id="SVGID_30_" gradientUnits="userSpaceOnUse" x1="4244.1675" y1="-1815.3174" x2="4228.6177" y2="-1854.0774" gradientTransform="matrix(-0.9 -0.44 0.44 -0.9 4891.0264 302.9098)">
				<stop  offset="0" style="stop-color:#F70F47"/>
				<stop  offset="1" style="stop-color:#9E005D"/>
			</linearGradient>
			<path class="st33" d="M271.2,99.3c-0.4-2.3-2.8-8.9-5.7-17.7c-0.5-2.6-0.1-5.2,1.2-7.5c0.9-1.4,3.5-1.7,4.7,1.2
				c1.2,3.1,2.2,6.2,3,9.5c2.4,9.2,2.5,13.3,2.4,15.2C276.6,102.1,271.8,102.7,271.2,99.3z"/>
			
				<linearGradient id="SVGID_31_" gradientUnits="userSpaceOnUse" x1="7256.5723" y1="3140.8601" x2="7248.7324" y2="3121.3201" gradientTransform="matrix(-0.88 0.48 -0.48 -0.88 8149.5151 -623.3164)">
				<stop  offset="0" style="stop-color:#F70F47"/>
				<stop  offset="1" style="stop-color:#9E005D"/>
			</linearGradient>
			<path class="st34" d="M263.3,115.5c1.2-1.6,6.7-14.9,8.6-17.6c2.3-3.2,5.9-0.1,4.5,2.8c-2,4.4-2.9,6-7,11.1
				c-2.9,3.5-2.5,5.2-3.9,5.6C264.4,117.7,262.5,116.6,263.3,115.5z"/>
			<path class="st15" d="M220.7,98.9c-0.4,0.8-1,1.5-1.8,1.9c-0.4,0.1-1-0.8-0.9-2.2c0.1-1.3,0.8-4.5,1.4-4.7
				c0.6-0.2,1.2,0.5,1.7,1.5C221.5,96.6,221.4,97.9,220.7,98.9z"/>
			<path class="st15" d="M219.3,94c-1.3,0.6-2.4,1.4-3.3,2.5c-0.5,0.9,1.5-0.1,2.5-0.5S220.4,93.4,219.3,94z"/>
		</g>
	</g>
</g>
</svg>
