<svg xmlns="http://www.w3.org/2000/svg" xmlns:xlink="http://www.w3.org/1999/xlink" viewBox="0 0 308.12 255.7"><defs><style>.cls-1,.cls-5,.cls-6,.cls-7,.cls-8,.cls-9{fill:none;}.cls-2{isolation:isolate;}.cls-3,.cls-4{opacity:0.15;}.cls-3{fill:url(#Gradient_bez_nazwy_5);}.cls-4{fill:url(#Gradient_bez_nazwy_5-2);}.cls-5,.cls-6,.cls-7,.cls-8,.cls-9{stroke:#0037ff;}.cls-5,.cls-6,.cls-7,.cls-8{stroke-miterlimit:10;}.cls-27,.cls-40,.cls-42,.cls-6,.cls-7{mix-blend-mode:multiply;}.cls-7{opacity:0.57;}.cls-8,.cls-9{stroke-linecap:round;}.cls-8{stroke-width:3.75px;}.cls-9{stroke-linejoin:round;}.cls-10{fill:url(#Gradient_bez_nazwy_4);}.cls-11{fill:url(#Gradient_bez_nazwy_2);}.cls-12{fill:url(#Gradient_bez_nazwy_2-2);}.cls-13{fill:#ea8f68;}.cls-14{fill:url(#Gradient_bez_nazwy_2-3);}.cls-15{fill:url(#Gradient_bez_nazwy_10);}.cls-16{fill:url(#Gradient_bez_nazwy_5-3);}.cls-17{fill:url(#Gradient_bez_nazwy_5-4);}.cls-18{fill:url(#Gradient_bez_nazwy_5-5);}.cls-19{fill:url(#Gradient_bez_nazwy_5-6);}.cls-20{fill:#ffaf84;}.cls-21{fill:url(#Gradient_bez_nazwy_4-2);}.cls-22{fill:url(#Gradient_bez_nazwy_4-3);}.cls-23{fill:url(#Gradient_bez_nazwy_4-4);}.cls-24{fill:url(#Gradient_bez_nazwy_4-5);}.cls-25{fill:url(#Gradient_bez_nazwy_2-4);}.cls-26{fill:url(#Gradient_bez_nazwy_2-5);}.cls-27,.cls-40,.cls-42{opacity:0.3;}.cls-27{fill:url(#Gradient_bez_nazwy_3);}.cls-28{fill:url(#Gradient_bez_nazwy_5-7);}.cls-29{fill:url(#Gradient_bez_nazwy_5-8);}.cls-30{fill:#f70f47;}.cls-31{fill:#ed9169;}.cls-32{fill:url(#Gradient_bez_nazwy_5-9);}.cls-33{fill:url(#Gradient_bez_nazwy_2-6);}.cls-34{fill:url(#Gradient_bez_nazwy_2-7);}.cls-35{fill:url(#Gradient_bez_nazwy_2-8);}.cls-36{fill:url(#Gradient_bez_nazwy_2-9);}.cls-37{fill:url(#Gradient_bez_nazwy_2-10);}.cls-38{fill:url(#Gradient_bez_nazwy_5-10);}.cls-39{fill:url(#Gradient_bez_nazwy_5-11);}.cls-40{fill:url(#Gradient_bez_nazwy_3-2);}.cls-41{clip-path:url(#clip-path);}.cls-42{fill:url(#Gradient_bez_nazwy_3-3);}</style><linearGradient id="Gradient_bez_nazwy_5" x1="84.74" y1="127.85" x2="308.12" y2="127.85" gradientUnits="userSpaceOnUse"><stop offset="0" stop-color="#36078b"/><stop offset="1" stop-color="#16b1ff"/></linearGradient><linearGradient id="Gradient_bez_nazwy_5-2" x1="0" y1="127.85" x2="255.7" y2="127.85" xlink:href="#Gradient_bez_nazwy_5"/><linearGradient id="Gradient_bez_nazwy_4" x1="3193.16" y1="96.02" x2="3147.87" y2="63.36" gradientTransform="matrix(-1, 0, 0, 1, 3424.67, 0)" gradientUnits="userSpaceOnUse"><stop offset="0" stop-color="#2c27ce"/><stop offset="0.65" stop-color="#ef1d68"/><stop offset="1" stop-color="#efba92"/></linearGradient><linearGradient id="Gradient_bez_nazwy_2" x1="727.45" y1="3740.22" x2="713.46" y2="3775.1" gradientTransform="matrix(-0.61, -0.79, -0.79, 0.61, 3655.04, -1637.74)" gradientUnits="userSpaceOnUse"><stop offset="0" stop-color="#f70f47"/><stop offset="1" stop-color="#9e005d"/></linearGradient><linearGradient id="Gradient_bez_nazwy_2-2" x1="-1088.93" y1="-2977.67" x2="-1104.6" y2="-2938.61" gradientTransform="matrix(0.7, 0.72, 0.72, -0.7, 3119.98, -1157.3)" xlink:href="#Gradient_bez_nazwy_2"/><linearGradient id="Gradient_bez_nazwy_2-3" x1="3168.03" y1="92.14" x2="3173.2" y2="136.56" gradientTransform="matrix(-1, 0, 0, 1, 3424.67, 0)" xlink:href="#Gradient_bez_nazwy_2"/><linearGradient id="Gradient_bez_nazwy_10" x1="3177.23" y1="123.01" x2="3156.74" y2="182.65" gradientTransform="matrix(-1, 0, 0, 1, 3424.67, 0)" gradientUnits="userSpaceOnUse"><stop offset="0" stop-color="#36078b"/><stop offset="1" stop-color="#168d68"/></linearGradient><linearGradient id="Gradient_bez_nazwy_5-3" x1="3224.47" y1="-653.15" x2="3203.53" y2="-592.19" gradientTransform="matrix(-0.99, 0.15, 0.15, 0.99, 3521, 275.85)" xlink:href="#Gradient_bez_nazwy_5"/><linearGradient id="Gradient_bez_nazwy_5-4" x1="3173.93" y1="121.88" x2="3153.44" y2="181.51" gradientTransform="matrix(-1, 0, 0, 1, 3424.67, 0)" xlink:href="#Gradient_bez_nazwy_5"/><linearGradient id="Gradient_bez_nazwy_5-5" x1="3203.11" y1="131.9" x2="3182.62" y2="191.54" gradientTransform="matrix(-1, 0, 0, 1, 3424.67, 0)" xlink:href="#Gradient_bez_nazwy_5"/><linearGradient id="Gradient_bez_nazwy_5-6" x1="3189.56" y1="127.25" x2="3169.07" y2="186.89" gradientTransform="matrix(-1, 0, 0, 1, 3424.67, 0)" xlink:href="#Gradient_bez_nazwy_5"/><linearGradient id="Gradient_bez_nazwy_4-2" x1="3183.57" y1="243.93" x2="3185.89" y2="215.4" xlink:href="#Gradient_bez_nazwy_4"/><linearGradient id="Gradient_bez_nazwy_4-3" x1="3150.83" y1="249.23" x2="3153.75" y2="213.26" xlink:href="#Gradient_bez_nazwy_4"/><linearGradient id="Gradient_bez_nazwy_4-4" x1="3187.71" y1="89.79" x2="3162.02" y2="60.47" xlink:href="#Gradient_bez_nazwy_4"/><linearGradient id="Gradient_bez_nazwy_4-5" x1="3193" y1="85.16" x2="3167.31" y2="55.83" xlink:href="#Gradient_bez_nazwy_4"/><linearGradient id="Gradient_bez_nazwy_2-4" x1="4955.11" y1="-1172.76" x2="4938.28" y2="-1130.81" gradientTransform="matrix(-0.71, 0.18, 0.26, 0.97, 4104.76, 307.48)" xlink:href="#Gradient_bez_nazwy_2"/><linearGradient id="Gradient_bez_nazwy_2-5" x1="-3346.82" y1="-3593.84" x2="-3359.08" y2="-3563.28" gradientTransform="matrix(0.67, -0.74, 0.74, 0.67, 5183.75, -21.16)" xlink:href="#Gradient_bez_nazwy_2"/><linearGradient id="Gradient_bez_nazwy_3" x1="79.87" y1="219.6" x2="88.35" y2="219.6" gradientUnits="userSpaceOnUse"><stop offset="0" stop-color="blue"/><stop offset="1" stop-color="#9e005d"/></linearGradient><linearGradient id="Gradient_bez_nazwy_5-7" x1="144.4" y1="74.68" x2="114.29" y2="82.98" xlink:href="#Gradient_bez_nazwy_5"/><linearGradient id="Gradient_bez_nazwy_5-8" x1="144.42" y1="74.73" x2="114.3" y2="83.03" xlink:href="#Gradient_bez_nazwy_5"/><linearGradient id="Gradient_bez_nazwy_5-9" x1="98.23" y1="84.35" x2="103.45" y2="129.21" xlink:href="#Gradient_bez_nazwy_5"/><linearGradient id="Gradient_bez_nazwy_2-6" x1="87.39" y1="132.29" x2="116.56" y2="132.29" gradientTransform="matrix(1, 0, 0, 1, 0, 0)" xlink:href="#Gradient_bez_nazwy_2"/><linearGradient id="Gradient_bez_nazwy_2-7" x1="80.5" y1="192.75" x2="94.17" y2="192.75" gradientTransform="matrix(1, 0, 0, 1, 0, 0)" xlink:href="#Gradient_bez_nazwy_2"/><linearGradient id="Gradient_bez_nazwy_2-8" x1="84" y1="152.64" x2="102.11" y2="152.64" gradientTransform="matrix(1, 0, 0, 1, 0, 0)" xlink:href="#Gradient_bez_nazwy_2"/><linearGradient id="Gradient_bez_nazwy_2-9" x1="107.37" y1="194.95" x2="118.07" y2="194.95" gradientTransform="matrix(1, 0, 0, 1, 0, 0)" xlink:href="#Gradient_bez_nazwy_2"/><linearGradient id="Gradient_bez_nazwy_2-10" x1="101.31" y1="152.47" x2="118.06" y2="152.47" gradientTransform="matrix(1, 0, 0, 1, 0, 0)" xlink:href="#Gradient_bez_nazwy_2"/><linearGradient id="Gradient_bez_nazwy_5-10" x1="79.07" y1="86.58" x2="84.3" y2="131.44" xlink:href="#Gradient_bez_nazwy_5"/><linearGradient id="Gradient_bez_nazwy_5-11" x1="82.41" y1="86.19" x2="87.64" y2="131.05" xlink:href="#Gradient_bez_nazwy_5"/><linearGradient id="Gradient_bez_nazwy_3-2" x1="110.84" y1="220.76" x2="124.83" y2="220.76" xlink:href="#Gradient_bez_nazwy_3"/><clipPath id="clip-path"><path class="cls-1" d="M142.85,57.76c-1.19-1.19-3.61,3.28-5.2,6.7-.27-1.2-.68-2.22-1.39-2.1s-.37,4.06-.3,4.72a4.86,4.86,0,0,0,.18,1s0,.09,0,.13c-2.22,2.65-10.76,10-12.56,13-3.22-.92-9-3.07-16.23-5.27a3.05,3.05,0,0,0-1.08-.06,22.3,22.3,0,0,0-5.33-.95c0-.47,0-.92,0-1.35,2.08-.29,3.61-2.5,4.09-4.28a27.16,27.16,0,0,0,.73-5.19,5.19,5.19,0,0,0,.34-.89c.37-1.29,1-5.24-.25-6.8,2.29-1.35,1.9-6.12-1.83-6.47-2.23,0-.61.53-2.42,1.26-.9.37-10.82.72-9.24,3.42-.76.12-1.37.74-1.77,2.25-.56,2.1-.8,3.42-.49,4.5a.88.88,0,0,0-.36.06c-.82.33-1,1.87-.33,3.42a3.6,3.6,0,0,0,2,2.24,5.82,5.82,0,0,0,1.93,3.65c-.11,1.3-.22,2.84-.29,4.35-1,.13-1.91.3-2.79.46a12.62,12.62,0,0,0-2.29.65,4.33,4.33,0,0,0-1.66.86A7,7,0,0,0,83.76,80c-1,1.28-2.32,3.07-4.09,5.79-5.17,8-6.38,11.74-6.66,13.46a1,1,0,0,0,0,.39,1.73,1.73,0,0,0,.14.66c2,4.47,2.87,6.1,8.09,11.56a48.24,48.24,0,0,0,5,5,1.58,1.58,0,0,0,1.29,1.67,1.52,1.52,0,0,0,.94,0,54,54,0,0,1-.15,5.43,43.59,43.59,0,0,0-1,9.65c-.45,4-2.49,32.7-3.21,38,0,.21,0,.41-.07.61v0c-4,9.06-3.72,38-3.5,43.83,0,.3.09.46.2.53a4,4,0,0,0-.06,1.11A11,11,0,0,1,80,221.5c-.67,2.16,1.68,2.42,5.64,2.35,3.71-.07,2.76-1.51,2.15-2.41s-1.5-1.18-1.66-2.17c-.12-.71,0-1.14-.24-2.09h0c.85-7.88,5.85-32.37,8-41a10.68,10.68,0,0,0,.3-2.25c2.62-8.92,6.66-24.15,7.65-30.68,1.29,7.34,4.28,23.88,6.4,31.61-2.81,10.81,2.49,32.91,2.82,45.64v0c0,.08,0,.15,0,.23-.3,2.42-.28,2.55,1.94,2.57a30.27,30.27,0,0,1,4.51.26,15.05,15.05,0,0,0,6.68-.09c2.42-.78-1.94-1.2-4-2.08a9.23,9.23,0,0,1-3.86-2.81,1.78,1.78,0,0,0-.34-.43c-.17-16.92,1.76-33.77,2.14-42.51a11,11,0,0,0,0-1.48,19.6,19.6,0,0,0,0-2.63c-.31-4-1-20.85-1.43-30.94h0a154.68,154.68,0,0,0-1-16.65s-.14-21.81-1.6-36.12c7.74,1.6,11.28,1.5,12.93,1.21a1.59,1.59,0,0,0,1.46-.51c2.35-2.54,4.71-5.74,8.25-11.87,2-3.47,2.55-5.17,2.62-6.77a6.22,6.22,0,0,0,4.23-4.14C143.93,64.26,144.78,59.71,142.85,57.76ZM81.56,98.66c.85-1.16,2.09-2.69,3.58-4.54a120,120,0,0,1,3.06,18.45C86.23,108.26,83.29,100.85,81.56,98.66Z"/></clipPath><linearGradient id="Gradient_bez_nazwy_3-3" x1="-3737.04" y1="1647.63" x2="-3584.74" y2="1741.2" gradientTransform="matrix(-0.4, -0.87, 0.54, -0.47, -2313.62, -2255.79)" xlink:href="#Gradient_bez_nazwy_3"/></defs><title>smm-slide4</title><g class="cls-2"><g id="Слой_2" data-name="Слой 2"><g id="Background"><circle class="cls-3" cx="196.43" cy="127.85" r="111.69"/><circle class="cls-4" cx="127.85" cy="127.85" r="127.85"/></g><g id="Objects"><path class="cls-5" d="M124.78,149l.25-12.31a5.09,5.09,0,0,1,7.38-4.44l9.41,4.76S137.61,148.35,124.78,149Z"/><path class="cls-6" d="M152.38,197.22l-2.83,7.2a6,6,0,0,1-10.18-1.2l-3.45-15.77S146.77,187.47,152.38,197.22Z"/><path class="cls-5" d="M124.83,170.2"/><path class="cls-5" d="M136.61,190.62A43.81,43.81,0,0,1,133,186.7"/><path class="cls-5" d="M172.86,202.84a43.89,43.89,0,0,1-21.6-2.76"/><path class="cls-5" d="M214.13,189.34q-1.59.7-3.26,1.28l-22.11,7.72"/><path class="cls-5" d="M214.13,189.34"/><path class="cls-5" d="M133.3,132.48a43.87,43.87,0,0,1,19.54-13.67l28.71-10c28.59-10,58.59,11,58.59,40.92h0a43.07,43.07,0,0,1-10.75,28.44"/><path class="cls-5" d="M133.3,132.48"/><path class="cls-5" d="M124.83,170.2a43.36,43.36,0,0,1-1.27-10.46h0A42.88,42.88,0,0,1,125,148.55"/><path class="cls-7" d="M136.61,190.62A43.81,43.81,0,0,1,133,186.7"/><path class="cls-7" d="M172.5,202.89a43.89,43.89,0,0,1-21.24-2.8"/><path class="cls-7" d="M172.68,202.86l-.19,0"/><path class="cls-7" d="M213.93,189.43q-1.5.65-3.06,1.2l-21.81,7.62"/><path class="cls-7" d="M213.93,189.43"/><path class="cls-7" d="M238.56,138c-.78-3.76,1.6,7.62,1.6,11.71h0a43.06,43.06,0,0,1-10.44,28.09"/><path class="cls-8" d="M227.88,120.13s-.81-8.24,5.34-10c4.32-1.23,6,1.25,5.61,4.32-.81,5.68-15.68,2-10.14-9.29"/><path class="cls-6" d="M171.92,201.61l4.53,7.44a6,6,0,0,0,10.18-1.2L190,194.63S177.53,191.86,171.92,201.61Z"/><path class="cls-6" d="M211.9,186.26l4.55,7.11a6,6,0,0,0,10.18-1.2l3.1-14.47S217.47,178,211.9,186.26Z"/><circle class="cls-5" cx="154.94" cy="167.43" r="2.55"/><circle class="cls-5" cx="127.34" cy="164.88" r="2.55"/><path class="cls-5" d="M165.08,142.85l10.31-6.72a5.09,5.09,0,0,1,7.82,3.61l1.36,10.46S172.81,153.1,165.08,142.85Z"/><path class="cls-5" d="M126,170.13"/><path class="cls-5" d="M126,170.13c.15-.05,4.85-2.27,4.85-2.27s8.52-.68,11.7,3.77c2.87,4,2.73,8.77,0,10.7a39.55,39.55,0,0,1-6.27,3.48"/><ellipse class="cls-5" cx="131.03" cy="178.02" rx="8.13" ry="10.1" transform="translate(-84.83 225.6) rotate(-66.08)"/><ellipse class="cls-5" cx="133.8" cy="178.55" rx="0.76" ry="5.3"/><ellipse class="cls-5" cx="125.75" cy="176.89" rx="0.76" ry="5.3"/><path class="cls-5" d="M161.34,117.38l20.16-6.63a1.91,1.91,0,0,1,.7-.08l5.32.29a.24.24,0,0,1,.07.47l-20.53,7a1.46,1.46,0,0,1-.61.06l-5.06-.62A.24.24,0,0,1,161.34,117.38Z"/><path class="cls-9" d="M171.36,106.24a11.73,11.73,0,0,1-1.68.12c-6.72,0-12.17-5.71-12.17-12.74S163,80.88,169.68,80.88a11.7,11.7,0,0,1,2.25.22"/><ellipse class="cls-9" cx="172.4" cy="93.62" rx="12.17" ry="12.74"/><path class="cls-9" d="M220.52,52.08a8.33,8.33,0,0,1-.69,1,9.06,9.06,0,0,1-14-11.51A8.31,8.31,0,0,1,207,40.4"/><ellipse class="cls-9" cx="214.07" cy="45.8" rx="8.65" ry="9.05" transform="translate(42.63 181.94) rotate(-50.53)"/><path class="cls-9" d="M130.28,35.26a5.49,5.49,0,0,1,.41.67,6,6,0,0,1-10.62,5.44,5.48,5.48,0,0,1-.39-1"/><ellipse class="cls-9" cx="124.79" cy="37.52" rx="5.97" ry="5.7" transform="translate(-3.38 61.03) rotate(-27.13)"/><path class="cls-9" d="M184.42,53.13a8.63,8.63,0,0,1,.64,1.06,9.39,9.39,0,0,1-16.69,8.55,8.61,8.61,0,0,1-.61-1.55"/><ellipse class="cls-9" cx="175.81" cy="56.68" rx="9.38" ry="8.95" transform="translate(-6.51 86.4) rotate(-27.13)"/><path class="cls-10" d="M259.58,59.75c-1.63-2.29.23-6.34,4.86-6.72,5.27-.44,14.63,2.61,9.61,14.89-5.23,12.79-3.59,16.06-.07,18,0,0-12.07,1-11.15-9.58S263.35,65.07,259.58,59.75Z"/><path class="cls-11" d="M234.64,94.2c2.16-.94,7.93-4.8,15.76-9.66a10.64,10.64,0,0,1,7.5-.6c1.59.54,2.44,3-.06,4.77a67.91,67.91,0,0,1-8.41,5.11c-8.33,4.44-12.25,5.58-14.06,5.88C233.22,100.06,231.49,95.57,234.64,94.2Z"/><path class="cls-12" d="M242.27,114.17c-.65-1.79-8.13-13.31-9.2-16.25-1.27-3.48,3.1-4.67,4.67-2.05a38.56,38.56,0,0,1,5,11.51c1.23,4.16,2.73,4.8,2.29,6.08C244.64,114.51,242.7,115.36,242.27,114.17Z"/><path class="cls-13" d="M261.38,75.09c0,.26.44,5.85.52,10.14,0,2.1-1.48,4.1-3,4.15h-.07c-1.48,0-3.23-1.87-3.1-3.93.24-3.73.06-7.56.05-7.62Z"/><path class="cls-14" d="M265.72,99.24A73,73,0,0,0,263,111a29.75,29.75,0,0,0,0,8.84c.24,1.76.59,3.51,1,5.25.15.66,1.44,6,1.5,6.52H241.37c.23-4.74,5.63-19.63,2-29.27-2.53-6.68.83-6.88,3.11-12.44a16.33,16.33,0,0,1,1.93-4,7,7,0,0,1,3.7-2.27,13.78,13.78,0,0,1,2.25-.32c4.09-.33,13.73-1.52,14.64,4.31a10.32,10.32,0,0,1-.48,4.71c-.54,1.7-1.35,3.3-2,4.95Q266.07,98.22,265.72,99.24Z"/><path class="cls-15" d="M265.46,146.94s2.09-5.27.1-15.36H241.37a148,148,0,0,0-.88,15.36Z"/><path class="cls-16" d="M261.16,180.88c-3.18-7.78,4.55-10.44,8-5,4.84,7.71,6.94,36.21,7.57,41.51.08.7-.3.62-.71.54-1.19-.23-.69-1.35-2.4-1.24-.9.05-1.16,1.29-1.16,1.29C270.58,210.92,264.24,188.41,261.16,180.88Z"/><path class="cls-17" d="M253.46,148c-.85-10.15,3-18,9.09-14.69,2.55,1.41,3.49,4.23,3.83,6.89s2.22,30.28,2.88,35.28c1.49,11.25-7.08,8.22-8,5.1C258.91,172.76,253.92,153.58,253.46,148Z"/><path class="cls-18" d="M239.16,179.28c-.32-7.62,6.83-7.46,8.63-1.26,2.83,9.76-2.06,30.7-2.36,42.66-1.25-2.07-2.42-2.57-3-2.53a2,2,0,0,0-1.39.78C241.24,203.18,239.5,187.42,239.16,179.28Z"/><path class="cls-19" d="M247.5,180.1c-1,3.11-9.13,6.71-8.28-4.61.38-5,1.39-32.76,1.58-35.43s.64-6.58,1.93-7.07c6.46-2.44,12.73,5.54,11,15.57C252.63,155.27,249.47,173.65,247.5,180.1Z"/><path class="cls-20" d="M264.29,71c-.48,4.77-.62,5.83-2.7,7.78a11.25,11.25,0,0,1-7.33,2.85c-2.44,0-4.25-2.58-4.81-4.6a34.7,34.7,0,0,1-.55-12.22c.35-2.65,3.62-5.86,7-5.86S265.45,59.38,264.29,71Z"/><path class="cls-21" d="M240.76,218.9a8.25,8.25,0,0,1-3.43,2.6c-1.83.82-5.71,1.2-3.56,1.92a12.89,12.89,0,0,0,5.94.08,25.78,25.78,0,0,1,4-.24c2,0,2-.13,1.73-2.37C245.09,217.81,241.65,217.16,240.76,218.9Z"/><path class="cls-22" d="M272.5,217.54c-.28.54-.57,3.14-2.4,4s-5.71,1.2-3.56,1.92a12.89,12.89,0,0,0,5.94.08c1.27-.2,1.48-1.59,3-1.6,2,0,2-.13,1.73-2.37C276.83,216.45,273.39,215.8,272.5,217.54Z"/><path class="cls-23" d="M249.7,62.35c-1.87,3.19,11.72,9,14.73,8.54s3-6.91.66-9.84S254.11,54.82,249.7,62.35Z"/><path class="cls-24" d="M254.74,61.55c-.49,2.7-5.22,3.32-6,5.56-.5,1.39-.73-3,.38-5S255.73,56.12,254.74,61.55Z"/><ellipse class="cls-20" cx="264.43" cy="71.74" rx="3.23" ry="1.69" transform="translate(98.05 289.42) rotate(-67.79)"/><path class="cls-20" d="M291.08,89.51a8.75,8.75,0,0,1,1.11-4c.63-.84.45,1.41.45,2.5S291,90.72,291.08,89.51Z"/><path class="cls-20" d="M292.12,88.34c1.65-2.48,2.13-4.08,3.42-4.73s1.36,2.07.92,3-1.83,4.46-3,4.76S290.9,90.18,292.12,88.34Z"/><path class="cls-25" d="M277.86,106.52c-1.38-1.91-6.39-6.72-12.81-13.33a10.65,10.65,0,0,1-2.19-7.2c.18-1.67,2.43-3,4.67-1a67.78,67.78,0,0,1,6.79,7.12c6.12,7.19,8.07,10.77,8.75,12.48C283.89,106.66,279.87,109.32,277.86,106.52Z"/><path class="cls-26" d="M293.59,90.53c.17,1.4-1.49,1.72-3.67,5.67-3.13,5.69-4.29,7.06-7.61,10.6-2.17,2.31-6.35.13-4.29-3.12,1.74-2.75,11.89-12.79,12.94-14.47C291.66,88.1,293.45,89.39,293.59,90.53Z"/><path class="cls-20" d="M242.55,112.33a10.43,10.43,0,0,0-2.49,2.17c-.43.55-.42,1.43.37,1.57s2.88-.34,3.53-1.18a3.6,3.6,0,0,0,.67-2.57C244.51,111.53,243.69,111.58,242.55,112.33Z"/><path class="cls-27" d="M85.78,216.8a14.37,14.37,0,0,1,.34,2.47c.16,1,1.11,1.35,1.66,2.17s1.55,2.34-2.15,2.41c-4,.08-6.32-.19-5.64-2.35a11,11,0,0,0,.76-3.82,2.33,2.33,0,0,1,.45-1.86C81.64,215.4,85.2,214.64,85.78,216.8Z"/><path class="cls-28" d="M139.19,68.4c.17,2.22,0,3.73-2.58,8.27-3.54,6.13-5.91,9.33-8.25,11.87-2.17,2.34-7-3.54-4.85-7.26,1.84-3.14,11.94-11.71,13-13.63C137.29,66.37,139.05,66.59,139.19,68.4Z"/><path class="cls-29" d="M127.05,89c-1.71.34-5.63.5-14.93-1.58a61,61,0,0,1-9.69-2.84c-3-1.12-3.44-4.39-2.32-5.64,1.8-2,5.61-3.53,7.22-3,9.06,2.76,15.86,5.44,18.18,5.72C128.88,82.06,129.08,88.62,127.05,89Z"/><path class="cls-30" d="M103.14,64.46c1.62.76,2.33.77,2.91-1.25.45-1.57,1.22-7.07-1.29-7.44s-4.48-.44-4.19,3S101.21,63.56,103.14,64.46Z"/><path class="cls-31" d="M93.65,67.41c0,.25-.58,5.52-.68,9.57a4.17,4.17,0,0,0,3.92,3.91H97c1.94,0,4.23-1.76,4.06-3.71A52.34,52.34,0,0,1,101,70Z"/><path class="cls-32" d="M83.83,89.37c3.61,11.88,5.23,26.29,4.53,34.59h27.21s-.16-25.49-2-39.45a10.45,10.45,0,0,0-5.74-8,19.54,19.54,0,0,0-7.25-1.61h-5a30.41,30.41,0,0,0-5.31.66C83,76.92,81.73,82.49,83.83,89.37Z"/><path class="cls-33" d="M88.47,140.61s-2.35-5.71-.11-16.65h27.21a154.68,154.68,0,0,1,1,16.65Z"/><path class="cls-34" d="M93.84,176.23c2.18-8.86-6.87-10.42-9.73-4-4,9.06-3.72,38-3.5,43.83,0,.76.44.62.88.46a6.76,6.76,0,0,1,2.88-.52,2.48,2.48,0,0,1,1.51,1.19C86.73,209.3,91.73,184.81,93.84,176.23Z"/><path class="cls-35" d="M102,141.81c1-11-3.4-19.55-10.23-15.92-2.87,1.53-3.93,4.59-4.31,7.47s-2.5,32.83-3.24,38.24c-1.67,12.2,8,8.91,9,5.53C95.83,168.59,101.45,147.81,102,141.81Z"/><path class="cls-36" d="M118.06,175.66c.36-8.26-7.68-8.08-9.71-1.36-3.18,10.58,2.32,33.28,2.66,46.25,1.4-2.24,2.72-2.78,3.35-2.74a2.24,2.24,0,0,1,1.56.85C115.72,201.57,117.68,184.49,118.06,175.66Z"/><path class="cls-37" d="M108.67,176.55c1.07,3.37,10.27,7.28,9.31-5-.43-5.45-1.56-35.51-1.78-38.41s-.72-7.13-2.18-7.66c-7.27-2.64-14.32,6-12.41,16.88C102.9,149.64,106.46,169.56,108.67,176.55Z"/><path class="cls-38" d="M88.13,117.77c-2.14-.61-3.26-2.14-6.88-5.93-5.21-5.46-6.1-7.09-8.09-11.56-1.3-2.92,5.6-5,8.33-1.69,2.31,2.82,6.84,15.26,8.25,17C90.69,116.68,89.87,118.26,88.13,117.77Z"/><path class="cls-39" d="M73,99.22c.28-1.72,1.49-5.45,6.66-13.46a61,61,0,0,1,6-8.1c2.09-2.42,5.31-1.7,6.1-.22,1.26,2.39,1.36,6.49.35,7.83-5.74,7.54-10.61,13-11.68,15.06C78.9,103.35,72.68,101.26,73,99.22Z"/><path class="cls-20" d="M91,63.6c.45,4.5.58,5.5,2.55,7.34a10.62,10.62,0,0,0,6.91,2.69c2.3,0,4-2.43,4.53-4.34a32.77,32.77,0,0,0,.52-11.53c-.33-2.5-3.41-5.53-6.59-5.53S89.88,52.59,91,63.6Z"/><path class="cls-20" d="M87.32,114.93c1-1.14,2.67-2.92,3.48-3.94s3.19.73,3.24,1.61c.08,1.3-1.24,4.86-2.91,4.86S89,119,87.57,118.51,85.61,116.8,87.32,114.93Z"/><path class="cls-40" d="M116.26,218.61a9.23,9.23,0,0,0,3.86,2.81c2.06.89,6.42,1.3,4,2.08a15.05,15.05,0,0,1-6.68.09,30.27,30.27,0,0,0-4.51-.26c-2.23,0-2.24-.15-1.94-2.57C111.39,217.43,115.26,216.73,116.26,218.61Z"/><path class="cls-30" d="M91,62.9c1.22,1.22,1.85,1.45,3-.18.92-1.27,3.42-6,1.26-7.15s-3.91-1.86-4.75,1.3S89.54,61.45,91,62.9Z"/><ellipse class="cls-20" cx="90.84" cy="64.26" rx="1.6" ry="3.05" transform="translate(-17.55 39.13) rotate(-22.22)"/><path class="cls-30" d="M92.37,54.72c1.75,2.62,10.23,2.86,13,1.9s2.57-6.31-1.38-6.68c-2.23,0-.61.53-2.42,1.26C100.64,51.58,90.49,51.93,92.37,54.72Z"/><path class="cls-20" d="M136.19,67.88c.49-1.36,4.92-11.87,6.66-10.11,1.93,1.94,1.09,6.49.61,8-.86,2.73-3.44,4.36-5.18,4.25C137,69.92,135.72,69.17,136.19,67.88Z"/><path class="cls-20" d="M136,67.08c-.06-.66-.43-4.6.3-4.73,1.12-.19,1.49,2.38,1.74,4.08.14.92-.3,2.25-1.06,2.27S136.06,68.15,136,67.08Z"/><g class="cls-41"><path class="cls-42" d="M55.58,40.76c14.2-2.38,34.37,7.12,38.45,22,4.17,15.16-7.22,22.4,2.12,43.39,7.39,16.6-1.1,34.8-3.1,49.17-2.19,15.77,5.7,23.4,3.09,37.47-6,32.37-5.61,41.91-27.86,48.77-22.85,7-27.54-24.82-42.38-50-11-18.6-17.19-37.83-9.7-51.49,10.76-19.61,26.48.28,21-23.38C33.87,102.49,34.41,78,54.87,81.7S35.13,44.19,55.58,40.76Z"/></g></g></g></g></svg>