<?xml version="1.0" encoding="utf-8"?>
<!-- Generator: Adobe Illustrator 21.0.0, SVG Export Plug-In . SVG Version: 6.00 Build 0)  -->
<svg version="1.1" id="Слой_1" xmlns="http://www.w3.org/2000/svg" xmlns:xlink="http://www.w3.org/1999/xlink" x="0px" y="0px"
	 viewBox="0 0 308.1 255.7" style="enable-background:new 0 0 308.1 255.7;" xml:space="preserve">
<style type="text/css">
	.st0{opacity:0.15;fill:url(#SVGID_1_);enable-background:new    ;}
	.st1{opacity:0.15;fill:url(#SVGID_2_);enable-background:new    ;}
	.st2{opacity:0.3;fill:none;stroke:#0037FF;stroke-miterlimit:10;enable-background:new    ;}
	.st3{fill:none;stroke:#0037FF;stroke-miterlimit:10;}
	.st4{opacity:0.4;fill:none;stroke:#0037FF;stroke-miterlimit:10;enable-background:new    ;}
	.st5{opacity:0.6;fill:none;stroke:#0037FF;stroke-miterlimit:10;enable-background:new    ;}
	.st6{opacity:0.5;fill:none;stroke:#0037FF;stroke-miterlimit:10;enable-background:new    ;}
	.st7{opacity:0.6;}
	.st8{fill:#0037FF;}
	.st9{fill:#4E11F4;}
	.st10{fill:#FFAF84;}
	.st11{fill:url(#SVGID_3_);}
	.st12{fill:url(#SVGID_4_);}
	.st13{fill:url(#SVGID_5_);}
	.st14{fill:url(#SVGID_6_);}
	.st15{fill:url(#SVGID_7_);}
	.st16{fill:url(#SVGID_8_);}
	.st17{fill:url(#SVGID_9_);}
	.st18{fill:url(#SVGID_10_);}
	.st19{fill:url(#SVGID_11_);}
	.st20{fill:url(#SVGID_12_);}
	.st21{fill:url(#SVGID_13_);}
	.st22{fill:url(#SVGID_16_);}
	.st23{fill:url(#SVGID_17_);}
	.st24{fill:url(#SVGID_18_);}
	.st25{fill:url(#SVGID_19_);}
	.st26{fill:#ED9169;}
	.st27{fill:url(#SVGID_20_);}
	.st28{fill:url(#SVGID_21_);}
	.st29{fill:url(#SVGID_22_);}
	.st30{fill:url(#SVGID_23_);}
	.st31{fill:url(#SVGID_24_);}
	.st32{fill:url(#SVGID_25_);}
	.st33{fill:url(#SVGID_26_);}
	.st34{fill:url(#SVGID_27_);}
	.st35{fill:url(#SVGID_28_);}
	.st36{clip-path:url(#SVGID_30_);}
	.st37{opacity:0.2;fill:url(#SVGID_31_);enable-background:new    ;}
</style>
<title>smm-slide5</title>
<g>
	<g id="Слой_2">
		<g id="Background">
			
				<linearGradient id="SVGID_1_" gradientUnits="userSpaceOnUse" x1="84.74" y1="128.04" x2="308.12" y2="128.04" gradientTransform="matrix(1 0 0 -1 0 255.89)">
				<stop  offset="0" style="stop-color:#36078B"/>
				<stop  offset="1" style="stop-color:#16B1FF"/>
			</linearGradient>
			<circle class="st0" cx="196.4" cy="127.8" r="111.7"/>
			
				<linearGradient id="SVGID_2_" gradientUnits="userSpaceOnUse" x1="0" y1="128.04" x2="255.7" y2="128.04" gradientTransform="matrix(1 0 0 -1 0 255.89)">
				<stop  offset="0" style="stop-color:#36078B"/>
				<stop  offset="1" style="stop-color:#16B1FF"/>
			</linearGradient>
			<circle class="st1" cx="127.8" cy="127.8" r="127.8"/>
		</g>
		<g id="Objects">
			<polygon class="st2" points="296.7,64.2 296.7,179 145,177.6 145,74.4 			"/>
			<polygon class="st3" points="285.4,70.7 285.4,174.7 139.8,174.7 139.8,80 			"/>
			<polygon class="st4" points="146.8,171.9 202.3,170.6 202.3,94.3 146.8,97.1 			"/>
			<polygon class="st5" points="156.6,95.3 147,95.6 147,85.3 156.6,84.8 			"/>
			<path class="st3" d="M154.8,90.2c0,1.8-1.3,3.3-3.1,3.4c-1.7,0-3-1.3-3-3c0,0,0-0.1,0-0.1c0-1.7,1.3-3.2,3-3.4
				c1.7,0,3,1.3,3.1,2.9C154.8,90,154.8,90.1,154.8,90.2z"/>
			<path class="st3" d="M154.1,90.2c0,0.8-0.4,1.5-0.9,2c-0.2,0.1-0.4,0.3-0.6,0.3l-0.3,0.1h-0.2c-0.1,0-0.2,0-0.4,0
				c-0.2,0-0.5,0-0.7-0.1c-1-0.3-1.6-1.3-1.6-2.3c0-0.4,0.1-0.7,0.2-1.1c0.2-0.4,0.4-0.7,0.8-1l0.3-0.2c0.2-0.1,0.4-0.2,0.6-0.3
				c1.1-0.3,2.2,0.3,2.6,1.4C154,89.5,154.1,89.8,154.1,90.2z"/>
			<path class="st3" d="M151.8,90.6c-0.2,0-0.3-0.1-0.3-0.3v-1.6c0-0.2,0.1-0.3,0.3-0.3c0.2,0,0.3,0.1,0.3,0.3c0,0,0,0,0,0v1.6
				C152,90.5,151.9,90.6,151.8,90.6z"/>
			<path class="st3" d="M151.8,90.6c-0.2,0-0.3-0.1-0.3-0.3c0-0.1,0-0.2,0.1-0.2l0.8-0.6c0.1-0.1,0.3-0.1,0.4,0.1
				c0.1,0.1,0.1,0.3-0.1,0.4l-0.8,0.6C151.9,90.6,151.8,90.6,151.8,90.6z"/>
			<polygon class="st6" points="284.6,174.3 140.1,174.9 140.1,81.3 284.6,71.7 			"/>
			<path class="st3" d="M176.9,139.9c-6.7,3.1-14.6,1.7-19.8-3.6c-2.5-2.6-4.2-5.9-4.9-9.4l8.9-2.4c0.8,4.8,5.3,8,10.1,7.2
				c0.8-0.1,1.5-0.4,2.3-0.7L176.9,139.9z"/>
			<path class="st3" d="M183.1,135.3l-0.4,0.5l-6.3-6.9c1.9-2,2.9-4.6,2.9-7.3c0-5.4-4.1-9.6-9.3-9.4c-3.6,0.2-6.8,2.5-8.3,5.8
				l-8.1-3.9c0.9-1.9,2-3.7,3.4-5.3c7.1-7.9,18.8-8.5,26-1.2S190.4,127.4,183.1,135.3z"/>
			<path class="st3" d="M160.9,122.4c0,0.7,0.1,1.4,0.2,2.1l-8.9,2.4c-0.9-4.3-0.4-8.8,1.4-12.8l8.1,3.9
				C161.2,119.4,160.9,120.9,160.9,122.4z"/>
			<path class="st3" d="M182.7,135.8c-1.7,1.7-3.6,3.1-5.8,4.1l-3.4-8.9c1.1-0.5,2.1-1.2,2.9-2.1L182.7,135.8z"/>
			<polygon class="st3" points="186.9,144.8 186.9,142.8 183.3,143 183.3,144.9 			"/>
			<polygon class="st3" points="193.4,144.5 193.4,142.6 189.7,142.7 189.7,144.7 			"/>
			<polygon class="st3" points="199.8,144.3 199.8,142.4 196.1,142.5 196.1,144.5 			"/>
			<path class="st3" d="M197.3,108.9c-1.3-0.4-2.7-0.1-3.5,0.9c-0.5,0.5-0.8,1.1-0.9,1.8l1.6,0.3c0.1-0.8,0.8-1.4,1.6-1.4
				c0.2,0,0.4,0,0.6,0.1L197.3,108.9z"/>
			<path class="st3" d="M198.4,109.6L198.4,109.6l-1.2,1.2c0.3,0.3,0.5,0.8,0.5,1.3c0,0.9-0.7,1.7-1.6,1.8c-0.6,0-1.2-0.3-1.5-0.9
				l-1.5,0.8c0.7,1.6,2.6,2.3,4.2,1.5c0.4-0.2,0.8-0.5,1.1-0.8C199.7,113.1,199.6,111,198.4,109.6z"/>
			<path class="st3" d="M194.4,112.2c0-0.1,0-0.2,0-0.4l-1.6-0.3c-0.2,0.8-0.1,1.5,0.3,2.3l1.5-0.8
				C194.5,112.8,194.4,112.5,194.4,112.2z"/>
			<path class="st3" d="M198.3,109.5c-0.3-0.3-0.6-0.5-1-0.6l-0.6,1.6c0.2,0.1,0.4,0.2,0.5,0.3L198.3,109.5z"/>
			<path class="st3" d="M193.1,134.6c0.5,1.2,1.7,2,3,2c0.6,0,1.3-0.2,1.8-0.6l-0.9-1.4c-0.6,0.5-1.5,0.4-2.1-0.2
				c-0.1-0.2-0.3-0.3-0.4-0.5L193.1,134.6z"/>
			<path class="st3" d="M192.8,133.2c0,0,0,0.1,0,0.1l1.6-0.1c0-0.5,0.2-0.9,0.5-1.3c0.6-0.7,1.6-0.7,2.3-0.2c0,0,0,0,0.1,0.1
				c0.4,0.5,0.6,1.2,0.4,1.8l1.6,0.5c0.1-0.4,0.2-0.7,0.2-1.1c0.1-1.8-1.3-3.3-3.1-3.3c-0.1,0-0.1,0-0.2,0
				C194.2,129.8,192.7,131.3,192.8,133.2z"/>
			<path class="st3" d="M197.2,134.3c-0.1,0.1-0.2,0.2-0.3,0.2l0.9,1.4c0.6-0.5,1.1-1.1,1.3-1.9l-1.6-0.5
				C197.6,133.9,197.4,134.1,197.2,134.3z"/>
			<path class="st3" d="M192.8,133.3c0,0.4,0.1,0.8,0.3,1.2l1.5-0.7c-0.1-0.2-0.1-0.4-0.1-0.6L192.8,133.3z"/>
			<path class="st3" d="M197.4,125.8c1.2-0.6,2-1.9,2-3.3c0-0.7-0.2-1.3-0.5-1.8l-1.4,1c0.4,0.7,0.3,1.6-0.2,2.2
				c-0.1,0.2-0.3,0.3-0.5,0.4L197.4,125.8z"/>
			<path class="st3" d="M196.1,126.1h0.1l-0.1-1.7c-0.5,0-0.9-0.1-1.2-0.5c-0.6-0.7-0.6-1.8,0-2.4c0.4-0.5,1.1-0.7,1.7-0.5l0.5-1.7
				c-0.3-0.1-0.7-0.2-1.1-0.1c-1.9,0.1-3.3,1.7-3.3,3.6c-0.1,1.8,1.3,3.3,3.1,3.3C196,126.1,196,126.1,196.1,126.1z"/>
			<path class="st3" d="M197.2,121.4c0.1,0.1,0.2,0.2,0.2,0.3l1.4-1c-0.4-0.6-1-1.1-1.7-1.3l-0.5,1.7
				C196.8,121.1,197.1,121.2,197.2,121.4z"/>
			<path class="st3" d="M196.2,126.1c0.4,0,0.8-0.1,1.2-0.3l-0.6-1.6c-0.2,0.1-0.4,0.1-0.6,0.2L196.2,126.1z"/>
			<polygon class="st3" points="285.4,70.7 139.8,80 139.8,66.3 285.4,55.7 			"/>
			<polygon class="st3" points="282.4,67.8 142.2,76.9 142.2,72.4 282.4,62.8 			"/>
			<polygon class="st3" points="144.4,70.8 142.2,70.9 142.2,68.6 144.4,68.4 			"/>
			<polygon class="st3" points="148.2,70.5 146.1,70.6 146.1,68.3 148.2,68.1 			"/>
			<polygon class="st3" points="152.1,70.2 149.9,70.4 149.9,68 152.1,67.9 			"/>
			<polygon class="st6" points="204.3,159.9 275.6,159.3 275.6,76.8 204.3,81 			"/>
			<path class="st3" d="M213.8,98.8c-0.5,0-0.9-0.2-1.3-0.5c-0.4-0.4-0.6-0.9-0.6-1.4V86.1c0-1.1,0.9-2,1.9-2.1l63.6-3.7
				c1.1-0.1,2.1,0.8,2.1,1.9c0,0,0,0.1,0,0.1v11.2c0,1.2-0.9,2.1-2.1,2.2l-63.6,3.1L213.8,98.8z M277.6,81.2L277.6,81.2l-63.7,3.7
				c-0.6,0.1-1,0.6-1,1.2v10.8c0,0.3,0.1,0.6,0.3,0.8c0.2,0.2,0.4,0.3,0.7,0.3l63.6-3.1c0.6,0,1.2-0.6,1.2-1.2V82.3
				c0-0.3-0.1-0.6-0.3-0.8C278.1,81.3,277.9,81.2,277.6,81.2L277.6,81.2z"/>
			<path class="st3" d="M213.8,117.2c-0.5,0-1-0.2-1.3-0.5c-0.4-0.4-0.6-0.9-0.6-1.4v-10.8c0-1.1,0.8-2,1.9-2.1l63.6-2.9
				c0.6,0,1.1,0.2,1.5,0.6c0.4,0.4,0.6,0.9,0.6,1.5v11.3c0,1.2-0.9,2.1-2.1,2.2L213.8,117.2L213.8,117.2z M277.5,100.3L277.5,100.3
				l-63.6,2.9c-0.6,0.1-1,0.6-1,1.2v10.8c0,0.3,0.1,0.6,0.3,0.8c0.2,0.2,0.4,0.3,0.7,0.3l63.6-2.3c0.6,0,1.1-0.6,1.1-1.2v-11.3
				c0-0.3-0.1-0.6-0.3-0.8C278.1,100.4,277.8,100.3,277.5,100.3z"/>
			<path class="st3" d="M213.9,135.5c-0.5,0-1-0.2-1.3-0.5c-0.4-0.4-0.6-0.9-0.6-1.4v-10.8c0-1.1,0.8-2,1.9-2.1l63.6-2.2
				c0.6,0,1.1,0.2,1.5,0.6c0.4,0.4,0.6,0.9,0.6,1.5v11.3c0,1.2-0.9,2.1-2.1,2.1L213.9,135.5L213.9,135.5z M277.5,119.4L277.5,119.4
				l-63.6,2.2c-0.6,0.1-1,0.5-1,1.1v10.8c0,0.3,0.1,0.6,0.3,0.8c0.2,0.2,0.4,0.3,0.7,0.3l63.5-1.6c0.6,0,1.1-0.5,1.1-1.2v-11.3
				c0-0.3-0.1-0.6-0.3-0.8C278.1,119.5,277.8,119.4,277.5,119.4L277.5,119.4z"/>
			<path class="st3" d="M213.9,153.9c-0.5,0-1-0.2-1.3-0.6c-0.4-0.4-0.6-0.9-0.6-1.5v-10.8c0-1.1,0.8-2,1.9-2.1c0,0,0,0,0.1,0
				l63.6-1.4c0.5,0,1.1,0.2,1.5,0.6c0.4,0.4,0.6,0.9,0.6,1.5v11.3c0,1.2-0.9,2.1-2.1,2.1L213.9,153.9L213.9,153.9z M213.9,152.9
				L213.9,152.9l63.6-0.9c0.6,0,1.1-0.5,1.1-1.2v-11.2c0-0.3-0.1-0.6-0.3-0.8c-0.2-0.2-0.5-0.3-0.8-0.3l-63.6,1.5
				c-0.6,0-1,0.5-1,1.1v10.8c0,0.3,0.1,0.6,0.3,0.8C213.4,152.9,213.6,153,213.9,152.9L213.9,152.9z"/>
			<polygon class="st6" points="244.3,126.3 271.8,125.5 271.8,123.3 244.3,124.2 			"/>
			<polygon class="st6" points="253.2,130 271.8,129.4 271.8,127.2 253.2,127.8 			"/>
			<polygon class="st6" points="246.5,130.1 251.1,130 251.1,127.8 246.5,128 			"/>
			<polygon class="st6" points="244.3,89.4 271.8,87.9 271.8,85.7 244.3,87.2 			"/>
			<polygon class="st6" points="255.4,92.7 271.8,91.8 271.8,89.6 255.4,90.5 			"/>
			<polygon class="st6" points="236.2,93.6 253.2,92.8 253.2,90.6 236.2,91.5 			"/>
			<polygon class="st6" points="260.8,144.8 271.8,144.5 271.8,142.3 260.8,142.6 			"/>
			<polygon class="st6" points="247.8,145 258.7,144.8 258.7,142.6 247.8,142.8 			"/>
			<polygon class="st6" points="253.2,148.8 271.8,148.5 271.8,146.3 253.2,146.6 			"/>
			<polygon class="st6" points="233.2,149.1 251.1,148.8 251.1,146.6 233.2,146.9 			"/>
			<path class="st3" d="M217.1,113.9l63.9-2.5c0.9,0,1.6-0.8,1.6-1.7V98.5c0-0.8-0.7-1.5-1.5-1.5c0,0-0.1,0-0.1,0l-63.9,3
				c-0.8,0.1-1.5,0.8-1.5,1.6v10.8C215.6,113.2,216.2,113.9,217.1,113.9C217.1,113.9,217.1,113.9,217.1,113.9z"/>
			<g class="st7">
				<polygon class="st3" points="251.6,102.3 279.1,101.1 279.1,99.5 251.6,100.7 				"/>
				<polygon class="st3" points="251.6,105.2 279.1,104 279.1,102.4 251.6,103.6 				"/>
				<polygon class="st3" points="266.8,107.5 279.1,107 279.1,105.3 266.8,105.8 				"/>
			</g>
			<polygon class="st3" points="228.4,109.1 235.5,108.8 235.5,101.5 228.4,101.8 			"/>
			<polygon class="st5" points="220.2,109.5 227.3,109.2 227.3,101.8 220.2,102.2 			"/>
			<path class="st3" d="M106.8,40.7c-0.1-0.9,0.6-1.6,1.4-1.7"/>
			<path class="st3" d="M111.2,40.7c-0.1-0.9,0.6-1.6,1.4-1.7"/>
			<path class="st3" d="M115.6,40.7c-0.1-0.9,0.6-1.6,1.4-1.7"/>
			<path class="st3" d="M120,40.7c-0.1-0.9,0.6-1.6,1.4-1.7"/>
			<path class="st3" d="M124.4,40.7c-0.1-0.9,0.6-1.6,1.4-1.7"/>
			<path class="st3" d="M128.8,40.7c-0.1-0.9,0.6-1.6,1.4-1.7"/>
			<path class="st3" d="M133.2,40.7c-0.1-0.9,0.6-1.6,1.4-1.7"/>
			<path class="st3" d="M142,40.7c-0.1-0.9,0.6-1.6,1.5-1.7c0,0,0,0,0,0"/>
			<path class="st3" d="M146.4,40.7c-0.1-0.9,0.6-1.6,1.4-1.7"/>
			<path class="st3" d="M150.9,40.7c-0.1-0.9,0.6-1.6,1.4-1.7"/>
			<path class="st3" d="M155.3,40.7c-0.1-0.9,0.6-1.6,1.4-1.7"/>
			<path class="st3" d="M159.7,40.7c-0.1-0.9,0.6-1.6,1.4-1.7"/>
			<path class="st3" d="M164.1,40.7c-0.1-0.9,0.6-1.6,1.4-1.7"/>
			<path class="st3" d="M168.5,40.7c-0.1-0.9,0.6-1.6,1.4-1.7"/>
			<path class="st3" d="M137.6,40.7c-0.1-0.9,0.6-1.6,1.4-1.7"/>
			<path class="st3" d="M103.1,40.2h68.9c1.5,0,2.8,1.3,2.8,2.8v54.7c0,1.5-1.3,2.8-2.8,2.8h-68.9c-1.5,0-2.8-1.3-2.8-2.8V43
				C100.3,41.5,101.6,40.2,103.1,40.2z"/>
			<path class="st8" d="M112.3,71h-1.1v-0.3h1.6l-1.1,2.3h-0.3L112.3,71z"/>
			<path class="st8" d="M120.9,71.9c0,0.1,0,0.2-0.1,0.3c0,0.1-0.1,0.1-0.2,0.2c-0.1,0.1-0.2,0.1-0.3,0.1c-0.1,0-0.2,0-0.3,0
				c-0.1,0-0.2,0-0.3-0.1c-0.1,0-0.2-0.1-0.3-0.1c-0.1-0.1-0.1-0.1-0.2-0.2c0-0.1-0.1-0.2-0.1-0.3c0-0.1,0-0.1,0-0.2
				c0-0.1,0.1-0.1,0.1-0.2c0,0,0.1-0.1,0.1-0.1l0.2-0.1l-0.1-0.1l-0.1-0.1c0,0-0.1-0.1-0.1-0.1c0,0,0-0.1,0-0.2c0-0.1,0-0.2,0.1-0.3
				c0-0.1,0.1-0.1,0.2-0.2c0.1-0.1,0.1-0.1,0.2-0.1c0.1,0,0.2,0,0.3,0c0.1,0,0.2,0,0.3,0c0.1,0,0.2,0.1,0.2,0.1
				c0.1,0,0.1,0.1,0.2,0.2c0,0.1,0.1,0.2,0.1,0.3c0,0.1,0,0.2-0.1,0.3c-0.1,0.1-0.1,0.1-0.2,0.2l0.2,0.1c0,0,0.1,0.1,0.1,0.1
				c0,0,0.1,0.1,0.1,0.2C120.9,71.8,120.9,71.9,120.9,71.9z M120.6,71.9c0-0.1,0-0.1,0-0.2c0-0.1-0.1-0.1-0.1-0.1
				c0,0-0.1-0.1-0.2-0.1h-0.2c-0.1,0-0.1,0-0.2,0c-0.1,0-0.1,0.1-0.2,0.1c0,0-0.1,0.1-0.1,0.1c0,0.1,0,0.1,0,0.2c0,0.1,0,0.1,0,0.2
				c0,0.1,0.1,0.1,0.1,0.1c0,0,0.1,0.1,0.2,0.1c0.1,0,0.2,0,0.4,0c0.1,0,0.1-0.1,0.2-0.1c0,0,0.1-0.1,0.1-0.1
				C120.7,72.1,120.7,72,120.6,71.9L120.6,71.9z M119.7,70.9c0,0,0,0.1,0,0.2c0,0,0.1,0.1,0.1,0.1l0.1,0.1h0.2h0.2l0.1-0.1
				c0,0,0.1-0.1,0.1-0.1c0,0,0-0.1,0-0.2c0,0,0-0.1,0-0.1c0,0-0.1-0.1-0.1-0.1c0,0-0.1-0.1-0.1-0.1h-0.2h-0.2c0,0-0.1,0-0.1,0.1
				c0,0-0.1,0.1-0.1,0.1C119.7,70.8,119.7,70.9,119.7,70.9L119.7,70.9z"/>
			<path class="st8" d="M127.6,71.6c0-0.1,0-0.2,0.1-0.3c0-0.1,0.1-0.2,0.2-0.2c0.1-0.1,0.2-0.1,0.3-0.2c0.1,0,0.2-0.1,0.3-0.1
				c0.1,0,0.2,0,0.3,0.1c0.1,0,0.2,0.1,0.3,0.2c0.1,0.1,0.1,0.2,0.2,0.3c0,0.1,0.1,0.3,0.1,0.4c0,0.2,0,0.4-0.1,0.6
				c0,0.1-0.1,0.3-0.2,0.4c-0.1,0.1-0.2,0.2-0.3,0.2c-0.1,0.1-0.2,0.1-0.3,0.1c-0.1,0-0.3,0-0.4-0.1c-0.1-0.1-0.2-0.2-0.3-0.3
				l0.2-0.2c0.1,0.2,0.3,0.3,0.5,0.3c0.2,0,0.3-0.1,0.4-0.2c0.1-0.2,0.2-0.4,0.2-0.6c0,0.1-0.1,0.2-0.2,0.3
				c-0.1,0.1-0.2,0.1-0.4,0.1c-0.1,0-0.2,0-0.3-0.1c-0.1,0-0.2-0.1-0.2-0.2C127.6,72,127.5,71.8,127.6,71.6z M128.3,71
				c-0.1,0-0.1,0-0.2,0c-0.1,0.1-0.2,0.2-0.3,0.3c-0.1,0.1-0.1,0.3,0,0.4c0,0.1,0.1,0.1,0.1,0.2c0,0,0.1,0.1,0.2,0.1
				c0.1,0.1,0.3,0.1,0.4,0c0.1,0,0.1-0.1,0.2-0.1c0,0,0.1-0.1,0.1-0.2c0.1-0.1,0.1-0.3,0-0.4c-0.1-0.1-0.2-0.2-0.3-0.3
				C128.5,71,128.4,71,128.3,71L128.3,71z"/>
			<path class="st8" d="M136.2,72.3v0.3h-1.1v-0.3h0.4v-1.2l-0.1,0.1l-0.1,0.1l-0.1,0.1h-0.1v-0.3c0,0,0.1,0,0.1,0l0.2-0.1l0.1-0.1
				l0.1-0.1h0.3v1.5L136.2,72.3z"/>
			<path class="st8" d="M138.1,71.7c0,0.1,0,0.2-0.1,0.3c0,0.1-0.1,0.2-0.2,0.3c-0.1,0.1-0.2,0.2-0.3,0.2c-0.1,0-0.2,0.1-0.3,0.1
				c-0.1,0-0.2,0-0.3-0.1c-0.1,0-0.2-0.1-0.3-0.2c-0.1-0.1-0.1-0.2-0.2-0.3c-0.1-0.2-0.1-0.5,0-0.8c0-0.1,0.1-0.2,0.2-0.3
				c0.1-0.1,0.2-0.2,0.3-0.2c0.1,0,0.2-0.1,0.3-0.1c0.1,0,0.2,0,0.3,0.1c0.1,0,0.2,0.1,0.3,0.2c0.1,0.1,0.1,0.2,0.2,0.3
				C138,71.4,138.1,71.5,138.1,71.7z M137.8,71.7c0-0.1,0-0.2,0-0.3c0-0.1-0.1-0.2-0.1-0.2c0-0.1-0.1-0.1-0.2-0.1
				c-0.1,0-0.1,0-0.2,0c-0.1,0-0.1,0-0.2,0c-0.1,0-0.1,0.1-0.2,0.1c0,0.1-0.1,0.1-0.1,0.2c0,0.2,0,0.4,0,0.6c0,0.1,0.1,0.2,0.1,0.2
				c0,0.1,0.1,0.1,0.2,0.1c0.1,0,0.1,0,0.2,0c0.1,0,0.1,0,0.2,0c0.1,0,0.1-0.1,0.2-0.1c0-0.1,0.1-0.1,0.1-0.2
				C137.8,71.8,137.8,71.8,137.8,71.7z"/>
			<path class="st8" d="M144.7,72.3v0.3h-1.1v-0.3h0.4v-1.2l-0.1,0.1l-0.1,0.1l-0.1,0.1h-0.1v-0.3c0,0,0.1,0,0.1,0l0.2-0.1l0.1-0.1
				l0.1-0.1h0.3v1.5L144.7,72.3z"/>
			<path class="st8" d="M146.1,72.3v0.3H145v-0.3h0.4v-1.2l-0.1,0.1l-0.1,0.1l-0.1,0.1h-0.1v-0.3c0,0,0.1,0,0.1,0l0.2-0.1l0.1-0.1
				l0.1-0.1h0.3v1.5L146.1,72.3z"/>
			<path class="st8" d="M152.8,72.3v0.3h-1.1v-0.3h0.4v-1.2l-0.1,0.1l-0.1,0.1l-0.1,0.1h-0.1v-0.3c0,0,0.1,0,0.1,0l0.2-0.1l0.1-0.1
				l0.1-0.1h0.3v1.5L152.8,72.3z"/>
			<path class="st8" d="M153,72.6c0-0.1,0-0.2,0-0.2c0-0.1,0-0.1,0.1-0.2c0-0.1,0.1-0.1,0.1-0.2c0.1-0.1,0.2-0.1,0.3-0.2l0.2-0.1
				l0.2-0.1c0,0,0.1-0.1,0.1-0.1c0,0,0.1-0.1,0.1-0.2c0,0,0-0.1,0-0.1c0,0,0-0.1-0.1-0.1l-0.1-0.1h-0.2h-0.2l-0.1,0.1l-0.1,0.1
				l-0.1,0.1L153,71l0.1-0.1l0.1-0.1l0.2-0.1c0.1,0,0.2,0,0.3,0c0.1,0,0.2,0,0.3,0c0.1,0,0.1,0.1,0.2,0.1c0.1,0,0.1,0.1,0.1,0.2
				c0,0.1,0,0.1,0,0.2c0,0.1,0,0.1-0.1,0.2c0,0.1-0.1,0.1-0.1,0.2l-0.2,0.1l-0.2,0.1l-0.1,0.1l-0.2,0.1c-0.1,0-0.1,0.1-0.1,0.1
				c0,0-0.1,0.1-0.1,0.2h1.1v0.3L153,72.6z"/>
			<path class="st8" d="M161,72.3v0.3h-1.1v-0.3h0.4v-1.2l-0.1,0.1l-0.1,0.1l-0.1,0.1h-0.1v-0.3c0,0,0.1,0,0.1,0l0.2-0.1l0.1-0.1
				l0.1-0.1h0.3v1.5L161,72.3z"/>
			<path class="st8" d="M162.2,71.8c0.1,0,0.2,0.1,0.3,0.2c0.1,0.1,0.1,0.2,0.1,0.4c0,0.1,0,0.2-0.1,0.3c0,0.1-0.1,0.1-0.1,0.2
				c-0.1,0.1-0.2,0.1-0.2,0.1c-0.1,0-0.2,0-0.3,0c-0.1,0-0.3,0-0.4-0.1c-0.1-0.1-0.2-0.1-0.3-0.3l0.2-0.2c0,0.1,0.1,0.2,0.2,0.2
				c0.1,0.1,0.2,0.1,0.3,0.1c0.1,0,0.2,0,0.3-0.1c0.1-0.1,0.1-0.2,0.1-0.3c0-0.1,0-0.2-0.1-0.3c-0.1-0.1-0.2-0.1-0.4-0.1h-0.1v-0.2
				h0.1c0.1,0,0.2,0,0.3-0.1c0.1-0.1,0.1-0.2,0.1-0.3c0-0.1,0-0.2-0.1-0.3c-0.1-0.1-0.2-0.1-0.3-0.1c-0.1,0-0.2,0-0.3,0.1
				c-0.1,0-0.2,0.1-0.2,0.2l-0.2-0.2c0-0.1,0.1-0.1,0.1-0.1c0,0,0.1-0.1,0.2-0.1l0.2-0.1h0.2c0.1,0,0.2,0,0.3,0
				c0.1,0,0.1,0.1,0.2,0.1c0.1,0,0.1,0.1,0.1,0.2c0,0.1,0,0.2,0,0.2c0,0.1,0,0.1,0,0.2c0,0.1,0,0.1-0.1,0.2c0,0-0.1,0.1-0.1,0.1
				C162.3,71.8,162.2,71.8,162.2,71.8z"/>
			<path class="st8" d="M111.7,79v0.3h-1.1V79h0.4v-1.3l-0.1,0.1l-0.1,0.1l-0.2,0.1h-0.1v-0.3c0,0,0.1,0,0.2,0l0.2-0.1l0.1-0.1
				l0.1-0.1h0.3V79H111.7z"/>
			<path class="st8" d="M112.8,79.6v-0.5h-1v-0.2l1.1-1.4h0.2v1.4h0.3v0.3h-0.3v0.5H112.8z M112.1,78.8h0.8v-1L112.1,78.8z"/>
			<path class="st8" d="M119.9,79v0.3h-1.1V79h0.4v-1.3l-0.1,0.1l-0.1,0.1l-0.2,0.1h-0.1v-0.3c0,0,0.1,0,0.2,0l0.2-0.1l0.1-0.1
				l0.1-0.1h0.3V79H119.9z"/>
			<path class="st8" d="M120.9,78.2c0.1,0,0.2,0,0.3,0.1c0.1,0,0.2,0.1,0.2,0.2c0.1,0.1,0.1,0.1,0.2,0.2c0,0.1,0.1,0.2,0.1,0.3
				c0,0.1,0,0.2-0.1,0.3c0,0.1-0.1,0.2-0.2,0.2c-0.1,0.1-0.2,0.1-0.3,0.2c-0.1,0-0.2,0.1-0.3,0.1c-0.2,0-0.3,0-0.4-0.1
				c-0.1-0.1-0.2-0.2-0.3-0.3l0.2-0.2c0.1,0.1,0.1,0.2,0.2,0.2c0.1,0.1,0.2,0.1,0.3,0.1c0.1,0,0.1,0,0.2,0c0.1,0,0.1-0.1,0.2-0.1
				c0,0,0.1-0.1,0.1-0.2c0-0.1,0-0.1,0-0.2c0-0.1,0-0.1,0-0.2c0-0.1-0.1-0.1-0.1-0.2c0,0-0.1-0.1-0.2-0.1c-0.1,0-0.1,0-0.2,0
				c-0.1,0-0.2,0-0.3,0.1c-0.1,0-0.1,0.1-0.2,0.2h-0.3v-0.1v-0.2v-0.2v-0.2l0.1-0.6h1.1v0.3h-0.9l-0.1,0.7c0,0,0.1-0.1,0.2-0.1
				C120.6,78.3,120.7,78.2,120.9,78.2z"/>
			<path class="st8" d="M128,79v0.3h-1.1V79h0.4v-1.3l-0.1,0.1l-0.1,0.1L127,78h-0.1v-0.3c0,0,0.1,0,0.2,0l0.2-0.1l0.1-0.1l0.1-0.1
				h0.3V79H128z"/>
			<path class="st8" d="M129.9,78.5c0,0.1,0,0.2-0.1,0.3c0,0.1-0.1,0.2-0.2,0.2c-0.1,0.1-0.2,0.1-0.3,0.2c-0.1,0-0.2,0.1-0.3,0.1
				c-0.1,0-0.2,0-0.3-0.1c-0.1,0-0.2-0.1-0.3-0.2c-0.1-0.1-0.1-0.2-0.2-0.3c0-0.1-0.1-0.3-0.1-0.4c0-0.2,0-0.4,0.1-0.6
				c0-0.1,0.1-0.3,0.2-0.4c0.1-0.1,0.2-0.2,0.3-0.2c0.1-0.1,0.2-0.1,0.3-0.1c0.1,0,0.3,0,0.4,0.1c0.1,0.1,0.2,0.2,0.3,0.3l-0.2,0.2
				c-0.1-0.2-0.3-0.3-0.5-0.3c-0.1,0-0.2,0-0.2,0.1c-0.1,0-0.1,0.1-0.2,0.2c-0.1,0.1-0.1,0.2-0.1,0.3c0,0.1,0,0.2,0,0.4
				c0-0.1,0.1-0.2,0.2-0.3c0.1-0.1,0.2-0.1,0.4-0.1c0.1,0,0.2,0,0.3,0.1c0.1,0,0.2,0.1,0.2,0.2c0.1,0.1,0.1,0.2,0.2,0.2
				C129.9,78.3,129.9,78.4,129.9,78.5z M129.1,79c0.1,0,0.1,0,0.2,0c0.1,0,0.1-0.1,0.2-0.1c0,0,0.1-0.1,0.1-0.2c0-0.1,0-0.1,0-0.2
				c0-0.1,0-0.1,0-0.2c0-0.1-0.1-0.1-0.1-0.2c0,0-0.1-0.1-0.2-0.1c-0.1,0-0.1,0-0.2,0c-0.1,0-0.1,0-0.2,0c-0.1,0-0.1,0.1-0.2,0.1
				c0,0-0.1,0.1-0.1,0.2c0,0.1,0,0.1,0,0.2c0,0.1,0,0.1,0,0.2c0,0.1,0.1,0.1,0.1,0.2c0,0,0.1,0.1,0.2,0.1C128.9,79,129,79,129.1,79
				L129.1,79z"/>
			<path class="st8" d="M136.4,79v0.3h-1.1V79h0.4v-1.3l-0.1,0.1l-0.1,0.1l-0.1,0.1h-0.1v-0.3c0,0,0.1,0,0.1,0l0.2-0.1l0.1-0.1
				l0.1-0.1h0.3V79H136.4z"/>
			<path class="st8" d="M137.7,77.6h-1.1v-0.3h1.6l-1.1,2.2h-0.3L137.7,77.6z"/>
			<path class="st8" d="M144.5,79v0.3h-1.1V79h0.4v-1.3l-0.1,0.1l-0.1,0.1l-0.1,0.1h-0.1v-0.3c0,0,0.1,0,0.1,0l0.2-0.1l0.1-0.1
				l0.1-0.1h0.3V79H144.5z"/>
			<path class="st8" d="M146.3,78.6c0,0.1,0,0.2-0.1,0.3c0,0.1-0.1,0.1-0.2,0.2c-0.1,0.1-0.2,0.1-0.3,0.1c-0.1,0-0.2,0-0.3,0
				c-0.1,0-0.2,0-0.3-0.1c-0.1,0-0.2-0.1-0.3-0.1c-0.1-0.1-0.1-0.1-0.2-0.2c0-0.1-0.1-0.2-0.1-0.3c0-0.1,0-0.1,0-0.2
				c0-0.1,0.1-0.1,0.1-0.2c0,0,0.1-0.1,0.1-0.1l0.1-0.1l-0.1,0l-0.1-0.1c0,0-0.1-0.1-0.1-0.1c0,0,0-0.1,0-0.2c0-0.1,0-0.2,0.1-0.3
				c0-0.1,0.1-0.1,0.2-0.2c0.1-0.1,0.1-0.1,0.2-0.1c0.1,0,0.2,0,0.3,0c0.1,0,0.2,0,0.3,0c0.1,0,0.2,0.1,0.2,0.1
				c0.1,0,0.1,0.1,0.2,0.2c0,0.1,0.1,0.2,0.1,0.3c0,0.1,0,0.2-0.1,0.3c-0.1,0.1-0.1,0.1-0.2,0.2l0.2,0.1c0,0,0.1,0.1,0.1,0.1
				c0,0,0.1,0.1,0.1,0.2C146.3,78.5,146.3,78.5,146.3,78.6z M146,78.6c0-0.1,0-0.1,0-0.2c0-0.1-0.1-0.1-0.1-0.1c0,0-0.1-0.1-0.2-0.1
				h-0.2c-0.1,0-0.1,0-0.2,0c-0.1,0-0.1,0.1-0.2,0.1c0,0-0.1,0.1-0.1,0.1c0,0.1,0,0.1,0,0.2c0,0.1,0,0.1,0,0.2
				c0,0.1,0.1,0.1,0.1,0.1c0,0,0.1,0.1,0.2,0.1c0.1,0,0.2,0,0.4,0c0.1,0,0.1-0.1,0.2-0.1c0,0,0.1-0.1,0.1-0.1
				C146,78.7,146,78.6,146,78.6L146,78.6z M145.1,77.6c0,0,0,0.1,0,0.2c0,0,0.1,0.1,0.1,0.1l0.1,0.1h0.1h0.1l0.1-0.1
				c0,0,0.1-0.1,0.1-0.1c0,0,0-0.1,0-0.2c0,0,0-0.1,0-0.1c0,0-0.1-0.1-0.1-0.1c0,0-0.1-0.1-0.1-0.1h-0.2h-0.2c0,0-0.1,0-0.1,0.1
				c0,0-0.1,0.1-0.1,0.1C145,77.5,145,77.5,145.1,77.6L145.1,77.6z"/>
			<path class="st8" d="M152.7,79v0.3h-1.1V79h0.4v-1.3l-0.1,0.1l-0.1,0.1l-0.1,0.1h-0.1v-0.3c0,0,0.1,0,0.1,0l0.2-0.1l0.1-0.1
				l0.1-0.1h0.3V79H152.7z"/>
			<path class="st8" d="M152.9,78.2c0-0.1,0-0.2,0.1-0.3c0-0.1,0.1-0.2,0.2-0.2c0.1-0.1,0.2-0.1,0.3-0.2c0.1,0,0.2-0.1,0.3-0.1
				c0.1,0,0.2,0,0.3,0.1c0.1,0,0.2,0.1,0.3,0.2c0.1,0.1,0.1,0.2,0.2,0.3c0,0.1,0.1,0.3,0.1,0.4c0,0.2,0,0.4-0.1,0.6
				c0,0.1-0.1,0.3-0.2,0.4c-0.1,0.1-0.2,0.2-0.3,0.2c-0.1,0.1-0.2,0.1-0.3,0.1c-0.1,0-0.3,0-0.4-0.1c-0.1-0.1-0.2-0.2-0.3-0.3
				l0.2-0.2c0.1,0.2,0.3,0.3,0.5,0.3c0.2,0,0.3-0.1,0.4-0.2c0.1-0.2,0.2-0.4,0.2-0.6c0,0.1-0.1,0.2-0.2,0.3
				c-0.1,0.1-0.2,0.1-0.4,0.1c-0.1,0-0.2,0-0.3-0.1c-0.1,0-0.2-0.1-0.2-0.2C153,78.6,152.9,78.4,152.9,78.2z M153.7,77.7
				c-0.1,0-0.1,0-0.2,0c-0.1,0.1-0.2,0.2-0.3,0.3c-0.1,0.1-0.1,0.3,0,0.4c0,0.1,0.1,0.1,0.1,0.2c0,0,0.1,0.1,0.2,0.1
				c0.1,0.1,0.3,0.1,0.4,0c0.1,0,0.1-0.1,0.2-0.1c0,0,0.1-0.1,0.1-0.2c0.1-0.1,0.1-0.3,0-0.4c-0.1-0.1-0.2-0.2-0.3-0.3
				C153.8,77.6,153.8,77.7,153.7,77.7L153.7,77.7z"/>
			<path class="st8" d="M159.6,79.2c0-0.1,0-0.2,0-0.2c0-0.1,0-0.1,0.1-0.2c0-0.1,0.1-0.1,0.1-0.2c0.1-0.1,0.2-0.1,0.3-0.2l0.2-0.1
				l0.2-0.1c0,0,0.1-0.1,0.1-0.1c0,0,0.1-0.1,0.1-0.2c0,0,0-0.1,0-0.1c0,0,0-0.1-0.1-0.1l-0.1-0.1h-0.2h-0.2l-0.1,0.1l-0.1,0.1
				l-0.1,0.1l-0.2-0.2l0.1-0.1l0.1-0.1l0.2-0.1c0.1,0,0.2,0,0.3,0c0.1,0,0.2,0,0.3,0c0.1,0,0.1,0.1,0.2,0.1c0.1,0,0.1,0.1,0.1,0.2
				c0,0.1,0,0.1,0,0.2c0,0.1,0,0.1-0.1,0.2c0,0.1-0.1,0.1-0.1,0.2l-0.2,0.1l-0.2,0.1l-0.1,0.1l-0.2,0.1c-0.1,0-0.1,0.1-0.1,0.1
				c0,0-0.1,0.1-0.1,0.2h1.1v0.3L159.6,79.2z"/>
			<path class="st8" d="M162.8,78.3c0,0.1,0,0.3-0.1,0.4c0,0.1-0.1,0.2-0.2,0.3c-0.1,0.1-0.2,0.2-0.3,0.2c-0.1,0-0.2,0.1-0.3,0.1
				c-0.1,0-0.2,0-0.3-0.1c-0.1,0-0.2-0.1-0.3-0.2c-0.1-0.1-0.1-0.2-0.2-0.3c-0.1-0.2-0.1-0.5,0-0.8c0-0.1,0.1-0.2,0.2-0.3
				c0.1-0.1,0.2-0.2,0.3-0.2c0.1,0,0.2-0.1,0.3-0.1c0.1,0,0.2,0,0.3,0.1c0.1,0,0.2,0.1,0.3,0.2c0.1,0.1,0.1,0.2,0.2,0.3
				C162.8,78,162.8,78.2,162.8,78.3z M162.6,78.3c0-0.1,0-0.2,0-0.3c0-0.1-0.1-0.2-0.1-0.2c0-0.1-0.1-0.1-0.2-0.1
				c-0.1,0-0.1,0-0.2,0c-0.1,0-0.1,0-0.2,0c-0.1,0-0.1,0.1-0.2,0.1c0,0.1-0.1,0.1-0.1,0.2c0,0.2,0,0.4,0,0.6c0,0.1,0.1,0.2,0.1,0.2
				c0,0.1,0.1,0.1,0.2,0.1c0.1,0,0.1,0,0.2,0c0.1,0,0.1,0,0.2,0c0.1,0,0.1-0.1,0.2-0.1c0-0.1,0.1-0.1,0.1-0.2
				C162.6,78.5,162.6,78.4,162.6,78.3z"/>
			<path class="st8" d="M110.5,85.8c0-0.1,0-0.2,0-0.2c0-0.1,0-0.1,0.1-0.2c0-0.1,0.1-0.1,0.2-0.2c0.1-0.1,0.2-0.2,0.3-0.2l0.2-0.1
				l0.2-0.1c0,0,0.1-0.1,0.1-0.1c0,0,0.1-0.1,0.1-0.2c0,0,0-0.1,0-0.1c0,0,0-0.1-0.1-0.1l-0.1-0.1h-0.2H111l-0.1,0.1l-0.1,0.1
				l-0.1,0.1l-0.2-0.2l0.1-0.1l0.2-0.1L111,84c0.1,0,0.2,0,0.3,0c0.1,0,0.2,0,0.3,0c0.1,0,0.1,0.1,0.2,0.1c0.1,0,0.1,0.1,0.1,0.2
				c0,0.1,0,0.1,0,0.2c0,0.1,0,0.1-0.1,0.2c0,0.1-0.1,0.1-0.1,0.2l-0.2,0.1l-0.2,0.1l-0.2,0.1l-0.2,0.1c-0.1,0-0.1,0.1-0.1,0.1
				c0,0-0.1,0.1-0.1,0.2h1.1v0.3L110.5,85.8z"/>
			<path class="st8" d="M113.4,85.6v0.3h-1.1v-0.3h0.4v-1.2l-0.1,0.1l-0.1,0.1l-0.2,0.1h-0.1v-0.3c0,0,0.1,0,0.2,0l0.2-0.1l0.1-0.1
				l0.1-0.1h0.3v1.5H113.4z"/>
			<path class="st8" d="M118.6,85.8c0-0.1,0-0.2,0-0.2c0-0.1,0-0.1,0.1-0.2c0-0.1,0.1-0.1,0.2-0.2c0.1-0.1,0.2-0.1,0.3-0.2l0.2-0.1
				l0.2-0.1c0,0,0.1-0.1,0.1-0.1c0,0,0.1-0.1,0.1-0.2c0,0,0-0.1,0-0.1c0,0,0-0.1-0.1-0.1l-0.1-0.1h-0.2h-0.2l-0.1,0.1l-0.1,0.1
				l-0.1,0.1l-0.2-0.2l0.1-0.1l0.2-0.1l0.2-0.1c0.1,0,0.2,0,0.3,0c0.1,0,0.2,0,0.3,0c0.1,0,0.1,0.1,0.2,0.1c0.1,0,0.1,0.1,0.1,0.2
				c0,0.1,0,0.1,0,0.2c0,0.1,0,0.1-0.1,0.2c0,0.1-0.1,0.1-0.1,0.2l-0.2,0.1l-0.2,0.1l-0.2,0.1l-0.2,0.1c-0.1,0-0.1,0.1-0.1,0.1
				c0,0-0.1,0.1-0.1,0.2h1.1v0.3L118.6,85.8z"/>
			<path class="st8" d="M120.3,85.8c0-0.1,0-0.2,0-0.2c0-0.1,0-0.1,0.1-0.2c0-0.1,0.1-0.1,0.2-0.2c0.1-0.1,0.2-0.1,0.3-0.2l0.2-0.1
				l0.2-0.1c0,0,0.1-0.1,0.1-0.1c0,0,0.1-0.1,0.1-0.2c0,0,0-0.1,0-0.1c0,0,0-0.1-0.1-0.1l-0.1-0.1H121h-0.2l-0.1,0.1l-0.1,0.1
				l-0.1,0.1l-0.2-0.2l0.1-0.1l0.2-0.1l0.2-0.1c0.1,0,0.2,0,0.3,0c0.1,0,0.2,0,0.3,0c0.1,0,0.1,0.1,0.2,0.1c0.1,0,0.1,0.1,0.1,0.2
				c0,0.1,0,0.1,0,0.2c0,0.1,0,0.1-0.1,0.2c0,0.1-0.1,0.1-0.1,0.2l-0.2,0.1l-0.2,0.1l-0.2,0.1l-0.2,0.1c-0.1,0-0.1,0.1-0.1,0.1
				c0,0-0.1,0.1-0.1,0.2h1.1v0.3L120.3,85.8z"/>
			<path class="st8" d="M126.8,85.8c0-0.1,0-0.2,0-0.2c0-0.1,0-0.1,0.1-0.2c0-0.1,0.1-0.1,0.2-0.2c0.1-0.1,0.2-0.1,0.3-0.2l0.2-0.1
				l0.2-0.1c0,0,0.1-0.1,0.1-0.1c0,0,0.1-0.1,0.1-0.2c0,0,0-0.1,0-0.1c0,0,0-0.1-0.1-0.1l-0.1-0.1h-0.2h-0.2l-0.1,0.1l-0.1,0.1
				l-0.1,0.1l-0.2-0.2l0.1-0.1l0.2-0.1l0.2-0.1c0.1,0,0.2,0,0.3,0c0.1,0,0.2,0,0.3,0c0.1,0,0.1,0.1,0.2,0.1c0.1,0,0.1,0.1,0.1,0.2
				c0,0.1,0,0.1,0,0.2c0,0.1,0,0.1-0.1,0.2c0,0.1-0.1,0.1-0.1,0.2l-0.2,0.1l-0.2,0.1l-0.2,0.1l-0.2,0.1c-0.1,0-0.1,0.1-0.1,0.1
				c0,0-0.1,0.1-0.1,0.2h1.1v0.3L126.8,85.8z"/>
			<path class="st8" d="M129.5,85.1c0.1,0,0.2,0.1,0.3,0.2c0.1,0.1,0.1,0.2,0.1,0.4c0,0.1,0,0.2-0.1,0.3c0,0.1-0.1,0.1-0.1,0.2
				c-0.1,0.1-0.2,0.1-0.2,0.1c-0.1,0-0.2,0-0.3,0c-0.1,0-0.3,0-0.4-0.1c-0.1-0.1-0.2-0.1-0.3-0.3l0.2-0.2c0,0.1,0.1,0.2,0.2,0.2
				c0.1,0.1,0.2,0.1,0.3,0.1c0.1,0,0.2,0,0.3-0.1c0.1-0.1,0.1-0.2,0.1-0.3c0-0.1,0-0.2-0.1-0.3c-0.1-0.1-0.2-0.1-0.4-0.1H129V85h0.1
				c0.1,0,0.2,0,0.3-0.1c0.1-0.1,0.1-0.2,0.1-0.3c0-0.1,0-0.2-0.1-0.3c-0.1-0.1-0.2-0.1-0.3-0.1c-0.1,0-0.2,0-0.3,0.1
				c-0.1,0-0.2,0.1-0.2,0.2l-0.2-0.2c0-0.1,0.1-0.1,0.1-0.1c0,0,0.1-0.1,0.2-0.1l0.2-0.1h0.2c0.1,0,0.2,0,0.3,0
				c0.1,0,0.1,0.1,0.2,0.1c0.1,0,0.1,0.1,0.1,0.2c0,0.1,0,0.2,0,0.2c0,0.1,0,0.1,0,0.2c0,0.1,0,0.1-0.1,0.2c0,0-0.1,0.1-0.1,0.1
				C129.6,85.1,129.5,85.1,129.5,85.1z"/>
			<path class="st8" d="M135,85.8c0-0.1,0-0.2,0-0.2c0-0.1,0-0.1,0.1-0.2c0-0.1,0.1-0.1,0.1-0.2c0.1-0.1,0.2-0.1,0.3-0.2l0.2-0.1
				l0.2-0.1c0,0,0.1-0.1,0.1-0.1c0,0,0.1-0.1,0.1-0.2c0,0,0-0.1,0-0.1c0,0,0-0.1-0.1-0.1l-0.1-0.1h-0.2h-0.2l-0.1,0.1l-0.1,0.1
				l-0.1,0.1l-0.2-0.2l0.1-0.1l0.1-0.1l0.2-0.1c0.1,0,0.2,0,0.3,0c0.1,0,0.2,0,0.3,0c0.1,0,0.1,0.1,0.2,0.1c0.1,0,0.1,0.1,0.1,0.2
				c0,0.1,0,0.1,0,0.2c0,0.1,0,0.1-0.1,0.2c0,0.1-0.1,0.1-0.1,0.2L136,85l-0.2,0.1l-0.1,0.1l-0.2,0.1c-0.1,0-0.1,0.1-0.1,0.1
				c0,0-0.1,0.1-0.1,0.2h1.1v0.3L135,85.8z"/>
			<path class="st8" d="M137.6,86.2v-0.5h-1v-0.2l1.1-1.4h0.2v1.4h0.3v0.3h-0.3v0.5H137.6z M136.9,85.5h0.8v-1L136.9,85.5z"/>
			<path class="st8" d="M143.2,85.8c0-0.1,0-0.2,0-0.2c0-0.1,0-0.1,0.1-0.2c0-0.1,0.1-0.1,0.1-0.2c0.1-0.1,0.2-0.1,0.3-0.2l0.2-0.1
				l0.2-0.1c0,0,0.1-0.1,0.1-0.1c0,0,0.1-0.1,0.1-0.2c0,0,0-0.1,0-0.1c0,0,0-0.1-0.1-0.1l-0.1-0.1h-0.2h-0.2l-0.1,0.1l-0.1,0.1
				l-0.1,0.1l-0.2-0.2l0.1-0.1l0.1-0.1l0.2-0.1c0.1,0,0.2,0,0.3,0c0.1,0,0.2,0,0.3,0c0.1,0,0.1,0.1,0.2,0.1c0.1,0,0.1,0.1,0.1,0.2
				c0,0.1,0,0.1,0,0.2c0,0.1,0,0.1-0.1,0.2c0,0.1-0.1,0.1-0.1,0.2l-0.2,0.1l-0.2,0.1l-0.1,0.1l-0.2,0.1c-0.1,0-0.1,0.1-0.1,0.1
				c0,0-0.1,0.1-0.1,0.2h1.1v0.3L143.2,85.8z"/>
			<path class="st8" d="M145.6,84.9c0.1,0,0.2,0,0.3,0.1c0.1,0,0.2,0.1,0.2,0.2c0.1,0.1,0.1,0.1,0.1,0.2c0,0.1,0.1,0.2,0.1,0.3
				c0,0.1,0,0.2-0.1,0.3c0,0.1-0.1,0.2-0.2,0.2c-0.1,0.1-0.2,0.1-0.3,0.2c-0.1,0-0.2,0.1-0.3,0.1c-0.2,0-0.3,0-0.4-0.1
				c-0.1-0.1-0.2-0.2-0.3-0.3l0.2-0.2c0.1,0.1,0.1,0.2,0.2,0.2c0.1,0.1,0.2,0.1,0.3,0.1c0.1,0,0.1,0,0.2,0c0.1,0,0.1-0.1,0.2-0.1
				c0,0,0.1-0.1,0.1-0.2c0-0.1,0-0.1,0-0.2c0-0.1,0-0.1,0-0.2c0-0.1-0.1-0.1-0.1-0.2c0,0-0.1-0.1-0.1-0.1c-0.1,0-0.1,0-0.2,0
				c-0.1,0-0.2,0-0.3,0.1c-0.1,0-0.1,0.1-0.2,0.2h-0.3v-0.1v-0.2V85v-0.2l0.1-0.6h1.1v0.3h-0.9l-0.1,0.7c0,0,0.1-0.1,0.2-0.1
				C145.4,84.9,145.5,84.9,145.6,84.9z"/>
			<path class="st8" d="M151.4,85.8c0-0.1,0-0.2,0-0.2c0-0.1,0-0.1,0.1-0.2c0-0.1,0.1-0.1,0.1-0.2c0.1-0.1,0.2-0.1,0.3-0.2l0.2-0.1
				l0.2-0.1c0,0,0.1-0.1,0.1-0.1c0,0,0.1-0.1,0.1-0.2c0,0,0-0.1,0-0.1c0,0,0-0.1-0.1-0.1l-0.1-0.1H152h-0.2l-0.1,0.1l-0.1,0.1
				l-0.1,0.1l-0.2-0.2l0.1-0.1l0.1-0.1l0.2-0.1c0.1,0,0.2,0,0.3,0c0.1,0,0.2,0,0.3,0c0.1,0,0.1,0.1,0.2,0.1c0.1,0,0.1,0.1,0.1,0.2
				c0,0.1,0,0.1,0,0.2c0,0.1,0,0.1-0.1,0.2c0,0.1-0.1,0.1-0.1,0.2l-0.2,0.1l-0.2,0.1l-0.1,0.1l-0.2,0.1c-0.1,0-0.1,0.1-0.1,0.1
				c0,0-0.1,0.1-0.1,0.2h1.1v0.3L151.4,85.8z"/>
			<path class="st8" d="M154.6,85.1c0,0.1,0,0.2-0.1,0.3c0,0.1-0.1,0.2-0.2,0.2c-0.1,0.1-0.2,0.1-0.3,0.2c-0.1,0-0.2,0.1-0.3,0.1
				c-0.1,0-0.2,0-0.3-0.1c-0.1,0-0.2-0.1-0.3-0.2c-0.1-0.1-0.1-0.2-0.2-0.3c0-0.1-0.1-0.3-0.1-0.4c0-0.2,0-0.4,0.1-0.6
				c0-0.1,0.1-0.3,0.2-0.4c0.1-0.1,0.2-0.2,0.3-0.2c0.1-0.1,0.2-0.1,0.3-0.1c0.1,0,0.3,0,0.4,0.1c0.1,0.1,0.2,0.2,0.3,0.3l-0.2,0.2
				c-0.1-0.2-0.3-0.3-0.5-0.3c-0.1,0-0.2,0-0.2,0.1c-0.1,0-0.1,0.1-0.2,0.2c-0.1,0.1-0.1,0.2-0.1,0.3c0,0.1,0,0.2,0,0.4
				c0-0.1,0.1-0.2,0.2-0.3c0.1-0.1,0.2-0.1,0.4-0.1c0.1,0,0.2,0,0.3,0.1c0.1,0,0.2,0.1,0.2,0.2c0.1,0.1,0.1,0.2,0.2,0.2
				C154.6,84.9,154.7,85,154.6,85.1z M153.9,85.6c0.1,0,0.1,0,0.2,0c0.1,0,0.1-0.1,0.2-0.1c0,0,0.1-0.1,0.1-0.2c0-0.1,0-0.1,0-0.2
				c0-0.1,0-0.1,0-0.2c0-0.1-0.1-0.1-0.1-0.2c0,0-0.1-0.1-0.2-0.1c-0.1,0-0.1,0-0.2,0c-0.1,0-0.1,0-0.2,0c-0.1,0-0.1,0.1-0.2,0.1
				c0,0-0.1,0.1-0.1,0.2c0,0.1,0,0.1,0,0.2c0,0.1,0,0.1,0,0.2c0,0.1,0.1,0.1,0.1,0.2c0,0,0.1,0.1,0.2,0.1
				C153.7,85.7,153.8,85.7,153.9,85.6L153.9,85.6z"/>
			<path class="st8" d="M159.7,85.8c0-0.1,0-0.2,0-0.2c0-0.1,0-0.1,0.1-0.2c0-0.1,0.1-0.1,0.1-0.2c0.1-0.1,0.2-0.1,0.3-0.2l0.2-0.1
				l0.2-0.1c0,0,0.1-0.1,0.1-0.1c0,0,0.1-0.1,0.1-0.2c0,0,0-0.1,0-0.1c0,0,0-0.1-0.1-0.1l-0.1-0.1h-0.2h-0.2l-0.1,0.1l-0.1,0.1
				l-0.1,0.1l-0.2-0.2l0.1-0.1l0.1-0.1l0.2-0.1c0.1,0,0.2,0,0.3,0c0.1,0,0.2,0,0.3,0c0.1,0,0.1,0.1,0.2,0.1c0.1,0,0.1,0.1,0.1,0.2
				c0,0.1,0,0.1,0,0.2c0,0.1,0,0.1-0.1,0.2c0,0.1-0.1,0.1-0.1,0.2l-0.2,0.1l-0.2,0.1l-0.1,0.1l-0.2,0.1c-0.1,0-0.1,0.1-0.1,0.1
				c0,0-0.1,0.1-0.1,0.2h1.1v0.3L159.7,85.8z"/>
			<path class="st8" d="M162.4,84.3h-1.1V84h1.6l-1.1,2.2h-0.3L162.4,84.3z"/>
			<path class="st8" d="M110.3,92.5c0-0.1,0-0.2,0-0.2c0-0.1,0-0.1,0.1-0.2c0-0.1,0.1-0.1,0.2-0.2c0.1-0.1,0.2-0.1,0.3-0.2l0.2-0.1
				l0.2-0.1c0,0,0.1-0.1,0.1-0.1c0,0,0.1-0.1,0.1-0.2c0,0,0-0.1,0-0.1c0,0,0-0.1-0.1-0.1l-0.1-0.1H111h-0.2l-0.1,0.1l-0.1,0.1
				l-0.1,0.1l-0.2-0.2l0.1-0.1l0.2-0.1l0.2-0.1c0.1,0,0.2,0,0.3,0c0.1,0,0.2,0,0.3,0c0.1,0,0.1,0.1,0.2,0.1c0.1,0,0.1,0.1,0.1,0.2
				c0,0.1,0,0.1,0,0.2c0,0.1,0,0.1-0.1,0.2c0,0.1-0.1,0.1-0.1,0.2l-0.2,0.1l-0.2,0.1l-0.2,0.1l-0.2,0.1c-0.1,0-0.1,0.1-0.1,0.1
				c0,0-0.1,0.1-0.1,0.2h1.1v0.3L110.3,92.5z"/>
			<path class="st8" d="M113.5,91.9c0,0.1,0,0.2-0.1,0.3c0,0.1-0.1,0.1-0.2,0.2c-0.1,0.1-0.2,0.1-0.3,0.1c-0.1,0-0.2,0-0.3,0
				c-0.1,0-0.2,0-0.3-0.1c-0.1,0-0.2-0.1-0.3-0.1c-0.1-0.1-0.1-0.1-0.2-0.2c0-0.1-0.1-0.2-0.1-0.3c0-0.1,0-0.1,0-0.2
				c0-0.1,0.1-0.1,0.1-0.2c0,0,0.1-0.1,0.1-0.1l0.2-0.1l-0.1-0.1l-0.1-0.1c0,0-0.1-0.1-0.1-0.1c0,0,0-0.1,0-0.2c0-0.1,0-0.2,0.1-0.3
				c0-0.1,0.1-0.1,0.2-0.2c0.1-0.1,0.1-0.1,0.2-0.1c0.1,0,0.2,0,0.3,0c0.1,0,0.2,0,0.3,0c0.1,0,0.2,0.1,0.2,0.1
				c0.1,0,0.1,0.1,0.2,0.2c0,0.1,0.1,0.2,0.1,0.3c0,0.1,0,0.2-0.1,0.3c-0.1,0.1-0.1,0.1-0.2,0.2l0.2,0.1c0,0,0.1,0.1,0.1,0.1
				c0,0,0.1,0.1,0.1,0.2C113.5,91.7,113.5,91.8,113.5,91.9z M113.3,91.9c0-0.1,0-0.1,0-0.2c0-0.1-0.1-0.1-0.1-0.1
				c0,0-0.1-0.1-0.2-0.1h-0.2c-0.1,0-0.1,0-0.2,0c-0.1,0-0.1,0.1-0.2,0.1c0,0-0.1,0.1-0.1,0.1c0,0.1,0,0.1,0,0.2c0,0.1,0,0.1,0,0.2
				c0,0.1,0.1,0.1,0.1,0.1c0,0,0.1,0.1,0.2,0.1c0.1,0,0.2,0,0.4,0c0.1,0,0.1-0.1,0.2-0.1c0,0,0.1-0.1,0.1-0.1
				C113.3,92,113.3,91.9,113.3,91.9L113.3,91.9z M112.3,90.9c0,0,0,0.1,0,0.2c0,0,0.1,0.1,0.1,0.1l0.1,0.1h0.2h0.2l0.1-0.1
				c0,0,0.1-0.1,0.1-0.1c0,0,0-0.1,0-0.2c0,0,0-0.1,0-0.1c0,0-0.1-0.1-0.1-0.1c0,0-0.1-0.1-0.1-0.1h-0.2h-0.2c0,0-0.1,0-0.1,0.1
				c0,0-0.1,0.1-0.1,0.1C112.3,90.8,112.3,90.8,112.3,90.9L112.3,90.9z"/>
			<path class="st8" d="M118.5,92.5c0-0.1,0-0.2,0-0.2c0-0.1,0-0.1,0.1-0.2c0-0.1,0.1-0.1,0.2-0.2c0.1-0.1,0.2-0.1,0.3-0.2l0.2-0.1
				l0.2-0.1c0,0,0.1-0.1,0.1-0.1c0,0,0.1-0.1,0.1-0.2c0,0,0-0.1,0-0.1c0,0,0-0.1-0.1-0.1l-0.1-0.1h-0.2H119l-0.1,0.1l-0.1,0.1
				l-0.1,0.1l-0.2-0.2l0.1-0.1l0.2-0.1l0.2-0.1c0.1,0,0.2,0,0.3,0c0.1,0,0.2,0,0.3,0c0.1,0,0.1,0.1,0.2,0.1c0.1,0,0.1,0.1,0.1,0.2
				c0,0.1,0,0.1,0,0.2c0,0.1,0,0.1-0.1,0.2c0,0.1-0.1,0.1-0.1,0.2l-0.2,0.1l-0.2,0.1l-0.2,0.1l-0.2,0.1c-0.1,0-0.1,0.1-0.1,0.1
				c0,0-0.1,0.1-0.1,0.2h1.1v0.3L118.5,92.5z"/>
			<path class="st8" d="M120.2,91.5c0-0.1,0-0.2,0.1-0.3c0-0.1,0.1-0.2,0.2-0.2c0.1-0.1,0.2-0.1,0.3-0.2c0.1,0,0.2-0.1,0.3-0.1
				c0.1,0,0.2,0,0.3,0.1c0.1,0,0.2,0.1,0.3,0.2c0.1,0.1,0.1,0.2,0.2,0.3c0,0.1,0.1,0.3,0.1,0.4c0,0.2,0,0.4-0.1,0.6
				c0,0.1-0.1,0.3-0.2,0.4c-0.1,0.1-0.2,0.2-0.3,0.2c-0.1,0.1-0.2,0.1-0.3,0.1c-0.1,0-0.3,0-0.4-0.1c-0.1-0.1-0.2-0.2-0.3-0.3
				l0.2-0.2c0.1,0.2,0.3,0.3,0.5,0.3c0.2,0,0.3-0.1,0.4-0.2c0.1-0.2,0.2-0.4,0.2-0.6c0,0.1-0.1,0.2-0.2,0.3
				c-0.1,0.1-0.2,0.1-0.3,0.1c-0.1,0-0.2,0-0.3-0.1c-0.1,0-0.2-0.1-0.2-0.2C120.2,91.9,120.2,91.7,120.2,91.5z M121,90.9
				c-0.1,0-0.1,0-0.2,0c-0.1,0.1-0.2,0.2-0.3,0.3c-0.1,0.1-0.1,0.3,0,0.4c0,0.1,0.1,0.1,0.1,0.2c0,0,0.1,0.1,0.2,0.1
				c0.1,0.1,0.3,0.1,0.4,0c0.1,0,0.1-0.1,0.2-0.1c0,0,0.1-0.1,0.1-0.2c0.1-0.1,0.1-0.3,0-0.4c-0.1-0.1-0.2-0.2-0.3-0.3
				C121.1,90.9,121.1,90.9,121,90.9L121,90.9z"/>
			<path class="st8" d="M127.7,91.7c0.1,0,0.2,0.1,0.3,0.2c0.1,0.1,0.1,0.2,0.1,0.4c0,0.1,0,0.2-0.1,0.3c0,0.1-0.1,0.1-0.2,0.2
				c-0.1,0.1-0.2,0.1-0.2,0.1c-0.1,0-0.2,0-0.3,0c-0.1,0-0.3,0-0.4-0.1c-0.1-0.1-0.2-0.1-0.3-0.3l0.2-0.2c0,0.1,0.1,0.2,0.2,0.2
				c0.1,0.1,0.2,0.1,0.3,0.1c0.1,0,0.2,0,0.3-0.1c0.1-0.1,0.1-0.2,0.1-0.3c0-0.1,0-0.2-0.1-0.3c-0.1-0.1-0.2-0.1-0.4-0.1h-0.1v-0.2
				h0.1c0.1,0,0.2,0,0.3-0.1c0.1-0.1,0.1-0.2,0.1-0.3c0-0.1,0-0.2-0.1-0.3c-0.1-0.1-0.2-0.1-0.3-0.1c-0.1,0-0.2,0-0.3,0.1
				c-0.1,0-0.2,0.1-0.2,0.2l-0.2-0.1c0-0.1,0.1-0.1,0.1-0.1c0,0,0.1-0.1,0.2-0.1l0.2-0.1h0.2c0.1,0,0.2,0,0.3,0
				c0.1,0,0.1,0.1,0.2,0.1c0.1,0.1,0.1,0.1,0.1,0.2c0,0.1,0,0.2,0,0.2c0,0.1,0,0.1,0,0.2c0,0.1,0,0.1-0.1,0.2c0,0-0.1,0.1-0.1,0.1
				C127.8,91.7,127.7,91.7,127.7,91.7z"/>
			<path class="st8" d="M130,91.6c0,0.1,0,0.3-0.1,0.4c0,0.1-0.1,0.2-0.2,0.3c-0.1,0.1-0.2,0.2-0.3,0.2c-0.1,0-0.2,0.1-0.3,0.1
				c-0.1,0-0.2,0-0.3-0.1c-0.1,0-0.2-0.1-0.3-0.2c-0.1-0.1-0.1-0.2-0.2-0.3c-0.1-0.2-0.1-0.5,0-0.8c0-0.1,0.1-0.2,0.2-0.3
				c0.1-0.1,0.2-0.2,0.3-0.2c0.1,0,0.2-0.1,0.3-0.1c0.1,0,0.2,0,0.3,0.1c0.1,0,0.2,0.1,0.3,0.2c0.1,0.1,0.1,0.2,0.2,0.3
				C130,91.3,130,91.4,130,91.6z M129.7,91.6c0-0.1,0-0.2,0-0.3c0-0.1-0.1-0.2-0.1-0.2c0-0.1-0.1-0.1-0.2-0.1c-0.1,0-0.1,0-0.2,0
				c-0.1,0-0.1,0-0.2,0c-0.1,0-0.1,0.1-0.2,0.1c0,0.1-0.1,0.1-0.1,0.2c0,0.2,0,0.4,0,0.6c0,0.1,0.1,0.2,0.1,0.2
				c0,0.1,0.1,0.1,0.2,0.1c0.1,0,0.1,0,0.2,0c0.1,0,0.1,0,0.2,0c0.1,0,0.1-0.1,0.2-0.1c0-0.1,0.1-0.1,0.1-0.2
				C129.7,91.8,129.7,91.7,129.7,91.6L129.7,91.6z"/>
			<path class="st8" d="M136.1,91.7c0.1,0,0.2,0.1,0.3,0.2c0.1,0.1,0.1,0.2,0.1,0.4c0,0.1,0,0.2-0.1,0.3c0,0.1-0.1,0.1-0.1,0.2
				c-0.1,0.1-0.2,0.1-0.2,0.1c-0.1,0-0.2,0-0.3,0c-0.1,0-0.3,0-0.4-0.1c-0.1-0.1-0.2-0.1-0.3-0.3l0.2-0.2c0,0.1,0.1,0.2,0.2,0.2
				c0.1,0.1,0.2,0.1,0.3,0.1c0.1,0,0.2,0,0.3-0.1c0.1-0.1,0.1-0.2,0.1-0.3c0-0.1,0-0.2-0.1-0.3c-0.1-0.1-0.2-0.1-0.4-0.1h-0.1v-0.2
				h0.1c0.1,0,0.2,0,0.3-0.1c0.1-0.1,0.1-0.2,0.1-0.3c0-0.1,0-0.2-0.1-0.3c-0.1-0.1-0.2-0.1-0.3-0.1c-0.1,0-0.2,0-0.3,0.1
				c-0.1,0-0.2,0.1-0.2,0.2l-0.2-0.2c0-0.1,0.1-0.1,0.1-0.1c0,0,0.1-0.1,0.2-0.1l0.2-0.1h0.2c0.1,0,0.2,0,0.3,0
				c0.1,0,0.1,0.1,0.2,0.1c0.1,0,0.1,0.1,0.1,0.2c0,0.1,0,0.2,0,0.2c0,0.1,0,0.1,0,0.2c0,0.1,0,0.1-0.1,0.2c0,0-0.1,0.1-0.1,0.1
				C136.2,91.7,136.2,91.7,136.1,91.7z"/>
			<path class="st8" d="M138,92.2v0.3h-1.1v-0.3h0.4V91l-0.1,0.1l-0.1,0.1l-0.1,0.1h-0.1V91c0,0,0.1,0,0.1,0l0.2-0.1l0.1-0.1
				l0.1-0.1h0.3v1.5L138,92.2z"/>
			<path class="st8" d="M121.4,65.7v0.3h-1.1v-0.3h0.4v-1.2l-0.1,0.1l-0.1,0.1l-0.2,0.1h-0.1v-0.3c0,0,0.1,0,0.2,0l0.2-0.1l0.1-0.1
				l0.1-0.1h0.3v1.5L121.4,65.7z"/>
			<path class="st8" d="M128.3,65.9c0-0.1,0-0.2,0-0.2c0-0.1,0-0.1,0.1-0.2c0-0.1,0.1-0.1,0.1-0.2c0.1-0.1,0.2-0.1,0.3-0.2L129,65
				l0.2-0.1c0,0,0.1-0.1,0.1-0.1c0,0,0.1-0.1,0.1-0.2c0,0,0-0.1,0-0.1c0,0,0-0.1-0.1-0.1l-0.1-0.1H129h-0.2l-0.1,0.1l-0.1,0.1
				l-0.1,0.1l-0.2-0.2l0.1-0.1l0.1-0.1l0.2-0.1c0.1,0,0.2,0,0.3,0c0.1,0,0.2,0,0.3,0c0.1,0,0.1,0.1,0.2,0.1c0.1,0,0.1,0.1,0.1,0.2
				c0,0.1,0,0.1,0,0.2c0,0.1,0,0.1-0.1,0.2c0,0.1-0.1,0.1-0.1,0.2l-0.2,0.1l-0.2,0.1l-0.1,0.1l-0.2,0.1c-0.1,0-0.1,0.1-0.1,0.1
				c0,0-0.1,0.1-0.1,0.2h1.1v0.3L128.3,65.9z"/>
			<path class="st8" d="M137.5,65.2c0.1,0,0.2,0.1,0.3,0.2c0.1,0.1,0.1,0.2,0.1,0.4c0,0.1,0,0.2-0.1,0.3c0,0.1-0.1,0.1-0.1,0.2
				c-0.1,0.1-0.2,0.1-0.2,0.1c-0.1,0-0.2,0-0.3,0c-0.1,0-0.3,0-0.4-0.1c-0.1-0.1-0.2-0.1-0.3-0.3l0.2-0.2c0,0.1,0.1,0.2,0.2,0.2
				c0.1,0.1,0.2,0.1,0.3,0.1c0.1,0,0.2,0,0.3-0.1c0.1-0.1,0.1-0.2,0.1-0.3c0-0.1,0-0.2-0.1-0.3c-0.1-0.1-0.2-0.1-0.4-0.1H137V65h0.1
				c0.1,0,0.2,0,0.3-0.1c0.1-0.1,0.1-0.2,0.1-0.3c0-0.1,0-0.2-0.1-0.3c-0.1-0.1-0.2-0.1-0.3-0.1c-0.1,0-0.2,0-0.3,0.1
				c-0.1,0-0.2,0.1-0.2,0.2l-0.2-0.2c0-0.1,0.1-0.1,0.1-0.1c0,0,0.1-0.1,0.2-0.1l0.2-0.1h0.2c0.1,0,0.2,0,0.3,0
				c0.1,0,0.1,0.1,0.2,0.1c0.1,0,0.1,0.1,0.1,0.2c0,0.1,0,0.2,0,0.2c0,0.1,0,0.1,0,0.2c0,0.1,0,0.1-0.1,0.2c0,0-0.1,0.1-0.1,0.1
				C137.6,65.1,137.6,65.1,137.5,65.2z"/>
			<path class="st8" d="M145.6,66.3v-0.5h-1v-0.2l1.1-1.4h0.2v1.4h0.3v0.3h-0.3v0.5H145.6z M144.9,65.5h0.8v-1L144.9,65.5z"/>
			<path class="st8" d="M153.7,64.9c0.1,0,0.2,0,0.3,0.1c0.1,0,0.2,0.1,0.2,0.2c0.1,0.1,0.1,0.1,0.1,0.2c0,0.1,0.1,0.2,0.1,0.3
				c0,0.1,0,0.2-0.1,0.3c0,0.1-0.1,0.2-0.2,0.2c-0.1,0.1-0.2,0.1-0.3,0.2c-0.1,0-0.2,0.1-0.3,0.1c-0.2,0-0.3,0-0.4-0.1
				c-0.1-0.1-0.2-0.2-0.3-0.3l0.2-0.2c0.1,0.1,0.1,0.2,0.2,0.2c0.1,0.1,0.2,0.1,0.3,0.1c0.1,0,0.1,0,0.2,0c0.1,0,0.1-0.1,0.2-0.2
				c0,0,0.1-0.1,0.1-0.2c0-0.1,0-0.1,0-0.2c0-0.1,0-0.1,0-0.2c0-0.1-0.1-0.1-0.1-0.2c0,0-0.1-0.1-0.1-0.1c-0.1,0-0.1,0-0.2,0
				c-0.1,0-0.2,0-0.3,0.1c-0.1,0-0.1,0.1-0.2,0.2H153v-0.1v-0.2V65v-0.2l0.1-0.6h1.1v0.3h-0.9l-0.1,0.7c0,0,0.1-0.1,0.2-0.1
				C153.5,65,153.6,64.9,153.7,64.9z"/>
			<path class="st8" d="M162.7,65.2c0,0.1,0,0.2-0.1,0.3c0,0.1-0.1,0.2-0.2,0.2c-0.1,0.1-0.2,0.1-0.3,0.2c-0.1,0-0.2,0.1-0.3,0.1
				c-0.1,0-0.2,0-0.3-0.1c-0.1,0-0.2-0.1-0.3-0.2c-0.1-0.1-0.1-0.2-0.2-0.3c0-0.1-0.1-0.3-0.1-0.4c0-0.2,0-0.4,0.1-0.6
				c0-0.1,0.1-0.3,0.2-0.4c0.1-0.1,0.2-0.2,0.3-0.2c0.1-0.1,0.2-0.1,0.3-0.1c0.1,0,0.3,0,0.4,0.1c0.1,0.1,0.2,0.2,0.3,0.3l-0.2,0.2
				c-0.1-0.2-0.3-0.3-0.5-0.3c-0.1,0-0.2,0-0.2,0.1c-0.1,0-0.1,0.1-0.2,0.2c-0.1,0.1-0.1,0.2-0.1,0.3c0,0.1,0,0.2,0,0.4
				c0-0.1,0.1-0.2,0.2-0.3c0.1-0.1,0.2-0.1,0.4-0.1c0.1,0,0.2,0,0.3,0.1c0.1,0,0.2,0.1,0.2,0.2c0.1,0.1,0.1,0.2,0.2,0.2
				C162.7,65,162.7,65.1,162.7,65.2z M161.9,65.7c0.1,0,0.1,0,0.2,0c0.1,0,0.1-0.1,0.2-0.1c0,0,0.1-0.1,0.1-0.2c0-0.1,0-0.1,0-0.2
				c0-0.1,0-0.1,0-0.2c0-0.1-0.1-0.1-0.1-0.2c0,0-0.1-0.1-0.2-0.1c-0.1,0-0.1,0-0.2,0c-0.1,0-0.1,0-0.2,0c-0.1,0-0.1,0.1-0.2,0.1
				c0,0-0.1,0.1-0.1,0.2c0,0.1,0,0.1,0,0.2c0,0.1,0,0.1,0,0.2c0,0.1,0.1,0.1,0.1,0.2c0,0,0.1,0.1,0.2,0.1
				C161.8,65.7,161.8,65.7,161.9,65.7L161.9,65.7z"/>
			<path class="st8" d="M111.9,56.7L111.9,56.7l-0.2-0.1l-0.2-0.1h-0.2c-0.1,0-0.2,0-0.3,0.1c-0.1,0-0.1,0.1-0.1,0.2
				c0,0,0,0.1,0,0.1c0,0,0.1,0.1,0.1,0.1l0.2,0.1l0.2,0.1l0.3,0.1c0.1,0,0.2,0.1,0.2,0.1c0.1,0,0.1,0.1,0.1,0.2c0,0.1,0,0.2,0,0.3
				c0,0.1,0,0.2-0.1,0.3c0,0.1-0.1,0.1-0.2,0.2c-0.1,0.1-0.2,0.1-0.3,0.1c-0.1,0-0.2,0-0.3,0c-0.2,0-0.3,0-0.5-0.1
				c-0.1,0-0.3-0.1-0.4-0.2l0.2-0.4l0.1,0.1l0.2,0.1l0.2,0.1c0.1,0,0.2,0,0.2,0c0.2,0,0.3-0.1,0.3-0.2c0,0,0-0.1,0-0.1
				c0,0-0.1-0.1-0.1-0.1l-0.2-0.1l-0.2-0.1l-0.3-0.1c-0.1,0-0.1-0.1-0.2-0.1c0,0-0.1-0.1-0.1-0.2c0-0.1,0-0.1,0-0.2
				c0-0.1,0-0.2,0.1-0.3c0-0.1,0.1-0.2,0.2-0.2c0.1-0.1,0.2-0.1,0.3-0.1c0.1,0,0.2,0,0.3,0c0.1,0,0.3,0,0.4,0.1
				c0.1,0,0.2,0.1,0.3,0.2L111.9,56.7z"/>
			<path class="st8" d="M162.1,56.7L162.1,56.7l-0.2-0.1l-0.2-0.1h-0.2c-0.1,0-0.2,0-0.3,0.1c-0.1,0-0.1,0.1-0.1,0.2
				c0,0,0,0.1,0,0.1c0,0,0.1,0.1,0.1,0.1l0.1,0.1l0.2,0.1l0.3,0.1c0.1,0,0.2,0.1,0.2,0.1c0.1,0,0.1,0.1,0.1,0.2c0,0.1,0,0.2,0,0.3
				c0,0.1,0,0.2-0.1,0.3c0,0.1-0.1,0.1-0.2,0.2c-0.1,0.1-0.2,0.1-0.3,0.1c-0.1,0-0.2,0-0.3,0c-0.2,0-0.3,0-0.5-0.1
				c-0.1,0-0.3-0.1-0.4-0.2l0.2-0.4l0.1,0.1l0.2,0.1l0.2,0.1c0.1,0,0.2,0,0.2,0c0.2,0,0.3-0.1,0.3-0.2c0,0,0-0.1,0-0.1
				c0,0-0.1-0.1-0.1-0.1l-0.2-0.1l-0.2-0.1l-0.3-0.1c-0.1,0-0.1-0.1-0.2-0.1c0,0-0.1-0.1-0.1-0.2c0-0.1,0-0.1,0-0.2
				c0-0.1,0-0.2,0.1-0.3c0-0.1,0.1-0.2,0.2-0.2c0.1-0.1,0.2-0.1,0.3-0.1c0.1,0,0.2,0,0.3,0c0.1,0,0.3,0,0.4,0.1
				c0.1,0,0.2,0.1,0.3,0.2L162.1,56.7z"/>
			<path class="st8" d="M120.7,58.3v-1.4l-0.6,1h-0.2l-0.6-1v1.4H119v-2.1h0.4l0.6,1.2l0.6-1.2h0.4v2.1H120.7z"/>
			<path class="st8" d="M129.2,56.5h-0.7v1.8h-0.4v-1.8h-0.7v-0.4h1.8L129.2,56.5z"/>
			<path class="st8" d="M135.9,56.1h0.4l0.2,0.7l0.2-0.7h0.4l-0.4,1l0.3,0.7l0.6-1.7h0.4l-0.9,2.1h-0.4l-0.4-0.9l-0.4,0.9h-0.4
				l-0.9-2.1h0.4l0.6,1.6l0.3-0.7L135.9,56.1z"/>
			<path class="st8" d="M146.1,56.5h-0.7v1.8h-0.4v-1.8h-0.7v-0.4h1.8L146.1,56.5z"/>
			<path class="st8" d="M152.8,58.3v-2.1h1.4v0.4h-1V57h0.9v0.3h-0.9v0.9L152.8,58.3z"/>
			<path class="st8" d="M111,48.5v2.3h-0.7v-3.6h0.5l1.9,2.4v-2.4h0.7v3.6h-0.6L111,48.5z"/>
			<path class="st8" d="M115.3,50.9c-0.2,0-0.4,0-0.6-0.1c-0.2-0.1-0.3-0.2-0.4-0.3c-0.1-0.1-0.2-0.3-0.3-0.5c-0.1-0.3-0.1-0.7,0-1
				c0.1-0.2,0.2-0.3,0.3-0.4c0.1-0.1,0.3-0.2,0.4-0.3c0.2-0.1,0.4-0.1,0.6-0.1c0.2,0,0.4,0,0.6,0.1c0.2,0.1,0.3,0.2,0.4,0.3
				c0.1,0.1,0.2,0.3,0.3,0.4c0.1,0.3,0.1,0.7,0,1c-0.1,0.2-0.2,0.3-0.3,0.4c-0.1,0.1-0.3,0.2-0.4,0.3
				C115.7,50.8,115.5,50.9,115.3,50.9z M114.6,49.5c0,0.1,0,0.2,0.1,0.3c0,0.1,0.1,0.2,0.2,0.3c0.1,0.1,0.1,0.1,0.2,0.2
				c0.2,0.1,0.4,0.1,0.6,0c0.1,0,0.2-0.1,0.2-0.2c0.1-0.1,0.1-0.2,0.2-0.3c0-0.1,0.1-0.2,0.1-0.3c0-0.1,0-0.2-0.1-0.3
				c0-0.1-0.1-0.2-0.2-0.3c-0.1-0.1-0.1-0.1-0.2-0.2c-0.1,0-0.2-0.1-0.3-0.1c-0.1,0-0.2,0-0.3,0.1c-0.1,0-0.2,0.1-0.2,0.2
				c-0.1,0.1-0.1,0.2-0.2,0.3C114.6,49.3,114.6,49.4,114.6,49.5L114.6,49.5z"/>
			<path class="st8" d="M117.8,50.8l-1-2.7h0.7l0.7,2.1l0.7-2.1h0.6l-1,2.7H117.8z"/>
			<path class="st8" d="M121,50.9c-0.2,0-0.4,0-0.6-0.1c-0.3-0.1-0.6-0.4-0.7-0.7c-0.1-0.2-0.1-0.3-0.1-0.5c0-0.2,0-0.4,0.1-0.5
				c0.1-0.2,0.2-0.3,0.3-0.4c0.1-0.1,0.3-0.2,0.4-0.3c0.2-0.1,0.4-0.1,0.6-0.1c0.2,0,0.4,0,0.6,0.1c0.2,0.1,0.3,0.2,0.4,0.3
				c0.1,0.1,0.2,0.3,0.3,0.4c0.1,0.2,0.1,0.3,0.1,0.5c0,0,0,0.1,0,0.1c0,0,0,0.1,0,0.1h-2.1c0,0.1,0,0.2,0.1,0.3
				c0.1,0.2,0.2,0.3,0.4,0.3c0.1,0,0.2,0,0.3,0c0.1,0,0.3,0,0.4-0.1c0.1-0.1,0.2-0.1,0.3-0.3l0.6,0.2c-0.1,0.2-0.3,0.4-0.5,0.5
				C121.5,50.8,121.3,50.9,121,50.9z M121.7,49.3c0-0.2-0.1-0.4-0.2-0.5c-0.3-0.2-0.7-0.2-0.9,0c-0.1,0.1-0.1,0.1-0.2,0.2
				c0,0.1-0.1,0.2-0.1,0.3H121.7z"/>
			<path class="st8" d="M126.9,50.8h-0.7v-1.5c0-0.2,0-0.3-0.1-0.5c-0.1-0.1-0.2-0.2-0.3-0.2c-0.1,0-0.3,0.1-0.4,0.2
				c-0.1,0.1-0.2,0.2-0.3,0.4v1.5h-0.7v-1.5c0-0.2,0-0.3-0.1-0.5c-0.1-0.1-0.2-0.2-0.3-0.2c-0.1,0-0.3,0.1-0.4,0.2
				c-0.1,0.1-0.2,0.2-0.3,0.4v1.5h-0.7v-2.6h0.6v0.5c0.1-0.2,0.2-0.3,0.4-0.4c0.2-0.1,0.4-0.1,0.6-0.1c0.2,0,0.4,0,0.5,0.2
				c0.1,0.1,0.2,0.2,0.2,0.4c0.1-0.2,0.2-0.3,0.4-0.4c0.2-0.1,0.4-0.1,0.6-0.1c0.1,0,0.3,0,0.4,0.1c0.1,0.1,0.2,0.1,0.2,0.2
				c0.1,0.1,0.1,0.2,0.1,0.3c0,0.1,0,0.3,0,0.4L126.9,50.8z"/>
			<path class="st8" d="M129,50.9c-0.2,0-0.4,0-0.5-0.1c-0.2-0.1-0.3-0.2-0.4-0.4v0.5h-0.6v-3.7h0.7v1.5c0.1-0.2,0.2-0.3,0.4-0.4
				c0.2-0.1,0.4-0.1,0.5-0.1c0.2,0,0.3,0,0.5,0.1c0.1,0.1,0.3,0.2,0.4,0.3c0.1,0.1,0.2,0.3,0.2,0.4c0.1,0.2,0.1,0.4,0.1,0.5
				c0,0.2,0,0.4-0.1,0.5c-0.1,0.2-0.1,0.3-0.3,0.4c-0.1,0.1-0.2,0.2-0.4,0.3C129.4,50.8,129.2,50.9,129,50.9z M128.8,50.3
				c0.1,0,0.2,0,0.3-0.1c0.1,0,0.2-0.1,0.2-0.2c0.1-0.1,0.1-0.2,0.1-0.3c0-0.1,0.1-0.2,0.1-0.3c0-0.1,0-0.2-0.1-0.3
				c0-0.1-0.1-0.2-0.1-0.3c-0.1-0.1-0.1-0.1-0.2-0.2c-0.1,0-0.2-0.1-0.3-0.1c-0.2,0-0.3,0.1-0.4,0.2c-0.1,0.1-0.2,0.2-0.3,0.4v0.6
				c0,0.1,0.1,0.1,0.1,0.2c0,0.1,0.1,0.1,0.1,0.1c0.1,0,0.1,0.1,0.2,0.1C128.7,50.3,128.7,50.3,128.8,50.3L128.8,50.3z"/>
			<path class="st8" d="M131.9,50.9c-0.2,0-0.4,0-0.6-0.1c-0.3-0.1-0.6-0.4-0.7-0.7c-0.1-0.2-0.1-0.3-0.1-0.5c0-0.2,0-0.4,0.1-0.5
				c0.1-0.2,0.2-0.3,0.3-0.4c0.1-0.1,0.3-0.2,0.4-0.3c0.2-0.1,0.4-0.1,0.6-0.1c0.2,0,0.4,0,0.6,0.1c0.2,0.1,0.3,0.2,0.4,0.3
				c0.1,0.1,0.2,0.3,0.3,0.4c0.1,0.2,0.1,0.3,0.1,0.5c0,0,0,0.1,0,0.1c0,0,0,0.1,0,0.1h-2.1c0,0.1,0,0.2,0.1,0.3
				c0.1,0.2,0.2,0.3,0.4,0.3c0.1,0,0.2,0,0.3,0c0.1,0,0.3,0,0.4-0.1c0.1-0.1,0.2-0.1,0.3-0.3l0.6,0.2c-0.1,0.2-0.3,0.4-0.5,0.5
				C132.5,50.8,132.2,50.9,131.9,50.9z M132.6,49.3c0-0.2-0.1-0.4-0.2-0.5c-0.3-0.2-0.7-0.2-0.9,0c-0.1,0.1-0.1,0.1-0.1,0.2
				c0,0.1-0.1,0.2-0.1,0.3H132.6z"/>
			<path class="st8" d="M135.3,48.8c-0.2,0-0.4,0-0.6,0.1c-0.2,0.1-0.3,0.2-0.4,0.3v1.6h-0.7v-2.6h0.6v0.6c0-0.1,0.1-0.2,0.2-0.3
				c0.1-0.1,0.1-0.1,0.2-0.2c0.1,0,0.1-0.1,0.2-0.1c0.1,0,0.1,0,0.2,0h0.1L135.3,48.8z"/>
			<path class="st3" d="M108.2,39c0.9,0.2,1.6,1.1,1.4,2c-0.1,0.7-0.7,1.3-1.4,1.4"/>
			<path class="st3" d="M112.6,39c0.9,0.2,1.6,1.1,1.4,2c-0.1,0.7-0.7,1.3-1.4,1.4"/>
			<path class="st3" d="M117,39c0.9,0.2,1.6,1.1,1.4,2c-0.1,0.7-0.7,1.3-1.4,1.4"/>
			<path class="st3" d="M121.4,39c0.9,0.2,1.6,1.1,1.4,2c-0.1,0.7-0.7,1.3-1.4,1.4"/>
			<path class="st3" d="M125.8,39c0.9,0.2,1.6,1.1,1.4,2c-0.1,0.7-0.7,1.3-1.4,1.4"/>
			<path class="st3" d="M130.2,39c0.9,0.2,1.6,1.1,1.4,2c-0.1,0.7-0.7,1.3-1.4,1.4"/>
			<path class="st3" d="M134.6,39c0.9,0.2,1.6,1.1,1.4,2c-0.1,0.7-0.7,1.3-1.4,1.4"/>
			<path class="st3" d="M143.5,39c0.9,0.2,1.6,1.1,1.4,2c-0.1,0.7-0.7,1.3-1.4,1.4"/>
			<path class="st3" d="M147.9,39c0.9,0.2,1.6,1.1,1.4,2c-0.1,0.7-0.7,1.3-1.4,1.4"/>
			<path class="st3" d="M152.3,39c0.9,0.2,1.6,1.1,1.4,2c-0.1,0.7-0.7,1.3-1.4,1.4"/>
			<path class="st3" d="M156.7,39c0.9,0.2,1.6,1.1,1.4,2c-0.1,0.7-0.7,1.3-1.4,1.4"/>
			<path class="st3" d="M161.1,39c0.9,0.2,1.6,1.1,1.4,2c-0.1,0.7-0.7,1.3-1.4,1.4"/>
			<path class="st3" d="M165.5,39c0.9,0.2,1.6,1.1,1.4,2c-0.1,0.7-0.7,1.3-1.4,1.4"/>
			<path class="st3" d="M169.9,39c0.9,0.2,1.6,1.1,1.4,2c-0.1,0.7-0.7,1.3-1.4,1.4"/>
			<path class="st3" d="M139,39c0.9,0.2,1.6,1.1,1.4,2c-0.1,0.7-0.7,1.3-1.4,1.4"/>
			<circle class="st3" cx="108.1" cy="42.6" r="0.9"/>
			<circle class="st3" cx="112.6" cy="42.6" r="0.9"/>
			<circle class="st3" cx="117.1" cy="42.6" r="0.9"/>
			<circle class="st3" cx="121.6" cy="42.6" r="0.9"/>
			<circle class="st3" cx="126.1" cy="42.6" r="0.9"/>
			<circle class="st3" cx="130.6" cy="42.6" r="0.9"/>
			<circle class="st3" cx="135.1" cy="42.6" r="0.9"/>
			<circle class="st3" cx="139" cy="42.6" r="0.9"/>
			<circle class="st3" cx="143.6" cy="42.6" r="0.9"/>
			<circle class="st3" cx="148.1" cy="42.6" r="0.9"/>
			<circle class="st3" cx="152.4" cy="42.6" r="0.9"/>
			<circle class="st3" cx="156.9" cy="42.6" r="0.9"/>
			<circle class="st3" cx="160.9" cy="42.6" r="0.9"/>
			<circle class="st3" cx="165.6" cy="42.6" r="0.9"/>
			<circle class="st3" cx="169.9" cy="42.6" r="0.9"/>
			<path class="st9" d="M266.6,206.1c-0.2,0.8-0.3,1.7-0.3,2.5c-0.2,1-1.1,1.4-1.7,2.2s-1.6,2.2,2.2,2.3c4,0.1,6.4,0,5.7-2.2
				c-0.5-1.2-0.7-2.5-0.8-3.9c0.1-0.7,0-1.3-0.5-1.9C270.8,204.6,267.2,203.9,266.6,206.1z"/>
			<path class="st10" d="M217.5,96.8c-1.4,0.3-12.5,3.6-10.9,5.6c1.7,2.2,6.4,1.8,8,1.5c2.9-0.6,4.8-3,4.9-4.7
				C219.5,97.9,218.9,96.4,217.5,96.8z"/>
			<path class="st10" d="M216.7,96.4c-0.7-0.1-4.6-1-4.8-0.2c-0.3,1.1,2.2,1.8,3.9,2.2c0.9,0.2,2.3,0,2.4-0.8S217.8,96.7,216.7,96.4
				z"/>
			<path class="st9" d="M235.8,207.9c-1,1.3-2.4,2.3-3.9,2.9c-2.1,0.9-6.5,1.3-4,2.1c2.2,0.5,4.5,0.6,6.8,0.1c1.5-0.2,3-0.3,4.6-0.3
				c2.3,0,2.3-0.1,2-2.6C240.7,206.7,236.8,206,235.8,207.9z"/>
			<path class="st10" d="M261.4,51.6c-0.5,4.6-0.6,5.6-2.6,7.4s-5.1,2.1-7.3,2.1c-2.3,0-3.9-2.8-4.4-4.7c-0.8-3.5-1-7.2-0.4-10.7
				c0.3-2.5,3.4-5.6,6.7-5.6C256.6,40.1,262.5,40.5,261.4,51.6z"/>
			
				<linearGradient id="SVGID_3_" gradientUnits="userSpaceOnUse" x1="-272.4731" y1="2149.1892" x2="-218.1131" y2="2201.5393" gradientTransform="matrix(0.9719 0.2353 0.2353 -0.9719 1241.7385 1512.9308)">
				<stop  offset="0" style="stop-color:#36078B"/>
				<stop  offset="1" style="stop-color:#16B1FF"/>
			</linearGradient>
			<path class="st11" d="M217.6,100.6c2.2,0.4,3.8,0.4,8.6-1.8c6.5-3,10-5,12.8-7.1c2.6-1.9-2.9-7.4-6.8-5.6
				c-3.4,1.5-13,10.8-15,11.8C215.7,98.5,215.7,100.3,217.6,100.6z"/>
			
				<linearGradient id="SVGID_4_" gradientUnits="userSpaceOnUse" x1="211.0782" y1="149.9919" x2="265.4382" y2="202.3519" gradientTransform="matrix(1 0 0 -1 0 255.89)">
				<stop  offset="0" style="stop-color:#36078B"/>
				<stop  offset="1" style="stop-color:#16B1FF"/>
			</linearGradient>
			<path class="st12" d="M238.1,90.9c1.4-1.1,4-4.1,8.2-12.8c1.6-3,2.8-6.2,3.9-9.5c1-3.1-1.3-5.5-3-5.4c-2.7,0.2-6.3,2.2-7,3.8
				c-3.5,8.9-5.7,16-7,18C231.5,87.9,236.6,92.2,238.1,90.9z"/>
			<path class="st10" d="M259.1,59.6c0.1,1.6,0.2,3.4,0.3,5.1c0.1,2.2-1.6,4.1-3.8,4.4h-0.3c-2,0-4.3-1.8-4.1-3.8
				c0.1-1.3,0.2-2.6,0.2-3.7c0-2.2,1.4-4.1,3.4-4.8l0,0c1.7-0.6,3.5,0.3,4.1,1.9C259,59,259,59.3,259.1,59.6z"/>
			
				<linearGradient id="SVGID_5_" gradientUnits="userSpaceOnUse" x1="252.8581" y1="202.89" x2="252.8581" y2="156.84" gradientTransform="matrix(1 0 0 -1 0 255.89)">
				<stop  offset="0" style="stop-color:#36078B"/>
				<stop  offset="1" style="stop-color:#16B1FF"/>
			</linearGradient>
			<path class="st13" d="M268.2,79.1c-3.7,12-4.9,24.6-4.1,33h-27.5c0,0,0.2-25.8,2-39.9c0.5-3.5,2.6-6.5,5.8-8.1
				c2.3-1,4.8-1.6,7.3-1.6h5.1c1.8,0,3.6,0.2,5.4,0.7C269.6,65.4,270.3,72.1,268.2,79.1z"/>
			
				<linearGradient id="SVGID_6_" gradientUnits="userSpaceOnUse" x1="210.3409" y1="59.6795" x2="255.2309" y2="144.9295" gradientTransform="matrix(1 0 0 -1 0 255.89)">
				<stop  offset="0" style="stop-color:#F70F47"/>
				<stop  offset="1" style="stop-color:#FFB41D"/>
			</linearGradient>
			<path class="st14" d="M263.9,128.9c0,0,2.4-5.8,0.1-16.8h-27.5c-0.6,5.6-1,11.2-1,16.8H263.9z"/>
			
				<linearGradient id="SVGID_7_" gradientUnits="userSpaceOnUse" x1="248.0152" y1="39.8372" x2="292.9052" y2="125.0973" gradientTransform="matrix(1 0 0 -1 0 255.89)">
				<stop  offset="0" style="stop-color:#F70F47"/>
				<stop  offset="1" style="stop-color:#FFB41D"/>
			</linearGradient>
			<path class="st15" d="M258.5,165c-2.2-9,7-10.6,9.9-4.1c4.1,9.2,3.8,38.5,3.5,44.4c0,0.8,0.1,1.7-0.3,2c-0.9,0.4-1.9,0.6-2.9,0.5
				c-1,0-2,0-2.1-1.3C265.9,197.9,260.6,173.7,258.5,165z"/>
			
				<linearGradient id="SVGID_8_" gradientUnits="userSpaceOnUse" x1="226.7927" y1="51.0139" x2="271.6827" y2="136.2639" gradientTransform="matrix(1 0 0 -1 0 255.89)">
				<stop  offset="0" style="stop-color:#F70F47"/>
				<stop  offset="1" style="stop-color:#FFB41D"/>
			</linearGradient>
			<path class="st16" d="M250.3,130.1c-1-11.1,3.4-19.8,10.4-16.1c2.9,1.6,4,4.7,4.4,7.6s2.5,33.2,3.3,38.7c1.7,12.4-8.1,9-9.1,5.6
				C256.5,157.3,250.8,136.2,250.3,130.1z"/>
			
				<linearGradient id="SVGID_9_" gradientUnits="userSpaceOnUse" x1="227.3502" y1="50.7199" x2="272.2402" y2="135.9699" gradientTransform="matrix(1 0 0 -1 0 255.89)">
				<stop  offset="0" style="stop-color:#F70F47"/>
				<stop  offset="1" style="stop-color:#FFB41D"/>
			</linearGradient>
			<path class="st17" d="M241.1,209.8c0.4-13.1,5.9-36.1,2.7-46.8c-2-6.8-10.2-7-9.8,1.4c0.4,8.9,3.1,26.3,2.2,43.5
				C236,209.6,241,211.4,241.1,209.8z"/>
			
				<linearGradient id="SVGID_10_" gradientUnits="userSpaceOnUse" x1="210.6158" y1="59.5322" x2="255.5158" y2="144.7822" gradientTransform="matrix(1 0 0 -1 0 255.89)">
				<stop  offset="0" style="stop-color:#F70F47"/>
				<stop  offset="1" style="stop-color:#FFB41D"/>
			</linearGradient>
			<path class="st18" d="M243.5,165.3c-1.1,3.4-10.4,7.4-9.4-5.1c0.4-5.5,1.6-35.9,1.8-38.9s0.7-7.2,2.2-7.8
				c7.4-2.7,14.5,6.1,12.6,17.1C249.3,138.1,245.7,158.2,243.5,165.3z"/>
			
				<ellipse transform="matrix(0.9257 -0.3782 0.3782 0.9257 -1.0865 96.9837)" class="st10" cx="246.4" cy="51.3" rx="1.6" ry="3.1"/>
			
				<ellipse transform="matrix(0.378 -0.9258 0.9258 0.378 115.0501 273.7173)" class="st10" cx="261.2" cy="51.2" rx="3.1" ry="1.6"/>
			<path class="st10" d="M251.7,99.1c-1.2-0.6-10.6-4.9-10.7-2.6c-0.1,2.5,3.3,5,4.5,5.7c2.3,1.3,5,0.8,6.1-0.4
				C252.4,101,252.8,99.7,251.7,99.1z"/>
			<path class="st10" d="M250.3,97.3c-0.6-0.2-3.9-1.5-4.2-0.9c-0.4,0.9,1.7,1.9,3.1,2.6c0.8,0.3,2,0.3,2.3-0.3
				S251.2,97.7,250.3,97.3z"/>
			
				<linearGradient id="SVGID_11_" gradientUnits="userSpaceOnUse" x1="240.3308" y1="222.974" x2="279.1108" y2="193.114" gradientTransform="matrix(1 0 0 -1 0 255.89)">
				<stop  offset="0" style="stop-color:#0000FF"/>
				<stop  offset="1" style="stop-color:#9E005D"/>
			</linearGradient>
			<path class="st19" d="M260,42.6c-1.8,2.7-10.4,2.9-13.1,1.9s-2.6-6.4,1.4-6.8c2.3,0,0.6,0.5,2.4,1.3
				C251.6,39.4,261.9,39.8,260,42.6z"/>
			
				<linearGradient id="SVGID_12_" gradientUnits="userSpaceOnUse" x1="225.078" y1="119.3118" x2="284.998" y2="187.7218" gradientTransform="matrix(1 0 0 -1 0 255.89)">
				<stop  offset="0" style="stop-color:#36078B"/>
				<stop  offset="1" style="stop-color:#16B1FF"/>
			</linearGradient>
			<path class="st20" d="M247.9,102.4c2.1,0.7,3.9,0,9.1-1.1c7.5-1.6,9.1-2.5,13.3-5.1c2.7-1.7-1.9-7.4-6-6.1
				c-3.6,1.1-14.4,9-16.6,9.6C246.4,100,246.2,101.8,247.9,102.4z"/>
			
				<linearGradient id="SVGID_13_" gradientUnits="userSpaceOnUse" x1="221.486" y1="122.4523" x2="281.406" y2="190.8723" gradientTransform="matrix(1 0 0 -1 0 255.89)">
				<stop  offset="0" style="stop-color:#36078B"/>
				<stop  offset="1" style="stop-color:#16B1FF"/>
			</linearGradient>
			<path class="st21" d="M271.2,95c0.5-1.7,1.1-5.6,0-15.2c-0.3-3.4-0.9-6.8-1.8-10.1c-0.8-3.1-4-3.9-5.4-2.9
				c-2.2,1.6-4.2,5.3-3.8,6.9c1.8,9.4,3.8,16.6,3.8,18.9C264,96.1,270.6,97,271.2,95z"/>
			<g>
				<defs>
					<path id="SVGID_14_" d="M272.5,210.8c-0.5-1.2-0.7-2.5-0.8-3.8c0.1-0.6,0.2-1.2,0.1-1.8c0.2-5.9,0.5-35.2-3.5-44.4l0,0
						c0-0.2,0-0.4-0.1-0.6c-0.7-5.4-2.8-34.4-3.3-38.4c0-3.3-0.3-6.6-1-9.8c-0.3-4.2-0.2-8.5,0.2-12.7c2.2-0.8,4.3-1.9,6.2-3.2
						c0.4-0.2,0.7-0.6,0.8-1.1V95c0.5-1.7,1.1-5.6,0-15.2c-0.3-3.4-0.9-6.8-1.8-10.1c-0.2-0.9-0.7-1.7-1.4-2.3
						c-1.3-2.2-3.4-3.7-5.8-4.3c-0.9-0.3-1.9-0.5-2.9-0.5c-0.1-1-0.1-2-0.2-2.9c0-0.2-0.1-0.5-0.1-0.7c1-0.8,1.6-1.9,1.9-3.1
						c0.4-0.7,0.8-1.5,1-2.4c0.4-0.5,0.8-1,1-1.6c0.6-1.5,0.5-3-0.2-3.4c0.2-3.2-0.2-5.5-2.3-6.5c0.1-2.3-8.7-2.6-9.5-2.9
						c-1.8-0.7-0.2-1.3-2.4-1.3c-4,0.4-4.2,5.8-1.4,6.8h0.2c-0.2,0.4-0.3,0.7-0.3,1.1c-0.1,1-0.2,2-0.3,3c-0.3-0.3-0.8-0.4-1.2-0.3
						c-0.8,0.3-1,1.9-0.3,3.5c0.3,0.9,1,1.7,1.8,2.2c0.1,0.8,0.3,1.6,0.5,2.4c0.5,1.9,2,4.6,4.3,4.7c0,0.2,0,0.3,0,0.5
						c0,0.3,0,0.5,0,0.8c-2,0.1-4.1,0.5-6,1.2c-2.3,0.7-4.6,2.2-5.1,3.4l-0.6,1.5c-0.4,0.8-0.8,1.6-1,2.5c-2.6,7-4.4,12.3-5.4,14
						c-0.2,0.3-0.3,0.6-0.3,0.9c-2.8,2.5-8.8,11.7-11.1,14.2h-0.1c-0.3,0-0.7,0-1,0c-0.7,0-4.7,0.2-4.7,1s1.1,1,2.3,1.1
						c-3.2,2.1-7.4,5.1-6,6.1c2.2,1.7,6.7,0.2,8.1-0.5c1.9-0.9,3.3-2.8,3.5-4.9c1.6-0.3,3.2-1.1,6.4-3.6c2.7-2.1,4.8-3.9,6.5-5.4
						c-0.4,9.8-0.4,18-0.4,18c-0.6,5.6-1,11.2-1,16.9l0,0c-0.4,10.2-1.1,27.3-1.4,31.3c-0.1,0.9-0.1,1.8,0,2.7c0,0.5,0,1,0,1.5
						c0.4,8.9,3,25.9,2.2,43c-0.1,0.1-0.3,0.3-0.4,0.5c-1,1.3-2.4,2.3-3.9,2.9c-2.1,0.9-6.5,1.3-4,2.1c2.2,0.5,4.5,0.6,6.8,0.1
						c1.5-0.2,3-0.3,4.6-0.3c2.3,0,2.3-0.1,2-2.6c0-0.1,0-0.1,0-0.2l0,0c0.3-12.9,5.7-35.3,2.9-46.2c2.1-7.8,5.2-24.6,6.5-32
						c1,6.6,5.1,22,7.7,31.1c0,0.8,0.1,1.5,0.3,2.3c2.1,8.7,7.4,32.9,8.1,41.4l0,0c-0.2,1-0.1,1.4-0.3,2.1c-0.2,1-1.1,1.4-1.7,2.2
						s-1.6,2.2,2.2,2.3C270.8,213.1,273.2,213,272.5,210.8z"/>
				</defs>
				<clipPath id="SVGID_15_">
					<use xlink:href="#SVGID_14_"  style="overflow:visible;"/>
				</clipPath>
			</g>
			<path class="st10" d="M172.8,122.1c1.7,0.4,4.3,1,5.7,1.2s1,3.5,0.2,4c-1.2,0.8-5.4,1.4-6.3-0.2s-2.6-1.2-2.9-2.9
				S170.1,121.5,172.8,122.1z"/>
			
				<linearGradient id="SVGID_16_" gradientUnits="userSpaceOnUse" x1="-2374.9507" y1="23.2207" x2="-2372.3105" y2="58.1407" gradientTransform="matrix(-1 4.000000e-02 -4.000000e-02 -1 -2214.2144 335.07)">
				<stop  offset="0" style="stop-color:#36078B"/>
				<stop  offset="1" style="stop-color:#16B1FF"/>
			</linearGradient>
			<path class="st22" d="M157.9,212.2c1.2,1.4,2.7,2.4,4.4,2.9c2.3,0.9,7.1,1.2,4.5,2.1s-5.8,0.6-7.4,0.4c-1.7-0.2-3.3-0.2-5-0.1
				c-2.5,0.1-2.5-0.1-2.3-2.8C152.4,211.1,156.7,210.2,157.9,212.2z"/>
			
				<linearGradient id="SVGID_17_" gradientUnits="userSpaceOnUse" x1="-2323.7329" y1="19.3568" x2="-2321.1028" y2="54.2768" gradientTransform="matrix(-1 4.000000e-02 -4.000000e-02 -1 -2214.2144 335.07)">
				<stop  offset="0" style="stop-color:#36078B"/>
				<stop  offset="1" style="stop-color:#16B1FF"/>
			</linearGradient>
			<path class="st23" d="M106.4,208.6c0.4,0.6,1.4,4.2,3.8,5.1s6.4,1.9,3.8,2.9s-5.8,0.6-7.4,0.4s-2-2.1-3.6-3
				c-2.6-1.3-2.2-1.2-2-3.9c0.1-1.7,1.5-2.9,3.2-2.8C105,207.3,105.8,207.8,106.4,208.6z"/>
			
				<linearGradient id="SVGID_18_" gradientUnits="userSpaceOnUse" x1="-1774.3622" y1="255.275" x2="-1730.8522" y2="224.175" gradientTransform="matrix(0.9753 0.2209 0.2209 -0.9753 1825.4705 725.736)">
				<stop  offset="0" style="stop-color:#36078B"/>
				<stop  offset="1" style="stop-color:#16B1FF"/>
			</linearGradient>
			<path class="st24" d="M174,121.8c-2-2.3-3.1-5.8-4.4-8.5c-1.8-3.6-3.4-7.1-6.1-10.2c-0.3-0.3-0.6-0.7-0.8-1.1
				c-0.7-1.4-0.8-3.5-0.9-5.1s-0.3-3.4-0.4-5.1c-0.3-4.9-0.6-9.8-1-14.8c-0.1-1.8-3.4-5.3-6.3-4.5c-3.2,0.8-4.2,2.3-4.1,5.8
				c0,3.7,0.4,7.4,1,11.1c1.2,7.6,2.8,15.7,7.7,21.9c1.9,2.4,3.8,4.9,5.8,7.2c3.8,4.4,5.3,5.1,7.7,5.7
				C174.2,124.8,175.1,123.1,174,121.8z"/>
			
				<linearGradient id="SVGID_19_" gradientUnits="userSpaceOnUse" x1="-2390.1692" y1="180.1362" x2="-2357.239" y2="216.9862" gradientTransform="matrix(-1 4.000000e-02 -4.000000e-02 -1 -2214.2144 335.07)">
				<stop  offset="0" style="stop-color:#2C27CE"/>
				<stop  offset="0.65" style="stop-color:#EF1D68"/>
				<stop  offset="1" style="stop-color:#EFBA92"/>
			</linearGradient>
			<path class="st25" d="M156.2,53.6c1.6,1.3,2.4,1.5,3.7-0.6c0.1-0.1,6.6-6.4,0.6-8.9c-2.8-1.1-5-1.8-5.6,2.2
				S154.3,52.1,156.2,53.6z"/>
			<path class="st26" d="M145.6,54.1c-0.1,0.3-2.9,5.9-4.7,10.3c-0.7,2.4,0.5,4.9,2.7,5.9h0.1c2.1,0.8,5.4-0.2,6-2.4
				c0.8-2.7,1.7-5.4,2.9-8L145.6,54.1z"/>
			
				<linearGradient id="SVGID_20_" gradientUnits="userSpaceOnUse" x1="-2050.9131" y1="130.8734" x2="-1967.5231" y2="194.6334" gradientTransform="matrix(1 -4.000000e-02 -4.000000e-02 -1 2168.4856 169.29)">
				<stop  offset="0" style="stop-color:#36078B"/>
				<stop  offset="1" style="stop-color:#16B1FF"/>
			</linearGradient>
			<path class="st27" d="M129.6,77.3c1.6,13.6,0.8,35.3-1.6,44.2l30.1-1.1c0,0,1.8-19.4,3.2-36.3c0.3-3.1,0.2-6.3-0.4-9.4
				c-0.8-3-2.7-5.6-5.3-7.3c-2.4-1.4-5-2.4-7.7-2.9c-2.4-0.6-4.9-0.9-7.4-1c-3.4,0-7.1,0.7-9.2,3.6c-1.8,2.6-2.1,6-1.8,9
				C129.5,76.5,129.6,76.9,129.6,77.3z"/>
			
				<linearGradient id="SVGID_21_" gradientUnits="userSpaceOnUse" x1="-2381.27" y1="28.0275" x2="-2365.99" y2="93.4875" gradientTransform="matrix(-1 4.000000e-02 -4.000000e-02 -1 -2214.2144 335.07)">
				<stop  offset="0" style="stop-color:#FF664F"/>
				<stop  offset="1" style="stop-color:#9E005D"/>
			</linearGradient>
			<path class="st28" d="M128.8,139.9c0,0-2.8-6.2-0.8-18.4l30.1-1.1c0.9,6.1,1.5,12.2,1.8,18.4L128.8,139.9z"/>
			
				<linearGradient id="SVGID_22_" gradientUnits="userSpaceOnUse" x1="-2346.8655" y1="1.8299" x2="-2327.0056" y2="86.8799" gradientTransform="matrix(-1 4.000000e-02 -4.000000e-02 -1 -2214.2144 335.07)">
				<stop  offset="0" style="stop-color:#FF664F"/>
				<stop  offset="1" style="stop-color:#9E005D"/>
			</linearGradient>
			<path class="st29" d="M131.8,175.8c7-7.2,3-13.5-4.3-10.8c-10.3,3.8-21.5,38.1-25.9,42.7c-0.6,0.6-0.2,0.8,0.3,1.1
				c1.3,0.7,2.2-0.4,3.8,0.1c0.7,0.2,1.6,1.9,1.6,1.9C114.2,203,125,182.8,131.8,175.8z"/>
			
				<linearGradient id="SVGID_23_" gradientUnits="userSpaceOnUse" x1="-2367.1785" y1="24.7275" x2="-2351.8884" y2="90.1975" gradientTransform="matrix(-1 4.000000e-02 -4.000000e-02 -1 -2214.2144 335.07)">
				<stop  offset="0" style="stop-color:#FF664F"/>
				<stop  offset="1" style="stop-color:#9E005D"/>
			</linearGradient>
			<path class="st30" d="M143.8,140.6c0.6-12.2-4.6-21.4-12-17.2c-3.1,1.8-4.1,5.2-4.4,8.4s-1.7,27.7-2.3,33.7
				c-1.3,13.5,10,9.2,11,5.4C138.6,161.5,143.5,147.3,143.8,140.6z"/>
			
				<linearGradient id="SVGID_24_" gradientUnits="userSpaceOnUse" x1="-2381.6467" y1="16.0685" x2="-2363.2666" y2="94.7785" gradientTransform="matrix(-1 4.000000e-02 -4.000000e-02 -1 -2214.2144 335.07)">
				<stop  offset="0" style="stop-color:#FF664F"/>
				<stop  offset="1" style="stop-color:#9E005D"/>
			</linearGradient>
			<path class="st31" d="M162.5,166.4c-0.5-9.1-5.3-11.1-9.7-4.7c-6.9,10,0.1,40.8-0.6,52.8c1.5-1.3,3.6-1.9,5.6-1.6
				c1,0.4,0.2-1.3,0.2-1.3C161.7,192.9,163,174.6,162.5,166.4z"/>
			
				<linearGradient id="SVGID_25_" gradientUnits="userSpaceOnUse" x1="-2387.1328" y1="29.3885" x2="-2371.8428" y2="94.8585" gradientTransform="matrix(-1 4.000000e-02 -4.000000e-02 -1 -2214.2144 335.07)">
				<stop  offset="0" style="stop-color:#FF664F"/>
				<stop  offset="1" style="stop-color:#9E005D"/>
			</linearGradient>
			<path class="st32" d="M150.7,168.9c1.3,3.7,13.3,8.8,11.7-4.7c-0.7-6-2.9-30.5-3.3-33.7s-1.1-7.8-2.7-8.4
				c-8.1-2.6-15.6,7.2-13,19.2C145.1,149.2,147.9,161.2,150.7,168.9z"/>
			
				<linearGradient id="SVGID_26_" gradientUnits="userSpaceOnUse" x1="-2392.2434" y1="136.0431" x2="-2338.7134" y2="193.4031" gradientTransform="matrix(-1 4.000000e-02 -4.000000e-02 -1 -2216.2544 335.14)">
				<stop  offset="0" style="stop-color:#36078B"/>
				<stop  offset="1" style="stop-color:#16B1FF"/>
			</linearGradient>
			<path class="st33" d="M148.1,93.6c-2.3-1.9-4.4-4-6.3-6.2c-1.5-1.8-2.9-3.6-4.3-5.5c-2.3-3-4.3-6.1-6.1-9.4
				c-1.7-3.1,0-6.8,2.6-7.6c2.9-0.9,4.6,0.8,7.8,3.8c7,6.8,10.4,16.4,12.3,19.2c0.5,0,0-0.1,0.5,0c3.9,1,14.9,10.8,21.7,9.3
				c1.6-0.3,3.8,3.3,2,4c-2.3,0.8-7.7,1.1-15.2-0.1c-4.9-0.8-8.1-3.2-11.4-4.6c-1.7-0.8-1.8-1.6-3.3-2.7L148.1,93.6z"/>
			<path class="st10" d="M143.4,50.3c-0.8,5.3-0.9,6.5,0.9,9.1c1.7,2.5,4.2,4.2,7.2,5c2.6,0.6,5.3-1.7,6.4-3.7c2-4.1,3.3-8.5,3.8-13
				c0.3-3-2.4-7.3-6-8.2S145.3,37.4,143.4,50.3z"/>
			
				<linearGradient id="SVGID_27_" gradientUnits="userSpaceOnUse" x1="-2385.4622" y1="175.9267" x2="-2352.532" y2="212.7767" gradientTransform="matrix(-1 4.000000e-02 -4.000000e-02 -1 -2214.2144 335.07)">
				<stop  offset="0" style="stop-color:#2C27CE"/>
				<stop  offset="0.65" style="stop-color:#EF1D68"/>
				<stop  offset="1" style="stop-color:#EFBA92"/>
			</linearGradient>
			<path class="st34" d="M143.6,49.5c1.1,1.7,1.7,2.2,3.5,0.7c1.4-1.2,5.6-5.9,3.4-7.8s-3.9-3.2-5.8,0.2S142.4,47.5,143.6,49.5z"/>
			<ellipse transform="matrix(0.9891 -0.1475 0.1475 0.9891 -5.9635 21.6608)" class="st10" cx="143.1" cy="51" rx="1.9" ry="3.6"/>
			
				<linearGradient id="SVGID_28_" gradientUnits="userSpaceOnUse" x1="-2393.0806" y1="182.7376" x2="-2360.1506" y2="219.5876" gradientTransform="matrix(-1 4.000000e-02 -4.000000e-02 -1 -2214.2144 335.07)">
				<stop  offset="0" style="stop-color:#2C27CE"/>
				<stop  offset="0.65" style="stop-color:#EF1D68"/>
				<stop  offset="1" style="stop-color:#EFBA92"/>
			</linearGradient>
			<path class="st35" d="M147.5,40.6c1.3,3.5,10.9,6.1,14.3,5.8s4.7-6.5,0.3-8c-2.6-0.6-0.9,0.4-3.1,0.8
				C157.9,39.3,146.1,36.8,147.5,40.6z"/>
			<path class="st10" d="M177.4,97.6c1.5,0.5,8.5,2.5,6.6,4.4c-2.1,2.2-4.1,2.3-5.8,1.8c-3-0.9-3.2-1.9-3.1-3.8
				C175.2,98.6,176,97.1,177.4,97.6z"/>
			<path class="st10" d="M179.1,96.8c0.7,0,5,0,4.9,0.7c-0.1,1.1-2.9,1.2-4.7,1.2c-1,0-2.3-0.5-2.1-1.2S177.9,96.8,179.1,96.8z"/>
			<g>
				<defs>
					<path id="SVGID_29_" d="M100.8,210.1c0-0.6,0.2-1.2,0.6-1.7c-0.1-0.2,0-0.4,0.2-0.6c4.1-4.2,13.8-33.5,23.3-41.2
						c0-0.3,0-0.6,0.1-0.9c0.6-5.9,1.9-29.4,2.3-33.4c-0.2-3.6,0-7.2,0.7-10.7c2.4-8.9,3.3-30.6,1.6-44.2c0-0.4-0.1-0.8-0.1-1.2
						c-0.2-3,0-6.4,1.8-9c0.3-0.4,0.7-0.8,1.1-1.2c0.1-0.1,0.2-0.2,0.4-0.3c2.1-1.7,5-2.2,7.7-2.1c0.3,0,0.6,0,0.8,0
						c0.7-1.8,1.6-3.6,2.3-5.2c-0.6-1.2-0.8-2.5-0.7-3.8c-1-0.7-1.6-1.9-1.7-3.1c-0.3-2,0.3-3.7,1.3-3.8c0.1,0,0.3,0,0.4,0
						c-0.1-1.3,0.6-2.8,1.8-5c0.9-1.6,1.8-2.2,2.6-2.1c-1-3.5,10.4-1.2,11.5-1.3c2.3-0.3,0.6-1.4,3.1-0.8c4,1.4,3.3,6.5,0.7,7.8
						c0.8,1.9-0.6,4.2-1.8,5.7c-0.6,3.1-1.7,6.2-3.1,9c-1.1,2-3.8,4.3-6.4,3.7l-0.5-0.2l-0.3,0.9c1.8,0.5,3.5,1.2,5,2.2
						c2.6,1.7,4.5,4.3,5.3,7.3c0.6,3.1,0.7,6.2,0.4,9.4l-0.3,2.7c0.1,1.3,0.2,2.7,0.3,4c4,2.2,8.1,4.2,12.2,6
						c0.4-0.2,0.8-0.3,1.2-0.1c1.2,0.4,5.6,1.5,6.7,2.9h0.1c0.6,0.3,4.5,2.1,4.2,2.7c-0.5,0.9-3.1-0.2-4.8-0.9l0,0
						c-1.3,1.4-3.3,1.9-5.2,1.4c-0.8-0.2-1.6-0.5-2.3-1c-2.2,0.5-4.7-0.6-9.8-1.9l-1.6-0.4c0.1,0.9,0.3,1.8,0.7,2.6
						c0.2,0.4,0.5,0.8,0.8,1.1c2.6,3.1,4.3,6.6,6.1,10.2c1.3,2.7,2.4,6.2,4.4,8.5c0.2,0.2,0.3,0.4,0.4,0.7c1.5,0.3,3.1,0.7,4.1,0.9
						c1.4,0.2,1,3.5,0.2,4c-1.2,0.8-5.4,1.5-6.3-0.2s-2.6-1.2-2.9-2.9c-0.1-0.4-0.1-0.7,0-1.1c-1.9-1.3-3.6-2.8-5-4.6
						c-2-2.3-3.9-4.7-5.7-7.1c-0.5,5.3-0.8,8.8-0.8,8.8s1.2,7.5,1.7,16.4c0.8,8.6,2.1,23,2.6,27.4c0.1,0.7,0.1,1.4,0.1,2.1
						c0,0.1,0,0.1,0,0.1c0.4,8.1-0.8,26.4-4.6,45.2c0.2,0.3,0.3,0.7,0.3,1c1.2,1.1,2.5,1.9,4,2.4c2.3,0.9,7.1,1.2,4.5,2.1
						s-5.8,0.6-7.4,0.4c-1.7-0.2-3.3-0.2-5-0.1c-2.5,0.1-2.5-0.1-2.3-2.8c0-0.1,0-0.2,0.1-0.4l0,0c0.6-10.1-4.2-33.2-1.7-46.4
						c-2.6-7.3-5.1-18.2-6.8-25.9c-0.9,7.1-5.2,20-7.6,28.8c-0.5,1.2-1.4,2.2-2.6,2.8c-0.5,0.7-1.1,1.4-1.7,2
						c-6.8,7-17.6,27.2-24.4,35c0.5,1.2,1.5,2.2,2.7,2.8c2.3,0.9,6.4,1.9,3.8,2.9s-5.8,0.6-7.4,0.4s-2-2.1-3.6-3
						C100.3,212.6,100.6,212.8,100.8,210.1z"/>
				</defs>
				<clipPath id="SVGID_30_">
					<use xlink:href="#SVGID_29_"  style="overflow:visible;"/>
				</clipPath>
				<g class="st36">
					
						<linearGradient id="SVGID_31_" gradientUnits="userSpaceOnUse" x1="-2933.5239" y1="1888.0042" x2="-2771.4839" y2="1788.4542" gradientTransform="matrix(-0.65 -0.7 -0.36 0.62 -1098.7896 -3017.1619)">
						<stop  offset="0" style="stop-color:#0000FF"/>
						<stop  offset="1" style="stop-color:#9E005D"/>
					</linearGradient>
					<path class="st37" d="M68.9,36.1c13.2-6.9,41.5-5.1,50.2,8.2c9,13.6,3,26.3,15.7,42.9c11.5,15.2,5,34.7,7.6,49.4
						c2.9,16.2,28.6,7.5,39,27.1c15.9,30.1-15.9,51.8-35.6,65.6c-20.2,14.3-51.2,27.4-73.8,7.4c-16.7-14.8-12.9-74.6-9.9-90.4
						c4.3-22.7,26.1-8.2,13.1-29.7c-7.8-12.9-15.1-37.1,6.2-40S49.9,46,68.9,36.1z"/>
				</g>
			</g>
		</g>
	</g>
</g>
</svg>
