<svg xmlns="http://www.w3.org/2000/svg" xmlns:xlink="http://www.w3.org/1999/xlink" viewBox="0 0 308.12 255.7"><defs><style>.cls-1,.cls-2{opacity:0.15;}.cls-1{fill:url(#Gradient_bez_nazwy_5);}.cls-2{fill:url(#Gradient_bez_nazwy_5-2);}.cls-3,.cls-4{fill:none;stroke:#0037ff;stroke-miterlimit:10;}.cls-10,.cls-11,.cls-12,.cls-13,.cls-14,.cls-15,.cls-16,.cls-17,.cls-18,.cls-19,.cls-4,.cls-6,.cls-7,.cls-8,.cls-9{fill-rule:evenodd;}.cls-5{fill:#0037ff;}.cls-6{fill:url(#Gradient_bez_nazwy_4);}.cls-7{fill:url(#Gradient_bez_nazwy_4-2);}.cls-8{fill:url(#GradientFill_40);}.cls-9{fill:url(#GradientFill_40-2);}.cls-10{fill:url(#GradientFill_40-3);}.cls-11{fill:url(#GradientFill_40-4);}.cls-12{fill:url(#Gradient_bez_nazwy_2);}.cls-13{fill:url(#GradientFill_40-5);}.cls-14{fill:url(#GradientFill_40-6);}.cls-15{fill:url(#GradientFill_39);}.cls-16{fill:url(#GradientFill_15);}.cls-17{fill:#fff;}.cls-18{fill:#f6cccf;}.cls-19{fill:url(#GradientFill_40-7);}</style><linearGradient id="Gradient_bez_nazwy_5" x1="84.74" y1="127.85" x2="308.12" y2="127.85" gradientUnits="userSpaceOnUse"><stop offset="0" stop-color="#36078b"/><stop offset="1" stop-color="#16b1ff"/></linearGradient><linearGradient id="Gradient_bez_nazwy_5-2" x1="0" y1="127.85" x2="255.7" y2="127.85" xlink:href="#Gradient_bez_nazwy_5"/><linearGradient id="Gradient_bez_nazwy_4" x1="35.47" y1="253.24" x2="134.19" y2="178.23" gradientUnits="userSpaceOnUse"><stop offset="0" stop-color="#2c27ce"/><stop offset="0.65" stop-color="#ef1d68"/><stop offset="1" stop-color="#efba92"/></linearGradient><linearGradient id="Gradient_bez_nazwy_4-2" x1="19.78" y1="265.66" x2="179.16" y2="159.77" xlink:href="#Gradient_bez_nazwy_4"/><linearGradient id="GradientFill_40" x1="95.5" y1="167.49" x2="78.94" y2="167.49" gradientUnits="userSpaceOnUse"><stop offset="0" stop-color="#f6cccf"/><stop offset="1" stop-color="#e88397"/></linearGradient><linearGradient id="GradientFill_40-2" x1="105.81" y1="167.55" x2="84.6" y2="167.55" xlink:href="#GradientFill_40"/><linearGradient id="GradientFill_40-3" x1="83.93" y1="88.27" x2="75.84" y2="93.08" xlink:href="#GradientFill_40"/><linearGradient id="GradientFill_40-4" x1="101.33" y1="53.96" x2="96.43" y2="53.96" xlink:href="#GradientFill_40"/><linearGradient id="Gradient_bez_nazwy_2" x1="105.32" y1="91.89" x2="74.35" y2="143.1" gradientUnits="userSpaceOnUse"><stop offset="0" stop-color="#f70f47"/><stop offset="1" stop-color="#9e005d"/></linearGradient><linearGradient id="GradientFill_40-5" x1="110.17" y1="83.21" x2="100.18" y2="92.49" xlink:href="#GradientFill_40"/><linearGradient id="GradientFill_40-6" x1="125.53" y1="90.92" x2="122.77" y2="99.42" xlink:href="#GradientFill_40"/><linearGradient id="GradientFill_39" x1="67.29" y1="90.64" x2="94.27" y2="53.29" gradientUnits="userSpaceOnUse"><stop offset="0" stop-color="#010312"/><stop offset="1" stop-color="#1b2f59"/></linearGradient><linearGradient id="GradientFill_15" x1="123.39" y1="82.45" x2="133.83" y2="83.36" gradientUnits="userSpaceOnUse"><stop offset="0" stop-color="#ea6667"/><stop offset="1" stop-color="#b21555"/></linearGradient><linearGradient id="GradientFill_40-7" x1="129.34" y1="85.12" x2="128.25" y2="90.93" xlink:href="#GradientFill_40"/></defs><title>smm-slide1</title><g id="Слой_2" data-name="Слой 2"><g id="Background"><circle class="cls-1" cx="196.43" cy="127.85" r="111.69"/><circle class="cls-2" cx="127.85" cy="127.85" r="127.85"/></g><g id="Objects"><rect class="cls-3" x="231.02" y="59.83" width="75.27" height="56.56" rx="4.29" ry="4.29"/><path class="cls-4" d="M302,59.83h-66.7A4.3,4.3,0,0,0,231,64.12V74.89H306.3V64.12A4.3,4.3,0,0,0,302,59.83Z"/><circle class="cls-3" cx="298.61" cy="67.36" r="1.31"/><circle class="cls-3" cx="293.39" cy="67.36" r="1.31"/><circle class="cls-3" cx="288.16" cy="67.36" r="1.31"/><path class="cls-4" d="M277.18,88.77a.4.4,0,0,0,0-.79H236.93a.4.4,0,0,0,0,.79Z"/><path class="cls-4" d="M277.18,93.68a.39.39,0,0,0,0-.79H236.93a.39.39,0,1,0,0,.79Z"/><path class="cls-4" d="M277.18,98.6a.4.4,0,0,0,0-.79H236.93a.4.4,0,0,0,0,.79Z"/><path class="cls-4" d="M277.18,103.51a.4.4,0,0,0,0-.79h-27a.4.4,0,0,0,0,.79Z"/><path class="cls-4" d="M277.18,83.86a.4.4,0,0,0,0-.79H236.93a.4.4,0,1,0,0,.79Z"/><rect class="cls-3" x="281.1" y="80.45" width="19.86" height="15.4" rx="1.62" ry="1.62"/><rect class="cls-3" x="281.1" y="98.78" width="19.86" height="7" rx="1.36" ry="1.36"/><path class="cls-3" d="M156.62,45.55A1.53,1.53,0,0,1,158,43.9"/><path class="cls-3" d="M160.86,45.55a1.53,1.53,0,0,1,1.38-1.65"/><path class="cls-3" d="M165.09,45.55a1.53,1.53,0,0,1,1.38-1.65"/><path class="cls-3" d="M169.33,45.55a1.53,1.53,0,0,1,1.38-1.65"/><path class="cls-3" d="M173.57,45.55A1.53,1.53,0,0,1,175,43.9"/><path class="cls-3" d="M177.81,45.55a1.53,1.53,0,0,1,1.38-1.65"/><path class="cls-3" d="M182,45.55a1.53,1.53,0,0,1,1.38-1.65"/><path class="cls-3" d="M190.57,45.55a1.53,1.53,0,0,1,1.38-1.65"/><path class="cls-3" d="M194.81,45.55a1.53,1.53,0,0,1,1.38-1.65"/><path class="cls-3" d="M199,45.55a1.53,1.53,0,0,1,1.38-1.65"/><path class="cls-3" d="M203.28,45.55a1.53,1.53,0,0,1,1.38-1.65"/><path class="cls-3" d="M207.52,45.55a1.53,1.53,0,0,1,1.38-1.65"/><path class="cls-3" d="M211.76,45.55a1.53,1.53,0,0,1,1.38-1.65"/><path class="cls-3" d="M216,45.55a1.53,1.53,0,0,1,1.38-1.65"/><path class="cls-3" d="M186.29,45.55a1.53,1.53,0,0,1,1.38-1.65"/><rect class="cls-3" x="150.41" y="45.06" width="71.72" height="57.99" rx="2.69" ry="2.69"/><path class="cls-5" d="M162,74.7h-1.1v-.24h1.51l-1.07,2.13H161Z"/><path class="cls-5" d="M170.24,75.61a.54.54,0,0,1-.06.26.61.61,0,0,1-.17.2.79.79,0,0,1-.24.13.92.92,0,0,1-.29,0,.87.87,0,0,1-.3,0A.74.74,0,0,1,169,76a.63.63,0,0,1-.16-.2.56.56,0,0,1-.06-.25.47.47,0,0,1,0-.18.61.61,0,0,1,.09-.15.66.66,0,0,1,.13-.12l.14-.08L169,75l-.1-.1a.45.45,0,0,1-.07-.12.4.4,0,0,1,0-.14.46.46,0,0,1,.06-.24.6.6,0,0,1,.16-.18.71.71,0,0,1,.22-.11.84.84,0,0,1,.24,0,.85.85,0,0,1,.24,0,.71.71,0,0,1,.22.11.57.57,0,0,1,.16.17.46.46,0,0,1,.06.24.39.39,0,0,1-.1.26.64.64,0,0,1-.23.17l.15.08a.58.58,0,0,1,.13.12.57.57,0,0,1,.09.15A.49.49,0,0,1,170.24,75.61Zm-.27,0a.34.34,0,0,0,0-.17.43.43,0,0,0-.11-.13.51.51,0,0,0-.16-.08l-.17,0-.18,0a.5.5,0,0,0-.15.08.4.4,0,0,0-.11.13.35.35,0,0,0,0,.17.33.33,0,0,0,0,.17.4.4,0,0,0,.11.13.55.55,0,0,0,.15.08l.17,0a.53.53,0,0,0,.18,0,.51.51,0,0,0,.15-.08.43.43,0,0,0,.11-.13A.33.33,0,0,0,170,75.59Zm-.89-.94a.27.27,0,0,0,0,.14.35.35,0,0,0,.1.1l.13.06.14,0,.14,0,.13-.06a.33.33,0,0,0,.1-.1.27.27,0,0,0,0-.14.26.26,0,0,0,0-.14.32.32,0,0,0-.09-.1l-.13-.06-.16,0-.16,0-.13.07a.36.36,0,0,0-.09.11A.28.28,0,0,0,169.08,74.65Z"/><path class="cls-5" d="M176.62,75.23a.7.7,0,0,1,.06-.29.73.73,0,0,1,.16-.23.76.76,0,0,1,.24-.16.77.77,0,0,1,.3-.06.76.76,0,0,1,.31.06.69.69,0,0,1,.25.18.84.84,0,0,1,.16.29,1.23,1.23,0,0,1,.06.39,2.35,2.35,0,0,1-.06.55,1.22,1.22,0,0,1-.16.39.7.7,0,0,1-.25.24.69.69,0,0,1-.33.08.73.73,0,0,1-.38-.1.69.69,0,0,1-.27-.28l.16-.16a.53.53,0,0,0,.48.31.45.45,0,0,0,.39-.22,1.13,1.13,0,0,0,.15-.62.54.54,0,0,1-.21.25.62.62,0,0,1-.34.09.76.76,0,0,1-.29-.06.73.73,0,0,1-.23-.15.69.69,0,0,1-.16-.23A.7.7,0,0,1,176.62,75.23Zm.76-.51a.48.48,0,0,0-.2,0,.52.52,0,0,0-.16.11.53.53,0,0,0-.11.16.5.5,0,0,0,0,.39.51.51,0,0,0,.11.16.53.53,0,0,0,.16.11.5.5,0,0,0,.39,0,.53.53,0,0,0,.16-.11.51.51,0,0,0,.11-.16.5.5,0,0,0,0-.39.51.51,0,0,0-.27-.27A.49.49,0,0,0,177.38,74.72Z"/><path class="cls-5" d="M185,76v.24H183.9V76h.43V74.8l-.08.08-.13.08L184,75l-.13,0v-.25a.36.36,0,0,0,.15,0l.15-.09.13-.1.06-.06h.27V76Z"/><path class="cls-5" d="M186.73,75.33a1.12,1.12,0,0,1-.06.36.91.91,0,0,1-.16.29.73.73,0,0,1-.24.19.68.68,0,0,1-.3.07.69.69,0,0,1-.54-.26.91.91,0,0,1-.16-.29,1.2,1.2,0,0,1,0-.73.9.9,0,0,1,.16-.29.73.73,0,0,1,.24-.19.68.68,0,0,1,.3-.07.67.67,0,0,1,.3.07.76.76,0,0,1,.24.19.9.9,0,0,1,.16.29A1.12,1.12,0,0,1,186.73,75.33Zm-.27,0a1,1,0,0,0,0-.27.65.65,0,0,0-.1-.21.47.47,0,0,0-.16-.14.42.42,0,0,0-.2,0,.43.43,0,0,0-.2,0,.45.45,0,0,0-.16.14.69.69,0,0,0-.1.21,1,1,0,0,0,0,.54.68.68,0,0,0,.1.21.45.45,0,0,0,.16.13.43.43,0,0,0,.2,0,.41.41,0,0,0,.2,0,.47.47,0,0,0,.16-.13.64.64,0,0,0,.1-.21A.94.94,0,0,0,186.46,75.33Z"/><path class="cls-5" d="M193.13,76v.24h-1.08V76h.43V74.8l-.08.08-.13.08-.15.06L192,75v-.25a.36.36,0,0,0,.15,0l.15-.09.13-.1.06-.06h.27V76Z"/><path class="cls-5" d="M194.48,76v.24H193.4V76h.43V74.8l-.08.08-.13.08-.15.06-.13,0v-.25a.36.36,0,0,0,.15,0l.15-.09.13-.1.06-.06h.27V76Z"/><path class="cls-5" d="M200.91,76v.24h-1.08V76h.43V74.8l-.08.08L200,75l-.15.06-.13,0v-.25a.36.36,0,0,0,.15,0l.15-.09.13-.1.06-.06h.27V76Z"/><path class="cls-5" d="M201.11,76.21a1.26,1.26,0,0,1,0-.23.67.67,0,0,1,.07-.2.77.77,0,0,1,.15-.18,1.42,1.42,0,0,1,.25-.17l.18-.09.17-.1a.62.62,0,0,0,.13-.11.21.21,0,0,0,0-.14.23.23,0,0,0,0-.1.28.28,0,0,0-.07-.09l-.11-.06-.15,0-.16,0-.13.06-.1.08-.07.08-.17-.19.08-.07.14-.09.2-.08a.88.88,0,0,1,.25,0,.78.78,0,0,1,.25,0,.55.55,0,0,1,.19.1.46.46,0,0,1,.12.15.44.44,0,0,1,0,.19.39.39,0,0,1-.05.2.62.62,0,0,1-.12.15l-.16.11-.15.08-.15.08-.16.1a.71.71,0,0,0-.13.13.35.35,0,0,0-.07.16h1v.24Z"/><path class="cls-5" d="M208.8,76v.24h-1.08V76h.43V74.8l-.08.08-.13.08-.15.06-.13,0v-.25a.36.36,0,0,0,.15,0l.15-.09.13-.1.06-.06h.27V76Z"/><path class="cls-5" d="M210,75.5a.48.48,0,0,1,.3.18.56.56,0,0,1,.11.36.61.61,0,0,1-.05.25.56.56,0,0,1-.15.19.66.66,0,0,1-.23.12.93.93,0,0,1-.29,0,.89.89,0,0,1-.4-.09.64.64,0,0,1-.27-.24l.18-.18a.51.51,0,0,0,.19.19.59.59,0,0,0,.31.07.51.51,0,0,0,.33-.09.34.34,0,0,0,.12-.28.38.38,0,0,0-.13-.3.54.54,0,0,0-.37-.11h-.08V75.4h.08a.48.48,0,0,0,.33-.1A.34.34,0,0,0,210,75a.27.27,0,0,0-.11-.24.48.48,0,0,0-.28-.08.58.58,0,0,0-.29.07.49.49,0,0,0-.19.2l-.16-.17a.5.5,0,0,1,.11-.14.73.73,0,0,1,.16-.11l.19-.07.22,0a.82.82,0,0,1,.26,0,.63.63,0,0,1,.2.11.47.47,0,0,1,.13.17.52.52,0,0,1,0,.22.55.55,0,0,1,0,.17.47.47,0,0,1-.08.15.44.44,0,0,1-.12.11A.45.45,0,0,1,210,75.5Z"/><path class="cls-5" d="M161.35,82.36v.24h-1.08v-.24h.43V81.19l-.08.08-.13.08-.15.06-.13,0v-.25a.36.36,0,0,0,.15,0l.15-.09.13-.1.06-.06H161v1.47Z"/><path class="cls-5" d="M162.46,83v-.51h-1v-.23l1-1.35h.18v1.35H163v.24h-.26V83Zm-.69-.75h.72v-.94Z"/><path class="cls-5" d="M169.27,82.36v.24h-1.08v-.24h.43V81.19l-.08.08-.13.08-.15.06-.13,0v-.25a.36.36,0,0,0,.15,0l.15-.09.13-.1.06-.06h.27v1.47Z"/><path class="cls-5" d="M170.19,81.65a.75.75,0,0,1,.28,0,.65.65,0,0,1,.22.14.65.65,0,0,1,.15.22.74.74,0,0,1,0,.57.66.66,0,0,1-.16.22.73.73,0,0,1-.24.14.83.83,0,0,1-.29.05.79.79,0,0,1-.41-.11.71.71,0,0,1-.28-.29l.17-.14a.65.65,0,0,0,.22.22.58.58,0,0,0,.3.08.52.52,0,0,0,.19,0,.46.46,0,0,0,.15-.1.43.43,0,0,0,.1-.15.49.49,0,0,0,0-.19.45.45,0,0,0-.13-.33.44.44,0,0,0-.15-.09.49.49,0,0,0-.18,0,.53.53,0,0,0-.24.06.49.49,0,0,0-.18.16h-.24V82l0-.15,0-.2,0-.22.11-.58h1v.24h-.84l-.13.68a.47.47,0,0,1,.17-.11A.59.59,0,0,1,170.19,81.65Z"/><path class="cls-5" d="M177.09,82.36v.24H176v-.24h.43V81.19l-.08.08-.13.08-.15.06-.13,0v-.25a.36.36,0,0,0,.15,0l.15-.09.13-.1.06-.06h.27v1.47Z"/><path class="cls-5" d="M178.85,81.89a.71.71,0,0,1-.06.29.73.73,0,0,1-.16.23.77.77,0,0,1-.24.16.79.79,0,0,1-.3.06.77.77,0,0,1-.31-.06.69.69,0,0,1-.24-.18.82.82,0,0,1-.16-.29,1.24,1.24,0,0,1-.06-.39,2.36,2.36,0,0,1,.06-.55,1.22,1.22,0,0,1,.16-.39.7.7,0,0,1,.25-.24.68.68,0,0,1,.33-.08.73.73,0,0,1,.38.1.7.7,0,0,1,.27.28l-.16.16a.53.53,0,0,0-.48-.31.44.44,0,0,0-.22.06.51.51,0,0,0-.17.16.83.83,0,0,0-.11.26,1.52,1.52,0,0,0,0,.35.54.54,0,0,1,.21-.25.62.62,0,0,1,.34-.09.75.75,0,0,1,.29.06.71.71,0,0,1,.39.38A.71.71,0,0,1,178.85,81.89Zm-.76.51a.48.48,0,0,0,.2,0,.52.52,0,0,0,.27-.27.47.47,0,0,0,0-.2.48.48,0,0,0,0-.2.49.49,0,0,0-.11-.16.53.53,0,0,0-.16-.11.49.49,0,0,0-.39,0,.54.54,0,0,0-.16.11.49.49,0,0,0-.11.16.48.48,0,0,0,0,.2.47.47,0,0,0,0,.2.52.52,0,0,0,.11.16.53.53,0,0,0,.16.11A.48.48,0,0,0,178.09,82.4Z"/><path class="cls-5" d="M185.1,82.36v.24H184v-.24h.43V81.19l-.08.08-.13.08-.15.06-.13,0v-.25a.36.36,0,0,0,.15,0l.15-.09.13-.1.06-.06h.27v1.47Z"/><path class="cls-5" d="M186.35,81.09h-1.1v-.24h1.51L185.69,83h-.3Z"/><path class="cls-5" d="M192.91,82.36v.24h-1.08v-.24h.43V81.19l-.08.08-.13.08-.15.06-.13,0v-.25a.36.36,0,0,0,.15,0l.15-.09.13-.1.06-.06h.27v1.47Z"/><path class="cls-5" d="M194.63,82a.54.54,0,0,1-.06.26.61.61,0,0,1-.17.2.79.79,0,0,1-.24.13.92.92,0,0,1-.29,0,.87.87,0,0,1-.3,0,.74.74,0,0,1-.24-.14.63.63,0,0,1-.16-.2.56.56,0,0,1-.06-.25.47.47,0,0,1,0-.18.61.61,0,0,1,.09-.15.66.66,0,0,1,.13-.12l.14-.08-.13-.07-.1-.1a.45.45,0,0,1-.07-.12.4.4,0,0,1,0-.14.46.46,0,0,1,.06-.24.6.6,0,0,1,.16-.18.71.71,0,0,1,.22-.11.84.84,0,0,1,.24,0,.85.85,0,0,1,.24,0,.71.71,0,0,1,.22.11.57.57,0,0,1,.16.17.46.46,0,0,1,.06.24.39.39,0,0,1-.1.26.64.64,0,0,1-.23.17l.15.08a.58.58,0,0,1,.13.12.57.57,0,0,1,.09.15A.49.49,0,0,1,194.63,82Zm-.27,0a.34.34,0,0,0,0-.17.43.43,0,0,0-.11-.13.51.51,0,0,0-.16-.08l-.17,0-.18,0a.5.5,0,0,0-.15.08.4.4,0,0,0-.11.13.35.35,0,0,0,0,.17.33.33,0,0,0,0,.17.4.4,0,0,0,.11.13.55.55,0,0,0,.15.08l.17,0a.53.53,0,0,0,.18,0,.51.51,0,0,0,.15-.08.43.43,0,0,0,.11-.13A.33.33,0,0,0,194.36,82Zm-.89-.94a.27.27,0,0,0,0,.14.35.35,0,0,0,.1.1l.13.06.14,0,.14,0,.13-.06a.33.33,0,0,0,.1-.1.27.27,0,0,0,0-.14.26.26,0,0,0,0-.14.32.32,0,0,0-.09-.1l-.13-.06-.16,0-.16,0-.13.07a.36.36,0,0,0-.09.11A.28.28,0,0,0,193.47,81Z"/><path class="cls-5" d="M200.83,82.36v.24h-1.08v-.24h.43V81.19l-.08.08-.13.08-.15.06-.13,0v-.25a.36.36,0,0,0,.15,0L200,81l.13-.1.06-.06h.27v1.47Z"/><path class="cls-5" d="M201,81.62a.7.7,0,0,1,.06-.29.73.73,0,0,1,.16-.23.76.76,0,0,1,.24-.16.77.77,0,0,1,.3-.06.76.76,0,0,1,.31.06.69.69,0,0,1,.25.18.84.84,0,0,1,.16.29,1.23,1.23,0,0,1,.06.39,2.35,2.35,0,0,1-.06.55,1.22,1.22,0,0,1-.16.39.7.7,0,0,1-.25.24.69.69,0,0,1-.33.08.73.73,0,0,1-.38-.1.69.69,0,0,1-.27-.28l.16-.16a.53.53,0,0,0,.48.31.45.45,0,0,0,.39-.22,1.13,1.13,0,0,0,.15-.62.54.54,0,0,1-.21.25.62.62,0,0,1-.34.09.76.76,0,0,1-.29-.06.73.73,0,0,1-.23-.15.69.69,0,0,1-.16-.23A.7.7,0,0,1,201,81.62Zm.76-.51a.48.48,0,0,0-.2,0,.52.52,0,0,0-.16.11.53.53,0,0,0-.11.16.5.5,0,0,0,0,.39.51.51,0,0,0,.11.16.53.53,0,0,0,.16.11.5.5,0,0,0,.39,0,.53.53,0,0,0,.16-.11.51.51,0,0,0,.11-.16.5.5,0,0,0,0-.39.51.51,0,0,0-.27-.27A.49.49,0,0,0,201.77,81.11Z"/><path class="cls-5" d="M207.42,82.6a1.26,1.26,0,0,1,0-.23.67.67,0,0,1,.07-.2.77.77,0,0,1,.15-.18,1.42,1.42,0,0,1,.25-.17l.18-.09.17-.1a.62.62,0,0,0,.13-.11.21.21,0,0,0,0-.14.23.23,0,0,0,0-.1.28.28,0,0,0-.07-.09l-.11-.06-.15,0-.16,0-.13.06-.1.08-.07.08-.17-.19.08-.07.14-.09.2-.08a.88.88,0,0,1,.25,0,.78.78,0,0,1,.25,0,.55.55,0,0,1,.19.1.46.46,0,0,1,.12.15.44.44,0,0,1,0,.19.39.39,0,0,1-.05.2.62.62,0,0,1-.12.15l-.16.11-.15.08-.15.08-.16.1a.71.71,0,0,0-.13.13.35.35,0,0,0-.07.16h1v.24Z"/><path class="cls-5" d="M210.57,81.72a1.12,1.12,0,0,1-.06.36.91.91,0,0,1-.16.29.73.73,0,0,1-.24.19.68.68,0,0,1-.3.07.69.69,0,0,1-.54-.26.91.91,0,0,1-.16-.29,1.2,1.2,0,0,1,0-.73.9.9,0,0,1,.16-.29.73.73,0,0,1,.24-.19.68.68,0,0,1,.3-.07.67.67,0,0,1,.3.07.76.76,0,0,1,.24.19.9.9,0,0,1,.16.29A1.12,1.12,0,0,1,210.57,81.72Zm-.27,0a1,1,0,0,0,0-.27.65.65,0,0,0-.1-.21.47.47,0,0,0-.16-.14.42.42,0,0,0-.2,0,.43.43,0,0,0-.2,0,.45.45,0,0,0-.16.14.69.69,0,0,0-.1.21,1,1,0,0,0,0,.54.68.68,0,0,0,.1.21.45.45,0,0,0,.16.13.43.43,0,0,0,.2,0,.41.41,0,0,0,.2,0,.47.47,0,0,0,.16-.13.64.64,0,0,0,.1-.21A.94.94,0,0,0,210.31,81.72Z"/><path class="cls-5" d="M160.24,89a1.26,1.26,0,0,1,0-.23.67.67,0,0,1,.07-.2.77.77,0,0,1,.15-.18,1.42,1.42,0,0,1,.25-.17l.18-.09.17-.1a.62.62,0,0,0,.13-.11.21.21,0,0,0,0-.14.23.23,0,0,0,0-.1.28.28,0,0,0-.07-.09L161,87.5l-.15,0-.16,0-.13.06-.1.08-.07.08-.17-.19.08-.07.14-.09.2-.08a.88.88,0,0,1,.25,0,.78.78,0,0,1,.25,0,.55.55,0,0,1,.19.1.46.46,0,0,1,.12.15.44.44,0,0,1,0,.19.39.39,0,0,1-.05.2.62.62,0,0,1-.12.15l-.16.11-.15.08-.15.08-.16.1a.71.71,0,0,0-.13.13.35.35,0,0,0-.07.16h1V89Z"/><path class="cls-5" d="M163,88.74V89h-1.08v-.24h.43V87.57l-.08.08-.13.08-.15.06-.13,0v-.25a.36.36,0,0,0,.15,0l.15-.09.13-.1.06-.06h.27v1.47Z"/><path class="cls-5" d="M168,89a1.26,1.26,0,0,1,0-.23.67.67,0,0,1,.07-.2.77.77,0,0,1,.15-.18,1.42,1.42,0,0,1,.25-.17l.18-.09.17-.1a.62.62,0,0,0,.13-.11.21.21,0,0,0,0-.14.23.23,0,0,0,0-.1.28.28,0,0,0-.07-.09l-.11-.06-.15,0-.16,0-.13.06-.1.08-.07.08-.17-.19.08-.07.14-.09.2-.08a.88.88,0,0,1,.25,0,.78.78,0,0,1,.25,0,.55.55,0,0,1,.19.1.46.46,0,0,1,.12.15.44.44,0,0,1,0,.19.39.39,0,0,1-.05.2.62.62,0,0,1-.12.15l-.16.11-.15.08-.15.08-.16.1a.71.71,0,0,0-.13.13.35.35,0,0,0-.07.16h1V89Z"/><path class="cls-5" d="M169.62,89a1.26,1.26,0,0,1,0-.23.67.67,0,0,1,.07-.2.77.77,0,0,1,.15-.18,1.42,1.42,0,0,1,.25-.17l.18-.09.17-.1a.62.62,0,0,0,.13-.11.21.21,0,0,0,0-.14.23.23,0,0,0,0-.1.28.28,0,0,0-.07-.09l-.11-.06-.15,0-.16,0-.13.06-.1.08-.07.08-.17-.19.08-.07.14-.09.2-.08a.88.88,0,0,1,.25,0,.78.78,0,0,1,.25,0,.55.55,0,0,1,.19.1.46.46,0,0,1,.12.15.44.44,0,0,1,0,.19.39.39,0,0,1-.05.2.62.62,0,0,1-.12.15l-.16.11-.15.08-.15.08-.16.1a.71.71,0,0,0-.13.13.35.35,0,0,0-.07.16h1V89Z"/><path class="cls-5" d="M175.91,89a1.26,1.26,0,0,1,0-.23.67.67,0,0,1,.07-.2.77.77,0,0,1,.15-.18,1.42,1.42,0,0,1,.25-.17l.18-.09.17-.1a.62.62,0,0,0,.13-.11.21.21,0,0,0,0-.14.23.23,0,0,0,0-.1.28.28,0,0,0-.07-.09l-.11-.06-.15,0-.16,0-.13.06-.1.08-.07.08-.17-.19.08-.07.14-.09.2-.08a.88.88,0,0,1,.25,0,.78.78,0,0,1,.25,0,.55.55,0,0,1,.19.1.46.46,0,0,1,.12.15.44.44,0,0,1,0,.19.39.39,0,0,1-.05.2.62.62,0,0,1-.12.15l-.16.11-.15.08-.15.08-.16.1a.71.71,0,0,0-.13.13.35.35,0,0,0-.07.16h1V89Z"/><path class="cls-5" d="M178.46,88.28a.48.48,0,0,1,.3.18.56.56,0,0,1,.11.36.61.61,0,0,1-.05.25.56.56,0,0,1-.15.19.66.66,0,0,1-.23.12.93.93,0,0,1-.29,0,.89.89,0,0,1-.4-.09.64.64,0,0,1-.27-.24l.18-.18a.51.51,0,0,0,.19.19.59.59,0,0,0,.31.07.51.51,0,0,0,.33-.09.34.34,0,0,0,.12-.28.38.38,0,0,0-.13-.3.54.54,0,0,0-.37-.11H178v-.22h.08a.48.48,0,0,0,.33-.1.34.34,0,0,0,.12-.26.27.27,0,0,0-.11-.24.48.48,0,0,0-.28-.08.58.58,0,0,0-.29.07.49.49,0,0,0-.19.2l-.16-.17a.5.5,0,0,1,.11-.14.73.73,0,0,1,.16-.11l.19-.07.22,0a.82.82,0,0,1,.26,0,.63.63,0,0,1,.2.11.47.47,0,0,1,.13.17.52.52,0,0,1,0,.22.55.55,0,0,1,0,.17.47.47,0,0,1-.08.15.44.44,0,0,1-.12.11A.45.45,0,0,1,178.46,88.28Z"/><path class="cls-5" d="M183.79,89a1.26,1.26,0,0,1,0-.23.67.67,0,0,1,.07-.2.77.77,0,0,1,.15-.18,1.42,1.42,0,0,1,.25-.17l.18-.09.17-.1a.62.62,0,0,0,.13-.11.21.21,0,0,0,0-.14.23.23,0,0,0,0-.1.28.28,0,0,0-.07-.09l-.11-.06-.15,0-.16,0-.13.06-.1.08-.07.08-.17-.19.08-.07.14-.09.2-.08a.88.88,0,0,1,.25,0,.78.78,0,0,1,.25,0,.55.55,0,0,1,.19.1.46.46,0,0,1,.12.15.44.44,0,0,1,0,.19.39.39,0,0,1-.05.2.62.62,0,0,1-.12.15l-.16.11-.15.08-.15.08-.16.1a.71.71,0,0,0-.13.13.35.35,0,0,0-.07.16h1V89Z"/><path class="cls-5" d="M186.3,89.36v-.51h-1v-.23l1-1.35h.18v1.35h.26v.24h-.26v.51Zm-.69-.75h.72v-.94Z"/><path class="cls-5" d="M191.71,89a1.26,1.26,0,0,1,0-.23.67.67,0,0,1,.07-.2.77.77,0,0,1,.15-.18,1.42,1.42,0,0,1,.25-.17l.18-.09.17-.1a.62.62,0,0,0,.13-.11.21.21,0,0,0,0-.14.23.23,0,0,0,0-.1.28.28,0,0,0-.07-.09l-.11-.06-.15,0-.16,0-.13.06-.1.08-.07.08-.17-.19.08-.07.14-.09.2-.08a.88.88,0,0,1,.25,0,.78.78,0,0,1,.25,0,.55.55,0,0,1,.19.1.46.46,0,0,1,.12.15.44.44,0,0,1,0,.19.39.39,0,0,1-.05.2.62.62,0,0,1-.12.15l-.16.11-.15.08-.15.08-.16.1a.71.71,0,0,0-.13.13.35.35,0,0,0-.07.16h1V89Z"/><path class="cls-5" d="M194,88a.75.75,0,0,1,.28,0,.65.65,0,0,1,.22.14.65.65,0,0,1,.15.22.74.74,0,0,1,0,.57.66.66,0,0,1-.16.22.73.73,0,0,1-.24.14.83.83,0,0,1-.29.05.79.79,0,0,1-.41-.11.71.71,0,0,1-.28-.29l.17-.14a.65.65,0,0,0,.22.22.58.58,0,0,0,.3.08.52.52,0,0,0,.19,0,.46.46,0,0,0,.15-.1.43.43,0,0,0,.1-.15.49.49,0,0,0,0-.19.45.45,0,0,0-.13-.33.44.44,0,0,0-.15-.09.49.49,0,0,0-.18,0,.53.53,0,0,0-.24.06.49.49,0,0,0-.18.16h-.24v-.08l0-.15,0-.2,0-.22.11-.58h1v.24h-.84l-.13.68a.47.47,0,0,1,.17-.11A.59.59,0,0,1,194,88Z"/><path class="cls-5" d="M199.52,89a1.26,1.26,0,0,1,0-.23.67.67,0,0,1,.07-.2.77.77,0,0,1,.15-.18,1.42,1.42,0,0,1,.25-.17l.18-.09.17-.1a.62.62,0,0,0,.13-.11.21.21,0,0,0,0-.14.23.23,0,0,0,0-.1.28.28,0,0,0-.07-.09l-.11-.06-.15,0-.16,0-.13.06-.1.08-.07.08-.17-.19.08-.07.14-.09.2-.08a.88.88,0,0,1,.25,0,.78.78,0,0,1,.25,0,.55.55,0,0,1,.19.1.46.46,0,0,1,.12.15.44.44,0,0,1,0,.19.39.39,0,0,1-.05.2.62.62,0,0,1-.12.15l-.16.11-.15.08-.15.08-.16.1a.71.71,0,0,0-.13.13.35.35,0,0,0-.07.16h1V89Z"/><path class="cls-5" d="M202.69,88.28a.71.71,0,0,1-.06.29.73.73,0,0,1-.16.23.77.77,0,0,1-.24.16.79.79,0,0,1-.3.06.77.77,0,0,1-.31-.06.69.69,0,0,1-.24-.18.82.82,0,0,1-.16-.29,1.24,1.24,0,0,1-.06-.39,2.36,2.36,0,0,1,.06-.55,1.22,1.22,0,0,1,.16-.39.7.7,0,0,1,.25-.24.68.68,0,0,1,.33-.08.73.73,0,0,1,.38.1.7.7,0,0,1,.27.28l-.16.16a.53.53,0,0,0-.48-.31.44.44,0,0,0-.22.06.51.51,0,0,0-.17.16.83.83,0,0,0-.11.26,1.52,1.52,0,0,0,0,.35.54.54,0,0,1,.21-.25.62.62,0,0,1,.34-.09.75.75,0,0,1,.29.06.71.71,0,0,1,.39.38A.71.71,0,0,1,202.69,88.28Zm-.76.51a.48.48,0,0,0,.2,0,.52.52,0,0,0,.27-.27.47.47,0,0,0,0-.2.48.48,0,0,0,0-.2.49.49,0,0,0-.11-.16.53.53,0,0,0-.16-.11.49.49,0,0,0-.39,0,.54.54,0,0,0-.16.11.49.49,0,0,0-.11.16.48.48,0,0,0,0,.2.47.47,0,0,0,0,.2.52.52,0,0,0,.11.16.53.53,0,0,0,.16.11A.48.48,0,0,0,201.93,88.78Z"/><path class="cls-5" d="M207.53,89a1.26,1.26,0,0,1,0-.23.67.67,0,0,1,.07-.2.77.77,0,0,1,.15-.18,1.42,1.42,0,0,1,.25-.17l.18-.09.17-.1a.62.62,0,0,0,.13-.11.21.21,0,0,0,0-.14.23.23,0,0,0,0-.1.28.28,0,0,0-.07-.09l-.11-.06-.15,0-.16,0-.13.06-.1.08-.07.08-.17-.19.08-.07.14-.09.2-.08a.88.88,0,0,1,.25,0,.78.78,0,0,1,.25,0,.55.55,0,0,1,.19.1.46.46,0,0,1,.12.15.44.44,0,0,1,0,.19.39.39,0,0,1-.05.2.62.62,0,0,1-.12.15l-.16.11-.15.08-.15.08-.16.1a.71.71,0,0,0-.13.13.35.35,0,0,0-.07.16h1V89Z"/><path class="cls-5" d="M210.19,87.48h-1.1v-.24h1.51l-1.07,2.13h-.3Z"/><path class="cls-5" d="M160,95.37a1.26,1.26,0,0,1,0-.23.67.67,0,0,1,.07-.2.77.77,0,0,1,.15-.18,1.42,1.42,0,0,1,.25-.17l.18-.09.17-.1a.62.62,0,0,0,.13-.11.21.21,0,0,0,0-.14.23.23,0,0,0,0-.1.28.28,0,0,0-.07-.09l-.11-.06-.15,0-.16,0-.13.06-.1.08-.07.08-.17-.19.08-.07.14-.09.2-.08a.88.88,0,0,1,.25,0,.78.78,0,0,1,.25,0,.55.55,0,0,1,.19.1.46.46,0,0,1,.12.15.44.44,0,0,1,0,.19.39.39,0,0,1-.05.2.62.62,0,0,1-.12.15l-.16.11-.15.08-.15.08-.16.1a.71.71,0,0,0-.13.13.35.35,0,0,0-.07.16h1v.24Z"/><path class="cls-5" d="M163.14,94.77a.54.54,0,0,1-.06.26.61.61,0,0,1-.17.2.79.79,0,0,1-.24.13.92.92,0,0,1-.29,0,.87.87,0,0,1-.3,0,.74.74,0,0,1-.24-.14.63.63,0,0,1-.16-.2.56.56,0,0,1-.06-.25.47.47,0,0,1,0-.18.61.61,0,0,1,.09-.15.66.66,0,0,1,.13-.12l.14-.08-.13-.07-.1-.1a.45.45,0,0,1-.07-.12.4.4,0,0,1,0-.14.46.46,0,0,1,.06-.24.6.6,0,0,1,.16-.18.71.71,0,0,1,.22-.11.84.84,0,0,1,.24,0,.85.85,0,0,1,.24,0,.71.71,0,0,1,.22.11.57.57,0,0,1,.16.17.46.46,0,0,1,.06.24.39.39,0,0,1-.1.26.64.64,0,0,1-.23.17l.15.08a.58.58,0,0,1,.13.12.57.57,0,0,1,.09.15A.49.49,0,0,1,163.14,94.77Zm-.27,0a.34.34,0,0,0,0-.17.43.43,0,0,0-.11-.13.51.51,0,0,0-.16-.08l-.17,0-.18,0a.5.5,0,0,0-.15.08.4.4,0,0,0-.11.13.35.35,0,0,0,0,.17.33.33,0,0,0,0,.17.4.4,0,0,0,.11.13.55.55,0,0,0,.15.08l.17,0a.53.53,0,0,0,.18,0,.51.51,0,0,0,.15-.08.43.43,0,0,0,.11-.13A.33.33,0,0,0,162.87,94.75Zm-.89-.94a.27.27,0,0,0,0,.14.35.35,0,0,0,.1.1l.13.06.14,0,.14,0,.13-.06a.33.33,0,0,0,.1-.1.27.27,0,0,0,0-.14.26.26,0,0,0,0-.14.32.32,0,0,0-.09-.1l-.13-.06-.16,0-.16,0-.13.07a.36.36,0,0,0-.09.11A.28.28,0,0,0,162,93.81Z"/><path class="cls-5" d="M167.93,95.37a1.26,1.26,0,0,1,0-.23.67.67,0,0,1,.07-.2.77.77,0,0,1,.15-.18,1.42,1.42,0,0,1,.25-.17l.18-.09.17-.1a.62.62,0,0,0,.13-.11.21.21,0,0,0,0-.14.23.23,0,0,0,0-.1.28.28,0,0,0-.07-.09l-.11-.06-.15,0-.16,0-.13.06-.1.08-.07.08-.17-.19.08-.07.14-.09.2-.08a.88.88,0,0,1,.25,0,.78.78,0,0,1,.25,0,.55.55,0,0,1,.19.1.46.46,0,0,1,.12.15.44.44,0,0,1,0,.19.39.39,0,0,1-.05.2.62.62,0,0,1-.12.15l-.16.11-.15.08-.15.08-.16.1a.71.71,0,0,0-.13.13.35.35,0,0,0-.07.16h1v.24Z"/><path class="cls-5" d="M169.52,94.39a.7.7,0,0,1,.06-.29.73.73,0,0,1,.16-.23.76.76,0,0,1,.24-.16.77.77,0,0,1,.3-.06.76.76,0,0,1,.31.06.69.69,0,0,1,.25.18.84.84,0,0,1,.16.29,1.23,1.23,0,0,1,.06.39,2.35,2.35,0,0,1-.06.55,1.22,1.22,0,0,1-.16.39.7.7,0,0,1-.25.24.69.69,0,0,1-.33.08.73.73,0,0,1-.38-.1.69.69,0,0,1-.27-.28l.16-.16a.53.53,0,0,0,.48.31.45.45,0,0,0,.39-.22,1.13,1.13,0,0,0,.15-.62.54.54,0,0,1-.21.25.62.62,0,0,1-.34.09.76.76,0,0,1-.29-.06.73.73,0,0,1-.23-.15.69.69,0,0,1-.16-.23A.7.7,0,0,1,169.52,94.39Zm.76-.51a.48.48,0,0,0-.2,0,.52.52,0,0,0-.16.11.53.53,0,0,0-.11.16.5.5,0,0,0,0,.39.51.51,0,0,0,.11.16.53.53,0,0,0,.16.11.5.5,0,0,0,.39,0,.53.53,0,0,0,.16-.11.51.51,0,0,0,.11-.16.5.5,0,0,0,0-.39.51.51,0,0,0-.27-.27A.49.49,0,0,0,170.28,93.88Z"/><path class="cls-5" d="M176.74,94.66a.48.48,0,0,1,.3.18.56.56,0,0,1,.11.36.61.61,0,0,1-.05.25.56.56,0,0,1-.15.19.66.66,0,0,1-.23.12.93.93,0,0,1-.29,0,.89.89,0,0,1-.4-.09.64.64,0,0,1-.27-.24l.18-.18a.51.51,0,0,0,.19.19.59.59,0,0,0,.31.07.51.51,0,0,0,.33-.09.34.34,0,0,0,.12-.28.38.38,0,0,0-.13-.3.54.54,0,0,0-.37-.11h-.08v-.22h.08a.48.48,0,0,0,.33-.1.34.34,0,0,0,.12-.26.27.27,0,0,0-.11-.24.48.48,0,0,0-.28-.08.58.58,0,0,0-.29.07.49.49,0,0,0-.19.2L175.8,94a.5.5,0,0,1,.11-.14.73.73,0,0,1,.16-.11l.19-.07.22,0a.82.82,0,0,1,.26,0,.63.63,0,0,1,.2.11.47.47,0,0,1,.13.17.52.52,0,0,1,0,.22.55.55,0,0,1,0,.17.47.47,0,0,1-.08.15.44.44,0,0,1-.12.11A.45.45,0,0,1,176.74,94.66Z"/><path class="cls-5" d="M179,94.49a1.12,1.12,0,0,1-.06.36.91.91,0,0,1-.16.29.73.73,0,0,1-.24.19.68.68,0,0,1-.3.07.69.69,0,0,1-.54-.26.91.91,0,0,1-.16-.29,1.2,1.2,0,0,1,0-.73.9.9,0,0,1,.16-.29.73.73,0,0,1,.24-.19.68.68,0,0,1,.3-.07.67.67,0,0,1,.3.07.76.76,0,0,1,.24.19.9.9,0,0,1,.16.29A1.12,1.12,0,0,1,179,94.49Zm-.27,0a1,1,0,0,0,0-.27.65.65,0,0,0-.1-.21.47.47,0,0,0-.16-.14.42.42,0,0,0-.2,0,.43.43,0,0,0-.2,0,.45.45,0,0,0-.16.14.69.69,0,0,0-.1.21,1,1,0,0,0,0,.54.68.68,0,0,0,.1.21.45.45,0,0,0,.16.13.43.43,0,0,0,.2,0,.41.41,0,0,0,.2,0,.47.47,0,0,0,.16-.13.64.64,0,0,0,.1-.21A.94.94,0,0,0,178.7,94.49Z"/><path class="cls-5" d="M184.89,94.66a.48.48,0,0,1,.3.18.56.56,0,0,1,.11.36.61.61,0,0,1-.05.25.56.56,0,0,1-.15.19.66.66,0,0,1-.23.12.93.93,0,0,1-.29,0,.89.89,0,0,1-.4-.09.64.64,0,0,1-.27-.24l.18-.18a.51.51,0,0,0,.19.19.59.59,0,0,0,.31.07.51.51,0,0,0,.33-.09.34.34,0,0,0,.12-.28.38.38,0,0,0-.13-.3.54.54,0,0,0-.37-.11h-.08v-.22h.08a.48.48,0,0,0,.33-.1.34.34,0,0,0,.12-.26.27.27,0,0,0-.11-.24.48.48,0,0,0-.28-.08.58.58,0,0,0-.29.07.49.49,0,0,0-.19.2L184,94a.5.5,0,0,1,.11-.14.73.73,0,0,1,.16-.11l.19-.07.22,0a.82.82,0,0,1,.26,0,.63.63,0,0,1,.2.11.47.47,0,0,1,.13.17.52.52,0,0,1,0,.22.55.55,0,0,1,0,.17.47.47,0,0,1-.08.15.44.44,0,0,1-.12.11A.45.45,0,0,1,184.89,94.66Z"/><path class="cls-5" d="M186.71,95.13v.24h-1.08v-.24h.43V94L186,94l-.13.08-.15.06-.13,0v-.25a.36.36,0,0,0,.15,0l.15-.09.13-.1.06-.06h.27v1.47Z"/><path class="cls-5" d="M170.73,69.57v.24h-1.08v-.24h.43V68.4l-.08.08-.13.08-.15.06-.13,0v-.25a.36.36,0,0,0,.15,0l.15-.09.13-.1.06-.06h.27v1.47Z"/><path class="cls-5" d="M177.36,69.81a1.26,1.26,0,0,1,0-.23.67.67,0,0,1,.07-.2.77.77,0,0,1,.15-.18,1.42,1.42,0,0,1,.25-.17l.18-.09.17-.1a.62.62,0,0,0,.13-.11.21.21,0,0,0,0-.14.23.23,0,0,0,0-.1.28.28,0,0,0-.07-.09l-.11-.06-.15,0-.16,0-.13.06-.1.08-.07.08-.17-.19.08-.07.14-.09.2-.08a.88.88,0,0,1,.25,0,.78.78,0,0,1,.25,0,.55.55,0,0,1,.19.1.46.46,0,0,1,.12.15.44.44,0,0,1,0,.19.39.39,0,0,1-.05.2.62.62,0,0,1-.12.15l-.16.11-.15.08-.15.08-.16.1a.71.71,0,0,0-.13.13.35.35,0,0,0-.07.16h1v.24Z"/><path class="cls-5" d="M186.2,69.1a.48.48,0,0,1,.3.18.56.56,0,0,1,.11.36.61.61,0,0,1-.05.25.56.56,0,0,1-.15.19.66.66,0,0,1-.23.12.93.93,0,0,1-.29,0,.89.89,0,0,1-.4-.09.64.64,0,0,1-.27-.24l.18-.18a.51.51,0,0,0,.19.19.59.59,0,0,0,.31.07.51.51,0,0,0,.33-.09.34.34,0,0,0,.12-.28.38.38,0,0,0-.13-.3.54.54,0,0,0-.37-.11h-.08V69h.08a.48.48,0,0,0,.33-.1.34.34,0,0,0,.12-.26.27.27,0,0,0-.11-.24.48.48,0,0,0-.28-.08.58.58,0,0,0-.29.07.49.49,0,0,0-.19.2l-.16-.17a.5.5,0,0,1,.11-.14.73.73,0,0,1,.16-.11l.19-.07.22,0a.82.82,0,0,1,.26,0,.63.63,0,0,1,.2.11.47.47,0,0,1,.13.17.52.52,0,0,1,0,.22.55.55,0,0,1,0,.17.47.47,0,0,1-.08.15.44.44,0,0,1-.12.11A.45.45,0,0,1,186.2,69.1Z"/><path class="cls-5" d="M194,70.19v-.51h-1v-.23l1-1.35h.18v1.35h.26v.24h-.26v.51Zm-.69-.75h.72V68.5Z"/><path class="cls-5" d="M201.76,68.87a.75.75,0,0,1,.28,0,.65.65,0,0,1,.22.14.65.65,0,0,1,.15.22.74.74,0,0,1,0,.57.66.66,0,0,1-.16.22.73.73,0,0,1-.24.14.83.83,0,0,1-.29.05.79.79,0,0,1-.41-.11.71.71,0,0,1-.28-.29l.17-.14a.65.65,0,0,0,.22.22.58.58,0,0,0,.3.08.52.52,0,0,0,.19,0,.46.46,0,0,0,.15-.1.43.43,0,0,0,.1-.15.49.49,0,0,0,0-.19.45.45,0,0,0-.13-.33.44.44,0,0,0-.15-.09.49.49,0,0,0-.18,0,.53.53,0,0,0-.24.06.49.49,0,0,0-.18.16h-.24v-.08l0-.15,0-.2,0-.22.11-.58h1v.24h-.84l-.13.68a.47.47,0,0,1,.17-.11A.59.59,0,0,1,201.76,68.87Z"/><path class="cls-5" d="M210.42,69.1a.71.71,0,0,1-.06.29.73.73,0,0,1-.16.23.77.77,0,0,1-.24.16.79.79,0,0,1-.3.06.77.77,0,0,1-.31-.06.69.69,0,0,1-.24-.18.82.82,0,0,1-.16-.29,1.24,1.24,0,0,1-.06-.39,2.36,2.36,0,0,1,.06-.55,1.22,1.22,0,0,1,.16-.39.7.7,0,0,1,.25-.24.68.68,0,0,1,.33-.08.73.73,0,0,1,.38.1.7.7,0,0,1,.27.28l-.16.16a.53.53,0,0,0-.48-.31.44.44,0,0,0-.22.06.51.51,0,0,0-.17.16.83.83,0,0,0-.11.26,1.52,1.52,0,0,0,0,.35.54.54,0,0,1,.21-.25.62.62,0,0,1,.34-.09.75.75,0,0,1,.29.06.71.71,0,0,1,.39.38A.71.71,0,0,1,210.42,69.1Zm-.76.51a.48.48,0,0,0,.2,0,.52.52,0,0,0,.27-.27.47.47,0,0,0,0-.2.48.48,0,0,0,0-.2.49.49,0,0,0-.11-.16.53.53,0,0,0-.16-.11.49.49,0,0,0-.39,0,.54.54,0,0,0-.16.11.49.49,0,0,0-.11.16.48.48,0,0,0,0,.2.47.47,0,0,0,0,.2.52.52,0,0,0,.11.16.53.53,0,0,0,.16.11A.48.48,0,0,0,209.66,69.61Z"/><path class="cls-5" d="M161.58,60.93l-.07-.06-.13-.07-.17-.06-.18,0a.41.41,0,0,0-.25.06.2.2,0,0,0-.08.17.17.17,0,0,0,0,.11.26.26,0,0,0,.09.07l.15.06.2.05.27.09a.75.75,0,0,1,.21.12.48.48,0,0,1,.13.17.55.55,0,0,1,0,.24.6.6,0,0,1-.06.28.53.53,0,0,1-.17.19.74.74,0,0,1-.24.11,1.23,1.23,0,0,1-.29,0,1.55,1.55,0,0,1-.46-.07,1.41,1.41,0,0,1-.41-.2l.18-.35.09.07.16.08.21.07.23,0q.33,0,.33-.21a.17.17,0,0,0,0-.11.32.32,0,0,0-.11-.08l-.17-.06-.22-.06-.26-.09a.67.67,0,0,1-.18-.11.41.41,0,0,1-.11-.15.52.52,0,0,1,0-.2.64.64,0,0,1,.06-.28.56.56,0,0,1,.16-.2.74.74,0,0,1,.24-.12,1,1,0,0,1,.29,0,1.14,1.14,0,0,1,.4.07,1.51,1.51,0,0,1,.32.16Z"/><path class="cls-5" d="M209.86,60.93l-.07-.06-.13-.07-.17-.06-.18,0a.41.41,0,0,0-.25.06A.2.2,0,0,0,209,61a.17.17,0,0,0,0,.11.26.26,0,0,0,.09.07l.15.06.2.05.27.09a.75.75,0,0,1,.21.12.48.48,0,0,1,.13.17.55.55,0,0,1,0,.24.6.6,0,0,1-.06.28.53.53,0,0,1-.17.19.74.74,0,0,1-.24.11,1.23,1.23,0,0,1-.29,0,1.55,1.55,0,0,1-.46-.07,1.41,1.41,0,0,1-.41-.2l.18-.35.09.07.16.08.21.07.23,0q.33,0,.33-.21a.17.17,0,0,0,0-.11.32.32,0,0,0-.11-.08l-.17-.06-.22-.06-.26-.09a.67.67,0,0,1-.18-.11.41.41,0,0,1-.11-.15.52.52,0,0,1,0-.2.64.64,0,0,1,.06-.28.56.56,0,0,1,.16-.2.74.74,0,0,1,.24-.12,1,1,0,0,1,.29,0,1.14,1.14,0,0,1,.4.07,1.51,1.51,0,0,1,.32.16Z"/><path class="cls-5" d="M170,62.45V61.09l-.53,1h-.22l-.53-1v1.36h-.4V60.4h.43l.61,1.17L170,60.4h.43v2.06Z"/><path class="cls-5" d="M178.23,60.75h-.66v1.71h-.4V60.75h-.66V60.4h1.71Z"/><path class="cls-5" d="M184.63,60.4H185l.23.68.23-.68h.37l-.35.94.26.66.58-1.6h.43l-.84,2.06h-.34l-.36-.86-.36.86h-.34l-.83-2.06h.43l.59,1.6.25-.66Z"/><path class="cls-5" d="M194.52,60.75h-.66v1.71h-.4V60.75h-.66V60.4h1.71Z"/><path class="cls-5" d="M200.94,62.45V60.4h1.38v.35h-1v.53h.82v.32h-.82v.85Z"/><path class="cls-5" d="M160.73,53.08V55.3h-.67V51.84h.52l1.8,2.27V51.85h.67V55.3h-.55Z"/><path class="cls-5" d="M164.85,55.35a1.4,1.4,0,0,1-.56-.11,1.26,1.26,0,0,1-.42-.29,1.29,1.29,0,0,1-.27-.42,1.42,1.42,0,0,1,0-1,1.29,1.29,0,0,1,.27-.42,1.26,1.26,0,0,1,.42-.29,1.4,1.4,0,0,1,.56-.11,1.38,1.38,0,0,1,.56.11,1.27,1.27,0,0,1,.42.29,1.29,1.29,0,0,1,.27.42,1.42,1.42,0,0,1,0,1,1.3,1.3,0,0,1-.26.42,1.23,1.23,0,0,1-.42.29A1.4,1.4,0,0,1,164.85,55.35ZM164.19,54a.9.9,0,0,0,.05.31.76.76,0,0,0,.14.24.64.64,0,0,0,.21.16.65.65,0,0,0,.53,0,.63.63,0,0,0,.21-.16.75.75,0,0,0,.14-.24.9.9,0,0,0,.05-.31.89.89,0,0,0-.05-.31.75.75,0,0,0-.14-.24.63.63,0,0,0-.21-.16.63.63,0,0,0-.26-.06.6.6,0,0,0-.26.06.66.66,0,0,0-.21.16.76.76,0,0,0-.14.24A.9.9,0,0,0,164.19,54Z"/><path class="cls-5" d="M167.22,55.3l-.94-2.55H167l.65,2,.65-2h.61l-.94,2.55Z"/><path class="cls-5" d="M170.3,55.35a1.42,1.42,0,0,1-.55-.1,1.25,1.25,0,0,1-.69-.7A1.35,1.35,0,0,1,169,54a1.43,1.43,0,0,1,.09-.51,1.26,1.26,0,0,1,.27-.42,1.28,1.28,0,0,1,.43-.29,1.41,1.41,0,0,1,.56-.11,1.38,1.38,0,0,1,.56.11,1.29,1.29,0,0,1,.42.29,1.24,1.24,0,0,1,.26.42,1.4,1.4,0,0,1,.09.5s0,.08,0,.12a.54.54,0,0,1,0,.1h-2a.74.74,0,0,0,.07.27.65.65,0,0,0,.36.33.68.68,0,0,0,.24,0,.75.75,0,0,0,.37-.09.5.5,0,0,0,.24-.25l.56.16a1.14,1.14,0,0,1-.45.48A1.4,1.4,0,0,1,170.3,55.35Zm.66-1.54a.68.68,0,0,0-.21-.46.67.67,0,0,0-.9,0,.68.68,0,0,0-.14.2.7.7,0,0,0-.07.26Z"/><path class="cls-5" d="M176,55.3h-.65V53.87a.76.76,0,0,0-.1-.45.34.34,0,0,0-.29-.14.55.55,0,0,0-.37.15.82.82,0,0,0-.24.39V55.3h-.65V53.87a.76.76,0,0,0-.1-.45.34.34,0,0,0-.29-.14.56.56,0,0,0-.36.15.8.8,0,0,0-.25.38V55.3H172V52.75h.59v.47a1,1,0,0,1,.39-.38,1.16,1.16,0,0,1,.56-.13.72.72,0,0,1,.5.16.7.7,0,0,1,.22.38,1.1,1.1,0,0,1,.39-.4,1.07,1.07,0,0,1,.55-.14.76.76,0,0,1,.38.09.63.63,0,0,1,.23.23,1,1,0,0,1,.11.32,2.09,2.09,0,0,1,0,.37Z"/><path class="cls-5" d="M178,55.35a1,1,0,0,1-.52-.13,1,1,0,0,1-.36-.36v.44h-.57V51.74h.65v1.45a1,1,0,0,1,.36-.36,1,1,0,0,1,.52-.13,1,1,0,0,1,.45.11,1.14,1.14,0,0,1,.35.29,1.31,1.31,0,0,1,.23.42,1.62,1.62,0,0,1,.08.51,1.44,1.44,0,0,1-.09.52,1.3,1.3,0,0,1-.25.42,1.18,1.18,0,0,1-.38.28A1.1,1.1,0,0,1,178,55.35Zm-.18-.56a.68.68,0,0,0,.29-.06.69.69,0,0,0,.22-.16.75.75,0,0,0,.14-.24.83.83,0,0,0,.05-.29.9.9,0,0,0,0-.3.78.78,0,0,0-.14-.25.7.7,0,0,0-.21-.17.57.57,0,0,0-.27-.06.6.6,0,0,0-.39.14,1,1,0,0,0-.27.35v.61a.56.56,0,0,0,.1.18.73.73,0,0,0,.15.13.71.71,0,0,0,.18.09A.61.61,0,0,0,177.84,54.79Z"/><path class="cls-5" d="M180.84,55.35a1.42,1.42,0,0,1-.55-.1,1.25,1.25,0,0,1-.69-.7,1.35,1.35,0,0,1-.09-.5,1.43,1.43,0,0,1,.09-.51,1.26,1.26,0,0,1,.27-.42,1.28,1.28,0,0,1,.43-.29,1.41,1.41,0,0,1,.56-.11,1.38,1.38,0,0,1,.56.11,1.29,1.29,0,0,1,.42.29,1.24,1.24,0,0,1,.26.42,1.4,1.4,0,0,1,.09.5s0,.08,0,.12a.54.54,0,0,1,0,.1h-2a.74.74,0,0,0,.07.27.65.65,0,0,0,.36.33.68.68,0,0,0,.24,0,.75.75,0,0,0,.37-.09.5.5,0,0,0,.24-.25l.56.16a1.14,1.14,0,0,1-.45.48A1.4,1.4,0,0,1,180.84,55.35Zm.66-1.54a.68.68,0,0,0-.21-.46.67.67,0,0,0-.9,0,.68.68,0,0,0-.14.2.7.7,0,0,0-.07.26Z"/><path class="cls-5" d="M184.09,53.31a1.29,1.29,0,0,0-.53.11.67.67,0,0,0-.34.33V55.3h-.65V52.75h.6v.55a1.13,1.13,0,0,1,.16-.24,1.22,1.22,0,0,1,.2-.18.92.92,0,0,1,.22-.12.59.59,0,0,1,.21,0h.13Z"/><path class="cls-3" d="M158,43.9a1.68,1.68,0,0,1,0,3.3"/><path class="cls-3" d="M162.24,43.9a1.68,1.68,0,0,1,0,3.3"/><path class="cls-3" d="M166.47,43.9a1.68,1.68,0,0,1,0,3.3"/><path class="cls-3" d="M170.71,43.9a1.68,1.68,0,0,1,0,3.3"/><path class="cls-3" d="M175,43.9a1.68,1.68,0,0,1,0,3.3"/><path class="cls-3" d="M179.19,43.9a1.68,1.68,0,0,1,0,3.3"/><path class="cls-3" d="M183.43,43.9a1.68,1.68,0,0,1,0,3.3"/><path class="cls-3" d="M191.95,43.9a1.68,1.68,0,0,1,0,3.3"/><path class="cls-3" d="M196.19,43.9a1.68,1.68,0,0,1,0,3.3"/><path class="cls-3" d="M200.42,43.9a1.68,1.68,0,0,1,0,3.3"/><path class="cls-3" d="M204.66,43.9a1.68,1.68,0,0,1,0,3.3"/><path class="cls-3" d="M208.9,43.9a1.68,1.68,0,0,1,0,3.3"/><path class="cls-3" d="M213.14,43.9a1.68,1.68,0,0,1,0,3.3"/><path class="cls-3" d="M217.38,43.9a1.68,1.68,0,0,1,0,3.3"/><path class="cls-3" d="M187.67,43.9a1.68,1.68,0,0,1,0,3.3"/><circle class="cls-3" cx="157.9" cy="47.39" r="0.84"/><circle class="cls-3" cx="162.24" cy="47.39" r="0.84"/><circle class="cls-3" cx="166.57" cy="47.39" r="0.84"/><circle class="cls-3" cx="170.91" cy="47.39" r="0.84"/><circle class="cls-3" cx="175.25" cy="47.39" r="0.84"/><circle class="cls-3" cx="179.58" cy="47.39" r="0.84"/><circle class="cls-3" cx="183.92" cy="47.39" r="0.84"/><circle class="cls-3" cx="187.68" cy="47.39" r="0.84"/><circle class="cls-3" cx="192.07" cy="47.39" r="0.84"/><circle class="cls-3" cx="196.38" cy="47.39" r="0.84"/><circle class="cls-3" cx="200.54" cy="47.39" r="0.84"/><circle class="cls-3" cx="204.82" cy="47.39" r="0.84"/><circle class="cls-3" cx="208.69" cy="47.39" r="0.84"/><circle class="cls-3" cx="213.18" cy="47.39" r="0.84"/><circle class="cls-3" cx="217.35" cy="47.39" r="0.84"/><rect class="cls-3" x="93.11" y="98.26" width="88.87" height="29.88" rx="3.55" ry="3.55"/><path class="cls-4" d="M157.86,111.32a.33.33,0,0,0,0-.66H99.43a.33.33,0,0,0,0,.66Z"/><path class="cls-4" d="M157.86,115.39a.33.33,0,0,0,0-.66H99.43a.33.33,0,0,0,0,.66Z"/><path class="cls-4" d="M157.86,119.46a.33.33,0,0,0,0-.66H99.43a.33.33,0,0,0,0,.66Z"/><path class="cls-4" d="M157.86,123.53a.33.33,0,1,0,0-.65H118.63a.33.33,0,1,0,0,.65Z"/><path class="cls-4" d="M178.43,98H96.66a3.56,3.56,0,0,0-3.55,3.55v5.54H182v-5.54A3.56,3.56,0,0,0,178.43,98Z"/><circle class="cls-3" cx="175.61" cy="102.37" r="1.08"/><circle class="cls-3" cx="171.28" cy="102.37" r="1.08"/><circle class="cls-3" cx="166.95" cy="102.37" r="1.08"/><path class="cls-3" d="M161.72,111h14.71a.87.87,0,0,1,.87.87v6.56a.87.87,0,0,1-.87.87H161.72a.88.88,0,0,1-.88-.88v-6.56A.88.88,0,0,1,161.72,111Z"/><rect class="cls-3" x="160.85" y="120.36" width="16.46" height="2.85" rx="0.55" ry="0.55"/><path class="cls-6" d="M89.39,206l.45-.27a1.59,1.59,0,0,1,1.12.75c.3.63.33,3.11,1.3,3.62s4,.54,5.06.48,1.3,1.75,1.09,2.5a2.16,2.16,0,0,1,.12,1.27,5.63,5.63,0,0,1-4.19,2.5c-2,0-3-.06-3.71.6a2.83,2.83,0,0,1,0,1.06,5.89,5.89,0,0,1-4.31,1.09c-2.08-.33-2.94-.71-3.09-1.07s.21-.86.21-.86a27.1,27.1,0,0,1,.23-5.71c.45-1.81,0-6,1.84-5.86Z"/><path class="cls-7" d="M100.36,206l.45-.27a1.59,1.59,0,0,1,1.12.75c.3.63.33,3.11,1.3,3.62s4,.54,5.06.48,1.3,1.75,1.09,2.5a2.16,2.16,0,0,1,.12,1.27,5.63,5.63,0,0,1-4.19,2.5c-2,0-3-.06-3.71.6a2.82,2.82,0,0,1,0,1.06,5.89,5.89,0,0,1-4.31,1.09c-2.08-.33-2.94-.71-3.09-1.07s.21-.86.21-.86a27.08,27.08,0,0,1,.23-5.71c.45-1.81,0-6,1.84-5.86Z"/><path class="cls-8" d="M84.39,129.17s.24,11.94,1,20.62,1.15,10.55.72,14.89-1.51,33.46-.54,41.42a2.09,2.09,0,0,0,2.17,1.06c1.48-.27,2.08-.54,2.14-1.42S91,183.83,93.37,169c0,0,.3-1.51,1.15-4.16a44.7,44.7,0,0,0,1.51-9.1c.36-3.62,2.23-21.82,1.75-24.6S89.93,126.31,84.39,129.17Z"/><path class="cls-9" d="M91.58,127.86c.19,9.34,6,31.76,5.47,37.36-.42,4.4-1.51,33.94-.54,42a2.09,2.09,0,0,0,2.17,1.07c1.48-.28,2.08-.55,2.14-1.44s1.12-22.23,3.53-37.27c0,0,.3-1.53,1.15-4.22a45.91,45.91,0,0,0,1.51-9.23c.36-3.67,2.23-22.13,1.75-24.95S97.13,125,91.58,127.86Z"/><path class="cls-10" d="M76.64,80.62s-.32,12,1,16.41,3.41,4.28,5.23,3.81S85,84.67,76.64,80.62Z"/><path class="cls-11" d="M100.48,47.82a23,23,0,0,0,.34,3,12.65,12.65,0,0,0,1.11,3c.36.42-.4.65-.54,1a4.72,4.72,0,0,0-.2,2c.06,1.07.1,3.15-1.8,3.31S97.37,49.19,100.48,47.82Z"/><path class="cls-12" d="M96.82,65.2,100.41,68s2.44.83,2.6,1.94a49.57,49.57,0,0,0,2.85,9c1.59,3.73,3.17,6.34,2.38,9.75s-2.7,8.17-1.59,16.25,3.65,13.16,3.65,21.41-.48,14.75-1,17.36a6.5,6.5,0,0,1-1.9.56c-1.35.24-16.21,1.94-21.6.36,0,0-2.06-.32-2.54-1.27s-1-8.72-2.7-16.65.24-12.21,2.3-18.87-8.32-20.22-4-28.15S80,67.38,96.82,65.2Z"/><path class="cls-13" d="M102.28,69s-2.44-.16-3.39,3.64.79,9.36,1.9,10.47c0,0,3,11.89,5.87,16.25s4.6,3.09,6.42,2.62S124.9,92.37,126,90.38a1,1,0,0,0-.24-1,1.49,1.49,0,0,0-1.51-.54c-.83.08-3.13,2.62-10.47,6,0,0-1.07.63-1.59.36s-2-5.15-3.13-9.2S107.73,70.62,102.28,69Z"/><path class="cls-14" d="M131.49,81.84a19.25,19.25,0,0,1-2,3.36,54.9,54.9,0,0,0-3.11,4.67A11.71,11.71,0,0,1,124.67,92a3.7,3.7,0,0,1-1.49-1c-.39-.42-.58-1.17,0-1.53a3.09,3.09,0,0,0,1-.95,1.62,1.62,0,0,0,0-1.36S129.71,81.62,131.49,81.84Z"/><path class="cls-15" d="M92.2,37.77s4.44-1,7.61,1.11,2.06,5.83,1.43,7.85-2.14,5.55-1.51,9.67,4,6.46.67,11.61c0,0-5.31-1.15-6.82,3.29s2.93,9,1.11,13.32-5.31,2.7-4.92,6.5-1.19,6.5-5.23,6.1-1.67-6.66-5.71-10.54-7.53-6.1-7.53-13.08,4.28-8.24,4.12-16.17S76.07,30.16,92.2,37.77Z"/><path class="cls-16" d="M130.5,76.77a1.54,1.54,0,0,1,1.17.18,19.39,19.39,0,0,1,2,1.91c.11.23.74.85-1.31,2.33s-9,7.14-9.47,7.38a1,1,0,0,1-1.29-.19c-.39-.44-1.89-2.07-1.89-2.07s-.37-.64.49-1.29S129.54,77.25,130.5,76.77Z"/><path class="cls-17" d="M130,77.48a1.13,1.13,0,0,1,.86.13A14.25,14.25,0,0,1,132.32,79c.08.17.55.62-1,1.72s-8.43,6.68-8.74,6.86a.7.7,0,0,1-1-.14c-.29-.33-1.39-1.52-1.39-1.52s-.27-.47.36-1S129.29,77.83,130,77.48Z"/><path class="cls-18" d="M126.48,80.21a.68.68,0,0,0-.74-.23c-.47.14-.26.44-.7.68s-.79.1-1,.62-.2.85-.08,1a.67.67,0,0,0,.85-.27c.14-.35.46-.76.87-.73S126.79,80.56,126.48,80.21Z"/><path class="cls-18" d="M122.68,83a1.17,1.17,0,0,0-.79.18c-.33.25,0,.89.39.82s.3-.48.19-.61S122.41,83.22,122.68,83Z"/><path class="cls-19" d="M130.83,82.48l.66-.64s.44-.91.48-1.07-.32-.56-.93-.15a3.45,3.45,0,0,0-1.13,2,8.81,8.81,0,0,0-2.3,2.29c-.56,1.08,2-.49,2.12-.64S130.83,82.48,130.83,82.48Z"/><rect class="cls-3" x="123.66" y="125.81" width="101.22" height="76.05" rx="5.76" ry="5.76"/><path class="cls-4" d="M219.11,125.81H129.42a5.78,5.78,0,0,0-5.76,5.76v14.48H224.88V131.58A5.78,5.78,0,0,0,219.11,125.81Z"/><circle class="cls-3" cx="214.54" cy="135.93" r="1.76"/><circle class="cls-3" cx="207.51" cy="135.93" r="1.76"/><circle class="cls-3" cx="200.49" cy="135.93" r="1.76"/><path class="cls-4" d="M185.72,164.72a.53.53,0,1,0,0-1.06H131.6a.53.53,0,1,0,0,1.06Z"/><path class="cls-4" d="M185.72,171.33a.53.53,0,1,0,0-1.06H131.6a.53.53,0,1,0,0,1.06Z"/><path class="cls-4" d="M185.72,177.94a.53.53,0,1,0,0-1.06H131.6a.53.53,0,1,0,0,1.06Z"/><path class="cls-4" d="M185.72,184.54a.53.53,0,0,0,0-1.06H149.38a.53.53,0,0,0,0,1.06Z"/><path class="cls-4" d="M185.72,158.12a.53.53,0,0,0,0-1.06H131.6a.53.53,0,0,0,0,1.06Z"/><rect class="cls-3" x="191" y="153.54" width="26.71" height="20.7" rx="2.18" ry="2.18"/><rect class="cls-3" x="191" y="178.18" width="26.71" height="9.42" rx="1.83" ry="1.83"/><rect class="cls-3" x="197.14" y="120.77" width="54.49" height="40.94" rx="3.1" ry="3.1"/><path class="cls-4" d="M248.53,120.77H200.24a3.11,3.11,0,0,0-3.1,3.1v7.8h54.49v-7.8A3.11,3.11,0,0,0,248.53,120.77Z"/><circle class="cls-3" cx="246.07" cy="126.22" r="0.95"/><circle class="cls-3" cx="242.28" cy="126.22" r="0.95"/><circle class="cls-3" cx="238.5" cy="126.22" r="0.95"/><path class="cls-4" d="M230.55,141.72a.29.29,0,1,0,0-.57H201.41a.29.29,0,1,0,0,.57Z"/><path class="cls-4" d="M230.55,145.28a.29.29,0,0,0,0-.57H201.41a.29.29,0,1,0,0,.57Z"/><path class="cls-4" d="M230.55,148.83a.29.29,0,1,0,0-.57H201.41a.29.29,0,1,0,0,.57Z"/><path class="cls-4" d="M230.55,152.39a.29.29,0,0,0,0-.57H211a.29.29,0,0,0,0,.57Z"/><path class="cls-4" d="M230.55,138.16a.29.29,0,0,0,0-.57H201.41a.29.29,0,1,0,0,.57Z"/><rect class="cls-3" x="233.39" y="135.7" width="14.38" height="11.15" rx="1.17" ry="1.17"/><rect class="cls-3" x="233.39" y="148.96" width="14.38" height="5.07" rx="0.98" ry="0.98"/></g></g></svg>