<svg xmlns="http://www.w3.org/2000/svg" xmlns:xlink="http://www.w3.org/1999/xlink" viewBox="0 0 308.12 255.7"><defs><style>.cls-1,.cls-6{fill:none;}.cls-2{isolation:isolate;}.cls-3,.cls-4{opacity:0.15;}.cls-3{fill:url(#Gradient_bez_nazwy_5);}.cls-4{fill:url(#Gradient_bez_nazwy_5-2);}.cls-5{fill:url(#Gradient_bez_nazwy_5-3);}.cls-6{stroke:#0037ff;stroke-miterlimit:10;}.cls-7{fill:url(#Gradient_bez_nazwy_5-4);}.cls-8{fill:url(#Gradient_bez_nazwy_5-5);}.cls-9{fill:url(#Gradient_bez_nazwy_4);}.cls-10{fill:#ed9169;}.cls-11{fill:url(#Gradient_bez_nazwy_5-6);}.cls-12{fill:url(#Gradient_bez_nazwy_7);}.cls-13{fill:url(#Gradient_bez_nazwy_7-2);}.cls-14{fill:url(#Gradient_bez_nazwy_7-3);}.cls-15{fill:url(#Gradient_bez_nazwy_7-4);}.cls-16{fill:url(#Gradient_bez_nazwy_7-5);}.cls-17{fill:url(#Gradient_bez_nazwy_5-7);}.cls-18{fill:#ffaf84;}.cls-19{fill:url(#Gradient_bez_nazwy_4-2);}.cls-20{fill:url(#Gradient_bez_nazwy_4-3);}.cls-21{clip-path:url(#clip-path);}.cls-22{opacity:0.2;mix-blend-mode:multiply;fill:url(#Gradient_bez_nazwy_3);}.cls-23{fill:url(#Gradient_bez_nazwy_4-4);}.cls-24{fill:url(#Gradient_bez_nazwy_10);}.cls-25{fill:url(#Gradient_bez_nazwy_10-2);}.cls-26{fill:#ea8f68;}.cls-27{fill:url(#Gradient_bez_nazwy_10-3);}.cls-28{fill:url(#Gradient_bez_nazwy_14);}.cls-29{fill:url(#Gradient_bez_nazwy_14-2);}.cls-30{fill:url(#Gradient_bez_nazwy_14-3);}.cls-31{fill:url(#Gradient_bez_nazwy_14-4);}.cls-32{fill:url(#Gradient_bez_nazwy_14-5);}.cls-33{fill:url(#Gradient_bez_nazwy_4-5);}.cls-34{fill:url(#Gradient_bez_nazwy_4-6);}.cls-35{fill:url(#Gradient_bez_nazwy_4-7);}.cls-36{fill:url(#Gradient_bez_nazwy_4-8);}.cls-37{fill:url(#Gradient_bez_nazwy_10-4);}.cls-38{fill:url(#Gradient_bez_nazwy_10-5);}</style><linearGradient id="Gradient_bez_nazwy_5" x1="84.74" y1="127.85" x2="308.12" y2="127.85" gradientUnits="userSpaceOnUse"><stop offset="0" stop-color="#36078b"/><stop offset="1" stop-color="#16b1ff"/></linearGradient><linearGradient id="Gradient_bez_nazwy_5-2" x1="0" y1="127.85" x2="255.7" y2="127.85" xlink:href="#Gradient_bez_nazwy_5"/><linearGradient id="Gradient_bez_nazwy_5-3" x1="-3414.11" y1="223.76" x2="-3371.92" y2="253.91" gradientTransform="translate(3503.25 616.93) rotate(12.76)" xlink:href="#Gradient_bez_nazwy_5"/><linearGradient id="Gradient_bez_nazwy_5-4" x1="-2000.93" y1="191.85" x2="-1998.37" y2="157.99" gradientTransform="matrix(-1, 0.04, 0.04, 1, -1873.79, 101.73)" xlink:href="#Gradient_bez_nazwy_5"/><linearGradient id="Gradient_bez_nazwy_5-5" x1="-1951.2" y1="195.6" x2="-1948.65" y2="161.74" gradientTransform="matrix(-1, 0.04, 0.04, 1, -1873.79, 101.73)" xlink:href="#Gradient_bez_nazwy_5"/><linearGradient id="Gradient_bez_nazwy_4" x1="-2016.45" y1="37.07" x2="-1984.52" y2="1.34" gradientTransform="matrix(-1, 0.04, 0.04, 1, -1873.79, 101.73)" gradientUnits="userSpaceOnUse"><stop offset="0" stop-color="#2c27ce"/><stop offset="0.65" stop-color="#ef1d68"/><stop offset="1" stop-color="#efba92"/></linearGradient><linearGradient id="Gradient_bez_nazwy_5-6" x1="-3634.16" y1="89.68" x2="-3553.3" y2="27.86" gradientTransform="matrix(1, -0.04, 0.04, 1, 3717.5, -109.15)" xlink:href="#Gradient_bez_nazwy_5"/><linearGradient id="Gradient_bez_nazwy_7" x1="-2007.41" y1="186.73" x2="-1992.59" y2="123.25" gradientTransform="matrix(-1, 0.04, 0.04, 1, -1873.79, 101.73)" gradientUnits="userSpaceOnUse"><stop offset="0" stop-color="#ff664f"/><stop offset="1" stop-color="#9e005d"/></linearGradient><linearGradient id="Gradient_bez_nazwy_7-2" x1="-1974.12" y1="212.1" x2="-1954.86" y2="129.65" xlink:href="#Gradient_bez_nazwy_7"/><linearGradient id="Gradient_bez_nazwy_7-3" x1="-1993.79" y1="189.91" x2="-1978.96" y2="126.44" xlink:href="#Gradient_bez_nazwy_7"/><linearGradient id="Gradient_bez_nazwy_7-4" x1="-2007.89" y1="198.29" x2="-1990.07" y2="121.97" xlink:href="#Gradient_bez_nazwy_7"/><linearGradient id="Gradient_bez_nazwy_7-5" x1="-2013.13" y1="185.4" x2="-1998.3" y2="121.92" xlink:href="#Gradient_bez_nazwy_7"/><linearGradient id="Gradient_bez_nazwy_5-7" x1="-2016.31" y1="78.4" x2="-1966.78" y2="25.32" gradientTransform="matrix(-1, 0.04, 0.04, 1, -1875.83, 101.81)" xlink:href="#Gradient_bez_nazwy_5"/><linearGradient id="Gradient_bez_nazwy_4-2" x1="-2011.86" y1="41.17" x2="-1979.93" y2="5.44" xlink:href="#Gradient_bez_nazwy_4"/><linearGradient id="Gradient_bez_nazwy_4-3" x1="-2019.26" y1="34.55" x2="-1987.34" y2="-1.18" xlink:href="#Gradient_bez_nazwy_4"/><clipPath id="clip-path"><path class="cls-1" d="M75.37,207.16a3.53,3.53,0,0,1,.54-1.68c-.07-.15,0-.34.24-.62,3.94-4.11,13.38-32.46,22.63-39.91,0-.29,0-.58.06-.88.56-5.69,1.88-28.51,2.22-32.44a46.76,46.76,0,0,1,.63-10.35c2.31-8.62,3.15-29.62,1.57-42.83,0-.39-.09-.79-.12-1.18-.22-2.95,0-6.23,1.77-8.73A7,7,0,0,1,106,67.38a4.52,4.52,0,0,1,.35-.29A11.92,11.92,0,0,1,113.79,65c.27,0,.53,0,.79,0,.7-1.71,1.52-3.52,2.24-5.08a6.53,6.53,0,0,1-.65-3.7,4.11,4.11,0,0,1-1.66-3c-.28-1.9.29-3.56,1.29-3.71a1,1,0,0,1,.41,0c-.05-1.28.58-2.68,1.77-4.86.85-1.56,1.7-2.08,2.57-2-1-3.43,10.08-1.13,11.18-1.29,2.2-.32.56-1.35,3-.74,3.86,1.33,3.24,6.3.65,7.51.82,1.83-.63,4.11-1.74,5.49a35.16,35.16,0,0,1-3.05,8.72c-1.09,2-3.65,4.21-6.21,3.58l-.51-.15-.31.88a17.63,17.63,0,0,1,4.84,2.11,12,12,0,0,1,5.12,7.09A29.94,29.94,0,0,1,134,85l-.23,2.57q.12,2,.24,3.91a121.76,121.76,0,0,0,11.87,5.8,1.35,1.35,0,0,1,1.16-.12c1.13.36,5.4,1.45,6.53,2.82l.1,0c.63.29,4.37,2.05,4,2.64-.49.9-3-.15-4.67-.84h0a5.09,5.09,0,0,1-5,1.35,6.25,6.25,0,0,1-2.21-1c-2.1.47-4.54-.53-9.52-1.86l-1.57-.42a7.54,7.54,0,0,0,.68,2.56,6.09,6.09,0,0,0,.8,1.06c2.54,3,4.18,6.37,5.87,9.85,1.28,2.63,2.36,6,4.29,8.24a1.8,1.8,0,0,1,.35.65c1.42.32,3,.67,4,.83,1.37.21,1,3.36.21,3.87-1.18.76-5.19,1.41-6.06-.15s-2.55-1.2-2.86-2.78a2.52,2.52,0,0,1,0-1.06,20.65,20.65,0,0,1-4.8-4.48c-1.92-2.23-3.73-4.54-5.54-6.85-.46,5.15-.77,8.54-.77,8.54s1.18,7.25,1.65,15.92c.78,8.33,2.06,22.28,2.55,26.56a19.42,19.42,0,0,1,.13,2.06c0,.05,0,.1,0,.15.41,7.91-.78,25.64-4.41,43.86a2.91,2.91,0,0,1,.29,1,11.59,11.59,0,0,0,3.84,2.38c2.24.87,6.93,1.13,4.37,2.07s-5.61.54-7.15.36a32.37,32.37,0,0,0-4.84-.1c-2.38.08-2.41-.07-2.19-2.67,0-.12,0-.22.05-.34l0,0c.62-9.76-4.06-32.17-1.68-44.94a245.93,245.93,0,0,1-6.58-25.12c-.86,6.91-5.06,19.35-7.35,27.91A5.07,5.07,0,0,1,107,172a16.92,16.92,0,0,1-1.62,2c-6.59,6.76-17.05,26.34-23.69,33.95a5.63,5.63,0,0,0,2.62,2.75c2.24.87,6.22,1.87,3.66,2.81s-5.61.54-7.15.36-1.91-2.08-3.52-2.9C74.82,209.64,75.14,209.77,75.37,207.16Z"/></clipPath><linearGradient id="Gradient_bez_nazwy_3" x1="-2446.6" y1="-2099.98" x2="-2289.49" y2="-2003.45" gradientTransform="matrix(-0.65, -0.7, 0.36, -0.62, -722.47, -2810.5)" gradientUnits="userSpaceOnUse"><stop offset="0" stop-color="blue"/><stop offset="1" stop-color="#9e005d"/></linearGradient><linearGradient id="Gradient_bez_nazwy_4-4" x1="1078.79" y1="83.31" x2="1031.19" y2="48.99" gradientTransform="matrix(-1, 0, 0, 1, 1308.23, 0)" xlink:href="#Gradient_bez_nazwy_4"/><linearGradient id="Gradient_bez_nazwy_10" x1="-967.84" y1="2896.32" x2="-982.54" y2="2932.98" gradientTransform="matrix(-0.61, -0.79, -0.79, 0.61, 1948.46, -2474.05)" gradientUnits="userSpaceOnUse"><stop offset="0" stop-color="#36078b"/><stop offset="1" stop-color="#168d68"/></linearGradient><linearGradient id="Gradient_bez_nazwy_10-2" x1="-1419.28" y1="-2212.76" x2="-1435.75" y2="-2171.71" gradientTransform="matrix(0.7, 0.72, 0.72, -0.7, 2798.97, -398.11)" xlink:href="#Gradient_bez_nazwy_10"/><linearGradient id="Gradient_bez_nazwy_10-3" x1="1052.38" y1="79.23" x2="1057.82" y2="125.92" gradientTransform="matrix(-1, 0, 0, 1, 1308.23, 0)" xlink:href="#Gradient_bez_nazwy_10"/><linearGradient id="Gradient_bez_nazwy_14" x1="1062.05" y1="111.67" x2="1040.51" y2="174.35" gradientTransform="matrix(-1, 0, 0, 1, 1308.23, 0)" gradientUnits="userSpaceOnUse"><stop offset="0" stop-color="#f70f47"/><stop offset="1" stop-color="#ffb41d"/></linearGradient><linearGradient id="Gradient_bez_nazwy_14-2" x1="1120.87" y1="-501.1" x2="1098.86" y2="-437.04" gradientTransform="matrix(-0.99, 0.15, 0.15, 0.99, 1417.27, 439.13)" xlink:href="#Gradient_bez_nazwy_14"/><linearGradient id="Gradient_bez_nazwy_14-3" x1="1058.58" y1="110.48" x2="1037.05" y2="173.16" xlink:href="#Gradient_bez_nazwy_14"/><linearGradient id="Gradient_bez_nazwy_14-4" x1="1089.25" y1="121.02" x2="1067.72" y2="183.69" xlink:href="#Gradient_bez_nazwy_14"/><linearGradient id="Gradient_bez_nazwy_14-5" x1="1075.01" y1="116.13" x2="1053.48" y2="178.8" xlink:href="#Gradient_bez_nazwy_14"/><linearGradient id="Gradient_bez_nazwy_4-5" x1="1068.72" y1="238.75" x2="1071.15" y2="208.76" gradientTransform="matrix(-1, 0, 0, 1, 1308.23, 0)" xlink:href="#Gradient_bez_nazwy_4"/><linearGradient id="Gradient_bez_nazwy_4-6" x1="1034.31" y1="244.32" x2="1037.38" y2="206.52" gradientTransform="matrix(-1, 0, 0, 1, 1308.23, 0)" xlink:href="#Gradient_bez_nazwy_4"/><linearGradient id="Gradient_bez_nazwy_4-7" x1="1073.06" y1="76.76" x2="1046.06" y2="45.95" gradientTransform="matrix(-1, 0, 0, 1, 1308.23, 0)" xlink:href="#Gradient_bez_nazwy_4"/><linearGradient id="Gradient_bez_nazwy_4-8" x1="1078.62" y1="71.89" x2="1051.62" y2="41.08" gradientTransform="matrix(-1, 0, 0, 1, 1308.23, 0)" xlink:href="#Gradient_bez_nazwy_4"/><linearGradient id="Gradient_bez_nazwy_10-4" x1="2505.64" y1="-923.11" x2="2487.96" y2="-879.02" gradientTransform="matrix(-0.71, 0.18, 0.26, 0.97, 2291.4, 501.03)" xlink:href="#Gradient_bez_nazwy_10"/><linearGradient id="Gradient_bez_nazwy_10-5" x1="-3688.71" y1="-2814.69" x2="-3701.59" y2="-2782.57" gradientTransform="matrix(0.67, -0.74, 0.74, 0.67, 4831.51, -809.46)" xlink:href="#Gradient_bez_nazwy_10"/></defs><title>smm-slide7</title><g class="cls-2"><g id="Слой_2" data-name="Слой 2"><g id="Background"><circle class="cls-3" cx="196.43" cy="127.85" r="111.69"/><circle class="cls-4" cx="127.85" cy="127.85" r="127.85"/></g><g id="Objects"><path class="cls-5" d="M146,117.12c-1.93-2.24-3-5.61-4.29-8.24C140,105.4,138.37,102,135.83,99A6.09,6.09,0,0,1,135,98c-.71-1.33-.74-3.43-.9-4.93s-.28-3.3-.39-5c-.31-4.77-.57-9.54-.94-14.3-.14-1.79-3.26-5.13-6.07-4.4-3.11.81-4,2.19-4,5.61a65.27,65.27,0,0,0,1,10.78c1.15,7.37,2.73,15.22,7.45,21.23,1.85,2.36,3.7,4.73,5.67,7,3.67,4.25,5.15,4.91,7.46,5.52C146.17,120,147,118.31,146,117.12Z"/><path class="cls-6" d="M172.53,197.22l-8.3,8.1-7.92,7.73a7.17,7.17,0,0,1-10.14-10.14l6.17-6.17,6.4-6.41Z"/><path class="cls-6" d="M251.11,215.15a7.16,7.16,0,0,1-5.07-2.1l-7.92-7.73-8.3-8.1,13.78-6.89,6.4,6.41,6.17,6.17A7.17,7.17,0,0,1,251.11,215.15Z"/><path class="cls-6" d="M158.75,190.33l13.78,6.89-8.3,8.1a73.72,73.72,0,0,1-11.88-8.58Z"/><path class="cls-6" d="M250,196.74a73.72,73.72,0,0,1-11.88,8.58l-8.3-8.1,13.78-6.89Z"/><rect class="cls-6" x="193.19" y="50.24" width="15.96" height="17.56"/><rect class="cls-6" x="185.99" y="42.66" width="30.37" height="10.64" rx="4.17" ry="4.17"/><rect class="cls-6" x="136.87" y="79.22" width="12.98" height="14.28" transform="translate(-19.08 126.66) rotate(-45)"/><rect class="cls-6" x="124.68" y="75.69" width="24.68" height="8.65" rx="3.39" ry="3.39" transform="translate(-16.45 120.32) rotate(-45)"/><circle class="cls-6" cx="201.18" cy="136.07" r="73.69"/><path class="cls-6" d="M262.19,135.7a61,61,0,0,1-61,61,61.51,61.51,0,0,1-9.4-.72,60.32,60.32,0,0,1-14.35-4.08q-1.29-.54-2.55-1.15A60.8,60.8,0,0,1,158,178.85q-1.2-1.2-2.33-2.46a61,61,0,0,1,86.16-86.16q1.26,1.13,2.46,2.33a60.8,60.8,0,0,1,11.93,16.85q.6,1.26,1.15,2.55a60.33,60.33,0,0,1,4.08,14.35A61.49,61.49,0,0,1,262.19,135.7Z"/><rect class="cls-6" x="200.15" y="85.95" width="2.05" height="11.45" rx="1.03" ry="1.03"/><rect class="cls-6" x="200.15" y="174.01" width="2.05" height="11.45" rx="1.03" ry="1.03"/><rect class="cls-6" x="151.42" y="134.67" width="11.45" height="2.05" rx="1.03" ry="1.03"/><rect class="cls-6" x="239.48" y="134.67" width="11.45" height="2.05" rx="1.03" ry="1.03"/><rect class="cls-6" x="226.58" y="103.54" width="11.45" height="2.05" transform="translate(-5.91 194.87) rotate(-44.99)"/><path class="cls-6" d="M166,170.88h0a1,1,0,0,1,0-1.45l6.64-6.64a1,1,0,0,1,1.45,0h0a1,1,0,0,1,0,1.45l-6.64,6.64A1,1,0,0,1,166,170.88Z"/><path class="cls-6" d="M174.09,108.62h0a1,1,0,0,1-1.45,0L166,102a1,1,0,0,1,0-1.45h0a1,1,0,0,1,1.45,0l6.64,6.64A1,1,0,0,1,174.09,108.62Z"/><path class="cls-6" d="M236.36,170.88h0a1,1,0,0,1-1.45,0l-6.64-6.64a1,1,0,0,1,0-1.45h0a1,1,0,0,1,1.45,0l6.64,6.64A1,1,0,0,1,236.36,170.88Z"/><path class="cls-6" d="M218.74,143.3,200.15,136l.64-1.64,18.59,7.32a.88.88,0,0,1,.5,1.14h0A.88.88,0,0,1,218.74,143.3Z"/><path class="cls-6" d="M202.06,136.58H170.92a.88.88,0,0,1-.88-.88h0a.88.88,0,0,1,.88-.88H200.3v-24a.88.88,0,0,1,.88-.88h0a.88.88,0,0,1,.88.88Z"/><path class="cls-7" d="M130.65,209.26a9.89,9.89,0,0,0,4.24,2.86c2.24.87,6.93,1.13,4.37,2.07s-5.61.54-7.15.36a32.37,32.37,0,0,0-4.84-.1c-2.38.08-2.41-.07-2.19-2.67C125.39,208.2,129.5,207.28,130.65,209.26Z"/><path class="cls-8" d="M80.7,205.73c.36.61,1.39,4.06,3.63,4.93s6.22,1.87,3.66,2.81-5.61.54-7.15.36-1.91-2.07-3.52-2.9c-2.49-1.28-2.17-1.16-2-3.76A2.86,2.86,0,0,1,80.7,205.73Z"/><path class="cls-9" d="M129,55.49c1.59,1.28,2.37,1.48,3.57-.6.06-.1,6.44-6.23.59-8.6-2.69-1.09-4.85-1.7-5.45,2.14S127.15,54,129,55.49Z"/><path class="cls-10" d="M118.76,55.94c-.14.25-2.81,5.68-4.52,10a4.77,4.77,0,0,0,2.65,5.75l.09,0c2.08.77,5.23-.21,5.82-2.36a59.85,59.85,0,0,1,2.78-7.72Z"/><path class="cls-11" d="M103.26,78.46c1.58,13.21.74,34.21-1.57,42.83l29.14-1.1s1.7-18.85,3.13-35.2a29.94,29.94,0,0,0-.39-9.08,12,12,0,0,0-5.12-7.09A22.49,22.49,0,0,0,121,66a33.66,33.66,0,0,0-7.16-1c-3.28,0-6.89.7-8.88,3.53-1.76,2.49-2,5.78-1.77,8.73C103.17,77.67,103.21,78.06,103.26,78.46Z"/><path class="cls-12" d="M102.48,139.11s-2.75-6-.79-17.82l29.14-1.1A165.36,165.36,0,0,1,132.56,138Z"/><path class="cls-13" d="M105.41,174c6.82-7,2.9-13.05-4.16-10.48-10,3.64-20.81,36.91-25.1,41.38-.56.59-.15.8.3,1,1.3.66,2.15-.38,3.72.15.65.22,1.55,1.88,1.55,1.88C88.35,200.31,98.82,180.72,105.41,174Z"/><path class="cls-14" d="M117,139.84c.58-11.83-4.44-20.8-11.6-16.63-3,1.75-4,5.07-4.32,8.17s-1.66,26.87-2.24,32.69c-1.29,13.13,9.68,8.91,10.66,5.25C112,160.08,116.68,146.29,117,139.84Z"/><path class="cls-15" d="M135.18,164.87c-.45-8.85-5.18-10.77-9.45-4.58-6.72,9.74.11,39.51-.62,51.18a6.57,6.57,0,0,1,5.44-1.53c1,.41.23-1.21.23-1.21C134.39,190.52,135.58,172.78,135.18,164.87Z"/><path class="cls-16" d="M123.67,167.22c1.28,3.57,12.89,8.55,11.36-4.55-.68-5.81-2.8-29.57-3.15-32.67s-1.06-7.61-2.64-8.12c-7.89-2.54-15.09,7-12.6,18.58C118.31,148.2,121,159.82,123.67,167.22Z"/><path class="cls-17" d="M121.13,94.22a48,48,0,0,1-6.08-6c-1.45-1.72-2.84-3.49-4.18-5.3A65.44,65.44,0,0,1,105,73.81c-1.65-3,0-6.56,2.51-7.32,2.78-.83,4.51.77,7.54,3.7,6.81,6.58,10.11,15.87,11.89,18.59a5.15,5.15,0,0,1,1.42.15c3.77,1,9.77,5.37,18.69,8.81,1.47.57,1.08,3.61-.74,4.28-2.24.82-4.66-.25-10.09-1.7a66.87,66.87,0,0,1-10-3.18,21.47,21.47,0,0,1-4.82-2.69Z"/><path class="cls-18" d="M116.65,52.28c-.72,5.12-.85,6.26.84,8.84A12.12,12.12,0,0,0,124.43,66c2.56.63,5.11-1.61,6.21-3.58a37.42,37.42,0,0,0,3.71-12.65c.32-2.86-2.29-7.06-5.81-7.92S118.42,39.78,116.65,52.28Z"/><path class="cls-19" d="M116.85,51.51c1,1.68,1.66,2.12,3.42.63,1.37-1.16,5.41-5.72,3.34-7.58s-3.83-3.12-5.62.15S115.64,49.52,116.85,51.51Z"/><ellipse class="cls-18" cx="116.32" cy="52.98" rx="1.82" ry="3.48" transform="translate(-6.54 17.73) rotate(-8.48)"/><path class="cls-20" d="M120.6,42.82c1.23,3.38,10.57,5.95,13.9,5.63s4.57-6.3.28-7.78c-2.47-.61-.82.42-3,.74C130.63,41.57,119.28,39.21,120.6,42.82Z"/><path class="cls-18" d="M147,97.15c1.48.47,8.31,2.18,6.51,4.13-2,2.15-3.95,2.3-5.57,1.86-3-.8-3.17-1.79-3.12-3.66C144.86,98.16,145.6,96.7,147,97.15Z"/><path class="cls-18" d="M153.63,100c.63.29,4.37,2.05,4,2.64-.49.9-3-.15-4.67-.84-.9-.37-1.84-1.37-1.41-1.93S152.62,99.54,153.63,100Z"/><g class="cls-21"><path class="cls-22" d="M44.41,38.46c12.79-6.68,40.21-5,48.71,7.9C101.81,59.5,96.06,71.86,108.34,88c11.19,14.69,4.84,33.63,7.41,47.94,2.82,15.71,27.72,7.28,37.77,26.26C169,191.35,138.06,212.36,119,225.82,99.4,239.65,69.36,252.36,47.39,233c-16.23-14.31-12.5-72.32-9.61-87.66,4.15-22,25.32-8,12.7-28.8-7.55-12.47-14.66-36,6-38.81S26,48.08,44.41,38.46Z"/></g><path class="cls-23" d="M258.94,45.19c-1.71-2.41.25-6.66,5.1-7.06,5.54-.46,15.38,2.74,10.1,15.65-5.49,13.44-3.78,16.88-.08,18.89,0,0-12.69,1-11.72-10.07S262.91,50.79,258.94,45.19Z"/><path class="cls-24" d="M232.74,81.4c2.27-1,8.34-5,16.56-10.15a11.18,11.18,0,0,1,7.88-.63c1.67.56,2.57,3.17-.07,5A71.37,71.37,0,0,1,248.28,81c-8.75,4.67-12.87,5.86-14.78,6.18C231.24,87.56,229.42,82.84,232.74,81.4Z"/><path class="cls-25" d="M240.76,102.39c-.68-1.88-8.54-14-9.67-17.07-1.33-3.65,3.26-4.9,4.91-2.16,2.52,4.21,3.37,5.81,5.23,12.1,1.3,4.37,2.87,5,2.4,6.39C243.25,102.74,241.21,103.63,240.76,102.39Z"/><path class="cls-26" d="M260.84,61.31c0,.28.47,6.15.54,10.66,0,2.21-1.56,4.31-3.15,4.36h-.07c-1.56,0-3.4-2-3.26-4.13.25-3.92.06-7.94.06-8Z"/><path class="cls-27" d="M265.4,86.7A76.74,76.74,0,0,0,262.58,99a31.26,31.26,0,0,0,0,9.29c.25,1.85.62,3.69,1,5.51.16.69,1.52,6.26,1.58,6.85H239.81c.24-5,5.92-20.63,2.08-30.76-2.66-7,.87-7.23,3.27-13.07a17.16,17.16,0,0,1,2-4.24,7.3,7.3,0,0,1,3.89-2.39,14.49,14.49,0,0,1,2.36-.33c4.3-.35,14.43-1.59,15.38,4.53a10.84,10.84,0,0,1-.5,4.95c-.57,1.79-1.42,3.47-2.13,5.2Q265.76,85.63,265.4,86.7Z"/><path class="cls-28" d="M265.13,136.83s2.2-5.54.1-16.14H239.81a155.54,155.54,0,0,0-.93,16.14Z"/><path class="cls-29" d="M260.61,172.49c-3.34-8.17,4.78-11,8.38-5.24,5.09,8.1,7.29,38.05,8,43.62.09.73-.31.65-.74.57-1.25-.24-.72-1.42-2.52-1.31-.95.06-1.22,1.36-1.22,1.36C270.5,204.06,263.84,180.4,260.61,172.49Z"/><path class="cls-30" d="M252.51,138c-.89-10.67,3.18-19,9.56-15.43,2.68,1.48,3.67,4.45,4,7.24s2.34,31.83,3,37.07c1.56,11.83-7.44,8.64-8.41,5.36C258.25,164,253,143.8,252.51,138Z"/><path class="cls-31" d="M237.49,170.8c-.33-8,7.18-7.84,9.07-1.32,3,10.25-2.17,32.26-2.48,44.84-1.31-2.17-2.55-2.7-3.13-2.65a2.09,2.09,0,0,0-1.46.82C239.67,195.92,237.84,179.36,237.49,170.8Z"/><path class="cls-32" d="M246.25,171.67c-1,3.27-9.6,7.05-8.7-4.85.4-5.28,1.46-34.43,1.66-37.24s.67-6.91,2-7.43c6.79-2.56,13.38,5.82,11.59,16.37C251.64,145.58,248.32,164.89,246.25,171.67Z"/><path class="cls-18" d="M263.9,57.06c-.5,5-.65,6.13-2.84,8.18a11.83,11.83,0,0,1-7.7,3c-2.57,0-4.47-2.71-5.05-4.83a36.47,36.47,0,0,1-.58-12.85c.36-2.78,3.8-6.16,7.35-6.16S265.12,44.8,263.9,57.06Z"/><path class="cls-33" d="M239.16,212.44a8.67,8.67,0,0,1-3.6,2.73c-1.92.86-6,1.26-3.74,2a13.55,13.55,0,0,0,6.24.08,27.09,27.09,0,0,1,4.21-.25c2.08,0,2.1-.14,1.82-2.49C243.71,211.3,240.1,210.62,239.16,212.44Z"/><path class="cls-34" d="M272.52,211c-.29.56-.59,3.3-2.52,4.16s-6,1.26-3.74,2a13.55,13.55,0,0,0,6.24.08c1.34-.21,1.55-1.67,3.13-1.68,2.08,0,2.1-.14,1.82-2.49C277.07,209.87,273.46,209.19,272.52,211Z"/><path class="cls-35" d="M248.56,47.93c-2,3.35,12.31,9.51,15.48,9s3.14-7.26.69-10.34S253.2,40,248.56,47.93Z"/><path class="cls-36" d="M253.86,47.08c-.52,2.84-5.49,3.49-6.34,5.84-.53,1.46-.77-3.15.39-5.23S254.9,41.38,253.86,47.08Z"/><ellipse class="cls-18" cx="264.05" cy="57.79" rx="3.39" ry="1.78" transform="translate(110.72 280.39) rotate(-67.79)"/><path class="cls-18" d="M292,76.47a9.2,9.2,0,0,1,1.16-4.19c.66-.88.48,1.48.47,2.63S291.95,77.74,292,76.47Z"/><path class="cls-18" d="M293.15,75.24c1.74-2.61,2.24-4.28,3.6-5s1.43,2.18,1,3.18-1.92,4.69-3.2,5S291.86,77.17,293.15,75.24Z"/><path class="cls-37" d="M278.15,94.35c-1.45-2-6.71-7.07-13.46-14a11.19,11.19,0,0,1-2.3-7.57c.19-1.76,2.55-3.18,4.91-1a71.23,71.23,0,0,1,7.14,7.49c6.43,7.55,8.48,11.32,9.2,13.11C284.49,94.5,280.27,97.28,278.15,94.35Z"/><path class="cls-38" d="M294.69,77.54c.18,1.47-1.57,1.81-3.85,6-3.29,6-4.5,7.42-8,11.13-2.28,2.42-6.67.14-4.51-3.28,1.83-2.89,12.49-13.44,13.6-15.2C292.66,75,294.54,76.34,294.69,77.54Z"/><path class="cls-18" d="M241.05,100.45a11,11,0,0,0-2.61,2.28c-.45.58-.44,1.51.39,1.65s3-.35,3.71-1.24a3.78,3.78,0,0,0,.71-2.7C243.11,99.61,242.25,99.66,241.05,100.45Z"/><path class="cls-18" d="M145.7,116.1c1.72.64,9.6,3.12,7.75,5a5.48,5.48,0,0,1-6.11,1.46c-3.43-1.14-3.75-2.21-3.87-4.2C143.38,117,144.07,115.49,145.7,116.1Z"/><path class="cls-18" d="M146.89,115.3c.7,0,4.83-.11,4.8.56,0,1-2.76,1.2-4.56,1.33-1,.07-2.26-.41-2.12-1.09S145.78,115.34,146.89,115.3Z"/></g></g></g></svg>