<?xml version="1.0" encoding="utf-8"?>
<!-- Generator: Adobe Illustrator 21.0.0, SVG Export Plug-In . SVG Version: 6.00 Build 0)  -->
<svg version="1.1" id="Слой_1" xmlns="http://www.w3.org/2000/svg" xmlns:xlink="http://www.w3.org/1999/xlink" x="0px" y="0px"
	 viewBox="0 0 308.1 255.7" style="enable-background:new 0 0 308.1 255.7;" xml:space="preserve">
<style type="text/css">
	.st0{opacity:0.15;fill:url(#SVGID_1_);enable-background:new    ;}
	.st1{opacity:0.15;fill:url(#SVGID_2_);enable-background:new    ;}
	.st2{fill:none;stroke:#0037FF;stroke-miterlimit:10;}
	.st3{fill:url(#SVGID_3_);}
	.st4{fill:url(#SVGID_4_);}
	.st5{fill:url(#SVGID_5_);}
	.st6{fill:#EA8F68;}
	.st7{fill:url(#SVGID_6_);}
	.st8{fill:url(#SVGID_7_);}
	.st9{fill:url(#SVGID_8_);}
	.st10{fill:url(#SVGID_9_);}
	.st11{fill:url(#SVGID_10_);}
	.st12{fill:url(#SVGID_11_);}
	.st13{fill:#FFAF84;}
	.st14{fill:url(#SVGID_12_);}
	.st15{fill:url(#SVGID_13_);}
	.st16{fill:url(#SVGID_14_);}
	.st17{fill:url(#SVGID_15_);}
	.st18{fill:url(#SVGID_16_);}
	.st19{fill:url(#SVGID_17_);}
	.st20{fill:url(#SVGID_18_);}
	.st21{fill:url(#SVGID_19_);}
	.st22{fill:#4E11F4;}
	.st23{fill:url(#SVGID_20_);}
	.st24{fill:url(#SVGID_21_);}
	.st25{fill:url(#SVGID_22_);}
	.st26{fill:#F70F47;}
	.st27{fill:url(#SVGID_23_);}
	.st28{fill:url(#SVGID_24_);}
</style>
<title>smm-slide8</title>
<g>
	<g id="Слой_2">
		<g id="Background">
			
				<linearGradient id="SVGID_1_" gradientUnits="userSpaceOnUse" x1="84.74" y1="136.04" x2="308.12" y2="136.04" gradientTransform="matrix(1 0 0 -1 0 263.89)">
				<stop  offset="0" style="stop-color:#36078B"/>
				<stop  offset="1" style="stop-color:#16B1FF"/>
			</linearGradient>
			<circle class="st0" cx="196.4" cy="127.8" r="111.7"/>
			
				<linearGradient id="SVGID_2_" gradientUnits="userSpaceOnUse" x1="0" y1="136.04" x2="255.7" y2="136.04" gradientTransform="matrix(1 0 0 -1 0 263.89)">
				<stop  offset="0" style="stop-color:#36078B"/>
				<stop  offset="1" style="stop-color:#16B1FF"/>
			</linearGradient>
			<circle class="st1" cx="127.8" cy="127.8" r="127.8"/>
		</g>
		<g id="Objects">
			<path class="st2" d="M150.6,68.5h39.8c1.4,0,2.6,1.1,2.6,2.6v28.6c0,1.4-1.1,2.6-2.6,2.6h-39.8c-1.4,0-2.6-1.1-2.6-2.6V71
				C148.1,69.6,149.2,68.5,150.6,68.5z"/>
			<path class="st2" d="M190.4,68.5h-39.8c-1.4,0-2.5,1.1-2.6,2.5v6.4H193V71C193,69.6,191.8,68.5,190.4,68.5z"/>
			<circle class="st2" cx="188.4" cy="73" r="0.8"/>
			<circle class="st2" cx="185.3" cy="73" r="0.8"/>
			<circle class="st2" cx="182.2" cy="73" r="0.8"/>
			<path class="st2" d="M175.6,85.7c0.1,0,0.2-0.2,0.2-0.3c0-0.1-0.1-0.2-0.2-0.2h-24c-0.1,0-0.2,0.2-0.2,0.3c0,0.1,0.1,0.2,0.2,0.2
				H175.6z"/>
			<path class="st2" d="M175.6,88.7c0.1,0,0.2-0.2,0.2-0.3c0-0.1-0.1-0.2-0.2-0.2h-24c-0.1,0-0.3,0.1-0.3,0.2c0,0.1,0.1,0.3,0.2,0.3
				c0,0,0.1,0,0.1,0H175.6z"/>
			<path class="st2" d="M175.6,91.6c0.1,0,0.2-0.2,0.2-0.3c0-0.1-0.1-0.2-0.2-0.2h-24c-0.1,0-0.2,0.2-0.2,0.3c0,0.1,0.1,0.2,0.2,0.2
				H175.6z"/>
			<path class="st2" d="M175.6,94.5c0.1,0,0.2-0.2,0.2-0.3c0-0.1-0.1-0.2-0.2-0.2h-16.1c-0.1,0-0.2,0.2-0.2,0.3
				c0,0.1,0.1,0.2,0.2,0.2H175.6z"/>
			<path class="st2" d="M175.6,82.8c0.1,0,0.2-0.2,0.2-0.3c0-0.1-0.1-0.2-0.2-0.2h-24c-0.1,0-0.3,0.1-0.3,0.2c0,0.1,0.1,0.3,0.2,0.3
				c0,0,0.1,0,0.1,0H175.6z"/>
			<path class="st2" d="M178.9,80.8h9.9c0.5,0,1,0.4,1,1V89c0,0.5-0.4,1-1,1h-9.9c-0.5,0-1-0.4-1-1v-7.3
				C178,81.2,178.4,80.8,178.9,80.8z"/>
			<path class="st2" d="M178.8,91.7H189c0.4,0,0.8,0.4,0.8,0.8v2.6c0,0.4-0.4,0.8-0.8,0.8h-10.2c-0.4,0-0.8-0.4-0.8-0.8v-2.6
				C178,92.1,178.3,91.7,178.8,91.7z"/>
			
				<linearGradient id="SVGID_3_" gradientUnits="userSpaceOnUse" x1="138.3455" y1="161.9437" x2="91.0355" y2="196.0637" gradientTransform="matrix(1 0 0 -1 0 263.89)">
				<stop  offset="0" style="stop-color:#2C27CE"/>
				<stop  offset="0.65" style="stop-color:#EF1D68"/>
				<stop  offset="1" style="stop-color:#EFBA92"/>
			</linearGradient>
			<path class="st3" d="M109,64c1.7-2.4-0.2-6.6-5.1-7c-5.5-0.5-15.3,2.7-10,15.6C99.4,86,97.7,89.4,94,91.4c0,0,12.6,1,11.7-10
				S105.1,69.6,109,64z"/>
			
				<linearGradient id="SVGID_4_" gradientUnits="userSpaceOnUse" x1="-1984.5741" y1="-2174.4141" x2="-1999.1841" y2="-2210.8542" gradientTransform="matrix(0.61 -0.79 -0.79 -0.61 -393.8969 -2813.6372)">
				<stop  offset="0" style="stop-color:#F70F47"/>
				<stop  offset="1" style="stop-color:#9E005D"/>
			</linearGradient>
			<path class="st4" d="M134.3,105.8c-1.9-0.3-6-1.5-14.7-6.2c-3.1-1.6-6-3.3-8.8-5.3c-2.6-1.8-1.7-4.4-0.1-5
				c2.6-0.8,5.4-0.5,7.8,0.6c8.2,5.1,14.2,9.1,16.5,10.1C138.4,101.5,136.6,106.2,134.3,105.8z"/>
			
				<linearGradient id="SVGID_5_" gradientUnits="userSpaceOnUse" x1="-857.7509" y1="-1467.0679" x2="-874.1208" y2="-1507.8779" gradientTransform="matrix(0.85 -0.52 -0.52 -0.85 99.3128 -1638.3135)">
				<stop  offset="0" style="stop-color:#F70F47"/>
				<stop  offset="1" style="stop-color:#9E005D"/>
			</linearGradient>
			<path class="st5" d="M148.5,89c0.1,1.4-1.6,1.7-3.9,5.6c-3.4,5.6-4.6,6.9-8,10.4c-2.3,2.2-6.4-0.1-4.2-3.3
				c1.9-2.7,12.4-12.4,13.5-14C146.6,86.5,148.4,87.9,148.5,89z"/>
			<path class="st6" d="M107.2,80.1c0,0.3-0.5,6.1-0.5,10.6c0,2.2,1.6,4.3,3.1,4.3h0.1c1.6,0,3.4-1.9,3.2-4.1
				c-0.3-3.9-0.1-7.9-0.1-8L107.2,80.1z"/>
			
				<linearGradient id="SVGID_6_" gradientUnits="userSpaceOnUse" x1="112.1693" y1="166.0081" x2="117.5793" y2="119.6081" gradientTransform="matrix(1 0 0 -1 0 263.89)">
				<stop  offset="0" style="stop-color:#F70F47"/>
				<stop  offset="1" style="stop-color:#9E005D"/>
			</linearGradient>
			<path class="st7" d="M102.6,105.3c1.3,4,2.2,8.1,2.8,12.3c0.5,3.1,0.5,6.2,0,9.2c-0.3,1.8-0.6,3.7-1,5.5
				c-0.2,0.7-1.5,6.2-1.6,6.8h25.3c-0.2-5-5.9-20.5-2.1-30.6c2.6-7-0.9-7.2-3.3-13c-0.5-1.5-1.1-2.9-2-4.2c-1-1.2-2.4-2-3.9-2.4
				c-0.8-0.2-1.6-0.3-2.3-0.3c-4.3-0.3-14.3-1.6-15.3,4.5c-0.2,1.7,0,3.3,0.5,4.9c0.6,1.8,1.4,3.4,2.1,5.2
				C102.1,103.9,102.4,104.6,102.6,105.3z"/>
			
				<linearGradient id="SVGID_7_" gradientUnits="userSpaceOnUse" x1="121.7162" y1="133.7578" x2="100.3162" y2="71.4479" gradientTransform="matrix(1 0 0 -1 0 263.89)">
				<stop  offset="0" style="stop-color:#36078B"/>
				<stop  offset="1" style="stop-color:#168D68"/>
			</linearGradient>
			<path class="st8" d="M102.9,155.1c0,0-2.2-5.5-0.1-16h25.3c0.6,5.3,0.9,10.7,0.9,16H102.9z"/>
			
				<linearGradient id="SVGID_8_" gradientUnits="userSpaceOnUse" x1="233.2661" y1="679.9142" x2="211.3861" y2="616.2342" gradientTransform="matrix(0.99 0.15 0.15 -0.99 -197.5835 772.6511)">
				<stop  offset="0" style="stop-color:#36078B"/>
				<stop  offset="1" style="stop-color:#16B1FF"/>
			</linearGradient>
			<path class="st9" d="M107.4,190.6c3.3-8.1-4.8-10.9-8.3-5.2c-5.1,8.1-7.3,37.8-7.9,43.4c-0.1,0.7,0.3,0.6,0.7,0.6
				c1.3-0.2,0.7-1.4,2.5-1.3c0.9,0.1,1.2,1.4,1.2,1.4C97.5,222,104.2,198.4,107.4,190.6z"/>
			
				<linearGradient id="SVGID_9_" gradientUnits="userSpaceOnUse" x1="118.2782" y1="134.9372" x2="96.8682" y2="72.6372" gradientTransform="matrix(1 0 0 -1 0 263.89)">
				<stop  offset="0" style="stop-color:#36078B"/>
				<stop  offset="1" style="stop-color:#16B1FF"/>
			</linearGradient>
			<path class="st10" d="M115.4,156.3c0.9-10.6-3.2-18.8-9.5-15.3c-2.7,1.5-3.7,4.4-4,7.2s-2.3,31.6-3,36.9
				c-1.6,11.8,7.4,8.6,8.4,5.3C109.7,182.1,114.9,162.1,115.4,156.3z"/>
			
				<linearGradient id="SVGID_10_" gradientUnits="userSpaceOnUse" x1="148.756" y1="124.4679" x2="127.356" y2="62.1579" gradientTransform="matrix(1 0 0 -1 0 263.89)">
				<stop  offset="0" style="stop-color:#36078B"/>
				<stop  offset="1" style="stop-color:#16B1FF"/>
			</linearGradient>
			<path class="st11" d="M130.4,188.9c0.3-8-7.1-7.8-9-1.3c-3,10.2,2.2,32.1,2.5,44.6c1.3-2.2,2.5-2.7,3.1-2.6
				c0.6,0.1,1.1,0.4,1.4,0.8C128.2,213.9,130,197.4,130.4,188.9z"/>
			
				<linearGradient id="SVGID_11_" gradientUnits="userSpaceOnUse" x1="134.6133" y1="129.3255" x2="113.2032" y2="67.0255" gradientTransform="matrix(1 0 0 -1 0 263.89)">
				<stop  offset="0" style="stop-color:#36078B"/>
				<stop  offset="1" style="stop-color:#16B1FF"/>
			</linearGradient>
			<path class="st12" d="M121.7,189.8c1,3.3,9.5,7,8.7-4.8c-0.4-5.3-1.4-34.2-1.6-37s-0.7-6.9-2-7.4c-6.8-2.6-13.3,5.8-11.5,16.3
				C116.3,163.8,119.6,183,121.7,189.8z"/>
			<path class="st13" d="M104.1,75.8c0.5,5,0.6,6.1,2.8,8.1c2.1,1.9,4.8,3,7.7,3c2.6,0,4.4-2.7,5-4.8c0.9-4.2,1.1-8.5,0.6-12.8
				c-0.4-2.8-3.8-6.1-7.3-6.1S102.9,63.7,104.1,75.8z"/>
			
				<linearGradient id="SVGID_12_" gradientUnits="userSpaceOnUse" x1="128.3373" y1="7.4302" x2="130.7573" y2="37.2502" gradientTransform="matrix(1 0 0 -1 0 263.89)">
				<stop  offset="0" style="stop-color:#2C27CE"/>
				<stop  offset="0.65" style="stop-color:#EF1D68"/>
				<stop  offset="1" style="stop-color:#EFBA92"/>
			</linearGradient>
			<path class="st14" d="M128.7,230.3c0.9,1.2,2.2,2.1,3.6,2.7c1.9,0.9,6,1.3,3.7,2c-2,0.5-4.2,0.5-6.2,0.1
				c-1.4-0.2-2.8-0.3-4.2-0.3c-2.1,0-2.1-0.1-1.8-2.5C124.2,229.2,127.8,228.5,128.7,230.3z"/>
			
				<linearGradient id="SVGID_13_" gradientUnits="userSpaceOnUse" x1="94.1401" y1="1.9" x2="97.1901" y2="39.47" gradientTransform="matrix(1 0 0 -1 0 263.89)">
				<stop  offset="0" style="stop-color:#2C27CE"/>
				<stop  offset="0.65" style="stop-color:#EF1D68"/>
				<stop  offset="1" style="stop-color:#EFBA92"/>
			</linearGradient>
			<path class="st15" d="M95.5,228.9c0.3,0.6,0.6,3.3,2.5,4.1s6,1.3,3.7,2c-2,0.5-4.2,0.5-6.2,0.1c-1.3-0.2-1.5-1.7-3.1-1.7
				c-2.1,0-2.1-0.1-1.8-2.5C91,227.7,94.6,227.1,95.5,228.9z"/>
			
				<linearGradient id="SVGID_14_" gradientUnits="userSpaceOnUse" x1="132.6639" y1="168.4634" x2="105.8239" y2="199.0934" gradientTransform="matrix(1 0 0 -1 0 263.89)">
				<stop  offset="0" style="stop-color:#2C27CE"/>
				<stop  offset="0.65" style="stop-color:#EF1D68"/>
				<stop  offset="1" style="stop-color:#EFBA92"/>
			</linearGradient>
			<path class="st16" d="M119.3,66.8c2,3.3-12.2,9.4-15.4,8.9s-3.1-7.2-0.7-10.3S114.7,58.9,119.3,66.8z"/>
			
				<linearGradient id="SVGID_15_" gradientUnits="userSpaceOnUse" x1="138.1919" y1="173.3017" x2="111.3519" y2="203.9317" gradientTransform="matrix(1 0 0 -1 0 263.89)">
				<stop  offset="0" style="stop-color:#2C27CE"/>
				<stop  offset="0.65" style="stop-color:#EF1D68"/>
				<stop  offset="1" style="stop-color:#EFBA92"/>
			</linearGradient>
			<path class="st17" d="M114.1,65.9c0.5,2.8,5.5,3.5,6.3,5.8c0.5,1.4,0.8-3.1-0.4-5.2S113.1,60.3,114.1,65.9z"/>
			<ellipse transform="matrix(0.9258 -0.378 0.378 0.9258 -21.2379 44.9814)" class="st13" cx="104" cy="76.6" rx="1.8" ry="3.4"/>
			<path class="st13" d="M107.7,133.7c1.3,0.6,2.5,1.5,3.4,2.6c0.6,0.9-1.5-0.1-2.6-0.6S106.5,133.1,107.7,133.7z"/>
			<path class="st13" d="M108.4,135.2c1.8,2.6,3.1,3.7,3.2,5.2s-2.5,0.5-3.3-0.3s-3.6-3.5-3.4-4.8S107.1,133.3,108.4,135.2z"/>
			
				<linearGradient id="SVGID_16_" gradientUnits="userSpaceOnUse" x1="-1380.053" y1="591.7222" x2="-1396.163" y2="551.5623" gradientTransform="matrix(0.8986 -0.4388 -0.4388 -0.8986 1598.3088 13.8425)">
				<stop  offset="0" style="stop-color:#F70F47"/>
				<stop  offset="1" style="stop-color:#9E005D"/>
			</linearGradient>
			<path class="st18" d="M94,117.5c-0.1-1.9,0-6.2,2.5-15.7c0.8-3.3,1.8-6.6,3.1-9.8c1.2-3,3.9-2.7,4.8-1.2c1.3,2.3,1.8,5.1,1.3,7.8
				c-3,9.1-5.5,16-5.9,18.4C99.2,120.5,94.2,119.8,94,117.5z"/>
			
				<linearGradient id="SVGID_17_" gradientUnits="userSpaceOnUse" x1="1768.1702" y1="494.4874" x2="1760.0502" y2="474.2474" gradientTransform="matrix(0.879 0.4769 0.4769 -0.879 -1674.653 -295.0706)">
				<stop  offset="0" style="stop-color:#F70F47"/>
				<stop  offset="1" style="stop-color:#9E005D"/>
			</linearGradient>
			<path class="st19" d="M105.7,135.7c-1.4-0.4-1.1-2.1-4-5.8c-4.3-5.3-5.1-6.9-7.3-11.5c-1.4-3,2.4-6.2,4.7-2.9
				c2,2.8,7.7,16.5,8.9,18.2C108.8,134.8,106.8,136,105.7,135.7z"/>
			<path class="st13" d="M150.5,89.8c0.9-0.2,1.7-0.7,2.3-1.4c0.2-0.4-0.6-1.1-2.1-1.4c-1.3-0.2-4.7-0.2-5,0.4s0.3,1.3,1.2,2
				C148,90.1,149.3,90.3,150.5,89.8z"/>
			<path class="st2" d="M178.9,98.1h54.4c1.9,0,3.5,1.6,3.5,3.5v39.1c0,1.9-1.6,3.5-3.5,3.5h-54.4c-1.9,0-3.5-1.6-3.5-3.5v-39.1
				C175.4,99.7,176.9,98.1,178.9,98.1z"/>
			<path class="st2" d="M233.3,98.1h-54.4c-1.9,0-3.5,1.6-3.5,3.5v8.8h61.4v-8.8C236.8,99.7,235.2,98.2,233.3,98.1z"/>
			<circle class="st2" cx="230.5" cy="104.3" r="1.1"/>
			<circle class="st2" cx="226.2" cy="104.3" r="1.1"/>
			<circle class="st2" cx="222" cy="104.3" r="1.1"/>
			<path class="st2" d="M213,121.8c0.2,0,0.3-0.1,0.3-0.3c0-0.2-0.1-0.3-0.3-0.3h-32.8c-0.2,0-0.3,0.1-0.3,0.3
				c0,0.2,0.1,0.3,0.3,0.3H213z"/>
			<path class="st2" d="M213,125.8c0.2,0,0.3-0.1,0.3-0.3c0-0.2-0.1-0.3-0.3-0.3h-32.8c-0.2,0-0.3,0.1-0.3,0.3
				c0,0.2,0.1,0.3,0.3,0.3c0,0,0,0,0,0H213z"/>
			<path class="st2" d="M213,129.8c0.2,0,0.3-0.1,0.3-0.3c0-0.2-0.1-0.3-0.3-0.3h-32.8c-0.2,0-0.3,0.1-0.3,0.3
				c0,0.2,0.1,0.3,0.3,0.3H213z"/>
			<path class="st2" d="M213,133.8c0.2,0,0.3-0.1,0.3-0.3c0-0.2-0.1-0.3-0.3-0.3h-22c-0.2,0-0.3,0.1-0.3,0.3c0,0.2,0.1,0.3,0.3,0.3
				H213z"/>
			<path class="st2" d="M213,117.7c0.2,0,0.3-0.1,0.3-0.3c0-0.2-0.1-0.3-0.3-0.3h-32.8c-0.2,0-0.3,0.1-0.3,0.3
				c0,0.2,0.1,0.3,0.3,0.3c0,0,0,0,0,0H213z"/>
			<path class="st2" d="M217.5,115h13.6c0.7,0,1.3,0.6,1.3,1.3v9.9c0,0.7-0.6,1.3-1.3,1.3h-13.6c-0.7,0-1.3-0.6-1.3-1.3v-9.9
				C216.2,115.6,216.8,115,217.5,115z"/>
			<path class="st2" d="M217.3,129.9h14c0.6,0,1.1,0.5,1.1,1.1v3.5c0,0.6-0.5,1.1-1.1,1.1h-14c-0.6,0-1.1-0.5-1.1-1.1V131
				C216.2,130.4,216.7,129.9,217.3,129.9z"/>
			<g id="_Группа_">
				<g id="_Группа_2">
					<circle class="st2" cx="223" cy="163.6" r="10.5"/>
				</g>
				<g id="_Группа_3">
					<g id="_Группа_4">
						<path class="st2" d="M225.5,168.4c-0.9,0.4-1.8,0.6-2.8,0.6c-2.6,0.1-4.7-2-4.8-4.5c0-0.1,0-0.2,0-0.3
							c-0.1-3.1,2.3-5.7,5.5-5.8c0.1,0,0.2,0,0.3,0c2.4-0.1,4.5,1.7,4.6,4.1c0,0.1,0,0.2,0,0.3c0,2.2-1.3,3.6-2.9,3.6
							c-0.7,0.1-1.2-0.4-1.3-1.1c0,0,0-0.1,0-0.1l0,0c-0.4,0.7-1.2,1.2-2,1.2c-1,0-1.7-0.8-1.7-1.8c0-0.1,0-0.2,0-0.2
							c0-1.9,1.5-3.5,3.4-3.6c0.1,0,0.1,0,0.2,0c0.6,0,1.2,0.1,1.8,0.4l-0.5,2.8c-0.1,0.9,0,1.3,0.4,1.3c0.7,0,1.5-0.8,1.5-2.6
							c0.1-1.9-1.3-3.4-3.2-3.5c-0.2,0-0.3,0-0.5,0c-2.5,0-4.4,2.1-4.4,4.5c0,0.1,0,0.2,0,0.2c-0.2,2,1.3,3.8,3.4,4
							c0.2,0,0.4,0,0.6,0c0.8,0,1.5-0.2,2.2-0.5L225.5,168.4z M224.1,162.1c-0.2,0-0.3-0.1-0.5-0.1c-1.1,0.1-1.9,1.1-1.8,2.2
							c0,0.6,0.3,0.9,0.8,0.9s1.2-0.7,1.3-1.6L224.1,162.1z"/>
					</g>
				</g>
			</g>
			<g id="_Группа_5">
				<g id="_Группа_6">
					
						<ellipse transform="matrix(0.9826 -0.1858 0.1858 0.9826 -32.6891 37.9459)" class="st2" cx="186.1" cy="193.3" rx="12.9" ry="12.9"/>
				</g>
				<g id="_Группа_7">
					<polygon class="st2" points="184.1,198.9 182.2,188.9 191.2,192.3 					"/>
				</g>
			</g>
			<path class="st2" d="M253.7,43.4h-16c-1.8,0-3.3,1.5-3.3,3.3l0,0v11.2c0,1.8,1.5,3.3,3.3,3.3h5.6l2.4,3.4l2.3-3.4h5.7
				c1.8,0,3.3-1.4,3.3-3.2c0,0,0,0,0-0.1V46.6C257,44.9,255.5,43.4,253.7,43.4C253.7,43.4,253.7,43.4,253.7,43.4z"/>
			<path class="st2" d="M240,49.9h2.5c0.2,0,0.4,0.2,0.4,0.4v5.6c0,0.2-0.2,0.4-0.4,0.4H240c-0.2,0-0.4-0.2-0.4-0.4v-5.6
				C239.6,50.1,239.7,49.9,240,49.9z"/>
			<path class="st2" d="M244,50.8c0-0.3,0.2-0.7,0.4-0.9c0.6-0.5,1.5-0.9,1.9-3.5c0.2-1.4,1.8-0.5,1.9,1c0.1,1.2,0,2.2,0,2.2h2.4
				c0.6,0,1.2,0.5,1.2,1.2v4.7c0,0.6-0.5,1.2-1.2,1.2h-4.9c-0.2,0-0.4-0.1-0.6-0.2l-0.8-0.5c-0.3-0.2-0.5-0.5-0.5-0.9L244,50.8z"/>
			
				<ellipse transform="matrix(6.557733e-02 -0.9978 0.9978 6.557733e-02 16.2917 267.2948)" class="st2" cx="150.9" cy="124.9" rx="8.2" ry="8.2"/>
			<polygon class="st2" points="151.2,119.6 152.6,123 156.1,123.7 153.4,126.1 153.8,129.6 150.7,127.8 147.4,129.2 148.2,125.7 
				145.8,123 149.4,122.8 			"/>
			<path class="st2" d="M227.9,118c-1.1-0.9-2.8-0.8-3.7,0.4c0,0,0,0.1-0.1,0.1c-1.2-0.9-2.8-0.6-3.7,0.5c0,0-0.1,0.1-0.1,0.1
				c-0.8,1.2-0.5,2.8,0.7,3.6l3.3,2.5c0.4,0.3,1.1,0.3,1.4-0.2c0,0,0,0,0-0.1l2.5-3.3C229.1,120.5,228.9,118.9,227.9,118z"/>
			
				<linearGradient id="SVGID_18_" gradientUnits="userSpaceOnUse" x1="266.9492" y1="149.0098" x2="286.6693" y2="128.2698" gradientTransform="matrix(1 0 0 -1 0 263.89)">
				<stop  offset="0" style="stop-color:#36078B"/>
				<stop  offset="1" style="stop-color:#16B1FF"/>
			</linearGradient>
			<path class="st20" d="M260.2,124.2c2.1,0.7,3.9,0,9-1.1c7.4-1.6,9-2.5,13.2-5.1c2.7-1.7-1.8-7.3-6-6.1c-3.5,1-14.2,8.9-16.4,9.5
				C258.7,121.8,258.5,123.6,260.2,124.2z"/>
			
				<linearGradient id="SVGID_19_" gradientUnits="userSpaceOnUse" x1="278.9364" y1="160.3961" x2="298.6465" y2="139.6561" gradientTransform="matrix(1 0 0 -1 0 263.89)">
				<stop  offset="0" style="stop-color:#36078B"/>
				<stop  offset="1" style="stop-color:#16B1FF"/>
			</linearGradient>
			<path class="st21" d="M283.2,116.9c0.5-1.7,1.1-5.6,0-15.1c-0.3-3.4-0.9-6.7-1.8-10c-0.8-3.1-4-3.9-5.4-2.9
				c-2.2,1.6-4.1,5.2-3.8,6.9c1.8,9.3,3.7,16.4,3.8,18.7C276.1,118,282.6,118.9,283.2,116.9z"/>
			<path class="st22" d="M278.7,226.9c-0.2,0.8-0.3,1.6-0.3,2.5c-0.2,1-1.1,1.4-1.7,2.2s-1.6,2.2,2.2,2.3c4,0.1,6.3,0,5.7-2.2
				c-0.5-1.2-0.7-2.5-0.8-3.8c0.1-0.7,0-1.3-0.5-1.9C282.9,225.5,279.3,224.7,278.7,226.9z"/>
			<path class="st13" d="M230.9,104.7c-1.3-0.7-11.7-5.4-11.8-2.9c-0.1,2.7,3.6,5.5,5,6.3c2.5,1.4,5.5,0.9,6.7-0.4
				C231.6,106.8,232.1,105.3,230.9,104.7z"/>
			<path class="st13" d="M230.5,103.9c-0.4-0.5-2.8-3.7-3.4-3.3c-0.9,0.6,0.5,2.8,1.5,4.2c0.5,0.8,1.8,1.4,2.3,1
				S231.1,104.8,230.5,103.9z"/>
			<path class="st22" d="M248.2,228.7c-1,1.3-2.4,2.2-3.9,2.8c-2.1,0.9-6.4,1.3-4,2.1c2.2,0.5,4.5,0.6,6.7,0.1
				c1.5-0.2,3-0.3,4.5-0.3c2.2,0,2.3-0.1,1.9-2.6C253,227.5,249.2,226.8,248.2,228.7z"/>
			<path class="st13" d="M273.5,73.9c-0.5,4.5-0.6,5.5-2.6,7.4s-5,2.1-7.2,2.1c-2.3,0-3.8-2.8-4.4-4.7c-0.8-3.5-1-7.1-0.4-10.7
				c0.3-2.5,3.4-5.5,6.6-5.5S274.6,62.9,273.5,73.9z"/>
			
				<linearGradient id="SVGID_20_" gradientUnits="userSpaceOnUse" x1="-441.308" y1="3392.1135" x2="-441.308" y2="3346.5034" gradientTransform="matrix(0.58 0.81 0.81 -0.58 -2226.551 2416.7361)">
				<stop  offset="0" style="stop-color:#36078B"/>
				<stop  offset="1" style="stop-color:#16B1FF"/>
			</linearGradient>
			<path class="st23" d="M228.4,107.6c1.4,1.7,2.6,2.7,7.6,4.2c6.8,2,10.7,2.7,14.2,2.9c3.2,0.2,2.7-7.4-1.5-8.6
				c-3.5-1-16.8-0.3-18.9-0.9C228.4,104.8,227.3,106.2,228.4,107.6z"/>
			
				<linearGradient id="SVGID_21_" gradientUnits="userSpaceOnUse" x1="254.002" y1="188.6" x2="254.002" y2="142.99" gradientTransform="matrix(1 0 0 -1 0 263.89)">
				<stop  offset="0" style="stop-color:#36078B"/>
				<stop  offset="1" style="stop-color:#16B1FF"/>
			</linearGradient>
			<path class="st24" d="M250.5,112.8c1.3-1.1,3.9-4.1,8.1-12.7c1.5-3,2.8-6.1,3.8-9.4c1-3-1.3-5.4-3-5.3c-2.7,0.2-6.3,2.2-6.9,3.8
				c-3.5,8.8-5.6,15.8-6.9,17.8C243.9,109.9,248.9,114.2,250.5,112.8z"/>
			<path class="st13" d="M271.2,81.8c0.1,1.6,0.2,3.4,0.3,5c0,2.2-1.6,4.1-3.8,4.4h-0.3c-2,0-4.2-1.8-4.1-3.7
				c0.1-1.3,0.1-2.6,0.2-3.7c0-2.1,1.4-4,3.4-4.7l0,0c1.7-0.6,3.5,0.3,4,2C271.1,81.3,271.2,81.6,271.2,81.8z"/>
			
				<linearGradient id="SVGID_22_" gradientUnits="userSpaceOnUse" x1="265.0622" y1="188.6" x2="265.0622" y2="142.99" gradientTransform="matrix(1 0 0 -1 0 263.89)">
				<stop  offset="0" style="stop-color:#36078B"/>
				<stop  offset="1" style="stop-color:#16B1FF"/>
			</linearGradient>
			<path class="st25" d="M280.2,101.1c-3.6,11.9-4.8,24.3-4.1,32.7h-27.3c0,0,0.2-25.6,2-39.6c0.5-3.5,2.6-6.5,5.8-8
				c2.3-1,4.8-1.5,7.3-1.6h5c1.8,0,3.6,0.2,5.3,0.7C281.7,87.6,282.3,94.2,280.2,101.1z"/>
			<path class="st26" d="M276,150.5c0,0,2.4-5.7,0.1-16.7h-27.3c-0.6,5.5-1,11.1-1,16.7H276z"/>
			<path class="st26" d="M270.6,186.2c-2.2-8.9,6.9-10.4,9.8-4c4,9.1,3.7,38.1,3.5,43.9c0,0.8,0.1,1.7-0.3,2
				c-0.9,0.4-1.9,0.6-2.9,0.5c-1,0-2,0-2.1-1.3C277.9,218.8,272.8,194.8,270.6,186.2z"/>
			<path class="st26" d="M262.5,151.7c-1-11,3.4-19.6,10.3-16c2.9,1.5,3.9,4.6,4.3,7.5s2.5,32.9,3.3,38.3c1.7,12.2-8,8.9-9,5.5
				C268.6,178.5,263,157.7,262.5,151.7z"/>
			<path class="st26" d="M253.4,230.6c0.3-13,5.8-35.8,2.7-46.4c-2-6.7-10.1-6.9-9.7,1.4c0.4,8.9,3,26,2.1,43.1
				C248.4,230.4,253.4,232.1,253.4,230.6z"/>
			<path class="st26" d="M255.8,186.5c-1.1,3.4-10.3,7.3-9.3-5c0.4-5.5,1.6-35.6,1.8-38.5s0.7-7.1,2.2-7.7c7.3-2.6,14.4,6,12.4,16.9
				C261.5,159.5,258,179.5,255.8,186.5z"/>
			
				<ellipse transform="matrix(0.9257 -0.3782 0.3782 0.9257 -8.6126 103.2738)" class="st13" cx="258.6" cy="73.6" rx="1.6" ry="3.1"/>
			<ellipse transform="matrix(0.378 -0.9258 0.9258 0.378 101.9333 298.811)" class="st13" cx="273.3" cy="73.5" rx="3" ry="1.6"/>
			
				<linearGradient id="SVGID_23_" gradientUnits="userSpaceOnUse" x1="252.6572" y1="208.4893" x2="291.0571" y2="178.9193" gradientTransform="matrix(1 0 0 -1 0 263.89)">
				<stop  offset="0" style="stop-color:#0000FF"/>
				<stop  offset="1" style="stop-color:#9E005D"/>
			</linearGradient>
			<path class="st27" d="M272.1,65c-1.8,2.6-10.3,2.9-13,1.9s-2.6-6.3,1.4-6.7c2.2,0,0.6,0.5,2.4,1.3C263.8,61.8,274,62.2,272.1,65z
				"/>
			
				<linearGradient id="SVGID_24_" gradientUnits="userSpaceOnUse" x1="250.4126" y1="205.5703" x2="288.8126" y2="175.9904" gradientTransform="matrix(1 0 0 -1 0 263.89)">
				<stop  offset="0" style="stop-color:#0000FF"/>
				<stop  offset="1" style="stop-color:#9E005D"/>
			</linearGradient>
			<path class="st28" d="M262.5,64.5c-2.6,1.6-3.2,3-3.1,6.2s1.5,8.8,7.4,10s7.4-4.7,7.7-8.8s0.1-7.1-2.9-7.9
				C267.2,63,264.1,63.6,262.5,64.5z"/>
			<g>
				<defs>
					<path id="SVGID_25_" d="M284.5,231.6c-0.5-1.2-0.7-2.5-0.8-3.7c0.1-0.6,0.2-1.2,0.1-1.7c0.2-5.8,0.5-34.9-3.5-43.9l0,0
						c0-0.2,0-0.4-0.1-0.6c-0.7-5.3-2.8-34.1-3.2-38.1c0-3.3-0.3-6.5-1-9.7c-0.3-4.2-0.2-8.4,0.2-12.6c2.2-0.8,4.2-1.9,6.1-3.2
						c0.4-0.2,0.7-0.6,0.8-1.1v-0.1c0.5-1.7,1.1-5.6,0-15.1c-0.3-3.4-0.9-6.7-1.8-10c-0.2-0.9-0.7-1.7-1.4-2.3
						c-1.3-2.1-3.4-3.7-5.8-4.3c-0.9-0.3-1.9-0.4-2.8-0.5c-0.1-1-0.1-2-0.2-2.9c0-0.2-0.1-0.5-0.1-0.7c0.9-0.8,1.6-1.9,1.9-3.1
						c0.4-0.7,0.7-1.5,1-2.3c0.4-0.4,0.8-1,1-1.5c0.6-1.5,0.5-3-0.2-3.4c0.2-3.1-0.2-5.5-2.3-6.4c0.1-2.2-8.6-2.6-9.4-2.9
						c-1.8-0.7-0.2-1.3-2.4-1.3c-4,0.4-4.2,5.7-1.4,6.7h0.2c-0.1,0.3-0.3,0.7-0.3,1.1c-0.1,1-0.2,2-0.3,2.9
						c-0.3-0.3-0.8-0.4-1.2-0.3c-0.8,0.3-1,1.9-0.3,3.4c0.3,0.9,0.9,1.7,1.8,2.1c0.1,0.8,0.3,1.6,0.5,2.4c0.5,1.9,2,4.6,4.2,4.7
						c0,0.2,0,0.3,0,0.5c0,0.2,0,0.5,0,0.8c-2,0.1-4,0.5-5.9,1.2c-2.3,0.7-4.6,2.2-5.1,3.4l-0.7,1.5c-0.4,0.8-0.8,1.6-1,2.5
						c-2.6,6.9-4.3,12.2-5.4,13.8c-0.2,0.3-0.3,0.6-0.3,0.9c-2.8,2.4-8.7,11.6-11,14.1h-0.1c-0.3,0-0.7,0-1,0c-0.7,0-4.6,0.2-4.6,1
						s1.1,1,2.3,1.1c-3.2,2-7.3,5.1-5.9,6.1c2.2,1.6,6.6,0.2,8-0.5c1.9-0.9,3.2-2.7,3.5-4.8c1.6-0.3,3.2-1.1,6.4-3.5
						c2.7-2.1,4.8-3.8,6.4-5.4c-0.4,9.7-0.4,17.9-0.4,17.9c-0.6,5.5-1,11.1-1,16.7l0,0c-0.4,10.1-1.1,27.1-1.4,31
						c-0.1,0.9-0.1,1.8,0,2.6c0,0.5,0,1,0,1.5c0.4,8.8,3,25.7,2.2,42.6c-0.1,0.1-0.3,0.3-0.4,0.4c-1,1.3-2.4,2.2-3.9,2.8
						c-2.1,0.9-6.4,1.3-4,2.1c2.2,0.5,4.5,0.6,6.7,0.1c1.5-0.2,3-0.3,4.5-0.3c2.2,0,2.3-0.1,1.9-2.6c0-0.1,0-0.1,0-0.2l0,0
						c0.3-12.8,5.6-34.9,2.8-45.8c2.1-7.7,5.1-24.3,6.4-31.7c1,6.6,5,21.8,7.7,30.8c0,0.8,0.1,1.5,0.3,2.3c2.1,8.6,7.3,32.6,8,41.1
						l0,0c-0.2,0.9-0.1,1.4-0.2,2.1c-0.2,1-1.1,1.4-1.7,2.2s-1.6,2.2,2.2,2.3C282.8,233.9,285.2,233.7,284.5,231.6z"/>
				</defs>
				<clipPath id="SVGID_26_">
					<use xlink:href="#SVGID_25_"  style="overflow:visible;"/>
				</clipPath>
			</g>
			<path class="st2" d="M140.1,22.7l-27.3-0.6c-2.2-0.1-4.1,1.6-4.1,3.9c0,0,0,0.1,0,0.1l-0.4,17.8c-0.1,2.2,1.6,4.1,3.9,4.1
				c0,0,0.1,0,0.1,0l2.7,0.1c0,0,3.4,4.7,4.7,6.1c0.9,1,2.4,1.1,3.4,0.2c0,0,0.1-0.1,0.1-0.1c1.3-1.4,5-5.9,5-5.9l11.5,0.3
				c2.2,0.1,4.1-1.6,4.1-3.9c0,0,0-0.1,0-0.1l0.4-17.8c0.1-2.2-1.6-4.1-3.9-4.1C140.2,22.7,140.2,22.7,140.1,22.7z"/>
			<path class="st2" d="M137.3,31.1l-22.1-0.5c-0.7,0-1.3-0.6-1.3-1.3c0-0.7,0.6-1.3,1.3-1.3l22.1,0.5c0.7,0,1.3,0.6,1.3,1.3
				S138.1,31.1,137.3,31.1z"/>
			<path class="st2" d="M137.2,37.3L115,36.8c-0.7,0-1.3-0.6-1.3-1.3c0-0.7,0.6-1.3,1.3-1.3l22.1,0.5c0.7,0,1.3,0.6,1.3,1.3
				C138.5,36.8,137.9,37.3,137.2,37.3z"/>
			<path class="st2" d="M124.9,43.3l-10-0.2c-0.7,0-1.3-0.6-1.3-1.3c0-0.7,0.6-1.3,1.3-1.3l10,0.2c0.7,0,1.3,0.6,1.3,1.3
				C126.2,42.7,125.6,43.3,124.9,43.3z"/>
			
				<ellipse transform="matrix(0.9545 -0.2982 0.2982 0.9545 -0.4107 63.5413)" class="st2" cx="208" cy="33.1" rx="12.9" ry="12.9"/>
			<path class="st2" d="M214.4,35.6c-0.4-0.5-0.9-0.9-1.4-1.4c-0.4-0.4-0.4-0.6-0.1-1.1s0.8-1,1.1-1.5c0.4-0.5,0.7-1,0.9-1.5
				c0.1-0.4,0-0.5-0.4-0.6h-2.4c-0.2,0-0.5,0.1-0.5,0.4c-0.1,0.3-0.3,0.6-0.4,1c-0.3,0.7-0.8,1.4-1.3,2c-0.1,0.1-0.3,0.3-0.5,0.2
				s-0.3-0.5-0.3-0.7v-2.6c0-0.4-0.1-0.5-0.5-0.6h-2.3c-0.2,0-0.5,0.1-0.6,0.3c-0.1,0.1-0.1,0.2,0.1,0.2c0.4,0.1,0.6,0.3,0.6,0.7
				c0.1,0.6,0.1,1.2,0,1.8c0,0.2-0.1,0.4-0.1,0.5c0,0.2-0.2,0.3-0.4,0.2c-0.1,0-0.1,0-0.1-0.1c-0.2-0.2-0.4-0.3-0.5-0.6
				c-0.5-0.8-1-1.6-1.4-2.5c-0.1-0.2-0.3-0.4-0.6-0.4c-0.7,0-1.3,0-2,0c-0.4,0-0.5,0.2-0.4,0.6c0.7,1.6,1.6,3.1,2.6,4.6
				c0.5,0.7,1.2,1.4,2,1.8c0.9,0.5,1.9,0.7,2.9,0.6c0.5,0,0.6-0.2,0.6-0.6c0-0.3,0.1-0.7,0.2-1c0.1-0.2,0.3-0.3,0.5-0.2
				c0,0,0.1,0,0.1,0.1c0.1,0.1,0.3,0.2,0.4,0.3c0.3,0.3,0.5,0.6,0.8,0.9c0.3,0.4,0.8,0.6,1.3,0.5h2c0.3,0,0.5-0.4,0.3-0.8
				C214.7,36,214.6,35.8,214.4,35.6z"/>
			<ellipse transform="matrix(0.7716 -0.6361 0.6361 0.7716 7.1148 116.4762)" class="st2" cx="165.8" cy="48.3" rx="15" ry="15"/>
			<path class="st2" d="M168.8,40.6l-5.8-0.1c-2.7-0.1-4.9,2-5,4.7c0,0,0,0,0,0.1l-0.1,5.8c0,2.7,2.1,4.9,4.8,4.9l5.8,0.1
				c2.7,0,4.9-2.1,4.9-4.8l0.1-5.8C173.6,42.9,171.5,40.7,168.8,40.6z M172.1,51.3c0,1.9-1.6,3.4-3.5,3.3l-5.8-0.1
				c-1.9,0-3.4-1.6-3.4-3.5l0.1-5.8c0.1-1.9,1.6-3.3,3.5-3.3l5.8,0.1c1.9,0,3.4,1.6,3.4,3.5L172.1,51.3z"/>
			<path class="st2" d="M165.8,44.4c-2.1,0-3.9,1.7-3.9,3.8c0,2.1,1.7,3.9,3.8,3.9c2.1,0,3.9-1.7,3.9-3.8
				C169.7,46.3,168,44.5,165.8,44.4C165.9,44.4,165.8,44.4,165.8,44.4z M165.7,50.8c-1.3,0-2.4-1.1-2.4-2.5c0-1.3,1.1-2.4,2.5-2.4
				c1.3,0,2.4,1.1,2.4,2.5C168.2,49.7,167.1,50.8,165.7,50.8z"/>
			
				<ellipse transform="matrix(1.535825e-02 -0.9999 0.9999 1.535825e-02 123.1912 213.516)" class="st2" cx="170" cy="44.2" rx="0.5" ry="0.5"/>
			
				<ellipse transform="matrix(0.9545 -0.2982 0.2982 0.9545 -41.3123 53.9453)" class="st2" cx="156.1" cy="162.4" rx="12.2" ry="12.2"/>
			<path class="st2" d="M156.9,160.3v-1.6c0-0.5,0.4-0.8,0.8-0.8h0h0.8v-2.1h-1.6c-1.4,0-2.5,1.1-2.5,2.5v0v2.1h-1.6v2.1h1.6v6.6
				h2.5v-6.6h1.6l0.8-2.1H156.9z"/>
			
				<ellipse transform="matrix(4.431686e-02 -0.999 0.999 4.431686e-02 139.9091 293.0154)" class="st2" cx="223.1" cy="73.4" rx="13.2" ry="13.2"/>
			<path class="st2" d="M222.7,76.7c-1.2,0-2.3-0.4-3.3-1c-0.1-0.1-0.2-0.2-0.4-0.3c-0.4-0.4-0.3-1.1,0.1-1.4
				c0.2-0.2,0.6-0.3,0.9-0.2c0.1,0,0.2,0.1,0.3,0.2c1.8,1.1,4.1,1,5.8-0.2c0.2-0.1,0.3-0.3,0.6-0.3c0.4-0.1,0.8,0,1,0.4
				c0.3,0.3,0.3,0.8,0,1.1c-0.5,0.5-1,0.9-1.6,1.2c-0.6,0.2-1.2,0.4-1.9,0.5l0.2,0.2l2.8,2.6c0.3,0.2,0.4,0.6,0.2,1
				c-0.2,0.4-0.6,0.7-1,0.7c-0.2,0-0.5-0.1-0.6-0.3c-0.7-0.7-1.4-1.3-2.1-1.9c-0.2-0.2-0.3-0.2-0.4,0c-0.6,0.7-1.3,1.4-2,2.2
				c-0.2,0.3-0.7,0.4-1,0.2c-0.4-0.2-0.6-0.5-0.6-0.9c0-0.2,0.1-0.5,0.3-0.7l2.5-2.8L222.7,76.7z"/>
			<path class="st2" d="M223.3,73.6c-2.2,0.1-4-1.6-4-3.8c-0.1-2.2,1.6-4,3.8-4s4,1.6,4,3.8c0,0,0,0,0,0
				C227.1,71.7,225.4,73.5,223.3,73.6z M225.1,69.6c0-1.1-0.9-1.9-2-1.8c-1.1,0-1.9,0.9-1.8,2c0,1.1,0.9,1.9,2,1.8c0,0,0,0,0,0
				C224.3,71.5,225.1,70.6,225.1,69.6L225.1,69.6z"/>
		</g>
	</g>
</g>
</svg>
