<svg xmlns="http://www.w3.org/2000/svg" xmlns:xlink="http://www.w3.org/1999/xlink" viewBox="0 0 317.39 255.7"><defs><style>.cls-1,.cls-21,.cls-22{fill:none;}.cls-2{isolation:isolate;}.cls-3,.cls-4{opacity:0.15;}.cls-3{fill:url(#Gradient_bez_nazwy_5);}.cls-4{fill:url(#Gradient_bez_nazwy_5-2);}.cls-5{fill:url(#Gradient_bez_nazwy_4);}.cls-6{fill:url(#Gradient_bez_nazwy_2);}.cls-7{fill:url(#Gradient_bez_nazwy_2-2);}.cls-8{fill:#ea8f68;}.cls-9{fill:url(#Gradient_bez_nazwy_2-3);}.cls-10{fill:url(#Gradient_bez_nazwy_10);}.cls-11{fill:url(#Gradient_bez_nazwy_5-3);}.cls-12{fill:url(#Gradient_bez_nazwy_5-4);}.cls-13{fill:url(#Gradient_bez_nazwy_5-5);}.cls-14{fill:url(#Gradient_bez_nazwy_5-6);}.cls-15{fill:#ffaf84;}.cls-16{fill:url(#Gradient_bez_nazwy_4-2);}.cls-17{fill:url(#Gradient_bez_nazwy_4-3);}.cls-18{fill:url(#Gradient_bez_nazwy_4-4);}.cls-19{fill:url(#Gradient_bez_nazwy_4-5);}.cls-20{opacity:0.7;}.cls-21,.cls-22{stroke:#0037ff;stroke-miterlimit:10;}.cls-22,.cls-25,.cls-38,.cls-40{opacity:0.3;}.cls-23{fill:url(#Gradient_bez_nazwy_2-4);}.cls-24{fill:url(#Gradient_bez_nazwy_2-5);}.cls-25,.cls-38,.cls-40{mix-blend-mode:multiply;}.cls-25{fill:url(#Gradient_bez_nazwy_3);}.cls-26{fill:url(#Gradient_bez_nazwy_5-7);}.cls-27{fill:url(#Gradient_bez_nazwy_5-8);}.cls-28{fill:#f70f47;}.cls-29{fill:#ed9169;}.cls-30{fill:url(#Gradient_bez_nazwy_5-9);}.cls-31{fill:url(#Gradient_bez_nazwy_2-6);}.cls-32{fill:url(#Gradient_bez_nazwy_2-7);}.cls-33{fill:url(#Gradient_bez_nazwy_2-8);}.cls-34{fill:url(#Gradient_bez_nazwy_2-9);}.cls-35{fill:url(#Gradient_bez_nazwy_2-10);}.cls-36{fill:url(#Gradient_bez_nazwy_5-10);}.cls-37{fill:url(#Gradient_bez_nazwy_5-11);}.cls-38{fill:url(#Gradient_bez_nazwy_3-2);}.cls-39{clip-path:url(#clip-path);}.cls-40{fill:url(#Gradient_bez_nazwy_3-3);}</style><linearGradient id="Gradient_bez_nazwy_5" x1="84.74" y1="127.85" x2="308.12" y2="127.85" gradientUnits="userSpaceOnUse"><stop offset="0" stop-color="#36078b"/><stop offset="1" stop-color="#16b1ff"/></linearGradient><linearGradient id="Gradient_bez_nazwy_5-2" x1="0" y1="127.85" x2="255.7" y2="127.85" xlink:href="#Gradient_bez_nazwy_5"/><linearGradient id="Gradient_bez_nazwy_4" x1="6803.18" y1="101.83" x2="6759.11" y2="70.05" gradientTransform="matrix(-1, 0, 0, 1, 7037.06, 0)" gradientUnits="userSpaceOnUse"><stop offset="0" stop-color="#2c27ce"/><stop offset="0.65" stop-color="#ef1d68"/><stop offset="1" stop-color="#efba92"/></linearGradient><linearGradient id="Gradient_bez_nazwy_2" x1="3070.48" y1="6320.66" x2="3056.87" y2="6354.6" gradientTransform="matrix(-0.61, -0.79, -0.79, 0.61, 7131.71, -1360.8)" gradientUnits="userSpaceOnUse"><stop offset="0" stop-color="#f70f47"/><stop offset="1" stop-color="#9e005d"/></linearGradient><linearGradient id="Gradient_bez_nazwy_2-2" x1="5257.8" y1="4260.5" x2="5242.55" y2="4298.51" gradientTransform="matrix(-0.85, -0.52, -0.52, 0.85, 6945.98, -828.73)" xlink:href="#Gradient_bez_nazwy_2"/><linearGradient id="Gradient_bez_nazwy_2-3" x1="6778.73" y1="98.06" x2="6783.76" y2="141.28" gradientTransform="matrix(-1, 0, 0, 1, 7037.06, 0)" xlink:href="#Gradient_bez_nazwy_2"/><linearGradient id="Gradient_bez_nazwy_10" x1="6787.68" y1="128.1" x2="6767.74" y2="186.13" gradientTransform="matrix(-1, 0, 0, 1, 7037.06, 0)" gradientUnits="userSpaceOnUse"><stop offset="0" stop-color="#36078b"/><stop offset="1" stop-color="#168d68"/></linearGradient><linearGradient id="Gradient_bez_nazwy_5-3" x1="6796.37" y1="-1151.25" x2="6775.99" y2="-1091.93" gradientTransform="matrix(-0.99, 0.15, 0.15, 0.99, 7129.19, 221.78)" xlink:href="#Gradient_bez_nazwy_5"/><linearGradient id="Gradient_bez_nazwy_5-4" x1="6784.47" y1="126.99" x2="6764.53" y2="185.03" gradientTransform="matrix(-1, 0, 0, 1, 7037.06, 0)" xlink:href="#Gradient_bez_nazwy_5"/><linearGradient id="Gradient_bez_nazwy_5-5" x1="6812.87" y1="136.75" x2="6792.93" y2="194.78" gradientTransform="matrix(-1, 0, 0, 1, 7037.06, 0)" xlink:href="#Gradient_bez_nazwy_5"/><linearGradient id="Gradient_bez_nazwy_5-6" x1="6799.68" y1="132.22" x2="6779.74" y2="190.25" gradientTransform="matrix(-1, 0, 0, 1, 7037.06, 0)" xlink:href="#Gradient_bez_nazwy_5"/><linearGradient id="Gradient_bez_nazwy_4-2" x1="6793.85" y1="245.77" x2="6796.11" y2="218" xlink:href="#Gradient_bez_nazwy_4"/><linearGradient id="Gradient_bez_nazwy_4-3" x1="6761.99" y1="250.92" x2="6764.84" y2="215.92" xlink:href="#Gradient_bez_nazwy_4"/><linearGradient id="Gradient_bez_nazwy_4-4" x1="6797.88" y1="95.77" x2="6772.88" y2="67.24" xlink:href="#Gradient_bez_nazwy_4"/><linearGradient id="Gradient_bez_nazwy_4-5" x1="6803.03" y1="91.26" x2="6778.03" y2="62.73" xlink:href="#Gradient_bez_nazwy_4"/><linearGradient id="Gradient_bez_nazwy_2-4" x1="9581.42" y1="-1976.43" x2="9565.04" y2="-1935.6" gradientTransform="matrix(-0.71, 0.18, 0.26, 0.97, 7616.78, 243.39)" xlink:href="#Gradient_bez_nazwy_2"/><linearGradient id="Gradient_bez_nazwy_2-5" x1="5635.27" y1="-4815.88" x2="5623.34" y2="-4786.14" gradientTransform="matrix(-0.81, 0.58, 0.58, 0.81, 7637.04, 747.19)" xlink:href="#Gradient_bez_nazwy_2"/><linearGradient id="Gradient_bez_nazwy_3" x1="98.35" y1="226.92" x2="106.31" y2="226.92" gradientUnits="userSpaceOnUse"><stop offset="0" stop-color="blue"/><stop offset="1" stop-color="#9e005d"/></linearGradient><linearGradient id="Gradient_bez_nazwy_5-7" x1="158.9" y1="90.95" x2="130.65" y2="98.74" xlink:href="#Gradient_bez_nazwy_5"/><linearGradient id="Gradient_bez_nazwy_5-8" x1="158.91" y1="91" x2="130.66" y2="98.79" xlink:href="#Gradient_bez_nazwy_5"/><linearGradient id="Gradient_bez_nazwy_5-9" x1="115.58" y1="100.03" x2="120.48" y2="142.12" xlink:href="#Gradient_bez_nazwy_5"/><linearGradient id="Gradient_bez_nazwy_2-6" x1="105.41" y1="145" x2="132.78" y2="145" gradientTransform="matrix(1, 0, 0, 1, 0, 0)" xlink:href="#Gradient_bez_nazwy_2"/><linearGradient id="Gradient_bez_nazwy_2-7" x1="98.94" y1="201.72" x2="111.77" y2="201.72" gradientTransform="matrix(1, 0, 0, 1, 0, 0)" xlink:href="#Gradient_bez_nazwy_2"/><linearGradient id="Gradient_bez_nazwy_2-8" x1="102.22" y1="164.09" x2="119.22" y2="164.09" gradientTransform="matrix(1, 0, 0, 1, 0, 0)" xlink:href="#Gradient_bez_nazwy_2"/><linearGradient id="Gradient_bez_nazwy_2-9" x1="124.15" y1="203.79" x2="134.19" y2="203.79" gradientTransform="matrix(1, 0, 0, 1, 0, 0)" xlink:href="#Gradient_bez_nazwy_2"/><linearGradient id="Gradient_bez_nazwy_2-10" x1="118.47" y1="163.93" x2="134.18" y2="163.93" gradientTransform="matrix(1, 0, 0, 1, 0, 0)" xlink:href="#Gradient_bez_nazwy_2"/><linearGradient id="Gradient_bez_nazwy_5-10" x1="97.61" y1="102.12" x2="102.51" y2="144.21" xlink:href="#Gradient_bez_nazwy_5"/><linearGradient id="Gradient_bez_nazwy_5-11" x1="100.74" y1="101.75" x2="105.64" y2="143.84" xlink:href="#Gradient_bez_nazwy_5"/><linearGradient id="Gradient_bez_nazwy_3-2" x1="127.41" y1="228.01" x2="140.54" y2="228.01" xlink:href="#Gradient_bez_nazwy_3"/><clipPath id="clip-path"><path class="cls-1" d="M157.44,75.08c-1.11-1.12-3.39,3.08-4.88,6.28-.25-1.12-.63-2.08-1.31-2s-.34,3.81-.28,4.43a4.56,4.56,0,0,0,.17,1s0,.08,0,.12c-2.08,2.48-10.1,9.4-11.78,12.17-3-.87-8.45-2.88-15.23-4.95a2.86,2.86,0,0,0-1-.05,20.93,20.93,0,0,0-5-.89c0-.44,0-.86,0-1.26,1.95-.27,3.38-2.35,3.84-4A25.49,25.49,0,0,0,122.6,81a4.87,4.87,0,0,0,.32-.83c.35-1.21.9-4.91-.23-6.38,2.14-1.27,1.79-5.74-1.71-6.07-2.09,0-.58.5-2.27,1.18-.85.34-10.15.67-8.67,3.21-.71.11-1.28.7-1.66,2.11-.53,2-.75,3.21-.46,4.22a.82.82,0,0,0-.34.06c-.77.31-.9,1.75-.31,3.21a3.38,3.38,0,0,0,1.91,2.1A5.46,5.46,0,0,0,111,87.27c-.1,1.22-.21,2.67-.27,4.08-.89.12-1.79.28-2.62.44a11.84,11.84,0,0,0-2.15.61,4.06,4.06,0,0,0-1.56.81A6.58,6.58,0,0,0,102,95.92c-1,1.2-2.18,2.88-3.83,5.44-4.85,7.51-6,11-6.25,12.63a1,1,0,0,0,0,.37,1.63,1.63,0,0,0,.14.62c1.86,4.19,2.7,5.72,7.59,10.84a45.26,45.26,0,0,0,4.71,4.69,1.48,1.48,0,0,0,1.21,1.57,1.42,1.42,0,0,0,.88,0,50.62,50.62,0,0,1-.14,5.09,40.9,40.9,0,0,0-.9,9c-.43,3.74-2.33,30.68-3,35.64,0,.2,0,.38-.06.57h0c-3.79,8.5-3.49,35.69-3.29,41.12,0,.28.08.43.18.5a3.72,3.72,0,0,0-.06,1,10.31,10.31,0,0,1-.71,3.58c-.63,2,1.57,2.27,5.29,2.2,3.48-.07,2.59-1.42,2-2.26s-1.4-1.1-1.56-2c-.11-.67,0-1.07-.23-2h0c.8-7.39,5.49-30.37,7.47-38.42a10,10,0,0,0,.28-2.11c2.46-8.37,6.25-22.65,7.17-28.79,1.21,6.88,4,22.41,6,29.65-2.64,10.15,2.33,30.88,2.65,42.82h0c0,.07,0,.14,0,.22-.28,2.27-.26,2.4,1.82,2.41a28.4,28.4,0,0,1,4.23.25,14.12,14.12,0,0,0,6.27-.08c2.27-.73-1.82-1.12-3.75-2A8.66,8.66,0,0,1,132.5,226a1.67,1.67,0,0,0-.32-.41c-.16-15.88,1.65-31.68,2-39.89a10.32,10.32,0,0,0,0-1.39,18.39,18.39,0,0,0,0-2.47c-.29-3.71-.93-19.56-1.34-29h0a145.12,145.12,0,0,0-.93-15.62s-.13-20.46-1.5-33.89c7.26,1.5,10.58,1.41,12.13,1.13a1.49,1.49,0,0,0,1.37-.48c2.2-2.38,4.42-5.38,7.74-11.14C153.47,89.56,154,88,154,86.46a5.84,5.84,0,0,0,4-3.88C158.46,81.18,159.25,76.9,157.44,75.08ZM99.94,113.45c.8-1.09,2-2.53,3.36-4.26a112.54,112.54,0,0,1,2.87,17.31C104.32,122.46,101.57,115.51,99.94,113.45Z"/></clipPath><linearGradient id="Gradient_bez_nazwy_3-3" x1="-3153.65" y1="1204.5" x2="-3010.77" y2="1292.28" gradientTransform="matrix(-0.4, -0.87, 0.54, -0.47, -1823.49, -1950.5)" xlink:href="#Gradient_bez_nazwy_3"/></defs><title>smm-slide3</title><g class="cls-2"><g id="Слой_2" data-name="Слой 2"><g id="Background"><circle class="cls-3" cx="196.43" cy="127.85" r="111.69"/><circle class="cls-4" cx="127.85" cy="127.85" r="127.85"/></g><g id="Objects"><path class="cls-5" d="M261.19,66.54c-1.58-2.23.23-6.16,4.73-6.54,5.13-.42,14.24,2.54,9.35,14.49-5.08,12.44-3.5,15.63-.07,17.49,0,0-11.75.94-10.85-9.32S264.86,71.72,261.19,66.54Z"/><path class="cls-6" d="M236.93,100.06c2.1-.91,7.72-4.67,15.34-9.4a10.35,10.35,0,0,1,7.3-.58c1.55.52,2.38,2.94-.06,4.64a66.08,66.08,0,0,1-8.19,5c-8.1,4.33-11.92,5.43-13.68,5.72C235.54,105.77,233.85,101.39,236.93,100.06Z"/><path class="cls-7" d="M226.84,88.45c1,1.53,10.88,10.58,12.6,13.09,2,3-1.8,5.15-3.9,3.07A37.52,37.52,0,0,1,228.06,95c-2.17-3.62-3.74-3.86-3.62-5.18C224.53,88.71,226.15,87.44,226.84,88.45Z"/><path class="cls-8" d="M262.94,81.46c0,.25.43,5.69.5,9.87,0,2-1.44,4-2.91,4h-.06c-1.44,0-3.14-1.82-3-3.82.23-3.63.06-7.35.05-7.41Z"/><path class="cls-9" d="M267.16,105a71.06,71.06,0,0,0-2.61,11.42,29,29,0,0,0,0,8.6c.23,1.72.57,3.42,1,5.1.15.64,1.4,5.79,1.46,6.35H243.47c.23-4.61,5.48-19.1,1.92-28.48-2.46-6.5.81-6.7,3-12.11a15.89,15.89,0,0,1,1.88-3.92,6.76,6.76,0,0,1,3.6-2.21,13.41,13.41,0,0,1,2.19-.31c4-.32,13.36-1.48,14.24,4.19a10,10,0,0,1-.47,4.58c-.53,1.65-1.31,3.21-2,4.82Q267.5,104,267.16,105Z"/><path class="cls-10" d="M266.92,151.39s2-5.13.1-14.95H243.47a144,144,0,0,0-.86,14.95Z"/><path class="cls-11" d="M262.73,184.41c-3.09-7.57,4.43-10.16,7.76-4.85,4.71,7.5,6.75,35.23,7.37,40.39.08.68-.29.6-.69.53-1.16-.23-.67-1.31-2.33-1.21-.88.05-1.13,1.26-1.13,1.26C271.89,213.64,265.73,191.74,262.73,184.41Z"/><path class="cls-12" d="M255.23,152.46c-.83-9.88,2.94-17.55,8.85-14.29,2.49,1.37,3.4,4.12,3.73,6.71s2.16,29.47,2.8,34.33c1.45,10.95-6.89,8-7.79,5C260.54,176.5,255.68,157.84,255.23,152.46Z"/><path class="cls-13" d="M241.32,182.85c-.31-7.42,6.65-7.26,8.39-1.22,2.75,9.49-2,29.87-2.3,41.52-1.21-2-2.36-2.5-2.9-2.46a1.93,1.93,0,0,0-1.35.76C243.34,206.11,241.65,190.77,241.32,182.85Z"/><path class="cls-14" d="M249.44,183.65c-.92,3-8.89,6.53-8.06-4.49.37-4.89,1.35-31.88,1.54-34.48s.62-6.4,1.88-6.88c6.29-2.37,12.38,5.39,10.73,15.16C254.43,159.49,251.35,177.37,249.44,183.65Z"/><path class="cls-15" d="M265.77,77.52c-.46,4.64-.6,5.67-2.63,7.57A11,11,0,0,1,256,87.87c-2.38,0-4.14-2.51-4.68-4.48a33.77,33.77,0,0,1-.54-11.89c.34-2.58,3.52-5.7,6.8-5.7S266.91,66.18,265.77,77.52Z"/><path class="cls-16" d="M242.87,221.4a8,8,0,0,1-3.33,2.53c-1.78.8-5.56,1.17-3.46,1.87a12.55,12.55,0,0,0,5.78.08,25.09,25.09,0,0,1,3.9-.24c1.93,0,1.94-.13,1.68-2.3C247.09,220.35,243.74,219.71,242.87,221.4Z"/><path class="cls-17" d="M273.76,220.08c-.27.52-.55,3.05-2.33,3.85s-5.56,1.17-3.46,1.87a12.55,12.55,0,0,0,5.78.08c1.24-.2,1.44-1.55,2.9-1.56,1.93,0,1.94-.13,1.68-2.3C278,219,274.63,218.39,273.76,220.08Z"/><path class="cls-18" d="M251.58,69.07c-1.82,3.11,11.4,8.8,14.34,8.31s2.91-6.72.64-9.57S255.87,61.74,251.58,69.07Z"/><path class="cls-19" d="M256.48,68.29c-.48,2.63-5.08,3.23-5.87,5.41-.49,1.35-.71-2.91.37-4.84S257.44,63,256.48,68.29Z"/><ellipse class="cls-15" cx="265.91" cy="78.21" rx="3.14" ry="1.65" transform="translate(92.98 294.82) rotate(-67.79)"/><g class="cls-20"><path class="cls-21" d="M221.56,138.65l-11.75-8.43L204,126a3,3,0,0,1-.69-4.13l29.61-41.28a3,3,0,0,1,4.13-.67l5.86,4.2,72.79,52.21a3,3,0,0,1,.68,4.12l-29.61,41.28a3,3,0,0,1-4.12.68l-48.88-35.06a1.23,1.23,0,0,1-1.42,0L222,140A1.23,1.23,0,0,1,221.56,138.65Z"/><path class="cls-21" d="M299.46,159.63h0a2.78,2.78,0,0,0-.64-3.88h0a2.78,2.78,0,0,0-3.88.64h0a2.78,2.78,0,0,0,.64,3.88h0A2.78,2.78,0,0,0,299.46,159.63Z"/><path class="cls-21" d="M229,96.48h0a1.13,1.13,0,0,0-.26-1.58h0a1.13,1.13,0,0,0-1.58.26h0a1.13,1.13,0,0,0,.26,1.58h0A1.13,1.13,0,0,0,229,96.48Z"/><path class="cls-21" d="M219.15,109l6.55-9.13a.42.42,0,0,0-.68-.48l-6.55,9.13a.42.42,0,0,0,.68.49Z"/><rect class="cls-21" x="232.15" y="90.18" width="54.6" height="81.47" transform="translate(1.85 265.44) rotate(-54.35)"/><polygon class="cls-22" points="220.05 115.96 273.22 107.2 256.57 95.26 231.99 99.31 220.05 115.96"/><polygon class="cls-22" points="211.73 127.55 284.8 115.51 276.48 109.54 217.7 119.23 211.73 127.55"/></g><path class="cls-15" d="M265.24,120a8.52,8.52,0,0,0-4,.64c-.88.52,1.31.59,2.37.7S266.42,120,265.24,120Z"/><path class="cls-15" d="M264,120.84c-2.58,1.33-4.17,1.62-4.94,2.8s1.86,1.54,2.82,1.21,4.51-1.29,4.93-2.43S265.9,119.86,264,120.84Z"/><path class="cls-23" d="M279,112.06c-1.34-1.86-6.22-6.54-12.46-13a10.36,10.36,0,0,1-2.13-7c.18-1.63,2.36-2.95,4.55-.93a66,66,0,0,1,6.61,6.93c6,7,7.85,10.48,8.52,12.14C284.85,112.19,280.93,114.77,279,112.06Z"/><path class="cls-24" d="M265,119.82c1.73-.84,12.53-9.57,15.38-11,3.37-1.64,5,2.63,2.56,4.48a39,39,0,0,1-11.06,6.22c-4.05,1.68-4.54,3.25-5.87,2.94C264.87,122.24,263.81,120.37,265,119.82Z"/><path class="cls-15" d="M227,90.26a10.15,10.15,0,0,0,1.82-2.65c.27-.62.05-1.45-.73-1.39a5,5,0,0,0-3,2,3.5,3.5,0,0,0,0,2.58C225.38,91.49,226.13,91.24,227,90.26Z"/><path class="cls-25" d="M103.9,224.29a13.48,13.48,0,0,1,.32,2.32c.15.93,1,1.27,1.56,2s1.46,2.19-2,2.26c-3.72.07-5.93-.18-5.29-2.2a10.31,10.31,0,0,0,.71-3.58,2.19,2.19,0,0,1,.42-1.75C100,223,103.36,222.27,103.9,224.29Z"/><path class="cls-26" d="M154,85.06c.16,2.09,0,3.5-2.42,7.76-3.32,5.75-5.54,8.76-7.74,11.14-2,2.2-6.59-3.32-4.55-6.81,1.73-2.95,11.2-11,12.24-12.79C152.23,83.16,153.88,83.36,154,85.06Z"/><path class="cls-27" d="M142.62,104.41c-1.6.32-5.28.47-14-1.48a57.19,57.19,0,0,1-9.09-2.66c-2.81-1-3.23-4.12-2.18-5.29,1.69-1.89,5.27-3.31,6.77-2.85,8.5,2.59,14.88,5.11,17.05,5.37C144.33,97.88,144.52,104,142.62,104.41Z"/><path class="cls-28" d="M120.18,81.37c1.52.71,2.18.72,2.73-1.17.43-1.47,1.15-6.63-1.21-7s-4.2-.41-3.93,2.77S118.38,80.52,120.18,81.37Z"/><path class="cls-29" d="M111.28,84.14c0,.23-.55,5.18-.64,9a3.92,3.92,0,0,0,3.68,3.67h.08c1.82,0,4-1.65,3.81-3.48a49.1,49.1,0,0,1-.06-6.74Z"/><path class="cls-30" d="M102.07,104.74c3.39,11.14,4.91,24.67,4.25,32.45h25.53s-.15-23.91-1.86-37a9.8,9.8,0,0,0-5.39-7.51,18.33,18.33,0,0,0-6.81-1.51h-4.72a28.53,28.53,0,0,0-5,.62C101.33,93.06,100.1,98.28,102.07,104.74Z"/><path class="cls-31" d="M106.42,152.81s-2.21-5.36-.1-15.62h25.53a145.12,145.12,0,0,1,.93,15.62Z"/><path class="cls-32" d="M111.46,186.23c2-8.31-6.45-9.77-9.13-3.76-3.79,8.5-3.49,35.69-3.29,41.12,0,.71.41.58.82.43a6.34,6.34,0,0,1,2.7-.49,2.33,2.33,0,0,1,1.42,1.12C104.79,217.26,109.48,194.28,111.46,186.23Z"/><path class="cls-33" d="M119.09,153.93c.9-10.33-3.19-18.34-9.6-14.94-2.7,1.43-3.68,4.31-4,7s-2.35,30.8-3,35.88c-1.57,11.45,7.47,8.36,8.45,5.19C113.33,179.06,118.6,159.56,119.09,153.93Z"/><path class="cls-34" d="M134.18,185.69c.34-7.75-7.21-7.58-9.11-1.28-3,9.92,2.18,31.22,2.5,43.39,1.31-2.1,2.56-2.61,3.14-2.57a2.1,2.1,0,0,1,1.47.79C132,210,133.82,194,134.18,185.69Z"/><path class="cls-35" d="M125.38,186.53c1,3.16,9.64,6.83,8.74-4.69-.4-5.11-1.47-33.32-1.67-36s-.68-6.69-2-7.19c-6.82-2.48-13.43,5.63-11.64,15.84C120,161.28,123.3,180,125.38,186.53Z"/><path class="cls-36" d="M106.11,131.38c-2-.57-3.06-2-6.45-5.57-4.89-5.12-5.72-6.65-7.59-10.84-1.22-2.74,5.26-4.72,7.82-1.59,2.17,2.64,6.42,14.32,7.74,15.92C108.51,130.36,107.74,131.84,106.11,131.38Z"/><path class="cls-37" d="M91.91,114c.26-1.61,1.4-5.12,6.25-12.63a57.19,57.19,0,0,1,5.65-7.6c2-2.27,5-1.6,5.72-.21,1.19,2.24,1.28,6.09.33,7.34-5.38,7.07-10,12.19-11,14.13C97.45,117.85,91.61,115.89,91.91,114Z"/><path class="cls-15" d="M108.78,80.55c.42,4.22.55,5.16,2.39,6.89A10,10,0,0,0,117.66,90c2.16,0,3.77-2.28,4.25-4.07a30.74,30.74,0,0,0,.49-10.82,6.83,6.83,0,0,0-6.19-5.19C113.23,69.89,107.75,70.23,108.78,80.55Z"/><path class="cls-15" d="M105.34,128.72c1-1.07,2.51-2.74,3.26-3.7s3,.69,3,1.51c.07,1.22-1.16,4.56-2.73,4.56s-2,1.43-3.35,1S103.74,130.47,105.34,128.72Z"/><path class="cls-38" d="M132.5,226a8.66,8.66,0,0,0,3.62,2.64c1.93.83,6,1.22,3.75,2a14.12,14.12,0,0,1-6.27.08,28.4,28.4,0,0,0-4.23-.25c-2.09,0-2.1-.14-1.82-2.41C127.93,224.88,131.56,224.22,132.5,226Z"/><path class="cls-28" d="M108.79,79.9c1.14,1.14,1.74,1.36,2.85-.17.86-1.19,3.2-5.62,1.19-6.7s-3.67-1.75-4.46,1.22S107.43,78.54,108.79,79.9Z"/><ellipse class="cls-15" cx="108.65" cy="81.17" rx="1.5" ry="2.86" transform="translate(-22.63 47.12) rotate(-22.22)"/><path class="cls-28" d="M110.08,72.23c1.64,2.46,9.6,2.69,12.19,1.78s2.41-5.92-1.3-6.27c-2.09,0-.58.5-2.27,1.18C117.84,69.28,108.32,69.61,110.08,72.23Z"/><path class="cls-15" d="M151.19,84.57c.46-1.28,4.61-11.14,6.25-9.49,1.81,1.82,1,6.09.58,7.5-.81,2.57-3.23,4.09-4.86,4C152,86.49,150.75,85.79,151.19,84.57Z"/><path class="cls-15" d="M151,83.83c-.06-.62-.4-4.32.28-4.43,1-.17,1.4,2.23,1.63,3.83.13.86-.28,2.11-1,2.13S151.07,84.82,151,83.83Z"/><g class="cls-39"><path class="cls-40" d="M75.57,59.13c13.32-2.23,32.24,6.68,36.07,20.6,3.91,14.22-6.78,21,2,40.71,6.93,15.57-1,32.65-2.9,46.13-2.06,14.8,5.34,22,2.9,35.15C108,232.09,108.36,241,87.48,247.48,66,254.09,61.64,224.2,47.72,200.57c-10.28-17.45-16.12-35.49-9.1-48.3,10.09-18.4,24.84.27,19.67-21.93C55.2,117,55.7,94.09,74.9,97.54S56.38,62.34,75.57,59.13Z"/></g><path class="cls-21" d="M197.26,24.72l-85.45,1.61a3.73,3.73,0,0,0-3.66,3.8l.47,25a3.73,3.73,0,0,0,3.8,3.66l8.42-.16,4.09-.08c.75.92,2.65,3.27,3.45,4.13a1.85,1.85,0,0,0,2.71-.05c.76-.88,2.58-3.3,3.29-4.25L155.14,58l42.73-.8a3.73,3.73,0,0,0,3.66-3.8l-.47-25A3.73,3.73,0,0,0,197.26,24.72Z"/><path class="cls-21" d="M128.11,43a4.11,4.11,0,0,0,1.31-3.09l0-2a4.24,4.24,0,0,0-4.07-4.22,4.12,4.12,0,0,0-4.17,4.2l0,2.2a4.11,4.11,0,0,0,1.43,3,8.71,8.71,0,0,0-5.55,6.16,1.77,1.77,0,0,0,1.78,2.15l13.35-.25a1.77,1.77,0,0,0,1.7-2.22A8.71,8.71,0,0,0,128.11,43Z"/><path class="cls-21" d="M163.19,33l-17,.32a2.52,2.52,0,0,0-2.48,2.57l.16,8.37a2.52,2.52,0,0,0,2.57,2.48l1.66,0s2.25,2.81,3.07,3.69a1.51,1.51,0,0,0,2.21,0c.78-.91,2.93-3.8,2.93-3.8l7.15-.13a2.52,2.52,0,0,0,2.48-2.57l-.16-8.37A2.52,2.52,0,0,0,163.19,33Z"/><path class="cls-21" d="M147.77,37.63a1,1,0,0,1,0-2.1l13.81-.26a1,1,0,1,1,0,2.1l-13.81.26Z"/><path class="cls-21" d="M147.84,41.26a1,1,0,0,1,0-2.1l13.81-.26a1,1,0,1,1,0,2.1l-13.81.26Z"/><path class="cls-21" d="M147.9,44.88a1,1,0,0,1,0-2.1l6.22-.12a1,1,0,1,1,0,2.1l-6.23.12Z"/><path class="cls-21" d="M194.23,46.56A7.64,7.64,0,0,0,192.64,42l0-1.8a6.17,6.17,0,0,0-5.2-6v-.53a1.08,1.08,0,1,0-2.16,0v.53a6.17,6.17,0,0,0-5,6.16l0,1.8h0a7.67,7.67,0,0,0-1.42,4.59v.78a.72.72,0,0,0,.73.71l3.05-.06a.61.61,0,0,0,.25.62,6.18,6.18,0,0,0,7.32-.14.61.61,0,0,0,.22-.63l3.06-.06a.72.72,0,0,0,.71-.73Z"/><circle class="cls-21" cx="177.84" cy="47.49" r="3.25" transform="translate(-0.86 3.35) rotate(-1.08)"/><path class="cls-21" d="M256.52,31.92l-32.85-.16a4.87,4.87,0,0,0-4.89,4.85L218.68,58a4.87,4.87,0,0,0,4.85,4.89l3.21,0s4.22,5.52,5.76,7.26a2.91,2.91,0,0,0,4.27,0c1.55-1.72,5.82-7.2,5.82-7.2l13.79.07a4.87,4.87,0,0,0,4.89-4.85l.1-21.39A4.87,4.87,0,0,0,256.52,31.92Z"/><path class="cls-21" d="M253.37,42l-26.63-.13a1.57,1.57,0,0,1,0-3.15l26.63.13a1.57,1.57,0,0,1,0,3.15Z"/><path class="cls-21" d="M253.33,49.53,226.7,49.4a1.57,1.57,0,0,1,0-3.15l26.63.13a1.57,1.57,0,0,1,0,3.15Z"/><path class="cls-21" d="M238.67,57l-12-.06a1.57,1.57,0,0,1,0-3.15l12,.06a1.57,1.57,0,0,1,0,3.15Z"/></g></g></g></svg>