<svg xmlns="http://www.w3.org/2000/svg" xmlns:xlink="http://www.w3.org/1999/xlink" viewBox="0 0 168.81 165.69"><defs><style>.cls-1{isolation:isolate;}.cls-2{fill:url(#Gradient_bez_nazwy_10);}.cls-3{fill:url(#Gradient_bez_nazwy_10-2);}.cls-4{fill:url(#Gradient_bez_nazwy_5);}.cls-5{fill:#ea8f68;}.cls-6{fill:url(#Gradient_bez_nazwy_5-2);}.cls-7{fill:url(#Gradient_bez_nazwy_14);}.cls-8{fill:url(#Gradient_bez_nazwy_14-2);}.cls-9{fill:url(#Gradient_bez_nazwy_14-3);}.cls-10{fill:url(#Gradient_bez_nazwy_14-4);}.cls-11{fill:#ffaf84;}.cls-12{fill:url(#Gradient_bez_nazwy_14-5);}.cls-13,.cls-14,.cls-17,.cls-34{opacity:0.3;}.cls-13,.cls-14,.cls-17{mix-blend-mode:multiply;}.cls-13{fill:url(#Gradient_bez_nazwy_3);}.cls-14{fill:url(#Gradient_bez_nazwy_3-2);}.cls-15{fill:url(#Gradient_bez_nazwy_10-3);}.cls-16{fill:url(#Gradient_bez_nazwy_5-3);}.cls-17{fill:url(#Gradient_bez_nazwy_3-3);}.cls-18{fill:url(#Gradient_bez_nazwy_5-4);}.cls-19{fill:url(#Gradient_bez_nazwy_4);}.cls-20{fill:url(#Gradient_bez_nazwy_2);}.cls-21{fill:url(#Gradient_bez_nazwy_2-2);}.cls-22{fill:url(#Gradient_bez_nazwy_2-3);}.cls-23{fill:url(#Gradient_bez_nazwy_10-4);}.cls-24{fill:url(#Gradient_bez_nazwy_5-5);}.cls-25{fill:url(#Gradient_bez_nazwy_5-6);}.cls-26{fill:url(#Gradient_bez_nazwy_5-7);}.cls-27{fill:url(#Gradient_bez_nazwy_5-8);}.cls-28{fill:url(#Gradient_bez_nazwy_4-2);}.cls-29{fill:url(#Gradient_bez_nazwy_4-3);}.cls-30{fill:url(#Gradient_bez_nazwy_4-4);}.cls-31{fill:url(#Gradient_bez_nazwy_4-5);}.cls-32{opacity:0.7;}.cls-33,.cls-34,.cls-37{fill:none;stroke:#0037ff;stroke-miterlimit:10;}.cls-35{fill:url(#Gradient_bez_nazwy_2-4);}.cls-36{fill:url(#Gradient_bez_nazwy_2-5);}.cls-37{fill-rule:evenodd;}</style><linearGradient id="Gradient_bez_nazwy_10" x1="165.13" y1="170.4" x2="166.13" y2="144.29" gradientUnits="userSpaceOnUse"><stop offset="0" stop-color="#36078b"/><stop offset="1" stop-color="#168d68"/></linearGradient><linearGradient id="Gradient_bez_nazwy_10-2" x1="143.37" y1="55.33" x2="127.64" y2="64.72" xlink:href="#Gradient_bez_nazwy_10"/><linearGradient id="Gradient_bez_nazwy_5" x1="152.12" y1="36.29" x2="143.55" y2="22.87" gradientUnits="userSpaceOnUse"><stop offset="0" stop-color="#36078b"/><stop offset="1" stop-color="#16b1ff"/></linearGradient><linearGradient id="Gradient_bez_nazwy_5-2" x1="139.76" y1="64.39" x2="166.32" y2="64.39" xlink:href="#Gradient_bez_nazwy_5"/><linearGradient id="Gradient_bez_nazwy_14" x1="157.45" y1="157.74" x2="147.5" y2="49.29" gradientUnits="userSpaceOnUse"><stop offset="0" stop-color="#f70f47"/><stop offset="1" stop-color="#ffb41d"/></linearGradient><linearGradient id="Gradient_bez_nazwy_14-2" x1="164.85" y1="157.06" x2="154.9" y2="48.61" xlink:href="#Gradient_bez_nazwy_14"/><linearGradient id="Gradient_bez_nazwy_14-3" x1="162.74" y1="157.25" x2="152.79" y2="48.82" xlink:href="#Gradient_bez_nazwy_14"/><linearGradient id="Gradient_bez_nazwy_14-4" x1="151.24" y1="158.31" x2="141.29" y2="49.86" xlink:href="#Gradient_bez_nazwy_14"/><linearGradient id="Gradient_bez_nazwy_14-5" x1="151.6" y1="158.29" x2="141.65" y2="49.79" xlink:href="#Gradient_bez_nazwy_14"/><linearGradient id="Gradient_bez_nazwy_3" x1="141.5" y1="64.77" x2="160.24" y2="64.77" gradientUnits="userSpaceOnUse"><stop offset="0" stop-color="blue"/><stop offset="1" stop-color="#9e005d"/></linearGradient><linearGradient id="Gradient_bez_nazwy_3-2" x1="135.1" y1="55.4" x2="151.34" y2="55.4" xlink:href="#Gradient_bez_nazwy_3"/><linearGradient id="Gradient_bez_nazwy_10-3" x1="149.91" y1="169.82" x2="150.9" y2="143.7" xlink:href="#Gradient_bez_nazwy_10"/><linearGradient id="Gradient_bez_nazwy_5-3" x1="158.77" y1="32.04" x2="150.19" y2="18.62" xlink:href="#Gradient_bez_nazwy_5"/><linearGradient id="Gradient_bez_nazwy_3-3" x1="154.53" y1="58.69" x2="166.59" y2="58.69" xlink:href="#Gradient_bez_nazwy_3"/><linearGradient id="Gradient_bez_nazwy_5-4" x1="156.26" y1="33.64" x2="147.68" y2="20.22" xlink:href="#Gradient_bez_nazwy_5"/><linearGradient id="Gradient_bez_nazwy_4" x1="65.14" y1="67.68" x2="30.82" y2="42.93" gradientUnits="userSpaceOnUse"><stop offset="0" stop-color="#2c27ce"/><stop offset="0.65" stop-color="#ef1d68"/><stop offset="1" stop-color="#efba92"/></linearGradient><linearGradient id="Gradient_bez_nazwy_2" x1="1117.31" y1="4257.54" x2="1106.71" y2="4283.97" gradientTransform="matrix(0.61, -0.79, 0.79, 0.61, -4000.79, -1670.8)" gradientUnits="userSpaceOnUse"><stop offset="0" stop-color="#f70f47"/><stop offset="1" stop-color="#9e005d"/></linearGradient><linearGradient id="Gradient_bez_nazwy_2-2" x1="1187.89" y1="2470.55" x2="1176.02" y2="2500.14" gradientTransform="matrix(0.85, -0.52, 0.52, 0.85, -2240.02, -1450.15)" xlink:href="#Gradient_bez_nazwy_2"/><linearGradient id="Gradient_bez_nazwy_2-3" x1="46.1" y1="64.74" x2="50.02" y2="98.4" gradientTransform="matrix(1, 0, 0, 1, 0, 0)" xlink:href="#Gradient_bez_nazwy_2"/><linearGradient id="Gradient_bez_nazwy_10-4" x1="53.07" y1="88.13" x2="37.54" y2="133.32" xlink:href="#Gradient_bez_nazwy_10"/><linearGradient id="Gradient_bez_nazwy_5-5" x1="-485.03" y1="-456.59" x2="-500.9" y2="-410.4" gradientTransform="matrix(0.99, 0.15, -0.15, 0.99, 471.67, 617.92)" xlink:href="#Gradient_bez_nazwy_5"/><linearGradient id="Gradient_bez_nazwy_5-6" x1="50.57" y1="87.27" x2="35.04" y2="132.46" xlink:href="#Gradient_bez_nazwy_5"/><linearGradient id="Gradient_bez_nazwy_5-7" x1="72.69" y1="94.87" x2="57.16" y2="140.06" xlink:href="#Gradient_bez_nazwy_5"/><linearGradient id="Gradient_bez_nazwy_5-8" x1="62.42" y1="91.34" x2="46.89" y2="136.53" xlink:href="#Gradient_bez_nazwy_5"/><linearGradient id="Gradient_bez_nazwy_4-2" x1="57.88" y1="179.76" x2="59.63" y2="158.14" xlink:href="#Gradient_bez_nazwy_4"/><linearGradient id="Gradient_bez_nazwy_4-3" x1="33.07" y1="183.78" x2="35.28" y2="156.52" xlink:href="#Gradient_bez_nazwy_4"/><linearGradient id="Gradient_bez_nazwy_4-4" x1="61.01" y1="62.96" x2="41.55" y2="40.74" xlink:href="#Gradient_bez_nazwy_4"/><linearGradient id="Gradient_bez_nazwy_4-5" x1="65.02" y1="59.45" x2="45.55" y2="37.23" xlink:href="#Gradient_bez_nazwy_4"/><linearGradient id="Gradient_bez_nazwy_2-4" x1="99.02" y1="-779.33" x2="86.27" y2="-747.54" gradientTransform="matrix(0.71, 0.18, -0.26, 0.97, -232.63, 791)" xlink:href="#Gradient_bez_nazwy_2"/><linearGradient id="Gradient_bez_nazwy_2-5" x1="-2513.14" y1="-1536.93" x2="-2522.43" y2="-1513.77" gradientTransform="matrix(0.81, 0.58, -0.58, 0.81, 1203.15, 2778.56)" xlink:href="#Gradient_bez_nazwy_2"/></defs><title>smm</title><g class="cls-1"><g id="Слой_2" data-name="Слой 2"><g id="Designed_by_Freepik" data-name="Designed by Freepik"><path class="cls-2" d="M164,159.88a11.71,11.71,0,0,0-.27,2c-.13.81-.9,1.1-1.35,1.76s-1.26,1.9,1.75,2c3.23.06,5.14-.15,4.59-1.91a9,9,0,0,1-.62-3.11,1.89,1.89,0,0,0-.37-1.51C167.37,158.74,164.47,158.13,164,159.88Z"/><path class="cls-3" d="M138.44,66.2c1.23-.71,3.72-2.71,8.31-9a49.59,49.59,0,0,0,4.42-6.93c1.24-2.29.07-4.3-1.6-4.7-2.14-.52-4.47-.19-6.89,3.39a129.25,129.25,0,0,0-7.24,11.85C133.59,64.22,137,67,138.44,66.2Z"/><path class="cls-4" d="M149.88,35.93c-1.32.62-1.89.62-2.37-1-.37-1.27-1-5.75,1-6.05s3.65-.36,3.41,2.4S151.45,35.2,149.88,35.93Z"/><path class="cls-5" d="M157.6,38.34c0,.2.47,4.49.55,7.78A3.4,3.4,0,0,1,155,49.3h-.07c-1.58,0-3.44-1.43-3.3-3a42.62,42.62,0,0,0,.06-5.85Z"/><path class="cls-6" d="M165.59,56.2c-2.94,9.67-4.26,21.39-3.68,28.14H139.76s.13-20.74,1.61-32.09A8.5,8.5,0,0,1,146,45.74a15.89,15.89,0,0,1,5.9-1.31H156a24.75,24.75,0,0,1,4.32.54C166.23,46.07,167.29,50.6,165.59,56.2Z"/><path class="cls-7" d="M161.82,97.89s1.91-4.65.09-13.55H139.76a78.31,78.31,0,0,0,.87,13.55Z"/><path class="cls-8" d="M157.44,126.87c-1.77-7.21,5.59-8.48,7.91-3.26,3.29,7.37,3,32,2.84,36.67,0,.62,0,.56-.35.47-.55-.14-1.05-1.31-2.49-1.26-.83,0-1.5,1-1.5,1C163.16,154.1,159.16,133.85,157.44,126.87Z"/><path class="cls-9" d="M151.47,98.85c-.78-9,2.13-15.9,7.68-12.94,2.34,1.24,3.19,3.73,3.51,6.08s2,26.71,2.64,31.11c1.36,9.93-6.48,7.25-7.33,4.5C155.82,120.66,151.89,103.73,151.47,98.85Z"/><path class="cls-10" d="M143.73,126.85c-1.4-6.58,5.08-7.52,7.6-2.4,4,8.06,2.62,27.39,4.09,37.84-1.43-1.61-2.49-1.6-3-1.48a1.53,1.53,0,0,0-1.05.75C149.25,147.82,145.23,133.88,143.73,126.85Z"/><path class="cls-11" d="M141.79,58.84c-1.18-.43-3-1.11-4-1.54s-2,1.73-1.74,2.38c.43,1,2.72,3,3.92,2.42s2.12.29,3-.58S143.72,59.55,141.79,58.84Z"/><path class="cls-12" d="M151.38,126.3c-.4,2.85-7.27,7.22-8.15-2.76-.39-4.43-2.93-28.73-3.15-31.09s-.53-5.94.3-6.51c5.19-3.56,11.09,2.8,11,11.78C151.37,103.74,152.22,120.39,151.38,126.3Z"/><path class="cls-13" d="M141.7,61.1c.82,1.62,2.22,2.27,5.82,4.56,5.18,3.3,8.06,4.58,10.64,4.64s3-5.26-.1-6.92c-2.61-1.4-13.23-3.1-14.81-4C142.19,58.85,141,59.78,141.7,61.1Z"/><path class="cls-14" d="M151.34,45.83c-.09,1.81-.51,3.26-2.8,6.86-3.07,4.83-7,11.47-9.1,13.28-2,1.67-5.84-2.14-3.7-4.92,1.8-2.35,12.47-14.66,13.56-16.09C150,44,151.41,44.36,151.34,45.83Z"/><path class="cls-11" d="M159.77,35.23c-.37,3.66-.47,4.47-2.07,6a8.64,8.64,0,0,1-5.63,2.19c-1.88,0-3.27-2-3.69-3.53a26.62,26.62,0,0,1-.42-9.38,5.92,5.92,0,0,1,5.37-4.5C155.91,26,160.67,26.28,159.77,35.23Z"/><path class="cls-15" d="M151.39,161.35a7.51,7.51,0,0,1-3.14,2.29c-1.67.72-5.23,1.06-3.25,1.69a12.26,12.26,0,0,0,5.44.07,24.49,24.49,0,0,1,3.67-.21c1.81,0,1.82-.12,1.58-2.09C155.35,160.39,152.2,159.82,151.39,161.35Z"/><path class="cls-16" d="M159.76,34.66c-1,1-1.51,1.18-2.47-.15-.75-1-2.78-4.88-1-5.81s3.18-1.51,3.87,1.06S160.94,33.48,159.76,34.66Z"/><ellipse class="cls-11" cx="159.88" cy="35.76" rx="2.48" ry="1.3" transform="translate(66.3 170.24) rotate(-67.77)"/><path class="cls-11" d="M149.35,47.13c-.51-.74-4.18-6.72-2.68-7,1.66-.27,3.64,1.78,4.22,2.56a3.61,3.61,0,0,1,.27,4.12C150.68,47.43,149.83,47.83,149.35,47.13Z"/><path class="cls-17" d="M158.86,70.24c1.28-.62,3.07-3.9,5.55-11.25A49.56,49.56,0,0,0,166.52,51c.49-2.56-1.6-4.25-2.95-4-2.16.41-4.82,2.42-5.16,3.74-1.9,7.47-2.9,13.33-3.68,15.06C153.6,68.38,157.46,70.92,158.86,70.24Z"/><path class="cls-18" d="M158.58,28.45c-1.2.82-6.7,2.32-8.32,2.72a10.66,10.66,0,0,0,2.58-1.74,22.28,22.28,0,0,1-6.19,0,8.32,8.32,0,0,0,1.62-1.21,8.14,8.14,0,0,1-2.92-.5s6-4.07,11.16-2.6C159.18,25.93,159.79,27.63,158.58,28.45Z"/><path class="cls-19" d="M43.87,40.2c1.23-1.74-.18-4.8-3.68-5.09-4-.33-11.09,2-7.28,11.29,4,9.69,2.72,12.17.05,13.62,0,0,9.15.73,8.45-7.26S41,44.23,43.87,40.2Z"/><path class="cls-20" d="M62.22,70.47c-1.37-.23-4.34-1.09-10.66-4.46a51.46,51.46,0,0,1-6.38-3.87c-1.9-1.33-1.26-3.21,0-3.61a8.06,8.06,0,0,1,5.69.45c5.93,3.68,10.3,6.61,11.94,7.32C65.16,67.34,63.85,70.75,62.22,70.47Z"/><path class="cls-21" d="M72.49,58.3c.09,1-1.13,1.21-2.82,4a29.22,29.22,0,0,1-5.82,7.51c-1.64,1.62-4.63-.07-3-2.39,1.34-2,9-9,9.81-10.19C71.15,56.47,72.42,57.46,72.49,58.3Z"/><path class="cls-5" d="M42.51,51.82c0,.2-.34,4.43-.39,7.68,0,1.59,1.12,3.11,2.27,3.14h0a2.83,2.83,0,0,0,2.35-3c-.18-2.83,0-5.73,0-5.77Z"/><path class="cls-22" d="M39.22,70.12a55.34,55.34,0,0,1,2,8.9,22.54,22.54,0,0,1,0,6.7c-.18,1.34-.44,2.66-.75,4-.12.5-1.09,4.51-1.14,4.94H57.67c-.18-3.59-4.27-14.87-1.5-22.18,1.92-5.06-.63-5.22-2.36-9.43A12.38,12.38,0,0,0,52.35,60a5.27,5.27,0,0,0-2.8-1.72,10.44,10.44,0,0,0-1.7-.24c-3.1-.25-10.41-1.15-11.09,3.26a7.82,7.82,0,0,0,.36,3.57c.41,1.29,1,2.5,1.53,3.75Q39,69.35,39.22,70.12Z"/><path class="cls-23" d="M39.41,106.27s-1.58-4-.07-11.64H57.67a112.15,112.15,0,0,1,.67,11.64Z"/><path class="cls-24" d="M42.67,132c2.41-5.89-3.45-7.91-6-3.78C33,134,31.37,155.64,30.89,159.66c-.06.53.23.47.53.41.9-.18.52-1,1.81-.94.68,0,.88,1,.88,1C35.54,154.75,40.34,137.69,42.67,132Z"/><path class="cls-25" d="M48.51,107.1c.64-7.69-2.29-13.67-6.89-11.13C39.68,97,39,99.18,38.71,101.2S37,124.15,36.53,127.93c-1.13,8.53,5.36,6.23,6.07,3.87C44.38,125.83,48.16,111.3,48.51,107.1Z"/><path class="cls-26" d="M59.35,130.77c.24-5.77-5.18-5.65-6.54-1-2.14,7.39,1.56,23.26,1.79,32.33.94-1.57,1.84-1.95,2.26-1.91a1.51,1.51,0,0,1,1.05.59C57.77,148.88,59.09,136.94,59.35,130.77Z"/><path class="cls-27" d="M53,131.39c.72,2.36,6.92,5.09,6.27-3.49-.29-3.81-1.05-24.82-1.2-26.85s-.49-5-1.47-5.36c-4.9-1.85-9.64,4.2-8.36,11.8C49.14,112.58,51.53,126.5,53,131.39Z"/><path class="cls-11" d="M40.3,48.75c.36,3.62.47,4.42,2,5.9a8.53,8.53,0,0,0,5.55,2.16c1.85,0,3.22-2,3.64-3.49A26.3,26.3,0,0,0,52,44.06a5.84,5.84,0,0,0-5.3-4.44C44.11,39.62,39.42,39.91,40.3,48.75Z"/><path class="cls-28" d="M58.13,160.79a6.25,6.25,0,0,0,2.6,2c1.39.62,4.33.91,2.69,1.46a9.77,9.77,0,0,1-4.5.06,19.54,19.54,0,0,0-3-.18c-1.5,0-1.51-.1-1.31-1.79C54.85,160,57.46,159.47,58.13,160.79Z"/><path class="cls-29" d="M34.08,159.76c.21.41.43,2.38,1.82,3s4.33.91,2.69,1.46a9.77,9.77,0,0,1-4.5.06c-1-.15-1.12-1.21-2.26-1.21-1.5,0-1.51-.1-1.31-1.79C30.8,158.94,33.41,158.44,34.08,159.76Z"/><path class="cls-30" d="M51.36,42.17c1.42,2.42-8.88,6.85-11.17,6.47s-2.27-5.24-.5-7.45S48,36.46,51.36,42.17Z"/><path class="cls-31" d="M47.54,41.56c.37,2,4,2.52,4.57,4.21.38,1.05.56-2.27-.28-3.77S46.79,37.45,47.54,41.56Z"/><ellipse class="cls-11" cx="40.19" cy="49.28" rx="1.28" ry="2.45" transform="translate(-15.65 18.85) rotate(-22.21)"/><g class="cls-32"><path class="cls-33" d="M74.73,96.35l9.15-6.56,4.56-3.27A2.3,2.3,0,0,0,89,83.3L65.92,51.15a2.31,2.31,0,0,0-3.22-.52L58.14,53.9,1.46,94.55a2.3,2.3,0,0,0-.53,3.21L24,129.91a2.3,2.3,0,0,0,3.21.53l38.06-27.3a1,1,0,0,0,1.11,0l8-5.74A1,1,0,0,0,74.73,96.35Z"/><path class="cls-33" d="M14.07,112.68h0a2.16,2.16,0,0,1,.5-3h0a2.16,2.16,0,0,1,3,.5h0a2.16,2.16,0,0,1-.5,3h0A2.16,2.16,0,0,1,14.07,112.68Z"/><path class="cls-33" d="M68.91,63.51h0a.88.88,0,0,1,.2-1.23h0a.88.88,0,0,1,1.23.2h0a.88.88,0,0,1-.2,1.23h0A.88.88,0,0,1,68.91,63.51Z"/><path class="cls-33" d="M76.61,73.29l-5.1-7.11A.32.32,0,0,1,72,65.8l5.1,7.11a.32.32,0,0,1-.53.38Z"/><rect class="cls-33" x="13.51" y="69.07" width="63.44" height="42.52" transform="translate(-44.17 43.29) rotate(-35.65)"/><polygon class="cls-34" points="75.91 78.68 34.51 71.86 47.47 62.56 66.61 65.72 75.91 78.68"/><polygon class="cls-34" points="82.39 87.7 25.48 78.33 31.96 73.68 77.74 81.22 82.39 87.7"/></g><path class="cls-11" d="M40.72,81.79a6.63,6.63,0,0,1,3.1.5c.68.4-1,.46-1.85.55S39.8,81.82,40.72,81.79Z"/><path class="cls-11" d="M41.69,82.48c2,1,3.25,1.26,3.84,2.18s-1.45,1.2-2.2.94-3.51-1-3.84-1.89S40.2,81.72,41.69,82.48Z"/><path class="cls-35" d="M26.07,74.21c.52-1.29,2-4,6.63-9.46a51.36,51.36,0,0,1,5.15-5.4c1.7-1.57,3.4-.54,3.54.72a8.07,8.07,0,0,1-1.66,5.46c-4.87,5-8.66,8.65-9.71,10.1C28.5,77.76,25.45,75.75,26.07,74.21Z"/><path class="cls-36" d="M40.16,83.77c-1,.24-1.42-1-4.57-2.29A30.4,30.4,0,0,1,27,76.64c-1.92-1.44-.63-4.77,2-3.49,2.22,1.08,10.63,7.88,12,8.54C41.83,82.12,41,83.57,40.16,83.77Z"/><path class="cls-11" d="M70.48,58.67a7.9,7.9,0,0,1-1.42-2.06c-.21-.49,0-1.13.57-1.08A3.92,3.92,0,0,1,72,57.05a2.73,2.73,0,0,1,0,2C71.76,59.62,71.17,59.43,70.48,58.67Z"/><rect class="cls-33" x="92.2" y="15.51" width="44.55" height="33.47" rx="2.54" ry="2.54"/><path class="cls-37" d="M134.21,15.51H94.74A2.54,2.54,0,0,0,92.2,18v6.37h44.55V18A2.54,2.54,0,0,0,134.21,15.51Z"/><circle class="cls-33" cx="132.2" cy="19.96" r="0.77"/><circle class="cls-33" cx="129.11" cy="19.96" r="0.77"/><circle class="cls-33" cx="126.02" cy="19.96" r="0.77"/><path class="cls-37" d="M119.52,32.63a.23.23,0,0,0,0-.47H95.7a.23.23,0,0,0,0,.47Z"/><path class="cls-37" d="M119.52,35.54a.23.23,0,0,0,0-.47H95.7a.23.23,0,1,0,0,.47Z"/><path class="cls-37" d="M119.52,38.45a.23.23,0,0,0,0-.47H95.7a.23.23,0,0,0,0,.47Z"/><path class="cls-37" d="M119.52,41.35a.23.23,0,0,0,0-.47h-16a.23.23,0,0,0,0,.47Z"/><path class="cls-37" d="M119.52,29.72a.23.23,0,0,0,0-.47H95.7a.23.23,0,1,0,0,.47Z"/><rect class="cls-33" x="121.84" y="27.71" width="11.76" height="9.11" rx="0.96" ry="0.96"/><rect class="cls-33" x="121.84" y="38.55" width="11.76" height="4.14" rx="0.8" ry="0.8"/><g id="_Группа_" data-name="&lt;Группа&gt;"><g id="_Группа_2" data-name="&lt;Группа&gt;"><circle class="cls-33" cx="129.11" cy="109.71" r="7.61"/></g><g id="_Группа_3" data-name="&lt;Группа&gt;"><g id="_Группа_4" data-name="&lt;Группа&gt;"><path class="cls-33" d="M130.9,113.16a4.54,4.54,0,0,1-2,.4,3.36,3.36,0,0,1-3.45-3.49,4.09,4.09,0,0,1,4.14-4.22,3.16,3.16,0,0,1,3.34,3.2c0,1.62-.91,2.64-2.1,2.64a.87.87,0,0,1-1-.85h0a1.63,1.63,0,0,1-1.43.85,1.27,1.27,0,0,1-1.24-1.44,2.53,2.53,0,0,1,2.59-2.58,3.11,3.11,0,0,1,1.32.28l-.33,2c-.11.65,0,1,.28,1,.48,0,1.07-.6,1.07-1.87a2.44,2.44,0,0,0-2.65-2.56,3.23,3.23,0,0,0-3.18,3.44,2.68,2.68,0,0,0,2.83,2.9,3.6,3.6,0,0,0,1.61-.35Zm-1-4.57a1.36,1.36,0,0,0-.34,0,1.46,1.46,0,0,0-1.31,1.57c0,.42.19.69.55.69s.84-.52.94-1.16Z"/></g></g></g><g id="_Группа_5" data-name="&lt;Группа&gt;"><g id="_Группа_6" data-name="&lt;Группа&gt;"><circle class="cls-33" cx="79.64" cy="9.88" r="9.38" transform="translate(-0.56 12.77) rotate(-9.14)"/></g><g id="_Группа_7" data-name="&lt;Группа&gt;"><g id="_Группа_8" data-name="&lt;Группа&gt;"><path class="cls-33" d="M79,15l-.82-5.08L77.3,10l-.24-1.51.86-.14,0-.26a3,3,0,0,1,.48-2.35,2.71,2.71,0,0,1,1.71-1,4,4,0,0,1,1.11,0l.17,1.59a2.25,2.25,0,0,0-.68,0c-.67.11-.87.68-.77,1.33L80,8l1.32-.21.24,1.51-1.31.21L81,14.64Z"/></g></g></g><g id="_Группа_9" data-name="&lt;Группа&gt;"><g id="_Группа_10" data-name="&lt;Группа&gt;"><circle class="cls-33" cx="55.11" cy="25.98" r="9.38"/></g><g id="_Группа_11" data-name="&lt;Группа&gt;"><path class="cls-33" d="M60.54,22.33a3.69,3.69,0,0,1-1.17.3,2.26,2.26,0,0,0,1-1.25,4.51,4.51,0,0,1-1.43.55A2.26,2.26,0,0,0,55.08,24a6.4,6.4,0,0,1-4.65-2.36,2.26,2.26,0,0,0,.7,3,2.24,2.24,0,0,1-1-.28v0a2.26,2.26,0,0,0,1.81,2.21,2.26,2.26,0,0,1-1,0A2.26,2.26,0,0,0,53,28.2a4.55,4.55,0,0,1-3.34.93s.83,1.15,3.73,1.55,7.9-1.56,6.13-7.24A3.94,3.94,0,0,0,60.54,22.33Z"/></g></g><g id="_Группа_12" data-name="&lt;Группа&gt;"><g id="_Группа_13" data-name="&lt;Группа&gt;"><circle class="cls-33" cx="121.84" cy="62.12" r="9.38" transform="translate(-9.42 23.74) rotate(-10.71)"/></g><g id="_Группа_14" data-name="&lt;Группа&gt;"><polygon class="cls-33" points="120.42 66.13 119.05 58.9 125.58 61.41 120.42 66.13"/></g></g><g id="_Группа_15" data-name="&lt;Группа&gt;"><g id="_Группа_16" data-name="&lt;Группа&gt;"><circle class="cls-33" cx="115.4" cy="88.97" r="9.38" transform="translate(-14.53 23.01) rotate(-10.71)"/></g></g><g id="_Группа_17" data-name="&lt;Группа&gt;"><g id="_Группа_18" data-name="&lt;Группа&gt;"><circle class="cls-33" cx="98.76" cy="65.39" r="7.5" transform="translate(-0.39 0.59) rotate(-0.34)"/></g><g id="_Группа_19" data-name="&lt;Группа&gt;"><g id="_Группа_20" data-name="&lt;Группа&gt;"><path class="cls-33" d="M99.49,67.7a2,2,0,0,1-1.19-.56h0c-.23,1.23-1,3.91-1.79,4.53-.27-1.85.81-4.75,1.1-6.23-.52-.86,0-2.59,1.13-2.17,1.33.52-1.13,3.2.53,3.53s2.42-3,1.34-4.11c-1.56-1.57-4.52,0-4.14,2.24.09.55.66.72.24,1.48h0a1.9,1.9,0,0,1-1.26-2,3.36,3.36,0,0,1,3-3.09c1.87-.22,3.63.67,3.89,2.42.28,2-.82,4.14-2.82,4Zm0,0"/></g></g></g><g id="_Группа_21" data-name="&lt;Группа&gt;"><g id="_Группа_22" data-name="&lt;Группа&gt;"><circle class="cls-33" cx="76.36" cy="45.42" r="6.07"/></g><g id="_Группа_23" data-name="&lt;Группа&gt;"><g id="_Группа_24" data-name="&lt;Группа&gt;"><path class="cls-33" d="M76.8,42.16v1.23h1.34v1.27H76.8v2c0,.67.16,1,.68,1a4.32,4.32,0,0,0,.62,0v1.3a4.15,4.15,0,0,1-1.23.15,1.79,1.79,0,0,1-1.29-.48,2.3,2.3,0,0,1-.48-1.64V44.66h-.74V43.39h0a1.22,1.22,0,0,0,1.22-1.22H76.8Z"/></g></g></g><path class="cls-33" d="M152.29,10.23h-9.12a1.86,1.86,0,0,0-1.86,1.86v6.39a1.86,1.86,0,0,0,1.86,1.86h3.2l1.36,1.93,1.32-1.93h3.24a1.86,1.86,0,0,0,1.86-1.86V12.09A1.86,1.86,0,0,0,152.29,10.23Z"/><rect class="cls-33" x="144.2" y="13.95" width="1.86" height="3.63" rx="0.39" ry="0.39"/><path class="cls-33" d="M146.76,14.44a.63.63,0,0,1,.24-.5,2.43,2.43,0,0,0,1.1-2c.13-.78,1-.26,1.09.59,0,.69,0,1.26,0,1.26h1.39a.67.67,0,0,1,.67.67v2.67a.67.67,0,0,1-.67.67h-2.77a.63.63,0,0,1-.35-.11l-.45-.3a.63.63,0,0,1-.27-.52Z"/><circle class="cls-33" cx="92.2" cy="100.99" r="5.95" transform="translate(-14.62 186.37) rotate(-86.24)"/><polygon class="cls-33" points="92.46 97.15 93.46 99.56 96.01 100.11 94.03 101.8 94.3 104.4 92.07 103.04 89.68 104.1 90.29 101.56 88.54 99.61 91.15 99.41 92.46 97.15"/><path class="cls-33" d="M119.72,84.81a3.22,3.22,0,0,0-4.63.55,3.22,3.22,0,0,0-4.6.77,3.28,3.28,0,0,0,.81,4.44l4.08,3.05a1.26,1.26,0,0,0,1.77-.25l3.05-4.08A3.28,3.28,0,0,0,119.72,84.81Z"/></g></g></g></svg>