<svg xmlns="http://www.w3.org/2000/svg" xmlns:xlink="http://www.w3.org/1999/xlink" viewBox="0 0 621.79 530.32"><defs><style>.cls-1{fill:none;}.cls-2{isolation:isolate;}.cls-3{opacity:0.2;}.cls-4{clip-path:url(#clip-path);}.cls-5{fill:url(#Gradient_bez_nazwy_15);}.cls-6{fill:url(#Gradient_bez_nazwy_5);}.cls-7{fill:url(#Gradient_bez_nazwy_14);}.cls-8{fill:url(#Gradient_bez_nazwy_14-2);}.cls-9{fill:url(#Gradient_bez_nazwy_14-3);}.cls-10{fill:url(#Gradient_bez_nazwy_14-4);}.cls-11{fill:url(#Gradient_bez_nazwy_14-5);}.cls-12{fill:url(#Gradient_bez_nazwy_14-6);}.cls-13{fill:url(#Gradient_bez_nazwy_14-7);}.cls-14{fill:url(#Gradient_bez_nazwy_14-8);}.cls-15{fill:url(#Gradient_bez_nazwy_14-9);}.cls-16{fill:url(#Gradient_bez_nazwy_14-10);}.cls-17{fill:url(#Gradient_bez_nazwy_14-11);}.cls-18{fill:url(#Gradient_bez_nazwy_14-12);}.cls-19{fill:url(#Gradient_bez_nazwy_14-13);}.cls-20{fill:url(#Gradient_bez_nazwy_14-14);}.cls-21{fill:url(#Gradient_bez_nazwy_14-15);}.cls-22{fill:url(#Gradient_bez_nazwy_14-16);}.cls-23{fill:url(#Gradient_bez_nazwy_5-2);}.cls-24{fill:url(#Gradient_bez_nazwy_5-3);}.cls-25{fill:url(#Gradient_bez_nazwy_5-4);}.cls-26{fill:url(#Gradient_bez_nazwy_5-5);}.cls-27{fill:url(#Gradient_bez_nazwy_5-6);}.cls-28{fill:url(#Gradient_bez_nazwy_5-7);}.cls-29{fill:url(#Gradient_bez_nazwy_5-8);}.cls-30{fill:url(#Gradient_bez_nazwy_5-9);}.cls-31{fill:url(#Gradient_bez_nazwy_5-10);}.cls-32{fill:url(#Gradient_bez_nazwy_5-11);}.cls-33{fill:url(#Gradient_bez_nazwy_5-12);}.cls-34{fill:url(#Gradient_bez_nazwy_5-13);}.cls-35{fill:url(#Gradient_bez_nazwy_5-14);}.cls-36{fill:url(#Gradient_bez_nazwy_5-15);}.cls-37{fill:#ffca55;}.cls-37,.cls-91{opacity:0.3;}.cls-38{fill:#f99569;}.cls-38,.cls-55{opacity:0.4;}.cls-39,.cls-51{opacity:0.6;}.cls-39{fill:url(#Gradient_bez_nazwy_5-16);}.cls-40,.cls-59{fill:#fff;}.cls-41{fill:#57afff;}.cls-42{fill:#164dd6;}.cls-42,.cls-56{opacity:0.7;}.cls-43{fill:#f9f4ea;}.cls-44{fill:url(#Gradient_bez_nazwy_26);}.cls-45{fill:#33333d;}.cls-46{fill:url(#Gradient_bez_nazwy_26-2);}.cls-47{fill:url(#Gradient_bez_nazwy_26-3);}.cls-48{fill:#d3d3d3;}.cls-49{fill:#f2f2f2;}.cls-50{fill:url(#Gradient_bez_nazwy_28);}.cls-52,.cls-59{opacity:0.9;}.cls-52{fill:url(#Gradient_bez_nazwy_5-17);}.cls-53{fill:url(#Gradient_bez_nazwy_5-18);}.cls-54{fill:url(#Gradient_bez_nazwy_5-19);}.cls-55{fill:url(#Gradient_bez_nazwy_5-20);}.cls-57{fill:url(#Gradient_bez_nazwy_27);}.cls-58{fill:url(#Gradient_bez_nazwy_26-4);}.cls-60{fill:url(#Gradient_bez_nazwy_7);}.cls-61{fill:#231a66;}.cls-62{fill:url(#Gradient_bez_nazwy_7-2);}.cls-63{fill:url(#Gradient_bez_nazwy_7-3);}.cls-64{fill:url(#Gradient_bez_nazwy_5-21);}.cls-65{fill:url(#Gradient_bez_nazwy_5-22);}.cls-66{fill:#ffaf84;}.cls-67{fill:url(#Gradient_bez_nazwy_5-23);}.cls-68{fill:url(#Gradient_bez_nazwy_7-4);}.cls-69{fill:url(#Gradient_bez_nazwy_7-5);}.cls-70{fill:url(#Gradient_bez_nazwy_7-6);}.cls-71{fill:url(#Gradient_bez_nazwy_7-7);}.cls-72{fill:url(#Gradient_bez_nazwy_5-24);}.cls-73{fill:url(#Gradient_bez_nazwy_7-8);}.cls-74{fill:url(#Gradient_bez_nazwy_20);}.cls-75{fill:url(#Gradient_bez_nazwy_25);}.cls-76{fill:url(#Gradient_bez_nazwy_20-2);}.cls-77{fill:#e3c1e8;}.cls-78{fill:url(#Gradient_bez_nazwy_3);}.cls-79{fill:url(#Gradient_bez_nazwy_3-2);}.cls-80{fill:url(#Gradient_bez_nazwy_3-3);}.cls-81{fill:url(#Gradient_bez_nazwy_20-3);}.cls-82{fill:url(#Gradient_bez_nazwy_3-4);}.cls-83{fill:url(#Gradient_bez_nazwy_20-4);}.cls-84{fill:url(#Gradient_bez_nazwy_3-5);}.cls-85{fill:url(#Gradient_bez_nazwy_20-5);}.cls-86{fill:url(#Gradient_bez_nazwy_3-6);}.cls-87{fill:url(#Gradient_bez_nazwy_20-6);}.cls-88{fill:#cecece;}.cls-88,.cls-91{mix-blend-mode:multiply;}.cls-89{fill:url(#Gradient_bez_nazwy_3-7);}.cls-90{clip-path:url(#clip-path-2);}.cls-91{fill:url(#Gradient_bez_nazwy_3-8);}</style><clipPath id="clip-path" transform="translate(-9.75)"><path class="cls-1" d="M6.17,195.9c-20.47-49,14.17-72.5,42.71-70.28,40.42,3.14,47,24.36,76.38-31.92,21.69-41.53,73.35-55.67,103.82-14C271.67,138,294,69.56,324.18,52.25c62.37-35.76,82.84,11.37,122.57,87C487.54,216.85,477,278.76,430.9,339.89c-34,45.13-74.5,73.92-115.54,52.55-58.94-30.68-26.67-93-78.67-65.14-31.12,16.68-91.35,23.61-103.52-49.52S35.65,266.4,6.17,195.9Z"/></clipPath><linearGradient id="Gradient_bez_nazwy_15" x1="-2210.07" y1="-226.8" x2="-2210.07" y2="-422.2" gradientTransform="translate(-1580.95 1475.2) rotate(135)" gradientUnits="userSpaceOnUse"><stop offset="0" stop-color="#401381"/><stop offset="1" stop-color="#d11137"/></linearGradient><linearGradient id="Gradient_bez_nazwy_5" x1="-2188.28" y1="-303.3" x2="-2188.28" y2="-468.64" gradientTransform="translate(-1580.95 1475.2) rotate(135)" gradientUnits="userSpaceOnUse"><stop offset="0" stop-color="#36078b"/><stop offset="1" stop-color="#16b1ff"/></linearGradient><linearGradient id="Gradient_bez_nazwy_14" x1="-560.54" y1="189.25" x2="-546.92" y2="174.66" gradientTransform="translate(957.02 -30.46) rotate(-0.46)" gradientUnits="userSpaceOnUse"><stop offset="0" stop-color="#f70f47"/><stop offset="1" stop-color="#ffb41d"/></linearGradient><linearGradient id="Gradient_bez_nazwy_14-2" x1="-106.63" y1="1088.78" x2="-93.01" y2="1074.19" gradientTransform="matrix(0.93, -0.37, 0.37, 0.93, 85.05, -886.33)" xlink:href="#Gradient_bez_nazwy_14"/><linearGradient id="Gradient_bez_nazwy_14-3" x1="-44.42" y1="2335.53" x2="-32.1" y2="2322.32" gradientTransform="translate(-1332.23 -1414.89) rotate(-48.58)" xlink:href="#Gradient_bez_nazwy_14"/><linearGradient id="Gradient_bez_nazwy_14-4" x1="-528.92" y1="3452.53" x2="-517.85" y2="3440.67" gradientTransform="matrix(0.27, -0.96, 0.96, 0.27, -2800.03, -1266.24)" xlink:href="#Gradient_bez_nazwy_14"/><linearGradient id="Gradient_bez_nazwy_14-5" x1="-4756.19" y1="170.24" x2="-4789.22" y2="119.67" gradientTransform="matrix(-1, 0, 0, 1, -4390.18, 0)" xlink:href="#Gradient_bez_nazwy_14"/><linearGradient id="Gradient_bez_nazwy_14-6" x1="-682.27" y1="174.3" x2="-641.7" y2="110.12" gradientTransform="translate(1056.28)" xlink:href="#Gradient_bez_nazwy_14"/><linearGradient id="Gradient_bez_nazwy_14-7" x1="-4470.34" y1="-256.82" x2="-4433.16" y2="-296.66" gradientTransform="matrix(-0.98, -0.2, -0.2, 0.98, -4045.84, -510.53)" xlink:href="#Gradient_bez_nazwy_14"/><linearGradient id="Gradient_bez_nazwy_14-8" x1="-653.69" y1="175.33" x2="-697.49" y2="106.06" gradientTransform="translate(1056.28)" xlink:href="#Gradient_bez_nazwy_14"/><linearGradient id="Gradient_bez_nazwy_14-9" x1="-274.58" y1="761.86" x2="-206.21" y2="688.59" gradientTransform="translate(455.95 -690.61) rotate(-15.9)" xlink:href="#Gradient_bez_nazwy_14"/><linearGradient id="Gradient_bez_nazwy_14-10" x1="-678.71" y1="174.71" x2="-618.19" y2="64.36" gradientTransform="translate(1056.28)" xlink:href="#Gradient_bez_nazwy_14"/><linearGradient id="Gradient_bez_nazwy_14-11" x1="-734.52" y1="27.58" x2="-685.19" y2="-25.28" gradientTransform="matrix(1, 0.05, -0.05, 1, 1146.08, 148.72)" xlink:href="#Gradient_bez_nazwy_14"/><linearGradient id="Gradient_bez_nazwy_14-12" x1="-672.49" y1="172.37" x2="-606.29" y2="111.92" gradientTransform="translate(1056.28)" xlink:href="#Gradient_bez_nazwy_14"/><linearGradient id="Gradient_bez_nazwy_14-13" x1="-637.7" y1="101.73" x2="-630.3" y2="88.23" gradientTransform="translate(1056.28)" xlink:href="#Gradient_bez_nazwy_14"/><linearGradient id="Gradient_bez_nazwy_14-14" x1="-634.98" y1="87.93" x2="-630.3" y2="75.7" gradientTransform="translate(1056.28)" xlink:href="#Gradient_bez_nazwy_14"/><linearGradient id="Gradient_bez_nazwy_14-15" x1="-659.17" y1="94.16" x2="-659.14" y2="82.58" gradientTransform="translate(1056.28)" xlink:href="#Gradient_bez_nazwy_14"/><linearGradient id="Gradient_bez_nazwy_14-16" x1="-651.32" y1="80.48" x2="-649.36" y2="71.67" gradientTransform="translate(1056.28)" xlink:href="#Gradient_bez_nazwy_14"/><linearGradient id="Gradient_bez_nazwy_5-2" x1="-661.89" y1="161.48" x2="-661.89" y2="182.28" gradientTransform="translate(1056.28)" xlink:href="#Gradient_bez_nazwy_5"/><linearGradient id="Gradient_bez_nazwy_5-3" x1="-661.89" y1="166.79" x2="-661.89" y2="157.73" gradientTransform="translate(1056.28)" xlink:href="#Gradient_bez_nazwy_5"/><linearGradient id="Gradient_bez_nazwy_5-4" x1="-5657.43" y1="207.85" x2="-5657.43" y2="87.28" gradientTransform="matrix(-1, 0, 0, 1, -5362.47, 0)" xlink:href="#Gradient_bez_nazwy_5"/><linearGradient id="Gradient_bez_nazwy_5-5" x1="357.2" y1="190.71" x2="467.28" y2="190.71" gradientTransform="matrix(1, 0, 0, 1, 0, 0)" xlink:href="#Gradient_bez_nazwy_5"/><linearGradient id="Gradient_bez_nazwy_5-6" x1="436.22" y1="269.25" x2="448.66" y2="269.25" gradientTransform="matrix(1, 0, 0, 1, 0, 0)" xlink:href="#Gradient_bez_nazwy_5"/><linearGradient id="Gradient_bez_nazwy_5-7" x1="398.17" y1="269.26" x2="410.61" y2="269.26" gradientTransform="matrix(1, 0, 0, 1, 0, 0)" xlink:href="#Gradient_bez_nazwy_5"/><linearGradient id="Gradient_bez_nazwy_5-8" x1="-5773.51" y1="208.43" x2="-5773.51" y2="81.52" gradientTransform="matrix(-1, 0, 0, 1, -5372.22, 0)" xlink:href="#Gradient_bez_nazwy_5"/><linearGradient id="Gradient_bez_nazwy_5-9" x1="121.77" y1="269.26" x2="134.21" y2="269.26" gradientTransform="matrix(1, 0, 0, 1, 0, 0)" xlink:href="#Gradient_bez_nazwy_5"/><linearGradient id="Gradient_bez_nazwy_5-10" x1="-5538.25" y1="208.43" x2="-5538.25" y2="81.52" gradientTransform="matrix(-1, 0, 0, 1, -5372.22, 0)" xlink:href="#Gradient_bez_nazwy_5"/><linearGradient id="Gradient_bez_nazwy_5-11" x1="-5497.1" y1="208.43" x2="-5497.1" y2="81.52" gradientTransform="matrix(-1, 0, 0, 1, -5372.22, 0)" xlink:href="#Gradient_bez_nazwy_5"/><linearGradient id="Gradient_bez_nazwy_5-12" x1="-5814.66" y1="207.85" x2="-5814.66" y2="87.3" gradientTransform="matrix(-1, 0, 0, 1, -5372.22, 0)" xlink:href="#Gradient_bez_nazwy_5"/><linearGradient id="Gradient_bez_nazwy_5-13" x1="-5776.61" y1="207.85" x2="-5776.61" y2="87.3" gradientTransform="matrix(-1, 0, 0, 1, -5372.22, 0)" xlink:href="#Gradient_bez_nazwy_5"/><linearGradient id="Gradient_bez_nazwy_5-14" x1="-5538.25" y1="181.37" x2="-5538.25" y2="155.72" gradientTransform="matrix(-1, 0, 0, 1, -5372.22, 0)" xlink:href="#Gradient_bez_nazwy_5"/><linearGradient id="Gradient_bez_nazwy_5-15" x1="-5500.2" y1="207.85" x2="-5500.2" y2="87.3" gradientTransform="matrix(-1, 0, 0, 1, -5372.22, 0)" xlink:href="#Gradient_bez_nazwy_5"/><linearGradient id="Gradient_bez_nazwy_5-16" x1="269.82" y1="206.87" x2="369.13" y2="51.64" gradientTransform="matrix(1, 0, 0, 1, 0, 0)" xlink:href="#Gradient_bez_nazwy_5"/><linearGradient id="Gradient_bez_nazwy_26" x1="272.92" y1="110.64" x2="284.54" y2="110.64" gradientUnits="userSpaceOnUse"><stop offset="0" stop-color="#fea600"/><stop offset="1" stop-color="#efdb29"/></linearGradient><linearGradient id="Gradient_bez_nazwy_26-2" x1="332.18" y1="112.71" x2="385.13" y2="112.71" xlink:href="#Gradient_bez_nazwy_26"/><linearGradient id="Gradient_bez_nazwy_26-3" x1="362.34" y1="98.47" x2="371.12" y2="98.47" xlink:href="#Gradient_bez_nazwy_26"/><linearGradient id="Gradient_bez_nazwy_28" x1="325.13" y1="247.63" x2="325.13" y2="69.3" gradientUnits="userSpaceOnUse"><stop offset="0" stop-color="#fea600"/><stop offset="1" stop-color="#efdb29" stop-opacity="0"/></linearGradient><linearGradient id="Gradient_bez_nazwy_5-17" x1="759.33" y1="2315.35" x2="767.48" y2="2302.61" gradientTransform="translate(-1678.93 -1249.38) rotate(-38.53)" xlink:href="#Gradient_bez_nazwy_5"/><linearGradient id="Gradient_bez_nazwy_5-18" x1="759.32" y1="2323.16" x2="763.35" y2="2309.32" gradientTransform="translate(-1678.93 -1249.38) rotate(-38.53)" xlink:href="#Gradient_bez_nazwy_5"/><linearGradient id="Gradient_bez_nazwy_5-19" x1="290.07" y1="199.93" x2="309.72" y2="169.21" gradientTransform="matrix(1, 0, 0, 1, 0, 0)" xlink:href="#Gradient_bez_nazwy_5"/><linearGradient id="Gradient_bez_nazwy_5-20" x1="290.19" y1="177.32" x2="290.19" y2="170.9" gradientTransform="matrix(1, 0, 0, 1, 0, 0)" xlink:href="#Gradient_bez_nazwy_5"/><linearGradient id="Gradient_bez_nazwy_27" x1="300.52" y1="88.02" x2="365.42" y2="17.37" gradientUnits="userSpaceOnUse"><stop offset="0" stop-color="#27a48b"/><stop offset="0.54" stop-color="#29d47d"/><stop offset="1" stop-color="#168d68"/></linearGradient><linearGradient id="Gradient_bez_nazwy_26-4" x1="310.63" y1="94.17" x2="339" y2="52.15" xlink:href="#Gradient_bez_nazwy_26"/><linearGradient id="Gradient_bez_nazwy_7" x1="321.05" y1="61.51" x2="328.18" y2="47.95" gradientUnits="userSpaceOnUse"><stop offset="0" stop-color="#ff664f"/><stop offset="1" stop-color="#9e005d"/></linearGradient><linearGradient id="Gradient_bez_nazwy_7-2" x1="283.41" y1="224.24" x2="287.85" y2="325.11" xlink:href="#Gradient_bez_nazwy_7"/><linearGradient id="Gradient_bez_nazwy_7-3" x1="258.14" y1="206.36" x2="263.37" y2="274.57" xlink:href="#Gradient_bez_nazwy_7"/><linearGradient id="Gradient_bez_nazwy_5-21" x1="439.05" y1="655.8" x2="454.93" y2="580.8" gradientTransform="translate(-330.86 -412.41) rotate(-9)" xlink:href="#Gradient_bez_nazwy_5"/><linearGradient id="Gradient_bez_nazwy_5-22" x1="-1450.84" y1="-1278.83" x2="-1417.92" y2="-1434.29" gradientTransform="matrix(0.79, 0.62, -0.62, 0.79, 536.32, 2071.09)" xlink:href="#Gradient_bez_nazwy_5"/><linearGradient id="Gradient_bez_nazwy_5-23" x1="-5745.78" y1="183.06" x2="-5714.42" y2="34.98" gradientTransform="matrix(-1, 0, 0, 1, -5506.38, 0)" xlink:href="#Gradient_bez_nazwy_5"/><linearGradient id="Gradient_bez_nazwy_7-4" x1="250.77" y1="288.96" x2="262.27" y2="350.63" xlink:href="#Gradient_bez_nazwy_7"/><linearGradient id="Gradient_bez_nazwy_7-5" x1="309.29" y1="278.05" x2="320.79" y2="339.72" xlink:href="#Gradient_bez_nazwy_7"/><linearGradient id="Gradient_bez_nazwy_7-6" x1="296.55" y1="280.42" x2="308.04" y2="342.1" xlink:href="#Gradient_bez_nazwy_7"/><linearGradient id="Gradient_bez_nazwy_7-7" x1="-5745.25" y1="85.33" x2="-5766.5" y2="147.01" gradientTransform="matrix(-1, 0, 0, 1, -5506.38, 0)" xlink:href="#Gradient_bez_nazwy_7"/><linearGradient id="Gradient_bez_nazwy_5-24" x1="685.49" y1="1624.81" x2="750.65" y2="1573.94" gradientTransform="translate(-1051.66 -993.16) rotate(-25.73)" xlink:href="#Gradient_bez_nazwy_5"/><linearGradient id="Gradient_bez_nazwy_7-8" x1="-5735.93" y1="88.54" x2="-5757.19" y2="150.22" gradientTransform="matrix(-1, 0, 0, 1, -5506.38, 0)" xlink:href="#Gradient_bez_nazwy_7"/><linearGradient id="Gradient_bez_nazwy_20" x1="311.62" y1="291.05" x2="77.8" y2="429.14" gradientUnits="userSpaceOnUse"><stop offset="0" stop-color="#e068a9"/><stop offset="1" stop-color="#9e005d"/></linearGradient><linearGradient id="Gradient_bez_nazwy_25" x1="247.73" y1="54.08" x2="247.73" y2="207.25" gradientUnits="userSpaceOnUse"><stop offset="0" stop-color="blue"/><stop offset="0.87" stop-color="#890073"/><stop offset="1" stop-color="#9e005d"/></linearGradient><linearGradient id="Gradient_bez_nazwy_20-2" x1="285.01" y1="252.55" x2="45.18" y2="394.18" xlink:href="#Gradient_bez_nazwy_20"/><linearGradient id="Gradient_bez_nazwy_3" x1="247.73" y1="10.91" x2="247.73" y2="164.1" gradientUnits="userSpaceOnUse"><stop offset="0" stop-color="blue"/><stop offset="1" stop-color="#9e005d"/></linearGradient><linearGradient id="Gradient_bez_nazwy_3-2" x1="247.73" y1="10.9" x2="247.73" y2="164.09" xlink:href="#Gradient_bez_nazwy_3"/><linearGradient id="Gradient_bez_nazwy_3-3" x1="220.88" y1="10.92" x2="220.88" y2="164.1" xlink:href="#Gradient_bez_nazwy_3"/><linearGradient id="Gradient_bez_nazwy_20-3" x1="299.73" y1="287.42" x2="65.91" y2="425.51" xlink:href="#Gradient_bez_nazwy_20"/><linearGradient id="Gradient_bez_nazwy_3-4" x1="257.97" y1="10.92" x2="257.97" y2="164.1" xlink:href="#Gradient_bez_nazwy_3"/><linearGradient id="Gradient_bez_nazwy_20-4" x1="309.31" y1="303.66" x2="75.49" y2="441.75" xlink:href="#Gradient_bez_nazwy_20"/><linearGradient id="Gradient_bez_nazwy_3-5" x1="198.05" y1="10.92" x2="198.05" y2="164.1" xlink:href="#Gradient_bez_nazwy_3"/><linearGradient id="Gradient_bez_nazwy_20-5" x1="293.81" y1="277.43" x2="60.01" y2="415.51" xlink:href="#Gradient_bez_nazwy_20"/><linearGradient id="Gradient_bez_nazwy_3-6" x1="280.8" y1="10.92" x2="280.8" y2="164.1" xlink:href="#Gradient_bez_nazwy_3"/><linearGradient id="Gradient_bez_nazwy_20-6" x1="315.22" y1="313.66" x2="81.4" y2="451.74" xlink:href="#Gradient_bez_nazwy_20"/><linearGradient id="Gradient_bez_nazwy_3-7" x1="237.98" y1="19.06" x2="237.98" y2="172.23" xlink:href="#Gradient_bez_nazwy_3"/><clipPath id="clip-path-2" transform="translate(-9.75)"><path class="cls-1" d="M328.56,140.88h0c-9.24,2.62-29.05,8.83-36.09,12.37-4.93-2.7-15.59-13.7-32.92-24.11a15.84,15.84,0,0,0-7.31-2.37,47.69,47.69,0,0,0-13-2.52c0-.58,0-1.15,0-1.71,0-.36-.05-.72-.09-1.07,4.91-.24,8.15-6.2,9.28-10.31a44,44,0,0,0,1-5.24,8.89,8.89,0,0,0,3.85-4.71c1.4-3.44,1.08-6.82-.72-7.55a2.8,2.8,0,0,0-2.63.58c-.09-2-.25-4.19-.55-6.49a9.76,9.76,0,0,0-.67-2.4l.37-.1c6.1-2.13,5.68-13.92-3.05-14.73-4.91,0-1.36,1.17-5.34,2.78-1.85.75-20.82,1.47-20.76,6.34-4.61,2-5.42,7.21-5,14.15-1.6.92-1.85,4.13-.51,7.42a11.13,11.13,0,0,0,2.13,3.4,23.65,23.65,0,0,0,2.08,5.16,12.59,12.59,0,0,0,4.13,6.82,7.16,7.16,0,0,0-.31,1.55c-.16,2-.3,4.19-.42,6.37a33.27,33.27,0,0,0-6.24,1.18c-6.23,1.91-10.29,5.23-12.69,9.44a157.32,157.32,0,0,0-9.77,13c-10.55,15.4-14,23.55-15.15,27.82-1.63,3.69-1.52,7.53,1.12,8.82,1.1,11.9,4.28,45.58,6.22,57.77,2.7,16.94,14.83,27.06,32.47,27.06h19.51v7.57a2.93,2.93,0,0,0,2.93,2.94h.45V313.6a2.88,2.88,0,0,0-2.38,2.84V322H209.83a7.83,7.83,0,0,0-7.82,7.82,4.32,4.32,0,0,0,.08.75,5.89,5.89,0,0,0,4.27,10.89,5.89,5.89,0,0,0,4.49-10.77H224.7a5.89,5.89,0,0,0,4.49,10.77,5.89,5.89,0,0,0,4.49-10.77h28.09a5.89,5.89,0,0,0,4.49,10.77,5.81,5.81,0,0,0,7-3.62,19.67,19.67,0,0,1,2.22.11,30.09,30.09,0,0,0,6.75.09,5.94,5.94,0,0,0,.46.85,1.67,1.67,0,0,0,1.61,1.7,5.72,5.72,0,0,0,4.83.88,5.94,5.94,0,0,0,1.45.2,5.88,5.88,0,0,0,3.46-1.13c1.1,0,2.19.08,3.28.2,3.18.33,9.45,1.07,14.71-.91s-4.4-2.43-9-4.16a23.18,23.18,0,0,1-8.21-5.07,1.29,1.29,0,0,0,.07-.11c11.95-33.93,30.53-65.19,39.33-83.33A17.14,17.14,0,0,0,337.32,237a9.22,9.22,0,0,0-2.9-7.35c-2.74-2.93-7.66-4.85-15.73-4.51-2.54.11-6.43.18-11,.23A8.16,8.16,0,0,0,305.5,223c-3-2.69-8-4.21-16-3.21-3.69.46-10.27,1.08-17.8,1.75-.06-.49-.09-.75-.09-.75s-.25-31.75-2.75-60.17c12.47,7.1,18.82,9,22,9.41a2.15,2.15,0,0,0,.47,0h.15a2.33,2.33,0,0,0,.39-.08,4.4,4.4,0,0,0,.73-.15c7.11-2.44,16.1-6,29.51-13.91,8.13-4.78,10.87-5.71,12.66-7.62a18.42,18.42,0,0,0,7.18-3.12c2.65-1.81,10-8.15,10.28-14C352.44,125.74,331.05,139.32,328.56,140.88ZM204.5,167.27c.37,1.29.73,2.57,1.08,3.81l-3.62-.82Zm100.27,90.15h-5.18l.72-1.7q2.66-.32,5.33-.67Q305.2,256.21,304.77,257.41ZM254.64,313.6V280.12h.45a2.93,2.93,0,0,0,2.93-2.94v-7.57h16.33c-3.71,18.06-6.57,37.63-10.24,52.34H257v-5.51A2.88,2.88,0,0,0,254.64,313.6ZM279,332.42a11.26,11.26,0,0,1-3.28-1.78h7.45a1.26,1.26,0,0,0,.4.8,5.91,5.91,0,0,0-1.32,1.89A26.16,26.16,0,0,1,279,332.42ZM286.06,322c-.15,0-.28,0-.43,0H275.55c5.3-18.87,12.42-37,18.86-52.34h6.35C295.42,287.19,290.91,306.87,286.06,322Z"/></clipPath><linearGradient id="Gradient_bez_nazwy_3-8" x1="-4700.07" y1="5879.02" x2="-4322.83" y2="6110.79" gradientTransform="matrix(-0.71, -0.64, 0.3, -0.65, -4866.37, 1254.49)" xlink:href="#Gradient_bez_nazwy_3"/></defs><title>собственные разработки</title><g class="cls-2"><g id="Слой_2" data-name="Слой 2"><g id="Designed_by_Freepik" data-name="Designed by Freepik"><g class="cls-3"><g class="cls-4"><path class="cls-5" d="M13.38,269c6.6-16.32,21.94-29.64,40.33-34.63A192.13,192.13,0,0,1,83.64,229c26.2-3.06,37-4.33,45.22-62.83,4.42-31.64,22.92-58.29,48.28-69.53,22.35-9.91,47.22-6.82,70,8.69,18.81,12.8,33.63,17.28,45.29,13.69,16.66-5.13,25.14-26.6,33.33-47.38,5.51-14,11.22-28.43,19.45-38C363.63,12.13,381.52,1.16,399.9.09c34.52-2,68.89,29.81,116.46,73.84q5.48,5.08,11.2,10.35c39.55,36.45,63.73,74.19,73.91,115.39,9.49,38.42,6.82,80.35-8.18,128.19-11.52,36.78-26.19,64.94-43.6,83.71-20.29,21.88-44.39,31.06-71.61,27.29-39-5.39-57.09-27.57-70.33-43.77-7.93-9.7-14.19-17.36-22-17.56-6.81-.17-15,5.33-25.91,17.32-16.91,18.66-48.15,39.13-80.5,35.4-25.53-2.94-47.09-19.93-64.08-50.49-22.2-40-50.93-32.67-84.19-24.24-31.26,7.92-66.68,16.9-98.83-18.42C7.85,310.28,7.64,287.78,11.76,273.64A49,49,0,0,1,13.38,269Z" transform="translate(-9.75)"/><path class="cls-6" d="M38.33,297.7c8.69-15.31,25.65-26.5,44.53-29a192.19,192.19,0,0,1,30.36-1.32c26.38.41,37.29.59,53.1-56.33,8.55-30.78,30.39-54.76,57-62.57,23.46-6.88,47.7-.55,68.26,17.83,17,15.17,31.06,21.55,43.1,19.53,17.19-2.89,28.42-23.06,39.27-42.58,7.31-13.13,14.86-26.7,24.29-35.16C419.33,89.19,438.5,80.67,456.86,82c34.48,2.55,64.37,38.61,105.73,88.52q4.77,5.75,9.74,11.74c34.41,41.34,53.41,81.93,58.08,124.12,4.35,39.33-3.82,80.55-25,126-16.26,34.94-34.51,60.93-54.24,77.25-23,19-48.09,25-74.58,17.63-37.91-10.47-53-34.85-64-52.64-6.58-10.66-11.78-19.07-19.45-20.29-6.73-1.07-15.62,3.3-28,13.75-19.22,16.27-52.88,32.45-84.46,24.5-24.93-6.27-44.06-26-56.88-58.48C207.16,391.6,177.72,395,143.64,399c-32,3.74-68.32,8-95.55-31.27-20.69-29.82-17.93-52.15-12-65.63A49.13,49.13,0,0,1,38.33,297.7Z" transform="translate(-9.75)"/></g></g><path class="cls-7" d="M396.92,162.93c-3.83-2.44,1.07-9.9,10-10.62a17.86,17.86,0,0,1,.08,7.42C406.25,162.7,402.29,166.34,396.92,162.93Z" transform="translate(-9.75)"/><path class="cls-8" d="M391.78,163.52c-4.46-.87-2.63-9.61,5.41-13.54a17.87,17.87,0,0,1,2.79,6.87C400.38,159.9,398,164.74,391.78,163.52Z" transform="translate(-9.75)"/><path class="cls-9" d="M388.67,164.12c-4,1.11-6-6.71-1.12-13.15a16.15,16.15,0,0,1,5,4.43C394.15,157.7,394.21,162.57,388.67,164.12Z" transform="translate(-9.75)"/><path class="cls-10" d="M386.95,163.12c-2.76,2.45-7.5-3-6.08-10.18a14.54,14.54,0,0,1,5.82,1.59C388.84,155.78,390.81,159.68,386.95,163.12Z" transform="translate(-9.75)"/><path class="cls-11" d="M379,144.73c-15.16-5.95-3-35.6,27.86-44.28,0,0,6.05,13.17,5.38,26.06C411.63,137.51,400.2,153.06,379,144.73Z" transform="translate(-9.75)"/><path class="cls-12" d="M403.74,104.19a27.5,27.5,0,0,0-7.07,7.45,21,21,0,0,0-1.37,2.15c-.42.74-.92,1.42-1.26,2.2s-.74,1.53-1.11,2.29l-.56,1.14-.45,1.19a64.83,64.83,0,0,0-3,9.71c-.32,1.67-.68,3.33-1,5l-.6,5.09c-.1.85-.27,1.69-.31,2.55l-.13,2.57c-.09,1.72-.16,3.43-.28,5.15,0,3.45,0,6.91.1,10.37.09,1.73.22,3.47.29,5.21l.11,2.61.05,1.31.13,1.3.42,5.24.21,2.63L388,182l-.25.05-1.83-10.38-.22-1.3-.15-1.31-.29-2.62-.58-5.24-.14-1.31-.05-1.32-.1-2.64-.21-5.27.2-5.28.1-2.64c0-.88.19-1.75.29-2.62l.69-5.24,1.14-5.16a58.41,58.41,0,0,1,3.49-10l.53-1.21.64-1.15,1.29-2.31c.42-.78,1-1.46,1.47-2.19a20.28,20.28,0,0,1,1.59-2.11,25.75,25.75,0,0,1,8-6.84Z" transform="translate(-9.75)"/><path class="cls-13" d="M388.54,130.18c11.54-4.53,2.31-27.1-21.21-33.71,0,0-4.61,10-4.09,19.84C363.68,124.69,372.38,136.52,388.54,130.18Z" transform="translate(-9.75)"/><path class="cls-14" d="M369.8,99.18a68.78,68.78,0,0,1,6.24,9c.9,1.59,1.78,3.18,2.59,4.82l1.24,2.44L381,117.9a122.29,122.29,0,0,1,7.08,20.72c.41,1.78.75,3.57,1.13,5.36l.55,2.68.41,2.71.76,5.42c.18,1.81.31,3.63.44,5.45l.2,2.72c0,.91,0,1.82.07,2.73l.1,5.45c0,1.82-.18,3.64-.26,5.45s-.23,3.62-.39,5.43h-.19c-.07-3.61,0-7.22-.18-10.83l-.34-5.41c-.06-.9-.1-1.8-.18-2.7l-.31-2.69-.62-5.38-.88-5.34-.45-2.67-.57-2.65c-.39-1.76-.75-3.53-1.17-5.29a150.9,150.9,0,0,0-6.6-20.61,102.41,102.41,0,0,0-10-19.18Z" transform="translate(-9.75)"/><path class="cls-15" d="M394.89,117c-21.8-6.68-8-49.36,34.15-64.78,0,0,9.86,17.74,10.29,35.8C439.71,103.44,425.42,126.36,394.89,117Z" transform="translate(-9.75)"/><path class="cls-16" d="M425.17,57.73q-1.2,1.66-2.28,3.42c-.77,1.13-1.47,2.3-2.18,3.47s-1.39,2.34-2,3.55-1.35,2.36-1.93,3.6c-1.24,2.42-2.54,4.8-3.62,7.3-.56,1.24-1.15,2.45-1.73,3.68l-1.57,3.75-1.56,3.74L406.85,94l-1.41,3.8c-.48,1.26-.82,2.58-1.24,3.86s-.83,2.57-1.24,3.86l-.63,1.93c-.2.65-.35,1.31-.53,2l-2.06,7.84c-.62,2.63-1.14,5.28-1.72,7.92-.27,1.32-.59,2.64-.82,4s-.39,2.68-.62,4c-.42,2.67-.92,5.34-1.28,8s-.55,5.39-.86,8.09l-.46,4.05-.22,4.07-.51,8.16c-.33,5.46-.12,10.92-.44,16.44l-.3,0-.48-8.22-.24-4.11c-.08-1.37-.18-2.74-.13-4.11l.07-8.24,0-4.12.3-4.11.61-8.22c.3-2.73.73-5.44,1.09-8.17l.57-4.08c.22-1.36.53-2.69.79-4,.56-2.69,1.07-5.39,1.68-8.07a175.57,175.57,0,0,1,10.85-31.08c4.65-9.94,10.16-19.56,17.29-28Z" transform="translate(-9.75)"/><path class="cls-17" d="M407.28,136.85c-13.33-9.65,6-35.58,38.43-36.27,0,0,2.6,14.41-1.32,26.85C441,138,425.95,150.36,407.28,136.85Z" transform="translate(-9.75)"/><path class="cls-18" d="M441.78,103.44a67.81,67.81,0,0,0-9.16,7.42l-2.15,2-2,2.11c-1.39,1.37-2.64,2.88-3.9,4.36a132.13,132.13,0,0,0-13.34,19.14l-2.81,5.13a27.43,27.43,0,0,0-1.31,2.62l-1.24,2.65-1.27,2.64c-.21.44-.43.88-.63,1.33l-.54,1.36c-.71,1.82-1.47,3.63-2.24,5.43s-1.4,3.66-2.05,5.52l-1.94,5.58c-1.25,3.74-2.24,7.56-3.54,11.34l-.21,0c.89-3.86,1.7-7.75,2.65-11.59l1.69-5.7c.57-1.9,1.08-3.82,1.82-5.66l2.07-5.58.52-1.4c.19-.46.4-.91.6-1.36L404,148l1.22-2.71a27.9,27.9,0,0,1,1.3-2.67l2.81-5.25a110.82,110.82,0,0,1,14-19.2c1.36-1.45,2.69-2.92,4.17-4.25l2.17-2,2.27-1.92a59,59,0,0,1,9.81-6.72Z" transform="translate(-9.75)"/><path class="cls-19" d="M411.21,96.8a20.09,20.09,0,0,1,5.11-2.74c.88-.37,1.8-.61,2.71-.9s1.85-.44,2.78-.64a29.7,29.7,0,0,1,5.72-.44,16.84,16.84,0,0,1,5.74,1.07v.2a57.44,57.44,0,0,0-11.09,1.15A108,108,0,0,0,411.27,97Z" transform="translate(-9.75)"/><path class="cls-20" d="M414.69,84.57a14.9,14.9,0,0,1,3.83-3,21.89,21.89,0,0,1,2.12-1.1c.73-.32,1.48-.58,2.22-.86a22.15,22.15,0,0,1,4.71-1,12.75,12.75,0,0,1,4.92.45l0,.2a47.84,47.84,0,0,0-9,2.23,90.05,90.05,0,0,0-8.72,3.28Z" transform="translate(-9.75)"/><path class="cls-21" d="M399.4,94.16a15.86,15.86,0,0,1-1.48-2.87c-.37-.92-.71-1.8-1-2.66-.11-.45-.29-.85-.43-1.27l-.21-.62a5,5,0,0,1-.24-.61,13.76,13.76,0,0,0-1.36-2.62l.07-.17a5.75,5.75,0,0,1,2.47,1.91A9.94,9.94,0,0,1,398.65,88a18.86,18.86,0,0,1,.93,6.14Z" transform="translate(-9.75)"/><path class="cls-22" d="M406.57,80.84a11.61,11.61,0,0,1-.6-2.42c-.13-.76-.18-1.49-.26-2.2s-.1-1.39-.18-2.06A8.75,8.75,0,0,0,405,72l.08-.11a4.31,4.31,0,0,1,1.45,1.91,7.9,7.9,0,0,1,.55,2.34,17.19,17.19,0,0,1-.39,4.76Z" transform="translate(-9.75)"/><path class="cls-23" d="M403.77,184.81H385a1.84,1.84,0,0,1-1.83-1.62l-2.58-21.72a1.84,1.84,0,0,1,1.83-2.06h23.91a1.84,1.84,0,0,1,1.83,2.06l-2.58,21.72A1.84,1.84,0,0,1,403.77,184.81Z" transform="translate(-9.75)"/><path class="cls-24" d="M408.77,163.71H380a1.21,1.21,0,0,1-1.2-1l-.56-3.69a1.21,1.21,0,0,1,1.2-1.4h29.88a1.21,1.21,0,0,1,1.2,1.4l-.56,3.69A1.21,1.21,0,0,1,408.77,163.71Z" transform="translate(-9.75)"/><path class="cls-25" d="M128.86,196.92H461.07a6.21,6.21,0,0,0,6.21-6.21h0a6.21,6.21,0,0,0-6.21-6.21H128.86a6.21,6.21,0,0,0-6.21,6.21h0A6.21,6.21,0,0,0,128.86,196.92Z" transform="translate(-9.75)"/><path class="cls-26" d="M363.41,196.92h97.66a6.21,6.21,0,0,0,6.21-6.21h0a6.21,6.21,0,0,0-6.21-6.21H363.41a6.21,6.21,0,0,0-6.21,6.21h0A6.21,6.21,0,0,0,363.41,196.92Z" transform="translate(-9.75)"/><rect class="cls-27" x="436.22" y="196.92" width="12.44" height="144.67"/><rect class="cls-28" x="398.17" y="196.94" width="12.44" height="144.65"/><rect class="cls-29" x="398.17" y="196.94" width="6.23" height="144.65"/><rect class="cls-30" x="121.77" y="196.94" width="12.44" height="144.65"/><rect class="cls-31" x="159.82" y="196.92" width="12.42" height="144.67"/><rect class="cls-32" x="121.77" y="196.94" width="6.23" height="144.65"/><polygon class="cls-33" points="448.65 196.92 448.65 200.91 436.23 209.79 436.23 196.92 448.65 196.92"/><polygon class="cls-34" points="398.18 196.92 410.6 196.92 410.6 200.91 398.18 209.79 398.18 196.92"/><polygon class="cls-35" points="159.82 196.92 172.25 196.92 172.25 200.91 159.82 209.79 159.82 196.92"/><polygon class="cls-36" points="134.19 196.92 134.19 200.91 121.77 209.79 121.77 196.92 134.19 196.92"/><polygon class="cls-37" points="375.66 147.48 260.79 147.48 269.23 72.71 384.1 72.71 375.66 147.48"/><polygon class="cls-38" points="272.09 78.09 270.87 88.87 262.43 163.64 377.3 163.64 385.74 88.87 386.96 78.09 272.09 78.09"/><polygon class="cls-39" points="375.66 162 260.79 162 269.23 87.23 384.1 87.23 375.66 162"/><polygon class="cls-40" points="372.92 157.75 264.49 157.75 268.57 121.54 377.01 121.54 372.92 157.75"/><polygon class="cls-41" points="298.47 153.51 267.52 153.51 270.84 124.12 301.79 124.12 298.47 153.51"/><polygon class="cls-42" points="307.99 142.17 283.09 142.17 285.76 118.52 310.66 118.52 307.99 142.17"/><polygon class="cls-43" points="292.99 116.65 269.12 116.65 270.02 108.76 293.88 108.76 292.99 116.65"/><polygon class="cls-44" points="284.42 111.19 272.92 111.19 273.04 110.1 284.54 110.1 284.42 111.19"/><polygon class="cls-41" points="373.19 135.94 342.24 135.94 344.12 119.32 375.06 119.32 373.19 135.94"/><polygon class="cls-45" points="372.76 139.71 341.81 139.71 341.95 138.52 372.9 138.52 372.76 139.71"/><polygon class="cls-45" points="372.48 142.17 341.54 142.17 341.67 140.98 372.62 140.98 372.48 142.17"/><polygon class="cls-43" points="321.18 113.87 297.31 113.87 298.2 105.98 322.07 105.98 321.18 113.87"/><polygon class="cls-46" points="384.24 116.65 332.18 116.65 333.07 108.76 385.13 108.76 384.24 116.65"/><polygon class="cls-43" points="354.59 111.19 334.73 111.19 334.85 110.1 354.71 110.1 354.59 111.19"/><polygon class="cls-43" points="354.36 113.25 334.5 113.25 334.62 112.16 354.48 112.16 354.36 113.25"/><polygon class="cls-40" points="371.74 103.91 263.3 103.91 264.53 93.03 372.96 93.03 371.74 103.91"/><polygon class="cls-47" points="370.23 102.42 362.34 102.42 363.23 94.52 371.12 94.52 370.23 102.42"/><polygon class="cls-41" points="358.93 102.42 351.04 102.42 351.93 94.52 359.82 94.52 358.93 102.42"/><polygon class="cls-41" points="347.63 102.42 339.74 102.42 340.63 94.52 348.52 94.52 347.63 102.42"/><polygon class="cls-41" points="293.26 96.43 267.32 96.43 267.49 94.91 293.43 94.91 293.26 96.43"/><polygon class="cls-41" points="292.95 99.14 267.01 99.14 267.19 97.61 293.13 97.61 292.95 99.14"/><polygon class="cls-41" points="278.21 101.84 266.71 101.84 266.88 100.32 278.38 100.32 278.21 101.84"/><polygon class="cls-41" points="336.77 146.77 305.83 146.77 307.7 130.15 338.65 130.15 336.77 146.77"/><polygon class="cls-45" points="336.35 150.54 305.4 150.54 305.54 149.35 336.49 149.35 336.35 150.54"/><polygon class="cls-45" points="336.07 153 305.12 153 305.26 151.81 336.21 151.81 336.07 153"/><polygon class="cls-42" points="335.84 137.98 323.97 137.98 325.14 127.63 337.01 127.63 335.84 137.98"/><polygon class="cls-48" points="384.1 87.23 269.23 87.23 270.44 76.44 385.32 76.44 384.1 87.23"/><polygon class="cls-49" points="382.23 84.97 271.6 84.97 272.01 81.41 382.63 81.41 382.23 84.97"/><polygon class="cls-43" points="273.99 80.21 272.14 80.21 272.35 78.36 274.2 78.36 273.99 80.21"/><polygon class="cls-43" points="277.28 80.21 275.43 80.21 275.64 78.36 277.49 78.36 277.28 80.21"/><polygon class="cls-43" points="280.57 80.21 278.72 80.21 278.93 78.36 280.77 78.36 280.57 80.21"/><polygon class="cls-50" points="281.01 173.31 263.3 77.72 386.96 77.72 300.15 173.31 281.01 173.31"/><g class="cls-51"><path class="cls-52" d="M363.72,73.72,367,82a.9.9,0,0,1-.5,1.17l-16,6.4a.9.9,0,0,1-1.17-.5L346,80.79a.9.9,0,0,1,.5-1.17l16-6.4a.9.9,0,0,1,1.17.5Z" transform="translate(-9.75)"/><path class="cls-53" d="M363.2,73.21l-4.6,8.09A3.13,3.13,0,0,1,355,82.75l-8.91-2.68a.9.9,0,0,1,.47-.44l16-6.4A.9.9,0,0,1,363.2,73.21Z" transform="translate(-9.75)"/></g><path class="cls-54" d="M305.7,175.27h-11.5a18.66,18.66,0,0,0-15.44,8.17L278,184.5h43.81l-.72-1.05A18.66,18.66,0,0,0,305.7,175.27Z" transform="translate(-9.75)"/><ellipse class="cls-55" cx="290.19" cy="176.71" rx="7.1" ry="0.68"/><g class="cls-56"><path class="cls-57" d="M329.7,63.31a14.54,14.54,0,0,0-21.22,6.5l13.37,5.75Z" transform="translate(-9.75)"/><path class="cls-58" d="M335.63,70.88l-13.78,4.67-14.54-.48c0,.16,0,.32,0,.48a14.55,14.55,0,1,0,29.1,0A14.4,14.4,0,0,0,335.63,70.88Z" transform="translate(-9.75)"/><path class="cls-59" d="M335.63,70.88a14.5,14.5,0,0,0-5.93-7.57l-7.85,12.25Z" transform="translate(-9.75)"/><path class="cls-60" d="M308.48,69.81a14.21,14.21,0,0,0-1.17,5.26l14.54.48Z" transform="translate(-9.75)"/></g><path class="cls-61" d="M273.53,327.47c.75,1.25.83,3.22,5.46,5s14.29,2.18,9,4.16a25.49,25.49,0,0,1-12.56,1.32c-3.18-.33-5.05.17-8.78.32-4.9.21-5-.08-4.56-5.45C262.68,325.4,271.12,323.43,273.53,327.47Z" transform="translate(-9.75)"/><path class="cls-62" d="M262.68,327.31c8-27.47,11.71-78.85,25.5-98.93,8.76-12.76,25.77-7.72,19.47,9.39-6.74,18.29-23.82,52.43-33.39,88.87C273.32,330.22,261.78,330.53,262.68,327.31Z" transform="translate(-9.75)"/><path class="cls-63" d="M302.73,244.11c7.32-2.7,13.66-27.73-13.28-24.36-12,1.5-54.21,4.69-60.57,5.47s-15.64,2.32-16.66,5.58c-5.08,16.28,14.69,30.93,38.47,25.6C266.58,252.84,287.56,249.71,302.73,244.11Z" transform="translate(-9.75)"/><path class="cls-64" d="M230.78,181.83c-3.91,3-8.1,2.92-19.57,4.3-16.53,2-20.58,1.39-31.09-1-6.86-1.57-1.46-16.54,8-16.95,8-.35,36,8.11,40.87,7.88C232.25,175.89,234,179.42,230.78,181.83Z" transform="translate(-9.75)"/><path class="cls-65" d="M177.79,177.41c.72-3.78,3.61-11.94,15.49-29.27A134.64,134.64,0,0,1,207,130.63c4.75-5.22,11.81-3.44,13.45-.12,2.65,5.35,2.62,14.39.3,17.27-13.1,16.28-24.16,28-26.64,32.51C190.54,186.86,176.94,181.88,177.79,177.41Z" transform="translate(-9.75)"/><path class="cls-61" d="M294.18,329.82c.75,1.25,4.16,4.06,8.8,5.79s14.29,2.18,9,4.16-11.54,1.24-14.71.91a66.55,66.55,0,0,0-10-.1c-4.9.21-5-.08-4.56-5.44C283.32,327.75,291.76,325.78,294.18,329.82Z" transform="translate(-9.75)"/><path class="cls-66" d="M217.33,100.64c1,9.93,1.28,12.13,5.62,16.2s11.12,4.66,15.82,4.66c5.08,0,8.44-6.13,9.59-10.33s2.42-12.52,1-23.4c-.72-5.51-7.53-12.2-14.54-12.2S214.91,76.37,217.33,100.64Z" transform="translate(-9.75)"/><path class="cls-66" d="M222.39,118.13c-.27,3.44-.52,7.41-.64,11a9.48,9.48,0,0,0,8.27,9.62,5.28,5.28,0,0,0,.54,0c4.29,0,9.34-3.88,9-8.18-.25-2.79-.34-5.61-.35-8.07a11.16,11.16,0,0,0-7.44-10.47h0A7,7,0,0,0,222.39,118.13Z" transform="translate(-9.75)"/><path class="cls-67" d="M202.52,160.58c8,26.2,10.59,41.87,9,60.17h60s-.35-44.54-4.37-75.33c-.93-7.16-5.05-13.61-12.67-17.65-4.52-2.4-12.68-3.54-16-3.54H227.44a42,42,0,0,0-11.71,1.46C199.36,130.7,197.9,145.39,202.52,160.58Z" transform="translate(-9.75)"/><path class="cls-68" d="M211.79,257.47s-5.19-12.6-.24-36.72h60a341,341,0,0,1,2.19,36.72Z" transform="translate(-9.75)"/><path class="cls-69" d="M283.22,330.15c10.22-26.72,18.12-77.63,33.5-96.52,9.78-12,26.32-5.59,18.64,10.95-8.21,17.68-28,50.31-40.54,85.85C293.59,333.92,282.07,333.29,283.22,330.15Z" transform="translate(-9.75)"/><path class="cls-70" d="M329.95,250.5c7.52-2.09,15.88-26.52-11.25-25.36-12,.51-54.41.24-60.81.5s-15.78,1-17.06,4.2c-6.39,15.81,12.11,32,36.25,28.66C293.2,256.26,314.36,254.84,329.95,250.5Z" transform="translate(-9.75)"/><ellipse class="cls-66" cx="250" cy="99.88" rx="6.72" ry="3.52" transform="translate(53.24 293.54) rotate(-67.78)"/><ellipse class="cls-66" cx="217.62" cy="99.88" rx="3.52" ry="6.72" transform="translate(-31.36 89.74) rotate(-22.23)"/><path class="cls-71" d="M220.39,81.07c3.87,5.77,22.56,6.31,28.66,4.19s5.68-13.92-3.05-14.73c-4.91,0-1.36,1.17-5.34,2.78C238.64,74.12,216.26,74.9,220.39,81.07Z" transform="translate(-9.75)"/><path class="cls-66" d="M328.56,140.88c2.5-1.56,23.89-15.14,23.63-9.82-.28,5.88-7.62,12.22-10.28,14-4.85,3.31-10.08,4.39-12.08,1.78C328.42,145,326.18,142.37,328.56,140.88Z" transform="translate(-9.75)"/><path class="cls-72" d="M332.79,139.76c-4.53,1-31.8,9.2-40.32,13.49-4.93-2.7-15.59-13.7-32.92-24.11-6.43-3.86-12.29-2.55-17.51.34-3.24,1.79-4.69,8.93.74,13.43a134.56,134.56,0,0,0,18.12,13c17.86,11.08,26.14,13.6,29.95,14.14a2.15,2.15,0,0,0,.47,0h.15a2.33,2.33,0,0,0,.39-.08,4.4,4.4,0,0,0,.73-.15c7.11-2.44,16.1-6,29.51-13.91,11-6.45,12.14-5.87,14.36-10.19C338.24,142.13,335.23,139.22,332.79,139.76Z" transform="translate(-9.75)"/><path class="cls-73" d="M241.42,80.07c5.76,3.48,7.09,6.52,6.93,13.64s-3.21,19.26-16.31,22-16.19-10.29-17-19.26-.28-15.67,6.35-17.28C231.24,76.74,237.93,78,241.42,80.07Z" transform="translate(-9.75)"/><path class="cls-74" d="M289.11,334.12a4.35,4.35,0,0,1-4.26-3.48H210.62a4.35,4.35,0,0,1-8.61-.87,7.83,7.83,0,0,1,7.82-7.82h75.8a7.83,7.83,0,0,1,7.82,7.82A4.35,4.35,0,0,1,289.11,334.12Z" transform="translate(-9.75)"/><path class="cls-75" d="M311.14,257.41h-22.9c-12.11,0-19.8-6.39-21.64-18-2.26-14.22-6.46-60.71-6.5-61.18a5.42,5.42,0,0,0-6.65-4.81h-69a6.9,6.9,0,0,0-5.57,7.16c.17,1.93,4.28,47.36,6.6,62,2.7,16.94,14.83,27.06,32.47,27.06h91.92a7,7,0,0,0,6.74-6.1A5.38,5.38,0,0,0,311.14,257.41Z" transform="translate(-9.75)"/><path class="cls-76" d="M256.62,280.12H238.85a1.4,1.4,0,0,1-1.4-1.4v-9.1H258v9.1A1.4,1.4,0,0,1,256.62,280.12Z" transform="translate(-9.75)"/><rect class="cls-77" x="231.08" y="280.12" width="13.81" height="40.9"/><path class="cls-78" d="M257,326.3H238.45V314.93a1.38,1.38,0,0,1,1.38-1.38h15.8a1.38,1.38,0,0,1,1.38,1.38Z" transform="translate(-9.75)"/><path class="cls-79" d="M266.27,334.12a4.35,4.35,0,0,1-4.26-3.48H233.45a4.35,4.35,0,0,1-8.6-.87,7.83,7.83,0,0,1,7.82-7.82H262.8a7.83,7.83,0,0,1,7.82,7.82A4.34,4.34,0,0,1,266.27,334.12Z" transform="translate(-9.75)"/><circle class="cls-80" cx="220.89" cy="335.69" r="5.92"/><circle class="cls-81" cx="218" cy="335.69" r="5.92"/><circle class="cls-82" cx="257.97" cy="335.69" r="5.92"/><circle class="cls-83" cx="255.08" cy="335.69" r="5.92"/><circle class="cls-84" cx="198.05" cy="335.69" r="5.92"/><circle class="cls-85" cx="195.16" cy="335.69" r="5.92"/><circle class="cls-86" cx="280.8" cy="335.69" r="5.92"/><circle class="cls-87" cx="277.91" cy="335.69" r="5.92"/><polygon class="cls-88" points="244.88 285 231.08 281.14 231.08 280.12 244.88 280.12 244.88 285"/><polygon class="cls-89" points="248.27 274.49 227.69 270.64 227.69 269.61 248.27 269.61 248.27 274.49"/><path class="cls-77" d="M309.85,269.61h-22.9c-17.63,0-29.77-10.12-32.47-27.06-2.32-14.6-6.43-60-6.6-62a6.9,6.9,0,0,1,5.57-7.16,5.42,5.42,0,0,1,6.65,4.81c0,.47,4.24,47,6.5,61.18,1.85,11.6,9.53,18,21.64,18h22.9a5.38,5.38,0,0,1,5.45,6.1A7,7,0,0,1,309.85,269.61Z" transform="translate(-9.75)"/><g class="cls-90"><path class="cls-91" d="M126.4,44.62c30-19.37,80.36,10.86,104.24,40.66C255,115.7,198.49,132.8,219.88,165c24.95,37.53,10.38,52.6,19.26,87.46,8,31.32,58.78,8.83,87.85,53.31,44.67,68.36,1.16,169.83-42.77,207.32-45.1,38.5-87.11-29.45-145.66-72.23C95.34,409.27,62.24,371.6,65.88,333.13c5.22-55.23,60.58-25.38,24.77-73.84-21.43-29-44.27-85.26,6-97S83.21,72.52,126.4,44.62Z" transform="translate(-9.75)"/></g></g></g></g></svg>