<svg xmlns="http://www.w3.org/2000/svg" viewBox="0 0 243.17 243.17"><defs><style>.cls-1{fill:#ed0f0f;opacity:0.1;}.cls-2{fill:none;stroke:#0037ff;stroke-miterlimit:10;}</style></defs><title>srazu</title><g id="Слой_2" data-name="Слой 2"><g id="Designed_by_Freepik" data-name="Designed by Freepik"><circle class="cls-1" cx="121.58" cy="121.58" r="121.58"/><path class="cls-2" d="M93.36,189.89l-8.3,8.1-7.92,7.73A7.17,7.17,0,0,1,67,195.59l6.17-6.17,6.4-6.41Z"/><path class="cls-2" d="M171.94,207.83a7.16,7.16,0,0,1-5.07-2.1L159,198l-8.3-8.1L164.43,183l6.4,6.41,6.17,6.17A7.17,7.17,0,0,1,171.94,207.83Z"/><path class="cls-2" d="M79.58,183l13.78,6.89-8.3,8.1a73.72,73.72,0,0,1-11.88-8.58Z"/><path class="cls-2" d="M170.84,189.42A73.72,73.72,0,0,1,159,198l-8.3-8.1L164.43,183Z"/><rect class="cls-2" x="114.02" y="42.91" width="15.96" height="17.56"/><rect class="cls-2" x="106.82" y="35.34" width="30.37" height="10.64" rx="4.17" ry="4.17"/><rect class="cls-2" x="57.7" y="71.89" width="12.98" height="14.28" transform="translate(-37.08 68.54) rotate(-45)"/><rect class="cls-2" x="45.51" y="68.36" width="24.68" height="8.65" rx="3.39" ry="3.39" transform="translate(-34.46 62.2) rotate(-45)"/><circle class="cls-2" cx="122.01" cy="128.74" r="73.69"/><path class="cls-2" d="M183,128.38a61,61,0,0,1-61,61,61.51,61.51,0,0,1-9.4-.72,60.32,60.32,0,0,1-14.35-4.08q-1.29-.54-2.55-1.15a60.8,60.8,0,0,1-16.85-11.93q-1.2-1.2-2.33-2.46A61,61,0,0,1,162.7,82.9Q164,84,165.15,85.23a60.8,60.8,0,0,1,11.93,16.85q.6,1.26,1.15,2.55A60.33,60.33,0,0,1,182.31,119,61.49,61.49,0,0,1,183,128.38Z"/><rect class="cls-2" x="120.98" y="78.62" width="2.05" height="11.45" rx="1.03" ry="1.03"/><rect class="cls-2" x="120.98" y="166.68" width="2.05" height="11.45" rx="1.03" ry="1.03"/><rect class="cls-2" x="72.25" y="127.35" width="11.45" height="2.05" rx="1.03" ry="1.03"/><rect class="cls-2" x="160.31" y="127.35" width="11.45" height="2.05" rx="1.03" ry="1.03"/><rect class="cls-2" x="147.42" y="96.22" width="11.45" height="2.05" transform="translate(-23.91 136.75) rotate(-44.99)"/><path class="cls-2" d="M86.83,163.56h0a1,1,0,0,1,0-1.45l6.64-6.64a1,1,0,0,1,1.45,0h0a1,1,0,0,1,0,1.45l-6.64,6.64A1,1,0,0,1,86.83,163.56Z"/><path class="cls-2" d="M94.92,101.29h0a1,1,0,0,1-1.45,0l-6.64-6.64a1,1,0,0,1,0-1.45h0a1,1,0,0,1,1.45,0l6.64,6.64A1,1,0,0,1,94.92,101.29Z"/><path class="cls-2" d="M157.19,163.56h0a1,1,0,0,1-1.45,0l-6.64-6.64a1,1,0,0,1,0-1.45h0a1,1,0,0,1,1.45,0l6.64,6.64A1,1,0,0,1,157.19,163.56Z"/><path class="cls-2" d="M139.57,136,121,128.66l.64-1.64,18.59,7.32a.88.88,0,0,1,.5,1.14h0A.88.88,0,0,1,139.57,136Z"/><path class="cls-2" d="M122.89,129.26H91.75a.88.88,0,0,1-.88-.88h0a.88.88,0,0,1,.88-.88h29.37v-24a.88.88,0,0,1,.88-.88h0a.88.88,0,0,1,.88.88Z"/></g></g></svg>