<svg xmlns="http://www.w3.org/2000/svg" viewBox="0 0 243.17 243.17"><defs><style>.cls-1{fill:#ed0f0f;opacity:0.1;}.cls-2,.cls-3{fill:none;stroke:#0037ff;stroke-linecap:round;stroke-linejoin:round;}.cls-3{opacity:0.2;}</style></defs><title>target</title><g id="Слой_2" data-name="Слой 2"><g id="Designed_by_Freepik" data-name="Designed by Freepik"><circle class="cls-1" cx="121.58" cy="121.58" r="121.58"/><path class="cls-2" d="M78.57,190.17l-8.17,8-7.8,7.61a7.06,7.06,0,0,1-10-10l6.08-6.08L65,183.39Z"/><path class="cls-2" d="M156,207.83a7.05,7.05,0,0,1-5-2.07l-7.8-7.61-8.17-8,13.57-6.78,6.31,6.31,6.08,6.08A7.06,7.06,0,0,1,156,207.83Z"/><path class="cls-2" d="M65,183.39l13.57,6.78-8.17,8a72.59,72.59,0,0,1-11.7-8.45Z"/><path class="cls-2" d="M154.87,189.7a72.59,72.59,0,0,1-11.7,8.45l-8.17-8,13.57-6.78Z"/><circle class="cls-2" cx="107.93" cy="130.58" r="67.79"/><circle class="cls-2" cx="107.93" cy="130.58" r="56.67"/><circle class="cls-2" cx="107.93" cy="130.58" r="46.24"/><circle class="cls-2" cx="107.93" cy="130.58" r="31.66"/><circle class="cls-2" cx="107.93" cy="130.58" r="20.74"/><circle class="cls-2" cx="107.93" cy="130.58" r="10.05"/><circle class="cls-2" cx="107.93" cy="130.58" r="5.48"/><path class="cls-3" d="M173.54,133.36H107.29a2.76,2.76,0,1,1,0-5.53h66.25a2.76,2.76,0,0,1,0,5.53Z"/><path class="cls-2" d="M184.58,53.78,145.5,92.85l18.77-.12L203,54Z"/><path class="cls-2" d="M184.58,53.78,145.5,92.85l.12-18.77,38.75-38.75Z"/><path class="cls-2" d="M107.93,133.18a2.76,2.76,0,0,1-2-4.72l75.93-75.93a2.76,2.76,0,1,1,3.91,3.91l-75.93,75.93A2.75,2.75,0,0,1,107.93,133.18Z"/></g></g></svg>