<svg xmlns="http://www.w3.org/2000/svg" xmlns:xlink="http://www.w3.org/1999/xlink" viewBox="0 0 169.83 158.21"><defs><style>.cls-1,.cls-2,.cls-3,.cls-4{fill:none;stroke:#0037ff;stroke-linecap:round;stroke-linejoin:round;}.cls-2{opacity:0.4;}.cls-3,.cls-5{opacity:0.6;}.cls-4{opacity:0.5;}.cls-6{fill:url(#Gradient_bez_nazwy_5);}.cls-7{fill:url(#Gradient_bez_nazwy_5-2);}.cls-8{fill:#4e11f4;}.cls-9{fill:#ffaf84;}.cls-10{fill:url(#Gradient_bez_nazwy_5-3);}.cls-11{fill:url(#Gradient_bez_nazwy_5-4);}.cls-12{fill:url(#Gradient_bez_nazwy_3);}.cls-13{fill:url(#Gradient_bez_nazwy_3-2);}.cls-14{fill:url(#Gradient_bez_nazwy_3-3);}.cls-15{fill:url(#Gradient_bez_nazwy_3-4);}.cls-16{fill:url(#Gradient_bez_nazwy_3-5);}.cls-17{fill:url(#Gradient_bez_nazwy_5-5);}.cls-18{fill:url(#Gradient_bez_nazwy_3-6);}.cls-19{fill:url(#Gradient_bez_nazwy_3-7);}.cls-20{fill:url(#Gradient_bez_nazwy_10);}.cls-21{fill:url(#Gradient_bez_nazwy_10-2);}.cls-22{fill:#541968;}.cls-23{fill:url(#Gradient_bez_nazwy_10-3);}.cls-24{fill:url(#Gradient_bez_nazwy_5-6);}.cls-25{fill:url(#Gradient_bez_nazwy_5-7);}.cls-26{fill:url(#Gradient_bez_nazwy_5-8);}.cls-27{fill:url(#Gradient_bez_nazwy_5-9);}.cls-28{fill:url(#Gradient_bez_nazwy_5-10);}.cls-29{fill:url(#Gradient_bez_nazwy_4);}.cls-30{fill:url(#Gradient_bez_nazwy_10-4);}.cls-31{fill:url(#Gradient_bez_nazwy_10-5);}.cls-32{fill:url(#Gradient_bez_nazwy_4-2);}</style><linearGradient id="Gradient_bez_nazwy_5" x1="-410.23" y1="-589.8" x2="-392.21" y2="-557.55" gradientTransform="matrix(0.99, 0.16, -0.16, 0.99, 465.3, 698.74)" gradientUnits="userSpaceOnUse"><stop offset="0" stop-color="#36078b"/><stop offset="1" stop-color="#16b1ff"/></linearGradient><linearGradient id="Gradient_bez_nazwy_5-2" x1="-400.49" y1="-595.25" x2="-382.47" y2="-563" xlink:href="#Gradient_bez_nazwy_5"/><linearGradient id="Gradient_bez_nazwy_5-3" x1="-413.02" y1="-605.84" x2="-413.02" y2="-570.73" xlink:href="#Gradient_bez_nazwy_5"/><linearGradient id="Gradient_bez_nazwy_5-4" x1="-404.51" y1="-605.84" x2="-404.51" y2="-570.73" xlink:href="#Gradient_bez_nazwy_5"/><linearGradient id="Gradient_bez_nazwy_3" x1="-410.08" y1="-574.92" x2="-396.8" y2="-490.49" gradientTransform="matrix(0.99, 0.16, -0.16, 0.99, 465.3, 698.74)" gradientUnits="userSpaceOnUse"><stop offset="0" stop-color="blue"/><stop offset="1" stop-color="#9e005d"/></linearGradient><linearGradient id="Gradient_bez_nazwy_3-2" x1="633.63" y1="839.72" x2="646.39" y2="920.86" gradientTransform="translate(-625.49 -649.96) rotate(-9.56)" xlink:href="#Gradient_bez_nazwy_3"/><linearGradient id="Gradient_bez_nazwy_3-3" x1="-404.9" y1="-575.73" x2="-391.62" y2="-491.31" xlink:href="#Gradient_bez_nazwy_3"/><linearGradient id="Gradient_bez_nazwy_3-4" x1="-120.39" y1="-248.09" x2="-107.11" y2="-163.67" gradientTransform="matrix(1, 0.07, -0.07, 1, 231.8, 323.76)" xlink:href="#Gradient_bez_nazwy_3"/><linearGradient id="Gradient_bez_nazwy_3-5" x1="-418.34" y1="-573.62" x2="-405.06" y2="-489.19" xlink:href="#Gradient_bez_nazwy_3"/><linearGradient id="Gradient_bez_nazwy_5-5" x1="-4417.2" y1="-2166.07" x2="-4417.2" y2="-2130.96" gradientTransform="translate(900.21 4906.03) rotate(55.25)" xlink:href="#Gradient_bez_nazwy_5"/><linearGradient id="Gradient_bez_nazwy_3-6" x1="-413.18" y1="-621.25" x2="-398.59" y2="-604.18" xlink:href="#Gradient_bez_nazwy_3"/><linearGradient id="Gradient_bez_nazwy_3-7" x1="-411.92" y1="-622.26" x2="-397.38" y2="-605.24" xlink:href="#Gradient_bez_nazwy_3"/><linearGradient id="Gradient_bez_nazwy_10" x1="-7735.68" y1="-724.29" x2="-7735.68" y2="-691.95" gradientTransform="matrix(-0.06, 1.07, -1.01, -0.12, -1161.93, 8190.35)" gradientUnits="userSpaceOnUse"><stop offset="0" stop-color="#36078b"/><stop offset="1" stop-color="#168d68"/></linearGradient><linearGradient id="Gradient_bez_nazwy_10-2" x1="-7817.86" y1="-663.45" x2="-7817.86" y2="-619.02" gradientTransform="matrix(-0.09, 1, -1, -0.09, -1331.84, 7772.05)" xlink:href="#Gradient_bez_nazwy_10"/><linearGradient id="Gradient_bez_nazwy_10-3" x1="-8724.18" y1="50.54" x2="-8724.18" y2="115.82" gradientTransform="matrix(-1, 0, 0, 1, -8708.7, 0)" xlink:href="#Gradient_bez_nazwy_10"/><linearGradient id="Gradient_bez_nazwy_5-6" x1="-8725.82" y1="184.95" x2="-8725.82" y2="92.15" gradientTransform="matrix(-1, 0, 0, 1, -8708.7, 0)" xlink:href="#Gradient_bez_nazwy_5"/><linearGradient id="Gradient_bez_nazwy_5-7" x1="-8714.62" y1="184.95" x2="-8714.62" y2="92.15" gradientTransform="matrix(-1, 0, 0, 1, -8708.7, 0)" xlink:href="#Gradient_bez_nazwy_5"/><linearGradient id="Gradient_bez_nazwy_5-8" x1="-8719.15" y1="184.95" x2="-8719.15" y2="92.15" gradientTransform="matrix(-1, 0, 0, 1, -8708.7, 0)" xlink:href="#Gradient_bez_nazwy_5"/><linearGradient id="Gradient_bez_nazwy_5-9" x1="-7248.5" y1="-932.27" x2="-7248.5" y2="-1025.08" gradientTransform="matrix(-0.92, -0.38, -0.38, 0.92, -7045.27, -1733.7)" xlink:href="#Gradient_bez_nazwy_5"/><linearGradient id="Gradient_bez_nazwy_5-10" x1="-9723.17" y1="1875.66" x2="-9723.17" y2="1800.74" gradientTransform="matrix(-0.95, 0.31, 0.31, 0.95, -9771.57, 1420.14)" xlink:href="#Gradient_bez_nazwy_5"/><linearGradient id="Gradient_bez_nazwy_4" x1="-8675.21" y1="-10.44" x2="-8667.48" y2="-15.79" gradientTransform="matrix(-1, 0, 0, 1, -8708.7, 0)" gradientUnits="userSpaceOnUse"><stop offset="0" stop-color="#2c27ce"/><stop offset="0.65" stop-color="#ef1d68"/><stop offset="1" stop-color="#efba92"/></linearGradient><linearGradient id="Gradient_bez_nazwy_10-4" x1="42.1" y1="36.04" x2="52.59" y2="57.87" gradientTransform="matrix(1, 0, 0, 1, 0, 0)" xlink:href="#Gradient_bez_nazwy_10"/><linearGradient id="Gradient_bez_nazwy_10-5" x1="27.49" y1="40.59" x2="42.51" y2="71.1" gradientTransform="matrix(1, 0, 0, 1, 0, 0)" xlink:href="#Gradient_bez_nazwy_10"/><linearGradient id="Gradient_bez_nazwy_4-2" x1="14.55" y1="27.39" x2="7.39" y2="44.79" gradientTransform="matrix(1, 0, 0, 1, 0, 0)" xlink:href="#Gradient_bez_nazwy_4"/></defs><title>tech</title><g id="Слой_2" data-name="Слой 2"><g id="Designed_by_Freepik" data-name="Designed by Freepik"><polygon class="cls-1" points="154.21 40.31 154.21 131.14 27.05 131.14 27.05 48.37 154.21 40.31"/><polygon class="cls-2" points="60.2 100.3 87.27 99.67 87.27 62.48 60.2 63.84 60.2 100.3"/><polygon class="cls-3" points="64.07 86.96 32.53 87.99 32.53 54.33 64.07 52.48 64.07 86.96"/><path class="cls-1" d="M58.07,70.08c0,5.94-4.48,10.93-10,11.13S38.3,76.84,38.3,71s4.38-10.83,9.81-11.13S58.07,64.14,58.07,70.08Z" transform="translate(0)"/><path class="cls-1" d="M55.65,70.19a8.71,8.71,0,0,1-3.08,6.68A7.76,7.76,0,0,1,50.74,78a7.48,7.48,0,0,1-.9.33l-.56.14a6.79,6.79,0,0,1-1.16.14,7,7,0,0,1-2.22-.27,7.62,7.62,0,0,1-5.23-7.48,8.81,8.81,0,0,1,.74-3.54A8.43,8.43,0,0,1,44,64a7.87,7.87,0,0,1,.81-.55,7.39,7.39,0,0,1,1.95-.8,7,7,0,0,1,8.39,4.62A8.31,8.31,0,0,1,55.65,70.19Z" transform="translate(0)"/><path class="cls-1" d="M48.11,71.46a.92.92,0,0,1-.92-.92V65.36a.92.92,0,1,1,1.84,0v5.18A.92.92,0,0,1,48.11,71.46Z" transform="translate(0)"/><path class="cls-1" d="M48.11,71.46a.92.92,0,0,1-.54-1.66L50.07,68a.92.92,0,1,1,1.08,1.49l-2.5,1.81A.91.91,0,0,1,48.11,71.46Z" transform="translate(0)"/><polygon class="cls-4" points="150.31 125.33 24.11 125.85 24.11 44.1 150.31 35.66 150.31 125.33"/><path class="cls-1" d="M74.87,84.71a8.41,8.41,0,0,1-9.63-1.77,9.16,9.16,0,0,1-2.39-4.58l4.31-1.18a4.29,4.29,0,0,0,6,3.18Z" transform="translate(0)"/><path class="cls-1" d="M77.9,82.48l-.22.22-3.07-3.35A5.11,5.11,0,0,0,76,75.8a4.41,4.41,0,0,0-4.51-4.58,4.71,4.71,0,0,0-4,2.83l-4-1.92a10,10,0,0,1,1.68-2.58A8.62,8.62,0,0,1,77.9,69,9.92,9.92,0,0,1,77.9,82.48Z" transform="translate(0)"/><path class="cls-1" d="M67.06,76.17a5,5,0,0,0,.1,1l-4.31,1.18a10.12,10.12,0,0,1,.71-6.23l4,1.92A5.09,5.09,0,0,0,67.06,76.17Z" transform="translate(0)"/><path class="cls-1" d="M77.69,82.71a9.27,9.27,0,0,1-2.82,2l-1.66-4.35a4.69,4.69,0,0,0,1.41-1Z" transform="translate(0)"/><polygon class="cls-1" points="79.75 87.08 79.75 86.15 77.99 86.21 77.99 87.14 79.75 87.08"/><polygon class="cls-1" points="82.89 86.98 82.89 86.05 81.12 86.11 81.12 87.04 82.89 86.98"/><polygon class="cls-1" points="86.04 86.88 86.04 85.94 84.26 86 84.26 86.94 86.04 86.88"/><path class="cls-1" d="M84.81,69.6a1.59,1.59,0,0,0-1.73.45,1.79,1.79,0,0,0-.43.85l.78.14a.86.86,0,0,1,.79-.7.75.75,0,0,1,.3,0Z" transform="translate(0)"/><path class="cls-1" d="M85.35,70l0,0-.55.64a.83.83,0,0,1,.26.61.87.87,0,0,1-.81.88.76.76,0,0,1-.72-.44l-.72.4a1.54,1.54,0,0,0,2.57.34A1.75,1.75,0,0,0,85.35,70Z" transform="translate(0)"/><path class="cls-1" d="M83.41,71.23a.94.94,0,0,1,0-.18l-.78-.14a1.73,1.73,0,0,0,.13,1.1l.72-.4A.85.85,0,0,1,83.41,71.23Z" transform="translate(0)"/><path class="cls-1" d="M85.31,69.91a1.48,1.48,0,0,0-.5-.31l-.3.79a.74.74,0,0,1,.25.16Z" transform="translate(0)"/><path class="cls-1" d="M82.75,82.12a1.53,1.53,0,0,0,1.47,1,1.58,1.58,0,0,0,.87-.3l-.43-.69a.77.77,0,0,1-1-.08.81.81,0,0,1-.17-.26Z" transform="translate(0)"/><path class="cls-1" d="M82.62,81.46s0,0,0,.06l.8-.06a.9.9,0,0,1,.24-.63.78.78,0,0,1,1.14,0,.86.86,0,0,1,.19.86l.76.24a1.76,1.76,0,0,0,.09-.55,1.58,1.58,0,0,0-1.61-1.63A1.72,1.72,0,0,0,82.62,81.46Z" transform="translate(0)"/><path class="cls-1" d="M84.79,82l-.13.12.43.69a1.75,1.75,0,0,0,.65-.9L85,81.65A.88.88,0,0,1,84.79,82Z" transform="translate(0)"/><path class="cls-1" d="M82.62,81.52a1.68,1.68,0,0,0,.13.61l.73-.36a.87.87,0,0,1-.06-.3Z" transform="translate(0)"/><path class="cls-1" d="M84.85,77.82a1.77,1.77,0,0,0,1-1.59,1.67,1.67,0,0,0-.26-.9l-.67.48a.89.89,0,0,1-.11,1.06.84.84,0,0,1-.25.19Z" transform="translate(0)"/><path class="cls-1" d="M84.22,78h.05l0-.84a.75.75,0,0,1-.6-.22.88.88,0,0,1,0-1.2.8.8,0,0,1,.83-.24l.26-.81a1.48,1.48,0,0,0-.52-.07,1.73,1.73,0,0,0-1.6,1.75A1.57,1.57,0,0,0,84.22,78Z" transform="translate(0)"/><path class="cls-1" d="M84.79,75.68a.81.81,0,0,1,.11.14l.67-.48a1.52,1.52,0,0,0-.84-.65l-.26.81A.75.75,0,0,1,84.79,75.68Z" transform="translate(0)"/><path class="cls-1" d="M84.27,78a1.57,1.57,0,0,0,.58-.16l-.32-.76a.78.78,0,0,1-.29.08Z" transform="translate(0)"/><polygon class="cls-1" points="154.21 40.31 27.05 48.38 27.05 36.44 154.21 27.21 154.21 40.31"/><polygon class="cls-1" points="151.64 37.73 29.19 45.73 29.19 41.79 151.64 33.42 151.64 37.73"/><polygon class="cls-1" points="31.07 40.33 29.19 40.46 29.19 38.41 31.07 38.27 31.07 40.33"/><polygon class="cls-1" points="34.41 40.09 32.53 40.23 32.53 38.17 34.41 38.04 34.41 40.09"/><polygon class="cls-1" points="37.77 39.86 35.88 39.99 35.88 37.93 37.77 37.8 37.77 39.86"/><polygon class="cls-4" points="83.42 118.22 145.68 117.63 145.68 45.57 83.42 49.31 83.42 118.22"/><path class="cls-1" d="M91.71,64.85a1.61,1.61,0,0,1-1.12-.45,1.72,1.72,0,0,1-.53-1.26V53.7a1.85,1.85,0,0,1,1.69-1.85l55.54-3.2a1.73,1.73,0,0,1,1.85,1.75v9.83a1.92,1.92,0,0,1-1.8,1.9l-55.54,2.7Zm55.69-15.36h-.06l-55.54,3.2a1,1,0,0,0-.91,1v9.43a.9.9,0,0,0,.27.66.81.81,0,0,0,.59.22l55.54-2.7a1.08,1.08,0,0,0,1-1.07V50.41a.92.92,0,0,0-.28-.68A.9.9,0,0,0,147.39,49.49Z" transform="translate(0)"/><path class="cls-1" d="M91.72,80.88a1.63,1.63,0,0,1-1.14-.46,1.74,1.74,0,0,1-.53-1.27V69.72a1.83,1.83,0,0,1,1.69-1.83l55.54-2.55a1.74,1.74,0,0,1,1.3.48,1.76,1.76,0,0,1,.54,1.28v9.83a1.9,1.9,0,0,1-1.81,1.88L91.78,80.87Zm55.66-14.71h0L91.79,68.72a1,1,0,0,0-.9,1v9.43a.91.91,0,0,0,.27.67.83.83,0,0,0,.59.23L147.3,78a1.06,1.06,0,0,0,1-1.05V67.1a.93.93,0,0,0-.29-.68A.92.92,0,0,0,147.38,66.17Z" transform="translate(0)"/><path class="cls-1" d="M91.73,96.91a1.64,1.64,0,0,1-1.15-.47,1.75,1.75,0,0,1-.53-1.27V85.73a1.8,1.8,0,0,1,1.7-1.82L147.3,82a1.82,1.82,0,0,1,1.3.5,1.77,1.77,0,0,1,.54,1.29v9.83a1.87,1.87,0,0,1-1.81,1.87L91.78,96.9Zm55.62-14.06h0l-55.54,1.9a1,1,0,0,0-.9,1v9.43a.93.93,0,0,0,.28.67.88.88,0,0,0,.59.23l55.54-1.4a1,1,0,0,0,1-1V83.8a1,1,0,0,0-.29-.69A.94.94,0,0,0,147.36,82.85Z" transform="translate(0)"/><path class="cls-1" d="M91.75,112.94a1.66,1.66,0,0,1-1.17-.48,1.77,1.77,0,0,1-.52-1.27v-9.43a1.78,1.78,0,0,1,1.7-1.8L147.3,98.7a1.85,1.85,0,0,1,1.29.51,1.79,1.79,0,0,1,.54,1.29v9.83a1.85,1.85,0,0,1-1.82,1.85l-55.54.76Zm0-.83v0l55.54-.76a1,1,0,0,0,1-1V100.5a1,1,0,0,0-.29-.7,1,1,0,0,0-.69-.27l-55.54,1.25a1,1,0,0,0-.89,1v9.43a.94.94,0,0,0,.28.68A.77.77,0,0,0,91.76,112.1Z" transform="translate(0)"/><polygon class="cls-4" points="118.37 88.88 142.39 88.16 142.39 86.23 118.37 86.99 118.37 88.88"/><polygon class="cls-4" points="126.13 92.03 142.39 91.58 142.39 89.66 126.13 90.13 126.13 92.03"/><polygon class="cls-4" points="120.28 92.2 124.27 92.08 124.27 90.18 120.28 90.3 120.28 92.2"/><polygon class="cls-4" points="118.37 56.59 142.39 55.31 142.39 53.38 118.37 54.7 118.37 56.59"/><polygon class="cls-4" points="128 59.47 142.39 58.73 142.39 56.81 128 57.56 128 59.47"/><polygon class="cls-4" points="111.25 60.32 126.13 59.56 126.13 57.66 111.25 58.44 111.25 60.32"/><polygon class="cls-4" points="132.7 104.96 142.39 104.78 142.39 102.86 132.7 103.05 132.7 104.96"/><polygon class="cls-4" points="121.38 105.17 130.91 104.99 130.91 103.08 121.38 103.27 121.38 105.17"/><polygon class="cls-4" points="126.13 108.47 142.39 108.2 142.39 106.28 126.13 106.56 126.13 108.47"/><polygon class="cls-4" points="108.65 108.75 124.27 108.5 124.27 106.59 108.65 106.87 108.65 108.75"/><path class="cls-1" d="M94.57,78l55.78-2.16a1.48,1.48,0,0,0,1.41-1.47V64.53a1.34,1.34,0,0,0-1.41-1.35L94.57,65.84a1.41,1.41,0,0,0-1.3,1.42v9.45A1.27,1.27,0,0,0,94.57,78Z" transform="translate(0)"/><g class="cls-5"><polygon class="cls-1" points="124.72 67.92 148.72 66.83 148.72 65.4 124.72 66.5 124.72 67.92"/><polygon class="cls-1" points="124.72 70.43 148.72 69.39 148.72 67.95 124.72 69.02 124.72 70.43"/><polygon class="cls-1" points="137.98 72.39 148.72 71.95 148.72 70.51 137.98 70.97 137.98 72.39"/></g><polygon class="cls-1" points="104.46 73.85 110.68 73.6 110.68 67.15 104.46 67.44 104.46 73.85"/><polygon class="cls-3" points="97.28 74.15 103.44 73.9 103.44 67.48 97.28 67.77 97.28 74.15"/><path class="cls-1" d="M19.46,29.43,151.75,65.5a3.34,3.34,0,0,0,4.1-2.34l6.1-22.38a3.34,3.34,0,0,0-2.34-4.1L27.31.62A3.34,3.34,0,0,0,23.22,3l-6.1,22.38A3.34,3.34,0,0,0,19.46,29.43Z" transform="translate(0)"/><g class="cls-5"><rect class="cls-1" x="124.55" y="5.68" width="3.39" height="57.79" transform="translate(59.69 147.28) rotate(-74.75)"/><rect class="cls-1" x="122.96" y="11.49" width="3.39" height="57.79" transform="translate(52.91 150.03) rotate(-74.75)"/><rect class="cls-1" x="136.9" y="37.62" width="3.39" height="25.62" transform="translate(53.48 170.88) rotate(-74.75)"/></g><rect class="cls-3" x="47.88" y="13.86" width="15.63" height="15.62" transform="translate(20.14 69.71) rotate(-74.75)"/><rect class="cls-3" x="30.34" y="9.08" width="15.63" height="15.62" transform="translate(11.82 49.26) rotate(-74.75)"/><path class="cls-6" d="M149.43,72.9c1.53.78,3,.5,7,.26,5.82-.35,7.17-.8,10.64-2.29,2.27-1-.53-5.79-3.82-5.34-2.79.38-11.89,5-13.58,5.26C148.55,70.95,148.18,72.27,149.43,72.9Z" transform="translate(0)"/><path class="cls-7" d="M167.81,70.12c.59-1.21,1.5-4.1,1.81-11.45a47,47,0,0,0-.18-7.79c-.23-2.46-2.58-3.44-3.74-2.86-1.86.94-3.75,3.48-3.71,4.77.25,7.31.89,12.91.63,14.69C162.25,70.09,167.1,71.55,167.81,70.12Z" transform="translate(0)"/><path class="cls-8" d="M162.71,152.1a11.16,11.16,0,0,0-.26,1.9c-.13.77-.86,1-1.28,1.67s-1.2,1.7,1.66,1.75c3.06.06,4.87,0,4.35-1.7a8.49,8.49,0,0,1-.58-2.95,1.8,1.8,0,0,0-.35-1.44C165.91,151,163.16,150.43,162.71,152.1Z" transform="translate(0)"/><path class="cls-8" d="M131.44,153.49a7.14,7.14,0,0,1-3,2.17c-1.59.68-5,1-3.09,1.61a11.63,11.63,0,0,0,5.16.07,23.11,23.11,0,0,1,3.48-.2c1.72,0,1.73-.11,1.5-2C135.2,152.58,132.22,152,131.44,153.49Z" transform="translate(0)"/><path class="cls-9" d="M166.3,37.4c-.88,3.38-1.1,4.12-2.82,5.29s-4.1,1-5.72.75-2.58-2.58-2.75-4.09a21.43,21.43,0,0,1,.93-8.14,5.62,5.62,0,0,1,5.69-3.43C164,28.16,168.46,29.15,166.3,37.4Z" transform="translate(0)"/><path class="cls-10" d="M144.15,64.25c1.15-.7,3.47-2.65,7.68-8.68a46.93,46.93,0,0,0,4-6.66c1.12-2.2-.33-4.29-1.61-4.42-2.08-.21-5,.91-5.7,2-3.72,6.29-6.2,11.36-7.37,12.73C139.49,61.24,142.79,65.08,144.15,64.25Z" transform="translate(0)"/><path class="cls-9" d="M163.6,43.17c-.09,1.2-.22,2.59-.38,3.84a3.32,3.32,0,0,1-3.38,2.88l-.19,0c-1.48-.23-3-1.85-2.65-3.31.24-1,.42-1.92.56-2.77a3.9,3.9,0,0,1,3.14-3.22h0A2.46,2.46,0,0,1,163.6,43.17Z" transform="translate(0)"/><path class="cls-11" d="M168.17,58.93c-4.18,8.63-6.57,17.93-7,24.34L140.4,80s3.18-19.41,6.24-29.84A8.06,8.06,0,0,1,152,44.76a15.1,15.1,0,0,1,5.72-.36l3.83.6a14.73,14.73,0,0,1,4,1.14C170.88,48.77,170.59,53.93,168.17,58.93Z" transform="translate(0)"/><path class="cls-12" d="M159.07,96s2.48-4.07,2.08-12.68L140.4,80a119.43,119.43,0,0,0-2.75,12.57Z" transform="translate(0)"/><path class="cls-13" d="M151.64,124.89c-2.79-6.46,3.89-8.81,6.89-4.3,4.24,6.38,7.71,26.87,8.29,31.3.07.58.29,1.27,0,1.52a4.49,4.49,0,0,1-2.13.72c-.78.11-1.53.24-1.77-.7C161.34,147.09,154.34,131.15,151.64,124.89Z" transform="translate(0)"/><path class="cls-14" d="M148.62,95.25c.59-8.51,4.94-14.5,9.71-10.91,2,1.51,2.44,4,2.39,6.21s-2,25.33-2.11,29.54c-.19,9.5-7.14,5.84-7.53,3.14C150.1,116.4,148.3,99.88,148.62,95.25Z" transform="translate(0)"/><path class="cls-15" d="M135.16,154.35c1-10,6.53-27.12,4.69-35.44-1.17-5.29-7.35-5.88-7.55.49-.21,6.82.86,20.14-.82,33.21C131.33,153.9,135,155.52,135.16,154.35Z" transform="translate(0)"/><path class="cls-16" d="M139.35,120.94c-1.22,2.44-8.71,4.32-6.5-4.93,1-4.1,5.44-26.89,6-29.07s1.4-5.35,2.58-5.58c5.86-1.14,10.2,6.29,7.44,14.36C147,101.11,141.88,115.87,139.35,120.94Z" transform="translate(0)"/><ellipse class="cls-9" cx="155.05" cy="35.37" rx="1.23" ry="2.35" transform="translate(-3.98 36.59) rotate(-13.29)"/><ellipse class="cls-9" cx="166.24" cy="37.13" rx="2.35" ry="1.23" transform="translate(48.5 160.22) rotate(-58.86)"/><path class="cls-17" d="M126.83,58.6c1.06,1.35,1.93,2.14,5.79,3.34a48.55,48.55,0,0,0,10.89,2.42c2.46.2,2.14-5.68-1-6.66-2.69-.82-12.9-.41-14.54-.92C126.85,56.46,126,57.5,126.83,58.6Z" transform="translate(0)"/><path class="cls-9" d="M128.27,56.73c-1-.52-9.6-3.48-9.67-1.57-.08,2.11,3.38,3.42,4.55,3.75,2.25.65,4.12,1.09,5,.11C128.84,58.34,129.21,57.22,128.27,56.73Z" transform="translate(0)"/><path class="cls-9" d="M127.75,56.25c-.39-.33-2.73-2.3-3.13-1.89-.61.63.86,2,1.82,2.9.52.49,1.56.8,1.91.33S128.37,56.79,127.75,56.25Z" transform="translate(0)"/><path class="cls-18" d="M159.09,29c-2.18.89-2.81,1.87-3.14,4.34s.06,6.83,4.45,8.48,6.16-2.68,6.92-5.74.95-5.4-1.26-6.32C162.79,28.39,160.41,28.44,159.09,29Z" transform="translate(0)"/><path class="cls-19" d="M167.23,30.26c.16-1.93-2.72-3.28-3.06-4.17,0,0-.17,1.31.37,1.7a24.46,24.46,0,0,1-4.88-2.62s.57,1.35,1.26,1.7A30.34,30.34,0,0,1,155.8,25,15.46,15.46,0,0,0,158,27.6a15,15,0,0,1-5.21-.86s1.55,4.36,4.55,4.89S166.95,33.78,167.23,30.26Z" transform="translate(0)"/><path class="cls-9" d="M17.31,18.77c.24-1.12,2.58-9.85,4.14-8.66,1.73,1.31,1.56,5,1.35,6.2-.38,2.24-2.23,3.8-3.61,3.89C18.21,20.28,17.08,19.84,17.31,18.77Z" transform="translate(0)"/><path class="cls-20" d="M20.72,18.56c.72,1.59.07,1.87-.33,6.32-.5,5.57-1.11,8.61-2,11.16-.83,2.35-5.72-.57-5.26-3.94.39-2.85,4.36-12.25,5.13-13.82A1.38,1.38,0,0,1,20.72,18.56Z" transform="translate(0)"/><path class="cls-21" d="M18.86,33.82c-.26,1.36-1.29,4.29-5.56,10.52a48.4,48.4,0,0,1-4.94,6.29c-1.7,1.87-4.24,1.24-4.83,0-1-1.92-.94-5.17-.11-6.21C8.12,38.62,12.09,34.4,13,32.79,14.28,30.42,19.16,32.21,18.86,33.82Z" transform="translate(0)"/><path class="cls-22" d="M4.69,152.72a11.46,11.46,0,0,1,.27,2c.13.79.88,1.07,1.31,1.72s1.23,1.74-1.71,1.8c-3.14.06-5,0-4.47-1.75a8.75,8.75,0,0,0,.6-3A1.85,1.85,0,0,1,1,151.95C1.4,151.61,4.22,151,4.69,152.72Z" transform="translate(0)"/><path class="cls-22" d="M24.12,142.94A7.31,7.31,0,0,0,27.28,145c1.66.62,5.13.78,3.25,1.5a12,12,0,0,1-5.29.33,25.4,25.4,0,0,0-3.58.15c-1.76.07-1.78-.21-1.63-2.14C20.22,142.2,23.25,141.49,24.12,142.94Z" transform="translate(0)"/><path class="cls-9" d="M8.8,31.81c.36,3.57.46,4.36,2,5.82s4,1.67,5.68,1.67,3-2.2,3.44-3.71a22,22,0,0,0,.36-8.41,5.77,5.77,0,0,0-5.22-4.38C12.56,22.8,7.93,23.09,8.8,31.81Z" transform="translate(0)"/><path class="cls-9" d="M10.62,38.09c-.1,1.24-.19,2.66-.23,4a3.4,3.4,0,0,0,3,3.46h.2c1.54,0,3.35-1.4,3.22-2.94-.09-1-.12-2-.13-2.9A4,4,0,0,0,14,35.91h0A2.52,2.52,0,0,0,10.62,38.09Z" transform="translate(0)"/><path class="cls-23" d="M3.48,53.34c2.86,9.41,3.8,19.24,3.24,25.81H28.29S28.16,59,26.72,47.9a8.28,8.28,0,0,0-4.55-6.34,15.48,15.48,0,0,0-5.75-1.27h-4a15.09,15.09,0,0,0-4.21.52C2.35,42.61,1.82,47.89,3.48,53.34Z" transform="translate(0)"/><path class="cls-24" d="M6.81,92.35S5,87.82,6.72,79.15H28.29s0,6.18,0,13.19Z" transform="translate(0)"/><path class="cls-25" d="M11.07,120.57c1.73-7-5.44-8.26-7.71-3.18C.16,124.58.41,147.54.59,152.12c0,.6-.08,1.34.22,1.55a4.61,4.61,0,0,0,2.28.37c.8,0,1.59,0,1.67-1C5.31,146.33,9.4,127.37,11.07,120.57Z" transform="translate(0)"/><path class="cls-26" d="M17.52,93.29c.76-8.72-2.7-15.49-8.11-12.61C7.13,81.89,6.3,84.32,6,86.6s-2,26-2.57,30.3c-1.32,9.67,6.31,7.06,7.14,4.38C12.65,114.52,17.1,98,17.52,93.29Z" transform="translate(0)"/><path class="cls-27" d="M20.19,143.06c3.67-9.6,6.51-27.89,12-34.68,3.51-4.31,9.46-2,6.7,3.93-3,6.35-10.07,18.08-14.57,30.84C23.91,144.42,19.77,144.19,20.19,143.06Z" transform="translate(0)"/><path class="cls-28" d="M31.91,111.77c1.64,2.27,10.91,2.05,7.15-6.95-1.67-4-6.85-18.31-7.73-20.44S29,79.2,27.78,79.16c-6.13-.19-9.29,8.07-5.15,15.78C25.4,100.1,28.5,107.05,31.91,111.77Z" transform="translate(0)"/><ellipse class="cls-9" cx="20.54" cy="31.53" rx="2.41" ry="1.26" transform="translate(-16.42 38.62) rotate(-67.77)"/><ellipse class="cls-9" cx="8.91" cy="31.53" rx="1.26" ry="2.41" transform="translate(-11.27 5.71) rotate(-22.23)"/><path class="cls-29" d="M9.9,24.77c1.39,2.07,8.1,2.27,10.3,1.5s2-5-1.1-5.29c-1.77,0-.49.42-1.92,1C16.46,22.28,8.42,22.56,9.9,24.77Z" transform="translate(0)"/><path class="cls-9" d="M52.57,38.53c1.08-.38,9.76-2.9,9.55-1-.23,2.16-3.45,3.91-4.61,4.37a4.65,4.65,0,0,1-5.2-1.07C51.75,40.07,51.54,38.88,52.57,38.53Z" transform="translate(0)"/><path class="cls-9" d="M52.94,38c.38-.37,2.62-2.57,3.06-2.17.67.6-.72,2.11-1.64,3.11-.5.54-1.54.94-1.93.48S52.34,38.58,52.94,38Z" transform="translate(0)"/><path class="cls-30" d="M54.52,41.34c-1,1.44-1.56,1-5.58,3-5,2.46-7.94,3.51-10.59,4.06-2.44.51-2.47-5.19.65-6.54,2.64-1.14,12.73-2.61,14.48-2.77A1.38,1.38,0,0,1,54.52,41.34Z" transform="translate(0)"/><path class="cls-31" d="M40.78,47.77c-1.26.56-4.27,1.37-11.82,1.39a35.69,35.69,0,0,1-6.58-.31c-2.51-.34-4.23-2.81-4.19-4.14.06-2.2,1.18-3.83,2.51-3.74,7.49.55,15.75,1.56,17.59,1.37C41,42.07,42.27,47.11,40.78,47.77Z" transform="translate(0)"/><path class="cls-32" d="M17.46,24.41c2.07,1.25,2.55,2.34,2.49,4.9s-1.15,6.92-5.86,7.89S8.27,33.51,8,30.29s-.1-5.63,2.28-6.21C13.8,23.22,16.2,23.66,17.46,24.41Z" transform="translate(0)"/></g></g></svg>