<svg xmlns="http://www.w3.org/2000/svg" xmlns:xlink="http://www.w3.org/1999/xlink" viewBox="0 0 306.35 278.64"><defs><style>.cls-1,.cls-5,.cls-6,.cls-7,.cls-8,.cls-9{fill:none;}.cls-2{isolation:isolate;}.cls-3{opacity:0.2;fill:url(#Gradient_bez_nazwy_24);}.cls-4{fill:#aaaae8;opacity:0.35;mix-blend-mode:color-dodge;}.cls-5,.cls-6,.cls-7,.cls-8,.cls-9{stroke:#0037ff;stroke-linecap:round;stroke-linejoin:round;}.cls-26,.cls-41,.cls-5{opacity:0.3;}.cls-5{mix-blend-mode:exclusion;}.cls-7{opacity:0.4;}.cls-10,.cls-8{opacity:0.6;}.cls-9{opacity:0.5;}.cls-11{fill:url(#Gradient_bez_nazwy_5);}.cls-12{fill:url(#Gradient_bez_nazwy_5-2);}.cls-13{fill:#4e11f4;}.cls-14{fill:#ffaf84;}.cls-15{fill:url(#Gradient_bez_nazwy_5-3);}.cls-16{fill:url(#Gradient_bez_nazwy_5-4);}.cls-17{fill:url(#Gradient_bez_nazwy_3);}.cls-18{fill:url(#Gradient_bez_nazwy_3-2);}.cls-19{fill:url(#Gradient_bez_nazwy_3-3);}.cls-20{fill:url(#Gradient_bez_nazwy_3-4);}.cls-21{fill:url(#Gradient_bez_nazwy_3-5);}.cls-22{fill:url(#Gradient_bez_nazwy_5-5);}.cls-23{fill:url(#Gradient_bez_nazwy_3-6);}.cls-24{fill:url(#Gradient_bez_nazwy_3-7);}.cls-25{clip-path:url(#clip-path);}.cls-26,.cls-41{mix-blend-mode:multiply;}.cls-26{fill:url(#Gradient_bez_nazwy_3-8);}.cls-27{fill:url(#Gradient_bez_nazwy_10);}.cls-28{fill:url(#Gradient_bez_nazwy_10-2);}.cls-29{fill:#541968;}.cls-30{fill:url(#Gradient_bez_nazwy_10-3);}.cls-31{fill:url(#Gradient_bez_nazwy_5-6);}.cls-32{fill:url(#Gradient_bez_nazwy_5-7);}.cls-33{fill:url(#Gradient_bez_nazwy_5-8);}.cls-34{fill:url(#Gradient_bez_nazwy_5-9);}.cls-35{fill:url(#Gradient_bez_nazwy_5-10);}.cls-36{fill:url(#Gradient_bez_nazwy_4);}.cls-37{fill:url(#Gradient_bez_nazwy_10-4);}.cls-38{fill:url(#Gradient_bez_nazwy_10-5);}.cls-39{fill:url(#Gradient_bez_nazwy_4-2);}.cls-40{clip-path:url(#clip-path-2);}.cls-41{fill:url(#Gradient_bez_nazwy_3-9);}</style><linearGradient id="Gradient_bez_nazwy_24" x1="1739.22" y1="-3808.48" x2="1507.47" y2="-4021.38" gradientTransform="translate(-4061.87 -37.18) rotate(69.09)" gradientUnits="userSpaceOnUse"><stop offset="0" stop-color="aqua"/><stop offset="0.37" stop-color="#0071bc"/><stop offset="0.76" stop-color="#9e005d"/><stop offset="1" stop-color="#ed1e79"/></linearGradient><linearGradient id="Gradient_bez_nazwy_5" x1="304.67" y1="-607.16" x2="322.09" y2="-575.99" gradientTransform="matrix(0.99, 0.16, -0.16, 0.99, -175.76, 638.03)" gradientUnits="userSpaceOnUse"><stop offset="0" stop-color="#36078b"/><stop offset="1" stop-color="#16b1ff"/></linearGradient><linearGradient id="Gradient_bez_nazwy_5-2" x1="314.09" y1="-612.43" x2="331.51" y2="-581.25" xlink:href="#Gradient_bez_nazwy_5"/><linearGradient id="Gradient_bez_nazwy_5-3" x1="301.97" y1="-622.66" x2="301.97" y2="-588.73" xlink:href="#Gradient_bez_nazwy_5"/><linearGradient id="Gradient_bez_nazwy_5-4" x1="310.2" y1="-622.66" x2="310.2" y2="-588.73" xlink:href="#Gradient_bez_nazwy_5"/><linearGradient id="Gradient_bez_nazwy_3" x1="304.82" y1="-592.78" x2="317.65" y2="-511.17" gradientTransform="matrix(0.99, 0.16, -0.16, 0.99, -175.76, 638.03)" gradientUnits="userSpaceOnUse"><stop offset="0" stop-color="blue"/><stop offset="1" stop-color="#9e005d"/></linearGradient><linearGradient id="Gradient_bez_nazwy_3-2" x1="9.96" y1="814.32" x2="22.3" y2="892.75" gradientTransform="translate(62.04 -696.04) rotate(-9.56)" xlink:href="#Gradient_bez_nazwy_3"/><linearGradient id="Gradient_bez_nazwy_3-3" x1="309.82" y1="-593.56" x2="322.66" y2="-511.96" xlink:href="#Gradient_bez_nazwy_3"/><linearGradient id="Gradient_bez_nazwy_3-4" x1="257.07" y1="-227.16" x2="269.9" y2="-145.55" gradientTransform="matrix(1, 0.07, -0.07, 1, -74.49, 307.5)" xlink:href="#Gradient_bez_nazwy_3"/><linearGradient id="Gradient_bez_nazwy_3-5" x1="296.83" y1="-591.52" x2="309.67" y2="-509.92" xlink:href="#Gradient_bez_nazwy_3"/><linearGradient id="Gradient_bez_nazwy_5-5" x1="-923.34" y1="-3924.31" x2="-923.34" y2="-3890.37" gradientTransform="translate(-2468.34 3071.1) rotate(55.25)" xlink:href="#Gradient_bez_nazwy_5"/><linearGradient id="Gradient_bez_nazwy_3-6" x1="301.82" y1="-637.56" x2="315.92" y2="-621.06" xlink:href="#Gradient_bez_nazwy_3"/><linearGradient id="Gradient_bez_nazwy_3-7" x1="303.04" y1="-638.53" x2="317.09" y2="-622.08" xlink:href="#Gradient_bez_nazwy_3"/><clipPath id="clip-path"><path class="cls-1" d="M232.91,79.45a11.11,11.11,0,0,0-2-.72c.07-.74.14-1.47.19-2.15a2.37,2.37,0,0,0,0-.54,4.28,4.28,0,0,0,1.72-2,8,8,0,0,0,1-1.63,3.78,3.78,0,0,0,.89-1c.62-1,.71-2.12.22-2.51.41-1.91.47-3.46-.34-4.45a2.05,2.05,0,0,0,.06-.3c.15-1.87-2.63-3.17-3-4,0,0-.17,1.27.36,1.64a23.65,23.65,0,0,1-4.71-2.53s.55,1.3,1.22,1.64a29.32,29.32,0,0,1-5-1.82,14.94,14.94,0,0,0,2.13,2.54,14.54,14.54,0,0,1-5-.83,9.35,9.35,0,0,0,3.09,4.21s0,.07,0,.11c-.22.75-.39,1.46-.53,2.14a1,1,0,0,0-.85-.33c-.64.15-.92,1.26-.64,2.49a3,3,0,0,0,1,1.77,14.62,14.62,0,0,0,.07,1.8c.16,1.43.93,3.59,2.56,3.93,0,.12-.07.24-.09.36s-.07.38-.1.57a16.09,16.09,0,0,0-4.48.16c-1.75.23-3.61,1.07-4.1,1.91l-.6,1a7.57,7.57,0,0,0-1,1.72c-1.95,3.42-3.45,6.27-4.5,8-2.61-.67-10.8-.41-13.31-.74a1.09,1.09,0,0,0-.22-.16l0,0a4.85,4.85,0,0,0-.47-.45c-.38-.32-2.64-2.22-3-1.82s-.12.67.18,1.11c-2.68-.8-6-1.49-6-.33-.08,2,3.27,3.3,4.4,3.63,1.76.51,3.27.87,4.26.49.85.86,2,1.53,4.9,2.43A47.72,47.72,0,0,0,211.44,97c-1.61,7.9-2.79,15.15-2.79,15.15A115.44,115.44,0,0,0,206,124.34h0c-1.49,7.39-3.95,19.76-4.63,22.64a14.9,14.9,0,0,0-.31,1.7,7.41,7.41,0,0,0-.22,1.58c-.2,6.59.83,19.46-.79,32.1a.89.89,0,0,0,.17.59,1.25,1.25,0,0,0-.22.26,6.9,6.9,0,0,1-2.88,2.1c-1.54.66-4.79,1-3,1.55a11.24,11.24,0,0,0,5,.06,22.34,22.34,0,0,1,3.36-.2c1.66,0,1.67-.11,1.45-1.92a2.85,2.85,0,0,0-.32-1c1-9.4,6-25.15,4.62-33.36,2.47-5.5,6.55-17.23,8.33-22.44,0,5.57,1.52,19.8,2.41,25.93a2,2,0,0,0,.12.41,8.72,8.72,0,0,0,.42,1.19c2.48,5.74,8.69,19.9,10.64,26.56-.16.71-.11,1-.19,1.58-.12.74-.83,1-1.24,1.62s-1.16,1.64,1.61,1.7c3,.06,4.71,0,4.21-1.65a14,14,0,0,1-.53-2.11,1.34,1.34,0,0,0,.2-.13c.25-.24,0-.91,0-1.47-.56-4.26-3.89-23.93-8-30.18,0-.19,0-.36,0-.56.08-4,1.9-25.38,2-28.37a32.59,32.59,0,0,0,.41-7.22,56.68,56.68,0,0,1,1.95-10.59,26.51,26.51,0,0,0,3.79-1.39,1.21,1.21,0,0,0,.68-.7l0,0c.57-1.17,1.45-4,1.75-11.06.07-1.71.08-3,.06-4.09C237.5,84.19,236.54,81.22,232.91,79.45Z"/></clipPath><linearGradient id="Gradient_bez_nazwy_3-8" x1="-1875.61" y1="-7429.95" x2="-1712.19" y2="-7329.55" gradientTransform="matrix(0.4, -0.87, -0.54, -0.47, -2985.59, -4909.84)" xlink:href="#Gradient_bez_nazwy_3"/><linearGradient id="Gradient_bez_nazwy_10" x1="-3784.28" y1="-5089.09" x2="-3784.28" y2="-5057.83" gradientTransform="matrix(-0.06, 1.07, -1.01, -0.12, -5269.79, 3471.12)" gradientUnits="userSpaceOnUse"><stop offset="0" stop-color="#36078b"/><stop offset="1" stop-color="#168d68"/></linearGradient><linearGradient id="Gradient_bez_nazwy_10-2" x1="-3596.06" y1="-5167.18" x2="-3596.06" y2="-5124.24" gradientTransform="matrix(-0.09, 1, -1, -0.09, -5377.34, 3206.56)" xlink:href="#Gradient_bez_nazwy_10"/><linearGradient id="Gradient_bez_nazwy_10-3" x1="-8659.14" y1="83.69" x2="-8659.14" y2="146.79" gradientTransform="matrix(-1, 0, 0, 1, -8571.24, 0)" xlink:href="#Gradient_bez_nazwy_10"/><linearGradient id="Gradient_bez_nazwy_5-6" x1="-8660.73" y1="213.61" x2="-8660.73" y2="123.91" gradientTransform="matrix(-1, 0, 0, 1, -8571.24, 0)" xlink:href="#Gradient_bez_nazwy_5"/><linearGradient id="Gradient_bez_nazwy_5-7" x1="-8649.9" y1="213.61" x2="-8649.9" y2="123.91" gradientTransform="matrix(-1, 0, 0, 1, -8571.24, 0)" xlink:href="#Gradient_bez_nazwy_5"/><linearGradient id="Gradient_bez_nazwy_5-8" x1="-8654.27" y1="213.61" x2="-8654.27" y2="123.91" gradientTransform="matrix(-1, 0, 0, 1, -8571.24, 0)" xlink:href="#Gradient_bez_nazwy_5"/><linearGradient id="Gradient_bez_nazwy_5-9" x1="-8774.35" y1="-1246.62" x2="-8774.35" y2="-1336.32" gradientTransform="matrix(-0.92, -0.38, -0.38, 0.92, -8491.29, -2020.56)" xlink:href="#Gradient_bez_nazwy_5"/><linearGradient id="Gradient_bez_nazwy_5-10" x1="-4286.65" y1="2873.48" x2="-4286.65" y2="2801.07" gradientTransform="matrix(-0.04, 1, 1, 0.04, -2852.73, 4302.8)" xlink:href="#Gradient_bez_nazwy_5"/><linearGradient id="Gradient_bez_nazwy_4" x1="-8611.81" y1="24.75" x2="-8604.33" y2="19.58" gradientTransform="matrix(-1, 0, 0, 1, -8571.24, 0)" gradientUnits="userSpaceOnUse"><stop offset="0" stop-color="#2c27ce"/><stop offset="0.65" stop-color="#ef1d68"/><stop offset="1" stop-color="#efba92"/></linearGradient><linearGradient id="Gradient_bez_nazwy_10-4" x1="113.63" y1="69.68" x2="123.77" y2="90.78" gradientTransform="matrix(1, 0, 0, 1, 0, 0)" xlink:href="#Gradient_bez_nazwy_10"/><linearGradient id="Gradient_bez_nazwy_10-5" x1="99.51" y1="74.07" x2="114.04" y2="103.56" gradientTransform="matrix(1, 0, 0, 1, 0, 0)" xlink:href="#Gradient_bez_nazwy_10"/><linearGradient id="Gradient_bez_nazwy_4-2" x1="87.01" y1="61.32" x2="80.08" y2="78.13" gradientTransform="matrix(1, 0, 0, 1, 0, 0)" xlink:href="#Gradient_bez_nazwy_4"/><clipPath id="clip-path-2"><path class="cls-1" d="M126.5,71.3c.58-.74,1-1.47.58-1.84s-2.59,1.74-3,2.1a3.72,3.72,0,0,0-.52.6.93.93,0,0,0-.52.65c-3.33.45-10.34,1.58-12.45,2.49a3.24,3.24,0,0,0-.76.48c-1.89.15-9.77-.8-16.93-1.33h0a17.2,17.2,0,0,0-3.9-.66c0-.2,0-.41,0-.59s0-.26,0-.38c1.7-.09,2.83-2.14,3.22-3.57a15.3,15.3,0,0,0,.36-1.82,3.09,3.09,0,0,0,1.34-1.63c.49-1.19.38-2.37-.25-2.62a1,1,0,0,0-.91.2c0-.71-.09-1.46-.19-2.25a3.32,3.32,0,0,0-.1-.4c0-.16,0-.34,0-.5,1.58-.61,1.84-3.11.52-4.37a6.5,6.5,0,0,0,.2-2.27,4.93,4.93,0,0,0,1.73-3c.2-1.18.37-4.73-1.3-6-1.51-1.15-3.77,7.29-4,8.37a1,1,0,0,0,.27.95c-.27.63-.6,1.41-1,2.27-1.76.25-6.67.64-6.63,2.11-1.6.69-1.89,2.49-1.76,4.9-.56.32-.65,1.43-.18,2.58A3.86,3.86,0,0,0,81.16,67a8.15,8.15,0,0,0,.74,1.81,4.09,4.09,0,0,0,.66,1.5c-1.34,1.58-3,3.53-4.88,5.79a6.36,6.36,0,0,0-1.11,1.36l-.32.4a3.84,3.84,0,0,0-.57,2,14.22,14.22,0,0,0,.64,6.57C79.08,95.5,80,105,79.44,111.35a33.41,33.41,0,0,0-.73,7.39c-.35,3.05-1.91,25-2.46,29.1,0,.16,0,.29,0,.44l0,0c-3.09,6.94-2.85,29.14-2.68,33.57a4.37,4.37,0,0,0,.1,1.33,8.84,8.84,0,0,1-.58,2.85c-.52,1.66,1.28,1.75,4.32,1.69,2.84-.06,2.11-1.05,1.65-1.74s-1.15-.9-1.27-1.66c-.09-.54,0-.88-.19-1.58v0c.53-6.46,4.48-24.79,6.1-31.37a8.11,8.11,0,0,0,.23-1.73c2.18-7.42,5.64-20.54,6-24.64,0-.31,0-.61.05-.91h10.36A16.12,16.12,0,0,0,102,124c3-.42,6.5-.76,9.93-1.21-3,8.13-5.21,19.33-7.79,26.09a.44.44,0,0,0,.22.53,2.85,2.85,0,0,0-.37,1.2c-.14,1.86-.13,2.14,1.58,2.07a24.55,24.55,0,0,1,3.46-.14,11.55,11.55,0,0,0,5.11-.31c1.83-.69-1.53-.84-3.14-1.45a8,8,0,0,1-2.85-1.76l0,0c4.15-11.8,10.62-22.66,13.67-29a5.92,5.92,0,0,0,1.09-3.58,3.21,3.21,0,0,0-.85-2.3L122,114a2.72,2.72,0,0,0-.24-.22c-1-.94-2.63-1.56-5.32-1.44-2.89.12-10.82.12-16.17.13,0-.73,0-1.15,0-1.15s-.11-18.11-1.37-29h2c7.3,0,10.2-.81,11.42-1.35l0,0a57,57,0,0,0,7.85-3.3c3.12-1.53,4.09-1.57,4.85-2.25a4.93,4.93,0,0,0,3.43-.05c1.12-.44,4.23-2.14,4.46-4.22C133.12,69.88,129.29,70.6,126.5,71.3Z"/></clipPath><linearGradient id="Gradient_bez_nazwy_3-9" x1="-8333.16" y1="4460.71" x2="-8169.74" y2="4561.11" gradientTransform="matrix(-0.4, -0.87, 0.54, -0.47, -5665.59, -4909.84)" xlink:href="#Gradient_bez_nazwy_3"/></defs><title>tehpodderzhka</title><g class="cls-2"><g id="Слой_2" data-name="Слой 2"><g id="Background"><path class="cls-3" d="M223.28,46.72c-3.42-3.6-16.62-17.48-37.94-19.9-4.53-.51-25.86-2.93-39,9.87C129,53.63,144.5,79.11,129.72,99.17c-12.71,17.25-37.83,1.17-54.22,18.49-8.55,9-12.86,24-9.57,35,10.28,34.46,105.44,67,152.69,21C253,140.07,250.86,75.74,223.28,46.72Z"/><path class="cls-4" d="M55.65,160.34q-.55-1.44-1-2.79c-5.79-17.72-5.06-33.59,2-44.7,7.62-11.91,19.55-14.5,32.17-17.25,11.25-2.45,22.88-5,31.56-14.63,7.72-8.58,6-18.68,4.1-29.38-1.91-10.93-3.88-22.23,3.76-33.16C136.36,6.89,151.89-1,164.42.1,182.85,1.71,205.16,23,219.94,53c19.18,39,19.71,79.36,1.4,107.93-29.2,45.58-99.5,56.45-136.57,33.37h0l.28-.45-.28.45C67.63,183.66,59.5,170.42,55.65,160.34Zm169.1-93.65q-2.52-6.6-5.76-13.2C204.37,23.76,182.4,2.73,164.33,1.16,152.15.1,137,7.78,129.17,19c-7.39,10.57-5.45,21.65-3.58,32.37,1.91,11,3.72,21.3-4.35,30.27-8.91,9.9-20.71,12.47-32.13,15C76.7,99.33,65,101.88,57.6,113.42c-6.93,10.83-7.62,26.38-1.93,43.8,3.31,10.16,11.16,24.69,29.66,36.21l-.28.45.28-.45c36.67,22.82,106.22,12.06,135.12-33C236.5,135.33,237.89,101.08,224.75,66.68Z"/></g><g id="Designed_by_Freepik" data-name="Designed by Freepik"><polygon class="cls-5" points="238.88 51.36 238.88 152.64 105.03 151.46 105.03 60.35 238.88 51.36"/><polygon class="cls-6" points="228.93 57.15 228.93 148.91 100.46 148.91 100.46 65.3 228.93 57.15"/><polygon class="cls-7" points="133.96 117.75 161.29 117.12 161.29 79.55 133.96 80.92 133.96 117.75"/><polygon class="cls-8" points="137.86 104.27 105.99 105.32 105.99 71.31 137.86 69.44 137.86 104.27"/><path class="cls-6" d="M131.8,87.23c0,6-4.52,11-10.06,11.25s-9.91-4.42-9.91-10.33,4.42-10.95,9.91-11.24S131.8,81.23,131.8,87.23Z"/><path class="cls-6" d="M129.35,87.34a8.8,8.8,0,0,1-3.11,6.75,7.84,7.84,0,0,1-1.84,1.15,7.55,7.55,0,0,1-.91.33l-.57.14a6.86,6.86,0,0,1-1.18.15,7,7,0,0,1-2.24-.28A7.7,7.7,0,0,1,114.21,88a8.9,8.9,0,0,1,.75-3.57,8.52,8.52,0,0,1,2.6-3.36,8,8,0,0,1,.82-.56,7.46,7.46,0,0,1,2-.81,7.08,7.08,0,0,1,8.48,4.67A8.39,8.39,0,0,1,129.35,87.34Z"/><path class="cls-6" d="M121.74,88.62a.93.93,0,0,1-.93-.93V82.45a.93.93,0,1,1,1.86,0v5.23A.93.93,0,0,1,121.74,88.62Z"/><path class="cls-6" d="M121.74,88.62a.93.93,0,0,1-.54-1.68l2.52-1.82a.93.93,0,1,1,1.09,1.5l-2.52,1.82A.92.92,0,0,1,121.74,88.62Z"/><polygon class="cls-9" points="224.98 143.05 97.5 143.56 97.5 60.98 224.98 52.46 224.98 143.05"/><path class="cls-6" d="M148.77,102a8.49,8.49,0,0,1-9.73-1.79,9.25,9.25,0,0,1-2.41-4.62L141,94.4a4.33,4.33,0,0,0,6.11,3.21Z"/><path class="cls-6" d="M151.84,99.76l-.22.23-3.1-3.39A5.16,5.16,0,0,0,150,93a4.46,4.46,0,0,0-4.55-4.63,4.76,4.76,0,0,0-4.06,2.86l-4-1.93A10.09,10.09,0,0,1,139,86.7a8.71,8.71,0,0,1,12.8-.59A10,10,0,0,1,151.84,99.76Z"/><path class="cls-6" d="M140.88,93.38a5.06,5.06,0,0,0,.1,1l-4.36,1.19a10.23,10.23,0,0,1,.71-6.29l4,1.93A5.15,5.15,0,0,0,140.88,93.38Z"/><path class="cls-6" d="M151.62,100a9.37,9.37,0,0,1-2.85,2l-1.67-4.39a4.74,4.74,0,0,0,1.43-1Z"/><polygon class="cls-6" points="153.71 104.4 153.71 103.46 151.92 103.52 151.92 104.46 153.71 104.4"/><polygon class="cls-6" points="156.87 104.3 156.87 103.36 155.08 103.41 155.08 104.36 156.87 104.3"/><polygon class="cls-6" points="160.05 104.19 160.05 103.25 158.25 103.31 158.25 104.25 160.05 104.19"/><path class="cls-6" d="M158.81,86.74a1.6,1.6,0,0,0-1.74.46,1.8,1.8,0,0,0-.44.86l.79.15a.87.87,0,0,1,.79-.71.75.75,0,0,1,.3,0Z"/><path class="cls-6" d="M159.36,87.1l0,0-.55.64a.84.84,0,0,1,.26.61.88.88,0,0,1-.81.89.77.77,0,0,1-.73-.44l-.72.41a1.56,1.56,0,0,0,2.6.34A1.77,1.77,0,0,0,159.36,87.1Z"/><path class="cls-6" d="M157.4,88.39a1,1,0,0,1,0-.18l-.79-.15a1.75,1.75,0,0,0,.13,1.11l.72-.41A.86.86,0,0,1,157.4,88.39Z"/><path class="cls-6" d="M159.32,87.06a1.5,1.5,0,0,0-.51-.32l-.3.8a.75.75,0,0,1,.25.16Z"/><path class="cls-6" d="M156.73,99.39a1.55,1.55,0,0,0,1.49,1,1.6,1.6,0,0,0,.88-.3l-.44-.7a.78.78,0,0,1-1-.08.82.82,0,0,1-.17-.26Z"/><path class="cls-6" d="M156.6,98.72s0,0,0,.06l.8-.06a.91.91,0,0,1,.24-.64.79.79,0,0,1,1.15,0,.87.87,0,0,1,.2.87l.76.24a1.78,1.78,0,0,0,.09-.55A1.59,1.59,0,0,0,158.21,97,1.74,1.74,0,0,0,156.6,98.72Z"/><path class="cls-6" d="M158.79,99.25l-.14.12.44.7a1.77,1.77,0,0,0,.66-.91l-.76-.24A.89.89,0,0,1,158.79,99.25Z"/><path class="cls-6" d="M156.6,98.78a1.7,1.7,0,0,0,.13.61l.74-.36a.88.88,0,0,1-.07-.31Z"/><path class="cls-6" d="M158.85,95a1.79,1.79,0,0,0,1-1.61,1.69,1.69,0,0,0-.26-.91l-.68.49a.9.9,0,0,1-.11,1.07.84.84,0,0,1-.25.19Z"/><path class="cls-6" d="M158.21,95.21h.05l0-.85a.76.76,0,0,1-.6-.23.89.89,0,0,1,0-1.21.8.8,0,0,1,.84-.24l.26-.81a1.5,1.5,0,0,0-.52-.07,1.75,1.75,0,0,0-1.62,1.77A1.59,1.59,0,0,0,158.21,95.21Z"/><path class="cls-6" d="M158.79,92.88a.82.82,0,0,1,.11.14l.68-.49a1.53,1.53,0,0,0-.84-.66l-.26.81A.76.76,0,0,1,158.79,92.88Z"/><path class="cls-6" d="M158.27,95.21a1.58,1.58,0,0,0,.59-.16l-.32-.77a.79.79,0,0,1-.29.08Z"/><polygon class="cls-6" points="228.93 57.15 100.45 65.3 100.45 53.24 228.93 43.91 228.93 57.15"/><polygon class="cls-6" points="226.32 54.55 102.62 62.63 102.62 58.64 226.32 50.19 226.32 54.55"/><polygon class="cls-6" points="104.52 57.17 102.62 57.3 102.62 55.23 104.52 55.09 104.52 57.17"/><polygon class="cls-6" points="107.9 56.93 105.99 57.06 105.99 54.99 107.9 54.85 107.9 56.93"/><polygon class="cls-6" points="111.29 56.7 109.38 56.83 109.38 54.75 111.29 54.61 111.29 56.7"/><polygon class="cls-9" points="157.41 135.85 220.31 135.26 220.31 62.47 157.41 66.25 157.41 135.85"/><path class="cls-6" d="M165.78,81.94a1.63,1.63,0,0,1-1.13-.45,1.74,1.74,0,0,1-.53-1.28V70.68a1.87,1.87,0,0,1,1.71-1.87l56.11-3.23a1.75,1.75,0,0,1,1.87,1.77v9.93A1.94,1.94,0,0,1,222,79.2l-56.11,2.73ZM222,66.42H222l-56.11,3.23a1,1,0,0,0-.91,1v9.53a.91.91,0,0,0,.27.67.82.82,0,0,0,.6.22l56.11-2.73a1.09,1.09,0,0,0,1-1.08V67.35a.93.93,0,0,0-.29-.68A.91.91,0,0,0,222,66.42Z"/><path class="cls-6" d="M165.79,98.13a1.64,1.64,0,0,1-1.15-.46,1.75,1.75,0,0,1-.53-1.28V86.86A1.84,1.84,0,0,1,165.82,85l56.11-2.57a1.76,1.76,0,0,1,1.31.49,1.77,1.77,0,0,1,.55,1.3v9.93a1.92,1.92,0,0,1-1.83,1.9l-56.11,2.08ZM222,83.27h0l-56.11,2.57a1,1,0,0,0-.91,1v9.53a.92.92,0,0,0,.28.67.84.84,0,0,0,.6.23l56.11-2.08a1.07,1.07,0,0,0,1-1.06V84.22a.94.94,0,0,0-.29-.69A.93.93,0,0,0,222,83.27Z"/><path class="cls-6" d="M165.81,114.33a1.66,1.66,0,0,1-1.17-.48,1.77,1.77,0,0,1-.53-1.28V103a1.82,1.82,0,0,1,1.72-1.84l56.11-1.92a1.84,1.84,0,0,1,1.31.5,1.79,1.79,0,0,1,.55,1.3V111a1.89,1.89,0,0,1-1.83,1.88l-56.11,1.42ZM222,100.13h0L165.86,102a1,1,0,0,0-.9,1v9.53a.93.93,0,0,0,.28.68.89.89,0,0,0,.6.24l56.11-1.42a1,1,0,0,0,1-1v-9.93a1,1,0,0,0-.29-.7A1,1,0,0,0,222,100.13Z"/><path class="cls-6" d="M165.82,130.52a1.67,1.67,0,0,1-1.18-.49,1.79,1.79,0,0,1-.53-1.29v-9.53a1.8,1.8,0,0,1,1.72-1.82l56.11-1.26a1.87,1.87,0,0,1,1.31.51,1.81,1.81,0,0,1,.55,1.3v9.93a1.87,1.87,0,0,1-1.84,1.87l-56.11.76Zm0-.84v0l56.11-.76a1,1,0,0,0,1-1V118a1,1,0,0,0-.29-.7,1,1,0,0,0-.7-.27l-56.11,1.26a1,1,0,0,0-.9,1v9.53a1,1,0,0,0,.28.69A.78.78,0,0,0,165.84,129.68Z"/><polygon class="cls-9" points="192.72 106.22 216.98 105.49 216.98 103.54 192.72 104.31 192.72 106.22"/><polygon class="cls-9" points="200.56 109.4 216.98 108.94 216.98 107 200.56 107.48 200.56 109.4"/><polygon class="cls-9" points="194.64 109.57 198.67 109.46 198.67 107.53 194.64 107.65 194.64 109.57"/><polygon class="cls-9" points="192.72 73.6 216.98 72.3 216.98 70.36 192.72 71.69 192.72 73.6"/><polygon class="cls-9" points="202.44 76.5 216.98 75.76 216.98 73.82 202.44 74.58 202.44 76.5"/><polygon class="cls-9" points="185.52 77.37 200.56 76.6 200.56 74.68 185.52 75.46 185.52 77.37"/><polygon class="cls-9" points="207.19 122.46 216.98 122.28 216.98 120.34 207.19 120.53 207.19 122.46"/><polygon class="cls-9" points="195.76 122.67 205.39 122.5 205.39 120.57 195.76 120.76 195.76 122.67"/><polygon class="cls-9" points="200.56 126 216.98 125.74 216.98 123.79 200.56 124.08 200.56 126"/><polygon class="cls-9" points="182.9 126.29 198.67 126.03 198.67 124.11 182.9 124.39 182.9 126.29"/><path class="cls-6" d="M168.67,95.25,225,93.06a1.5,1.5,0,0,0,1.43-1.49v-10A1.35,1.35,0,0,0,225,80.26l-56.35,2.68a1.43,1.43,0,0,0-1.32,1.44v9.55A1.29,1.29,0,0,0,168.67,95.25Z"/><g class="cls-10"><polygon class="cls-6" points="199.13 85.04 223.38 83.95 223.38 82.49 199.13 83.61 199.13 85.04"/><polygon class="cls-6" points="199.13 87.58 223.38 86.53 223.38 85.08 199.13 86.15 199.13 87.58"/><polygon class="cls-6" points="212.53 89.56 223.38 89.11 223.38 87.66 212.53 88.12 212.53 89.56"/></g><polygon class="cls-6" points="178.66 91.04 184.95 90.78 184.95 84.26 178.66 84.55 178.66 91.04"/><polygon class="cls-8" points="171.41 91.34 177.63 91.08 177.63 84.6 171.41 84.89 171.41 91.34"/><path class="cls-6" d="M91.75,63.29,219.62,98.16a3.23,3.23,0,0,0,4-2.26l5.9-21.63a3.22,3.22,0,0,0-2.26-4L99.34,35.44a3.22,3.22,0,0,0-4,2.26l-5.9,21.63A3.23,3.23,0,0,0,91.75,63.29Z"/><g class="cls-10"><rect class="cls-6" x="193.33" y="40.33" width="3.28" height="55.86" transform="translate(77.84 238.41) rotate(-74.75)"/><rect class="cls-6" x="191.8" y="45.95" width="3.28" height="55.86" transform="translate(71.28 241.07) rotate(-74.75)"/><rect class="cls-6" x="205.26" y="71.21" width="3.28" height="24.77" transform="translate(71.83 261.22) rotate(-74.75)"/></g><rect class="cls-8" x="119.23" y="48.24" width="15.1" height="15.1" transform="matrix(0.26, -0.96, 0.96, 0.26, 39.61, 163.43)"/><rect class="cls-8" x="102.27" y="43.62" width="15.1" height="15.1" transform="matrix(0.26, -0.96, 0.96, 0.26, 31.57, 143.66)"/><path class="cls-11" d="M217.38,105.31c1.48.75,2.87.49,6.77.25,5.62-.34,6.93-.78,10.29-2.21,2.19-.94-.51-5.59-3.69-5.16-2.69.37-11.49,4.86-13.13,5.08C216.53,103.42,216.17,104.7,217.38,105.31Z"/><path class="cls-12" d="M235.14,102.62c.57-1.17,1.45-4,1.75-11.06a45.46,45.46,0,0,0-.17-7.53c-.23-2.38-2.5-3.33-3.62-2.76-1.8.91-3.63,3.36-3.59,4.61.24,7.06.86,12.48.61,14.2C229.77,102.59,234.46,104,235.14,102.62Z"/><path class="cls-13" d="M230.21,181.86a10.79,10.79,0,0,0-.25,1.84c-.12.74-.83,1-1.24,1.62s-1.16,1.64,1.61,1.7c3,.06,4.71,0,4.21-1.65a8.21,8.21,0,0,1-.57-2.85,1.74,1.74,0,0,0-.34-1.39C233.31,180.81,230.65,180.25,230.21,181.86Z"/><path class="cls-13" d="M200,183.2a6.9,6.9,0,0,1-2.88,2.1c-1.54.66-4.79,1-3,1.55a11.24,11.24,0,0,0,5,.06,22.34,22.34,0,0,1,3.36-.2c1.66,0,1.67-.11,1.45-1.92C203.63,182.32,200.74,181.8,200,183.2Z"/><path class="cls-14" d="M233.69,71c-.85,3.27-1.07,4-2.73,5.12s-4,1-5.53.73-2.5-2.49-2.66-4a20.71,20.71,0,0,1,.9-7.87,5.43,5.43,0,0,1,5.5-3.31C231.51,62.07,235.77,63,233.69,71Z"/><path class="cls-15" d="M212.28,96.95c1.11-.67,3.35-2.56,7.43-8.39a45.36,45.36,0,0,0,3.91-6.44c1.09-2.12-.31-4.15-1.56-4.27-2-.2-4.87.88-5.5,2-3.6,6.08-6,11-7.12,12.3C207.77,94,211,97.75,212.28,96.95Z"/><path class="cls-14" d="M231.08,76.57c-.09,1.16-.21,2.5-.37,3.72a3.21,3.21,0,0,1-3.27,2.78l-.18,0c-1.43-.23-2.91-1.79-2.56-3.2.23-.92.41-1.86.54-2.68a3.77,3.77,0,0,1,3-3.11h0A2.37,2.37,0,0,1,231.08,76.57Z"/><path class="cls-16" d="M235.49,91.8c-4,8.34-6.35,17.33-6.79,23.53l-20.05-3.15s3.07-18.77,6-28.84a7.8,7.8,0,0,1,5.16-5.23,14.59,14.59,0,0,1,5.53-.34l3.71.58a14.23,14.23,0,0,1,3.84,1.1C238.11,82,237.83,87,235.49,91.8Z"/><path class="cls-17" d="M226.69,127.59s2.39-3.94,2-12.26l-20.05-3.15A115.44,115.44,0,0,0,206,124.34Z"/><path class="cls-18" d="M219.51,155.56c-2.7-6.25,3.76-8.52,6.66-4.15,4.09,6.17,7.45,26,8,30.25.07.56.28,1.23,0,1.47a4.34,4.34,0,0,1-2.06.7c-.75.1-1.48.23-1.71-.68C228.89,177,222.13,161.61,219.51,155.56Z"/><path class="cls-19" d="M216.6,126.91c.57-8.22,4.77-14,9.38-10.55,1.94,1.46,2.36,3.84,2.31,6s-2,24.48-2,28.56c-.18,9.18-6.9,5.64-7.28,3C218,147.36,216.29,131.39,216.6,126.91Z"/><path class="cls-20" d="M203.59,184c1-9.63,6.32-26.21,4.54-34.26-1.13-5.11-7.11-5.69-7.3.48-.2,6.59.83,19.46-.79,32.1C199.88,183.6,203.46,185.16,203.59,184Z"/><path class="cls-21" d="M207.64,151.74c-1.18,2.36-8.41,4.17-6.28-4.76.94-4,5.26-26,5.76-28.1s1.36-5.17,2.49-5.4c5.66-1.1,9.86,6.08,7.19,13.88C215,132.57,210.08,146.84,207.64,151.74Z"/><ellipse class="cls-14" cx="222.81" cy="69.03" rx="1.19" ry="2.27" transform="translate(-9.9 53.07) rotate(-13.29)"/><ellipse class="cls-14" cx="233.63" cy="70.73" rx="2.27" ry="1.19" transform="translate(52.28 234.12) rotate(-58.86)"/><path class="cls-22" d="M195.53,91.48c1,1.31,1.86,2.07,5.59,3.23a46.93,46.93,0,0,0,10.53,2.34c2.37.19,2.07-5.49-1-6.43-2.6-.79-12.47-.39-14.05-.88C195.55,89.41,194.7,90.42,195.53,91.48Z"/><path class="cls-14" d="M196.92,89.68c-1-.5-9.28-3.36-9.35-1.51-.08,2,3.27,3.3,4.4,3.63,2.18.62,4,1.05,4.87.11C197.48,91.24,197.84,90.15,196.92,89.68Z"/><path class="cls-14" d="M196.42,89.22c-.38-.32-2.64-2.22-3-1.82-.59.61.83,1.93,1.76,2.8.51.48,1.51.78,1.84.32S197,89.73,196.42,89.22Z"/><path class="cls-23" d="M226.72,62.86c-2.11.86-2.71,1.81-3,4.19s.06,6.6,4.3,8.2,6-2.59,6.69-5.54.92-5.22-1.21-6.11C230.29,62.28,228,62.34,226.72,62.86Z"/><path class="cls-24" d="M234.59,64.09c.15-1.87-2.63-3.17-3-4,0,0-.17,1.27.36,1.64a23.65,23.65,0,0,1-4.71-2.53s.55,1.3,1.22,1.64a29.32,29.32,0,0,1-5-1.82,14.94,14.94,0,0,0,2.13,2.54,14.54,14.54,0,0,1-5-.83s1.5,4.22,4.4,4.73S234.31,67.5,234.59,64.09Z"/><g class="cls-25"><path class="cls-26" d="M260.58,62.15c-15.23-2.55-36.88,7.63-41.26,23.56-4.47,16.26,7.75,24-2.27,46.55-7.93,17.81,1.18,37.34,3.32,52.76,2.35,16.92-6.11,25.11-3.32,40.2,6.43,34.73,6,45,29.89,52.33,24.51,7.56,29.55-26.63,45.47-53.66,11.76-20,18.44-40.59,10.4-55.24-11.54-21-28.41.31-22.49-25.08,3.54-15.19,3-41.45-19-37.5S282.52,65.83,260.58,62.15Z"/></g><path class="cls-14" d="M89.67,53c.23-1.09,2.49-9.52,4-8.37,1.67,1.27,1.5,4.81,1.3,6a4.49,4.49,0,0,1-3.49,3.76C90.54,54.44,89.45,54,89.67,53Z"/><path class="cls-27" d="M93,52.78c.7,1.53.07,1.81-.32,6.11-.49,5.38-1.08,8.33-1.94,10.79-.8,2.27-5.53-.55-5.08-3.81.38-2.75,4.22-11.84,5-13.36A1.33,1.33,0,0,1,93,52.78Z"/><path class="cls-28" d="M91.17,67.53c-.25,1.31-1.25,4.15-5.37,10.17A46.78,46.78,0,0,1,81,83.78c-1.65,1.81-4.1,1.2-4.67,0-.92-1.86-.91-5-.11-6,4.55-5.66,8.39-9.73,9.25-11.29C86.74,64.25,91.47,66,91.17,67.53Z"/><path class="cls-29" d="M77.47,182.46a11.07,11.07,0,0,1,.26,1.89c.12.76.85,1,1.27,1.66s1.19,1.68-1.65,1.74c-3,.06-4.84,0-4.32-1.69a8.46,8.46,0,0,0,.58-2.92,1.78,1.78,0,0,1,.34-1.43C74.3,181.39,77,180.81,77.47,182.46Z"/><path class="cls-29" d="M107.94,148.72a7.07,7.07,0,0,0,3.06,2c1.61.6,5,.76,3.14,1.45a11.55,11.55,0,0,1-5.11.31,24.55,24.55,0,0,0-3.46.14c-1.7.07-1.72-.2-1.58-2.07C104.17,148,107.1,147.32,107.94,148.72Z"/><path class="cls-14" d="M81.45,65.59c.34,3.45.45,4.21,2,5.62s3.86,1.62,5.49,1.62,2.93-2.13,3.33-3.59a21.26,21.26,0,0,0,.34-8.13,5.57,5.57,0,0,0-5.05-4.24C85.09,56.88,80.61,57.16,81.45,65.59Z"/><path class="cls-14" d="M83.21,71.66c-.09,1.2-.18,2.57-.22,3.83a3.29,3.29,0,0,0,2.87,3.34h.19c1.49,0,3.24-1.35,3.11-2.84C89.08,75,89,74,89,73.19a3.88,3.88,0,0,0-2.58-3.64h0A2.44,2.44,0,0,0,83.21,71.66Z"/><path class="cls-30" d="M76.31,86.4C79.08,95.5,80,105,79.44,111.35h20.84s-.12-19.52-1.52-30.21A8,8,0,0,0,94.37,75a15,15,0,0,0-5.56-1.23H85a14.59,14.59,0,0,0-4.07.51C75.21,76,74.7,81.13,76.31,86.4Z"/><path class="cls-31" d="M79.53,124.1s-1.8-4.38-.09-12.75h20.84s0,6,0,12.75Z"/><path class="cls-32" d="M83.64,151.38c1.67-6.79-5.26-8-7.45-3.07-3.09,6.94-2.85,29.14-2.68,33.57,0,.58-.08,1.29.22,1.5a4.46,4.46,0,0,0,2.2.35c.78,0,1.54,0,1.62-1C78.07,176.29,82,158,83.64,151.38Z"/><path class="cls-33" d="M89.87,125c.73-8.43-2.61-15-7.84-12.19-2.2,1.17-3,3.51-3.3,5.72s-1.92,25.14-2.48,29.29c-1.28,9.34,6.1,6.82,6.9,4.23C85.17,145.53,89.48,129.61,89.87,125Z"/><path class="cls-34" d="M104.14,148.84c3.55-9.28,6.29-27,11.64-33.52,3.4-4.17,9.14-1.94,6.47,3.8-2.85,6.14-9.73,17.47-14.08,29.81C107.74,150.15,103.74,149.93,104.14,148.84Z"/><path class="cls-35" d="M120.36,121.18c2.61-.73,5.51-9.21-3.91-8.81-4.18.18-18.89.08-21.12.17s-5.48.36-5.92,1.46c-2.22,5.49,4.21,11.12,12.59,10C107.6,123.17,115,122.68,120.36,121.18Z"/><ellipse class="cls-14" cx="92.8" cy="65.32" rx="2.33" ry="1.22" transform="translate(-2.78 126.51) rotate(-67.77)"/><ellipse class="cls-14" cx="81.55" cy="65.32" rx="1.22" ry="2.33" transform="translate(-18.65 35.7) rotate(-22.23)"/><path class="cls-36" d="M82.51,58.79c1.34,2,7.83,2.19,10,1.45s2-4.83-1.06-5.12c-1.71,0-.47.4-1.85,1C88.85,56.38,81.08,56.65,82.51,58.79Z"/><path class="cls-14" d="M123.76,72.08c1-.36,9.43-2.81,9.23-.92-.22,2.09-3.34,3.78-4.46,4.22a4.49,4.49,0,0,1-5-1C123,73.58,122.76,72.43,123.76,72.08Z"/><path class="cls-14" d="M124.12,71.56c.36-.36,2.53-2.48,3-2.1.65.58-.7,2-1.59,3-.48.53-1.48.91-1.86.47S123.54,72.13,124.12,71.56Z"/><path class="cls-37" d="M125.64,74.8c-1,1.39-1.51,1-5.39,2.89-4.86,2.37-7.68,3.4-10.23,3.93-2.36.49-2.39-5,.63-6.32,2.55-1.1,12.31-2.53,14-2.68A1.33,1.33,0,0,1,125.64,74.8Z"/><path class="cls-38" d="M112.36,81c-1.22.54-4.12,1.32-11.42,1.35a34.5,34.5,0,0,1-6.36-.3c-2.43-.33-4.09-2.72-4.05-4,.06-2.12,1.14-3.71,2.42-3.61,7.24.53,15.23,1.5,17,1.32C112.54,75.51,113.8,80.37,112.36,81Z"/><path class="cls-39" d="M89.82,58.44c2,1.21,2.46,2.27,2.41,4.74s-1.11,6.69-5.66,7.63-5.62-3.57-5.9-6.69-.1-5.44,2.21-6C86.28,57.29,88.61,57.71,89.82,58.44Z"/><g class="cls-40"><path class="cls-41" d="M45.77,42.28C61,39.73,82.64,49.91,87,65.84c4.47,16.26-7.75,24,2.27,46.56,7.93,17.81-1.18,37.34-3.32,52.76-2.35,16.92,6.11,25.11,3.32,40.2-6.43,34.73-6,45-29.89,52.33C34.88,265.26,29.84,231.06,13.92,204c-11.75-20-18.44-40.59-10.4-55.24,11.54-21,28.41.31,22.5-25.08-3.54-15.19-3-41.45,19-37.5S23.83,46,45.77,42.28Z"/></g></g></g></g></svg>