<svg xmlns="http://www.w3.org/2000/svg" xmlns:xlink="http://www.w3.org/1999/xlink" viewBox="0 0 484.74 386.72"><defs><style>.cls-1{fill:none;}.cls-2{isolation:isolate;}.cls-28,.cls-3,.cls-4{opacity:0.2;}.cls-3{fill:url(#Gradient_bez_nazwy_15);}.cls-4{fill:url(#Gradient_bez_nazwy_5);}.cls-5{fill:url(#Gradient_bez_nazwy_5-2);}.cls-6{fill:url(#Gradient_bez_nazwy_5-3);}.cls-7{fill:url(#Gradient_bez_nazwy_5-4);}.cls-8{fill:url(#Gradient_bez_nazwy_5-5);}.cls-9{fill:url(#Gradient_bez_nazwy_14);}.cls-10{fill:url(#Gradient_bez_nazwy_9);}.cls-11{fill:url(#Gradient_bez_nazwy_5-6);}.cls-12{fill:url(#Gradient_bez_nazwy_9-2);}.cls-13{fill:url(#Gradient_bez_nazwy_5-7);}.cls-14{fill:url(#Gradient_bez_nazwy_9-3);}.cls-15{fill:url(#Gradient_bez_nazwy_5-8);}.cls-16{fill:url(#Gradient_bez_nazwy_9-4);}.cls-17{fill:url(#Gradient_bez_nazwy_5-9);}.cls-18{fill:url(#Gradient_bez_nazwy_5-10);}.cls-19{fill:url(#Gradient_bez_nazwy_5-11);}.cls-20{fill:url(#Gradient_bez_nazwy_5-12);}.cls-21{fill:url(#Gradient_bez_nazwy_8);}.cls-22{fill:url(#Gradient_bez_nazwy_8-2);}.cls-23{fill:#0056c5;}.cls-24{fill:#0036ac;}.cls-25{fill:url(#Безымянный_градиент_7);}.cls-26{fill:#fffaf0;}.cls-27{fill:#f05857;}.cls-28{fill:#a61f48;}.cls-29{fill:url(#Gradient_bez_nazwy_5-13);}.cls-30{fill:url(#Gradient_bez_nazwy_5-14);}.cls-31{fill:url(#Gradient_bez_nazwy_5-15);}.cls-32{fill:url(#Gradient_bez_nazwy_16);}.cls-33{fill:url(#Gradient_bez_nazwy_5-16);}.cls-34,.cls-51{opacity:0.3;}.cls-34{fill:url(#Gradient_bez_nazwy_17);}.cls-35{fill:#78c2ff;opacity:0.1;mix-blend-mode:screen;}.cls-36{fill:url(#Gradient_bez_nazwy_5-17);}.cls-37{fill:#ffaf84;}.cls-38{fill:url(#Gradient_bez_nazwy_2);}.cls-39{fill:url(#Gradient_bez_nazwy_14-2);}.cls-40{fill:url(#Gradient_bez_nazwy_14-3);}.cls-41{fill:url(#Gradient_bez_nazwy_2-2);}.cls-42{fill:url(#Gradient_bez_nazwy_16-2);}.cls-43{fill:url(#Gradient_bez_nazwy_16-3);}.cls-44{fill:url(#Gradient_bez_nazwy_16-4);}.cls-45{fill:url(#Gradient_bez_nazwy_16-5);}.cls-46{fill:url(#Gradient_bez_nazwy_16-6);}.cls-47{fill:url(#Gradient_bez_nazwy_4);}.cls-48{fill:url(#Gradient_bez_nazwy_2-3);}.cls-49{fill:url(#Gradient_bez_nazwy_4-2);}.cls-50{clip-path:url(#clip-path);}.cls-51{mix-blend-mode:multiply;fill:url(#Gradient_bez_nazwy_3);}</style><linearGradient id="Gradient_bez_nazwy_15" x1="264.34" y1="455.35" x2="264.34" y2="343.35" gradientTransform="matrix(-0.58, 0.81, -0.81, -0.58, 640.38, 118.65)" gradientUnits="userSpaceOnUse"><stop offset="0" stop-color="#401381"/><stop offset="1" stop-color="#d11137"/></linearGradient><linearGradient id="Gradient_bez_nazwy_5" x1="289.7" y1="443.99" x2="289.7" y2="331.99" gradientTransform="matrix(-0.58, 0.81, -0.81, -0.58, 640.38, 118.65)" gradientUnits="userSpaceOnUse"><stop offset="0" stop-color="#36078b"/><stop offset="1" stop-color="#16b1ff"/></linearGradient><linearGradient id="Gradient_bez_nazwy_5-2" x1="-366.76" y1="802.59" x2="-342.97" y2="777.09" gradientTransform="matrix(0.58, -0.82, 0.82, 0.58, -248.03, -531.34)" xlink:href="#Gradient_bez_nazwy_5"/><linearGradient id="Gradient_bez_nazwy_5-3" x1="-267.04" y1="1053.45" x2="-243.24" y2="1027.96" gradientTransform="translate(-769.46 -272.61) rotate(-76.09)" xlink:href="#Gradient_bez_nazwy_5"/><linearGradient id="Gradient_bez_nazwy_5-4" x1="-275.19" y1="1389.39" x2="-253.65" y2="1366.31" gradientTransform="matrix(-0.22, -0.98, 0.98, -0.22, -1230.16, 282.42)" xlink:href="#Gradient_bez_nazwy_5"/><linearGradient id="Gradient_bez_nazwy_5-5" x1="-424.64" y1="1679.1" x2="-405.29" y2="1658.36" gradientTransform="matrix(-0.63, -0.78, 0.78, -0.63, -1394.03, 965.47)" xlink:href="#Gradient_bez_nazwy_5"/><linearGradient id="Gradient_bez_nazwy_14" x1="-317.46" y1="890.77" x2="-232.09" y2="799.29" gradientTransform="translate(-527.92 -420.93) rotate(-65.67)" gradientUnits="userSpaceOnUse"><stop offset="0" stop-color="#f70f47"/><stop offset="1" stop-color="#ffb41d"/></linearGradient><linearGradient id="Gradient_bez_nazwy_9" x1="-496.46" y1="808.12" x2="-425.55" y2="695.97" gradientTransform="translate(-179.37 -597.93) rotate(-54.15)" gradientUnits="userSpaceOnUse"><stop offset="0.48" stop-color="#36078b"/><stop offset="1" stop-color="#16b1ff"/></linearGradient><linearGradient id="Gradient_bez_nazwy_5-6" x1="-1492.04" y1="625.21" x2="-1427.06" y2="555.57" gradientTransform="matrix(-0.74, 0.68, 0.68, 0.74, -1386.43, 767.22)" xlink:href="#Gradient_bez_nazwy_5"/><linearGradient id="Gradient_bez_nazwy_9-2" x1="-446.49" y1="809.92" x2="-523.03" y2="688.85" xlink:href="#Gradient_bez_nazwy_9"/><linearGradient id="Gradient_bez_nazwy_5-7" x1="-346.63" y1="890.02" x2="-227.14" y2="761.97" gradientTransform="translate(-586.97 -447.72) rotate(-70.05)" xlink:href="#Gradient_bez_nazwy_5"/><linearGradient id="Gradient_bez_nazwy_9-3" x1="-490.26" y1="808.84" x2="-384.48" y2="615.98" xlink:href="#Gradient_bez_nazwy_9"/><linearGradient id="Gradient_bez_nazwy_5-8" x1="-454.86" y1="710.84" x2="-368.65" y2="618.45" gradientTransform="matrix(0.63, -0.78, 0.78, 0.63, -96.92, -611.52)" xlink:href="#Gradient_bez_nazwy_5"/><linearGradient id="Gradient_bez_nazwy_9-4" x1="-479.35" y1="804.76" x2="-363.66" y2="699.11" xlink:href="#Gradient_bez_nazwy_9"/><linearGradient id="Gradient_bez_nazwy_5-9" x1="-418.55" y1="681.3" x2="-405.62" y2="657.72" gradientTransform="translate(-179.37 -597.93) rotate(-54.15)" xlink:href="#Gradient_bez_nazwy_5"/><linearGradient id="Gradient_bez_nazwy_5-10" x1="-413.8" y1="657.18" x2="-405.63" y2="635.81" gradientTransform="translate(-179.37 -597.93) rotate(-54.15)" xlink:href="#Gradient_bez_nazwy_5"/><linearGradient id="Gradient_bez_nazwy_5-11" x1="-456.08" y1="668.07" x2="-456.02" y2="647.84" gradientTransform="translate(-179.37 -597.93) rotate(-54.15)" xlink:href="#Gradient_bez_nazwy_5"/><linearGradient id="Gradient_bez_nazwy_5-12" x1="-442.37" y1="644.16" x2="-438.93" y2="628.76" gradientTransform="translate(-179.37 -597.93) rotate(-54.15)" xlink:href="#Gradient_bez_nazwy_5"/><linearGradient id="Gradient_bez_nazwy_8" x1="-460.83" y1="785.74" x2="-460.83" y2="822.07" gradientTransform="translate(-179.37 -597.93) rotate(-54.15)" gradientUnits="userSpaceOnUse"><stop offset="0" stop-color="#2c27ce"/><stop offset="1" stop-color="#ef1d68"/></linearGradient><linearGradient id="Gradient_bez_nazwy_8-2" x1="-460.83" y1="795.01" x2="-460.83" y2="779.18" xlink:href="#Gradient_bez_nazwy_8"/><linearGradient id="Безымянный_градиент_7" x1="420.56" y1="43.1" x2="-24.44" y2="390.1" gradientUnits="userSpaceOnUse"><stop offset="0" stop-color="#dd001e"/><stop offset="0.42" stop-color="#ab0639"/><stop offset="1" stop-color="#221783"/></linearGradient><linearGradient id="Gradient_bez_nazwy_5-13" x1="215.96" y1="216.31" x2="388.96" y2="47.31" gradientTransform="matrix(1, 0, 0, 1, 0, 0)" xlink:href="#Gradient_bez_nazwy_5"/><linearGradient id="Gradient_bez_nazwy_5-14" x1="202.62" y1="202.67" x2="375.62" y2="33.67" gradientTransform="matrix(1, 0, 0, 1, 0, 0)" xlink:href="#Gradient_bez_nazwy_5"/><linearGradient id="Gradient_bez_nazwy_5-15" x1="217.28" y1="216.39" x2="488.28" y2="-104.61" gradientTransform="matrix(1, 0, 0, 1, 0, 0)" xlink:href="#Gradient_bez_nazwy_5"/><linearGradient id="Gradient_bez_nazwy_16" x1="481.2" y1="198.92" x2="472.79" y2="207.59" gradientTransform="translate(141.84 -441.63) rotate(45)" gradientUnits="userSpaceOnUse"><stop offset="0" stop-color="#000061"/><stop offset="1" stop-color="#0065ff"/></linearGradient><linearGradient id="Gradient_bez_nazwy_5-16" x1="-2176.36" y1="48.66" x2="-2132.5" y2="76.04" gradientTransform="translate(93.71 2189.47) rotate(98.04)" xlink:href="#Gradient_bez_nazwy_5"/><linearGradient id="Gradient_bez_nazwy_17" x1="476.62" y1="184.9" x2="513.94" y2="184.9" gradientTransform="matrix(0.99, -0.13, 0.13, 0.99, -162.48, -97.89)" gradientUnits="userSpaceOnUse"><stop offset="0" stop-color="#2ca6ef"/><stop offset="1" stop-color="#b1ffff"/></linearGradient><linearGradient id="Gradient_bez_nazwy_5-17" x1="-2241.73" y1="85.96" x2="-2203.51" y2="60.73" gradientTransform="translate(93.71 2189.47) rotate(98.04)" xlink:href="#Gradient_bez_nazwy_5"/><linearGradient id="Gradient_bez_nazwy_2" x1="446.35" y1="206.27" x2="521.65" y2="189.83" gradientTransform="matrix(1, -0.06, 0.06, 1, -69.39, -48.78)" gradientUnits="userSpaceOnUse"><stop offset="0" stop-color="#f70f47"/><stop offset="1" stop-color="#9e005d"/></linearGradient><linearGradient id="Gradient_bez_nazwy_14-2" x1="362.45" y1="336.72" x2="380.71" y2="336.72" gradientTransform="matrix(1, -0.06, 0.06, 1, -69.39, -48.78)" xlink:href="#Gradient_bez_nazwy_14"/><linearGradient id="Gradient_bez_nazwy_14-3" x1="437.84" y1="384.76" x2="449.16" y2="384.76" gradientTransform="matrix(1, -0.06, 0.06, 1, -69.39, -48.78)" xlink:href="#Gradient_bez_nazwy_14"/><linearGradient id="Gradient_bez_nazwy_2-2" x1="412.57" y1="281.81" x2="451.56" y2="136.48" xlink:href="#Gradient_bez_nazwy_2"/><linearGradient id="Gradient_bez_nazwy_16-2" x1="435.97" y1="294.67" x2="435.97" y2="127.88" gradientTransform="translate(-59.8 40.64) rotate(2.81)" xlink:href="#Gradient_bez_nazwy_16"/><linearGradient id="Gradient_bez_nazwy_16-3" x1="658.98" y1="604.34" x2="658.98" y2="437.56" gradientTransform="translate(-357.18 -117.76) rotate(-10.29)" xlink:href="#Gradient_bez_nazwy_16"/><linearGradient id="Gradient_bez_nazwy_16-4" x1="225.49" y1="90.39" x2="225.49" y2="-76.38" gradientTransform="translate(143.44 214.02) rotate(13.37)" xlink:href="#Gradient_bez_nazwy_16"/><linearGradient id="Gradient_bez_nazwy_16-5" x1="383.91" y1="760.93" x2="383.91" y2="595.91" gradientTransform="translate(-77.37 -436.27) rotate(-1.56)" xlink:href="#Gradient_bez_nazwy_16"/><linearGradient id="Gradient_bez_nazwy_16-6" x1="-2118.16" y1="-1284.66" x2="-2118.16" y2="-1419.29" gradientTransform="translate(112.42 2719.7) rotate(61.73)" xlink:href="#Gradient_bez_nazwy_16"/><linearGradient id="Gradient_bez_nazwy_4" x1="468.06" y1="57.09" x2="432.77" y2="-5.34" gradientTransform="translate(-59.8 40.64) rotate(2.81)" gradientUnits="userSpaceOnUse"><stop offset="0" stop-color="#2c27ce"/><stop offset="0.65" stop-color="#ef1d68"/><stop offset="1" stop-color="#efba92"/></linearGradient><linearGradient id="Gradient_bez_nazwy_2-3" x1="383.64" y1="132.19" x2="454.73" y2="198.32" xlink:href="#Gradient_bez_nazwy_2"/><linearGradient id="Gradient_bez_nazwy_4-2" x1="466.87" y1="57.76" x2="431.57" y2="-4.66" xlink:href="#Gradient_bez_nazwy_4"/><clipPath id="clip-path" transform="translate(0 0)"><path class="cls-1" d="M426.38,150.88c.36-2.32-.14-5.18-.73-10.82-1.13-10.69-1.87-13.24-4.89-19.51l0,0a1.34,1.34,0,0,0-.1-.26c-1.33-2.09-5-6.3-16.28-13.86a95.84,95.84,0,0,0-9.83-5.92,16.68,16.68,0,0,0-3.93-2,21.36,21.36,0,0,0-4-1c0-1.42,0-2.82-.07-4.12a4.4,4.4,0,0,0-.15-1,8.18,8.18,0,0,0,2.86-4.22,15.16,15.16,0,0,0,1.53-3.3,7.21,7.21,0,0,0,1.48-2.12c1-2.08.91-4.16-.1-4.8.47-4.45.09-7.83-2.82-9.25.25-3.16-12-4.23-13.16-4.77-2.52-1.17-.18-1.82-3.35-2-5.65.24-6.3,7.84-2.43,9.4l.24.08a6.24,6.24,0,0,0-.52,1.52c-.27,1.47-.44,2.85-.56,4.17a1.81,1.81,0,0,0-1.68-.46c-1.18.42-1.5,2.59-.7,4.85a5.74,5.74,0,0,0,2.34,3.16A28.43,28.43,0,0,0,370,88c.6,2.69,2.5,6.61,5.66,6.93,0,.23-.08.46-.09.7s-.05.73-.08,1.1a31.77,31.77,0,0,0-7.52.93C358.17,89,350.19,82.94,348.19,80.4a3.26,3.26,0,0,0-.26-.26,6.32,6.32,0,0,0-.2-.92c-1.27-4.07-8.17-15.32-11.57-20.57a1.74,1.74,0,0,0,.29-1.51,7,7,0,0,0,.22-1.45c.07-.95.37-7.35-.68-7.49a.93.93,0,0,0-.27,0l4-5.73-.49-.38,1.84-2.39a21.48,21.48,0,1,0-3.32-2.55L336,39.59l-.49-.38-4.78,5.69c-.73-.78-1.42-1.06-2-.48-3,3.05-3.63,5.26-3.46,7l-4.52,5.38a3.7,3.7,0,1,0,5.85,4.5l2.23-3.17A9,9,0,0,0,330,59c0,1.9,1.07,3.31,2.7,9.57a84.76,84.76,0,0,0,5.33,15.3s0,.06,0,.09a20.24,20.24,0,0,0,2,3.77h0c1.82,2.86,5.08,7.08,11,13.23,2.69,2.8,4.74,4.74,6.38,6.19a15.1,15.1,0,0,0-.66,2.38c-3.57,19.72-5.58,56-5.58,56s-.69,4-1.38,9.81c-8.84,4.34-20.78,10.22-25.41,12.26A18.81,18.81,0,0,0,319,191a6,6,0,0,0-1.33,1.53,6.9,6.9,0,0,0-1.24,5.34c0,.35,0,.69,0,1.06.89,12.55,5.33,36.8,4.71,61.12a1.2,1.2,0,0,0,.12.51,2.59,2.59,0,0,0-.67,1.54,13.16,13.16,0,0,1-3.27,6c-2.12,2.39-7.49,5.57-3.89,5.11s7-2.78,8.67-3.94a42.82,42.82,0,0,1,5.66-3.07c2.86-1.37,2.8-1.55,1-4.49,0,0-.07-.07-.1-.11v0c0-15.85,4.78-41.29,3-57.63,8.8-2.43,18.45-6.27,26.42-8.91a28,28,0,0,0,9.1-5l.68,0c0,.29-.11.58-.15.87-1.25,8.48-.31,39.13.53,51.82a4.07,4.07,0,0,0,.24,1.06,15.17,15.17,0,0,0,1,3.1c5.14,11.49,18.46,43.7,21.57,55.36a2,2,0,0,0,.48.91,2.84,2.84,0,0,0,0,2.64c.47.81,1,3.62.53,6.78s-3.23,8.76-.47,6.4,4.3-6.13,5.11-8a42.73,42.73,0,0,1,3.05-5.66c1.59-2.61,1.48-2.83-1.35-4.13,0-.56-.2-1.22-.29-1.83-1.16-8.05-7.92-47.79-15.75-60,.06-.41.11-.81.15-1.25.75-7.74,7.69-49.93,8.1-54a22.07,22.07,0,0,0,.06-3.87,63.65,63.65,0,0,0-.75-12.74c-.43-11.85,2.13-29.4,8.1-46,.31-.87.58-1.74.82-2.6,6.33,3.35,11,5.73,12.69,7.11a3.58,3.58,0,0,0,1.43.71,7.49,7.49,0,0,0,.11,1.15c.82,4.5,6.62,18.08,8.35,23.35A5.14,5.14,0,0,0,420,154.9c-.1,4.08,2.26,4,4.66,4.68,1.7.45,3-1.68,2.94-3.64A14,14,0,0,0,426.38,150.88Z"/></clipPath><linearGradient id="Gradient_bez_nazwy_3" x1="559.13" y1="860.5" x2="876.57" y2="1055.53" gradientTransform="matrix(0.49, -0.68, -0.48, -0.42, 532.89, 1080.04)" gradientUnits="userSpaceOnUse"><stop offset="0" stop-color="blue"/><stop offset="1" stop-color="#9e005d"/></linearGradient></defs><title>точное попадание в целевую аудиторию</title><g class="cls-2"><g id="Слой_2" data-name="Слой 2"><g id="Designed_by_Freepik" data-name="Designed by Freepik"><path class="cls-3" d="M15.79,204.14c-25.76-41.07,2-67.46,28-69.72,36.9-3.2,46,14.94,64.08-40.17,13.35-40.67,57.81-61.13,91.49-28.08,47.09,46.2,57-18.85,81.62-39,50.88-41.54,76.37-2.12,123.46,60.1,48.35,63.88,48.08,121.26,15.66,183.23-23.94,45.76-56.12,77.75-96.3,64.61-57.7-18.86-37.92-79.86-80.63-47-25.56,19.67-78.82,34.92-100.69-29.19S52.89,263.29,15.79,204.14Z" transform="translate(0 0)"/><path class="cls-4" d="M10.27,231.38c-25.76-41.07,2-67.46,28-69.72,36.9-3.2,46,14.94,64.08-40.17,13.35-40.67,57.81-61.13,91.49-28.08,47.09,46.2,57-18.85,81.62-39,50.88-41.54,76.37-2.12,123.46,60.1C447.28,178.42,447,235.8,414.59,297.78c-23.94,45.76-56.12,77.75-96.3,64.61-57.7-18.86-37.92-79.86-80.63-47C212.1,335.09,158.84,350.33,137,286.22S47.36,290.53,10.27,231.38Z" transform="translate(0 0)"/><path class="cls-5" d="M192.24,233.67c-7.38,2.93-12.93-11.65-4.82-25,0,0,6.54,2.67,10.59,7.48C201.46,220.23,202.57,229.57,192.24,233.67Z" transform="translate(0 0)"/><path class="cls-6" d="M187.83,241.56C182,247,171.53,235.45,174.17,220c0,0,7.06.09,12.59,3.09C191.49,225.68,195.93,234,187.83,241.56Z" transform="translate(0 0)"/><path class="cls-7" d="M185.48,246.58c-2.48,6.74-15.67,1.67-19.78-11.87,0,0,5.75-2.79,11.44-2.61C182,232.25,189,237.14,185.48,246.58Z" transform="translate(0 0)"/><path class="cls-8" d="M182.31,248c.65,6.42-12,7.52-20.65-1.8a25.4,25.4,0,0,1,8.21-6.61C173.85,237.8,181.39,239,182.31,248Z" transform="translate(0 0)"/><path class="cls-9" d="M148.08,240.48c-23.95,15.39-53.53-32.14-34.21-84.79,0,0,24.86,4.9,42.43,19.06C171.29,186.83,181.62,218.92,148.08,240.48Z" transform="translate(0 0)"/><path class="cls-10" d="M116,163.89a50.91,50.91,0,0,0,3.29,17.64,64.09,64.09,0,0,0,3.47,8.19c.69,1.31,1.32,2.65,2.07,3.93l1.09,1.93,1.18,1.88a110.62,110.62,0,0,0,10.7,14.17c1,1.08,1.93,2.25,3,3.31l3.09,3.23c2.16,2.06,4.26,4.18,6.54,6.12a244.48,244.48,0,0,0,28.65,22q7.58,5,15.38,9.87c2.6,1.61,5.16,3.3,7.81,4.87l4,2.34,3.92,2.47-.18.4a315.34,315.34,0,0,1-32.7-17c-2.67-1.52-5.2-3.27-7.81-4.9s-5.07-3.48-7.61-5.21a181.9,181.9,0,0,1-14.38-11.56c-2.33-2-4.47-4.24-6.67-6.39s-4.22-4.48-6.17-6.87a100.19,100.19,0,0,1-10.55-15.14,72.38,72.38,0,0,1-7-17,45.67,45.67,0,0,1-1.46-18.34Z" transform="translate(0 0)"/><path class="cls-11" d="M137.28,212c5.4-21-36-31-69.46-4.46,0,0,9.49,16.79,23.91,26.11C104,241.62,129.71,241.42,137.28,212Z" transform="translate(0 0)"/><path class="cls-12" d="M74.17,206.84c12.72-.82,25.52.66,38,3.27l4.69,1,4.63,1.21,4.63,1.22c1.54.41,3.05.93,4.58,1.39s3,1,4.56,1.46,3,1,4.52,1.58l9,3.38c2.94,1.25,5.84,2.59,8.75,3.88,1.45.66,2.92,1.29,4.36,2l4.26,2.19,8.46,4.47c2.75,1.61,5.48,3.27,8.19,4.93l4.08,2.49c1.34.86,2.64,1.78,3.94,2.7l7.8,5.5c1.3.91,2.54,1.91,3.76,2.93l3.69,3,3.68,3,3.61,3.09-.2.27-7.73-5.47-3.87-2.73c-1.28-.92-2.57-1.83-3.93-2.64l-8-5c-1.34-.83-2.66-1.7-4-2.51l-4.13-2.31-8.26-4.63-8.47-4.22-4.24-2.1-4.33-1.91c-2.9-1.25-5.77-2.55-8.68-3.76a264.1,264.1,0,0,0-35.94-11.75c-12.25-3-24.76-5.19-37.36-5.52Z" transform="translate(0 0)"/><path class="cls-13" d="M125.11,189.55C93.33,213.59,47,150.41,68.3,74.86c0,0,35.22,4.19,61.25,22.07C151.77,112.18,169.62,155.88,125.11,189.55Z" transform="translate(0 0)"/><path class="cls-14" d="M72.13,86a205.07,205.07,0,0,0,11.23,26.31c4.19,8.53,8.81,16.82,13.72,24.91s10.15,16,15.8,23.54,11.37,15.08,17.57,22.22,12.51,14.16,19.21,20.85c1.62,1.73,3.34,3.35,5,5s3.37,3.33,5.11,4.93l5.24,4.81c1.71,1.65,3.49,3.21,5.28,4.77l5.35,4.71c1.83,1.52,3.67,3,5.48,4.57,3.58,3.14,7.38,6,11.09,9,1.82,1.55,3.72,3,5.62,4.45l5.69,4.38c1.9,1.47,3.88,2.81,5.81,4.23l5.76,4.35-.27.45a381.47,381.47,0,0,1-47.16-33,332.44,332.44,0,0,1-41.24-40.14,299.51,299.51,0,0,1-33-47.15,257.25,257.25,0,0,1-12.66-25.86c-1.86-4.43-3.6-8.9-5.15-13.45a133.36,133.36,0,0,1-4-13.84Z" transform="translate(0 0)"/><path class="cls-15" d="M165.91,192.31c-27.31,9-44.24-44.95-12-91.56,0,0,23.07,11.07,36.68,29.35C202.15,145.69,204.15,179.69,165.91,192.31Z" transform="translate(0 0)"/><path class="cls-16" d="M153.88,109.24A118.51,118.51,0,0,0,155,129.81l.67,5.08.93,5c.36,1.67.53,3.37,1,5l1.17,5c.7,3.33,1.79,6.57,2.68,9.86.5,1.63.86,3.29,1.46,4.89l1.71,4.81c.58,1.6,1.11,3.22,1.65,4.83s1.28,3.15,1.91,4.73l2,4.72c.66,1.57,1.25,3.16,2,4.67l4.39,9.23c.37.77.72,1.55,1.11,2.3l1.26,2.23c.84,1.49,1.68,3,2.48,4.47l2.44,4.5c.41.75.8,1.51,1.24,2.24l1.37,2.16c1.85,2.87,3.64,5.79,5.43,8.71s3.81,5.69,5.74,8.53l5.86,8.5c4,5.6,8.42,10.91,12.44,16.62l-.28.26c-4.56-5.21-9.23-10.33-13.71-15.62l-6.35-8.23c-2.1-2.75-4.31-5.43-6.15-8.37l-5.78-8.64-1.45-2.16c-.46-.73-.87-1.5-1.31-2.25l-2.59-4.51-2.59-4.51-1.3-2.25c-.41-.76-.77-1.55-1.16-2.33L168.7,190a193.77,193.77,0,0,1-12.89-39.47c-.66-3.41-1.38-6.8-1.75-10.25l-.67-5.16-.39-5.19a103,103,0,0,1,.51-20.77Z" transform="translate(0 0)"/><path class="cls-17" d="M113.19,145.75a35.11,35.11,0,0,1,1.35-10c.38-1.63,1-3.18,1.5-4.76s1.28-3.07,1.94-4.59,1.51-3,2.39-4.39a47.82,47.82,0,0,1,2.83-4.16,29.4,29.4,0,0,1,7.39-7l.28.21a100.42,100.42,0,0,0-9.72,16.9,188.71,188.71,0,0,0-7.63,18Z" transform="translate(0 0)"/><path class="cls-18" d="M99.44,128.29a26,26,0,0,1-.4-8.54,39.07,39.07,0,0,1,1.68-8.17,37.22,37.22,0,0,1,3.46-7.65,22.29,22.29,0,0,1,5.66-6.51l.31.17c-1.26,2.4-2.35,4.88-3.38,7.39s-1.88,5.08-2.7,7.67-1.61,5.18-2.32,7.8-1.36,5.26-2,7.9Z" transform="translate(0 0)"/><path class="cls-19" d="M97.37,159.78a29.7,29.7,0,0,1-5.59-.82c-1.69-.41-3.27-.86-4.79-1.31s-3-1-4.44-1.3a22.51,22.51,0,0,0-5.1-.76l-.17-.27a10,10,0,0,1,5.23-1.54,17.32,17.32,0,0,1,5.41.79,29.67,29.67,0,0,1,5,2.09,31.43,31.43,0,0,1,4.61,2.87Z" transform="translate(0 0)"/><path class="cls-20" d="M85.83,136a20.39,20.39,0,0,1-4-1.62c-1.19-.62-2.32-1.23-3.38-1.88s-2.06-1.3-3.1-1.86a15.36,15.36,0,0,0-3.64-1.52l-.08-.23a7.17,7.17,0,0,1,4.19-.13,13.76,13.76,0,0,1,3.88,1.64A27.88,27.88,0,0,1,86,135.82Z" transform="translate(0 0)"/><path class="cls-21" d="M230.24,246.37l-19.18,26.55a3.21,3.21,0,0,1-4.16.93l-33.42-18.58a3.21,3.21,0,0,1-1-4.69l24.47-33.87a3.21,3.21,0,0,1,4.78-.48l28.13,25.9A3.21,3.21,0,0,1,230.24,246.37Z" transform="translate(0 0)"/><path class="cls-22" d="M205.49,217.69l-29.43,40.73a2.12,2.12,0,0,1-2.69.64l-5.81-3a2.12,2.12,0,0,1-.75-3.13l30.59-42.33a2.12,2.12,0,0,1,3.2-.27l4.65,4.58A2.12,2.12,0,0,1,205.49,217.69Z" transform="translate(0 0)"/><path class="cls-23" d="M186.83,278.47,175,290l-11.29,11a10.22,10.22,0,0,1-14.45-14.45l8.8-8.8,9.13-9.13Z" transform="translate(0 0)"/><path class="cls-23" d="M298.86,304a10.21,10.21,0,0,1-7.23-3l-11.29-11-11.83-11.55,19.64-9.82,9.13,9.13,8.8,8.8A10.22,10.22,0,0,1,298.86,304Z" transform="translate(0 0)"/><path class="cls-24" d="M167.19,268.66l19.64,9.82L175,290a105.09,105.09,0,0,1-16.94-12.23Z" transform="translate(0 0)"/><path class="cls-24" d="M297.28,277.79A105.09,105.09,0,0,1,280.34,290l-11.83-11.55,19.64-9.82Z" transform="translate(0 0)"/><circle class="cls-25" cx="229.33" cy="192.22" r="98.13"/><circle class="cls-26" cx="229.33" cy="192.22" r="82.04"/><circle class="cls-25" cx="229.33" cy="192.22" r="66.95"/><circle class="cls-26" cx="229.33" cy="192.22" r="45.84"/><circle class="cls-25" cx="229.33" cy="192.22" r="30.03"/><circle class="cls-26" cx="229.33" cy="192.22" r="14.55"/><circle class="cls-27" cx="229.33" cy="192.22" r="7.93"/><path class="cls-28" d="M324.31,196.23H228.4a4,4,0,0,1,0-8h95.91a4,4,0,0,1,0,8Z" transform="translate(0 0)"/><path class="cls-29" d="M340.29,81l-56.57,56.57,27.17-.18L367,81.32Z" transform="translate(0 0)"/><path class="cls-30" d="M340.29,81l-56.57,56.57.18-27.17L340,54.33Z" transform="translate(0 0)"/><path class="cls-31" d="M229.33,196a4,4,0,0,1-2.83-6.83L336.43,79.23a4,4,0,0,1,5.66,5.66L232.16,194.81A4,4,0,0,1,229.33,196Z" transform="translate(0 0)"/><rect class="cls-32" x="334.97" y="37.24" width="7.64" height="4.19" transform="translate(101.01 283.84) rotate(-52.42)"/><path class="cls-33" d="M321.27,62.1h0a3.7,3.7,0,0,0,5.28-.8l13.22-18.78-4.3-3.31L320.69,56.8A3.7,3.7,0,0,0,321.27,62.1Z" transform="translate(0 0)"/><path class="cls-34" d="M334,23.93a18.65,18.65,0,0,0,32,10.48,18.26,18.26,0,0,0,2.63-3.46,19.1,19.1,0,0,0,1.18-2.4,18.54,18.54,0,0,0,1.35-8c0-.48-.07-1-.13-1.46A18.67,18.67,0,0,0,350.09,3c-.49.06-1,.15-1.46.25a18.46,18.46,0,0,0-7.35,3.34,18.78,18.78,0,0,0-2,1.76,18.13,18.13,0,0,0-2.68,3.42A18.6,18.6,0,0,0,334,23.93Z" transform="translate(0 0)"/><path class="cls-35" d="M341.29,6.6,369.8,28.55a18.54,18.54,0,0,0,1.35-8L348.64,3.26A18.46,18.46,0,0,0,341.29,6.6Z" transform="translate(0 0)"/><path class="cls-35" d="M336.59,11.79,366,34.41a18.26,18.26,0,0,0,2.63-3.46L339.27,8.36A18.13,18.13,0,0,0,336.59,11.79Z" transform="translate(0 0)"/><path class="cls-36" d="M355.28,42.84A21.51,21.51,0,0,1,335.45,8.4h0a21.51,21.51,0,1,1,19.83,34.44Zm-4.82-37a15.7,15.7,0,0,0-10.48,6h0a15.8,15.8,0,1,0,10.48-6Z" transform="translate(0 0)"/><path class="cls-37" d="M336.38,56.83c-.76-1.92-5.22-14.9-7.71-12.4-4.84,4.86-3.46,7.56-2.73,9.67,1.33,3.86,5.08,6.07,7.55,5.84C335.23,59.77,337.1,58.66,336.38,56.83Z" transform="translate(0 0)"/><path class="cls-37" d="M336.67,55.69c.07-.95.37-7.35-.68-7.49-1.6-.22-2.59,3.72-2.88,6.15-.16,1.32,1.14,3.7,2.23,3.7S336.57,57.21,336.67,55.69Z" transform="translate(0 0)"/><path class="cls-38" d="M425.64,140.06c-1.13-10.69-1.87-13.24-4.89-19.51l0,0a1.34,1.34,0,0,0-.1-.26c-1.33-2.09-5-6.3-16.28-13.86a86.7,86.7,0,0,0-12.44-7.21c-4.09-2-7.91.76-8.1,3.14-.31,3.84,1.87,9.26,3.95,10.43,11.75,6.64,21.19,11,23.75,13.13a3.58,3.58,0,0,0,1.43.71,7.49,7.49,0,0,0,.11,1.15c.93,5.1,8.26,21.87,8.82,25,.37,2.06,2.83,2.62,3.9.28C427.06,150.1,426.42,147.48,425.64,140.06Z" transform="translate(0 0)"/><path class="cls-39" d="M320.54,262.11a13.16,13.16,0,0,1-3.27,6c-2.12,2.39-7.49,5.57-3.89,5.11s7-2.78,8.67-3.94a42.82,42.82,0,0,1,5.66-3.07c2.86-1.37,2.8-1.55,1-4.49C326.11,257.64,320.7,259.08,320.54,262.11Z" transform="translate(0 0)"/><path class="cls-40" d="M391.5,305.82c.47.81,1,3.62.53,6.78s-3.23,8.76-.47,6.41,4.3-6.13,5.11-8a42.73,42.73,0,0,1,3.05-5.66c1.65-2.71,1.5-2.83-1.65-4.28C393.72,299,390,303.2,391.5,305.82Z" transform="translate(0 0)"/><path class="cls-37" d="M390.32,82.24c-1,6.37-1.21,7.78-4.14,10.27s-7.32,2.65-10.35,2.5c-3.28-.16-5.25-4.22-5.85-7a39.5,39.5,0,0,1,.1-15.12c.64-3.53,5.24-7.63,9.77-7.41S392.66,66.67,390.32,82.24Z" transform="translate(0 0)"/><path class="cls-37" d="M386.51,93.36c.06,2.23.1,4.79.06,7.13a6.12,6.12,0,0,1-5.64,5.94h-.35c-2.76-.13-5.9-2.8-5.52-5.56.25-1.79.4-3.6.48-5.2a7.21,7.21,0,0,1,5.13-6.52h0A4.53,4.53,0,0,1,386.51,93.36Z" transform="translate(0 0)"/><path class="cls-41" d="M398,121.37c-6,16.65-8.52,34.19-8.1,46l-38.71-1.9s2-36.24,5.58-56a14.88,14.88,0,0,1,8.73-11c3-1.4,8.29-1.88,10.43-1.78l7.15.35a27.15,27.15,0,0,1,7.51,1.31C401,102.19,401.44,111.72,398,121.37Z" transform="translate(0 0)"/><path class="cls-42" d="M388.56,191.08s3.74-8,1.32-23.67l-38.71-1.9a220.35,220.35,0,0,0-2.57,23.61Z" transform="translate(0 0)"/><path class="cls-43" d="M369.4,246.92c-5.31-11.86,7-16.34,12.61-8.09,8,11.67,14.89,52.36,16.06,60.52.15,1.07.57,2.34.1,2.81-.88.87-3,1.25-3.91,1.38-1.43.21-2.82.47-3.29-1.26C387.86,290.62,374.54,258.4,369.4,246.92Z" transform="translate(0 0)"/><path class="cls-44" d="M367.64,190.93c2.3-15.56,11.15-26,19.42-18.69,3.48,3.07,3.93,7.65,3.51,11.77s-7.35,46.3-8.1,54c-1.7,17.45-14,9.72-14.3,4.69C367.33,230.07,366.39,199.42,367.64,190.93Z" transform="translate(0 0)"/><path class="cls-45" d="M328.56,261.55c0-18.47,6.53-50,1.59-64.93-3.14-9.49-14.59-9.43-13.76,2.32.89,12.55,5.33,36.8,4.71,61.12C321,262.45,328.54,263.71,328.56,261.55Z" transform="translate(0 0)"/><path class="cls-46" d="M325.11,205.48c-5,.93-16.77-10.82-.73-17.9,7.12-3.14,31.58-15.4,35.36-17.08s9.43-3.91,11.08-2.44C379,175.39,373,190.06,358,195,348,198.31,335.38,203.54,325.11,205.48Z" transform="translate(0 0)"/><ellipse class="cls-37" cx="369.28" cy="80.71" rx="2.27" ry="4.34" transform="translate(-5.84 127.23) rotate(-19.4)"/><ellipse class="cls-37" cx="390.17" cy="81.74" rx="4.34" ry="2.27" transform="translate(151.05 400.7) rotate(-64.97)"/><path class="cls-47" d="M389,69.52c-2.68,3.6-14.75,3.36-18.61,1.79s-3.22-9.16,2.43-9.4c3.17.15.84.8,3.35,2C377.42,64.46,391.83,65.68,389,69.52Z" transform="translate(0 0)"/><path class="cls-48" d="M368.59,98.28c-10.06-9-18.35-15.28-20.41-17.89a3.26,3.26,0,0,0-.26-.26,6.32,6.32,0,0,0-.2-.92c-1.53-4.93-11.35-20.42-13.18-23a2.48,2.48,0,0,0-4.3,1.23c-.81,3,.43,3.33,2.46,11.1a84.73,84.73,0,0,0,5.33,15.3s0,.06,0,.09a20.24,20.24,0,0,0,2,3.77h0c1.82,2.86,5.08,7.08,11,13.23a87.1,87.1,0,0,0,10.62,9.7c3.57,2.82,7.89.94,8.58-1.35C371.35,105.63,370.38,99.88,368.59,98.28Z" transform="translate(0 0)"/><path class="cls-37" d="M427.59,155.93c0-2.06-1.22-7.24-3.27-6.52-3.68,1.28-4.27,3.26-4.32,5.49-.1,4.08,2.26,4,4.66,4.68C426.35,160,427.63,157.9,427.59,155.93Z" transform="translate(0 0)"/><path class="cls-49" d="M375.44,68.21c-3.82,2.06-4.78,4-4.9,8.58s1.46,12.52,9.82,14.69,10.77-6.12,11.56-11.88.68-10.1-3.55-11.35C382.11,66.39,377.76,67,375.44,68.21Z" transform="translate(0 0)"/><g class="cls-50"><path class="cls-51" d="M451.6,53.08c-22.75-13.63-61.41,3-72.74,26.36-11.57,23.84,9.49,36.92-13.61,69.49-18.28,25.76-5.37,56.08-4.51,79.43.94,25.63-36.42,44.77-34.29,67.72,4.89,52.79-37.85,72.2,4.87,86C375.18,396.29,377.6,373,427,376c42.9,2.59,57.1-85.57,57.24-119.63.15-36.05-24.45-43.79-8.36-81.13,9.63-22.35,16.75-35-7.88-61.39C455.33,100.35,495.13,79.14,451.6,53.08Z" transform="translate(0 0)"/></g></g></g></g></svg>