<svg xmlns="http://www.w3.org/2000/svg" xmlns:xlink="http://www.w3.org/1999/xlink" viewBox="0 0 196.19 206.06"><defs><style>.cls-1{isolation:isolate;}.cls-2{opacity:0.2;fill:url(#Gradient_bez_nazwy_24);}.cls-3{fill:#aaaae8;opacity:0.35;mix-blend-mode:color-dodge;}.cls-4,.cls-5,.cls-6,.cls-7,.cls-8{fill:none;stroke:#0037ff;stroke-linecap:round;stroke-linejoin:round;}.cls-4{opacity:0.3;mix-blend-mode:exclusion;}.cls-6{opacity:0.4;}.cls-7,.cls-9{opacity:0.6;}.cls-8{opacity:0.5;}.cls-10{fill:url(#Gradient_bez_nazwy_5);}.cls-11{fill:url(#Gradient_bez_nazwy_5-2);}.cls-12{fill:#4e11f4;}.cls-13{fill:#ffaf84;}.cls-14{fill:url(#Gradient_bez_nazwy_5-3);}.cls-15{fill:url(#Gradient_bez_nazwy_5-4);}.cls-16{fill:url(#Gradient_bez_nazwy_3);}.cls-17{fill:url(#Gradient_bez_nazwy_3-2);}.cls-18{fill:url(#Gradient_bez_nazwy_3-3);}.cls-19{fill:url(#Gradient_bez_nazwy_3-4);}.cls-20{fill:url(#Gradient_bez_nazwy_3-5);}.cls-21{fill:url(#Gradient_bez_nazwy_5-5);}.cls-22{fill:url(#Gradient_bez_nazwy_3-6);}.cls-23{fill:url(#Gradient_bez_nazwy_3-7);}.cls-24{fill:url(#Gradient_bez_nazwy_10);}.cls-25{fill:url(#Gradient_bez_nazwy_10-2);}.cls-26{fill:#541968;}.cls-27{fill:url(#Gradient_bez_nazwy_10-3);}.cls-28{fill:url(#Gradient_bez_nazwy_5-6);}.cls-29{fill:url(#Gradient_bez_nazwy_5-7);}.cls-30{fill:url(#Gradient_bez_nazwy_5-8);}.cls-31{fill:url(#Gradient_bez_nazwy_5-9);}.cls-32{fill:url(#Gradient_bez_nazwy_5-10);}.cls-33{fill:url(#Gradient_bez_nazwy_4);}.cls-34{fill:url(#Gradient_bez_nazwy_10-4);}.cls-35{fill:url(#Gradient_bez_nazwy_10-5);}.cls-36{fill:url(#Gradient_bez_nazwy_4-2);}</style><linearGradient id="Gradient_bez_nazwy_24" x1="1694.93" y1="-3814.9" x2="1463.18" y2="-4027.8" gradientTransform="translate(-4100.08 6.45) rotate(69.09)" gradientUnits="userSpaceOnUse"><stop offset="0" stop-color="aqua"/><stop offset="0.37" stop-color="#0071bc"/><stop offset="0.76" stop-color="#9e005d"/><stop offset="1" stop-color="#ed1e79"/></linearGradient><linearGradient id="Gradient_bez_nazwy_5" x1="252.74" y1="-617.07" x2="268.43" y2="-588.99" gradientTransform="matrix(0.99, 0.16, -0.16, 0.99, -177.3, 645.84)" gradientUnits="userSpaceOnUse"><stop offset="0" stop-color="#36078b"/><stop offset="1" stop-color="#16b1ff"/></linearGradient><linearGradient id="Gradient_bez_nazwy_5-2" x1="261.22" y1="-621.81" x2="276.91" y2="-593.73" xlink:href="#Gradient_bez_nazwy_5"/><linearGradient id="Gradient_bez_nazwy_5-3" x1="250.31" y1="-631.03" x2="250.31" y2="-600.46" xlink:href="#Gradient_bez_nazwy_5"/><linearGradient id="Gradient_bez_nazwy_5-4" x1="257.72" y1="-631.03" x2="257.72" y2="-600.46" xlink:href="#Gradient_bez_nazwy_5"/><linearGradient id="Gradient_bez_nazwy_3" x1="252.87" y1="-604.11" x2="264.43" y2="-530.6" gradientTransform="matrix(0.99, 0.16, -0.16, 0.99, -177.3, 645.84)" gradientUnits="userSpaceOnUse"><stop offset="0" stop-color="blue"/><stop offset="1" stop-color="#9e005d"/></linearGradient><linearGradient id="Gradient_bez_nazwy_3-2" x1="-39.12" y1="802.52" x2="-28" y2="873.17" gradientTransform="translate(62.32 -704.56) rotate(-9.56)" xlink:href="#Gradient_bez_nazwy_3"/><linearGradient id="Gradient_bez_nazwy_3-3" x1="257.37" y1="-604.82" x2="268.94" y2="-531.31" xlink:href="#Gradient_bez_nazwy_3"/><linearGradient id="Gradient_bez_nazwy_3-4" x1="207.4" y1="-238.73" x2="218.97" y2="-165.22" gradientTransform="matrix(1, 0.07, -0.07, 1, -75.06, 311.25)" xlink:href="#Gradient_bez_nazwy_3"/><linearGradient id="Gradient_bez_nazwy_3-5" x1="245.68" y1="-602.98" x2="257.24" y2="-529.47" xlink:href="#Gradient_bez_nazwy_3"/><linearGradient id="Gradient_bez_nazwy_5-5" x1="-977.56" y1="-3930.78" x2="-977.56" y2="-3900.21" gradientTransform="translate(-2495.05 3110.28) rotate(55.25)" xlink:href="#Gradient_bez_nazwy_5"/><linearGradient id="Gradient_bez_nazwy_3-6" x1="250.17" y1="-644.45" x2="262.87" y2="-629.59" xlink:href="#Gradient_bez_nazwy_3"/><linearGradient id="Gradient_bez_nazwy_3-7" x1="251.27" y1="-645.33" x2="263.92" y2="-630.51" xlink:href="#Gradient_bez_nazwy_3"/><linearGradient id="Gradient_bez_nazwy_10" x1="-3838.04" y1="-5106.42" x2="-3838.04" y2="-5078.26" gradientTransform="matrix(-0.06, 1.07, -1.01, -0.12, -5329.56, 3518.63)" gradientUnits="userSpaceOnUse"><stop offset="0" stop-color="#36078b"/><stop offset="1" stop-color="#168d68"/></linearGradient><linearGradient id="Gradient_bez_nazwy_10-2" x1="-3651.05" y1="-5185.7" x2="-3651.05" y2="-5147.03" gradientTransform="matrix(-0.09, 1, -1, -0.09, -5438.47, 3250.7)" xlink:href="#Gradient_bez_nazwy_10"/><linearGradient id="Gradient_bez_nazwy_10-3" x1="-8722.46" y1="73.83" x2="-8722.46" y2="130.67" gradientTransform="matrix(-1, 0, 0, 1, -8672.82, 0)" xlink:href="#Gradient_bez_nazwy_10"/><linearGradient id="Gradient_bez_nazwy_5-6" x1="-8723.9" y1="190.87" x2="-8723.9" y2="110.06" gradientTransform="matrix(-1, 0, 0, 1, -8672.82, 0)" xlink:href="#Gradient_bez_nazwy_5"/><linearGradient id="Gradient_bez_nazwy_5-7" x1="-8714.14" y1="190.86" x2="-8714.14" y2="110.06" gradientTransform="matrix(-1, 0, 0, 1, -8672.82, 0)" xlink:href="#Gradient_bez_nazwy_5"/><linearGradient id="Gradient_bez_nazwy_5-8" x1="-8718.08" y1="190.86" x2="-8718.08" y2="110.06" gradientTransform="matrix(-1, 0, 0, 1, -8672.82, 0)" xlink:href="#Gradient_bez_nazwy_5"/><linearGradient id="Gradient_bez_nazwy_5-9" x1="-8831.14" y1="-1269.13" x2="-8831.14" y2="-1349.93" gradientTransform="matrix(-0.92, -0.38, -0.38, 0.92, -8591.29, -2040.39)" xlink:href="#Gradient_bez_nazwy_5"/><linearGradient id="Gradient_bez_nazwy_5-10" x1="-4345.16" y1="2871.59" x2="-4345.16" y2="2806.36" gradientTransform="matrix(-0.04, 1, 1, 0.04, -2899.39, 4347.83)" xlink:href="#Gradient_bez_nazwy_5"/><linearGradient id="Gradient_bez_nazwy_4" x1="-8679.83" y1="20.74" x2="-8673.09" y2="16.08" gradientTransform="matrix(-1, 0, 0, 1, -8672.82, 0)" gradientUnits="userSpaceOnUse"><stop offset="0" stop-color="#2c27ce"/><stop offset="0.65" stop-color="#ef1d68"/><stop offset="1" stop-color="#efba92"/></linearGradient><linearGradient id="Gradient_bez_nazwy_10-4" x1="72.83" y1="61.21" x2="81.96" y2="80.22" gradientTransform="matrix(1, 0, 0, 1, 0, 0)" xlink:href="#Gradient_bez_nazwy_10"/><linearGradient id="Gradient_bez_nazwy_10-5" x1="60.11" y1="65.17" x2="73.19" y2="91.73" gradientTransform="matrix(1, 0, 0, 1, 0, 0)" xlink:href="#Gradient_bez_nazwy_10"/><linearGradient id="Gradient_bez_nazwy_4-2" x1="48.84" y1="53.68" x2="42.6" y2="68.83" gradientTransform="matrix(1, 0, 0, 1, 0, 0)" xlink:href="#Gradient_bez_nazwy_4"/></defs><title>tp</title><g class="cls-1"><g id="Слой_2" data-name="Слой 2"><g id="Background"><path class="cls-2" d="M175.27,46.68c-3.42-3.6-16.62-17.48-37.94-19.9-4.53-.51-25.86-2.93-39,9.87C81,53.59,96.49,79.07,81.71,99.13,69,116.37,43.88,100.3,27.49,117.61c-8.55,9-12.86,24-9.57,35,10.28,34.46,105.44,67,152.69,21C205,140,202.85,75.7,175.27,46.68Z"/><path class="cls-3" d="M4.86,160.34q-.55-1.44-1-2.79c-5.79-17.72-5.06-33.59,2-44.7,7.62-11.91,19.55-14.5,32.17-17.25C49.34,93.14,61,90.61,69.65,81c7.72-8.58,6-18.68,4.1-29.38-1.91-10.93-3.88-22.23,3.76-33.16C85.57,6.89,101.1-1,113.63.1,132.06,1.71,154.37,23,169.15,53c19.18,39,19.71,79.36,1.4,107.93C141.35,206.53,71,217.4,34,194.33h0l.28-.45-.28.45C16.84,183.66,8.71,170.42,4.86,160.34ZM174,66.68q-2.52-6.6-5.76-13.2C153.58,23.76,131.61,2.73,113.54,1.16,101.36.1,86.24,7.78,78.38,19,71,29.6,72.92,40.68,74.79,51.4c1.91,11,3.72,21.3-4.35,30.27-8.91,9.9-20.71,12.47-32.13,15-12.41,2.7-24.12,5.25-31.51,16.79-6.93,10.83-7.62,26.38-1.93,43.8C8.19,167.38,16,181.91,34.54,193.43l-.28.45.28-.45c36.67,22.82,106.22,12.06,135.12-33C185.71,135.33,187.1,101.08,174,66.68Z"/></g><g id="Designed_by_Freepik" data-name="Designed by Freepik"><polygon class="cls-4" points="188.09 44.91 188.09 139.16 63.53 138.06 63.53 53.28 188.09 44.91"/><polygon class="cls-5" points="178.83 50.3 178.83 135.69 59.27 135.69 59.27 57.88 178.83 50.3"/><polygon class="cls-6" points="90.45 106.69 115.89 106.11 115.89 71.14 90.45 72.42 90.45 106.69"/><polygon class="cls-7" points="94.08 94.15 64.42 95.13 64.42 63.48 94.08 61.74 94.08 94.15"/><path class="cls-5" d="M88.44,78.29c0,5.59-4.21,10.27-9.37,10.47s-9.23-4.11-9.23-9.62S74,69,79.08,68.68,88.44,72.7,88.44,78.29Z"/><path class="cls-5" d="M86.16,78.39a8.19,8.19,0,0,1-2.9,6.28,7.3,7.3,0,0,1-1.71,1.07,7,7,0,0,1-.85.31l-.53.13a6.38,6.38,0,0,1-1.09.14A6.53,6.53,0,0,1,77,86.07a7.16,7.16,0,0,1-4.92-7,8.28,8.28,0,0,1,.7-3.33,7.93,7.93,0,0,1,2.42-3.13,7.4,7.4,0,0,1,.76-.52,6.94,6.94,0,0,1,1.83-.76,6.59,6.59,0,0,1,7.89,4.34A7.81,7.81,0,0,1,86.16,78.39Z"/><path class="cls-5" d="M79.08,79.58a.86.86,0,0,1-.86-.86V73.84a.86.86,0,1,1,1.73,0v4.87A.86.86,0,0,1,79.08,79.58Z"/><path class="cls-5" d="M79.08,79.58A.86.86,0,0,1,78.57,78l2.35-1.7a.86.86,0,1,1,1,1.4l-2.35,1.7A.86.86,0,0,1,79.08,79.58Z"/><polygon class="cls-8" points="175.16 130.23 56.52 130.72 56.52 53.86 175.16 45.93 175.16 130.23"/><path class="cls-5" d="M104.23,92a7.9,7.9,0,0,1-9.05-1.66,8.61,8.61,0,0,1-2.24-4.3L97,85a4,4,0,0,0,5.68,3Z"/><path class="cls-5" d="M107.09,89.95l-.21.21L104,87a4.8,4.8,0,0,0,1.34-3.34,4.15,4.15,0,0,0-4.24-4.31A4.43,4.43,0,0,0,97.33,82l-3.73-1.8a9.39,9.39,0,0,1,1.58-2.43,8.1,8.1,0,0,1,11.91-.55A9.32,9.32,0,0,1,107.09,89.95Z"/><path class="cls-5" d="M96.89,84a4.7,4.7,0,0,0,.1,1l-4.06,1.11a9.52,9.52,0,0,1,.67-5.85L97.33,82A4.79,4.79,0,0,0,96.89,84Z"/><path class="cls-5" d="M106.88,90.16A8.72,8.72,0,0,1,104.23,92l-1.56-4.09A4.41,4.41,0,0,0,104,87Z"/><polygon class="cls-5" points="108.83 94.27 108.83 93.39 107.17 93.45 107.17 94.32 108.83 94.27"/><polygon class="cls-5" points="111.77 94.17 111.77 93.3 110.11 93.35 110.11 94.23 111.77 94.17"/><polygon class="cls-5" points="114.73 94.08 114.73 93.2 113.06 93.25 113.06 94.13 114.73 94.08"/><path class="cls-5" d="M113.58,77.84a1.49,1.49,0,0,0-1.62.42,1.68,1.68,0,0,0-.41.8l.73.14a.81.81,0,0,1,.74-.66.7.7,0,0,1,.28,0Z"/><path class="cls-5" d="M114.09,78.16l0,0-.51.6a.78.78,0,0,1,.24.57.82.82,0,0,1-.76.83.71.71,0,0,1-.68-.41l-.67.38a1.45,1.45,0,0,0,2.42.32A1.64,1.64,0,0,0,114.09,78.16Z"/><path class="cls-5" d="M112.27,79.37a.88.88,0,0,1,0-.17l-.73-.14a1.63,1.63,0,0,0,.12,1l.67-.38A.8.8,0,0,1,112.27,79.37Z"/><path class="cls-5" d="M114.05,78.13a1.4,1.4,0,0,0-.47-.29l-.28.75a.7.7,0,0,1,.24.15Z"/><path class="cls-5" d="M111.64,89.61a1.44,1.44,0,0,0,1.38.91,1.49,1.49,0,0,0,.81-.28l-.41-.65a.72.72,0,0,1-.94-.07.76.76,0,0,1-.16-.24Z"/><path class="cls-5" d="M111.52,89s0,0,0,.05l.75-.05a.84.84,0,0,1,.22-.6.73.73,0,0,1,1.07,0,.81.81,0,0,1,.18.81l.71.23a1.66,1.66,0,0,0,.08-.51A1.48,1.48,0,0,0,113,87.34,1.62,1.62,0,0,0,111.52,89Z"/><path class="cls-5" d="M113.56,89.47l-.13.11.41.65a1.65,1.65,0,0,0,.61-.85l-.71-.23A.83.83,0,0,1,113.56,89.47Z"/><path class="cls-5" d="M111.52,89a1.58,1.58,0,0,0,.12.57l.69-.34a.82.82,0,0,1-.06-.29Z"/><path class="cls-5" d="M113.62,85.56a1.67,1.67,0,0,0,.91-1.49,1.57,1.57,0,0,0-.24-.85l-.63.45a.84.84,0,0,1-.1,1,.79.79,0,0,1-.24.18Z"/><path class="cls-5" d="M113,85.72h.05l0-.79a.71.71,0,0,1-.56-.21.82.82,0,0,1,0-1.12.75.75,0,0,1,.78-.22l.24-.76a1.39,1.39,0,0,0-.49-.06,1.63,1.63,0,0,0-1.51,1.65A1.48,1.48,0,0,0,113,85.72Z"/><path class="cls-5" d="M113.56,83.55l.1.13.63-.45a1.43,1.43,0,0,0-.79-.61l-.24.76A.71.71,0,0,1,113.56,83.55Z"/><path class="cls-5" d="M113.07,85.71a1.47,1.47,0,0,0,.55-.15l-.3-.71a.74.74,0,0,1-.27.08Z"/><polygon class="cls-5" points="178.83 50.3 59.27 57.88 59.27 46.65 178.83 37.98 178.83 50.3"/><polygon class="cls-5" points="176.41 47.87 61.29 55.39 61.29 51.69 176.41 43.82 176.41 47.87"/><polygon class="cls-5" points="63.05 50.31 61.29 50.44 61.29 48.51 63.05 48.38 63.05 50.31"/><polygon class="cls-5" points="66.2 50.09 64.42 50.22 64.42 48.28 66.2 48.16 66.2 50.09"/><polygon class="cls-5" points="69.36 49.88 67.58 50 67.58 48.06 69.36 47.93 69.36 49.88"/><polygon class="cls-8" points="112.27 123.54 170.81 122.98 170.81 55.24 112.27 58.76 112.27 123.54"/><path class="cls-5" d="M120.06,73.36a1.52,1.52,0,0,1-1.05-.42,1.62,1.62,0,0,1-.5-1.19V62.89a1.74,1.74,0,0,1,1.59-1.74l52.22-3a1.63,1.63,0,0,1,1.74,1.64V69a1.81,1.81,0,0,1-1.7,1.79l-52.22,2.54Zm52.35-14.44h-.05l-52.22,3a.94.94,0,0,0-.85,1v8.87a.85.85,0,0,0,.26.62.76.76,0,0,0,.55.21L172.32,70a1,1,0,0,0,1-1V59.79a.86.86,0,0,0-.27-.63A.85.85,0,0,0,172.42,58.92Z"/><path class="cls-5" d="M120.08,88.43A1.53,1.53,0,0,1,119,88a1.63,1.63,0,0,1-.5-1.19V77.94a1.72,1.72,0,0,1,1.59-1.72l52.22-2.4a1.63,1.63,0,0,1,1.22.45,1.65,1.65,0,0,1,.51,1.21v9.24a1.78,1.78,0,0,1-1.7,1.77l-52.22,1.93ZM172.4,74.61h0L120.14,77a.93.93,0,0,0-.85.94v8.87a.86.86,0,0,0,.26.63.78.78,0,0,0,.56.21l52.22-1.93a1,1,0,0,0,.95-1V75.49a.88.88,0,0,0-.27-.64A.86.86,0,0,0,172.4,74.61Z"/><path class="cls-5" d="M120.09,103.5a1.54,1.54,0,0,1-1.08-.44,1.65,1.65,0,0,1-.5-1.19V93a1.7,1.7,0,0,1,1.6-1.71l52.22-1.78a1.71,1.71,0,0,1,1.22.47,1.67,1.67,0,0,1,.51,1.21v9.24a1.76,1.76,0,0,1-1.7,1.75l-52.22,1.32Zm52.3-13.21h0l-52.22,1.78a.91.91,0,0,0-.84.93v8.87a.87.87,0,0,0,.26.63.83.83,0,0,0,.56.22l52.22-1.32a1,1,0,0,0,.94-1V91.18a.89.89,0,0,0-.27-.65A.88.88,0,0,0,172.38,90.29Z"/><path class="cls-5" d="M120.1,118.58a1.56,1.56,0,0,1-1.1-.45,1.66,1.66,0,0,1-.49-1.2v-8.87a1.68,1.68,0,0,1,1.6-1.69l52.22-1.17a1.74,1.74,0,0,1,1.22.48,1.68,1.68,0,0,1,.51,1.21v9.24a1.74,1.74,0,0,1-1.71,1.74l-52.22.71Zm0-.78v0l52.22-.71a1,1,0,0,0,.94-1v-9.24a.91.91,0,0,0-.27-.65,1,1,0,0,0-.65-.26l-52.22,1.17a.89.89,0,0,0-.84.91v8.87a.89.89,0,0,0,.26.64A.72.72,0,0,0,120.12,117.79Z"/><polygon class="cls-8" points="145.13 95.96 167.71 95.28 167.71 93.47 145.13 94.18 145.13 95.96"/><polygon class="cls-8" points="152.43 98.92 167.71 98.5 167.71 96.69 152.43 97.13 152.43 98.92"/><polygon class="cls-8" points="146.92 99.08 150.67 98.97 150.67 97.19 146.92 97.3 146.92 99.08"/><polygon class="cls-8" points="145.13 65.6 167.71 64.4 167.71 62.59 145.13 63.83 145.13 65.6"/><polygon class="cls-8" points="154.18 68.31 167.71 67.62 167.71 65.81 154.18 66.52 154.18 68.31"/><polygon class="cls-8" points="138.43 69.11 152.43 68.4 152.43 66.61 138.43 67.34 138.43 69.11"/><polygon class="cls-8" points="158.6 111.08 167.71 110.91 167.71 109.1 158.6 109.28 158.6 111.08"/><polygon class="cls-8" points="147.96 111.27 156.92 111.11 156.92 109.31 147.96 109.49 147.96 111.27"/><polygon class="cls-8" points="152.43 114.37 167.71 114.13 167.71 112.32 152.43 112.58 152.43 114.37"/><polygon class="cls-8" points="135.99 114.64 150.67 114.4 150.67 112.61 135.99 112.87 135.99 114.64"/><path class="cls-5" d="M122.76,85.75l52.44-2a1.4,1.4,0,0,0,1.33-1.38V73.07a1.26,1.26,0,0,0-1.33-1.27L122.76,74.3a1.33,1.33,0,0,0-1.23,1.34v8.89A1.2,1.2,0,0,0,122.76,85.75Z"/><g class="cls-9"><polygon class="cls-5" points="151.1 76.25 173.66 75.23 173.66 73.88 151.1 74.92 151.1 76.25"/><polygon class="cls-5" points="151.1 78.61 173.66 77.64 173.66 76.28 151.1 77.28 151.1 78.61"/><polygon class="cls-5" points="163.57 80.46 173.66 80.04 173.66 78.69 163.57 79.12 163.57 80.46"/></g><polygon class="cls-5" points="132.05 81.83 137.9 81.59 137.9 75.53 132.05 75.8 132.05 81.83"/><polygon class="cls-7" points="125.31 82.11 131.09 81.87 131.09 75.84 125.31 76.11 125.31 82.11"/><path class="cls-5" d="M53.11,55.46,168.3,86.86a2.91,2.91,0,0,0,3.57-2l5.31-19.48a2.9,2.9,0,0,0-2-3.57L60,30.37a2.9,2.9,0,0,0-3.57,2L51.08,51.89A2.91,2.91,0,0,0,53.11,55.46Z"/><g class="cls-9"><rect class="cls-5" x="144.62" y="34.77" width="2.95" height="50.32" transform="translate(49.85 185.12) rotate(-74.75)"/><rect class="cls-5" x="143.24" y="39.83" width="2.95" height="50.32" transform="translate(43.94 187.51) rotate(-74.75)"/><rect class="cls-5" x="155.37" y="62.59" width="2.95" height="22.31" transform="matrix(0.26, -0.96, 0.96, 0.26, 44.44, 205.66)"/></g><rect class="cls-7" x="77.86" y="41.9" width="13.6" height="13.6" transform="translate(15.41 117.58) rotate(-74.75)"/><rect class="cls-7" x="62.59" y="37.73" width="13.6" height="13.6" transform="translate(8.17 99.77) rotate(-74.75)"/><path class="cls-10" d="M166.28,93.31c1.33.68,2.58.44,6.1.23,5.06-.3,6.25-.7,9.27-2,2-.84-.46-5-3.33-4.65-2.42.33-10.35,4.38-11.83,4.58C165.52,91.6,165.2,92.75,166.28,93.31Z"/><path class="cls-11" d="M182.28,90.88c.52-1.05,1.3-3.57,1.58-10a41,41,0,0,0-.15-6.78c-.2-2.14-2.25-3-3.26-2.49-1.62.82-3.27,3-3.23,4.16.22,6.36.77,11.24.55,12.79C177.45,90.85,181.67,92.13,182.28,90.88Z"/><path class="cls-12" d="M177.84,162.26a9.72,9.72,0,0,0-.23,1.66c-.11.67-.74.91-1.11,1.46s-1,1.48,1.45,1.53c2.67.05,4.24,0,3.79-1.48a7.39,7.39,0,0,1-.51-2.57,1.57,1.57,0,0,0-.3-1.25C180.63,161.32,178.24,160.81,177.84,162.26Z"/><path class="cls-12" d="M150.62,163.47a6.22,6.22,0,0,1-2.59,1.89c-1.38.6-4.32.87-2.69,1.4a10.12,10.12,0,0,0,4.49.06,20.12,20.12,0,0,1,3-.18c1.5,0,1.51-.1,1.31-1.73C153.89,162.68,151.29,162.21,150.62,163.47Z"/><path class="cls-13" d="M181,62.4c-.77,2.94-1,3.59-2.46,4.61s-3.57.88-5,.65-2.25-2.25-2.4-3.56a18.66,18.66,0,0,1,.81-7.09,4.89,4.89,0,0,1,5-3C179,54.35,182.85,55.21,181,62.4Z"/><path class="cls-14" d="M161.69,85.78c1-.61,3-2.31,6.69-7.55a40.86,40.86,0,0,0,3.52-5.8c1-1.91-.28-3.74-1.41-3.85-1.81-.18-4.38.79-5,1.77-3.24,5.48-5.4,9.89-6.42,11.08C157.63,83.15,160.5,86.5,161.69,85.78Z"/><path class="cls-13" d="M178.62,67.42c-.08,1-.19,2.25-.33,3.35a2.89,2.89,0,0,1-2.94,2.5l-.17,0c-1.29-.2-2.63-1.61-2.31-2.89.21-.83.37-1.67.49-2.41a3.4,3.4,0,0,1,2.73-2.8h0A2.14,2.14,0,0,1,178.62,67.42Z"/><path class="cls-15" d="M182.59,81.14a62.81,62.81,0,0,0-6.11,21.2L158.41,99.5s2.76-16.9,5.43-26a7,7,0,0,1,4.65-4.71,13.15,13.15,0,0,1,5-.31l3.34.52a12.82,12.82,0,0,1,3.46,1C185,72.29,184.7,76.79,182.59,81.14Z"/><path class="cls-16" d="M174.67,113.38s2.16-3.55,1.81-11L158.41,99.5A104,104,0,0,0,156,110.45Z"/><path class="cls-17" d="M168.2,138.57c-2.43-5.63,3.39-7.67,6-3.74,3.69,5.56,6.71,23.4,7.21,27.25.06.51.26,1.11,0,1.32a3.91,3.91,0,0,1-1.86.63c-.68.09-1.34.21-1.54-.61C176.65,157.9,170.56,144,168.2,138.57Z"/><path class="cls-18" d="M165.58,112.76c.51-7.41,4.3-12.63,8.45-9.5,1.75,1.32,2.13,3.46,2.08,5.41s-1.76,22.05-1.84,25.72c-.16,8.27-6.22,5.09-6.56,2.73C166.86,131.18,165.3,116.8,165.58,112.76Z"/><path class="cls-19" d="M153.86,164.22c.87-8.67,5.69-23.61,4.09-30.86-1-4.6-6.4-5.12-6.57.43-.18,5.94.75,17.53-.71,28.92C150.52,163.83,153.74,165.24,153.86,164.22Z"/><path class="cls-20" d="M157.51,135.13c-1.06,2.13-7.58,3.76-5.66-4.29.85-3.57,4.74-23.41,5.19-25.31s1.22-4.66,2.24-4.86c5.1-1,8.88,5.48,6.48,12.5C164.15,117.87,159.71,130.72,157.51,135.13Z"/><ellipse class="cls-13" cx="171.18" cy="60.62" rx="1.07" ry="2.05" transform="translate(-9.35 40.98) rotate(-13.29)"/><ellipse class="cls-13" cx="180.92" cy="62.15" rx="2.05" ry="1.07" transform="translate(34.16 184.86) rotate(-58.86)"/><path class="cls-21" d="M146.6,80.85c.93,1.18,1.68,1.86,5,2.91a42.27,42.27,0,0,0,9.48,2.11c2.14.17,1.86-4.95-.9-5.8-2.34-.72-11.23-.35-12.66-.8C146.62,79,145.85,79.9,146.6,80.85Z"/><path class="cls-13" d="M147.85,79.23c-.86-.45-8.36-3-8.42-1.36-.07,1.84,2.95,3,4,3.27,2,.56,3.59.95,4.39.1C148.36,80.63,148.68,79.65,147.85,79.23Z"/><path class="cls-13" d="M147.4,78.81c-.34-.29-2.38-2-2.73-1.64-.53.55.75,1.73,1.59,2.52.46.43,1.36.7,1.66.29S147.95,79.27,147.4,78.81Z"/><path class="cls-22" d="M174.69,55.06c-1.9.77-2.44,1.63-2.73,3.78s.05,5.95,3.87,7.38,5.36-2.33,6-5,.82-4.7-1.09-5.5C177.91,54.55,175.84,54.6,174.69,55.06Z"/><path class="cls-23" d="M181.78,56.17c.14-1.68-2.37-2.85-2.67-3.63,0,0-.15,1.14.32,1.48a21.3,21.3,0,0,1-4.25-2.28s.5,1.18,1.1,1.48a26.41,26.41,0,0,1-4.47-1.64,13.46,13.46,0,0,0,1.91,2.29,13.09,13.09,0,0,1-4.54-.75s1.35,3.8,4,4.26S181.54,59.24,181.78,56.17Z"/><path class="cls-13" d="M51.24,46.17c.21-1,2.24-8.58,3.6-7.54S56.2,43,56,44a4,4,0,0,1-3.14,3.39C52,47.48,51,47.1,51.24,46.17Z"/><path class="cls-24" d="M54.22,46c.63,1.38.06,1.63-.29,5.5a39.05,39.05,0,0,1-1.75,9.72c-.72,2-5-.5-4.58-3.43.34-2.48,3.8-10.66,4.47-12A1.2,1.2,0,0,1,54.22,46Z"/><path class="cls-25" d="M52.59,59.27c-.22,1.18-1.13,3.73-4.84,9.16a42.14,42.14,0,0,1-4.3,5.48C42,75.54,39.76,75,39.24,74c-.83-1.67-.82-4.5-.1-5.4,4.09-5.1,7.56-8.76,8.33-10.17C48.6,56.32,52.86,57.87,52.59,59.27Z"/><path class="cls-26" d="M40.25,162.81a10,10,0,0,1,.23,1.7c.11.69.76.93,1.14,1.5s1.07,1.52-1.49,1.57c-2.74.05-4.36,0-3.89-1.52a7.62,7.62,0,0,0,.52-2.63,1.61,1.61,0,0,1,.31-1.28C37.39,161.84,39.85,161.31,40.25,162.81Z"/><path class="cls-26" d="M67.7,132.41a6.37,6.37,0,0,0,2.75,1.81c1.45.54,4.47.68,2.83,1.3a10.4,10.4,0,0,1-4.6.28,22.11,22.11,0,0,0-3.12.13c-1.53.06-1.55-.18-1.42-1.86C64.3,131.76,66.94,131.15,67.7,132.41Z"/><path class="cls-13" d="M43.84,57.52c.31,3.11.4,3.79,1.76,5.07S49.07,64,50.55,64s2.64-1.92,3-3.23a19.15,19.15,0,0,0,.31-7.32,5,5,0,0,0-4.55-3.82C47.11,49.68,43.08,49.93,43.84,57.52Z"/><path class="cls-13" d="M45.42,63c-.08,1.08-.16,2.32-.2,3.45a3,3,0,0,0,2.59,3H48c1.34,0,2.92-1.21,2.8-2.56-.08-.87-.11-1.75-.11-2.53a3.49,3.49,0,0,0-2.33-3.28h0A2.19,2.19,0,0,0,45.42,63Z"/><path class="cls-27" d="M39.2,76.27A64.46,64.46,0,0,1,42,98.75H60.8s-.11-17.59-1.37-27.22a7.21,7.21,0,0,0-4-5.52,13.48,13.48,0,0,0-5-1.11H47a13.14,13.14,0,0,0-3.66.46C38.21,66.93,37.76,71.52,39.2,76.27Z"/><path class="cls-28" d="M42.1,110.24s-1.62-3.94-.08-11.49H60.8s0,5.38,0,11.49Z"/><path class="cls-29" d="M45.81,134.81c1.5-6.11-4.74-7.19-6.71-2.77-2.79,6.25-2.57,26.25-2.42,30.24,0,.52-.07,1.17.19,1.35a4,4,0,0,0,2,.32c.7,0,1.39,0,1.46-.88C40.79,157.24,44.35,140.73,45.81,134.81Z"/><path class="cls-30" d="M51.42,111.06c.66-7.59-2.35-13.49-7.06-11-2,1.05-2.71,3.17-3,5.15s-1.73,22.65-2.24,26.38c-1.15,8.42,5.49,6.15,6.21,3.81C47.19,129.54,51.07,115.2,51.42,111.06Z"/><path class="cls-31" d="M64.27,132.52c3.2-8.36,5.67-24.29,10.48-30.19,3.06-3.75,8.23-1.75,5.83,3.42C78,111.28,71.82,121.49,67.9,132.6,67.52,133.7,63.91,133.5,64.27,132.52Z"/><path class="cls-32" d="M78.89,107.6c2.35-.65,5-8.3-3.52-7.93-3.76.16-17,.08-19,.16s-4.94.32-5.34,1.31c-2,4.95,3.79,10,11.34,9C67.39,109.4,74,109,78.89,107.6Z"/><ellipse class="cls-13" cx="54.06" cy="57.29" rx="2.1" ry="1.1" transform="translate(-19.42 85.65) rotate(-67.77)"/><ellipse class="cls-13" cx="43.93" cy="57.29" rx="1.1" ry="2.1" transform="translate(-18.41 20.87) rotate(-22.23)"/><path class="cls-33" d="M44.79,51.4c1.21,1.81,7.06,2,9,1.31s1.78-4.36-1-4.61c-1.54,0-.42.36-1.67.87C50.5,49.23,43.5,49.47,44.79,51.4Z"/><path class="cls-13" d="M81.94,63.37c.94-.33,8.5-2.53,8.32-.83-.2,1.88-3,3.41-4,3.8a4,4,0,0,1-4.53-.93C81.23,64.72,81,63.69,81.94,63.37Z"/><path class="cls-13" d="M82.27,62.9c.33-.32,2.28-2.23,2.66-1.89.58.52-.63,1.83-1.43,2.71-.43.47-1.34.82-1.68.42S81.75,63.42,82.27,62.9Z"/><path class="cls-34" d="M83.64,65.82c-.86,1.25-1.36.9-4.86,2.6A39,39,0,0,1,69.57,72c-2.13.44-2.15-4.52.56-5.69,2.3-1,11.09-2.28,12.6-2.41A1.2,1.2,0,0,1,83.64,65.82Z"/><path class="cls-35" d="M71.68,71.42c-1.1.49-3.71,1.19-10.29,1.21a31.07,31.07,0,0,1-5.73-.27A4.38,4.38,0,0,1,52,68.76c.05-1.91,1-3.34,2.18-3.25,6.52.48,13.72,1.35,15.31,1.19C71.84,66.46,73,70.84,71.68,71.42Z"/><path class="cls-36" d="M51.37,51.09c1.8,1.09,2.22,2,2.17,4.27s-1,6-5.1,6.87-5.07-3.22-5.31-6-.09-4.9,2-5.41C48.19,50,50.28,50.43,51.37,51.09Z"/></g></g></g></svg>