<svg xmlns="http://www.w3.org/2000/svg" xmlns:xlink="http://www.w3.org/1999/xlink" viewBox="0 0 445.2 339.45"><defs><style>.cls-1,.cls-25,.cls-31,.cls-38{fill:none;}.cls-2{isolation:isolate;}.cls-3,.cls-4{opacity:0.2;}.cls-3{fill:url(#Gradient_bez_nazwy_15);}.cls-4{fill:url(#Gradient_bez_nazwy_5);}.cls-5{fill:url(#Gradient_bez_nazwy_5-2);}.cls-6{fill:url(#Gradient_bez_nazwy_5-3);}.cls-7{fill:url(#Gradient_bez_nazwy_5-4);}.cls-8{fill:url(#Gradient_bez_nazwy_5-5);}.cls-9{fill:url(#Gradient_bez_nazwy_14);}.cls-10{fill:url(#Gradient_bez_nazwy_9);}.cls-11{fill:url(#Gradient_bez_nazwy_14-2);}.cls-12{fill:url(#Gradient_bez_nazwy_9-2);}.cls-13{fill:url(#Безымянный_градиент_7);}.cls-14{fill:url(#Gradient_bez_nazwy_9-3);}.cls-15{fill:url(#Безымянный_градиент_7-2);}.cls-16{fill:url(#Gradient_bez_nazwy_9-4);}.cls-17{fill:url(#Gradient_bez_nazwy_5-6);}.cls-18{fill:url(#Gradient_bez_nazwy_5-7);}.cls-19{fill:url(#Gradient_bez_nazwy_5-8);}.cls-20{fill:url(#Gradient_bez_nazwy_5-9);}.cls-21{fill:url(#Gradient_bez_nazwy_8);}.cls-22{fill:url(#Gradient_bez_nazwy_8-2);}.cls-23,.cls-26{fill:#debb3e;}.cls-24{fill:#efe46e;}.cls-25,.cls-38{stroke:#b89533;}.cls-25,.cls-31,.cls-38{stroke-miterlimit:10;}.cls-25{stroke-width:0.89px;}.cls-26{opacity:0.5;}.cls-26,.cls-28,.cls-30,.cls-32,.cls-33,.cls-39,.cls-53,.cls-55{mix-blend-mode:multiply;}.cls-27{fill:#5c5cc6;}.cls-28{fill:url(#Gradient_bez_nazwy_3);}.cls-29{fill:url(#Gradient_bez_nazwy_5-10);}.cls-30,.cls-34{fill:#b4b4f9;}.cls-30{opacity:0.57;}.cls-31{stroke:#6459ff;stroke-linecap:round;stroke-width:3.75px;}.cls-32{fill:url(#Gradient_bez_nazwy_3-2);}.cls-33{fill:url(#Gradient_bez_nazwy_3-3);}.cls-35{fill:#606060;}.cls-36{fill:url(#Gradient_bez_nazwy_4);}.cls-37{fill:url(#Gradient_bez_nazwy_4-2);}.cls-38{stroke-width:0.94px;}.cls-39,.cls-53,.cls-55{opacity:0.3;}.cls-39{fill:url(#Gradient_bez_nazwy_3-4);}.cls-40{fill:url(#Gradient_bez_nazwy_5-11);}.cls-41{fill:url(#Gradient_bez_nazwy_5-12);}.cls-42{fill:#f70f47;}.cls-43{fill:#ed9169;}.cls-44{fill:url(#Gradient_bez_nazwy_5-13);}.cls-45{fill:url(#Gradient_bez_nazwy_2);}.cls-46{fill:url(#Gradient_bez_nazwy_2-2);}.cls-47{fill:url(#Gradient_bez_nazwy_2-3);}.cls-48{fill:url(#Gradient_bez_nazwy_2-4);}.cls-49{fill:url(#Gradient_bez_nazwy_2-5);}.cls-50{fill:url(#Gradient_bez_nazwy_5-14);}.cls-51{fill:url(#Gradient_bez_nazwy_5-15);}.cls-52{fill:#ffaf84;}.cls-53{fill:url(#Gradient_bez_nazwy_3-5);}.cls-54{clip-path:url(#clip-path);}.cls-55{fill:url(#Gradient_bez_nazwy_3-6);}</style><linearGradient id="Gradient_bez_nazwy_15" x1="-2275.41" y1="-986.45" x2="-2275.41" y2="-1098.45" gradientTransform="matrix(-0.58, 0.81, -0.81, -0.58, -2015.9, 1334.38)" gradientUnits="userSpaceOnUse"><stop offset="0" stop-color="#401381"/><stop offset="1" stop-color="#d11137"/></linearGradient><linearGradient id="Gradient_bez_nazwy_5" x1="-2270.73" y1="-999.48" x2="-2270.73" y2="-1111.48" gradientTransform="matrix(-0.58, 0.81, -0.81, -0.58, -2015.9, 1334.38)" gradientUnits="userSpaceOnUse"><stop offset="0" stop-color="#36078b"/><stop offset="1" stop-color="#16b1ff"/></linearGradient><linearGradient id="Gradient_bez_nazwy_5-2" x1="-208.47" y1="-668.75" x2="-187.24" y2="-691.5" gradientTransform="translate(262.89 907.1) rotate(17.78)" xlink:href="#Gradient_bez_nazwy_5"/><linearGradient id="Gradient_bez_nazwy_5-3" x1="278.67" y1="338.09" x2="299.9" y2="315.34" gradientTransform="translate(-38.88 -115.04) rotate(-3.7)" xlink:href="#Gradient_bez_nazwy_5"/><linearGradient id="Gradient_bez_nazwy_5-4" x1="326.25" y1="1722.73" x2="345.47" y2="1702.13" gradientTransform="translate(-895.62 -1119.08) rotate(-30.33)" xlink:href="#Gradient_bez_nazwy_5"/><linearGradient id="Gradient_bez_nazwy_5-5" x1="-229.1" y1="2954.04" x2="-211.83" y2="2935.53" gradientTransform="translate(-2078.01 -1628.54) rotate(-56.33)" xlink:href="#Gradient_bez_nazwy_5"/><linearGradient id="Gradient_bez_nazwy_14" x1="77.65" y1="-205.68" x2="153.83" y2="-287.32" gradientTransform="translate(154.02 367.72) rotate(6.72)" gradientUnits="userSpaceOnUse"><stop offset="0" stop-color="#f70f47"/><stop offset="1" stop-color="#ffb41d"/></linearGradient><linearGradient id="Gradient_bez_nazwy_9" x1="-344.83" y1="-679.68" x2="-281.55" y2="-779.76" gradientTransform="matrix(0.95, 0.31, -0.31, 0.95, 342.45, 964.68)" gradientUnits="userSpaceOnUse"><stop offset="0.48" stop-color="#36078b"/><stop offset="1" stop-color="#16b1ff"/></linearGradient><linearGradient id="Gradient_bez_nazwy_14-2" x1="-4606.06" y1="-1183.65" x2="-4548.07" y2="-1245.79" gradientTransform="matrix(-0.87, -0.5, -0.5, 0.87, -4319.75, -1106.82)" xlink:href="#Gradient_bez_nazwy_14"/><linearGradient id="Gradient_bez_nazwy_9-2" x1="-300.23" y1="-678.08" x2="-368.54" y2="-786.11" xlink:href="#Gradient_bez_nazwy_9"/><linearGradient id="Безымянный_градиент_7" x1="115.9" y1="-43.93" x2="222.53" y2="-158.2" gradientTransform="translate(177.29 178.88) rotate(2.34)" gradientUnits="userSpaceOnUse"><stop offset="0" stop-color="#dd001e"/><stop offset="0.42" stop-color="#ab0639"/><stop offset="1" stop-color="#221783"/></linearGradient><linearGradient id="Gradient_bez_nazwy_9-3" x1="-339.29" y1="-679.04" x2="-244.9" y2="-851.14" xlink:href="#Gradient_bez_nazwy_9"/><linearGradient id="Безымянный_градиент_7-2" x1="-385.2" y1="-860.39" x2="-308.27" y2="-942.84" gradientTransform="translate(348.19 1117.59) rotate(21.2)" xlink:href="#Безымянный_градиент_7"/><linearGradient id="Gradient_bez_nazwy_9-4" x1="-329.56" y1="-682.68" x2="-226.32" y2="-776.96" xlink:href="#Gradient_bez_nazwy_9"/><linearGradient id="Gradient_bez_nazwy_5-6" x1="-275.3" y1="-792.85" x2="-263.76" y2="-813.9" gradientTransform="matrix(0.95, 0.31, -0.31, 0.95, 342.45, 964.68)" xlink:href="#Gradient_bez_nazwy_5"/><linearGradient id="Gradient_bez_nazwy_5-7" x1="-271.06" y1="-814.38" x2="-263.77" y2="-833.44" gradientTransform="matrix(0.95, 0.31, -0.31, 0.95, 342.45, 964.68)" xlink:href="#Gradient_bez_nazwy_5"/><linearGradient id="Gradient_bez_nazwy_5-8" x1="-308.8" y1="-804.66" x2="-308.74" y2="-822.71" gradientTransform="matrix(0.95, 0.31, -0.31, 0.95, 342.45, 964.68)" xlink:href="#Gradient_bez_nazwy_5"/><linearGradient id="Gradient_bez_nazwy_5-9" x1="-296.56" y1="-825.99" x2="-293.49" y2="-839.73" gradientTransform="matrix(0.95, 0.31, -0.31, 0.95, 342.45, 964.68)" xlink:href="#Gradient_bez_nazwy_5"/><linearGradient id="Gradient_bez_nazwy_8" x1="-313.03" y1="-699.66" x2="-313.03" y2="-667.23" gradientTransform="matrix(0.95, 0.31, -0.31, 0.95, 342.45, 964.68)" gradientUnits="userSpaceOnUse"><stop offset="0" stop-color="#2c27ce"/><stop offset="1" stop-color="#ef1d68"/></linearGradient><linearGradient id="Gradient_bez_nazwy_8-2" x1="-313.03" y1="-691.38" x2="-313.03" y2="-705.5" xlink:href="#Gradient_bez_nazwy_8"/><linearGradient id="Gradient_bez_nazwy_3" x1="216.3" y1="251.85" x2="237.5" y2="251.85" gradientUnits="userSpaceOnUse"><stop offset="0" stop-color="blue"/><stop offset="1" stop-color="#9e005d"/></linearGradient><linearGradient id="Gradient_bez_nazwy_5-10" x1="200.39" y1="197.32" x2="350.5" y2="197.32" gradientTransform="matrix(1, 0, 0, 1, 0, 0)" xlink:href="#Gradient_bez_nazwy_5"/><linearGradient id="Gradient_bez_nazwy_3-2" x1="262.65" y1="259.22" x2="285.9" y2="259.22" xlink:href="#Gradient_bez_nazwy_3"/><linearGradient id="Gradient_bez_nazwy_3-3" x1="314.13" y1="238.47" x2="337.08" y2="238.47" xlink:href="#Gradient_bez_nazwy_3"/><linearGradient id="Gradient_bez_nazwy_4" x1="226.06" y1="172.53" x2="228.96" y2="-33.82" gradientUnits="userSpaceOnUse"><stop offset="0" stop-color="#2c27ce"/><stop offset="0.65" stop-color="#ef1d68"/><stop offset="1" stop-color="#efba92"/></linearGradient><linearGradient id="Gradient_bez_nazwy_4-2" x1="387.28" y1="217.54" x2="390.18" y2="11.19" xlink:href="#Gradient_bez_nazwy_4"/><linearGradient id="Gradient_bez_nazwy_3-4" x1="144.14" y1="280.86" x2="155.06" y2="280.86" xlink:href="#Gradient_bez_nazwy_3"/><linearGradient id="Gradient_bez_nazwy_5-11" x1="227.23" y1="94.27" x2="188.46" y2="104.96" gradientTransform="matrix(1, 0, 0, 1, 0, 0)" xlink:href="#Gradient_bez_nazwy_5"/><linearGradient id="Gradient_bez_nazwy_5-12" x1="227.25" y1="94.34" x2="188.48" y2="105.02" gradientTransform="matrix(1, 0, 0, 1, 0, 0)" xlink:href="#Gradient_bez_nazwy_5"/><linearGradient id="Gradient_bez_nazwy_5-13" x1="167.78" y1="106.73" x2="174.5" y2="164.49" gradientTransform="matrix(1, 0, 0, 1, 0, 0)" xlink:href="#Gradient_bez_nazwy_5"/><linearGradient id="Gradient_bez_nazwy_2" x1="153.82" y1="168.44" x2="191.38" y2="168.44" gradientUnits="userSpaceOnUse"><stop offset="0" stop-color="#f70f47"/><stop offset="1" stop-color="#9e005d"/></linearGradient><linearGradient id="Gradient_bez_nazwy_2-2" x1="144.95" y1="246.28" x2="162.56" y2="246.28" xlink:href="#Gradient_bez_nazwy_2"/><linearGradient id="Gradient_bez_nazwy_2-3" x1="149.45" y1="194.64" x2="172.77" y2="194.64" xlink:href="#Gradient_bez_nazwy_2"/><linearGradient id="Gradient_bez_nazwy_2-4" x1="179.55" y1="249.12" x2="193.32" y2="249.12" xlink:href="#Gradient_bez_nazwy_2"/><linearGradient id="Gradient_bez_nazwy_2-5" x1="171.74" y1="194.42" x2="193.31" y2="194.42" xlink:href="#Gradient_bez_nazwy_2"/><linearGradient id="Gradient_bez_nazwy_5-14" x1="143.12" y1="109.6" x2="149.84" y2="167.36" gradientTransform="matrix(1, 0, 0, 1, 0, 0)" xlink:href="#Gradient_bez_nazwy_5"/><linearGradient id="Gradient_bez_nazwy_5-15" x1="147.42" y1="109.1" x2="154.14" y2="166.86" gradientTransform="matrix(1, 0, 0, 1, 0, 0)" xlink:href="#Gradient_bez_nazwy_5"/><linearGradient id="Gradient_bez_nazwy_3-5" x1="184.02" y1="282.35" x2="202.03" y2="282.35" xlink:href="#Gradient_bez_nazwy_3"/><clipPath id="clip-path"><path class="cls-1" d="M225.23,72.5c-1.53-1.54-4.65,4.22-6.69,8.62-.34-1.54-.87-2.86-1.8-2.71s-.47,5.23-.39,6.08a6.26,6.26,0,0,0,.24,1.31c0,.06,0,.11,0,.17-2.86,3.41-13.86,12.9-16.16,16.69-4.15-1.19-11.59-4-20.9-6.79a3.93,3.93,0,0,0-1.39-.07,28.72,28.72,0,0,0-6.87-1.22c0-.6,0-1.18,0-1.73,2.67-.37,4.64-3.22,5.27-5.51a35,35,0,0,0,.94-6.68,6.68,6.68,0,0,0,.44-1.14c.48-1.66,1.23-6.74-.32-8.76,2.94-1.74,2.45-7.88-2.35-8.33-2.87,0-.79.68-3.12,1.63-1.16.47-13.93.92-11.9,4.41-1,.16-1.76,1-2.28,2.89-.72,2.7-1,4.41-.63,5.8a1.13,1.13,0,0,0-.46.08c-1.05.43-1.24,2.4-.42,4.41A4.64,4.64,0,0,0,159,84.52a7.49,7.49,0,0,0,2.48,4.7c-.14,1.68-.28,3.66-.38,5.6-1.23.16-2.46.38-3.59.6a16.25,16.25,0,0,0-3,.84,5.57,5.57,0,0,0-2.14,1.11,9,9,0,0,0-3.27,3.72c-1.31,1.65-3,3.95-5.26,7.46-6.66,10.3-8.22,15.11-8.58,17.33a1.31,1.31,0,0,0,0,.51,2.23,2.23,0,0,0,.19.85c2.56,5.75,3.7,7.85,10.41,14.88,3.17,3.32,4.84,5.27,6.46,6.44a2,2,0,0,0,1.67,2.15,2,2,0,0,0,1.21,0,69.47,69.47,0,0,1-.19,7,56.13,56.13,0,0,0-1.23,12.42c-.58,5.13-3.2,42.1-4.14,48.91,0,.27-.06.53-.09.78v0c-5.2,11.67-4.79,49-4.51,56.43,0,.39.11.59.25.68a5.11,5.11,0,0,0-.08,1.43c.06.91-.11,2.13-1,4.91s2.16,3.12,7.26,3c4.77-.09,3.55-1.95,2.77-3.1s-1.93-1.51-2.13-2.79c-.15-.92,0-1.47-.32-2.7h0c1.1-10.14,7.53-41.67,10.25-52.72a13.76,13.76,0,0,0,.39-2.9c3.37-11.49,8.57-31.09,9.84-39.5,1.67,9.44,5.51,30.75,8.25,40.69-3.62,13.92,3.2,42.37,3.63,58.76v0c0,.1,0,.2-.06.3-.39,3.12-.36,3.29,2.5,3.3a39,39,0,0,1,5.81.34c1.84.29,5.48.89,8.6-.11s-2.5-1.54-5.15-2.68a11.88,11.88,0,0,1-5-3.62,2.29,2.29,0,0,0-.44-.56c-.21-21.79,2.26-43.47,2.75-54.73a14.15,14.15,0,0,0,0-1.9,25.24,25.24,0,0,0,0-3.38c-.4-5.09-1.28-26.84-1.84-39.84h0a199.14,199.14,0,0,0-1.28-21.43s-.18-28.07-2.06-46.51c10,2.06,14.52,1.93,16.65,1.55a2,2,0,0,0,1.87-.66c3-3.26,6.07-7.39,10.63-15.28,2.58-4.47,3.29-6.65,3.38-8.72A8,8,0,0,0,226,82.78C226.62,80.86,227.71,75,225.23,72.5Zm-78.91,52.65c1.1-1.5,2.69-3.47,4.61-5.85a154.43,154.43,0,0,1,3.93,23.76C152.34,137.51,148.55,128,146.31,125.15Z"/></clipPath><linearGradient id="Gradient_bez_nazwy_3-6" x1="-4025.94" y1="5542.41" x2="-3829.86" y2="5662.88" gradientTransform="matrix(-0.4, -0.87, 0.54, -0.47, -4460.74, -597.55)" xlink:href="#Gradient_bez_nazwy_3"/></defs><title>управление бюджетом</title><g class="cls-2"><g id="Слой_2" data-name="Слой 2"><g id="Designed_by_Freepik" data-name="Designed by Freepik"><path class="cls-3" d="M10.27,194.07c-25.76-41.07,2-67.46,28-69.72,36.9-3.2,46,14.94,64.08-40.17C115.7,43.5,160.16,23,193.85,56.1c47.09,46.2,57-18.85,81.62-39C326.35-24.4,351.84,15,398.93,77.24,447.28,141.12,447,198.5,414.59,260.47c-23.94,45.76-56.12,77.75-96.3,64.61-57.7-18.86-37.92-79.86-80.63-47C212.1,297.78,158.84,313,137,248.92S47.36,253.22,10.27,194.07Z"/><path class="cls-4" d="M18.14,205.46c-25.76-41.07,2-67.46,28-69.72,36.9-3.2,46,14.94,64.08-40.17C123.57,54.9,168,34.44,201.72,67.49c47.09,46.2,57-18.85,81.62-39C334.22-13,359.71,26.41,406.8,88.63c48.35,63.88,48.08,121.26,15.66,183.23-23.94,45.76-56.12,77.75-96.3,64.61-57.7-18.86-37.92-79.86-80.63-47-25.56,19.67-78.82,34.92-100.69-29.19S55.23,264.61,18.14,205.46Z"/><path class="cls-5" d="M267.21,205.56c-4.48-5.48,6.42-14.14,20-10.86,0,0-.51,6.28-3.51,11C281.13,209.78,273.49,213.24,267.21,205.56Z"/><path class="cls-6" d="M259.3,203.94c-6.18-3.46.8-15.51,14.62-17.42,0,0,1.83,6,.77,11.54C273.8,202.77,268,208.79,259.3,203.94Z"/><path class="cls-7" d="M254.4,203.3c-6.4-.29-5.65-12.87,4.76-20a25.22,25.22,0,0,1,5.31,9C265.65,196.47,263.37,203.71,254.4,203.3Z"/><path class="cls-8" d="M252.34,201c-5.29,2.29-9.63-8.17-4-18a22.66,22.66,0,0,1,7.84,5.2C258.73,191,259.74,197.78,252.34,201Z"/><path class="cls-9" d="M249.49,169.84c-19.56-16.21,12.88-54.21,62.88-52,0,0,2.54,22.47-4.76,41.23C301.4,175.1,276.88,192.55,249.49,169.84Z"/><path class="cls-10" d="M306,121.89a45.43,45.43,0,0,0-14.12,7.56,57.19,57.19,0,0,0-6,5.16c-.93.95-1.9,1.84-2.78,2.82l-1.35,1.45-1.28,1.51a98.71,98.71,0,0,0-9.16,12.93c-.64,1.16-1.4,2.25-2,3.43l-1.91,3.5c-1.17,2.39-2.4,4.75-3.44,7.21a218.16,218.16,0,0,0-11,30.3c-1.49,5.2-2.92,10.45-4.25,15.74-.67,2.64-1.42,5.28-2,8l-.92,4-1,4-.39,0a281.4,281.4,0,0,1,5.62-32.4c.58-2.68,1.38-5.31,2.06-8s1.59-5.25,2.38-7.88a162.32,162.32,0,0,1,5.95-15.35c1.08-2.52,2.4-4.94,3.63-7.39s2.68-4.8,4.18-7.1a89.41,89.41,0,0,1,10-13.06,64.59,64.59,0,0,1,12.59-10.59,40.75,40.75,0,0,1,15.21-6.19Z"/><path class="cls-11" d="M270.78,153c19.31-1.07,16.65-39-15-60.28,0,0-11.72,12.6-15.75,27.39C236.63,132.7,243.74,154.47,270.78,153Z"/><path class="cls-12" d="M258.15,97.9a126.59,126.59,0,0,1,7.48,33.2l.44,4.25.22,4.27.21,4.27c.06,1.42,0,2.85.06,4.27s0,2.85,0,4.28,0,2.85-.12,4.27l-.45,8.54c-.27,2.84-.63,5.66-.94,8.49-.17,1.41-.31,2.83-.5,4.24l-.71,4.21-1.52,8.4c-.62,2.78-1.3,5.54-2,8.3l-1,4.14c-.37,1.37-.8,2.73-1.23,4.08l-2.57,8.11c-.43,1.35-.94,2.68-1.48,4l-1.57,4-1.57,3.95L249.24,231l-.28-.1,2.56-8.05,1.28-4c.44-1.34.86-2.68,1.19-4.05l2.13-8.17c.35-1.36.73-2.72,1-4.09l.85-4.14,1.71-8.27,1.31-8.34.64-4.17.45-4.2c.28-2.8.61-5.6.85-8.4a235.68,235.68,0,0,0,.29-33.74A159.8,159.8,0,0,0,257.87,98Z"/><path class="cls-13" d="M286.61,136.56c-29-20.54,12.19-77,82.21-79.28,0,0,5.94,31.08-2.23,58.05C359.61,138.35,327.27,165.32,286.61,136.56Z"/><path class="cls-14" d="M360.4,63.53a183,183,0,0,0-19.35,16.65c-6.12,5.87-11.93,12-17.48,18.39s-10.84,12.94-15.76,19.79-9.76,13.75-14.15,20.94-8.67,14.47-12.54,22c-1,1.84-2,3.74-2.9,5.63s-1.92,3.76-2.82,5.68l-2.67,5.75c-.94,1.9-1.79,3.84-2.64,5.78l-2.56,5.82c-.8,2-1.57,3.94-2.41,5.89-1.7,3.9-3.12,7.9-4.67,11.87-.82,2-1.54,4-2.27,6l-2.19,6c-.74,2-1.34,4.06-2,6.08l-2.14,6.07-.46-.11a340.41,340.41,0,0,1,15.3-49,296.66,296.66,0,0,1,23-45.91A267.28,267.28,0,0,1,320.86,96a229.56,229.56,0,0,1,18.58-17.75c3.26-2.78,6.6-5.47,10.05-8a119,119,0,0,1,10.69-7.16Z"/><path class="cls-15" d="M295.28,172c-15-20.8,26.29-49.76,74.62-35,0,0-3.19,22.61-15.06,39.12C344.71,190.25,316.33,201.12,295.28,172Z"/><path class="cls-16" d="M362.69,139.35a105.76,105.76,0,0,0-17.19,6.51l-4.14,1.94-4,2.16c-1.32.76-2.72,1.36-4,2.18l-3.92,2.34c-2.65,1.49-5.11,3.3-7.66,4.94-1.25.86-2.57,1.62-3.76,2.56l-3.63,2.75c-1.2.93-2.44,1.81-3.66,2.71s-2.34,1.94-3.51,2.91l-3.49,2.93c-1.15,1-2.35,1.92-3.42,3l-6.66,6.23c-.55.52-1.12,1-1.66,1.57l-1.56,1.67c-1,1.11-2.07,2.23-3.14,3.32l-3.17,3.29c-.52.55-1.07,1.09-1.57,1.66L281,195.78c-1.95,2.35-3.94,4.66-5.95,7s-3.81,4.78-5.71,7.19l-5.65,7.28c-3.67,4.93-7,10.11-10.78,15.06l-.3-.17c3.2-5.29,6.3-10.64,9.58-15.88l5.28-7.63c1.77-2.53,3.46-5.13,5.46-7.49l5.79-7.25,1.45-1.81c.5-.59,1-1.15,1.56-1.72l3.13-3.42,3.13-3.42,1.57-1.71c.54-.56,1.11-1.07,1.67-1.61l6.72-6.4a172.91,172.91,0,0,1,30.09-21.62c2.72-1.48,5.41-3,8.25-4.26l4.2-2,4.3-1.74A91.94,91.94,0,0,1,362.64,139Z"/><path class="cls-17" d="M320.65,114.59a31.33,31.33,0,0,1,8.9-1.56c1.49-.12,3,0,4.45,0s3,.26,4.43.41,2.93.49,4.38.85a42.67,42.67,0,0,1,4.3,1.29,26.24,26.24,0,0,1,8,4.38l-.11.3a89.62,89.62,0,0,0-17-3.7,168.39,168.39,0,0,0-17.36-1.63Z"/><path class="cls-18" d="M331.78,98.18a23.22,23.22,0,0,1,7.16-2.64,34.86,34.86,0,0,1,7.4-.78,33.21,33.21,0,0,1,7.44.88,19.89,19.89,0,0,1,7.06,3.06l-.07.31c-2.38-.42-4.78-.68-7.19-.88s-4.83-.23-7.25-.22-4.84,0-7.26.14-4.84.26-7.25.46Z"/><path class="cls-19" d="M304.44,104.92a26.51,26.51,0,0,1-.81-5c-.11-1.55-.15-3-.18-4.43s0-2.78-.1-4.13a20.08,20.08,0,0,0-.73-4.55l.18-.22a9,9,0,0,1,2.72,4,15.46,15.46,0,0,1,.79,4.82,26.48,26.48,0,0,1-.42,4.84,28,28,0,0,1-1.2,4.7Z"/><path class="cls-20" d="M321.57,88.69a18.2,18.2,0,0,1,.29-3.87c.21-1.18.42-2.31.68-3.38s.55-2.1.74-3.13a13.71,13.71,0,0,0,.31-3.51l.17-.13A6.4,6.4,0,0,1,325,78.19a12.28,12.28,0,0,1-.35,3.74,24.88,24.88,0,0,1-2.9,6.86Z"/><path class="cls-21" d="M266.66,241.32l-27.76-9.15a2.87,2.87,0,0,1-1.91-3.29l6.78-33.44a2.87,2.87,0,0,1,3.71-2.15L282.89,205a2.87,2.87,0,0,1,1.7,3.94l-14.43,30.92A2.87,2.87,0,0,1,266.66,241.32Z"/><path class="cls-22" d="M284.38,212.52l-42.59-14a1.89,1.89,0,0,1-1.27-2.11l1-5.74a1.89,1.89,0,0,1,2.46-1.48l44.27,14.59a1.89,1.89,0,0,1,1.09,2.65l-2.64,5.19A1.89,1.89,0,0,1,284.38,212.52Z"/><path class="cls-23" d="M156.59,267.18s-4.12,3-12.37,3-12.37-3-12.37-3V186.32s4.38,2.16,12.37,2.16c8.71,0,12.37-2.16,12.37-2.16Z"/><path class="cls-24" d="M131.85,186.32s3.23,1.85,11.73,2.16,13-2.16,13-2.16-1.67-2.47-12.37-2.47S131.85,186.32,131.85,186.32Z"/><path class="cls-25" d="M131.85,193s3.53,1.65,12.37,1.65"/><path class="cls-25" d="M131.85,212.94s4.33,1.65,12.37,1.65"/><path class="cls-25" d="M131.85,216.21s4.33,1.65,12.37,1.65"/><path class="cls-25" d="M156.59,248.83s-2.67,1.65-12.37,1.65"/><path class="cls-25" d="M156.59,245.48s-2.67,1.65-12.37,1.65"/><path class="cls-25" d="M156.59,224.1s-2.67,1.65-12.37,1.65"/><path class="cls-25" d="M156.59,208.7s-2.67,1.65-12.37,1.65"/><path class="cls-25" d="M131.85,230.12s4.33,1.65,12.37,1.65"/><path class="cls-25" d="M131.85,204.69s4.92,2,13.19,2c7.58,0,11.54-2,11.54-2"/><path class="cls-25" d="M131.85,200.52s4.92,2,13.19,2c7.58,0,11.54-2,11.54-2"/><path class="cls-25" d="M131.85,241.83s4.92,2,13.19,2c7.58,0,11.54-2,11.54-2"/><path class="cls-25" d="M131.85,257.84s4.92,2,13.19,2c7.58,0,11.54-2,11.54-2"/><path class="cls-26" d="M144.22,270.19c8.25,0,12.37-3,12.37-3V186.32s-3.66,2.16-12.37,2.16Z"/><path class="cls-23" d="M179.44,270.51s-4.12,3-12.37,3-12.37-3-12.37-3v-54s4.38,2.16,12.37,2.16c8.71,0,12.37-2.16,12.37-2.16Z"/><path class="cls-24" d="M154.7,216.51s3.23,1.85,11.73,2.16,13-2.16,13-2.16S177.76,214,167.07,214,154.7,216.51,154.7,216.51Z"/><path class="cls-25" d="M154.7,223.22s3.53,1.65,12.37,1.65"/><path class="cls-25" d="M154.7,243.13s4.33,1.65,12.37,1.65"/><path class="cls-25" d="M154.7,246.41s4.33,1.65,12.37,1.65"/><path class="cls-25" d="M179.44,254.3s-2.67,1.65-12.37,1.65"/><path class="cls-25" d="M179.44,238.9s-2.67,1.65-12.37,1.65"/><path class="cls-25" d="M154.7,260.31S159,262,167.07,262"/><path class="cls-25" d="M154.7,234.89s4.92,2,13.19,2c7.58,0,11.54-2,11.54-2"/><path class="cls-25" d="M154.7,230.71s4.92,2,13.19,2c7.58,0,11.54-2,11.54-2"/><path class="cls-26" d="M167.07,273.53c8.25,0,12.37-3,12.37-3v-54s-3.66,2.16-12.37,2.16Z"/><path class="cls-23" d="M133.58,271.13s-4.12,3-12.37,3-12.37-3-12.37-3v-54s4.38,2.16,12.37,2.16c8.71,0,12.37-2.16,12.37-2.16Z"/><path class="cls-24" d="M108.85,217.13s3.23,1.85,11.73,2.16,13-2.16,13-2.16-1.68-2.47-12.37-2.47S108.85,217.13,108.85,217.13Z"/><path class="cls-25" d="M108.85,223.84s3.53,1.65,12.37,1.65"/><path class="cls-25" d="M108.85,243.75s4.33,1.65,12.37,1.65"/><path class="cls-25" d="M108.85,247s4.33,1.65,12.37,1.65"/><path class="cls-25" d="M133.58,254.91s-2.67,1.65-12.37,1.65"/><path class="cls-25" d="M133.58,239.51s-2.67,1.65-12.37,1.65"/><path class="cls-25" d="M108.85,260.93s4.33,1.65,12.37,1.65"/><path class="cls-25" d="M108.85,235.5s4.92,2,13.19,2c7.58,0,11.54-2,11.54-2"/><path class="cls-25" d="M108.85,231.33s4.92,2,13.19,2c7.58,0,11.54-2,11.54-2"/><path class="cls-26" d="M121.22,274.14c8.25,0,12.37-3,12.37-3v-54s-3.66,2.16-12.37,2.16Z"/><path class="cls-27" d="M202,189.91l.32-15.84a6.55,6.55,0,0,1,9.5-5.71l12.12,6.13S218.48,189.12,202,189.91Z"/><path class="cls-28" d="M237.5,252l-3.64,9.27a7.76,7.76,0,0,1-13.11-1.55l-4.45-20.3S230.27,239.49,237.5,252Z"/><path class="cls-29" d="M312.8,243.55l-37,12.92c-36.81,12.86-75.43-14.11-75.43-52.68h0A55.93,55.93,0,0,1,238.1,151.1l37-12.92c36.81-12.86,75.43,14.11,75.43,52.68h0A55.93,55.93,0,0,1,312.8,243.55Z"/><path class="cls-30" d="M348.45,175.79c-1-4.84,2.06,9.81,2.06,15.07h0a55.93,55.93,0,0,1-37.71,52.68l-37,12.92a56.93,56.93,0,0,1-67.33-23.78s18.4,19.16,50.28,12.29c39.33-8.47,64.15-23.8,78.3-35.59C341.5,205.72,351.36,189.83,348.45,175.79Z"/><path class="cls-31" d="M334.69,152.79s-1-10.61,6.87-12.88c5.56-1.59,7.79,1.61,7.22,5.57-1,7.31-20.18,2.61-13-12"/><path class="cls-32" d="M262.65,257.69l5.83,9.58a7.76,7.76,0,0,0,13.11-1.55l4.3-17S269.88,245.14,262.65,257.69Z"/><path class="cls-33" d="M314.13,237.93l5.86,9.16a7.76,7.76,0,0,0,13.11-1.55l4-18.63S321.3,227.28,314.13,237.93Z"/><circle class="cls-34" cx="240.79" cy="213.69" r="3.29"/><circle class="cls-34" cx="205.26" cy="210.4" r="3.29"/><path class="cls-27" d="M253.85,182l13.28-8.65A6.55,6.55,0,0,1,277.2,178L279,191.49S263.8,195.24,253.85,182Z"/><path class="cls-27" d="M203.52,217.16c.19-.07,6.24-2.92,6.24-2.92s11-.87,15.06,4.85c3.69,5.16,3.52,11.29.06,13.77a50.92,50.92,0,0,1-8.08,4.48Z"/><ellipse class="cls-34" cx="210" cy="227.32" rx="10.47" ry="13" transform="translate(-82.95 327.1) rotate(-66.08)"/><ellipse class="cls-27" cx="213.57" cy="228" rx="0.97" ry="6.82"/><ellipse class="cls-27" cx="203.21" cy="225.86" rx="0.97" ry="6.82"/><path class="cls-35" d="M249,149.25l26-8.53a2.45,2.45,0,0,1,.91-.11l6.85.38a.31.31,0,0,1,.09.6l-26.43,9a1.88,1.88,0,0,1-.78.07l-6.51-.8A.31.31,0,0,1,249,149.25Z"/><polygon class="cls-36" points="243.67 21.67 228.88 5.47 212.68 21.67 222.28 21.67 222.28 42.69 234.07 42.69 234.07 21.67 243.67 21.67"/><polygon class="cls-37" points="403.56 162.05 388.76 145.85 372.56 162.05 382.17 162.05 382.17 183.07 393.96 183.07 393.96 162.05 403.56 162.05"/><ellipse class="cls-23" cx="196.9" cy="49.01" rx="6.99" ry="11.4" transform="translate(55.17 194.21) rotate(-59.67)"/><polygon class="cls-23" points="187.05 43.25 187.89 41.82 188.3 42.67 187.05 43.25"/><polygon class="cls-23" points="206.74 54.77 207.72 53.1 206.83 52.64 206.74 54.77"/><ellipse class="cls-24" cx="197.69" cy="47.66" rx="6.99" ry="11.4" transform="translate(56.72 194.22) rotate(-59.67)"/><path class="cls-23" d="M189.58,42.53s-1.88,5.29,5.88,9.54a10.69,10.69,0,0,0,11.05-.25s-4.2,1-10-2.26C190.1,46,189.58,42.53,189.58,42.53Z"/><ellipse class="cls-23" cx="135.19" cy="114.01" rx="16.41" ry="10.06" transform="translate(-11.38 15.06) rotate(-6.12)"/><polygon class="cls-23" points="151.5 112.26 151.75 114.63 150.55 113.99 151.5 112.26"/><polygon class="cls-23" points="118.87 115.76 119.17 118.53 120.59 118.3 118.87 115.76"/><ellipse class="cls-24" cx="135.43" cy="116.25" rx="16.41" ry="10.06" transform="translate(-11.62 15.1) rotate(-6.12)"/><path class="cls-23" d="M122.76,120s4.33,5.1,14.23,3.46c10.55-1.75,11.57-7.68,11.57-7.68a42.71,42.71,0,0,1-12.39,4.06A43.32,43.32,0,0,1,122.76,120Z"/><ellipse class="cls-23" cx="259.77" cy="131.53" rx="15.67" ry="16.41"/><polygon class="cls-23" points="259.77 115.13 263.48 115.13 262.3 116.26 259.77 115.13"/><polygon class="cls-23" points="259.77 147.94 264.11 147.94 264 146.51 259.77 147.94"/><ellipse class="cls-24" cx="263.28" cy="131.53" rx="15.67" ry="16.41"/><path class="cls-23" d="M260.62,118.43s10.24-.21,13.62,8.27c3,7.45.43,15.06-4.2,18,0,0,.69-8.46-1.79-14.4C264.82,122.06,260.62,118.43,260.62,118.43Z"/><ellipse class="cls-23" cx="314.57" cy="25.96" rx="11.23" ry="11.77" transform="translate(86.48 244.14) rotate(-48.45)"/><polygon class="cls-23" points="305.76 18.15 307.53 16.16 307.57 17.34 305.76 18.15"/><polygon class="cls-23" points="323.37 33.76 325.43 31.44 324.61 30.81 323.37 33.76"/><ellipse class="cls-24" cx="316.24" cy="24.08" rx="11.23" ry="11.76" transform="translate(88.45 244.75) rotate(-48.45)"/><path class="cls-23" d="M312.78,15.48s6.39-2.19,10.94,2.68c4.83,5.16.68,12.18.68,12.18a25.43,25.43,0,0,0-4.71-8.91A25,25,0,0,0,312.78,15.48Z"/><ellipse class="cls-23" cx="337.89" cy="80.49" rx="11.4" ry="6.99" transform="translate(18.54 217.11) rotate(-36.56)"/><polygon class="cls-23" points="347.06 73.69 348.04 75.02 347.09 75.07 347.06 73.69"/><polygon class="cls-23" points="328.73 87.28 329.89 88.83 330.66 88.2 328.73 87.28"/><ellipse class="cls-24" cx="338.83" cy="81.74" rx="11.4" ry="6.99" transform="translate(17.98 217.91) rotate(-36.56)"/><path class="cls-23" d="M347.48,76.82a12.63,12.63,0,0,1-5.09,9.42c-4.18,3.11-8.77,3.28-11.61,1.62a18.14,18.14,0,0,0,9.93-3.65A24.37,24.37,0,0,0,347.48,76.82Z"/><path class="cls-23" d="M377,268.6s-4.35,3.18-13,3.18-13-3.18-13-3.18V183.36s4.62,2.28,13,2.28c9.18,0,13-2.28,13-2.28Z"/><path class="cls-24" d="M350.94,183.36s3.4,1.95,12.36,2.28S377,183.36,377,183.36s-1.77-2.61-13-2.61S350.94,183.36,350.94,183.36Z"/><path class="cls-38" d="M350.94,190.43s3.72,1.74,13,1.74"/><path class="cls-38" d="M350.94,211.42s4.56,1.74,13,1.74"/><path class="cls-38" d="M350.94,214.87s4.56,1.74,13,1.74"/><path class="cls-38" d="M377,249.26S374.2,251,364,251"/><path class="cls-38" d="M377,245.73s-2.82,1.74-13,1.74"/><path class="cls-38" d="M377,223.19s-2.82,1.74-13,1.74"/><path class="cls-38" d="M377,207s-2.82,1.74-13,1.74"/><path class="cls-38" d="M350.94,229.53s4.56,1.74,13,1.74"/><path class="cls-38" d="M350.94,202.73s5.19,2.06,13.91,2.06c8,0,12.17-2.06,12.17-2.06"/><path class="cls-38" d="M350.94,198.33s5.19,2.06,13.91,2.06c8,0,12.17-2.06,12.17-2.06"/><path class="cls-38" d="M350.94,241.87s5.19,2.06,13.91,2.06c8,0,12.17-2.06,12.17-2.06"/><path class="cls-38" d="M350.94,258.75s5.19,2.06,13.91,2.06c8,0,12.17-2.06,12.17-2.06"/><path class="cls-26" d="M364,271.78c8.69,0,13-3.18,13-3.18V183.36s-3.86,2.28-13,2.28Z"/><path class="cls-23" d="M401.1,272.11s-4.35,3.18-13,3.18-13-3.18-13-3.18V215.19s4.62,2.28,13,2.28c9.18,0,13-2.28,13-2.28Z"/><path class="cls-24" d="M375,215.19s3.4,1.95,12.36,2.28,13.71-2.28,13.71-2.28-1.77-2.61-13-2.61S375,215.19,375,215.19Z"/><path class="cls-38" d="M375,222.26s3.72,1.74,13,1.74"/><path class="cls-38" d="M375,243.25s4.56,1.74,13,1.74"/><path class="cls-38" d="M375,246.7s4.56,1.74,13,1.74"/><path class="cls-38" d="M401.1,255s-2.82,1.74-13,1.74"/><path class="cls-38" d="M401.1,238.79s-2.82,1.74-13,1.74"/><path class="cls-38" d="M375,261.36s4.56,1.74,13,1.74"/><path class="cls-38" d="M375,234.56s5.19,2.06,13.91,2.06c8,0,12.17-2.06,12.17-2.06"/><path class="cls-38" d="M375,230.16s5.19,2.06,13.91,2.06c8,0,12.17-2.06,12.17-2.06"/><path class="cls-26" d="M388.06,275.29c8.69,0,13-3.18,13-3.18V215.19s-3.86,2.28-13,2.28Z"/><path class="cls-23" d="M352.76,272.76s-4.35,3.18-13,3.18-13-3.18-13-3.18V215.84s4.62,2.28,13,2.28c9.18,0,13-2.28,13-2.28Z"/><path class="cls-24" d="M326.69,215.84s3.4,1.95,12.36,2.28,13.71-2.28,13.71-2.28-1.77-2.61-13-2.61S326.69,215.84,326.69,215.84Z"/><path class="cls-38" d="M326.69,222.91s3.72,1.74,13,1.74"/><path class="cls-38" d="M326.69,243.9s4.56,1.74,13,1.74"/><path class="cls-38" d="M326.69,247.35s4.56,1.74,13,1.74"/><path class="cls-38" d="M352.76,255.67s-2.82,1.74-13,1.74"/><path class="cls-38" d="M352.76,239.44s-2.82,1.74-13,1.74"/><path class="cls-38" d="M326.69,262s4.56,1.74,13,1.74"/><path class="cls-38" d="M326.69,235.21s5.19,2.06,13.91,2.06c8,0,12.17-2.06,12.17-2.06"/><path class="cls-38" d="M326.69,230.81s5.19,2.06,13.91,2.06c8,0,12.17-2.06,12.17-2.06"/><path class="cls-26" d="M339.73,275.94c8.69,0,13-3.18,13-3.18V215.84s-3.86,2.28-13,2.28Z"/></g><g id="Objects"><path class="cls-39" d="M151.76,277.26a18.5,18.5,0,0,1,.43,3.18c.21,1.28,1.43,1.74,2.13,2.79s2,3-2.77,3.1c-5.11.1-8.13-.24-7.26-3s1-4,1-4.91a3,3,0,0,1,.58-2.4C146.42,275.45,151,274.47,151.76,277.26Z"/><path class="cls-40" d="M220.52,86.18c.22,2.86.05,4.8-3.32,10.64-4.56,7.9-7.61,12-10.63,15.28-2.79,3-9-4.56-6.25-9.34,2.37-4,15.37-15.08,16.8-17.55C218.07,83.58,220.34,83.86,220.52,86.18Z"/><path class="cls-41" d="M204.89,112.74c-2.2.43-7.25.64-19.23-2a78.47,78.47,0,0,1-12.48-3.65c-3.86-1.44-4.43-5.65-3-7.26,2.32-2.6,7.23-4.55,9.29-3.92,11.67,3.56,20.43,7,23.4,7.37C207.24,103.77,207.5,112.22,204.89,112.74Z"/><path class="cls-42" d="M174.1,81.12c2.09,1,3,1,3.75-1.61.58-2,1.57-9.1-1.66-9.58s-5.77-.57-5.39,3.8S171.62,80,174.1,81.12Z"/><path class="cls-43" d="M161.89,84.92c0,.32-.75,7.11-.87,12.32a5.37,5.37,0,0,0,5.05,5h.11c2.5,0,5.45-2.27,5.23-4.77a67.38,67.38,0,0,1-.09-9.25Z"/><path class="cls-44" d="M149.24,113.19c4.65,15.29,6.74,33.85,5.83,44.54h35s-.21-32.82-2.55-50.79a13.45,13.45,0,0,0-7.39-10.31c-2.64-1.4-7.4-2.07-9.34-2.07h-6.47a39.15,39.15,0,0,0-6.84.85C148.23,97.16,146.54,104.32,149.24,113.19Z"/><path class="cls-45" d="M155.21,179.16s-3-7.35-.14-21.43h35a199.14,199.14,0,0,1,1.28,21.43Z"/><path class="cls-46" d="M162.13,225c2.81-11.4-8.85-13.41-12.52-5.16-5.2,11.67-4.79,49-4.51,56.43,0,1,.56.79,1.13.6a8.7,8.7,0,0,1,3.71-.67,3.19,3.19,0,0,1,1.95,1.53C153,267.6,159.41,236.07,162.13,225Z"/><path class="cls-47" d="M172.6,180.7c1.23-14.17-4.38-25.17-13.17-20.5-3.7,2-5.05,5.91-5.55,9.62s-3.22,42.26-4.17,49.23c-2.15,15.71,10.25,11.47,11.6,7.12C164.7,215.18,171.93,188.42,172.6,180.7Z"/><path class="cls-48" d="M193.31,224.28c.46-10.64-9.89-10.41-12.5-1.76-4.09,13.62,3,42.85,3.43,59.54,1.8-2.88,3.51-3.58,4.31-3.52a2.88,2.88,0,0,1,2,1.09C190.3,257.64,192.82,235.65,193.31,224.28Z"/><path class="cls-49" d="M181.23,225.43c1.38,4.34,13.23,9.37,12-6.44-.55-7-2-45.72-2.29-49.45s-.93-9.18-2.8-9.87c-9.36-3.4-18.43,7.73-16,21.74C173.8,190.79,178.37,216.43,181.23,225.43Z"/><path class="cls-50" d="M154.78,149.75c-2.76-.79-4.2-2.76-8.86-7.64-6.71-7-7.86-9.13-10.41-14.88-1.67-3.76,7.21-6.47,10.73-2.18,3,3.63,8.81,19.65,10.63,21.85C158.07,148.35,157,150.38,154.78,149.75Z"/><path class="cls-51" d="M135.31,125.87c.36-2.22,1.92-7,8.58-17.33a78.47,78.47,0,0,1,7.76-10.43c2.69-3.12,6.84-2.19,7.85-.28,1.63,3.08,1.76,8.36.45,10.08-7.39,9.71-13.66,16.72-15,19.39C142.9,131.19,134.88,128.5,135.31,125.87Z"/><path class="cls-52" d="M158.45,80c.58,5.8.75,7.08,3.28,9.45a13.67,13.67,0,0,0,8.9,3.46c3,0,5.17-3.13,5.84-5.59a42.19,42.19,0,0,0,.67-14.85c-.42-3.22-4.39-7.12-8.49-7.12S157,65.84,158.45,80Z"/><path class="cls-52" d="M153.73,146.09c1.34-1.47,3.44-3.76,4.48-5.07s4.11.94,4.17,2.07c.1,1.68-1.59,6.26-3.74,6.25s-2.76,2-4.59,1.35S151.54,148.5,153.73,146.09Z"/><path class="cls-53" d="M191,279.58a11.88,11.88,0,0,0,5,3.62c2.65,1.14,8.27,1.68,5.15,2.68s-6.76.4-8.6.11a39,39,0,0,0-5.81-.34c-2.87,0-2.89-.19-2.5-3.3C184.72,278.06,189.7,277.15,191,279.58Z"/><path class="cls-42" d="M158.46,79.11c1.57,1.57,2.39,1.87,3.92-.23,1.19-1.63,4.4-7.72,1.63-9.2s-5-2.4-6.12,1.67S156.6,77.25,158.46,79.11Z"/><ellipse class="cls-52" cx="158.27" cy="80.86" rx="2.05" ry="3.92" transform="translate(-18.82 65.86) rotate(-22.22)"/><path class="cls-42" d="M160.23,68.58C162.49,72,173.4,72.27,177,71s3.31-8.13-1.78-8.6c-2.87,0-.79.68-3.12,1.63C170.89,64.53,157.82,65,160.23,68.58Z"/><path class="cls-52" d="M216.65,85.52c.64-1.75,6.33-15.28,8.58-13,2.48,2.5,1.4,8.36.79,10.29-1.11,3.52-4.44,5.62-6.67,5.47C217.76,88.14,216,87.19,216.65,85.52Z"/><path class="cls-52" d="M216.35,84.5c-.08-.86-.55-5.93.39-6.08,1.44-.24,1.91,3.07,2.24,5.26.18,1.19-.38,2.9-1.36,2.93S216.49,85.86,216.35,84.5Z"/><g class="cls-54"><path class="cls-55" d="M112.87,50.6c18.28-3.06,44.25,9.16,49.5,28.27,5.36,19.51-9.3,28.85,2.72,55.86,9.51,21.37-1.41,44.81-4,63.3-2.82,20.31,7.33,30.13,4,48.24-7.72,41.68-7.22,54-35.87,62.79-29.41,9.07-35.46-32-54.56-64.38C60.56,220.75,52.54,196,62.18,178.41c13.85-25.25,34.09.36,27-30.1-4.25-18.23-3.56-49.74,22.79-45S86.55,55,112.87,50.6Z"/></g></g></g></g></svg>