<svg xmlns="http://www.w3.org/2000/svg" xmlns:xlink="http://www.w3.org/1999/xlink" viewBox="0 0 621.79 530.32"><defs><style>.cls-1,.cls-28,.cls-38{fill:none;}.cls-2{isolation:isolate;}.cls-3,.cls-85{opacity:0.2;}.cls-4{clip-path:url(#clip-path);}.cls-5{fill:url(#Gradient_bez_nazwy_15);}.cls-6{fill:url(#Gradient_bez_nazwy_5);}.cls-7{fill:url(#Gradient_bez_nazwy_5-2);}.cls-8{fill:url(#Gradient_bez_nazwy_5-3);}.cls-9{fill:url(#Gradient_bez_nazwy_5-4);}.cls-10{fill:url(#Gradient_bez_nazwy_5-5);}.cls-11{fill:url(#Gradient_bez_nazwy_5-6);}.cls-12{fill:url(#Gradient_bez_nazwy_9);}.cls-13{fill:url(#Gradient_bez_nazwy_5-7);}.cls-14{fill:url(#Gradient_bez_nazwy_9-2);}.cls-15{fill:url(#Gradient_bez_nazwy_5-8);}.cls-16{fill:url(#Gradient_bez_nazwy_9-3);}.cls-17{fill:url(#Gradient_bez_nazwy_5-9);}.cls-18{fill:url(#Gradient_bez_nazwy_9-4);}.cls-19{fill:url(#Gradient_bez_nazwy_5-10);}.cls-20{fill:url(#Gradient_bez_nazwy_5-11);}.cls-21{fill:url(#Gradient_bez_nazwy_5-12);}.cls-22{fill:url(#Gradient_bez_nazwy_5-13);}.cls-23{fill:url(#Gradient_bez_nazwy_8);}.cls-24{fill:url(#Gradient_bez_nazwy_8-2);}.cls-25{opacity:0.8;}.cls-26{fill:url(#Gradient_bez_nazwy_15-2);}.cls-27,.cls-36{fill:#7bcaff;}.cls-27,.cls-37{opacity:0.5;}.cls-28{stroke:#bbceff;stroke-width:0.92px;}.cls-28,.cls-38{stroke-miterlimit:10;}.cls-29{fill:#f6f3ff;}.cls-30,.cls-37,.cls-39{fill:#ff3369;}.cls-30{opacity:0.4;}.cls-31{fill:#ffc550;}.cls-32{fill:#edf4fc;}.cls-33{fill:#f2bbd2;}.cls-34{fill:#aaa4f7;}.cls-35{opacity:0.6;}.cls-38{stroke:#ffc550;stroke-width:1.01px;}.cls-40{fill:url(#Gradient_bez_nazwy_8-3);}.cls-41{fill:#ffaf84;}.cls-42{fill:url(#Gradient_bez_nazwy_5-14);}.cls-43{fill:url(#Gradient_bez_nazwy_4);}.cls-44{fill:#ed9169;}.cls-45{fill:url(#Gradient_bez_nazwy_5-15);}.cls-46{fill:url(#Gradient_bez_nazwy_2);}.cls-47{fill:url(#Gradient_bez_nazwy_2-2);}.cls-48{fill:url(#Gradient_bez_nazwy_2-3);}.cls-49{fill:url(#Gradient_bez_nazwy_2-4);}.cls-50{fill:url(#Gradient_bez_nazwy_2-5);}.cls-51{fill:url(#Gradient_bez_nazwy_5-16);}.cls-52{fill:url(#Gradient_bez_nazwy_4-2);}.cls-53{fill:url(#Gradient_bez_nazwy_8-4);}.cls-54{fill:url(#Gradient_bez_nazwy_8-5);}.cls-55{clip-path:url(#clip-path-2);}.cls-100,.cls-103,.cls-56,.cls-70,.cls-96,.cls-97{opacity:0.3;}.cls-100,.cls-103,.cls-56,.cls-70,.cls-85,.cls-96,.cls-97{mix-blend-mode:multiply;}.cls-56{fill:url(#Gradient_bez_nazwy_3);}.cls-57{fill:#4e11f4;}.cls-58{fill:url(#Gradient_bez_nazwy_5-17);}.cls-59{fill:url(#Gradient_bez_nazwy_5-18);}.cls-60{fill:url(#Gradient_bez_nazwy_5-19);}.cls-61{fill:url(#Gradient_bez_nazwy_14);}.cls-62{fill:url(#Gradient_bez_nazwy_14-2);}.cls-63{fill:url(#Gradient_bez_nazwy_14-3);}.cls-64{fill:url(#Gradient_bez_nazwy_14-4);}.cls-65{fill:url(#Gradient_bez_nazwy_14-5);}.cls-66{fill:url(#Gradient_bez_nazwy_3-2);}.cls-67{fill:url(#Gradient_bez_nazwy_5-20);}.cls-68{fill:url(#Gradient_bez_nazwy_5-21);}.cls-69{clip-path:url(#clip-path-3);}.cls-70{fill:url(#Gradient_bez_nazwy_3-3);}.cls-71{fill:url(#Gradient_bez_nazwy_5-22);}.cls-72{fill:url(#Gradient_bez_nazwy_5-23);}.cls-73{fill:url(#Gradient_bez_nazwy_5-24);}.cls-74{fill:url(#Gradient_bez_nazwy_4-3);}.cls-75{fill:url(#Gradient_bez_nazwy_5-25);}.cls-76{fill:url(#Gradient_bez_nazwy_7);}.cls-77{fill:url(#Gradient_bez_nazwy_7-2);}.cls-78{fill:url(#Gradient_bez_nazwy_7-3);}.cls-79{fill:url(#Gradient_bez_nazwy_7-4);}.cls-80{fill:url(#Gradient_bez_nazwy_7-5);}.cls-81{fill:url(#Gradient_bez_nazwy_5-26);}.cls-82{fill:url(#Gradient_bez_nazwy_4-4);}.cls-83{fill:url(#Gradient_bez_nazwy_4-5);}.cls-84{clip-path:url(#clip-path-4);}.cls-85{fill:url(#Gradient_bez_nazwy_3-4);}.cls-86{fill:url(#Gradient_bez_nazwy_10);}.cls-87{fill:url(#Gradient_bez_nazwy_10-2);}.cls-88{fill:url(#Gradient_bez_nazwy_5-27);}.cls-89{fill:#ea8f68;}.cls-90{fill:url(#Gradient_bez_nazwy_5-28);}.cls-91{fill:url(#Gradient_bez_nazwy_14-6);}.cls-92{fill:url(#Gradient_bez_nazwy_14-7);}.cls-93{fill:url(#Gradient_bez_nazwy_14-8);}.cls-94{fill:url(#Gradient_bez_nazwy_14-9);}.cls-95{fill:url(#Gradient_bez_nazwy_14-10);}.cls-96{fill:url(#Gradient_bez_nazwy_3-5);}.cls-97{fill:url(#Gradient_bez_nazwy_3-6);}.cls-98{fill:url(#Gradient_bez_nazwy_10-3);}.cls-99{fill:url(#Gradient_bez_nazwy_5-29);}.cls-100{fill:url(#Gradient_bez_nazwy_3-7);}.cls-101{fill:url(#Gradient_bez_nazwy_5-30);}.cls-102{clip-path:url(#clip-path-5);}.cls-103{fill:url(#Gradient_bez_nazwy_3-8);}</style><clipPath id="clip-path" transform="translate(-9.75)"><path class="cls-1" d="M6.17,195.9c-20.47-49,14.17-72.5,42.71-70.28,40.42,3.14,47,24.36,76.38-31.92,21.69-41.53,73.35-55.67,103.82-14C271.67,138,294,69.56,324.18,52.25c62.37-35.76,82.84,11.37,122.57,87C487.54,216.85,477,278.76,430.9,339.89c-34,45.13-74.5,73.92-115.54,52.55-58.94-30.68-26.67-93-78.67-65.14-31.12,16.68-91.35,23.61-103.52-49.52S35.65,266.4,6.17,195.9Z"/></clipPath><linearGradient id="Gradient_bez_nazwy_15" x1="-214.72" y1="743.97" x2="-214.72" y2="548.57" gradientTransform="translate(516.41 750.71) rotate(135)" gradientUnits="userSpaceOnUse"><stop offset="0" stop-color="#401381"/><stop offset="1" stop-color="#d11137"/></linearGradient><linearGradient id="Gradient_bez_nazwy_5" x1="-192.93" y1="667.47" x2="-192.93" y2="502.13" gradientTransform="translate(516.41 750.71) rotate(135)" gradientUnits="userSpaceOnUse"><stop offset="0" stop-color="#36078b"/><stop offset="1" stop-color="#16b1ff"/></linearGradient><linearGradient id="Gradient_bez_nazwy_5-2" x1="-374.84" y1="-396.11" x2="-360.71" y2="-411.25" gradientTransform="matrix(0.91, 0.41, -0.41, 0.91, 542.44, 697.22)" xlink:href="#Gradient_bez_nazwy_5"/><linearGradient id="Gradient_bez_nazwy_5-3" x1="390.58" y1="177.4" x2="404.71" y2="162.26" gradientTransform="translate(-27.06 -12.87) rotate(2.45)" xlink:href="#Gradient_bez_nazwy_5"/><linearGradient id="Gradient_bez_nazwy_5-4" x1="967.58" y1="1213.73" x2="980.36" y2="1200.02" gradientTransform="translate(-1027.54 -530.94) rotate(-24.19)" xlink:href="#Gradient_bez_nazwy_5"/><linearGradient id="Gradient_bez_nazwy_5-5" x1="1025.14" y1="2370.13" x2="1036.63" y2="2357.82" gradientTransform="matrix(0.64, -0.77, 0.77, 0.64, -2126.1, -552.7)" xlink:href="#Gradient_bez_nazwy_5"/><linearGradient id="Gradient_bez_nazwy_5-6" x1="38.01" y1="-159.11" x2="88.7" y2="-213.43" gradientTransform="translate(281.52 306.27) rotate(12.87)" xlink:href="#Gradient_bez_nazwy_5"/><linearGradient id="Gradient_bez_nazwy_9" x1="333.06" y1="183.24" x2="398.91" y2="139.97" gradientUnits="userSpaceOnUse"><stop offset="0.48" stop-color="#36078b"/><stop offset="1" stop-color="#16b1ff"/></linearGradient><linearGradient id="Gradient_bez_nazwy_5-7" x1="-2144.33" y1="-619.55" x2="-2105.75" y2="-660.9" gradientTransform="matrix(-0.81, -0.59, -0.59, 0.81, -1737.63, -608.99)" xlink:href="#Gradient_bez_nazwy_5"/><linearGradient id="Gradient_bez_nazwy_9-2" x1="359.64" y1="196.46" x2="347.93" y2="112.22" xlink:href="#Gradient_bez_nazwy_9"/><linearGradient id="Gradient_bez_nazwy_5-8" x1="123.23" y1="-71.02" x2="194.18" y2="-147.06" gradientTransform="translate(250.24 192.78) rotate(8.49)" xlink:href="#Gradient_bez_nazwy_5"/><linearGradient id="Gradient_bez_nazwy_9-3" x1="336.25" y1="185.16" x2="440.74" y2="106.79" xlink:href="#Gradient_bez_nazwy_9"/><linearGradient id="Gradient_bez_nazwy_5-9" x1="-585.72" y1="-496.72" x2="-534.53" y2="-551.58" gradientTransform="matrix(0.89, 0.46, -0.46, 0.89, 675.67, 875.42)" xlink:href="#Gradient_bez_nazwy_5"/><linearGradient id="Gradient_bez_nazwy_9-4" x1="343.14" y1="185.62" x2="431.61" y2="156.85" xlink:href="#Gradient_bez_nazwy_9"/><linearGradient id="Gradient_bez_nazwy_5-10" x1="406.29" y1="133.75" x2="419.07" y2="124.17" gradientTransform="matrix(1, 0, 0, 1, 0, 0)" xlink:href="#Gradient_bez_nazwy_5"/><linearGradient id="Gradient_bez_nazwy_5-11" x1="414.78" y1="121.87" x2="424.43" y2="112.32" gradientTransform="matrix(1, 0, 0, 1, 0, 0)" xlink:href="#Gradient_bez_nazwy_5"/><linearGradient id="Gradient_bez_nazwy_5-12" x1="389.24" y1="117.39" x2="394.23" y2="106.47" gradientTransform="matrix(1, 0, 0, 1, 0, 0)" xlink:href="#Gradient_bez_nazwy_5"/><linearGradient id="Gradient_bez_nazwy_5-13" x1="402.52" y1="107.83" x2="408.15" y2="100.34" gradientTransform="matrix(1, 0, 0, 1, 0, 0)" xlink:href="#Gradient_bez_nazwy_5"/><linearGradient id="Gradient_bez_nazwy_8" x1="-481.6" y1="-415.99" x2="-481.6" y2="-394.42" gradientTransform="translate(624.7 757.61) rotate(24.39)" gradientUnits="userSpaceOnUse"><stop offset="0" stop-color="#2c27ce"/><stop offset="1" stop-color="#ef1d68"/></linearGradient><linearGradient id="Gradient_bez_nazwy_8-2" x1="-481.6" y1="-410.49" x2="-481.6" y2="-419.89" xlink:href="#Gradient_bez_nazwy_8"/><linearGradient id="Gradient_bez_nazwy_15-2" x1="97.26" y1="381.86" x2="366.74" y2="160.54" gradientTransform="matrix(1, 0, 0, 1, 0, 0)" xlink:href="#Gradient_bez_nazwy_15"/><linearGradient id="Gradient_bez_nazwy_8-3" x1="333.71" y1="134.27" x2="321.04" y2="192.65" gradientTransform="matrix(1, 0, 0, 1, 0, 0)" xlink:href="#Gradient_bez_nazwy_8"/><linearGradient id="Gradient_bez_nazwy_5-14" x1="343.42" y1="193.41" x2="375.35" y2="196.54" gradientTransform="matrix(1, 0, 0, 1, 0, 0)" xlink:href="#Gradient_bez_nazwy_5"/><linearGradient id="Gradient_bez_nazwy_4" x1="312.85" y1="359.5" x2="313.63" y2="336.18" gradientUnits="userSpaceOnUse"><stop offset="0" stop-color="#2c27ce"/><stop offset="0.65" stop-color="#ef1d68"/><stop offset="1" stop-color="#efba92"/></linearGradient><linearGradient id="Gradient_bez_nazwy_5-15" x1="323.8" y1="186.87" x2="336.01" y2="241.34" gradientTransform="matrix(1, 0, 0, 1, 0, 0)" xlink:href="#Gradient_bez_nazwy_5"/><linearGradient id="Gradient_bez_nazwy_2" x1="333.35" y1="283.7" x2="335.02" y2="433.13" gradientUnits="userSpaceOnUse"><stop offset="0" stop-color="#f70f47"/><stop offset="1" stop-color="#9e005d"/></linearGradient><linearGradient id="Gradient_bez_nazwy_2-2" x1="315.9" y1="283.9" x2="317.57" y2="433.33" xlink:href="#Gradient_bez_nazwy_2"/><linearGradient id="Gradient_bez_nazwy_2-3" x1="322.9" y1="283.82" x2="324.57" y2="433.25" xlink:href="#Gradient_bez_nazwy_2"/><linearGradient id="Gradient_bez_nazwy_2-4" x1="345.05" y1="283.57" x2="346.72" y2="433" xlink:href="#Gradient_bez_nazwy_2"/><linearGradient id="Gradient_bez_nazwy_2-5" x1="341.89" y1="283.61" x2="343.56" y2="433.04" xlink:href="#Gradient_bez_nazwy_2"/><linearGradient id="Gradient_bez_nazwy_5-16" x1="314.35" y1="192.74" x2="308.08" y2="231.87" gradientTransform="matrix(1, 0, 0, 1, 0, 0)" xlink:href="#Gradient_bez_nazwy_5"/><linearGradient id="Gradient_bez_nazwy_4-2" x1="351.32" y1="360.79" x2="352.11" y2="337.47" xlink:href="#Gradient_bez_nazwy_4"/><linearGradient id="Gradient_bez_nazwy_8-4" x1="583.43" y1="456.36" x2="570.75" y2="514.75" gradientTransform="translate(-322.26 -224.17) rotate(-9.15)" xlink:href="#Gradient_bez_nazwy_8"/><linearGradient id="Gradient_bez_nazwy_8-5" x1="590.89" y1="457.98" x2="578.21" y2="516.36" gradientTransform="translate(-322.26 -224.17) rotate(-9.15)" xlink:href="#Gradient_bez_nazwy_8"/><clipPath id="clip-path-2" transform="translate(-9.75)"><path class="cls-1" d="M389.74,184.57a10.87,10.87,0,0,0-4.57,2.23,16.41,16.41,0,0,0-4.19,2.72,1.09,1.09,0,0,0-.66.08c-2.06.93-16.49,3.84-22.35,5.67l-.16-.06c-2.85-.79-10.58-4.52-21-9.16a41.44,41.44,0,0,0-.48-6.5,9.69,9.69,0,0,0,1.85-4.64,43.44,43.44,0,0,0-1.05-12.74c.86,1.42.25-4-1.53-6.29a11,11,0,0,0-5.64-3.22,9.17,9.17,0,0,0-4-.52,10.24,10.24,0,0,0-7.29,2.31,17.93,17.93,0,0,0-7,17.22,40.94,40.94,0,0,1-1.33,18.24,36.13,36.13,0,0,0-1.35,5.3c-.61.92-1.26,1.93-2,3.11-6.42,10.29-8.22,15.21-8.77,17.51a2.45,2.45,0,0,0,1,2.41c.07.12.13.24.22.35,3.73,5,5.2,6.76,11.7,12,3.28,2.64,4.19,4.5,5.14,5.36a2.69,2.69,0,0,0,.71,1.76c.52.49,1.54.42,2.66.13-.06.27-.11.55-.18.82-.19.84-1.85,7.65-1.93,8.38a53.53,53.53,0,0,0-1.09,11.43c-.52,4.73-2.84,38.75-3.67,45,0,.25,0,.45-.06.68l0,.06c-4.62,10.74-4.25,45.08-4,51.94,0,.36.11.52.23.6a4.83,4.83,0,0,0-.08,1.34,13.4,13.4,0,0,1-.87,4.52c-.77,2.56,1.92,2.87,6.44,2.78,4.23-.09,3.15-1.79,2.46-2.86s-1.71-1.39-1.89-2.57c-.13-.84-.05-1.38-.3-2.51l0,0c1-9.34,6.68-38.36,9.09-48.53a13.14,13.14,0,0,0,.35-2.67c3-10.58,7.61-28.62,8.73-36.36,1.47,8.69,4.89,28.36,7.32,37.5-3.2,12.82,2.83,39,3.21,54l0-.07c0,.11-.07.21-.09.33-.34,2.87-.32,3,2.22,3a32.89,32.89,0,0,1,5.15.31c1.64.26,4.86.82,7.63-.1s-2.22-1.42-4.57-2.47a10.61,10.61,0,0,1-4.4-3.34,2,2,0,0,0-.39-.47c-.19-20.07,2-40.05,2.44-50.42a13.38,13.38,0,0,0,0-1.82,23.68,23.68,0,0,0,0-3c-.35-4.68-1.13-24.71-1.63-36.67A190,190,0,0,0,348.63,247c-.3-6.09-7.23-25.21-2.54-37.6,2-5.16,1.17-7.31-.41-9.76a55.83,55.83,0,0,0,11,2.6,3.86,3.86,0,0,0,1.85,0c6.07-1.43,8.28-2.08,15.66-5.95,4.93-2.58,7-1.92,7.84-3.31a4,4,0,0,0,3.37-.67c2.18-2,2.18-1.68,1.53-4.54a1.85,1.85,0,0,0-.27-.6,2.27,2.27,0,0,0,.41-.28C388.16,186,391.09,184.46,389.74,184.57Zm-83.66,31.16c1.36-2.12,3.8-5.43,6.89-9.65a12.88,12.88,0,0,0,5,1.4,106.27,106.27,0,0,1,2.83,13.07,38.21,38.21,0,0,1,0,11.26c-.59.16-1.23.33-1.94.47l-.08,0C316,229,309.66,220,306.08,215.74Z"/></clipPath><linearGradient id="Gradient_bez_nazwy_3" x1="-1678.5" y1="5424.71" x2="-1368.19" y2="5615.36" gradientTransform="matrix(-0.4, -0.87, 0.54, -0.47, -3321.8, 1525.44)" gradientUnits="userSpaceOnUse"><stop offset="0" stop-color="blue"/><stop offset="1" stop-color="#9e005d"/></linearGradient><linearGradient id="Gradient_bez_nazwy_5-17" x1="-433.79" y1="-1837.2" x2="-365.54" y2="-1902.94" gradientTransform="translate(1963.33 1183.73) rotate(13.61)" xlink:href="#Gradient_bez_nazwy_5"/><linearGradient id="Gradient_bez_nazwy_5-18" x1="377.47" y1="232.57" x2="445.73" y2="166.84" gradientTransform="matrix(1, 0, 0, 1, 0, 0)" xlink:href="#Gradient_bez_nazwy_5"/><linearGradient id="Gradient_bez_nazwy_5-19" x1="429.93" y1="166.15" x2="429.93" y2="223.97" gradientTransform="matrix(1, 0, 0, 1, 0, 0)" xlink:href="#Gradient_bez_nazwy_5"/><linearGradient id="Gradient_bez_nazwy_14" x1="376.55" y1="345.97" x2="432.91" y2="238.93" gradientUnits="userSpaceOnUse"><stop offset="0" stop-color="#f70f47"/><stop offset="1" stop-color="#ffb41d"/></linearGradient><linearGradient id="Gradient_bez_nazwy_14-2" x1="423.84" y1="370.87" x2="480.2" y2="263.83" xlink:href="#Gradient_bez_nazwy_14"/><linearGradient id="Gradient_bez_nazwy_14-3" x1="397.21" y1="356.85" x2="453.58" y2="249.81" xlink:href="#Gradient_bez_nazwy_14"/><linearGradient id="Gradient_bez_nazwy_14-4" x1="397.9" y1="357.21" x2="454.27" y2="250.17" xlink:href="#Gradient_bez_nazwy_14"/><linearGradient id="Gradient_bez_nazwy_14-5" x1="376.9" y1="346.15" x2="433.26" y2="239.11" xlink:href="#Gradient_bez_nazwy_14"/><linearGradient id="Gradient_bez_nazwy_3-2" x1="414.19" y1="140.95" x2="462.88" y2="178.44" gradientTransform="matrix(1, 0, 0, 1, 0, 0)" xlink:href="#Gradient_bez_nazwy_3"/><linearGradient id="Gradient_bez_nazwy_5-20" x1="395.05" y1="271.1" x2="470.29" y2="185.2" gradientTransform="matrix(1, 0, 0, 1, 0, 0)" xlink:href="#Gradient_bez_nazwy_5"/><linearGradient id="Gradient_bez_nazwy_5-21" x1="390.55" y1="267.16" x2="465.79" y2="181.26" gradientTransform="matrix(1, 0, 0, 1, 0, 0)" xlink:href="#Gradient_bez_nazwy_5"/><clipPath id="clip-path-3" transform="translate(-9.75)"><path class="cls-1" d="M454.6,364.3a14.7,14.7,0,0,1-1-4.73,7.19,7.19,0,0,0,.17-2.2c.27-7.35.68-44.18-4.45-55.7v0c0-.26-.05-.51-.09-.77-.92-6.72-3.51-43.22-4.08-48.28A55.46,55.46,0,0,0,444,240.33a92.38,92.38,0,0,1,.23-16,37.75,37.75,0,0,0,7.76-4,2.08,2.08,0,0,0,1-1.36l0-.06c.66-2.11,1.39-7,0-19.08a77.53,77.53,0,0,0-2.28-12.63,5.59,5.59,0,0,0-1.81-2.93,12,12,0,0,0-7.32-5.44,19.1,19.1,0,0,0-3.59-.68c-.07-1.26-.16-2.52-.25-3.67a4.13,4.13,0,0,0-.18-.89,7.24,7.24,0,0,0,2.38-3.93,13.59,13.59,0,0,0,1.2-3,6.42,6.42,0,0,0,1.23-2c.78-1.9.63-3.75-.3-4.28.22-4-.26-7-2.9-8.12.12-2.84-10.89-3.25-12-3.69-2.29-.93-.24-1.61-3.08-1.6-5,.47-5.27,7.26-1.76,8.49l.21.06a5.58,5.58,0,0,0-.39,1.38c-.17,1.32-.27,2.56-.32,3.74a1.62,1.62,0,0,0-1.52-.34c-1,.42-1.22,2.37-.41,4.35a5.12,5.12,0,0,0,2.22,2.71,25.27,25.27,0,0,0,.6,3c.65,2.37,2.52,5.79,5.35,5.93a6.17,6.17,0,0,0-.05.63c0,.31,0,.66,0,1a27.47,27.47,0,0,0-7.51,1.45c-2.88.85-5.79,2.75-6.4,4.31l-.74,1.88a12.86,12.86,0,0,0-1.21,3.16c-3.31,8.76-5.47,15.42-6.78,17.55a3.17,3.17,0,0,0-.41,1.14c-3.5,3.09-11,14.68-13.9,17.87l-.16.06a6.18,6.18,0,0,0-1.31-.05c-.85,0-5.87.26-5.9,1.21s1.34,1.26,2.89,1.39c-4,2.59-9.23,6.43-7.52,7.71,2.78,2.09,8.36.23,10.17-.62a7.9,7.9,0,0,0,4.47-6c2-.37,4-1.35,8.06-4.48,3.44-2.68,6.05-4.89,8.16-6.84-.48,12.25-.54,22.66-.54,22.66a196.59,196.59,0,0,0-1.26,21.16h0c-.55,12.83-1.42,34.31-1.81,39.33a24.68,24.68,0,0,0,0,3.34,14,14,0,0,0,0,1.88c.48,11.11,3.79,32.54,2.74,54a2.26,2.26,0,0,0-.45.57,11.74,11.74,0,0,1-4.9,3.58c-2.62,1.13-8.16,1.66-5.08,2.65s6.67.39,8.49.11a38.46,38.46,0,0,1,5.73-.33c2.83,0,2.85-.18,2.47-3.26,0-.09,0-.17-.05-.26v0c.43-16.18,7.16-44.26,3.59-58,2.7-9.82,6.49-30.85,8.14-40.17,1.25,8.31,6.39,27.66,9.72,39a13.62,13.62,0,0,0,.38,2.86c2.69,10.91,9.24,41.32,10.12,52h0c-.27,1.2-.16,1.75-.31,2.65-.21,1.26-1.41,1.72-2.11,2.76s-2,2.8,2.74,2.89C452.47,367.21,455.46,367,454.6,364.3Z"/></clipPath><linearGradient id="Gradient_bez_nazwy_3-3" x1="-1789.87" y1="5714.79" x2="-1588.72" y2="5838.37" xlink:href="#Gradient_bez_nazwy_3"/><linearGradient id="Gradient_bez_nazwy_5-22" x1="-1175.02" y1="358.82" x2="-1171.89" y2="317.34" gradientTransform="matrix(-1, 0.04, 0.04, 1, -992.76, 55.33)" xlink:href="#Gradient_bez_nazwy_5"/><linearGradient id="Gradient_bez_nazwy_5-23" x1="-1114.1" y1="363.42" x2="-1110.97" y2="321.94" gradientTransform="matrix(-1, 0.04, 0.04, 1, -992.76, 55.33)" xlink:href="#Gradient_bez_nazwy_5"/><linearGradient id="Gradient_bez_nazwy_5-24" x1="-2301.33" y1="327.91" x2="-2249.64" y2="364.86" gradientTransform="translate(2501.32 396.11) rotate(12.76)" xlink:href="#Gradient_bez_nazwy_5"/><linearGradient id="Gradient_bez_nazwy_4-3" x1="-1194.03" y1="169.21" x2="-1154.92" y2="125.43" gradientTransform="matrix(-1, 0.04, 0.04, 1, -992.76, 55.33)" xlink:href="#Gradient_bez_nazwy_4"/><linearGradient id="Gradient_bez_nazwy_5-25" x1="-1923.52" y1="233.8" x2="-1824.46" y2="158.06" gradientTransform="matrix(1, -0.04, 0.04, 1, 2054.78, -59.34)" xlink:href="#Gradient_bez_nazwy_5"/><linearGradient id="Gradient_bez_nazwy_7" x1="-1182.96" y1="352.55" x2="-1164.8" y2="274.79" gradientTransform="matrix(-1, 0.04, 0.04, 1, -992.76, 55.33)" gradientUnits="userSpaceOnUse"><stop offset="0" stop-color="#ff664f"/><stop offset="1" stop-color="#9e005d"/></linearGradient><linearGradient id="Gradient_bez_nazwy_7-2" x1="-1142.18" y1="383.64" x2="-1118.59" y2="282.63" xlink:href="#Gradient_bez_nazwy_7"/><linearGradient id="Gradient_bez_nazwy_7-3" x1="-1166.27" y1="356.45" x2="-1148.11" y2="278.69" xlink:href="#Gradient_bez_nazwy_7"/><linearGradient id="Gradient_bez_nazwy_7-4" x1="-1183.55" y1="366.72" x2="-1161.71" y2="273.22" xlink:href="#Gradient_bez_nazwy_7"/><linearGradient id="Gradient_bez_nazwy_7-5" x1="-1189.96" y1="350.92" x2="-1171.8" y2="273.16" xlink:href="#Gradient_bez_nazwy_7"/><linearGradient id="Gradient_bez_nazwy_5-26" x1="-1193.91" y1="204.43" x2="-1143.76" y2="150.69" gradientTransform="matrix(-1, 0.04, 0.04, 1, -994.81, 55.4)" xlink:href="#Gradient_bez_nazwy_5"/><linearGradient id="Gradient_bez_nazwy_4-4" x1="-1188.41" y1="174.23" x2="-1149.3" y2="130.46" gradientTransform="matrix(-1, 0.04, 0.04, 1, -992.76, 55.33)" xlink:href="#Gradient_bez_nazwy_4"/><linearGradient id="Gradient_bez_nazwy_4-5" x1="-1197.48" y1="166.12" x2="-1158.37" y2="122.35" gradientTransform="matrix(-1, 0.04, 0.04, 1, -992.76, 55.33)" xlink:href="#Gradient_bez_nazwy_4"/><clipPath id="clip-path-4" transform="translate(-9.75)"><path class="cls-1" d="M124.4,356.44a4.32,4.32,0,0,1,.66-2.05c-.09-.18,0-.42.29-.76,4.83-5,16.39-39.77,27.73-48.89,0-.35,0-.71.08-1.08.69-7,2.3-34.92,2.72-39.74a57.28,57.28,0,0,1,.77-12.68c2.83-10.56,3.86-36.29,1.92-52.47-.06-.48-.11-1-.14-1.45-.27-3.61,0-7.64,2.17-10.69a8.53,8.53,0,0,1,1.3-1.43,5.54,5.54,0,0,1,.43-.36c2.51-2,5.95-2.56,9.14-2.53.33,0,.65,0,1,0,.86-2.09,1.86-4.31,2.74-6.22a8,8,0,0,1-.8-4.53c-.93-.47-1.76-1.91-2-3.72-.35-2.33.36-4.36,1.58-4.54a1.22,1.22,0,0,1,.51,0c-.07-1.57.71-3.29,2.17-6,1-1.91,2.08-2.55,3.15-2.46-1.24-4.2,12.35-1.38,13.7-1.58,2.7-.4.68-1.66,3.71-.91,4.73,1.63,4,7.71.8,9.2,1,2.24-.77,5-2.13,6.73a43.08,43.08,0,0,1-3.74,10.68c-1.34,2.42-4.47,5.16-7.6,4.39-.2-.05-.42-.12-.63-.19-.13.35-.25.71-.37,1.08a21.6,21.6,0,0,1,5.92,2.58,14.65,14.65,0,0,1,6.27,8.69,36.68,36.68,0,0,1,.48,11.12l-.28,3.15q.15,2.39.3,4.79a149.16,149.16,0,0,0,14.54,7.11,1.66,1.66,0,0,1,1.42-.15c1.39.44,6.61,1.77,8,3.45l.13.06c.77.36,5.35,2.51,5,3.24-.6,1.1-3.68-.19-5.72-1l0,0a6.24,6.24,0,0,1-6.17,1.65,7.66,7.66,0,0,1-2.71-1.17c-2.57.57-5.57-.65-11.66-2.28L197,225a9.24,9.24,0,0,0,.83,3.13,7.46,7.46,0,0,0,1,1.3c3.11,3.63,5.12,7.81,7.2,12.07,1.57,3.22,2.89,7.35,5.25,10.1a2.2,2.2,0,0,1,.43.8c1.74.4,3.7.83,4.93,1,1.68.26,1.22,4.12.25,4.74-1.44.93-6.36,1.72-7.43-.19s-3.12-1.47-3.5-3.4a3.08,3.08,0,0,1,0-1.3c-1.54-.9-3.25-2.44-5.88-5.49-2.36-2.73-4.57-5.56-6.79-8.39-.56,6.31-.94,10.47-.94,10.47s1.45,8.88,2,19.5c1,10.21,2.52,27.3,3.13,32.53a23.79,23.79,0,0,1,.16,2.53c0,.06,0,.12,0,.18.5,9.69-1,31.42-5.4,53.73a3.56,3.56,0,0,1,.36,1.24,14.2,14.2,0,0,0,4.7,2.91c2.74,1.06,8.49,1.39,5.35,2.53s-6.87.66-8.76.45a39.65,39.65,0,0,0-5.93-.12c-2.92.09-2.95-.08-2.68-3.27,0-.14,0-.27.06-.41l0,0c.75-12-5-39.41-2.05-55.06-3-8.71-6.07-21.62-8.06-30.77-1.06,8.47-6.19,23.71-9,34.2a6.21,6.21,0,0,1-3,3.29,20.72,20.72,0,0,1-2,2.39c-8.07,8.28-20.89,32.27-29,41.59a6.9,6.9,0,0,0,3.21,3.37c2.74,1.06,7.62,2.29,4.48,3.44s-6.88.66-8.76.45-2.34-2.54-4.31-3.56C123.74,359.47,124.13,359.63,124.4,356.44Z"/></clipPath><linearGradient id="Gradient_bez_nazwy_3-4" x1="-243.86" y1="2977.97" x2="-51.39" y2="3096.22" gradientTransform="matrix(-0.65, -0.7, 0.36, -0.62, -1078.98, 2029.35)" xlink:href="#Gradient_bez_nazwy_3"/><linearGradient id="Gradient_bez_nazwy_10" x1="292.43" y1="372.61" x2="293.96" y2="332.59" gradientUnits="userSpaceOnUse"><stop offset="0" stop-color="#36078b"/><stop offset="1" stop-color="#168d68"/></linearGradient><linearGradient id="Gradient_bez_nazwy_10-2" x1="259.09" y1="196.29" x2="234.99" y2="210.68" xlink:href="#Gradient_bez_nazwy_10"/><linearGradient id="Gradient_bez_nazwy_5-27" x1="272.5" y1="167.11" x2="259.35" y2="146.55" gradientTransform="matrix(1, 0, 0, 1, 0, 0)" xlink:href="#Gradient_bez_nazwy_5"/><linearGradient id="Gradient_bez_nazwy_5-28" x1="253.56" y1="210.17" x2="294.26" y2="210.17" gradientTransform="matrix(1, 0, 0, 1, 0, 0)" xlink:href="#Gradient_bez_nazwy_5"/><linearGradient id="Gradient_bez_nazwy_14-6" x1="280.65" y1="353.22" x2="265.41" y2="187.04" xlink:href="#Gradient_bez_nazwy_14"/><linearGradient id="Gradient_bez_nazwy_14-7" x1="291.99" y1="352.17" x2="276.75" y2="186" xlink:href="#Gradient_bez_nazwy_14"/><linearGradient id="Gradient_bez_nazwy_14-8" x1="288.77" y1="352.47" x2="273.53" y2="186.31" xlink:href="#Gradient_bez_nazwy_14"/><linearGradient id="Gradient_bez_nazwy_14-9" x1="271.15" y1="354.09" x2="255.9" y2="187.91" xlink:href="#Gradient_bez_nazwy_14"/><linearGradient id="Gradient_bez_nazwy_14-10" x1="271.7" y1="354.06" x2="256.44" y2="187.81" xlink:href="#Gradient_bez_nazwy_14"/><linearGradient id="Gradient_bez_nazwy_3-5" x1="256.23" y1="210.76" x2="284.93" y2="210.76" gradientTransform="matrix(1, 0, 0, 1, 0, 0)" xlink:href="#Gradient_bez_nazwy_3"/><linearGradient id="Gradient_bez_nazwy_3-6" x1="246.42" y1="196.4" x2="271.3" y2="196.4" gradientTransform="matrix(1, 0, 0, 1, 0, 0)" xlink:href="#Gradient_bez_nazwy_3"/><linearGradient id="Gradient_bez_nazwy_10-3" x1="269.11" y1="371.72" x2="270.63" y2="331.7" xlink:href="#Gradient_bez_nazwy_10"/><linearGradient id="Gradient_bez_nazwy_5-29" x1="282.68" y1="160.6" x2="269.53" y2="140.04" gradientTransform="matrix(1, 0, 0, 1, 0, 0)" xlink:href="#Gradient_bez_nazwy_5"/><linearGradient id="Gradient_bez_nazwy_3-7" x1="276.19" y1="201.43" x2="294.67" y2="201.43" gradientTransform="matrix(1, 0, 0, 1, 0, 0)" xlink:href="#Gradient_bez_nazwy_3"/><linearGradient id="Gradient_bez_nazwy_5-30" x1="278.84" y1="163.06" x2="265.69" y2="142.49" gradientTransform="matrix(1, 0, 0, 1, 0, 0)" xlink:href="#Gradient_bez_nazwy_5"/><clipPath id="clip-path-5" transform="translate(-9.75)"><path class="cls-1" d="M297.92,362.35a15.76,15.76,0,0,1-1-4.45c.15,0,.14-.17.16-.8.27-7.21.68-44.89-4.35-56.19v0c0-.25,0-.5-.09-.76-.9-6.59-3.44-42.39-4-47.36a54.29,54.29,0,0,0-1.19-12c-.88-10.35,1.14-28.31,5.64-43.12a24.15,24.15,0,0,0,1.11-6.23c.12-.62.22-1.17.32-1.67A5.25,5.25,0,0,0,292,184a11.44,11.44,0,0,0-6.84-3.56c-1.1-.21-2.29-.42-3.48-.58-.09-1.88-.23-3.8-.36-5.42a7.25,7.25,0,0,0,2.4-4.55,4.49,4.49,0,0,0,2.54-2.79c.79-1.94.61-3.85-.4-4.27a1.12,1.12,0,0,0-.45-.07c.39-1.35.09-3-.61-5.61-.42-1.56-1-2.35-1.74-2.67.85-1.36-.32-3.38-3.8-4.43-8-2.26-17.1,4-17.1,4a12.49,12.49,0,0,0,4.48.76,12.75,12.75,0,0,1-2.48,1.86,13.32,13.32,0,0,0,1.42.23c-1.23,2.12-.55,6.65-.11,8.17a6.54,6.54,0,0,0,.42,1.09,33.57,33.57,0,0,0,.92,6.48,8.63,8.63,0,0,0,.51,1.34,4.74,4.74,0,0,0-3.14-.87c-1.53.25.43,4.34,2.14,7.41a14.73,14.73,0,0,0-3.1,1.12,13.37,13.37,0,0,0-6.22,6.58c-3.08,4.61-5.32,8.27-6.94,11.06-1.31.15-2.54,2.83-2.15,3.72l0,0-1,1.76c-2.56,4.66,1.41,8.61,3.85,8.4a2.71,2.71,0,0,0,2.26-.56,12.89,12.89,0,0,0,1.37-1.39c-.77,14.87-.86,29.54-.86,29.54a120,120,0,0,0,1.34,20.76h0c1.27,12.37,3.54,34.27,4,39.31a24.5,24.5,0,0,0,.49,3.24,13.76,13.76,0,0,0,.26,1.82c2.28,10.73,8.41,32,11.69,52.93a11.76,11.76,0,0,1-4.76,3.44c-2.57,1.11-8,1.62-5,2.6s6.55.38,8.33.11a37.53,37.53,0,0,1,5.62-.33c2.77,0,2.8-.18,2.42-3.2a4.93,4.93,0,0,0-.44-1.51c-2.16-15.79-.24-44.4-5.92-57,.85-10.22-.21-32.14-.19-41.07q0,.58.09,1.18c.58,6.63,5.37,27.76,8.74,39.88a13.48,13.48,0,0,0,.41,3c2.63,10.7,8.76,41.73,9.83,51.55h0c-.14.86-.08,1.35-.21,2.11-.2,1.24-1.38,1.69-2.07,2.7s-1.94,2.92,2.68,3C295.83,365.37,298.76,365,297.92,362.35ZM271.87,177.92c0,.54,0,1.1,0,1.68h-.1a6.1,6.1,0,0,0-.63-1.85A4.19,4.19,0,0,0,271.87,177.92Z"/></clipPath><linearGradient id="Gradient_bez_nazwy_3-8" x1="664.9" y1="472.77" x2="851.52" y2="587.42" gradientTransform="matrix(0.23, -0.93, -0.61, -0.37, 466.8, 1179.43)" xlink:href="#Gradient_bez_nazwy_3"/></defs><title>вам не нужно искать компании</title><g class="cls-2"><g id="Слой_2" data-name="Слой 2"><g id="Background"><g class="cls-3"><g class="cls-4"><path class="cls-5" d="M13.38,269c6.6-16.32,21.94-29.64,40.33-34.63A192.13,192.13,0,0,1,83.64,229c26.2-3.06,37-4.33,45.22-62.83,4.42-31.64,22.92-58.29,48.28-69.53,22.35-9.91,47.22-6.82,70,8.69,18.81,12.8,33.63,17.28,45.29,13.69,16.66-5.13,25.14-26.6,33.33-47.38,5.51-14,11.22-28.43,19.45-38C363.63,12.13,381.52,1.16,399.9.09c34.52-2,68.89,29.81,116.46,73.84q5.48,5.08,11.2,10.35c39.55,36.45,63.73,74.19,73.91,115.39,9.49,38.42,6.82,80.35-8.18,128.19-11.52,36.78-26.19,64.94-43.6,83.71-20.29,21.88-44.39,31.06-71.61,27.29-39-5.39-57.09-27.57-70.33-43.77-7.93-9.7-14.19-17.36-22-17.56-6.81-.17-15,5.33-25.91,17.32-16.91,18.66-48.15,39.13-80.5,35.4-25.53-2.94-47.09-19.93-64.08-50.49-22.2-40-50.93-32.67-84.19-24.24-31.26,7.92-66.68,16.9-98.83-18.42C7.85,310.28,7.64,287.78,11.76,273.64A49,49,0,0,1,13.38,269Z" transform="translate(-9.75)"/><path class="cls-6" d="M38.33,297.7c8.69-15.31,25.65-26.5,44.53-29a192.19,192.19,0,0,1,30.36-1.32c26.38.41,37.29.59,53.1-56.33,8.55-30.78,30.39-54.76,57-62.57,23.46-6.88,47.7-.55,68.26,17.83,17,15.17,31.06,21.55,43.1,19.53,17.19-2.89,28.42-23.06,39.27-42.58,7.31-13.13,14.86-26.7,24.29-35.16C419.33,89.19,438.5,80.67,456.86,82c34.48,2.55,64.37,38.61,105.73,88.52q4.77,5.75,9.74,11.74c34.41,41.34,53.41,81.93,58.08,124.12,4.35,39.33-3.82,80.55-25,126-16.26,34.94-34.51,60.93-54.24,77.25-23,19-48.09,25-74.58,17.63-37.91-10.47-53-34.85-64-52.64-6.58-10.66-11.78-19.07-19.45-20.29-6.73-1.07-15.62,3.3-28,13.75-19.22,16.27-52.88,32.45-84.46,24.5-24.93-6.27-44.06-26-56.88-58.48C207.16,391.6,177.72,395,143.64,399c-32,3.74-68.32,8-95.55-31.27-20.69-29.82-17.93-52.15-12-65.63A49.13,49.13,0,0,1,38.33,297.7Z" transform="translate(-9.75)"/></g></g><path class="cls-7" d="M359.6,182.31c-2.58-3.95,5.26-8.9,14-5.76a18.53,18.53,0,0,1-3.1,7C368.5,186.09,363.2,187.84,359.6,182.31Z" transform="translate(-9.75)"/><path class="cls-8" d="M354.48,180.67c-3.84-2.73,1.64-10.21,10.91-10.48a18.53,18.53,0,0,1-.31,7.69C364.16,180.93,359.86,184.5,354.48,180.67Z" transform="translate(-9.75)"/><path class="cls-9" d="M351.28,179.9c-4.22-.65-2.82-8.92,4.57-12.91a16.77,16.77,0,0,1,2.87,6.35C359.21,176.18,357.19,180.81,351.28,179.9Z" transform="translate(-9.75)"/><path class="cls-10" d="M350.08,178.22c-3.66,1.14-5.79-6.09-1.39-12.23a15.07,15.07,0,0,1,4.82,4C355,172.1,355.21,176.63,350.08,178.22Z" transform="translate(-9.75)"/><path class="cls-11" d="M350.42,157.41c-11.79-12.12,12.38-34.95,45.31-29.91,0,0,.08,15-6.08,26.94C384.38,164.59,366.92,174.39,350.42,157.41Z" transform="translate(-9.75)"/><path class="cls-12" d="M391.21,129.72a28.52,28.52,0,0,0-9.87,4,22.69,22.69,0,0,0-2.23,1.42c-.72.51-1.48.94-2.15,1.52l-2,1.69-1,.84-.93.95a72,72,0,0,0-7,7.91l-3.11,4.29-2.75,4.55c-.46.76-1,1.48-1.38,2.27l-1.23,2.38-2.47,4.75-4.37,9.84c-1.29,3.36-2.72,6.69-3.91,10.12s-2.39,6.86-3.8,10.27l-.26-.06,2.72-10.6c1-3.51,2.22-6.95,3.32-10.43s2.7-6.78,4-10.17l2.45-4.9,1.23-2.45c.41-.82.93-1.57,1.39-2.36l2.89-4.66,3.29-4.39a60.57,60.57,0,0,1,7.57-7.92l1-.92,1.1-.82,2.21-1.63c.73-.56,1.56-1,2.33-1.44a21.32,21.32,0,0,1,2.41-1.32,26.73,26.73,0,0,1,10.49-3Z" transform="translate(-9.75)"/><path class="cls-13" d="M365.71,147.77c12.85.67,13.79-24.62-5.6-40.95,0,0-8.65,7.5-12.37,17C344.56,131.92,347.71,146.84,365.71,147.77Z" transform="translate(-9.75)"/><path class="cls-14" d="M361.27,110.43a71.65,71.65,0,0,1,2.05,11.15c.17,1.88.32,3.77.38,5.67s.14,3.79.13,5.68a140.75,140.75,0,0,1-2.19,22.62c-.39,1.86-.84,3.7-1.26,5.54l-.65,2.77-.77,2.73-1.56,5.46c-.59,1.8-1.24,3.58-1.9,5.35l-1,2.66-1.11,2.61-2.24,5.2c-.76,1.73-1.73,3.36-2.58,5s-1.77,3.33-2.69,5l-.18-.09c1.48-3.44,3.09-6.83,4.48-10.31l2-5.26,1-2.63.86-2.68,1.72-5.35,1.46-5.43.72-2.72.6-2.74c.39-1.83.8-3.66,1.16-5.5a156.85,156.85,0,0,0,2.6-22.3,106.43,106.43,0,0,0-1.2-22.39Z" transform="translate(-9.75)"/><path class="cls-15" d="M377.35,138c-17.74-15.66,13.55-50.1,60-46.59,0,0,1.72,21-5.61,38.25C425.52,144.42,402.2,160,377.35,138Z" transform="translate(-9.75)"/><path class="cls-16" d="M431.37,95a127.8,127.8,0,0,0-14,9.65c-2.22,1.75-4.48,3.42-6.59,5.3l-3.21,2.74-3.07,2.89-3.06,2.89-3,3-3,3c-1,1-1.88,2.08-2.82,3.12-1.83,2.13-3.86,4.07-5.58,6.29l-5.31,6.53c-1.72,2.22-3.35,4.5-5,6.75-.82,1.14-1.69,2.24-2.48,3.4L372,154c-1.54,2.35-3.15,4.65-4.64,7s-2.84,4.86-4.31,7.26L360.87,172l-2,3.76L355,183.25c-2.65,5-4.79,10.27-7.46,15.36l-.3-.1,3.07-8,1.53-4c.51-1.33,1-2.67,1.64-3.95l3.59-7.76,1.8-3.88,2-3.75,4.09-7.51c1.45-2.45,3-4.83,4.53-7.25l2.28-3.62c.79-1.19,1.66-2.32,2.48-3.48,1.68-2.3,3.32-4.64,5-6.91a182.34,182.34,0,0,1,23.57-24.72c8.65-7.4,18-14.13,28.32-19Z" transform="translate(-9.75)"/><path class="cls-17" d="M380.56,162.11c-8.46-14.83,20.93-31,51.86-17.82,0,0-3.72,14.73-12.75,24.81C412,177.7,392.41,182.87,380.56,162.11Z" transform="translate(-9.75)"/><path class="cls-18" d="M427.48,145.3a70.38,70.38,0,0,0-11.84,3.08l-2.88,1-2.83,1.12c-1.9.7-3.73,1.59-5.56,2.45a124.17,124.17,0,0,0-20.81,12.37l-4.88,3.61c-1.66,1.17-3.12,2.59-4.68,3.87s-3.15,2.56-4.56,4-2.93,2.81-4.43,4.19-2.9,2.86-4.31,4.34l-4.22,4.44c-2.78,3-5.36,6.19-8.21,9.2l-.19-.13c2.49-3.27,4.92-6.59,7.47-9.82l4-4.67c1.35-1.55,2.65-3.15,4.14-4.57,2.9-2.92,5.73-5.92,8.9-8.55,1.57-1.33,3-2.79,4.7-4l4.9-3.76a115,115,0,0,1,21.45-12.16c7.58-3.16,15.55-5.63,23.8-6.22Z" transform="translate(-9.75)"/><path class="cls-19" d="M401.43,125.93a20.83,20.83,0,0,1,6-.4,32.94,32.94,0,0,1,5.85.9,30.83,30.83,0,0,1,5.59,2,17.48,17.48,0,0,1,5,3.47l-.09.19a59.68,59.68,0,0,0-11-3.66,112.11,112.11,0,0,0-11.37-2.32Z" transform="translate(-9.75)"/><path class="cls-20" d="M410,115.87a15.45,15.45,0,0,1,4.92-1.24,24.26,24.26,0,0,1,4.95,0,23,23,0,0,1,4.86,1.11,13.24,13.24,0,0,1,4.45,2.53l-.07.2a49.64,49.64,0,0,0-9.48-1.76,93.51,93.51,0,0,0-9.64-.64Z" transform="translate(-9.75)"/><path class="cls-21" d="M391.4,118.38a26.36,26.36,0,0,1,0-6.29c.11-.93.19-1.84.24-2.74a14.34,14.34,0,0,0-.17-3.06l.14-.13a7.77,7.77,0,0,1,1.7,6.1,21,21,0,0,1-1.75,6.2Z" transform="translate(-9.75)"/><path class="cls-22" d="M403.89,108.86a18.8,18.8,0,0,1,1.16-4.73c.27-.69.49-1.36.71-2a8.61,8.61,0,0,0,.46-2.3l.12-.07a5.94,5.94,0,0,1,.07,4.87,17.88,17.88,0,0,1-2.41,4.33Z" transform="translate(-9.75)"/><path class="cls-23" d="M356.69,205.93l-17.72-8a1.91,1.91,0,0,1-1-2.31l6.87-21.64a1.91,1.91,0,0,1,2.61-1.16L370,183a1.91,1.91,0,0,1,.84,2.72l-11.75,19.43A1.91,1.91,0,0,1,356.69,205.93Z" transform="translate(-9.75)"/><path class="cls-24" d="M370.46,188.13l-27.18-12.32a1.26,1.26,0,0,1-.69-1.49l1-3.73a1.26,1.26,0,0,1,1.73-.81l28.25,12.81a1.26,1.26,0,0,1,.53,1.83L372,187.68A1.26,1.26,0,0,1,370.46,188.13Z" transform="translate(-9.75)"/><g class="cls-25"><polygon class="cls-26" points="166.85 141.7 166.85 337.69 395.26 320.12 395.26 166.65 166.85 141.7"/><polygon class="cls-27" points="174.97 332.71 399.77 316.36 399.77 178.97 174.97 157.66 174.97 332.71"/><polygon class="cls-27" points="279.47 314.39 377.83 308.35 377.83 183.3 279.47 174.72 279.47 314.39"/><path class="cls-28" d="M304.29,207l85.48,4.59c1,.06,1.88-1,1.88-2.34V192.3a2.44,2.44,0,0,0-1.88-2.59l-85.48-6.82a2.3,2.3,0,0,0-2.3,2.52v18.76A2.69,2.69,0,0,0,304.29,207Z" transform="translate(-9.75)"/><path class="cls-28" d="M304.29,238.77l85.48,1.66a2.16,2.16,0,0,0,1.88-2.4V221.08a2.34,2.34,0,0,0-1.88-2.52l-85.48-3.88a2.39,2.39,0,0,0-2.3,2.59V236A2.58,2.58,0,0,0,304.29,238.77Z" transform="translate(-9.75)"/><path class="cls-29" d="M301.26,242.26l86,1.34a2.18,2.18,0,0,0,1.89-2.42v-17a2.34,2.34,0,0,0-1.89-2.52l-86-3.58a2.41,2.41,0,0,0-2.31,2.61v18.82A2.58,2.58,0,0,0,301.26,242.26Z" transform="translate(-9.75)"/><path class="cls-28" d="M304.29,270.55l85.48-1.28a2.25,2.25,0,0,0,1.88-2.47V249.85a2.24,2.24,0,0,0-1.88-2.46l-85.48-.95a2.49,2.49,0,0,0-2.3,2.67v18.76A2.48,2.48,0,0,0,304.29,270.55Z" transform="translate(-9.75)"/><polygon class="cls-30" points="132.8 299.28 253.16 294.56 253.16 140.01 132.8 125.48 132.8 299.28"/><path class="cls-28" d="M304.29,302.33l85.48-4.21a2.35,2.35,0,0,0,1.88-2.53V278.64a2.15,2.15,0,0,0-1.88-2.39l-85.48,2A2.6,2.6,0,0,0,302,281v18.76A2.38,2.38,0,0,0,304.29,302.33Z" transform="translate(-9.75)"/><path class="cls-31" d="M210,236.11c-14.39,5.75-31.95,2.2-44.3-10.87A46.37,46.37,0,0,1,154,202.91l20.91-3.48c2.07,9.94,10.45,17.64,20.28,18.06a18.63,18.63,0,0,0,7.48-1.19Z" transform="translate(-9.75)"/><path class="cls-32" d="M224.8,221.81c-.3.31-.61.61-.93.91L210.61,207a20.58,20.58,0,0,0,6.23-15c0-11.6-8.83-21.75-19.95-22.69a18.77,18.77,0,0,0-18.58,10.59L159.2,168.66a38.54,38.54,0,0,1,8.2-11c16.49-15.34,42.19-12.53,57.4,5.35C239.58,180.42,239.56,206.35,224.8,221.81Z" transform="translate(-9.75)"/><path class="cls-33" d="M176.13,189.31a23,23,0,0,0,.49,4.7l-20.92,3.48a43.49,43.49,0,0,1,3.5-28.83l19.11,11.15A21.23,21.23,0,0,0,176.13,189.31Z" transform="translate(-9.75)"/><path class="cls-34" d="M223.87,222.72a36.62,36.62,0,0,1-12.17,8l-7.32-19.81a18.44,18.44,0,0,0,6.24-3.92Z" transform="translate(-9.75)"/><g class="cls-35"><polygon class="cls-36" points="340.92 226.6 375.32 227.78 375.32 225.28 340.92 224 340.92 226.6"/><polygon class="cls-36" points="340.92 231.22 375.32 232.22 375.32 229.72 340.92 228.62 340.92 231.22"/><polygon class="cls-36" points="360.41 236.31 375.32 236.66 375.32 234.16 360.41 233.76 360.41 236.31"/></g><polygon class="cls-37" points="316.28 276.26 326.57 276.5 326.57 264.22 316.28 263.84 316.28 276.26"/><polygon class="cls-37" points="298.29 248.11 308.86 248.35 308.86 235.91 298.29 235.52 298.29 248.11"/><polygon class="cls-33" points="194.69 244.17 194.69 322.08 196.51 321.97 196.51 244.19 194.69 244.17"/><polygon class="cls-32" points="269.04 293.01 269.04 317.34 270.61 317.25 270.61 292.95 269.04 293.01"/><polygon class="cls-34" points="233.27 266.77 233.27 319.63 234.95 319.52 234.95 266.75 233.27 266.77"/><path class="cls-38" d="M163.21,304.62c21.48-1,21.48-49.9,42.12-49.86,19.84,0,19.84,47.08,38.92,46.22,18.37-.82,18.37-46.11,36.07-46.08" transform="translate(-9.75)"/><polygon class="cls-39" points="222.83 242.18 222.83 238.17 215.41 238.03 215.41 242.07 222.83 242.18"/><polygon class="cls-39" points="235.71 242.37 235.71 238.41 228.47 238.27 228.47 242.27 235.71 242.37"/><polygon class="cls-39" points="248.25 242.55 248.25 238.64 241.2 238.51 241.2 242.45 248.25 242.55"/><polygon class="cls-27" points="338.4 257.05 373.34 257.04 373.34 253.67 338.4 253.54 338.4 257.05"/><polygon class="cls-27" points="350.13 263.2 373.34 263.02 373.34 259.65 350.13 259.74 350.13 263.2"/><polygon class="cls-27" points="341.32 263.26 347.35 263.22 347.35 259.75 341.32 259.77 341.32 263.26"/><polygon class="cls-27" points="338.4 197.23 373.34 199.59 373.34 196.22 338.4 193.72 338.4 197.23"/><polygon class="cls-27" points="352.89 204.34 373.34 205.57 373.34 202.21 352.89 200.89 352.89 204.34"/><polygon class="cls-27" points="327.23 202.79 350.13 204.17 350.13 200.71 327.23 199.24 327.23 202.79"/><polygon class="cls-27" points="359.72 286.58 373.34 286.11 373.34 282.74 359.72 283.16 359.72 286.58"/><polygon class="cls-27" points="343 287.16 357.14 286.67 357.14 283.24 343 283.68 343 287.16"/><polygon class="cls-27" points="350.13 293.07 373.34 292.1 373.34 288.73 350.13 289.61 350.13 293.07"/><polygon class="cls-27" points="323.05 294.2 347.35 293.18 347.35 289.71 323.05 290.63 323.05 294.2"/><path class="cls-32" d="M253.16,169.66a5.72,5.72,0,0,0-6.91,1A6.63,6.63,0,0,0,244.5,174l3.14,1a3,3,0,0,1,3.15-2.55,3.09,3.09,0,0,1,1.19.35Z" transform="translate(-9.75)"/><path class="cls-31" d="M255.3,171.42l-.15-.17L253,173.64a4.06,4.06,0,0,1,1,2.68,3.09,3.09,0,0,1-3.2,3.3,3.55,3.55,0,0,1-2.89-2.22L245,178.75a7.88,7.88,0,0,0,1.23,2c2.52,3,6.57,3.28,9.05.7S257.77,174.4,255.3,171.42Z" transform="translate(-9.75)"/><path class="cls-31" d="M247.57,175.79a3.94,3.94,0,0,1,.07-.76l-3.14-1a8,8,0,0,0,.52,4.73l2.88-1.34A4,4,0,0,1,247.57,175.79Z" transform="translate(-9.75)"/><path class="cls-33" d="M255.15,171.25a7,7,0,0,0-2-1.59L252,172.85a3.55,3.55,0,0,1,1,.79Z" transform="translate(-9.75)"/><path class="cls-33" d="M244.87,221.71a6.74,6.74,0,0,0,5.92,4.51,5.72,5.72,0,0,0,3.44-1l-1.71-3a3,3,0,0,1-4-.62,3.77,3.77,0,0,1-.68-1.14Z" transform="translate(-9.75)"/><path class="cls-34" d="M244.35,218.86c0,.08,0,.16,0,.24h3.22a3.65,3.65,0,0,1,.95-2.61,3,3,0,0,1,4.54.19,3.93,3.93,0,0,1,.77,3.69l3,1.24a7.66,7.66,0,0,0,.34-2.26c0-3.9-2.84-7.19-6.36-7.35S244.35,214.91,244.35,218.86Z" transform="translate(-9.75)"/><path class="cls-32" d="M253.06,221.71a3.14,3.14,0,0,1-.54.46l1.71,3a6.66,6.66,0,0,0,2.58-3.59l-3-1.24A3.44,3.44,0,0,1,253.06,221.71Z" transform="translate(-9.75)"/><path class="cls-31" d="M244.35,219.1a7.84,7.84,0,0,0,.52,2.61l3-1.3a3.93,3.93,0,0,1-.26-1.31Z" transform="translate(-9.75)"/><path class="cls-34" d="M253.32,204.25a6.67,6.67,0,0,0,3.84-6.28,8,8,0,0,0-1-3.88l-2.66,1.73a3.81,3.81,0,0,1-.43,4.41,2.94,2.94,0,0,1-1,.7Z" transform="translate(-9.75)"/><path class="cls-33" d="M250.79,204.69H251l-.11-3.54a3.24,3.24,0,0,1-2.38-1.18,3.85,3.85,0,0,1,0-5.06,2.89,2.89,0,0,1,3.31-.65l1-3.28a6,6,0,0,0-2.05-.52c-3.55-.24-6.44,2.77-6.44,6.72S247.25,204.51,250.79,204.69Z" transform="translate(-9.75)"/><path class="cls-31" d="M253.06,195.2a3.78,3.78,0,0,1,.43.62l2.66-1.73a7.13,7.13,0,0,0-3.31-3.1l-1,3.28A3.42,3.42,0,0,1,253.06,195.2Z" transform="translate(-9.75)"/><path class="cls-32" d="M251,204.7a5.57,5.57,0,0,0,2.31-.45l-1.25-3.32a2.81,2.81,0,0,1-1.16.22Z" transform="translate(-9.75)"/></g></g><g id="Designed_by_Freepik" data-name="Designed by Freepik"><path class="cls-40" d="M318.61,154.44a17.93,17.93,0,0,0-7,17.22,40.94,40.94,0,0,1-1.33,18.24c-1.33,4.14-5.93,18,10.38,17.68s17.33-19.41,15.45-29.19,1.55-16.67-.91-19.64S327.06,148.26,318.61,154.44Z" transform="translate(-9.75)"/><path class="cls-41" d="M380.23,190.12c3-2.4,6.12-5,6.75-2.29s.65,2.56-1.53,4.54S377.66,192.14,380.23,190.12Z" transform="translate(-9.75)"/><path class="cls-42" d="M380.32,189.6c-2.06.93-16.49,3.84-22.35,5.67l-.16-.06c-2.92-.81-10.95-4.71-21.76-9.5-1.92-.85-6.54-1-9.65.57-1.93,1-2.57,4.27.93,6.06a87.47,87.47,0,0,0,11.61,5c9.83,3.61,15,4.66,17.79,4.92a3.86,3.86,0,0,0,1.85,0c6.07-1.43,8.28-2.08,15.66-5.95,5.13-2.69,7.14-1.84,8-3.47C382.85,191.56,381.86,188.91,380.32,189.6Z" transform="translate(-9.75)"/><path class="cls-43" d="M314.62,357.05A17.63,17.63,0,0,1,315,360c.19,1.18,1.27,1.6,1.89,2.57s1.77,2.77-2.46,2.86c-4.53.09-7.21-.22-6.44-2.78a13.4,13.4,0,0,0,.87-4.52,2.85,2.85,0,0,1,.51-2.21C309.89,355.39,314,354.49,314.62,357.05Z" transform="translate(-9.75)"/><path class="cls-44" d="M322.93,174.45c0,.33-.57,7.52-.67,13,0,2.7,1.9,5.27,3.84,5.33h.09c1.91,0,4.15-2.4,4-5-.31-4.8-.08-9.71-.07-9.78Z" transform="translate(-9.75)"/><path class="cls-45" d="M317.35,205.48a93.9,93.9,0,0,1,3.45,15.08,38.32,38.32,0,0,1,0,11.35c-.31,2.26-.75,4.51-1.27,6.74-.19.84-1.85,7.65-1.93,8.38h31.08c-.3-6.09-7.23-25.21-2.54-37.6,3.25-8.58-1.07-8.84-4-16a21,21,0,0,0-2.48-5.18,8.93,8.93,0,0,0-4.75-2.92,17.62,17.62,0,0,0-2.89-.41c-5.26-.42-17.64-1.95-18.8,5.53a13.24,13.24,0,0,0,.62,6c.69,2.18,1.73,4.24,2.6,6.36C316.73,203.74,317.06,204.61,317.35,205.48Z" transform="translate(-9.75)"/><path class="cls-46" d="M317.68,266.76S315,260,317.55,247h31.08a190,190,0,0,1,1.13,19.73Z" transform="translate(-9.75)"/><path class="cls-47" d="M323.82,309c2.49-10.5-7.84-12.35-11.11-4.75-4.62,10.74-4.25,45.08-4,51.94,0,.9.5.73,1,.55a7.46,7.46,0,0,1,3.28-.62,2.87,2.87,0,0,1,1.73,1.41C315.7,348.16,321.41,319.14,323.82,309Z" transform="translate(-9.75)"/><path class="cls-48" d="M333.11,268.18c1.09-13-3.89-23.17-11.68-18.87-3.28,1.81-4.48,5.44-4.92,8.85s-2.86,38.9-3.7,45.31c-1.91,14.46,9.09,10.56,10.29,6.55C326.09,299.92,332.51,275.28,333.11,268.18Z" transform="translate(-9.75)"/><path class="cls-49" d="M351.47,308.29c.41-9.79-8.78-9.58-11.08-1.61-3.63,12.53,2.65,39.44,3,54.81,1.6-2.66,3.11-3.3,3.82-3.24a2.55,2.55,0,0,1,1.78,1C348.8,339,351,318.76,351.47,308.29Z" transform="translate(-9.75)"/><path class="cls-50" d="M340.76,309.35c1.22,4,11.73,8.62,10.63-5.93-.49-6.45-1.79-42.08-2-45.51s-.82-8.45-2.48-9.08c-8.3-3.13-16.35,7.11-14.17,20C334.17,277.46,338.23,301.07,340.76,309.35Z" transform="translate(-9.75)"/><path class="cls-41" d="M385,186.94a11.23,11.23,0,0,1,4.77-2.36c1.35-.12-1.58,1.44-2.63,2.37S383.73,187.88,385,186.94Z" transform="translate(-9.75)"/><path class="cls-41" d="M318.82,232.29c3.79-.76,5.72-2,7.45-1.08s-.81,4.3-2.11,4.84-5.83,2.89-7.17,1.64A3.38,3.38,0,0,1,318.82,232.29Z" transform="translate(-9.75)"/><path class="cls-51" d="M306.08,215.74c2.16-3.36,7-9.67,12.87-17.86,1.23-1.7,2.31-6.2,1.42-9.56-.55-2.09-3.65-3.39-6.12-.34A86.72,86.72,0,0,0,307,198.31c-6.42,10.29-8.22,15.21-8.77,17.51a2.45,2.45,0,0,0,1,2.41c.07.12.13.24.22.35,3.73,5,5.2,6.76,11.7,12,4.51,3.63,4.54,5.81,6.35,5.91,1.47.08,3.5-1.89,2.26-3C318.15,232,310.24,220.69,306.08,215.74Z" transform="translate(-9.75)"/><path class="cls-41" d="M318.13,170.29c1.58,6,2,7.27,5,9.32a14.46,14.46,0,0,0,9.88,2.12c3.1-.5,4.87-4.14,5.16-6.82a44.58,44.58,0,0,0-1.8-15.61c-1-3.29-5.79-6.7-10.06-6S314.27,155.74,318.13,170.29Z" transform="translate(-9.75)"/><path class="cls-52" d="M349.42,359.19a10.61,10.61,0,0,0,4.4,3.34c2.35,1,7.33,1.54,4.57,2.47s-6,.36-7.63.1a32.89,32.89,0,0,0-5.15-.31c-2.54,0-2.56-.17-2.22-3C343.86,357.8,348.27,357,349.42,359.19Z" transform="translate(-9.75)"/><path class="cls-53" d="M334.86,156.29c3,3.66-13,13.86-16.94,13.84s-4.24-7.47-1.88-11.66S327.73,147.64,334.86,156.29Z" transform="translate(-9.75)"/><path class="cls-54" d="M328.3,156.3c1.17,3.33,7.3,3.14,8.78,5.81.92,1.66.32-3.94-1.49-6.24S325.94,149.62,328.3,156.3Z" transform="translate(-9.75)"/><ellipse class="cls-41" cx="319.01" cy="170.15" rx="2.17" ry="4.15" transform="translate(-50.41 133.27) rotate(-22.22)"/><g class="cls-55"><path class="cls-56" d="M248.81,51.73c28.92-4.85,70,14.5,78.34,44.75,8.49,30.88-14.72,45.65,4.31,88.4,15.05,33.82-2.24,70.91-6.31,100.18-4.47,32.14,11.61,47.68,6.3,76.34-12.21,66-11.43,85.4-56.77,99.38-46.55,14.35-56.11-50.57-86.34-101.89C166,321,153.33,281.81,168.59,254c21.92-40,54,.58,42.72-47.63-6.72-28.84-5.63-78.71,36.06-71.2S207.15,58.71,248.81,51.73Z" transform="translate(-9.75)"/></g></g><g id="Objects"><path class="cls-57" d="M447.23,358.33a18.19,18.19,0,0,0-.43,3.14c-.21,1.26-1.41,1.72-2.11,2.76s-2,2.8,2.74,2.89c5,.1,8-.06,7.17-2.81a14,14,0,0,1-1-4.85,3,3,0,0,0-.57-2.36C452.5,356.55,448,355.58,447.23,358.33Z" transform="translate(-9.75)"/><path class="cls-41" d="M385.55,221.09c-1.79.43-15.69,4.51-13.73,7,2.17,2.72,8,2.3,10,1.92,3.58-.69,6-3.73,6.1-5.94C388,222.48,387.26,220.69,385.55,221.09Z" transform="translate(-9.75)"/><path class="cls-41" d="M384.58,220.69c-.83-.18-5.75-1.2-6-.29-.39,1.38,2.8,2.22,4.91,2.78,1.14.3,2.89-.05,3-1S385.91,221,384.58,220.69Z" transform="translate(-9.75)"/><path class="cls-57" d="M408.5,360.62a11.74,11.74,0,0,1-4.9,3.58c-2.62,1.13-8.16,1.66-5.08,2.65s6.67.39,8.49.11a38.46,38.46,0,0,1,5.73-.33c2.83,0,2.85-.18,2.47-3.26C414.69,359.12,409.77,358.23,408.5,360.62Z" transform="translate(-9.75)"/><path class="cls-41" d="M440.63,164.39c-.57,5.72-.74,7-3.24,9.33s-6.41,2.68-9.12,2.68c-2.93,0-4.86-3.53-5.52-6a35.27,35.27,0,0,1-.57-13.48c.42-3.18,4.34-7,8.38-7S442,150.4,440.63,164.39Z" transform="translate(-9.75)"/><path class="cls-58" d="M385.59,225.94c2.79.5,4.71.52,10.78-2.22,8.2-3.7,12.55-6.29,16.06-8.94,3.24-2.44-3.59-9.34-8.56-7.05-4.21,1.93-16.33,13.61-18.89,14.78C383.27,223.27,383.33,225.53,385.59,225.94Z" transform="translate(-9.75)"/><path class="cls-59" d="M411.46,213.73c1.69-1.43,5-5.2,10.28-16.08a77.68,77.68,0,0,0,4.87-11.87c1.27-3.86-1.63-6.9-3.76-6.78-3.43.19-8,2.77-8.75,4.75-4.45,11.19-7.18,20.07-8.74,22.59C403.1,210,409.46,215.43,411.46,213.73Z" transform="translate(-9.75)"/><path class="cls-41" d="M437.71,174.47c.15,2,.3,4.27.37,6.35a5.46,5.46,0,0,1-4.77,5.54H433c-2.47,0-5.38-2.24-5.16-4.71.14-1.61.2-3.23.2-4.65a6.43,6.43,0,0,1,4.29-6h0A4,4,0,0,1,437.71,174.47Z" transform="translate(-9.75)"/><path class="cls-60" d="M449.16,198.93c-4.59,15.1-6.1,30.85-5.2,41.4H409.38s.2-32.4,2.52-50.14a13.28,13.28,0,0,1,7.3-10.17c2.6-1.38,7.31-2,9.22-2h6.39a24.21,24.21,0,0,1,6.75.84C451,181.71,451.83,190.18,449.16,198.93Z" transform="translate(-9.75)"/><path class="cls-61" d="M443.82,261.49s3-7.26.14-21.16H409.38a196.59,196.59,0,0,0-1.26,21.16Z" transform="translate(-9.75)"/><path class="cls-62" d="M437,306.76c-2.77-11.26,8.73-13.24,12.36-5.1,5.14,11.52,4.73,48.35,4.45,55.7,0,1,.13,2.15-.36,2.48-.91.63-2.85.61-3.66.59-1.29,0-2.55,0-2.68-1.63C446.24,348.08,439.68,317.67,437,306.76Z" transform="translate(-9.75)"/><path class="cls-63" d="M426.65,263c-1.22-14,4.32-24.85,13-20.23,3.65,1.94,5,5.83,5.48,9.49s3.18,41.72,4.12,48.6c2.12,15.5-10.12,11.33-11.45,7C434.46,297.05,427.32,270.63,426.65,263Z" transform="translate(-9.75)"/><path class="cls-64" d="M415.17,363.08c.43-16.48,7.42-45.34,3.38-58.78-2.57-8.54-12.79-8.77-12.33,1.73.49,11.22,3.86,33,2.71,54.64C408.81,362.81,415.09,365,415.17,363.08Z" transform="translate(-9.75)"/><path class="cls-65" d="M418.14,307.17c-1.36,4.29-13.06,9.25-11.84-6.35.54-6.92,2-45.13,2.27-48.82s.92-9.07,2.76-9.74c9.24-3.36,18.2,7.63,15.77,21.46C425.48,273,421,298.28,418.14,307.17Z" transform="translate(-9.75)"/><ellipse class="cls-41" cx="421.8" cy="163.95" rx="2.03" ry="3.87" transform="translate(-40.43 171.71) rotate(-22.22)"/><ellipse class="cls-41" cx="440.46" cy="163.95" rx="3.87" ry="2.03" transform="translate(112.4 509.73) rotate(-67.79)"/><path class="cls-41" d="M428.49,224c-1.47-.76-13.34-6.14-13.44-3.31-.11,3.13,4.13,6.29,5.69,7.18,2.84,1.63,6.28,1,7.64-.46C429.35,226.4,429.89,224.75,428.49,224Z" transform="translate(-9.75)"/><path class="cls-41" d="M426.75,221.82c-.71-.28-4.92-1.93-5.29-1.16-.56,1.17,2.15,2.39,3.93,3.2,1,.44,2.57.39,2.83-.44S427.88,222.27,426.75,221.82Z" transform="translate(-9.75)"/><path class="cls-66" d="M438.87,153.11c-2.23,3.33-13,3.64-16.51,2.41s-3.27-8,1.76-8.49c2.83,0,.78.67,3.08,1.6C428.35,149.11,441.24,149.56,438.87,153.11Z" transform="translate(-9.75)"/><path class="cls-67" d="M423.76,228.14c2.69.88,5,.06,11.46-1.37,9.37-2.05,11.47-3.14,16.73-6.44,3.44-2.15-2.33-9.28-7.58-7.71-4.43,1.33-18,11.23-20.75,12C421.83,225.18,421.57,227.42,423.76,228.14Z" transform="translate(-9.75)"/><path class="cls-68" d="M452.94,218.91c.66-2.12,1.39-7.05,0-19.09a77.53,77.53,0,0,0-2.28-12.63c-1-3.94-5.08-4.94-6.81-3.7-2.79,2-5.22,6.62-4.82,8.71C441.32,204,443.79,213,443.84,216,443.9,220.28,452.17,221.41,452.94,218.91Z" transform="translate(-9.75)"/><g class="cls-69"><path class="cls-70" d="M442.85,140c15.6-9.55,44.43,4.95,49.62,23.81,5.3,19.26-9.18,28.48,2.69,55.15,9.39,21.1-1.39,44.23-3.93,62.49-2.79,20,7.24,29.74,3.93,47.62-7.62,41.14,29.86,65.63,1.58,74.35-29,9-28.58-9.39-60.16-9.5-27.43-.1-28.9-69.91-26.07-96.62,3-28.27,19.26-33.11,12.25-63.18-4.19-18-7.63-28.27,10.26-47.73C442.16,176.41,413,158.27,442.85,140Z" transform="translate(-9.75)"/></g><path class="cls-41" d="M209.89,252c2,.46,5.07,1.17,6.75,1.44s1.22,4.12.25,4.74c-1.44.93-6.36,1.72-7.43-.19s-3.12-1.47-3.5-3.4S206.66,251.27,209.89,252Z" transform="translate(-9.75)"/><path class="cls-71" d="M192.13,359a12.11,12.11,0,0,0,5.2,3.5c2.74,1.06,8.49,1.39,5.35,2.53s-6.87.66-8.76.45a39.65,39.65,0,0,0-5.93-.12c-2.92.09-2.95-.08-2.68-3.27C185.69,357.71,190.72,356.59,192.13,359Z" transform="translate(-9.75)"/><path class="cls-72" d="M130.94,354.69c.44.75,1.71,5,4.45,6s7.62,2.29,4.48,3.44-6.88.66-8.76.45-2.34-2.54-4.31-3.56c-3.05-1.57-2.66-1.42-2.39-4.61A3.51,3.51,0,0,1,130.94,354.69Z" transform="translate(-9.75)"/><path class="cls-73" d="M211.29,251.63c-2.36-2.75-3.68-6.87-5.25-10.1-2.08-4.26-4.08-8.44-7.2-12.07a7.46,7.46,0,0,1-1-1.3c-.87-1.63-.91-4.2-1.1-6-.21-2-.34-4-.47-6.07-.38-5.84-.7-11.69-1.15-17.52-.17-2.2-4-6.29-7.44-5.39-3.82,1-4.94,2.68-4.87,6.88a80,80,0,0,0,1.18,13.2c1.4,9,3.35,18.64,9.13,26,2.27,2.89,4.53,5.79,6.94,8.58,4.49,5.21,6.31,6,9.14,6.77C211.51,255.18,212.54,253.09,211.29,251.63Z" transform="translate(-9.75)"/><path class="cls-74" d="M190.16,170.63c2,1.57,2.91,1.82,4.37-.73.07-.12,7.89-7.63.72-10.53-3.29-1.33-5.94-2.09-6.67,2.62S187.84,168.76,190.16,170.63Z" transform="translate(-9.75)"/><path class="cls-44" d="M177.57,171.18c-.17.31-3.45,7-5.54,12.22-1,2.58.66,6,3.24,7l.11,0c2.55.95,6.41-.25,7.13-2.89a73.32,73.32,0,0,1,3.4-9.46Z" transform="translate(-9.75)"/><path class="cls-75" d="M158.57,198.77c1.93,16.19.9,41.91-1.92,52.47l35.7-1.35s2.09-23.09,3.83-43.13a36.68,36.68,0,0,0-.48-11.12,14.65,14.65,0,0,0-6.27-8.69,27.55,27.55,0,0,0-9.18-3.41,41.24,41.24,0,0,0-8.77-1.24c-4,0-8.44.86-10.88,4.32-2.16,3.05-2.44,7.08-2.17,10.69C158.47,197.8,158.51,198.28,158.57,198.77Z" transform="translate(-9.75)"/><path class="cls-76" d="M157.62,273.07s-3.37-7.38-1-21.84l35.7-1.35a202.58,202.58,0,0,1,2.13,21.79Z" transform="translate(-9.75)"/><path class="cls-77" d="M161.2,315.76c8.36-8.58,3.56-16-5.1-12.84-12.24,4.46-25.49,45.22-30.75,50.7-.69.72-.18,1,.36,1.25,1.6.8,2.63-.46,4.56.18.79.26,1.89,2.3,1.89,2.3C140.31,348,153.13,324,161.2,315.76Z" transform="translate(-9.75)"/><path class="cls-78" d="M175.4,274c.71-14.49-5.44-25.48-14.21-20.38-3.69,2.15-4.92,6.22-5.29,10s-2,32.91-2.74,40c-1.58,16.08,11.86,10.91,13.06,6.43C169.25,298.75,175,281.86,175.4,274Z" transform="translate(-9.75)"/><path class="cls-79" d="M197.67,304.63c-.56-10.84-6.34-13.2-11.58-5.62-8.24,11.93.14,48.41-.76,62.7a8.05,8.05,0,0,1,6.66-1.87c1.24.5.28-1.48.28-1.48C196.72,336,198.17,314.32,197.67,304.63Z" transform="translate(-9.75)"/><path class="cls-80" d="M183.57,307.5c1.57,4.37,15.79,10.48,13.92-5.58-.83-7.12-3.42-36.23-3.86-40s-1.3-9.32-3.23-9.94c-9.67-3.11-18.48,8.58-15.44,22.76C177,284.2,180.32,298.44,183.57,307.5Z" transform="translate(-9.75)"/><path class="cls-81" d="M180.47,218.07a58.81,58.81,0,0,1-7.45-7.38c-1.78-2.1-3.48-4.28-5.12-6.49a80.17,80.17,0,0,1-7.2-11.13c-2-3.68,0-8,3.08-9,3.4-1,5.52.95,9.23,4.54,8.34,8.06,12.39,19.44,14.56,22.77.58,0,0-.16.58,0,4.62,1.22,21.55-11.53,29.61-13.3,1.88-.41,4.56,4,2.33,4.79-2.75,1-10.6,8-16.47,11.8-4.93,3.16-13,8.71-16.89,7a26.3,26.3,0,0,1-5.9-3.29Z" transform="translate(-9.75)"/><path class="cls-41" d="M175,166.7c-.89,6.27-1,7.67,1,10.82a14.85,14.85,0,0,0,8.5,6c3.13.77,6.26-2,7.6-4.39a45.84,45.84,0,0,0,4.54-15.49c.39-3.5-2.8-8.65-7.12-9.71S177.14,151.39,175,166.7Z" transform="translate(-9.75)"/><path class="cls-82" d="M175.23,165.76c1.25,2.06,2,2.59,4.19.77,1.67-1.42,6.63-7,4.09-9.29s-4.69-3.83-6.89.19S173.74,163.31,175.23,165.76Z" transform="translate(-9.75)"/><ellipse class="cls-41" cx="174.58" cy="167.55" rx="2.23" ry="4.26" transform="translate(-32.55 27.58) rotate(-8.48)"/><path class="cls-83" d="M179.81,155.1c1.51,4.14,12.95,7.29,17,6.9s5.59-7.72.34-9.53c-3-.75-1,.52-3.71.91C192.11,153.58,178.2,150.69,179.81,155.1Z" transform="translate(-9.75)"/><path class="cls-41" d="M216,198.49c1.44-1.25,7.61-7.27,8.49-4.14,1,3.46-.13,5.6-1.63,7-2.74,2.58-3.9,2.16-5.82.91C215.67,201.38,214.61,199.67,216,198.49Z" transform="translate(-9.75)"/><path class="cls-41" d="M223.22,193.41c.71-.47,4.95-3.24,5.36-2.53.62,1.09-2.09,3-3.88,4.33-1,.7-2.61,1-2.92.24S222.08,194.16,223.22,193.41Z" transform="translate(-9.75)"/><g class="cls-84"><path class="cls-85" d="M86.48,149.76c15.67-8.19,49.26-6.1,59.68,9.68,10.64,16.11,3.6,31.25,18.65,51,13.71,18,5.93,41.19,9.07,58.73,3.45,19.25,34,8.92,46.27,32.17,18.92,35.73-18.94,61.47-42.31,78-24,16.93-60.79,32.5-87.71,8.75-19.88-17.54-15.31-88.6-11.77-107.39,5.08-27,31-9.76,15.56-35.28-9.25-15.27-18-44,7.34-47.55S63.91,161.55,86.48,149.76Z" transform="translate(-9.75)"/></g><path class="cls-86" d="M290.69,356.49a17.94,17.94,0,0,0-.42,3.08c-.2,1.24-1.38,1.69-2.07,2.7s-1.94,2.92,2.68,3c4.94.09,7.87-.23,7-2.93a13.74,13.74,0,0,1-.95-4.76,2.9,2.9,0,0,0-.56-2.32C295.86,354.75,291.42,353.8,290.69,356.49Z" transform="translate(-9.75)"/><path class="cls-87" d="M251.53,213c1.88-1.09,5.7-4.15,12.73-13.73A76,76,0,0,0,271,188.61c1.9-3.51.11-6.58-2.45-7.2-3.28-.79-6.85-.29-10.56,5.19a198,198,0,0,0-11.09,18.16C244.11,209.92,249.3,214.24,251.53,213Z" transform="translate(-9.75)"/><path class="cls-88" d="M269.06,166.57c-2,.95-2.9,1-3.63-1.56-.56-2-1.52-8.81,1.61-9.27s5.59-.55,5.22,3.68S271.46,165.44,269.06,166.57Z" transform="translate(-9.75)"/><path class="cls-89" d="M280.89,170.25c0,.31.73,6.88.85,11.93a5.2,5.2,0,0,1-4.89,4.88h-.11c-2.42,0-5.28-2.19-5.06-4.62a65.3,65.3,0,0,0,.09-9Z" transform="translate(-9.75)"/><path class="cls-90" d="M293.13,197.62c-4.51,14.81-6.52,32.78-5.64,43.12H253.56s.2-31.78,2.47-49.18a13,13,0,0,1,7.16-10,24.36,24.36,0,0,1,9-2h6.27a37.92,37.92,0,0,1,6.62.82C294.11,182.1,295.74,189,293.13,197.62Z" transform="translate(-9.75)"/><path class="cls-91" d="M287.35,261.5s2.93-7.12.14-20.76H253.56a120,120,0,0,0,1.34,20.76Z" transform="translate(-9.75)"/><path class="cls-92" d="M280.65,305.91c-2.72-11,8.57-13,12.13-5,5,11.3,4.62,49,4.35,56.19,0,.94,0,.86-.53.72-.84-.21-1.61-2-3.82-1.94-1.27,0-2.3,1.58-2.3,1.58C289.42,347.64,283.28,316.61,280.65,305.91Z" transform="translate(-9.75)"/><path class="cls-93" d="M271.5,263c-1.19-13.72,3.26-24.36,11.77-19.83,3.58,1.91,4.89,5.72,5.38,9.31s3.12,40.93,4,47.67c2.08,15.21-9.93,11.11-11.23,6.89C278.16,296.39,272.15,270.46,271.5,263Z" transform="translate(-9.75)"/><path class="cls-94" d="M259.64,305.88c-2.14-10.08,7.78-11.52,11.65-3.68,6.09,12.35,4,42,6.26,58-2.18-2.46-3.82-2.46-4.58-2.27a2.35,2.35,0,0,0-1.61,1.15C268.1,338,261.93,316.65,259.64,305.88Z" transform="translate(-9.75)"/><path class="cls-41" d="M256.66,201.67c-1.81-.66-4.64-1.69-6.11-2.36s-3.11,2.64-2.66,3.64c.66,1.49,4.16,4.67,6,3.7s3.25.45,4.55-.89S259.62,202.75,256.66,201.67Z" transform="translate(-9.75)"/><path class="cls-95" d="M271.36,305c-.62,4.37-11.13,11.06-12.48-4.23-.6-6.78-4.49-44-4.82-47.64s-.81-9.1.47-10c8-5.45,17,4.28,16.88,18.06C271.34,270.47,272.65,296,271.36,305Z" transform="translate(-9.75)"/><path class="cls-96" d="M256.53,205.12c1.26,2.48,3.4,3.47,8.91,7,7.93,5.06,12.35,7,16.3,7.11s4.58-8.06-.15-10.6c-4-2.15-20.27-4.75-22.7-6.07C257.28,201.68,255.5,203.12,256.53,205.12Z" transform="translate(-9.75)"/><path class="cls-97" d="M271.3,181.74c-.13,2.78-.79,5-4.3,10.51-4.71,7.39-10.65,17.57-14,20.34-3,2.56-8.95-3.28-5.68-7.54,2.77-3.6,19.1-22.46,20.78-24.66C269.26,178.94,271.41,179.49,271.3,181.74Z" transform="translate(-9.75)"/><path class="cls-41" d="M284.22,165.49c-.56,5.61-.73,6.86-3.18,9.15a13.24,13.24,0,0,1-8.62,3.35c-2.87,0-5-3-5.65-5.41a40.8,40.8,0,0,1-.65-14.38c.41-3.12,4.25-6.9,8.22-6.9S285.59,151.77,284.22,165.49Z" transform="translate(-9.75)"/><path class="cls-98" d="M271.37,358.74a11.51,11.51,0,0,1-4.81,3.51c-2.57,1.11-8,1.62-5,2.6s6.55.38,8.33.11a37.53,37.53,0,0,1,5.62-.33c2.77,0,2.8-.18,2.42-3.2C277.44,357.27,272.62,356.39,271.37,358.74Z" transform="translate(-9.75)"/><path class="cls-99" d="M284.2,164.62c-1.52,1.52-2.31,1.81-3.79-.22-1.15-1.58-4.26-7.47-1.58-8.91s4.87-2.32,5.92,1.62S286,162.82,284.2,164.62Z" transform="translate(-9.75)"/><ellipse class="cls-41" cx="284.39" cy="166.31" rx="3.8" ry="1.99" transform="translate(13.1 366.65) rotate(-67.77)"/><path class="cls-41" d="M268.25,183.72c-.78-1.13-6.41-10.29-4.1-10.67,2.55-.42,5.58,2.73,6.47,3.92,1.63,2.16,1.46,5,.41,6.31C270.28,184.18,269,184.79,268.25,183.72Z" transform="translate(-9.75)"/><path class="cls-100" d="M282.83,219.13c2-1,4.71-6,8.5-17.24a75.94,75.94,0,0,0,3.23-12.17c.74-3.92-2.46-6.51-4.51-6.12-3.32.62-7.39,3.7-7.91,5.73-2.91,11.45-4.44,20.43-5.64,23.08C274.76,216.28,280.68,220.17,282.83,219.13Z" transform="translate(-9.75)"/><path class="cls-101" d="M282.39,155.11c-1.84,1.25-10.27,3.55-12.74,4.17,0,0,3.43-1.76,4-2.67,0,0-5.86.81-9.48,0a12.75,12.75,0,0,0,2.48-1.86,12.48,12.48,0,0,1-4.48-.76s9.15-6.24,17.1-4C283.31,151.25,284.24,153.84,282.39,155.11Z" transform="translate(-9.75)"/><g class="cls-102"><path class="cls-103" d="M305.41,173.75c-15.79-6.09-34.31,11.38-35.88,29.41-1.6,18.41,13.11,24.38,6.76,50.63-5,20.76,8.66,40,14,56.21,5.89,17.78-11.37,36.8-5.37,52.52,13.8,36.17-6.46,56.19,20.73,59.4,27.92,3.3,24.44-13.32,53.15-18.69,24.95-4.67,14.62-68.44,7.59-92.27C359,285.73,343.35,284,344.71,255.5c.81-17.07,2.22-27-17.3-41.72C317.41,206.24,335.63,185.4,305.41,173.75Z" transform="translate(-9.75)"/></g></g></g></g></svg>