<?xml version="1.0" encoding="utf-8"?>
<!-- Generator: Adobe Illustrator 21.0.0, SVG Export Plug-In . SVG Version: 6.00 Build 0)  -->
<svg version="1.1" id="Слой_1" xmlns="http://www.w3.org/2000/svg" xmlns:xlink="http://www.w3.org/1999/xlink" x="0px" y="0px"
	 viewBox="0 0 117.6 149.8" style="enable-background:new 0 0 117.6 149.8;" xml:space="preserve">
<style type="text/css">
	.st0{opacity:0.5;fill:none;stroke:#0037FF;stroke-linecap:round;stroke-linejoin:round;enable-background:new    ;}
	.st1{fill:none;stroke:#0037FF;stroke-linecap:round;stroke-linejoin:round;}
	.st2{opacity:0.6;}
	.st3{opacity:0.6;fill:none;stroke:#0037FF;stroke-linecap:round;stroke-linejoin:round;enable-background:new    ;}
	.st4{fill:url(#SVGID_1_);}
	.st5{fill:url(#SVGID_2_);}
	.st6{fill:#4E11F4;}
	.st7{fill:#FFAF84;}
	.st8{fill:url(#SVGID_3_);}
	.st9{fill:url(#SVGID_4_);}
	.st10{fill:url(#SVGID_5_);}
	.st11{fill:url(#SVGID_6_);}
	.st12{fill:url(#SVGID_7_);}
	.st13{fill:url(#SVGID_8_);}
	.st14{fill:url(#SVGID_9_);}
	.st15{fill:url(#SVGID_10_);}
	.st16{fill:url(#SVGID_11_);}
	.st17{fill:url(#SVGID_12_);}
</style>
<title>verstalshik</title>
<g>
	<g id="Слой_2">
		<g id="Designed_by_Freepik">
			<polygon class="st0" points="114.8,102 0.5,102.5 0.5,28.4 114.8,20.7 			"/>
			<polygon class="st1" points="117.1,21.9 1.9,29.2 1.9,18.4 117.1,10.1 			"/>
			<polygon class="st1" points="114.8,19.6 3.8,26.9 3.8,23.3 114.8,15.7 			"/>
			<polygon class="st1" points="5.5,22 3.8,22.1 3.8,20.2 5.5,20.1 			"/>
			<polygon class="st1" points="8.5,21.7 6.8,21.9 6.8,20 8.5,19.9 			"/>
			<polygon class="st1" points="11.6,21.5 9.9,21.6 9.9,19.8 11.6,19.7 			"/>
			<polygon class="st0" points="52.9,92.5 109.4,92 109.4,26.7 52.9,30.1 			"/>
			<path class="st1" d="M60.5,44.2c-0.4,0-0.7-0.2-1-0.4C59.2,43.5,59,43,59,42.6v-8.5c0-0.9,0.7-1.6,1.5-1.7l50.3-2.9
				c0.9-0.1,1.6,0.6,1.7,1.5c0,0,0,0.1,0,0.1V40c0,0.9-0.7,1.7-1.6,1.7L60.5,44.2L60.5,44.2z M110.9,30.3L110.9,30.3l-50.4,2.9
				c-0.5,0-0.8,0.4-0.8,0.9v8.5c0,0.2,0.1,0.4,0.3,0.6c0.1,0.1,0.3,0.2,0.5,0.2l50.3-2.4c0.5,0,0.9-0.5,0.9-1v-8.9
				c0-0.2-0.1-0.5-0.3-0.6C111.3,30.3,111.1,30.3,110.9,30.3z"/>
			<path class="st1" d="M60.5,58.7c-0.4,0-0.7-0.2-1-0.4C59.2,58,59,57.6,59,57.1v-8.5c0-0.9,0.7-1.6,1.5-1.7l50.3-2.3
				c0.4,0,0.9,0.1,1.2,0.4c0.3,0.3,0.5,0.7,0.5,1.2v8.9c0,0.9-0.7,1.7-1.6,1.7L60.5,58.7L60.5,58.7z M110.9,45.4L110.9,45.4
				l-50.4,2.3c-0.5,0-0.8,0.4-0.8,0.9v8.5c0,0.2,0.1,0.4,0.3,0.6c0.1,0.1,0.3,0.2,0.5,0.2l50.3-1.9c0.5,0,0.9-0.5,0.9-1v-8.9
				c0-0.2-0.1-0.5-0.3-0.6C111.3,45.5,111.1,45.4,110.9,45.4z"/>
			<path class="st1" d="M60.5,73.2c-0.4,0-0.7-0.2-1-0.4c-0.3-0.3-0.5-0.7-0.5-1.2v-8.5c0-0.9,0.7-1.6,1.5-1.7l50.3-1.7
				c0.4,0,0.9,0.1,1.2,0.5c0.3,0.3,0.5,0.7,0.5,1.2v8.9c0,0.9-0.7,1.7-1.6,1.7L60.5,73.2L60.5,73.2z M110.9,60.5L110.9,60.5
				l-50.4,1.7c-0.5,0-0.8,0.4-0.8,0.9v8.6c0,0.2,0.1,0.4,0.3,0.6c0.1,0.1,0.3,0.2,0.5,0.2l50.3-1.3c0.5,0,0.9-0.4,0.9-0.9v-8.9
				c0-0.2-0.1-0.5-0.3-0.6C111.3,60.6,111.1,60.5,110.9,60.5L110.9,60.5z"/>
			<path class="st1" d="M60.5,87.7c-0.4,0-0.8-0.2-1.1-0.4C59.1,87,59,86.6,59,86.2v-8.6c0-0.8,0.7-1.5,1.5-1.6l50.3-1.1
				c0.4,0,0.9,0.2,1.2,0.5c0.3,0.3,0.5,0.7,0.5,1.2v8.9c0,0.9-0.7,1.7-1.7,1.7L60.5,87.7L60.5,87.7z M60.5,87L60.5,87l50.3-0.7
				c0.5,0,0.9-0.4,0.9-0.9v-8.9c0-0.2-0.1-0.5-0.3-0.6c-0.2-0.2-0.4-0.2-0.6-0.3l-50.3,1.1c-0.5,0-0.8,0.4-0.8,0.9v8.6
				c0,0.2,0.1,0.5,0.3,0.6C60.1,86.9,60.3,87,60.5,87L60.5,87z"/>
			<polygon class="st0" points="84.6,65.9 106.4,65.3 106.4,63.5 84.6,64.2 			"/>
			<polygon class="st0" points="91.6,68.8 106.4,68.4 106.4,66.6 91.6,67.1 			"/>
			<polygon class="st0" points="86.3,68.9 89.9,68.8 89.9,67.1 86.3,67.2 			"/>
			<polygon class="st0" points="84.6,36.7 106.4,35.5 106.4,33.8 84.6,35 			"/>
			<polygon class="st0" points="93.3,39.3 106.4,38.6 106.4,36.9 93.3,37.6 			"/>
			<polygon class="st0" points="78.2,40.1 91.6,39.4 91.6,37.7 78.2,38.4 			"/>
			<polygon class="st0" points="97.6,80.5 106.4,80.4 106.4,78.6 97.6,78.8 			"/>
			<polygon class="st0" points="87.3,80.7 96,80.5 96,78.8 87.3,79 			"/>
			<polygon class="st0" points="91.6,83.7 106.4,83.5 106.4,81.7 91.6,82 			"/>
			<polygon class="st0" points="75.8,83.9 89.9,83.7 89.9,82 75.8,82.2 			"/>
			<path class="st1" d="M63,56.1l50.5-2c0.7,0,1.3-0.6,1.3-1.3v-8.9c0-0.7-0.5-1.2-1.2-1.2c0,0-0.1,0-0.1,0L63,45.1
				c-0.7,0.1-1.2,0.6-1.2,1.3v8.6C61.8,55.6,62.3,56.1,63,56.1C63,56.1,63,56.1,63,56.1z"/>
			<g class="st2">
				<polygon class="st1" points="90.4,46.9 112.1,46 112.1,44.7 90.4,45.7 				"/>
				<polygon class="st1" points="90.4,49.2 112.1,48.3 112.1,47 90.4,47.9 				"/>
				<polygon class="st1" points="102.4,51 112.1,50.6 112.1,49.3 102.4,49.7 				"/>
			</g>
			<polygon class="st1" points="72,52.3 77.6,52.1 77.6,46.3 72,46.5 			"/>
			<polygon class="st3" points="65.5,52.6 71.1,52.4 71.1,46.6 65.5,46.8 			"/>
			<polyline class="st1" points="9.5,34.9 7.4,37 9.5,39 			"/>
			<polyline class="st1" points="14.6,34.9 16.6,37 14.6,39 			"/>
			<line class="st1" x1="11.2" y1="39.4" x2="12.8" y2="34.9"/>
			<circle class="st1" cx="18.8" cy="39.4" r="0.6"/>
			<circle class="st1" cx="21.2" cy="39.4" r="0.6"/>
			<circle class="st1" cx="23.6" cy="39.4" r="0.6"/>
			<path class="st1" d="M39.1,46.1L8.5,48c-0.2,0-0.4-0.1-0.5-0.3c0,0,0,0,0-0.1c0-0.2,0.2-0.4,0.4-0.4l30.6-2
				c0.2,0,0.4,0.2,0.4,0.4c0,0,0,0,0,0C39.4,45.9,39.3,46,39.1,46.1z"/>
			<path class="st1" d="M43.3,45.8L41,46c-0.2,0-0.4-0.2-0.4-0.4c0,0,0,0,0,0c0-0.2,0.2-0.4,0.4-0.5l2.4-0.2c0.2,0,0.4,0.2,0.4,0.4
				c0,0,0,0,0,0C43.8,45.6,43.6,45.8,43.3,45.8z"/>
			<path class="st1" d="M47.7,45.5l-3,0.2c-0.2,0-0.4-0.2-0.4-0.4c0,0,0,0,0,0c0-0.2,0.2-0.4,0.4-0.5l3-0.2c0.2,0,0.4,0.2,0.4,0.4
				c0,0,0,0,0,0C48.1,45.3,47.9,45.5,47.7,45.5z"/>
			<path class="st1" d="M27.6,51.9l-19.2,1c-0.2,0-0.4-0.1-0.5-0.3c0,0,0-0.1,0-0.1c0-0.2,0.2-0.4,0.4-0.4l19.2-1
				c0.2,0,0.4,0.2,0.4,0.4c0,0,0,0,0,0C28,51.7,27.8,51.8,27.6,51.9z"/>
			<path class="st1" d="M33.9,51.6l-3.4,0.2c-0.2,0-0.4-0.2-0.4-0.4c0,0,0,0,0,0c0-0.2,0.2-0.4,0.4-0.5l3.4-0.2
				c0.2,0,0.4,0.2,0.4,0.4c0,0,0,0,0,0C34.3,51.4,34.1,51.5,33.9,51.6z"/>
			<path class="st1" d="M33.9,54.5l-9.3,0.4c-0.2,0-0.4-0.2-0.4-0.4c0,0,0,0,0,0c0-0.2,0.2-0.4,0.4-0.5l9.3-0.4
				c0.2,0,0.4,0.2,0.4,0.4c0,0,0,0,0,0C34.3,54.3,34.1,54.5,33.9,54.5z"/>
			<path class="st1" d="M23.3,55l-1.9,0.1c-0.2,0-0.4-0.2-0.4-0.4c0,0,0,0,0,0c0-0.2,0.2-0.4,0.4-0.4l1.9-0.1c0.2,0,0.4,0.2,0.4,0.4
				c0,0,0,0,0,0C23.7,54.8,23.5,55,23.3,55z"/>
			<path class="st1" d="M19.9,55.1l-1.9,0.1c-0.2,0-0.4-0.2-0.4-0.4c0,0,0,0,0,0c0-0.2,0.2-0.4,0.4-0.4l1.9-0.1
				c0.2,0,0.4,0.2,0.4,0.4c0,0,0,0,0,0C20.3,54.9,20.2,55.1,19.9,55.1z"/>
			<path class="st1" d="M16.6,55.3l-1.9,0.1c-0.2,0-0.4-0.2-0.4-0.4c0,0,0,0,0,0c0-0.2,0.2-0.4,0.4-0.4l1.9-0.1
				c0.2,0,0.4,0.2,0.4,0.4c0,0,0,0,0,0C17,55.1,16.8,55.3,16.6,55.3z"/>
			<path class="st1" d="M13.2,55.4l-1.9,0.1c-0.2,0-0.4-0.2-0.4-0.4c0,0,0,0,0,0c0-0.2,0.2-0.4,0.4-0.4l1.9-0.1
				c0.2,0,0.4,0.2,0.4,0.4c0,0,0,0,0,0C13.6,55.2,13.4,55.4,13.2,55.4z"/>
			<path class="st1" d="M40.4,57.9l-29.1,1c-0.2,0-0.4-0.2-0.4-0.4c0,0,0,0,0,0c0-0.2,0.2-0.4,0.4-0.4L40.4,57
				c0.2,0,0.4,0.2,0.4,0.4c0,0,0,0,0,0C40.8,57.7,40.6,57.9,40.4,57.9z"/>
			<path class="st1" d="M9.1,55.6H8.5c-0.2,0-0.4-0.1-0.5-0.3c0,0,0,0,0,0c0-0.2,0.2-0.4,0.4-0.4h0.7c0.2,0,0.4,0.2,0.4,0.4
				c0,0,0,0,0,0C9.5,55.4,9.3,55.6,9.1,55.6z"/>
			<path class="st1" d="M9.1,59H8.5c-0.2,0-0.4-0.2-0.4-0.4c0,0,0,0,0,0c0-0.2,0.2-0.4,0.4-0.4h0.7c0.2,0,0.4,0.2,0.4,0.4
				c0,0,0,0,0,0C9.6,58.8,9.4,59,9.1,59z"/>
			<path class="st1" d="M9.1,62.4H8.5c-0.2,0-0.4-0.1-0.5-0.3c0,0,0,0,0-0.1c0-0.2,0.2-0.4,0.4-0.4h0.7c0.2,0,0.4,0.2,0.4,0.4
				c0,0,0,0,0,0C9.5,62.2,9.3,62.4,9.1,62.4z"/>
			<path class="st1" d="M9.1,65.8H8.5c-0.2,0-0.4-0.1-0.5-0.3c0,0,0,0,0-0.1C8,65.2,8.2,65,8.4,65c0,0,0,0,0,0h0.7
				c0.2,0,0.4,0.2,0.4,0.4c0,0,0,0,0,0C9.5,65.6,9.4,65.8,9.1,65.8z"/>
			<path class="st1" d="M46.1,57.7l-4,0.1c-0.2,0-0.4-0.2-0.4-0.4c0,0,0,0,0,0c0-0.2,0.2-0.4,0.4-0.5l4-0.2c0.2,0,0.4,0.2,0.4,0.4
				c0,0,0,0,0,0C46.6,57.5,46.4,57.7,46.1,57.7z"/>
			<path class="st1" d="M19.3,62.1l-8,0.2c-0.2,0-0.4-0.2-0.4-0.4c0,0,0,0,0,0c0-0.2,0.2-0.4,0.4-0.4l8-0.2c0.2,0,0.4,0.2,0.4,0.4
				c0,0,0,0,0,0C19.7,61.9,19.5,62.1,19.3,62.1z"/>
			<path class="st1" d="M19.3,65.7l-8,0.1c-0.2,0-0.4-0.2-0.4-0.4c0,0,0,0,0,0c0-0.2,0.2-0.4,0.4-0.4l8-0.2c0.2,0,0.4,0.2,0.4,0.4
				c0,0,0,0,0,0C19.7,65.5,19.5,65.7,19.3,65.7z"/>
			<path class="st1" d="M19.3,69.2l-8,0.1c-0.2,0-0.4-0.2-0.4-0.4l0,0c0-0.2,0.2-0.4,0.4-0.4l8-0.1c0.2,0,0.4,0.2,0.4,0.4
				c0,0,0,0,0,0C19.7,69.1,19.5,69.2,19.3,69.2C19.3,69.2,19.3,69.2,19.3,69.2z"/>
			<path class="st1" d="M19.3,72.8h-8c-0.2,0-0.4-0.2-0.4-0.4s0.2-0.4,0.4-0.4l0,0h8c0.2,0,0.4,0.2,0.4,0.4
				C19.7,72.6,19.5,72.8,19.3,72.8L19.3,72.8L19.3,72.8z"/>
			<path class="st1" d="M41,72.8H24.6c-0.2,0-0.4-0.2-0.4-0.4s0.2-0.4,0.4-0.4l0,0H41c0.2,0,0.4,0.3,0.4,0.5
				C41.3,72.7,41.1,72.8,41,72.8L41,72.8z"/>
			<path class="st1" d="M41,69l-6.7,0.1c-0.2,0-0.4-0.2-0.4-0.4c0,0,0,0,0,0c0-0.2,0.2-0.4,0.4-0.4l6.7-0.1c0.2,0,0.4,0.2,0.4,0.4
				c0,0,0,0,0,0C41.4,68.8,41.2,69,41,69C41,69,41,69,41,69z"/>
			<path class="st1" d="M41,65.2h-2.6c-0.2,0-0.4-0.2-0.4-0.4c0,0,0,0,0,0c0-0.2,0.2-0.4,0.4-0.4H41c0.2,0,0.4,0.2,0.4,0.4
				c0,0,0,0,0,0C41.4,65,41.2,65.2,41,65.2z"/>
			
				<linearGradient id="SVGID_1_" gradientUnits="userSpaceOnUse" x1="80.2506" y1="358.6476" x2="100.6106" y2="322.2177" gradientTransform="matrix(0.99 0.16 0.16 -0.99 -53.6324 373.3411)">
				<stop  offset="0" style="stop-color:#36078B"/>
				<stop  offset="1" style="stop-color:#16B1FF"/>
			</linearGradient>
			<path class="st4" d="M80.6,54.1c1.7,0.9,3.3,0.6,7.9,0.3c6.6-0.4,8.1-0.9,12-2.6c2.6-1.1-0.6-6.5-4.3-6
				c-3.2,0.4-13.4,5.7-15.3,5.9C79.7,51.9,79.2,53.4,80.6,54.1z"/>
			
				<linearGradient id="SVGID_2_" gradientUnits="userSpaceOnUse" x1="91.1855" y1="364.7613" x2="111.5455" y2="328.3313" gradientTransform="matrix(0.99 0.16 0.16 -0.99 -53.6324 373.3411)">
				<stop  offset="0" style="stop-color:#36078B"/>
				<stop  offset="1" style="stop-color:#16B1FF"/>
			</linearGradient>
			<path class="st5" d="M101.4,51c0.7-1.4,1.7-4.6,2-12.9c0.2-2.9,0.1-5.9-0.2-8.8c-0.2-2.8-2.9-3.9-4.2-3.3
				c-2.1,1.1-4.2,3.9-4.2,5.4c0.3,8.3,1,14.6,0.7,16.6C95.1,51,100.6,52.6,101.4,51z"/>
			<path class="st6" d="M95.6,143.6c-0.2,0.7-0.3,1.4-0.3,2.1c-0.1,0.9-1,1.2-1.4,1.9s-1.3,1.9,1.9,2c3.5,0.1,5.5,0,4.9-1.9
				c-0.4-1.1-0.6-2.2-0.7-3.3c0.1-0.6,0-1.2-0.4-1.6C99.3,142.4,96.2,141.7,95.6,143.6z"/>
			<path class="st6" d="M60.3,145.2c-0.9,1.1-2,1.9-3.3,2.4c-1.8,0.8-5.6,1.1-3.5,1.8c1.9,0.5,3.9,0.5,5.8,0.1
				c1.3-0.2,2.6-0.3,3.9-0.2c1.9,0,2-0.1,1.7-2.2C64.6,144.1,61.2,143.5,60.3,145.2z"/>
			<path class="st7" d="M99.7,14c-1,3.8-1.3,4.7-3.2,6s-4.6,1.1-6.5,0.9s-2.9-2.9-3.1-4.6C86.7,13.1,87.1,10,88,7
				c1.1-2.6,3.7-4.1,6.4-3.9C97.2,3.6,102.1,4.7,99.7,14z"/>
			
				<linearGradient id="SVGID_3_" gradientUnits="userSpaceOnUse" x1="76.9607" y1="376.8981" x2="76.9607" y2="337.2381" gradientTransform="matrix(0.99 0.16 0.16 -0.99 -53.6324 373.3411)">
				<stop  offset="0" style="stop-color:#36078B"/>
				<stop  offset="1" style="stop-color:#16B1FF"/>
			</linearGradient>
			<path class="st8" d="M74.7,44.4c1.3-0.8,3.9-3,8.7-9.8c1.7-2.4,3.3-4.9,4.6-7.6c1.3-2.5-0.4-4.9-1.8-5c-2.3-0.2-5.7,1-6.4,2.3
				c-4.2,7.1-7,12.8-8.3,14.4C69.4,41,73.2,45.3,74.7,44.4z"/>
			<path class="st7" d="M96.7,20.6c-0.1,1.4-0.3,2.9-0.4,4.3c-0.3,1.9-1.9,3.3-3.8,3.3h-0.2c-1.7-0.3-3.4-2.1-3-3.7
				c0.3-1.1,0.5-2.2,0.6-3.1c0.3-1.8,1.7-3.3,3.6-3.6l0,0c1.5-0.3,3,0.7,3.2,2.2C96.7,20.1,96.7,20.3,96.7,20.6z"/>
			
				<linearGradient id="SVGID_4_" gradientUnits="userSpaceOnUse" x1="86.6115" y1="376.8981" x2="86.6115" y2="337.2381" gradientTransform="matrix(0.99 0.16 0.16 -0.99 -53.6324 373.3411)">
				<stop  offset="0" style="stop-color:#36078B"/>
				<stop  offset="1" style="stop-color:#16B1FF"/>
			</linearGradient>
			<path class="st9" d="M101.8,38.3c-4.7,9.7-7.4,20.3-7.9,27.5l-23.4-3.7c0,0,3.6-21.9,7-33.7c0.9-2.9,3.1-5.2,6-6.1
				c2.1-0.5,4.3-0.7,6.5-0.4l4.3,0.7c1.5,0.2,3.1,0.7,4.5,1.3C104.9,26.9,104.5,32.7,101.8,38.3z"/>
			
				<linearGradient id="SVGID_5_" gradientUnits="userSpaceOnUse" x1="80.4596" y1="341.9376" x2="95.4596" y2="246.5775" gradientTransform="matrix(0.99 0.16 0.16 -0.99 -53.6324 373.3411)">
				<stop  offset="0" style="stop-color:#0000FF"/>
				<stop  offset="1" style="stop-color:#9E005D"/>
			</linearGradient>
			<path class="st10" d="M91.5,80.2c0,0,2.8-4.6,2.3-14.3l-23.4-3.7c-1.3,4.7-2.3,9.4-3.1,14.2L91.5,80.2z"/>
			
				<linearGradient id="SVGID_6_" gradientUnits="userSpaceOnUse" x1="60.4278" y1="70.1105" x2="74.8378" y2="-21.5595" gradientTransform="matrix(0.9861 -0.1661 -0.1661 -0.9861 20.6129 133.3007)">
				<stop  offset="0" style="stop-color:#0000FF"/>
				<stop  offset="1" style="stop-color:#9E005D"/>
			</linearGradient>
			<path class="st11" d="M83.1,112.9c-3.2-7.3,4.4-10,7.8-4.8c4.8,7.2,8.7,30.3,9.4,35.4c0.1,0.7,0.3,1.4,0,1.7
				c-0.7,0.5-1.6,0.7-2.4,0.8c-0.9,0.1-1.7,0.3-2-0.8C94.1,137.9,86.2,119.9,83.1,112.9z"/>
			
				<linearGradient id="SVGID_7_" gradientUnits="userSpaceOnUse" x1="86.3092" y1="342.8575" x2="101.3092" y2="247.4875" gradientTransform="matrix(0.99 0.16 0.16 -0.99 -53.6324 373.3411)">
				<stop  offset="0" style="stop-color:#0000FF"/>
				<stop  offset="1" style="stop-color:#9E005D"/>
			</linearGradient>
			<path class="st12" d="M79.7,79.4c0.7-9.6,5.6-16.4,11-12.4c2.3,1.7,2.8,4.5,2.7,7s-2.3,28.7-2.4,33.4c-0.2,10.7-8,6.6-8.5,3.6
				C81.4,103.3,79.4,84.6,79.7,79.4z"/>
			
				<linearGradient id="SVGID_8_" gradientUnits="userSpaceOnUse" x1="62.4405" y1="269.3748" x2="77.4405" y2="174.0148" gradientTransform="matrix(1 7.000000e-02 7.000000e-02 -1 -22.8123 312.81)">
				<stop  offset="0" style="stop-color:#0000FF"/>
				<stop  offset="1" style="stop-color:#9E005D"/>
			</linearGradient>
			<path class="st13" d="M64.5,146.1c1.1-11.3,7.4-30.6,5.3-40c-1.3-6-8.3-6.7-8.5,0.6c-0.2,7.7,1,22.7-0.9,37.5
				C60.2,145.6,64.4,147.4,64.5,146.1z"/>
			
				<linearGradient id="SVGID_9_" gradientUnits="userSpaceOnUse" x1="71.2364" y1="340.4843" x2="86.2464" y2="245.1143" gradientTransform="matrix(0.99 0.16 0.16 -0.99 -53.6324 373.3411)">
				<stop  offset="0" style="stop-color:#0000FF"/>
				<stop  offset="1" style="stop-color:#9E005D"/>
			</linearGradient>
			<path class="st14" d="M69.3,108.4c-1.4,2.8-9.8,4.9-7.3-5.6c1.1-4.6,6.1-30.4,6.7-32.8s1.6-6,2.9-6.3c6.6-1.3,11.5,7.1,8.4,16.2
				C77.9,86,72.1,102.7,69.3,108.4z"/>
			<ellipse transform="matrix(0.9732 -0.2299 0.2299 0.9732 -0.3688 20.3114)" class="st7" cx="87" cy="11.7" rx="1.4" ry="2.7"/>
			<ellipse transform="matrix(0.5171 -0.8559 0.8559 0.5171 36.3679 91.9087)" class="st7" cx="99.6" cy="13.7" rx="2.7" ry="1.4"/>
			
				<linearGradient id="SVGID_10_" gradientUnits="userSpaceOnUse" x1="-230.3193" y1="959.7186" x2="-230.3193" y2="920.0585" gradientTransform="matrix(0.57 0.8216 0.8216 -0.57 -562.3444 755.7332)">
				<stop  offset="0" style="stop-color:#36078B"/>
				<stop  offset="1" style="stop-color:#16B1FF"/>
			</linearGradient>
			<path class="st15" d="M55.1,38c1.2,1.5,2.2,2.4,6.5,3.8c4,1.4,8.1,2.3,12.3,2.7c2.8,0.2,2.4-6.4-1.2-7.5c-3-0.9-14.6-0.5-16.4-1
				C55.1,35.6,54.1,36.7,55.1,38z"/>
			<path class="st7" d="M56.7,35.9c-1.1-0.6-10.8-3.9-10.9-1.8c-0.1,2.4,3.8,3.9,5.2,4.2c2.5,0.7,4.7,1.2,5.7,0.1
				C57.4,37.7,57.8,36.4,56.7,35.9z"/>
			<path class="st7" d="M56.2,35.3c-0.4-0.4-3.1-2.6-3.5-2.1c-0.7,0.7,1,2.3,2.1,3.3c0.6,0.6,1.8,0.9,2.2,0.4S56.9,35.9,56.2,35.3z"
				/>
			
				<linearGradient id="SVGID_11_" gradientUnits="userSpaceOnUse" x1="76.8331" y1="394.034" x2="93.3131" y2="374.744" gradientTransform="matrix(0.99 0.16 0.16 -0.99 -53.6324 373.3411)">
				<stop  offset="0" style="stop-color:#0000FF"/>
				<stop  offset="1" style="stop-color:#9E005D"/>
			</linearGradient>
			<path class="st16" d="M91.6,4.5c-2.5,1-3.2,2.1-3.5,4.9s0.1,7.7,5,9.6s7-3,7.8-6.5s1.1-6.1-1.4-7.1C95.7,3.8,93,3.9,91.6,4.5z"/>
			
				<linearGradient id="SVGID_12_" gradientUnits="userSpaceOnUse" x1="78.23" y1="395.1357" x2="94.65" y2="375.9156" gradientTransform="matrix(0.99 0.16 0.16 -0.99 -53.6324 373.3411)">
				<stop  offset="0" style="stop-color:#0000FF"/>
				<stop  offset="1" style="stop-color:#9E005D"/>
			</linearGradient>
			<path class="st17" d="M100.8,6c0.2-2.2-3.1-3.7-3.5-4.7c0,0-0.2,1.5,0.4,1.9c-1.9-0.8-3.8-1.8-5.5-3c0,0,0.6,1.5,1.4,1.9
				c-2-0.5-3.9-1.2-5.8-2.1c0.7,1.1,1.5,2.1,2.5,3c-2,0-4-0.3-5.9-1c0,0,1.8,4.9,5.1,5.5C92.9,8.1,100.4,9.9,100.8,6z"/>
			<g>
				<defs>
					<path id="SVGID_13_" d="M98.8,23.9c-0.8-0.4-1.6-0.6-2.4-0.8c0.1-0.9,0.2-1.7,0.2-2.5c0-0.2,0-0.4,0-0.6c0.9-0.6,1.6-1.4,2-2.4
						c0.5-0.6,0.8-1.2,1.2-1.9c0.4-0.3,0.7-0.7,1-1.2c0.7-1.2,0.8-2.5,0.3-2.9c0.5-2.2,0.6-4-0.4-5.2c0-0.1,0.1-0.2,0.1-0.3
						c0.2-2.2-3.1-3.7-3.5-4.7c0,0-0.2,1.5,0.4,1.9c-1.9-0.8-3.8-1.8-5.5-3c0,0,0.6,1.5,1.4,1.9c-2-0.5-3.9-1.2-5.8-2.1
						c0.7,1.1,1.5,2.1,2.5,3c-2,0-4-0.3-5.9-1c0,0,1.2,3.4,3.6,4.9C88,7,88,7,88,7c-0.3,0.9-0.4,1.7-0.6,2.5c-0.2-0.3-0.6-0.4-1-0.4
						c-0.8,0.2-1.1,1.5-0.7,2.9c0.2,0.8,0.6,1.5,1.2,2.1c0,0.7,0,1.4,0.1,2.1c0.2,1.7,1.1,4.2,3,4.6c0,0.1-0.1,0.3-0.1,0.4
						s-0.1,0.4-0.1,0.7c-1.7-0.2-3.5-0.1-5.2,0.2c-2,0.3-4.2,1.3-4.8,2.2L79,25.5c-0.5,0.6-0.9,1.3-1.2,2c-2.3,4-4,7.3-5.3,9.4
						C69.5,36.1,60,36.4,57,36c-0.1-0.1-0.2-0.1-0.3-0.2l0,0c-0.2-0.2-0.4-0.4-0.5-0.5c-0.4-0.4-3.1-2.6-3.5-2.1
						c-0.3,0.3-0.1,0.8,0.2,1.3c-3.1-0.9-7-1.7-7-0.4c-0.2,2.4,3.8,3.9,5.1,4.2c2.1,0.6,3.8,1,5,0.6c1,1,2.3,1.8,5.7,2.8
						c3.9,1.3,7.9,2.3,12,2.7c-1.9,9.2-3.3,17.7-3.3,17.7c-1.3,4.7-2.3,9.4-3.1,14.2l0,0c-1.7,8.6-4.6,23.1-5.4,26.5
						c-0.2,0.7-0.3,1.3-0.4,2c-0.2,0.6-0.2,1.2-0.3,1.8c-0.2,7.7,1,22.7-0.9,37.5c0,0.2,0.1,0.5,0.2,0.7c-0.1,0.1-0.2,0.2-0.3,0.3
						c-0.9,1.1-2,1.9-3.3,2.4c-1.8,0.8-5.6,1.1-3.5,1.8c1.9,0.5,3.9,0.5,5.8,0.1c1.3-0.2,2.6-0.3,3.9-0.2c1.9,0,2-0.1,1.7-2.2
						c-0.1-0.4-0.2-0.8-0.4-1.1c1.2-11,7-29.4,5.4-39c2.9-6.4,7.7-20.1,9.7-26.2c0,6.5,1.8,23.1,2.8,30.3c0,0.2,0.1,0.3,0.1,0.5
						c0.1,0.5,0.3,0.9,0.5,1.4c2.9,6.7,10.2,23.3,12.4,31c-0.2,0.8-0.1,1.2-0.2,1.9c-0.1,0.9-1,1.2-1.4,1.9s-1.3,1.9,1.9,2
						c3.5,0.1,5.5,0,4.9-1.9c-0.3-0.8-0.5-1.6-0.6-2.5c0.1,0,0.2-0.1,0.2-0.1c0.3-0.3,0-1.1,0-1.7c-0.7-5-4.5-28-9.3-35.3
						c0-0.2,0-0.4,0-0.7c0.1-4.7,2.2-29.7,2.4-33.2c0.5-2.8,0.6-5.6,0.5-8.4c0.4-4.2,1.1-8.3,2.3-12.4c1.5-0.4,3-1,4.4-1.6
						c0.4-0.2,0.7-0.4,0.8-0.8l0,0c0.7-1.4,1.7-4.6,2-12.9c0.1-2,0.1-3.5,0.1-4.8C104.2,29.4,103,26,98.8,23.9z"/>
				</defs>
				<clipPath id="SVGID_14_">
					<use xlink:href="#SVGID_13_"  style="overflow:visible;"/>
				</clipPath>
			</g>
		</g>
	</g>
</g>
</svg>
