<svg xmlns="http://www.w3.org/2000/svg" xmlns:xlink="http://www.w3.org/1999/xlink" viewBox="0 0 484.77 401.92"><defs><style>.cls-1,.cls-33{fill:none;}.cls-2{isolation:isolate;}.cls-23,.cls-3,.cls-4{opacity:0.2;}.cls-3{fill:url(#Gradient_bez_nazwy_15);}.cls-4{fill:url(#Gradient_bez_nazwy_5);}.cls-5{fill:url(#Gradient_bez_nazwy_5-2);}.cls-6{fill:url(#Gradient_bez_nazwy_5-3);}.cls-7{fill:url(#Gradient_bez_nazwy_5-4);}.cls-8{fill:url(#Gradient_bez_nazwy_5-5);}.cls-9{fill:url(#Gradient_bez_nazwy_5-6);}.cls-10{fill:url(#Gradient_bez_nazwy_9);}.cls-11{fill:url(#Gradient_bez_nazwy_8);}.cls-12{fill:url(#Gradient_bez_nazwy_9-2);}.cls-13{fill:url(#Gradient_bez_nazwy_5-7);}.cls-14{fill:url(#Gradient_bez_nazwy_9-3);}.cls-15{fill:url(#Gradient_bez_nazwy_5-8);}.cls-16{fill:url(#Gradient_bez_nazwy_9-4);}.cls-17{fill:url(#Gradient_bez_nazwy_5-9);}.cls-18{fill:url(#Gradient_bez_nazwy_5-10);}.cls-19{fill:url(#Gradient_bez_nazwy_5-11);}.cls-20{fill:url(#Gradient_bez_nazwy_5-12);}.cls-21{fill:url(#Gradient_bez_nazwy_8-2);}.cls-22{fill:url(#Gradient_bez_nazwy_8-3);}.cls-24{fill:#6ecbf5;}.cls-25{opacity:0.7;fill:url(#Gradient_bez_nazwy_5-13);}.cls-26,.cls-51,.cls-62{opacity:0.3;}.cls-26{fill:url(#Gradient_bez_nazwy_5-14);}.cls-27{fill:#51b4d6;}.cls-28{opacity:0.6;fill:url(#Gradient_bez_nazwy_5-15);}.cls-29{fill:#407220;}.cls-30{fill:#345e19;}.cls-31{fill:#488222;}.cls-32{fill:#e2bf30;}.cls-33,.cls-34{stroke:#f70f47;stroke-miterlimit:10;}.cls-34,.cls-58{fill:#f70f47;}.cls-35{fill:url(#Gradient_bez_nazwy_8-4);}.cls-36{fill:#ffaf84;}.cls-37{fill:url(#Gradient_bez_nazwy_5-16);}.cls-38{fill:url(#Gradient_bez_nazwy_4);}.cls-39{fill:#ed9169;}.cls-40{fill:url(#Gradient_bez_nazwy_5-17);}.cls-41{fill:url(#Gradient_bez_nazwy_2);}.cls-42{fill:url(#Gradient_bez_nazwy_2-2);}.cls-43{fill:url(#Gradient_bez_nazwy_2-3);}.cls-44{fill:url(#Gradient_bez_nazwy_2-4);}.cls-45{fill:url(#Gradient_bez_nazwy_2-5);}.cls-46{fill:url(#Gradient_bez_nazwy_5-18);}.cls-47{fill:url(#Gradient_bez_nazwy_4-2);}.cls-48{fill:url(#Gradient_bez_nazwy_8-5);}.cls-49{fill:url(#Gradient_bez_nazwy_8-6);}.cls-50{clip-path:url(#clip-path);}.cls-51,.cls-62{mix-blend-mode:multiply;}.cls-51{fill:url(#Gradient_bez_nazwy_3);}.cls-52{fill:url(#Gradient_bez_nazwy_14);}.cls-53{fill:url(#Gradient_bez_nazwy_14-2);}.cls-54{fill:#4e11f4;}.cls-55{fill:url(#Gradient_bez_nazwy_14-3);}.cls-56{fill:url(#Gradient_bez_nazwy_14-4);}.cls-57{fill:url(#Gradient_bez_nazwy_14-5);}.cls-59{fill:url(#Gradient_bez_nazwy_3-2);}.cls-60{fill:url(#Gradient_bez_nazwy_3-3);}.cls-61{clip-path:url(#clip-path-2);}.cls-62{fill:url(#Gradient_bez_nazwy_3-4);}</style><linearGradient id="Gradient_bez_nazwy_15" x1="-4046.22" y1="-1905.02" x2="-4046.22" y2="-2017.02" gradientTransform="matrix(-0.58, 0.81, -0.81, -0.58, -3762.98, 2255.36)" gradientUnits="userSpaceOnUse"><stop offset="0" stop-color="#401381"/><stop offset="1" stop-color="#d11137"/></linearGradient><linearGradient id="Gradient_bez_nazwy_5" x1="-4055.31" y1="-1914.12" x2="-4055.31" y2="-2026.12" gradientTransform="matrix(-0.58, 0.81, -0.81, -0.58, -3762.98, 2255.36)" gradientUnits="userSpaceOnUse"><stop offset="0" stop-color="#36078b"/><stop offset="1" stop-color="#16b1ff"/></linearGradient><linearGradient id="Gradient_bez_nazwy_5-2" x1="-381.93" y1="-1319.59" x2="-360.75" y2="-1342.29" gradientTransform="matrix(0.71, 0.41, -0.32, 0.91, 191.59, 1533.3)" xlink:href="#Gradient_bez_nazwy_5"/><linearGradient id="Gradient_bez_nazwy_5-3" x1="283.41" y1="75.43" x2="304.59" y2="52.73" gradientTransform="matrix(0.78, 0.04, -0.03, 1, 112.53, 81.64)" xlink:href="#Gradient_bez_nazwy_5"/><linearGradient id="Gradient_bez_nazwy_5-4" x1="335.07" y1="1988.96" x2="354.24" y2="1968.41" gradientTransform="matrix(0.71, -0.41, 0.32, 0.91, -548.39, -1509.85)" xlink:href="#Gradient_bez_nazwy_5"/><linearGradient id="Gradient_bez_nazwy_5-5" x1="-445.27" y1="3685.39" x2="-428.04" y2="3666.93" gradientTransform="matrix(0.5, -0.77, 0.6, 0.64, -1664.13, -2538.05)" xlink:href="#Gradient_bez_nazwy_5"/><linearGradient id="Gradient_bez_nazwy_5-6" x1="13.54" y1="-665.09" x2="89.53" y2="-746.52" gradientTransform="matrix(0.76, 0.22, -0.17, 0.97, 203.41, 782.31)" xlink:href="#Gradient_bez_nazwy_5"/><linearGradient id="Gradient_bez_nazwy_9" x1="184.17" y1="172.35" x2="282.89" y2="107.48" gradientTransform="translate(161) scale(0.78 1)" gradientUnits="userSpaceOnUse"><stop offset="0.48" stop-color="#36078b"/><stop offset="1" stop-color="#16b1ff"/></linearGradient><linearGradient id="Gradient_bez_nazwy_8" x1="-6496.05" y1="-2015.23" x2="-6438.21" y2="-2077.21" gradientTransform="matrix(-0.63, -0.59, -0.46, 0.81, -4697.69, -2059.84)" gradientUnits="userSpaceOnUse"><stop offset="0" stop-color="#2c27ce"/><stop offset="1" stop-color="#ef1d68"/></linearGradient><linearGradient id="Gradient_bez_nazwy_9-2" x1="224.01" y1="192.17" x2="206.45" y2="65.89" xlink:href="#Gradient_bez_nazwy_9"/><linearGradient id="Gradient_bez_nazwy_5-7" x1="85.04" y1="-421.19" x2="191.41" y2="-535.18" gradientTransform="matrix(0.77, 0.15, -0.12, 0.99, 248.67, 512.62)" xlink:href="#Gradient_bez_nazwy_5"/><linearGradient id="Gradient_bez_nazwy_9-3" x1="188.95" y1="175.22" x2="345.6" y2="57.74" xlink:href="#Gradient_bez_nazwy_9"/><linearGradient id="Gradient_bez_nazwy_5-8" x1="-599.72" y1="-1565.21" x2="-522.98" y2="-1647.45" gradientTransform="matrix(0.69, 0.46, -0.36, 0.89, 218.57, 1811.08)" xlink:href="#Gradient_bez_nazwy_5"/><linearGradient id="Gradient_bez_nazwy_9-4" x1="199.28" y1="175.92" x2="331.91" y2="132.79" xlink:href="#Gradient_bez_nazwy_9"/><linearGradient id="Gradient_bez_nazwy_5-9" x1="293.95" y1="98.16" x2="313.11" y2="83.8" gradientTransform="translate(161) scale(0.78 1)" xlink:href="#Gradient_bez_nazwy_5"/><linearGradient id="Gradient_bez_nazwy_5-10" x1="306.67" y1="80.35" x2="321.15" y2="66.03" gradientTransform="translate(161) scale(0.78 1)" xlink:href="#Gradient_bez_nazwy_5"/><linearGradient id="Gradient_bez_nazwy_5-11" x1="268.38" y1="73.64" x2="275.87" y2="57.26" gradientTransform="translate(161) scale(0.78 1)" xlink:href="#Gradient_bez_nazwy_5"/><linearGradient id="Gradient_bez_nazwy_5-12" x1="288.29" y1="59.3" x2="296.74" y2="48.08" gradientTransform="translate(161) scale(0.78 1)" xlink:href="#Gradient_bez_nazwy_5"/><linearGradient id="Gradient_bez_nazwy_8-2" x1="-491.8" y1="-1358.17" x2="-491.8" y2="-1325.82" gradientTransform="matrix(0.71, 0.41, -0.32, 0.91, 245.77, 1607.38)" xlink:href="#Gradient_bez_nazwy_8"/><linearGradient id="Gradient_bez_nazwy_8-3" x1="-491.8" y1="-1349.91" x2="-491.8" y2="-1364" gradientTransform="matrix(0.71, 0.41, -0.32, 0.91, 245.77, 1607.38)" xlink:href="#Gradient_bez_nazwy_8"/><linearGradient id="Gradient_bez_nazwy_5-13" x1="165.17" y1="204.21" x2="357.63" y2="204.21" gradientTransform="matrix(1, 0, 0, 1, 0, 0)" xlink:href="#Gradient_bez_nazwy_5"/><linearGradient id="Gradient_bez_nazwy_5-14" x1="223.82" y1="159.93" x2="393.11" y2="159.93" gradientTransform="matrix(1, 0, 0, 1, 0, 0)" xlink:href="#Gradient_bez_nazwy_5"/><linearGradient id="Gradient_bez_nazwy_5-15" x1="193.23" y1="181.09" x2="374.24" y2="181.09" gradientTransform="matrix(1, 0, 0, 1, 0, 0)" xlink:href="#Gradient_bez_nazwy_5"/><linearGradient id="Gradient_bez_nazwy_8-4" x1="-1499.45" y1="81.28" x2="-1511.82" y2="138.26" gradientTransform="translate(1667.13)" xlink:href="#Gradient_bez_nazwy_8"/><linearGradient id="Gradient_bez_nazwy_5-16" x1="-1489.98" y1="139" x2="-1458.81" y2="142.06" gradientTransform="translate(1667.13)" xlink:href="#Gradient_bez_nazwy_5"/><linearGradient id="Gradient_bez_nazwy_4" x1="-1519.81" y1="301.1" x2="-1519.05" y2="278.34" gradientTransform="translate(1667.13)" gradientUnits="userSpaceOnUse"><stop offset="0" stop-color="#2c27ce"/><stop offset="0.65" stop-color="#ef1d68"/><stop offset="1" stop-color="#efba92"/></linearGradient><linearGradient id="Gradient_bez_nazwy_5-17" x1="-1509.12" y1="132.62" x2="-1497.21" y2="185.78" gradientTransform="translate(1667.13)" xlink:href="#Gradient_bez_nazwy_5"/><linearGradient id="Gradient_bez_nazwy_2" x1="-1499.81" y1="227.12" x2="-1498.18" y2="372.96" gradientTransform="translate(1667.13)" gradientUnits="userSpaceOnUse"><stop offset="0" stop-color="#f70f47"/><stop offset="1" stop-color="#9e005d"/></linearGradient><linearGradient id="Gradient_bez_nazwy_2-2" x1="-1516.83" y1="227.31" x2="-1515.2" y2="373.15" xlink:href="#Gradient_bez_nazwy_2"/><linearGradient id="Gradient_bez_nazwy_2-3" x1="-1510.01" y1="227.24" x2="-1508.38" y2="373.08" xlink:href="#Gradient_bez_nazwy_2"/><linearGradient id="Gradient_bez_nazwy_2-4" x1="-1488.38" y1="227" x2="-1486.75" y2="372.83" xlink:href="#Gradient_bez_nazwy_2"/><linearGradient id="Gradient_bez_nazwy_2-5" x1="-1491.47" y1="227.03" x2="-1489.84" y2="372.87" xlink:href="#Gradient_bez_nazwy_2"/><linearGradient id="Gradient_bez_nazwy_5-18" x1="-1518.35" y1="138.35" x2="-1524.46" y2="176.54" gradientTransform="translate(1667.13)" xlink:href="#Gradient_bez_nazwy_5"/><linearGradient id="Gradient_bez_nazwy_4-2" x1="-1482.26" y1="302.36" x2="-1481.5" y2="279.6" xlink:href="#Gradient_bez_nazwy_4"/><linearGradient id="Gradient_bez_nazwy_8-5" x1="-1368.6" y1="456.5" x2="-1380.97" y2="513.48" gradientTransform="translate(1439.09 -587.84) rotate(-9.15)" xlink:href="#Gradient_bez_nazwy_8"/><linearGradient id="Gradient_bez_nazwy_8-6" x1="-1361.31" y1="458.08" x2="-1373.69" y2="515.06" gradientTransform="translate(1439.09 -587.84) rotate(-9.15)" xlink:href="#Gradient_bez_nazwy_8"/><clipPath id="clip-path"><path class="cls-1" d="M222.36,130.38a10.61,10.61,0,0,0-4.46,2.17,16,16,0,0,0-4.09,2.66,1.06,1.06,0,0,0-.64.08c-2,.9-16.09,3.74-21.81,5.54l-.16-.06c-2.78-.77-10.33-4.42-20.5-8.94a40.45,40.45,0,0,0-.47-6.34,9.46,9.46,0,0,0,1.8-4.53,42.4,42.4,0,0,0-1-12.43c.84,1.38.25-3.94-1.5-6.14A10.71,10.71,0,0,0,164,99.23a9,9,0,0,0-4-.51,10,10,0,0,0-7.11,2.26,17.5,17.5,0,0,0-6.8,16.8,40,40,0,0,1-1.3,17.8,35.26,35.26,0,0,0-1.32,5.17c-.6.9-1.23,1.88-2,3-6.27,10-8,14.84-8.56,17.09a2.39,2.39,0,0,0,1,2.35c.07.11.13.23.21.35,3.64,4.87,5.08,6.6,11.42,11.71,3.2,2.58,4.09,4.39,5,5.23a2.63,2.63,0,0,0,.7,1.71c.51.48,1.5.41,2.59.13-.06.27-.11.54-.17.8-.19.82-1.81,7.47-1.88,8.18a52.24,52.24,0,0,0-1.06,11.16c-.51,4.61-2.77,37.82-3.58,43.93,0,.24,0,.44-.06.67l0,.05c-4.5,10.49-4.15,44-3.91,50.69,0,.35.11.5.23.59a4.71,4.71,0,0,0-.08,1.31,13.08,13.08,0,0,1-.84,4.41c-.75,2.5,1.87,2.8,6.29,2.72,4.13-.08,3.07-1.75,2.4-2.79s-1.67-1.36-1.85-2.51c-.13-.82-.05-1.35-.29-2.45l0,0c1-9.11,6.52-37.44,8.87-47.36a12.82,12.82,0,0,0,.34-2.61c2.92-10.32,7.42-27.93,8.52-35.49,1.44,8.48,4.78,27.68,7.15,36.6-3.12,12.51,2.76,38,3.13,52.75l0-.07c0,.11-.07.2-.08.32-.33,2.8-.32,3,2.17,3a32.1,32.1,0,0,1,5,.3c1.6.26,4.75.8,7.45-.1s-2.16-1.38-4.46-2.41a10.36,10.36,0,0,1-4.3-3.26,2,2,0,0,0-.38-.46c-.19-19.58,2-39.09,2.38-49.21a13.06,13.06,0,0,0,0-1.78,23.11,23.11,0,0,0,0-3c-.35-4.57-1.11-24.11-1.59-35.79a185.47,185.47,0,0,0-1.1-19.26c-.29-5.94-7.06-24.61-2.48-36.7,1.91-5,1.14-7.13-.4-9.53a54.49,54.49,0,0,0,10.77,2.54,3.77,3.77,0,0,0,1.8,0c5.92-1.39,8.08-2,15.29-5.8,4.81-2.52,6.8-1.88,7.65-3.23a3.89,3.89,0,0,0,3.29-.66c2.12-1.93,2.13-1.64,1.49-4.43a1.81,1.81,0,0,0-.26-.59,2.22,2.22,0,0,0,.4-.27C220.82,131.78,223.67,130.26,222.36,130.38Zm-81.65,30.41c1.33-2.07,3.71-5.3,6.73-9.42a12.57,12.57,0,0,0,4.88,1.37,103.72,103.72,0,0,1,2.77,12.76,37.29,37.29,0,0,1,0,11c-.58.16-1.2.32-1.9.46l-.07,0C150.41,173.71,144.2,165,140.71,160.79Z"/></clipPath><linearGradient id="Gradient_bez_nazwy_3" x1="-4767.13" y1="4745.07" x2="-4464.28" y2="4931.13" gradientTransform="matrix(-0.4, -0.87, 0.54, -0.47, -4352.65, -1547.73)" gradientUnits="userSpaceOnUse"><stop offset="0" stop-color="blue"/><stop offset="1" stop-color="#9e005d"/></linearGradient><linearGradient id="Gradient_bez_nazwy_14" x1="411.45" y1="161.05" x2="435.85" y2="186.72" gradientUnits="userSpaceOnUse"><stop offset="0" stop-color="#f70f47"/><stop offset="1" stop-color="#ffb41d"/></linearGradient><linearGradient id="Gradient_bez_nazwy_14-2" x1="426.26" y1="146.97" x2="450.66" y2="172.65" xlink:href="#Gradient_bez_nazwy_14"/><linearGradient id="Gradient_bez_nazwy_14-3" x1="-2105.17" y1="-2781.89" x2="-2105.17" y2="-2725.45" gradientTransform="matrix(0.58, 0.81, -0.81, 0.58, -615.42, 3456.29)" xlink:href="#Gradient_bez_nazwy_14"/><linearGradient id="Gradient_bez_nazwy_14-4" x1="395.41" y1="112.07" x2="395.41" y2="168.51" xlink:href="#Gradient_bez_nazwy_14"/><linearGradient id="Gradient_bez_nazwy_14-5" x1="409.1" y1="112.07" x2="409.1" y2="168.51" xlink:href="#Gradient_bez_nazwy_14"/><linearGradient id="Gradient_bez_nazwy_3-2" x1="393.73" y1="87.46" x2="441.26" y2="124.06" gradientTransform="matrix(1, 0, 0, 1, 0, 0)" xlink:href="#Gradient_bez_nazwy_3"/><linearGradient id="Gradient_bez_nazwy_3-3" x1="390.97" y1="91.06" x2="438.5" y2="127.65" gradientTransform="matrix(1, 0, 0, 1, 0, 0)" xlink:href="#Gradient_bez_nazwy_3"/><clipPath id="clip-path-2"><path class="cls-1" d="M433.18,305.5a14.35,14.35,0,0,1-.94-4.62,7,7,0,0,0,.17-2.15c.27-7.18.67-43.13-4.35-54.38v0c0-.25,0-.49-.08-.76-.9-6.56-3.42-42.19-4-47.13a54.14,54.14,0,0,0-1.18-12A90.18,90.18,0,0,1,423,168.9a36.85,36.85,0,0,0,7.58-3.95,2,2,0,0,0,.94-1.33l0-.06c.64-2.06,1.36-6.88,0-18.63a75.69,75.69,0,0,0-2.23-12.33,5.45,5.45,0,0,0-1.77-2.86,11.71,11.71,0,0,0-7.14-5.31,18.65,18.65,0,0,0-3.51-.66c-.07-1.23-.15-2.46-.24-3.59a4,4,0,0,0-.17-.87,7.07,7.07,0,0,0,2.32-3.83,13.27,13.27,0,0,0,1.17-2.9,6.27,6.27,0,0,0,1.2-1.91c.76-1.85.61-3.66-.29-4.17.22-3.88-.25-6.8-2.83-7.92.11-2.77-10.63-3.18-11.68-3.6-2.24-.91-.24-1.57-3-1.57-4.91.45-5.15,7.09-1.72,8.29l.21.06a5.45,5.45,0,0,0-.38,1.35c-.17,1.29-.26,2.5-.31,3.65a1.58,1.58,0,0,0-1.48-.33c-1,.41-1.19,2.32-.4,4.25a5,5,0,0,0,2.17,2.65,24.66,24.66,0,0,0,.58,2.95c.63,2.31,2.46,5.65,5.22,5.79a6,6,0,0,0-.05.62c0,.3,0,.64,0,1a26.81,26.81,0,0,0-7.33,1.42c-2.81.83-5.65,2.69-6.25,4.2l-.72,1.83a12.55,12.55,0,0,0-1.19,3.09c-3.23,8.55-5.34,15.06-6.62,17.13a3.1,3.1,0,0,0-.4,1.11c-3.42,3-10.76,14.33-13.57,17.44l-.15.06a6,6,0,0,0-1.28-.05c-.83,0-5.73.25-5.76,1.18s1.3,1.23,2.82,1.36c-3.93,2.53-9,6.27-7.34,7.53,2.71,2,8.17.23,9.92-.61a7.72,7.72,0,0,0,4.37-5.91c2-.36,3.95-1.32,7.87-4.37,3.36-2.62,5.91-4.77,8-6.68-.47,12-.53,22.12-.53,22.12a191.91,191.91,0,0,0-1.23,20.66h0c-.54,12.52-1.39,33.49-1.77,38.39a24.09,24.09,0,0,0,0,3.26,13.64,13.64,0,0,0,0,1.83c.47,10.85,3.7,31.77,2.67,52.73a2.21,2.21,0,0,0-.44.56,11.46,11.46,0,0,1-4.78,3.49c-2.55,1.1-8,1.62-5,2.58s6.52.38,8.29.11a37.55,37.55,0,0,1,5.6-.33c2.76,0,2.78-.18,2.41-3.18,0-.09,0-.17,0-.25v0c.42-15.79,7-43.21,3.5-56.63,2.64-9.58,6.34-30.11,7.95-39.21,1.22,8.11,6.24,27,9.49,38.07a13.3,13.3,0,0,0,.37,2.79c2.62,10.65,9,40.34,9.88,50.81h0c-.26,1.18-.16,1.71-.3,2.59-.2,1.23-1.38,1.68-2.06,2.69s-1.93,2.73,2.67,2.82C431.1,308.33,434,308.18,433.18,305.5Z"/></clipPath><linearGradient id="Gradient_bez_nazwy_3-4" x1="-6187.07" y1="7434.75" x2="-5990.71" y2="7555.39" gradientTransform="matrix(-0.4, -0.87, 0.54, -0.47, -6019.78, -1547.73)" xlink:href="#Gradient_bez_nazwy_3"/></defs><title>выбор региона</title><g class="cls-2"><g id="Слой_2" data-name="Слой 2"><g id="Designed_by_Freepik" data-name="Designed by Freepik"><path class="cls-3" d="M40.9,209.9c-25.76-41.07,2-67.46,28-69.72,36.9-3.2,46,14.94,64.08-40.17,13.35-40.67,57.81-61.13,91.49-28.08,47.09,46.2,57-18.85,81.62-39C357-8.58,382.47,30.85,429.57,93.07c48.35,63.88,48.08,121.26,15.66,183.23-23.94,45.76-56.12,77.75-96.3,64.61-57.7-18.86-37.92-79.86-80.63-47-25.56,19.67-78.82,34.92-100.69-29.19S78,269,40.9,209.9Z"/><path class="cls-4" d="M53.6,207.8c-25.76-41.07,2-67.46,28-69.72,36.9-3.2,46,14.94,64.08-40.17C159,57.24,203.49,36.78,237.18,69.83c47.09,46.2,57-18.85,81.62-39,50.88-41.54,76.37-2.12,123.46,60.1,48.35,63.88,48.08,121.26,15.66,183.23C434,320,401.8,351.95,361.62,338.81,303.92,320,323.7,259,281,291.84c-25.56,19.67-78.82,34.92-100.69-29.19S90.69,267,53.6,207.8Z"/><path class="cls-5" d="M336.07,171c-3-5.92,6.16-13.34,16.4-8.64,0,0-.92,6.18-3.64,10.56C346.51,176.62,340.3,179.24,336.07,171Z"/><path class="cls-6" d="M330.07,168.5c-4.5-4.09,1.92-15.3,12.79-15.72a35.37,35.37,0,0,1-.36,11.53C341.41,168.89,336.38,174.23,330.07,168.5Z"/><path class="cls-7" d="M326.33,167.35c-4.94-1-3.3-13.37,5.36-19.36a28.59,28.59,0,0,1,3.36,9.52C335.62,161.77,333.24,168.71,326.33,167.35Z"/><path class="cls-8" d="M324.92,164.83c-4.29,1.7-6.78-9.13-1.63-18.33a19.16,19.16,0,0,1,5.65,6C330.71,155.64,330.93,162.44,324.92,164.83Z"/><path class="cls-9" d="M325.31,133.64c-13.81-18.17,14.51-52.39,53.1-44.85,0,0,.09,22.55-7.13,40.39C365.12,144.39,344.66,159.08,325.31,133.64Z"/><path class="cls-10" d="M373.12,92.11a29.84,29.84,0,0,0-11.57,6,26.73,26.73,0,0,0-2.62,2.12c-.84.77-1.74,1.41-2.52,2.28L354,105.07l-1.18,1.26-1.09,1.42a104.43,104.43,0,0,0-8.17,11.86L339.95,126l-3.22,6.83c-.54,1.14-1.14,2.22-1.62,3.41l-1.44,3.56-2.9,7.12-5.13,14.75c-1.51,5-3.18,10-4.58,15.17s-2.8,10.29-4.45,15.4l-.3-.09,3.19-15.89c1.14-5.27,2.6-10.42,3.89-15.63s3.17-10.16,4.74-15.25l2.87-7.35,1.44-3.67c.48-1.22,1.09-2.35,1.63-3.53l3.39-7,3.86-6.58a85.31,85.31,0,0,1,8.87-11.87l1.19-1.38,1.29-1.22,2.59-2.44A34.62,34.62,0,0,1,358,98.24a24,24,0,0,1,2.82-2,26.44,26.44,0,0,1,12.3-4.55Z"/><path class="cls-11" d="M343.23,119.18c15.06,1,16.17-36.91-6.56-61.38,0,0-10.14,11.25-14.5,25.48C318.45,95.42,322.14,117.78,343.23,119.18Z"/><path class="cls-12" d="M338,63.21a134.71,134.71,0,0,1,2.4,16.71c.2,2.83.38,5.66.45,8.49s.17,5.68.15,8.52a268.28,268.28,0,0,1-2.57,33.91c-.46,2.78-1,5.54-1.48,8.31l-.76,4.15-.91,4.1-1.83,8.18c-.69,2.7-1.46,5.36-2.23,8l-1.15,4-1.3,3.91-2.63,7.79c-.89,2.59-2,5-3,7.55s-2.07,5-3.16,7.44l-.21-.13c1.74-5.16,3.62-10.25,5.24-15.46l2.34-7.88,1.15-3.95,1-4,2-8,1.71-8.14.85-4.07.7-4.11c.45-2.75.94-5.48,1.36-8.24a298.29,298.29,0,0,0,3-33.44,203.53,203.53,0,0,0-1.41-33.57Z"/><path class="cls-13" d="M356.88,104.59c-20.79-23.47,15.88-75.1,70.36-69.85,0,0,2,31.46-6.58,57.34C413.33,114.16,386,137.46,356.88,104.59Z"/><path class="cls-14" d="M420.18,40A155,155,0,0,0,403.8,54.51c-2.6,2.62-5.25,5.13-7.72,7.94l-3.76,4.1-3.6,4.34-3.59,4.33-3.47,4.49-3.47,4.47c-1.16,1.49-2.2,3.12-3.31,4.68-2.14,3.19-4.52,6.1-6.54,9.43l-6.22,9.78c-2,3.32-3.92,6.75-5.89,10.12-1,1.7-2,3.36-2.9,5.1l-2.7,5.29c-1.81,3.52-3.7,7-5.44,10.55s-3.33,7.28-5.05,10.89l-2.57,5.43-2.29,5.63-4.6,11.28c-3.11,7.52-5.62,15.4-8.74,23l-.35-.16,3.6-12,1.8-6c.59-2,1.18-4,1.92-5.92l4.21-11.63,2.11-5.81,2.4-5.63,4.8-11.26c1.7-3.67,3.55-7.24,5.31-10.87l2.68-5.42c.92-1.78,1.94-3.48,2.91-5.22,2-3.45,3.89-7,5.91-10.36a257.1,257.1,0,0,1,27.63-37.06C397,57,407.92,46.93,420,39.61Z"/><path class="cls-15" d="M360.64,140.67c-9.92-22.23,24.53-46.54,60.78-26.71,0,0-4.36,22.09-14.94,37.19C397.44,164,374.53,171.8,360.64,140.67Z"/><path class="cls-16" d="M415.62,115.48a68.49,68.49,0,0,0-13.87,4.62l-3.38,1.45L395,123.23c-2.23,1-4.37,2.39-6.51,3.67a143.31,143.31,0,0,0-24.39,18.55l-5.72,5.42c-1.94,1.75-3.65,3.88-5.49,5.8s-3.69,3.84-5.34,6-3.43,4.22-5.2,6.28-3.39,4.29-5,6.5l-4.95,6.66c-3.26,4.5-6.28,9.28-9.62,13.79l-.22-.2c2.92-4.9,5.77-9.88,8.75-14.73l4.73-7c1.59-2.32,3.11-4.72,4.86-6.85,3.4-4.37,6.71-8.87,10.43-12.82,1.84-2,3.55-4.19,5.5-6l5.74-5.63a130.83,130.83,0,0,1,25.13-18.23c8.89-4.74,18.23-8.45,27.89-9.33Z"/><path class="cls-17" d="M385.1,86.44a19.23,19.23,0,0,1,7-.6A30.87,30.87,0,0,1,399,87.19a31.47,31.47,0,0,1,6.55,3,21.28,21.28,0,0,1,5.82,5.2l-.11.28a60,60,0,0,0-12.87-5.49,106.67,106.67,0,0,0-13.32-3.47Z"/><path class="cls-18" d="M395.1,71.35a15,15,0,0,1,5.77-1.86,20.95,20.95,0,0,1,11.5,1.68A15.07,15.07,0,0,1,417.58,75l-.08.3a47,47,0,0,0-11.11-2.64,86.06,86.06,0,0,0-11.3-1Z"/><path class="cls-19" d="M373.34,75.12a50.49,50.49,0,0,1,0-9.43c.13-1.4.23-2.76.28-4.11a27.42,27.42,0,0,0-.19-4.58l.16-.2c1.8,2.42,2.21,6,2,9.15a38.41,38.41,0,0,1-2.05,9.29Z"/><path class="cls-20" d="M388,60.84a34.78,34.78,0,0,1,1.36-7.09c.32-1,.58-2,.84-3a16.1,16.1,0,0,0,.53-3.44l.15-.11c1,2.24.71,5,.08,7.31a29.63,29.63,0,0,1-2.83,6.5Z"/><path class="cls-21" d="M332.66,206.36l-20.76-12a3.18,3.18,0,0,1-1.21-3.47l8-32.44c.41-1.63,1.83-2.45,3.05-1.74L348.28,172a3.26,3.26,0,0,1,1,4.08L335.5,205.24A2,2,0,0,1,332.66,206.36Z"/><path class="cls-22" d="M348.8,179.69l-31.85-18.47a2.08,2.08,0,0,1-.81-2.23l1.23-5.59c.25-1.11,1.21-1.69,2-1.21l33.1,19.2a2.16,2.16,0,0,1,.63,2.75L350.64,179A1.31,1.31,0,0,1,348.8,179.69Z"/></g><g id="Objects"><g class="cls-23"><path class="cls-24" d="M196.48,170.37a15.63,15.63,0,0,0,3.1-2.88c4.28-5.27,2.66-11.79-5.21-13.34-1.55-.3-6.74-.66-7.43,1.13a5.71,5.71,0,0,0-2.17-6.57c-2.16-1.57-5.54-1.42-8.07-.34.11-4.19-3.15-8.3-7.77-9.8s-10.28-.26-13.48,2.94a9.86,9.86,0,0,0-1.3,12.19,13.79,13.79,0,0,0-10.59-3.4c-3.89.44-7.46,2.79-8.65,6-1.1,2.94.41,5.43,1.82,8a7.71,7.71,0,0,0-3,1.67c-1.94,2.06-.95,5.34,1.43,7s5.68,2.12,8.78,2.08c10.3-.13,20.52,1.44,30.82.94C181.93,175.62,190.69,174.48,196.48,170.37Z"/><path class="cls-24" d="M168.34,171.51a50.88,50.88,0,0,0,19.2-16.89,1.43,1.43,0,0,0-.6.66,5.71,5.71,0,0,0-2.17-6.57c-2.16-1.57-5.54-1.42-8.07-.34.11-4.19-3.15-8.3-7.77-9.8s-10.28-.26-13.48,2.94a9.86,9.86,0,0,0-1.3,12.19,13.79,13.79,0,0,0-10.59-3.4c-3.89.44-7.46,2.79-8.65,6-1.1,2.94.41,5.43,1.82,8a7.71,7.71,0,0,0-3,1.67,3.86,3.86,0,0,0-.92,3.56C143.08,175.7,155.93,177.39,168.34,171.51Z"/></g><g class="cls-23"><path class="cls-24" d="M298.26,81.67A19.74,19.74,0,0,0,302.18,78c5.4-6.66,3.36-14.9-6.58-16.84-2-.38-8.51-.84-9.38,1.43a7.21,7.21,0,0,0-2.74-8.31c-2.73-2-7-1.8-10.2-.42.14-5.3-4-10.49-9.81-12.37s-13-.32-17,3.72a12.46,12.46,0,0,0-1.64,15.4,17.41,17.41,0,0,0-13.37-4.3c-4.91.55-9.43,3.53-10.93,7.53-1.39,3.72.52,6.86,2.3,10.06A9.74,9.74,0,0,0,219,76c-2.45,2.6-1.2,6.74,1.81,8.88s7.17,2.67,11.09,2.62c13-.16,25.92,1.81,38.93,1.18C279.89,88.29,291,86.86,298.26,81.67Z"/><path class="cls-24" d="M262.72,83.11A64.27,64.27,0,0,0,287,61.78a1.81,1.81,0,0,0-.75.84,7.21,7.21,0,0,0-2.74-8.31c-2.73-2-7-1.8-10.2-.42.14-5.3-4-10.49-9.81-12.37s-13-.32-17,3.72a12.46,12.46,0,0,0-1.64,15.4,17.41,17.41,0,0,0-13.37-4.3c-4.91.55-9.43,3.53-10.93,7.53-1.39,3.72.52,6.86,2.3,10.06A9.74,9.74,0,0,0,219,76a4.87,4.87,0,0,0-1.16,4.5C230.81,88.4,247,90.53,262.72,83.11Z"/></g><circle class="cls-24" cx="279.14" cy="185.07" r="113.97"/><path class="cls-25" d="M296.64,263.15c-31-9.42-57.88-26.92-78.07-55.19-20.8-29.9-27.79-63.56-24.6-98.57A113.94,113.94,0,0,0,357.63,267.66,139.28,139.28,0,0,1,296.64,263.15Z"/><path class="cls-26" d="M279.14,71.1a114.22,114.22,0,0,0-23.68,2.47,33.45,33.45,0,0,1,21.76,5.75c-2.82,14.11-15.52,24.7-31,26.11-2.12,0-2.82,4.23-2.82,6.35-.71,7.76-4.94,26.82,8.47,21.17.71-.71,2.82-1.41,3.53-2.82,2.82-5.65,3.53-12.7,9.88-14.11,4.23-1.41,7.76,2.12,9.17,5.65,4.23,10.59-4.23,17.64-14.11,20.46-2.82.71-3.53,5.65-4.94,9.17-1.41,2.82-4.94,8.47-9.17,4.23-2.82-2.12,0-8.47-2.82-7.06-5.65,2.82-.71,12-7.06,15.52-3.89,1.95-10.13,4.23-12.48,8l.48.47a22.71,22.71,0,0,0,6.75,3.8,11.77,11.77,0,0,0,1.72-1.68,11.77,11.77,0,0,1-1.72,1.68,26.82,26.82,0,0,0,4.54,1.14c24.7.71,56.45-14.11,73.39,11.29,7.06,11.29,7.06,24.7,9.88,38.11,4.89,25,33.58,22.59,55.39,21A113.94,113.94,0,0,0,279.14,71.1Z"/><path class="cls-24" d="M219.36,156.25c-4.94-15.52-11.29-30.34-7.06-47.28l4.23-10.59a54.49,54.49,0,0,1,20.58-19.26A113.83,113.83,0,0,0,212,93c-6.78,22.83-6.49,47.5,3.87,69.72C217.85,160.69,220.23,158.88,219.36,156.25Z"/><path class="cls-27" d="M223.82,172c2.34-3.77,8.58-6.06,12.48-8,6.35-3.53,1.41-12.7,7.06-15.52,2.82-1.41,0,4.94,2.82,7.06,4.23,4.23,7.76-1.41,9.17-4.23,1.41-3.53,2.12-8.47,4.94-9.17,9.88-2.82,18.35-9.88,14.11-20.46-1.41-3.53-4.94-7.06-9.17-5.65-6.35,1.41-7.06,8.47-9.88,14.11-.71,1.41-2.82,2.12-3.53,2.82-13.41,5.65-9.17-13.41-8.47-21.17,0-2.12.71-6.35,2.82-6.35,15.52-1.41,28.23-12,31-26.11a33.45,33.45,0,0,0-21.76-5.75,113,113,0,0,0-18.35,5.54,54.49,54.49,0,0,0-20.58,19.26L212.3,109c-4.23,16.94,2.12,31.76,7.06,47.28.88,2.63-1.51,4.44-3.44,6.45.2.44.41.88.62,1.32C218.53,167.34,221.16,169.42,223.82,172Z"/><path class="cls-28" d="M318.86,226.82C316,213.41,316,200,309,188.71c-16.94-25.4-48.69-10.59-73.39-11.29a23.19,23.19,0,0,1-11.29-4.94c-2.82-2.82-5.65-4.94-7.76-8.47-11-22.56-11.41-47.76-4.49-71A114.76,114.76,0,0,0,194,109.39c-3.18,35,3.8,68.67,24.6,98.57,20.19,28.27,47.11,45.77,78.07,55.19a139.28,139.28,0,0,0,61,4.51,114.75,114.75,0,0,0,16.61-19.82C352.43,249.41,323.74,251.87,318.86,226.82Z"/><path class="cls-29" d="M265.73,89.84c-2.56,3.43-5.39,7-9.47,8.34-3.84,1.22-8.18.14-11.94,1.6-3.94,1.53-6.4,5.64-7.15,9.8s-.05,8.43.64,12.6c.57,3.46,1.75,7.61,5.15,8.46,3.87,1,7-3.26,8.16-7.08s1.8-8.33,5.17-10.47c2.87-1.82,6.84-1.06,9.48,1.08s4.16,5.36,5.15,8.61c1,3.4,1.34,7.66-1.36,10-3,2.58-8.13,1.25-11,3.94-2.34,2.15-2.16,5.82-3.16,8.84s-5.31,5.52-7.09,2.88a5.26,5.26,0,1,0-9.73-3.94c-1,3,.86,6.48-.07,9.55-2,6.71-13.68,4.54-17.24,10.58-1.08,1.84-.3,4.53-.7,6.64a16.64,16.64,0,0,1-3,6.79,4.75,4.75,0,0,1-2.13,1.79A2,2,0,0,1,213,179c-.7-1.48,1.17-2.91,1.4-4.53a3.11,3.11,0,0,0-2.56-3.16,7.09,7.09,0,0,0-4.34.76c-7.41,3.31-12.44,11.26-13.83,19.07-.74,4.18.48,12,6.38,11.57a4.15,4.15,0,0,0,3.68-2.69c.38-1.27,0-2.68.32-4a4.08,4.08,0,0,1,5.28-2.47c3.15,1.21,3.83,5.91,3.6,8.85-.26,3.3-.81,6.68,0,9.88.75,2.88,2.56,5.35,4.33,7.74,3.6,4.87,6.56,11,13.53,11,5.95.65,13-1.56,17.27,2.63,6.52,6.38-1.72,19.46,4.69,26,3.63,3.68,10.78,3.57,12.58,8.42,1.27,3.43-1.22,7.14-4.13,9.35s-6.43,3.77-8.61,6.71-2.06,8,1.34,9.38c-9.26,1.06-18.63-1.88-26.71-6.54s-15.06-11-22-17.21c-4.82-4.36-10.12-10.21-8.34-16.47,1-3.64,4.22-6.17,6.6-9.11a23.85,23.85,0,0,0,3.36-23.77,15.18,15.18,0,0,0-10.09-9.64c-3-.85-6.23-.76-9.05-2-7-3.18-6.07-11-9.41-16.71-1-1.64-3.94-3-4.54-.43-.35,1.48,1.48,4.71,2.37,5.76s2.31,2.39,1.82,3.77c-.41,1.16-1.86,1.5-3.09,1.67-2,.26-5.26-8-5.72-9.41-1.28-4-.9-7.33-.53-11.35.28-3.09-2.49-5.13-3.07-8.37a26,26,0,0,1,.94-11.11c6.83-25.55,20-49.86,40-67.11A98.35,98.35,0,0,1,249.27,73.8c5.78-1.27,18.19-4.49,23.82-1.84C280,75.22,268.45,86.2,265.73,89.84Z"/><path class="cls-29" d="M253.49,283c2.17-2.27,5.16-3.7,7.69-5.63,2.91-2.22,5.4-5.93,4.13-9.35-1.79-4.85-8.95-4.74-12.58-8.42-6.4-6.5,1.83-19.57-4.69-26-4.27-4.18-11.32-2-17.27-2.63-7,0-9.93-6.11-13.53-11-1.77-2.39-3.58-4.86-4.33-7.74-.84-3.2-.29-6.58,0-9.88.23-2.94-.45-7.64-3.6-8.85A4.08,4.08,0,0,0,204,196c-.34,1.29.07,2.69-.32,4a3.16,3.16,0,0,1-.12.31q1.29,6.63,2.89,13C213.47,242.27,230.76,265.48,253.49,283Z"/><path class="cls-30" d="M253.49,283c-22.73-17.51-40-40.72-47-69.65q-1.6-6.4-2.89-13a4.23,4.23,0,0,1-3.55,2.39c-5.9.48-7.12-7.4-6.38-11.57a28.35,28.35,0,0,1,6.58-13.65c-2.83-28.16-.92-57.55,7.95-83.44-.55.45-1.09.9-1.63,1.36-20,17.25-33.21,41.56-40,67.11a26,26,0,0,0-.94,11.11c.58,3.24,3.35,5.28,3.07,8.37-.37,4-.75,7.34.53,11.35.46,1.43,3.75,9.68,5.72,9.41,1.22-.16,2.67-.5,3.09-1.67.49-1.39-.87-2.65-1.82-3.77s-2.72-4.28-2.37-5.76c.6-2.53,3.58-1.21,4.54.43,3.34,5.7,2.41,13.53,9.41,16.71,2.82,1.28,6.07,1.2,9.05,2a15.18,15.18,0,0,1,10.09,9.64,23.85,23.85,0,0,1-3.36,23.77c-2.38,2.94-5.57,5.47-6.6,9.11-1.78,6.26,3.52,12.11,8.34,16.47,6.91,6.25,13.9,12.56,22,17.21s17.44,7.6,26.71,6.54c-3.4-1.33-3.52-6.45-1.34-9.38A11.38,11.38,0,0,1,253.49,283Z"/><path class="cls-29" d="M200.21,177.47a21.64,21.64,0,0,1,7.25-5.42,7.09,7.09,0,0,1,4.34-.76,3.11,3.11,0,0,1,2.56,3.16c-.23,1.62-2.1,3.05-1.4,4.53a2,2,0,0,0,2.45.82,4.75,4.75,0,0,0,2.13-1.79,16.65,16.65,0,0,0,3-6.79c.41-2.11-.38-4.8.7-6.64,3.56-6,15.22-3.87,17.24-10.58.93-3.08-1-6.5.07-9.55a5.26,5.26,0,1,1,9.73,3.94c1.78,2.64,6.09.14,7.09-2.88s.83-6.68,3.16-8.84c2.92-2.69,8-1.36,11-3.94,2.7-2.31,2.39-6.57,1.36-10-1-3.25-2.51-6.48-5.15-8.61s-6.61-2.89-9.48-1.08c-3.37,2.13-4,6.64-5.17,10.47s-4.29,8-8.16,7.08c-3.4-.84-4.58-5-5.15-8.46-.69-4.17-1.38-8.44-.64-12.6s3.21-8.26,7.15-9.8c3.76-1.46,8.09-.38,11.94-1.6,4.08-1.29,6.9-4.91,9.47-8.34C268.45,86.2,280,75.22,273.09,72c-5.63-2.65-18,.57-23.82,1.84A98.15,98.15,0,0,0,208.16,94C199.29,119.92,197.39,149.31,200.21,177.47Z"/><path class="cls-29" d="M392.75,184.1a25.17,25.17,0,0,1-28.35,2c-2.49-1.52-5.47-3.55-8-2.14a7.15,7.15,0,0,0-2.45,2.87l-13.65,23.52c-1.42,2.44-2.86,5-3.23,7.76s.6,6,3,7.37c-2.26,1.92-.46,5.89,2.23,7.13s5.85,1,8.68,1.87,5.5,4,4.12,6.62c-1.14,2.16-4.32,2.61-5.4,4.8a6.52,6.52,0,0,0-.35,3.36L351.12,274C377.12,253.36,392.87,217.29,392.75,184.1Z"/><path class="cls-31" d="M364.41,186.09c-2.49-1.52-5.47-3.55-8-2.14a7.15,7.15,0,0,0-2.45,2.87l-9.45,16.28a29.7,29.7,0,0,0,7.34,7.55c10.77,6.73,18.85-1.35,29.61-1.35,2.69,1.35,2.69,5.38,5.38,6.73.45.12.88.2,1.32.29a116.32,116.32,0,0,0,4.61-32.22A25.17,25.17,0,0,1,364.41,186.09Z"/><path class="cls-29" d="M381.44,209.3c-10.77,0-18.85,8.08-29.61,1.35a29.7,29.7,0,0,1-7.34-7.55l-4.2,7.24c-1.42,2.44-2.86,5-3.23,7.76s.6,6,3,7.37c-2.26,1.92-.46,5.89,2.23,7.13s5.85,1,8.68,1.87,5.5,4,4.12,6.62c-1.14,2.16-4.32,2.61-5.4,4.8a6.52,6.52,0,0,0-.35,3.36L351.12,274c17.66-14,30.59-35.14,37-57.66-.43-.08-.86-.17-1.32-.29C384.14,214.69,384.14,210.65,381.44,209.3Z"/><path class="cls-32" d="M153.37,285.26l1,.22Z"/><path class="cls-31" d="M391.27,173l-1.39,1.54a18,18,0,0,1-1.37-1.27l-1.77-2c-1.52-.21-2.17,3-3.57,2.34-.93-.42-.43-1.81.1-2.68a15.12,15.12,0,0,0-.14-15.72,5.21,5.21,0,0,0-2.33-2.19c-1-.39-2.18-.42-2.24.67a16.19,16.19,0,0,0,3.59,11l-2.09,1.37-.36-1a2.13,2.13,0,0,0-2.13,1.46l-6.22.23c2.81-1.85,3.55-5.84,2.56-9.05a8.49,8.49,0,0,0-4.78-5.55c-2.36-.9-4.61-1.07-5.91,1.11l-1.34.45a7.85,7.85,0,0,1-2.28,6.32,10,10,0,0,1-6.21,2.8,7.54,7.54,0,0,1-4.15-.68,4.49,4.49,0,0,1-2.45-3.29c-.34-2.78,2.46-5,2.67-7.84s1.95-4.47,4.39-5.61a7.91,7.91,0,0,1,7.69.66l1-4.3c1.77.93,4-.77,4.37-2.73s-.48-3.92-1.32-5.74c1-1.2,3-.92,4.19.14a9.49,9.49,0,0,1,2.17,4.1,7.67,7.67,0,0,0,2.39,3.94c1.08.78,2.13.34,3.07-.6a5.18,5.18,0,0,0,1.26-3.69c0-5.45-4.21-10.3-9.3-12.24a16,16,0,0,1-4.23-1.88c-2.34-1.81-2.83-5.09-3.14-8,1.18-1.8,1.7-3.44,2.88-5.23C380.57,127.87,390.14,149.14,391.27,173Z"/><path class="cls-27" d="M318.25,207.44l1.38,10c.23,1.64.57,3.47,1.93,4.41,1.53,1,3.73.42,5-.9a12,12,0,0,0,2.47-4.92,23.86,23.86,0,0,0,1.5-7.14,8.07,8.07,0,0,0-2.8-6.49,5.95,5.95,0,0,0-8.94,7.36"/><ellipse class="cls-33" cx="221.69" cy="130.87" rx="10.97" ry="5.91"/><ellipse class="cls-34" cx="221.69" cy="130.87" rx="6.94" ry="3.74"/><ellipse class="cls-33" cx="242.94" cy="91.72" rx="10.97" ry="5.91"/><ellipse class="cls-34" cx="242.94" cy="91.72" rx="6.94" ry="3.74"/><ellipse class="cls-33" cx="196.48" cy="161.89" rx="10.97" ry="5.91"/><ellipse class="cls-34" cx="196.48" cy="161.89" rx="6.94" ry="3.74"/><ellipse class="cls-33" cx="221.69" cy="239.5" rx="10.97" ry="5.91"/><ellipse class="cls-34" cx="221.69" cy="239.5" rx="6.94" ry="3.74"/><ellipse class="cls-33" cx="239.6" cy="264.71" rx="10.97" ry="5.91"/><ellipse class="cls-34" cx="239.6" cy="264.71" rx="6.94" ry="3.74"/><ellipse class="cls-33" cx="350.97" cy="222.39" rx="10.97" ry="5.91"/><ellipse class="cls-34" cx="350.97" cy="222.39" rx="6.94" ry="3.74"/><ellipse class="cls-33" cx="357.63" cy="147.99" rx="10.97" ry="5.91"/><ellipse class="cls-34" cx="357.63" cy="147.99" rx="6.94" ry="3.74"/><ellipse class="cls-33" cx="374.38" cy="199.89" rx="10.97" ry="5.91"/><ellipse class="cls-34" cx="374.38" cy="199.89" rx="6.94" ry="3.74"/><ellipse class="cls-33" cx="374.24" cy="219.84" rx="10.97" ry="5.91"/><ellipse class="cls-34" cx="374.24" cy="219.84" rx="6.94" ry="3.74"/><ellipse class="cls-33" cx="210.91" cy="109.86" rx="10.97" ry="5.91"/><ellipse class="cls-34" cx="210.91" cy="109.86" rx="6.94" ry="3.74"/><g class="cls-23"><path class="cls-24" d="M197.33,127a4,4,0,0,0,.8-.74c1.1-1.36.69-3-1.35-3.44-.4-.08-1.74-.17-1.92.29a1.48,1.48,0,0,0-.56-1.7,2.23,2.23,0,0,0-2.09-.09,2.75,2.75,0,0,0-2-2.53,3.59,3.59,0,0,0-3.48.76,2.55,2.55,0,0,0-.34,3.15,3.56,3.56,0,0,0-2.73-.88,2.69,2.69,0,0,0-2.23,1.54,2.39,2.39,0,0,0,.47,2.06,2,2,0,0,0-.77.43,1.24,1.24,0,0,0,.37,1.82,3.87,3.87,0,0,0,2.27.54c2.66,0,5.3.37,8,.24C193.57,128.33,195.83,128,197.33,127Z"/><path class="cls-24" d="M190.06,127.27a13.15,13.15,0,0,0,5-4.36.37.37,0,0,0-.15.17,1.48,1.48,0,0,0-.56-1.7,2.23,2.23,0,0,0-2.09-.09,2.75,2.75,0,0,0-2-2.53,3.59,3.59,0,0,0-3.48.76,2.55,2.55,0,0,0-.34,3.15,3.56,3.56,0,0,0-2.73-.88,2.69,2.69,0,0,0-2.23,1.54,2.39,2.39,0,0,0,.47,2.06,2,2,0,0,0-.77.43,1,1,0,0,0-.24.92A9.52,9.52,0,0,0,190.06,127.27Z"/></g><path class="cls-35" d="M152.94,101a17.5,17.5,0,0,0-6.8,16.8,40,40,0,0,1-1.3,17.8c-1.3,4-5.79,17.56,10.13,17.26s16.91-18.94,15.08-28.49,1.51-16.27-.89-19.17S161.19,94.94,152.94,101Z"/><path class="cls-36" d="M213.07,135.79c3-2.34,6-4.89,6.58-2.24s.63,2.5-1.49,4.43S210.57,137.76,213.07,135.79Z"/><path class="cls-37" d="M213.17,135.28c-2,.9-16.09,3.74-21.81,5.54l-.16-.06c-2.85-.79-10.68-4.59-21.24-9.28a13.35,13.35,0,0,0-9.42.56c-1.89.94-2.51,4.17.9,5.91a85.37,85.37,0,0,0,11.33,4.9c9.59,3.52,14.67,4.55,17.36,4.8a3.77,3.77,0,0,0,1.8,0c5.92-1.39,8.08-2,15.29-5.8,5-2.62,7-1.8,7.76-3.38C215.63,137.19,214.66,134.61,213.17,135.28Z"/><path class="cls-38" d="M149,298.71a17.21,17.21,0,0,1,.37,2.85c.18,1.15,1.24,1.57,1.85,2.51s1.73,2.7-2.4,2.79c-4.42.09-7-.22-6.29-2.72a13.08,13.08,0,0,0,.84-4.41,2.78,2.78,0,0,1,.5-2.15C144.42,297.09,148.39,296.21,149,298.71Z"/><path class="cls-39" d="M157.15,120.5c0,.33-.56,7.33-.65,12.71,0,2.64,1.85,5.14,3.75,5.2h.08c1.86,0,4.05-2.34,3.89-4.93-.3-4.68-.07-9.47-.07-9.55Z"/><path class="cls-40" d="M151.71,150.78a91.65,91.65,0,0,1,3.36,14.72,37.4,37.4,0,0,1,0,11.08c-.3,2.21-.74,4.4-1.24,6.58-.19.82-1.81,7.47-1.88,8.18h30.33c-.29-5.94-7.06-24.61-2.48-36.7,3.17-8.37-1-8.63-3.9-15.6a20.44,20.44,0,0,0-2.42-5.05,8.71,8.71,0,0,0-4.64-2.85,17.2,17.2,0,0,0-2.82-.4c-5.13-.41-17.22-1.9-18.35,5.4a12.92,12.92,0,0,0,.6,5.9c.68,2.13,1.69,4.14,2.54,6.21C151.1,149.09,151.42,149.93,151.71,150.78Z"/><path class="cls-41" d="M152,210.59s-2.62-6.61-.12-19.26h30.33a185.47,185.47,0,0,1,1.1,19.26Z"/><path class="cls-42" d="M158,251.78c2.43-10.25-7.65-12.05-10.84-4.64-4.5,10.49-4.15,44-3.91,50.69,0,.88.49.71,1,.53a7.28,7.28,0,0,1,3.21-.6,2.8,2.8,0,0,1,1.69,1.38C150.1,290,155.67,261.71,158,251.78Z"/><path class="cls-43" d="M167.09,212c1.06-12.73-3.79-22.62-11.4-18.41-3.2,1.77-4.38,5.31-4.8,8.64s-2.79,38-3.61,44.22c-1.86,14.11,8.87,10.31,10,6.4C160.24,242.95,166.51,218.91,167.09,212Z"/><path class="cls-44" d="M185,251.12c.4-9.55-8.56-9.35-10.81-1.58-3.54,12.23,2.58,38.49,3,53.49,1.56-2.59,3-3.22,3.73-3.16a2.48,2.48,0,0,1,1.74,1C182.4,281.09,184.58,261.33,185,251.12Z"/><path class="cls-45" d="M174.55,252.16c1.19,3.9,11.45,8.41,10.38-5.78-.47-6.3-1.74-41.07-2-44.42s-.8-8.25-2.42-8.86c-8.1-3.06-16,6.94-13.83,19.53C168.12,221,172.08,244.07,174.55,252.16Z"/><path class="cls-36" d="M217.71,132.68a11,11,0,0,1,4.65-2.31c1.31-.11-1.54,1.41-2.57,2.32S216.5,133.61,217.71,132.68Z"/><path class="cls-36" d="M153.14,176.95c3.7-.74,5.59-2,7.28-1.06s-.79,4.19-2.06,4.73-5.69,2.82-7,1.6A3.3,3.3,0,0,1,153.14,176.95Z"/><path class="cls-46" d="M140.71,160.79c2.11-3.27,6.81-9.44,12.56-17.43a13.35,13.35,0,0,0,1.39-9.33c-.54-2-3.57-3.31-6-.33a84.63,84.63,0,0,0-7.12,10.08c-6.27,10-8,14.84-8.56,17.09a2.39,2.39,0,0,0,1,2.35c.07.11.13.23.21.35,3.64,4.87,5.08,6.6,11.42,11.71,4.4,3.54,4.43,5.67,6.2,5.77,1.43.08,3.42-1.85,2.21-2.95C152.48,176.66,144.77,165.63,140.71,160.79Z"/><path class="cls-36" d="M152.47,116.44c1.54,5.81,1.93,7.09,4.9,9.1A14.11,14.11,0,0,0,167,127.6c3-.49,4.75-4,5-6.65a43.51,43.51,0,0,0-1.75-15.24c-1-3.21-5.65-6.54-9.82-5.86S148.7,102.23,152.47,116.44Z"/><path class="cls-47" d="M183,300.79a10.36,10.36,0,0,0,4.3,3.26c2.29,1,7.16,1.51,4.46,2.41s-5.85.36-7.45.1a32.1,32.1,0,0,0-5-.3c-2.48,0-2.5-.17-2.17-3C177.58,299.43,181.89,298.62,183,300.79Z"/><path class="cls-48" d="M168.79,102.78c2.95,3.58-12.7,13.53-16.53,13.51s-4.14-7.29-1.83-11.38S161.83,94.33,168.79,102.78Z"/><path class="cls-49" d="M162.4,102.79c1.15,3.25,7.13,3.07,8.57,5.67.9,1.62.31-3.85-1.46-6.09S160.09,96.26,162.4,102.79Z"/><ellipse class="cls-36" cx="153.32" cy="116.3" rx="2.12" ry="4.05" transform="translate(-32.59 66.62) rotate(-22.22)"/><g class="cls-50"><path class="cls-51" d="M84.82.72C113-4,153.16,14.87,161.28,44.39c8.29,30.14-14.36,44.55,4.21,86.28,14.69,33-2.18,69.2-6.16,97.77C155,259.81,170.65,275,165.47,303c-11.92,64.37-11.15,83.35-55.4,97C64.64,414,55.31,350.59,25.8,300.5,4,263.52-8.37,225.27,6.52,198.12c21.39-39,52.66.57,41.69-46.48-6.56-28.15-5.5-76.82,35.2-69.49S44.16,7.54,84.82.72Z"/></g><path class="cls-52" d="M403.07,172.57c2.63.86,4.84.06,11.19-1.33,9.15-2,11.19-3.06,16.33-6.28,3.36-2.1-2.28-9.06-7.4-7.52-4.33,1.3-17.62,11-20.26,11.74C401.19,169.69,400.94,171.88,403.07,172.57Z"/><path class="cls-53" d="M431.56,163.57c.64-2.07,1.36-6.88,0-18.63a75.69,75.69,0,0,0-2.23-12.33c-1-3.84-5-4.82-6.65-3.61-2.73,2-5.09,6.46-4.7,8.51,2.22,11.54,4.63,20.29,4.67,23.18C422.73,164.9,430.8,166,431.56,163.57Z"/><path class="cls-54" d="M426,299.67a17.76,17.76,0,0,0-.42,3.06c-.2,1.23-1.38,1.68-2.06,2.69s-1.93,2.73,2.67,2.82c4.92.1,7.84-.06,7-2.74a13.66,13.66,0,0,1-.94-4.74,2.89,2.89,0,0,0-.56-2.31C431.13,297.93,426.71,297,426,299.67Z"/><path class="cls-36" d="M366.77,148.45c-1.6-.83-14.48-6.67-14.59-3.6-.12,3.39,4.48,6.83,6.17,7.79,3.09,1.77,6.81,1.07,8.3-.5C367.71,151,368.29,149.23,366.77,148.45Z"/><path class="cls-36" d="M366.32,147.53c-.5-.66-3.48-4.56-4.26-4-1.17.77.65,3.42,1.86,5.18.65,1,2.17,1.8,2.88,1.18S367.11,148.59,366.32,147.53Z"/><path class="cls-54" d="M388.17,301.91a11.46,11.46,0,0,1-4.78,3.49c-2.55,1.1-8,1.62-5,2.58s6.52.38,8.29.11a37.55,37.55,0,0,1,5.6-.33c2.76,0,2.78-.18,2.41-3.18C394.22,300.44,389.42,299.57,388.17,301.91Z"/><path class="cls-36" d="M419.54,110.34c-.56,5.59-.72,6.82-3.16,9.11s-6.25,2.62-8.9,2.62c-2.86,0-4.75-3.45-5.39-5.81a34.43,34.43,0,0,1-.56-13.16c.41-3.1,4.23-6.86,8.18-6.86S420.9,96.69,419.54,110.34Z"/><path class="cls-55" d="M363.72,152c1.74,2.15,3.15,3.39,9.39,5.23,8.43,2.49,13.29,3.35,17.57,3.63,4,.26,3.3-9.19-1.83-10.68-4.34-1.26-20.75-.34-23.39-1.12C363.7,148.6,362.3,150.31,363.72,152Z"/><path class="cls-56" d="M391.07,158.51c1.65-1.4,4.84-5.07,10-15.7a75.83,75.83,0,0,0,4.76-11.59c1.24-3.77-1.59-6.74-3.67-6.62-3.35.19-7.77,2.71-8.54,4.64-4.34,10.93-7,19.59-8.53,22.05C382.91,154.89,389.11,160.17,391.07,158.51Z"/><path class="cls-36" d="M416.7,120.18c.15,1.94.29,4.17.36,6.2a5.33,5.33,0,0,1-4.65,5.41h-.31c-2.41,0-5.25-2.18-5-4.6.14-1.57.19-3.15.2-4.54a6.28,6.28,0,0,1,4.18-5.89h0A4,4,0,0,1,416.7,120.18Z"/><path class="cls-57" d="M427.87,144.06c-4.48,14.74-6,30.12-5.08,40.41H389s.2-31.62,2.46-48.94a13,13,0,0,1,7.13-9.93,24.23,24.23,0,0,1,9-2h6.24a23.63,23.63,0,0,1,6.59.82C429.65,127.25,430.47,135.52,427.87,144.06Z"/><path class="cls-58" d="M422.66,205.13s2.92-7.09.14-20.66H389a191.91,191.91,0,0,0-1.23,20.66Z"/><path class="cls-58" d="M416,249.33c-2.7-11,8.52-12.93,12.07-5,5,11.25,4.61,47.2,4.35,54.38,0,.94.13,2.1-.35,2.42-.89.61-2.78.6-3.57.57-1.26,0-2.49,0-2.62-1.59C425,289.67,418.61,260,416,249.33Z"/><path class="cls-58" d="M405.9,206.62c-1.19-13.66,4.22-24.26,12.69-19.75,3.57,1.9,4.87,5.69,5.35,9.27s3.1,40.73,4,47.44c2.07,15.14-9.88,11.06-11.18,6.86C413.52,239.85,406.55,214.06,405.9,206.62Z"/><path class="cls-58" d="M394.68,304.31c.42-16.09,7.25-44.26,3.3-57.38-2.51-8.34-12.48-8.56-12,1.69.47,11,3.77,32.18,2.65,53.34C388.48,304,394.61,306.19,394.68,304.31Z"/><path class="cls-58" d="M397.59,249.73c-1.33,4.18-12.75,9-11.55-6.2.53-6.76,1.94-44.06,2.21-47.65s.89-8.85,2.7-9.51c9-3.28,17.76,7.45,15.39,20.95C404.75,216.34,400.34,241.05,397.59,249.73Z"/><ellipse class="cls-36" cx="401.17" cy="109.92" rx="1.98" ry="3.78" transform="translate(-11.77 159.89) rotate(-22.22)"/><ellipse class="cls-36" cx="419.38" cy="109.92" rx="3.78" ry="1.98" transform="translate(159.06 456.61) rotate(-67.79)"/><path class="cls-59" d="M417.82,99.33c-2.18,3.25-12.69,3.55-16.12,2.36s-3.19-7.83,1.72-8.29c2.76,0,.76.66,3,1.57C407.55,95.43,420.14,95.87,417.82,99.33Z"/><path class="cls-60" d="M406,98.77c-3.24,2-4,3.67-3.9,7.67s1.8,10.83,9.17,12.36,9.11-5.79,9.56-10.83.16-8.82-3.57-9.72C411.72,96.9,408,97.59,406,98.77Z"/><g class="cls-61"><path class="cls-62" d="M421.71,86.52c15.23-9.33,43.37,4.83,48.44,23.25,5.17,18.8-9,27.8,2.62,53.83,9.17,20.59-1.36,43.18-3.84,61-2.72,19.57,7.07,29,3.83,46.49-7.44,40.16,29.15,64.07,1.54,72.58-28.35,8.74-27.9-9.17-58.72-9.28-26.78-.09-28.21-68.25-25.45-94.32,2.92-27.6,18.8-32.32,12-61.68-4.09-17.57-7.44-27.6,10-46.6C421,122.07,392.57,104.37,421.71,86.52Z"/></g></g></g></g></svg>