<svg xmlns="http://www.w3.org/2000/svg" xmlns:xlink="http://www.w3.org/1999/xlink" viewBox="0 0 193.63 190.07"><defs><style>.cls-1{isolation:isolate;}.cls-2{fill:url(#Gradient_bez_nazwy_24);}.cls-3,.cls-6{opacity:0.2;}.cls-3{fill:url(#Gradient_bez_nazwy_24-2);}.cls-4,.cls-5{fill:#aaaae8;mix-blend-mode:color-dodge;}.cls-4{opacity:0.35;}.cls-5{opacity:0.09;}.cls-16,.cls-6{fill:#eeedf3;}.cls-7{fill:none;stroke:#0037ff;stroke-linecap:round;stroke-linejoin:round;}.cls-8{fill:#010080;}.cls-9{fill:#f8b7b0;}.cls-10{fill:#e49f98;}.cls-11{fill:#77d2ff;}.cls-12{fill:url(#Gradient_bez_nazwy_22);}.cls-13{fill:#4003a9;}.cls-14{fill:url(#Gradient_bez_nazwy_2);}.cls-15{fill:#eefaff;}.cls-17,.cls-20{mix-blend-mode:multiply;}.cls-18{fill:#e0e0e2;}.cls-19{fill:#c8c7d9;}.cls-20{fill:#3f3f3f;opacity:0.1;}</style><linearGradient id="Gradient_bez_nazwy_24" x1="93.95" y1="33.5" x2="114.26" y2="188.82" gradientUnits="userSpaceOnUse"><stop offset="0" stop-color="aqua"/><stop offset="0.37" stop-color="#0071bc"/><stop offset="0.76" stop-color="#9e005d"/><stop offset="1" stop-color="#ed1e79"/></linearGradient><linearGradient id="Gradient_bez_nazwy_24-2" x1="200.83" y1="161.72" x2="1.18" y2="-21.69" xlink:href="#Gradient_bez_nazwy_24"/><linearGradient id="Gradient_bez_nazwy_22" x1="109.23" y1="119.63" x2="92.48" y2="69.24" gradientUnits="userSpaceOnUse"><stop offset="0" stop-color="#3301a0"/><stop offset="1" stop-color="#6a01a0"/></linearGradient><linearGradient id="Gradient_bez_nazwy_2" x1="80.73" y1="186.58" x2="83.02" y2="116.7" gradientUnits="userSpaceOnUse"><stop offset="0" stop-color="#f70f47"/><stop offset="1" stop-color="#9e005d"/></linearGradient></defs><title>what-is-smm</title><g class="cls-1"><g id="Слой_2" data-name="Слой 2"><g id="Objects"><path class="cls-2" d="M150.66,49.84,93.8,28.73a3.32,3.32,0,0,0-4.26,2L51.15,134.12a3.31,3.31,0,0,0,2,4.25L110,159.48a3.31,3.31,0,0,0,4.25-2l38.4-103.42A3.32,3.32,0,0,0,150.66,49.84Z"/><path class="cls-3" d="M87.68,20c-4,1.65-19.18,8-27.68,24.41C58.2,47.93,49.7,64.35,56,78.85,64.25,98,89.52,93.39,101.12,111.45c10,15.53-10.69,30.81-1.79,49.32,4.64,9.66,15.34,17.72,25.24,18.47,30.89,2.32,86.37-64.24,63.81-116.44C172,24.8,119.52,6.76,87.68,20Z"/><path class="cls-4" d="M118.61,173.4c-.89,0-1.74,0-2.55-.06-16-.79-28.59-6.26-35.34-15.39-7.24-9.79-5.66-20.19-4-31.2,1.49-9.81,3-19.95-2.07-29.9C70.13,88,61.46,86.31,52.28,84.52,42.9,82.7,33.2,80.81,26.75,71.3c-6.81-10-8.37-25-3.64-34.7,7-14.34,30.94-25.75,59.66-28.4,37.29-3.44,69.93,8.54,87.29,32.06,27.7,37.52,14.83,97.43-15.14,120.17h0l-.28-.36.27.36C141.07,170.93,127.91,173.4,118.61,173.4ZM95.25,8.52q-6.09,0-12.39.58C54.44,11.73,30.76,22.94,23.93,37c-4.6,9.48-3.07,24,3.57,33.79,6.24,9.19,15.75,11,24.94,12.84,9.4,1.83,18.29,3.56,23,12.81,5.23,10.21,3.67,20.5,2.16,30.45-1.64,10.81-3.19,21,3.82,30.52,6.58,8.91,18.89,14.24,34.65,15,9.2.46,23.3-1.39,38.27-12.74l.28.36-.28-.36c29.64-22.49,42.37-81.77,15-118.9C154.1,20.18,127,8.52,95.25,8.52Z"/><path class="cls-5" d="M116.58,102.84q-2.15,0-4.35-.12C90.14,101.5,72.11,91.68,64,76.44c-12.94-24.31-.23-58.2,19.24-68.89C93.1,2.14,101.63,2.29,107,3.37c9.3,1.85,16.15,6.12,19.3,12,3.37,6.34,1.56,12.27-.37,18.55-1.72,5.61-3.5,11.41-1.38,17.69,1.89,5.59,6.82,7.33,12,9.17s10.82,3.82,13.76,9.92c3.1,6.44,2.73,15.28-.88,20.56C144.68,98.39,131.75,102.84,116.58,102.84ZM100.91,3.23A36,36,0,0,0,83.46,8h0C64.17,18.54,51.58,52.13,64.41,76.23c8,15.1,25.92,24.83,47.84,26,16.86.93,31.68-3.58,36.9-11.22,3.52-5.15,3.88-13.8.84-20.11-2.86-5.93-8.27-7.84-13.5-9.69s-10.36-3.66-12.33-9.46c-2.17-6.41-.37-12.28,1.38-18,1.9-6.19,3.69-12,.4-18.21-3.08-5.79-9.83-10-19-11.8A31,31,0,0,0,100.91,3.23ZM83.35,7.75h0Z"/><polygon class="cls-6" points="136.88 44.73 130.6 48.95 75.61 85.86 66.89 91.72 78.88 59.41 87.6 53.57 107.34 40.31 113.63 36.09 136.88 44.73"/><polygon class="cls-6" points="149.41 49.38 143.11 53.6 69.15 103.25 69.15 103.25 60.43 109.1 64.65 97.73 64.65 97.72 73.38 91.87 73.38 91.86 134.92 50.55 141.21 46.33 149.41 49.38"/><rect class="cls-7" x="118.61" y="107.94" width="47.03" height="26.54" transform="translate(-17.3 23.87) rotate(-9.05)"/><polygon class="cls-7" points="142.12 121.22 163.26 104.41 116.82 111.81 142.12 121.22"/><path class="cls-8" d="M101,66c1.8-1.57,3.37-9.23-.65-7.31s-1,7.36-1,7.36Z"/><path class="cls-9" d="M102,82.65A7.48,7.48,0,0,0,109.14,81c.86-.85-1.41-2.1-2.15-3.15a2.86,2.86,0,0,1-.29-2,22.75,22.75,0,0,1,1.05-4.12l-7.27-2.25s-.22,3.77-.4,5.17a2.12,2.12,0,0,1-.17.64c-.38.84-1.32,1.1-2.88,2.07C95.13,78.57,98.41,81.69,102,82.65Z"/><path class="cls-10" d="M100.08,74.68a2.22,2.22,0,0,1,0,.26,4.35,4.35,0,0,0,2.38,1.67,6.73,6.73,0,0,0,4.37-1.34,28.5,28.5,0,0,1,1-3.51l-7.27-2.25S100.26,73.29,100.08,74.68Z"/><path class="cls-9" d="M110.39,67.3c-.81,3.57-1.28,5.29-3,6.57a7.06,7.06,0,0,1-4.78,1.62c-1.62-.2-3.72-3.07-3.94-4.65a28.23,28.23,0,0,1,.7-9.68,5.88,5.88,0,0,1,5.85-3.77C107.73,57.7,112.38,58.59,110.39,67.3Z"/><ellipse class="cls-9" cx="99.21" cy="66.27" rx="1.29" ry="2.46" transform="translate(-5.8 9.64) rotate(-5.4)"/><path class="cls-11" d="M103.18,80.42"/><path class="cls-12" d="M132,101.36l-16.78,4.38-4.47-12.66s-3.49,21.22-4.16,23.67-1.28,2.53-2.33,2.34l-16.89-3c-1.16-.2-1.76-1.59-1.18-3.75.47-1.76,4.15-16.11,4.82-22.71a69.92,69.92,0,0,1-5.4,10.05L69.74,93.65l1.76-4.88,11.09,3s3.75-7.72,7.9-12.29A15.62,15.62,0,0,1,97.43,76a12.19,12.19,0,0,1,1.63-.2,4.11,4.11,0,0,0,3.36,3.64c1.48.26,4.46-.23,4.88-1.76a8.19,8.19,0,0,1,1.71.9c2.13,1.42,3.49,1.89,4.43,3.75,1.52,3,6.15,16.38,6.15,16.38l12.63-2.83Z"/><path class="cls-13" d="M94.28,182.59a11.52,11.52,0,0,0,4.53,3.87c2.48,1.3,7.66,2.43,4.58,3.17s-5.15.64-9.82-.92a7.8,7.8,0,0,0-3.88-.57c-2.11.09-3.65.64-2.66-3.42S93.21,180.15,94.28,182.59Z"/><path class="cls-13" d="M58.09,165.53c-.16.81-2.29,2.65-4.44,4.44s-4.65,2.73-3,3.64c2.94,1.59,4.39.2,8.63-2.31,1.8-1,1.71-.61,3.67-1.38,1.34-.53,2.48-1.23,1.87-3.91C64,161.94,58.62,162.92,58.09,165.53Z"/><path class="cls-14" d="M106.47,118.2s-2.35,16.32-3.94,26.12c-.18,1.11-.35,2.12-.5,3-.22,1.28-.4,2.27-.54,2.88-.24,1.08-.68,3.14-1.21,5.7-.19.93-.39,1.92-.61,3-1.74,8.53-4,20-4.12,21.44a23.92,23.92,0,0,0,0,3.34.29.29,0,0,1-.41.27l-2.32-1.07a.31.31,0,0,0-.22,0c-.75.28-5.08,1.89-5.71,2.63s.27-2,.51-5c.18-2.26,2.9-15.86,4.64-24.4.22-1.08.42-2.07.6-3,.36-1.74.62-3,.75-3.65a42.23,42.23,0,0,0,.42-5.13c0-1,.08-2,.12-3.14.17-5.74.2-12.4.21-13.67a.29.29,0,0,0-.22-.27l-3.78-1a.24.24,0,0,0-.19,0c-1,.48-9.66,4.73-13.82,8.31a7.2,7.2,0,0,0-2.06,2.43,2.23,2.23,0,0,0-.1.29c-.83,3.35-1.64,6.07-2.33,8-.25.71-.48,1.33-.71,1.84-.11.25-.25.57-.39.94-1.53,3.71-5,12.85-5.55,14.63a6.42,6.42,0,0,0,0,2.7c0,1.32-2.12,1.91-3.22,1.38-.82-.39-2.48-1.51-3.44-1.32a.29.29,0,0,1-.37-.34c.62-2.59,2.9-12,5-19.89.26-1,.52-2,.78-2.9A79.86,79.86,0,0,1,66.18,134,12.93,12.93,0,0,1,68,131.48c5-5.92,17.49-17,17.49-17s.45-1.36,1.2-1.25c1.64.24,1.76.53,10,2.18C105.65,117.2,106.73,116.29,106.47,118.2Z"/><path class="cls-8" d="M109.79,61.18c-4.94-.57-8.41-1.33-10.09-3.6s-.13-2.53,1.11-1.75a1.71,1.71,0,0,1,2.74-.78,3.16,3.16,0,0,1,4.36,1s3.39-1,3.68,1.63C111.6,57.64,114.15,61.69,109.79,61.18Z"/><path class="cls-8" d="M112.07,60.09c1.35,2,1,9.78-2.44,6.92s.47-6.78.47-6.78Z"/><ellipse class="cls-9" cx="110.45" cy="67.68" rx="2.46" ry="1.29" transform="translate(-2.71 130.73) rotate(-60.62)"/><path class="cls-8" d="M106.39,118.05,85.7,114.32a.23.23,0,0,1-.18-.31l.73-2.07a.23.23,0,0,1,.26-.15l20.36,3.56a.23.23,0,0,1,.19.27l-.4,2.23A.23.23,0,0,1,106.39,118.05Z"/><path class="cls-15" d="M109,78.62a6.7,6.7,0,0,1-6.3,2.48A6.81,6.81,0,0,1,97.43,76a12.19,12.19,0,0,1,1.63-.2,4.11,4.11,0,0,0,3.36,3.64c1.48.26,4.46-.23,4.88-1.76A8.19,8.19,0,0,1,109,78.62Z"/><path class="cls-8" d="M113.29,60.09a1.09,1.09,0,0,0-.48-1.47l-1,1.95A1.09,1.09,0,0,0,113.29,60.09Z"/><path class="cls-8" d="M101.57,60.27a3.44,3.44,0,0,0,2.22-4.33L97.24,58A3.44,3.44,0,0,0,101.57,60.27Z"/><path class="cls-8" d="M104.34,61a2.29,2.29,0,0,0,.19-3.24l-3.42,3A2.29,2.29,0,0,0,104.34,61Z"/><path class="cls-8" d="M113.09,61.47a1.09,1.09,0,0,0,.86-1.28l-2.14.42A1.09,1.09,0,0,0,113.09,61.47Z"/><path class="cls-16" d="M150.66,49.84l-1.25-.47-8.19-3-4.33-1.61-23.26-8.63L93.8,28.73a3.32,3.32,0,0,0-4.26,2L78.88,59.41l-12,32.3-2.24,6h0L60.43,109.1l-9.29,25a3.45,3.45,0,0,0-.19.94,3.28,3.28,0,0,0,2.15,3.32l10.56,3.92,8,3,21,7.8,7.66,2.84,9.66,3.59a3.31,3.31,0,0,0,4.26-1.95L151.9,56l.7-1.88A3.31,3.31,0,0,0,150.66,49.84Zm-5.41,6.45-.8,2.16L112,145.91a1.8,1.8,0,0,1-2.31,1.05l-7.13-2.65-8.61-3.2-17.8-6.61-8.15-3-6.5-2.41a1.77,1.77,0,0,1-1.16-1.61,1.67,1.67,0,0,1,.1-.69l8.73-23.51h0l4.23-11.37h0l2.23-6,12-32.29,6.09-16.42A1.79,1.79,0,0,1,96,36.1l11.35,4.21,23.26,8.63,4.32,1.61,8.19,3,1.08.4A1.78,1.78,0,0,1,145.25,56.29Z"/><g class="cls-17"><path class="cls-18" d="M92,156l7.65,2.84c.22-1,.42-2,.61-3L92.63,153C92.45,153.94,92.25,154.93,92,156Z"/><path class="cls-18" d="M62.88,145.19,70.52,148c.15-.37.28-.69.39-.94.23-.5.47-1.12.71-1.84l-8-3C63.4,143.22,63.15,144.2,62.88,145.19Z"/></g><path class="cls-19" d="M79.92,144.67h0a3.11,3.11,0,0,1-1.84-4h0a3.11,3.11,0,0,1,4-1.84h0a3.11,3.11,0,0,1,1.84,4h0A3.11,3.11,0,0,1,79.92,144.67Z"/><path class="cls-9" d="M67.13,91.06a5,5,0,0,0,2.7-.4c.61-.32,1.2-2.19,1.39-3.53S69.68,86,69.68,86a8.33,8.33,0,0,1,1.78-.42c1.1-.15,1.53-1.41-.06-1.38s-3.14.78-4.62,3.8c0,0-1.51,2.81,0,4Z"/><path class="cls-9" d="M139.5,93.54c0-1.06-1.83-2.77-2.34-2.09s-1.9,3.14-1.66,4.35a6.5,6.5,0,0,0,.85,2.11l-.35.94S139.46,98.15,139.5,93.54Z"/><path class="cls-20" d="M111,14.86,41.84,20.57a3,3,0,0,0-2.77,3.27l1.67,20.22A3,3,0,0,0,44,46.83l6.81-.56L54.13,46c.65.71,2.31,2.51,3,3.16A1.5,1.5,0,0,0,59.33,49c.57-.76,1.92-2.81,2.44-3.61L78.57,44l34.56-2.86a3,3,0,0,0,2.77-3.27l-1.67-20.22A3,3,0,0,0,111,14.86Z"/><rect class="cls-20" x="134.42" y="12.3" width="25.34" height="25.34" rx="1.7" ry="1.7" transform="translate(104.82 168.05) rotate(-83.18)"/><path class="cls-20" d="M64.44,59.35a4,4,0,0,0-5-2.57l-25.41,8a4,4,0,0,0-2.57,5l5.24,16.55a4,4,0,0,0,5,2.57l2.48-.79s4.63,3.22,6.25,4.17a2.36,2.36,0,0,0,3.3-1c.77-1.71,2.71-7,2.71-7l10.67-3.38a4,4,0,0,0,2.57-5Z"/><path class="cls-20" d="M146.85,72.15a.79.79,0,0,0-1.44-.23l-1.49,2.42-.84-3.51a1.32,1.32,0,0,0-1.59-1l-9.66,2.3a1.32,1.32,0,0,0-1,1.59l2.3,9.66a1.32,1.32,0,0,0,1.59,1l9.66-2.3a1.32,1.32,0,0,0,1-1.59L144.55,77,147,78.47a.79.79,0,0,0,1.18-.85Z"/><path class="cls-20" d="M15.51,41.89a2,2,0,0,0-3.72.2L7,55.66a2,2,0,0,0,2.77,2.49l9.18-4.39a2,2,0,0,0,1-2.69Z"/><circle class="cls-20" cx="22.13" cy="10.51" r="5.92" transform="translate(-2.14 7.18) rotate(-17.58)"/><circle class="cls-20" cx="180.54" cy="157.84" r="3.97" transform="translate(-54.08 207.46) rotate(-53.1)"/><circle class="cls-20" cx="174.44" cy="47.14" r="7.49" transform="translate(64.97 190.91) rotate(-67.83)"/><circle class="cls-20" cx="55.76" cy="111.15" r="10.18" transform="translate(-30.6 21.68) rotate(-17.35)"/><path class="cls-7" d="M112.16,9.92,38,16.05a3.25,3.25,0,0,0-3,3.51l1.79,21.69a3.25,3.25,0,0,0,3.51,3l7.31-.6,3.55-.29c.7.76,2.48,2.7,3.22,3.4a1.61,1.61,0,0,0,2.35-.19c.61-.81,2.06-3,2.62-3.88l18-1.49,37.07-3.06a3.25,3.25,0,0,0,3-3.51l-1.79-21.69A3.25,3.25,0,0,0,112.16,9.92Z"/><path class="cls-7" d="M53.11,29.65a3.57,3.57,0,0,0,1-2.76l-.15-1.76a3.69,3.69,0,0,0-3.77-3.44,3.59,3.59,0,0,0-3.39,3.88l.16,1.91A3.57,3.57,0,0,0,48.34,30a7.58,7.58,0,0,0-4.48,5.66,1.54,1.54,0,0,0,1.67,1.77l11.58-1a1.54,1.54,0,0,0,1.35-2A7.58,7.58,0,0,0,53.11,29.65Z"/><path class="cls-7" d="M83,19,68.25,20.19a2.2,2.2,0,0,0-2,2.37l.6,7.26a2.2,2.2,0,0,0,2.37,2l1.44-.12s2.11,2.32,2.87,3a1.31,1.31,0,0,0,1.92-.16c.63-.83,2.34-3.47,2.34-3.47l6.2-.51a2.2,2.2,0,0,0,2-2.37L85.39,21A2.2,2.2,0,0,0,83,19Z"/><path class="cls-7" d="M69.88,23.89a.91.91,0,0,1-.07-1.82l12-1a.91.91,0,1,1,.15,1.82l-12,1Z"/><path class="cls-7" d="M70.14,27a.91.91,0,0,1-.07-1.82l12-1A.91.91,0,1,1,82.2,26l-12,1Z"/><path class="cls-7" d="M70.4,30.17a.91.91,0,0,1-.07-1.82l5.4-.45a.91.91,0,1,1,.15,1.82l-5.4.45Z"/><path class="cls-7" d="M110.74,29.07a6.65,6.65,0,0,0-1.64-3.85L109,23.66a5.37,5.37,0,0,0-4.85-4.9l0-.46a.94.94,0,1,0-1.88.16l0,.46a5.37,5.37,0,0,0-4,5.63l.13,1.56h0a6.68,6.68,0,0,0-1,4.07l.06.68a.63.63,0,0,0,.68.57l2.65-.22a.53.53,0,0,0,.25.53,5.38,5.38,0,0,0,6.36-.53.53.53,0,0,0,.16-.56l2.65-.22a.63.63,0,0,0,.57-.68Z"/><circle class="cls-7" cx="96.56" cy="30.78" r="2.83" transform="translate(-2.21 8.06) rotate(-4.73)"/><rect class="cls-7" x="137.33" y="7.18" width="27.18" height="27.18" rx="2" ry="2" transform="translate(3.54 -17.79) rotate(6.82)"/><rect class="cls-7" x="139.86" y="9.7" width="22.14" height="22.14" rx="1.21" ry="1.21" transform="translate(189.48 -126.62) rotate(96.82)"/><path class="cls-7" d="M151.44,22.57,149,24.48a1,1,0,0,1-1.45-.17h0a1,1,0,0,0-1.45-.17L142.52,27A1,1,0,0,0,143,28.8l.42.05,8.48,1,4.77.57a1,1,0,0,0,.93-1.66l-4.74-6A1,1,0,0,0,151.44,22.57Z"/><circle class="cls-7" cx="145.27" cy="18.27" r="1.81" transform="translate(109.88 160.34) rotate(-83.18)"/><path class="cls-7" d="M55.12,53,27.86,61.63A4.24,4.24,0,0,0,25.1,67L30.72,84.7A4.24,4.24,0,0,0,36,87.46l2.66-.84s5,3.45,6.71,4.48A2.54,2.54,0,0,0,49,90c.83-1.84,2.9-7.52,2.9-7.52L63.3,78.83a4.24,4.24,0,0,0,2.76-5.32L60.44,55.76A4.24,4.24,0,0,0,55.12,53Z"/><path class="cls-7" d="M55.2,62.21l-22.1,7a1.37,1.37,0,0,1-.83-2.61l22.1-7a1.37,1.37,0,0,1,.83,2.61Z"/><path class="cls-7" d="M57.17,68.44l-22.1,7a1.37,1.37,0,0,1-.83-2.61l22.1-7a1.37,1.37,0,0,1,.83,2.61Z"/><path class="cls-7" d="M47,78.52,37,81.68a1.37,1.37,0,0,1-.83-2.61l10-3.16A1.37,1.37,0,0,1,47,78.52Z"/><path class="cls-7" d="M145.68,69.2l-1.42,2.31-.8-3.35a1.26,1.26,0,0,0-1.52-.93l-9.21,2.19a1.26,1.26,0,0,0-.93,1.52L134,80.16a1.26,1.26,0,0,0,1.52.93l9.21-2.19a1.26,1.26,0,0,0,.93-1.52l-.8-3.35,2.31,1.42a.75.75,0,0,0,1.13-.81L147,69.42A.75.75,0,0,0,145.68,69.2Z"/><polyline class="cls-7" points="137.08 71.68 140.45 73.75 138.38 77.12"/><path class="cls-7" d="M14.48,48.78l-4.7-9.85a2.16,2.16,0,0,0-4,.21L.63,53.7a2.16,2.16,0,0,0,3,2.68l9.85-4.7A2.16,2.16,0,0,0,14.48,48.78Z"/><path class="cls-7" d="M11.45,47.16l-1.14-1.8.07-.2a.47.47,0,1,0-.89-.32L7.89,49.35a3.22,3.22,0,0,0-1.21-.74c-1.21-.43-2.43-.14-2.71.65S4.46,51,5.67,51.47s2.39.14,2.69-.62v0l1.11-3.15.67,1.05a.56.56,0,0,0,1-.11l.34-1A.56.56,0,0,0,11.45,47.16Z"/><circle class="cls-7" cx="18.55" cy="6.85" r="6.35" transform="translate(-1.2 5.92) rotate(-17.58)"/><path class="cls-7" d="M21,3.79a2.26,2.26,0,0,0-3.15.91,2.26,2.26,0,0,0-3.1,1.07,2.31,2.31,0,0,0,1.07,3L19,10.41a.89.89,0,0,0,1.2-.38l1.65-3.18A2.31,2.31,0,0,0,21,3.79Z"/><circle class="cls-7" cx="184.05" cy="160.55" r="4.26" transform="translate(-54.84 211.34) rotate(-53.1)"/><path class="cls-7" d="M186.68,160.71a45.51,45.51,0,0,0-3.52-2.64,1.55,1.55,0,0,0-1.21,1.75l.34,2.38a.59.59,0,0,0,.67.51l2.38-.34A1.55,1.55,0,0,0,186.68,160.71Z"/><circle class="cls-7" cx="179.79" cy="42.45" r="8.04" transform="translate(72.64 192.94) rotate(-67.83)"/><path class="cls-7" d="M182.72,38.29a.88.88,0,0,0-1.24-.1,14.2,14.2,0,0,1-2.39,1.92l-.76-.31a.12.12,0,0,0-.16.07l-1.64,4a.12.12,0,0,0,.07.16l.57.23A2.17,2.17,0,0,0,178.5,46l.34.14,2.2.9.49.2a.88.88,0,0,0,1.13-1.16l.35.14a.88.88,0,0,0,1.1-1.24.88.88,0,0,0,.37-1.69h0a.87.87,0,0,0,0-1.62l-3.1-1.26C182.15,39.82,183.27,38.92,182.72,38.29Z"/><rect class="cls-7" x="175.24" y="38.85" width="1.75" height="5.07" rx="0.35" ry="0.35" transform="translate(28.63 -63.38) rotate(22.16)"/><circle class="cls-7" cx="51.06" cy="113.23" r="10.92" transform="translate(-31.44 20.37) rotate(-17.35)"/><path class="cls-7" d="M56.48,115.3a16,16,0,0,0-1.16-1.16c-.35-.34-.38-.54-.09-.94s.64-.85,1-1.28a4.66,4.66,0,0,0,.74-1.29c.1-.31,0-.44-.3-.5h-2a.42.42,0,0,0-.44.3c-.11.28-.22.55-.35.82a6.72,6.72,0,0,1-1.09,1.68c-.1.11-.22.25-.39.19s-.28-.43-.27-.55v-2.16c0-.31-.11-.45-.42-.51H49.68a.62.62,0,0,0-.53.26c-.08.09-.1.15.06.19a.65.65,0,0,1,.55.59,6.63,6.63,0,0,1,0,1.55,1.45,1.45,0,0,1-.1.44.26.26,0,0,1-.44.13,1.8,1.8,0,0,1-.43-.47,10.44,10.44,0,0,1-1.14-2.11.49.49,0,0,0-.47-.35c-.56,0-1.12,0-1.68,0-.34,0-.44.17-.3.48a20.89,20.89,0,0,0,2.18,3.89A5.43,5.43,0,0,0,49.06,116a4.4,4.4,0,0,0,2.46.53c.41,0,.53-.12.55-.53a1.8,1.8,0,0,1,.18-.8.36.36,0,0,1,.57-.14,1.62,1.62,0,0,1,.31.28c.23.25.45.51.69.75a1.33,1.33,0,0,0,1.1.45h1.72c.28,0,.42-.36.26-.67A3.31,3.31,0,0,0,56.48,115.3Z"/><circle class="cls-7" cx="177.68" cy="83.11" r="13.43" transform="translate(-16.7 56.75) rotate(-17.35)"/><path class="cls-7" d="M182.83,77.7,178,75.65A4.37,4.37,0,0,0,172.28,78l-2.05,4.82a4.37,4.37,0,0,0,2.31,5.73l4.82,2.05a4.37,4.37,0,0,0,5.73-2.31l2.05-4.82A4.37,4.37,0,0,0,182.83,77.7Zm-.95,10a3.06,3.06,0,0,1-4,1.62L173,87.31a3.06,3.06,0,0,1-1.62-4l2.05-4.82a3.06,3.06,0,0,1,4-1.62l4.82,2.05a3.06,3.06,0,0,1,1.62,4Z"/><path class="cls-7" d="M179,79.89a3.5,3.5,0,1,0,1.85,4.58A3.5,3.5,0,0,0,179,79.89Zm-2.22,5.23A2.18,2.18,0,1,1,179.69,84,2.19,2.19,0,0,1,176.83,85.12Z"/><circle class="cls-7" cx="182.61" cy="81.12" r="0.47" transform="translate(36.5 217.42) rotate(-66.96)"/><circle class="cls-7" cx="138.49" cy="151.54" r="11.23" transform="translate(-38.88 48.18) rotate(-17.35)"/><path class="cls-7" d="M139.24,149.65v-1.51a.75.75,0,0,1,.75-.75h.75v-1.88h-1.51a2.26,2.26,0,0,0-2.26,2.26v1.88h-1.51v1.88H137v6h2.26v-6h1.51l.75-1.88Z"/><circle class="cls-7" cx="132.66" cy="45.98" r="12.37" transform="translate(-7.68 41.64) rotate(-17.35)"/><path class="cls-7" d="M133.31,49a5.62,5.62,0,0,1-3.18.15c-.13,0-.26-.07-.39-.12a.9.9,0,0,1,.39-1.74l.29,0a4.92,4.92,0,0,0,5.06-2,1.48,1.48,0,0,1,.39-.46.83.83,0,0,1,1,0,.81.81,0,0,1,.35,1,4.4,4.4,0,0,1-1.08,1.55,7.44,7.44,0,0,1-1.51,1.06l.26.12L138.17,50a.83.83,0,0,1,.54.83,1,1,0,0,1-.64.89.9.9,0,0,1-.66-.05c-.82-.35-1.65-.68-2.46-1-.24-.11-.3,0-.39.17-.34.84-.69,1.68-1,2.51a.81.81,0,0,1-.83.53,1,1,0,0,1-.87-.62.91.91,0,0,1,.05-.68l1.35-3.22Z"/><path class="cls-7" d="M132.86,46.1a3.66,3.66,0,1,1,2-4.74A3.66,3.66,0,0,1,132.86,46.1Zm.29-4.08a1.79,1.79,0,1,0-1,2.34A1.78,1.78,0,0,0,133.15,42Z"/></g></g></g></svg>