<svg xmlns="http://www.w3.org/2000/svg" xmlns:xlink="http://www.w3.org/1999/xlink" viewBox="0 0 161.04 167.53"><defs><style>.cls-1{isolation:isolate;}.cls-2,.cls-3,.cls-4,.cls-5{fill:none;stroke:#0037ff;stroke-linecap:round;stroke-linejoin:round;}.cls-3,.cls-4{opacity:0.4;}.cls-3{mix-blend-mode:color-dodge;}.cls-4{mix-blend-mode:multiply;}.cls-5{opacity:0.3;}.cls-6{fill:url(#Gradient_bez_nazwy_4);}.cls-7{fill:url(#Gradient_bez_nazwy_2);}.cls-8{fill:url(#Gradient_bez_nazwy_2-2);}.cls-9{fill:#ea8f68;}.cls-10{fill:url(#Gradient_bez_nazwy_2-3);}.cls-11{fill:url(#Gradient_bez_nazwy_10);}.cls-12{fill:url(#Gradient_bez_nazwy_5);}.cls-13{fill:url(#Gradient_bez_nazwy_5-2);}.cls-14{fill:url(#Gradient_bez_nazwy_5-3);}.cls-15{fill:url(#Gradient_bez_nazwy_5-4);}.cls-16{fill:#ffaf84;}.cls-17{fill:url(#Gradient_bez_nazwy_4-2);}.cls-18{fill:url(#Gradient_bez_nazwy_4-3);}.cls-19{fill:url(#Gradient_bez_nazwy_4-4);}.cls-20{fill:url(#Gradient_bez_nazwy_4-5);}.cls-21{fill:url(#Gradient_bez_nazwy_2-4);}.cls-22{fill:url(#Gradient_bez_nazwy_2-5);}.cls-23{fill:url(#Gradient_bez_nazwy_5-5);}.cls-24{fill:url(#Gradient_bez_nazwy_5-6);}.cls-25{fill:#4e11f4;}.cls-26{fill:url(#Gradient_bez_nazwy_5-7);}.cls-27{fill:url(#Gradient_bez_nazwy_5-8);}.cls-28{fill:url(#Gradient_bez_nazwy_5-9);}.cls-29{fill:#f70f47;}.cls-30{fill:url(#Gradient_bez_nazwy_3);}.cls-31{fill:url(#Gradient_bez_nazwy_3-2);}</style><linearGradient id="Gradient_bez_nazwy_4" x1="45.38" y1="55.3" x2="5.61" y2="26.62" gradientUnits="userSpaceOnUse"><stop offset="0" stop-color="#2c27ce"/><stop offset="0.65" stop-color="#ef1d68"/><stop offset="1" stop-color="#efba92"/></linearGradient><linearGradient id="Gradient_bez_nazwy_2" x1="599.07" y1="5322.82" x2="586.78" y2="5353.44" gradientTransform="matrix(0.61, -0.79, 0.79, 0.61, -4547.55, -2747.49)" gradientUnits="userSpaceOnUse"><stop offset="0" stop-color="#f70f47"/><stop offset="1" stop-color="#9e005d"/></linearGradient><linearGradient id="Gradient_bez_nazwy_2-2" x1="988.28" y1="3163.87" x2="974.52" y2="3198.17" gradientTransform="matrix(0.85, -0.52, 0.52, 0.85, -2451.59, -2162.89)" xlink:href="#Gradient_bez_nazwy_2"/><linearGradient id="Gradient_bez_nazwy_2-3" x1="23.31" y1="51.89" x2="27.85" y2="90.9" gradientTransform="matrix(1, 0, 0, 1, 0, 0)" xlink:href="#Gradient_bez_nazwy_2"/><linearGradient id="Gradient_bez_nazwy_10" x1="31.39" y1="79" x2="13.4" y2="131.38" gradientUnits="userSpaceOnUse"><stop offset="0" stop-color="#36078b"/><stop offset="1" stop-color="#168d68"/></linearGradient><linearGradient id="Gradient_bez_nazwy_5" x1="-525.62" y1="-673.37" x2="-544.01" y2="-619.83" gradientTransform="matrix(0.99, 0.15, -0.15, 0.99, 458.22, 829.84)" gradientUnits="userSpaceOnUse"><stop offset="0" stop-color="#36078b"/><stop offset="1" stop-color="#16b1ff"/></linearGradient><linearGradient id="Gradient_bez_nazwy_5-2" x1="28.49" y1="78.01" x2="10.5" y2="130.38" gradientTransform="matrix(1, 0, 0, 1, 0, 0)" xlink:href="#Gradient_bez_nazwy_5"/><linearGradient id="Gradient_bez_nazwy_5-3" x1="54.12" y1="86.81" x2="36.13" y2="139.19" gradientTransform="matrix(1, 0, 0, 1, 0, 0)" xlink:href="#Gradient_bez_nazwy_5"/><linearGradient id="Gradient_bez_nazwy_5-4" x1="42.22" y1="82.72" x2="24.23" y2="135.1" gradientTransform="matrix(1, 0, 0, 1, 0, 0)" xlink:href="#Gradient_bez_nazwy_5"/><linearGradient id="Gradient_bez_nazwy_4-2" x1="36.96" y1="185.2" x2="39" y2="160.13" xlink:href="#Gradient_bez_nazwy_4"/><linearGradient id="Gradient_bez_nazwy_4-3" x1="8.21" y1="189.85" x2="10.78" y2="158.26" xlink:href="#Gradient_bez_nazwy_4"/><linearGradient id="Gradient_bez_nazwy_4-4" x1="40.6" y1="49.83" x2="18.04" y2="24.08" xlink:href="#Gradient_bez_nazwy_4"/><linearGradient id="Gradient_bez_nazwy_4-5" x1="45.24" y1="45.76" x2="22.68" y2="20.01" xlink:href="#Gradient_bez_nazwy_4"/><linearGradient id="Gradient_bez_nazwy_2-4" x1="482.53" y1="-1127.23" x2="467.75" y2="-1090.39" gradientTransform="matrix(0.71, 0.18, -0.26, 0.97, -620.48, 1042.6)" xlink:href="#Gradient_bez_nazwy_2"/><linearGradient id="Gradient_bez_nazwy_2-5" x1="-2804.94" y1="-2327.68" x2="-2815.71" y2="-2300.84" gradientTransform="matrix(0.81, 0.58, -0.58, 0.81, 959.16, 3579.29)" xlink:href="#Gradient_bez_nazwy_2"/><linearGradient id="Gradient_bez_nazwy_5-5" x1="146.18" y1="64.61" x2="162.75" y2="82.04" gradientTransform="matrix(1, 0, 0, 1, 0, 0)" xlink:href="#Gradient_bez_nazwy_5"/><linearGradient id="Gradient_bez_nazwy_5-6" x1="156.24" y1="55.04" x2="172.81" y2="72.48" gradientTransform="matrix(1, 0, 0, 1, 0, 0)" xlink:href="#Gradient_bez_nazwy_5"/><linearGradient id="Gradient_bez_nazwy_5-7" x1="-4639.42" y1="-2743.44" x2="-4639.42" y2="-2705.1" gradientTransform="matrix(0.58, 0.81, -0.81, 0.58, 623.79, 5409.16)" xlink:href="#Gradient_bez_nazwy_5"/><linearGradient id="Gradient_bez_nazwy_5-8" x1="135.28" y1="31.33" x2="135.28" y2="69.67" gradientTransform="matrix(1, 0, 0, 1, 0, 0)" xlink:href="#Gradient_bez_nazwy_5"/><linearGradient id="Gradient_bez_nazwy_5-9" x1="144.58" y1="31.33" x2="144.58" y2="69.67" gradientTransform="matrix(1, 0, 0, 1, 0, 0)" xlink:href="#Gradient_bez_nazwy_5"/><linearGradient id="Gradient_bez_nazwy_3" x1="134.15" y1="14.62" x2="166.43" y2="39.48" gradientUnits="userSpaceOnUse"><stop offset="0" stop-color="blue"/><stop offset="1" stop-color="#9e005d"/></linearGradient><linearGradient id="Gradient_bez_nazwy_3-2" x1="132.27" y1="17.06" x2="164.55" y2="41.92" xlink:href="#Gradient_bez_nazwy_3"/></defs><title>zashita</title><g class="cls-1"><g id="Слой_2" data-name="Слой 2"><g id="Designed_by_Freepik" data-name="Designed by Freepik"><rect class="cls-2" x="28.39" y="45.29" width="92.49" height="117.08" rx="12" ry="12"/><rect class="cls-2" x="33.7" y="45.29" width="92.49" height="117.08" rx="12" ry="12"/><path class="cls-3" d="M110.08,148.86H49.81a2.61,2.61,0,0,1-2.61-2.61V61.4a2.61,2.61,0,0,1,2.61-2.61h60.27a2.61,2.61,0,0,1,2.61,2.61v84.86A2.61,2.61,0,0,1,110.08,148.86ZM49.81,59.08a2.32,2.32,0,0,0-2.32,2.32v84.86a2.32,2.32,0,0,0,2.32,2.32h60.27a2.32,2.32,0,0,0,2.32-2.32V61.4a2.32,2.32,0,0,0-2.32-2.32Z"/><rect class="cls-2" x="48.48" y="60.08" width="62.92" height="87.51" rx="2.33" ry="2.33"/><rect class="cls-2" x="41.76" y="162.37" width="8.53" height="2.08" rx="0.59" ry="0.59"/><rect class="cls-2" x="109.6" y="162.37" width="8.53" height="2.08" rx="0.59" ry="0.59"/><rect class="cls-2" x="45.45" y="71.22" width="3.79" height="13.22" rx="1.07" ry="1.07"/><rect class="cls-2" x="45.45" y="123.22" width="3.79" height="13.22" rx="1.07" ry="1.07"/><circle class="cls-4" cx="79.94" cy="105.49" r="19.39"/><circle class="cls-2" cx="79.94" cy="103.83" r="19.39"/><circle class="cls-2" cx="79.94" cy="71.96" r="4.74"/><path class="cls-2" d="M79.94,75.7A3.74,3.74,0,1,1,83.69,72,3.75,3.75,0,0,1,79.94,75.7Zm0-7.2A3.46,3.46,0,1,0,83.4,72,3.46,3.46,0,0,0,79.94,68.5Z"/><path class="cls-2" d="M79.94,118.55a14.72,14.72,0,1,1,14.72-14.72A14.74,14.74,0,0,1,79.94,118.55Zm0-28.3a13.58,13.58,0,1,0,13.58,13.58A13.6,13.6,0,0,0,79.94,90.25Z"/><circle class="cls-2" cx="79.94" cy="103.83" r="6.16"/><rect class="cls-2" x="65.8" y="103.26" width="28.28" height="1.14" transform="translate(-50 86.94) rotate(-45)"/><rect class="cls-2" x="79.38" y="89.69" width="1.14" height="28.28" transform="translate(-50 86.94) rotate(-45)"/><path class="cls-2" d="M63.34,10.31c.77,9.66,11.93,22.22,15.51,26a1.5,1.5,0,0,0,2.19,0c3.58-3.8,14.74-16.36,15.51-26a1.53,1.53,0,0,0-.79-1.48L80.66.68a1.51,1.51,0,0,0-1.44,0L64.13,8.83A1.53,1.53,0,0,0,63.34,10.31Z"/><path class="cls-5" d="M78.82,32.67C74.25,27.52,67.68,18.95,66.11,12.1a1.52,1.52,0,0,1,.72-1.66L79.19,3.34a1.51,1.51,0,0,1,1.51,0l12.36,7.11a1.52,1.52,0,0,1,.72,1.66C92.21,19,85.64,27.53,81.07,32.67A1.5,1.5,0,0,1,78.82,32.67Z"/><path class="cls-2" d="M78.26,22.29a.85.85,0,0,1-.6-.25l-4.21-4.21a.85.85,0,1,1,1.21-1.21l3.61,3.61,8.5-8.5A.85.85,0,1,1,88,12.93L78.86,22A.85.85,0,0,1,78.26,22.29Z"/><path class="cls-6" d="M20.73,23.45c1.43-2-.21-5.56-4.26-5.9C11.84,17.17,3.62,19.84,8,30.63c4.59,11.23,3.15,14.1.06,15.79,0,0,10.6.85,9.79-8.41S17.42,28.12,20.73,23.45Z"/><path class="cls-7" d="M42,58.54c-1.59-.27-5-1.26-12.35-5.17a59.64,59.64,0,0,1-7.39-4.49c-2.2-1.54-1.45-3.72-.06-4.19a9.34,9.34,0,0,1,6.59.52c6.87,4.27,11.94,7.66,13.84,8.49C45.4,54.9,43.88,58.85,42,58.54Z"/><path class="cls-8" d="M53.9,44.42c.1,1.19-1.31,1.4-3.27,4.67a33.86,33.86,0,0,1-6.75,8.71c-1.9,1.88-5.36-.09-3.52-2.77,1.55-2.27,10.43-10.43,11.37-11.81C52.35,42.31,53.82,43.46,53.9,44.42Z"/><path class="cls-9" d="M19.15,36.92c0,.23-.39,5.14-.46,8.91,0,1.85,1.3,3.6,2.63,3.64h.06c1.3,0,2.84-1.64,2.72-3.45-.21-3.28-.05-6.64,0-6.69Z"/><path class="cls-10" d="M15.34,58.13a64.13,64.13,0,0,1,2.35,10.31,26.12,26.12,0,0,1,0,7.76c-.21,1.55-.51,3.08-.87,4.61-.13.58-1.27,5.23-1.32,5.73H36.72c-.2-4.16-4.94-17.24-1.73-25.71,2.22-5.86-.73-6-2.73-10.92a14.34,14.34,0,0,0-1.7-3.54,6.1,6.1,0,0,0-3.25-2,12.1,12.1,0,0,0-2-.28c-3.6-.29-12.06-1.33-12.86,3.78A9.06,9.06,0,0,0,12.9,52c.48,1.49,1.18,2.9,1.78,4.35Q15,57.24,15.34,58.13Z"/><path class="cls-11" d="M15.56,100s-1.84-4.63-.09-13.49H36.72A130,130,0,0,1,37.49,100Z"/><path class="cls-12" d="M19.34,129.82c2.79-6.83-4-9.17-7-4.38-4.25,6.77-6.09,31.8-6.65,36.45-.07.61.26.55.62.48,1-.2.61-1.18,2.1-1.09.79,0,1,1.14,1,1.14C11.07,156.21,16.64,136.44,19.34,129.82Z"/><path class="cls-13" d="M26.11,101c.75-8.92-2.66-15.84-8-12.9-2.24,1.24-3.06,3.72-3.37,6.05s-2,26.6-2.53,31c-1.3,9.88,6.22,7.22,7,4.48C21.31,122.69,25.7,105.85,26.11,101Z"/><path class="cls-14" d="M38.66,128.41c.28-6.69-6-6.55-7.58-1.1-2.48,8.57,1.81,27,2.08,37.47,1.09-1.81,2.13-2.25,2.61-2.22a1.75,1.75,0,0,1,1.22.69C36.84,149.41,38.36,135.57,38.66,128.41Z"/><path class="cls-15" d="M31.34,129.14c.83,2.73,8,5.89,7.27-4.05-.33-4.41-1.22-28.77-1.39-31.12s-.56-5.78-1.7-6.21c-5.67-2.14-11.18,4.86-9.68,13.68C26.83,107.34,29.61,123.47,31.34,129.14Z"/><path class="cls-16" d="M16.59,33.36c.42,4.19.54,5.12,2.37,6.84a9.88,9.88,0,0,0,6.44,2.5c2.15,0,3.74-2.27,4.22-4a30.48,30.48,0,0,0,.49-10.73A6.77,6.77,0,0,0,24,22.78C21,22.78,15.57,23.12,16.59,33.36Z"/><path class="cls-17" d="M37.26,163.21a7.25,7.25,0,0,0,3,2.28c1.61.72,5,1.05,3.12,1.69a11.32,11.32,0,0,1-5.22.07,22.64,22.64,0,0,0-3.52-.21c-1.74,0-1.75-.12-1.52-2.08C33.46,162.26,36.48,161.68,37.26,163.21Z"/><path class="cls-18" d="M9.39,162c.24.47.5,2.76,2.1,3.47s5,1.05,3.12,1.69a11.32,11.32,0,0,1-5.22.07c-1.12-.18-1.3-1.4-2.61-1.41-1.74,0-1.75-.12-1.52-2.08C5.58,161.06,8.6,160.49,9.39,162Z"/><path class="cls-19" d="M29.41,25.73c1.64,2.8-10.29,7.94-12.94,7.5s-2.63-6.07-.58-8.64S25.53,19.12,29.41,25.73Z"/><path class="cls-20" d="M25,25c.43,2.37,4.59,2.92,5.3,4.88.44,1.22.64-2.63-.33-4.37S24.11,20.26,25,25Z"/><ellipse class="cls-16" cx="16.47" cy="33.98" rx="1.49" ry="2.84" transform="translate(-11.62 8.75) rotate(-22.21)"/><path class="cls-16" d="M17.07,71.65a7.69,7.69,0,0,1,3.59.58c.79.47-1.19.53-2.14.63S16,71.69,17.07,71.65Z"/><path class="cls-16" d="M18.2,72.46c2.33,1.2,3.76,1.46,4.46,2.53S21,76.37,20.1,76.08,16,74.91,15.65,73.88,16.48,71.57,18.2,72.46Z"/><path class="cls-21" d="M.09,62.87c.6-1.5,2.31-4.65,7.69-11a59.53,59.53,0,0,1,6-6.26c2-1.82,3.94-.63,4.1.84a9.35,9.35,0,0,1-1.92,6.32c-5.64,5.8-10,10-11.25,11.71C2.91,67-.62,64.65.09,62.87Z"/><path class="cls-22" d="M16.43,73.95c-1.21.28-1.64-1.14-5.3-2.65a35.23,35.23,0,0,1-10-5.61c-2.22-1.67-.73-5.53,2.31-4C6,62.89,15.77,70.77,17.33,71.53,18.36,72,17.41,73.72,16.43,73.95Z"/><path class="cls-16" d="M55.44,42.72A3.64,3.64,0,0,1,57.3,43.8c.2.31-.42.92-1.58,1.14s-3.66.25-4-.22.14-1.09.86-1.66A3.06,3.06,0,0,1,55.44,42.72Z"/><path class="cls-23" d="M140.49,72.43c1.79.58,3.29,0,7.6-.91,6.21-1.36,7.6-2.08,11.09-4.27,2.28-1.43-1.55-6.15-5-5.11-2.94.88-12,7.44-13.76,8C139.21,70.47,139,72,140.49,72.43Z"/><path class="cls-24" d="M159.84,66.31c.43-1.4.92-4.68,0-12.66a51.41,51.41,0,0,0-1.51-8.37c-.67-2.61-3.37-3.28-4.52-2.45-1.85,1.33-3.46,4.39-3.19,5.78,1.51,7.84,3.14,13.78,3.17,15.74C153.85,67.22,159.33,68,159.84,66.31Z"/><path class="cls-25" d="M156.06,158.77a12.06,12.06,0,0,0-.28,2.08c-.14.84-.93,1.14-1.4,1.83s-1.31,1.85,1.81,1.91c3.34.06,5.32,0,4.75-1.86a9.28,9.28,0,0,1-.64-3.22,2,2,0,0,0-.38-1.57C159.55,157.58,156.55,156.94,156.06,158.77Z"/><path class="cls-16" d="M115.83,56c-1.09-.56-9.83-4.53-9.91-2.44-.08,2.31,3,4.64,4.19,5.29,2.1,1.2,4.63.73,5.64-.34C116.47,57.8,116.87,56.58,115.83,56Z"/><path class="cls-16" d="M115.52,55.42c-.34-.45-2.37-3.1-2.89-2.75-.8.53.44,2.33,1.26,3.52.44.65,1.47,1.22,2,.8S116.06,56.14,115.52,55.42Z"/><path class="cls-25" d="M130.37,160.28a7.78,7.78,0,0,1-3.25,2.37c-1.73.75-5.41,1.1-3.37,1.76a12.68,12.68,0,0,0,5.63.07,25.5,25.5,0,0,1,3.8-.22c1.88,0,1.89-.12,1.64-2.16C134.47,159.29,131.22,158.7,130.37,160.28Z"/><path class="cls-16" d="M151.68,30.16c-.38,3.8-.49,4.64-2.15,6.19s-4.25,1.78-6,1.78-3.22-2.34-3.66-3.95a23.39,23.39,0,0,1-.38-8.94A6.13,6.13,0,0,1,145,20.58C147.68,20.58,152.6,20.89,151.68,30.16Z"/><path class="cls-26" d="M113.76,58.49c1.18,1.46,2.14,2.3,6.38,3.55a53.08,53.08,0,0,0,11.93,2.46c2.68.17,2.24-6.24-1.25-7.25-2.95-.85-14.09-.23-15.89-.76C113.75,56.15,112.79,57.31,113.76,58.49Z"/><path class="cls-27" d="M132.34,62.88c1.12-.95,3.29-3.45,6.82-10.66a51.51,51.51,0,0,0,3.23-7.87c.84-2.56-1.08-4.58-2.49-4.5-2.28.13-5.28,1.84-5.8,3.15-2.95,7.42-4.76,13.31-5.79,15C126.79,60.42,131,64,132.34,62.88Z"/><path class="cls-16" d="M149.74,36.85c.1,1.32.2,2.83.24,4.21a3.62,3.62,0,0,1-3.16,3.68h-.21c-1.64,0-3.57-1.48-3.42-3.12.09-1.07.13-2.14.14-3.09a4.26,4.26,0,0,1,2.84-4h0A2.68,2.68,0,0,1,149.74,36.85Z"/><path class="cls-28" d="M157.34,53.07c-3,10-4,20.46-3.45,27.45H131s.13-21.48,1.67-33.24a8.8,8.8,0,0,1,4.84-6.75,16.46,16.46,0,0,1,6.11-1.35h4.24a16.05,16.05,0,0,1,4.48.56C158.55,41.65,159.1,47.27,157.34,53.07Z"/><path class="cls-29" d="M153.79,94.55s2-4.81.09-14H131a130.36,130.36,0,0,0-.84,14Z"/><path class="cls-29" d="M149.27,124.57c-1.84-7.47,5.79-8.78,8.2-3.38,3.41,7.64,3.13,32.06,3,36.94,0,.64.09,1.42-.24,1.64a4.91,4.91,0,0,1-2.42.39c-.85,0-1.69,0-1.78-1.08C155.39,152,151,131.8,149.27,124.57Z"/><path class="cls-29" d="M142.41,95.56c-.81-9.28,2.87-16.48,8.62-13.42,2.42,1.29,3.31,3.87,3.63,6.3s2.11,27.67,2.73,32.23c1.41,10.28-6.71,7.51-7.59,4.66C147.58,118.13,142.85,100.61,142.41,95.56Z"/><path class="cls-29" d="M134.79,161.92c.29-10.93,4.92-30.06,2.24-39-1.7-5.66-8.48-5.81-8.18,1.15.32,7.44,2.56,21.86,1.8,36.23C130.58,161.74,134.74,163.19,134.79,161.92Z"/><path class="cls-29" d="M136.76,124.84c-.9,2.84-8.66,6.13-7.85-4.21.36-4.59,1.32-29.93,1.5-32.37s.61-6,1.83-6.46c6.13-2.23,12.07,5.06,10.46,14.23C141.63,102.16,138.63,118.95,136.76,124.84Z"/><ellipse class="cls-16" cx="139.19" cy="29.87" rx="1.34" ry="2.57" transform="translate(-0.96 54.86) rotate(-22.22)"/><ellipse class="cls-16" cx="151.57" cy="29.87" rx="2.57" ry="1.35" transform="matrix(0.38, -0.93, 0.93, 0.38, 66.61, 158.9)"/><path class="cls-30" d="M150.51,22.68c-1.48,2.21-8.62,2.41-11,1.6s-2.17-5.32,1.17-5.63c1.88,0,.52.45,2,1.06C143.53,20,152.09,20.33,150.51,22.68Z"/><path class="cls-31" d="M142.47,22.3c-2.2,1.33-2.71,2.49-2.65,5.21s1.23,7.36,6.23,8.39,6.19-3.93,6.49-7.36.11-6-2.42-6.6C146.36,21,143.81,21.5,142.47,22.3Z"/></g></g></g></svg>