<?xml version="1.0" encoding="utf-8"?>
<!-- Generator: Adobe Illustrator 18.1.0, SVG Export Plug-In . SVG Version: 6.00 Build 0)  -->
<svg version="1.1" id="Слой_1" xmlns="http://www.w3.org/2000/svg" xmlns:xlink="http://www.w3.org/1999/xlink" x="0px" y="0px"
	 viewBox="-375 368 248 265" enable-background="new -375 368 248 265" xml:space="preserve">
<g>
	<g opacity="0.3">
		
			<image overflow="visible" enable-background="new    " width="248" height="265" xlink:href="29B04B36.png"  transform="matrix(3.4234 0 0 2.6528 -2251 233.5)">
		</image>
	</g>
</g>
<path display="none" fill="#E53838" stroke="#AAAAAA" stroke-miterlimit="10" d="M36.9,661c0,0-1.2-22.6-42.8-19.7
	c0,0-77.2,5.8-112.2,74.3c0,0-30.4,65.4,21.1,102.1c0,0,18.2,21.1,93,21.4c0,0,102.8-13.3,121.3-92.3c0,0,8.7-32.4-39.9-46
	c0,0-32.1-14.5-39.1-35.6L36.9,661z"/>
<path opacity="0.38" fill="#CE2E7B" d="M-205.2,398.3c0,0-13.6-8.5-73.7,15.1c0,0-58.6,7.6-85.2,47.4c0,0-32.6,63.4,21.7,95.8
	c0,0,27.8,15.7,44.7,13.6c0,0,24.5,4.8,30.2,12.7c0,0,43.2,18.1,77.3-11.8c0,0,16-16,16.6-21.4c0,0,54.1-64,44.1-93
	C-129.4,456.6-137.3,402.8-205.2,398.3z"/>
</svg>
