<?xml version="1.0" encoding="utf-8"?>
<!-- Generator: Adobe Illustrator 18.1.0, SVG Export Plug-In . SVG Version: 6.00 Build 0)  -->
<svg version="1.1" id="Слой_1" xmlns="http://www.w3.org/2000/svg" xmlns:xlink="http://www.w3.org/1999/xlink" x="0px" y="0px"
	 viewBox="-375 368 248 265" enable-background="new -375 368 248 265" xml:space="preserve">
<g>
	<g opacity="0.3">
		
			<image overflow="visible" enable-background="new    " width="248" height="265" xlink:href="6CF869E9.png"  transform="matrix(3.4234 0 0 2.6528 -1299 457)">
		</image>
	</g>
</g>
<linearGradient id="SVGID_1_" gradientUnits="userSpaceOnUse" x1="-373.4821" y1="496.6394" x2="-128.5179" y2="496.6394">
	<stop  offset="0" style="stop-color:#FFFFFF"/>
	<stop  offset="0" style="stop-color:#447FA0;stop-opacity:0.2"/>
</linearGradient>
<path fill="url(#SVGID_1_)" d="M-209.5,417.5c0,0-1.2-22.6-42.8-19.7c0,0-77.2,5.8-112.2,74.3c0,0-30.4,65.4,21.1,102.1
	c0,0,18.2,21.1,93,21.4c0,0,102.8-13.3,121.3-92.3c0,0,8.7-32.4-39.9-46c0,0-32.1-14.5-39.1-35.6L-209.5,417.5z"/>
</svg>
